<svg width="24" height="24" viewBox="0 0 24 24" fill="none" xmlns="http://www.w3.org/2000/svg">
<path fill-rule="evenodd" clip-rule="evenodd" d="M19.1355 4.10344C19.3568 4.01185 19.5991 3.98026 19.837 4.01196C20.0749 4.04366 20.2999 4.13749 20.4884 4.28369C20.677 4.42988 20.8222 4.6231 20.9091 4.84322C20.9959 5.06335 21.0212 5.30233 20.9822 5.53531L18.951 17.6498C18.754 18.8184 17.45 19.4885 16.3601 18.9064C15.4484 18.4195 14.0943 17.6692 12.8763 16.8863C12.2673 16.4945 10.4018 15.2396 10.6311 14.3467C10.8281 13.5832 13.9627 10.7142 15.7538 9.00842C16.4568 8.33828 16.1362 7.95169 15.306 8.56812C13.2435 10.0986 9.93435 12.4261 8.83996 13.0812C7.87452 13.6589 7.37121 13.7575 6.76938 13.6589C5.6714 13.4793 4.65313 13.201 3.82204 12.862C2.69899 12.404 2.75362 10.8859 3.82114 10.4438L19.1355 4.10344Z" fill="black"/>
</svg>
