<svg width="24" height="25" viewBox="0 0 24 25" fill="none" xmlns="http://www.w3.org/2000/svg">
<path d="M16.8201 21.268L3.75306 4.468C3.68419 4.37931 3.64159 4.27307 3.6301 4.16137C3.61861 4.04967 3.63871 3.93698 3.68809 3.83613C3.73747 3.73528 3.81416 3.65032 3.90944 3.59089C4.00472 3.53147 4.11477 3.49998 4.22706 3.5H6.70706C6.79836 3.50014 6.88842 3.5211 6.97038 3.56131C7.05235 3.60151 7.12406 3.65989 7.18006 3.732L20.2471 20.532C20.3159 20.6207 20.3585 20.7269 20.37 20.8386C20.3815 20.9503 20.3614 21.063 20.312 21.1639C20.2626 21.2647 20.186 21.3497 20.0907 21.4091C19.9954 21.4685 19.8854 21.5 19.7731 21.5H17.2931C17.2018 21.4999 17.1117 21.4789 17.0297 21.4387C16.9478 21.3985 16.8761 21.3401 16.8201 21.268Z" stroke="black" stroke-width="1.5"/>
<path d="M20 3.5L4 21.5" stroke="black" stroke-width="1.5" stroke-linecap="round"/>
</svg>
