<svg width="24" height="24" viewBox="0 0 24 24" fill="none" xmlns="http://www.w3.org/2000/svg">
<path d="M18.3769 5.61905C17.5476 4.78558 16.5599 4.12475 15.4712 3.6751C14.3826 3.22544 13.2149 2.99597 12.0362 3.00005C7.09749 3.00005 3.07236 7.00504 3.07236 11.919C3.07236 13.494 3.48844 15.024 4.26633 16.374L3 21L7.74874 19.758C9.0603 20.469 10.5347 20.847 12.0362 20.847C16.9749 20.847 21 16.842 21 11.928C21 9.54303 20.0683 7.30204 18.3769 5.61905ZM12.0362 19.335C10.6975 19.335 9.38593 18.975 8.23719 18.3L7.96583 18.138L5.14372 18.876L5.89447 16.14L5.71357 15.861C4.96982 14.6793 4.5749 13.3133 4.57387 11.919C4.57387 7.83304 7.9206 4.50305 12.0271 4.50305C14.0171 4.50305 15.8894 5.27705 17.2915 6.68104C17.9857 7.36861 18.5358 8.18643 18.91 9.08712C19.2842 9.9878 19.475 10.9534 19.4714 11.928C19.4894 16.014 16.1427 19.335 12.0362 19.335ZM16.1246 13.791C15.8985 13.683 14.795 13.143 14.596 13.062C14.3879 12.99 14.2432 12.954 14.0894 13.17C13.9357 13.395 13.5106 13.899 13.3839 14.043C13.2573 14.196 13.1216 14.214 12.8955 14.097C12.6693 13.989 11.9457 13.746 11.0955 12.99C10.4261 12.396 9.98291 11.667 9.84724 11.442C9.7206 11.217 9.82914 11.1 9.94673 10.983C10.0462 10.884 10.1729 10.722 10.2814 10.596C10.3899 10.47 10.4352 10.371 10.5075 10.227C10.5799 10.074 10.5437 9.94803 10.4894 9.84003C10.4352 9.73203 9.98291 8.63404 9.80201 8.18404C9.6211 7.75204 9.43116 7.80604 9.29548 7.79704H8.86131C8.70754 7.79704 8.47236 7.85104 8.26432 8.07604C8.06533 8.30104 7.48643 8.84104 7.48643 9.93903C7.48643 11.037 8.29146 12.099 8.4 12.243C8.50854 12.396 9.98291 14.646 12.2261 15.609C12.7598 15.843 13.1759 15.978 13.5015 16.077C14.0352 16.248 14.5236 16.221 14.9126 16.167C15.3467 16.104 16.2422 15.627 16.4231 15.105C16.6131 14.583 16.6131 14.142 16.5497 14.043C16.4864 13.944 16.3508 13.899 16.1246 13.791Z" fill="black"/>
</svg>
