<svg width="16" height="16" viewBox="0 0 16 16" fill="none" xmlns="http://www.w3.org/2000/svg">
<g clip-path="url(#clip0_355_826)">
<path fill-rule="evenodd" clip-rule="evenodd" d="M3.77914 3.17339C3.79701 3.02196 3.85 2.87679 3.93388 2.74944C4.01776 2.6221 4.13022 2.51611 4.2623 2.4399C4.39438 2.3637 4.54243 2.31939 4.69466 2.3105C4.84689 2.30162 4.99909 2.3284 5.13914 2.38873C5.84714 2.69139 7.4338 3.41073 9.44714 4.57273C11.4611 5.73539 12.8778 6.75073 13.4931 7.21139C14.0185 7.60539 14.0198 8.38673 13.4938 8.78206C12.8845 9.24006 11.4851 10.2421 9.44714 11.4194C7.40714 12.5967 5.83914 13.3074 5.1378 13.6061C4.5338 13.8641 3.8578 13.4727 3.77914 12.8214C3.68714 12.0601 3.51514 10.3314 3.51514 7.99672C3.51514 5.66339 3.68647 3.93539 3.77914 3.17339Z" fill="black"/>
</g>
<defs>
<clipPath id="clip0_355_826">
<rect width="16" height="16" fill="white"/>
</clipPath>
</defs>
</svg>
