<svg width="24" height="24" viewBox="0 0 24 24" fill="none" xmlns="http://www.w3.org/2000/svg">
<path d="M8.68567 14.3156L14.3163 8.68536M6.57356 10.7963L5.16615 12.2037C4.79643 12.5733 4.50316 13.0122 4.30307 13.4953C4.10298 13.9783 4 14.496 4 15.0188C4 15.5416 4.10298 16.0593 4.30307 16.5423C4.50316 17.0254 4.79643 17.4642 5.16615 17.8339C5.53586 18.2036 5.97477 18.4969 6.45783 18.6969C6.94088 18.897 7.45861 19 7.98147 19C8.50432 19 9.02206 18.897 9.50511 18.6969C9.98816 18.4969 10.4271 18.2036 10.7968 17.8339L12.2022 16.4266M10.7958 6.57339L12.2032 5.16607C12.5729 4.79638 13.0118 4.50313 13.4949 4.30305C13.9779 4.10298 14.4957 4 15.0185 4C15.5414 4 16.0591 4.10298 16.5422 4.30305C17.0252 4.50313 17.4641 4.79638 17.8339 5.16607C18.2036 5.53576 18.4968 5.97464 18.6969 6.45766C18.897 6.94069 19 7.45839 19 7.9812C19 8.50402 18.897 9.02172 18.6969 9.50475C18.4968 9.98777 18.2036 10.4267 17.8339 10.7963L16.4264 12.2037" stroke="black" stroke-width="2.5" stroke-linecap="round" stroke-linejoin="round"/>
</svg>
