<svg width="20" height="20" viewBox="0 0 20 20" fill="none" xmlns="http://www.w3.org/2000/svg">
<path d="M10 17.5C8.96778 17.5 7.99556 17.3028 7.08333 16.9083C6.17111 16.5139 5.37667 15.9778 4.7 15.3C4.02222 14.6239 3.48611 13.8294 3.09167 12.9167C2.69722 12.0044 2.5 11.0322 2.5 10C2.5 8.965 2.69722 7.99194 3.09167 7.08083C3.48667 6.16972 4.02278 5.37583 4.7 4.69917C5.37611 4.0225 6.17056 3.48694 7.08333 3.0925C7.99556 2.6975 8.96778 2.5 10 2.5C11.035 2.5 12.0081 2.69722 12.9192 3.09167C13.8303 3.48667 14.6242 4.02278 15.3008 4.7C15.9775 5.37667 16.5131 6.17028 16.9075 7.08083C17.3025 7.99194 17.5 8.965 17.5 10C17.5 11.0322 17.3028 12.0044 16.9083 12.9167C16.5139 13.8289 15.9778 14.6233 15.3 15.3C14.6233 15.9772 13.8297 16.5133 12.9192 16.9083C12.0081 17.3028 11.035 17.5 10 17.5ZM10 16.6733C10.4889 16.045 10.8922 15.4281 11.21 14.8225C11.5272 14.2169 11.7853 13.5392 11.9842 12.7892H8.01583C8.23583 13.5814 8.49917 14.2803 8.80583 14.8858C9.1125 15.4914 9.51056 16.0872 10 16.6733ZM8.93917 16.5483C8.55028 16.09 8.19528 15.5233 7.87417 14.8483C7.55306 14.1739 7.31417 13.4872 7.1575 12.7883H3.96083C4.43861 13.825 5.11556 14.675 5.99167 15.3383C6.86833 16.0017 7.85056 16.405 8.93833 16.5483M11.06 16.5483C12.1478 16.405 13.13 16.0017 14.0067 15.3383C14.8833 14.675 15.5603 13.825 16.0375 12.7883H12.8425C12.6314 13.4978 12.3656 14.19 12.045 14.865C11.7239 15.5394 11.3956 16.1006 11.06 16.5483ZM3.62083 11.955H6.98333C6.92 11.6133 6.87556 11.2803 6.85 10.9558C6.82333 10.6314 6.81 10.3128 6.81 10C6.81 9.68722 6.82306 9.36861 6.84917 9.04417C6.87528 8.71972 6.91972 8.38639 6.9825 8.04417H3.6225C3.53194 8.33306 3.46111 8.64778 3.41 8.98833C3.35889 9.32889 3.33333 9.66611 3.33333 10C3.33333 10.3344 3.35861 10.6717 3.40917 11.0117C3.46028 11.3522 3.53111 11.6667 3.62167 11.955M7.8175 11.955H12.1825C12.2458 11.6133 12.2903 11.2856 12.3158 10.9717C12.3425 10.6583 12.3558 10.3344 12.3558 10C12.3558 9.66556 12.3428 9.34167 12.3167 9.02833C12.2906 8.71444 12.2461 8.38667 12.1833 8.045H7.81667C7.75389 8.38667 7.70944 8.71444 7.68333 9.02833C7.65722 9.34167 7.64417 9.66556 7.64417 10C7.64417 10.3344 7.65722 10.6583 7.68333 10.9717C7.70944 11.2856 7.75472 11.6133 7.8175 11.955ZM13.0167 11.955H16.3783C16.4689 11.6661 16.5397 11.3517 16.5908 11.0117C16.6419 10.6717 16.6672 10.3344 16.6667 10C16.6667 9.66556 16.6414 9.32833 16.5908 8.98833C16.5397 8.64778 16.4689 8.33333 16.3783 8.045H13.0158C13.0792 8.38667 13.1236 8.71972 13.1492 9.04417C13.1758 9.36861 13.1892 9.68722 13.1892 10C13.1892 10.3128 13.1761 10.6314 13.15 10.9558C13.1239 11.2803 13.0794 11.6136 13.0167 11.9558M12.8433 7.21167H16.0383C15.55 6.15389 14.8811 5.30389 14.0317 4.66167C13.1817 4.01944 12.1914 3.61111 11.0608 3.43667C11.4497 3.94778 11.7994 4.53278 12.11 5.19167C12.42 5.85 12.6644 6.52333 12.8433 7.21167ZM8.01583 7.21167H11.9842C11.7642 6.42944 11.4928 5.72222 11.17 5.09C10.8478 4.45722 10.4578 3.86944 10 3.32667C9.54278 3.86944 9.15278 4.45722 8.83 5.09C8.50778 5.72222 8.23639 6.42944 8.01583 7.21167ZM3.96167 7.21167H7.15667C7.33556 6.52333 7.58 5.85 7.89 5.19167C8.20056 4.53278 8.55028 3.9475 8.93917 3.43583C7.79806 3.61083 6.80528 4.02194 5.96083 4.66917C5.11639 5.31694 4.44972 6.16417 3.96083 7.21083" fill="black"/>
</svg>
