<svg width="33" height="32" viewBox="0 0 33 32" fill="none" xmlns="http://www.w3.org/2000/svg">
<path d="M16.5 18C15.5111 18 14.5444 17.7068 13.7222 17.1574C12.8999 16.6079 12.259 15.8271 11.8806 14.9134C11.5022 13.9998 11.4031 12.9945 11.5961 12.0246C11.789 11.0546 12.2652 10.1637 12.9645 9.46447C13.6637 8.76521 14.5546 8.289 15.5246 8.09608C16.4945 7.90315 17.4998 8.00217 18.4134 8.3806C19.3271 8.75904 20.1079 9.39991 20.6574 10.2222C21.2068 11.0444 21.5 12.0111 21.5 13C21.4984 14.3256 20.9711 15.5964 20.0338 16.5338C19.0964 17.4711 17.8256 17.9984 16.5 18ZM16.5 10C15.9067 10 15.3266 10.1759 14.8333 10.5056C14.3399 10.8352 13.9554 11.3038 13.7284 11.852C13.5013 12.4001 13.4419 13.0033 13.5576 13.5853C13.6734 14.1672 13.9591 14.7018 14.3787 15.1213C14.7982 15.5409 15.3328 15.8266 15.9147 15.9424C16.4967 16.0581 17.0999 15.9987 17.6481 15.7716C18.1962 15.5446 18.6648 15.1601 18.9944 14.6667C19.3241 14.1734 19.5 13.5933 19.5 13C19.4992 12.2046 19.1829 11.442 18.6204 10.8796C18.058 10.3171 17.2954 10.0008 16.5 10Z" fill="black"/>
<path d="M16.5 30L8.06401 20.051C7.94679 19.9016 7.83079 19.7513 7.71601 19.6C6.27499 17.7018 5.49652 15.3832 5.50001 13C5.50001 10.0826 6.65894 7.28473 8.72184 5.22183C10.7847 3.15893 13.5826 2 16.5 2C19.4174 2 22.2153 3.15893 24.2782 5.22183C26.3411 7.28473 27.5 10.0826 27.5 13C27.5035 15.3821 26.7254 17.6996 25.285 19.597L25.284 19.6C25.284 19.6 24.984 19.994 24.939 20.047L16.5 30ZM9.31301 18.395C9.31301 18.395 9.54601 18.703 9.59901 18.769L16.5 26.908L23.41 18.758C23.454 18.703 23.688 18.393 23.689 18.392C24.8662 16.8411 25.5023 14.947 25.5 13C25.5 10.6131 24.5518 8.32387 22.864 6.63604C21.1761 4.94821 18.887 4 16.5 4C14.1131 4 11.8239 4.94821 10.1361 6.63604C8.44822 8.32387 7.50001 10.6131 7.50001 13C7.49791 14.9482 8.13479 16.8434 9.31301 18.395Z" fill="black"/>
</svg>
