<svg width="23" height="23" viewBox="0 0 23 23" fill="none" xmlns="http://www.w3.org/2000/svg">
<path fill-rule="evenodd" clip-rule="evenodd" d="M21.0749 0.425049H12.0749C11.5226 0.425049 11.0749 0.872765 11.0749 1.42505C11.0749 1.97733 11.5226 2.42505 12.0749 2.42505L18.6607 2.42505L8.34071 12.745C7.95019 13.1355 7.95019 13.7687 8.34071 14.1592C8.73123 14.5498 9.3644 14.5498 9.75492 14.1592L20.0749 3.83926V10.425C20.0749 10.9773 20.5226 11.425 21.0749 11.425C21.6272 11.425 22.0749 10.9773 22.0749 10.425L22.0749 1.42505C22.0749 0.872764 21.6272 0.425049 21.0749 0.425049ZM3 4.43575H9.78474V6.43575H3C2.44772 6.43575 2 6.88346 2 7.43575V19.4999C2 20.0522 2.44772 20.4999 3 20.4999H15.0641C15.6164 20.4999 16.0641 20.0522 16.0641 19.4999V12.7152H18.0641V19.4999C18.0641 21.1567 16.721 22.4999 15.0641 22.4999H3C1.34314 22.4999 0 21.1567 0 19.4999V7.43575C0 5.77889 1.34315 4.43575 3 4.43575Z" fill="black"/>
</svg>
