<svg width="24" height="25" viewBox="0 0 24 25" fill="none" xmlns="http://www.w3.org/2000/svg">
<path d="M19.9297 23.25H4.06841C3.82871 23.25 3.59155 23.2008 3.37166 23.1054C3.15176 23.01 2.95381 22.8705 2.79009 22.6954C2.62637 22.5203 2.50036 22.3135 2.4199 22.0877C2.33943 21.8619 2.30621 21.622 2.32231 21.3828L3.18852 8.38381C3.21901 7.94115 3.4161 7.52649 3.74009 7.22333C4.06408 6.92018 4.49091 6.75105 4.93462 6.75H19.0635C19.5072 6.75104 19.934 6.92017 20.258 7.22333C20.582 7.52648 20.7791 7.94114 20.8096 8.38379L21.6758 21.3838C21.6918 21.6229 21.6585 21.8627 21.578 22.0884C21.4974 22.3141 21.3714 22.5208 21.2077 22.6958C21.044 22.8707 20.8461 23.0102 20.6263 23.1055C20.4064 23.2009 20.1693 23.2501 19.9297 23.25ZM4.93462 8.25C4.87119 8.2502 4.81018 8.27436 4.76382 8.31765C4.71746 8.36093 4.68917 8.42014 4.68462 8.4834L3.81841 21.4834C3.81605 21.5175 3.82072 21.5518 3.83215 21.584C3.84357 21.6163 3.86149 21.6459 3.88481 21.6709C3.90842 21.6959 3.93688 21.7158 3.96845 21.7294C4.00002 21.743 4.03403 21.75 4.06841 21.75H19.9297C19.9641 21.75 19.9981 21.743 20.0297 21.7294C20.0613 21.7158 20.0897 21.6959 20.1133 21.6709C20.1366 21.646 20.1544 21.6166 20.1659 21.5845C20.1773 21.5524 20.182 21.5184 20.1797 21.4844L19.3135 8.48338C19.309 8.42012 19.2807 8.36091 19.2343 8.31763C19.188 8.27434 19.1269 8.25018 19.0635 8.24998L4.93462 8.25Z" fill="black" stroke="black" stroke-width="0.5"/>
<path d="M8 12.2497H7.99805C7.79915 12.2492 7.60861 12.1696 7.46833 12.0286C7.32805 11.8876 7.24952 11.6966 7.25 11.4977L7.26465 6.50455C7.26322 5.88074 7.38487 5.26276 7.62263 4.68603C7.8604 4.1093 8.2096 3.58514 8.65025 3.14358C9.09089 2.70201 9.61433 2.35171 10.1906 2.11275C10.7668 1.87378 11.3845 1.75085 12.0083 1.75098C12.6321 1.75111 13.2498 1.87431 13.8259 2.11351C14.4021 2.35272 14.9254 2.70324 15.3658 3.14499C15.8063 3.58674 16.1553 4.11105 16.3928 4.68788C16.6303 5.26471 16.7517 5.88274 16.75 6.50655L16.7363 11.5017C16.7359 11.7003 16.6566 11.8906 16.516 12.0308C16.3754 12.1711 16.1849 12.2498 15.9863 12.2497H15.9843C15.7854 12.2491 15.5949 12.1696 15.4546 12.0286C15.3144 11.8876 15.2359 11.6966 15.2363 11.4977L15.25 6.5046C15.2515 6.0777 15.1688 5.6547 15.0064 5.25986C14.8441 4.86502 14.6054 4.50612 14.304 4.20376C14.0027 3.90139 13.6446 3.66151 13.2503 3.49788C12.856 3.33424 12.4332 3.25008 12.0063 3.25021C11.5794 3.25034 11.1567 3.33477 10.7625 3.49864C10.3683 3.66252 10.0104 3.90262 9.7092 4.20517C9.40802 4.50773 9.16954 4.86677 9.00745 5.26171C8.84536 5.65665 8.76285 6.0797 8.76465 6.5066L8.75 11.5017C8.74953 11.7003 8.6703 11.8906 8.52969 12.0308C8.38908 12.1711 8.19859 12.2498 8 12.2497Z" fill="black" stroke="black" stroke-width="0.5"/>
<path d="M8 13C8.82843 13 9.5 12.3284 9.5 11.5C9.5 10.6716 8.82843 10 8 10C7.17157 10 6.5 10.6716 6.5 11.5C6.5 12.3284 7.17157 13 8 13Z" fill="black"/>
<path d="M16 13C16.8284 13 17.5 12.3284 17.5 11.5C17.5 10.6716 16.8284 10 16 10C15.1716 10 14.5 10.6716 14.5 11.5C14.5 12.3284 15.1716 13 16 13Z" fill="black"/>
</svg>
