<svg width="28" height="28" viewBox="0 0 28 28" fill="none" xmlns="http://www.w3.org/2000/svg">
<g clip-path="url(#clip0_441_1328)">
<path d="M0.000488281 5.25V7H16.6255V20.125H11.239C10.8487 18.6209 9.49599 17.5 7.87549 17.5C6.25499 17.5 4.90224 18.6209 4.51199 20.125H3.50049V15.75H1.75049V21.875H4.51199C4.90224 23.3791 6.25499 24.5 7.87549 24.5C9.49599 24.5 10.8487 23.3791 11.239 21.875H18.512C18.9022 23.3791 20.255 24.5 21.8755 24.5C23.496 24.5 24.8487 23.3791 25.239 21.875H28.0005V14.7385L27.9454 14.6011L26.1954 9.35113L26.0055 8.75H18.3755V5.25H0.000488281ZM0.875488 8.75V10.5H8.75049V8.75H0.875488ZM18.3755 10.5H24.7464L26.2505 14.9844V20.125H25.239C24.8487 18.6209 23.496 17.5 21.8755 17.5C20.255 17.5 18.9022 18.6209 18.512 20.125H18.3755V10.5ZM1.75049 12.25V14H7.00049V12.25H1.75049ZM7.87549 19.25C8.85286 19.25 9.62549 20.0226 9.62549 21C9.62549 21.9774 8.85286 22.75 7.87549 22.75C6.89811 22.75 6.12549 21.9774 6.12549 21C6.12549 20.0226 6.89811 19.25 7.87549 19.25ZM21.8755 19.25C22.8529 19.25 23.6255 20.0226 23.6255 21C23.6255 21.9774 22.8529 22.75 21.8755 22.75C20.8981 22.75 20.1255 21.9774 20.1255 21C20.1255 20.0226 20.8981 19.25 21.8755 19.25Z" fill="black"/>
</g>
<defs>
<clipPath id="clip0_441_1328">
<rect width="28" height="28" fill="white"/>
</clipPath>
</defs>
</svg>
