<svg width="24" height="24" viewBox="0 0 24 24" fill="none" xmlns="http://www.w3.org/2000/svg">
<path fill-rule="evenodd" clip-rule="evenodd" d="M22.0283 5.89714L16.4054 0.24L15.8054 0H2.57113L1.71399 0.857143V10.2857H3.42827V1.71429H13.714V7.71429L14.5711 8.57143H20.5711V10.2857H22.2854V6.51429L22.0283 5.89714ZM15.4283 6.85714V1.71429L20.5711 6.85714H15.4283ZM2.57113 12L1.71399 12.8571V23.1429L2.57113 24H21.4283L22.2854 23.1429V12.8571L21.4283 12H2.57113ZM20.5711 20.5714V22.2857H3.42827V13.7143H20.5711V20.5714ZM6.85685 18.8571H6.30827V20.5714H5.14256V15.4286H6.9597C8.24542 15.4286 8.89685 16.0457 8.89685 17.1429C8.90016 17.376 8.85283 17.6071 8.75812 17.8202C8.66341 18.0333 8.52358 18.2234 8.34827 18.3771C7.92344 18.7083 7.39508 18.8783 6.85685 18.8571ZM6.75399 16.3714H6.30827V17.9657H6.75399C7.37113 17.9657 7.6797 17.6914 7.6797 17.16C7.6797 16.6286 7.37113 16.3714 6.75399 16.3714ZM13.714 19.8514C13.9672 19.6021 14.1651 19.3023 14.2951 18.9715C14.425 18.6408 14.484 18.2864 14.4683 17.9314C14.4683 16.2171 13.5597 15.4286 11.7254 15.4286H9.90828V20.5714H11.7254C12.088 20.589 12.4505 20.5344 12.7919 20.4108C13.1332 20.2872 13.4467 20.0971 13.714 19.8514ZM11.0568 19.6286V16.3714H11.6226C11.8412 16.3575 12.0604 16.3884 12.2667 16.4621C12.473 16.5358 12.6622 16.6507 12.8226 16.8C12.9687 16.952 13.0821 17.1323 13.1558 17.3299C13.2295 17.5274 13.262 17.738 13.2511 17.9486C13.2768 18.4004 13.1228 18.8441 12.8226 19.1829C12.6656 19.333 12.4799 19.4499 12.2767 19.5265C12.0734 19.6031 11.8567 19.6378 11.6397 19.6286H11.0568ZM18.6854 18.5829H17.0226V20.5714H15.8568V15.4286H18.8397V16.3714H17.0226V17.64H18.6854V18.5829Z" fill="black"/>
</svg>
