<svg width="14" height="15" viewBox="0 0 14 15" fill="none" xmlns="http://www.w3.org/2000/svg">
<path d="M6.41992 4.58268H7.58659V5.74935H6.41992V4.58268ZM6.41992 6.91602H7.58659V10.416H6.41992V6.91602ZM7.00326 1.66602C3.78326 1.66602 1.16992 4.27935 1.16992 7.49935C1.16992 10.7193 3.78326 13.3327 7.00326 13.3327C10.2233 13.3327 12.8366 10.7193 12.8366 7.49935C12.8366 4.27935 10.2233 1.66602 7.00326 1.66602ZM7.00326 12.166C4.43076 12.166 2.33659 10.0718 2.33659 7.49935C2.33659 4.92685 4.43076 2.83268 7.00326 2.83268C9.57576 2.83268 11.6699 4.92685 11.6699 7.49935C11.6699 10.0718 9.57576 12.166 7.00326 12.166Z" fill="black"/>
</svg>
