<svg width="20" height="21" viewBox="0 0 20 21" fill="none" xmlns="http://www.w3.org/2000/svg">
<g clip-path="url(#clip0_409_1085)">
<path d="M19.2871 0.5C19.1905 0.529969 19.0306 0.573257 18.8756 0.629032C13.7611 2.45213 8.64739 4.27607 3.53368 6.10083C2.55493 6.44964 1.5795 6.80676 0.599074 7.14891C0.25505 7.26878 -0.00734018 7.45109 0.000156693 7.84651C0.00765357 8.23861 0.256716 8.43756 0.620731 8.51748C0.674876 8.52914 0.725688 8.55245 0.778999 8.56743C3.53702 9.35245 6.29337 10.1416 9.05388 10.9166C9.35376 11.0007 9.50203 11.1381 9.58783 11.4478C10.1301 13.4091 10.6965 15.3645 11.2555 17.3208C11.4987 18.1724 11.7486 19.0232 11.9868 19.8765C12.0851 20.227 12.255 20.4892 12.6574 20.5C13.0597 20.5108 13.2521 20.2594 13.3621 19.9139C13.3746 19.874 13.3904 19.8357 13.4046 19.7966C15.1555 14.8942 16.9073 9.99261 18.6582 5.09022C19.0864 3.89063 19.5212 2.69355 19.9427 1.49147C20.1293 0.958689 19.8486 0.504162 19.2871 0.500832V0.5ZM12.759 17.6238C12.6782 17.3849 12.6266 17.2484 12.5866 17.1085C12.0118 15.099 11.4429 13.0877 10.8598 11.0806C10.7815 10.8118 10.8048 10.6319 11.0189 10.4272C11.7303 9.7462 12.4225 9.04527 13.1097 8.341C13.4645 7.97721 13.4037 7.46608 12.9981 7.24964C12.664 7.07149 12.3858 7.18221 12.1368 7.43195C11.4421 8.12955 10.7507 8.83132 10.0418 9.51478C9.93518 9.618 9.72194 9.71457 9.59533 9.67877C7.40707 9.07107 5.22381 8.44256 3.04056 7.81821C3.01973 7.81238 3.0039 7.78991 2.93893 7.73746C8.02348 5.92185 13.078 4.1179 18.2459 2.27232C16.405 7.42279 14.6007 12.4709 12.7582 17.6247L12.759 17.6238Z" fill="black"/>
<path d="M7.81279 12.6939C7.51958 12.4033 7.1464 12.4291 6.78821 12.7804C6.32257 13.2366 5.86526 13.7012 5.40462 14.1623C5.00229 14.5644 4.59746 14.964 4.20013 15.3703C3.98688 15.5884 3.89442 15.8664 4.06935 16.1253C4.19513 16.3109 4.41754 16.4316 4.62495 16.604C4.86068 16.4591 5.0581 16.3817 5.19721 16.246C6.05019 15.4119 6.8915 14.5669 7.73199 13.7203C8.07101 13.379 8.096 12.9744 7.81362 12.6939H7.81279Z" fill="black"/>
<path d="M3.83414 13.6113C4.26229 13.1976 4.68628 12.7789 5.09528 12.346C5.22023 12.2136 5.28853 12.028 5.42264 11.7974C5.26188 11.5993 5.14443 11.3762 4.96117 11.248C4.70378 11.0673 4.42139 11.1547 4.20399 11.3645C3.75584 11.7974 3.31269 12.2361 2.88037 12.6848C2.58133 12.9953 2.5755 13.3741 2.83955 13.648C3.11194 13.9302 3.51261 13.9235 3.83497 13.6113H3.83414Z" fill="black"/>
<path d="M8.94946 15.2429C8.6879 15.0681 8.41135 15.1672 8.19477 15.3786C7.75912 15.804 7.3268 16.2336 6.90281 16.6714C6.58544 16.9986 6.57378 17.3849 6.8545 17.6629C7.13105 17.9376 7.52339 17.921 7.84992 17.6038C8.26724 17.1984 8.68207 16.7913 9.08024 16.3668C9.21351 16.2244 9.28932 16.0288 9.43176 15.7899C9.2585 15.5867 9.13605 15.367 8.94946 15.2429Z" fill="black"/>
<path d="M3.35797 16.505C2.99395 16.4883 2.66076 16.8122 2.66409 17.1793C2.66659 17.5406 2.96063 17.8294 3.32714 17.8319C3.69949 17.8344 3.98854 17.5564 3.99603 17.1893C4.00353 16.8296 3.71615 16.5208 3.35797 16.5042V16.505Z" fill="black"/>
</g>
<defs>
<clipPath id="clip0_409_1085">
<rect width="20" height="20" fill="white" transform="translate(0 0.5)"/>
</clipPath>
</defs>
</svg>
