<svg width="24" height="24" viewBox="0 0 24 24" fill="none" xmlns="http://www.w3.org/2000/svg">
<g id="lets-icons:time-progress-duotone-line">
<g id="Group">
<path id="Vector" d="M12.3994 3.51172V5.73394" stroke="#333438" stroke-width="1.66666" stroke-linecap="round"/>
<path id="Vector_2" d="M12.4009 12.4L5.7998 5.80664" stroke="#333438" stroke-width="1.66666" stroke-linecap="round"/>
<path id="Vector_3" d="M21.2895 12.4004H19.0673M12.4006 19.067V21.2893M5.73394 12.4004H3.51172" stroke="#333438" stroke-width="1.66666" stroke-linecap="round"/>
<path id="Vector_4" d="M12.4004 3.06641C14.5597 3.06656 16.6522 3.81542 18.3212 5.18538C19.9903 6.55535 21.1327 8.46166 21.5538 10.5795C21.975 12.6973 21.6487 14.8957 20.6307 16.7999C19.6127 18.7042 17.9659 20.1966 15.9709 21.0228C13.9759 21.849 11.7562 21.9579 9.68989 21.331C7.62361 20.7041 5.83862 19.3801 4.63908 17.5846C3.43953 15.7891 2.89965 13.6333 3.11141 11.4844C3.32318 9.33551 4.27349 7.32652 5.80042 5.79974" stroke="#000" stroke-width="1.66666" stroke-linecap="round"/>
</g>
</g>
</svg>
