<svg width="24" height="24" viewBox="0 0 24 24" fill="none" xmlns="http://www.w3.org/2000/svg">
<g id="octicon:location-24">
<path id="Vector" d="M11.999 13.498C12.6621 13.498 13.2979 13.2347 13.7668 12.7658C14.2356 12.297 14.499 11.6611 14.499 10.998C14.499 10.335 14.2356 9.69912 13.7668 9.23028C13.2979 8.76144 12.6621 8.49805 11.999 8.49805C11.336 8.49805 10.7001 8.76144 10.2313 9.23028C9.76242 9.69912 9.49902 10.335 9.49902 10.998C9.49902 11.6611 9.76242 12.297 10.2313 12.7658C10.7001 13.2347 11.336 13.498 11.999 13.498Z" fill="#333438"/>
<path id="Vector_2" d="M19.0707 3.4268H19.0717C22.9767 7.3318 22.9767 13.6638 19.0717 17.5688L13.6687 22.9718C13.2262 23.4139 12.6263 23.6623 12.0007 23.6623C11.3752 23.6623 10.7752 23.4139 10.3327 22.9718L4.95773 17.5968L4.92973 17.5688C1.02473 13.6638 1.02473 7.3318 4.92973 3.4268C8.83373 -0.478203 15.1657 -0.478203 19.0707 3.4268ZM5.98973 4.4868C4.39592 6.08082 3.50054 8.24366 3.50054 10.4978C3.50054 12.7519 4.39592 14.9138 5.98973 16.5078L6.01273 16.5318L6.01473 16.5338L11.3927 21.9118C11.5538 22.0726 11.7721 22.163 11.9997 22.163C12.2273 22.163 12.4457 22.0726 12.6067 21.9118L18.0097 16.5078C19.5847 14.9099 20.4641 12.7541 20.456 10.5104C20.448 8.26681 19.5532 6.11736 17.9667 4.5308C16.3803 2.94423 14.2309 2.04925 11.9873 2.04101C9.74366 2.03277 7.58777 2.91193 5.98973 4.4868Z" fill="#000"/>
</g>
</svg>
