<svg width="105" height="105" viewBox="0 0 105 105" fill="none" xmlns="http://www.w3.org/2000/svg">
<path d="M37.032 57.5432L43.2785 57.3311C43.906 57.3098 44.3973 56.7842 44.376 56.1571L44.0159 45.5583C43.9946 44.9312 43.4688 44.4401 42.8413 44.4614L36.5948 44.6735C35.9673 44.6948 35.4757 45.2205 35.497 45.8475L35.8571 56.4464C35.8784 57.0734 36.4045 57.5645 37.032 57.5432Z" fill="black"/>
<path d="M51.9165 50.4881L58.1638 50.292C58.7914 50.2723 59.2843 49.748 59.2646 49.1208L58.6346 29.0558C58.6149 28.4286 58.0901 27.9362 57.4624 27.9559L51.2151 28.1519C50.5875 28.1716 50.0946 28.696 50.1143 29.3232L50.7443 49.3883C50.764 50.0154 51.2888 50.5078 51.9165 50.4881Z" fill="black"/>
<path d="M62.0434 56.6944L68.2841 56.4825C68.9116 56.4612 69.4029 55.9357 69.3816 55.3086L68.8705 40.2633C68.8492 39.6362 68.3234 39.1451 67.6958 39.1664L61.4552 39.3783C60.8276 39.3996 60.3364 39.9252 60.3577 40.5523L60.8688 55.5976C60.8901 56.2247 61.4159 56.7157 62.0434 56.6944Z" fill="black"/>
<path d="M37.353 66.8918L68.6034 65.8308C69.231 65.8095 69.7222 65.2839 69.7009 64.6568L69.585 61.2447C69.5637 60.6177 69.0379 60.1266 68.4104 60.1479L37.1599 61.2089C36.5324 61.2302 36.0409 61.7559 36.0622 62.3829L36.1781 65.795C36.1994 66.422 36.7255 66.9131 37.353 66.8918Z" fill="black"/>
<path d="M100.715 43.0446L90.4279 40.5815L86.5546 32.0678L91.4566 22.7C91.7856 22.0672 91.8974 21.3439 91.7748 20.6413C91.6522 19.9388 91.302 19.2961 90.7781 18.8119L83.6643 12.176C83.1446 11.6898 82.4795 11.3875 81.7713 11.3156C81.0631 11.2437 80.3508 11.4061 79.7439 11.7779L70.7236 17.3251L61.9546 14.0383L58.7976 3.94458C58.5832 3.26678 58.153 2.6776 57.5724 2.26684C56.9918 1.85609 56.2927 1.64624 55.5816 1.66933L45.8542 2.00233C45.1428 2.02539 44.4587 2.28118 43.9068 2.7304C43.355 3.17963 42.966 3.79742 42.7996 4.48895L40.3284 14.7745L31.8078 18.6452L22.433 13.7413C21.8001 13.415 21.0777 13.3046 20.3761 13.4271C19.6746 13.5495 19.0323 13.898 18.5475 14.4193L11.9003 21.5279C11.4138 22.0471 11.1113 22.7116 11.0393 23.4193C10.9673 24.1269 11.1297 24.8386 11.5018 25.445L17.0531 34.4643C15.6952 38.0628 15.1208 39.6041 13.7691 43.2144L3.66238 46.4052C2.98238 46.6175 2.39092 47.0468 1.97854 47.6273C1.56616 48.2078 1.35551 48.9075 1.37923 49.619L1.71239 59.3388C1.73581 60.0504 1.99261 60.7346 2.44332 61.2861C2.89403 61.8376 3.51344 62.2258 4.20658 62.391L14.4999 64.8539L18.3736 73.3736L13.4655 82.7414C13.137 83.3734 13.0253 84.0957 13.1478 84.7972C13.2704 85.4987 13.6205 86.1404 14.1439 86.6237L21.2579 93.2656C21.7782 93.7508 22.4434 94.0519 23.1516 94.1228C23.8598 94.1936 24.5716 94.0302 25.1778 93.6576L34.1984 88.1104L42.967 91.3914L46.124 101.485C46.3375 102.163 46.7678 102.753 47.3486 103.164C47.9294 103.575 48.629 103.784 49.3403 103.76L59.0736 103.433C59.785 103.407 60.4683 103.149 61.0197 102.699C61.571 102.249 61.9604 101.632 62.1284 100.941L64.5933 90.6492L73.1079 86.7846L82.4889 91.6884C83.1213 92.0166 83.8441 92.1281 84.5461 92.0056C85.2481 91.8831 85.8904 91.5334 86.374 91.0104L93.0215 83.9017C93.5086 83.3815 93.8111 82.716 93.8831 82.0073C93.9551 81.2986 93.7922 80.5859 93.4196 79.9786L87.8683 70.9593C89.2262 67.3608 89.8007 65.8255 91.1523 62.2092L101.26 59.0542C101.94 58.8398 102.531 58.4091 102.943 57.8278C103.355 57.2465 103.566 56.5464 103.543 55.8344L103.21 46.1146C103.19 45.3998 102.935 44.7115 102.484 44.1564C102.033 43.6013 101.411 43.2105 100.715 43.0446ZM53.3596 79.0149C48.1491 79.1929 43.0031 77.8232 38.5717 75.0791C34.1403 72.3349 30.6225 68.3394 28.4634 63.5978C26.3043 58.8562 25.6004 53.5812 26.4412 48.4399C27.2819 43.2986 29.6294 38.5218 33.1867 34.7133C36.744 30.9048 41.3515 28.2358 46.4266 27.0435C51.5018 25.8512 56.8169 26.1892 61.6997 28.0149C66.5825 29.8406 70.8137 33.0718 73.8588 37.3003C76.9039 41.5287 78.626 46.5643 78.8072 51.7706C78.9276 55.2293 78.3647 58.6779 77.1509 61.9192C75.937 65.1605 74.0958 68.131 71.7326 70.6611C69.3693 73.1912 66.5304 75.2312 63.3779 76.6646C60.2254 78.0979 56.821 78.8966 53.3596 79.0149Z" fill="black"/>
</svg>
