<svg width="26" height="25" viewBox="0 0 26 25" fill="none" xmlns="http://www.w3.org/2000/svg">
<path d="M17.8516 8.62657C18.4538 8.62657 18.942 8.13839 18.942 7.53619C18.942 6.93398 18.4538 6.4458 17.8516 6.4458C17.2494 6.4458 16.7612 6.93398 16.7612 7.53619C16.7612 8.13839 17.2494 8.62657 17.8516 8.62657Z" fill="black"/>
<path d="M13.0009 7.7207C12.0781 7.7207 11.176 7.99436 10.4086 8.50706C9.64134 9.01976 9.04329 9.74848 8.69014 10.6011C8.33698 11.4537 8.24458 12.3918 8.42462 13.2969C8.60465 14.202 9.04904 15.0334 9.70159 15.686C10.3541 16.3385 11.1855 16.7829 12.0906 16.9629C12.9957 17.143 13.9339 17.0506 14.7865 16.6974C15.6391 16.3443 16.3678 15.7462 16.8805 14.9789C17.3932 14.2116 17.6668 13.3095 17.6668 12.3866C17.6668 11.1492 17.1753 9.96236 16.3002 9.08733C15.4252 8.21229 14.2384 7.7207 13.0009 7.7207ZM13.0009 15.4155C12.4019 15.4155 11.8163 15.2379 11.3182 14.905C10.8201 14.5722 10.4319 14.0992 10.2026 13.5457C9.97337 12.9923 9.91339 12.3833 10.0303 11.7957C10.1471 11.2082 10.4356 10.6685 10.8592 10.2449C11.2828 9.82133 11.8225 9.53286 12.41 9.41599C12.9975 9.29912 13.6065 9.35911 14.16 9.58835C14.7134 9.8176 15.1865 10.2058 15.5193 10.7039C15.8521 11.202 16.0298 11.7876 16.0298 12.3866C16.0298 13.1899 15.7106 13.9603 15.1426 14.5284C14.5746 15.0964 13.8042 15.4155 13.0009 15.4155Z" fill="black"/>
<path d="M13.0008 4.93738C15.427 4.93738 15.7147 4.94647 16.6726 4.99039C17.2487 4.99723 17.8193 5.10301 18.3596 5.30312C18.7516 5.45433 19.1076 5.68592 19.4047 5.983C19.7018 6.28008 19.9334 6.63607 20.0846 7.02805C20.2847 7.56834 20.3905 8.139 20.3973 8.71511C20.4412 9.67299 20.4503 9.96073 20.4503 12.3876C20.4503 14.8145 20.4412 15.1007 20.3973 16.0586C20.3905 16.6347 20.2847 17.2053 20.0846 17.7456C19.9334 18.1376 19.7018 18.4936 19.4047 18.7907C19.1076 19.0877 18.7516 19.3193 18.3596 19.4705C17.8193 19.6707 17.2487 19.7764 16.6726 19.7833C15.7147 19.8272 15.427 19.8363 13.0008 19.8363C10.5747 19.8363 10.287 19.8272 9.32913 19.7833C8.75301 19.7764 8.18235 19.6707 7.64206 19.4705C7.25008 19.3193 6.8941 19.0877 6.59702 18.7907C6.29994 18.4936 6.06834 18.1376 5.91713 17.7456C5.71702 17.2053 5.61124 16.6347 5.6044 16.0586C5.56048 15.1007 5.5514 14.8129 5.5514 12.3868C5.5514 9.96073 5.56048 9.67299 5.6044 8.71511C5.61124 8.139 5.71702 7.56834 5.91713 7.02805C6.06834 6.63607 6.29994 6.28008 6.59702 5.983C6.8941 5.68592 7.25008 5.45433 7.64206 5.30312C8.18235 5.10301 8.75301 4.99723 9.32913 4.99039C10.287 4.94647 10.5747 4.93738 13.0008 4.93738ZM13.0008 3.30029C10.5331 3.30029 10.2234 3.31089 9.25416 3.35481C8.50057 3.37003 7.755 3.51289 7.04916 3.77734C6.44546 4.01078 5.89719 4.36779 5.4395 4.82548C4.98181 5.28317 4.6248 5.83144 4.39135 6.43515C4.12682 7.14123 3.98396 7.88706 3.96883 8.64091C3.92491 9.61014 3.91431 9.91832 3.91431 12.3868C3.91431 14.8553 3.92491 15.1643 3.96883 16.1335C3.98404 16.8871 4.12691 17.6327 4.39135 18.3385C4.6248 18.9422 4.98181 19.4905 5.4395 19.9482C5.89719 20.4059 6.44546 20.7629 7.04916 20.9963C7.75524 21.2609 8.50107 21.4037 9.25492 21.4189C10.2242 21.4628 10.5331 21.4734 13.0008 21.4734C15.4686 21.4734 15.7783 21.4628 16.7475 21.4189C17.5014 21.4037 18.2472 21.2609 18.9533 20.9963C19.557 20.7629 20.1053 20.4059 20.563 19.9482C21.0206 19.4905 21.3777 18.9422 21.6111 18.3385C21.8754 17.6324 22.018 16.8866 22.0329 16.1328C22.0768 15.1635 22.0874 14.8553 22.0874 12.3868C22.0874 9.91832 22.0768 9.60938 22.0329 8.64015C22.0177 7.88655 21.8748 7.14099 21.6103 6.43515C21.3769 5.83144 21.0199 5.28317 20.5622 4.82548C20.1045 4.36779 19.5562 4.01078 18.9525 3.77734C18.2464 3.51307 17.5006 3.37046 16.7468 3.35557C15.7775 3.31014 15.4694 3.30029 13.0008 3.30029Z" fill="black"/>
</svg>
