<svg width="25" height="24" viewBox="0 0 25 24" fill="none" xmlns="http://www.w3.org/2000/svg">
<path d="M23.8486 12L21.4086 9.21L21.7486 5.52L18.1386 4.7L16.2486 1.5L12.8486 2.96L9.44863 1.5L7.55863 4.69L3.94863 5.5L4.28863 9.2L1.84863 12L4.28863 14.79L3.94863 18.49L7.55863 19.31L9.44863 22.5L12.8486 21.03L16.2486 22.49L18.1386 19.3L21.7486 18.48L21.4086 14.79L23.8486 12ZM10.2286 16.01L7.84863 13.61C7.75593 13.5175 7.68238 13.4076 7.6322 13.2866C7.58202 13.1657 7.55619 13.036 7.55619 12.905C7.55619 12.774 7.58202 12.6443 7.6322 12.5234C7.68238 12.4024 7.75593 12.2925 7.84863 12.2L7.91863 12.13C8.30863 11.74 8.94863 11.74 9.33863 12.13L10.9486 13.75L16.0986 8.59C16.4886 8.2 17.1286 8.2 17.5186 8.59L17.5886 8.66C17.9786 9.05 17.9786 9.68 17.5886 10.07L11.6686 16.01C11.2586 16.4 10.6286 16.4 10.2286 16.01Z" fill="black"/>
</svg>
