<svg width="26" height="25" viewBox="0 0 26 25" fill="none" xmlns="http://www.w3.org/2000/svg">
<path d="M23.6018 6.00194C23.3117 6.43662 22.9822 6.84369 22.6175 7.21803C22.2509 7.59476 21.8527 7.9393 21.4271 8.24784C21.4408 8.43785 21.4479 8.62827 21.4483 8.81877C21.4483 9.68805 21.3559 10.5467 21.1697 11.3963C20.9841 12.2429 20.7131 13.0684 20.361 13.8603C19.8732 14.976 19.2286 16.0163 18.4467 16.9497C17.6974 17.8423 16.8195 18.6186 15.8419 19.2532C14.8609 19.8862 13.7918 20.371 12.6692 20.6919C11.4978 21.0271 10.2848 21.1949 9.06639 21.1901C7.89138 21.1916 6.72214 21.0259 5.59382 20.6979C4.46299 20.3687 3.3868 19.8748 2.3999 19.232C3.53901 19.3697 4.69409 19.2814 5.79904 18.9721C6.90398 18.6629 7.93709 18.1388 8.83923 17.4298C8.16434 17.4204 7.50112 17.2523 6.90315 16.9393C6.30518 16.6262 5.78922 16.1769 5.39695 15.6276C5.12939 15.2585 4.92141 14.8497 4.78058 14.4161C4.91839 14.4373 5.05469 14.4555 5.18947 14.4691C5.70928 14.52 6.23402 14.4743 6.73721 14.3343C6.24087 14.2364 5.76598 14.0508 5.33486 13.7861C4.91711 13.5294 4.5446 13.2055 4.23235 12.8275C3.59133 12.0513 3.24297 11.0748 3.24798 10.0682V10.0182C3.85678 10.362 4.51555 10.5452 5.22582 10.5664C4.63357 10.163 4.14733 9.62274 3.80832 8.99142C3.6423 8.68005 3.51369 8.35014 3.42517 8.00856C3.24486 7.2857 3.2485 6.52919 3.43577 5.8081C3.53118 5.44009 3.67959 5.09026 3.88101 4.7586C4.43226 5.44161 5.04711 6.05495 5.72255 6.5956C7.06495 7.67219 8.61609 8.45859 10.2779 8.9051C11.1168 9.12987 11.9774 9.26341 12.8449 9.30339C12.803 9.14182 12.7737 8.97727 12.757 8.8112C12.74 8.64465 12.7314 8.47735 12.7313 8.30993C12.7313 7.7087 12.8449 7.14382 13.0736 6.6168C13.5169 5.57543 14.3462 4.74613 15.3876 4.30276C15.922 4.07402 16.4979 3.95802 17.0792 3.96201C17.6755 3.95911 18.2658 4.07996 18.813 4.31691C19.3601 4.55387 19.8522 4.90177 20.258 5.33863C21.2296 5.14681 22.1609 4.78924 23.0112 4.28156C22.696 5.29072 22.017 6.14675 21.1061 6.68343C21.9674 6.58333 22.8088 6.3541 23.6018 6.00346V6.00194Z" fill="black"/>
</svg>
