<svg width="233" height="53" viewBox="0 0 233 53" fill="none" xmlns="http://www.w3.org/2000/svg">
<path d="M200.676 25.9223C202.668 24.2432 204.6 22.615 206.596 20.9328C208.447 22.3319 208.915 24.3624 209.117 26.6563C211.388 24.7255 213.582 22.8597 215.841 20.939C217.461 22.8777 219.628 24.2737 220.707 26.8163C223.021 24.8487 225.288 22.9201 227.638 20.921C228.849 22.2456 230.104 23.4668 231.181 24.8337C232.446 26.4414 232.99 28.3543 232.984 30.4319C232.97 34.9414 232.931 39.4509 232.999 43.9597C233.039 46.5894 232.056 48.6631 230.149 50.3398C228.878 51.4597 227.467 52.3506 225.752 53C225.752 52.5687 225.752 52.2628 225.752 51.957C225.752 44.8107 225.746 37.6644 225.759 30.5181C225.76 29.5127 225.628 28.5959 224.648 28.1026C223.557 27.5543 222.478 27.7543 221.455 28.319C221.307 28.4006 221.201 28.6994 221.2 28.8986C221.188 34.2779 221.187 39.6573 221.196 45.0373C221.197 46.0773 221.665 46.9086 222.517 47.6208C220.732 49.1595 218.984 50.666 217.173 52.2259C216.892 51.9648 216.611 51.7436 216.377 51.4786C214.826 49.7195 214.038 47.6568 214.034 45.2852C214.024 40.4337 214.003 35.5822 214.001 30.7299C214.001 29.6311 213.93 28.5818 212.778 28.0618C211.545 27.5049 210.396 27.8399 209.321 28.526C209.173 28.6209 209.076 28.9166 209.075 29.1198C209.063 34.5517 209.033 39.9851 209.107 45.4161C209.118 46.1424 209.672 46.8615 210.039 47.7376C208.396 49.1147 206.57 50.6464 204.618 52.284C204.079 51.6346 203.508 51.066 203.078 50.4033C202.066 48.8473 201.618 47.0968 201.615 45.2373C201.603 39.8313 201.595 34.4254 201.613 29.0202C201.616 27.9034 201.441 26.8712 200.676 25.9223Z" fill="#304800"/>
<path d="M83.8428 20.921C85.3174 21.9948 85.8484 23.2486 86.3379 26.809C87.4848 25.807 88.5837 24.8479 89.6811 23.8872C90.7896 22.9172 91.8959 21.9448 93.0492 20.9327C95.0965 23.1145 97.4652 25.0132 98.0702 28.2571C98.2093 28.9971 98.283 29.7628 98.2857 30.5169C98.306 34.9467 98.2388 39.3782 98.3171 43.8066C98.364 46.5061 97.4219 48.6372 95.5164 50.3597C94.2824 51.4756 92.9065 52.3357 91.2903 53C91.2903 52.6118 91.2903 52.3084 91.2903 52.0058C91.2903 44.8756 91.2903 37.7461 91.2903 30.6159C91.2903 28.2992 89.9015 27.2473 87.7924 27.9701C87.5573 28.0505 87.3347 28.1706 87.104 28.2649C86.4533 28.5308 86.2188 28.9799 86.2248 29.7574C86.2639 34.6068 86.2617 39.4562 86.2329 44.3056C86.2255 45.5626 86.3054 46.7299 87.4634 47.512C85.6021 49.1184 83.8177 50.6576 82.0075 52.2195C80.1551 50.6209 79.2344 48.5413 79.0931 46.1287C78.9586 43.8299 79.0059 41.5186 78.9977 39.2121C78.9852 35.8045 78.9785 32.3969 79.0043 28.9893C79.0133 27.8812 78.8639 26.8519 78.1163 25.892C80.0441 24.2186 81.9497 22.564 83.8428 20.921Z" fill="#304800"/>
<path d="M196.629 36.2722C196.629 38.1991 196.606 40.1267 196.634 42.0535C196.672 44.8267 195.595 47.0708 193.547 48.8633C189.293 52.5865 182.158 52.5072 177.989 48.6914C176.067 46.9334 175.072 44.76 175.086 42.1147C175.105 38.4189 175.09 34.7231 175.09 31.0273C175.09 26.5487 177.185 23.3452 181.367 21.8251C186.096 20.1055 190.474 20.7808 194.204 24.351C195.848 25.9245 196.627 27.9471 196.628 30.2524C196.63 32.26 196.629 34.2662 196.629 36.2722ZM182.424 36.5455C182.378 36.5455 182.332 36.5455 182.286 36.5455C182.286 38.5257 182.251 40.5067 182.296 42.4853C182.337 44.2566 182.498 46.0225 183.31 47.6423C183.84 48.7031 184.646 49.4074 185.885 49.3972C187.087 49.3878 187.971 48.7368 188.372 47.6612C188.81 46.4921 189.25 45.2436 189.288 44.018C189.426 39.482 189.433 34.9406 189.415 30.4007C189.408 28.6843 189.157 26.9743 188.362 25.4117C187.835 24.3761 187.108 23.5784 185.84 23.5886C184.608 23.598 183.813 24.3439 183.401 25.3921C182.963 26.5063 182.531 27.695 182.467 28.872C182.328 31.423 182.424 33.9866 182.424 36.5455Z" fill="#304800"/>
<path d="M172.316 44.3749C172.457 45.2779 172.503 46.0635 171.568 46.6992C170.434 47.4698 169.37 48.3564 168.353 49.276C164.668 52.603 157.169 52.5999 153.148 47.7395C150.543 44.592 149.569 40.9326 149.502 36.9549C149.446 33.671 149.909 30.4891 151.488 27.5494C154.942 21.1204 161.411 20.0119 166.187 21.5186C170.148 22.769 172.432 26.2544 171.98 30.1669C171.752 32.1378 170.339 33.5707 168.51 33.6969C167.084 33.7957 165.864 33.3967 165.098 32.1338C164.276 30.7784 164.335 29.3469 165.085 27.9939C165.45 27.3369 166.014 26.7866 166.505 26.2026C167.212 25.3623 167.132 24.8033 166.198 24.2004C163.952 22.7525 160.859 23.4643 159.465 25.7667C158.615 27.1723 158.263 28.7441 158.079 30.3464C157.616 34.3735 157.575 38.3966 158.475 42.3758C158.681 43.2899 159.021 44.1993 159.45 45.0333C160.578 47.2252 162.529 48.0985 165.103 47.7129C167.551 47.3467 169.674 46.2759 171.622 44.8083C171.812 44.6657 172.002 44.5262 172.195 44.3874C172.211 44.3756 172.242 44.3819 172.316 44.3749Z" fill="#304800"/>
<path d="M65.9254 20.921C67.9952 24.0561 70.7715 24.0476 73.9024 23.2009C72.3668 24.6676 70.8832 26.1997 69.2768 27.5753C68.2932 28.4173 67.0504 28.5902 65.7808 28.2623C64.6274 27.9647 63.8458 27.2201 63.3823 26.0883C61.9234 27.2669 62.0157 29.3497 63.69 30.5111C65.2257 31.5766 66.9029 32.4163 68.4981 33.3908C69.5943 34.0606 70.7424 34.6822 71.7147 35.5188C73.1313 36.7378 74.0544 38.3626 74.076 40.3286C74.0872 41.3482 73.9367 42.4512 73.5566 43.3804C71.8861 47.4627 69.0391 50.2349 64.8598 51.341C61.7163 52.172 59.1226 51.0271 57.3998 48.1342C56.2204 46.1533 56.2196 46.1526 57.8856 44.6999C59.4765 43.3127 61.0702 41.9293 62.7117 40.5016C62.8578 41.3724 62.9352 42.1715 63.1312 42.9372C63.6945 45.1392 65.2257 46.4205 67.0855 46.3123C68.8387 46.2102 69.7737 44.4678 68.8722 42.8843C68.589 42.3865 68.1569 41.9106 67.6837 41.6154C66.052 40.5996 64.3867 39.6408 62.7079 38.7115C60.9033 37.7122 59.3244 36.4729 58.3133 34.5685C56.7255 31.5774 57.274 28.5334 59.7775 26.3376C61.8117 24.5562 63.8361 22.7631 65.9254 20.921Z" fill="#304800"/>
<path d="M134.293 23.0464C133.046 24.3933 131.856 25.7712 130.567 27.0371C129.699 27.8881 128.626 28.4089 127.382 28.3879C125.795 28.3615 124.614 27.6576 123.956 26.0975C122.943 26.8868 122.638 28.0485 123.246 29.2171C123.534 29.7698 123.965 30.328 124.467 30.6534C125.968 31.6266 127.508 32.5445 129.085 33.3721C130.548 34.1404 131.952 34.9649 133.013 36.3025C134.621 38.3306 135.171 40.6077 134.205 43.1045C132.53 47.4324 129.563 50.3037 125.192 51.3897C122.059 52.1675 119.43 50.8143 117.801 47.7625C116.898 46.0708 116.897 46.0699 118.281 44.8593C119.776 43.5522 121.271 42.2466 122.768 40.9433C122.932 40.8009 123.116 40.6825 123.289 40.554C123.469 41.5015 123.563 42.4132 123.823 43.2688C124.44 45.3078 125.915 46.4188 127.694 46.2942C129.347 46.1782 130.273 44.5744 129.502 43.0352C129.225 42.4825 128.769 41.9383 128.265 41.6183C126.603 40.5657 124.896 39.5918 123.181 38.6358C120.902 37.3644 119.042 35.6875 118.296 32.9929C117.606 30.5001 118.198 28.324 120.075 26.6137C122.181 24.6937 124.334 22.8299 126.49 20.921C128.528 24.0187 131.279 24.0764 134.293 23.0464Z" fill="#304800"/>
<path d="M111.765 20.9211C111.765 21.4448 111.765 21.7478 111.765 22.0517C111.765 29.287 111.77 36.5224 111.758 43.7585C111.757 45.0388 111.966 46.2069 113.132 47.0643C111.319 48.5927 109.561 50.0754 107.747 51.6053C105.709 49.7875 104.64 47.5583 104.634 44.8419C104.622 40.0954 104.624 35.3481 104.635 30.6018C104.637 29.5681 104.43 28.6175 103.705 27.7326C106.342 25.5034 108.97 23.2832 111.765 20.9211Z" fill="#304800"/>
<path d="M108.418 9.76325C109.96 11.3601 111.587 13.0471 113.132 14.6486C111.603 16.2303 109.975 17.9135 108.414 19.5264C106.889 17.9455 105.251 16.2471 103.705 14.6455C105.234 13.0609 106.863 11.3739 108.418 9.76325Z" fill="#304800"/>
<path d="M51.1993 20.9211C51.1993 21.3887 51.1993 21.6587 51.1993 21.9296C51.1962 29.392 51.1962 36.8537 51.1855 44.3161C51.1841 45.4139 51.5596 46.3171 52.5263 47.0685C50.7208 48.5897 48.9512 50.0796 47.1405 51.6053C45.1295 49.8279 44.0386 47.6384 44.0165 44.9866C43.9761 40.1661 43.9937 35.3447 44.0088 30.5241C44.0119 29.511 43.7986 28.5955 43.0986 27.7488C45.7556 25.5097 48.4035 23.2776 51.1993 20.9211Z" fill="#304800"/>
<path d="M52.5263 14.6376C50.9649 16.2611 49.3392 17.9502 47.8223 19.5264C46.2955 17.9464 44.6509 16.2443 43.0986 14.6383C44.6525 13.0346 46.3012 11.3325 47.8215 9.76325C49.3434 11.3401 50.9714 13.027 52.5263 14.6376Z" fill="#304800"/>
<path d="M139.985 48.2948C139.989 46.3499 141.466 44.8293 143.35 44.8301C145.284 44.8308 146.733 46.3507 146.719 48.3614C146.704 50.3047 145.212 51.8207 143.329 51.8036C141.477 51.7866 139.98 50.2164 139.985 48.2948Z" fill="#304800"/>
<path d="M12.7237 41.7873C14.3562 40.0251 14.6743 37.8485 14.6896 35.6349C14.7358 28.8131 14.7142 21.9907 14.6981 15.1682C14.6919 12.7061 15.4779 10.6261 17.3102 8.98423C19.3706 7.13786 21.4257 5.28518 23.4639 3.41442C27.6486 -0.426965 33.4443 1.44379 34.745 7.05607C35.5272 10.4311 34.808 13.5538 33.2585 16.5349C31.8602 19.2266 29.8504 21.3624 27.4358 23.1176C27.3144 23.2056 27.1976 23.3007 27.0056 23.4494C28.3116 23.6326 29.527 23.7576 30.7232 23.988C31.5291 24.1437 32.3296 24.3891 33.0933 24.6981C37.1743 26.3519 39.2508 29.9219 39.0442 34.4538C38.7262 41.4256 35.0431 45.9945 29.2297 48.9779C25.8363 50.7189 22.2078 51.7946 18.3396 51.5776C17.5276 51.532 16.6541 51.4101 15.9358 51.0539C11.7472 48.9779 7.61936 49.4866 3.4869 51.1868C3.27255 51.2749 3.05591 51.3559 2.83926 51.4361C2.82082 51.4432 2.79239 51.4211 2.69406 51.3849C3.954 49.5512 5.39679 47.925 7.07774 46.5244C9.5976 44.4256 12.4056 43.0173 15.7038 42.7924C18.2697 42.6178 20.6683 43.2523 22.9761 44.3399C23.2526 44.4704 23.5239 44.6128 23.9202 44.8109C23.9202 44.4106 23.9202 44.1087 23.9202 43.8068C23.9202 34.4727 23.9149 25.1377 23.9272 15.8035C23.9287 14.705 24.0624 13.5907 22.7457 13.0245C23.3586 12.4159 23.8688 11.9087 24.3613 11.4188C24.856 11.9237 25.3438 12.4206 25.8586 12.9459C25.8617 12.9263 25.8709 12.9986 25.8432 13.0183C24.8475 13.7371 24.6816 14.7372 24.7247 15.9192C24.803 18.0848 24.7469 20.2552 24.7469 22.4232C24.7469 22.7047 24.7469 22.9863 24.7469 23.2677C24.8345 23.3165 24.9213 23.3653 25.0089 23.4148C25.5905 22.7071 26.2589 22.0552 26.7359 21.2806C28.0743 19.1111 28.3984 16.6442 28.5145 14.1451C28.6044 12.2036 28.4115 10.2849 27.77 8.44558C27.548 7.80783 27.2445 7.16773 26.8458 6.63143C25.5689 4.91481 23.2956 4.98164 22.2685 6.8642C21.7637 7.78975 21.4626 8.9575 21.4511 10.0199C21.3773 16.8675 21.3382 23.7183 21.4303 30.5652C21.4933 35.211 19.0534 39.1507 14.5928 41.0804C13.9828 41.3439 13.3475 41.553 12.7237 41.7873ZM24.8307 24.9011C24.7946 25.0693 24.7554 25.1684 24.7554 25.2675C24.7515 31.7919 24.7461 38.3171 24.7546 44.8416C24.7554 45.591 25.5859 46.0612 26.2273 45.6877C27.747 44.8047 28.9047 43.5434 29.7591 41.9981C31.254 39.293 31.7181 36.3496 31.5476 33.29C31.4323 31.2234 30.8669 29.2842 29.6269 27.6123C28.4299 26.0003 26.8258 25.1149 24.8307 24.9011Z" fill="#304800"/>
<path d="M13.4673 12.5527C12.8959 14.3364 12.8463 16.1382 12.8486 17.9507C12.8569 23.2819 12.7829 28.6145 12.8715 33.9441C12.9547 38.9072 10.5023 42.1011 6.13359 44.0873C5.69137 44.2885 5.23235 44.4516 4.77867 44.627C4.73896 44.6422 4.6832 44.6179 4.55107 44.6019C6.21073 43.1007 6.26954 41.1417 6.2703 39.1667C6.27182 36.7183 6.2703 34.269 6.2703 31.8205C6.2703 31.5427 6.2703 31.2657 6.2703 31.0015C4.60683 30.6987 3.72697 31.5396 2.54238 34.5976C1.51664 31.592 0.732261 28.7215 2.00775 25.7395C2.70353 24.1121 3.89118 23.3782 6.2703 22.9729C6.2703 22.3718 6.2787 21.7457 6.26878 21.1195C6.24662 19.7624 6.65753 18.5329 7.53509 17.515C9.2329 15.547 11.2844 13.9804 13.4673 12.5527Z" fill="#304800"/>
<path d="M0 7.77017C1.37102 4.17695 3.01117 0.899931 7.00196 0.0966921C8.25687 -0.156271 9.42722 0.102441 10.5322 0.693782C11.3603 1.13728 12.2077 1.59804 12.9205 2.21731C15.0473 4.06443 17.2604 3.98969 19.5802 2.75772C19.7641 2.65999 19.9478 2.56225 20.1639 2.44727C20.1785 2.55076 20.22 2.64028 20.1939 2.6871C18.9966 4.811 17.5864 6.73861 15.6595 8.17097C12.8105 10.2883 10.3345 10.2899 7.47717 8.1997C7.34952 8.10608 7.22418 8.00834 7.10039 7.90896C4.66361 5.95426 2.96426 5.86802 0.331413 7.56566C0.222224 7.63547 0.110727 7.702 0 7.77017Z" fill="#304800"/>
<path d="M139.985 48.2963C139.989 46.3506 141.466 44.8293 143.349 44.8301C145.282 44.8308 146.731 46.3513 146.717 48.3629C146.702 50.307 145.21 51.8237 143.328 51.8066C141.477 51.7896 139.98 50.2188 139.985 48.2963Z" fill="#304800"/>
</svg>
