<svg width="25" height="25" fill="none" xmlns="http://www.w3.org/2000/svg"><path d="M19.6834 9.4513a5.2707 5.2707 0 0 0-.3393-1.7916 3.726 3.726 0 0 0-.8413-1.2888 3.733 3.733 0 0 0-1.291-.8399 5.3574 5.3574 0 0 0-1.7702-.3396c-.7791-.0347-1.0261-.0444-3.0037-.0444-1.9776 0-2.231 0-3.0044.0444a5.3575 5.3575 0 0 0-1.7695.3396 3.7315 3.7315 0 0 0-1.2912.8397 3.7243 3.7243 0 0 0-.841 1.289 5.2912 5.2912 0 0 0-.3394 1.7665c-.0348.7786-.0453 1.0252-.0453 2.9995s0 2.2266.0453 2.9995a5.3244 5.3244 0 0 0 .3393 1.7681c.1878.4833.4745.9221.8418 1.2885a3.734 3.734 0 0 0 1.2913.8394 5.3388 5.3388 0 0 0 1.7695.3638c.7798.0348 1.0268.0453 3.0044.0453s2.2311 0 3.0045-.0453a5.3454 5.3454 0 0 0 1.7703-.3387 3.7367 3.7367 0 0 0 1.2907-.8402 3.7303 3.7303 0 0 0 .8415-1.2885 5.3155 5.3155 0 0 0 .3393-1.7682c.0349-.7777.0454-1.0243.0454-2.9994-.0016-1.9743-.0016-2.225-.047-2.9987Zm-7.2503 6.708c-2.0683 0-3.7439-1.6728-3.7439-3.7376 0-2.0649 1.6756-3.7376 3.7439-3.7376.9929 0 1.9451.3937 2.6472 1.0947a3.7345 3.7345 0 0 1 1.0966 2.6429 3.7344 3.7344 0 0 1-1.0966 2.6428 3.7466 3.7466 0 0 1-2.6472 1.0948Zm3.8928-6.742a.8736.8736 0 0 1-.6175-.255.8702.8702 0 0 1-.2555-.6165.8708.8708 0 0 1 .5387-.8048.8734.8734 0 0 1 1.1401.4715.8708.8708 0 0 1 .0664.3333c0 .4819-.3904.8716-.8722.8716Z" fill="#000"/><path d="M12.4387 14.5221c1.1506 0 2.0833-.9327 2.0833-2.0833 0-1.1506-.9327-2.0833-2.0833-2.0833-1.1506 0-2.0833.9327-2.0833 2.0833 0 1.1506.9327 2.0833 2.0833 2.0833Z" fill="#000"/><circle cx="12.5" cy="12.5" r="11.75" stroke="#000" stroke-width="1.5"/></svg>