<svg id="Component_37_1" data-name="Component 37 – 1" xmlns="http://www.w3.org/2000/svg" width="45" height="44.97" viewBox="0 0 45 44.97">
  <path id="Path_1851" data-name="Path 1851" d="M-517.3,768.594v19.688a3.94,3.94,0,0,1-2.376,2.612c-6.052,3.031-12.08,6.111-18.123,9.16-.672.339-1.389.592-2.085.884h-.879a12.566,12.566,0,0,1-1.165-.479q-9.246-4.9-18.485-9.8A3.281,3.281,0,0,1-562.3,787.5q.022-9.049,0-18.1a3.333,3.333,0,0,1,1.935-3.214q9.213-4.863,18.4-9.768a3.4,3.4,0,0,1,3.347-.029q9.461,4.81,18.939,9.588A3.937,3.937,0,0,1-517.3,768.594Zm-2.636,1.655c-.118.048-.184.07-.246.1-2.408,1.2-4.814,2.4-7.228,3.59-.255.125-.274.29-.274.521,0,1.772.008,3.544,0,5.315A1.349,1.349,0,0,1-529,781.232a1.328,1.328,0,0,1-1.313-1.448c-.006-1.3,0-2.606,0-3.91,0-.136-.015-.272-.026-.448-.2.09-.343.152-.485.223-2.565,1.277-5.126,2.562-7.7,3.823a.688.688,0,0,0-.458.725q.019,8.478.009,16.956v.518c.183-.078.3-.122.416-.179q9.037-4.579,18.077-9.153a.9.9,0,0,0,.554-.93q-.019-8.346-.008-16.692Zm-21.693,27.372c.01-.161.021-.247.021-.334q0-8.631.009-17.262c0-.318-.161-.423-.394-.544q-8.617-4.486-17.23-8.98c-.125-.065-.254-.123-.432-.209v.488q0,8.324-.009,16.648a.947.947,0,0,0,.585.958q8.494,4.487,16.973,9C-541.971,797.46-541.828,797.525-541.632,797.622Zm-16.534-29.608c.057.067.072.1.1.11q8.787,4.586,17.581,9.161a.616.616,0,0,0,.476-.016c.767-.361,1.522-.748,2.281-1.126l6.079-3.028a3.211,3.211,0,0,0-.276-.188q-8.741-4.628-17.489-9.242a.745.745,0,0,0-.59.01c-.851.422-1.684.88-2.523,1.326Zm11.334-5.979c.072.048.118.085.169.112q8.841,4.678,17.688,9.344a.753.753,0,0,0,.592-.015c2.18-1.067,4.35-2.154,6.522-3.238.11-.055.213-.124.341-.2-.09-.057-.137-.093-.189-.119q-9.078-4.6-18.154-9.2a.8.8,0,0,0-.823.009c-1.959,1.05-3.925,2.087-5.888,3.13A2.893,2.893,0,0,0-546.833,762.035Z" transform="translate(562.302 -755.968)" fill="#fff"/>
</svg>
