<svg xmlns="http://www.w3.org/2000/svg" viewBox="0 0 45 45" style="enable-background:new 0 0 45 45" xml:space="preserve"><path d="M45 12.6v19.7c-.3 1.2-1.2 2.2-2.4 2.6-6.1 3-12.1 6.1-18.1 9.2l-2.1.9h-.9c-.4-.1-.8-.3-1.2-.5C14.2 41.2 8 38 1.9 34.7c-1.2-.6-2-1.8-1.9-3.2V13.4c-.1-1.4.7-2.6 1.9-3.2C8.1 7 14.2 3.7 20.3.5c1-.6 2.3-.6 3.3 0 6.4 3.1 12.7 6.3 19 9.5 1.2.5 2.1 1.4 2.4 2.6zm-2.6 1.7c-.1 0-.2.1-.2.1L35 18c-.3.1-.3.3-.3.5v5.3c.1.7-.5 1.4-1.2 1.5h-.1c-.7 0-1.3-.6-1.3-1.3v-4.4c-.2.1-.3.2-.5.2-2.6 1.3-5.1 2.6-7.7 3.8-.3.1-.5.4-.5.7v17.5c.2-.1.3-.1.4-.2 6-3.1 12.1-6.1 18.1-9.2.4-.2.6-.5.6-.9V14.8l-.1-.5zM20.7 41.7V24.1c0-.3-.2-.4-.4-.5-5.7-3-11.5-6-17.2-9-.1-.1-.3-.1-.4-.2v17.1c0 .4.2.8.6 1 5.7 3 11.3 6 17 9l.4.2zM4.1 12l.1.1c5.9 3.1 11.7 6.1 17.6 9.2.2.1.3.1.5 0 .8-.4 1.5-.7 2.3-1.1l6.1-3c-.1-.1-.2-.1-.3-.2-5.8-3.1-11.7-6.2-17.5-9.2-.2-.1-.4-.1-.6 0-.9.4-1.7.9-2.5 1.3L4.1 12zm11.4-5.9c.1 0 .1.1.2.1l17.7 9.3c.2.1.4.1.6 0 2.2-1.1 4.3-2.2 6.5-3.2.1-.1.2-.1.3-.2-.1-.1-.2-.1-.2-.1-6.1-3.1-12.1-6.1-18.2-9.2-.3-.1-.6-.1-.8 0-2 1-3.9 2.1-5.9 3.1-.1 0-.1.1-.2.2z"/></svg>