<svg id="Component_38_1" data-name="Component 38 – 1" xmlns="http://www.w3.org/2000/svg" width="41.832" height="54.909" viewBox="0 0 41.832 54.909">
  <path id="Path_1846" data-name="Path 1846" d="M-604.761,704c1.125.182,2.263.306,3.373.555a20.991,20.991,0,0,1,15.838,16.759,24.866,24.866,0,0,1-1.788,13.626,51.951,51.951,0,0,1-8.532,13.73,75.775,75.775,0,0,1-9.828,9.857,3.837,3.837,0,0,0-.351.381h-.215c-.209-.209-.4-.435-.63-.626a71.886,71.886,0,0,1-14.661-16.678,37.126,37.126,0,0,1-5.032-11.979,21.035,21.035,0,0,1,12.164-23.912,19.782,19.782,0,0,1,6.405-1.622,4.155,4.155,0,0,0,.468-.092Zm-1.545,50.83c.372-.329.547-.479.717-.634a77.452,77.452,0,0,0,7.079-7.387,49,49,0,0,0,8.177-13.068,21.624,21.624,0,0,0,1.575-12.1,17.739,17.739,0,0,0-21.191-14.006,17.665,17.665,0,0,0-13.889,17.736,25.181,25.181,0,0,0,2.853,10.619,56.223,56.223,0,0,0,9.645,13.578C-609.7,751.335-608.01,753.053-606.306,754.83Z" transform="translate(627.076 -704)" fill="#fff"/>
  <path id="Path_1848" data-name="Path 1848" d="M-536.647,794.235h22.459v22.457h-22.459Zm3.194,19.243H-517.4V797.463h-6.43v4.763h-3.209v-4.753h-6.409Z" transform="translate(546.346 -784.558)" fill="#fff"/>
  <path id="Path_1850" data-name="Path 1850" d="M-425.356,914.385v3.15h-6.386v-3.15Z" transform="translate(452.691 -891.822)" fill="#fff"/>
</svg>
