<svg xmlns="http://www.w3.org/2000/svg" width="20.495" height="20.483" viewBox="0 0 20.495 20.483">
  <g id="Group_4201" data-name="Group 4201" transform="translate(0)">
    <path id="Path_12656" data-name="Path 12656" d="M-525.652,1466.733h-4.229v-13.654h4.045v1.839c.056-.032.083-.038.093-.054a4.413,4.413,0,0,1,3.875-2.123,5.872,5.872,0,0,1,2.728.494,3.931,3.931,0,0,1,2.092,2.6,9.938,9.938,0,0,1,.378,2.814c.018,2.634.011,5.268.013,7.9,0,.04-.006.08-.01.137h-4.241v-.283c0-2.234.006-4.468-.009-6.7a8.715,8.715,0,0,0-.135-1.515,1.965,1.965,0,0,0-2.471-1.72,2.172,2.172,0,0,0-2.025,2.118,10.348,10.348,0,0,0-.1,1.419c-.01,2.134,0,4.268,0,6.4Z" transform="translate(537.152 -1446.25)"/>
    <path id="Path_12657" data-name="Path 12657" d="M-633.456,1457.811h4.225v13.648h-4.225Z" transform="translate(633.808 -1450.986)"/>
    <path id="Path_12658" data-name="Path 12658" d="M-633.806,1358.092a2.479,2.479,0,0,1-2.438,2.492,2.492,2.492,0,0,1-2.478-2.482,2.476,2.476,0,0,1,2.444-2.461A2.461,2.461,0,0,1-633.806,1358.092Z" transform="translate(638.722 -1355.641)"/>
  </g>
</svg>
