<svg id="Component_39_1" data-name="Component 39 – 1" xmlns="http://www.w3.org/2000/svg" width="45.002" height="39.327" viewBox="0 0 45.002 39.327">
  <path id="Path_1856" data-name="Path 1856" d="M-352,802.962v-.879c.126-.23.249-.462.379-.69,2.066-3.64,4.15-7.27,6.187-10.926a1.766,1.766,0,0,1,1.75-1.02q14.2.031,28.393.013h.4a1.234,1.234,0,0,1,1.14.685q3.272,5.766,6.545,11.531a1.549,1.549,0,0,1,.212.786,6.318,6.318,0,0,1-3.456,5.575.648.648,0,0,0-.406.666q.018,9.318.009,18.635c0,1.028-.4,1.433-1.434,1.433H-346.7c-1.037,0-1.433-.4-1.434-1.429q0-9.274.009-18.548a.762.762,0,0,0-.472-.807,6.194,6.194,0,0,1-2.527-2.432A8.146,8.146,0,0,1-352,802.962Zm6.1,23.565h3.883v-.612c0-3.663-.007-7.325,0-10.988a3.806,3.806,0,0,1,4.079-4.054c.923,0,1.849-.047,2.768.016a5.022,5.022,0,0,1,1.777.392,3.645,3.645,0,0,1,2.143,3.542c.009,3.736,0,7.472,0,11.208v.489h18.167V808.8a6.566,6.566,0,0,1-5.713-2.834,6.378,6.378,0,0,1-5.327,2.818,6.4,6.4,0,0,1-5.345-2.79,6.548,6.548,0,0,1-10.732-.013A6.55,6.55,0,0,1-345.9,808.8Zm-2.845-25.68h38.516c-.045-.094-.065-.147-.093-.2q-2.471-4.352-4.937-8.707c-.151-.269-.351-.258-.586-.258q-13.645,0-27.291-.007a.641.641,0,0,0-.649.379q-2.368,4.208-4.761,8.4C-348.613,800.574-348.669,800.69-348.75,800.847Zm15.282,25.69c.009-.11.018-.167.018-.225q0-5.8,0-11.593a1.56,1.56,0,0,0-1.625-1.64c-.951-.014-1.9,0-2.854,0-1.274,0-1.864.581-1.864,1.84q0,5.577,0,11.154v.467Zm-7.926-23.414h-8.291a4.194,4.194,0,0,0,4.144,3.451A4.207,4.207,0,0,0-341.393,803.123Zm2.412-.018a4.222,4.222,0,0,0,4.72,3.432c2.167-.284,3.554-2.257,3.5-3.432Zm10.746,0a4.1,4.1,0,0,0,4.084,3.466,4.113,4.113,0,0,0,4.117-3.466Zm10.67.008a4.162,4.162,0,0,0,4.391,3.449c1.92-.1,3.8-1.782,3.84-3.449Z" transform="translate(352 -789.447)" fill="#fff"/>
  <path id="Path_1864" data-name="Path 1864" d="M-147.439,986.453c-.952,0-1.9.008-2.857,0a3.023,3.023,0,0,1-3.2-3.189c-.013-1.465-.016-2.93,0-4.395a3.023,3.023,0,0,1,3.187-3.165q2.9-.012,5.8,0a3.024,3.024,0,0,1,3.18,3.172q.02,2.2,0,4.395a3.016,3.016,0,0,1-3.165,3.182C-145.476,986.464-146.457,986.453-147.439,986.453Zm.027-2.209c.966,0,1.932,0,2.9,0,.668,0,.977-.3.98-.96q.011-2.195,0-4.39c0-.679-.314-.985-1-.987q-2.876-.008-5.751,0c-.688,0-1,.309-1,.99q-.009,2.173,0,4.346c0,.714.3,1,1.024,1C-149.315,984.247-148.363,984.244-147.412,984.244Z" transform="translate(176.338 -954.275)" fill="#fff"/>
</svg>
