<svg xmlns="http://www.w3.org/2000/svg" width="55" height="55" viewBox="0 0 55 55">
  <g id="Group_1103" data-name="Group 1103" transform="translate(-1378 -7614)">
    <path id="Path_1306" data-name="Path 1306" d="M-490.372-49.105c-.8-.117-1.606-.182-2.389-.36a11.121,11.121,0,0,1-8.445-9.342,11.11,11.11,0,0,1,9.32-12.375,10.342,10.342,0,0,1,3.508-.008V-65.3c-.311-.058-.6-.124-.9-.167a5.3,5.3,0,0,0-6.016,4.41,5.317,5.317,0,0,0,4.581,6.076,5.352,5.352,0,0,0,6-5.428c-.033-4.254,0-8.509,0-12.764q0-5.663,0-11.326v-.474h5.813c.085.6.138,1.206.259,1.8a9.028,9.028,0,0,0,8.462,7.137c.357.012.447.106.443.457-.019,1.66-.009,3.32-.009,4.979v.4a14.438,14.438,0,0,1-4.8-.776,15.288,15.288,0,0,1-4.3-2.289c0,.194,0,.317,0,.44q.018,6.207.037,12.413a10.73,10.73,0,0,1-1.824,6.225,11.08,11.08,0,0,1-8.665,5.024c-.127.01-.252.039-.377.059Z" transform="translate(1891.293 7708.971)" fill="#fff"/>
    <g id="Rectangle_89" data-name="Rectangle 89" transform="translate(1378 7614)" fill="none" stroke="#fff" stroke-width="4">
      <rect width="55" height="55" rx="8" stroke="none"/>
      <rect x="2" y="2" width="51" height="51" rx="6" fill="none"/>
    </g>
  </g>
</svg>
