<svg xmlns="http://www.w3.org/2000/svg" width="55" height="55" viewBox="0 0 55 55">
  <g id="Group_1154" data-name="Group 1154" transform="translate(0 -0.003)">
    <path id="Path_1866" data-name="Path 1866" d="M362.2,16.9A14.8,14.8,0,0,1,347.394,2.136a14.783,14.783,0,0,1,14.773-14.785A14.772,14.772,0,0,1,362.2,16.9ZM352.6,2.106a9.572,9.572,0,0,0,19.144.053A9.572,9.572,0,1,0,352.6,2.106Z" transform="translate(-335.381 26.304)" fill="#fff"/>
    <path id="Path_1867" data-name="Path 1867" d="M591.884-45.077a3.426,3.426,0,0,1-3.395,3.459A3.448,3.448,0,0,1,585-45.05a3.426,3.426,0,0,1,3.4-3.45A3.408,3.408,0,0,1,591.884-45.077Z" transform="translate(-546.299 58.128)" fill="#fff"/>
    <g id="Group_1152" data-name="Group 1152" transform="translate(0 0.003)">
      <g id="Rectangle_89" data-name="Rectangle 89" fill="none" stroke="#fff" stroke-width="4">
        <rect width="55" height="55" rx="8" stroke="none"/>
        <rect x="2" y="2" width="51" height="51" rx="6" fill="none"/>
      </g>
    </g>
  </g>
</svg>
