<svg xmlns="http://www.w3.org/2000/svg" width="42.278" height="42.278" viewBox="0 0 42.278 42.278">
  <g id="Group_4207" data-name="Group 4207" transform="translate(-1684.401 -270.002)">
    <path id="Path_12664" data-name="Path 12664" d="M-422.4,1807.7c0-.1-.011-.2-.011-.294q0-4.981,0-9.964v-.319h-3.552V1793h3.552c0-.116,0-.2,0-.292,0-1.079-.023-2.16.022-3.238a5.159,5.159,0,0,1,1.355-3.462,4.762,4.762,0,0,1,2.551-1.366,9.688,9.688,0,0,1,2.413-.12c.656.025,1.31.082,1.965.126a1.482,1.482,0,0,1,.164.029v3.677c-.078,0-.158,0-.237,0-.807.012-1.616,0-2.421.042a1.459,1.459,0,0,0-1.531,1.537c-.041.995-.014,1.992-.016,2.988,0,.014.01.027.026.066h4.045c-.179,1.387-.353,2.743-.531,4.124h-3.527c-.008.089-.018.153-.018.218q0,5.106,0,10.213c0,.052.007.1.011.158Z" transform="translate(2125.494 -1504.101)"/>
    <g id="Group_4206" data-name="Group 4206" transform="translate(1684.401 270.002)">
      <g id="Rectangle_89" data-name="Rectangle 89" fill="none" stroke="#000" stroke-width="3">
        <rect width="42.278" height="42.278" rx="8" stroke="none"/>
        <rect x="1.5" y="1.5" width="39.278" height="39.278" rx="6.5" fill="none"/>
      </g>
    </g>
  </g>
</svg>
