<svg xmlns="http://www.w3.org/2000/svg" width="55.401" height="55.296" viewBox="0 0 55.401 55.296">
  <path id="Path_1190" data-name="Path 1190" d="M-176-40.878V-84.726c.118-.45.207-.91.359-1.348a6.5,6.5,0,0,1,6.357-4.375q20.984,0,41.969,0c.144,0,.289,0,.433.006a6.467,6.467,0,0,1,4.964,2.569,7.45,7.45,0,0,1,1.319,3.148v43.848c-.035.118-.079.235-.1.356a6.4,6.4,0,0,1-4.495,5.076c-.37.125-.757.2-1.137.292h-43.931a1.36,1.36,0,0,0-.249-.09,6.417,6.417,0,0,1-4.274-2.63A7.6,7.6,0,0,1-176-40.878Zm29.866-22.9c0-.253,0-.448,0-.642.006-1.494-.038-2.99.027-4.481a9.8,9.8,0,0,1,8.628-9.325c1.854-.2,3.744-.086,5.617-.112.028,0,.057.037.074.049v6.632c-1.431,0-2.819-.007-4.207,0a3.214,3.214,0,0,0-3.43,3.409c-.01,1.35,0,2.7,0,4.05,0,.136.026.272.043.438h7.744l-1.109,6.7h-6.643v17.589h11.931a2.225,2.225,0,0,0,2.532-2.51q0-20.815,0-41.631a2.226,2.226,0,0,0-2.529-2.514h-41.711a2.216,2.216,0,0,0-2.5,2.484q0,20.842,0,41.685a2.216,2.216,0,0,0,2.5,2.485h23v-17.62h-6.418v-6.684Z" transform="translate(176 90.45)" fill="#fff"/>
</svg>
