<svg id="Component_40_1" data-name="Component 40 – 1" xmlns="http://www.w3.org/2000/svg" width="41.832" height="42.001" viewBox="0 0 41.832 42.001">
  <path id="Path_1843" data-name="Path 1843" d="M-1006.711,600.052c.322-1.179.626-2.3.932-3.416.634-2.318,1.275-4.634,1.891-6.956a1.082,1.082,0,0,0-.077-.728,20.855,20.855,0,0,1,8.763-28.6,20.827,20.827,0,0,1,29.408,12.423,20.858,20.858,0,0,1-13.767,26,20.57,20.57,0,0,1-15.792-1.412,1.075,1.075,0,0,0-.692-.071c-3.4.874-6.795,1.768-10.191,2.656C-1006.372,599.984-1006.512,600.009-1006.711,600.052Zm4.993-4.923c2.088-.548,4.09-1.065,6.086-1.6a1.052,1.052,0,0,1,.9.134,16.978,16.978,0,0,0,12.407,2.2,17.331,17.331,0,0,0,13.619-20.246A17.343,17.343,0,0,0-988.9,561.862a17.291,17.291,0,0,0-11.864,25.507,3.409,3.409,0,0,1,.353,3.067C-1000.92,591.948-1001.275,593.511-1001.718,595.129Z" transform="translate(1006.711 -558.051)" fill="#fff"/>
  <path id="Path_1845" data-name="Path 1845" d="M-844.514,728.2c.88-.218,1.313.312,1.622,1.111.472,1.222.987,2.428,1.506,3.631a1.06,1.06,0,0,1-.107,1.148c-.411.548-.806,1.109-1.241,1.637a.824.824,0,0,0-.085,1.071,14.3,14.3,0,0,0,7.164,6.152.816.816,0,0,0,1.047-.264c.51-.638,1.032-1.266,1.537-1.907.371-.472.585-.588,1.119-.345q2.205,1.006,4.37,2.1a.823.823,0,0,1,.335.634c-.033,2.219-.686,3.282-3.05,4.276a6.128,6.128,0,0,1-4.117.046c-5.019-1.4-8.717-4.553-11.675-8.711a11.747,11.747,0,0,1-2.1-4.19,5.9,5.9,0,0,1,1.7-5.84A2.23,2.23,0,0,1-844.514,728.2Z" transform="translate(858.785 -716.962)" fill="#fff"/>
</svg>
