<svg id="Component_5_1" data-name="Component 5 – 1" xmlns="http://www.w3.org/2000/svg" width="22.997" height="23" viewBox="0 0 22.997 23">
  <path id="Path_83" data-name="Path 83" d="M206.952-62.586h-9.7a1.052,1.052,0,0,1-.538-.7c-.485-1.5-.989-2.993-1.474-4.493a.294.294,0,0,0-.337-.251q-3.536.012-7.072,0a2.021,2.021,0,0,1-2.122-2.112q0-6.668,0-13.337a2.02,2.02,0,0,1,2.119-2.114q3.278,0,6.555,0a.706.706,0,0,1,.807.586q.776,2.328,1.547,4.657c.047.143.1.207.262.2.223-.016.449,0,.673,0q4.467,0,8.935,0a1.981,1.981,0,0,1,1.924,1.221,4.3,4.3,0,0,1,.172.53v14.06c-.016.057-.034.113-.049.171a2.007,2.007,0,0,1-1.235,1.438C207.27-62.668,207.109-62.634,206.952-62.586Zm-7.992-6.783c-.027-.09-.044-.154-.065-.217q-2.4-7.219-4.794-14.44c-.059-.177-.144-.217-.319-.216-1.968.006-3.936,0-5.9,0-.583,0-.825.245-.825.836q0,6.6,0,13.2c0,.587.244.832.829.832h11.076Zm4.85-4.043h-.272c-1.2,0-2.4,0-3.593,0a.678.678,0,0,1-.718-.672.677.677,0,0,1,.716-.674c.584,0,1.168,0,1.751,0,.072,0,.144-.006.227-.01,0-.214,0-.408,0-.6a.681.681,0,0,1,.678-.735.683.683,0,0,1,.669.745c0,.2,0,.4,0,.6.694,0,1.352,0,2.01,0a.671.671,0,0,1,.683.638.683.683,0,0,1-.593.7c-.051.008-.1.01-.156.015a9.412,9.412,0,0,1-1.729,3.189.808.808,0,0,0,.051.072q.431.473.863.945a.679.679,0,0,1,.2.657.667.667,0,0,1-1.149.295c-.288-.288-.56-.594-.843-.9-.3.311-.571.617-.864.9a.665.665,0,0,1-1.093-.166c-.022-.04-.049-.076-.081-.126l-2.081,4.6h8.054c.57,0,.819-.25.82-.82q0-6.614,0-13.227c0-.573-.247-.822-.817-.822h-9.288l3.293,9.907,1.188-1.307c-.194-.271-.377-.517-.55-.769a.675.675,0,0,1,.143-.971.676.676,0,0,1,.961.2c.1.142.208.286.322.443A8.557,8.557,0,0,0,203.811-73.412Zm-7.235,5.4.96,2.9,1.314-2.9Z" transform="translate(-185.707 85.586)"/>
  <path id="Path_84" data-name="Path 84" d="M236.759,9.1c-.4,0-.771,0-1.144,0a.677.677,0,1,1,0-1.347c.636,0,1.272,0,1.908,0a.677.677,0,0,1,.71.724,3.367,3.367,0,1,1-3.22-3.416,3.255,3.255,0,0,1,2.146.9.7.7,0,0,1,.108,1.014.692.692,0,0,1-1.018-.017A2.019,2.019,0,1,0,236.68,9.3C236.708,9.247,236.727,9.185,236.759,9.1Z" transform="translate(-228.754 0.376)"/>
</svg>
