<svg xmlns="http://www.w3.org/2000/svg" width="10.615" height="20.483" viewBox="0 0 10.615 20.483">
  <path id="Path_12654" data-name="Path 12654" d="M-422.818,1804.985c0-.086-.01-.173-.01-.259q0-4.4,0-8.8v-.281h-3.137v-3.642h3.137c0-.1,0-.18,0-.258,0-.953-.02-1.907.019-2.859a4.555,4.555,0,0,1,1.2-3.056,4.2,4.2,0,0,1,2.252-1.206,8.559,8.559,0,0,1,2.13-.106c.579.022,1.157.072,1.735.111a1.314,1.314,0,0,1,.145.026v3.247h-.209c-.713.01-1.426,0-2.138.037a1.288,1.288,0,0,0-1.352,1.357c-.036.878-.013,1.759-.014,2.638,0,.012.009.024.023.058h3.572l-.469,3.641h-3.115c-.007.078-.016.135-.016.192q0,4.508,0,9.017c0,.046.006.093.01.139Z" transform="translate(425.965 -1784.502)"/>
</svg>
