<svg xmlns="http://www.w3.org/2000/svg" viewBox="0 0 41.8 54.9" style="enable-background:new 0 0 41.8 54.9" xml:space="preserve"><path d="M22.3 0c1.1.2 2.3.3 3.4.6 8.1 1.9 14.4 8.5 15.8 16.8.7 4.6.1 9.3-1.8 13.6-2.1 5-5 9.6-8.5 13.7-3 3.6-6.3 6.9-9.8 9.9l-.4.4h-.2l-.6-.6C14.5 49.5 9.5 43.9 5.5 37.6c-2.4-3.7-4.1-7.7-5-12-2.2-9.8 2.9-19.9 12.2-23.9 2-.9 4.2-1.4 6.4-1.6.2 0 .3-.1.5-.1h2.7zm-1.5 50.8c.4-.3.5-.5.7-.6 2.5-2.3 4.9-4.8 7.1-7.4 3.4-3.9 6.2-8.3 8.2-13.1 1.7-3.8 2.2-8 1.6-12.1C36.5 8 27.2 1.7 17.6 3.5c-.1 0-.3.1-.4.1C8.8 5.4 3 12.9 3.2 21.4c.2 3.7 1.1 7.3 2.9 10.6 2.5 5 5.8 9.6 9.6 13.6 1.7 1.7 3.4 3.5 5.1 5.2z"/><path d="M9.7 9.7h22.5v22.5H9.7V9.7zm3.2 19.2H29v-16h-6.4v4.8h-3.2v-4.8H13l-.1 16z"/><path d="M27.3 22.6v3.2h-6.4v-3.2h6.4z"/></svg>