<svg id="Component_19_1" data-name="Component 19 – 1" xmlns="http://www.w3.org/2000/svg" width="113.449" height="113.438" viewBox="0 0 113.449 113.438">
  <path id="Path_1070" data-name="Path 1070" d="M-46.215,39.6c1.371,0,2.552-.021,3.732,0a3.791,3.791,0,0,1,3.825,3.82,3.8,3.8,0,0,1-3.8,3.733c-.315.01-.63,0-.945,0H-147.365c-2.951,0-4.7-1.4-4.712-3.767-.008-2.384,1.729-3.793,4.678-3.794h2.88v-1.18q0-26.759.016-53.518a1.967,1.967,0,0,0-.864-1.756,16.688,16.688,0,0,1-6.7-13.452q-.082-4.547.015-9.1a5.807,5.807,0,0,1,.553-2.372c2.983-6.069,5.977-12.134,9.058-18.154a10.906,10.906,0,0,1,10.285-6.321q36.8-.048,73.6,0A10.835,10.835,0,0,1-48.34-60.021c3.124,6.087,6.129,12.235,9.167,18.366a3.725,3.725,0,0,1,.479,1.563c-.014,4.013.143,8.046-.2,12.033a15.615,15.615,0,0,1-6.49,11.217,1.843,1.843,0,0,0-.847,1.646q.037,26.818.019,53.636Zm-68.056-.058V38.217c0-6.969-.011-13.939,0-20.908A11.337,11.337,0,0,1-102.489,5.569q7.028-.016,14.057,0c7.163.007,11.964,4.829,11.969,12.025q.007,10.336,0,20.672v1.242h22.627V-13.341A17.58,17.58,0,0,1-68.9-19.607a16.979,16.979,0,0,1-13.2,6.255A16.944,16.944,0,0,1-95.32-19.54a17.368,17.368,0,0,1-26.563.021,17.065,17.065,0,0,1-14.989,6.275V39.538Zm65.617-83.186c-.082-.226-.12-.373-.186-.506-2.051-4.118-4.1-8.24-6.164-12.349a3.931,3.931,0,0,0-3.853-2.214q-36.509.019-73.018,0a4.029,4.029,0,0,0-3.962,2.424c-1.349,2.755-2.741,5.489-4.11,8.234-.715,1.433-1.419,2.871-2.18,4.412Zm-35.37,83.243V38.549q0-10.63,0-21.26c0-2.634-1.545-4.154-4.2-4.158q-7.087-.011-14.174,0c-2.827,0-4.305,1.47-4.307,4.282q-.007,10.512,0,21.024v1.159h22.685Zm-60.485-75.565c0,2.055-.046,4.017.009,5.976a9.464,9.464,0,0,0,8.637,9.067,9.228,9.228,0,0,0,9.988-7.616,51.653,51.653,0,0,0,.062-7.426Zm45.167.032h-18.7c0,2.008-.038,3.933.008,5.857a9.469,9.469,0,0,0,8.671,9.156A9.227,9.227,0,0,0-99.4-28.574,51.441,51.441,0,0,0-99.342-35.939Zm7.763-.027c0,2.012-.041,3.969.009,5.924a9.418,9.418,0,0,0,8.009,9.022,9.419,9.419,0,0,0,10.21-5.887c1.159-2.968.465-6.033.7-9.059Zm45.169.027h-18.7c0,2.008-.038,3.933.008,5.857a9.469,9.469,0,0,0,8.671,9.156,9.227,9.227,0,0,0,9.964-7.648A51.442,51.442,0,0,0-46.409-35.939Z" transform="translate(152.107 66.279)" fill="#2d2d2d"/>
  <path id="Path_1071" data-name="Path 1071" d="M-81.247,140.706h-22.6V87.924a17.065,17.065,0,0,0,14.989-6.275A17.368,17.368,0,0,0-62.3,81.628a16.944,16.944,0,0,0,13.227,6.188,16.979,16.979,0,0,0,13.2-6.255,17.58,17.58,0,0,0,15.06,6.266v52.847H-43.438v-1.242q0-10.336,0-20.672c-.005-7.2-4.806-12.018-11.969-12.025q-7.028-.006-14.057,0a11.337,11.337,0,0,0-11.779,11.741c-.014,6.969,0,13.939,0,20.908Z" transform="translate(119.083 -34.89)" fill="#ff3115"/>
  <path id="Path_1072" data-name="Path 1072" d="M-27.024-27.257H-120.5c.761-1.541,1.466-2.979,2.18-4.412,1.369-2.745,2.761-5.479,4.11-8.234a4.029,4.029,0,0,1,3.962-2.424q36.509.02,73.018,0a3.931,3.931,0,0,1,3.853,2.214c2.068,4.11,4.113,8.231,6.164,12.349C-27.144-27.63-27.107-27.483-27.024-27.257Z" transform="translate(130.478 49.888)" fill="#ff3115"/>
  <path id="Path_1073" data-name="Path 1073" d="M14.379,211.717H-8.306v-1.159q0-10.512,0-21.024c0-2.812,1.48-4.28,4.307-4.282q7.087-.007,14.174,0c2.655,0,4.2,1.524,4.2,4.158q.013,10.63,0,21.26Z" transform="translate(53.704 -105.845)" fill="#fff"/>
  <path id="Path_1074" data-name="Path 1074" d="M-128.079,29.727h18.7a51.651,51.651,0,0,1-.062,7.426,9.228,9.228,0,0,1-9.988,7.616A9.464,9.464,0,0,1-128.07,35.7C-128.125,33.744-128.079,31.782-128.079,29.727Z" transform="translate(135.677 0.58)" fill="#fff"/>
  <path id="Path_1075" data-name="Path 1075" d="M-25.54,29.828a51.443,51.443,0,0,1-.061,7.364,9.227,9.227,0,0,1-9.964,7.648,9.469,9.469,0,0,1-8.671-9.156c-.045-1.924-.008-3.849-.008-5.857Z" transform="translate(78.306 0.512)" fill="#fff"/>
  <path id="Path_1076" data-name="Path 1076" d="M39.592,29.741H58.52c-.235,3.025.459,6.09-.7,9.059A9.437,9.437,0,0,1,39.6,35.665C39.551,33.71,39.592,31.753,39.592,29.741Z" transform="translate(20.937 0.571)" fill="#fff"/>
  <path id="Path_1077" data-name="Path 1077" d="M142.132,29.828a51.441,51.441,0,0,1-.061,7.364,9.227,9.227,0,0,1-9.964,7.648,9.469,9.469,0,0,1-8.671-9.156c-.045-1.923-.008-3.849-.008-5.857Z" transform="translate(-36.434 0.512)" fill="#fff"/>
</svg>
