<svg id="Component_24_1" data-name="Component 24 – 1" xmlns="http://www.w3.org/2000/svg" width="149.998" height="111.336" viewBox="0 0 149.998 111.336">
  <path id="Path_1113" data-name="Path 1113" d="M148-21.148c.1-.271.217-.538.3-.814a8.747,8.747,0,0,1,8.7-6.5c7.859-.023,15.718-.007,23.577-.007q29.508,0,59.015,0c6.164,0,9.741,3.562,9.746,9.7q.005,8.933,0,17.865V.82h1.7c7.322,0,14.644.043,21.966-.017a9.2,9.2,0,0,1,9.023,5.509q7.255,14.6,14.6,29.154A11.837,11.837,0,0,1,298,41.205c-.1,4.928-.037,9.859-.031,14.789a8.881,8.881,0,0,1-5.034,8.431,1.661,1.661,0,0,0-.8,1.138,18.218,18.218,0,0,1-4.4,11.276c.5.056.847.126,1.2.128,2,.012,4-.027,6,.019a2.92,2.92,0,0,1,3.014,2.925,2.969,2.969,0,0,1-3.04,2.914c-.292.014-.585.005-.878.005q-71.023,0-142.046.029c-1.8,0-3.123-.49-3.985-2.079V79.024a3.931,3.931,0,0,1,3.978-2.082c5.414.09,10.83.032,16.244.032h1.835a18.406,18.406,0,0,1-4.526-11.72c-2.993,0-5.909.047-8.823-.013a8.387,8.387,0,0,1-7.318-4.113A22.757,22.757,0,0,1,148,57.935ZM243.485,59.4V57.863q0-38.282,0-76.564c0-2.982-.942-3.911-3.96-3.911H157.836c-3.081,0-3.978.911-3.978,4.035q0,26.424,0,52.848v1.7c2.871,0,5.592-.013,8.312,0,2.3.014,3.387,1.114,3.4,3.433.016,2.928,0,5.856,0,8.784,0,4.947-.4,5.353-5.3,5.353h-6.417c0,.861,0,1.494,0,2.126.01,2.709,1.01,3.723,3.7,3.73,2.538.006,5.076-.039,7.612.021a1.767,1.767,0,0,0,1.935-1.229c3.182-6.679,8.524-10.4,15.933-10.445,7.479-.048,12.879,3.66,16.119,10.38a1.89,1.89,0,0,0,2.04,1.3q20.349-.056,40.7-.025Zm48.6-17.574h-1.95q-15.67,0-31.34,0c-2.524,0-3.589-1.048-3.591-3.536q-.012-11.057,0-22.114c0-2.621,1.014-3.632,3.638-3.636q9.007-.011,18.013-.005c.5,0,1.008-.041,1.666-.07-.628-1.274-1.209-2.341-1.689-3.451a3.638,3.638,0,0,0-3.788-2.359c-7.419.061-14.84.025-22.26.025h-1.358V59.4c2.511,0,4.942-.034,7.371.019a1.484,1.484,0,0,0,1.616-1.053c3.048-6.625,8.256-10.363,15.53-10.611,7.419-.253,12.858,3.281,16.374,9.793.2.362.394.723.782,1.433a7.5,7.5,0,0,0,.95-2.229C292.116,51.833,292.085,46.913,292.085,41.826ZM196.325,76.869h64.686a46.335,46.335,0,0,1-2.848-5.417,49.838,49.838,0,0,1-1.5-6.11h-55.92A18.225,18.225,0,0,1,196.325,76.869Zm64.8-40.951H290.1a2.934,2.934,0,0,0-.143-.6c-2.7-5.406-5.379-10.819-8.142-16.191a1.971,1.971,0,0,0-1.5-.7c-4.683-.053-9.367-.031-14.051-.031h-5.141ZM171.436,65.2a11.711,11.711,0,1,0,11.8-11.656A11.747,11.747,0,0,0,171.436,65.2Zm91.383.043a11.711,11.711,0,1,0,11.756-11.7A11.743,11.743,0,0,0,262.819,65.243Zm-103.157-23.3h-5.728v5.653h5.728Z" transform="translate(-148 28.475)" fill="#2d2d2d"/>
  <path id="Path_1114" data-name="Path 1114" d="M449.863,96.471c0,5.087.031,10.007-.038,14.926a7.492,7.492,0,0,1-.95,2.229c-.387-.709-.586-1.07-.782-1.433-3.516-6.512-8.955-10.046-16.374-9.793-7.274.248-12.482,3.986-15.53,10.611a1.484,1.484,0,0,1-1.616,1.053c-2.429-.053-4.86-.019-7.371-.019V61.323h1.358c7.42,0,14.841.036,22.26-.025a3.638,3.638,0,0,1,3.788,2.359c.48,1.11,1.061,2.176,1.689,3.451-.658.029-1.162.07-1.666.07q-9.007.006-18.013.005c-2.624,0-3.636,1.015-3.638,3.636q-.009,11.057,0,22.114c0,2.487,1.067,3.535,3.591,3.536q15.67.009,31.34,0Z" transform="translate(-305.778 -26.17)" fill="#fff"/>
  <path id="Path_1115" data-name="Path 1115" d="M437.1,108.821V91.3h5.141c4.684,0,9.368-.022,14.051.031a1.971,1.971,0,0,1,1.5.7c2.763,5.372,5.446,10.785,8.142,16.191a2.94,2.94,0,0,1,.143.6Z" transform="translate(-323.977 -44.428)" fill="#ff3115"/>
  <path id="Path_1116" data-name="Path 1116" d="M207.892,192.79a11.711,11.711,0,1,1,11.693,11.767A11.74,11.74,0,0,1,207.892,192.79ZM219.48,198.7a5.855,5.855,0,1,0-5.73-5.977A5.885,5.885,0,0,0,219.48,198.7Z" transform="translate(-184.456 -99.114)" fill="#fff"/>
  <path id="Path_1117" data-name="Path 1117" d="M441.431,192.833a11.711,11.711,0,1,1,11.734,11.724A11.732,11.732,0,0,1,441.431,192.833Zm11.744,5.866a5.854,5.854,0,1,0-5.885-5.819A5.881,5.881,0,0,0,453.175,198.7Z" transform="translate(-326.613 -99.115)" fill="#fff"/>
  <path id="Path_1118" data-name="Path 1118" d="M168.894,151.481v5.653h-5.728v-5.653Z" transform="translate(-157.232 -81.065)" fill="#fff"/>
  <path id="Path_1119" data-name="Path 1119" d="M274.121,22.287c-5.947,0-11.894.037-17.84-.04a4.847,4.847,0,0,1-2.644-.907,2.423,2.423,0,0,1-.7-2.923,2.791,2.791,0,0,1,2.5-1.954c.87-.082,1.753-.033,2.63-.033q16.6,0,33.194,0c.439,0,.879-.017,1.316.009a2.955,2.955,0,0,1,2.93,2.863,2.9,2.9,0,0,1-2.963,2.967c-3.265.049-6.532.017-9.8.018Z" transform="translate(-211.754 1.15)" fill="#2d2d2d"/>
  <path id="Path_1120" data-name="Path 1120" d="M298.262,46.388c3.995,0,7.99-.007,11.985,0,2.2.005,3.58,1.182,3.538,2.99-.041,1.76-1.375,2.86-3.52,2.862q-11.985.011-23.97,0c-2.212,0-3.574-1.17-3.534-2.99.039-1.767,1.361-2.857,3.516-2.862C290.272,46.381,294.267,46.388,298.262,46.388Z" transform="translate(-230.029 -17.094)" fill="#2d2d2d"/>
  <path id="Path_1121" data-name="Path 1121" d="M252.6-9.58c0-2.982-.942-3.911-3.96-3.911H166.948c-3.081,0-3.978.911-3.978,4.035q0,26.424,0,52.848v1.7c2.871,0,5.592-.013,8.312,0,2.3.014,3.387,1.114,3.4,3.433.016,2.928,0,5.856,0,8.784,0,4.947-.4,5.353-5.3,5.353H162.97c0,.861,0,1.494,0,2.126.01,2.709,1.01,3.723,3.7,3.73,2.538.006,5.076-.039,7.612.021a1.767,1.767,0,0,0,1.935-1.229c3.182-6.679,8.524-10.4,15.933-10.445,7.479-.048,12.879,3.66,16.119,10.38a1.89,1.89,0,0,0,2.04,1.3q20.349-.056,40.7-.025H252.6V66.984Q252.6,28.7,252.6-9.58ZM237.347,15.8q-11.985.011-23.97,0c-2.212,0-3.574-1.17-3.534-2.99.039-1.767,1.361-2.857,3.516-2.862,4-.01,7.99,0,11.985,0s7.99-.007,11.985,0c2.2.005,3.58,1.182,3.538,2.99C240.826,14.694,239.493,15.794,237.347,15.8ZM237.9,4.065c-3.265.049-6.532.017-9.8.018h-8.628c-5.947,0-11.894.037-17.84-.04A4.849,4.849,0,0,1,199,3.135a2.423,2.423,0,0,1-.7-2.923,2.791,2.791,0,0,1,2.5-1.954c.87-.082,1.753-.032,2.63-.033q16.6,0,33.194,0c.439,0,.879-.017,1.316.009a2.955,2.955,0,0,1,2.93,2.863A2.9,2.9,0,0,1,237.9,4.065Z" transform="translate(-157.112 19.354)" fill="#ff3115"/>
  <path id="Path_1122" data-name="Path 1122" d="M228.592,207.811a5.855,5.855,0,1,1,5.975-5.732A5.878,5.878,0,0,1,228.592,207.811Z" transform="translate(-193.569 -108.227)" fill="#2d2d2d"/>
  <path id="Path_1123" data-name="Path 1123" d="M462.288,207.812a5.854,5.854,0,1,1,5.819-5.89A5.871,5.871,0,0,1,462.288,207.812Z" transform="translate(-335.725 -108.228)" fill="#2d2d2d"/>
</svg>
