<svg xmlns="http://www.w3.org/2000/svg" width="85.951" height="116.007" viewBox="0 0 85.951 116.007">
  <g id="Component_25_1" data-name="Component 25 – 1" transform="translate(2.001 2.083)">
    <path id="Path_1125" data-name="Path 1125" d="M145.557,19.294c-1.2-1.383-2.284-2.627-3.356-3.883-6.991-8.2-13.563-16.7-18.8-26.15A48.1,48.1,0,0,1,117.738-25.2a34.025,34.025,0,0,1,2.223-19.069c5.52-13.806,15.631-22.446,30.156-25.62,22.191-4.849,44.548,10.5,48.55,32.876,1.589,8.886-.556,16.826-4.609,24.528C189.314-3.465,183.272,4.654,176.8,12.473c-1.854,2.24-3.766,4.433-5.809,6.832,1.185.143,2.226.266,3.265.393a65.275,65.275,0,0,1,15.432,3.31,22.567,22.567,0,0,1,5.412,2.869c3.123,2.316,3.088,5.677.08,8.147-2.9,2.378-6.4,3.454-9.949,4.321-9.571,2.337-19.325,2.918-29.131,2.78-8.945-.125-17.841-.817-26.5-3.26a33.934,33.934,0,0,1-5.938-2.328c-2.291-1.147-4.5-2.633-4.5-5.571s2.22-4.376,4.487-5.588a36.743,36.743,0,0,1,10.935-3.46c3.242-.585,6.52-.968,9.782-1.44C144.7,19.429,145.032,19.375,145.557,19.294Zm12.689,8.051A262.076,262.076,0,0,0,177.755,5.316a122.6,122.6,0,0,0,13.714-20.888c3.09-6.2,4.752-12.581,3.7-19.657-2.575-17.376-17.654-31.109-35.2-31.74a37.257,37.257,0,0,0-37.222,25.937c-2.4,7.416-2.593,14.814.785,22.019a105.505,105.505,0,0,0,5.07,9.806c6.738,11.155,15.148,21.022,23.948,30.571C154.391,23.356,156.289,25.292,158.246,27.345Zm.17,9.847c2.755,0,5.517.12,8.264-.024a80.2,80.2,0,0,0,19.5-3.021,35.894,35.894,0,0,0,6.555-2.893c1.327-.724,1.3-1.7.024-2.534a20.908,20.908,0,0,0-4.327-2.208c-6.373-2.285-13.028-3.122-19.741-3.562a2.3,2.3,0,0,0-1.575.61c-2.391,2.386-4.7,4.849-7.065,7.265-1.343,1.375-2.221,1.383-3.543.03-2.388-2.445-4.734-4.929-7.142-7.354A1.933,1.933,0,0,0,148,22.936c-4.388.517-8.788.991-13.144,1.717a29.317,29.317,0,0,0-9.891,3.268,11.681,11.681,0,0,0-2.1,2.034c.711.715,1.3,1.708,2.158,2.092a45.309,45.309,0,0,0,6.96,2.561C140.641,36.872,149.511,37.351,158.415,37.192Z" transform="translate(-117.22 70.782)" fill="#2d2d2d" stroke="#2d2d2d" stroke-width="4"/>
    <path id="Path_1126" data-name="Path 1126" d="M166.547,35.722c-1.957-2.053-3.855-3.989-5.692-5.981-8.8-9.549-17.209-19.417-23.948-30.571a105.5,105.5,0,0,1-5.07-9.806c-3.378-7.2-3.184-14.6-.785-22.019a37.257,37.257,0,0,1,37.222-25.937c17.545.631,32.624,14.365,35.2,31.74,1.048,7.077-.613,13.455-3.7,19.657a122.6,122.6,0,0,1-13.714,20.888A262.078,262.078,0,0,1,166.547,35.722Zm.061-86.882a29.86,29.86,0,0,0-29.869,29.493A29.852,29.852,0,0,0,166.4,8.51,29.855,29.855,0,0,0,196.39-21.1,29.884,29.884,0,0,0,166.608-51.16Z" transform="translate(-125.52 62.404)" fill="#fff"/>
    <path id="Path_1127" data-name="Path 1127" d="M170.9,244.512c-8.9.159-17.774-.32-26.435-2.584a45.314,45.314,0,0,1-6.96-2.561c-.859-.384-1.447-1.377-2.158-2.092a11.679,11.679,0,0,1,2.1-2.034,29.317,29.317,0,0,1,9.891-3.268c4.356-.725,8.756-1.2,13.144-1.716a1.933,1.933,0,0,1,1.369.565c2.408,2.424,4.754,4.909,7.142,7.354,1.322,1.354,2.2,1.346,3.543-.03,2.361-2.417,4.675-4.879,7.065-7.265a2.3,2.3,0,0,1,1.576-.61c6.713.44,13.368,1.277,19.741,3.562a20.909,20.909,0,0,1,4.327,2.208c1.275.834,1.3,1.81-.024,2.534a35.894,35.894,0,0,1-6.555,2.893,80.2,80.2,0,0,1-19.5,3.021C176.416,244.632,173.654,244.512,170.9,244.512Z" transform="translate(-129.704 -136.538)" fill="#ff3115"/>
    <path id="Path_1128" data-name="Path 1128" d="M183.124-34.661A29.884,29.884,0,0,1,212.906-4.6a29.855,29.855,0,0,1-29.994,29.606A29.852,29.852,0,0,1,153.255-5.167,29.86,29.86,0,0,1,183.124-34.661Zm-.054,3.729A26.117,26.117,0,0,0,156.983-4.847,26.14,26.14,0,0,0,183.028,21.28a26.143,26.143,0,0,0,26.15-26.149A26.136,26.136,0,0,0,183.07-30.932Z" transform="translate(-142.036 45.905)" fill="#2d2d2d" stroke="#2d2d2d" stroke-width="4"/>
    <path id="Path_1129" data-name="Path 1129" d="M191.319-22.682A26.136,26.136,0,0,1,217.428,3.38a26.1,26.1,0,1,1-52.2.022A26.117,26.117,0,0,1,191.319-22.682ZM191.3,20.206q7.16,0,14.32,0c1.883,0,2.481-.611,2.482-2.527,0-5.512-.18-11.032.058-16.534.194-4.478-.831-8.685-1.934-12.922a1.908,1.908,0,0,0-2.013-1.58q-12.864,0-25.729,0a1.94,1.94,0,0,0-2.074,1.648c-.546,2.22-1.114,4.435-1.646,6.659a7.024,7.024,0,0,0-.208,1.6q-.02,10.6-.007,21.194c0,1.833.617,2.456,2.431,2.458Q184.145,20.212,191.3,20.206Z" transform="translate(-150.286 37.656)" fill="#ff3115"/>
    <path id="Path_1130" data-name="Path 1130" d="M211.922,40.831q-7.159,0-14.319,0c-1.814,0-2.43-.625-2.431-2.458q-.005-10.6.007-21.194a7.023,7.023,0,0,1,.208-1.6c.532-2.223,1.1-4.439,1.646-6.659a1.94,1.94,0,0,1,2.074-1.648q12.864,0,25.729,0a1.908,1.908,0,0,1,2.013,1.58c1.1,4.237,2.128,8.443,1.934,12.922-.238,5.5-.054,11.022-.058,16.534,0,1.915-.6,2.525-2.482,2.527Q219.081,40.836,211.922,40.831Zm12.99-3.784V18.512H217.54c0,1.676,0,3.3,0,4.918-.006,1.884-.612,2.479-2.529,2.483-2.1,0-4.193.007-6.29,0-1.729-.007-2.356-.65-2.364-2.411-.007-1.656,0-3.311,0-4.959h-7.4V37.047ZM206.282,14.68V11.037H200.35l-.9,3.643Zm11.311-.024h6.857l-.907-3.6h-5.95Zm-7.485-.027h3.625V11.084h-3.625Zm3.617,7.509V18.511h-3.576v3.626Z" transform="translate(-170.902 17.03)" fill="#2d2d2d" stroke="#2d2d2d" stroke-width="1"/>
    <path id="Path_1131" data-name="Path 1131" d="M233.293,61.928H207.338V43.422h7.4c0,1.648-.005,3.3,0,4.959.007,1.761.635,2.4,2.364,2.411,2.1.009,4.193,0,6.29,0,1.917,0,2.523-.6,2.529-2.483,0-1.621,0-3.241,0-4.918h7.372Zm-6.455-1.812c.893,0,1.787.024,2.679-.006a1.87,1.87,0,0,0,1.986-1.844,1.843,1.843,0,0,0-1.959-1.865q-2.678-.051-5.358,0a1.858,1.858,0,1,0-.026,3.71C225.051,60.142,225.945,60.115,226.838,60.116Z" transform="translate(-179.284 -7.85)" fill="#fff"/>
    <path id="Path_1132" data-name="Path 1132" d="M215.745,23.023h-6.837l.9-3.643h5.932Z" transform="translate(-180.365 8.688)" fill="#fff"/>
    <path id="Path_1133" data-name="Path 1133" d="M267.2,23.041v-3.6h5.95l.907,3.6Z" transform="translate(-220.513 8.645)" fill="#fff"/>
    <path id="Path_1134" data-name="Path 1134" d="M243.159,23.076V19.532h3.625v3.544Z" transform="translate(-203.953 8.583)" fill="#fff"/>
    <path id="Path_1135" data-name="Path 1135" d="M246.867,47.014h-3.576V43.388h3.576Z" transform="translate(-204.045 -7.847)" fill="#fff"/>
    <path id="Path_1136" data-name="Path 1136" d="M259.722,88.836c-.893,0-1.787.026-2.678-.007a1.858,1.858,0,1,1,.026-3.71q2.678-.046,5.358,0a1.843,1.843,0,0,1,1.959,1.865,1.87,1.87,0,0,1-1.986,1.844C261.509,88.861,260.615,88.837,259.722,88.836Z" transform="translate(-212.168 -36.571)" fill="#2d2d2d" stroke="#2d2d2d" stroke-width="1"/>
  </g>
</svg>
