<svg width="128" height="23" viewBox="0 0 128 23" fill="none" xmlns="http://www.w3.org/2000/svg">
<path d="M127.387 12.3666C127.956 11.7982 127.956 10.8766 127.387 10.3082L118.125 1.0458C117.556 0.477413 116.635 0.477413 116.067 1.0458C115.498 1.61419 115.498 2.53573 116.067 3.10412L124.3 11.3374L116.067 19.5707C115.498 20.1391 115.498 21.0606 116.067 21.629C116.635 22.1974 117.556 22.1974 118.125 21.629L127.387 12.3666ZM0.218994 12.7929H2.18992V9.88195H0.218994V12.7929ZM6.13177 12.7929H10.0736V9.88195H6.13177V12.7929ZM14.0155 12.7929H17.9573V9.88195H14.0155V12.7929ZM21.8992 12.7929H25.841V9.88195H21.8992V12.7929ZM29.7829 12.7929H33.7247V9.88195H29.7829V12.7929ZM37.6666 12.7929H41.6084V9.88195H37.6666V12.7929ZM45.5503 12.7929H49.4921V9.88195H45.5503V12.7929ZM53.434 12.7929H57.3758V9.88195H53.434V12.7929ZM61.3176 12.7929H65.2595V9.88195H61.3176V12.7929ZM69.2013 12.7929H73.1432V9.88195H69.2013V12.7929ZM77.085 12.7929H81.0269V9.88195H77.085V12.7929ZM84.9687 12.7929H88.9106V9.88195H84.9687V12.7929ZM92.8524 12.7929H96.7943V9.88195H92.8524V12.7929ZM100.736 12.7929H104.678V9.88195H100.736V12.7929ZM108.62 12.7929H112.562V9.88195H108.62V12.7929ZM116.504 12.7929H120.445V9.88195H116.504V12.7929ZM124.387 12.7929H126.358V9.88195H124.387V12.7929Z" fill="#BEC5C3"/>
</svg>
