<svg width="673" height="355" viewBox="0 0 673 355" fill="none" xmlns="http://www.w3.org/2000/svg">
<path d="M309.889 12.7049C350.532 13.7423 391.174 14.2956 431.748 16.0246C462.697 17.2694 493.578 19.5517 524.389 22.1106C558.938 25.0153 592.657 32.2079 625.753 42.5819C634.962 45.4866 641.678 51.0194 646.732 58.9727C656.218 74.0495 662.034 90.5095 665.219 107.869C667.988 123.222 670.135 138.714 671.52 154.275C675.189 194.387 671.658 233.739 659.541 272.399C651.925 296.605 636.624 312.789 612.459 319.221C593.973 324.131 574.932 327.52 555.961 330.494C512.341 337.41 468.375 334.09 424.478 334.574C408.83 334.781 395.329 331.116 382.035 323.163C353.232 305.942 323.598 306.91 294.726 323.163C282.055 330.286 269.385 334.436 254.637 334.09C228.465 333.398 202.293 334.712 176.19 333.467C136.724 331.6 97.4664 327.451 59.2469 316.316C42.0759 311.267 29.3361 301.792 21.3737 285.54C11.265 264.861 6.00286 242.868 3.23334 220.322C-0.782472 187.541 -0.643981 154.828 5.03354 122.185C8.28773 103.65 13.7575 85.8067 21.8584 68.8626C23.4509 65.4737 25.4588 62.2232 27.4667 59.0419C34.1135 48.5988 42.699 41.1295 55.0927 37.2566C80.503 29.3724 106.467 24.3929 132.709 21.0041C191.561 13.3965 250.69 13.2582 309.889 12.7741V12.7049Z" fill="black"/>
<path d="M593.306 43.0475C596.419 44.2915 599.54 45.5384 602.731 46.7164L602.734 46.7174C611.203 49.7872 617.565 55.3823 622.714 62.6505L622.716 62.6534C633.955 78.2876 640.86 95.9321 646.392 114.238C658.838 155.54 664.025 197.881 662.78 240.986C662.158 263.848 659.323 286.264 651.319 307.771C648.079 316.376 643.811 324.419 638.035 331.632C629.133 342.644 617.079 348.058 603.406 349.499L603.403 349.5C587.835 351.228 572.201 352.471 556.502 352.886C525.713 353.715 494.989 352.402 464.256 350.189L464.255 350.189C461.282 349.982 458.325 349.74 455.364 349.498C452.405 349.256 449.443 349.014 446.462 348.806C438.96 348.261 432.357 345.335 427.183 340.235C420.75 333.879 414.468 327.258 408.949 320.091L408.949 320.09C403.847 313.492 398.962 306.74 394.076 299.985L393.232 298.819C388.066 291.679 382.885 284.548 377.443 277.623L377.442 277.622C371.674 270.334 365.071 263.529 357.839 257.694C351.475 252.56 345.084 249.959 338.641 249.95C332.197 249.941 325.773 252.524 319.341 257.622L319.651 258.014L319.341 257.622C312.245 263.251 305.777 269.92 300.284 277.144C300.283 277.144 300.283 277.145 300.282 277.145L300.68 277.448C294.018 286.122 287.813 295.132 281.6 304.153C278.45 308.725 275.299 313.301 272.085 317.837M593.306 43.0475L271.677 317.548M593.306 43.0475C535.885 20.589 476.462 7.18432 414.827 3.93679L593.306 43.0475ZM272.085 317.837L271.678 317.547C271.677 317.547 271.677 317.548 271.677 317.548M272.085 317.837L271.677 317.548M272.085 317.837C268.831 322.402 265.299 326.759 261.699 331.116C252.49 342.389 241.066 348.406 226.18 349.582C193.015 352.21 159.85 354.769 126.546 354.354M271.677 317.548C268.434 322.097 264.913 326.442 261.314 330.797L261.312 330.8C252.19 341.966 240.892 347.918 226.141 349.083C192.973 351.711 159.83 354.268 126.553 353.854M126.546 354.354L126.553 353.854C126.553 353.854 126.553 353.854 126.553 353.854M126.546 354.354C106.398 354.077 86.319 353.455 66.7938 347.991L126.553 353.854M126.546 354.354L126.553 353.854M408.553 320.396C414.092 327.589 420.393 334.228 426.832 340.591C432.094 345.778 438.81 348.752 446.426 349.305C449.404 349.512 452.363 349.755 455.323 349.997C458.283 350.239 461.243 350.481 464.221 350.688C494.962 352.901 525.704 354.215 556.515 353.385C572.232 352.97 587.88 351.726 603.458 349.997C617.237 348.544 629.423 343.081 638.424 331.946C644.24 324.684 648.532 316.592 651.786 307.947C659.818 286.37 662.657 263.893 663.28 241.001C664.526 197.845 659.333 155.45 646.871 114.093C641.332 95.7656 634.408 78.0608 623.122 62.3615C617.929 55.0306 611.49 49.3595 602.904 46.2473L408.553 320.396ZM408.553 320.396C403.447 313.792 398.557 307.032 393.672 300.279M408.553 320.396L393.672 300.279M393.672 300.279C388.224 292.748 382.781 285.225 377.05 277.932L393.672 300.279Z" fill="#303033" stroke="url(#paint0_linear_151_27294)"/>
<path d="M88.8809 186.434C88.8809 185.535 88.8809 184.636 88.8809 183.737C90.7503 170.112 91.7196 156.211 94.6276 142.794C101.828 108.906 119.969 85.8758 155.903 77.0234C192.6 68.0326 229.365 60.6325 267.03 58.2811C333.499 54.0624 400.037 52.6792 466.436 59.8026C499.324 63.3298 530.966 71.9747 561.638 84.2851C570.432 87.8123 577.494 93.2067 582.341 101.229C604.705 138.368 610.382 178.55 601.45 220.46C597.365 239.756 585.664 252.412 564.685 256.769C534.497 262.994 504.171 265.829 473.568 267.697C452.588 269.011 435.141 263.962 420.254 249.3C417 246.119 413.469 243.214 409.799 240.586C400.591 234.016 391.521 227.031 381.758 221.36C365.21 211.816 347.485 210.916 329.968 218.386C320.205 222.535 310.927 227.93 301.996 233.739C290.364 241.278 279.424 249.853 268.069 257.738C259.414 263.824 249.929 266.728 239.197 265.622C226.803 264.308 214.271 263.893 201.877 262.648C177.506 260.227 153.065 257.53 128.693 254.971C114.014 253.381 103.975 245.427 98.2972 232.01C96.2201 227.031 94.0737 221.844 93.1044 216.588C91.235 206.629 90.2656 196.462 88.8809 186.434Z" fill="#1B1B1D"/>
<path style="mix-blend-mode:multiply" d="M226.803 79.1674C178.198 79.1674 138.802 118.519 138.802 167.069C138.802 215.619 178.198 254.971 226.803 254.971C275.408 254.971 314.805 215.619 314.805 167.069C314.805 118.519 275.408 79.1674 226.803 79.1674Z" fill="url(#paint1_linear_151_27294)"/>
<path d="M140.671 166.793C140.671 119.349 179.168 80.8964 226.665 80.8964C274.162 80.8964 312.659 119.349 312.659 166.793C312.659 214.236 274.162 252.689 226.665 252.689C179.168 252.689 140.671 214.236 140.671 166.793Z" fill="#2F2E3A"/>
<path style="mix-blend-mode:multiply" d="M226.665 87.674C182.283 87.674 146.349 123.568 146.349 167.899C146.349 212.231 182.283 248.124 226.665 248.124C271.046 248.124 306.981 212.231 306.981 167.899C306.981 123.568 271.046 87.674 226.665 87.674Z" fill="url(#paint2_linear_151_27294)"/>
<path style="mix-blend-mode:multiply" d="M227.149 89.9562C184.083 89.9562 149.187 124.813 149.187 167.761C149.187 210.709 184.083 245.565 227.149 245.565C270.216 245.565 305.042 210.709 305.042 167.761C305.042 124.813 270.146 89.9562 227.149 89.9562ZM227.149 227.1C193.777 227.1 166.705 200.128 166.705 166.793C166.705 133.458 193.777 106.485 227.149 106.485C260.522 106.485 287.525 133.527 287.525 166.793C287.525 200.058 260.453 227.1 227.149 227.1Z" fill="url(#paint3_linear_151_27294)"/>
<path d="M148.91 169.352C148.91 126.334 183.737 91.4086 226.665 91.4086C269.592 91.4086 304.419 126.334 304.419 169.352C304.419 212.369 269.592 247.295 226.665 247.295C183.737 247.295 148.91 212.369 148.91 169.352Z" fill="#3E3D4D"/>
<g style="mix-blend-mode:soft-light">
<path d="M151.749 169.352C151.749 127.856 185.33 94.2442 226.734 94.2442C268.138 94.2442 301.65 127.856 301.65 169.352C301.65 210.847 268.069 244.459 226.734 244.459C185.399 244.459 151.749 210.847 151.749 169.352Z" fill="#3E3D4D"/>
</g>
<path d="M152.719 169.352C152.719 128.409 185.814 95.2124 226.734 95.2124C267.654 95.2124 300.68 128.409 300.68 169.352C300.68 210.294 267.585 243.491 226.734 243.491C185.884 243.491 152.719 210.294 152.719 169.352Z" fill="url(#paint4_linear_151_27294)"/>
<path d="M154.034 171.703C154.034 131.66 186.437 99.2236 226.319 99.2236C266.2 99.2236 298.603 131.66 298.603 171.703C298.603 211.746 266.2 244.182 226.319 244.182C186.437 244.182 154.034 211.746 154.034 171.703Z" fill="#1F1F26"/>
<g style="mix-blend-mode:screen" opacity="0.3">
<path d="M160.335 171.703C160.335 135.187 189.899 105.586 226.318 105.586C262.738 105.586 292.302 135.187 292.302 171.703C292.302 208.219 262.738 237.82 226.318 237.82C189.899 237.82 160.335 208.219 160.335 171.703Z" fill="#948F8F"/>
</g>
<path d="M161.235 171.703C161.235 135.671 190.384 106.485 226.388 106.485C262.392 106.485 291.472 135.671 291.472 171.703C291.472 207.735 262.322 236.921 226.388 236.921C190.453 236.921 161.235 207.735 161.235 171.703Z" fill="url(#paint5_linear_151_27294)"/>
<g style="mix-blend-mode:multiply">
<path opacity="0.09" d="M162.758 171.634C162.758 136.432 191.215 107.869 226.388 107.869C261.561 107.869 290.018 136.432 290.018 171.634C290.018 206.836 261.561 235.399 226.388 235.399C191.215 235.399 162.758 206.836 162.758 171.634Z" fill="#170900"/>
<path opacity="0.18" d="M162.966 171.565C162.966 136.432 191.353 108.007 226.388 108.007C261.422 108.007 289.81 136.432 289.81 171.565C289.81 206.698 261.422 235.122 226.388 235.122C191.353 235.122 162.966 206.698 162.966 171.565Z" fill="#170900"/>
<path opacity="0.27" d="M163.173 171.496C163.173 136.501 191.492 108.145 226.388 108.145C261.284 108.145 289.602 136.501 289.602 171.496C289.602 206.49 261.284 234.846 226.388 234.846C191.492 234.846 163.173 206.49 163.173 171.496Z" fill="#170900"/>
<path opacity="0.36" d="M163.381 171.357C163.381 136.501 191.561 108.214 226.388 108.214C261.215 108.214 289.395 136.501 289.395 171.357C289.395 206.214 261.215 234.5 226.388 234.5C191.561 234.5 163.381 206.214 163.381 171.357Z" fill="#170900"/>
<path opacity="0.45" d="M163.589 171.288C163.589 136.501 191.699 108.353 226.388 108.353C261.076 108.353 289.187 136.501 289.187 171.288C289.187 206.075 261.076 234.223 226.388 234.223C191.699 234.223 163.589 206.075 163.589 171.288Z" fill="#170900"/>
<path opacity="0.55" d="M163.727 171.219C163.727 136.57 191.769 108.491 226.319 108.491C260.868 108.491 288.91 136.57 288.91 171.219C288.91 205.868 260.868 233.947 226.319 233.947C191.769 233.947 163.727 205.868 163.727 171.219Z" fill="#170900"/>
<path opacity="0.64" d="M163.935 171.081C163.935 136.57 191.838 108.56 226.319 108.56C260.799 108.56 288.702 136.57 288.702 171.081C288.702 205.591 260.799 233.601 226.319 233.601C191.838 233.601 163.935 205.591 163.935 171.081Z" fill="#170900"/>
<path opacity="0.73" d="M164.143 171.011C164.143 136.57 191.977 108.698 226.319 108.698C260.661 108.698 288.494 136.57 288.494 171.011C288.494 205.453 260.661 233.324 226.319 233.324C191.977 233.324 164.143 205.453 164.143 171.011Z" fill="#170900"/>
<path opacity="0.82" d="M164.351 170.942C164.351 136.639 192.115 108.837 226.319 108.837C260.522 108.837 288.287 136.639 288.287 170.942C288.287 205.245 260.522 233.048 226.319 233.048C192.115 233.048 164.351 205.245 164.351 170.942Z" fill="#170900"/>
<path opacity="0.91" d="M164.558 170.873C164.558 136.639 192.184 108.975 226.319 108.975C260.453 108.975 288.079 136.708 288.079 170.873C288.079 205.038 260.453 232.771 226.319 232.771C192.184 232.771 164.558 205.038 164.558 170.873Z" fill="#170900"/>
<path d="M164.766 170.735C164.766 136.639 192.323 109.044 226.319 109.044C260.315 109.044 287.871 136.639 287.871 170.735C287.871 204.83 260.315 232.425 226.319 232.425C192.323 232.425 164.766 204.83 164.766 170.735Z" fill="#170900"/>
</g>
<path d="M165.666 170.804C165.666 137.261 192.807 110.013 226.319 110.013C259.83 110.013 286.971 137.192 286.971 170.804C286.971 204.416 259.83 231.595 226.319 231.595C192.807 231.595 165.666 204.346 165.666 170.804Z" fill="#170900"/>
<g style="mix-blend-mode:multiply" opacity="0.63">
<path d="M166.22 170.942C166.22 137.746 193.084 110.773 226.249 110.773C259.414 110.773 286.279 137.676 286.279 170.942C286.279 204.208 259.414 231.042 226.249 231.042C193.084 231.042 166.22 204.139 166.22 170.942Z" fill="#170900"/>
</g>
<g style="mix-blend-mode:multiply" opacity="0.64">
<path d="M168.297 171.011C168.297 138.783 194.331 112.71 226.526 112.71C258.722 112.71 284.686 138.783 284.686 171.011C284.686 203.24 258.584 229.313 226.526 229.313C194.469 229.313 168.297 203.24 168.297 171.011Z" fill="#170900"/>
</g>
<path d="M235.389 229.797C203.124 234.638 173.074 212.369 168.297 180.002C163.52 147.705 185.745 117.551 218.01 112.71C250.275 107.869 280.324 130.138 285.171 162.505C289.948 194.802 267.723 224.956 235.458 229.728L235.389 229.797Z" fill="url(#paint6_linear_151_27294)"/>
<path d="M210.879 114.715C242.313 106.14 274.716 124.744 283.232 156.28C291.749 187.748 273.193 220.253 241.759 228.76C210.325 237.336 177.921 218.732 169.405 187.195C160.889 155.727 179.444 123.222 210.879 114.715Z" fill="url(#paint7_linear_151_27294)"/>
<path opacity="0.12" d="M199.87 202.825C202.016 203.378 218.564 211.539 229.296 211.816C249.236 212.369 261.699 200.543 263.569 203.724C265.646 207.251 256.022 223.78 230.611 224.887C211.709 225.717 197.377 212.438 195.438 205.107C194.4 201.234 199.939 202.894 199.939 202.894L199.87 202.825Z" fill="white"/>
<path style="mix-blend-mode:multiply" d="M478.276 79.1674C429.671 79.1674 390.274 118.519 390.274 167.069C390.274 215.619 429.671 254.971 478.276 254.971C526.881 254.971 566.278 215.619 566.278 167.069C566.278 118.519 526.881 79.1674 478.276 79.1674Z" fill="url(#paint8_linear_151_27294)"/>
<path d="M392.144 166.793C392.144 119.349 430.64 80.8964 478.138 80.8964C525.635 80.8964 564.131 119.349 564.131 166.793C564.131 214.236 525.635 252.689 478.138 252.689C430.64 252.689 392.144 214.236 392.144 166.793Z" fill="#2F2E3A"/>
<path style="mix-blend-mode:multiply" d="M478.138 87.674C433.756 87.674 397.822 123.568 397.822 167.899C397.822 212.231 433.756 248.124 478.138 248.124C522.519 248.124 558.454 212.231 558.454 167.899C558.454 123.568 522.519 87.674 478.138 87.674Z" fill="url(#paint9_linear_151_27294)"/>
<path style="mix-blend-mode:multiply" d="M478.622 89.9562C435.556 89.9562 400.66 124.813 400.66 167.761C400.66 210.709 435.556 245.565 478.622 245.565C521.688 245.565 556.515 210.709 556.515 167.761C556.515 124.813 521.619 89.9562 478.622 89.9562ZM478.622 227.1C445.25 227.1 418.177 200.128 418.177 166.793C418.177 133.458 445.25 106.485 478.622 106.485C511.995 106.485 538.998 133.527 538.998 166.793C538.998 200.058 511.926 227.1 478.622 227.1Z" fill="url(#paint10_linear_151_27294)"/>
<path d="M400.452 169.352C400.452 126.334 435.279 91.4086 478.207 91.4086C521.134 91.4086 555.961 126.334 555.961 169.352C555.961 212.369 521.134 247.295 478.207 247.295C435.279 247.295 400.452 212.369 400.452 169.352Z" fill="#3E3D4D"/>
<g style="mix-blend-mode:soft-light">
<path d="M403.222 169.352C403.222 127.856 436.802 94.2442 478.207 94.2442C519.611 94.2442 553.122 127.856 553.122 169.352C553.122 210.847 519.542 244.459 478.207 244.459C436.872 244.459 403.222 210.847 403.222 169.352Z" fill="#3E3D4D"/>
</g>
<path d="M404.191 169.352C404.191 128.409 437.287 95.2124 478.207 95.2124C519.127 95.2124 552.153 128.409 552.153 169.352C552.153 210.294 519.057 243.491 478.207 243.491C437.356 243.491 404.191 210.294 404.191 169.352Z" fill="url(#paint11_linear_151_27294)"/>
<path d="M405.507 171.703C405.507 131.66 437.91 99.2236 477.791 99.2236C517.672 99.2236 550.076 131.66 550.076 171.703C550.076 211.746 517.672 244.182 477.791 244.182C437.91 244.182 405.507 211.746 405.507 171.703Z" fill="#1F1F26"/>
<g style="mix-blend-mode:screen" opacity="0.3">
<path d="M411.807 171.703C411.807 135.187 441.372 105.586 477.791 105.586C514.211 105.586 543.775 135.187 543.775 171.703C543.775 208.219 514.211 237.82 477.791 237.82C441.372 237.82 411.807 208.219 411.807 171.703Z" fill="#948F8F"/>
</g>
<path d="M412.708 171.703C412.708 135.671 441.857 106.485 477.861 106.485C513.864 106.485 542.944 135.671 542.944 171.703C542.944 207.735 513.795 236.921 477.861 236.921C441.926 236.921 412.708 207.735 412.708 171.703Z" fill="url(#paint12_linear_151_27294)"/>
<g style="mix-blend-mode:multiply">
<path opacity="0.09" d="M414.231 171.634C414.231 136.432 442.688 107.869 477.861 107.869C513.034 107.869 541.491 136.432 541.491 171.634C541.491 206.836 513.034 235.399 477.861 235.399C442.688 235.399 414.231 206.836 414.231 171.634Z" fill="#170900"/>
<path opacity="0.18" d="M414.439 171.565C414.439 136.432 442.826 108.007 477.861 108.007C512.895 108.007 541.283 136.432 541.283 171.565C541.283 206.698 512.895 235.122 477.861 235.122C442.826 235.122 414.439 206.698 414.439 171.565Z" fill="#170900"/>
<path opacity="0.27" d="M414.646 171.496C414.646 136.501 442.965 108.145 477.861 108.145C512.757 108.145 541.075 136.501 541.075 171.496C541.075 206.49 512.757 234.846 477.861 234.846C442.965 234.846 414.646 206.49 414.646 171.496Z" fill="#170900"/>
<path opacity="0.36" d="M414.854 171.357C414.854 136.501 443.034 108.214 477.861 108.214C512.687 108.214 540.867 136.501 540.867 171.357C540.867 206.214 512.687 234.5 477.861 234.5C443.034 234.5 414.854 206.214 414.854 171.357Z" fill="#170900"/>
<path opacity="0.45" d="M415.062 171.288C415.062 136.501 443.172 108.353 477.861 108.353C512.549 108.353 540.66 136.501 540.66 171.288C540.66 206.075 512.549 234.223 477.861 234.223C443.172 234.223 415.062 206.075 415.062 171.288Z" fill="#170900"/>
<path opacity="0.55" d="M415.27 171.219C415.27 136.57 443.311 108.491 477.861 108.491C512.411 108.491 540.452 136.57 540.452 171.219C540.452 205.868 512.411 233.947 477.861 233.947C443.311 233.947 415.27 205.868 415.27 171.219Z" fill="#170900"/>
<path opacity="0.64" d="M415.477 171.081C415.477 136.57 443.38 108.56 477.861 108.56C512.341 108.56 540.244 136.57 540.244 171.081C540.244 205.591 512.341 233.601 477.861 233.601C443.38 233.601 415.477 205.591 415.477 171.081Z" fill="#170900"/>
<path opacity="0.73" d="M415.685 171.011C415.685 136.57 443.519 108.699 477.861 108.699C512.203 108.699 540.037 136.57 540.037 171.011C540.037 205.453 512.203 233.324 477.861 233.324C443.519 233.324 415.685 205.453 415.685 171.011Z" fill="#170900"/>
<path opacity="0.82" d="M415.893 170.942C415.893 136.639 443.657 108.837 477.861 108.837C512.064 108.837 539.829 136.639 539.829 170.942C539.829 205.245 512.064 233.048 477.861 233.048C443.657 233.048 415.893 205.245 415.893 170.942Z" fill="#170900"/>
<path opacity="0.91" d="M416.1 170.873C416.1 136.639 443.726 108.975 477.861 108.975C511.995 108.975 539.621 136.708 539.621 170.873C539.621 205.038 511.995 232.771 477.861 232.771C443.726 232.771 416.1 205.038 416.1 170.873Z" fill="#170900"/>
<path d="M416.308 170.735C416.308 136.639 443.865 109.044 477.861 109.044C511.857 109.044 539.413 136.639 539.413 170.735C539.413 204.83 511.857 232.425 477.861 232.425C443.865 232.425 416.308 204.83 416.308 170.735Z" fill="#170900"/>
</g>
<path d="M417.139 170.804C417.139 137.261 444.28 110.013 477.791 110.013C511.303 110.013 538.444 137.192 538.444 170.804C538.444 204.416 511.303 231.595 477.791 231.595C444.28 231.595 417.139 204.346 417.139 170.804Z" fill="#170900"/>
<g style="mix-blend-mode:multiply" opacity="0.63">
<path d="M417.693 170.942C417.693 137.746 444.557 110.773 477.722 110.773C510.887 110.773 537.752 137.676 537.752 170.942C537.752 204.208 510.887 231.042 477.722 231.042C444.557 231.042 417.693 204.139 417.693 170.942Z" fill="#170900"/>
</g>
<g style="mix-blend-mode:multiply" opacity="0.64">
<path d="M419.77 171.011C419.77 138.783 445.804 112.71 477.999 112.71C510.195 112.71 536.159 138.783 536.159 171.011C536.159 203.24 510.057 229.313 477.999 229.313C445.942 229.313 419.77 203.24 419.77 171.011Z" fill="#170900"/>
</g>
<path d="M486.931 229.797C454.666 234.638 424.616 212.369 419.839 180.002C415.062 147.705 437.287 117.551 469.552 112.71C501.817 107.869 531.866 130.138 536.713 162.505C541.49 194.802 519.265 224.956 487 229.728L486.931 229.797Z" fill="url(#paint13_linear_151_27294)"/>
<path d="M462.351 114.715C493.785 106.14 526.189 124.744 534.705 156.28C543.221 187.748 524.666 220.253 493.232 228.76C461.798 237.336 429.394 218.732 420.878 187.195C412.362 155.727 430.917 123.222 462.351 114.715Z" fill="url(#paint14_linear_151_27294)"/>
<path opacity="0.12" d="M451.342 202.825C453.489 203.378 470.037 211.539 480.769 211.816C500.709 212.369 513.172 200.543 515.041 203.724C517.119 207.251 507.495 223.78 482.084 224.887C463.182 225.717 448.85 212.438 446.911 205.107C445.873 201.234 451.412 202.894 451.412 202.894L451.342 202.825Z" fill="white"/>
<path d="M470.937 267.835C464.082 267.489 457.158 266.797 450.373 267.005C441.303 267.282 433.687 264.169 426.901 258.498C423.855 255.939 420.878 253.311 418.246 250.268C420.462 251.79 422.816 253.173 424.755 254.971C431.125 260.642 438.602 263.547 447.05 264.308C472.114 266.659 496.97 264.377 521.827 261.057C532.558 259.605 543.221 257.668 553.953 255.732C557.138 255.179 560.254 254.003 563.3 252.758C553.815 253.865 544.606 257.115 534.982 256.009C534.843 255.663 534.774 255.386 534.636 255.04C535.328 254.418 536.02 253.588 536.851 253.104C553.053 243.491 562.608 229.451 565.516 210.847C567.385 199.09 569.739 187.402 571.47 175.645C573.271 163.335 571.332 151.163 569.67 138.99C567.939 126.542 561.223 116.721 553.607 107.315C552.984 106.555 551.876 106.07 550.907 105.655C524.873 95.2815 498.355 86.1524 470.729 80.8963C458.82 78.614 446.773 76.9542 434.725 75.986C415.339 74.3953 395.882 73.2196 376.427 72.4588C360.64 71.8364 344.785 71.5597 328.999 72.0439C316.743 72.4588 304.419 73.7728 292.302 75.571C272.916 78.4065 253.529 81.3113 234.419 85.3917C206.447 91.3394 178.752 98.3245 150.918 104.895C148.564 105.448 146.279 106.416 143.925 106.762C138.663 107.454 135.409 110.773 132.57 114.854C125.439 125.02 121.146 136.086 120.523 148.534C120.315 153.237 119.415 158.009 119.415 162.712C119.553 176.682 122.046 190.445 124.954 204.07C126.477 211.262 128 218.524 130.631 225.371C135.063 236.851 143.302 245.358 153.895 251.652C155.072 252.343 156.042 253.311 156.873 254.695C148.356 256.009 140.394 253.726 132.293 252.205C132.224 252.481 132.155 252.827 132.085 253.104C136.794 254.21 141.502 255.801 146.279 256.285C164.004 258.083 181.798 259.674 199.593 261.057C211.571 261.956 223.618 262.51 235.596 263.063C248.475 263.685 259.968 259.674 270.492 252.412C272.293 251.167 274.37 250.407 276.585 249.853C273.47 252.066 270.354 254.21 267.307 256.424C257.268 263.685 246.051 266.383 233.796 265.622C218.148 264.654 202.431 263.824 186.783 262.648C173.559 261.68 160.334 260.504 147.179 258.913C134.924 257.392 122.877 254.971 111.799 249.231C106.537 246.534 102.659 242.522 99.6127 237.335C91.5119 223.504 88.4654 208.358 87.9115 192.658C86.9422 167.484 89.7809 142.794 99.1281 119.211C99.7512 117.689 100.513 116.237 101.136 114.715C106.467 102.059 115.953 93.4142 127.931 87.1898C129.731 86.2216 131.462 85.1842 133.332 84.3543C135.063 83.5935 136.586 82.6253 138.871 83.3169C140.532 83.801 142.817 82.6944 144.756 82.072C170.582 74.1186 196.892 68.2401 223.618 64.3671C243.074 61.5316 262.668 58.9727 282.263 57.4512C360.987 51.1576 439.087 55.9297 516.218 73.4271C526.812 75.8476 537.059 79.6514 547.722 81.7262C560.115 84.1468 570.016 90.6478 578.533 99.1544C582.895 103.512 586.218 109.183 588.918 114.715C595.634 128.409 599.166 143.14 601.312 158.286C603.528 174.469 603.043 190.584 600.689 206.629C598.889 218.593 595.219 230.005 588.434 240.171C583.795 247.087 576.732 250.614 569.185 253.381C556.792 257.807 544.052 260.435 531.105 262.648C512.341 265.829 493.37 266.383 474.399 267.558C473.637 267.558 472.875 267.835 472.183 267.973H471.006L470.937 267.835Z" fill="black"/>
<defs>
<linearGradient id="paint0_linear_151_27294" x1="336.76" y1="0.532776" x2="336.76" y2="354.63" gradientUnits="userSpaceOnUse">
<stop stop-color="#9B9B9B"/>
<stop offset="1" stop-color="white" stop-opacity="0"/>
</linearGradient>
<linearGradient id="paint1_linear_151_27294" x1="358.979" y1="27.0901" x2="124.751" y2="275.777" gradientUnits="userSpaceOnUse">
<stop offset="0.29"/>
<stop offset="0.3"/>
<stop offset="0.56" stop-color="#292929"/>
<stop offset="0.57" stop-color="#282828"/>
<stop offset="0.86"/>
</linearGradient>
<linearGradient id="paint2_linear_151_27294" x1="347.277" y1="40.0922" x2="133.519" y2="267.039" gradientUnits="userSpaceOnUse">
<stop offset="0.18"/>
<stop offset="0.19"/>
<stop offset="0.56" stop-color="#292929"/>
<stop offset="0.86" stop-color="#121417"/>
</linearGradient>
<linearGradient id="paint3_linear_151_27294" x1="177.575" y1="105.033" x2="284.122" y2="240.288" gradientUnits="userSpaceOnUse">
<stop stop-color="#474747"/>
<stop offset="0.2" stop-color="#333333"/>
<stop offset="0.41" stop-color="#1C1C1C"/>
<stop offset="0.42" stop-color="#171717"/>
<stop offset="0.45" stop-color="#060606"/>
<stop offset="0.47"/>
<stop offset="0.7" stop-color="#2E2E2E"/>
<stop offset="1" stop-color="#737373"/>
</linearGradient>
<linearGradient id="paint4_linear_151_27294" x1="222.649" y1="41.752" x2="229.074" y2="243.56" gradientUnits="userSpaceOnUse">
<stop offset="0.3"/>
<stop offset="1" stop-color="#121212"/>
</linearGradient>
<linearGradient id="paint5_linear_151_27294" x1="222.787" y1="59.3877" x2="228.452" y2="237.059" gradientUnits="userSpaceOnUse">
<stop offset="0.3"/>
<stop offset="0.34" stop-color="#020202"/>
<stop offset="1" stop-color="#21212B"/>
</linearGradient>
<linearGradient id="paint6_linear_151_27294" x1="218.65" y1="277.187" x2="233.66" y2="84.6029" gradientUnits="userSpaceOnUse">
<stop offset="0.22" stop-color="#65C6FF"/>
<stop offset="0.23" stop-color="#5EBAEF"/>
<stop offset="0.27" stop-color="#488FB8"/>
<stop offset="0.31" stop-color="#356886"/>
<stop offset="0.36" stop-color="#25485D"/>
<stop offset="0.4" stop-color="#172E3B"/>
<stop offset="0.44" stop-color="#0D1921"/>
<stop offset="0.49" stop-color="#050B0E"/>
<stop offset="0.53" stop-color="#010203"/>
<stop offset="0.58"/>
<stop offset="0.7" stop-color="#020202"/>
<stop offset="0.75" stop-color="#090909"/>
<stop offset="0.8" stop-color="#171717"/>
<stop offset="0.84" stop-color="#2A2A2A"/>
<stop offset="0.87" stop-color="#424242"/>
<stop offset="0.9" stop-color="#606060"/>
<stop offset="0.93" stop-color="#848484"/>
<stop offset="0.96" stop-color="#AEAEAE"/>
<stop offset="0.98" stop-color="#DCDCDC"/>
<stop offset="1" stop-color="white"/>
</linearGradient>
<linearGradient id="paint7_linear_151_27294" x1="222.27" y1="66.0379" x2="229.767" y2="258.774" gradientUnits="userSpaceOnUse">
<stop offset="0.164479" stop-color="#F05A23"/>
<stop offset="0.269784" stop-color="#E0460E"/>
<stop offset="0.376751" stop-color="#622B16"/>
<stop offset="0.556859" stop-color="#170904"/>
<stop offset="0.732075"/>
</linearGradient>
<linearGradient id="paint8_linear_151_27294" x1="610.452" y1="27.0901" x2="376.293" y2="275.777" gradientUnits="userSpaceOnUse">
<stop offset="0.29"/>
<stop offset="0.3"/>
<stop offset="0.56" stop-color="#292929"/>
<stop offset="0.57" stop-color="#282828"/>
<stop offset="0.86"/>
</linearGradient>
<linearGradient id="paint9_linear_151_27294" x1="598.75" y1="40.0922" x2="384.992" y2="267.039" gradientUnits="userSpaceOnUse">
<stop offset="0.18"/>
<stop offset="0.19"/>
<stop offset="0.56" stop-color="#292929"/>
<stop offset="0.86" stop-color="#121417"/>
</linearGradient>
<linearGradient id="paint10_linear_151_27294" x1="429.048" y1="105.033" x2="535.595" y2="240.289" gradientUnits="userSpaceOnUse">
<stop stop-color="#474747"/>
<stop offset="0.2" stop-color="#333333"/>
<stop offset="0.41" stop-color="#1C1C1C"/>
<stop offset="0.42" stop-color="#171717"/>
<stop offset="0.45" stop-color="#060606"/>
<stop offset="0.47"/>
<stop offset="0.7" stop-color="#2E2E2E"/>
<stop offset="1" stop-color="#737373"/>
</linearGradient>
<linearGradient id="paint11_linear_151_27294" x1="474.122" y1="41.752" x2="480.546" y2="243.56" gradientUnits="userSpaceOnUse">
<stop offset="0.3"/>
<stop offset="1" stop-color="#121212"/>
</linearGradient>
<linearGradient id="paint12_linear_151_27294" x1="474.26" y1="-115.655" x2="479.925" y2="237.059" gradientUnits="userSpaceOnUse">
<stop offset="0.3"/>
<stop offset="0.34" stop-color="#020202"/>
<stop offset="1" stop-color="#21212B"/>
</linearGradient>
<linearGradient id="paint13_linear_151_27294" x1="470.107" y1="277.174" x2="485.117" y2="84.5901" gradientUnits="userSpaceOnUse">
<stop offset="0.22" stop-color="#65C6FF"/>
<stop offset="0.23" stop-color="#5EBAEF"/>
<stop offset="0.27" stop-color="#488FB8"/>
<stop offset="0.31" stop-color="#356886"/>
<stop offset="0.36" stop-color="#25485D"/>
<stop offset="0.4" stop-color="#172E3B"/>
<stop offset="0.44" stop-color="#0D1921"/>
<stop offset="0.49" stop-color="#050B0E"/>
<stop offset="0.53" stop-color="#010203"/>
<stop offset="0.58"/>
<stop offset="0.7" stop-color="#020202"/>
<stop offset="0.75" stop-color="#090909"/>
<stop offset="0.8" stop-color="#171717"/>
<stop offset="0.84" stop-color="#2A2A2A"/>
<stop offset="0.87" stop-color="#424242"/>
<stop offset="0.9" stop-color="#606060"/>
<stop offset="0.93" stop-color="#848484"/>
<stop offset="0.96" stop-color="#AEAEAE"/>
<stop offset="0.98" stop-color="#DCDCDC"/>
<stop offset="1" stop-color="white"/>
</linearGradient>
<linearGradient id="paint14_linear_151_27294" x1="473.743" y1="66.0379" x2="481.24" y2="258.774" gradientUnits="userSpaceOnUse">
<stop offset="0.164479" stop-color="#F05A23"/>
<stop offset="0.269784" stop-color="#E0460E"/>
<stop offset="0.376751" stop-color="#622B16"/>
<stop offset="0.556859" stop-color="#170904"/>
<stop offset="0.732075"/>
</linearGradient>
</defs>
</svg>
