<svg width="134" height="25" viewBox="0 0 134 25" fill="none" xmlns="http://www.w3.org/2000/svg">
<g id="Gramedia Logo" clip-path="url(#clip0_2399_3144)">
<path id="Union" fill-rule="evenodd" clip-rule="evenodd" d="M110.607 0V19.1433C110.607 21.0068 110.67 22.9832 110.733 24.0965H106.417L106.19 21.6521H106.128C105.133 23.5156 103.253 24.4676 101.241 24.4676C97.5363 24.4676 94.5603 21.1036 94.5603 15.9487C94.529 10.3501 97.8183 7.12327 101.562 7.12327C103.481 7.12327 104.984 7.83317 105.681 8.98677H105.744V0H110.6H110.607ZM105.752 14.5289C105.752 14.2546 105.72 13.8835 105.689 13.6092C105.399 12.2136 104.35 11.06 102.846 11.06C100.638 11.06 99.4942 13.1655 99.4942 15.7793C99.4942 18.5947 100.802 20.3614 102.815 20.3614C104.225 20.3614 105.337 19.3449 105.626 17.8848C105.72 17.5137 105.752 17.1346 105.752 16.6989V14.5289ZM115.721 5.4695C117.319 5.4695 118.345 4.31591 118.345 2.88803H118.337C118.306 1.39561 117.319 0.274279 115.753 0.274279C114.186 0.274279 113.168 1.39561 113.2 2.88803C113.168 4.31591 114.124 5.4695 115.721 5.4695ZM113.325 7.50242V24.1045H118.181V7.50242H113.325ZM129.333 22.4427L129.623 24.1045V24.1207H134.001C133.836 23.201 133.773 21.6763 133.773 20.079V14.3111C133.773 10.4066 132.113 7.14746 126.905 7.14746C124.785 7.14746 122.591 8.49848 121.36 9.25698C121.199 9.3559 121.055 9.44474 120.93 9.51919L122.566 12.3991C123.584 11.7134 125.198 10.6728 126.498 10.6728C128.887 10.6728 128.887 11.9231 128.886 12.802V12.8106V13.0445C123.357 13.0123 119.716 15.0855 119.716 19.3933C119.716 22.0394 121.603 24.4837 124.767 24.4837C126.615 24.4837 128.213 23.7657 129.239 22.4427H129.333ZM124.516 18.877C124.516 16.8764 126.498 16.231 129.051 16.2633V18.0623C129.051 18.3608 129.02 18.6673 128.957 18.9416C128.644 19.9984 127.649 20.8454 126.435 20.8454C125.347 20.8454 124.516 20.2001 124.516 18.877ZM82.1477 17.4572C82.3246 19.5903 84.4134 20.9261 86.8147 20.9261C88.4388 20.9261 89.2712 20.3984 90.6671 19.5137C90.7857 19.4385 90.9084 19.3607 91.036 19.2804L92.9939 22.1039C90.527 23.9029 88.3028 24.4434 86.0707 24.4434C80.4554 24.4434 77.2444 21.1842 77.2444 15.989C77.2444 11.778 79.8524 7.13133 85.6008 7.13133C90.942 7.13133 92.9704 11.3101 92.9704 15.4163C92.9704 16.2956 92.8686 17.0781 92.7981 17.4572H82.1477ZM85.2954 10.5518C87.6606 10.5518 88.201 12.6573 88.201 13.9158H82.1157C82.2489 12.5202 83.1339 10.5518 85.2954 10.5518ZM51.2903 12.8025C51.2903 10.7293 51.2276 8.96257 51.165 7.50242H55.2531L55.4802 9.74508H55.5742C56.2477 8.69635 57.6183 7.13133 60.3045 7.13133C62.3173 7.13133 63.9149 8.22039 64.5884 9.94675H64.6511C65.2228 9.09971 65.9277 8.42207 66.6638 7.94611C67.5253 7.40561 68.4886 7.13133 69.632 7.13133C72.6394 7.13133 74.9028 9.37399 74.9028 14.3272V24.1045H70.1724V15.0774C70.1724 12.6654 69.4363 11.2778 67.8699 11.2778C66.75 11.2778 65.9512 12.0926 65.6301 13.0768C65.5048 13.4479 65.4421 13.9964 65.4421 14.3998V24.1126H60.7118V14.8112C60.7118 12.7057 60.0069 11.2778 58.4719 11.2778C57.2267 11.2778 56.4905 12.2943 56.2007 13.1413C56.0441 13.5528 56.0128 14.0206 56.0128 14.4321V24.1045H51.2824V12.8025H51.2903ZM43.6465 22.4427L43.9363 24.1045V24.1207H48.3142C48.1498 23.201 48.0871 21.6763 48.0871 20.079V14.3111C48.0871 10.4066 46.4268 7.14746 41.2187 7.14746C39.0987 7.14746 36.9051 8.49848 35.6736 9.25698L35.6735 9.25702L35.673 9.25737C35.5126 9.35613 35.3686 9.44483 35.2432 9.51919L36.88 12.3991C37.8981 11.7134 39.5114 10.6728 40.8115 10.6728C43.2002 10.6728 43.2002 11.9231 43.2001 12.802V12.8106V13.0445C37.671 13.0123 34.0292 15.0855 34.0292 19.3933C34.0292 22.0394 35.9167 24.4837 39.0807 24.4837C40.929 24.4837 42.5266 23.7657 43.5526 22.4427H43.6465ZM38.8301 18.877C38.8301 16.8764 40.8115 16.231 43.3646 16.2633V18.0623C43.3646 18.3608 43.3333 18.6673 43.2706 18.9416C42.9574 19.9984 41.9627 20.8454 40.7488 20.8454C39.6602 20.8454 38.8301 20.2001 38.8301 18.877ZM23.9029 12.9719C23.9029 10.5276 23.8402 8.9303 23.7776 7.50242H27.9675L28.1241 10.5599H28.2494C29.0483 8.14779 30.967 7.13133 32.4707 7.13133C32.9171 7.13133 33.1442 7.13133 33.4967 7.19587V12.0523C33.1442 11.9877 32.7292 11.9151 32.1888 11.9151C30.4032 11.9151 29.1814 12.9316 28.8681 14.5289C28.8055 14.8677 28.7742 15.2791 28.7742 15.6825V24.1045H23.9185V12.9719H23.9029ZM12.3825 25C16.2905 25 20.1437 21.3779 21.2009 19.5224V10.7696H11.9126V15.4647L16.3766 15.4082V17.7396C15.7814 18.9819 13.6512 20.0952 11.5836 20.0952C8.28651 20.0952 5.08335 18.2075 5.08335 13.1252C5.08335 8.04293 8.51363 5.48565 11.5132 5.48565C14.1603 5.48565 15.1862 6.24396 16.2827 7.37336L19.6503 4.35626C17.1206 1.74251 14.5284 0.919663 11.4192 0.919663C4.98937 0.919663 0.0397537 5.50985 0.000595273 13.3108C-0.0307314 16.7554 1.17535 19.8129 3.39171 21.8377C5.60024 23.919 7.98891 25 12.3825 25Z" fill="#1373E3"/>
</g>
<defs>
<clipPath id="clip0_2399_3144">
<rect width="134" height="25" fill="white"/>
</clipPath>
</defs>
</svg>
