<svg width="110" height="34" viewBox="0 0 110 34" fill="none" xmlns="http://www.w3.org/2000/svg">
<g clip-path="url(#clip0_1257_6495)">
<path d="M109.299 29.9659C109.299 30.3812 109.218 30.7924 109.061 31.1761C108.904 31.5597 108.674 31.9083 108.383 32.2018C108.093 32.4953 107.748 32.728 107.369 32.8867C106.99 33.0453 106.583 33.1267 106.173 33.1263H3.85618C3.0269 33.1271 2.23123 32.7947 1.64416 32.202C1.05708 31.6094 0.726667 30.805 0.725586 29.9659V4.76311C0.726666 3.92361 1.05695 3.11884 1.64391 2.52553C2.23087 1.93222 3.02653 1.59885 3.85618 1.59863H106.172C106.583 1.59863 106.989 1.68049 107.369 1.83953C107.748 1.99857 108.093 2.23168 108.383 2.52554C108.673 2.8194 108.904 3.16825 109.061 3.55218C109.218 3.93611 109.299 4.34759 109.298 4.76311L109.299 29.9659Z" fill="white"/>
<path d="M106.173 33.863H3.85637C2.83479 33.8628 1.85502 33.4525 1.13205 32.7221C0.409071 31.9918 0.00194378 31.0011 0 29.9674L0 4.76542C0.00151128 3.7312 0.40837 2.73981 1.13132 2.00873C1.85427 1.27766 2.83429 0.866596 3.85637 0.865723L106.172 0.865723C107.194 0.867031 108.174 1.27823 108.897 2.00921C109.62 2.74019 110.027 3.73133 110.028 4.76542V29.9674C110.03 32.1161 108.297 33.863 106.173 33.863Z" fill="#A6A6A6"/>
<path d="M109.299 29.9659C109.299 30.3812 109.218 30.7924 109.061 31.1761C108.904 31.5597 108.674 31.9083 108.383 32.2018C108.093 32.4953 107.748 32.728 107.369 32.8867C106.99 33.0453 106.583 33.1267 106.173 33.1263H3.85618C3.0269 33.1271 2.23123 32.7947 1.64416 32.202C1.05708 31.6094 0.726667 30.805 0.725586 29.9659V4.76311C0.726666 3.92361 1.05695 3.11884 1.64391 2.52553C2.23087 1.93222 3.02653 1.59885 3.85618 1.59863H106.172C106.583 1.59863 106.989 1.68049 107.369 1.83953C107.748 1.99857 108.093 2.23168 108.383 2.52554C108.673 2.8194 108.904 3.16825 109.061 3.55218C109.218 3.93611 109.299 4.34759 109.298 4.76311L109.299 29.9659Z" fill="black"/>
<path d="M24.5687 17.1893C24.5451 14.5298 26.7208 13.236 26.8203 13.1757C25.5881 11.3579 23.6782 11.1095 23.0071 11.0897C21.4031 10.9189 19.8472 12.0609 19.0301 12.0609C18.1966 12.0609 16.9384 11.1062 15.5822 11.1343C13.8371 11.1615 12.2046 12.1839 11.3092 13.7715C9.46131 17.0086 10.8395 21.7656 12.6098 24.3822C13.4954 25.6645 14.5303 27.0945 15.8848 27.0442C17.2099 26.9897 17.7049 26.1901 19.3041 26.1901C20.8885 26.1901 21.3533 27.0442 22.7347 27.012C24.1569 26.9897 25.0523 25.7247 25.9069 24.4317C26.9303 22.9638 27.3413 21.5164 27.3577 21.4422C27.325 21.4306 24.5965 20.3761 24.5687 17.1893ZM21.9592 9.36846C22.6719 8.46656 23.1596 7.23955 23.0242 5.99438C21.9927 6.04059 20.7026 6.7164 19.9597 7.59849C19.3024 8.37579 18.7153 9.64984 18.867 10.848C20.0257 10.9354 21.2155 10.2563 21.9592 9.36846Z" fill="white"/>
<path d="M106.173 0.864258H51.3691L72.8348 33.8615H106.173C107.195 33.8607 108.174 33.4498 108.897 32.7191C109.62 31.9884 110.027 30.9974 110.029 29.9635V4.76396C110.028 3.7298 109.621 2.73854 108.898 2.00751C108.175 1.27648 107.195 0.865349 106.173 0.864258V0.864258Z" fill="url(#paint0_linear_1257_6495)"/>
<path d="M43.7624 26.8601H41.9105L40.896 23.6345H37.3699L36.4036 26.8601H34.6006L38.0949 15.8789H40.2526L43.7624 26.8601ZM40.5902 22.2813L39.6728 19.4138C39.5758 19.1209 39.3931 18.4311 39.1256 17.3452H39.093C38.9854 17.8122 38.8133 18.502 38.5776 19.4138L37.6757 22.2813H40.5902ZM52.731 22.8036C52.731 24.1503 52.3697 25.2147 51.6464 25.9961C50.9989 26.6917 50.194 27.0391 49.2342 27.0391C48.1978 27.0391 47.4524 26.6653 46.9998 25.9161V30.0708H45.2613V21.5444C45.2613 20.6986 45.2392 19.8314 45.1968 18.9419H46.7258L46.8229 20.1969H46.8555C47.4353 19.2513 48.3152 18.7785 49.496 18.7785C50.4191 18.7785 51.1897 19.1473 51.8062 19.8858C52.4219 20.626 52.731 21.598 52.731 22.8036ZM50.9598 22.868C50.9598 22.0973 50.7885 21.4619 50.4444 20.961C50.0685 20.4403 49.5637 20.1796 48.9309 20.1796C48.5019 20.1796 48.1121 20.3248 47.7639 20.6111C47.4149 20.9 47.1866 21.2771 47.0798 21.7441C47.0321 21.9188 47.005 22.0985 46.999 22.2796V23.6007C46.999 24.1758 47.1735 24.6619 47.5226 25.0596C47.8716 25.4557 48.325 25.6545 48.8828 25.6545C49.5376 25.6545 50.0473 25.3979 50.4118 24.8888C50.7771 24.378 50.9598 23.7047 50.9598 22.868ZM61.7313 22.8036C61.7313 24.1503 61.3701 25.2147 60.6468 25.9961C59.9985 26.6917 59.1944 27.0391 58.2338 27.0391C57.1973 27.0391 56.452 26.6653 55.9994 25.9161V30.0708H54.2608V21.5444C54.2608 20.6986 54.2388 19.8314 54.1964 18.9419H55.7254L55.8224 20.1969H55.8551C56.434 19.2513 57.3139 18.7785 58.4956 18.7785C59.4179 18.7785 60.1885 19.1473 60.8066 19.8858C61.4215 20.626 61.7313 21.598 61.7313 22.8036ZM59.9593 22.868C59.9593 22.0973 59.7873 21.4619 59.4431 20.961C59.0672 20.4403 58.5641 20.1796 57.9312 20.1796C57.5023 20.1796 57.1125 20.3248 56.7627 20.6111C56.4137 20.9 56.1861 21.2771 56.0793 21.7441C56.0263 21.9619 55.9978 22.1393 55.9978 22.2796V23.6007C55.9978 24.1758 56.1731 24.6619 56.5205 25.0596C56.8695 25.4548 57.3229 25.6545 57.8823 25.6545C58.538 25.6545 59.0476 25.3979 59.4113 24.8888C59.7767 24.378 59.9593 23.7047 59.9593 22.868ZM71.7943 23.7798C71.7943 24.7147 71.4713 25.4746 70.8296 26.0613C70.1234 26.7016 69.1375 27.0226 67.8735 27.0226C66.7057 27.0226 65.7696 26.7949 65.0634 26.3386L65.4654 24.8723C66.2279 25.3294 67.0653 25.5571 67.977 25.5571C68.6327 25.5571 69.1424 25.407 69.5061 25.1091C69.8706 24.8104 70.0549 24.411 70.0549 23.9126C70.0549 23.4662 69.9024 23.0924 69.6031 22.7879C69.3022 22.4843 68.8047 22.2012 68.1059 21.9413C66.2058 21.2242 65.255 20.1755 65.255 18.7958C65.255 17.8947 65.591 17.157 66.2613 16.5802C66.9316 16.0043 67.8205 15.7163 68.9263 15.7163C69.9138 15.7163 70.7366 15.8904 71.3898 16.2378L70.9535 17.6719C70.3387 17.3353 69.6447 17.1669 68.8684 17.1669C68.2551 17.1669 67.774 17.3196 67.4299 17.6232C67.1404 17.8947 66.9936 18.2256 66.9936 18.6184C66.9936 19.0516 67.1608 19.4114 67.4935 19.6936C67.7821 19.9535 68.3089 20.2365 69.0706 20.5402C70.0051 20.9214 70.6917 21.3653 71.1313 21.8753C71.5741 22.3852 71.7943 23.0214 71.7943 23.7798ZM77.5572 20.2621H75.6409V24.1065C75.6409 25.0843 75.9785 25.572 76.6553 25.572C76.966 25.572 77.2237 25.5456 77.4275 25.4903L77.4757 26.8262C77.1332 26.9558 76.6822 27.021 76.1236 27.021C75.437 27.021 74.9004 26.8089 74.5131 26.3848C74.1273 25.9607 73.9333 25.2502 73.9333 24.2501V20.2588H72.7916V18.9386H73.9333V17.4887L75.6409 16.9672V18.9386H77.5572V20.2621ZM86.1865 22.8358C86.1865 24.0529 85.8424 25.0522 85.1558 25.8336C84.4374 26.6381 83.4816 27.0391 82.2902 27.0391C81.1404 27.0391 80.2262 26.6538 79.5445 25.8839C78.8628 25.1124 78.5219 24.1404 78.5219 22.9678C78.5219 21.7408 78.8742 20.7357 79.5763 19.9543C80.2801 19.1721 81.2276 18.7809 82.4191 18.7809C83.5672 18.7809 84.4895 19.1671 85.1876 19.9378C85.8546 20.6854 86.1865 21.6509 86.1865 22.8358ZM84.3843 22.8762C84.3843 22.1509 84.2294 21.5287 83.9187 21.0081C83.5542 20.3793 83.0323 20.0649 82.3563 20.0649C81.6598 20.0649 81.1257 20.3793 80.762 21.0081C80.4505 21.5287 80.2956 22.1616 80.2956 22.9092C80.2956 23.6354 80.4505 24.2592 80.762 24.7782C81.138 25.407 81.6623 25.7214 82.3416 25.7214C83.0062 25.7214 83.5273 25.4004 83.904 24.7625C84.2237 24.2295 84.3843 23.6032 84.3843 22.8762ZM91.8402 20.489C91.6594 20.456 91.476 20.4397 91.2922 20.4403C90.6806 20.4403 90.2076 20.673 89.8749 21.1417C89.5862 21.5543 89.4411 22.0758 89.4411 22.7054V26.8601H87.7025V21.4355C87.704 20.6043 87.6872 19.7731 87.6519 18.9427H89.1663L89.2299 20.4577H89.278C89.4623 19.937 89.751 19.517 90.1473 19.2026C90.51 18.9279 90.9508 18.7791 91.4039 18.7785C91.5646 18.7785 91.7097 18.79 91.8386 18.8107L91.8402 20.489ZM99.6157 22.5263C99.6201 22.7938 99.5988 23.061 99.5521 23.3243H94.3364C94.3559 24.1065 94.6087 24.7056 95.0931 25.1182C95.5327 25.4862 96.101 25.671 96.7991 25.671C97.5713 25.671 98.2759 25.5472 98.9095 25.2972L99.1819 26.5176C98.4415 26.8444 97.5673 27.007 96.5585 27.007C95.3451 27.007 94.3926 26.6455 93.6995 25.9243C93.008 25.2023 92.6614 24.2319 92.6614 23.0165C92.6614 21.8233 92.9835 20.829 93.6285 20.036C94.3037 19.1894 95.2163 18.7661 96.3644 18.7661C97.4922 18.7661 98.346 19.1894 98.9258 20.036C99.3849 20.7069 99.6157 21.5386 99.6157 22.5263ZM97.9579 22.07C97.9701 21.5477 97.8559 21.098 97.6203 20.7176C97.3194 20.2275 96.8562 19.9832 96.2356 19.9832C95.6672 19.9832 95.204 20.2217 94.8517 20.7003C94.5623 21.0807 94.3902 21.5378 94.3372 22.0684L97.9579 22.07Z" fill="white"/>
<path d="M36.8683 11.9964C36.3847 11.9964 35.9664 11.9725 35.6182 11.9321V6.623C36.1052 6.54688 36.5973 6.50936 37.0901 6.51078C39.0839 6.51078 40.0021 7.50345 40.0021 9.12158C40.0021 10.9881 38.9176 11.9964 36.8683 11.9964ZM37.1602 7.19154C36.8911 7.19154 36.662 7.20804 36.472 7.24765V11.2835C36.5747 11.3 36.7721 11.3074 37.0493 11.3074C38.3557 11.3074 39.0994 10.5549 39.0994 9.14551C39.0994 7.8888 38.4266 7.19154 37.1602 7.19154ZM42.8636 12.0369C41.7399 12.0369 41.0117 11.1878 41.0117 10.035C41.0117 8.8336 41.7554 7.97709 42.9272 7.97709C44.0347 7.97709 44.7792 8.78574 44.7792 9.9715C44.7792 11.1878 44.0118 12.0369 42.8636 12.0369ZM42.8963 8.60916C42.2789 8.60916 41.8834 9.19337 41.8834 10.0103C41.8834 10.8115 42.2871 11.3957 42.8881 11.3957C43.4891 11.3957 43.8928 10.7711 43.8928 9.99377C43.8928 9.20162 43.4973 8.60916 42.8963 8.60916ZM51.1872 8.05713L49.9843 11.9486H49.2007L48.7024 10.2587C48.5785 9.84528 48.4754 9.42584 48.3934 9.00193H48.377C48.3143 9.42607 48.1952 9.85102 48.0688 10.2587L47.5387 11.9486H46.7469L45.615 8.05713H46.4933L46.9288 9.90713C47.0315 10.3478 47.118 10.7636 47.1897 11.1564H47.206C47.2688 10.8288 47.3716 10.4196 47.5224 9.91538L48.0688 8.05795H48.7652L49.2879 9.87578C49.4143 10.3164 49.5171 10.7488 49.597 11.1572H49.6198C49.6753 10.757 49.7625 10.3321 49.8808 9.87578L50.348 8.05795L51.1872 8.05713ZM55.6152 11.9486H54.7606V9.71405C54.7606 9.02586 54.4996 8.68095 53.985 8.68095C53.4786 8.68095 53.1304 9.12158 53.1304 9.63401V11.9486H52.2758V9.16944C52.2758 8.82535 52.2677 8.4565 52.244 8.0563H52.9959L53.0358 8.65702H53.0595C53.2894 8.24114 53.7559 7.97709 54.2786 7.97709C55.0859 7.97709 55.616 8.60173 55.616 9.61833L55.6152 11.9486ZM57.9719 11.9486H57.1165V6.27148H57.9719V11.9486ZM61.0878 12.0369C59.9649 12.0369 59.2359 11.1878 59.2359 10.035C59.2359 8.8336 59.9796 7.97709 61.1506 7.97709C62.2588 7.97709 63.0025 8.78574 63.0025 9.9715C63.0034 11.1878 62.2352 12.0369 61.0878 12.0369ZM61.1196 8.60916C60.5023 8.60916 60.1068 9.19337 60.1068 10.0103C60.1068 10.8115 60.5113 11.3957 61.1106 11.3957C61.7125 11.3957 62.1153 10.7711 62.1153 9.99377C62.1161 9.20162 61.7214 8.60916 61.1196 8.60916ZM66.3721 11.9486L66.3101 11.5005H66.2873C66.0263 11.8611 65.6455 12.0369 65.1627 12.0369C64.4736 12.0369 63.9844 11.5484 63.9844 10.8915C63.9844 9.93106 64.8072 9.43432 66.2318 9.43432V9.36253C66.2318 8.8501 65.9635 8.59348 65.4335 8.59348C65.0543 8.59348 64.7216 8.69002 64.4288 8.88229L64.2551 8.31375C64.6106 8.08931 65.0543 7.97709 65.5754 7.97709C66.58 7.97709 67.0872 8.51344 67.0872 9.58697V11.0203C67.0872 11.413 67.1044 11.7175 67.1427 11.9494L66.3721 11.9486ZM66.2546 10.0103C65.3054 10.0103 64.8292 10.243 64.8292 10.795C64.8292 11.2035 65.0747 11.4031 65.4155 11.4031C65.8502 11.4031 66.2546 11.0673 66.2546 10.611V10.0103ZM71.2372 11.9486L71.1972 11.3239H71.1736C70.9281 11.7959 70.5155 12.0369 69.9389 12.0369C69.0118 12.0369 68.3251 11.2117 68.3251 10.0507C68.3251 8.8336 69.037 7.97626 70.0091 7.97626C70.5236 7.97626 70.8882 8.15202 71.0937 8.50519H71.1108V6.27148H71.9662V10.8998C71.9662 11.2761 71.9752 11.6284 71.998 11.9486H71.2372ZM71.1108 9.65876C71.1108 9.11416 70.7544 8.64959 70.2105 8.64959C69.5769 8.64959 69.1895 9.21813 69.1895 10.0185C69.1895 10.8033 69.5916 11.3404 70.1934 11.3404C70.7308 11.3404 71.1108 10.8676 71.1108 10.3073V9.65876ZM77.3899 12.0369C76.267 12.0369 75.5388 11.1878 75.5388 10.035C75.5388 8.8336 76.2825 7.97709 77.4535 7.97709C78.5618 7.97709 79.3055 8.78574 79.3055 9.9715C79.3063 11.1878 78.5389 12.0369 77.3899 12.0369ZM77.4217 8.60916C76.8052 8.60916 76.4097 9.19337 76.4097 10.0103C76.4097 10.8115 76.8134 11.3957 77.4136 11.3957C78.0154 11.3957 78.4182 10.7711 78.4182 9.99377C78.4199 9.20162 78.0244 8.60916 77.4217 8.60916ZM83.9015 11.9486H83.046V9.71405C83.046 9.02586 82.7851 8.68095 82.2705 8.68095C81.7641 8.68095 81.4167 9.12158 81.4167 9.63401V11.9486H80.5613V9.16944C80.5613 8.82535 80.5531 8.4565 80.5295 8.0563H81.2814L81.3213 8.65702H81.345C81.5741 8.24114 82.0414 7.97626 82.5633 7.97626C83.3706 7.97626 83.9015 8.60091 83.9015 9.6175V11.9486ZM89.6514 8.7057H88.7111V10.5953C88.7111 11.0764 88.8758 11.3165 89.2086 11.3165C89.3594 11.3165 89.4858 11.3 89.5878 11.2761L89.6114 11.9329C89.4459 11.9973 89.224 12.0294 88.9484 12.0294C88.2748 12.0294 87.872 11.6532 87.872 10.6679V8.7057H87.311V8.05713H87.872V7.34419L88.7111 7.08757V8.0563H89.6514V8.7057ZM94.1756 11.9486H93.3218V9.73055C93.3218 9.03412 93.0617 8.68177 92.5463 8.68177C92.1035 8.68177 91.6909 8.98626 91.6909 9.60265V11.9486H90.8371V6.27148H91.6909V8.60916H91.708C91.9771 8.18503 92.3669 7.97626 92.8643 7.97626C93.6782 7.97626 94.1756 8.61659 94.1756 9.63401V11.9486ZM98.8107 10.2108H96.2461C96.2624 10.9477 96.7443 11.3635 97.4579 11.3635C97.8371 11.3635 98.1861 11.2992 98.4943 11.1795L98.6273 11.7802C98.2636 11.9403 97.8354 12.0204 97.3372 12.0204C96.1344 12.0204 95.4225 11.2513 95.4225 10.059C95.4225 8.86578 96.1515 7.96884 97.241 7.96884C98.2236 7.96884 98.8401 8.7057 98.8401 9.81884C98.8456 9.95021 98.8358 10.0818 98.8107 10.2108ZM98.0271 9.5944C98.0271 8.99368 97.7278 8.56955 97.1814 8.56955C96.6905 8.56955 96.3023 9.00193 96.2469 9.5944H98.0271Z" fill="white"/>
</g>
<defs>
<linearGradient id="paint0_linear_1257_6495" x1="80.6983" y1="33.9491" x2="80.6983" y2="-85.055" gradientUnits="userSpaceOnUse">
<stop stop-color="#1A1A1A" stop-opacity="0.1"/>
<stop offset="0.123" stop-color="#212121" stop-opacity="0.151"/>
<stop offset="0.308" stop-color="#353535" stop-opacity="0.227"/>
<stop offset="0.532" stop-color="#575757" stop-opacity="0.318"/>
<stop offset="0.783" stop-color="#858585" stop-opacity="0.421"/>
<stop offset="1" stop-color="#B3B3B3" stop-opacity="0.51"/>
</linearGradient>
<clipPath id="clip0_1257_6495">
<rect width="110" height="33" fill="white" transform="translate(0 0.863281)"/>
</clipPath>
</defs>
</svg>
