<svg width="83" height="19" viewBox="0 0 83 19" fill="none" xmlns="http://www.w3.org/2000/svg">
<path d="M71.4854 9.42878C72.1948 8.85851 72.8832 8.30556 73.594 7.73422C74.2536 8.2094 74.42 8.899 74.4918 9.67809C75.3008 9.02232 76.0826 8.38866 76.8875 7.73635C77.4646 8.39478 78.2363 8.8689 78.6206 9.73243C79.4449 9.06414 80.2523 8.40917 81.0895 7.73022C81.521 8.1801 81.9681 8.59482 82.3516 9.05908C82.8023 9.60511 82.9964 10.2548 82.9942 10.9603C82.9892 12.4919 82.975 14.0234 82.9994 15.5547C83.0136 16.4478 82.6633 17.1521 81.9843 17.7215C81.5311 18.1019 81.0286 18.4045 80.4178 18.625C80.4178 18.4785 80.4178 18.3746 80.4178 18.2707C80.4178 15.8437 80.4156 13.4167 80.4203 10.9896C80.4209 10.6482 80.3737 10.3368 80.0244 10.1693C79.636 9.98307 79.2514 10.051 78.8871 10.2428C78.8344 10.2705 78.7969 10.3719 78.7966 10.4396C78.7919 12.2665 78.7914 14.0935 78.7947 15.9207C78.7952 16.2739 78.9619 16.5562 79.2656 16.7981C78.6294 17.3207 78.0068 17.8323 77.3618 18.3621C77.2617 18.2734 77.1616 18.1983 77.0783 18.1083C76.5256 17.5108 76.2452 16.8103 76.2435 16.0049C76.2403 14.3572 76.2326 12.7095 76.232 11.0615C76.232 10.6884 76.2063 10.332 75.7962 10.1554C75.357 9.96629 74.9477 10.08 74.5647 10.3131C74.5118 10.3453 74.4776 10.4457 74.4773 10.5147C74.4729 12.3595 74.4622 14.2048 74.4888 16.0493C74.4924 16.296 74.6897 16.5402 74.8202 16.8378C74.2355 17.3055 73.5847 17.8257 72.8892 18.3818C72.6973 18.1613 72.4939 17.9682 72.3407 17.7431C71.9804 17.2146 71.8209 16.6201 71.8195 15.9886C71.8154 14.1526 71.8127 12.3166 71.819 10.4809C71.8198 10.1016 71.7578 9.75107 71.4854 9.42878Z" fill="url(#paint0_linear_1079_24647)"/>
<path d="M29.8671 7.73022C30.3924 8.09489 30.5815 8.52074 30.7559 9.72994C31.1644 9.38964 31.5559 9.0639 31.9468 8.73763C32.3417 8.40819 32.7358 8.07794 33.1467 7.7342C33.8759 8.47519 34.7196 9.12004 34.9353 10.2217C34.9846 10.4731 35.0109 10.7331 35.012 10.9892C35.0191 12.4937 34.9951 13.9987 35.0231 15.5027C35.0399 16.4195 34.7043 17.1433 34.0255 17.7283C33.5858 18.1073 33.0959 18.3994 32.52 18.625C32.52 18.4931 32.52 18.3901 32.52 18.2873C32.52 15.8658 32.52 13.4444 32.52 11.0228C32.52 10.236 32.0253 9.87878 31.274 10.1243C31.1903 10.1516 31.111 10.1923 31.0288 10.2244C30.797 10.3147 30.7135 10.4672 30.7156 10.7313C30.7295 12.3782 30.7287 14.0252 30.7185 15.6722C30.7158 16.0991 30.7443 16.4955 31.1568 16.7611C30.4938 17.3067 29.8581 17.8295 29.2133 18.3599C28.5534 17.817 28.2254 17.1107 28.1751 16.2913C28.1272 15.5106 28.144 14.7257 28.1411 13.9423C28.1367 12.785 28.1343 11.6277 28.1435 10.4704C28.1467 10.0941 28.0935 9.74451 27.8271 9.41851C28.5139 8.85018 29.1927 8.28822 29.8671 7.73022Z" fill="white"/>
<path d="M70.0441 12.9439C70.0441 13.5983 70.0364 14.2529 70.0461 14.9073C70.0596 15.8492 69.6761 16.6113 68.9463 17.2201C67.431 18.4846 64.8893 18.4576 63.4041 17.1617C62.7197 16.5646 62.3652 15.8265 62.3702 14.9281C62.3771 13.6729 62.3718 12.4177 62.3718 11.1626C62.3718 9.64151 63.1182 8.55353 64.6075 8.03727C66.292 7.45328 67.8516 7.68261 69.1803 8.89512C69.7659 9.42951 70.0433 10.1164 70.0438 10.8994C70.0447 11.5812 70.0441 12.2625 70.0441 12.9439ZM64.9841 13.0367C64.9678 13.0367 64.9512 13.0367 64.9349 13.0367C64.9349 13.7092 64.9224 14.382 64.9385 15.054C64.9531 15.6556 65.0106 16.2553 65.2996 16.8054C65.4887 17.1657 65.7758 17.4049 66.2168 17.4014C66.6449 17.3982 66.9598 17.1771 67.1031 16.8118C67.2587 16.4147 67.4158 15.9907 67.4291 15.5745C67.4783 14.034 67.4808 12.4916 67.4744 10.9498C67.4719 10.3668 67.3826 9.78604 67.0995 9.25538C66.9117 8.90366 66.6526 8.63273 66.2008 8.63619C65.7622 8.63939 65.4788 8.89272 65.332 9.24872C65.176 9.62711 65.0223 10.0308 64.9993 10.4306C64.9498 11.297 64.9841 12.1676 64.9841 13.0367Z" fill="url(#paint1_linear_1079_24647)"/>
<path d="M61.3834 15.6957C61.4336 16.0024 61.4501 16.2692 61.1166 16.4851C60.7129 16.7468 60.3338 17.0479 59.9714 17.3602C58.659 18.4902 55.9876 18.4891 54.5551 16.8384C53.6273 15.7694 53.2803 14.5266 53.2564 13.1757C53.2368 12.0604 53.4015 10.9798 53.964 9.98138C55.1942 7.79794 57.4989 7.42148 59.1999 7.93319C60.6113 8.35784 61.4246 9.54155 61.2636 10.8704C61.1825 11.5397 60.6792 12.0264 60.0275 12.0692C59.5194 12.1028 59.0851 11.9673 58.8121 11.5384C58.5192 11.078 58.54 10.5919 58.8077 10.1323C58.9375 9.90923 59.1384 9.72233 59.3135 9.52398C59.5651 9.23857 59.5368 9.04874 59.2038 8.844C58.4039 8.35225 57.3019 8.594 56.8057 9.37595C56.5029 9.85332 56.3773 10.3871 56.3119 10.9313C56.1469 12.299 56.1321 13.6653 56.4527 15.0168C56.5262 15.3272 56.6471 15.6361 56.8 15.9193C57.2021 16.6637 57.8967 16.9603 58.8138 16.8293C59.6861 16.705 60.4421 16.3413 61.1362 15.8429C61.2035 15.7945 61.2717 15.7471 61.3402 15.7C61.3461 15.696 61.3567 15.6981 61.3834 15.6957Z" fill="url(#paint2_linear_1079_24647)"/>
<path d="M23.4837 7.73022C24.2211 8.795 25.21 8.79209 26.3253 8.50453C25.7783 9.00266 25.2498 9.52301 24.6776 9.99019C24.3272 10.2762 23.8845 10.3349 23.4322 10.2235C23.0214 10.1225 22.7429 9.86955 22.5778 9.48518C22.0581 9.88543 22.091 10.5928 22.6875 10.9872C23.2345 11.3491 23.832 11.6343 24.4002 11.9652C24.7907 12.1927 25.1997 12.4038 25.5461 12.688C26.0506 13.102 26.3795 13.6538 26.3872 14.3215C26.3912 14.6678 26.3375 15.0424 26.2022 15.358C25.6071 16.7444 24.5929 17.6859 23.1042 18.0615C21.9843 18.3438 21.0604 17.9549 20.4468 16.9724C20.0266 16.2997 20.0263 16.2995 20.6198 15.8061C21.1865 15.3349 21.7542 14.8651 22.339 14.3802C22.391 14.676 22.4186 14.9474 22.4884 15.2074C22.689 15.9553 23.2345 16.3905 23.897 16.3537C24.5215 16.319 24.8546 15.7273 24.5335 15.1894C24.4326 15.0204 24.2787 14.8588 24.1101 14.7585C23.5288 14.4135 22.9356 14.0879 22.3376 13.7723C21.6948 13.4329 21.1323 13.012 20.7722 12.3652C20.2066 11.3494 20.4019 10.3156 21.2937 9.56983C22.0183 8.96483 22.7395 8.35586 23.4837 7.73022Z" fill="white"/>
<path d="M47.8385 8.45206C47.3942 8.90948 46.9704 9.37749 46.511 9.80741C46.202 10.0964 45.8196 10.2733 45.3768 10.2662C44.8114 10.2572 44.3906 10.0181 44.1564 9.48827C43.7954 9.75638 43.6865 10.1509 43.9032 10.5478C44.0058 10.7355 44.1593 10.9251 44.338 11.0356C44.8728 11.3661 45.4212 11.6778 45.9832 11.9589C46.5047 12.2199 47.0045 12.4999 47.3825 12.9541C47.9553 13.6429 48.1512 14.4163 47.807 15.2643C47.2104 16.7341 46.1537 17.7092 44.5965 18.0781C43.4805 18.3422 42.5438 17.8827 41.9636 16.8462C41.6419 16.2717 41.6416 16.2714 42.1349 15.8602C42.6672 15.4163 43.1996 14.9729 43.733 14.5303C43.7914 14.4819 43.8567 14.4417 43.9183 14.3981C43.9828 14.7198 44.0161 15.0295 44.1086 15.3201C44.3285 16.0125 44.854 16.3898 45.4878 16.3475C46.0765 16.3081 46.4064 15.7635 46.1317 15.2407C46.0331 15.053 45.8708 14.8682 45.6911 14.7595C45.0993 14.402 44.4908 14.0713 43.8799 13.7466C43.0679 13.3148 42.4058 12.7452 42.1401 11.8301C41.8943 10.9835 42.105 10.2445 42.7735 9.66357C43.5239 9.01155 44.2907 8.37855 45.0588 7.73022C45.7849 8.7823 46.7648 8.80187 47.8385 8.45206Z" fill="white"/>
<path d="M39.8135 7.73031C39.8135 7.90819 39.8135 8.01112 39.8135 8.11432C39.8135 10.5716 39.8157 13.0289 39.8113 15.4864C39.8105 15.9213 39.8851 16.318 40.3008 16.6092C39.6548 17.1282 39.0287 17.6318 38.3822 18.1514C37.6562 17.534 37.2758 16.7769 37.2734 15.8544C37.269 14.2424 37.2698 12.6301 37.2736 11.0181C37.2744 10.667 37.2009 10.3442 36.9424 10.0437C37.8819 9.28657 38.8179 8.53255 39.8135 7.73031Z" fill="white"/>
<path d="M38.6214 3.94086C39.1705 4.48321 39.7503 5.05615 40.3008 5.60005C39.7558 6.13722 39.176 6.70886 38.6203 7.25666C38.0768 6.71975 37.4932 6.14292 36.9424 5.59902C37.4873 5.06081 38.0677 4.48787 38.6214 3.94086Z" fill="white"/>
<path d="M18.2382 7.73031C18.2382 7.88913 18.2382 7.98085 18.2382 8.07283C18.2371 10.6072 18.2371 13.1414 18.2333 15.6758C18.2328 16.0486 18.3666 16.3554 18.7109 16.6106C18.0678 17.1272 17.4374 17.6332 16.7924 18.1514C16.076 17.5477 15.6874 16.8041 15.6795 15.9035C15.6651 14.2664 15.6714 12.6289 15.6768 10.9917C15.6779 10.6477 15.6019 10.3368 15.3525 10.0492C16.2991 9.28874 17.2423 8.53064 18.2382 7.73031Z" fill="white"/>
<path d="M18.7109 5.59629C18.1547 6.14768 17.5756 6.72135 17.0352 7.25666C16.4913 6.72005 15.9055 6.14197 15.3525 5.59655C15.9061 5.05191 16.4934 4.47383 17.035 3.94086C17.5771 4.47642 18.1571 5.04932 18.7109 5.59629Z" fill="white"/>
<path d="M49.8652 17.027C49.8669 16.3665 50.3931 15.8501 51.0641 15.8503C51.7528 15.8506 52.2692 16.3668 52.264 17.0496C52.2589 17.7096 51.7273 18.2245 51.0566 18.2187C50.3969 18.2129 49.8636 17.6797 49.8652 17.027Z" fill="white"/>
<path d="M4.53246 14.8169C5.11401 14.2185 5.22731 13.4792 5.23278 12.7274C5.2492 10.4106 5.24154 8.09354 5.23579 5.77647C5.2336 4.94028 5.51357 4.23389 6.16627 3.67625C6.90026 3.04918 7.63233 2.41997 8.35838 1.78462C9.84906 0.479993 11.9136 1.11535 12.377 3.0214C12.6556 4.16765 12.3994 5.22818 11.8474 6.24063C11.3493 7.1548 10.6334 7.88015 9.77326 8.47624C9.73002 8.50616 9.68842 8.53847 9.62 8.58895C10.0852 8.65117 10.5182 8.69364 10.9443 8.77189C11.2314 8.82477 11.5165 8.90809 11.7886 9.01305C13.2423 9.57469 13.982 10.7872 13.9084 12.3263C13.7951 14.6941 12.4831 16.2458 10.4123 17.259C9.20347 17.8503 7.91093 18.2156 6.53299 18.1419C6.24372 18.1264 5.93256 18.085 5.67668 17.9641C4.18462 17.259 2.71419 17.4318 1.24211 18.0092C1.16576 18.0391 1.08858 18.0666 1.01141 18.0939C1.00484 18.0963 0.994713 18.0888 0.959683 18.0765C1.4085 17.4537 1.92246 16.9014 2.52125 16.4258C3.41889 15.713 4.41916 15.2346 5.59403 15.1583C6.50809 15.099 7.36249 15.3145 8.1846 15.6838C8.28312 15.7282 8.37972 15.7765 8.52094 15.8438C8.52094 15.7079 8.52094 15.6053 8.52094 15.5028C8.52094 12.3327 8.51902 9.16234 8.5234 5.99226C8.52395 5.61916 8.57157 5.24073 8.1025 5.04844C8.32089 4.84173 8.5026 4.66947 8.67803 4.50309C8.85427 4.67455 9.02805 4.84333 9.21141 5.02173C9.21251 5.01506 9.21579 5.03963 9.20594 5.0463C8.85126 5.2904 8.79215 5.63011 8.80747 6.03151C8.83539 6.76702 8.81541 7.50412 8.81541 8.24042C8.81541 8.33603 8.81541 8.43165 8.81541 8.52726C8.84661 8.54381 8.87753 8.56037 8.90873 8.5772C9.1159 8.33684 9.35399 8.11544 9.52394 7.85238C10.0007 7.11554 10.1162 6.27775 10.1575 5.42901C10.1895 4.76962 10.1208 4.11798 9.8923 3.49331C9.81321 3.27672 9.70511 3.05933 9.56308 2.87719C9.10824 2.29418 8.29844 2.31688 7.93255 2.95624C7.75274 3.27058 7.64547 3.66717 7.64136 4.02798C7.61509 6.3536 7.60113 8.68028 7.63397 11.0056C7.65641 12.5835 6.78723 13.9215 5.1983 14.5769C4.981 14.6663 4.75468 14.7374 4.53246 14.8169ZM8.84524 9.08195C8.83238 9.13911 8.81842 9.17276 8.81842 9.20641C8.81705 11.4223 8.81514 13.6384 8.81815 15.8542C8.81842 16.1088 9.11426 16.2685 9.34277 16.1416C9.88409 15.8417 10.2965 15.4133 10.6008 14.8885C11.1334 13.9698 11.2987 12.9702 11.2379 11.931C11.1969 11.2292 10.9955 10.5706 10.5538 10.0028C10.1274 9.45531 9.55596 9.1546 8.84524 9.08195Z" fill="white"/>
<path d="M4.79733 4.88819C4.59382 5.49395 4.57614 6.1059 4.57695 6.72146C4.57995 8.53204 4.55356 10.3431 4.58512 12.1532C4.61477 13.8388 3.74116 14.9235 2.18492 15.5981C2.02739 15.6664 1.86388 15.7218 1.70227 15.7813C1.68812 15.7865 1.66826 15.7782 1.62119 15.7728C2.2124 15.263 2.23335 14.5977 2.23362 13.9269C2.23417 13.0954 2.23362 12.2635 2.23362 11.432C2.23362 11.3376 2.23362 11.2435 2.23362 11.1538C1.64106 11.051 1.32763 11.3366 0.905652 12.3752C0.540263 11.3544 0.260848 10.3795 0.715203 9.36671C0.963058 8.81404 1.38613 8.56478 2.23362 8.42713C2.23362 8.22298 2.23661 8.01031 2.23308 7.79765C2.22519 7.33676 2.37156 6.91917 2.68417 6.5735C3.28898 5.9051 4.01976 5.37306 4.79733 4.88819Z" fill="white"/>
<path d="M0 3.26393C0.488388 2.04359 1.07265 0.930637 2.49426 0.657839C2.94128 0.571927 3.35818 0.659791 3.75179 0.860624C4.0468 1.01125 4.34865 1.16773 4.60257 1.37805C5.36021 2.00537 6.14854 1.97999 6.97493 1.56159C7.0404 1.52839 7.10586 1.4952 7.18283 1.45615C7.18804 1.4913 7.20283 1.5217 7.19351 1.5376C6.76703 2.25892 6.26467 2.91358 5.57825 3.40005C4.5634 4.11914 3.6814 4.1197 2.66353 3.40981C2.61806 3.37801 2.57342 3.34482 2.52932 3.31107C1.66128 2.6472 1.05594 2.61791 0.118057 3.19447C0.0791609 3.21818 0.0394435 3.24077 0 3.26393Z" fill="white"/>
<path d="M49.8652 17.0275C49.8669 16.3667 50.393 15.8501 51.0637 15.8503C51.7523 15.8506 52.2684 16.367 52.2633 17.0502C52.2582 17.7104 51.7267 18.2255 51.0562 18.2197C50.3967 18.2139 49.8636 17.6805 49.8652 17.0275Z" fill="url(#paint3_linear_1079_24647)"/>
<defs>
<linearGradient id="paint0_linear_1079_24647" x1="71.5354" y1="7.68638" x2="78.466" y2="21.0123" gradientUnits="userSpaceOnUse">
<stop stop-color="#C2570F"/>
<stop offset="0.515625" stop-color="#FFB546"/>
<stop offset="1" stop-color="#DE611A"/>
</linearGradient>
<linearGradient id="paint1_linear_1079_24647" x1="62.4035" y1="7.68828" x2="70.1656" y2="18.0904" gradientUnits="userSpaceOnUse">
<stop stop-color="#C2570F"/>
<stop offset="0.515625" stop-color="#FFAB2D"/>
<stop offset="1" stop-color="#DE611A"/>
</linearGradient>
<linearGradient id="paint2_linear_1079_24647" x1="53.2903" y1="7.68828" x2="60.907" y2="18.5333" gradientUnits="userSpaceOnUse">
<stop stop-color="#C2570F"/>
<stop offset="0.515625" stop-color="#FFAB2D"/>
<stop offset="1" stop-color="#DE611A"/>
</linearGradient>
<linearGradient id="paint3_linear_1079_24647" x1="49.8757" y1="15.8408" x2="51.4199" y2="18.6842" gradientUnits="userSpaceOnUse">
<stop stop-color="#C2570F"/>
<stop offset="0.515625" stop-color="#FFB546"/>
<stop offset="1" stop-color="#DE611A"/>
</linearGradient>
</defs>
</svg>
