<svg width="110" height="34" viewBox="0 0 110 34" fill="none" xmlns="http://www.w3.org/2000/svg">
<g clip-path="url(#clip0_1257_6486)">
<path d="M109.65 29.4033V29.4436C109.626 31.6673 107.644 33.5133 105.139 33.5133H4.86256C2.34172 33.5135 0.35 31.6451 0.35 29.4033V5.32282C0.35 3.0815 2.34168 1.21328 4.86256 1.21328H105.138C107.659 1.21328 109.65 3.08141 109.65 5.32282V29.4033Z" fill="black" stroke="#A6A6A6" stroke-width="0.7"/>
<path d="M11.0225 7.21655V29.5641L22.1615 18.3905L11.0225 7.21655Z" fill="url(#paint0_linear_1257_6486)"/>
<path d="M25.1532 15.389L20.6568 12.7628L11.0225 7.13525V7.21652L22.1615 18.3904L25.1532 15.389Z" fill="url(#paint1_linear_1257_6486)"/>
<path d="M11.0225 29.5641V29.6453L20.6568 24.0176L25.153 21.3913L22.1615 18.3904L11.0225 29.5641Z" fill="url(#paint2_linear_1257_6486)"/>
<path d="M25.1528 15.3892L22.1611 18.3905L25.1527 21.3915L30.2913 18.3903L25.1528 15.3892Z" fill="url(#paint3_linear_1257_6486)"/>
<path d="M81.1494 22.7589C80.731 22.7589 80.3493 22.6808 80.0036 22.5247C79.658 22.3685 79.3675 22.1283 79.1329 21.8044H79.0627C79.1095 22.1839 79.1329 22.5437 79.1329 22.8835V25.5579H78.1604V16.1412H78.9516L79.0861 17.0307H79.1329C79.3832 16.6747 79.6745 16.4181 80.0065 16.2599C80.3386 16.1017 80.7197 16.0226 81.1492 16.0226C82.0012 16.0226 82.6588 16.3173 83.1217 16.9062C83.5847 17.4952 83.8163 18.3216 83.8163 19.3847C83.8163 20.4522 83.5808 21.2812 83.1103 21.8727C82.6395 22.4636 81.986 22.7589 81.1494 22.7589ZM81.0087 16.8587C80.3522 16.8587 79.8775 17.0427 79.5844 17.4102C79.2914 17.7778 79.1409 18.363 79.1329 19.1656V19.3847C79.1329 20.2981 79.2834 20.9514 79.5844 21.3449C79.8855 21.7384 80.3682 21.9346 81.0321 21.9346C81.5873 21.9346 82.0221 21.7076 82.3368 21.253C82.651 20.7985 82.8084 20.1719 82.8084 19.3729C82.8084 18.5628 82.651 17.9407 82.3368 17.508C82.0223 17.0749 81.5793 16.8587 81.0087 16.8587ZM86.0693 22.6401H85.0964V13.4134H86.0693V22.6401ZM91.6634 22.6401L91.4698 21.7151H91.423C91.1025 22.1226 90.7831 22.3985 90.4646 22.5423C90.1462 22.6869 89.7485 22.7589 89.272 22.7589C88.6351 22.7589 88.1359 22.5928 87.7743 22.2608C87.4126 21.9289 87.2321 21.4567 87.2321 20.8437C87.2321 19.5315 88.2697 18.8435 90.3445 18.78L91.4351 18.7443V18.3411C91.4351 17.8311 91.3265 17.4544 91.1095 17.2116C90.8929 16.9682 90.5455 16.8467 90.0692 16.8467C89.5336 16.8467 88.9279 17.0127 88.2521 17.3447L87.9531 16.5916C88.2699 16.4177 88.6163 16.2814 88.9938 16.1826C89.3708 16.0838 89.7487 16.0343 90.1279 16.0343C90.8937 16.0343 91.4612 16.2061 91.8307 16.55C92.1998 16.894 92.3844 17.4455 92.3844 18.2047V22.6399H91.6634V22.6401H91.6634ZM89.4654 21.9466C90.0708 21.9466 90.5465 21.7786 90.8925 21.4427C91.238 21.1068 91.4113 20.6362 91.4113 20.0311V19.4441L90.4379 19.4853C89.6643 19.5135 89.1069 19.6346 88.7645 19.8506C88.4227 20.066 88.2517 20.4011 88.2517 20.8557C88.2517 21.2113 88.358 21.4823 88.5713 21.6677C88.7844 21.8537 89.0821 21.9466 89.4654 21.9466ZM92.9492 16.1412H93.9923L95.3991 19.8474C95.7077 20.6936 95.8994 21.3042 95.9739 21.68H96.0207C96.0715 21.478 96.1782 21.1334 96.34 20.6447C96.5022 20.1563 97.0329 18.6555 97.9313 16.1412H98.9751L96.2141 23.5417C95.9407 24.2731 95.6212 24.792 95.2554 25.0989C94.8902 25.405 94.4416 25.5579 93.9108 25.5579C93.6136 25.5579 93.3206 25.5243 93.0311 25.4573V24.6687C93.2459 24.716 93.4865 24.7399 93.7522 24.7399C94.4206 24.7399 94.8969 24.3604 95.1825 23.6013L95.5399 22.6764L92.9492 16.1412ZM63.1252 16.7451C63.4341 17.0037 64.079 17.5468 64.079 18.5806C64.079 19.5859 63.5146 20.0626 62.9502 20.5106C62.7755 20.6871 62.5739 20.878 62.5739 21.1774C62.5739 21.4758 62.7753 21.6391 62.9237 21.7616L63.4075 22.1415C63.9987 22.6446 64.5356 23.1072 64.5356 24.0454C64.5356 25.3231 63.3128 26.614 61.0021 26.614C59.0534 26.614 58.1133 25.6764 58.1133 24.6699C58.1133 24.1807 58.3541 23.4878 59.148 23.0115C59.9805 22.4949 61.1099 22.4277 61.7143 22.3859C61.5256 22.1415 61.3111 21.8831 61.3111 21.4624C61.3111 21.2317 61.3786 21.0956 61.4455 20.9317C61.2971 20.9455 61.1495 20.9591 61.015 20.9591C59.5912 20.9591 58.785 19.8851 58.785 18.8254C58.785 18.1999 59.0675 17.5062 59.6446 17.0039C60.4108 16.365 61.3244 16.2559 62.0506 16.2559H64.8179L63.9579 16.7453H63.1252V16.7451H63.1252ZM62.1709 22.781C62.0635 22.7668 61.996 22.7668 61.8623 22.7668C61.7414 22.7668 61.0148 22.7946 60.4511 22.9853C60.1556 23.0932 59.2954 23.4194 59.2954 24.3851C59.2954 25.3498 60.223 26.0441 61.6609 26.0441C62.95 26.0441 63.636 25.4174 63.636 24.5754C63.636 23.8807 63.1925 23.5153 62.1709 22.781ZM62.5608 20.1977C62.8694 19.8847 62.896 19.4502 62.896 19.2052C62.896 18.2267 62.3185 16.7043 61.2035 16.7043C60.8537 16.7043 60.4778 16.8808 60.2628 17.153C60.0347 17.4384 59.9668 17.805 59.9668 18.1589C59.9668 19.0695 60.4909 20.5786 61.647 20.5786C61.983 20.5786 62.345 20.4155 62.5608 20.1977ZM54.666 22.5634C52.5333 22.5634 51.3929 20.8804 51.3929 19.3601C51.3929 17.582 52.8281 16.0627 54.868 16.0627C56.839 16.0627 58.0734 17.6228 58.0734 19.2654C58.0735 20.8662 56.8533 22.5634 54.666 22.5634ZM56.3427 21.4642C56.6651 21.0295 56.7456 20.4869 56.7456 19.9571C56.7456 18.7624 56.1822 16.4828 54.5186 16.4828C54.076 16.4828 53.6335 16.6595 53.3116 16.9451C52.7883 17.4194 52.6939 18.0169 52.6939 18.6011C52.6939 19.9437 53.3513 22.1553 54.975 22.1553C55.4981 22.1553 56.0348 21.8979 56.3427 21.4642ZM47.3948 22.5634C45.2617 22.5634 44.1212 20.8804 44.1212 19.3601C44.1212 17.582 45.5569 16.0627 47.5962 16.0627C49.5679 16.0627 50.802 17.6228 50.802 19.2654C50.8022 20.8662 49.5817 22.5634 47.3948 22.5634ZM49.0719 21.4642C49.3938 21.0295 49.4745 20.4869 49.4745 19.9571C49.4745 18.7624 48.9106 16.4828 47.247 16.4828C46.8046 16.4828 46.3617 16.6595 46.04 16.9451C45.5167 17.4194 45.4229 18.0169 45.4229 18.6011C45.4229 19.9437 46.08 22.1553 47.7038 22.1553C48.2271 22.1553 48.7635 21.8979 49.0719 21.4642ZM43.0964 22.3506L41.1675 22.8009C40.3849 22.9239 39.6838 23.0322 38.9424 23.0322C35.2193 23.0322 33.8037 20.2622 33.8037 18.0926C33.8037 15.4459 35.813 12.9905 39.2527 12.9905C39.9813 12.9905 40.682 13.0994 41.3158 13.2769C42.3273 13.5635 42.7993 13.9179 43.0963 14.1228L41.9764 15.2007L41.5046 15.3094L41.8417 14.7634C41.3833 14.3135 40.5463 13.4814 38.9554 13.4814C36.8243 13.4814 35.219 15.1195 35.219 17.507C35.219 20.0715 37.0536 22.4867 39.9932 22.4867C40.8573 22.4867 41.3014 22.3096 41.7064 22.1455V19.9492L39.6702 20.0583L40.7487 19.4709H43.6082L43.2579 19.812C43.1628 19.8942 43.1497 19.9218 43.1228 20.0299C43.1088 20.153 43.0961 20.549 43.0961 20.6853V22.3506H43.0964V22.3506Z" fill="#F9F9F9"/>
<path d="M67.3882 21.9577C66.9429 21.9167 66.8497 21.8352 66.8497 21.3025V13.5799C66.8524 13.5505 66.8542 13.5203 66.8569 13.4919C66.9113 13.0146 67.046 12.9327 67.4646 12.6868H65.5353L64.5234 13.1781H65.5546V13.1842L65.5538 13.1793V21.6031C65.5538 21.8755 65.5006 21.9169 65.19 22.3258H67.5775L68.0766 22.0264C67.8475 21.9982 67.6179 21.9849 67.3882 21.9577ZM72.8764 22.0832C72.7296 22.1646 72.5822 22.2599 72.4354 22.3271C71.9927 22.5303 71.5374 22.5847 71.1348 22.5847C70.7073 22.5847 70.037 22.5567 69.3532 22.0559C68.403 21.3778 67.9877 20.2126 67.9877 19.1966C67.9877 17.0966 69.6753 16.0668 71.0549 16.0668C71.5372 16.0668 72.0334 16.1885 72.4352 16.4465C73.1044 16.8929 73.2784 17.4755 73.3716 17.7873L70.2247 19.0751L69.1932 19.1564C69.5276 20.8773 70.6794 21.8792 71.9523 21.8792C72.6353 21.8792 73.1311 21.6358 73.5863 21.4058L72.8764 22.0832ZM71.6178 18.0445C71.8718 17.95 72.0057 17.8684 72.0057 17.6788C72.0057 17.1372 71.4033 16.5136 70.6794 16.5136C70.143 16.5136 69.1392 16.9339 69.1392 18.397C69.1392 18.6274 69.1661 18.8712 69.1799 19.1159L71.6178 18.0445ZM74.1692 16.1595V17.0536H74.0618V16.1595H73.7694V16.0668H74.4615V16.1595H74.1692ZM75.3741 17.0536V16.1512H75.3692L75.0971 17.0536H75.013L74.7385 16.1512H74.735V17.0536H74.6375V16.0668H74.8046L75.053 16.8645H75.0565L75.3012 16.0668H75.4706V17.0536H75.3741Z" fill="#F9F9F9"/>
<path d="M36.482 10.3336H35.8117C35.8117 10.2403 35.7481 9.97617 35.621 9.54106H34.6534C34.5222 9.96907 34.4565 10.2332 34.4565 10.3336H33.8262C33.8262 10.2785 33.9892 9.82645 34.3151 8.97756C34.6411 8.12865 34.8041 7.66098 34.8041 7.575H35.5959C35.5959 7.65547 35.7434 8.11622 36.0388 8.95744C36.3342 9.79866 36.482 10.2572 36.482 10.3336ZM35.5143 9.13633C35.2755 8.40752 35.1562 8.01346 35.1562 7.95408H35.1227C35.1227 8.00912 34.9991 8.40319 34.7521 9.13633H35.5143ZM39.1826 10.3336H38.6654C38.6654 10.2756 38.4733 9.96986 38.0894 9.41621C37.6874 8.83279 37.4583 8.43397 37.4026 8.2192H37.3691C37.404 8.52845 37.4215 8.80813 37.4215 9.05824C37.4215 9.40716 37.4313 9.8324 37.4508 10.3338H36.9355C36.9563 9.89591 36.9669 9.41505 36.9669 8.89099C36.9669 8.37542 36.9563 7.93675 36.9355 7.57522H37.5574C37.5574 7.65017 37.7297 7.94898 38.0746 8.47146C38.4418 9.02649 38.6527 9.40301 38.7071 9.60084H38.7385C38.705 9.28586 38.6882 9.0034 38.6882 8.75331C38.6882 8.37069 38.6784 7.97778 38.659 7.57522H39.1826C39.1629 7.92551 39.1534 8.36416 39.1534 8.89099C39.1532 9.42174 39.1629 9.9026 39.1826 10.3336ZM42.218 8.85884C42.218 9.26 42.0909 9.61031 41.8368 9.90972C41.5826 10.2093 41.2266 10.3588 40.7686 10.3588C40.562 10.3588 40.2771 10.3503 39.9141 10.3334C39.9322 9.90676 39.9414 9.42568 39.9414 8.89059C39.9414 8.37659 39.9322 7.93793 39.9141 7.5748H40.2806C40.3407 7.5748 40.43 7.57263 40.5487 7.56849C40.6672 7.56435 40.7448 7.56218 40.7811 7.56218C41.2851 7.56218 41.6505 7.6894 41.8776 7.94364C42.1045 8.19788 42.218 8.50281 42.218 8.85884ZM41.6463 8.94993C41.6463 8.67873 41.5682 8.45033 41.4118 8.26433C41.2554 8.07873 41.0166 7.98585 40.6955 7.98585C40.6355 7.98585 40.5532 7.99216 40.4483 8.00498C40.4621 8.2876 40.4691 8.58267 40.4691 8.89058C40.4691 9.22825 40.4762 9.56296 40.49 9.89491C40.5796 9.91317 40.6708 9.92242 40.7622 9.92252C41.0624 9.92252 41.2847 9.82806 41.4291 9.63949C41.5736 9.45093 41.6463 9.22113 41.6463 8.94993ZM45.0171 10.3336H44.3971C44.2351 9.83357 44.1109 9.52489 44.0243 9.40773C43.9378 9.29038 43.7982 9.2318 43.6056 9.2318C43.5244 9.2318 43.447 9.23259 43.3732 9.23397C43.3732 9.5971 43.3794 9.96355 43.3921 10.3336H42.8099C42.828 9.90694 42.8372 9.42588 42.8372 8.89077C42.8372 8.37679 42.828 7.93812 42.8099 7.575H43.1721C43.2141 7.575 43.3016 7.57283 43.435 7.56869C43.5683 7.56455 43.6915 7.56236 43.8046 7.56236C44.4455 7.56236 44.766 7.78406 44.766 8.22766C44.766 8.57933 44.5831 8.8243 44.2174 8.96296V8.99472C44.3583 9.03416 44.4819 9.1456 44.588 9.32825C44.6938 9.51108 44.8369 9.84619 45.0171 10.3336ZM44.2318 8.38425C44.2318 8.10319 44.053 7.96257 43.6956 7.96257C43.5644 7.96257 43.4484 7.97243 43.348 7.99216C43.3634 8.21109 43.371 8.4965 43.371 8.84817C43.4478 8.85113 43.5128 8.85231 43.5658 8.85231C44.0097 8.85251 44.2318 8.69649 44.2318 8.38425ZM48.0191 8.90338C48.0191 9.33692 47.8879 9.69647 47.6253 9.98187C47.3627 10.2671 47.0381 10.4099 46.6515 10.4099C46.2828 10.4099 45.9741 10.2789 45.7258 10.0168C45.4772 9.75485 45.353 9.42174 45.353 9.01797C45.353 8.58445 45.4842 8.22488 45.7468 7.93948C46.0092 7.65427 46.3339 7.51147 46.7206 7.51147C47.0893 7.51147 47.3978 7.64205 47.6464 7.90339C47.8949 8.16474 48.0191 8.49788 48.0191 8.90338ZM47.4413 8.96474C47.4413 8.66947 47.3666 8.43003 47.2172 8.2464C47.0677 8.06277 46.8835 7.97105 46.6643 7.97105C46.4604 7.97105 46.2873 8.06356 46.1449 8.24857C46.0026 8.43358 45.9311 8.66732 45.9311 8.94994C45.9311 9.24363 46.0061 9.48268 46.1562 9.66712C46.3064 9.85153 46.4902 9.94364 46.7082 9.94364C46.9119 9.94364 47.0852 9.85074 47.2276 9.66493C47.3699 9.47933 47.4413 9.24578 47.4413 8.96474ZM49.2033 10.3336H48.6106C48.6288 9.8957 48.6379 9.41483 48.6379 8.89077C48.6379 8.37519 48.6288 7.93654 48.6106 7.575H49.2033C49.1852 7.93101 49.176 8.36947 49.176 8.89077C49.176 9.42312 49.1852 9.90418 49.2033 10.3336ZM52.2389 8.85884C52.2389 9.26 52.1118 9.61031 51.8578 9.90972C51.6035 10.2093 51.2475 10.3588 50.7896 10.3588C50.5829 10.3588 50.2981 10.3503 49.935 10.3334C49.9532 9.90676 49.9623 9.42568 49.9623 8.89059C49.9623 8.37659 49.9532 7.93793 49.935 7.5748H50.3016C50.3616 7.5748 50.4509 7.57263 50.5696 7.56849C50.6882 7.56435 50.7658 7.56218 50.802 7.56218C51.306 7.56218 51.6714 7.6894 51.8985 7.94364C52.1254 8.19788 52.2389 8.50281 52.2389 8.85884ZM51.6673 8.94993C51.6673 8.67873 51.5891 8.45033 51.4327 8.26433C51.2764 8.07873 51.0375 7.98585 50.7164 7.98585C50.6564 7.98585 50.5741 7.99216 50.4692 8.00498C50.4831 8.2876 50.4901 8.58267 50.4901 8.89058C50.4901 9.22825 50.4971 9.56296 50.5109 9.89491C50.6005 9.91317 50.6917 9.92242 50.7831 9.92252C51.0833 9.92252 51.3056 9.82806 51.4501 9.63949C51.5946 9.45093 51.6673 9.22113 51.6673 8.94993ZM56.2661 10.3336H55.5958C55.5958 10.2403 55.5322 9.97617 55.4049 9.54106H54.4373C54.3061 9.96907 54.2404 10.2332 54.2404 10.3336H53.6103C53.6103 10.2785 53.7733 9.82645 54.0993 8.97756C54.4252 8.12865 54.5882 7.66098 54.5882 7.575H55.38C55.38 7.65547 55.5278 8.11622 55.8229 8.95744C56.1181 9.79866 56.2661 10.2572 56.2661 10.3336ZM55.2985 9.13633C55.0596 8.40752 54.9401 8.01346 54.9401 7.95408H54.9066C54.9066 8.00912 54.7832 8.40319 54.5362 9.13633H55.2985ZM58.709 8.29728C58.709 8.63496 58.585 8.88426 58.3372 9.04521C58.0894 9.20616 57.7854 9.28681 57.4251 9.28681C57.3594 9.28681 57.3128 9.28543 57.2847 9.28267C57.2847 9.54835 57.2923 9.89846 57.3078 10.3336H56.7191C56.7373 9.92548 56.7464 9.4444 56.7464 8.89077C56.7464 8.38229 56.7373 7.94364 56.7191 7.575H57.0835C57.1352 7.575 57.2342 7.57283 57.3808 7.56869C57.5275 7.56455 57.6544 7.56236 57.762 7.56236C58.0271 7.56236 58.2514 7.62311 58.4342 7.74461C58.6171 7.86612 58.709 8.05015 58.709 8.29728ZM58.1687 8.41385C58.1687 8.11167 57.9704 7.9604 57.5739 7.9604C57.4747 7.9604 57.37 7.97104 57.2598 7.99216C57.2752 8.25922 57.2828 8.56139 57.2828 8.89906C57.3177 8.90202 57.3583 8.9032 57.4043 8.9032C57.9139 8.90338 58.1687 8.74028 58.1687 8.41385ZM61.2209 8.29728C61.2209 8.63496 61.0969 8.88426 60.8493 9.04521C60.6015 9.20616 60.2973 9.28681 59.9371 9.28681C59.8713 9.28681 59.8248 9.28543 59.7967 9.28267C59.7967 9.54835 59.8043 9.89846 59.8197 10.3336H59.2311C59.2492 9.92548 59.2584 9.4444 59.2584 8.89077C59.2584 8.38229 59.2492 7.94364 59.2311 7.575H59.5955C59.6472 7.575 59.7462 7.57283 59.8928 7.56869C60.0394 7.56455 60.1663 7.56236 60.2739 7.56236C60.5391 7.56236 60.7633 7.62311 60.9462 7.74461C61.129 7.86612 61.2209 8.05015 61.2209 8.29728ZM60.6806 8.41385C60.6806 8.11167 60.4824 7.9604 60.0858 7.9604C59.9866 7.9604 59.8819 7.97104 59.7717 7.99216C59.7871 8.25922 59.7947 8.56139 59.7947 8.89906C59.8296 8.90202 59.8702 8.9032 59.9162 8.9032C60.4258 8.90338 60.6806 8.74028 60.6806 8.41385ZM65.3278 8.90338C65.3278 9.33692 65.1966 9.69647 64.934 9.98187C64.6714 10.2673 64.3467 10.4099 63.9601 10.4099C63.5915 10.4099 63.2828 10.2789 63.0344 10.0168C62.786 9.75485 62.6617 9.42174 62.6617 9.01797C62.6617 8.58445 62.7929 8.22488 63.0555 7.93948C63.3181 7.65408 63.6427 7.51147 64.0293 7.51147C64.398 7.51147 64.7066 7.64205 64.955 7.90339C65.2034 8.16474 65.3278 8.49788 65.3278 8.90338ZM64.7497 8.96474C64.7497 8.66947 64.675 8.43003 64.5257 8.2464C64.3764 8.06277 64.1919 7.97105 63.9728 7.97105C63.7689 7.97105 63.5957 8.06356 63.4534 8.24857C63.3111 8.43358 63.2397 8.66732 63.2397 8.94994C63.2397 9.24363 63.3148 9.48268 63.4649 9.66712C63.615 9.85153 63.7989 9.94364 64.0167 9.94364C64.2206 9.94364 64.3937 9.85074 64.536 9.66495C64.6786 9.47933 64.7497 9.24578 64.7497 8.96474ZM68.1665 10.3336H67.6492C67.6492 10.2756 67.4574 9.96986 67.0733 9.41621C66.6713 8.83279 66.4422 8.43397 66.3864 8.2192H66.3529C66.3878 8.52845 66.4054 8.80813 66.4054 9.05824C66.4054 9.40716 66.4151 9.8324 66.4346 10.3338H65.9193C65.9402 9.89591 65.9507 9.41505 65.9507 8.89099C65.9507 8.37542 65.9402 7.93675 65.9193 7.57522H66.5413C66.5413 7.65017 66.7138 7.94898 67.0585 8.47146C67.4258 9.02649 67.6366 9.40301 67.691 9.60084H67.7224C67.6888 9.28586 67.6721 9.0034 67.6721 8.75331C67.6721 8.37069 67.6623 7.97778 67.6428 7.57522H68.1665C68.1468 7.92551 68.1372 8.36416 68.1372 8.89099C68.1372 9.42174 68.147 9.9026 68.1665 10.3336Z" fill="#F9F9FA"/>
</g>
<defs>
<linearGradient id="paint0_linear_1257_6486" x1="16.592" y1="7.21659" x2="16.592" y2="29.5642" gradientUnits="userSpaceOnUse">
<stop stop-color="#257CB0"/>
<stop offset="0.286" stop-color="#4A93B5"/>
<stop offset="0.767" stop-color="#78BCBB"/>
<stop offset="1" stop-color="#89CFBD"/>
</linearGradient>
<linearGradient id="paint1_linear_1257_6486" x1="11.0226" y1="12.7627" x2="25.1534" y2="12.7627" gradientUnits="userSpaceOnUse">
<stop stop-color="#52C1AD"/>
<stop offset="1" stop-color="#DEE89A"/>
</linearGradient>
<linearGradient id="paint2_linear_1257_6486" x1="18.0877" y1="18.3904" x2="18.0877" y2="29.6454" gradientUnits="userSpaceOnUse">
<stop stop-color="#EC413D"/>
<stop offset="0.167" stop-color="#DA4452"/>
<stop offset="0.575" stop-color="#B0487A"/>
<stop offset="0.862" stop-color="#954A92"/>
<stop offset="1" stop-color="#8A4A9D"/>
</linearGradient>
<linearGradient id="paint3_linear_1257_6486" x1="26.2263" y1="15.3892" x2="26.2263" y2="21.3913" gradientUnits="userSpaceOnUse">
<stop stop-color="#F58879"/>
<stop offset="0.119" stop-color="#F69079"/>
<stop offset="0.713" stop-color="#FCB877"/>
<stop offset="1" stop-color="#FEC874"/>
</linearGradient>
<clipPath id="clip0_1257_6486">
<rect width="110" height="33" fill="white" transform="translate(0 0.863281)"/>
</clipPath>
</defs>
</svg>
