<svg width="674" height="266" viewBox="0 0 674 266" fill="none" xmlns="http://www.w3.org/2000/svg">
<g clip-path="url(#clip0_1298_21998)">
<path d="M229.652 48.0093V19.0393H242.309C245.35 19.0393 247.705 19.7105 249.377 21.0529C251.048 22.3678 251.883 24.2033 251.883 26.5592C251.883 28.1207 251.486 29.463 250.692 30.5862C249.897 31.7094 248.801 32.5313 247.404 33.0518C249.048 33.5175 250.322 34.3393 251.226 35.5173C252.157 36.6679 252.623 38.1335 252.623 39.9141C252.623 42.4893 251.746 44.4891 249.993 45.9136C248.267 47.3107 245.856 48.0093 242.761 48.0093H229.652ZM234.707 31.3259H241.405C244.993 31.3259 246.788 29.9425 246.788 27.1756C246.788 24.4087 244.993 23.0253 241.405 23.0253H234.707V31.3259ZM234.707 44.0234H242.103C245.719 44.0234 247.527 42.5714 247.527 39.6676C247.527 36.7637 245.719 35.3118 242.103 35.3118H234.707V44.0234Z" fill="#1A1A1A"/>
<path d="M264.107 48.0093V19.0393H269.367V48.0093H264.107Z" fill="#1A1A1A"/>
<path d="M291.814 48.4202C289.54 48.4202 287.43 48.1326 285.485 47.5573C283.54 46.9546 281.897 46.1465 280.554 45.1328L282.157 40.9825C283.499 41.9414 284.965 42.681 286.554 43.2015C288.17 43.722 289.923 43.9823 291.814 43.9823C293.978 43.9823 295.553 43.6261 296.539 42.9139C297.525 42.1742 298.018 41.2291 298.018 40.0785C298.018 39.1197 297.662 38.3663 296.95 37.8184C296.265 37.2705 295.073 36.8185 293.375 36.4624L288.855 35.5173C283.705 34.4215 281.13 31.7779 281.13 27.5865C281.13 25.7785 281.609 24.2033 282.568 22.8609C283.527 21.5186 284.855 20.4776 286.554 19.7379C288.252 18.9982 290.211 18.6284 292.43 18.6284C294.402 18.6284 296.251 18.9298 297.977 19.5324C299.703 20.1077 301.141 20.9296 302.292 21.998L300.689 25.9428C298.416 24.0252 295.649 23.0664 292.389 23.0664C290.499 23.0664 289.019 23.4636 287.951 24.258C286.882 25.0525 286.348 26.0935 286.348 27.381C286.348 28.3673 286.677 29.1617 287.334 29.7644C287.992 30.3397 289.115 30.7917 290.704 31.1204L295.183 32.0655C297.895 32.6408 299.909 33.5449 301.224 34.7776C302.566 36.0104 303.237 37.6541 303.237 39.7087C303.237 41.4346 302.771 42.955 301.84 44.2699C300.909 45.5849 299.58 46.6122 297.854 47.3518C296.156 48.0641 294.142 48.4202 291.814 48.4202Z" fill="#1A1A1A"/>
<path d="M313.915 48.0093V19.0393H317.86L333.434 39.2567V19.0393H338.324V48.0093H334.42L318.805 27.7098V48.0093H313.915Z" fill="#1A1A1A"/>
<path d="M350.818 48.0093V19.0393H356.078V48.0093H350.818Z" fill="#1A1A1A"/>
<path d="M378.524 48.4202C376.251 48.4202 374.141 48.1326 372.196 47.5573C370.251 46.9546 368.607 46.1465 367.265 45.1328L368.868 40.9825C370.21 41.9414 371.676 42.681 373.265 43.2015C374.881 43.722 376.634 43.9823 378.524 43.9823C380.689 43.9823 382.264 43.6261 383.25 42.9139C384.236 42.1742 384.729 41.2291 384.729 40.0785C384.729 39.1197 384.373 38.3663 383.661 37.8184C382.976 37.2705 381.784 36.8185 380.086 36.4624L375.566 35.5173C370.415 34.4215 367.84 31.7779 367.84 27.5865C367.84 25.7785 368.32 24.2033 369.279 22.8609C370.237 21.5186 371.566 20.4776 373.265 19.7379C374.963 18.9982 376.922 18.6284 379.141 18.6284C381.113 18.6284 382.962 18.9298 384.688 19.5324C386.414 20.1077 387.852 20.9296 389.003 21.998L387.4 25.9428C385.126 24.0252 382.36 23.0664 379.1 23.0664C377.209 23.0664 375.73 23.4636 374.662 24.258C373.593 25.0525 373.059 26.0935 373.059 27.381C373.059 28.3673 373.388 29.1617 374.045 29.7644C374.703 30.3397 375.826 30.7917 377.415 31.1204L381.894 32.0655C384.606 32.6408 386.619 33.5449 387.934 34.7776C389.277 36.0104 389.948 37.6541 389.948 39.7087C389.948 41.4346 389.482 42.955 388.551 44.2699C387.619 45.5849 386.291 46.6122 384.565 47.3518C382.866 48.0641 380.853 48.4202 378.524 48.4202Z" fill="#1A1A1A"/>
<path d="M400.738 197.306V202.303L424.078 202.302C437.337 202.303 441.598 198.468 486.181 214.342C534.353 231.494 563.699 252.268 609 248.68C652.94 245.2 669.129 221.02 673.146 203.829C673.941 200.427 670.074 198.45 667.195 200.43C596.431 249.103 486.241 213.045 450.493 189.28C444.529 185.315 443.112 178.056 443.112 170.894V32.9372L413.625 0.781548C413.625 2.22465 413.625 22.7989 413.625 61.7236V147.075C413.625 153.036 413.537 159.085 413.362 165.221V183.104C413.362 189.942 410.469 194.325 404.683 196.254L400.738 197.306Z" fill="#A20087"/>
<path d="M57.8654 206.425C60.0098 204.142 61.8827 201.601 63.4325 198.854C64.1955 198.874 64.9734 198.884 65.7662 198.884C76.4612 198.884 84.8768 196.166 91.0133 190.731C97.325 185.121 100.481 177.757 100.481 168.64C100.481 160.4 98.2893 153.912 93.9061 149.179C89.6983 144.445 82.8606 139.886 73.393 135.503L62.6104 130.769C47.883 124.282 36.2237 116.743 27.6327 108.152C19.2171 99.5612 15.0092 88.165 15.0092 73.9636C15.0092 63.444 17.6391 54.5024 22.8989 47.1387C28.3341 39.5996 35.7854 33.8138 45.2531 29.7813C54.7207 25.7488 65.7662 23.7326 78.3897 23.7326C87.6821 23.7326 96.3607 24.9598 104.426 27.4144C112.491 29.869 118.578 34.7143 124.062 41.102V70.2163H116.523C116.523 48.3854 105.347 35.9679 89.4353 32.9372C87.3314 32.5866 85.4905 32.3236 83.9126 32.1482C82.5099 31.9729 80.5814 31.8853 78.1268 31.8853C69.5358 31.8853 62.0844 34.4275 55.7726 39.512C49.6362 44.4211 46.568 51.2588 46.568 60.0252C46.568 68.4408 48.9349 75.2785 53.6687 80.5383C58.4025 85.7981 65.2403 90.4443 74.1819 94.4768L86.0164 99.4736C103.023 106.837 115.208 114.727 122.572 123.143C129.936 131.383 133.618 141.99 133.618 154.964C133.618 170.393 127.744 182.929 115.997 192.572C104.426 202.04 88.0327 206.773 66.8182 206.773C63.8505 206.773 60.8663 206.657 57.8654 206.425Z" fill="#A20087"/>
<path d="M202.566 205.984C191.695 205.984 183.104 203.354 176.793 198.095C170.656 192.66 167.588 183.893 167.588 171.796V159.961C167.763 156.104 167.851 151.633 167.851 146.549L167.851 45.4895H149.179V39.7037C168.118 32.0864 184.29 18.8848 195.545 1.85387L196.254 0.78125H204.144L203.355 76.0675H319.612V80.8013L314.089 82.3792C310.232 83.6065 308.128 85.5351 307.777 88.165C307.602 90.6196 308.215 93.8631 309.618 97.8956L334.706 163.321L340.873 179.566L329.868 209.14C322.855 228.426 315.667 242.628 308.303 251.745C301.988 259.908 294.32 264.485 285.299 265.477C283.647 265.817 281.936 265.996 280.181 265.996C266.472 265.996 255.358 255.085 255.358 241.626C255.358 228.167 266.472 217.257 280.181 217.257C293.891 217.257 305.005 228.167 305.005 241.626C305.005 242.607 304.946 243.575 304.831 244.526C305.381 243.982 305.924 243.32 306.462 242.54C308.741 239.559 310.933 235.878 313.037 231.494C315.316 227.111 317.771 221.325 320.401 214.137L270.432 98.1586C269.205 94.8274 267.803 92.2852 266.225 90.5319C264.647 88.6033 262.28 87.0254 259.124 85.7981C256.149 85.1104 253.119 84.6925 250.069 84.5494L243.053 84.2202H203.092V173.9C203.092 180.211 204.406 184.945 207.036 188.101C209.842 191.257 213.26 192.835 217.293 192.835C220.8 192.835 223.955 192.046 226.761 190.468C229.566 188.715 232.371 186.436 235.176 183.63L238.595 187.575C235.264 193.361 230.618 197.919 224.657 201.251C218.696 204.406 211.332 205.984 202.566 205.984Z" fill="#A20087"/>
<path d="M362.478 96.6272L362.49 96.6329L351.433 135.503C356.777 127.154 372.004 91.5652 375.626 88.4351C375.887 88.0546 376.151 87.7016 376.417 87.376C378.171 85.2721 380.976 83.6942 384.833 82.6422L390.619 80.8013V76.0675H351.433V80.8013L357.219 82.3792C361.252 83.2559 363.443 85.0091 363.794 87.639C364.122 90.0984 363.683 93.0945 362.478 96.6272Z" fill="#A20087"/>
<path d="M570.957 78.9604C563.067 74.4019 553.599 72.1227 542.554 72.1227C531.684 72.1227 521.252 74.8402 511.258 80.2753C501.44 85.5351 493.375 93.1618 487.063 103.155C480.927 113.149 477.858 125.334 477.858 139.711C477.858 153.562 480.488 165.484 485.748 175.478C491.183 185.296 498.635 192.835 508.102 198.095C517.57 203.354 528.528 205.984 540.976 205.984C553.424 205.984 564.119 203.354 573.061 198.095C580.089 193.905 583.203 191.538 586.877 185.48C589.407 181.307 590.418 176.413 590.418 171.533C585.86 176.793 580.863 180.913 575.428 183.893C569.992 186.699 562.892 188.101 554.125 188.101C541.502 188.101 531.859 184.156 525.196 176.267C519.088 168.837 515.778 156.899 515.266 140.453H515.262C515.156 137.7 515.152 133.956 515.244 129.98H515.203C515.292 126.656 515.436 123.521 515.637 120.578C515.836 117.387 516.099 114.446 516.424 112.181C517.034 107.23 517.854 102.994 518.885 99.4736C521.164 92.1099 524.145 87.0254 527.826 84.2202C531.684 81.2396 536.154 79.7494 541.239 79.7494C550.531 79.7494 556.843 83.6942 560.174 91.5839C563.505 99.4736 564.207 112.272 562.278 129.98H534.353L538.706 137.344H594.363C594.889 135.591 595.24 133.75 595.415 131.821C595.59 129.717 595.678 127.526 595.678 125.247C595.678 114.902 593.486 105.785 589.103 97.8956C584.895 89.8306 578.846 83.5189 570.957 78.9604Z" fill="#A20087"/>
<path d="M29.408 208.466C45.2943 208.466 58.1725 195.588 58.1725 179.702C58.1725 163.816 45.2943 150.937 29.408 150.937C13.5219 150.937 0.643555 163.816 0.643555 179.702C0.643555 195.588 13.5219 208.466 29.408 208.466Z" fill="#A20087"/>
</g>
<defs>
<clipPath id="clip0_1298_21998">
<rect width="674" height="266" fill="white"/>
</clipPath>
</defs>
</svg>
