<svg width="176" height="27" viewBox="0 0 176 27" fill="none" xmlns="http://www.w3.org/2000/svg">
<path d="M0.632 26V0.619998H3.584V23.408H16.508V26H0.632ZM20.1789 26V0.619998H23.1309V26H20.1789ZM29.3898 26V0.619998H45.0858V3.104H32.3418V11.96H44.3658V14.444H32.3418V26H29.3898ZM49.1125 26V0.619998H65.1325V3.104H51.9925V11.888H64.3765V14.372H51.9925V23.516H65.1325V26H49.1125Z" fill="#3E3E3E"/>
<path d="M78.4888 26.36C76.4968 26.36 74.6488 26.108 72.9448 25.604C71.2408 25.076 69.8008 24.368 68.6248 23.48L70.0288 19.844C71.2048 20.684 72.4888 21.332 73.8808 21.788C75.2968 22.244 76.8328 22.472 78.4888 22.472C80.3848 22.472 81.7648 22.16 82.6288 21.536C83.4928 20.888 83.9248 20.06 83.9248 19.052C83.9248 18.212 83.6128 17.552 82.9888 17.072C82.3888 16.592 81.3448 16.196 79.8568 15.884L75.8968 15.056C71.3848 14.096 69.1288 11.78 69.1288 8.108C69.1288 6.524 69.5488 5.144 70.3888 3.968C71.2288 2.792 72.3928 1.88 73.8808 1.232C75.3688 0.583999 77.0848 0.259999 79.0288 0.259999C80.7568 0.259999 82.3768 0.523999 83.8888 1.052C85.4008 1.556 86.6608 2.276 87.6688 3.212L86.2648 6.668C84.2728 4.988 81.8488 4.148 78.9928 4.148C77.3368 4.148 76.0408 4.496 75.1048 5.192C74.1688 5.888 73.7008 6.8 73.7008 7.928C73.7008 8.792 73.9888 9.488 74.5648 10.016C75.1408 10.52 76.1248 10.916 77.5168 11.204L81.4408 12.032C83.8168 12.536 85.5808 13.328 86.7328 14.408C87.9088 15.488 88.4968 16.928 88.4968 18.728C88.4968 20.24 88.0888 21.572 87.2728 22.724C86.4568 23.876 85.2928 24.776 83.7808 25.424C82.2928 26.048 80.5288 26.36 78.4888 26.36ZM98.0443 26V4.472H89.3323V0.619998H111.364V4.472H102.652V26H98.0443ZM120.789 26V14.336L111.033 0.619998H116.397L123.165 10.232L129.969 0.619998H135.117L125.397 14.372V26H120.789ZM138.26 26V0.619998H142.868V22.076H155.036V26H138.26ZM158.475 26V0.619998H175.359V4.292H162.903V11.276H174.567V14.948H162.903V22.328H175.359V26H158.475Z" fill="#A20087"/>
</svg>
