<svg width="160" height="39" viewBox="0 0 160 39" fill="none" xmlns="http://www.w3.org/2000/svg">
<rect x="0.5" y="0.672852" width="159" height="37" rx="4.25" fill="black"/>
<path d="M24.193 6.93164C23.8999 7.2247 23.8022 7.71366 23.8022 8.3003V29.9106C23.8022 30.4973 23.9976 30.9862 24.2907 31.2798L24.3889 31.3775L36.5141 19.2512V19.0558L24.193 6.93164Z" fill="url(#paint0_linear_1415_22276)"/>
<path d="M40.4254 23.3596L36.416 19.3503V19.0572L40.4254 15.0479L40.5231 15.1455L45.3144 17.8839C46.6836 18.6659 46.6836 19.9369 45.3144 20.7195L40.4254 23.3596Z" fill="url(#paint1_linear_1415_22276)"/>
<path d="M40.5228 23.2643L36.4158 19.1572L24.1929 31.3775C24.6818 31.8665 25.3662 31.8665 26.2464 31.4752L40.5228 23.2643Z" fill="url(#paint2_linear_1415_22276)"/>
<path d="M40.5228 15.0477L26.2464 6.93186C25.3667 6.4429 24.6818 6.54059 24.1929 7.02955L36.4158 19.1548L40.5228 15.0477Z" fill="url(#paint3_linear_1415_22276)"/>
<path opacity="0.2" d="M40.425 23.1641L26.2462 31.1849C25.4642 31.6739 24.7794 31.5756 24.2925 31.1849L24.1948 31.2826L24.2925 31.3803C24.7815 31.7715 25.4663 31.8692 26.2462 31.3803L40.425 23.1641Z" fill="black"/>
<path opacity="0.12" d="M24.193 31.1855C23.8999 30.8919 23.8022 30.4029 23.8022 29.8163V29.914C23.8022 30.5006 23.9976 30.9896 24.2907 31.2832V31.1855H24.193ZM45.3143 20.4289L40.4253 23.1646L40.523 23.2623L45.3143 20.5245C46.0008 20.1332 46.2923 19.6442 46.2923 19.1553C46.2923 19.6442 45.901 20.0355 45.3143 20.4262V20.4289Z" fill="black"/>
<path opacity="0.25" d="M26.2465 7.02978L45.3143 17.884C45.901 18.2748 46.2923 18.6661 46.2923 19.155C46.2923 18.6661 45.9992 18.1771 45.3143 17.7858L26.2465 6.9321C24.8779 6.14955 23.8022 6.7362 23.8022 8.30076V8.39897C23.8022 6.9321 24.8779 6.24724 26.2465 7.02978Z" fill="white"/>
<path d="M79.8714 15.5062C77.5248 15.5062 75.6667 17.2662 75.6667 19.711C75.6623 20.2643 75.7681 20.813 75.9779 21.3251C76.1876 21.8372 76.4972 22.3024 76.8885 22.6937C77.2799 23.085 77.7451 23.3945 78.2572 23.6042C78.7693 23.8139 79.3181 23.9196 79.8714 23.9152C82.2185 23.9152 84.0762 22.1552 84.0762 19.711C84.0762 17.1685 82.2185 15.5062 79.8714 15.5062ZM79.8714 22.1552C78.6004 22.1552 77.5248 21.0796 77.5248 19.6128C77.5248 18.1459 78.6004 17.0708 79.8714 17.0708C81.1424 17.0708 82.2185 18.0482 82.2185 19.6128C82.2185 21.0796 81.1429 22.1563 79.8714 22.1563V22.1552ZM70.7776 15.5062C68.431 15.5062 66.5729 17.2662 66.5729 19.711C66.5685 20.2643 66.6743 20.813 66.8841 21.3251C67.0939 21.8372 67.4034 22.3024 67.7947 22.6937C68.1861 23.085 68.6513 23.3945 69.1634 23.6042C69.6755 23.8139 70.2243 23.9196 70.7776 23.9152C73.1242 23.9152 74.9824 22.1552 74.9824 19.711C74.9824 17.1685 73.1268 15.5062 70.7776 15.5062ZM70.7776 22.1552C69.5066 22.1552 68.431 21.0796 68.431 19.6128C68.431 18.1459 69.5066 17.0708 70.7776 17.0708C72.0486 17.0708 73.1268 18.0482 73.1268 19.6128C73.1268 21.0796 72.0486 22.1563 70.7776 22.1563V22.1552ZM59.926 16.7772V18.5372H64.1307C64.033 19.5151 63.6418 20.2976 63.1533 20.7866C62.5662 21.3732 61.5861 22.0576 59.926 22.0576C57.2858 22.0576 55.3321 20.004 55.3321 17.3639C55.3321 14.7237 57.3856 12.6702 59.926 12.6702C61.2952 12.6702 62.3708 13.2568 63.1533 13.9417L64.4243 12.6702C63.3461 11.6923 61.9769 10.9092 60.0216 10.9092C56.5012 10.9092 53.4697 13.8424 53.4697 17.3628C53.4697 20.8832 56.5012 23.8164 60.0216 23.8164C61.9753 23.8164 63.3482 23.2298 64.5194 21.9588C65.6927 20.7855 66.0839 19.1227 66.0839 17.8518C66.0839 17.4605 66.0839 17.0697 65.9862 16.7762L59.926 16.7772ZM104.32 18.1464C103.929 17.1685 102.951 15.5062 100.8 15.5062C98.6488 15.5062 96.8884 17.1685 96.8884 19.711C96.8884 22.0576 98.6488 23.9152 100.995 23.9152C102.854 23.9152 104.027 22.7419 104.418 22.0576L103.049 21.0796C102.56 21.7661 101.973 22.2529 100.995 22.2529C100.017 22.2529 99.4309 21.8622 98.9419 20.982L104.516 18.6348L104.32 18.1464ZM98.6462 19.5161C98.6462 17.9516 99.9172 17.0719 100.797 17.0719C101.484 17.0719 102.166 17.4626 102.362 17.9516L98.6462 19.5161ZM94.0523 23.5255H95.9104V11.3015H94.0523V23.5255ZM91.117 16.3859C90.628 15.897 89.8455 15.408 88.8675 15.408C86.814 15.408 84.8587 17.2662 84.8587 19.6128C84.8587 21.9593 86.7163 23.7198 88.8675 23.7198C89.8455 23.7198 90.628 23.2308 91.0187 22.7419H91.1164V23.3285C91.1164 24.8931 90.2367 25.7733 88.8675 25.7733C87.7919 25.7733 87.0099 24.9913 86.814 24.3065L85.2494 24.9929C85.7384 26.0685 86.9122 27.4372 88.9652 27.4372C91.1164 27.4372 92.8769 26.1662 92.8769 23.1347V15.7016H91.1164V16.3881L91.117 16.3859ZM88.9679 22.1563C87.6969 22.1563 86.6213 21.0807 86.6213 19.6138C86.6213 18.1469 87.6969 17.0719 88.9679 17.0719C90.2388 17.0719 91.2173 18.1475 91.2173 19.6138C91.2173 21.0802 90.2351 22.1563 88.9679 22.1563ZM112.828 11.3026H108.427V23.5244H110.285V18.9305H112.828C114.881 18.9305 116.836 17.4637 116.836 15.1171C116.836 12.7705 114.878 11.3015 112.825 11.3015L112.828 11.3026ZM112.925 17.1695H110.285V12.9638H112.925C114.294 12.9638 115.076 14.137 115.076 15.0173C114.979 16.0929 114.196 17.1685 112.925 17.1685V17.1695ZM124.172 15.4091C122.804 15.4091 121.435 15.9957 120.946 17.2672L122.608 17.9537C122.999 17.2672 123.586 17.074 124.27 17.074C125.248 17.074 126.128 17.6606 126.224 18.638V18.7362C125.93 18.5403 125.148 18.2473 124.366 18.2473C122.606 18.2473 120.846 19.2252 120.846 20.9851C120.846 22.6474 122.313 23.723 123.877 23.723C125.148 23.723 125.735 23.1363 126.224 22.5497H126.321V23.5276H128.081V18.8297C127.886 16.6785 126.224 15.407 124.17 15.407L124.172 15.4091ZM123.972 22.1563C123.386 22.1563 122.505 21.8632 122.505 21.0807C122.505 20.1028 123.581 19.8097 124.459 19.8097C125.241 19.8097 125.632 20.0051 126.121 20.2005C125.93 21.3732 124.95 22.1563 123.972 22.1563ZM134.239 15.7027L132.186 20.983H132.088L129.937 15.7027H127.983L131.211 23.1332L129.353 27.2402H131.211L136.198 15.7016L134.239 15.7027ZM117.812 23.5244H119.67V11.3015H117.812V23.5244Z" fill="white"/>
<rect x="0.5" y="0.672852" width="159" height="37" rx="4.25" stroke="#737373"/>
<defs>
<linearGradient id="paint0_linear_1415_22276" x1="35.0569" y1="8.17294" x2="18.6474" y2="24.5922" gradientUnits="userSpaceOnUse">
<stop stop-color="#00A0FF"/>
<stop offset="0.01" stop-color="#00A1FF"/>
<stop offset="0.26" stop-color="#00BEFF"/>
<stop offset="0.51" stop-color="#00D2FF"/>
<stop offset="0.76" stop-color="#00DFFF"/>
<stop offset="1" stop-color="#00E3FF"/>
</linearGradient>
<linearGradient id="paint1_linear_1415_22276" x1="46.8311" y1="19.2727" x2="23.1753" y2="19.2727" gradientUnits="userSpaceOnUse">
<stop stop-color="#FFE000"/>
<stop offset="0.41" stop-color="#FFBD00"/>
<stop offset="0.78" stop-color="#FFA500"/>
<stop offset="1" stop-color="#FF9C00"/>
</linearGradient>
<linearGradient id="paint2_linear_1415_22276" x1="38.0101" y1="21.4531" x2="15.7625" y2="43.7105" gradientUnits="userSpaceOnUse">
<stop stop-color="#FF3A44"/>
<stop offset="1" stop-color="#C31162"/>
</linearGradient>
<linearGradient id="paint3_linear_1415_22276" x1="20.8476" y1="-0.129365" x2="30.7833" y2="9.80629" gradientUnits="userSpaceOnUse">
<stop stop-color="#32A071"/>
<stop offset="0.07" stop-color="#2DA771"/>
<stop offset="0.48" stop-color="#15CF74"/>
<stop offset="0.8" stop-color="#06E775"/>
<stop offset="1" stop-color="#00F076"/>
</linearGradient>
</defs>
</svg>
