<svg width="187" height="19" viewBox="0 0 187 19" fill="none" xmlns="http://www.w3.org/2000/svg">
<path d="M0.431993 18.084V16.5386C0.791017 16.523 1.0876 16.4762 1.32175 16.3981C1.5715 16.3201 1.75882 16.1406 1.8837 15.8596C2.02419 15.5786 2.09443 15.1259 2.09443 14.5015V5.53374C2.09443 5.11228 2.10224 4.70642 2.11785 4.31618C2.14907 3.92594 2.17248 3.62935 2.18809 3.42642C1.93833 3.44203 1.62614 3.45764 1.2515 3.47325C0.876871 3.47325 0.6037 3.48106 0.431993 3.49667V1.69374H7.15199V3.23911C6.80858 3.25472 6.51199 3.30155 6.26224 3.3796C6.01248 3.45764 5.81736 3.63716 5.67687 3.91813C5.55199 4.1835 5.48955 4.63618 5.48955 5.27618V8.8352H7.17541L8.97833 5.76789C9.2437 5.29959 9.52467 4.8313 9.82126 4.36301C10.1178 3.89472 10.3676 3.57472 10.5705 3.40301C10.3208 3.41862 10.0554 3.43423 9.77443 3.44984C9.49346 3.46545 9.26711 3.48106 9.09541 3.49667V1.69374H14.832V3.23911C14.4886 3.25472 14.1139 3.31716 13.7081 3.42642C13.3178 3.53569 12.912 3.75423 12.4905 4.08203C12.0691 4.40984 11.6398 4.92496 11.2027 5.6274L8.95492 9.23325C9.26711 9.43618 9.54028 9.65472 9.77443 9.88886C10.0242 10.1074 10.2427 10.3494 10.43 10.6147L12.8417 14.0098C13.1539 14.4469 13.4739 14.8606 13.8017 15.2508C14.1452 15.6254 14.4964 15.9298 14.8554 16.164C15.2144 16.3981 15.5656 16.523 15.9091 16.5386V18.084H12.3032C12.1783 18.0684 11.9754 17.9279 11.6944 17.6625C11.4135 17.3972 11.1169 17.0772 10.8047 16.7025C10.4925 16.3279 10.2271 15.9923 10.0086 15.6957L7.69053 12.324C7.4876 12.0274 7.26126 11.723 7.0115 11.4108C6.77736 11.0986 6.55102 10.8645 6.33248 10.7084H5.48955V14.244C5.48955 14.6654 5.48175 15.0713 5.46614 15.4615C5.45053 15.8518 5.42711 16.1484 5.39589 16.3513C5.64565 16.3201 5.95785 16.3045 6.33248 16.3045C6.72272 16.2889 6.99589 16.2811 7.15199 16.2811V18.084H0.431993ZM21.7755 18.4586C20.6516 18.4586 19.637 18.2167 18.7316 17.7328C17.8263 17.2489 17.1082 16.562 16.5775 15.6723C16.0624 14.7669 15.8048 13.7054 15.8048 12.4879C15.8048 11.1923 16.0702 10.0606 16.6009 9.09277C17.1472 8.10935 17.8653 7.35228 18.755 6.82155C19.6604 6.2752 20.6438 6.00203 21.7053 6.00203C22.8292 6.00203 23.836 6.24399 24.7258 6.72789C25.6155 7.21179 26.318 7.90642 26.8331 8.81179C27.3482 9.70155 27.6058 10.7708 27.6058 12.0196C27.6058 13.3308 27.356 14.4703 26.8565 15.4381C26.357 16.4059 25.6702 17.1552 24.796 17.6859C23.9219 18.2011 22.915 18.4586 21.7755 18.4586ZM21.8692 16.7962C22.4936 16.7806 22.9619 16.562 23.2741 16.1406C23.6019 15.7191 23.8282 15.1884 23.9531 14.5484C24.078 13.9084 24.1404 13.2606 24.1404 12.605C24.1404 12.0274 24.0936 11.442 23.9999 10.8489C23.9219 10.2557 23.7892 9.71716 23.6019 9.23325C23.4146 8.74935 23.157 8.35911 22.8292 8.06252C22.517 7.76594 22.1267 7.62545 21.6585 7.64106C21.0497 7.65667 20.5658 7.8752 20.2067 8.29667C19.8633 8.71813 19.6136 9.24886 19.4575 9.88886C19.317 10.5133 19.2467 11.1689 19.2467 11.8557C19.2467 12.6518 19.3326 13.4323 19.5043 14.1972C19.676 14.962 19.9492 15.5942 20.3238 16.0937C20.7141 16.5776 21.2292 16.8118 21.8692 16.7962ZM29.067 18.084V16.562C29.5041 16.562 29.8163 16.4762 30.0036 16.3045C30.1909 16.1328 30.308 15.8908 30.3548 15.5786C30.4172 15.2508 30.4485 14.884 30.4485 14.4781V10.5445C30.4485 10.2635 30.4563 9.9513 30.4719 9.60789C30.4875 9.24886 30.5109 8.89764 30.5421 8.55423C30.2924 8.56984 29.9958 8.58545 29.6524 8.60106C29.3245 8.60106 29.0748 8.60886 28.9031 8.62447V6.84496C29.6211 6.84496 30.2299 6.80594 30.7294 6.72789C31.2289 6.64984 31.6192 6.55618 31.9002 6.44691C32.1967 6.33764 32.3997 6.23618 32.5089 6.14252H33.6563C33.6875 6.34545 33.7031 6.49374 33.7031 6.5874C33.7031 6.68106 33.7031 6.77472 33.7031 6.86838C33.7187 6.94642 33.7499 7.09472 33.7967 7.31325C34.1089 7.0635 34.468 6.84496 34.8738 6.65764C35.2797 6.45472 35.6855 6.29862 36.0914 6.18935C36.4972 6.06447 36.8563 6.00203 37.1685 6.00203C38.6045 6.00203 39.6192 6.41569 40.2124 7.24301C40.8211 8.05472 41.1255 9.36594 41.1255 11.1767V14.3142C41.1255 14.5328 41.1177 14.845 41.1021 15.2508C41.0865 15.6411 41.0631 16.0157 41.0319 16.3747C41.2972 16.3435 41.5782 16.3279 41.8748 16.3279C42.1714 16.3123 42.3977 16.3045 42.5538 16.3045V18.084H36.4192V16.562C36.8563 16.562 37.1685 16.4762 37.3558 16.3045C37.5587 16.1328 37.6836 15.8908 37.7304 15.5786C37.7928 15.2508 37.8241 14.884 37.8241 14.4781L37.8006 11.1533C37.8006 10.1386 37.6524 9.38935 37.3558 8.90545C37.0748 8.40594 36.5909 8.15618 35.9041 8.15618C35.5138 8.15618 35.1236 8.24203 34.7333 8.41374C34.3587 8.58545 34.0387 8.78838 33.7733 9.02252C33.7733 9.24106 33.7733 9.4674 33.7733 9.70155C33.7733 9.92008 33.7733 10.1386 33.7733 10.3572V14.3142C33.7733 14.5328 33.7655 14.845 33.7499 15.2508C33.7343 15.6411 33.7109 16.0157 33.6797 16.3747C33.9294 16.3435 34.2026 16.3279 34.4992 16.3279C34.8114 16.3123 35.0455 16.3045 35.2016 16.3045V18.084H29.067ZM48.2174 18.4586C47.7491 18.4586 47.2964 18.404 46.8594 18.2947C46.4379 18.1854 46.0477 17.9825 45.6886 17.6859C45.3452 17.3737 45.072 16.9211 44.8691 16.3279C44.6662 15.7347 44.5647 14.9464 44.5647 13.963L44.6116 8.32008H43.0194V6.37667C43.5033 6.36106 43.9716 6.19716 44.4242 5.88496C44.8769 5.57277 45.2594 5.16691 45.5716 4.6674C45.8994 4.16789 46.1179 3.64496 46.2272 3.09862H47.9599L47.9364 6.37667H50.9101V8.1796L47.9364 8.24984L47.913 14.0098C47.913 14.3689 47.9442 14.7279 48.0067 15.0869C48.0847 15.4303 48.2252 15.7191 48.4281 15.9533C48.6311 16.1718 48.9277 16.2811 49.3179 16.2811C49.5364 16.2811 49.833 16.203 50.2077 16.0469C50.5979 15.8908 51.0116 15.5006 51.4486 14.8762L52.5725 15.9298C52.1511 16.5542 51.714 17.0381 51.2613 17.3815C50.8086 17.725 50.3716 17.9747 49.9501 18.1308C49.5442 18.2869 49.1852 18.3806 48.873 18.4118C48.5608 18.443 48.3423 18.4586 48.2174 18.4586ZM58.5687 18.4586C57.4292 18.4586 56.4224 18.2089 55.5482 17.7094C54.6741 17.1942 53.995 16.4762 53.5111 15.5552C53.0272 14.6186 52.7853 13.5181 52.7853 12.2537C52.7853 11.1611 53.0272 10.1386 53.5111 9.18642C53.995 8.23423 54.6741 7.46935 55.5482 6.89179C56.438 6.29862 57.4682 6.00203 58.6389 6.00203C59.2945 6.00203 59.9345 6.09569 60.5589 6.28301C61.1833 6.45472 61.7453 6.75911 62.2448 7.19618C62.7599 7.63325 63.1658 8.22642 63.4624 8.97569C63.7745 9.72496 63.9228 10.6615 63.9072 11.7854L56.2272 11.9259C56.2272 12.7689 56.3287 13.5259 56.5316 14.1972C56.7502 14.8684 57.1014 15.3991 57.5853 15.7894C58.0692 16.1796 58.717 16.3747 59.5287 16.3747C59.8409 16.3747 60.1921 16.3201 60.5824 16.2108C60.9882 16.1015 61.3941 15.922 61.7999 15.6723C62.2214 15.4069 62.6116 15.0557 62.9706 14.6186L64.0243 15.602C63.4624 16.3981 62.8614 17.0069 62.2214 17.4284C61.5814 17.8342 60.9414 18.1074 60.3014 18.2479C59.677 18.3884 59.0994 18.4586 58.5687 18.4586ZM56.3677 10.2869H60.676C60.6604 9.6313 60.5667 9.11618 60.395 8.74155C60.2389 8.3513 60.0204 8.07033 59.7394 7.89862C59.4584 7.72691 59.1306 7.64106 58.756 7.64106C58.0692 7.64106 57.5306 7.89081 57.1404 8.39033C56.7502 8.87423 56.4926 9.50642 56.3677 10.2869ZM65.3844 18.084V16.562C65.8214 16.562 66.1336 16.4762 66.3209 16.3045C66.5083 16.1328 66.6253 15.8908 66.6722 15.5786C66.7346 15.2508 66.7658 14.884 66.7658 14.4781V10.5445C66.7658 10.2635 66.7736 9.9513 66.7892 9.60789C66.8048 9.24886 66.8283 8.89764 66.8595 8.55423C66.6097 8.56984 66.3131 8.58545 65.9697 8.60106C65.6419 8.60106 65.3922 8.60886 65.2205 8.62447V6.84496C65.9385 6.84496 66.5473 6.80594 67.0468 6.72789C67.5463 6.64984 67.9366 6.55618 68.2175 6.44691C68.5141 6.33764 68.717 6.23618 68.8263 6.14252H69.9736C70.0048 6.34545 70.0205 6.49374 70.0205 6.5874C70.0205 6.68106 70.0205 6.77472 70.0205 6.86838C70.0361 6.94642 70.0673 7.09472 70.1141 7.31325C70.4263 7.0635 70.7853 6.84496 71.1912 6.65764C71.597 6.45472 72.0029 6.29862 72.4088 6.18935C72.8146 6.06447 73.1736 6.00203 73.4858 6.00203C74.9219 6.00203 75.9366 6.41569 76.5297 7.24301C77.1385 8.05472 77.4429 9.36594 77.4429 11.1767V14.3142C77.4429 14.5328 77.4351 14.845 77.4195 15.2508C77.4039 15.6411 77.3805 16.0157 77.3492 16.3747C77.6146 16.3435 77.8956 16.3279 78.1922 16.3279C78.4888 16.3123 78.7151 16.3045 78.8712 16.3045V18.084H72.7366V16.562C73.1736 16.562 73.4858 16.4762 73.6731 16.3045C73.8761 16.1328 74.0009 15.8908 74.0478 15.5786C74.1102 15.2508 74.1414 14.884 74.1414 14.4781L74.118 11.1533C74.118 10.1386 73.9697 9.38935 73.6731 8.90545C73.3922 8.40594 72.9083 8.15618 72.2214 8.15618C71.8312 8.15618 71.4409 8.24203 71.0507 8.41374C70.6761 8.58545 70.3561 8.78838 70.0907 9.02252C70.0907 9.24106 70.0907 9.4674 70.0907 9.70155C70.0907 9.92008 70.0907 10.1386 70.0907 10.3572V14.3142C70.0907 14.5328 70.0829 14.845 70.0673 15.2508C70.0517 15.6411 70.0283 16.0157 69.997 16.3747C70.2468 16.3435 70.52 16.3279 70.8166 16.3279C71.1288 16.3123 71.3629 16.3045 71.519 16.3045V18.084H65.3844ZM86.1634 16.5386C86.5224 16.523 86.819 16.4762 87.0531 16.3981C87.3029 16.3201 87.4902 16.1406 87.6151 15.8596C87.7556 15.5786 87.8258 15.1259 87.8258 14.5015V5.53374C87.8258 5.11228 87.8336 4.70642 87.8492 4.31618C87.8805 3.92594 87.9039 3.62935 87.9195 3.42642C87.6697 3.44203 87.3575 3.45764 86.9829 3.47325C86.6083 3.47325 86.3351 3.48106 86.1634 3.49667V1.69374C87.2717 1.67813 88.38 1.67033 89.4883 1.67033C90.5966 1.67033 91.7048 1.66252 92.8131 1.64691C94.1868 1.6313 95.3809 1.81082 96.3956 2.18545C97.4258 2.56008 98.2141 3.13764 98.7605 3.91813C99.3224 4.69862 99.5878 5.71325 99.5566 6.96203C99.5409 7.58642 99.3927 8.20301 99.1117 8.81179C98.8307 9.40496 98.417 9.9513 97.8707 10.4508C97.3244 10.9347 96.6375 11.3328 95.8102 11.645C94.9829 11.9572 94.0151 12.1289 92.9068 12.1601C92.5634 12.1757 92.259 12.1835 91.9936 12.1835C91.7439 12.1835 91.4863 12.1757 91.2209 12.1601V14.2206C91.2209 14.6576 91.2131 15.0713 91.1975 15.4615C91.1819 15.8518 91.1585 16.1484 91.1273 16.3513C91.299 16.3357 91.5175 16.3279 91.7829 16.3279C92.0483 16.3123 92.3058 16.3045 92.5556 16.3045C92.8209 16.2889 93.0083 16.2811 93.1175 16.2811V18.084H86.1634V16.5386ZM91.2209 10.404C91.3927 10.4196 91.5644 10.4352 91.7361 10.4508C91.9078 10.4664 92.0873 10.4742 92.2746 10.4742C93.1331 10.4742 93.8278 10.3337 94.3585 10.0528C94.9048 9.75618 95.3029 9.33472 95.5527 8.78838C95.8024 8.22642 95.9273 7.5474 95.9273 6.7513C95.9273 5.97081 95.818 5.34642 95.5995 4.87813C95.3966 4.40984 95.1312 4.06642 94.8034 3.84789C94.4756 3.61374 94.1322 3.46545 93.7731 3.40301C93.4141 3.32496 93.0863 3.28594 92.7897 3.28594C92.4619 3.28594 92.1809 3.32496 91.9468 3.40301C91.7127 3.48106 91.5331 3.65277 91.4083 3.91813C91.2834 4.1835 91.2209 4.58935 91.2209 5.13569V10.404ZM100.673 16.562C101.11 16.562 101.422 16.4762 101.609 16.3045C101.797 16.1328 101.914 15.8908 101.961 15.5786C102.023 15.2508 102.054 14.884 102.054 14.4781V10.5445C102.054 10.2635 102.062 9.9513 102.078 9.60789C102.093 9.24886 102.117 8.89764 102.148 8.55423C101.898 8.56984 101.602 8.58545 101.258 8.60106C100.93 8.60106 100.681 8.60886 100.509 8.62447V6.84496H101.445C102.054 6.84496 102.608 6.76691 103.108 6.61082C103.623 6.45472 103.959 6.29862 104.115 6.14252H105.262C105.293 6.29862 105.317 6.59521 105.332 7.03228C105.348 7.45374 105.356 7.82838 105.356 8.15618C105.777 7.64106 106.175 7.2274 106.55 6.9152C106.924 6.60301 107.291 6.37667 107.65 6.23618C108.025 6.08008 108.4 6.00203 108.774 6.00203C109.321 6.00203 109.797 6.15813 110.203 6.47033C110.608 6.76691 110.811 7.25862 110.811 7.94545C110.811 8.1796 110.757 8.42935 110.647 8.69472C110.538 8.94447 110.366 9.1552 110.132 9.32691C109.898 9.49862 109.578 9.58447 109.172 9.58447C108.86 9.58447 108.54 9.49081 108.212 9.3035C107.884 9.11618 107.697 8.75716 107.65 8.22642C107.338 8.22642 107.026 8.35911 106.714 8.62447C106.402 8.87423 106.121 9.17862 105.871 9.53764C105.637 9.88106 105.473 10.2011 105.379 10.4976V14.3142C105.379 14.5328 105.371 14.845 105.356 15.2508C105.34 15.6411 105.317 16.0157 105.285 16.3747C105.535 16.3435 105.808 16.3279 106.105 16.3279C106.417 16.3123 106.651 16.3045 106.807 16.3045V18.084H100.673V16.562ZM117.055 18.4586C115.915 18.4586 114.909 18.2089 114.034 17.7094C113.16 17.1942 112.481 16.4762 111.997 15.5552C111.514 14.6186 111.272 13.5181 111.272 12.2537C111.272 11.1611 111.514 10.1386 111.997 9.18642C112.481 8.23423 113.16 7.46935 114.034 6.89179C114.924 6.29862 115.954 6.00203 117.125 6.00203C117.781 6.00203 118.421 6.09569 119.045 6.28301C119.67 6.45472 120.232 6.75911 120.731 7.19618C121.246 7.63325 121.652 8.22642 121.949 8.97569C122.261 9.72496 122.409 10.6615 122.394 11.7854L114.714 11.9259C114.714 12.7689 114.815 13.5259 115.018 14.1972C115.236 14.8684 115.588 15.3991 116.072 15.7894C116.555 16.1796 117.203 16.3747 118.015 16.3747C118.327 16.3747 118.678 16.3201 119.069 16.2108C119.474 16.1015 119.88 15.922 120.286 15.6723C120.708 15.4069 121.098 15.0557 121.457 14.6186L122.511 15.602C121.949 16.3981 121.348 17.0069 120.708 17.4284C120.068 17.8342 119.428 18.1074 118.788 18.2479C118.163 18.3884 117.586 18.4586 117.055 18.4586ZM114.854 10.2869H119.162C119.147 9.6313 119.053 9.11618 118.881 8.74155C118.725 8.3513 118.507 8.07033 118.226 7.89862C117.945 7.72691 117.617 7.64106 117.242 7.64106C116.555 7.64106 116.017 7.89081 115.627 8.39033C115.236 8.87423 114.979 9.50642 114.854 10.2869ZM123.871 18.084V16.562C124.308 16.562 124.62 16.4762 124.807 16.3045C124.995 16.1328 125.112 15.8908 125.158 15.5786C125.221 15.2508 125.252 14.884 125.252 14.4781V10.5445C125.252 10.2635 125.26 9.9513 125.276 9.60789C125.291 9.24886 125.315 8.89764 125.346 8.55423C125.096 8.56984 124.799 8.58545 124.456 8.60106C124.128 8.60106 123.878 8.60886 123.707 8.62447V6.84496C124.425 6.84496 125.034 6.80594 125.533 6.72789C126.033 6.64984 126.423 6.55618 126.704 6.44691C127 6.33764 127.203 6.23618 127.313 6.14252H128.46C128.491 6.29862 128.507 6.49374 128.507 6.72789C128.522 6.96203 128.538 7.15716 128.554 7.31325C129.084 6.9074 129.654 6.5874 130.263 6.35325C130.887 6.11911 131.473 6.00203 132.019 6.00203C132.737 6.00203 133.33 6.13472 133.798 6.40008C134.267 6.64984 134.641 7.03228 134.922 7.5474C135.484 7.07911 136.101 6.70447 136.772 6.4235C137.459 6.14252 138.115 6.00203 138.739 6.00203C140.003 6.00203 140.956 6.36886 141.596 7.10252C142.251 7.82057 142.579 9.07716 142.579 10.8723V14.3142C142.579 14.5328 142.571 14.845 142.556 15.2508C142.54 15.6411 142.516 16.0157 142.485 16.3747C142.735 16.3435 143.008 16.3279 143.305 16.3279C143.617 16.3123 143.851 16.3045 144.007 16.3045V18.084H138.083V16.562C138.442 16.562 138.7 16.4762 138.856 16.3045C139.028 16.1328 139.137 15.8908 139.184 15.5786C139.231 15.2508 139.254 14.884 139.254 14.4781V10.8957C139.238 9.88106 139.067 9.17862 138.739 8.78838C138.427 8.39813 138.005 8.1952 137.475 8.1796C137.069 8.16399 136.686 8.23423 136.327 8.39033C135.984 8.54642 135.672 8.73374 135.391 8.95228C135.469 9.26447 135.523 9.60789 135.555 9.98252C135.586 10.3572 135.601 10.7552 135.601 11.1767C135.601 11.7074 135.601 12.2303 135.601 12.7454C135.601 13.2606 135.601 13.7835 135.601 14.3142C135.601 14.5328 135.594 14.845 135.578 15.2508C135.562 15.6411 135.539 16.0157 135.508 16.3747C135.757 16.3435 136.031 16.3279 136.327 16.3279C136.624 16.3123 136.858 16.3045 137.03 16.3045V18.084H130.989V16.562C131.395 16.562 131.683 16.4762 131.855 16.3045C132.042 16.1328 132.159 15.8908 132.206 15.5786C132.253 15.2508 132.276 14.884 132.276 14.4781L132.253 10.8254C132.253 9.81081 132.105 9.11618 131.808 8.74155C131.512 8.36691 131.098 8.17179 130.567 8.15618C130.177 8.15618 129.81 8.24203 129.467 8.41374C129.139 8.58545 128.842 8.78838 128.577 9.02252C128.577 9.22545 128.577 9.42057 128.577 9.60789C128.577 9.7952 128.577 9.99033 128.577 10.1933V14.3142C128.577 14.5328 128.569 14.845 128.554 15.2508C128.538 15.6411 128.515 16.0157 128.483 16.3747C128.733 16.3435 128.991 16.3279 129.256 16.3279C129.521 16.3123 129.732 16.3045 129.888 16.3045V18.084H123.871ZM145.176 16.562C145.613 16.562 145.925 16.4762 146.113 16.3045C146.3 16.1328 146.417 15.8908 146.464 15.5786C146.526 15.2508 146.558 14.884 146.558 14.4781V10.5913C146.558 10.3103 146.565 9.99033 146.581 9.6313C146.597 9.25667 146.62 8.89764 146.651 8.55423C146.401 8.56984 146.105 8.58545 145.761 8.60106C145.434 8.60106 145.184 8.60886 145.012 8.62447V6.84496C145.73 6.84496 146.339 6.80594 146.839 6.72789C147.338 6.64984 147.728 6.55618 148.009 6.44691C148.306 6.33764 148.509 6.23618 148.618 6.14252H149.882V14.3142C149.882 14.5328 149.875 14.845 149.859 15.2508C149.843 15.6411 149.82 16.0157 149.789 16.3747C150.039 16.3435 150.312 16.3279 150.608 16.3279C150.921 16.3123 151.155 16.3045 151.311 16.3045V18.084H145.176V16.562ZM148.103 4.29277C147.572 4.29277 147.135 4.10545 146.792 3.73081C146.448 3.35618 146.277 2.9035 146.277 2.37277C146.277 1.84203 146.456 1.38935 146.815 1.01472C147.174 0.640084 147.596 0.452767 148.08 0.452767C148.579 0.452767 148.993 0.640084 149.321 1.01472C149.664 1.38935 149.836 1.84203 149.836 2.37277C149.836 2.9035 149.68 3.35618 149.367 3.73081C149.055 4.10545 148.634 4.29277 148.103 4.29277ZM157.449 18.4586C156.512 18.4586 155.755 18.2791 155.178 17.9201C154.616 17.5611 154.202 16.9991 153.937 16.2342C153.687 15.4694 153.562 14.4859 153.562 13.284V10.5913C153.562 10.3103 153.57 9.99033 153.585 9.6313C153.601 9.25667 153.617 8.89764 153.632 8.55423C153.383 8.56984 153.086 8.58545 152.743 8.60106C152.415 8.60106 152.165 8.60886 151.993 8.62447V6.84496H152.227C153.195 6.84496 153.96 6.76691 154.522 6.61082C155.084 6.45472 155.443 6.29862 155.599 6.14252H156.887V13.3074C156.887 14.322 157.02 15.0791 157.285 15.5786C157.55 16.0625 157.972 16.3045 158.549 16.3045C158.955 16.3045 159.361 16.1952 159.767 15.9767C160.188 15.7425 160.532 15.4772 160.797 15.1806V10.5913C160.797 10.3103 160.805 9.99033 160.821 9.6313C160.836 9.25667 160.86 8.89764 160.891 8.55423C160.641 8.56984 160.344 8.58545 160.001 8.60106C159.673 8.60106 159.423 8.60886 159.252 8.62447V6.84496H159.814C160.547 6.84496 161.195 6.76691 161.757 6.61082C162.319 6.43911 162.678 6.28301 162.834 6.14252H164.122V14.3142C164.122 14.5328 164.114 14.845 164.099 15.2508C164.083 15.6411 164.06 16.0157 164.028 16.3747C164.278 16.3435 164.551 16.3279 164.848 16.3279C165.16 16.3123 165.394 16.3045 165.55 16.3045V18.084H161.102C161.086 17.8811 161.063 17.6781 161.031 17.4752C161.016 17.2723 160.992 17.0694 160.961 16.8664C160.477 17.2723 159.954 17.6391 159.392 17.9669C158.846 18.2947 158.198 18.4586 157.449 18.4586ZM166.842 18.084V16.562C167.279 16.562 167.591 16.4762 167.779 16.3045C167.966 16.1328 168.083 15.8908 168.13 15.5786C168.192 15.2508 168.223 14.884 168.223 14.4781V10.5445C168.223 10.2635 168.231 9.9513 168.247 9.60789C168.262 9.24886 168.286 8.89764 168.317 8.55423C168.067 8.56984 167.771 8.58545 167.427 8.60106C167.1 8.60106 166.85 8.60886 166.678 8.62447V6.84496C167.396 6.84496 168.005 6.80594 168.504 6.72789C169.004 6.64984 169.394 6.55618 169.675 6.44691C169.972 6.33764 170.175 6.23618 170.284 6.14252H171.431C171.462 6.29862 171.478 6.49374 171.478 6.72789C171.494 6.96203 171.509 7.15716 171.525 7.31325C172.056 6.9074 172.625 6.5874 173.234 6.35325C173.859 6.11911 174.444 6.00203 174.99 6.00203C175.708 6.00203 176.301 6.13472 176.77 6.40008C177.238 6.64984 177.613 7.03228 177.894 7.5474C178.456 7.07911 179.072 6.70447 179.743 6.4235C180.43 6.14252 181.086 6.00203 181.71 6.00203C182.975 6.00203 183.927 6.36886 184.567 7.10252C185.222 7.82057 185.55 9.07716 185.55 10.8723V14.3142C185.55 14.5328 185.542 14.845 185.527 15.2508C185.511 15.6411 185.488 16.0157 185.457 16.3747C185.706 16.3435 185.98 16.3279 186.276 16.3279C186.588 16.3123 186.822 16.3045 186.979 16.3045V18.084H181.055V16.562C181.414 16.562 181.671 16.4762 181.827 16.3045C181.999 16.1328 182.108 15.8908 182.155 15.5786C182.202 15.2508 182.225 14.884 182.225 14.4781V10.8957C182.21 9.88106 182.038 9.17862 181.71 8.78838C181.398 8.39813 180.977 8.1952 180.446 8.1796C180.04 8.16399 179.658 8.23423 179.299 8.39033C178.955 8.54642 178.643 8.73374 178.362 8.95228C178.44 9.26447 178.495 9.60789 178.526 9.98252C178.557 10.3572 178.573 10.7552 178.573 11.1767C178.573 11.7074 178.573 12.2303 178.573 12.7454C178.573 13.2606 178.573 13.7835 178.573 14.3142C178.573 14.5328 178.565 14.845 178.549 15.2508C178.534 15.6411 178.51 16.0157 178.479 16.3747C178.729 16.3435 179.002 16.3279 179.299 16.3279C179.595 16.3123 179.829 16.3045 180.001 16.3045V18.084H173.96V16.562C174.366 16.562 174.655 16.4762 174.826 16.3045C175.014 16.1328 175.131 15.8908 175.178 15.5786C175.224 15.2508 175.248 14.884 175.248 14.4781L175.224 10.8254C175.224 9.81081 175.076 9.11618 174.78 8.74155C174.483 8.36691 174.069 8.17179 173.539 8.15618C173.148 8.15618 172.781 8.24203 172.438 8.41374C172.11 8.58545 171.814 8.78838 171.548 9.02252C171.548 9.22545 171.548 9.42057 171.548 9.60789C171.548 9.7952 171.548 9.99033 171.548 10.1933V14.3142C171.548 14.5328 171.541 14.845 171.525 15.2508C171.509 15.6411 171.486 16.0157 171.455 16.3747C171.704 16.3435 171.962 16.3279 172.227 16.3279C172.493 16.3123 172.703 16.3045 172.86 16.3045V18.084H166.842Z" fill="#3D3D3D"/>
</svg>
