<svg width="127" height="21" viewBox="0 0 127 21" fill="none" xmlns="http://www.w3.org/2000/svg">
<path d="M1.40792 16.5V15.4698C1.64727 15.4593 1.84499 15.4281 2.00109 15.3761C2.16759 15.3241 2.29247 15.2044 2.37572 15.0171C2.46938 14.8298 2.51621 14.528 2.51621 14.1117V8.13317C2.51621 7.8522 2.52141 7.58163 2.53182 7.32147C2.55263 7.0613 2.56824 6.86358 2.57865 6.72829C2.41214 6.7387 2.20401 6.74911 1.95426 6.75951C1.7045 6.75951 1.52239 6.76472 1.40792 6.77512V5.57317H5.88792V6.60342C5.65897 6.61382 5.46125 6.64504 5.29475 6.69708C5.12824 6.74911 4.99816 6.86878 4.9045 7.0561C4.82125 7.23301 4.77962 7.5348 4.77962 7.96147V10.3341H5.90353L7.10548 8.28927C7.28239 7.97707 7.4697 7.66488 7.66743 7.35269C7.86515 7.04049 8.03166 6.82716 8.16694 6.71269C8.00044 6.72309 7.82353 6.7335 7.63621 6.74391C7.44889 6.75431 7.298 6.76472 7.18353 6.77512V5.57317H11.0079V6.60342C10.779 6.61382 10.5292 6.65545 10.2586 6.72829C9.99848 6.80114 9.72792 6.94683 9.44694 7.16537C9.16596 7.3839 8.87979 7.72732 8.5884 8.19561L7.08987 10.5995C7.298 10.7348 7.48011 10.8805 7.63621 11.0366C7.80271 11.1823 7.9484 11.3436 8.07328 11.5205L9.68109 13.7839C9.88922 14.0753 10.1025 14.3511 10.3211 14.6112C10.55 14.861 10.7842 15.0639 11.0235 15.22C11.2629 15.3761 11.497 15.4593 11.726 15.4698V16.5H9.32206C9.23881 16.4896 9.10353 16.3959 8.91621 16.219C8.72889 16.0421 8.53117 15.8288 8.32304 15.579C8.11491 15.3293 7.938 15.1055 7.79231 14.9078L6.24694 12.66C6.11166 12.4623 5.96076 12.2594 5.79426 12.0512C5.63816 11.8431 5.48727 11.687 5.34158 11.5829H4.77962V13.94C4.77962 14.221 4.77442 14.4915 4.76401 14.7517C4.75361 15.0119 4.738 15.2096 4.71719 15.3449C4.88369 15.3241 5.09182 15.3137 5.34158 15.3137C5.60174 15.3033 5.78385 15.298 5.88792 15.298V16.5H1.40792ZM15.6369 16.7498C14.8877 16.7498 14.2112 16.5885 13.6077 16.2659C13.0041 15.9433 12.5254 15.4854 12.1716 14.8922C11.8282 14.2886 11.6565 13.581 11.6565 12.7693C11.6565 11.9055 11.8334 11.1511 12.1872 10.5059C12.5514 9.85025 13.0301 9.34553 13.6233 8.99171C14.2269 8.62748 14.8825 8.44537 15.5901 8.44537C16.3394 8.44537 17.0106 8.60667 17.6038 8.92927C18.1969 9.25187 18.6652 9.71496 19.0086 10.3185C19.3521 10.9117 19.5238 11.6246 19.5238 12.4571C19.5238 13.3312 19.3573 14.0909 19.0243 14.7361C18.6912 15.3813 18.2334 15.8808 17.6506 16.2346C17.0678 16.578 16.3966 16.7498 15.6369 16.7498ZM15.6994 15.6415C16.1156 15.6311 16.4278 15.4854 16.636 15.2044C16.8545 14.9234 17.0054 14.5696 17.0886 14.1429C17.1719 13.7163 17.2135 13.2844 17.2135 12.8473C17.2135 12.4623 17.1823 12.072 17.1199 11.6766C17.0678 11.2811 16.9794 10.9221 16.8545 10.5995C16.7296 10.2769 16.5579 10.0167 16.3394 9.81903C16.1312 9.6213 15.8711 9.52764 15.5589 9.53805C15.153 9.54846 14.8304 9.69415 14.5911 9.97512C14.3621 10.2561 14.1956 10.6099 14.0916 11.0366C13.9979 11.4528 13.9511 11.8899 13.9511 12.3478C13.9511 12.8785 14.0083 13.3989 14.1228 13.9088C14.2373 14.4187 14.4194 14.8402 14.6691 15.1732C14.9293 15.4958 15.2727 15.6519 15.6994 15.6415ZM20.4979 16.5V15.4854C20.7893 15.4854 20.9974 15.4281 21.1223 15.3137C21.2472 15.1992 21.3252 15.0379 21.3564 14.8298C21.3981 14.6112 21.4189 14.3667 21.4189 14.0961V11.4737C21.4189 11.2863 21.4241 11.0782 21.4345 10.8493C21.4449 10.6099 21.4605 10.3758 21.4813 10.1468C21.3148 10.1572 21.1171 10.1676 20.8882 10.1781C20.6696 10.1781 20.5031 10.1833 20.3886 10.1937V9.00732C20.8673 9.00732 21.2732 8.9813 21.6062 8.92927C21.9392 8.87724 22.1994 8.8148 22.3867 8.74195C22.5844 8.66911 22.7197 8.60147 22.7925 8.53903H23.5574C23.5782 8.67431 23.5886 8.77317 23.5886 8.83561C23.5886 8.89805 23.5886 8.96049 23.5886 9.02293C23.599 9.07496 23.6199 9.17382 23.6511 9.31951C23.8592 9.15301 24.0986 9.00732 24.3691 8.88244C24.6397 8.74716 24.9103 8.64309 25.1808 8.57025C25.4514 8.48699 25.6908 8.44537 25.8989 8.44537C26.8563 8.44537 27.5327 8.72114 27.9282 9.27268C28.334 9.81382 28.5369 10.688 28.5369 11.8951V13.9868C28.5369 14.1325 28.5317 14.3407 28.5213 14.6112C28.5109 14.8714 28.4953 15.1211 28.4745 15.3605C28.6514 15.3397 28.8387 15.3293 29.0364 15.3293C29.2342 15.3189 29.3851 15.3137 29.4891 15.3137V16.5H25.3994V15.4854C25.6908 15.4854 25.8989 15.4281 26.0238 15.3137C26.159 15.1992 26.2423 15.0379 26.2735 14.8298C26.3151 14.6112 26.336 14.3667 26.336 14.0961L26.3203 11.8795C26.3203 11.2031 26.2215 10.7036 26.0238 10.381C25.8364 10.048 25.5138 9.88146 25.056 9.88146C24.7958 9.88146 24.5356 9.9387 24.2755 10.0532C24.0257 10.1676 23.8124 10.3029 23.6355 10.459C23.6355 10.6047 23.6355 10.7556 23.6355 10.9117C23.6355 11.0574 23.6355 11.2031 23.6355 11.3488V13.9868C23.6355 14.1325 23.6303 14.3407 23.6199 14.6112C23.6095 14.8714 23.5938 15.1211 23.573 15.3605C23.7395 15.3397 23.9217 15.3293 24.1194 15.3293C24.3275 15.3189 24.4836 15.3137 24.5877 15.3137V16.5H20.4979ZM33.2649 16.7498C32.9527 16.7498 32.6509 16.7133 32.3595 16.6405C32.0785 16.5676 31.8184 16.4324 31.579 16.2346C31.3501 16.0265 31.168 15.7247 31.0327 15.3293C30.8974 14.9338 30.8297 14.4083 30.8297 13.7527L30.861 9.99073H29.7995V8.69512C30.1221 8.68472 30.4343 8.57545 30.7361 8.36732C31.0379 8.15919 31.2928 7.88862 31.501 7.55561C31.7195 7.2226 31.8652 6.87399 31.938 6.50976H33.0932L33.0775 8.69512H35.06V9.89707L33.0775 9.9439L33.0619 13.7839C33.0619 14.0233 33.0827 14.2626 33.1244 14.502C33.1764 14.7309 33.2701 14.9234 33.4053 15.0795C33.5406 15.2252 33.7384 15.298 33.9985 15.298C34.1442 15.298 34.3419 15.246 34.5917 15.142C34.8519 15.0379 35.1276 14.7777 35.419 14.3615L36.1683 15.0639C35.8873 15.4802 35.5959 15.8028 35.2941 16.0317C34.9923 16.2607 34.701 16.4272 34.42 16.5312C34.1494 16.6353 33.9101 16.6977 33.7019 16.7185C33.4938 16.7393 33.3481 16.7498 33.2649 16.7498ZM40.1657 16.7498C39.406 16.7498 38.7348 16.5833 38.1521 16.2502C37.5693 15.9068 37.1166 15.4281 36.794 14.8141C36.4714 14.1898 36.3101 13.4561 36.3101 12.6132C36.3101 11.8847 36.4714 11.2031 36.794 10.5683C37.1166 9.9335 37.5693 9.42358 38.1521 9.03854C38.7452 8.64309 39.4321 8.44537 40.2125 8.44537C40.6496 8.44537 41.0763 8.50781 41.4925 8.63269C41.9088 8.74716 42.2834 8.95008 42.6164 9.24146C42.9599 9.53285 43.2304 9.92829 43.4282 10.4278C43.6363 10.9273 43.7351 11.5517 43.7247 12.301L38.6047 12.3946C38.6047 12.9566 38.6724 13.4613 38.8077 13.9088C38.9534 14.3563 39.1875 14.7101 39.5101 14.9702C39.8327 15.2304 40.2646 15.3605 40.8057 15.3605C41.0138 15.3605 41.248 15.3241 41.5082 15.2512C41.7787 15.1784 42.0493 15.0587 42.3199 14.8922C42.6008 14.7153 42.861 14.4811 43.1003 14.1898L43.8028 14.8454C43.4282 15.3761 43.0275 15.782 42.6008 16.0629C42.1742 16.3335 41.7475 16.5156 41.3208 16.6093C40.9046 16.7029 40.5195 16.7498 40.1657 16.7498ZM38.6984 11.302H41.5706C41.5602 10.8649 41.4977 10.5215 41.3833 10.2717C41.2792 10.0115 41.1335 9.82423 40.9462 9.70976C40.7589 9.59529 40.5403 9.53805 40.2906 9.53805C39.8327 9.53805 39.4737 9.70455 39.2135 10.0376C38.9534 10.3602 38.7816 10.7816 38.6984 11.302ZM44.7095 16.5V15.4854C45.0009 15.4854 45.209 15.4281 45.3339 15.3137C45.4588 15.1992 45.5368 15.0379 45.568 14.8298C45.6097 14.6112 45.6305 14.3667 45.6305 14.0961V11.4737C45.6305 11.2863 45.6357 11.0782 45.6461 10.8493C45.6565 10.6099 45.6721 10.3758 45.6929 10.1468C45.5264 10.1572 45.3287 10.1676 45.0997 10.1781C44.8812 10.1781 44.7147 10.1833 44.6002 10.1937V9.00732C45.0789 9.00732 45.4848 8.9813 45.8178 8.92927C46.1508 8.87724 46.411 8.8148 46.5983 8.74195C46.796 8.66911 46.9313 8.60147 47.0041 8.53903H47.769C47.7898 8.67431 47.8002 8.77317 47.8002 8.83561C47.8002 8.89805 47.8002 8.96049 47.8002 9.02293C47.8106 9.07496 47.8314 9.17382 47.8627 9.31951C48.0708 9.15301 48.3101 9.00732 48.5807 8.88244C48.8513 8.74716 49.1218 8.64309 49.3924 8.57025C49.663 8.48699 49.9023 8.44537 50.1105 8.44537C51.0679 8.44537 51.7443 8.72114 52.1397 9.27268C52.5456 9.81382 52.7485 10.688 52.7485 11.8951V13.9868C52.7485 14.1325 52.7433 14.3407 52.7329 14.6112C52.7225 14.8714 52.7069 15.1211 52.6861 15.3605C52.863 15.3397 53.0503 15.3293 53.248 15.3293C53.4458 15.3189 53.5966 15.3137 53.7007 15.3137V16.5H49.611V15.4854C49.9023 15.4854 50.1105 15.4281 50.2353 15.3137C50.3706 15.1992 50.4539 15.0379 50.4851 14.8298C50.5267 14.6112 50.5475 14.3667 50.5475 14.0961L50.5319 11.8795C50.5319 11.2031 50.4331 10.7036 50.2353 10.381C50.048 10.048 49.7254 9.88146 49.2675 9.88146C49.0074 9.88146 48.7472 9.9387 48.4871 10.0532C48.2373 10.1676 48.024 10.3029 47.8471 10.459C47.8471 10.6047 47.8471 10.7556 47.8471 10.9117C47.8471 11.0574 47.8471 11.2031 47.8471 11.3488V13.9868C47.8471 14.1325 47.8418 14.3407 47.8314 14.6112C47.821 14.8714 47.8054 15.1211 47.7846 15.3605C47.9511 15.3397 48.1332 15.3293 48.331 15.3293C48.5391 15.3189 48.6952 15.3137 48.7992 15.3137V16.5H44.7095ZM58.5622 15.4698C58.8015 15.4593 58.9992 15.4281 59.1553 15.3761C59.3218 15.3241 59.4467 15.2044 59.53 15.0171C59.6236 14.8298 59.6705 14.528 59.6705 14.1117V8.13317C59.6705 7.8522 59.6757 7.58163 59.6861 7.32147C59.7069 7.0613 59.7225 6.86358 59.7329 6.72829C59.5664 6.7387 59.3583 6.74911 59.1085 6.75951C58.8588 6.75951 58.6766 6.76472 58.5622 6.77512V5.57317C59.301 5.56277 60.0399 5.55756 60.7788 5.55756C61.5176 5.55756 62.2565 5.55236 62.9953 5.54195C63.9111 5.53155 64.7072 5.65122 65.3836 5.90098C66.0705 6.15073 66.596 6.53577 66.9602 7.0561C67.3349 7.57643 67.5118 8.25285 67.491 9.08537C67.4805 9.50163 67.3817 9.91268 67.1944 10.3185C67.007 10.714 66.7313 11.0782 66.367 11.4112C66.0028 11.7338 65.5449 11.9992 64.9934 12.2073C64.4418 12.4154 63.7966 12.5299 63.0578 12.5507C62.8288 12.5611 62.6259 12.5663 62.449 12.5663C62.2825 12.5663 62.1108 12.5611 61.9339 12.5507V13.9244C61.9339 14.2158 61.9287 14.4915 61.9183 14.7517C61.9079 15.0119 61.8923 15.2096 61.8714 15.3449C61.9859 15.3345 62.1316 15.3293 62.3085 15.3293C62.4854 15.3189 62.6571 15.3137 62.8236 15.3137C63.0005 15.3033 63.1254 15.298 63.1983 15.298V16.5H58.5622V15.4698ZM61.9339 11.38C62.0484 11.3904 62.1628 11.4008 62.2773 11.4112C62.3918 11.4216 62.5114 11.4268 62.6363 11.4268C63.2087 11.4268 63.6718 11.3332 64.0256 11.1459C64.3898 10.9481 64.6552 10.6672 64.8217 10.3029C64.9882 9.92829 65.0714 9.47561 65.0714 8.94488C65.0714 8.42455 64.9986 8.00829 64.8529 7.6961C64.7176 7.3839 64.5407 7.15496 64.3222 7.00927C64.1036 6.85317 63.8747 6.75431 63.6353 6.71269C63.396 6.66065 63.1775 6.63464 62.9797 6.63464C62.7612 6.63464 62.5739 6.66065 62.4178 6.71269C62.2617 6.76472 62.142 6.87919 62.0588 7.0561C61.9755 7.23301 61.9339 7.50358 61.9339 7.86781V11.38ZM68.2351 15.4854C68.5265 15.4854 68.7346 15.4281 68.8595 15.3137C68.9844 15.1992 69.0624 15.0379 69.0936 14.8298C69.1353 14.6112 69.1561 14.3667 69.1561 14.0961V11.4737C69.1561 11.2863 69.1613 11.0782 69.1717 10.8493C69.1821 10.6099 69.1977 10.3758 69.2185 10.1468C69.052 10.1572 68.8543 10.1676 68.6253 10.1781C68.4068 10.1781 68.2403 10.1833 68.1258 10.1937V9.00732H68.7502C69.1561 9.00732 69.5255 8.95529 69.8585 8.85122C70.2019 8.74716 70.4257 8.64309 70.5297 8.53903H71.2946C71.3154 8.64309 71.331 8.84081 71.3414 9.1322C71.3518 9.41317 71.357 9.66293 71.357 9.88146C71.638 9.53805 71.9034 9.26228 72.1531 9.05415C72.4029 8.84602 72.6474 8.69512 72.8868 8.60146C73.1366 8.4974 73.3863 8.44537 73.6361 8.44537C74.0003 8.44537 74.3177 8.54943 74.5883 8.75756C74.8588 8.95529 74.9941 9.28309 74.9941 9.74098C74.9941 9.89707 74.9577 10.0636 74.8848 10.2405C74.812 10.407 74.6975 10.5475 74.5414 10.662C74.3853 10.7764 74.172 10.8337 73.9014 10.8337C73.6933 10.8337 73.48 10.7712 73.2614 10.6463C73.0429 10.5215 72.918 10.2821 72.8868 9.92829C72.6787 9.92829 72.4705 10.0167 72.2624 10.1937C72.0543 10.3602 71.867 10.5631 71.7005 10.8024C71.5444 11.0314 71.4351 11.2447 71.3727 11.4424V13.9868C71.3727 14.1325 71.3674 14.3407 71.357 14.6112C71.3466 14.8714 71.331 15.1211 71.3102 15.3605C71.4767 15.3397 71.6588 15.3293 71.8566 15.3293C72.0647 15.3189 72.2208 15.3137 72.3248 15.3137V16.5H68.2351V15.4854ZM79.1566 16.7498C78.3969 16.7498 77.7257 16.5833 77.1429 16.2502C76.5601 15.9068 76.1075 15.4281 75.7849 14.8141C75.4623 14.1898 75.3009 13.4561 75.3009 12.6132C75.3009 11.8847 75.4623 11.2031 75.7849 10.5683C76.1075 9.9335 76.5601 9.42358 77.1429 9.03854C77.7361 8.64309 78.4229 8.44537 79.2034 8.44537C79.6405 8.44537 80.0671 8.50781 80.4834 8.63269C80.8996 8.74716 81.2743 8.95008 81.6073 9.24146C81.9507 9.53285 82.2213 9.92829 82.419 10.4278C82.6271 10.9273 82.726 11.5517 82.7156 12.301L77.5956 12.3946C77.5956 12.9566 77.6632 13.4613 77.7985 13.9088C77.9442 14.3563 78.1783 14.7101 78.5009 14.9702C78.8236 15.2304 79.2554 15.3605 79.7966 15.3605C80.0047 15.3605 80.2388 15.3241 80.499 15.2512C80.7696 15.1784 81.0401 15.0587 81.3107 14.8922C81.5917 14.7153 81.8518 14.4811 82.0912 14.1898L82.7936 14.8454C82.419 15.3761 82.0183 15.782 81.5917 16.0629C81.165 16.3335 80.7383 16.5156 80.3117 16.6093C79.8954 16.7029 79.5104 16.7498 79.1566 16.7498ZM77.6892 11.302H80.5614C80.551 10.8649 80.4886 10.5215 80.3741 10.2717C80.2701 10.0115 80.1244 9.82423 79.937 9.70976C79.7497 9.59529 79.5312 9.53805 79.2814 9.53805C78.8236 9.53805 78.4645 9.70455 78.2044 10.0376C77.9442 10.3602 77.7725 10.7816 77.6892 11.302ZM83.7003 16.5V15.4854C83.9917 15.4854 84.1998 15.4281 84.3247 15.3137C84.4496 15.1992 84.5276 15.0379 84.5589 14.8298C84.6005 14.6112 84.6213 14.3667 84.6213 14.0961V11.4737C84.6213 11.2863 84.6265 11.0782 84.6369 10.8493C84.6473 10.6099 84.6629 10.3758 84.6837 10.1468C84.5172 10.1572 84.3195 10.1676 84.0906 10.1781C83.872 10.1781 83.7055 10.1833 83.5911 10.1937V9.00732C84.0698 9.00732 84.4756 8.9813 84.8086 8.92927C85.1416 8.87724 85.4018 8.8148 85.5891 8.74195C85.7868 8.66911 85.9221 8.60147 85.995 8.53903H86.7598C86.7807 8.64309 86.7911 8.77317 86.7911 8.92927C86.8015 9.08537 86.8119 9.21545 86.8223 9.31951C87.1761 9.04894 87.5559 8.83561 87.9618 8.67951C88.3781 8.52342 88.7683 8.44537 89.1325 8.44537C89.6112 8.44537 90.0067 8.53382 90.3189 8.71073C90.6311 8.87724 90.8808 9.1322 91.0681 9.47561C91.4428 9.16342 91.8538 8.91366 92.3013 8.72634C92.7592 8.53903 93.1963 8.44537 93.6125 8.44537C94.4555 8.44537 95.0902 8.68992 95.5169 9.17903C95.954 9.65773 96.1725 10.4954 96.1725 11.6922V13.9868C96.1725 14.1325 96.1673 14.3407 96.1569 14.6112C96.1465 14.8714 96.1309 15.1211 96.1101 15.3605C96.2766 15.3397 96.4587 15.3293 96.6564 15.3293C96.8646 15.3189 97.0207 15.3137 97.1247 15.3137V16.5H93.1755V15.4854C93.4148 15.4854 93.5865 15.4281 93.6906 15.3137C93.805 15.1992 93.8779 15.0379 93.9091 14.8298C93.9403 14.6112 93.9559 14.3667 93.9559 14.0961V11.7078C93.9455 11.0314 93.8311 10.5631 93.6125 10.3029C93.4044 10.0428 93.1234 9.90748 92.7696 9.89707C92.499 9.88667 92.2441 9.9335 92.0047 10.0376C91.7758 10.1416 91.5676 10.2665 91.3803 10.4122C91.4324 10.6203 91.4688 10.8493 91.4896 11.099C91.5104 11.3488 91.5208 11.6141 91.5208 11.8951C91.5208 12.2489 91.5208 12.5976 91.5208 12.941C91.5208 13.2844 91.5208 13.633 91.5208 13.9868C91.5208 14.1325 91.5156 14.3407 91.5052 14.6112C91.4948 14.8714 91.4792 15.1211 91.4584 15.3605C91.6249 15.3397 91.807 15.3293 92.0047 15.3293C92.2024 15.3189 92.3585 15.3137 92.473 15.3137V16.5H88.4457V15.4854C88.7163 15.4854 88.9088 15.4281 89.0233 15.3137C89.1481 15.1992 89.2262 15.0379 89.2574 14.8298C89.2886 14.6112 89.3042 14.3667 89.3042 14.0961L89.2886 11.661C89.2886 10.9846 89.1898 10.5215 88.992 10.2717C88.7943 10.022 88.5185 9.89187 88.1647 9.88146C87.9046 9.88146 87.66 9.9387 87.4311 10.0532C87.2125 10.1676 87.0148 10.3029 86.8379 10.459C86.8379 10.5943 86.8379 10.7244 86.8379 10.8493C86.8379 10.9741 86.8379 11.1042 86.8379 11.2395V13.9868C86.8379 14.1325 86.8327 14.3407 86.8223 14.6112C86.8119 14.8714 86.7963 15.1211 86.7755 15.3605C86.942 15.3397 87.1137 15.3293 87.2906 15.3293C87.4675 15.3189 87.608 15.3137 87.712 15.3137V16.5H83.7003ZM97.904 15.4854C98.1954 15.4854 98.4035 15.4281 98.5284 15.3137C98.6533 15.1992 98.7313 15.0379 98.7625 14.8298C98.8042 14.6112 98.825 14.3667 98.825 14.0961V11.5049C98.825 11.3176 98.8302 11.1042 98.8406 10.8649C98.851 10.6151 98.8666 10.3758 98.8874 10.1468C98.7209 10.1572 98.5232 10.1676 98.2942 10.1781C98.0757 10.1781 97.9092 10.1833 97.7947 10.1937V9.00732C98.2734 9.00732 98.6793 8.9813 99.0123 8.92927C99.3453 8.87724 99.6055 8.8148 99.7928 8.74195C99.9905 8.66911 100.126 8.60147 100.199 8.53903H101.042V13.9868C101.042 14.1325 101.036 14.3407 101.026 14.6112C101.016 14.8714 101 15.1211 100.979 15.3605C101.146 15.3397 101.328 15.3293 101.525 15.3293C101.734 15.3189 101.89 15.3137 101.994 15.3137V16.5H97.904V15.4854ZM99.8552 7.30586C99.5014 7.30586 99.21 7.18098 98.9811 6.93122C98.7521 6.68147 98.6377 6.37968 98.6377 6.02586C98.6377 5.67204 98.7573 5.37025 98.9967 5.12049C99.236 4.87073 99.517 4.74586 99.8396 4.74586C100.173 4.74586 100.448 4.87073 100.667 5.12049C100.896 5.37025 101.01 5.67204 101.01 6.02586C101.01 6.37968 100.906 6.68147 100.698 6.93122C100.49 7.18098 100.209 7.30586 99.8552 7.30586ZM106.086 16.7498C105.461 16.7498 104.957 16.6301 104.572 16.3907C104.197 16.1514 103.921 15.7767 103.744 15.2668C103.578 14.7569 103.495 14.1013 103.495 13.3V11.5049C103.495 11.3176 103.5 11.1042 103.51 10.8649C103.521 10.6151 103.531 10.3758 103.541 10.1468C103.375 10.1572 103.177 10.1676 102.948 10.1781C102.73 10.1781 102.563 10.1833 102.449 10.1937V9.00732H102.605C103.25 9.00732 103.76 8.95529 104.135 8.85122C104.509 8.74716 104.749 8.64309 104.853 8.53903H105.711V13.3156C105.711 13.992 105.8 14.4967 105.977 14.8298C106.153 15.1524 106.434 15.3137 106.819 15.3137C107.09 15.3137 107.361 15.2408 107.631 15.0951C107.912 14.939 108.141 14.7621 108.318 14.5644V11.5049C108.318 11.3176 108.323 11.1042 108.334 10.8649C108.344 10.6151 108.36 10.3758 108.38 10.1468C108.214 10.1572 108.016 10.1676 107.787 10.1781C107.569 10.1781 107.402 10.1833 107.288 10.1937V9.00732H107.662C108.152 9.00732 108.583 8.95529 108.958 8.85122C109.333 8.73675 109.572 8.63268 109.676 8.53903H110.535V13.9868C110.535 14.1325 110.529 14.3407 110.519 14.6112C110.509 14.8714 110.493 15.1211 110.472 15.3605C110.639 15.3397 110.821 15.3293 111.018 15.3293C111.227 15.3189 111.383 15.3137 111.487 15.3137V16.5H108.521C108.511 16.3647 108.495 16.2294 108.474 16.0941C108.464 15.9589 108.448 15.8236 108.427 15.6883C108.105 15.9589 107.756 16.2034 107.381 16.422C107.017 16.6405 106.585 16.7498 106.086 16.7498ZM112.348 16.5V15.4854C112.639 15.4854 112.847 15.4281 112.972 15.3137C113.097 15.1992 113.175 15.0379 113.206 14.8298C113.248 14.6112 113.269 14.3667 113.269 14.0961V11.4737C113.269 11.2863 113.274 11.0782 113.284 10.8493C113.295 10.6099 113.31 10.3758 113.331 10.1468C113.165 10.1572 112.967 10.1676 112.738 10.1781C112.52 10.1781 112.353 10.1833 112.239 10.1937V9.00732C112.717 9.00732 113.123 8.9813 113.456 8.92927C113.789 8.87724 114.049 8.8148 114.237 8.74195C114.434 8.66911 114.57 8.60147 114.643 8.53903H115.407C115.428 8.64309 115.439 8.77317 115.439 8.92927C115.449 9.08537 115.459 9.21545 115.47 9.31951C115.824 9.04894 116.203 8.83561 116.609 8.67951C117.026 8.52342 117.416 8.44537 117.78 8.44537C118.259 8.44537 118.654 8.53382 118.966 8.71073C119.279 8.87724 119.528 9.1322 119.716 9.47561C120.09 9.16342 120.501 8.91366 120.949 8.72634C121.407 8.53903 121.844 8.44537 122.26 8.44537C123.103 8.44537 123.738 8.68992 124.164 9.17903C124.602 9.65773 124.82 10.4954 124.82 11.6922V13.9868C124.82 14.1325 124.815 14.3407 124.804 14.6112C124.794 14.8714 124.778 15.1211 124.758 15.3605C124.924 15.3397 125.106 15.3293 125.304 15.3293C125.512 15.3189 125.668 15.3137 125.772 15.3137V16.5H121.823V15.4854C122.062 15.4854 122.234 15.4281 122.338 15.3137C122.453 15.1992 122.525 15.0379 122.557 14.8298C122.588 14.6112 122.603 14.3667 122.603 14.0961V11.7078C122.593 11.0314 122.479 10.5631 122.26 10.3029C122.052 10.0428 121.771 9.90748 121.417 9.89707C121.147 9.88667 120.892 9.9335 120.652 10.0376C120.423 10.1416 120.215 10.2665 120.028 10.4122C120.08 10.6203 120.116 10.8493 120.137 11.099C120.158 11.3488 120.168 11.6141 120.168 11.8951C120.168 12.2489 120.168 12.5976 120.168 12.941C120.168 13.2844 120.168 13.633 120.168 13.9868C120.168 14.1325 120.163 14.3407 120.153 14.6112C120.142 14.8714 120.127 15.1211 120.106 15.3605C120.272 15.3397 120.455 15.3293 120.652 15.3293C120.85 15.3189 121.006 15.3137 121.121 15.3137V16.5H117.093V15.4854C117.364 15.4854 117.556 15.4281 117.671 15.3137C117.796 15.1992 117.874 15.0379 117.905 14.8298C117.936 14.6112 117.952 14.3667 117.952 14.0961L117.936 11.661C117.936 10.9846 117.837 10.5215 117.64 10.2717C117.442 10.022 117.166 9.89187 116.812 9.88146C116.552 9.88146 116.308 9.9387 116.079 10.0532C115.86 10.1676 115.662 10.3029 115.485 10.459C115.485 10.5943 115.485 10.7244 115.485 10.8493C115.485 10.9741 115.485 11.1042 115.485 11.2395V13.9868C115.485 14.1325 115.48 14.3407 115.47 14.6112C115.459 14.8714 115.444 15.1211 115.423 15.3605C115.59 15.3397 115.761 15.3293 115.938 15.3293C116.115 15.3189 116.256 15.3137 116.36 15.3137V16.5H112.348Z" fill="#3D3D3D"/>
</svg>
