<svg width="127" height="40" viewBox="0 0 127 40" fill="none" xmlns="http://www.w3.org/2000/svg">
<path d="M61.2279 39.623H69.1252L59.2669 24.3555L68.9517 12.0499H61.1745L51.489 24.2092L61.2279 39.623Z" fill="#131313"/>
<path fill-rule="evenodd" clip-rule="evenodd" d="M127 25.8365C127 28.8702 126.422 31.4417 125.266 33.551C124.11 35.6603 122.544 37.2624 120.57 38.3575C118.605 39.4525 116.399 40 113.954 40C111.499 40 109.289 39.448 107.324 38.344C105.358 37.24 103.797 35.6379 102.641 33.5376C101.494 31.4283 100.92 28.8613 100.92 25.8365C100.92 22.8027 101.494 20.2312 102.641 18.1219C103.797 16.0126 105.358 14.4105 107.324 13.3155C109.289 12.2204 111.499 11.6729 113.954 11.6729C116.399 11.6729 118.605 12.2204 120.57 13.3155C122.544 14.4105 124.11 16.0126 125.266 18.1219C126.422 20.2312 127 22.8027 127 25.8365ZM120.25 25.8365C120.25 24.0413 119.997 22.5245 119.49 21.2858C118.992 20.0472 118.271 19.1092 117.329 18.472C116.395 17.8347 115.27 17.5161 113.954 17.5161C112.646 17.5161 111.521 17.8347 110.579 18.472C109.636 19.1092 108.911 20.0472 108.404 21.2858C107.906 22.5245 107.657 24.0413 107.657 25.8365C107.657 27.6316 107.906 29.1485 108.404 30.3871C108.911 31.6257 109.636 32.5637 110.579 33.201C111.521 33.8382 112.646 34.1569 113.954 34.1569C115.27 34.1569 116.395 33.8382 117.329 33.201C118.271 32.5637 118.992 31.6257 119.49 30.3871C119.997 29.1485 120.25 27.6316 120.25 25.8365Z" fill="#131313"/>
<path d="M0 12.0499V17.4622H6.96027V17.461H16.7586V17.4622H23.0915V12.0499H0Z" fill="#131313"/>
<path d="M8.29745 39.623V17.461L14.8073 24.2942V39.623H8.29745Z" fill="#131313"/>
<path d="M27.4433 23.1183V39.623H46.4928V34.2107H34.0466V28.5426H45.519V23.1168H34.8041V23.1183H27.4433Z" fill="#131313"/>
<path d="M27.4433 17.461H34.8041V17.4622H46.4928V12.0499H27.4433V17.461Z" fill="#131313"/>
<path d="M27.4438 17.461H34.8046V17.4622H46.4933V12.0499H27.4438V17.461Z" fill="#0845DD"/>
<path d="M73.7352 39.5288L80.0232 39.5349V31.3313L73.7352 21.7739L73.7352 39.5288Z" fill="#0845DD"/>
<path d="M97.6091 12.1492V39.5349H92.0063L73.7952 12.1492H80.0404L90.7924 28.036H91.0192V12.1492H97.6091Z" fill="#131313"/>
<path d="M0.378784 0.153395H3.85425C4.523 0.153395 5.04651 0.320426 5.42479 0.654487C5.80308 0.988548 5.99222 1.4726 5.99222 2.10663C5.99222 2.42706 5.91791 2.72021 5.7693 2.9861C5.62069 3.24516 5.41804 3.44628 5.16135 3.58945C5.51261 3.71899 5.77606 3.91669 5.95169 4.18258C6.12732 4.44165 6.21513 4.78253 6.21513 5.20521C6.21513 5.63472 6.11719 6.00969 5.92129 6.33011C5.73215 6.64372 5.4687 6.88575 5.13095 7.05618C4.79995 7.21981 4.4318 7.30162 4.0265 7.30162H0.378784V0.153395ZM3.56041 3.05768C3.83061 3.05768 4.04339 2.9895 4.19876 2.85315C4.35412 2.7168 4.4318 2.49864 4.4318 2.19867C4.4318 1.87142 4.35412 1.64644 4.19876 1.52373C4.05014 1.40101 3.82047 1.33965 3.50974 1.33965H1.91893V3.05768H3.56041ZM3.6516 6.11536C3.98259 6.11536 4.23253 6.05059 4.40141 5.92106C4.57704 5.78471 4.66485 5.5495 4.66485 5.21544C4.66485 4.87456 4.57366 4.62913 4.39127 4.47914C4.21564 4.32916 3.9522 4.25416 3.60094 4.25416H1.91893V6.11536H3.6516Z" fill="#0845DD"/>
<path d="M8.39498 0.153395H9.93512V7.30162H8.39498V0.153395Z" fill="#0845DD"/>
<path d="M14.4424 7.45501C14.0101 7.45501 13.5812 7.41411 13.1556 7.3323C12.73 7.25049 12.3822 7.1414 12.112 7.00505V5.63472C12.47 5.81198 12.8415 5.94492 13.2265 6.03355C13.6116 6.12218 13.9797 6.16649 14.331 6.16649C14.7228 6.16649 15.02 6.09832 15.2227 5.96197C15.4253 5.82561 15.5266 5.63472 15.5266 5.38929C15.5266 5.21203 15.476 5.06205 15.3746 4.93933C15.2733 4.81661 15.1247 4.70753 14.9288 4.61209C14.7397 4.50982 14.4458 4.37688 14.0473 4.21326C13.3853 3.94056 12.9057 3.63717 12.6085 3.30311C12.3112 2.96223 12.1626 2.54295 12.1626 2.04527C12.1626 1.64303 12.2707 1.28852 12.4869 0.98173C12.703 0.668122 13.007 0.426099 13.3988 0.255659C13.7906 0.08522 14.2432 0 14.7566 0C15.1754 0 15.5469 0.0340878 15.8711 0.102263C16.1954 0.170439 16.5129 0.276112 16.8236 0.419281V1.74871C16.2292 1.44873 15.6347 1.29875 15.0403 1.29875C14.662 1.29875 14.3648 1.36692 14.1486 1.50327C13.9324 1.63281 13.8244 1.82029 13.8244 2.06572C13.8244 2.24298 13.875 2.38956 13.9763 2.50546C14.0777 2.62136 14.2195 2.72362 14.4019 2.81225C14.5843 2.90088 14.8815 3.03041 15.2936 3.20085C15.7732 3.40538 16.1481 3.60309 16.4183 3.79398C16.6885 3.97805 16.8878 4.19962 17.0161 4.45869C17.1445 4.71094 17.2086 5.02455 17.2086 5.39952C17.2086 6.04718 16.9756 6.55168 16.5095 6.91302C16.0501 7.27435 15.3611 7.45501 14.4424 7.45501Z" fill="#0845DD"/>
<path d="M19.3908 0.153395H20.8904L23.8491 4.77571V0.153395H25.3892V7.30162H23.8998L20.9309 2.67931V7.30162H19.3908V0.153395Z" fill="#0845DD"/>
<path d="M27.7632 0.153395H29.3033V7.30162H27.7632V0.153395Z" fill="#0845DD"/>
<path d="M33.8107 7.45501C33.3783 7.45501 32.9494 7.41411 32.5238 7.3323C32.0983 7.25049 31.7504 7.1414 31.4802 7.00505V5.63472C31.8382 5.81198 32.2097 5.94492 32.5947 6.03355C32.9798 6.12218 33.3479 6.16649 33.6992 6.16649C34.091 6.16649 34.3882 6.09832 34.5909 5.96197C34.7935 5.82561 34.8948 5.63472 34.8948 5.38929C34.8948 5.21203 34.8442 5.06205 34.7429 4.93933C34.6415 4.81661 34.4929 4.70753 34.297 4.61209C34.1079 4.50982 33.814 4.37688 33.4155 4.21326C32.7535 3.94056 32.2739 3.63717 31.9767 3.30311C31.6794 2.96223 31.5308 2.54295 31.5308 2.04527C31.5308 1.64303 31.6389 1.28852 31.8551 0.98173C32.0712 0.668122 32.3752 0.426099 32.767 0.255659C33.1588 0.08522 33.6114 0 34.1248 0C34.5436 0 34.9151 0.0340878 35.2393 0.102263C35.5636 0.170439 35.8811 0.276112 36.1918 0.419281V1.74871C35.5974 1.44873 35.0029 1.29875 34.4085 1.29875C34.0302 1.29875 33.733 1.36692 33.5168 1.50327C33.3007 1.63281 33.1926 1.82029 33.1926 2.06572C33.1926 2.24298 33.2432 2.38956 33.3446 2.50546C33.4459 2.62136 33.5877 2.72362 33.7701 2.81225C33.9525 2.90088 34.2497 3.03041 34.6618 3.20085C35.1414 3.40538 35.5163 3.60309 35.7865 3.79398C36.0567 3.97805 36.256 4.19962 36.3843 4.45869C36.5127 4.71094 36.5768 5.02455 36.5768 5.39952C36.5768 6.04718 36.3438 6.55168 35.8777 6.91302C35.4184 7.27435 34.7293 7.45501 33.8107 7.45501Z" fill="#0845DD"/>
</svg>
