<svg width="107" height="19" viewBox="0 0 107 19" fill="none" xmlns="http://www.w3.org/2000/svg">
<path d="M0.0831422 1.53232C0.345093 0.81968 1.14742 0.449911 1.87519 0.706412L1.87695 0.707031L1.87876 0.707668L1.88252 0.709007L1.89062 0.711936C1.89628 0.713996 1.90245 0.716289 1.90911 0.718783C1.91457 0.720842 1.92037 0.723052 1.92649 0.725413C1.93533 0.728828 1.94484 0.732578 1.95502 0.736662C1.9895 0.75049 2.03162 0.768252 2.08063 0.790517C2.17865 0.835064 2.30426 0.897591 2.45141 0.982542C2.74612 1.15269 3.12563 1.41185 3.54142 1.79419C4.37887 2.56426 5.33089 3.80401 6.04508 5.75002C6.4839 6.94571 6.87308 7.98181 7.22626 8.92207L7.22643 8.92253L7.22651 8.92275C7.70202 10.1887 8.11229 11.2809 8.49065 12.3552L15.5835 10.1847C16.3217 9.95883 17.1072 10.3617 17.3379 11.0847C17.5687 11.8076 17.1572 12.5768 16.4189 12.8027L8.01588 15.3741C7.28276 15.5984 6.50191 15.2027 6.26558 14.4871C5.78083 13.0192 5.27293 11.6674 4.62288 9.93726L4.62251 9.93628L4.62225 9.93559L4.62162 9.93391L4.62144 9.93341C4.26623 8.98799 3.86859 7.92961 3.40911 6.67763C2.83987 5.12657 2.12879 4.25779 1.62399 3.7936C1.36866 3.55881 1.15726 3.41941 1.02884 3.34528C0.964426 3.30809 0.920417 3.28705 0.901712 3.27855L0.895526 3.27579C0.188126 3.00813 -0.175057 2.23476 0.0831422 1.53232Z" fill="url(#paint0_linear_1079_24649)"/>
<path d="M19.5456 6.49626C19.773 7.22018 19.3581 7.98757 18.6188 8.21029L10.4258 10.6785C9.68656 10.9012 8.90287 10.4949 8.67543 9.771C8.44799 9.04708 8.86291 8.27968 9.6022 8.05696L17.7952 5.58875C18.5345 5.36603 19.3181 5.77234 19.5456 6.49626Z" fill="url(#paint1_linear_1079_24649)"/>
<path d="M19.3111 3.96134C20.0517 3.74295 20.4713 2.97798 20.2483 2.25274C20.0252 1.52751 19.244 1.11664 18.5034 1.33503L9.40011 4.01938C8.65948 4.23777 8.23989 5.00273 8.46292 5.72797C8.68594 6.4532 9.46714 6.86408 10.2078 6.64568L19.3111 3.96134Z" fill="url(#paint2_linear_1079_24649)"/>
<path d="M10.5042 17.2879C10.5042 18.0264 9.87717 18.625 9.10369 18.625C8.33021 18.625 7.70318 18.0264 7.70318 17.2879C7.70318 16.5494 8.33021 15.9508 9.10369 15.9508C9.87717 15.9508 10.5042 16.5494 10.5042 17.2879Z" fill="url(#paint3_linear_1079_24649)"/>
<path d="M15.0184 16.7112C15.7919 16.7112 16.4189 16.1125 16.4189 15.3741C16.4189 14.6356 15.7919 14.037 15.0184 14.037C14.2449 14.037 13.6179 14.6356 13.6179 15.3741C13.6179 16.1125 14.2449 16.7112 15.0184 16.7112Z" fill="url(#paint4_linear_1079_24649)"/>
<path d="M26.3145 3.95813H36.0924V6.91445H32.7843V15.6795H29.6306V6.91445H26.3145V3.95813Z" fill="white"/>
<path d="M39.1566 15.8553C37.8507 15.8553 36.767 15.4159 35.9054 14.537C35.0439 13.6581 34.6131 12.5954 34.6131 11.3489C34.6131 10.1078 35.0439 9.04779 35.9054 8.16889C36.767 7.28998 37.8507 6.85053 39.1566 6.85053C40.4625 6.85053 41.5462 7.28998 42.4078 8.16889C43.2693 9.04779 43.7001 10.1078 43.7001 11.3489C43.7001 12.5954 43.2693 13.6581 42.4078 14.537C41.5462 15.4159 40.4625 15.8553 39.1566 15.8553ZM39.1566 13.0268C39.5955 13.0268 39.9504 12.8644 40.2213 12.5394C40.4923 12.2092 40.6277 11.8124 40.6277 11.3489C40.6277 10.8908 40.4923 10.4993 40.2213 10.1744C39.9504 9.84414 39.5955 9.67901 39.1566 9.67901C38.7177 9.67901 38.36 9.84147 38.0837 10.1664C37.8128 10.4913 37.6773 10.8855 37.6773 11.3489C37.6773 11.8124 37.8128 12.2092 38.0837 12.5394C38.36 12.8644 38.7177 13.0268 39.1566 13.0268Z" fill="white"/>
<path d="M47.9998 9.91871L50.1862 7.0343H53.8356L50.9827 10.9334L54.4534 15.6795H50.7308L47.9998 12.0041V15.6795H44.9274V2.99932H47.9998V9.91871Z" fill="white"/>
<path d="M58.3385 15.8553C57.0326 15.8553 55.9489 15.4159 55.0873 14.537C54.2258 13.6581 53.795 12.5954 53.795 11.3489C53.795 10.1078 54.2258 9.04779 55.0873 8.16889C55.9489 7.28998 57.0326 6.85053 58.3385 6.85053C59.6444 6.85053 60.7281 7.28998 61.5897 8.16889C62.4512 9.04779 62.882 10.1078 62.882 11.3489C62.882 12.5954 62.4512 13.6581 61.5897 14.537C60.7281 15.4159 59.6444 15.8553 58.3385 15.8553ZM58.3385 13.0268C58.7774 13.0268 59.1323 12.8644 59.4033 12.5394C59.6742 12.2092 59.8097 11.8124 59.8097 11.3489C59.8097 10.8908 59.6742 10.4993 59.4033 10.1744C59.1323 9.84414 58.7774 9.67901 58.3385 9.67901C57.8996 9.67901 57.542 9.84147 57.2656 10.1664C56.9947 10.4913 56.8592 10.8855 56.8592 11.3489C56.8592 11.8124 56.9947 12.2092 57.2656 12.5394C57.542 12.8644 57.8996 13.0268 58.3385 13.0268Z" fill="white"/>
<path d="M69.3275 15.8553C68.9102 15.8553 68.4795 15.7541 68.0351 15.5517C67.5908 15.3493 67.2386 15.0297 66.9785 14.5929V15.6716H64.0849V2.99932H67.1492V8.00909C67.3876 7.59893 67.7154 7.3033 68.1327 7.12219C68.5499 6.94108 68.9482 6.85053 69.3275 6.85053C70.4329 6.85053 71.3378 7.28998 72.0422 8.16889C72.752 9.04779 73.1069 10.1105 73.1069 11.3569C73.1069 12.598 72.752 13.6581 72.0422 14.537C71.3378 15.4159 70.4329 15.8553 69.3275 15.8553ZM68.5147 13.0268C68.9536 13.0268 69.3166 12.8644 69.6038 12.5394C69.8964 12.2092 70.0427 11.815 70.0427 11.3569C70.0427 10.8935 69.8964 10.4993 69.6038 10.1744C69.3166 9.84414 68.9536 9.67901 68.5147 9.67901C68.0703 9.67901 67.7019 9.84414 67.4093 10.1744C67.1221 10.4993 66.9785 10.8935 66.9785 11.3569C66.9785 11.815 67.1221 12.2092 67.4093 12.5394C67.7019 12.8644 68.0703 13.0268 68.5147 13.0268Z" fill="white"/>
<path d="M75.9192 6.2353C75.4424 6.2353 75.0333 6.07017 74.6919 5.73991C74.3559 5.40433 74.188 4.9995 74.188 4.52542C74.188 4.05135 74.3559 3.64918 74.6919 3.31893C75.0333 2.98334 75.4424 2.81555 75.9192 2.81555C76.4015 2.81555 76.8106 2.98334 77.1465 3.31893C77.4879 3.64918 77.6586 4.05135 77.6586 4.52542C77.6586 4.9995 77.4879 5.40433 77.1465 5.73991C76.8106 6.07017 76.4015 6.2353 75.9192 6.2353ZM77.4635 15.6795H74.3912V7.0343H77.4635V15.6795Z" fill="white"/>
<path d="M81.6819 15.8553C80.8475 15.8553 80.1837 15.7381 79.6906 15.5038C79.2029 15.2641 78.7559 14.9152 78.3495 14.4571L79.9344 12.4116C80.3625 12.8005 80.7039 13.0774 80.9585 13.2426C81.2186 13.4024 81.4191 13.4823 81.56 13.4823C81.7009 13.4823 81.8147 13.4503 81.9014 13.3864C81.9881 13.3225 82.0314 13.2319 82.0314 13.1147C82.0314 13.0189 81.9989 12.939 81.9339 12.875C81.8689 12.8058 81.774 12.7259 81.6494 12.6353L80.3652 11.6605C79.9967 11.3889 79.696 11.0719 79.463 10.7097C79.2354 10.3475 79.1216 9.89474 79.1216 9.35142C79.1216 8.67493 79.4142 8.08899 79.9994 7.5936C80.5846 7.09822 81.3595 6.85053 82.324 6.85053C83.5486 6.85053 84.5104 7.21008 85.2094 7.92919L83.7139 9.82283C83.2371 9.32745 82.8767 9.07975 82.6329 9.07975C82.5028 9.07975 82.3972 9.11438 82.3159 9.18363C82.24 9.24755 82.2021 9.33544 82.2021 9.4473C82.2021 9.5485 82.24 9.64172 82.3159 9.72695C82.3918 9.80685 82.4812 9.88409 82.5841 9.95866L83.6814 10.7896C84.0986 11.0879 84.459 11.4129 84.7624 11.7644C85.0658 12.1106 85.2176 12.5847 85.2176 13.1866C85.2176 13.9271 84.8897 14.5583 84.2341 15.0803C83.5839 15.597 82.7331 15.8553 81.6819 15.8553Z" fill="white"/>
<path d="M89.3222 8.16889C89.5823 7.75873 89.9101 7.43913 90.3057 7.21008C90.7012 6.97571 91.1537 6.85852 91.663 6.85852C92.5788 6.85852 93.313 7.17812 93.8657 7.81733C94.4238 8.45653 94.7029 9.34875 94.7029 10.494V15.6795H91.6386V10.6937C91.6386 10.4008 91.5574 10.1584 91.3948 9.96665C91.2322 9.77489 90.9965 9.67901 90.6877 9.67901C90.2975 9.67901 90.0022 9.79087 89.8017 10.0146C89.6012 10.2383 89.501 10.5419 89.501 10.9255V15.6795H86.4286V7.0343H89.3222V8.16889Z" fill="white"/>
<path d="M97.7021 6.2353C97.2252 6.2353 96.8161 6.07017 96.4748 5.73991C96.1388 5.40433 95.9708 4.9995 95.9708 4.52542C95.9708 4.05135 96.1388 3.64918 96.4748 3.31893C96.8161 2.98334 97.2252 2.81555 97.7021 2.81555C98.1843 2.81555 98.5934 2.98334 98.9294 3.31893C99.2708 3.64918 99.4414 4.05135 99.4414 4.52542C99.4414 4.9995 99.2708 5.40433 98.9294 5.73991C98.5934 6.07017 98.1843 6.2353 97.7021 6.2353ZM99.2464 15.6795H96.174V7.0343H99.2464V15.6795Z" fill="white"/>
<path d="M103.465 15.8553C102.63 15.8553 101.967 15.7381 101.473 15.5038C100.986 15.2641 100.539 14.9152 100.132 14.4571L101.717 12.4116C102.145 12.8005 102.487 13.0774 102.741 13.2426C103.001 13.4024 103.202 13.4823 103.343 13.4823C103.484 13.4823 103.598 13.4503 103.684 13.3864C103.771 13.3225 103.814 13.2319 103.814 13.1147C103.814 13.0189 103.782 12.939 103.717 12.875C103.652 12.8058 103.557 12.7259 103.432 12.6353L102.148 11.6605C101.78 11.3889 101.479 11.0719 101.246 10.7097C101.018 10.3475 100.904 9.89474 100.904 9.35142C100.904 8.67493 101.197 8.08899 101.782 7.5936C102.368 7.09822 103.142 6.85053 104.107 6.85053C105.331 6.85053 106.293 7.21008 106.992 7.92919L105.497 9.82283C105.02 9.32745 104.66 9.07975 104.416 9.07975C104.286 9.07975 104.18 9.11438 104.099 9.18363C104.023 9.24755 103.985 9.33544 103.985 9.4473C103.985 9.5485 104.023 9.64172 104.099 9.72695C104.175 9.80685 104.264 9.88409 104.367 9.95866L105.464 10.7896C105.881 11.0879 106.242 11.4129 106.545 11.7644C106.849 12.1106 107 12.5847 107 13.1866C107 13.9271 106.673 14.5583 106.017 15.0803C105.367 15.597 104.516 15.8553 103.465 15.8553Z" fill="white"/>
<defs>
<linearGradient id="paint0_linear_1079_24649" x1="0" y1="0.625" x2="4.74958" y2="20.5483" gradientUnits="userSpaceOnUse">
<stop stop-color="#C2570F"/>
<stop offset="0.515625" stop-color="#FFB546"/>
<stop offset="1" stop-color="#DE611A"/>
</linearGradient>
<linearGradient id="paint1_linear_1079_24649" x1="0" y1="0.625" x2="4.74958" y2="20.5483" gradientUnits="userSpaceOnUse">
<stop stop-color="#C2570F"/>
<stop offset="0.515625" stop-color="#FFB546"/>
<stop offset="1" stop-color="#DE611A"/>
</linearGradient>
<linearGradient id="paint2_linear_1079_24649" x1="0" y1="0.625" x2="4.74958" y2="20.5483" gradientUnits="userSpaceOnUse">
<stop stop-color="#C2570F"/>
<stop offset="0.515625" stop-color="#FFB546"/>
<stop offset="1" stop-color="#DE611A"/>
</linearGradient>
<linearGradient id="paint3_linear_1079_24649" x1="0" y1="0.625" x2="4.74958" y2="20.5483" gradientUnits="userSpaceOnUse">
<stop stop-color="#C2570F"/>
<stop offset="0.515625" stop-color="#FFB546"/>
<stop offset="1" stop-color="#DE611A"/>
</linearGradient>
<linearGradient id="paint4_linear_1079_24649" x1="0" y1="0.625" x2="4.74958" y2="20.5483" gradientUnits="userSpaceOnUse">
<stop stop-color="#C2570F"/>
<stop offset="0.515625" stop-color="#FFB546"/>
<stop offset="1" stop-color="#DE611A"/>
</linearGradient>
</defs>
</svg>
