<svg width="79" height="60" viewBox="0 0 79 60" fill="none" xmlns="http://www.w3.org/2000/svg">
<g clip-path="url(#clip0_1011_378)">
<path d="M45.708 29.7878C55.9399 29.8205 65.7131 37.8821 67.3292 46.8468C68.0499 50.8613 65.7568 53.4832 61.8693 52.3735C50.3162 49.0662 40.1717 51.2747 30.9445 58.8577C27.8214 61.4252 25.0369 59.5104 24.2834 54.6038C22.8529 45.2366 30.8353 33.2584 40.2372 30.7779C42.3229 30.2339 44.496 29.9946 45.708 29.7878Z" fill="white"/>
<path d="M25.7136 5.8314C30.8569 5.96195 35.7817 11.9565 35.7708 18.0599C35.7708 23.1949 32.2655 26.8613 27.4936 26.7416C22.2084 26.6111 17.4911 20.8776 17.502 14.6002C17.502 9.46512 21.0291 5.71172 25.7136 5.8314V5.8314Z" fill="white"/>
<path d="M57.0315 11.3146C56.9878 17.3636 53.3734 21.748 48.4376 21.748C43.6329 21.748 39.7345 16.7326 39.7891 10.6292C39.8328 4.47149 43.2944 0.0870858 48.1755 5.04814e-05C53.4498 -0.0978643 57.0861 4.55853 57.0315 11.3146V11.3146Z" fill="white"/>
<path d="M78.5 14.709C78.4672 20.399 73.3458 26.263 68.4101 26.2738C64.0422 26.2738 60.8427 22.8142 60.9082 18.1143C60.9737 12.7725 66.106 6.93024 70.736 6.88672C75.3223 6.85408 78.5218 10.0744 78.4891 14.709H78.5Z" fill="white"/>
<path d="M0.947508 31.9529C0.325081 29.5485 0.36876 27.34 0.991188 25.2947C2.50904 21.6827 5.11887 19.8767 9.10459 20.66C13.6472 21.5413 15.4381 24.9356 16.672 28.9393C17.8186 32.6491 16.9996 35.8259 14.1277 38.2303C9.63965 41.9946 4.147 39.2965 0.947508 31.9529V31.9529Z" fill="white"/>
</g>
<defs>
<clipPath id="clip0_1011_378">
<rect width="78" height="60" fill="white" transform="translate(0.5)"/>
</clipPath>
</defs>
</svg>
