<svg width="27" height="26" viewBox="0 0 27 26" fill="none" xmlns="http://www.w3.org/2000/svg">
<path d="M13.5 0.52002C6.6074 0.52002 1.02 6.10742 1.02 13C1.02 19.8926 6.6074 25.48 13.5 25.48C20.3926 25.48 25.98 19.8926 25.98 13C25.98 6.10742 20.3926 0.52002 13.5 0.52002ZM16.4562 9.14422H14.5803C14.358 9.14422 14.111 9.43672 14.111 9.82542V11.18H16.4575L16.1026 13.1118H14.111V18.9111H11.8971V13.1118H9.8886V11.18H11.8971V10.0438C11.8971 8.41362 13.0281 7.08892 14.5803 7.08892H16.4562V9.14422Z" fill="black"/>
<path d="M14.5803 9.14417H16.4562V7.08887H14.5803C13.0281 7.08887 11.8971 8.41357 11.8971 10.0438V11.18H9.8886V13.1118H11.8971V18.9111H14.111V13.1118H16.1026L16.4575 11.18H14.111V9.82537C14.111 9.43667 14.358 9.14417 14.5803 9.14417Z" fill="white"/>
</svg>
