<svg width="102" height="23" viewBox="0 0 102 23" fill="none" xmlns="http://www.w3.org/2000/svg">
<g clip-path="url(#clip0_2024_2589)">
<path d="M22.2188 6.40226C22.2188 6.03722 22.0811 5.72352 21.8059 5.46115C21.542 5.18737 21.2267 5.05048 20.8596 5.05048C20.4925 5.05048 20.1714 5.18737 19.8961 5.46115C19.6323 5.72352 19.5004 6.03722 19.5004 6.40226C19.5004 6.7673 19.6323 7.0867 19.8961 7.36048C20.1714 7.62285 20.4925 7.75403 20.8596 7.75403C21.2267 7.75403 21.542 7.62285 21.8059 7.36048C22.0811 7.0867 22.2188 6.7673 22.2188 6.40226ZM22.0467 17.4731V8.48981H19.6725V17.4731H22.0467ZM31.066 14.8551C31.066 14.4103 30.9856 14.0338 30.8251 13.7258C30.6645 13.4064 30.4466 13.1383 30.1713 12.9216C29.8961 12.7049 29.5748 12.5223 29.2079 12.374C28.8408 12.2257 28.4565 12.0831 28.0552 11.9463C27.6537 11.8208 27.3268 11.7124 27.0745 11.6211C26.8336 11.5299 26.6444 11.45 26.5067 11.3816C26.3805 11.3017 26.2945 11.2276 26.2486 11.1591C26.2027 11.0793 26.1798 10.9937 26.1798 10.9025C26.1798 10.7085 26.2601 10.566 26.4207 10.4747C26.5927 10.372 26.9196 10.3207 27.4014 10.3207C27.7799 10.3207 28.1984 10.3834 28.6573 10.5089C29.1275 10.623 29.5864 10.7998 30.0337 11.0394L30.7907 9.17426C30.309 8.91188 29.7756 8.70085 29.1907 8.54115C28.6057 8.38144 28.0264 8.30159 27.453 8.30159C26.9253 8.30159 26.4379 8.35292 25.9906 8.45559C25.5547 8.55826 25.1762 8.71796 24.8551 8.9347C24.5338 9.15144 24.2815 9.43092 24.098 9.77315C23.926 10.104 23.84 10.5032 23.84 10.9709C23.84 11.45 23.9202 11.8493 24.0808 12.1687C24.2529 12.4881 24.4938 12.7618 24.8034 12.99C25.1131 13.2067 25.4859 13.4007 25.9218 13.5718C26.3691 13.7316 26.8622 13.8912 27.4014 14.0509C27.906 14.1992 28.2501 14.3361 28.4337 14.4616C28.6286 14.5871 28.7261 14.7525 28.7261 14.9578C28.7261 15.186 28.6401 15.3571 28.4681 15.4711C28.3075 15.5852 27.992 15.6423 27.5218 15.6423C26.9368 15.6423 26.3863 15.5738 25.8701 15.4369C25.3654 15.2887 24.8723 15.0833 24.3905 14.8209L23.5991 16.6176C24.0808 16.937 24.6486 17.1936 25.3024 17.3876C25.9676 17.5701 26.6616 17.6614 27.3842 17.6614C27.8888 17.6614 28.3648 17.61 28.8122 17.5074C29.2595 17.4161 29.6494 17.2621 29.9821 17.0454C30.3146 16.8172 30.5785 16.5263 30.7735 16.1727C30.9684 15.8076 31.066 15.3685 31.066 14.8551ZM40.4789 17.4731V12.4083C40.4789 11.142 40.2094 10.1439 39.6703 9.41381C39.1311 8.67233 38.2881 8.30159 37.1411 8.30159C36.6594 8.30159 36.2351 8.38144 35.868 8.54115C35.5125 8.68944 35.2314 8.87196 35.025 9.0887V8.48981H32.6507V17.4731H35.025V12.5623C35.025 11.7866 35.1568 11.2561 35.4207 10.9709C35.6959 10.6743 36.0802 10.526 36.5734 10.526C37.0665 10.526 37.4451 10.6743 37.7089 10.9709C37.9727 11.2675 38.1046 11.8151 38.1046 12.6136V17.4731H40.4789ZM44.8142 6.40226C44.8142 6.03722 44.6766 5.72352 44.4013 5.46115C44.1375 5.18737 43.8221 5.05048 43.4551 5.05048C43.088 5.05048 42.7669 5.18737 42.4916 5.46115C42.2277 5.72352 42.0959 6.03722 42.0959 6.40226C42.0959 6.7673 42.2277 7.0867 42.4916 7.36048C42.7669 7.62285 43.088 7.75403 43.4551 7.75403C43.8221 7.75403 44.1375 7.62285 44.4013 7.36048C44.6766 7.0867 44.8142 6.7673 44.8142 6.40226ZM44.6422 17.4731V8.48981H42.2679V17.4731H44.6422ZM53.6615 14.8551C53.6615 14.4103 53.5811 14.0338 53.4206 13.7258C53.26 13.4064 53.0421 13.1383 52.7668 12.9216C52.4915 12.7049 52.1703 12.5223 51.8033 12.374C51.4363 12.2257 51.052 12.0831 50.6506 11.9463C50.2491 11.8208 49.9222 11.7124 49.6699 11.6211C49.4291 11.5299 49.2398 11.45 49.1022 11.3816C48.976 11.3017 48.8899 11.2276 48.8441 11.1591C48.7981 11.0793 48.7753 10.9937 48.7753 10.9025C48.7753 10.7085 48.8555 10.566 49.0162 10.4747C49.1882 10.372 49.5151 10.3207 49.9968 10.3207C50.3753 10.3207 50.7939 10.3834 51.2528 10.5089C51.723 10.623 52.1818 10.7998 52.6292 11.0394L53.3862 9.17426C52.9044 8.91188 52.3711 8.70085 51.7861 8.54115C51.2012 8.38144 50.6219 8.30159 50.0484 8.30159C49.5207 8.30159 49.0334 8.35292 48.586 8.45559C48.1501 8.55826 47.7716 8.71796 47.4505 8.9347C47.1293 9.15144 46.877 9.43092 46.6935 9.77315C46.5215 10.104 46.4354 10.5032 46.4354 10.9709C46.4354 11.45 46.5157 11.8493 46.6763 12.1687C46.8483 12.4881 47.0892 12.7618 47.3989 12.99C47.7086 13.2067 48.0813 13.4007 48.5172 13.5718C48.9645 13.7316 49.4577 13.8912 49.9968 14.0509C50.5014 14.1992 50.8455 14.3361 51.0291 14.4616C51.224 14.5871 51.3216 14.7525 51.3216 14.9578C51.3216 15.186 51.2356 15.3571 51.0635 15.4711C50.9029 15.5852 50.5874 15.6423 50.1173 15.6423C49.5323 15.6423 48.9817 15.5738 48.4656 15.4369C47.9609 15.2887 47.4677 15.0833 46.986 14.8209L46.1946 16.6176C46.6763 16.937 47.2441 17.1936 47.8978 17.3876C48.5631 17.5701 49.257 17.6614 49.9796 17.6614C50.4842 17.6614 50.9603 17.61 51.4076 17.5074C51.8549 17.4161 52.2449 17.2621 52.5776 17.0454C52.9101 16.8172 53.1739 16.5263 53.369 16.1727C53.5639 15.8076 53.6615 15.3685 53.6615 14.8551ZM62.4074 15.9503V8.48981H60.0331V9.00315C59.8151 8.80922 59.5399 8.64381 59.2073 8.50692C58.8861 8.37003 58.5248 8.30159 58.1234 8.30159C57.5613 8.30159 57.0624 8.41566 56.6266 8.64381C56.1907 8.86055 55.8236 9.17426 55.5255 9.58492C55.2272 9.98419 54.9978 10.4633 54.8373 11.0223C54.6881 11.5812 54.6136 12.1972 54.6136 12.8703C54.6136 13.7144 54.7053 14.4387 54.8889 15.0434C55.0724 15.6365 55.3247 16.1327 55.6459 16.532C55.967 16.9198 56.3398 17.2051 56.7642 17.3876C57.1886 17.5701 57.6417 17.6614 58.1234 17.6614C58.5592 17.6614 58.9263 17.5872 59.2245 17.4389C59.5342 17.2792 59.8037 17.1024 60.0331 16.9085C60.0331 17.2507 59.9987 17.5416 59.9299 17.7811C59.8611 18.0207 59.7349 18.2203 59.5514 18.38C59.3678 18.5398 59.1213 18.6652 58.8116 18.7565C58.5133 18.8478 58.1348 18.9276 57.6761 18.996L58.5191 20.7756C59.3105 20.6958 59.9585 20.536 60.4633 20.2965C60.9679 20.0569 61.3636 19.7376 61.6504 19.3383C61.9371 18.9504 62.1321 18.4713 62.2354 17.9009C62.35 17.342 62.4074 16.6918 62.4074 15.9503ZM60.0331 14.684C59.8611 14.9122 59.6661 15.0947 59.4482 15.2316C59.2302 15.3685 58.9377 15.4369 58.5707 15.4369C58.1004 15.4369 57.7219 15.2316 57.4352 14.8209C57.1599 14.4103 57.0223 13.7429 57.0223 12.8189C57.0223 11.2903 57.4925 10.526 58.4331 10.526C59.1213 10.526 59.6546 10.7827 60.0331 11.296V14.684ZM70.1241 8.9347C69.9635 8.77499 69.7399 8.63241 69.4531 8.50692C69.1779 8.37003 68.8452 8.30159 68.4553 8.30159C68.0309 8.30159 67.6638 8.38144 67.3542 8.54115C67.0559 8.68944 66.8036 8.87196 66.5971 9.0887V8.48981H64.2229V17.4731H66.5971V12.6136C66.5971 12.2257 66.6316 11.9063 66.7004 11.6554C66.7806 11.4044 66.8839 11.2048 67.0101 11.0565C67.1477 10.9082 67.3083 10.8055 67.4918 10.7485C67.6868 10.6914 67.8989 10.6629 68.1284 10.6629C68.3922 10.6629 68.6387 10.72 68.8682 10.834C69.0976 10.9367 69.3097 11.0736 69.5048 11.2447L70.1241 8.9347ZM77.9754 17.4731V11.45C77.9754 10.9481 77.8836 10.5032 77.7002 10.1154C77.5281 9.7161 77.2815 9.3853 76.9603 9.12292C76.6392 8.84915 76.2549 8.64381 75.8076 8.50692C75.3603 8.37003 74.8614 8.30159 74.3108 8.30159C73.9437 8.30159 73.6112 8.32441 73.3129 8.37003C73.0147 8.40426 72.728 8.4613 72.4527 8.54115C72.1888 8.60959 71.9308 8.70085 71.6785 8.81492C71.4376 8.92899 71.1853 9.06019 70.9215 9.20848L71.8333 10.8511C72.0398 10.7371 72.2348 10.6458 72.4183 10.5774C72.6018 10.4975 72.7854 10.4348 72.9688 10.3891C73.1639 10.3435 73.3645 10.3093 73.571 10.2865C73.7889 10.2637 74.0355 10.2523 74.3108 10.2523C74.7467 10.2523 75.0678 10.3663 75.2743 10.5945C75.4922 10.8112 75.6012 11.0793 75.6012 11.3987V11.8436C75.4061 11.7523 75.171 11.6725 74.8958 11.604C74.6205 11.5242 74.2764 11.4843 73.8635 11.4843C73.3473 11.4843 72.8656 11.547 72.4183 11.6725C71.9824 11.798 71.5982 11.9862 71.2656 12.2371C70.9329 12.4767 70.6692 12.7847 70.4741 13.1611C70.2907 13.5376 70.1989 13.9711 70.1989 14.4616C70.1989 15.0091 70.2963 15.4825 70.4913 15.8818C70.6864 16.2811 70.9387 16.6118 71.2483 16.8743C71.5695 17.1367 71.9308 17.3363 72.3323 17.4731C72.7337 17.5987 73.1467 17.6614 73.571 17.6614C73.9953 17.6614 74.3854 17.5872 74.7409 17.4389C75.0965 17.2907 75.3833 17.1024 75.6012 16.8743V17.4731H77.9754ZM75.6012 14.838C75.475 15.0547 75.2628 15.2487 74.9646 15.4198C74.6779 15.5796 74.3394 15.6594 73.9495 15.6594C73.4448 15.6594 73.0893 15.5396 72.8828 15.3C72.6763 15.0605 72.5731 14.781 72.5731 14.4616C72.5731 14.0965 72.6878 13.8171 72.9172 13.6231C73.1581 13.4292 73.5022 13.3323 73.9495 13.3323C74.3738 13.3323 74.7007 13.3665 74.9302 13.4349C75.171 13.492 75.3947 13.5832 75.6012 13.7087V14.838ZM84.3354 7.20648V5.30715C83.9225 5.13603 83.4236 5.05048 82.8386 5.05048C82.0128 5.05048 81.3762 5.23299 80.9289 5.59803C80.4816 5.96308 80.2579 6.56766 80.2579 7.41181V8.48981H79.174V10.7143H80.2579V17.4731H82.6322V10.7143H84.1634V8.48981H82.6322V7.73692C82.6322 7.48596 82.6895 7.30344 82.8042 7.18937C82.9189 7.0753 83.1541 7.01826 83.5096 7.01826C83.6817 7.01826 83.8307 7.03537 83.9569 7.06959C84.0831 7.10381 84.2092 7.14944 84.3354 7.20648ZM88.0729 6.40226C88.0729 6.03722 87.9353 5.72352 87.66 5.46115C87.3962 5.18737 87.0808 5.05048 86.7138 5.05048C86.3467 5.05048 86.0256 5.18737 85.7503 5.46115C85.4864 5.72352 85.3546 6.03722 85.3546 6.40226C85.3546 6.7673 85.4864 7.0867 85.7503 7.36048C86.0256 7.62285 86.3467 7.75403 86.7138 7.75403C87.0808 7.75403 87.3962 7.62285 87.66 7.36048C87.9353 7.0867 88.0729 6.7673 88.0729 6.40226ZM87.9009 17.4731V8.48981H85.5266V17.4731H87.9009ZM97.6255 17.4731L95.0276 11.3474L97.3503 8.48981H94.5459L93.0835 10.372C92.9229 10.566 92.7508 10.7884 92.5673 11.0394C92.3953 11.2903 92.2461 11.5071 92.12 11.6896C92.12 11.5755 92.12 11.4386 92.12 11.2789C92.1314 11.1192 92.1372 10.9538 92.1372 10.7827C92.1486 10.6002 92.1544 10.4234 92.1544 10.2523C92.1544 10.0697 92.1544 9.91003 92.1544 9.77315V4.99915L89.7801 6.17981V17.4731H92.1544V14.7525L93.3071 13.3323L95.0276 17.4731H97.6255Z" fill="#333333"/>
<path d="M5.73676 16.144C6.45386 15.4763 6.57679 14.6417 6.59727 13.7886C6.61776 11.1735 6.61776 8.55837 6.59727 5.94328C6.59727 4.99739 6.92509 4.19988 7.72414 3.56929C8.62564 2.86452 9.50663 2.15974 10.3876 1.43642C12.2111 -0.0287766 14.7106 0.676001 15.2844 2.82742C15.6327 4.12569 15.3048 5.31269 14.6492 6.46258C14.0346 7.5012 13.1741 8.31727 12.1292 8.98494C12.0677 9.02204 12.0267 9.05913 11.9448 9.11477C12.5184 9.18895 13.0306 9.22605 13.5633 9.31879C13.9116 9.37443 14.26 9.46716 14.5877 9.59698C16.3498 10.2276 17.2513 11.6 17.1693 13.3434C17.0259 16.0141 15.4278 17.7576 12.9077 18.9075C11.4325 19.5752 9.85493 19.9832 8.19537 19.909C7.84707 19.8904 7.45779 19.8534 7.15046 19.705C5.32699 18.9075 3.5445 19.1115 1.762 19.7606C1.65955 19.7977 1.57761 19.8162 1.47517 19.8534C1.47517 19.8534 1.45468 19.8534 1.4137 19.8348C1.96688 19.13 2.58153 18.518 3.31912 17.9802C4.40501 17.1826 5.63432 16.6448 7.04802 16.552C8.1544 16.4778 9.19931 16.7375 10.2032 17.1455C10.3262 17.2011 10.4491 17.2567 10.613 17.3309C10.613 17.1826 10.613 17.0528 10.613 16.9415C10.613 13.362 10.613 9.78245 10.613 6.20293C10.613 5.77635 10.6745 5.34978 10.1008 5.14577C10.3671 4.90466 10.5925 4.71919 10.7974 4.53372C11.0023 4.71919 11.2277 4.9232 11.453 5.12722V5.14577C11.0228 5.42397 10.9408 5.81345 10.9613 6.25857C11.0023 7.09317 10.9613 7.92778 10.9613 8.74383C10.9613 8.85512 10.9613 8.9664 10.9613 9.05913C11.0023 9.07768 11.0433 9.09622 11.0842 9.11477C11.3301 8.83658 11.6169 8.59547 11.8423 8.29871C12.416 7.46411 12.5594 6.51823 12.6209 5.57234C12.6619 4.83047 12.5799 4.0886 12.2931 3.38383C12.1906 3.14272 12.0677 2.90161 11.8833 2.6976C11.3301 2.04846 10.3467 2.06701 9.89592 2.79033C9.67054 3.14272 9.54761 3.58784 9.54761 3.99587C9.50663 6.62951 9.50663 9.2446 9.54761 11.8782C9.56809 13.6588 8.52318 15.161 6.57679 15.9029C6.26946 15.9585 6.00311 16.0513 5.73676 16.144ZM10.9818 9.67117C10.9613 9.72682 10.9408 9.78245 10.9408 9.81955C10.9408 12.3234 10.9408 14.8272 10.9408 17.3125C10.9408 17.5907 11.3096 17.7761 11.576 17.6277C12.2316 17.2939 12.7438 16.8116 13.1126 16.2182C13.7682 15.1796 13.9526 14.0482 13.8912 12.8797C13.8502 12.0822 13.6044 11.3404 13.0511 10.7098C12.5389 10.0792 11.8423 9.74536 10.9818 9.67117Z" fill="#333333"/>
<path d="M6.02355 4.88611C5.77768 5.59088 5.75719 6.3142 5.75719 7.03753C5.75719 9.15186 5.73671 11.2662 5.75719 13.3806C5.79817 15.3465 4.73277 16.6262 2.82735 17.4051C2.64295 17.4793 2.43806 17.5535 2.23318 17.6277C2.21269 17.6277 2.19221 17.6277 2.13074 17.6092C2.84783 17.0157 2.88882 16.2367 2.88882 15.4577C2.88882 14.4933 2.88882 13.5104 2.88882 12.5459C2.88882 12.4346 2.88882 12.3234 2.88882 12.2121C2.17172 12.1008 1.78244 12.4346 1.27023 13.6402C0.819479 12.4532 0.491665 11.3033 1.04485 10.1348C1.35218 9.4857 1.86439 9.18895 2.9093 9.04058C2.9093 8.79947 2.9093 8.55836 2.9093 8.29871C2.9093 7.76085 3.0732 7.27863 3.46249 6.87061C4.17958 6.07309 5.08108 5.46105 6.02355 4.88611Z" fill="#333333"/>
<path d="M0 3.21687C0.594165 1.90004 1.31127 0.694506 3.03229 0.397758C3.58548 0.305024 4.0772 0.397758 4.56892 0.620319C4.91722 0.78724 5.28602 0.95416 5.59335 1.17672C6.51533 1.86295 7.47828 1.82585 8.48222 1.38074C8.56418 1.34364 8.64612 1.30655 8.72808 1.26946C8.72808 1.30655 8.74856 1.34364 8.74856 1.36219C8.23635 2.14115 7.6217 2.84593 6.78167 3.36524C5.55236 4.1442 4.46648 4.1442 3.23717 3.38378C3.17571 3.34669 3.13473 3.3096 3.07327 3.2725C2.02836 2.54918 1.29077 2.53064 0.143419 3.14268C0.102442 3.17977 0.0409768 3.19831 0 3.21687Z" fill="#333333"/>
</g>
<defs>
<clipPath id="clip0_2024_2589">
<rect width="102" height="22" fill="white" transform="translate(0 0.362061)"/>
</clipPath>
</defs>
</svg>
