<svg width="77" height="35" viewBox="0 0 77 35" fill="none" xmlns="http://www.w3.org/2000/svg">
<path fill-rule="evenodd" clip-rule="evenodd" d="M26.3791 1.02883C24.7993 1.53515 23.4403 2.96241 23.0075 4.57077C22.4328 6.7051 23.2535 8.46126 25.5041 9.91358C27.803 11.3969 28.4141 11.9927 28.4141 12.7507C28.4141 13.2519 28.2549 13.4131 27.7591 13.4131C27.3989 13.4131 26.9658 13.2747 26.7963 13.1053C26.5756 12.8846 26.2342 13.267 25.5909 14.4548C24.7711 15.9683 24.7343 16.1423 25.1672 16.4587C25.9013 16.9955 28.5482 17.4539 29.6839 17.2409C32.1013 16.7873 33.9779 14.3901 33.7361 12.0644C33.561 10.3792 32.9929 9.65102 30.5849 8.02614C28.5118 6.62708 28.1293 6.17942 28.1293 5.15084C28.1293 4.54856 29.0053 4.17865 29.8191 4.43693C30.2856 4.58501 30.4465 4.36944 30.8691 3.02847C31.2159 1.92813 31.2774 1.35461 31.0707 1.14787C30.5655 0.64269 27.8033 0.572352 26.3791 1.02883ZM58.4166 0.854841C54.9128 1.75072 53.2495 5.57315 55.1825 8.28756C55.5376 8.78618 56.6966 9.75097 57.7585 10.4316C59.6824 11.6646 60.3659 12.6149 59.7627 13.218C59.5329 13.4478 59.2214 13.4501 58.6299 13.2268C57.8286 12.9244 57.7995 12.9489 57.0167 14.5866C56.5784 15.5038 56.2814 16.316 56.3569 16.3915C56.4326 16.4669 57.3037 16.736 58.293 16.9895C61.4144 17.7891 63.5926 16.9283 64.7527 14.4371C65.5651 12.6921 65.5825 12.2017 64.8862 10.6688C64.4785 9.77034 63.8756 9.18258 62.3475 8.19444C59.9441 6.63961 59.2607 5.76281 59.7459 4.85639C60.0145 4.35435 60.2559 4.26379 61.0034 4.3851C61.9104 4.53233 61.9381 4.50442 62.4244 2.96184C62.6972 2.09643 62.8114 1.27943 62.6782 1.14616C62.3196 0.787636 59.4472 0.591147 58.4166 0.854841ZM1.89086 1.35916L0 1.47734L0.136688 4.38396C0.211867 5.98265 0.422025 10.5583 0.603707 14.5522L0.934037 21.8137L6.62939 21.7901C12.2242 21.767 12.3512 21.7531 13.8183 21.003C15.8803 19.9488 16.8215 18.4785 16.9747 16.0728C17.1191 13.8083 16.5162 12.0681 15.1815 10.8963C14.6587 10.4373 14.0798 10.0113 13.8952 9.94974C13.6839 9.87941 13.9379 9.27541 14.5795 8.32201C15.3766 7.13738 15.5996 6.52428 15.5996 5.51591C15.5996 2.85305 12.7451 1.46937 6.94776 1.32158C5.2064 1.27744 2.93083 1.29424 1.89086 1.35916ZM17.4565 1.44317C17.3375 1.63596 17.3341 5.05374 17.4488 9.03849L17.6579 16.2835L19.8323 16.201L22.0068 16.1184L22.1911 8.85681C22.2924 4.86294 22.3508 1.56847 22.3212 1.53572C22.2916 1.50297 21.2337 1.38992 19.9702 1.28456C18.2843 1.14388 17.6154 1.18603 17.4565 1.44317ZM44.3895 1.38052L42.2823 1.47962L42.4605 4.59811L42.6391 7.71631L41.4354 6.96054C40.7736 6.54478 38.9827 5.39546 37.4555 4.40675L34.679 2.60872V9.70798V16.8072L37.2419 16.8032L39.8048 16.7993V14.5886V12.3777L43.9331 14.4713L48.0611 16.5649L47.8959 9.22245C47.8048 5.18416 47.6812 1.71996 47.6208 1.52404C47.5607 1.32841 47.2831 1.19343 47.004 1.22475C46.7252 1.25579 45.5485 1.32585 44.3895 1.38052ZM48.9213 8.0737C48.9233 11.8716 49.0025 15.2678 49.0968 15.62C49.2548 16.2098 49.4331 16.2608 51.3293 16.2608H53.3902L53.5741 14.082C53.6755 12.8837 53.7584 9.56929 53.7584 6.71678V1.53031L52.4371 1.3492C51.7106 1.24953 50.6214 1.16809 50.0165 1.16809H48.9173L48.9213 8.0737ZM8.03443 6.05242C9.40644 6.67748 9.31503 8.27303 7.86414 9.02339C7.39085 9.26801 6.96854 9.42691 6.92554 9.37622C6.88254 9.32553 6.75981 8.48319 6.65302 7.50416C6.44002 5.55407 6.59151 5.39489 8.03443 6.05242ZM9.61944 14.7971C10.011 15.085 10.3704 15.6454 10.4182 16.0423C10.5355 17.0174 9.26434 18.0289 8.06832 17.9121C7.20091 17.8273 7.19864 17.8227 7.11378 15.8664L7.02863 13.9057L7.96808 14.09C8.48493 14.1911 9.22789 14.5094 9.61944 14.7971Z" fill="#FCAF4E"/>
<path fill-rule="evenodd" clip-rule="evenodd" d="M66.4758 14.7634C66.1657 15.2657 58.3147 32.2897 58.3153 32.4594C58.3161 32.7445 63.735 34.571 63.948 34.358C64.055 34.2509 64.3409 33.6272 64.583 32.972C64.825 32.3167 65.1796 31.7933 65.3707 31.809C65.562 31.8247 66.8096 31.8566 68.1429 31.8802L70.5671 31.9229L71.1984 33.2756C71.5456 34.0194 71.8528 34.6701 71.881 34.7213C71.9092 34.7723 72.8729 34.1401 74.0225 33.316C75.1721 32.4919 76.1446 31.799 76.1833 31.776C76.2633 31.7287 67.0186 14.9029 66.7831 14.6671C66.6988 14.5831 66.5607 14.6264 66.4758 14.7634ZM33.7168 18.4998C33.2033 19.4151 32.8291 22.3821 32.8317 25.5156C32.8343 28.7919 32.9092 29.3683 33.4835 30.5278C34.8701 33.3277 36.7521 34.5977 39.5411 34.616C41.1407 34.6265 41.6168 34.5023 42.8117 33.7645C45.6978 31.9816 46.76 27.6705 45.6556 22.2206C44.9534 18.755 45.0847 18.8794 42.4563 19.1847C41.2329 19.3268 40.191 19.4834 40.1408 19.533C40.0907 19.5825 40.32 20.4983 40.6506 21.5682C41.8625 25.4917 41.6934 28.3576 40.21 29.0334C39.1655 29.5092 37.9567 28.8118 37.517 27.4797C37.1306 26.3084 37.3194 23.5069 37.9447 21.1362C38.2406 20.0145 38.2554 19.6187 38.0037 19.5426C35.1173 18.6718 33.8002 18.3512 33.7168 18.4998ZM16.5288 24.8749C15.5674 28.3599 14.7407 31.4488 14.6917 31.7395C14.6208 32.1615 15.0332 32.4309 16.7387 33.0756C17.9133 33.5196 19.0171 33.8904 19.1916 33.8998C19.3665 33.9089 19.7421 32.7667 20.0291 31.3534C20.3153 29.9438 20.6254 28.7905 20.7183 28.7905C20.8114 28.7905 21.103 29.1427 21.3664 29.5736C21.6301 30.0044 22.2799 30.863 22.811 31.4815L23.7764 32.6066L24.8608 30.9732C25.4571 30.0751 26.0363 29.4406 26.1477 29.5636C26.259 29.6866 26.6394 30.6842 26.9931 31.7805C27.3468 32.8769 27.6845 33.8602 27.7435 33.9655C27.9061 34.2552 32.4009 32.159 32.4009 31.7939C32.4009 31.6193 31.5132 28.918 30.4283 25.7907C29.3433 22.6637 28.3686 19.7528 28.2618 19.322C28.155 18.8911 27.9853 18.5423 27.885 18.5468C27.7845 18.5511 26.8052 19.8921 25.7088 21.5263C24.6125 23.1609 23.6514 24.5022 23.5731 24.507C23.4948 24.5118 22.3415 23.1717 21.0102 21.5289C19.6789 19.8861 18.5193 18.5411 18.4333 18.5403C18.3473 18.5394 17.4902 21.3899 16.5288 24.8749ZM47.6359 18.7889L46.7816 18.9714L46.7056 26.1245L46.6296 33.2778L47.2751 33.4558C49.0518 33.9453 51.9689 33.971 53.7584 33.5128C57.3471 32.5938 58.878 30.7884 59.1081 27.2046C59.3638 23.2224 58.0872 20.4935 55.3787 19.2325C54.1204 18.6465 53.4993 18.5491 51.1955 18.5753C49.7076 18.5924 48.1058 18.6883 47.6359 18.7889ZM54.0432 24.2342C54.4456 24.6366 54.6127 25.1833 54.6127 26.098C54.6127 27.851 53.7086 28.7905 52.0216 28.7905H50.8284L51.0098 26.8683C51.1098 25.8109 51.1924 24.6576 51.1935 24.3054C51.1952 23.7481 51.3439 23.6647 52.3346 23.6647C53.0941 23.6647 53.6636 23.8546 54.0432 24.2342ZM68.4934 27.8026C68.4553 27.8317 67.9555 27.7969 67.3828 27.7254L66.3417 27.5953L66.786 26.2919L67.2299 24.9888L67.8963 26.3694C68.2628 27.1286 68.5316 27.7736 68.4934 27.8026Z" fill="#8CC44B"/>
</svg>
