<svg id="Group_4203" data-name="Group 4203" xmlns="http://www.w3.org/2000/svg" width="42.278" height="42.278" viewBox="0 0 42.278 42.278">
  <path id="Path_1866" data-name="Path 1866" d="M358.776,10.061A11.375,11.375,0,0,1,347.394-1.284,11.364,11.364,0,0,1,358.75-12.649,11.344,11.344,0,0,1,370.1-1.332,11.361,11.361,0,0,1,358.776,10.061ZM351.4-1.307a7.338,7.338,0,0,0,7.337,7.367,7.336,7.336,0,0,0,7.378-7.326,7.338,7.338,0,0,0-7.359-7.389A7.339,7.339,0,0,0,351.4-1.307Z" transform="translate(-338.16 23.143)"/>
  <path id="Path_1867" data-name="Path 1867" d="M590.292-45.869a2.634,2.634,0,0,1-2.609,2.659A2.65,2.65,0,0,1,585-45.848a2.633,2.633,0,0,1,2.616-2.652A2.62,2.62,0,0,1,590.292-45.869Z" transform="translate(-555.252 55.899)"/>
  <g id="Group_1152" data-name="Group 1152" transform="translate(0 0)">
    <g id="Rectangle_89" data-name="Rectangle 89" fill="none" stroke="#000" stroke-width="3">
      <rect width="42.278" height="42.278" rx="8" stroke="none"/>
      <rect x="1.5" y="1.5" width="39.278" height="39.278" rx="6.5" fill="none"/>
    </g>
  </g>
</svg>
