<svg xmlns="http://www.w3.org/2000/svg" width="25.049" height="20.483" viewBox="0 0 25.049 20.483">
  <path id="Path_12655" data-name="Path 12655" d="M-256.127,1271.547a9.41,9.41,0,0,1-2.267,2.4.515.515,0,0,0-.227.49,14.665,14.665,0,0,1-1.489,6.8,14.389,14.389,0,0,1-5.459,6.155,14.059,14.059,0,0,1-5.614,1.974,15.364,15.364,0,0,1-4.244-.01,14.341,14.341,0,0,1-5.7-2.1.4.4,0,0,1-.05-.058,10.532,10.532,0,0,0,7.567-2.143,6.219,6.219,0,0,1-1.028-.132,5.183,5.183,0,0,1-3.7-3.2c-.107-.256-.088-.27.195-.23a5.258,5.258,0,0,0,1.833-.079.72.72,0,0,0,.121-.052,5.14,5.14,0,0,1-4.022-5.106,5.192,5.192,0,0,0,2.276.6,5.205,5.205,0,0,1-2.137-3.161,5.113,5.113,0,0,1,.559-3.7c.1.021.128.094.174.148a14.627,14.627,0,0,0,8.123,4.91,16.049,16.049,0,0,0,2.19.305c.183.015.171-.05.149-.193a5.1,5.1,0,0,1,1.7-4.879,4.949,4.949,0,0,1,4.184-1.2,4.989,4.989,0,0,1,2.824,1.432.3.3,0,0,0,.323.092,10.565,10.565,0,0,0,2.841-1.07c.063-.035.129-.065.243-.122a5.307,5.307,0,0,1-2.121,2.778,3.378,3.378,0,0,0,.914-.132c.3-.074.6-.153.9-.247s.6-.212.9-.319A.326.326,0,0,0-256.127,1271.547Z" transform="translate(281.176 -1269.03)"/>
</svg>
