<svg id="Group_4204" data-name="Group 4204" xmlns="http://www.w3.org/2000/svg" width="42.278" height="42.278" viewBox="0 0 42.278 42.278">
  <path id="Path_1306" data-name="Path 1306" d="M-492.9-57.4c-.613-.09-1.234-.14-1.836-.277a8.549,8.549,0,0,1-6.492-7.181,8.54,8.54,0,0,1,7.164-9.513,7.95,7.95,0,0,1,2.7-.006v4.531c-.239-.045-.464-.095-.691-.128a4.075,4.075,0,0,0-4.624,3.39,4.087,4.087,0,0,0,3.521,4.67,4.114,4.114,0,0,0,4.615-4.173c-.025-3.27,0-6.541,0-9.812q0-4.353,0-8.706v-.364h4.468c.065.464.106.927.2,1.38a6.94,6.94,0,0,0,6.5,5.486c.274.009.344.082.341.351-.015,1.276-.007,2.552-.007,3.828v.308a11.1,11.1,0,0,1-3.688-.6,11.751,11.751,0,0,1-3.308-1.759c0,.149,0,.244,0,.338q.014,4.771.028,9.542a8.248,8.248,0,0,1-1.4,4.785,8.517,8.517,0,0,1-6.661,3.862c-.1.008-.193.03-.29.045Z" transform="translate(510.517 92.658)"/>
  <g id="Path_12663" data-name="Path 12663" fill="none">
    <path d="M8,0H34.278a8,8,0,0,1,8,8V34.278a8,8,0,0,1-8,8H8a8,8,0,0,1-8-8V8A8,8,0,0,1,8,0Z" stroke="none"/>
    <path d="M 8.000003814697266 2.999992370605469 C 5.242992401123047 2.999992370605469 2.999992370605469 5.242992401123047 2.999992370605469 8.000003814697266 L 2.999992370605469 34.27758407592773 C 2.999992370605469 37.03459548950195 5.242992401123047 39.27758407592773 8.000003814697266 39.27758407592773 L 34.27758407592773 39.27758407592773 C 37.03459548950195 39.27758407592773 39.27758407592773 37.03459548950195 39.27758407592773 34.27758407592773 L 39.27758407592773 8.000003814697266 C 39.27758407592773 5.242992401123047 37.03459548950195 2.999992370605469 34.27758407592773 2.999992370605469 L 8.000003814697266 2.999992370605469 M 8.000003814697266 -7.62939453125e-06 L 34.27758407592773 -7.62939453125e-06 C 38.69586563110352 -7.62939453125e-06 42.27758407592773 3.581722259521484 42.27758407592773 8.000003814697266 L 42.27758407592773 34.27758407592773 C 42.27758407592773 38.69586563110352 38.69586563110352 42.27758407592773 34.27758407592773 42.27758407592773 L 8.000003814697266 42.27758407592773 C 3.581722259521484 42.27758407592773 -7.62939453125e-06 38.69586563110352 -7.62939453125e-06 34.27758407592773 L -7.62939453125e-06 8.000003814697266 C -7.62939453125e-06 3.581722259521484 3.581722259521484 -7.62939453125e-06 8.000003814697266 -7.62939453125e-06 Z" stroke="none" fill="#000"/>
  </g>
</svg>
