<svg xmlns="http://www.w3.org/2000/svg" viewBox="0 0 41.8 42" style="enable-background:new 0 0 41.8 42" xml:space="preserve"><path d="M0 42c.3-1.2.6-2.3.9-3.4.6-2.3 1.3-4.6 1.9-7 .1-.2 0-.5-.1-.7C-2.8 20.8.9 8.1 11 2.6c.2-.1.4-.2.5-.3 10.2-5.2 22.8-1.2 28 9 .6 1.1 1 2.2 1.4 3.4 3.3 11-2.8 22.6-13.8 26-5.2 1.7-10.9 1.1-15.8-1.4-.2-.1-.5-.1-.7-.1-3.3.9-6.7 1.8-10.1 2.7-.2 0-.3.1-.5.1zm5-4.9c2.1-.5 4.1-1.1 6.1-1.6.3-.1.6 0 .9.1 3.7 2.3 8.1 3.1 12.4 2.2 9.3-1.9 15.4-10.9 13.6-20.2C36.2 8.2 27.2 2.1 17.8 3.8 8.4 5.6 2.2 14.6 4 24c.4 1.9 1 3.7 1.9 5.3.6.9.7 2 .4 3.1-.5 1.5-.9 3.1-1.3 4.7z"/><path d="M14.3 11.2c.9-.2 1.3.3 1.6 1.1l1.5 3.6c.2.4.2.8-.1 1.1-.4.5-.8 1.1-1.2 1.6-.3.3-.3.7-.1 1.1 1.6 2.8 4.1 5 7.2 6.2.4.2.8.1 1-.3.5-.6 1-1.3 1.5-1.9.4-.5.6-.6 1.1-.3 1.5.7 2.9 1.4 4.4 2.1.2.1.3.4.3.6 0 2.2-.7 3.3-3 4.3-1.3.5-2.8.5-4.1 0-5-1.4-8.7-4.6-11.7-8.7-1-1.2-1.7-2.7-2.1-4.2-.6-2.1.1-4.4 1.7-5.8.5-.4 1.3-.6 2-.5z"/></svg>