<svg id="Group_4202" data-name="Group 4202" xmlns="http://www.w3.org/2000/svg" width="20.515" height="20.483" viewBox="0 0 20.515 20.483">
  <path id="Path_12659" data-name="Path 12659" d="M-173.555,1126.459a5.292,5.292,0,0,1-4.77-3.325,5.267,5.267,0,0,1,.933-5.92c.976-1.11,2.062-2.125,3.117-3.162a1.4,1.4,0,0,1,2.014-.006,1.4,1.4,0,0,1-.029,2.017c-.955.981-1.947,1.926-2.893,2.916a2.708,2.708,0,0,0,1.208,4.538,2.661,2.661,0,0,0,2.708-.765c.945-.946,1.884-1.9,2.837-2.837a1.358,1.358,0,0,1,1.623-.284,1.31,1.31,0,0,1,.776,1.4,1.891,1.891,0,0,1-.448.916q-1.447,1.523-2.964,2.979A5.611,5.611,0,0,1-173.555,1126.459Z" transform="translate(178.842 -1105.976)"/>
  <path id="Path_12660" data-name="Path 12660" d="M-110.945,1053.644a5.224,5.224,0,0,1,4.577,3.184,5.221,5.221,0,0,1-.724,5.866,45.176,45.176,0,0,1-3.34,3.409,1.376,1.376,0,0,1-1.941-.052,1.4,1.4,0,0,1,0-1.982c.975-1.006,2-1.968,2.956-2.988a2.707,2.707,0,0,0-1.237-4.5,2.63,2.63,0,0,0-2.672.733c-.96.954-1.908,1.92-2.873,2.868a1.361,1.361,0,0,1-1.623.287,1.312,1.312,0,0,1-.778-1.4,1.885,1.885,0,0,1,.447-.916c.942-.993,1.911-1.962,2.9-2.912A5.718,5.718,0,0,1-110.945,1053.644Z" transform="translate(126.301 -1053.644)"/>
  <path id="Path_12661" data-name="Path 12661" d="M-130.777,1108.593c-.84-.032-1.291-.289-1.526-.843a1.353,1.353,0,0,1,.262-1.55c.5-.532,1.028-1.04,1.545-1.558,1.4-1.407,2.812-2.809,4.209-4.224a1.461,1.461,0,0,1,1.559-.44,1.406,1.406,0,0,1,.648,2.221,8.794,8.794,0,0,1-.692.723c-1.7,1.7-3.382,3.409-5.1,5.09A4.355,4.355,0,0,1-130.777,1108.593Z" transform="translate(138.353 -1094.008)"/>
</svg>
