<svg xmlns="http://www.w3.org/2000/svg" viewBox="0 0 45 39.3" style="enable-background:new 0 0 45 39.3" xml:space="preserve"><path d="M0 13.5v-.9c.1-.2.2-.5.4-.7C2.4 8.3 4.5 4.7 6.6 1c.3-.7 1-1.1 1.8-1H37.2c.5 0 .9.3 1.1.7 2.2 3.8 4.4 7.7 6.5 11.5.1.2.2.5.2.8 0 2.4-1.4 4.5-3.5 5.6-.3.1-.4.4-.4.7v18.6c0 1-.4 1.4-1.4 1.4H5.3c-1 0-1.4-.4-1.4-1.4V19.4c0-.3-.1-.7-.5-.8-1.1-.6-1.9-1.4-2.5-2.4-.5-.9-.8-1.8-.9-2.7zm6.1 23.6H10V25.5c-.1-2.1 1.4-3.9 3.5-4.1h3.3c.6 0 1.2.2 1.8.4 1.4.6 2.2 2 2.1 3.5V37h18.2V19.4c-2.3.1-4.4-1-5.7-2.8-1.2 1.8-3.2 2.8-5.3 2.8-2.1 0-4.1-1-5.3-2.8-2.1 3-6.2 3.7-9.1 1.6-.6-.4-1.2-1-1.6-1.6-1.3 1.9-3.4 2.9-5.7 2.8v17.7zM3.3 11.4h38.5c0-.1-.1-.1-.1-.2-1.6-2.9-3.3-5.8-4.9-8.7-.2-.3-.4-.3-.6-.3H8.9c-.3 0-.5.1-.6.4C6.6 5.4 5 8.2 3.5 11c-.1.1-.2.2-.2.4zm15.2 25.7V25.3c0-.9-.6-1.6-1.5-1.6h-3c-1.3 0-1.9.6-1.9 1.8v11.7l6.4-.1zm-7.9-23.4H2.3c.4 2 2.1 3.5 4.1 3.5 2.1-.1 3.8-1.5 4.2-3.5zm2.4 0c.4 2.2 2.5 3.7 4.7 3.4 2.2-.3 3.6-2.3 3.5-3.4H13zm10.8 0c.3 2 2.1 3.5 4.1 3.5 2 0 3.8-1.4 4.1-3.5h-8.2zm10.6 0c.4 2.1 2.3 3.6 4.4 3.4 1.9-.1 3.8-1.8 3.8-3.4h-8.2z"/><path d="M28.9 32.2H26c-1.7.1-3.1-1.2-3.2-2.8V24.6c-.1-1.7 1.2-3.1 2.9-3.2h6.1c1.7-.1 3.1 1.2 3.2 2.9V29c.1 1.7-1.2 3.1-2.8 3.2h-3.3zm0-2.2h2.9c.7 0 1-.3 1-1v-4.4c0-.7-.3-1-1-1H26c-.7 0-1 .3-1 1v4.3c0 .7.3 1 1 1 1 .1 2 .1 2.9.1z"/></svg>