<svg xmlns="http://www.w3.org/2000/svg" width="13.436" height="13.252" viewBox="0 0 13.436 13.252">
  <path id="Path_82" data-name="Path 82" d="M-221.667,34.619c.033-.224.058-.449.1-.671a5.29,5.29,0,0,1,1.306-2.614,5.273,5.273,0,0,1,2.94-1.682,5.25,5.25,0,0,1,3.849.653,5.289,5.289,0,0,1,2.547,3.56,5.278,5.278,0,0,1-.582,3.761c-.126.227-.13.225.058.412l2.848,2.847a1.085,1.085,0,0,1,.332,1.1,1.089,1.089,0,0,1-1.856.453c-.536-.546-1.081-1.083-1.623-1.624l-1.3-1.3c-.027-.027-.057-.053-.073-.068-.338.176-.655.373-1,.514a5.305,5.305,0,0,1-4.374-.058,5.334,5.334,0,0,1-2.5-2.31,5.189,5.189,0,0,1-.656-2.137,1.234,1.234,0,0,0-.024-.127Zm1.759.354a3.675,3.675,0,0,0,3.678,3.663,3.676,3.676,0,0,0,3.664-3.665,3.679,3.679,0,0,0-3.673-3.67A3.675,3.675,0,0,0-219.908,34.973Z" transform="translate(221.667 -29.538)"/>
</svg>
