<svg id="Component_20_1" data-name="Component 20 – 1" xmlns="http://www.w3.org/2000/svg" width="106.681" height="106.615" viewBox="0 0 106.681 106.615">
  <path id="Path_1079" data-name="Path 1079" d="M173.989,3.387V-9.1h-6.253L172.38-40.35h5.7v-6.24h-6.1V-52.85h74.375V-80.382H228.891v-22.846H270.2v22.816H252.735V-52.92h17.444v6.251h-6.1v6.278h5.687c.659,4.434,1.3,8.752,1.943,13.071q1.267,8.546,2.534,17.093a2.6,2.6,0,0,0,.173.484v.625h-6.251v12.5H249.414V-9.051H192.741V3.387Zm93.6-18.81-3.116-18.664H177.673l-3.108,18.664Zm-83.14-25.028h73.209v-6.125H184.454Zm79.47-46.221V-97h-28.77v10.327ZM180.285-2.94h6.121V-9.061h-6.121Zm75.42-.005h6.158v-6.11h-6.158Z" transform="translate(-167.736 103.228)" fill="#2d2d2d"/>
  <path id="Path_1080" data-name="Path 1080" d="M285.3,163.815H192.271l3.108-18.664h86.805Zm-83.138-6.27h21.329v-6.128H202.162Zm60.72.023v-6.123h-6.126v6.123Zm6.4-6.16v6.123H275.4v-6.123Z" transform="translate(-185.442 -76.01)" fill="#fff"/>
  <path id="Path_1081" data-name="Path 1081" d="M227.8,106.411v-6.125h73.209v6.125Z" transform="translate(-211.081 -43.634)" fill="#ff3115"/>
  <path id="Path_1082" data-name="Path 1082" d="M438.713-70.524h-28.77V-80.851h28.77Z" transform="translate(-342.525 87.08)" fill="#ff3115"/>
  <path id="Path_1083" data-name="Path 1083" d="M212.82,241.175v-6.121h6.121v6.121Z" transform="translate(-200.27 -140.887)" fill="#ff3115"/>
  <path id="Path_1084" data-name="Path 1084" d="M483.775,241.184v-6.111h6.158v6.111Z" transform="translate(-395.806 -140.901)" fill="#ff3115"/>
  <path id="Path_1085" data-name="Path 1085" d="M227.8,173.789v-6.128h21.329v6.128Z" transform="translate(-211.084 -92.254)" fill="#2d2d2d"/>
  <path id="Path_1086" data-name="Path 1086" d="M430.064,173.884h-6.126v-6.123h6.126Z" transform="translate(-352.625 -92.326)" fill="#2d2d2d"/>
  <path id="Path_1087" data-name="Path 1087" d="M468.934,167.629h6.117v6.123h-6.117Z" transform="translate(-385.095 -92.231)" fill="#2d2d2d"/>
</svg>
