<svg id="Component_28_1" data-name="Component 28 – 1" xmlns="http://www.w3.org/2000/svg" width="110.471" height="110.847" viewBox="0 0 110.471 110.847">
  <path id="Path_1160" data-name="Path 1160" d="M231.491,13.272H125.832a3.852,3.852,0,0,1-2.4-3.711q.045-29.868.008-59.736a3.853,3.853,0,0,1,1.5-3.183c5.03-4.162,10.026-8.365,15.063-12.517a1.974,1.974,0,0,0,.785-1.737c-.031-4.978-.019-9.956-.015-14.934,0-2.52,1.259-3.76,3.808-3.762,6.314,0,12.627.014,18.941-.027a2.723,2.723,0,0,0,1.616-.6c3.656-3.105,7.272-6.259,10.9-9.4,1.9-1.648,3.356-1.652,5.254-.007,3.625,3.142,7.241,6.3,10.9,9.4a2.725,2.725,0,0,0,1.611.607c6.2.042,12.411.026,18.616.027,3,0,4.139,1.123,4.139,4.083,0,4.87.015,9.74-.016,14.609a1.971,1.971,0,0,0,.787,1.735c4.927,4.06,9.8,8.188,14.738,12.232a4.621,4.621,0,0,1,1.835,3.907q-.053,29.326.007,58.653C233.908,10.922,233.362,12.406,231.491,13.272ZM147.312-79.775c-.021.255-.042.4-.042.537q0,19.907.029,39.814a1.933,1.933,0,0,0,.734,1.276q9.018,7.08,18.1,14.08a2.745,2.745,0,0,0,1.559.516q10.983.049,21.966,0a2.915,2.915,0,0,0,1.636-.592c6-4.619,11.964-9.282,17.96-13.906a1.908,1.908,0,0,0,.82-1.714q-.036-19.42-.017-38.84v-1.167Zm-11.044,86.5h84.745c-.359-.307-.586-.517-.829-.706Q205.665-5.279,191.129-16.552a2.57,2.57,0,0,0-1.468-.464q-10.934-.043-21.867.009a3.254,3.254,0,0,0-1.832.652q-13.487,10.419-26.925,20.9C138.166,5.224,137.3,5.909,136.268,6.722Zm-6.28-3.365,30.4-23.642-30.4-23.631Zm66.963-23.639L227.294,3.313V-43.881Zm19.635-23.5,8.863-6.893-8.863-7.378ZM140.715-58.034l-8.833,7.357,8.833,6.862Zm37.948-31.988-4.182,3.634h8.375Z" transform="translate(-123.432 97.575)" fill="#2d2d2d"/>
  <path id="Path_1161" data-name="Path 1161" d="M205.909-36.017h62.744v1.167q0,19.42.017,38.84a1.908,1.908,0,0,1-.82,1.714c-6,4.624-11.96,9.287-17.96,13.906a2.915,2.915,0,0,1-1.636.592q-10.983.058-21.966,0a2.745,2.745,0,0,1-1.559-.516q-9.081-7-18.1-14.08a1.933,1.933,0,0,1-.734-1.276q-.058-19.907-.029-39.814C205.867-35.621,205.888-35.762,205.909-36.017ZM242.62,3.359c.3.33.555.628.828.911a7.309,7.309,0,0,0,5.809,2.381A10.184,10.184,0,0,0,258.251,1a20.714,20.714,0,0,0,2.278-14.337,23.706,23.706,0,0,0-21.8-18.371A23.862,23.862,0,0,0,214.3-2.131c2.473,10.192,11.984,17.9,22.239,18.023a3.254,3.254,0,1,0,.25-6.5,16.82,16.82,0,0,1-2.471-.27C227.3,7.568,222.526,3.4,220.689-3.563a16.226,16.226,0,0,1,5.4-17.4c5.46-4.688,11.763-5.6,18.394-2.72,8.372,3.638,11.906,12.255,8.548,20.588A5.751,5.751,0,0,1,251.2-.639a3.733,3.733,0,0,1-2.684.613c-.994-.228-.9-1.4-.895-2.318.013-1.335.013-2.669.017-4,.013-4.437.038-8.874.029-13.312a3.2,3.2,0,0,0-2.446-3.174,3.219,3.219,0,0,0-3.7,1.766l-.342.661c-.187-.056-.326-.087-.456-.139a10.923,10.923,0,0,0-12.316,2.565c-3.969,4.032-4.961,10.912-2.42,16.445C229.067,5.168,236.577,7.942,242.62,3.359Z" transform="translate(-182.03 53.817)" fill="#fff"/>
  <path id="Path_1162" data-name="Path 1162" d="M167.824,204.708c1.035-.813,1.9-1.5,2.768-2.174q13.454-10.463,26.925-20.9a3.254,3.254,0,0,1,1.832-.652q10.933-.067,21.867-.009a2.571,2.571,0,0,1,1.468.464Q237.233,192.692,251.74,204c.243.189.47.4.829.706Z" transform="translate(-154.989 -100.412)" fill="#ff3115"/>
  <path id="Path_1163" data-name="Path 1163" d="M146.107,135.267V87.994l30.4,23.631Z" transform="translate(-139.551 -34.336)" fill="#ff3115"/>
  <path id="Path_1164" data-name="Path 1164" d="M377.688,111.717l30.343-23.6v47.194Z" transform="translate(-304.167 -34.424)" fill="#ff3115"/>
  <path id="Path_1165" data-name="Path 1165" d="M445.593,53.362V39.09l8.863,7.378Z" transform="translate(-352.438 0.427)" fill="#ff3115"/>
  <path id="Path_1166" data-name="Path 1166" d="M161.487,39.171V53.39l-8.833-6.862Z" transform="translate(-144.204 0.37)" fill="#ff3115"/>
  <path id="Path_1167" data-name="Path 1167" d="M304.159-71.455l4.192,3.634h-8.375Z" transform="translate(-248.927 79.008)" fill="#ff3115"/>
  <path id="Path_1168" data-name="Path 1168" d="M261.646,13.892C255.6,18.476,248.094,15.7,245.015,9c-2.541-5.533-1.55-12.413,2.42-16.445a10.923,10.923,0,0,1,12.316-2.565c.13.052.269.083.456.139l.342-.661a3.219,3.219,0,0,1,3.7-1.766,3.2,3.2,0,0,1,2.446,3.174c.009,4.437-.016,8.874-.029,13.312,0,1.335,0,2.669-.017,4-.009.914-.1,2.091.895,2.318a3.733,3.733,0,0,0,2.684-.613,5.751,5.751,0,0,0,1.832-2.455c3.358-8.334-.176-16.951-8.548-20.588-6.631-2.881-12.935-1.968-18.394,2.72a16.226,16.226,0,0,0-5.4,17.4c1.837,6.959,6.609,11.131,13.634,12.688a16.82,16.82,0,0,0,2.471.27,3.254,3.254,0,1,1-.25,6.5C245.315,26.3,235.8,18.595,233.331,8.4a23.862,23.862,0,0,1,24.422-29.574A23.706,23.706,0,0,1,279.555-2.8a20.714,20.714,0,0,1-2.278,14.337,10.183,10.183,0,0,1-8.994,5.649,7.309,7.309,0,0,1-5.809-2.381C262.2,14.52,261.945,14.222,261.646,13.892ZM260.2,1.759a22.127,22.127,0,0,0-.61-2.8A4.33,4.33,0,0,0,255.9-4.4a4.706,4.706,0,0,0-4.543,2.364,8.877,8.877,0,0,0,.712,10.089c2.068,2.286,4.8,2.125,6.562-.407A10.185,10.185,0,0,0,260.2,1.759Z" transform="translate(-201.056 43.283)" fill="#2d2d2d"/>
  <path id="Path_1169" data-name="Path 1169" d="M303.172,42.993a10.185,10.185,0,0,1-1.563,5.891c-1.759,2.533-4.495,2.693-6.562.407a8.877,8.877,0,0,1-.712-10.089,4.706,4.706,0,0,1,4.543-2.364,4.33,4.33,0,0,1,3.684,3.357A22.123,22.123,0,0,1,303.172,42.993Z" transform="translate(-244.031 2.049)" fill="#fff"/>
</svg>
