<svg width="115" height="49" viewBox="0 0 115 49" fill="none" xmlns="http://www.w3.org/2000/svg">
<path d="M45.152 22L41.872 16.672H41.824L40.896 22H38.288L40.288 10.672H42.896L42.048 15.424H42.096L46.592 10.672H49.984L44.432 16.064L48.464 22H45.152ZM52.743 22.224C52.167 22.224 51.6283 22.144 51.127 21.984C50.6363 21.824 50.2097 21.5947 49.847 21.296C49.495 20.9867 49.2123 20.6187 48.999 20.192C48.7963 19.7547 48.695 19.264 48.695 18.72C48.695 18.0587 48.807 17.4293 49.031 16.832C49.255 16.2347 49.575 15.712 49.991 15.264C50.4177 14.816 50.9297 14.4587 51.527 14.192C52.1243 13.9253 52.8017 13.792 53.559 13.792C54.1457 13.792 54.6897 13.872 55.191 14.032C55.6923 14.192 56.1243 14.4267 56.487 14.736C56.8497 15.0347 57.1323 15.4027 57.335 15.84C57.5483 16.2667 57.655 16.752 57.655 17.296C57.655 17.968 57.543 18.6027 57.319 19.2C57.095 19.7973 56.7697 20.32 56.343 20.768C55.9163 21.216 55.399 21.5733 54.791 21.84C54.1937 22.096 53.511 22.224 52.743 22.224ZM55.127 17.568C55.127 17.088 54.9777 16.688 54.679 16.368C54.391 16.048 53.9803 15.888 53.447 15.888C53.1057 15.888 52.7963 15.9573 52.519 16.096C52.2417 16.2347 52.007 16.4213 51.815 16.656C51.623 16.8907 51.4737 17.1627 51.367 17.472C51.2603 17.7813 51.207 18.1067 51.207 18.448C51.207 18.928 51.351 19.328 51.639 19.648C51.927 19.9573 52.3377 20.112 52.871 20.112C53.2123 20.112 53.5217 20.048 53.799 19.92C54.0763 19.7813 54.311 19.5947 54.503 19.36C54.7057 19.1253 54.8603 18.8533 54.967 18.544C55.0737 18.2347 55.127 17.9093 55.127 17.568ZM62.2466 15.184C62.5026 14.7893 62.844 14.464 63.2706 14.208C63.6973 13.952 64.188 13.824 64.7426 13.824C65.1906 13.824 65.5746 13.888 65.8946 14.016C66.2146 14.144 66.476 14.32 66.6786 14.544C66.892 14.768 67.0466 15.0293 67.1426 15.328C67.2386 15.616 67.2866 15.92 67.2866 16.24C67.2866 16.3893 67.2813 16.5387 67.2706 16.688C67.26 16.8267 67.2386 16.9653 67.2066 17.104L66.3426 22H63.7826L64.5346 17.68C64.588 17.4347 64.6146 17.2107 64.6146 17.008C64.6146 16.7093 64.5346 16.4587 64.3746 16.256C64.2253 16.0427 63.9533 15.936 63.5586 15.936C63.324 15.936 63.1106 15.984 62.9186 16.08C62.7373 16.1653 62.572 16.288 62.4226 16.448C62.284 16.608 62.1666 16.7947 62.0706 17.008C61.9853 17.2213 61.9213 17.4453 61.8786 17.68L61.1106 22H58.5506L59.6546 15.68C59.6973 15.4773 59.74 15.216 59.7826 14.896C59.836 14.576 59.8733 14.288 59.8946 14.032H62.3426C62.332 14.16 62.3106 14.3413 62.2786 14.576C62.2573 14.8107 62.236 15.0133 62.2146 15.184H62.2466ZM68.3944 15.968L68.7464 14.032H70.0104L70.3784 11.92H72.8744L72.5064 14.032H74.2024L73.8504 15.968H72.2024L71.6264 19.088C71.6157 19.1627 71.605 19.2427 71.5944 19.328C71.5944 19.4027 71.5944 19.4667 71.5944 19.52C71.5944 19.7867 71.669 19.968 71.8184 20.064C71.9677 20.16 72.1704 20.208 72.4264 20.208C72.5544 20.208 72.677 20.1973 72.7944 20.176C72.9224 20.1547 73.0344 20.1333 73.1304 20.112L72.8904 21.952C72.741 22.016 72.5277 22.0693 72.2504 22.112C71.9837 22.1653 71.7277 22.192 71.4824 22.192C70.7144 22.192 70.1064 22.0373 69.6584 21.728C69.221 21.4187 69.0024 20.928 69.0024 20.256C69.0024 20.128 69.0077 19.984 69.0184 19.824C69.0397 19.6533 69.0664 19.4933 69.0984 19.344L69.7064 15.968H68.3944ZM76.7825 18.704C76.7718 18.7467 76.7665 18.7947 76.7665 18.848C76.7665 19.072 76.8145 19.2747 76.9105 19.456C77.0172 19.6267 77.1505 19.776 77.3105 19.904C77.4812 20.0213 77.6678 20.112 77.8705 20.176C78.0838 20.24 78.3025 20.272 78.5265 20.272C78.9318 20.272 79.2892 20.1973 79.5985 20.048C79.9078 19.8987 80.1852 19.696 80.4305 19.44L82.0465 20.704C81.5345 21.248 80.9638 21.6427 80.3345 21.888C79.7052 22.1227 79.0278 22.24 78.3025 22.24C77.7478 22.24 77.2305 22.16 76.7505 22C76.2812 21.8507 75.8705 21.6267 75.5185 21.328C75.1665 21.0187 74.8892 20.64 74.6865 20.192C74.4838 19.744 74.3825 19.232 74.3825 18.656C74.3825 17.9733 74.4998 17.3387 74.7345 16.752C74.9798 16.1547 75.3105 15.6373 75.7265 15.2C76.1532 14.7627 76.6598 14.4213 77.2465 14.176C77.8332 13.92 78.4785 13.792 79.1825 13.792C79.7052 13.792 80.1798 13.8667 80.6065 14.016C81.0438 14.1653 81.4172 14.384 81.7265 14.672C82.0358 14.9493 82.2758 15.296 82.4465 15.712C82.6172 16.128 82.7025 16.608 82.7025 17.152C82.7025 17.344 82.6812 17.5893 82.6385 17.888C82.6065 18.176 82.5585 18.448 82.4945 18.704H76.7825ZM80.4145 17.136C80.4252 17.0827 80.4305 17.0293 80.4305 16.976C80.4305 16.9227 80.4305 16.8693 80.4305 16.816C80.4305 16.464 80.3025 16.1707 80.0465 15.936C79.8012 15.7013 79.4438 15.584 78.9745 15.584C78.6865 15.584 78.4252 15.6373 78.1905 15.744C77.9665 15.84 77.7692 15.9627 77.5985 16.112C77.4278 16.2613 77.2892 16.4267 77.1825 16.608C77.0758 16.7893 77.0012 16.9653 76.9585 17.136H80.4145ZM87.3091 15.184C87.5651 14.7893 87.9065 14.464 88.3331 14.208C88.7598 13.952 89.2505 13.824 89.8051 13.824C90.2531 13.824 90.6371 13.888 90.9571 14.016C91.2771 14.144 91.5385 14.32 91.7411 14.544C91.9545 14.768 92.1091 15.0293 92.2051 15.328C92.3011 15.616 92.3491 15.92 92.3491 16.24C92.3491 16.3893 92.3438 16.5387 92.3331 16.688C92.3225 16.8267 92.3011 16.9653 92.2691 17.104L91.4051 22H88.8451L89.5971 17.68C89.6505 17.4347 89.6771 17.2107 89.6771 17.008C89.6771 16.7093 89.5971 16.4587 89.4371 16.256C89.2878 16.0427 89.0158 15.936 88.6211 15.936C88.3865 15.936 88.1731 15.984 87.9811 16.08C87.7998 16.1653 87.6345 16.288 87.4851 16.448C87.3465 16.608 87.2291 16.7947 87.1331 17.008C87.0478 17.2213 86.9838 17.4453 86.9411 17.68L86.1731 22H83.6131L84.7171 15.68C84.7598 15.4773 84.8025 15.216 84.8451 14.896C84.8985 14.576 84.9358 14.288 84.9571 14.032H87.4051C87.3945 14.16 87.3731 14.3413 87.3411 14.576C87.3198 14.8107 87.2985 15.0133 87.2771 15.184H87.3091ZM38.288 38L40.288 26.672H42.96L40.96 38H38.288ZM46.9029 31.184C47.1589 30.7893 47.5002 30.464 47.9269 30.208C48.3535 29.952 48.8442 29.824 49.3989 29.824C49.8469 29.824 50.2309 29.888 50.5509 30.016C50.8709 30.144 51.1322 30.32 51.3349 30.544C51.5482 30.768 51.7029 31.0293 51.7989 31.328C51.8949 31.616 51.9429 31.92 51.9429 32.24C51.9429 32.3893 51.9375 32.5387 51.9269 32.688C51.9162 32.8267 51.8949 32.9653 51.8629 33.104L50.9989 38H48.4389L49.1909 33.68C49.2442 33.4347 49.2709 33.2107 49.2709 33.008C49.2709 32.7093 49.1909 32.4587 49.0309 32.256C48.8815 32.0427 48.6095 31.936 48.2149 31.936C47.9802 31.936 47.7669 31.984 47.5749 32.08C47.3935 32.1653 47.2282 32.288 47.0789 32.448C46.9402 32.608 46.8229 32.7947 46.7269 33.008C46.6415 33.2213 46.5775 33.4453 46.5349 33.68L45.7669 38H43.2069L44.3109 31.68C44.3535 31.4773 44.3962 31.216 44.4389 30.896C44.4922 30.576 44.5295 30.288 44.5509 30.032H46.9989C46.9882 30.16 46.9669 30.3413 46.9349 30.576C46.9135 30.8107 46.8922 31.0133 46.8709 31.184H46.9029ZM53.0506 31.968L53.4026 30.032H54.6666L55.0346 27.92H57.5306L57.1626 30.032H58.8586L58.5066 31.968H56.8586L56.2826 35.088C56.272 35.1627 56.2613 35.2427 56.2506 35.328C56.2506 35.4027 56.2506 35.4667 56.2506 35.52C56.2506 35.7867 56.3253 35.968 56.4746 36.064C56.624 36.16 56.8266 36.208 57.0826 36.208C57.2106 36.208 57.3333 36.1973 57.4506 36.176C57.5786 36.1547 57.6906 36.1333 57.7866 36.112L57.5466 37.952C57.3973 38.016 57.184 38.0693 56.9066 38.112C56.64 38.1653 56.384 38.192 56.1386 38.192C55.3706 38.192 54.7626 38.0373 54.3146 37.728C53.8773 37.4187 53.6586 36.928 53.6586 36.256C53.6586 36.128 53.664 35.984 53.6746 35.824C53.696 35.6533 53.7226 35.4933 53.7546 35.344L54.3626 31.968H53.0506ZM61.4388 34.704C61.4281 34.7467 61.4228 34.7947 61.4228 34.848C61.4228 35.072 61.4708 35.2747 61.5668 35.456C61.6734 35.6267 61.8068 35.776 61.9668 35.904C62.1374 36.0213 62.3241 36.112 62.5268 36.176C62.7401 36.24 62.9588 36.272 63.1828 36.272C63.5881 36.272 63.9454 36.1973 64.2548 36.048C64.5641 35.8987 64.8414 35.696 65.0868 35.44L66.7028 36.704C66.1908 37.248 65.6201 37.6427 64.9908 37.888C64.3614 38.1227 63.6841 38.24 62.9588 38.24C62.4041 38.24 61.8868 38.16 61.4068 38C60.9374 37.8507 60.5268 37.6267 60.1748 37.328C59.8228 37.0187 59.5454 36.64 59.3428 36.192C59.1401 35.744 59.0388 35.232 59.0388 34.656C59.0388 33.9733 59.1561 33.3387 59.3908 32.752C59.6361 32.1547 59.9668 31.6373 60.3828 31.2C60.8094 30.7627 61.3161 30.4213 61.9028 30.176C62.4894 29.92 63.1348 29.792 63.8388 29.792C64.3614 29.792 64.8361 29.8667 65.2628 30.016C65.7001 30.1653 66.0734 30.384 66.3828 30.672C66.6921 30.9493 66.9321 31.296 67.1028 31.712C67.2734 32.128 67.3588 32.608 67.3588 33.152C67.3588 33.344 67.3374 33.5893 67.2948 33.888C67.2628 34.176 67.2148 34.448 67.1508 34.704H61.4388ZM65.0708 33.136C65.0814 33.0827 65.0868 33.0293 65.0868 32.976C65.0868 32.9227 65.0868 32.8693 65.0868 32.816C65.0868 32.464 64.9588 32.1707 64.7028 31.936C64.4574 31.7013 64.1001 31.584 63.6308 31.584C63.3428 31.584 63.0814 31.6373 62.8468 31.744C62.6228 31.84 62.4254 31.9627 62.2548 32.112C62.0841 32.2613 61.9454 32.4267 61.8388 32.608C61.7321 32.7893 61.6574 32.9653 61.6148 33.136H65.0708ZM71.9334 31.2C72.1894 30.7947 72.4934 30.464 72.8454 30.208C73.208 29.952 73.64 29.824 74.1414 29.824C74.2374 29.824 74.3334 29.8293 74.4294 29.84C74.536 29.8507 74.6214 29.8667 74.6854 29.888L74.2694 32.16C74.152 32.128 74.04 32.1067 73.9334 32.096C73.8267 32.0853 73.7254 32.08 73.6294 32.08C73.256 32.08 72.9414 32.144 72.6854 32.272C72.4294 32.4 72.216 32.56 72.0454 32.752C71.8854 32.9333 71.7627 33.1307 71.6774 33.344C71.6027 33.5573 71.5494 33.744 71.5174 33.904L70.7974 38H68.2374L69.3734 31.68C69.416 31.4773 69.4587 31.216 69.5014 30.896C69.5547 30.576 69.592 30.288 69.6134 30.032H72.0454C72.0454 30.0853 72.04 30.1653 72.0294 30.272C72.0187 30.368 72.0027 30.4747 71.9814 30.592C71.9707 30.6987 71.9547 30.8107 71.9334 30.928C71.9227 31.0347 71.912 31.1253 71.9014 31.2H71.9334ZM82.0324 32.368C82.0324 32.5173 82.0217 32.6773 82.0004 32.848C81.9897 33.0187 81.9684 33.184 81.9364 33.344L81.3924 36.448C81.339 36.7253 81.2964 37.008 81.2644 37.296C81.243 37.584 81.2324 37.8187 81.2324 38H78.9604C78.9604 37.8827 78.9657 37.7493 78.9764 37.6C78.987 37.44 79.003 37.2907 79.0244 37.152H78.9924C78.4057 37.8453 77.595 38.192 76.5604 38.192C76.283 38.192 75.995 38.1547 75.6964 38.08C75.4084 38.016 75.1417 37.904 74.8964 37.744C74.6617 37.5733 74.4697 37.3547 74.3204 37.088C74.171 36.8107 74.0964 36.4747 74.0964 36.08C74.0964 35.44 74.2564 34.9173 74.5764 34.512C74.8964 34.1067 75.3124 33.792 75.8244 33.568C76.347 33.344 76.9337 33.1893 77.5844 33.104C78.2457 33.0187 78.907 32.976 79.5684 32.976C79.5897 32.88 79.6004 32.8053 79.6004 32.752C79.6004 32.6987 79.6004 32.6507 79.6004 32.608C79.6004 32.2987 79.4884 32.0747 79.2644 31.936C79.051 31.7867 78.747 31.712 78.3524 31.712C77.9897 31.712 77.6217 31.7813 77.2484 31.92C76.8857 32.0587 76.555 32.24 76.2564 32.464L75.2004 30.992C75.6804 30.608 76.2297 30.3147 76.8484 30.112C77.4777 29.8987 78.0964 29.792 78.7044 29.792C79.1844 29.792 79.627 29.8453 80.0324 29.952C80.4377 30.048 80.7844 30.2027 81.0724 30.416C81.371 30.6293 81.6057 30.896 81.7764 31.216C81.947 31.536 82.0324 31.92 82.0324 32.368ZM79.2004 34.512C78.8804 34.512 78.555 34.528 78.2244 34.56C77.8937 34.5813 77.595 34.6347 77.3284 34.72C77.0724 34.8053 76.859 34.9227 76.6884 35.072C76.5177 35.2213 76.4324 35.4187 76.4324 35.664C76.4324 35.984 76.539 36.2027 76.7524 36.32C76.9764 36.4267 77.2217 36.48 77.4884 36.48C77.979 36.48 78.3897 36.3307 78.7204 36.032C79.051 35.7227 79.259 35.344 79.3444 34.896L79.4244 34.512H79.2004ZM88.3939 38L86.3619 34.176H86.3139L85.6419 38H83.0819L85.2099 25.904H87.7859L86.4739 33.264H86.5219L89.5459 30.032H92.7779L88.9379 33.76L91.4499 38H88.3939ZM92.2381 31.968L92.5901 30.032H93.8541L94.2221 27.92H96.7181L96.3501 30.032H98.0461L97.6941 31.968H96.0461L95.4701 35.088C95.4595 35.1627 95.4488 35.2427 95.4381 35.328C95.4381 35.4027 95.4381 35.4667 95.4381 35.52C95.4381 35.7867 95.5128 35.968 95.6621 36.064C95.8115 36.16 96.0141 36.208 96.2701 36.208C96.3981 36.208 96.5208 36.1973 96.6381 36.176C96.7661 36.1547 96.8781 36.1333 96.9741 36.112L96.7341 37.952C96.5848 38.016 96.3715 38.0693 96.0941 38.112C95.8275 38.1653 95.5715 38.192 95.3261 38.192C94.5581 38.192 93.9501 38.0373 93.5021 37.728C93.0648 37.4187 92.8461 36.928 92.8461 36.256C92.8461 36.128 92.8515 35.984 92.8621 35.824C92.8835 35.6533 92.9101 35.4933 92.9421 35.344L93.5501 31.968H92.2381ZM98.0823 38L99.4743 30.032H102.05L100.626 38H98.0823ZM102.594 27.36C102.594 27.5733 102.557 27.7707 102.482 27.952C102.408 28.1333 102.301 28.2987 102.162 28.448C102.034 28.5867 101.88 28.6987 101.698 28.784C101.517 28.8587 101.32 28.896 101.106 28.896C100.701 28.896 100.365 28.7787 100.098 28.544C99.8423 28.2987 99.7143 27.9893 99.7143 27.616C99.7143 27.1787 99.8583 26.816 100.146 26.528C100.445 26.2293 100.808 26.08 101.234 26.08C101.629 26.08 101.954 26.2027 102.21 26.448C102.466 26.6933 102.594 26.9973 102.594 27.36ZM109.233 27.808C109.031 27.7227 108.807 27.68 108.561 27.68C108.327 27.68 108.129 27.7227 107.969 27.808C107.82 27.8933 107.692 28.0107 107.585 28.16C107.479 28.2987 107.393 28.4587 107.329 28.64C107.276 28.8213 107.233 29.0027 107.201 29.184L107.057 30.032H108.849L108.513 31.952H106.753L105.681 38H103.169L104.241 31.952H102.785L103.121 30.032H104.529L104.689 29.216C104.775 28.7573 104.897 28.3093 105.057 27.872C105.217 27.4347 105.441 27.0507 105.729 26.72C106.028 26.3787 106.401 26.1067 106.849 25.904C107.297 25.7013 107.847 25.6 108.497 25.6C108.711 25.6 108.924 25.616 109.137 25.648C109.351 25.6693 109.537 25.7067 109.697 25.76L109.233 27.808Z" fill="white"/>
<path d="M31.5 13.0754C29.5309 11.1062 26.8601 10 24.0754 10C21.2906 10 18.6199 11.1062 16.6508 13.0754C14.6816 15.0445 13.5754 17.7152 13.5754 20.5C13.5754 23.2848 14.6816 25.9555 16.6508 27.9246L31.5 13.0754Z" fill="white"/>
<path d="M12 36.2739C13.9691 38.243 16.6398 39.3492 19.4246 39.3492C22.2094 39.3492 24.8801 38.243 26.8492 36.2739C28.8184 34.3047 29.9246 31.634 29.9246 28.8492C29.9246 26.0645 28.8184 23.3938 26.8492 21.4246L12 36.2739Z" fill="white"/>
</svg>
