<svg width="115" height="49" viewBox="0 0 115 49" fill="none" xmlns="http://www.w3.org/2000/svg">
<path d="M45.1521 22L41.8721 16.672H41.8241L40.8961 22H38.2881L40.2881 10.672H42.8961L42.0481 15.424H42.0961L46.5921 10.672H49.9841L44.4321 16.064L48.4641 22H45.1521ZM52.7431 22.224C52.1671 22.224 51.6284 22.144 51.1271 21.984C50.6364 21.824 50.2098 21.5947 49.8471 21.296C49.4951 20.9867 49.2124 20.6187 48.9991 20.192C48.7964 19.7547 48.6951 19.264 48.6951 18.72C48.6951 18.0587 48.8071 17.4293 49.0311 16.832C49.2551 16.2347 49.5751 15.712 49.9911 15.264C50.4178 14.816 50.9298 14.4587 51.5271 14.192C52.1244 13.9253 52.8018 13.792 53.5591 13.792C54.1458 13.792 54.6898 13.872 55.1911 14.032C55.6924 14.192 56.1244 14.4267 56.4871 14.736C56.8498 15.0347 57.1324 15.4027 57.3351 15.84C57.5484 16.2667 57.6551 16.752 57.6551 17.296C57.6551 17.968 57.5431 18.6027 57.3191 19.2C57.0951 19.7973 56.7698 20.32 56.3431 20.768C55.9164 21.216 55.3991 21.5733 54.7911 21.84C54.1938 22.096 53.5111 22.224 52.7431 22.224ZM55.1271 17.568C55.1271 17.088 54.9778 16.688 54.6791 16.368C54.3911 16.048 53.9804 15.888 53.4471 15.888C53.1058 15.888 52.7964 15.9573 52.5191 16.096C52.2418 16.2347 52.0071 16.4213 51.8151 16.656C51.6231 16.8907 51.4738 17.1627 51.3671 17.472C51.2604 17.7813 51.2071 18.1067 51.2071 18.448C51.2071 18.928 51.3511 19.328 51.6391 19.648C51.9271 19.9573 52.3378 20.112 52.8711 20.112C53.2124 20.112 53.5218 20.048 53.7991 19.92C54.0764 19.7813 54.3111 19.5947 54.5031 19.36C54.7058 19.1253 54.8604 18.8533 54.9671 18.544C55.0738 18.2347 55.1271 17.9093 55.1271 17.568ZM62.2467 15.184C62.5027 14.7893 62.8441 14.464 63.2707 14.208C63.6974 13.952 64.1881 13.824 64.7427 13.824C65.1907 13.824 65.5747 13.888 65.8947 14.016C66.2147 14.144 66.4761 14.32 66.6787 14.544C66.8921 14.768 67.0467 15.0293 67.1427 15.328C67.2387 15.616 67.2867 15.92 67.2867 16.24C67.2867 16.3893 67.2814 16.5387 67.2707 16.688C67.2601 16.8267 67.2387 16.9653 67.2067 17.104L66.3427 22H63.7827L64.5347 17.68C64.5881 17.4347 64.6147 17.2107 64.6147 17.008C64.6147 16.7093 64.5347 16.4587 64.3747 16.256C64.2254 16.0427 63.9534 15.936 63.5587 15.936C63.3241 15.936 63.1107 15.984 62.9187 16.08C62.7374 16.1653 62.5721 16.288 62.4227 16.448C62.2841 16.608 62.1667 16.7947 62.0707 17.008C61.9854 17.2213 61.9214 17.4453 61.8787 17.68L61.1107 22H58.5507L59.6547 15.68C59.6974 15.4773 59.7401 15.216 59.7827 14.896C59.8361 14.576 59.8734 14.288 59.8947 14.032H62.3427C62.3321 14.16 62.3107 14.3413 62.2787 14.576C62.2574 14.8107 62.2361 15.0133 62.2147 15.184H62.2467ZM68.3945 15.968L68.7465 14.032H70.0105L70.3785 11.92H72.8745L72.5065 14.032H74.2025L73.8505 15.968H72.2025L71.6265 19.088C71.6158 19.1627 71.6051 19.2427 71.5945 19.328C71.5945 19.4027 71.5945 19.4667 71.5945 19.52C71.5945 19.7867 71.6691 19.968 71.8185 20.064C71.9678 20.16 72.1705 20.208 72.4265 20.208C72.5545 20.208 72.6771 20.1973 72.7945 20.176C72.9225 20.1547 73.0345 20.1333 73.1305 20.112L72.8905 21.952C72.7411 22.016 72.5278 22.0693 72.2505 22.112C71.9838 22.1653 71.7278 22.192 71.4825 22.192C70.7145 22.192 70.1065 22.0373 69.6585 21.728C69.2211 21.4187 69.0025 20.928 69.0025 20.256C69.0025 20.128 69.0078 19.984 69.0185 19.824C69.0398 19.6533 69.0665 19.4933 69.0985 19.344L69.7065 15.968H68.3945ZM76.7826 18.704C76.7719 18.7467 76.7666 18.7947 76.7666 18.848C76.7666 19.072 76.8146 19.2747 76.9106 19.456C77.0173 19.6267 77.1506 19.776 77.3106 19.904C77.4813 20.0213 77.6679 20.112 77.8706 20.176C78.0839 20.24 78.3026 20.272 78.5266 20.272C78.9319 20.272 79.2893 20.1973 79.5986 20.048C79.9079 19.8987 80.1853 19.696 80.4306 19.44L82.0466 20.704C81.5346 21.248 80.9639 21.6427 80.3346 21.888C79.7053 22.1227 79.0279 22.24 78.3026 22.24C77.7479 22.24 77.2306 22.16 76.7506 22C76.2813 21.8507 75.8706 21.6267 75.5186 21.328C75.1666 21.0187 74.8893 20.64 74.6866 20.192C74.4839 19.744 74.3826 19.232 74.3826 18.656C74.3826 17.9733 74.4999 17.3387 74.7346 16.752C74.9799 16.1547 75.3106 15.6373 75.7266 15.2C76.1533 14.7627 76.6599 14.4213 77.2466 14.176C77.8333 13.92 78.4786 13.792 79.1826 13.792C79.7053 13.792 80.1799 13.8667 80.6066 14.016C81.0439 14.1653 81.4173 14.384 81.7266 14.672C82.0359 14.9493 82.2759 15.296 82.4466 15.712C82.6173 16.128 82.7026 16.608 82.7026 17.152C82.7026 17.344 82.6813 17.5893 82.6386 17.888C82.6066 18.176 82.5586 18.448 82.4946 18.704H76.7826ZM80.4146 17.136C80.4253 17.0827 80.4306 17.0293 80.4306 16.976C80.4306 16.9227 80.4306 16.8693 80.4306 16.816C80.4306 16.464 80.3026 16.1707 80.0466 15.936C79.8013 15.7013 79.4439 15.584 78.9746 15.584C78.6866 15.584 78.4253 15.6373 78.1906 15.744C77.9666 15.84 77.7693 15.9627 77.5986 16.112C77.4279 16.2613 77.2893 16.4267 77.1826 16.608C77.0759 16.7893 77.0013 16.9653 76.9586 17.136H80.4146ZM87.3092 15.184C87.5652 14.7893 87.9066 14.464 88.3332 14.208C88.7599 13.952 89.2506 13.824 89.8052 13.824C90.2532 13.824 90.6372 13.888 90.9572 14.016C91.2772 14.144 91.5386 14.32 91.7412 14.544C91.9546 14.768 92.1092 15.0293 92.2052 15.328C92.3012 15.616 92.3492 15.92 92.3492 16.24C92.3492 16.3893 92.3439 16.5387 92.3332 16.688C92.3226 16.8267 92.3012 16.9653 92.2692 17.104L91.4052 22H88.8452L89.5972 17.68C89.6506 17.4347 89.6772 17.2107 89.6772 17.008C89.6772 16.7093 89.5972 16.4587 89.4372 16.256C89.2879 16.0427 89.0159 15.936 88.6212 15.936C88.3866 15.936 88.1732 15.984 87.9812 16.08C87.7999 16.1653 87.6346 16.288 87.4852 16.448C87.3466 16.608 87.2292 16.7947 87.1332 17.008C87.0479 17.2213 86.9839 17.4453 86.9412 17.68L86.1732 22H83.6132L84.7172 15.68C84.7599 15.4773 84.8026 15.216 84.8452 14.896C84.8986 14.576 84.9359 14.288 84.9572 14.032H87.4052C87.3946 14.16 87.3732 14.3413 87.3412 14.576C87.3199 14.8107 87.2986 15.0133 87.2772 15.184H87.3092ZM38.2881 38L40.2881 26.672H42.9601L40.9601 38H38.2881ZM46.903 31.184C47.159 30.7893 47.5003 30.464 47.927 30.208C48.3536 29.952 48.8443 29.824 49.399 29.824C49.847 29.824 50.231 29.888 50.551 30.016C50.871 30.144 51.1323 30.32 51.335 30.544C51.5483 30.768 51.703 31.0293 51.799 31.328C51.895 31.616 51.943 31.92 51.943 32.24C51.943 32.3893 51.9376 32.5387 51.927 32.688C51.9163 32.8267 51.895 32.9653 51.863 33.104L50.999 38H48.439L49.191 33.68C49.2443 33.4347 49.271 33.2107 49.271 33.008C49.271 32.7093 49.191 32.4587 49.031 32.256C48.8816 32.0427 48.6096 31.936 48.215 31.936C47.9803 31.936 47.767 31.984 47.575 32.08C47.3936 32.1653 47.2283 32.288 47.079 32.448C46.9403 32.608 46.823 32.7947 46.727 33.008C46.6416 33.2213 46.5776 33.4453 46.535 33.68L45.767 38H43.207L44.311 31.68C44.3536 31.4773 44.3963 31.216 44.439 30.896C44.4923 30.576 44.5296 30.288 44.551 30.032H46.999C46.9883 30.16 46.967 30.3413 46.935 30.576C46.9136 30.8107 46.8923 31.0133 46.871 31.184H46.903ZM53.0507 31.968L53.4027 30.032H54.6667L55.0347 27.92H57.5307L57.1627 30.032H58.8587L58.5067 31.968H56.8587L56.2827 35.088C56.2721 35.1627 56.2614 35.2427 56.2507 35.328C56.2507 35.4027 56.2507 35.4667 56.2507 35.52C56.2507 35.7867 56.3254 35.968 56.4747 36.064C56.6241 36.16 56.8267 36.208 57.0827 36.208C57.2107 36.208 57.3334 36.1973 57.4507 36.176C57.5787 36.1547 57.6907 36.1333 57.7867 36.112L57.5467 37.952C57.3974 38.016 57.1841 38.0693 56.9067 38.112C56.6401 38.1653 56.3841 38.192 56.1387 38.192C55.3707 38.192 54.7627 38.0373 54.3147 37.728C53.8774 37.4187 53.6587 36.928 53.6587 36.256C53.6587 36.128 53.6641 35.984 53.6747 35.824C53.6961 35.6533 53.7227 35.4933 53.7547 35.344L54.3627 31.968H53.0507ZM61.4389 34.704C61.4282 34.7467 61.4229 34.7947 61.4229 34.848C61.4229 35.072 61.4709 35.2747 61.5669 35.456C61.6735 35.6267 61.8069 35.776 61.9669 35.904C62.1375 36.0213 62.3242 36.112 62.5269 36.176C62.7402 36.24 62.9589 36.272 63.1829 36.272C63.5882 36.272 63.9455 36.1973 64.2549 36.048C64.5642 35.8987 64.8415 35.696 65.0869 35.44L66.7029 36.704C66.1909 37.248 65.6202 37.6427 64.9909 37.888C64.3615 38.1227 63.6842 38.24 62.9589 38.24C62.4042 38.24 61.8869 38.16 61.4069 38C60.9375 37.8507 60.5269 37.6267 60.1749 37.328C59.8229 37.0187 59.5455 36.64 59.3429 36.192C59.1402 35.744 59.0389 35.232 59.0389 34.656C59.0389 33.9733 59.1562 33.3387 59.3909 32.752C59.6362 32.1547 59.9669 31.6373 60.3829 31.2C60.8095 30.7627 61.3162 30.4213 61.9029 30.176C62.4895 29.92 63.1349 29.792 63.8389 29.792C64.3615 29.792 64.8362 29.8667 65.2629 30.016C65.7002 30.1653 66.0735 30.384 66.3829 30.672C66.6922 30.9493 66.9322 31.296 67.1029 31.712C67.2735 32.128 67.3589 32.608 67.3589 33.152C67.3589 33.344 67.3375 33.5893 67.2949 33.888C67.2629 34.176 67.2149 34.448 67.1509 34.704H61.4389ZM65.0709 33.136C65.0815 33.0827 65.0869 33.0293 65.0869 32.976C65.0869 32.9227 65.0869 32.8693 65.0869 32.816C65.0869 32.464 64.9589 32.1707 64.7029 31.936C64.4575 31.7013 64.1002 31.584 63.6309 31.584C63.3429 31.584 63.0815 31.6373 62.8469 31.744C62.6229 31.84 62.4255 31.9627 62.2549 32.112C62.0842 32.2613 61.9455 32.4267 61.8389 32.608C61.7322 32.7893 61.6575 32.9653 61.6149 33.136H65.0709ZM71.9335 31.2C72.1895 30.7947 72.4935 30.464 72.8455 30.208C73.2081 29.952 73.6401 29.824 74.1415 29.824C74.2375 29.824 74.3335 29.8293 74.4295 29.84C74.5361 29.8507 74.6215 29.8667 74.6855 29.888L74.2695 32.16C74.1521 32.128 74.0401 32.1067 73.9335 32.096C73.8268 32.0853 73.7255 32.08 73.6295 32.08C73.2561 32.08 72.9415 32.144 72.6855 32.272C72.4295 32.4 72.2161 32.56 72.0455 32.752C71.8855 32.9333 71.7628 33.1307 71.6775 33.344C71.6028 33.5573 71.5495 33.744 71.5175 33.904L70.7975 38H68.2375L69.3735 31.68C69.4161 31.4773 69.4588 31.216 69.5015 30.896C69.5548 30.576 69.5921 30.288 69.6135 30.032H72.0455C72.0455 30.0853 72.0401 30.1653 72.0295 30.272C72.0188 30.368 72.0028 30.4747 71.9815 30.592C71.9708 30.6987 71.9548 30.8107 71.9335 30.928C71.9228 31.0347 71.9121 31.1253 71.9015 31.2H71.9335ZM82.0325 32.368C82.0325 32.5173 82.0218 32.6773 82.0005 32.848C81.9898 33.0187 81.9685 33.184 81.9365 33.344L81.3925 36.448C81.3391 36.7253 81.2965 37.008 81.2645 37.296C81.2431 37.584 81.2325 37.8187 81.2325 38H78.9605C78.9605 37.8827 78.9658 37.7493 78.9765 37.6C78.9871 37.44 79.0031 37.2907 79.0245 37.152H78.9925C78.4058 37.8453 77.5951 38.192 76.5605 38.192C76.2831 38.192 75.9951 38.1547 75.6965 38.08C75.4085 38.016 75.1418 37.904 74.8965 37.744C74.6618 37.5733 74.4698 37.3547 74.3205 37.088C74.1711 36.8107 74.0965 36.4747 74.0965 36.08C74.0965 35.44 74.2565 34.9173 74.5765 34.512C74.8965 34.1067 75.3125 33.792 75.8245 33.568C76.3471 33.344 76.9338 33.1893 77.5845 33.104C78.2458 33.0187 78.9071 32.976 79.5685 32.976C79.5898 32.88 79.6005 32.8053 79.6005 32.752C79.6005 32.6987 79.6005 32.6507 79.6005 32.608C79.6005 32.2987 79.4885 32.0747 79.2645 31.936C79.0511 31.7867 78.7471 31.712 78.3525 31.712C77.9898 31.712 77.6218 31.7813 77.2485 31.92C76.8858 32.0587 76.5551 32.24 76.2565 32.464L75.2005 30.992C75.6805 30.608 76.2298 30.3147 76.8485 30.112C77.4778 29.8987 78.0965 29.792 78.7045 29.792C79.1845 29.792 79.6271 29.8453 80.0325 29.952C80.4378 30.048 80.7845 30.2027 81.0725 30.416C81.3711 30.6293 81.6058 30.896 81.7765 31.216C81.9471 31.536 82.0325 31.92 82.0325 32.368ZM79.2005 34.512C78.8805 34.512 78.5551 34.528 78.2245 34.56C77.8938 34.5813 77.5951 34.6347 77.3285 34.72C77.0725 34.8053 76.8591 34.9227 76.6885 35.072C76.5178 35.2213 76.4325 35.4187 76.4325 35.664C76.4325 35.984 76.5391 36.2027 76.7525 36.32C76.9765 36.4267 77.2218 36.48 77.4885 36.48C77.9791 36.48 78.3898 36.3307 78.7205 36.032C79.0511 35.7227 79.2591 35.344 79.3445 34.896L79.4245 34.512H79.2005ZM88.394 38L86.362 34.176H86.314L85.642 38H83.082L85.21 25.904H87.786L86.474 33.264H86.522L89.546 30.032H92.778L88.938 33.76L91.45 38H88.394ZM92.2382 31.968L92.5902 30.032H93.8542L94.2222 27.92H96.7182L96.3502 30.032H98.0462L97.6942 31.968H96.0462L95.4702 35.088C95.4596 35.1627 95.4489 35.2427 95.4382 35.328C95.4382 35.4027 95.4382 35.4667 95.4382 35.52C95.4382 35.7867 95.5129 35.968 95.6622 36.064C95.8116 36.16 96.0142 36.208 96.2702 36.208C96.3982 36.208 96.5209 36.1973 96.6382 36.176C96.7662 36.1547 96.8782 36.1333 96.9742 36.112L96.7342 37.952C96.5849 38.016 96.3716 38.0693 96.0942 38.112C95.8276 38.1653 95.5716 38.192 95.3262 38.192C94.5582 38.192 93.9502 38.0373 93.5022 37.728C93.0649 37.4187 92.8462 36.928 92.8462 36.256C92.8462 36.128 92.8516 35.984 92.8622 35.824C92.8836 35.6533 92.9102 35.4933 92.9422 35.344L93.5502 31.968H92.2382ZM98.0824 38L99.4744 30.032H102.05L100.626 38H98.0824ZM102.594 27.36C102.594 27.5733 102.557 27.7707 102.482 27.952C102.408 28.1333 102.301 28.2987 102.162 28.448C102.034 28.5867 101.88 28.6987 101.698 28.784C101.517 28.8587 101.32 28.896 101.106 28.896C100.701 28.896 100.365 28.7787 100.098 28.544C99.8424 28.2987 99.7144 27.9893 99.7144 27.616C99.7144 27.1787 99.8584 26.816 100.146 26.528C100.445 26.2293 100.808 26.08 101.234 26.08C101.629 26.08 101.954 26.2027 102.21 26.448C102.466 26.6933 102.594 26.9973 102.594 27.36ZM109.233 27.808C109.031 27.7227 108.807 27.68 108.561 27.68C108.327 27.68 108.129 27.7227 107.969 27.808C107.82 27.8933 107.692 28.0107 107.585 28.16C107.479 28.2987 107.393 28.4587 107.329 28.64C107.276 28.8213 107.233 29.0027 107.201 29.184L107.057 30.032H108.849L108.513 31.952H106.753L105.681 38H103.169L104.241 31.952H102.785L103.121 30.032H104.529L104.689 29.216C104.775 28.7573 104.897 28.3093 105.057 27.872C105.217 27.4347 105.441 27.0507 105.729 26.72C106.028 26.3787 106.401 26.1067 106.849 25.904C107.297 25.7013 107.847 25.6 108.497 25.6C108.711 25.6 108.924 25.616 109.137 25.648C109.351 25.6693 109.537 25.7067 109.697 25.76L109.233 27.808Z" fill="black"/>
<path d="M31.4998 13.0754C29.5307 11.1062 26.8599 10 24.0752 10C21.2904 10 18.6197 11.1062 16.6506 13.0754C14.6814 15.0445 13.5752 17.7152 13.5752 20.5C13.5752 23.2848 14.6814 25.9555 16.6506 27.9246L31.4998 13.0754Z" fill="black"/>
<path d="M12 36.2739C13.9691 38.243 16.6398 39.3492 19.4246 39.3492C22.2094 39.3492 24.8801 38.243 26.8492 36.2739C28.8184 34.3047 29.9246 31.634 29.9246 28.8492C29.9246 26.0645 28.8184 23.3938 26.8492 21.4246L12 36.2739Z" fill="black"/>
</svg>
