<svg width="40" height="40" viewBox="0 0 40 40" fill="none" xmlns="http://www.w3.org/2000/svg">
<circle cx="20" cy="20" r="19.5" fill="#3D4043" stroke="url(#paint0_linear)"/>
<path d="M17.2977 26.1661C17.946 25.4413 18.0723 24.5461 18.0784 23.6357C18.0967 20.83 18.0882 18.024 18.0818 15.2181C18.0794 14.2054 18.3915 13.35 19.1191 12.6747C19.9373 11.9153 20.7534 11.1533 21.5627 10.3839C23.2245 8.80401 25.526 9.57343 26.0425 11.8817C26.3531 13.2698 26.0675 14.5541 25.4522 15.7802C24.897 16.8872 24.0989 17.7656 23.14 18.4875C23.0918 18.5237 23.0454 18.5629 22.9692 18.624C23.4878 18.6993 23.9704 18.7508 24.4454 18.8455C24.7655 18.9096 25.0834 19.0105 25.3866 19.1376C27.0072 19.8177 27.8318 21.2861 27.7497 23.1499C27.6234 26.0174 26.1609 27.8964 23.8524 29.1235C22.5048 29.8395 21.0639 30.282 19.5279 30.1927C19.2054 30.1739 18.8585 30.1238 18.5733 29.9773C16.91 29.1235 15.2708 29.3327 13.6298 30.032C13.5447 30.0682 13.4586 30.1015 13.3726 30.1345C13.3653 30.1374 13.354 30.1283 13.3149 30.1135C13.8153 29.3592 14.3882 28.6904 15.0557 28.1144C16.0564 27.2512 17.1714 26.672 18.4811 26.5795C19.5001 26.5077 20.4526 26.7687 21.369 27.2159C21.4788 27.2696 21.5865 27.3282 21.744 27.4097C21.744 27.2451 21.744 27.1209 21.744 26.9967C21.744 23.1577 21.7418 19.3184 21.7467 15.4794C21.7473 15.0276 21.8004 14.5693 21.2775 14.3364C21.5209 14.0861 21.7235 13.8775 21.9191 13.676C22.1155 13.8836 22.3093 14.088 22.5137 14.3041C22.5149 14.296 22.5186 14.3257 22.5076 14.3338C22.1122 14.6294 22.0463 15.0408 22.0634 15.5269C22.0945 16.4176 22.0722 17.3103 22.0722 18.2019C22.0722 18.3177 22.0722 18.4335 22.0722 18.5493C22.107 18.5693 22.1415 18.5894 22.1763 18.6098C22.4072 18.3187 22.6726 18.0506 22.8621 17.732C23.3935 16.8397 23.5223 15.8251 23.5683 14.7973C23.604 13.9988 23.5275 13.2096 23.2727 12.4532C23.1845 12.1909 23.064 11.9276 22.9057 11.707C22.3987 11.001 21.4959 11.0285 21.088 11.8028C20.8876 12.1834 20.768 12.6637 20.7634 13.1006C20.7341 15.917 20.7186 18.7346 20.7552 21.5506C20.7802 23.4614 19.8113 25.0817 18.04 25.8754C17.7978 25.9837 17.5455 26.0698 17.2977 26.1661ZM22.1055 19.221C22.0911 19.2902 22.0756 19.331 22.0756 19.3717C22.0741 22.0551 22.0719 24.7389 22.0753 27.4223C22.0756 27.7305 22.4054 27.9239 22.6601 27.7703C23.2636 27.4071 23.7233 26.8883 24.0626 26.2528C24.6562 25.1402 24.8405 23.9297 24.7728 22.6713C24.727 21.8213 24.5025 21.0238 24.0101 20.3362C23.5348 19.6732 22.8978 19.309 22.1055 19.221Z" fill="white"/>
<path d="M17.593 14.1424C17.3662 14.8759 17.3464 15.617 17.3473 16.3625C17.3507 18.5551 17.3213 20.7483 17.3564 22.9403C17.3895 24.9816 16.4156 26.2951 14.6808 27.1121C14.5052 27.1948 14.3229 27.2619 14.1427 27.334C14.127 27.3403 14.1048 27.3303 14.0524 27.3237C14.7114 26.7063 14.7348 25.9006 14.7351 25.0883C14.7357 24.0813 14.7351 23.0739 14.7351 22.0669C14.7351 21.9527 14.7351 21.8387 14.7351 21.7301C14.0745 21.6055 13.7251 21.9514 13.2547 23.2091C12.8474 21.9729 12.5359 20.7923 13.0424 19.5659C13.3187 18.8966 13.7903 18.5947 14.7351 18.428C14.7351 18.1808 14.7384 17.9233 14.7345 17.6657C14.7257 17.1076 14.8889 16.6019 15.2373 16.1833C15.9116 15.3738 16.7262 14.7295 17.593 14.1424Z" fill="white"/>
<path d="M12.2451 12.1754C12.7896 10.6975 13.4409 9.34974 15.0256 9.01938C15.524 8.91534 15.9887 9.02175 16.4275 9.26496C16.7563 9.44736 17.0928 9.63686 17.3759 9.89156C18.2205 10.6513 19.0993 10.6205 20.0205 10.1138C20.0935 10.0736 20.1665 10.0334 20.2523 9.98614C20.2581 10.0287 20.2746 10.0655 20.2642 10.0848C19.7888 10.9583 19.2288 11.7511 18.4636 12.3402C17.3322 13.211 16.349 13.2117 15.2143 12.352C15.1636 12.3135 15.1139 12.2733 15.0647 12.2325C14.0971 11.4285 13.4222 11.393 12.3767 12.0913C12.3334 12.12 12.2891 12.1473 12.2451 12.1754Z" fill="white"/>
<defs>
<linearGradient id="paint0_linear" x1="5.5" y1="1.35601e-07" x2="28.5" y2="45.5" gradientUnits="userSpaceOnUse">
<stop stop-color="#6B7278"/>
<stop offset="1" stop-color="#191B1E"/>
</linearGradient>
</defs>
</svg>
