<svg width="375" height="573" viewBox="0 0 375 573" fill="none" xmlns="http://www.w3.org/2000/svg">
<g clip-path="url(#clip0)">
<path d="M141.581 194.498C139.253 197.047 80.3008 213.211 68.8187 218.936C60.0937 222.055 51.0011 225.701 43.4065 231.138C35.5394 236.769 30.0005 245.015 26.9431 255.65C24.3727 264.583 23.8427 273.805 23.5517 281.744C23.4077 285.654 23.5486 289.539 23.6834 293.299C23.855 298.077 24.0174 302.588 23.6283 306.97C22.9512 314.563 19.2627 322.405 17.587 329.988L17.3633 330.994C15.5222 339.342 14.7318 354.089 13.8954 369.704C13.0376 385.737 14.018 403.91 11.8091 412.119C7.33329 428.749 0.299389 461.179 -2.0626 478.067C-4.5502 495.863 0.290199 579.352 0.290199 579.352C0.170721 581.057 0.0757499 582.762 0.0297968 584.47C-0.221414 593.728 1.31955 602.971 1.19701 612.241C1.09285 620.104 2.22636 628.501 1.12655 636.281C-0.000838041 644.23 4.8365 651.918 7.35474 659.425C9.75043 666.564 16.6924 670.13 23.9622 673.823C29.1948 676.481 42.0004 685.513 48.2133 680.263C52.4869 676.653 39.8008 664.408 37.1447 661.124C32.2369 655.061 28.1317 646.539 31.0359 639.102C31.4036 638.161 32.2675 637.575 33.4286 637.339C36.2715 636.762 36.4676 636.91 36.8199 639.344C37.4388 643.65 38.0576 647.952 38.6734 652.258C40.8179 661.078 49.1721 659.532 51.4177 654.552C52.8086 651.473 52.444 646.358 51.9967 643.552C51.1267 638.053 50.275 632.543 49.7481 627.01C49.2089 621.349 48.5625 615.79 45.9585 610.463C43.716 605.875 40.0673 601.815 36.9088 597.629C33.3704 592.94 35.0155 587.058 35.5026 581.753C35.5761 580.953 62.6701 508.215 63.5126 502.263C64.1222 497.963 64.9617 493.655 65.8501 489.089C67.3482 481.404 68.8953 473.455 69.269 465.503C69.3977 462.719 69.3425 459.275 69.2782 455.282C69.1097 444.886 71.343 428.759 73.2332 421.902C75.2552 414.575 78.573 386.942 80.9503 379.972C81.2352 381.824 81.5109 383.458 81.7683 384.786C86.1154 407.123 86.9089 464.307 86.2686 485.007C86.0052 488.325 80.5612 508.724 77.9388 518.537C76.9432 522.266 76.0854 525.486 75.4757 527.835C68.5307 554.656 70.1911 587.868 71.101 605.811L71.1041 605.906C71.9465 640.896 72.4061 685.589 75.3471 728.237H174.771C174.802 727.82 174.833 727.403 174.86 726.983C177.002 697.276 184.746 639.915 187.856 639.915C191.192 639.915 200.116 695.838 202.267 725.241C202.34 726.247 202.411 727.243 202.478 728.234H300.561C303.82 685.335 305.122 640.258 305.922 605.023L305.925 604.928C306.74 588.398 308.388 554.328 301.526 527.829C300.916 525.477 300.052 522.245 299.053 518.504C296.434 508.703 290.993 488.325 290.733 485.004C290.096 464.295 290.889 407.105 295.233 384.783C295.497 383.431 295.778 381.759 296.069 379.864C298.165 386.086 301.85 415.572 303.771 421.899C305.839 428.703 307.895 444.88 307.726 455.276C307.662 459.269 307.607 462.715 307.738 465.5C308.109 473.449 309.659 481.397 311.154 489.082C312.043 493.646 312.882 497.957 313.492 502.257C314.334 508.209 315.805 513.873 317.86 519.092C320.608 526.069 341.428 580.947 341.502 581.747C341.992 587.052 343.634 592.937 340.096 597.623C336.937 601.809 333.288 605.869 331.046 610.457C328.442 615.784 327.799 621.343 327.256 627.004C326.729 632.533 325.878 638.044 325.008 643.546C324.563 646.355 324.199 651.467 325.59 654.546C327.835 659.526 336.187 661.072 338.331 652.252C338.95 647.946 339.569 643.644 340.188 639.338C340.537 636.903 340.736 636.759 343.579 637.333C344.74 637.566 345.604 638.155 345.972 639.096C348.876 646.533 344.771 655.055 339.863 661.118C337.207 664.399 324.518 676.644 328.794 680.256C335.01 685.507 347.813 676.475 353.045 673.816C360.312 670.124 367.257 666.558 369.653 659.419C372.171 651.912 377.008 644.227 375.881 636.275C374.778 628.498 375.912 620.101 375.81 612.235C375.688 602.965 377.229 593.722 376.978 584.464C376.932 582.756 376.834 581.051 376.717 579.346C376.717 579.346 381.558 495.854 379.07 478.061C376.705 461.164 369.671 428.734 365.198 412.113C362.99 403.904 363.97 385.731 363.109 369.695C362.273 354.08 361.482 339.332 359.641 330.988L359.414 329.961C357.739 322.383 354.053 314.551 353.379 306.964C352.987 302.579 353.152 298.068 353.324 293.293C353.459 289.536 353.6 285.648 353.456 281.738C353.162 273.798 352.635 264.583 350.061 255.644C347.001 245.009 341.462 236.763 333.595 231.132C326 225.695 316.908 222.049 308.183 218.93C296.691 213.199 235.518 195.418 228.962 193.06L141.581 194.498Z" fill="#EF65AD"/>
<path d="M228.001 199.215C230.718 200.113 236.334 201.828 243.708 204.079C262.576 209.838 297.7 220.556 305.453 224.426L305.781 224.588L306.124 224.711C314.384 227.664 322.995 231.089 330.032 236.128C336.748 240.933 341.505 248.072 344.174 257.346C346.554 265.617 347.05 274.39 347.332 281.968C347.467 285.657 347.332 289.429 347.2 293.075C347.02 298.049 346.851 302.748 347.277 307.513C347.746 312.772 349.376 317.838 350.953 322.739C351.918 325.735 352.831 328.566 353.432 331.292L353.658 332.316C355.392 340.173 356.171 354.675 356.992 370.03C357.295 375.681 357.362 381.631 357.43 387.384C357.555 398.295 357.665 407.715 359.28 413.714C363.707 430.169 370.667 462.237 372.999 478.917C374.971 493.017 371.936 555.941 370.597 578.996L370.575 579.386L370.603 579.775C370.732 581.637 370.811 583.182 370.851 584.639C370.974 589.131 370.643 593.642 370.293 598.42C369.963 602.931 369.619 607.596 369.684 612.324C369.718 614.946 369.607 617.648 369.488 620.509C369.261 625.946 369.028 631.567 369.816 637.143C370.401 641.283 368.446 645.978 366.378 650.952C365.499 653.062 364.592 655.242 363.845 657.471C362.34 661.955 357.715 664.574 350.273 668.355C349.287 668.858 348.184 669.486 346.909 670.213C343.932 671.915 339.303 674.562 335.761 675.445C336.058 675.016 336.411 674.537 336.818 674.007C338.564 671.734 340.623 669.468 342.277 667.646C343.273 666.552 344.06 665.684 344.624 664.985C352.353 655.432 354.927 645.186 351.679 636.87C350.558 634.005 348.049 631.988 344.793 631.328C343.748 631.117 342.718 630.927 341.659 630.927C338.717 630.927 335.023 632.236 334.125 638.467L332.318 651.053C332.082 651.902 331.815 652.289 331.693 652.433C331.518 652.381 331.261 652.215 331.175 652.025C330.709 650.995 330.535 647.83 331.062 644.509C332.002 638.562 332.826 633.187 333.359 627.59C333.889 622.027 334.462 617.43 336.552 613.155C337.958 610.276 340.182 607.458 342.538 604.474C343.343 603.453 344.177 602.398 344.986 601.324C349.403 595.47 348.542 588.742 347.911 583.832C347.792 582.9 347.678 582.017 347.602 581.189C347.498 580.073 347.473 579.809 336.414 550.568C330.679 535.41 324.913 520.285 323.562 516.848C321.681 512.076 320.336 506.878 319.558 501.401C318.927 496.951 318.075 492.572 317.172 487.935C315.713 480.444 314.209 472.722 313.857 465.221C313.737 462.648 313.789 459.318 313.851 455.46V455.38C314.022 444.76 312.013 427.952 309.629 420.12C308.836 417.51 307.451 408.81 306.229 401.134C304.302 389.015 303.046 381.404 301.869 377.914L290.007 378.941C289.716 380.833 289.45 382.406 289.214 383.618C284.585 407.412 284.033 466.687 284.603 485.203L284.606 485.347L284.618 485.491C284.839 488.325 287.146 497.706 293.129 520.098L293.23 520.479C294.183 524.048 295.007 527.133 295.589 529.381C302.243 555.076 300.592 588.549 299.801 604.636L299.795 604.731L299.792 604.918C299.038 638.213 297.798 681.219 294.866 722.11H208.171C207.019 708.092 204.479 688.26 201.553 670.56C195.711 635.198 193.279 633.791 187.859 633.791C181.751 633.791 180.39 640.43 178.816 648.118C177.652 653.804 176.31 661.869 174.934 671.446C172.499 688.398 170.284 707.694 169.098 722.113H81.0855C79.0054 689.444 78.3069 656.104 77.688 626.495C77.5349 619.237 77.3939 612.383 77.2346 605.795L77.2316 605.621L77.2254 605.513C76.337 587.991 74.6796 555.377 81.4103 529.387C81.9985 527.112 82.8317 523.993 83.7967 520.384L83.8641 520.135C89.8473 497.721 92.1572 488.334 92.3808 485.51L92.3931 485.363L92.3961 485.215C92.969 466.708 92.4176 407.439 87.7855 383.633C87.5557 382.449 87.2923 380.91 87.0073 379.055L75.1545 378.006C73.779 382.032 72.4218 390.285 70.504 402.413C69.346 409.739 68.1482 417.317 67.3302 420.289C65.2133 427.958 62.98 444.604 63.1546 455.402C63.2189 459.284 63.271 462.639 63.1515 465.236C62.7992 472.734 61.2981 480.453 59.8429 487.917C58.9391 492.557 58.0875 496.924 57.4564 501.37C56.5557 506.069 41.6516 546.888 35.2824 564.335C29.4954 580.183 29.4954 580.183 29.4035 581.207C29.3269 582.035 29.2135 582.918 29.0941 583.851C28.466 588.763 27.6021 595.489 32.0198 601.343C32.8285 602.416 33.6618 603.471 34.4675 604.492C36.8234 607.476 39.0475 610.297 40.4568 613.177C42.5461 617.452 43.119 622.046 43.649 627.612C44.179 633.174 45.0031 638.562 45.9466 644.527C46.4736 647.851 46.2989 651.016 45.8333 652.043C45.7475 652.23 45.4902 652.402 45.3156 652.451C45.193 652.307 44.9265 651.921 44.6906 651.071C44.2862 648.259 42.8831 638.489 42.8831 638.489C41.9855 632.251 38.2908 630.945 35.3498 630.945C34.2898 630.945 33.2605 631.135 32.2128 631.347C28.9531 632.006 26.4441 634.027 25.3259 636.891C22.0786 645.202 24.6489 655.447 32.3813 665.003C32.948 665.702 33.7353 666.57 34.731 667.665C36.3853 669.486 38.444 671.753 40.1902 674.025C40.5977 674.556 40.9469 675.034 41.2472 675.46C37.7057 674.577 33.0736 671.931 30.0958 670.229C28.8214 669.499 27.7216 668.87 26.7351 668.37C19.2938 664.589 14.6678 661.97 13.1636 657.487C12.4161 655.257 11.5093 653.077 10.6301 650.967C8.56218 645.993 6.60764 641.298 7.19278 637.158C7.98011 631.586 7.74728 625.968 7.52058 620.534C7.4011 617.67 7.28775 614.965 7.32451 612.34C7.38885 607.608 7.04573 602.94 6.71487 598.426C6.36562 593.652 6.03476 589.144 6.1573 584.651C6.19713 583.21 6.27372 581.664 6.40545 579.79L6.43302 579.401L6.41158 579.012C5.07587 555.957 2.0399 493.038 4.00976 478.932C6.34111 462.259 13.3015 430.191 17.7283 413.729C19.3428 407.734 19.4531 398.31 19.5787 387.402C19.6461 381.649 19.7135 375.7 20.0168 370.048C20.8378 354.693 21.616 340.188 23.3499 332.331L23.5705 331.326C24.174 328.599 25.087 325.766 26.052 322.767C27.6328 317.863 29.2656 312.791 29.7313 307.528C30.1571 302.757 29.9856 298.062 29.8079 293.091C29.6761 289.438 29.5414 285.669 29.6761 281.983C29.9549 274.406 30.4543 265.629 32.8347 257.361C35.503 248.088 40.2607 240.949 46.976 236.143C54.013 231.105 62.6246 227.679 70.8839 224.726L71.227 224.604L71.5548 224.441C77.0998 221.675 96.7984 215.606 112.625 210.73C132.483 204.612 139.93 202.202 143.269 200.622" fill="#681156"/>
<path d="M228.965 193.066C235.521 195.422 296.694 213.205 308.186 218.937C316.911 222.055 326.003 225.702 333.598 231.139C341.462 236.769 347.004 245.015 350.064 255.65C352.638 264.587 353.165 273.805 353.459 281.744C353.603 285.654 353.462 289.54 353.327 293.299C353.155 298.077 352.993 302.588 353.382 306.97C354.056 314.557 357.742 322.393 359.417 329.967L359.644 330.994C361.485 339.342 362.276 354.089 363.112 369.702C363.97 385.737 362.989 403.91 365.201 412.119C369.674 428.74 376.708 461.17 379.073 478.067C381.561 495.86 376.72 579.352 376.72 579.352C376.84 581.057 376.935 582.762 376.981 584.47C377.232 593.729 375.691 602.971 375.813 612.242C375.918 620.105 374.784 628.501 375.884 636.281C377.011 644.23 372.174 651.918 369.656 659.425C367.26 666.564 360.318 670.131 353.048 673.823C347.816 676.482 335.013 685.513 328.797 680.263C324.52 676.653 337.21 664.408 339.866 661.124C344.774 655.061 348.879 646.539 345.975 639.103C345.607 638.161 344.743 637.575 343.582 637.339C340.742 636.763 340.543 636.91 340.191 639.345C339.572 643.65 338.953 647.953 338.334 652.258C336.19 661.078 327.838 659.532 325.593 654.552C324.202 651.473 324.566 646.358 325.011 643.552C325.881 638.054 326.732 632.543 327.259 627.011C327.798 621.35 328.445 615.79 331.049 610.463C333.291 605.876 336.94 601.815 340.099 597.629C343.637 592.94 341.992 587.059 341.505 581.753C341.431 580.953 320.611 526.075 317.863 519.099C315.808 513.879 314.337 508.215 313.495 502.263C312.885 497.964 312.046 493.655 311.157 489.089C309.659 481.404 308.112 473.455 307.741 465.506C307.61 462.722 307.668 459.275 307.729 455.282C307.898 444.886 305.842 428.71 303.774 421.905C301.85 415.582 298.165 386.096 296.072 379.871C295.781 381.766 295.5 383.437 295.236 384.789C290.892 407.115 290.095 464.301 290.736 485.01C290.996 488.331 296.437 508.709 299.056 518.51C300.055 522.251 300.919 525.484 301.529 527.836C308.391 554.338 306.743 588.405 305.928 604.934L305.925 605.029C305.125 640.262 303.823 685.341 300.564 728.24H202.481C202.414 727.25 202.343 726.253 202.27 725.247C200.119 695.844 191.195 639.921 187.859 639.921C184.749 639.921 177.005 697.283 174.863 726.989C174.833 727.409 174.802 727.826 174.774 728.243H75.35C72.409 685.596 71.9495 640.906 71.107 605.912L71.1039 605.817C70.1941 587.874 68.5336 554.663 75.4787 527.842C76.0883 525.49 76.9492 522.27 77.9418 518.544C80.5611 508.731 86.005 488.334 86.2716 485.013C86.9118 464.313 86.1184 407.13 81.7712 384.793C81.5139 383.465 81.2381 381.83 80.9532 379.978C78.5729 386.945 75.255 414.582 73.2362 421.908C71.3459 428.765 69.1126 444.889 69.2811 455.288C69.3455 459.278 69.4006 462.725 69.2719 465.509C68.8982 473.461 67.3511 481.407 65.853 489.095C64.9646 493.658 64.1252 497.97 63.5155 502.269C62.67 508.222 35.5791 580.959 35.5055 581.759C35.0184 587.065 33.3733 592.95 36.9117 597.635C40.0702 601.821 43.7189 605.882 45.9614 610.469C48.5654 615.796 49.2088 621.356 49.751 627.017C50.2779 632.546 51.1296 638.057 51.9997 643.558C52.4439 646.367 52.8084 651.479 51.4206 654.558C49.1751 659.539 40.8238 661.084 38.6763 652.264C38.0605 647.959 37.4386 643.656 36.8229 639.351C36.4736 636.916 36.2745 636.772 33.4315 637.345C32.2704 637.578 31.4065 638.167 31.0389 639.109C28.1346 646.545 32.2398 655.067 37.1476 661.13C39.8037 664.411 52.4929 676.657 48.2162 680.269C42.0002 685.519 29.1977 676.488 23.9652 673.829C16.6984 670.137 9.75336 666.57 7.35767 659.431C4.83943 651.924 0.00209165 644.239 1.12948 636.287C2.22929 628.51 1.09578 620.114 1.19994 612.248C1.32554 602.978 -0.218483 593.735 0.0327277 584.477C0.0786808 582.768 0.17365 581.063 0.293128 579.358C0.293128 579.358 -4.54727 495.869 -2.05967 478.073C0.302319 461.185 7.33622 428.756 11.8121 412.125C14.0209 403.916 13.0405 385.743 13.8983 369.711C14.7347 354.095 15.5251 339.345 17.3663 331.001L17.5899 329.995C19.2657 322.411 22.9542 314.57 23.6312 306.977C24.0203 302.591 23.8579 298.08 23.6864 293.306C23.5516 289.549 23.4106 285.66 23.5546 281.75C23.8487 273.811 24.3757 264.593 26.946 255.656C30.0065 245.021 35.5454 236.775 43.4095 231.145C51.004 225.708 60.0966 222.061 68.8216 218.943C80.3007 213.217 139.253 197.056 141.584 194.505L228.965 193.066Z" fill="#EF65AD"/>
<path d="M208.169 722.104C207.018 708.086 204.478 688.254 201.552 670.554C195.71 635.192 193.278 633.785 187.858 633.785C181.749 633.785 180.389 640.424 178.815 648.112C177.65 653.798 176.309 661.863 174.933 671.44C172.498 688.392 170.283 707.688 169.097 722.107H81.0844C79.0042 689.438 78.3058 656.098 77.6869 626.489C77.5337 619.231 77.3928 612.377 77.2335 605.789L77.2305 605.615L77.2243 605.507C76.3359 587.985 74.6785 555.371 81.4091 529.381C81.9973 527.106 82.8306 523.987 83.7956 520.378L83.863 520.129C89.8461 497.715 92.1561 488.328 92.3797 485.504L92.3919 485.357L92.395 485.209C92.9679 466.702 92.4165 407.433 87.7844 383.627C87.5546 382.443 87.2911 380.904 87.0062 379.049L82.1934 361.305C80.8179 365.331 72.4207 390.275 70.5029 402.404C69.3449 409.73 68.147 417.308 67.3291 420.279C65.2122 427.949 62.9788 444.595 63.1535 455.392C63.2178 459.275 63.2699 462.63 63.1504 465.227C62.7981 472.725 61.297 480.444 59.8418 487.908C58.938 492.548 58.0864 496.915 57.4553 501.361C56.5546 506.059 41.6504 546.879 35.2813 564.325C29.4943 580.174 29.4943 580.174 29.4024 581.198C29.3258 582.026 29.2124 582.909 29.093 583.842C28.4649 588.754 27.601 595.479 32.0186 601.334C32.8274 602.407 33.6607 603.462 34.4664 604.483C36.8223 607.467 39.0464 610.288 40.4557 613.168C42.545 617.443 43.1179 622.036 43.6479 627.602C44.1779 633.165 45.002 638.553 45.9455 644.518C46.4725 647.842 46.2978 651.007 45.8322 652.034C45.7464 652.224 45.4891 652.393 45.3144 652.442C45.1919 652.298 44.9254 651.912 44.6895 651.062C44.2851 648.25 42.882 638.48 42.882 638.48C41.9844 632.242 38.2897 630.936 35.3487 630.936C34.2887 630.936 33.2594 631.126 32.2117 631.338C28.952 631.997 26.443 634.018 25.3248 636.882C22.0774 645.193 24.6478 655.438 32.3801 664.994C32.9469 665.693 33.7342 666.561 34.7299 667.656C36.3842 669.477 38.4429 671.744 40.1891 674.016C40.5966 674.546 40.9458 675.025 41.246 675.451C37.7046 674.568 33.0756 671.921 30.0978 670.219C28.8234 669.49 27.7236 668.861 26.7371 668.361C19.2957 664.58 14.6698 661.961 13.1656 657.478C12.4181 655.248 11.5113 653.068 10.632 650.958C8.56414 645.984 6.6096 641.289 7.19473 637.149C7.98206 631.577 7.74924 625.959 7.52253 620.525C7.40305 617.66 7.2897 614.956 7.32647 612.331C7.3908 607.599 7.04768 602.931 6.71682 598.417C6.36758 593.642 6.03671 589.135 6.15926 584.642C6.19908 583.201 6.27567 581.655 6.4074 579.781L6.43497 579.392L6.41353 579.002C5.07782 555.947 2.04185 493.029 4.01171 478.923C6.34307 462.249 13.3034 430.182 17.7303 413.72C19.3448 407.725 19.455 398.301 19.5806 387.393C19.648 381.64 19.7154 375.691 20.0187 370.039C20.8398 354.684 21.6179 340.179 23.3519 332.322L23.5725 331.316C24.176 328.59 25.0889 325.757 26.0539 322.757C27.6347 317.854 29.2676 312.782 29.7332 307.519C30.1591 302.748 29.9875 298.053 29.8098 293.082C29.6781 289.429 29.5433 285.66 29.6781 281.974C29.9569 274.397 30.4562 265.62 32.8366 257.352C35.505 248.079 40.2626 240.94 46.9779 236.134C54.0149 231.096 62.6265 227.67 70.8858 224.717L71.229 224.594L71.5568 224.432C77.1018 221.666 96.8004 215.597 112.627 210.721C132.485 204.603 139.932 202.193 143.271 200.613L228.003 199.224C230.72 200.123 236.336 201.837 243.71 204.088C262.578 209.847 297.702 220.565 305.455 224.435L305.783 224.597L306.126 224.72C314.386 227.673 322.997 231.099 330.034 236.137C336.75 240.943 341.507 248.082 344.176 257.355C346.556 265.626 347.052 274.4 347.334 281.977C347.469 285.666 347.334 289.438 347.202 293.085C347.022 298.059 346.853 302.757 347.279 307.522C347.748 312.782 349.377 317.848 350.955 322.748C351.92 325.744 352.833 328.575 353.434 331.301L353.66 332.325C355.394 340.182 356.172 354.684 356.993 370.039C357.297 375.691 357.364 381.64 357.432 387.393C357.557 398.304 357.667 407.725 359.282 413.723C363.709 430.179 370.669 462.246 373 478.926C374.973 493.026 371.937 555.95 370.599 579.005L370.577 579.395L370.605 579.784C370.733 581.646 370.813 583.191 370.853 584.648C370.975 589.141 370.645 593.652 370.295 598.43C369.965 602.941 369.621 607.605 369.686 612.334C369.719 614.956 369.609 617.657 369.49 620.518C369.263 625.956 369.03 631.577 369.817 637.152C370.403 641.292 368.448 645.987 366.38 650.961C365.501 653.071 364.594 655.251 363.847 657.481C362.342 661.964 357.716 664.583 350.275 668.364C349.289 668.864 348.189 669.496 346.914 670.223C343.937 671.924 339.308 674.571 335.766 675.454C336.063 675.025 336.416 674.546 336.823 674.016C338.569 671.744 340.628 669.477 342.282 667.656C343.278 666.561 344.065 665.693 344.629 664.994C352.358 655.441 354.932 645.196 351.684 636.879C350.563 634.015 348.054 631.997 344.797 631.338C343.753 631.126 342.723 630.936 341.663 630.936C338.722 630.936 335.028 632.245 334.13 638.477L332.323 651.062C332.087 651.912 331.82 652.298 331.698 652.442C331.523 652.39 331.266 652.224 331.18 652.034C330.714 651.004 330.54 647.839 331.067 644.518C332.007 638.572 332.831 633.196 333.364 627.599C333.894 622.036 334.467 617.44 336.557 613.165C337.963 610.285 340.187 607.467 342.543 604.483C343.348 603.462 344.182 602.407 344.991 601.334C349.408 595.479 348.547 588.751 347.916 583.842C347.797 582.909 347.683 582.026 347.607 581.198C347.503 580.082 347.478 579.818 336.419 550.578C330.684 535.419 324.918 520.295 323.567 516.857C321.686 512.085 320.341 506.887 319.563 501.41C318.932 496.961 318.08 492.582 317.177 487.945C315.718 480.453 314.214 472.731 313.862 465.23C313.742 462.657 313.794 459.327 313.856 455.469V455.389C314.027 444.77 312.018 427.961 309.634 420.129C308.841 417.519 307.456 408.819 306.234 401.144C304.307 389.024 297.006 364.951 295.833 361.461L290.012 378.95C289.721 380.843 289.455 382.416 289.219 383.627C284.59 407.421 284.038 466.696 284.608 485.212L284.611 485.357L284.623 485.501C284.844 488.334 287.151 497.715 293.134 520.108L293.235 520.488C294.188 524.057 295.012 527.143 295.594 529.39C302.248 555.086 300.597 588.558 299.806 604.646L299.8 604.741L299.797 604.928C299.043 638.222 297.803 681.229 294.871 722.119H208.169V722.104Z" fill="#681156"/>
<path d="M216.543 712.904C215.188 699.693 213.032 683.657 210.621 669.051C205.394 637.418 202.683 624.581 187.859 624.581C184.201 624.581 177.458 625.802 173.405 633.972C171.573 637.664 170.718 641.84 169.811 646.263C168.61 652.126 167.235 660.378 165.835 670.127C163.843 683.985 161.969 699.64 160.694 712.904H89.7393C88.0666 683.191 87.4356 653.11 86.8749 626.293V626.234C86.7248 619.006 86.5808 612.177 86.4246 605.608L86.4185 605.311L86.4062 605.044C85.5423 588.009 83.9339 556.312 90.3092 531.687C90.8759 529.497 91.6816 526.48 92.616 522.984L92.7447 522.499C99.9103 495.66 101.292 489.416 101.543 486.224L101.574 485.856L101.586 485.473C102.187 466.061 101.647 406.722 96.81 381.854C96.6048 380.793 96.3627 379.373 96.0931 377.631L96.0135 377.122L83.2017 329.902L73.4995 358.318C71.8421 363.172 63.4694 388.046 61.4291 400.956C60.4151 407.378 59.1529 415.351 58.4728 417.82C56.1874 426.106 53.7733 443.632 53.9663 455.53C54.0276 459.256 54.0797 462.473 53.9694 464.785C53.6508 471.612 52.2109 478.996 50.8201 486.138C49.9163 490.775 49.0646 495.151 48.406 499.699C47.4685 503.505 40.1528 524.168 26.6548 561.145C20.4542 578.131 20.4542 578.131 20.2489 580.348C20.1877 581.011 20.0866 581.808 19.9793 582.651C19.241 588.407 18.0095 598.021 24.6849 606.869C25.5489 608.009 26.4036 609.095 27.2277 610.141L27.2522 610.171C29.2956 612.763 31.2226 615.204 32.1968 617.2C32.8616 618.559 33.3088 620.077 33.6428 621.803C32.4357 621.91 31.3512 622.116 30.3862 622.309C24.1121 623.579 19.0266 627.755 16.7749 633.487C17.0567 628.804 16.8698 624.266 16.6952 620.132C16.5819 617.384 16.4746 614.811 16.5053 612.444C16.5757 607.313 16.2173 602.443 15.8711 597.733C15.5372 593.198 15.2247 588.913 15.335 584.884C15.3718 583.571 15.4422 582.151 15.5648 580.41L15.6322 579.434L15.577 578.462C13.7389 546.763 11.4443 492.057 13.1017 480.189C15.3901 463.835 22.2341 432.31 26.5935 416.102C28.5083 408.985 28.6247 399.027 28.7595 387.497C28.8238 381.833 28.8943 375.982 29.1853 370.52C29.9512 356.211 30.7446 341.415 32.3162 334.297L32.5368 333.294C33.0454 330.991 33.894 328.36 34.7916 325.572C36.4459 320.439 38.3208 314.618 38.8784 308.326C39.3532 302.98 39.1755 298.006 38.9856 292.741C38.86 289.257 38.7313 285.657 38.8538 282.302C39.1142 275.27 39.5677 267.156 41.6601 259.888C43.7402 252.654 47.3276 247.177 52.3151 243.607C58.436 239.225 66.34 236.1 73.9682 233.371L74.826 233.064L75.644 232.656C80.5181 230.224 101.457 223.772 115.317 219.504C132.822 214.109 140.818 211.564 145.239 209.77L226.619 208.436C229.685 209.414 234.59 210.911 240.999 212.867C256.957 217.737 294.277 229.127 301.348 232.656L302.166 233.064L303.03 233.374C310.658 236.1 318.562 239.228 324.68 243.607C329.67 247.18 333.254 252.657 335.338 259.891C337.43 267.162 337.883 275.273 338.141 282.305C338.263 285.657 338.135 289.257 338.009 292.741C337.828 297.776 337.638 302.987 338.116 308.329C338.677 314.609 340.546 320.423 342.197 325.551C343.098 328.341 343.943 330.973 344.452 333.276L344.675 334.294C346.247 341.418 347.04 356.211 347.806 370.517C348.1 375.972 348.168 381.817 348.232 387.469C348.367 399.021 348.483 408.982 350.401 416.105C354.761 432.307 361.605 463.832 363.893 480.192C365.553 492.06 363.256 546.766 361.418 578.462L361.362 579.438L361.43 580.41C361.549 582.145 361.623 583.571 361.66 584.893C361.77 588.917 361.454 593.207 361.124 597.745C360.777 602.456 360.422 607.319 360.489 612.444C360.52 614.811 360.413 617.387 360.299 620.116C360.128 624.256 359.938 628.798 360.22 633.484C357.965 627.749 352.876 623.576 346.602 622.309C345.643 622.116 344.562 621.91 343.352 621.803C343.686 620.08 344.133 618.559 344.798 617.2C345.772 615.204 347.699 612.763 349.739 610.177C350.573 609.119 351.437 608.028 352.31 606.872C358.988 598.024 357.757 588.407 357.018 582.664C356.908 581.811 356.807 581.011 356.746 580.345C356.501 577.714 356.501 577.714 345 547.308C339.253 532.116 333.466 516.936 332.103 513.471C330.485 509.368 329.324 504.869 328.647 500.104C327.982 495.421 327.109 490.925 326.181 486.169C324.787 479.011 323.347 471.612 323.025 464.785C322.918 462.504 322.97 459.314 323.028 455.622L323.031 455.512C323.218 443.944 321.062 426.146 318.415 417.436C317.805 415.431 316.236 405.572 315.299 399.684C313.283 387.025 305.888 362.544 304.531 358.511L295.775 332.481L281.036 376.77L280.917 377.543C280.644 379.318 280.399 380.766 280.188 381.851C275.353 406.703 274.811 466.055 275.412 485.482L275.424 485.841L275.451 486.193C275.703 489.41 277.081 495.654 284.247 522.469L284.348 522.846C285.255 526.241 286.11 529.448 286.692 531.687C292.993 556.018 291.388 588.545 290.619 604.176L290.607 604.409L290.601 604.725C289.905 635.336 288.79 674.687 286.284 712.904H216.543Z" fill="#83166B"/>
<path d="M151.775 205.057V173.59C151.775 173.59 125.94 170.263 124.602 157.257C123.26 144.252 125.429 146.644 125.429 146.644L120.751 139.182L118.649 136.456L109.937 129.477L118.132 107.02C118.132 107.02 105.121 49.4619 130.857 37.042C156.594 24.6221 242.974 71.8361 242.867 83.937C242.76 96.038 230.101 137.891 228.505 138.698C226.906 139.504 224.149 154.209 224.495 155.482C224.838 156.754 229.666 202.64 229.666 202.64L151.775 205.057Z" fill="#681156"/>
<path d="M219.477 205.863C217.847 190.497 215.896 160.321 215.485 157.371C215.167 155.975 214.968 153.415 216.781 144.981C217.979 139.412 219.097 135.671 221.058 133.175C223.754 126.655 232.626 96.3753 233.588 85.4335C230.527 81.7474 218.099 72.2102 196.856 61.664C174.795 50.7192 154.239 44.1812 141.865 44.1812C138.033 44.1812 135.931 44.8067 134.844 45.3311C125.439 49.8698 124.029 66.7424 124.026 76.3931C124.023 91.159 127.059 104.861 127.09 104.989L127.687 107.633L120.831 126.422L125.249 129.961L128.297 133.914L133.211 141.755L118.619 152.826C120.258 154.635 122.608 155.672 125.068 155.672C130.294 155.672 133.11 151.464 133.395 149.318C133.385 149.382 133.192 150.961 133.744 156.313C133.808 156.929 135.395 159.22 141.642 161.581C147.214 163.688 152.909 164.458 152.949 164.464L160.967 165.497L161.65 207.7C161.65 207.7 125.806 215.52 99.6129 224.26C73.4196 233 57.3359 240.82 57.3359 240.82H320.648C320.645 240.823 272.253 219.203 219.477 205.863Z" fill="#83166B"/>
<path d="M232.886 200.763C233.87 186.218 226.138 170.045 227.148 154.975C228.405 136.25 230.117 117.053 238.263 100.147C240.748 94.9919 243.9 89.564 242.861 83.9367C241.467 76.3928 233.018 72.17 225.362 71.8082C217.707 71.4463 210.137 73.7218 202.472 73.6451C180.555 73.4243 163.785 54.9202 144.154 45.1622C134.026 40.1298 148.192 38.388 138.633 32.3436C137.503 31.6291 125.58 0.812494 114.787 60.8756C112.192 75.3072 113.105 90.2969 115.292 105.271C115.206 105.48 104.846 130.421 105.725 132.616C106.607 134.821 116.809 137.771 116.809 137.771L114.977 144.193L121.916 147.668C121.916 147.668 116.959 152.133 117.29 152.464C117.621 152.795 121.916 155.607 121.916 155.607C121.916 155.607 123.074 170.161 129.571 173.36C134.795 175.93 145.214 176.353 149.102 176.42C148.581 189.496 146.77 187.264 146.249 200.34H153.026L155.471 170.394L149.203 170.287C141.654 170.158 135.009 169.205 132.27 167.855C131.838 167.644 130.46 166.147 129.256 161.826C128.297 158.376 128.021 155.141 128.018 155.11L127.77 152.123L126.817 151.498L132.687 146.208L122.259 140.988L124.373 133.579L118.503 131.88C116.441 131.282 114.174 130.479 112.508 129.786C114.033 124.959 117.648 115.548 120.941 107.63L121.594 106.062L121.349 104.382C118.852 87.2947 118.681 73.8138 120.81 61.9581C124.792 39.7925 128.573 32.7178 130.178 30.5865C130.723 31.2335 131.483 32.3344 132.54 34.1806C133.254 35.4287 133.876 36.5143 135.144 37.3852C134.412 38.9001 133.735 41.0897 134.501 43.6933C135.588 47.3886 138.973 49.434 141.421 50.6515C147.518 53.6813 153.32 57.6035 159.462 61.7588C172.44 70.5325 185.858 79.6066 202.401 79.7722C202.548 79.7722 202.695 79.7753 202.845 79.7753C206.742 79.7753 210.477 79.2693 214.082 78.7817C217.431 78.3278 220.592 77.8985 223.656 77.8985C224.137 77.8985 224.609 77.9108 225.062 77.9322C230.243 78.1776 236.06 80.9069 236.826 85.0499C237.381 88.0491 235.546 91.7658 233.606 95.7034C233.312 96.3014 233.018 96.8933 232.736 97.4851C224.287 115.026 222.375 134.496 221.031 154.564C220.467 162.936 221.993 171.112 223.469 179.021C223.469 179.021 225.822 189.723 225.975 199.077L232.886 200.763Z" fill="#EF65AD"/>
<path d="M125.427 94.8325C125.427 94.8325 122.746 101.309 127.035 105.823L136.456 100.175L125.427 94.8325Z" fill="white"/>
<path d="M122.902 93.7378L135.693 100.245L127.038 105.823L137.837 100.218L122.902 93.7378Z" fill="black"/>
<path d="M118.647 86.7797C118.647 86.7797 121.797 81.0727 144.93 84.4766C144.93 84.4797 121.637 71.2165 118.647 86.7797Z" fill="black"/>
<path d="M183.64 289.57C183.64 289.57 184.936 174.286 184.09 153.252C171.551 153.31 152.649 153.433 130.521 153.608C125.981 153.645 124.921 144.297 130.527 144.254C145.376 144.138 152.067 144.104 166.662 144.006L136.517 135.941H120.889C118.411 135.941 116.401 133.929 116.401 131.448C116.401 128.967 118.411 126.956 120.889 126.956H137.457C138.079 126.956 138.695 127.084 139.265 127.336C139.265 127.336 190.864 144.484 191.654 145.288C193.106 146.757 193.192 148.459 193.345 151.55C193.443 153.507 193.529 156.355 193.597 160.014C193.695 165.172 193.272 289.573 193.272 289.573H183.64V289.57Z" fill="#620F5E"/>
<path d="M93.2835 352.132C97.5572 325.158 105.997 296.948 126.4 277.138C134.262 269.502 149.616 256.668 161.481 257.254C174.115 255.181 175.433 279.288 176.116 285.976C178.459 284.133 180.803 282.29 183.15 280.444C183.3 254.816 183.407 230.473 183.441 209.003H193.958C194.007 246.125 194.041 278.779 194.037 279.156C196.412 280.999 198.783 282.845 201.16 284.688C201.969 276.135 203.372 254.108 217.553 257.088C239.029 258.517 260.474 284.078 268.76 301.892C285.653 335.134 289.963 378.217 279.425 413.778C246.145 410.696 221.331 409.923 209.75 374.924C202.692 353.592 200.857 320.672 201.721 298.491C197.505 295.148 193.394 291.704 189.179 288.359C184.792 291.839 180.411 295.326 176.03 298.81C177.001 320.819 175.742 341.071 157.924 355.5C134.277 374.654 165.399 405.225 97.3581 414.621C93.3509 401.018 91.6813 386.39 91.8743 371.94C91.9601 365.264 92.4472 358.618 93.2835 352.132Z" fill="#620F5E"/>
<path d="M176.119 285.976C175.435 279.288 174.115 255.181 161.484 257.254C149.616 256.668 134.261 269.502 126.403 277.138C106 296.948 97.5601 325.158 93.2865 352.133C92.4501 358.618 91.963 365.267 91.8772 371.946C91.6842 386.396 93.3539 401.021 97.361 414.628C165.402 405.228 134.28 374.657 157.927 355.506C175.745 341.074 177.004 320.825 176.033 298.816L176.548 285.645C176.404 285.752 176.263 285.866 176.119 285.976Z" fill="#F26EB0"/>
<path d="M217.556 257.091C203.375 254.11 201.972 276.135 201.163 284.691L201.724 298.494C200.86 320.675 202.695 353.595 209.753 374.927C221.333 409.923 246.148 410.699 279.427 413.781C289.963 378.22 285.656 335.14 268.763 301.895C260.476 284.081 239.028 258.52 217.556 257.091Z" fill="#F26EB0"/>
<path d="M94.7049 372.587C96.1532 372.574 97.3167 371.388 97.3036 369.938C97.2905 368.488 96.1059 367.324 94.6575 367.337C93.2092 367.35 92.0458 368.536 92.0588 369.985C92.0719 371.435 93.2566 372.6 94.7049 372.587Z" fill="#ED1C24"/>
<path d="M137.458 334.546C137.792 335.956 136.922 337.37 135.513 337.704C134.104 338.038 132.691 337.168 132.357 335.757C132.024 334.346 132.894 332.933 134.303 332.598C135.712 332.264 137.124 333.135 137.458 334.546Z" fill="#ED1C24"/>
<path d="M111.084 360.842C111.418 362.253 110.548 363.666 109.139 364.001C107.73 364.335 106.317 363.464 105.983 362.053C105.65 360.643 106.52 359.229 107.929 358.895C109.335 358.56 110.75 359.431 111.084 360.842Z" fill="#ED1C24"/>
<path d="M161.612 364.471C162.522 363.344 162.346 361.691 161.22 360.78C160.093 359.869 158.442 360.045 157.532 361.172C156.622 362.3 156.797 363.953 157.924 364.864C159.05 365.775 160.702 365.599 161.612 364.471Z" fill="#ED1C24"/>
<path d="M156.233 325.953C156.567 327.364 155.697 328.777 154.287 329.111C152.878 329.446 151.466 328.575 151.132 327.164C150.798 325.753 151.668 324.34 153.077 324.005C154.486 323.668 155.899 324.542 156.233 325.953Z" fill="#ED1C24"/>
<path d="M102.868 392.677C104.198 392.102 104.811 390.557 104.237 389.226C103.662 387.895 102.119 387.282 100.789 387.857C99.4598 388.432 98.8472 389.976 99.4213 391.307C99.9955 392.639 101.539 393.252 102.868 392.677Z" fill="#ED1C24"/>
<path d="M89.263 391.529C89.5969 392.94 88.7268 394.354 87.3176 394.688C85.9084 395.022 84.4961 394.151 84.1622 392.741C83.8282 391.33 84.6983 389.916 86.1075 389.582C87.5167 389.248 88.926 390.119 89.263 391.529Z" fill="#ED1C24"/>
<path d="M128.051 395.792C128.385 397.203 127.515 398.617 126.106 398.951C124.696 399.285 123.284 398.414 122.95 397.004C122.616 395.593 123.486 394.179 124.896 393.845C126.305 393.511 127.717 394.385 128.051 395.792Z" fill="#ED1C24"/>
<path d="M116.197 363.694C115.535 363.673 115.017 363.118 115.042 362.455C115.063 361.793 115.618 361.275 116.28 361.299C116.941 361.321 117.459 361.876 117.434 362.538C117.41 363.197 116.855 363.716 116.197 363.694Z" fill="#ED1C24"/>
<path d="M102.62 369.677C101.958 369.656 101.44 369.1 101.465 368.438C101.486 367.776 102.041 367.258 102.702 367.282C103.364 367.304 103.882 367.859 103.857 368.521C103.833 369.18 103.278 369.698 102.62 369.677Z" fill="#ED1C24"/>
<path d="M94.2261 354.875C93.5644 354.853 93.0466 354.298 93.0711 353.636C93.0926 352.974 93.6471 352.455 94.3088 352.48C94.9706 352.501 95.4883 353.056 95.4638 353.719C95.4393 354.381 94.8878 354.899 94.2261 354.875Z" fill="#ED1C24"/>
<path d="M87.4771 377.218C86.8154 377.197 86.2976 376.642 86.3221 375.979C86.3436 375.317 86.8981 374.799 87.5598 374.823C88.2215 374.845 88.7393 375.4 88.7147 376.062C88.6902 376.721 88.1357 377.24 87.4771 377.218Z" fill="#ED1C24"/>
<path d="M104.136 378.991C103.475 378.969 102.957 378.414 102.981 377.752C103.003 377.089 103.557 376.571 104.219 376.596C104.881 376.617 105.398 377.172 105.374 377.834C105.353 378.494 104.798 379.012 104.136 378.991Z" fill="#ED1C24"/>
<path d="M109.096 349.118C108.435 349.097 107.917 348.542 107.941 347.88C107.963 347.217 108.517 346.699 109.179 346.723C109.841 346.745 110.358 347.3 110.334 347.962C110.309 348.625 109.755 349.143 109.096 349.118Z" fill="#ED1C24"/>
<path d="M83.3501 341.553C82.6884 341.532 82.1707 340.977 82.1952 340.314C82.2166 339.652 82.7711 339.134 83.4328 339.158C84.0945 339.18 84.6123 339.735 84.5878 340.397C84.5663 341.059 84.0118 341.578 83.3501 341.553Z" fill="#ED1C24"/>
<path d="M76.8003 358.143C76.1386 358.122 75.6209 357.567 75.6454 356.904C75.6668 356.242 76.2213 355.724 76.883 355.748C77.5448 355.77 78.0625 356.325 78.038 356.987C78.0135 357.65 77.459 358.168 76.8003 358.143Z" fill="#ED1C24"/>
<path d="M158.609 311.162C157.68 310.049 157.831 308.393 158.946 307.467C160.058 306.538 161.712 306.688 162.637 307.804C163.565 308.918 163.412 310.574 162.3 311.5C161.188 312.426 159.537 312.276 158.609 311.162Z" fill="#ED1C24"/>
<path d="M138.086 360.259C137.158 359.146 137.308 357.49 138.423 356.564C139.535 355.635 141.19 355.788 142.115 356.901C143.043 358.014 142.893 359.67 141.778 360.596C140.666 361.523 139.011 361.372 138.086 360.259Z" fill="#ED1C24"/>
<path d="M149.988 324.95C149.059 323.837 149.209 322.181 150.325 321.255C151.437 320.326 153.091 320.476 154.016 321.592C154.944 322.705 154.794 324.361 153.679 325.287C152.567 326.213 150.916 326.063 149.988 324.95Z" fill="#ED1C24"/>
<path d="M103.695 346.506C102.766 345.393 102.916 343.737 104.032 342.81C105.144 341.881 106.798 342.031 107.723 343.148C108.651 344.261 108.501 345.917 107.386 346.843C106.274 347.769 104.62 347.619 103.695 346.506Z" fill="#ED1C24"/>
<path d="M125.106 376.326C124.177 375.212 124.328 373.556 125.443 372.63C126.555 371.701 128.209 371.851 129.134 372.968C130.063 374.081 129.912 375.737 128.797 376.663C127.685 377.592 126.034 377.442 125.106 376.326Z" fill="#ED1C24"/>
<path d="M147.277 296.045C148.149 294.887 147.919 293.241 146.762 292.369C145.606 291.496 143.961 291.727 143.089 292.884C142.218 294.042 142.448 295.688 143.605 296.561C144.761 297.434 146.405 297.203 147.277 296.045Z" fill="#ED1C24"/>
<path d="M159.899 287.735C160.821 286.617 160.663 284.962 159.546 284.039C158.429 283.116 156.776 283.275 155.854 284.393C154.932 285.511 155.09 287.165 156.207 288.088C157.324 289.011 158.977 288.853 159.899 287.735Z" fill="#ED1C24"/>
<path d="M119.236 301.233C118.307 300.12 118.457 298.464 119.573 297.537C120.685 296.608 122.339 296.759 123.264 297.875C124.192 298.988 124.042 300.644 122.927 301.57C121.818 302.496 120.164 302.346 119.236 301.233Z" fill="#ED1C24"/>
<path d="M144.143 324.68C144.744 324.404 145.454 324.671 145.73 325.275C146.006 325.876 145.739 326.588 145.136 326.864C144.535 327.14 143.825 326.873 143.549 326.269C143.276 325.665 143.54 324.956 144.143 324.68Z" fill="#ED1C24"/>
<path d="M153.634 313.267C154.235 312.991 154.946 313.257 155.221 313.862C155.497 314.463 155.231 315.174 154.627 315.45C154.027 315.726 153.316 315.459 153.04 314.855C152.767 314.251 153.031 313.543 153.634 313.267Z" fill="#ED1C24"/>
<path d="M167.738 322.77C168.339 322.494 169.049 322.761 169.325 323.365C169.601 323.966 169.334 324.678 168.731 324.954C168.13 325.23 167.42 324.963 167.144 324.359C166.868 323.757 167.135 323.046 167.738 322.77Z" fill="#ED1C24"/>
<path d="M163.832 299.758C164.432 299.482 165.143 299.749 165.419 300.353C165.695 300.954 165.428 301.665 164.825 301.941C164.224 302.217 163.513 301.95 163.238 301.346C162.962 300.745 163.229 300.034 163.832 299.758Z" fill="#ED1C24"/>
<path d="M148.125 305.606C148.726 305.33 149.436 305.597 149.712 306.201C149.988 306.802 149.721 307.513 149.118 307.789C148.517 308.065 147.807 307.799 147.531 307.194C147.258 306.593 147.525 305.882 148.125 305.606Z" fill="#ED1C24"/>
<path d="M156.988 334.558C157.589 334.282 158.3 334.549 158.575 335.153C158.851 335.754 158.585 336.466 157.981 336.742C157.381 337.018 156.67 336.751 156.394 336.147C156.121 335.543 156.388 334.834 156.988 334.558Z" fill="#ED1C24"/>
<path d="M183.403 329.844C184.003 329.568 184.714 329.835 184.99 330.439C185.266 331.04 184.999 331.752 184.396 332.028C183.795 332.304 183.084 332.037 182.809 331.433C182.536 330.829 182.799 330.117 183.403 329.844Z" fill="#ED1C24"/>
<path d="M181.88 312.07C182.48 311.794 183.191 312.061 183.467 312.665C183.743 313.266 183.476 313.978 182.873 314.254C182.272 314.53 181.561 314.263 181.286 313.659C181.013 313.055 181.28 312.343 181.88 312.07Z" fill="#ED1C24"/>
<path d="M125.717 322.512C126.574 323.68 126.323 325.321 125.159 326.183C123.992 327.041 122.353 326.79 121.492 325.624C120.634 324.456 120.885 322.815 122.05 321.954C123.22 321.092 124.859 321.343 125.717 322.512Z" fill="#ED1C24"/>
<path d="M149.168 274.746C150.026 275.915 149.774 277.555 148.61 278.417C147.443 279.276 145.804 279.024 144.943 277.859C144.085 276.69 144.337 275.05 145.501 274.188C146.671 273.326 148.31 273.578 149.168 274.746Z" fill="#ED1C24"/>
<path d="M135.155 309.27C136.013 310.439 135.762 312.079 134.598 312.941C133.43 313.8 131.791 313.548 130.93 312.383C130.073 311.214 130.324 309.574 131.488 308.712C132.655 307.85 134.297 308.102 135.155 309.27Z" fill="#ED1C24"/>
<path d="M182.668 290.555C183.526 291.723 183.274 293.364 182.11 294.225C180.943 295.084 179.304 294.833 178.443 293.667C177.585 292.499 177.837 290.858 179.001 289.996C180.168 289.138 181.81 289.389 182.668 290.555Z" fill="#ED1C24"/>
<path d="M163.095 259.493C163.952 260.661 163.701 262.302 162.537 263.164C161.37 264.022 159.731 263.771 158.87 262.605C158.012 261.437 158.263 259.796 159.428 258.935C160.595 258.073 162.237 258.324 163.095 259.493Z" fill="#ED1C24"/>
<path d="M140.225 338.419C141.083 339.587 140.832 341.228 139.668 342.089C138.501 342.948 136.862 342.696 136.001 341.531C135.143 340.363 135.394 338.722 136.558 337.86C137.726 336.999 139.368 337.25 140.225 338.419Z" fill="#ED1C24"/>
<path d="M127.047 346.052C127.905 347.22 127.653 348.861 126.489 349.723C125.322 350.581 123.683 350.33 122.822 349.165C121.964 347.996 122.216 346.355 123.38 345.494C124.547 344.632 126.189 344.883 127.047 346.052Z" fill="#ED1C24"/>
<path d="M164.418 334.803C165.276 335.971 165.024 337.612 163.86 338.474C162.693 339.332 161.054 339.081 160.193 337.916C159.335 336.747 159.587 335.107 160.751 334.245C161.915 333.383 163.56 333.638 164.418 334.803Z" fill="#ED1C24"/>
<path d="M140.972 309.892C140.357 310.129 139.661 309.822 139.425 309.202C139.189 308.586 139.496 307.89 140.115 307.654C140.73 307.418 141.426 307.724 141.662 308.344C141.898 308.96 141.591 309.653 140.972 309.892Z" fill="#ED1C24"/>
<path d="M130.81 320.708C130.194 320.945 129.499 320.638 129.263 320.018C129.027 319.402 129.334 318.706 129.952 318.47C130.568 318.234 131.264 318.54 131.5 319.16C131.735 319.779 131.429 320.472 130.81 320.708Z" fill="#ED1C24"/>
<path d="M117.306 310.368C116.691 310.604 115.995 310.297 115.759 309.678C115.523 309.061 115.83 308.365 116.448 308.129C117.064 307.893 117.76 308.199 117.996 308.819C118.231 309.438 117.925 310.131 117.306 310.368Z" fill="#ED1C24"/>
<path d="M119.815 333.576C119.196 333.812 118.504 333.505 118.268 332.886C118.032 332.27 118.338 331.574 118.957 331.337C119.573 331.101 120.268 331.408 120.504 332.027C120.74 332.644 120.434 333.337 119.815 333.576Z" fill="#ED1C24"/>
<path d="M135.843 328.688C135.228 328.924 134.532 328.617 134.296 327.998C134.06 327.378 134.367 326.685 134.986 326.449C135.601 326.213 136.297 326.52 136.533 327.139C136.769 327.759 136.462 328.452 135.843 328.688Z" fill="#ED1C24"/>
<path d="M128.749 299.254C128.133 299.49 127.437 299.184 127.202 298.564C126.966 297.948 127.272 297.252 127.891 297.016C128.51 296.779 129.202 297.086 129.438 297.706C129.674 298.322 129.364 299.018 128.749 299.254Z" fill="#ED1C24"/>
<path d="M102.098 302.361C101.483 302.597 100.787 302.29 100.551 301.671C100.315 301.054 100.622 300.358 101.24 300.122C101.856 299.886 102.552 300.193 102.788 300.812C103.023 301.428 102.714 302.121 102.098 302.361Z" fill="#ED1C24"/>
<path d="M102.543 320.193C101.927 320.429 101.231 320.123 100.996 319.503C100.76 318.887 101.066 318.191 101.685 317.955C102.301 317.718 102.996 318.025 103.232 318.645C103.468 319.264 103.158 319.957 102.543 320.193Z" fill="#ED1C24"/>
<path d="M265.801 369.34C265.467 370.75 266.337 372.164 267.746 372.498C269.155 372.833 270.568 371.962 270.902 370.551C271.236 369.14 270.366 367.726 268.956 367.392C267.547 367.058 266.135 367.929 265.801 369.34Z" fill="#ED1C24"/>
<path d="M225.568 334.546C225.234 335.956 226.105 337.37 227.514 337.704C228.923 338.038 230.335 337.168 230.669 335.757C231.003 334.346 230.133 332.933 228.724 332.598C227.315 332.264 225.902 333.135 225.568 334.546Z" fill="#ED1C24"/>
<path d="M251.945 360.842C251.611 362.253 252.481 363.666 253.891 364.001C255.3 364.335 256.712 363.464 257.046 362.053C257.38 360.643 256.51 359.229 255.101 358.895C253.692 358.56 252.279 359.431 251.945 360.842Z" fill="#ED1C24"/>
<path d="M200.906 362.2C200.572 363.611 201.442 365.025 202.852 365.359C204.261 365.693 205.673 364.822 206.007 363.412C206.341 362.001 205.471 360.587 204.062 360.253C202.653 359.919 201.24 360.79 200.906 362.2Z" fill="#ED1C24"/>
<path d="M206.794 325.953C206.46 327.364 207.33 328.777 208.739 329.111C210.149 329.446 211.561 328.575 211.895 327.164C212.229 325.753 211.359 324.34 209.949 324.005C208.54 323.668 207.128 324.542 206.794 325.953Z" fill="#ED1C24"/>
<path d="M258.657 389.656C258.323 391.067 259.193 392.48 260.603 392.815C262.012 393.149 263.424 392.278 263.758 390.867C264.092 389.457 263.222 388.043 261.813 387.709C260.403 387.374 258.991 388.245 258.657 389.656Z" fill="#ED1C24"/>
<path d="M273.767 391.529C273.433 392.94 274.303 394.354 275.712 394.688C277.121 395.022 278.534 394.151 278.867 392.741C279.201 391.33 278.331 389.916 276.922 389.582C275.513 389.248 274.101 390.119 273.767 391.529Z" fill="#ED1C24"/>
<path d="M234.976 395.792C234.642 397.203 235.512 398.617 236.921 398.951C238.33 399.285 239.743 398.414 240.076 397.004C240.41 395.593 239.54 394.179 238.131 393.845C236.722 393.511 235.31 394.385 234.976 395.792Z" fill="#ED1C24"/>
<path d="M246.832 363.694C247.494 363.673 248.012 363.118 247.987 362.455C247.966 361.793 247.411 361.275 246.75 361.299C246.088 361.321 245.57 361.876 245.595 362.538C245.616 363.197 246.171 363.716 246.832 363.694Z" fill="#ED1C24"/>
<path d="M260.41 369.677C261.072 369.656 261.59 369.1 261.565 368.438C261.544 367.776 260.989 367.258 260.328 367.282C259.666 367.304 259.148 367.859 259.173 368.521C259.194 369.18 259.749 369.698 260.41 369.677Z" fill="#ED1C24"/>
<path d="M268.804 354.875C269.466 354.853 269.983 354.298 269.959 353.636C269.937 352.974 269.383 352.455 268.721 352.48C268.059 352.501 267.542 353.056 267.566 353.719C267.588 354.381 268.142 354.899 268.804 354.875Z" fill="#ED1C24"/>
<path d="M275.554 377.218C276.216 377.197 276.733 376.642 276.709 375.979C276.687 375.317 276.133 374.799 275.471 374.823C274.81 374.845 274.292 375.4 274.316 376.062C274.338 376.721 274.892 377.24 275.554 377.218Z" fill="#ED1C24"/>
<path d="M258.891 378.991C259.553 378.969 260.07 378.414 260.046 377.752C260.024 377.089 259.47 376.571 258.808 376.596C258.146 376.617 257.629 377.172 257.653 377.834C257.675 378.494 258.229 379.012 258.891 378.991Z" fill="#ED1C24"/>
<path d="M253.934 349.118C254.596 349.097 255.113 348.542 255.089 347.88C255.067 347.217 254.513 346.699 253.851 346.723C253.189 346.745 252.672 347.3 252.696 347.962C252.718 348.625 253.272 349.143 253.934 349.118Z" fill="#ED1C24"/>
<path d="M279.677 341.553C280.339 341.532 280.856 340.977 280.832 340.314C280.81 339.652 280.256 339.134 279.594 339.158C278.933 339.18 278.415 339.735 278.439 340.397C278.461 341.059 279.015 341.578 279.677 341.553Z" fill="#ED1C24"/>
<path d="M286.229 358.143C286.89 358.122 287.408 357.567 287.384 356.904C287.362 356.242 286.808 355.724 286.146 355.748C285.484 355.77 284.967 356.325 284.991 356.987C285.013 357.65 285.567 358.168 286.229 358.143Z" fill="#ED1C24"/>
<path d="M204.417 311.163C205.346 310.05 205.196 308.394 204.08 307.468C202.968 306.538 201.314 306.689 200.389 307.805C199.461 308.918 199.614 310.574 200.726 311.5C201.838 312.426 203.492 312.276 204.417 311.163Z" fill="#ED1C24"/>
<path d="M224.943 360.26C225.871 359.146 225.721 357.49 224.606 356.564C223.494 355.635 221.839 355.788 220.914 356.902C219.986 358.015 220.136 359.671 221.251 360.597C222.36 361.523 224.015 361.373 224.943 360.26Z" fill="#ED1C24"/>
<path d="M213.039 324.95C213.967 323.837 213.814 322.181 212.702 321.255C211.59 320.326 209.935 320.476 209.01 321.592C208.082 322.705 208.232 324.361 209.347 325.287C210.459 326.214 212.113 326.063 213.039 324.95Z" fill="#ED1C24"/>
<path d="M259.334 346.506C260.263 345.393 260.113 343.737 258.997 342.81C257.885 341.881 256.231 342.031 255.306 343.148C254.378 344.261 254.528 345.917 255.643 346.843C256.752 347.769 258.406 347.619 259.334 346.506Z" fill="#ED1C24"/>
<path d="M237.92 376.326C238.849 375.212 238.698 373.556 237.583 372.63C236.471 371.701 234.817 371.851 233.892 372.968C232.964 374.081 233.117 375.737 234.229 376.663C235.341 377.592 236.995 377.442 237.92 376.326Z" fill="#ED1C24"/>
<path d="M219.861 296.16C220.789 295.047 220.639 293.391 219.524 292.465C218.412 291.536 216.757 291.686 215.832 292.803C214.904 293.916 215.057 295.572 216.169 296.498C217.281 297.427 218.933 297.274 219.861 296.16Z" fill="#ED1C24"/>
<path d="M207.168 287.746C208.097 286.633 207.947 284.977 206.831 284.051C205.719 283.121 204.065 283.272 203.14 284.388C202.212 285.501 202.365 287.157 203.477 288.083C204.586 289.009 206.24 288.859 207.168 287.746Z" fill="#ED1C24"/>
<path d="M243.79 301.233C244.718 300.12 244.565 298.464 243.453 297.538C242.34 296.609 240.686 296.759 239.761 297.875C238.833 298.988 238.983 300.644 240.098 301.571C241.21 302.497 242.861 302.346 243.79 301.233Z" fill="#ED1C24"/>
<path d="M218.886 324.681C218.286 324.405 217.575 324.671 217.299 325.276C217.024 325.877 217.29 326.588 217.894 326.864C218.494 327.14 219.205 326.873 219.48 326.269C219.753 325.665 219.487 324.957 218.886 324.681Z" fill="#ED1C24"/>
<path d="M209.395 313.267C208.794 312.991 208.084 313.258 207.808 313.862C207.532 314.463 207.799 315.175 208.402 315.451C209.003 315.727 209.714 315.46 209.989 314.856C210.262 314.251 209.995 313.543 209.395 313.267Z" fill="#ED1C24"/>
<path d="M195.29 322.771C194.69 322.495 193.979 322.761 193.704 323.365C193.428 323.967 193.694 324.678 194.298 324.954C194.901 325.23 195.609 324.963 195.885 324.359C196.157 323.758 195.891 323.047 195.29 322.771Z" fill="#ED1C24"/>
<path d="M199.197 299.758C198.596 299.482 197.885 299.749 197.61 300.353C197.334 300.954 197.601 301.666 198.204 301.942C198.805 302.218 199.515 301.951 199.791 301.347C200.064 300.746 199.797 300.034 199.197 299.758Z" fill="#ED1C24"/>
<path d="M214.9 305.606C214.299 305.33 213.589 305.597 213.313 306.201C213.037 306.802 213.304 307.514 213.907 307.79C214.508 308.066 215.218 307.799 215.494 307.195C215.767 306.594 215.503 305.882 214.9 305.606Z" fill="#ED1C24"/>
<path d="M206.037 334.559C205.437 334.283 204.726 334.549 204.451 335.154C204.175 335.755 204.441 336.466 205.045 336.742C205.645 337.018 206.356 336.751 206.632 336.147C206.908 335.543 206.641 334.835 206.037 334.559Z" fill="#ED1C24"/>
<path d="M179.623 329.845C179.023 329.569 178.312 329.836 178.037 330.44C177.761 331.041 178.027 331.753 178.631 332.029C179.231 332.305 179.942 332.038 180.218 331.434C180.49 330.83 180.227 330.118 179.623 329.845Z" fill="#ED1C24"/>
<path d="M181.146 312.071C180.545 311.795 179.835 312.062 179.559 312.666C179.283 313.267 179.55 313.978 180.153 314.254C180.754 314.53 181.464 314.263 181.74 313.659C182.013 313.055 181.749 312.344 181.146 312.071Z" fill="#ED1C24"/>
<path d="M237.309 322.512C236.452 323.681 236.703 325.321 237.867 326.183C239.034 327.042 240.673 326.79 241.534 325.625C242.392 324.457 242.141 322.816 240.976 321.954C239.809 321.092 238.167 321.344 237.309 322.512Z" fill="#ED1C24"/>
<path d="M213.859 274.746C213.001 275.915 213.253 277.555 214.417 278.417C215.584 279.276 217.223 279.024 218.084 277.859C218.942 276.69 218.69 275.05 217.526 274.188C216.359 273.326 214.717 273.578 213.859 274.746Z" fill="#ED1C24"/>
<path d="M227.872 309.271C227.014 310.439 227.265 312.08 228.429 312.941C229.597 313.8 231.236 313.549 232.097 312.383C232.954 311.215 232.703 309.574 231.539 308.712C230.372 307.851 228.73 308.102 227.872 309.271Z" fill="#ED1C24"/>
<path d="M180.362 290.555C179.504 291.723 179.756 293.364 180.92 294.226C182.084 295.088 183.726 294.833 184.587 293.668C185.445 292.499 185.193 290.859 184.029 289.997C182.859 289.138 181.22 289.39 180.362 290.555Z" fill="#ED1C24"/>
<path d="M199.932 259.493C199.075 260.661 199.326 262.302 200.49 263.164C201.657 264.022 203.296 263.771 204.157 262.605C205.015 261.437 204.764 259.796 203.599 258.935C202.432 258.073 200.79 258.324 199.932 259.493Z" fill="#ED1C24"/>
<path d="M222.805 338.419C221.947 339.587 222.198 341.228 223.362 342.089C224.529 342.948 226.168 342.696 227.029 341.531C227.887 340.363 227.636 338.722 226.472 337.86C225.301 336.999 223.662 337.25 222.805 338.419Z" fill="#ED1C24"/>
<path d="M240.337 348.945C241.09 347.707 240.697 346.092 239.46 345.338C238.222 344.585 236.609 344.978 235.856 346.216C235.103 347.455 235.496 349.07 236.733 349.823C237.971 350.577 239.584 350.184 240.337 348.945Z" fill="#ED1C24"/>
<path d="M198.612 334.803C197.754 335.971 198.006 337.612 199.17 338.474C200.337 339.332 201.976 339.081 202.837 337.916C203.695 336.747 203.443 335.107 202.279 334.245C201.112 333.386 199.47 333.638 198.612 334.803Z" fill="#ED1C24"/>
<path d="M222.054 309.893C222.67 310.13 223.365 309.823 223.601 309.203C223.837 308.587 223.531 307.891 222.912 307.655C222.296 307.419 221.601 307.725 221.365 308.345C221.129 308.961 221.435 309.654 222.054 309.893Z" fill="#ED1C24"/>
<path d="M232.216 320.71C232.831 320.946 233.527 320.639 233.763 320.02C233.999 319.403 233.692 318.707 233.073 318.471C232.458 318.235 231.762 318.542 231.526 319.161C231.291 319.781 231.6 320.474 232.216 320.71Z" fill="#ED1C24"/>
<path d="M245.72 310.369C246.338 310.605 247.031 310.298 247.267 309.679C247.503 309.062 247.196 308.366 246.577 308.13C245.962 307.894 245.266 308.2 245.03 308.82C244.794 309.439 245.104 310.132 245.72 310.369Z" fill="#ED1C24"/>
<path d="M243.211 333.577C243.827 333.813 244.522 333.506 244.758 332.887C244.994 332.271 244.687 331.575 244.069 331.338C243.453 331.102 242.757 331.409 242.522 332.028C242.286 332.645 242.595 333.338 243.211 333.577Z" fill="#ED1C24"/>
<path d="M227.183 328.689C227.798 328.925 228.494 328.618 228.73 327.999C228.969 327.379 228.659 326.686 228.04 326.45C227.425 326.214 226.729 326.521 226.493 327.14C226.257 327.76 226.567 328.453 227.183 328.689Z" fill="#ED1C24"/>
<path d="M234.281 299.255C234.896 299.491 235.592 299.185 235.828 298.565C236.063 297.949 235.757 297.253 235.138 297.017C234.523 296.78 233.827 297.087 233.591 297.707C233.355 298.323 233.662 299.019 234.281 299.255Z" fill="#ED1C24"/>
<path d="M260.93 302.362C261.549 302.598 262.241 302.291 262.477 301.672C262.713 301.055 262.407 300.359 261.788 300.123C261.172 299.887 260.477 300.194 260.241 300.813C260.005 301.429 260.311 302.122 260.93 302.362Z" fill="#ED1C24"/>
<path d="M260.483 320.194C261.099 320.43 261.794 320.124 262.03 319.504C262.266 318.888 261.96 318.192 261.341 317.956C260.725 317.719 260.03 318.026 259.794 318.646C259.558 319.265 259.868 319.958 260.483 320.194Z" fill="#ED1C24"/>
<path d="M186.92 86.7246L178.848 114.248C178.848 114.248 155.88 95.5381 146.941 55.445C146.941 55.445 136.834 47.2233 129.019 52.225C121.204 57.2267 112.347 60.5049 94.1438 54.295L102.167 49.465L84.2148 37.0451L105.672 32.0772L86.4727 23.8126C86.4727 23.8126 103.527 24.6375 111.447 18.0749C119.366 11.5123 138.914 13.5854 138.914 13.5854L125.423 4.07266C125.423 4.07266 144.184 7.66982 164.173 4.07266C184.163 0.475495 216.56 -9.18441 235.86 24.6253L233.333 10.5954C233.333 10.5954 241.375 13.5854 240.685 28.9952C240.685 28.9952 251.025 26.9252 256.31 37.7351L244.362 33.1352C244.362 33.1352 257.688 45.3251 258.607 59.5849C259.526 73.8448 246.2 115.704 237.928 133.644C229.657 151.584 224.602 162.624 224.602 162.624C224.602 162.624 210.356 135.484 207.14 118.924C203.923 102.364 210.816 106.044 205.301 89.9446C199.787 73.8448 186.92 86.7246 186.92 86.7246Z" fill="#242638"/>
</g>
<circle opacity="0.9" cx="187.735" cy="112" r="11" fill="#DADADA" fill-opacity="0.3"/>
<circle cx="187.5" cy="111.765" r="7.76471" fill="#BFF033"/>
<circle opacity="0.9" cx="188.735" cy="318" r="11" fill="#C4C4C4"/>
<circle cx="188.5" cy="317.765" r="7.76471" fill="#BFF033"/>
<defs>
<clipPath id="clip0">
<rect width="401.196" height="728.237" fill="white" transform="translate(-13)"/>
</clipPath>
</defs>
</svg>
