<svg width="1159" height="727" viewBox="0 0 1159 727" fill="none" xmlns="http://www.w3.org/2000/svg">
<g clip-path="url(#clip0)">
<path d="M480.902 310.393C477.33 314.303 386.888 339.101 369.273 347.885C355.887 352.67 341.938 358.264 330.286 366.605C318.217 375.243 309.719 387.894 305.029 404.21C301.085 417.915 300.272 432.062 299.826 444.243C299.605 450.241 299.821 456.202 300.028 461.97C300.291 469.3 300.54 476.221 299.943 482.944C298.904 494.593 293.246 506.623 290.675 518.257L290.332 519.801C287.507 532.607 286.294 555.232 285.011 579.188C283.695 603.785 285.199 631.665 281.811 644.26C274.944 669.773 264.153 719.526 260.529 745.435C256.713 772.736 264.139 900.823 264.139 900.823C263.955 903.438 263.81 906.054 263.739 908.675C263.354 922.878 265.718 937.058 265.53 951.281C265.37 963.344 267.109 976.225 265.422 988.161C263.692 1000.36 271.113 1012.15 274.977 1023.67C278.652 1034.62 289.302 1040.09 300.455 1045.76C308.483 1049.84 328.129 1063.69 337.661 1055.64C344.217 1050.1 324.754 1031.31 320.679 1026.27C313.15 1016.97 306.852 1003.9 311.308 992.49C311.872 991.045 313.197 990.147 314.978 989.784C319.34 988.9 319.641 989.126 320.181 992.861C321.131 999.467 322.08 1006.07 323.025 1012.67C326.315 1026.2 339.132 1023.83 342.577 1016.19C344.711 1011.47 344.151 1003.62 343.465 999.316C342.13 990.88 340.824 982.426 340.015 973.939C339.188 965.254 338.196 956.724 334.201 948.552C330.761 941.514 325.163 935.285 320.318 928.863C314.889 921.669 317.413 912.646 318.16 904.506C318.273 903.278 359.84 791.687 361.132 782.555C362.068 775.959 363.355 769.349 364.718 762.344C367.017 750.553 369.39 738.359 369.964 726.159C370.161 721.888 370.076 716.604 369.978 710.479C369.719 694.53 373.146 669.787 376.045 659.268C379.147 648.028 384.237 605.634 387.885 594.94C388.322 597.782 388.745 600.289 389.14 602.326C395.809 636.596 397.026 724.325 396.044 756.082C395.64 761.172 387.288 792.468 383.265 807.523C381.737 813.244 380.421 818.184 379.486 821.788C368.831 862.935 371.378 913.888 372.774 941.415L372.779 941.561C374.071 995.242 374.776 1063.81 379.288 1129.24H531.822C531.869 1128.6 531.916 1127.96 531.958 1127.31C535.243 1081.74 547.125 993.736 551.896 993.736C557.014 993.736 570.705 1079.53 574.004 1124.64C574.117 1126.18 574.225 1127.71 574.329 1129.23H724.803C729.804 1063.42 731.802 994.263 733.029 940.206L733.033 940.06C734.283 914.702 736.812 862.432 726.284 821.778C725.349 818.17 724.023 813.211 722.491 807.471C718.473 792.435 710.125 761.172 709.726 756.077C708.748 724.306 709.966 636.567 716.63 602.322C717.034 600.247 717.467 597.683 717.913 594.775C721.128 604.321 726.782 649.557 729.729 659.263C732.902 669.703 736.055 694.52 735.797 710.469C735.698 716.595 735.613 721.883 735.816 726.155C736.384 738.349 738.762 750.544 741.056 762.334C742.419 769.335 743.707 775.95 744.642 782.546C745.935 791.678 748.191 800.367 751.344 808.375C755.56 819.078 787.501 903.269 787.614 904.497C788.366 912.636 790.885 921.664 785.457 928.853C780.611 935.275 775.013 941.504 771.573 948.543C767.578 956.715 766.591 965.244 765.759 973.929C764.951 982.412 763.644 990.866 762.309 999.307C761.628 1003.62 761.069 1011.46 763.202 1016.18C766.647 1023.82 779.46 1026.19 782.75 1012.66C783.699 1006.06 784.648 999.457 785.598 992.852C786.134 989.116 786.439 988.895 790.801 989.775C792.582 990.132 793.907 991.036 794.471 992.48C798.927 1003.89 792.629 1016.96 785.1 1026.26C781.025 1031.3 761.557 1050.08 768.119 1055.63C777.655 1063.68 797.296 1049.83 805.324 1045.75C816.472 1040.08 827.127 1034.61 830.802 1023.66C834.666 1012.14 842.087 1000.35 840.357 988.152C838.665 976.221 840.404 963.339 840.249 951.271C840.061 937.049 842.425 922.869 842.04 908.665C841.97 906.045 841.819 903.429 841.641 900.813C841.641 900.813 849.067 772.722 845.25 745.425C841.622 719.502 830.831 669.75 823.969 644.25C820.58 631.656 822.084 603.775 820.763 579.174C819.48 555.218 818.268 532.593 815.443 519.791L815.095 518.215C812.524 506.59 806.87 494.574 805.836 482.934C805.234 476.207 805.488 469.286 805.751 461.961C805.958 456.197 806.174 450.232 805.954 444.233C805.502 432.053 804.694 417.915 800.746 404.201C796.051 387.885 787.553 375.234 775.483 366.596C763.832 358.254 749.883 352.66 736.497 347.876C718.867 339.082 625.018 311.804 614.96 308.187L480.902 310.393Z" fill="#EF65AD"/>
<path d="M613.484 317.629C617.653 319.007 626.268 321.637 637.581 325.091C666.528 333.926 720.414 350.369 732.309 356.307L732.812 356.556L733.339 356.744C746.01 361.275 759.221 366.53 770.017 374.26C780.32 381.632 787.619 392.585 791.712 406.812C795.364 419.5 796.126 432.961 796.558 444.586C796.765 450.246 796.558 456.033 796.356 461.627C796.079 469.258 795.82 476.465 796.474 483.776C797.193 491.845 799.693 499.617 802.114 507.135C803.594 511.732 804.995 516.074 805.916 520.257L806.264 521.828C808.924 533.882 810.118 556.131 811.377 579.687C811.843 588.358 811.946 597.485 812.049 606.311C812.242 623.051 812.411 637.504 814.888 646.706C821.68 671.952 832.358 721.149 835.935 746.738C838.961 768.37 834.304 864.907 832.25 900.277L832.217 900.874L832.259 901.472C832.457 904.328 832.579 906.699 832.64 908.933C832.828 915.826 832.32 922.747 831.785 930.077C831.277 936.997 830.751 944.153 830.849 951.408C830.901 955.43 830.732 959.575 830.549 963.965C830.201 972.306 829.844 980.93 831.051 989.483C831.949 995.835 828.951 1003.04 825.778 1010.67C824.429 1013.91 823.038 1017.25 821.891 1020.67C819.583 1027.55 812.486 1031.57 801.07 1037.37C799.557 1038.14 797.865 1039.1 795.91 1040.22C791.341 1042.83 784.24 1046.89 778.806 1048.25C779.262 1047.59 779.803 1046.85 780.428 1046.04C783.107 1042.55 786.265 1039.08 788.803 1036.28C790.331 1034.6 791.539 1033.27 792.403 1032.2C804.261 1017.54 808.209 1001.82 803.227 989.065C801.507 984.67 797.658 981.575 792.662 980.563C791.059 980.238 789.48 979.947 787.854 979.947C783.342 979.947 777.674 981.956 776.296 991.516L773.524 1010.82C773.162 1012.13 772.753 1012.72 772.565 1012.94C772.297 1012.86 771.902 1012.61 771.77 1012.32C771.056 1010.73 770.788 1005.88 771.596 1000.78C773.039 991.661 774.304 983.414 775.121 974.828C775.935 966.294 776.814 959.241 780.019 952.683C782.176 948.265 785.588 943.941 789.203 939.364C790.439 937.797 791.717 936.179 792.958 934.532C799.735 925.551 798.415 915.228 797.446 907.696C797.263 906.266 797.089 904.911 796.972 903.641C796.812 901.928 796.774 901.524 779.807 856.664C771.009 833.408 762.164 810.205 760.091 804.931C757.205 797.61 755.142 789.636 753.948 781.233C752.98 774.406 751.673 767.688 750.287 760.575C748.05 749.081 745.742 737.234 745.201 725.727C745.018 721.779 745.098 716.67 745.192 710.751V710.629C745.455 694.337 742.372 668.55 738.715 656.534C737.498 652.53 735.374 639.183 733.498 627.407C730.542 608.814 728.615 597.137 726.81 591.783L708.612 593.359C708.165 596.262 707.757 598.675 707.395 600.534C700.293 637.038 699.447 727.975 700.321 756.383L700.326 756.604L700.345 756.825C700.683 761.172 704.222 775.564 713.401 809.918L713.556 810.501C715.018 815.977 716.282 820.71 717.175 824.159C727.384 863.58 724.85 914.932 723.638 939.613L723.628 939.759L723.624 940.046C722.468 991.125 720.564 1057.1 716.066 1119.84H583.061C581.294 1098.33 577.398 1067.91 572.909 1040.75C563.946 986.5 560.214 984.341 551.9 984.341C542.528 984.341 540.442 994.527 538.026 1006.32C536.24 1015.04 534.181 1027.42 532.071 1042.11C528.334 1068.12 524.936 1097.72 523.117 1119.84H388.091C384.9 1069.72 383.829 1018.57 382.879 973.148C382.644 962.012 382.428 951.497 382.184 941.391L382.179 941.123L382.169 940.959C380.806 914.076 378.264 864.041 388.59 824.168C389.492 820.677 390.77 815.893 392.251 810.355L392.354 809.974C401.533 775.587 405.077 761.186 405.42 756.853L405.439 756.627L405.444 756.401C406.323 728.008 405.477 637.08 398.37 600.557C398.018 598.741 397.614 596.379 397.176 593.533L378.992 591.924C376.882 598.101 374.8 610.762 371.858 629.369C370.081 640.609 368.243 652.234 366.988 656.793C363.741 668.559 360.314 694.097 360.582 710.662C360.681 716.618 360.761 721.765 360.578 725.75C360.037 737.253 357.734 749.095 355.502 760.546C354.115 767.665 352.809 774.364 351.84 781.186C350.459 788.394 327.593 851.018 317.822 877.784C308.944 902.098 308.944 902.098 308.803 903.669C308.685 904.939 308.511 906.294 308.328 907.724C307.364 915.261 306.039 925.579 312.816 934.56C314.057 936.207 315.336 937.825 316.572 939.392C320.186 943.97 323.598 948.298 325.76 952.716C328.966 959.274 329.844 966.322 330.658 974.861C331.471 983.395 332.735 991.661 334.183 1000.81C334.991 1005.91 334.723 1010.77 334.009 1012.34C333.877 1012.63 333.482 1012.89 333.214 1012.97C333.026 1012.75 332.617 1012.16 332.256 1010.85C331.635 1006.54 329.483 991.549 329.483 991.549C328.105 981.979 322.437 979.975 317.925 979.975C316.299 979.975 314.72 980.267 313.112 980.591C308.112 981.603 304.262 984.703 302.547 989.097C297.565 1001.85 301.508 1017.57 313.371 1032.23C314.24 1033.3 315.448 1034.63 316.976 1036.31C319.514 1039.1 322.672 1042.58 325.351 1046.07C325.976 1046.88 326.512 1047.61 326.973 1048.27C321.54 1046.91 314.433 1042.85 309.865 1040.24C307.91 1039.12 306.222 1038.16 304.709 1037.39C293.293 1031.59 286.196 1027.57 283.888 1020.69C282.741 1017.27 281.35 1013.93 280.001 1010.69C276.829 1003.06 273.83 995.858 274.728 989.507C275.936 980.958 275.578 972.339 275.231 964.002C275.047 959.608 274.873 955.459 274.93 951.431C275.028 944.172 274.502 937.011 273.994 930.086C273.459 922.761 272.951 915.845 273.139 908.952C273.2 906.741 273.318 904.37 273.52 901.495L273.562 900.898L273.529 900.3C271.48 864.93 266.822 768.403 269.844 746.761C273.421 721.182 284.099 671.984 290.891 646.729C293.368 637.532 293.537 623.074 293.73 606.339C293.833 597.513 293.936 588.386 294.402 579.715C295.661 556.159 296.855 533.905 299.515 521.852L299.854 520.309C300.78 516.126 302.18 511.779 303.661 507.178C306.086 499.655 308.591 491.873 309.305 483.8C309.959 476.479 309.696 469.276 309.423 461.65C309.221 456.047 309.014 450.265 309.221 444.61C309.649 432.984 310.415 419.519 314.067 406.835C318.16 392.608 325.459 381.656 335.762 374.283C346.558 366.553 359.769 361.298 372.44 356.768L372.967 356.579L373.47 356.33C381.977 352.086 412.198 342.776 436.478 335.295C466.943 325.909 478.369 322.211 483.492 319.788" fill="#681156"/>
<path d="M614.965 308.196C625.023 311.809 718.872 339.092 736.502 347.885C749.888 352.67 763.837 358.264 775.488 366.605C787.553 375.243 796.056 387.894 800.751 404.21C804.699 417.92 805.507 432.062 805.958 444.243C806.179 450.241 805.963 456.202 805.756 461.97C805.493 469.3 805.244 476.221 805.841 482.944C806.875 494.583 812.529 506.604 815.1 518.224L815.448 519.8C818.272 532.607 819.485 555.232 820.768 579.184C822.084 603.785 820.58 631.665 823.974 644.259C830.836 669.759 841.627 719.512 845.255 745.435C849.071 772.732 841.645 900.823 841.645 900.823C841.829 903.438 841.974 906.054 842.045 908.675C842.43 922.878 840.066 937.058 840.254 951.281C840.414 963.344 838.675 976.225 840.362 988.161C842.092 1000.36 834.671 1012.15 830.807 1023.67C827.132 1034.62 816.482 1040.09 805.329 1045.76C797.301 1049.84 777.66 1063.69 768.124 1055.64C761.562 1050.1 781.03 1031.31 785.105 1026.27C792.634 1016.97 798.932 1003.9 794.476 992.49C793.912 991.045 792.587 990.147 790.806 989.784C786.449 988.9 786.143 989.126 785.603 992.861C784.653 999.467 783.704 1006.07 782.755 1012.67C779.465 1026.2 766.652 1023.83 763.207 1016.19C761.074 1011.47 761.633 1003.62 762.314 999.316C763.649 990.881 764.956 982.426 765.764 973.939C766.591 965.254 767.583 956.724 771.578 948.552C775.018 941.514 780.616 935.285 785.462 928.863C790.89 921.669 788.366 912.646 787.619 904.506C787.506 903.278 755.565 819.087 751.349 808.384C748.196 800.377 745.94 791.687 744.647 782.555C743.712 775.959 742.424 769.349 741.061 762.344C738.763 750.553 736.389 738.359 735.82 726.164C735.618 721.892 735.708 716.604 735.802 710.479C736.06 694.53 732.906 669.712 729.734 659.272C726.782 649.571 721.128 604.335 717.918 594.784C717.472 597.692 717.039 600.256 716.635 602.331C709.971 636.581 708.749 724.315 709.731 756.086C710.13 761.181 718.477 792.444 722.496 807.481C724.028 813.22 725.354 818.179 726.289 821.788C736.817 862.446 734.288 914.711 733.038 940.069L733.033 940.215C731.807 994.268 729.809 1063.43 724.808 1129.24H574.333C574.23 1127.72 574.122 1126.19 574.009 1124.65C570.71 1079.54 557.019 993.746 551.9 993.746C547.13 993.746 535.248 1081.75 531.963 1127.32C531.916 1127.97 531.869 1128.61 531.827 1129.25H379.293C374.781 1063.82 374.076 995.256 372.784 941.57L372.779 941.424C371.383 913.897 368.836 862.945 379.491 821.797C380.426 818.189 381.747 813.249 383.269 807.533C387.288 792.477 395.64 761.186 396.049 756.091C397.031 724.334 395.814 636.605 389.144 602.336C388.75 600.298 388.327 597.791 387.89 594.949C384.238 605.638 379.148 648.037 376.05 659.277C373.15 669.797 369.724 694.534 369.983 710.488C370.081 716.609 370.166 721.897 369.968 726.169C369.395 738.368 367.022 750.558 364.723 762.353C363.36 769.354 362.072 775.968 361.137 782.564C359.84 791.696 318.278 903.288 318.165 904.516C317.418 912.655 314.894 921.683 320.322 928.872C325.168 935.294 330.766 941.523 334.206 948.562C338.201 956.734 339.188 965.263 340.02 973.948C340.829 982.431 342.135 990.885 343.47 999.326C344.151 1003.64 344.711 1011.48 342.582 1016.2C339.137 1023.84 326.324 1026.21 323.03 1012.68C322.085 1006.08 321.131 999.476 320.186 992.871C319.65 989.135 319.345 988.914 314.983 989.794C313.202 990.151 311.877 991.055 311.313 992.499C306.857 1003.91 313.155 1016.98 320.684 1026.28C324.759 1031.32 344.227 1050.1 337.665 1055.65C328.129 1063.7 308.488 1049.84 300.46 1045.77C289.312 1040.1 278.657 1034.63 274.982 1023.68C271.118 1012.16 263.697 1000.37 265.427 988.171C267.114 976.239 265.375 963.358 265.535 951.29C265.727 937.068 263.359 922.888 263.744 908.684C263.814 906.064 263.96 903.448 264.143 900.832C264.143 900.832 256.718 772.746 260.534 745.444C264.158 719.535 274.949 669.783 281.815 644.269C285.204 631.674 283.7 603.794 285.016 579.198C286.299 555.241 287.512 532.611 290.337 519.81L290.68 518.267C293.251 506.632 298.909 494.602 299.948 482.953C300.545 476.225 300.296 469.305 300.033 461.979C299.826 456.216 299.61 450.25 299.831 444.252C300.282 432.071 301.09 417.929 305.033 404.219C309.729 387.903 318.226 375.252 330.291 366.614C341.942 358.273 355.892 352.679 369.278 347.894C386.888 339.111 477.33 314.317 480.907 310.402L614.965 308.196Z" fill="#EF65AD"/>
<path d="M583.06 1119.83C581.293 1098.32 577.397 1067.9 572.908 1040.74C563.945 986.491 560.214 984.332 551.899 984.332C542.528 984.332 540.441 994.517 538.025 1006.31C536.239 1015.03 534.18 1027.41 532.07 1042.1C528.334 1068.11 524.936 1097.71 523.117 1119.83H388.091C384.899 1069.71 383.828 1018.56 382.878 973.139C382.643 962.003 382.427 951.488 382.183 941.382L382.178 941.114L382.169 940.949C380.806 914.066 378.263 864.032 388.589 824.159C389.491 820.668 390.77 815.883 392.25 810.346L392.353 809.965C401.533 775.578 405.076 761.177 405.419 756.844L405.438 756.618L405.443 756.392C406.322 727.999 405.476 637.071 398.369 600.548C398.017 598.732 397.613 596.37 397.176 593.524L389.792 566.302C387.682 572.479 374.799 610.748 371.857 629.355C370.08 640.595 368.243 652.22 366.988 656.779C363.74 668.545 360.314 694.083 360.582 710.648C360.68 716.604 360.76 721.751 360.577 725.736C360.036 737.239 357.733 749.081 355.501 760.532C354.114 767.651 352.808 774.35 351.84 781.172C350.458 788.38 327.592 851.004 317.821 877.769C308.943 902.083 308.943 902.083 308.802 903.655C308.684 904.925 308.51 906.28 308.327 907.71C307.364 915.247 306.038 925.565 312.816 934.546C314.056 936.193 315.335 937.811 316.571 939.378C320.185 943.956 323.597 948.284 325.759 952.702C328.965 959.26 329.844 966.308 330.657 974.847C331.47 983.381 332.734 991.647 334.182 1000.8C334.99 1005.9 334.722 1010.75 334.008 1012.33C333.876 1012.62 333.481 1012.88 333.214 1012.96C333.026 1012.73 332.617 1012.14 332.255 1010.84C331.634 1006.52 329.482 991.534 329.482 991.534C328.105 981.965 322.436 979.961 317.924 979.961C316.298 979.961 314.719 980.253 313.112 980.577C308.111 981.589 304.262 984.689 302.546 989.083C297.564 1001.83 301.507 1017.55 313.37 1032.21C314.24 1033.28 315.448 1034.62 316.975 1036.3C319.513 1039.09 322.671 1042.57 325.35 1046.05C325.976 1046.87 326.511 1047.6 326.972 1048.25C321.539 1046.9 314.437 1042.84 309.869 1040.23C307.913 1039.11 306.226 1038.14 304.713 1037.38C293.297 1031.58 286.2 1027.56 283.892 1020.68C282.745 1017.26 281.354 1013.91 280.005 1010.68C276.832 1003.05 273.834 995.844 274.732 989.493C275.939 980.944 275.582 972.325 275.234 963.988C275.051 959.594 274.877 955.445 274.934 951.417C275.032 944.158 274.506 936.997 273.998 930.072C273.463 922.747 272.955 915.831 273.143 908.938C273.204 906.727 273.322 904.356 273.524 901.481L273.566 900.884L273.533 900.286C271.484 864.916 266.826 768.389 269.848 746.747C273.425 721.168 284.103 671.97 290.895 646.715C293.372 637.518 293.541 623.06 293.734 606.325C293.837 597.499 293.94 588.372 294.406 579.701C295.665 556.145 296.859 533.891 299.519 521.838L299.858 520.295C300.784 516.112 302.184 511.765 303.665 507.164C306.09 499.641 308.595 491.859 309.309 483.786C309.963 476.465 309.699 469.262 309.427 461.636C309.225 456.033 309.018 450.251 309.225 444.595C309.652 432.97 310.419 419.505 314.07 406.821C318.164 392.594 325.463 381.642 335.766 374.269C346.561 366.539 359.773 361.284 372.444 356.753L372.971 356.565L373.474 356.316C381.981 352.072 412.202 342.762 436.482 335.281C466.947 325.895 478.373 322.197 483.496 319.774L613.488 317.643C617.657 319.022 626.272 321.651 637.585 325.105C666.532 333.94 720.417 350.383 732.313 356.321L732.816 356.57L733.342 356.758C746.014 361.289 759.225 366.544 770.021 374.274C780.324 381.646 787.623 392.599 791.716 406.826C795.368 419.515 796.13 432.975 796.562 444.6C796.769 450.26 796.562 456.047 796.36 461.641C796.083 469.272 795.824 476.479 796.477 483.791C797.197 491.859 799.697 499.631 802.117 507.15C803.598 511.746 804.999 516.089 805.92 520.271L806.268 521.842C808.928 533.896 810.122 556.145 811.381 579.701C811.846 588.372 811.95 597.499 812.053 606.325C812.246 623.065 812.415 637.518 814.892 646.72C821.683 671.966 832.362 721.163 835.939 746.752C838.965 768.384 834.308 864.921 832.254 900.291L832.221 900.888L832.263 901.486C832.461 904.342 832.583 906.713 832.644 908.948C832.832 915.84 832.324 922.761 831.788 930.091C831.281 937.011 830.754 944.167 830.853 951.422C830.905 955.445 830.736 959.589 830.552 963.979C830.205 972.32 829.847 980.944 831.055 989.497C831.953 995.849 828.954 1003.05 825.782 1010.68C824.433 1013.92 823.042 1017.26 821.895 1020.68C819.587 1027.56 812.49 1031.58 801.074 1037.38C799.561 1038.15 797.873 1039.12 795.918 1040.23C791.35 1042.84 784.248 1046.9 778.815 1048.26C779.271 1047.6 779.811 1046.87 780.436 1046.05C783.115 1042.57 786.274 1039.09 788.812 1036.3C790.339 1034.62 791.547 1033.28 792.412 1032.21C804.27 1017.56 808.218 1001.84 803.236 989.079C801.516 984.684 797.667 981.589 792.67 980.577C791.068 980.253 789.489 979.961 787.862 979.961C783.35 979.961 777.682 981.97 776.305 991.53L773.532 1010.84C773.17 1012.14 772.761 1012.73 772.573 1012.96C772.305 1012.88 771.911 1012.62 771.779 1012.33C771.065 1010.75 770.797 1005.89 771.605 1000.8C773.048 991.676 774.312 983.428 775.13 974.842C775.943 966.308 776.822 959.255 780.027 952.697C782.185 948.279 785.597 943.956 789.211 939.378C790.447 937.811 791.726 936.193 792.967 934.546C799.744 925.565 798.423 915.243 797.455 907.71C797.272 906.28 797.098 904.925 796.98 903.655C796.82 901.942 796.783 901.538 779.816 856.678C771.018 833.423 762.172 810.219 760.1 804.945C757.214 797.624 755.15 789.65 753.957 781.247C752.988 774.421 751.682 767.702 750.295 760.589C748.058 749.095 745.75 737.249 745.21 725.741C745.027 721.793 745.107 716.684 745.201 710.766V710.643C745.464 694.351 742.381 668.564 738.724 656.548C737.507 652.545 735.382 639.197 733.507 627.421C730.551 608.828 719.351 571.896 717.551 566.542L708.621 593.373C708.174 596.276 707.765 598.69 707.403 600.548C700.302 637.052 699.456 727.99 700.33 756.397L700.334 756.618L700.353 756.839C700.692 761.186 704.231 775.578 713.41 809.932L713.565 810.515C715.027 815.992 716.291 820.725 717.184 824.173C727.392 863.594 724.859 914.946 723.646 939.627L723.637 939.773L723.632 940.06C722.476 991.139 720.573 1057.12 716.075 1119.85H583.06V1119.83Z" fill="#681156"/>
<path d="M595.906 1105.71C593.828 1085.45 590.52 1060.84 586.821 1038.44C578.803 989.906 574.643 970.212 551.9 970.212C546.288 970.212 535.943 972.085 529.725 984.618C526.915 990.283 525.603 996.691 524.212 1003.47C522.37 1012.47 520.26 1025.13 518.112 1040.09C515.057 1061.35 512.18 1085.37 510.225 1105.71H401.369C398.802 1060.13 397.834 1013.98 396.974 972.838V972.748C396.744 961.659 396.523 951.182 396.283 941.104L396.274 940.648L396.255 940.239C394.93 914.104 392.462 865.476 402.243 827.697C403.112 824.338 404.348 819.708 405.782 814.345L405.979 813.601C416.973 772.425 419.092 762.847 419.478 757.949L419.525 757.384L419.543 756.796C420.465 727.015 419.637 635.979 412.216 597.828C411.901 596.2 411.53 594.022 411.116 591.35L410.994 590.569L391.339 518.126L376.454 561.719C373.911 569.167 361.066 607.327 357.936 627.134C356.38 636.986 354.444 649.218 353.4 653.005C349.894 665.718 346.191 692.605 346.487 710.859C346.581 716.576 346.661 721.511 346.492 725.058C346.003 735.531 343.794 746.86 341.66 757.817C340.273 764.931 338.967 771.645 337.956 778.622C336.518 784.46 325.295 816.161 304.586 872.89C295.074 898.95 295.074 898.95 294.759 902.351C294.665 903.368 294.51 904.591 294.345 905.885C293.212 914.715 291.323 929.465 301.564 943.038C302.89 944.788 304.201 946.453 305.465 948.058L305.503 948.105C308.638 952.08 311.594 955.825 313.089 958.888C314.109 960.972 314.795 963.301 315.307 965.95C313.455 966.115 311.791 966.43 310.311 966.726C300.685 968.674 292.883 975.082 289.429 983.875C289.861 976.691 289.575 969.728 289.307 963.386C289.133 959.17 288.968 955.223 289.015 951.591C289.123 943.72 288.574 936.249 288.042 929.022C287.53 922.064 287.051 915.492 287.22 909.31C287.276 907.296 287.384 905.118 287.572 902.445L287.676 900.949L287.591 899.458C284.771 850.825 281.251 766.897 283.794 748.69C287.305 723.6 297.804 675.235 304.492 650.371C307.43 639.451 307.608 624.175 307.815 606.485C307.914 597.795 308.022 588.819 308.469 580.44C309.644 558.487 310.861 535.787 313.272 524.867L313.61 523.329C314.391 519.796 315.692 515.759 317.07 511.482C319.608 503.607 322.484 494.677 323.339 485.023C324.068 476.823 323.795 469.192 323.504 461.114C323.311 455.769 323.114 450.246 323.302 445.099C323.701 434.311 324.397 421.862 327.607 410.712C330.798 399.613 336.302 391.211 343.954 385.734C353.344 379.011 365.47 374.217 377.173 370.03L378.489 369.56L379.744 368.934C387.222 365.203 419.346 355.304 440.609 348.755C467.465 340.48 479.732 336.575 486.514 333.822L611.364 331.776C616.069 333.277 623.594 335.573 633.426 338.574C657.908 346.045 715.163 363.519 726.011 368.934L727.266 369.56L728.591 370.035C740.294 374.217 752.42 379.016 761.806 385.734C769.462 391.215 774.961 399.618 778.157 410.717C781.367 421.871 782.063 434.315 782.458 445.103C782.646 450.246 782.448 455.769 782.256 461.114C781.978 468.839 781.687 476.832 782.42 485.028C783.28 494.663 786.147 503.583 788.681 511.449C790.062 515.731 791.36 519.767 792.14 523.301L792.483 524.863C794.894 535.792 796.111 558.487 797.286 580.435C797.738 588.805 797.841 597.772 797.94 606.443C798.146 624.165 798.325 639.446 801.267 650.375C807.955 675.231 818.455 723.595 821.966 748.695C824.513 766.902 820.988 850.83 818.168 899.458L818.084 900.954L818.187 902.445C818.37 905.108 818.483 907.296 818.54 909.324C818.709 915.496 818.225 922.078 817.717 929.041C817.186 936.268 816.641 943.729 816.744 951.591C816.791 955.223 816.627 959.175 816.453 963.362C816.19 969.714 815.898 976.681 816.331 983.87C812.872 975.072 805.065 968.669 795.439 966.726C793.968 966.43 792.309 966.115 790.453 965.95C790.965 963.306 791.651 960.972 792.671 958.888C794.166 955.825 797.122 952.08 800.252 948.114C801.53 946.491 802.856 944.816 804.195 943.043C814.441 929.469 812.552 914.715 811.419 905.903C811.25 904.596 811.095 903.368 811.001 902.347C810.625 898.31 810.625 898.31 792.981 851.663C784.164 828.355 775.286 805.067 773.194 799.751C770.713 793.456 768.931 786.554 767.893 779.243C766.873 772.059 765.533 765.161 764.109 757.864C761.971 746.884 759.762 735.531 759.268 725.058C759.104 721.558 759.184 716.665 759.273 711.001L759.278 710.831C759.564 693.085 756.255 665.779 752.195 652.417C751.259 649.34 748.853 634.215 747.415 625.182C744.322 605.76 732.976 568.203 730.894 562.016L717.462 522.082L694.85 590.028L694.667 591.213C694.248 593.938 693.872 596.158 693.548 597.824C686.132 635.951 685.3 727.006 686.221 756.811L686.24 757.361L686.282 757.902C686.667 762.837 688.782 772.416 699.776 813.554L699.931 814.133C701.322 819.341 702.633 824.262 703.526 827.697C713.194 865.024 710.731 914.927 709.552 938.907L709.533 939.265L709.523 939.749C708.457 986.712 706.746 1047.08 702.901 1105.71H595.906Z" fill="#83166B"/>
<path d="M496.542 326.591V278.316C496.542 278.316 456.907 273.211 454.853 253.258C452.795 233.306 456.122 236.975 456.122 236.975L448.945 225.529L445.721 221.346L432.354 210.638L444.927 176.186C444.927 176.186 424.966 87.8825 464.451 68.8283C503.935 49.7742 636.456 122.208 636.292 140.773C636.127 159.338 616.707 223.548 614.258 224.785C611.805 226.023 607.575 248.582 608.106 250.534C608.632 252.487 616.04 322.884 616.04 322.884L496.542 326.591Z" fill="#681156"/>
<path d="M600.408 327.829C597.908 304.253 594.914 257.959 594.284 253.433C593.795 251.292 593.49 247.364 596.272 234.426C598.11 225.882 599.825 220.142 602.833 216.312C606.969 206.31 620.58 159.856 622.056 143.069C617.361 137.414 598.293 122.782 565.703 106.603C531.859 89.8115 500.322 79.781 481.338 79.781C475.459 79.781 472.235 80.7408 470.566 81.5453C456.137 88.5083 453.975 114.394 453.97 129.199C453.966 151.853 458.623 172.874 458.67 173.071L459.587 177.127L449.068 205.952L455.846 211.382L460.522 217.446L468.061 229.476L445.675 246.46C448.189 249.236 451.794 250.826 455.568 250.826C463.587 250.826 467.906 244.371 468.343 241.078C468.329 241.177 468.033 243.6 468.879 251.809C468.977 252.755 471.412 256.27 480.995 259.892C489.545 263.124 498.282 264.305 498.343 264.315L510.643 265.9L511.691 330.647C511.691 330.647 456.701 342.644 416.516 356.052C376.331 369.461 351.656 381.458 351.656 381.458H755.62C755.616 381.462 681.375 348.294 600.408 327.829Z" fill="#83166B"/>
<path d="M620.98 320.005C622.489 297.69 610.626 272.877 612.177 249.758C614.104 221.031 616.731 191.58 629.228 165.642C633.04 157.734 637.876 149.406 636.283 140.773C634.145 129.199 621.182 122.721 609.437 122.166C597.691 121.611 586.078 125.102 574.318 124.984C540.695 124.645 514.967 96.257 484.849 81.2865C469.311 73.5661 491.044 70.8938 476.38 61.6208C474.646 60.5245 456.353 13.2467 439.795 105.394C435.814 127.534 437.215 150.531 440.571 173.504C440.439 173.824 424.544 212.087 425.893 215.456C427.246 218.839 442.897 223.365 442.897 223.365L440.087 233.216L450.732 238.547C450.732 238.547 443.128 245.397 443.635 245.905C444.143 246.413 450.732 250.727 450.732 250.727C450.732 250.727 452.509 273.056 462.477 277.963C470.491 281.906 486.476 282.555 492.44 282.658C491.641 302.719 488.863 299.294 488.064 319.355H498.461L502.211 273.414L492.595 273.249C481.014 273.051 470.82 271.588 466.618 269.518C465.955 269.193 463.84 266.898 461.993 260.269C460.522 254.976 460.099 250.012 460.095 249.965L459.714 245.383L458.252 244.423L467.257 236.307L451.259 228.3L454.502 216.933L445.496 214.327C442.333 213.409 438.855 212.177 436.299 211.114C438.639 203.708 444.185 189.269 449.238 177.122L450.239 174.718L449.863 172.14C446.032 145.925 445.769 125.243 449.036 107.054C455.145 73.0485 460.945 62.1947 463.408 58.9249C464.245 59.9176 465.41 61.6066 467.032 64.4389C468.127 66.3537 469.081 68.0192 471.027 69.3553C469.903 71.6795 468.865 75.0386 470.04 79.033C471.708 84.7022 476.902 87.8402 480.657 89.708C490.01 94.3563 498.912 100.374 508.335 106.749C528.244 120.209 548.83 134.13 574.21 134.384C574.436 134.384 574.662 134.389 574.892 134.389C580.87 134.389 586.6 133.613 592.131 132.864C597.268 132.168 602.119 131.51 606.819 131.51C607.557 131.51 608.281 131.528 608.976 131.561C616.924 131.938 625.849 136.125 627.024 142.481C627.875 147.082 625.06 152.784 622.084 158.825C621.633 159.743 621.182 160.651 620.75 161.559C607.787 188.47 604.854 218.34 602.791 249.128C601.926 261.972 604.267 274.514 606.532 286.648C606.532 286.648 610.142 303.067 610.377 317.417L620.98 320.005Z" fill="#EF65AD"/>
<path d="M456.119 157.489C456.119 157.489 452.006 167.425 458.586 174.351L473.039 165.685L456.119 157.489Z" fill="white"/>
<path d="M452.246 155.81L471.869 165.793L458.591 174.351L475.159 165.751L452.246 155.81Z" fill="black"/>
<path d="M445.718 145.134C445.718 145.134 450.549 136.379 486.039 141.601C486.039 141.606 450.305 121.258 445.718 145.134Z" fill="black"/>
<path d="M545.428 456.249C545.428 456.249 547.416 279.384 546.119 247.114C526.882 247.203 497.883 247.392 463.935 247.66C456.969 247.716 455.343 233.376 463.944 233.31C486.725 233.132 496.99 233.08 519.381 232.929L473.133 220.556H449.158C445.356 220.556 442.272 217.47 442.272 213.663C442.272 209.857 445.356 206.771 449.158 206.771H474.575C475.53 206.771 476.474 206.969 477.348 207.354C477.348 207.354 556.51 233.663 557.723 234.896C559.951 237.149 560.082 239.761 560.317 244.503C560.468 247.505 560.599 251.875 560.703 257.488C560.853 265.401 560.205 456.254 560.205 456.254H545.428V456.249Z" fill="#620F5E"/>
<path d="M406.806 552.23C413.362 510.847 426.311 467.568 457.613 437.176C469.673 425.461 493.229 405.772 511.433 406.67C530.815 403.49 532.836 440.474 533.884 450.735C537.48 447.907 541.075 445.08 544.676 442.247C544.906 402.93 545.07 365.584 545.122 332.646H561.257C561.332 389.597 561.384 439.693 561.379 440.271C565.022 443.099 568.66 445.931 572.307 448.759C573.548 435.637 575.7 401.843 597.456 406.416C630.403 408.609 663.303 447.822 676.017 475.152C701.933 526.152 708.546 592.248 692.378 646.804C641.322 642.076 603.252 640.89 585.486 587.195C574.657 554.469 571.842 503.964 573.167 469.935C566.7 464.807 560.392 459.523 553.925 454.39C547.195 459.73 540.474 465.079 533.753 470.424C535.243 504.19 533.311 535.26 505.976 557.396C469.697 586.781 517.444 633.683 413.057 648.098C406.909 627.228 404.348 604.786 404.644 582.618C404.776 572.376 405.523 562.18 406.806 552.23Z" fill="#620F5E"/>
<path d="M533.889 450.735C532.841 440.474 530.815 403.49 511.437 406.67C493.23 405.772 469.673 425.461 457.618 437.176C426.316 467.568 413.367 510.847 406.811 552.23C405.528 562.18 404.78 572.38 404.649 582.627C404.353 604.796 406.914 627.233 413.062 648.108C517.449 633.688 469.701 586.786 505.981 557.405C533.316 535.265 535.248 504.199 533.758 470.433L534.547 450.227C534.326 450.391 534.11 450.565 533.889 450.735Z" fill="#F26EB0"/>
<path d="M597.461 406.421C575.705 401.848 573.552 435.637 572.312 448.763L573.172 469.939C571.846 503.969 574.662 554.474 585.49 587.2C603.256 640.89 641.326 642.081 692.382 646.809C708.545 592.253 701.937 526.161 676.021 475.157C663.308 447.827 630.403 408.613 597.461 406.421Z" fill="#F26EB0"/>
<path d="M408.985 583.61C411.206 583.59 412.991 581.771 412.971 579.547C412.951 577.323 411.134 575.536 408.912 575.556C406.69 575.576 404.905 577.395 404.925 579.62C404.945 581.844 406.763 583.631 408.985 583.61Z" fill="#ED1C24"/>
<path d="M474.576 525.248C475.088 527.413 473.753 529.581 471.591 530.094C469.429 530.607 467.262 529.271 466.75 527.107C466.238 524.943 467.573 522.774 469.735 522.261C471.897 521.748 474.063 523.084 474.576 525.248Z" fill="#ED1C24"/>
<path d="M434.114 565.592C434.626 567.756 433.291 569.925 431.129 570.438C428.967 570.95 426.8 569.614 426.288 567.45C425.776 565.286 427.111 563.117 429.273 562.604C431.43 562.091 433.601 563.428 434.114 565.592Z" fill="#ED1C24"/>
<path d="M511.63 571.16C513.027 569.43 512.757 566.894 511.029 565.497C509.3 564.099 506.767 564.368 505.371 566.099C503.975 567.829 504.244 570.364 505.972 571.762C507.701 573.16 510.234 572.89 511.63 571.16Z" fill="#ED1C24"/>
<path d="M503.378 512.066C503.891 514.23 502.556 516.399 500.394 516.912C498.232 517.425 496.065 516.088 495.553 513.924C495.041 511.76 496.375 509.591 498.537 509.078C500.699 508.561 502.866 509.902 503.378 512.066Z" fill="#ED1C24"/>
<path d="M421.509 614.432C423.549 613.551 424.489 611.18 423.608 609.138C422.727 607.096 420.36 606.156 418.32 607.037C416.28 607.919 415.34 610.289 416.221 612.331C417.102 614.373 419.469 615.314 421.509 614.432Z" fill="#ED1C24"/>
<path d="M400.636 612.672C401.148 614.836 399.814 617.005 397.652 617.518C395.49 618.03 393.323 616.694 392.811 614.53C392.298 612.366 393.633 610.197 395.795 609.684C397.957 609.171 400.119 610.508 400.636 612.672Z" fill="#ED1C24"/>
<path d="M460.143 619.212C460.655 621.376 459.32 623.544 457.158 624.057C454.996 624.57 452.83 623.234 452.317 621.07C451.805 618.906 453.14 616.737 455.302 616.224C457.464 615.711 459.631 617.052 460.143 619.212Z" fill="#ED1C24"/>
<path d="M441.957 569.967C440.942 569.934 440.147 569.083 440.185 568.066C440.218 567.05 441.068 566.255 442.084 566.293C443.099 566.326 443.893 567.177 443.856 568.193C443.818 569.205 442.967 570 441.957 569.967Z" fill="#ED1C24"/>
<path d="M421.127 579.146C420.111 579.113 419.317 578.261 419.355 577.245C419.388 576.229 420.238 575.434 421.254 575.471C422.269 575.504 423.063 576.356 423.025 577.372C422.988 578.384 422.137 579.179 421.127 579.146Z" fill="#ED1C24"/>
<path d="M408.249 556.436C407.234 556.403 406.439 555.552 406.477 554.536C406.51 553.519 407.36 552.724 408.376 552.762C409.391 552.795 410.185 553.646 410.148 554.663C410.11 555.679 409.264 556.474 408.249 556.436Z" fill="#ED1C24"/>
<path d="M397.895 590.715C396.88 590.682 396.086 589.831 396.123 588.815C396.156 587.798 397.007 587.003 398.022 587.041C399.037 587.074 399.832 587.925 399.794 588.942C399.756 589.953 398.906 590.748 397.895 590.715Z" fill="#ED1C24"/>
<path d="M423.453 593.434C422.438 593.401 421.643 592.55 421.681 591.534C421.714 590.518 422.565 589.722 423.58 589.76C424.595 589.793 425.389 590.645 425.352 591.661C425.319 592.672 424.468 593.467 423.453 593.434Z" fill="#ED1C24"/>
<path d="M431.063 547.605C430.048 547.572 429.254 546.721 429.291 545.705C429.324 544.688 430.175 543.893 431.19 543.931C432.205 543.964 433 544.815 432.962 545.832C432.924 546.848 432.074 547.643 431.063 547.605Z" fill="#ED1C24"/>
<path d="M391.563 535.999C390.548 535.966 389.754 535.114 389.791 534.098C389.824 533.082 390.675 532.287 391.69 532.325C392.705 532.357 393.5 533.209 393.462 534.225C393.429 535.241 392.578 536.037 391.563 535.999Z" fill="#ED1C24"/>
<path d="M381.515 561.452C380.5 561.419 379.706 560.567 379.743 559.551C379.776 558.535 380.627 557.74 381.642 557.777C382.657 557.81 383.452 558.662 383.414 559.678C383.377 560.694 382.526 561.489 381.515 561.452Z" fill="#ED1C24"/>
<path d="M507.026 489.375C505.601 487.667 505.832 485.127 507.543 483.706C509.249 482.28 511.787 482.511 513.206 484.223C514.63 485.931 514.395 488.472 512.689 489.892C510.983 491.313 508.45 491.083 507.026 489.375Z" fill="#ED1C24"/>
<path d="M475.539 564.698C474.115 562.99 474.345 560.449 476.056 559.028C477.762 557.603 480.3 557.838 481.72 559.546C483.144 561.254 482.914 563.794 481.203 565.215C479.497 566.636 476.959 566.405 475.539 564.698Z" fill="#ED1C24"/>
<path d="M493.799 510.527C492.375 508.819 492.605 506.279 494.316 504.858C496.022 503.432 498.56 503.663 499.979 505.376C501.403 507.083 501.173 509.624 499.462 511.045C497.756 512.466 495.223 512.235 493.799 510.527Z" fill="#ED1C24"/>
<path d="M422.777 543.597C421.353 541.889 421.584 539.349 423.294 537.928C425.001 536.502 427.539 536.733 428.958 538.445C430.382 540.153 430.152 542.694 428.441 544.115C426.735 545.535 424.197 545.305 422.777 543.597Z" fill="#ED1C24"/>
<path d="M455.626 589.346C454.202 587.638 454.432 585.097 456.143 583.676C457.849 582.251 460.387 582.481 461.807 584.194C463.231 585.902 463 588.442 461.29 589.863C459.584 591.289 457.05 591.058 455.626 589.346Z" fill="#ED1C24"/>
<path d="M489.641 466.182C490.979 464.406 490.625 461.881 488.85 460.542C487.076 459.203 484.554 459.557 483.216 461.333C481.878 463.109 482.232 465.634 484.006 466.973C485.781 468.312 488.303 467.958 489.641 466.182Z" fill="#ED1C24"/>
<path d="M509.004 453.433C510.418 451.718 510.176 449.179 508.462 447.763C506.749 446.347 504.213 446.59 502.798 448.305C501.384 450.021 501.626 452.559 503.34 453.975C505.054 455.391 507.589 455.148 509.004 453.433Z" fill="#ED1C24"/>
<path d="M446.62 474.141C445.196 472.433 445.426 469.893 447.137 468.472C448.843 467.046 451.381 467.277 452.801 468.989C454.225 470.697 453.995 473.238 452.284 474.658C450.582 476.079 448.044 475.849 446.62 474.141Z" fill="#ED1C24"/>
<path d="M484.832 510.113C485.753 509.69 486.843 510.099 487.266 511.026C487.689 511.948 487.28 513.04 486.354 513.463C485.433 513.887 484.343 513.477 483.92 512.55C483.501 511.624 483.906 510.537 484.832 510.113Z" fill="#ED1C24"/>
<path d="M499.392 492.603C500.313 492.179 501.404 492.588 501.827 493.515C502.25 494.437 501.841 495.529 500.915 495.952C499.994 496.376 498.903 495.967 498.48 495.04C498.062 494.113 498.466 493.026 499.392 492.603Z" fill="#ED1C24"/>
<path d="M521.031 507.182C521.952 506.759 523.042 507.168 523.465 508.095C523.888 509.017 523.48 510.109 522.554 510.532C521.632 510.955 520.542 510.546 520.119 509.619C519.696 508.697 520.105 507.606 521.031 507.182Z" fill="#ED1C24"/>
<path d="M515.038 471.878C515.959 471.455 517.049 471.864 517.472 472.791C517.895 473.713 517.486 474.804 516.56 475.228C515.639 475.651 514.549 475.242 514.126 474.315C513.703 473.393 514.112 472.301 515.038 471.878Z" fill="#ED1C24"/>
<path d="M490.941 480.85C491.862 480.427 492.953 480.836 493.376 481.763C493.799 482.685 493.39 483.776 492.464 484.2C491.543 484.623 490.452 484.214 490.029 483.287C489.611 482.365 490.02 481.274 490.941 480.85Z" fill="#ED1C24"/>
<path d="M504.538 525.267C505.459 524.844 506.549 525.253 506.972 526.18C507.395 527.102 506.987 528.193 506.061 528.617C505.139 529.04 504.049 528.631 503.626 527.704C503.208 526.777 503.617 525.691 504.538 525.267Z" fill="#ED1C24"/>
<path d="M545.062 518.036C545.983 517.612 547.074 518.022 547.497 518.948C547.92 519.871 547.511 520.962 546.585 521.386C545.664 521.809 544.573 521.4 544.15 520.473C543.732 519.546 544.136 518.454 545.062 518.036Z" fill="#ED1C24"/>
<path d="M542.726 490.768C543.648 490.344 544.738 490.754 545.161 491.68C545.584 492.603 545.175 493.694 544.249 494.117C543.328 494.541 542.238 494.132 541.815 493.205C541.396 492.278 541.805 491.186 542.726 490.768Z" fill="#ED1C24"/>
<path d="M456.562 506.787C457.878 508.58 457.492 511.097 455.706 512.419C453.916 513.736 451.401 513.35 450.081 511.562C448.765 509.77 449.15 507.253 450.936 505.931C452.731 504.609 455.246 504.995 456.562 506.787Z" fill="#ED1C24"/>
<path d="M492.54 433.506C493.856 435.299 493.471 437.816 491.685 439.138C489.894 440.455 487.38 440.07 486.059 438.282C484.743 436.489 485.129 433.972 486.915 432.65C488.71 431.328 491.224 431.714 492.54 433.506Z" fill="#ED1C24"/>
<path d="M471.042 486.472C472.358 488.265 471.973 490.782 470.187 492.104C468.396 493.421 465.882 493.035 464.561 491.248C463.245 489.455 463.63 486.938 465.416 485.616C467.207 484.294 469.726 484.68 471.042 486.472Z" fill="#ED1C24"/>
<path d="M543.934 457.759C545.25 459.552 544.865 462.069 543.079 463.391C541.288 464.708 538.773 464.323 537.453 462.535C536.137 460.742 536.522 458.225 538.308 456.903C540.099 455.586 542.618 455.972 543.934 457.759Z" fill="#ED1C24"/>
<path d="M513.907 410.105C515.223 411.898 514.837 414.415 513.051 415.737C511.261 417.054 508.746 416.668 507.425 414.88C506.109 413.088 506.495 410.571 508.281 409.249C510.071 407.927 512.591 408.313 513.907 410.105Z" fill="#ED1C24"/>
<path d="M478.821 531.191C480.137 532.983 479.751 535.5 477.965 536.822C476.175 538.139 473.66 537.754 472.339 535.966C471.023 534.173 471.409 531.656 473.195 530.334C474.985 529.012 477.505 529.398 478.821 531.191Z" fill="#ED1C24"/>
<path d="M458.602 542.901C459.918 544.694 459.533 547.211 457.747 548.533C455.956 549.85 453.441 549.464 452.121 547.676C450.805 545.884 451.19 543.367 452.976 542.045C454.767 540.723 457.286 541.108 458.602 542.901Z" fill="#ED1C24"/>
<path d="M515.936 525.644C517.252 527.436 516.867 529.953 515.081 531.275C513.29 532.593 510.775 532.207 509.455 530.419C508.139 528.627 508.524 526.11 510.31 524.788C512.096 523.465 514.62 523.856 515.936 525.644Z" fill="#ED1C24"/>
<path d="M479.967 487.427C479.022 487.789 477.956 487.319 477.594 486.369C477.232 485.423 477.702 484.355 478.651 483.993C479.596 483.63 480.663 484.101 481.025 485.051C481.387 485.997 480.917 487.06 479.967 487.427Z" fill="#ED1C24"/>
<path d="M464.377 504.02C463.433 504.383 462.366 503.912 462.004 502.962C461.642 502.016 462.112 500.948 463.061 500.586C464.006 500.224 465.073 500.694 465.435 501.645C465.797 502.595 465.327 503.658 464.377 504.02Z" fill="#ED1C24"/>
<path d="M443.66 488.156C442.715 488.518 441.648 488.048 441.286 487.098C440.924 486.152 441.394 485.084 442.344 484.722C443.288 484.359 444.355 484.83 444.717 485.78C445.079 486.731 444.609 487.794 443.66 488.156Z" fill="#ED1C24"/>
<path d="M447.509 523.762C446.56 524.124 445.498 523.653 445.136 522.703C444.774 521.757 445.244 520.689 446.193 520.327C447.138 519.965 448.205 520.435 448.567 521.386C448.929 522.331 448.459 523.395 447.509 523.762Z" fill="#ED1C24"/>
<path d="M472.099 516.263C471.154 516.625 470.087 516.154 469.725 515.204C469.364 514.254 469.834 513.19 470.783 512.828C471.728 512.466 472.795 512.936 473.157 513.887C473.518 514.837 473.048 515.9 472.099 516.263Z" fill="#ED1C24"/>
<path d="M461.214 471.106C460.27 471.469 459.203 470.998 458.841 470.048C458.479 469.102 458.949 468.034 459.898 467.672C460.848 467.31 461.91 467.78 462.272 468.73C462.634 469.676 462.159 470.744 461.214 471.106Z" fill="#ED1C24"/>
<path d="M420.328 475.872C419.384 476.234 418.317 475.764 417.955 474.813C417.593 473.868 418.063 472.8 419.012 472.438C419.957 472.075 421.024 472.546 421.386 473.496C421.748 474.442 421.273 475.505 420.328 475.872Z" fill="#ED1C24"/>
<path d="M421.01 503.23C420.065 503.592 418.999 503.122 418.637 502.171C418.275 501.226 418.745 500.158 419.694 499.795C420.639 499.433 421.706 499.904 422.068 500.854C422.43 501.804 421.955 502.868 421.01 503.23Z" fill="#ED1C24"/>
<path d="M671.477 578.628C670.964 580.793 672.299 582.961 674.461 583.474C676.623 583.987 678.79 582.651 679.302 580.487C679.814 578.323 678.48 576.154 676.318 575.641C674.156 575.128 671.989 576.464 671.477 578.628Z" fill="#ED1C24"/>
<path d="M609.752 525.248C609.24 527.413 610.575 529.581 612.737 530.094C614.899 530.607 617.065 529.271 617.578 527.107C618.09 524.943 616.755 522.774 614.593 522.261C612.431 521.748 610.264 523.084 609.752 525.248Z" fill="#ED1C24"/>
<path d="M650.219 565.592C649.707 567.756 651.041 569.925 653.203 570.438C655.365 570.95 657.532 569.614 658.044 567.45C658.557 565.286 657.222 563.117 655.06 562.604C652.898 562.091 650.731 563.428 650.219 565.592Z" fill="#ED1C24"/>
<path d="M571.917 567.676C571.405 569.84 572.74 572.009 574.902 572.522C577.064 573.034 579.23 571.698 579.743 569.534C580.255 567.37 578.92 565.201 576.758 564.688C574.596 564.175 572.429 565.511 571.917 567.676Z" fill="#ED1C24"/>
<path d="M580.95 512.066C580.438 514.23 581.773 516.399 583.935 516.912C586.097 517.425 588.263 516.088 588.776 513.924C589.288 511.76 587.953 509.591 585.791 509.078C583.629 508.561 581.463 509.902 580.95 512.066Z" fill="#ED1C24"/>
<path d="M660.517 609.797C660.004 611.961 661.339 614.13 663.501 614.643C665.663 615.156 667.83 613.82 668.342 611.656C668.854 609.491 667.52 607.323 665.358 606.81C663.196 606.297 661.029 607.633 660.517 609.797Z" fill="#ED1C24"/>
<path d="M683.697 612.672C683.185 614.836 684.52 617.005 686.682 617.518C688.844 618.03 691.011 616.694 691.523 614.53C692.035 612.366 690.7 610.197 688.538 609.684C686.376 609.171 684.21 610.508 683.697 612.672Z" fill="#ED1C24"/>
<path d="M624.186 619.212C623.673 621.376 625.008 623.544 627.17 624.057C629.332 624.57 631.499 623.234 632.011 621.07C632.523 618.906 631.189 616.737 629.027 616.224C626.865 615.711 624.698 617.052 624.186 619.212Z" fill="#ED1C24"/>
<path d="M642.375 569.967C643.39 569.934 644.184 569.083 644.147 568.066C644.114 567.05 643.263 566.255 642.248 566.293C641.233 566.326 640.438 567.177 640.476 568.193C640.509 569.205 641.359 570 642.375 569.967Z" fill="#ED1C24"/>
<path d="M663.206 579.146C664.221 579.113 665.015 578.261 664.978 577.245C664.945 576.229 664.094 575.434 663.079 575.471C662.064 575.504 661.269 576.356 661.307 577.372C661.34 578.384 662.191 579.179 663.206 579.146Z" fill="#ED1C24"/>
<path d="M676.083 556.436C677.098 556.403 677.892 555.552 677.855 554.536C677.822 553.519 676.971 552.724 675.956 552.762C674.941 552.795 674.146 553.646 674.184 554.663C674.217 555.679 675.067 556.474 676.083 556.436Z" fill="#ED1C24"/>
<path d="M686.438 590.715C687.453 590.682 688.248 589.831 688.21 588.815C688.177 587.798 687.326 587.003 686.311 587.041C685.296 587.074 684.502 587.925 684.539 588.942C684.572 589.953 685.423 590.748 686.438 590.715Z" fill="#ED1C24"/>
<path d="M660.875 593.434C661.89 593.401 662.684 592.55 662.647 591.534C662.614 590.518 661.763 589.722 660.748 589.76C659.733 589.793 658.938 590.645 658.976 591.661C659.009 592.672 659.859 593.467 660.875 593.434Z" fill="#ED1C24"/>
<path d="M653.269 547.605C654.284 547.572 655.079 546.721 655.041 545.705C655.008 544.688 654.158 543.893 653.142 543.931C652.127 543.964 651.333 544.815 651.37 545.832C651.403 546.848 652.254 547.643 653.269 547.605Z" fill="#ED1C24"/>
<path d="M692.763 535.999C693.779 535.966 694.573 535.114 694.535 534.098C694.502 533.082 693.652 532.287 692.636 532.325C691.621 532.357 690.827 533.209 690.865 534.225C690.897 535.241 691.748 536.037 692.763 535.999Z" fill="#ED1C24"/>
<path d="M702.816 561.452C703.831 561.419 704.626 560.567 704.588 559.551C704.555 558.535 703.704 557.74 702.689 557.777C701.674 557.81 700.88 558.662 700.917 559.678C700.95 560.694 701.801 561.489 702.816 561.452Z" fill="#ED1C24"/>
<path d="M577.304 489.375C578.728 487.668 578.498 485.127 576.787 483.706C575.081 482.281 572.543 482.511 571.124 484.224C569.7 485.932 569.935 488.472 571.641 489.893C573.347 491.314 575.885 491.083 577.304 489.375Z" fill="#ED1C24"/>
<path d="M608.794 564.698C610.218 562.99 609.988 560.45 608.277 559.029C606.571 557.603 604.033 557.839 602.613 559.546C601.189 561.254 601.42 563.795 603.13 565.216C604.832 566.636 607.37 566.406 608.794 564.698Z" fill="#ED1C24"/>
<path d="M590.53 510.528C591.954 508.82 591.719 506.279 590.013 504.859C588.307 503.433 585.769 503.664 584.35 505.376C582.926 507.084 583.156 509.624 584.867 511.045C586.573 512.466 589.111 512.236 590.53 510.528Z" fill="#ED1C24"/>
<path d="M661.556 543.598C662.98 541.89 662.749 539.349 661.039 537.928C659.333 536.503 656.795 536.733 655.375 538.446C653.951 540.154 654.181 542.694 655.892 544.115C657.594 545.536 660.132 545.305 661.556 543.598Z" fill="#ED1C24"/>
<path d="M628.702 589.346C630.127 587.638 629.896 585.098 628.185 583.677C626.479 582.251 623.941 582.482 622.522 584.194C621.098 585.902 621.333 588.443 623.039 589.864C624.745 591.289 627.283 591.059 628.702 589.346Z" fill="#ED1C24"/>
<path d="M600.996 466.36C602.421 464.652 602.19 462.111 600.479 460.691C598.773 459.265 596.235 459.496 594.816 461.208C593.392 462.916 593.627 465.456 595.333 466.877C597.039 468.303 599.572 468.068 600.996 466.36Z" fill="#ED1C24"/>
<path d="M581.525 453.45C582.949 451.742 582.719 449.202 581.008 447.781C579.302 446.355 576.764 446.586 575.344 448.298C573.92 450.006 574.155 452.547 575.861 453.968C577.563 455.388 580.101 455.158 581.525 453.45Z" fill="#ED1C24"/>
<path d="M637.708 474.141C639.132 472.434 638.897 469.893 637.191 468.472C635.485 467.047 632.947 467.277 631.527 468.99C630.103 470.698 630.334 473.238 632.044 474.659C633.751 476.08 636.284 475.849 637.708 474.141Z" fill="#ED1C24"/>
<path d="M599.502 510.114C598.581 509.69 597.49 510.1 597.067 511.027C596.644 511.949 597.053 513.04 597.979 513.464C598.9 513.887 599.991 513.478 600.414 512.551C600.832 511.624 600.423 510.537 599.502 510.114Z" fill="#ED1C24"/>
<path d="M584.94 492.603C584.019 492.18 582.929 492.589 582.506 493.516C582.083 494.438 582.492 495.529 583.418 495.953C584.339 496.376 585.429 495.967 585.852 495.04C586.27 494.113 585.862 493.027 584.94 492.603Z" fill="#ED1C24"/>
<path d="M563.302 507.183C562.381 506.759 561.29 507.169 560.867 508.095C560.444 509.018 560.853 510.109 561.779 510.533C562.705 510.956 563.791 510.547 564.214 509.62C564.632 508.698 564.223 507.606 563.302 507.183Z" fill="#ED1C24"/>
<path d="M569.295 471.878C568.374 471.455 567.283 471.864 566.86 472.791C566.437 473.713 566.846 474.805 567.772 475.228C568.693 475.652 569.784 475.242 570.207 474.316C570.625 473.393 570.216 472.302 569.295 471.878Z" fill="#ED1C24"/>
<path d="M593.387 480.851C592.465 480.427 591.375 480.837 590.952 481.763C590.529 482.685 590.938 483.777 591.864 484.2C592.785 484.624 593.875 484.214 594.298 483.288C594.717 482.366 594.313 481.274 593.387 480.851Z" fill="#ED1C24"/>
<path d="M579.79 525.268C578.869 524.844 577.778 525.254 577.355 526.18C576.932 527.102 577.341 528.194 578.267 528.617C579.188 529.041 580.279 528.631 580.702 527.705C581.125 526.778 580.716 525.691 579.79 525.268Z" fill="#ED1C24"/>
<path d="M539.267 518.037C538.345 517.613 537.255 518.023 536.832 518.949C536.409 519.872 536.818 520.963 537.744 521.387C538.665 521.81 539.755 521.401 540.178 520.474C540.597 519.547 540.192 518.455 539.267 518.037Z" fill="#ED1C24"/>
<path d="M541.602 490.768C540.681 490.345 539.591 490.754 539.168 491.681C538.745 492.603 539.154 493.694 540.08 494.118C541.001 494.541 542.091 494.132 542.514 493.205C542.933 492.278 542.528 491.187 541.602 490.768Z" fill="#ED1C24"/>
<path d="M627.766 506.787C626.45 508.58 626.836 511.097 628.622 512.419C630.412 513.736 632.927 513.35 634.247 511.562C635.563 509.77 635.178 507.253 633.392 505.931C631.601 504.609 629.082 504.995 627.766 506.787Z" fill="#ED1C24"/>
<path d="M591.789 433.506C590.473 435.299 590.858 437.816 592.644 439.138C594.435 440.455 596.949 440.07 598.27 438.282C599.586 436.489 599.2 433.972 597.414 432.65C595.624 431.328 593.105 431.714 591.789 433.506Z" fill="#ED1C24"/>
<path d="M613.287 486.472C611.971 488.265 612.356 490.782 614.142 492.104C615.933 493.421 618.447 493.035 619.768 491.248C621.084 489.455 620.699 486.938 618.913 485.616C617.122 484.294 614.603 484.68 613.287 486.472Z" fill="#ED1C24"/>
<path d="M540.399 457.759C539.083 459.552 539.468 462.069 541.254 463.391C543.04 464.713 545.56 464.323 546.88 462.535C548.196 460.742 547.811 458.225 546.025 456.903C544.229 455.586 541.715 455.972 540.399 457.759Z" fill="#ED1C24"/>
<path d="M570.422 410.105C569.106 411.898 569.492 414.415 571.278 415.737C573.068 417.054 575.583 416.668 576.904 414.88C578.22 413.088 577.834 410.571 576.048 409.249C574.258 407.927 571.738 408.313 570.422 410.105Z" fill="#ED1C24"/>
<path d="M605.512 531.191C604.196 532.983 604.582 535.5 606.368 536.822C608.158 538.139 610.673 537.754 611.994 535.966C613.31 534.173 612.924 531.656 611.138 530.334C609.343 529.012 606.828 529.398 605.512 531.191Z" fill="#ED1C24"/>
<path d="M632.411 547.34C633.566 545.44 632.963 542.963 631.065 541.807C629.167 540.651 626.692 541.254 625.537 543.154C624.382 545.054 624.984 547.531 626.882 548.688C628.781 549.844 631.256 549.241 632.411 547.34Z" fill="#ED1C24"/>
<path d="M568.397 525.644C567.081 527.436 567.466 529.953 569.252 531.275C571.043 532.593 573.558 532.207 574.878 530.419C576.194 528.627 575.809 526.109 574.023 524.787C572.232 523.47 569.713 523.856 568.397 525.644Z" fill="#ED1C24"/>
<path d="M604.36 487.428C605.305 487.79 606.372 487.319 606.734 486.369C607.096 485.423 606.626 484.355 605.676 483.993C604.731 483.631 603.665 484.101 603.303 485.052C602.941 485.997 603.411 487.061 604.36 487.428Z" fill="#ED1C24"/>
<path d="M619.95 504.021C620.895 504.384 621.962 503.913 622.324 502.963C622.686 502.017 622.216 500.949 621.266 500.587C620.322 500.225 619.255 500.695 618.893 501.646C618.531 502.596 619.006 503.659 619.95 504.021Z" fill="#ED1C24"/>
<path d="M640.667 488.157C641.617 488.519 642.679 488.048 643.041 487.098C643.403 486.152 642.933 485.084 641.983 484.722C641.038 484.36 639.972 484.83 639.61 485.781C639.248 486.731 639.722 487.794 640.667 488.157Z" fill="#ED1C24"/>
<path d="M636.818 523.762C637.762 524.124 638.829 523.654 639.191 522.704C639.553 521.758 639.083 520.69 638.134 520.328C637.189 519.965 636.122 520.436 635.76 521.386C635.398 522.332 635.873 523.395 636.818 523.762Z" fill="#ED1C24"/>
<path d="M612.228 516.263C613.172 516.625 614.239 516.155 614.601 515.204C614.968 514.254 614.493 513.191 613.544 512.829C612.599 512.466 611.532 512.937 611.17 513.887C610.808 514.838 611.283 515.901 612.228 516.263Z" fill="#ED1C24"/>
<path d="M623.118 471.107C624.063 471.469 625.129 470.999 625.491 470.048C625.853 469.103 625.383 468.035 624.434 467.672C623.489 467.31 622.422 467.781 622.06 468.731C621.699 469.677 622.169 470.745 623.118 471.107Z" fill="#ED1C24"/>
<path d="M664.003 475.873C664.952 476.235 666.014 475.765 666.376 474.814C666.738 473.869 666.268 472.801 665.319 472.439C664.374 472.076 663.307 472.547 662.945 473.497C662.583 474.443 663.053 475.506 664.003 475.873Z" fill="#ED1C24"/>
<path d="M663.317 503.231C664.261 503.593 665.328 503.123 665.69 502.172C666.052 501.227 665.582 500.159 664.633 499.796C663.688 499.434 662.621 499.905 662.259 500.855C661.897 501.805 662.372 502.869 663.317 503.231Z" fill="#ED1C24"/>
<path d="M550.461 145.05L538.076 187.275C538.076 187.275 502.84 158.571 489.126 97.0615C489.126 97.0615 473.621 84.4481 461.631 92.1215C449.641 99.7949 436.054 104.824 408.126 95.2972L420.435 87.8873L392.894 68.8331L425.812 61.2114L396.357 48.5322C396.357 48.5322 422.522 49.7978 434.672 39.7296C446.821 29.6615 476.812 32.8419 476.812 32.8419L456.113 18.2478C456.113 18.2478 484.896 23.7665 515.563 18.2478C546.231 12.7292 595.933 -2.09071 625.543 49.7789L621.666 28.2548C621.666 28.2548 634.003 32.8419 632.946 56.4832C632.946 56.4832 648.808 53.3075 656.915 69.8917L638.586 62.8346C638.586 62.8346 659.03 81.5359 660.44 103.413C661.85 125.29 641.406 189.509 628.716 217.032C616.026 244.555 608.271 261.492 608.271 261.492C608.271 261.492 586.416 219.855 581.481 194.449C576.546 169.044 587.121 174.69 578.661 149.99C570.201 125.29 550.461 145.05 550.461 145.05Z" fill="#242638"/>
</g>
<path d="M442 723.5L372 653.5H161.5" stroke="white" stroke-width="2" stroke-linecap="round" stroke-linejoin="round"/>
<path d="M472 219L422.339 149H273" stroke="white" stroke-width="2" stroke-linecap="round" stroke-linejoin="round"/>
<path d="M559 349L477.645 323H233" stroke="white" stroke-width="2" stroke-linecap="round" stroke-linejoin="round"/>
<path d="M765 580H931.5" stroke="white" stroke-width="2" stroke-linecap="round" stroke-linejoin="round"/>
<path d="M781 484H947.5" stroke="white" stroke-width="2" stroke-linecap="round" stroke-linejoin="round"/>
<path d="M723 406H889.5" stroke="white" stroke-width="2" stroke-linecap="round" stroke-linejoin="round"/>
<path d="M614 33H780.5" stroke="white" stroke-width="2" stroke-linecap="round" stroke-linejoin="round"/>
<path d="M576 304H860" stroke="white" stroke-width="2" stroke-linecap="round" stroke-linejoin="round"/>
<path d="M225 518H488" stroke="white" stroke-width="2" stroke-linecap="round" stroke-linejoin="round"/>
<path d="M273 232L466 232" stroke="white" stroke-width="2" stroke-linecap="round" stroke-linejoin="round"/>
<path d="M507 250H778L819 210.5" stroke="white" stroke-width="2" stroke-linecap="round" stroke-linejoin="round"/>
<path d="M484.5 118L444.5 32.5H329.5" stroke="white" stroke-width="2" stroke-linecap="round" stroke-linejoin="round"/>
<path d="M565.5 227.5L681.5 111.5H788.5" stroke="white" stroke-width="2" stroke-linecap="round" stroke-linejoin="round"/>
<defs>
<clipPath id="clip0">
<rect width="615.501" height="1117.24" fill="white" transform="translate(243.749 12)"/>
</clipPath>
</defs>
</svg>
