<?xml version="1.0" encoding="utf-8"?>
<!-- Generator: Adobe Illustrator 25.2.0, SVG Export Plug-In . SVG Version: 6.00 Build 0)  -->
<svg version="1.1" id="Layer_1" xmlns="http://www.w3.org/2000/svg" xmlns:xlink="http://www.w3.org/1999/xlink" x="0px" y="0px"
	 viewBox="0 0 610.3 727" style="enable-background:new 0 0 610.3 727;" xml:space="preserve">
<style type="text/css">
	.st0{clip-path:url(#SVGID_2_);}
	.st1{fill:#EF65AD;}
	.st2{fill:#681156;}
	.st3{fill:#83166B;}
	.st4{fill:#FFFFFF;}
	.st5{fill:#620F5E;}
	.st6{fill:#F26EB0;}
	.st7{fill:#ED1C24;}
	.st8{fill:#242638;}
	.st9{opacity:0.9;fill:#DADADA;fill-opacity:0.3;enable-background:new    ;}
	.st10{fill:#BFF033;}
</style>
<g>
	<defs>
		<rect id="SVGID_1_" x="-5.3" y="12" width="615.5" height="1117.2"/>
	</defs>
	<clipPath id="SVGID_2_">
		<use xlink:href="#SVGID_1_"  style="overflow:visible;"/>
	</clipPath>
	<g class="st0">
		<path class="st1" d="M231.9,310.4c-3.6,3.9-94,28.7-111.6,37.5c-13.4,4.8-27.3,10.4-39,18.7c-12.1,8.6-20.6,21.3-25.3,37.6
			c-3.9,13.7-4.8,27.9-5.2,40c-0.2,6,0,12,0.2,17.7c0.3,7.3,0.5,14.3-0.1,21c-1,11.6-6.7,23.7-9.3,35.3l-0.3,1.5
			c-2.8,12.8-4,35.4-5.3,59.4c-1.3,24.6,0.2,52.5-3.2,65.1c-6.9,25.5-17.7,75.3-21.3,101.2c-3.8,27.3,3.6,155.4,3.6,155.4
			c-0.2,2.6-0.3,5.2-0.4,7.9c-0.4,14.2,2,28.4,1.8,42.6c-0.2,12.1,1.6,24.9-0.1,36.9c-1.7,12.2,5.7,24,9.6,35.5
			c3.7,11,14.3,16.4,25.5,22.1c8,4.1,27.7,17.9,37.2,9.9c6.6-5.5-12.9-24.3-17-29.4c-7.5-9.3-13.8-22.4-9.4-33.8
			c0.6-1.4,1.9-2.3,3.7-2.7c4.4-0.9,4.7-0.7,5.2,3.1c1,6.6,1.9,13.2,2.8,19.8c3.3,13.5,16.1,11.2,19.6,3.5
			c2.1-4.7,1.6-12.6,0.9-16.9c-1.3-8.4-2.6-16.9-3.4-25.4c-0.8-8.7-1.8-17.2-5.8-25.4c-3.4-7-9-13.3-13.9-19.7
			c-5.4-7.2-2.9-16.2-2.2-24.4c0.1-1.2,41.7-112.8,43-122c0.9-6.6,2.2-13.2,3.6-20.2c2.3-11.8,4.7-24,5.2-36.2
			c0.2-4.3,0.1-9.6,0-15.7c-0.3-15.9,3.2-40.7,6.1-51.2c3.1-11.2,8.2-53.6,11.8-64.3c0.4,2.8,0.9,5.3,1.3,7.4
			c6.7,34.3,7.9,122,6.9,153.8c-0.4,5.1-8.8,36.4-12.8,51.4c-1.5,5.7-2.8,10.7-3.8,14.3c-10.7,41.1-8.1,92.1-6.7,119.6l0,0.1
			c1.3,53.7,2,122.2,6.5,187.7h152.5c0-0.6,0.1-1.3,0.1-1.9c3.3-45.6,15.2-133.6,19.9-133.6c5.1,0,18.8,85.8,22.1,130.9
			c0.1,1.5,0.2,3.1,0.3,4.6h150.5c5-65.8,7-135,8.2-189l0-0.1c1.3-25.4,3.8-77.6-6.7-118.3c-0.9-3.6-2.3-8.6-3.8-14.3
			c-4-15-12.4-46.3-12.8-51.4c-1-31.8,0.2-119.5,6.9-153.8c0.4-2.1,0.8-4.6,1.3-7.5c3.2,9.5,8.9,54.8,11.8,64.5
			c3.2,10.4,6.3,35.3,6.1,51.2c-0.1,6.1-0.2,11.4,0,15.7c0.6,12.2,2.9,24.4,5.2,36.2c1.4,7,2.7,13.6,3.6,20.2
			c1.3,9.1,3.5,17.8,6.7,25.8c4.2,10.7,36.2,94.9,36.3,96.1c0.8,8.1,3.3,17.2-2.2,24.4c-4.8,6.4-10.4,12.7-13.9,19.7
			c-4,8.2-5,16.7-5.8,25.4c-0.8,8.5-2.1,16.9-3.4,25.4c-0.7,4.3-1.2,12.2,0.9,16.9c3.4,7.6,16.3,10,19.5-3.5
			c0.9-6.6,1.9-13.2,2.8-19.8c0.5-3.7,0.8-4,5.2-3.1c1.8,0.4,3.1,1.3,3.7,2.7c4.5,11.4-1.8,24.5-9.4,33.8c-4.1,5-23.5,23.8-17,29.4
			c9.5,8.1,29.2-5.8,37.2-9.9c11.1-5.7,21.8-11.1,25.5-22.1c3.9-11.5,11.3-23.3,9.6-35.5c-1.7-11.9,0-24.8-0.1-36.9
			c-0.2-14.2,2.2-28.4,1.8-42.6c-0.1-2.6-0.2-5.2-0.4-7.9c0,0,7.4-128.1,3.6-155.4c-3.6-25.9-14.4-75.7-21.3-101.2
			c-3.4-12.6-1.9-40.5-3.2-65.1c-1.3-24-2.5-46.6-5.3-59.4l-0.3-1.6c-2.6-11.6-8.2-23.6-9.3-35.3c-0.6-6.7-0.3-13.6-0.1-21
			c0.2-5.8,0.4-11.7,0.2-17.7c-0.5-12.2-1.3-26.3-5.2-40c-4.7-16.3-13.2-29-25.3-37.6c-11.7-8.3-25.6-13.9-39-18.7
			c-17.6-8.8-111.5-36.1-121.5-39.7L231.9,310.4z"/>
		<path class="st2" d="M364.5,317.6c4.2,1.4,12.8,4,24.1,7.5c28.9,8.8,82.8,25.3,94.7,31.2l0.5,0.2l0.5,0.2
			c12.7,4.5,25.9,9.8,36.7,17.5c10.3,7.4,17.6,18.3,21.7,32.6c3.7,12.7,4.4,26.1,4.8,37.8c0.2,5.7,0,11.4-0.2,17
			c-0.3,7.6-0.5,14.8,0.1,22.1c0.7,8.1,3.2,15.8,5.6,23.4c1.5,4.6,2.9,8.9,3.8,13.1l0.3,1.6c2.7,12.1,3.9,34.3,5.1,57.9
			c0.5,8.7,0.6,17.8,0.7,26.6c0.2,16.7,0.4,31.2,2.8,40.4c6.8,25.2,17.5,74.4,21,100c3,21.6-1.6,118.2-3.7,153.5l0,0.6l0,0.6
			c0.2,2.9,0.3,5.2,0.4,7.5c0.2,6.9-0.3,13.8-0.9,21.1c-0.5,6.9-1,14.1-0.9,21.3c0.1,4-0.1,8.2-0.3,12.6c-0.3,8.3-0.7,17,0.5,25.5
			c0.9,6.4-2.1,13.6-5.3,21.2c-1.3,3.2-2.7,6.6-3.9,10c-2.3,6.9-9.4,10.9-20.8,16.7c-1.5,0.8-3.2,1.7-5.2,2.8
			c-4.6,2.6-11.7,6.7-17.1,8c0.5-0.7,1-1.4,1.6-2.2c2.7-3.5,5.8-7,8.4-9.8c1.5-1.7,2.7-3,3.6-4.1c11.9-14.7,15.8-30.4,10.8-43.1
			c-1.7-4.4-5.6-7.5-10.6-8.5c-1.6-0.3-3.2-0.6-4.8-0.6c-4.5,0-10.2,2-11.6,11.6l-2.8,19.3c-0.4,1.3-0.8,1.9-1,2.1
			c-0.3-0.1-0.7-0.3-0.8-0.6c-0.7-1.6-1-6.4-0.2-11.5c1.4-9.1,2.7-17.4,3.5-26c0.8-8.5,1.7-15.6,4.9-22.1c2.2-4.4,5.6-8.7,9.2-13.3
			c1.2-1.6,2.5-3.2,3.8-4.8c6.8-9,5.5-19.3,4.5-26.8c-0.2-1.4-0.4-2.8-0.5-4.1c-0.2-1.7-0.2-2.1-17.2-47
			c-8.8-23.3-17.6-46.5-19.7-51.7c-2.9-7.3-4.9-15.3-6.1-23.7c-1-6.8-2.3-13.5-3.7-20.7c-2.2-11.5-4.5-23.3-5.1-34.8
			c-0.2-3.9-0.1-9.1,0-15v-0.1c0.3-16.3-2.8-42.1-6.5-54.1c-1.2-4-3.3-17.4-5.2-29.1c-3-18.6-4.9-30.3-6.7-35.6l-18.2,1.6
			c-0.4,2.9-0.9,5.3-1.2,7.2c-7.1,36.5-7.9,127.4-7.1,155.8l0,0.2l0,0.2c0.3,4.3,3.9,18.7,13.1,53.1l0.2,0.6
			c1.5,5.5,2.7,10.2,3.6,13.7c10.2,39.4,7.7,90.8,6.5,115.5l0,0.1l0,0.3c-1.2,51.1-3.1,117.1-7.6,179.8h-133
			c-1.8-21.5-5.7-51.9-10.2-79.1c-9-54.3-12.7-56.4-21-56.4c-9.4,0-11.5,10.2-13.9,22c-1.8,8.7-3.8,21.1-6,35.8
			c-3.7,26-7.1,55.6-9,77.7h-135c-3.2-50.1-4.3-101.3-5.2-146.7c-0.2-11.1-0.5-21.7-0.7-31.8l0-0.3l0-0.2
			c-1.4-26.9-3.9-76.9,6.4-116.8c0.9-3.5,2.2-8.3,3.7-13.8l0.1-0.4c9.2-34.4,12.7-48.8,13.1-53.1l0-0.2l0-0.2
			c0.9-28.4,0-119.3-7.1-155.8c-0.4-1.8-0.8-4.2-1.2-7l-18.2-1.6c-2.1,6.2-4.2,18.8-7.1,37.4c-1.8,11.2-3.6,22.9-4.9,27.4
			c-3.2,11.8-6.7,37.3-6.4,53.9c0.1,6,0.2,11.1,0,15.1c-0.5,11.5-2.8,23.3-5.1,34.8c-1.4,7.1-2.7,13.8-3.7,20.6
			c-1.4,7.2-24.2,69.8-34,96.6c-8.9,24.3-8.9,24.3-9,25.9c-0.1,1.3-0.3,2.6-0.5,4.1c-1,7.5-2.3,17.9,4.5,26.8
			c1.2,1.6,2.5,3.3,3.8,4.8c3.6,4.6,7,8.9,9.2,13.3c3.2,6.6,4.1,13.6,4.9,22.1c0.8,8.5,2.1,16.8,3.5,25.9c0.8,5.1,0.5,10-0.2,11.5
			c-0.1,0.3-0.5,0.5-0.8,0.6c-0.2-0.2-0.6-0.8-1-2.1c-0.6-4.3-2.8-19.3-2.8-19.3c-1.4-9.6-7-11.6-11.6-11.6c-1.6,0-3.2,0.3-4.8,0.6
			c-5,1-8.9,4.1-10.6,8.5c-5,12.8-1,28.5,10.8,43.1c0.9,1.1,2.1,2.4,3.6,4.1c2.5,2.8,5.7,6.3,8.4,9.8c0.6,0.8,1.2,1.5,1.6,2.2
			c-5.4-1.4-12.5-5.4-17.1-8c-2-1.1-3.6-2.1-5.2-2.8c-11.4-5.8-18.5-9.8-20.8-16.7c-1.1-3.4-2.5-6.8-3.9-10
			c-3.2-7.6-6.2-14.8-5.3-21.2c1.2-8.5,0.9-17.2,0.5-25.5c-0.2-4.4-0.4-8.5-0.3-12.6c0.1-7.3-0.4-14.4-0.9-21.3
			c-0.5-7.3-1-14.2-0.9-21.1c0.1-2.2,0.2-4.6,0.4-7.5l0-0.6l0-0.6c-2-35.4-6.7-131.9-3.7-153.5c3.6-25.6,14.3-74.8,21-100
			c2.5-9.2,2.6-23.7,2.8-40.4c0.1-8.8,0.2-18,0.7-26.6c1.3-23.6,2.5-45.8,5.1-57.9l0.3-1.5c0.9-4.2,2.3-8.5,3.8-13.1
			c2.4-7.5,4.9-15.3,5.6-23.4c0.7-7.3,0.4-14.5,0.1-22.1c-0.2-5.6-0.4-11.4-0.2-17c0.4-11.6,1.2-25.1,4.8-37.8
			c4.1-14.2,11.4-25.2,21.7-32.6c10.8-7.7,24-13,36.7-17.5l0.5-0.2l0.5-0.2c8.5-4.2,38.7-13.6,63-21c30.5-9.4,41.9-13.1,47-15.5"/>
		<path class="st1" d="M366,308.2c10.1,3.6,103.9,30.9,121.5,39.7c13.4,4.8,27.3,10.4,39,18.7c12.1,8.6,20.6,21.3,25.3,37.6
			c3.9,13.7,4.8,27.9,5.2,40c0.2,6,0,12-0.2,17.7c-0.3,7.3-0.5,14.3,0.1,21c1,11.6,6.7,23.7,9.3,35.3l0.3,1.6
			c2.8,12.8,4,35.4,5.3,59.4c1.3,24.6-0.2,52.5,3.2,65.1c6.9,25.5,17.7,75.3,21.3,101.2c3.8,27.3-3.6,155.4-3.6,155.4
			c0.2,2.6,0.3,5.2,0.4,7.9c0.4,14.2-2,28.4-1.8,42.6c0.2,12.1-1.6,24.9,0.1,36.9c1.7,12.2-5.7,24-9.6,35.5
			c-3.7,11-14.3,16.4-25.5,22.1c-8,4.1-27.7,17.9-37.2,9.9c-6.6-5.5,12.9-24.3,17-29.4c7.5-9.3,13.8-22.4,9.4-33.8
			c-0.6-1.4-1.9-2.3-3.7-2.7c-4.4-0.9-4.7-0.7-5.2,3.1c-1,6.6-1.9,13.2-2.8,19.8c-3.3,13.5-16.1,11.2-19.5,3.5
			c-2.1-4.7-1.6-12.6-0.9-16.9c1.3-8.4,2.6-16.9,3.4-25.4c0.8-8.7,1.8-17.2,5.8-25.4c3.4-7,9-13.3,13.9-19.7
			c5.4-7.2,2.9-16.2,2.2-24.4c-0.1-1.2-32.1-85.4-36.3-96.1c-3.2-8-5.4-16.7-6.7-25.8c-0.9-6.6-2.2-13.2-3.6-20.2
			c-2.3-11.8-4.7-24-5.2-36.2c-0.2-4.3-0.1-9.6,0-15.7c0.3-15.9-2.9-40.8-6.1-51.2c-3-9.7-8.6-54.9-11.8-64.5
			c-0.4,2.9-0.9,5.5-1.3,7.5c-6.7,34.3-7.9,122-6.9,153.8c0.4,5.1,8.7,36.4,12.8,51.4c1.5,5.7,2.9,10.7,3.8,14.3
			c10.5,40.7,8,92.9,6.7,118.3l0,0.1c-1.2,54.1-3.2,123.2-8.2,189H325.3c-0.1-1.5-0.2-3.1-0.3-4.6c-3.3-45.1-17-130.9-22.1-130.9
			c-4.8,0-16.7,88-19.9,133.6c0,0.7-0.1,1.3-0.1,1.9H130.3c-4.5-65.4-5.2-134-6.5-187.7l0-0.1c-1.4-27.5-3.9-78.5,6.7-119.6
			c0.9-3.6,2.3-8.5,3.8-14.3c4-15.1,12.4-46.3,12.8-51.4c1-31.8-0.2-119.5-6.9-153.8c-0.4-2-0.8-4.5-1.3-7.4
			c-3.7,10.7-8.7,53.1-11.8,64.3c-2.9,10.5-6.3,35.3-6.1,51.2c0.1,6.1,0.2,11.4,0,15.7c-0.6,12.2-2.9,24.4-5.2,36.2
			c-1.4,7-2.7,13.6-3.6,20.2c-1.3,9.1-42.9,120.7-43,122c-0.7,8.1-3.3,17.2,2.2,24.4c4.8,6.4,10.4,12.7,13.9,19.7
			c4,8.2,5,16.7,5.8,25.4c0.8,8.5,2.1,16.9,3.5,25.4c0.7,4.3,1.2,12.2-0.9,16.9c-3.4,7.6-16.3,10-19.6-3.5
			c-0.9-6.6-1.9-13.2-2.8-19.8c-0.5-3.7-0.8-4-5.2-3.1c-1.8,0.4-3.1,1.3-3.7,2.7c-4.5,11.4,1.8,24.5,9.4,33.8
			c4.1,5,23.5,23.8,17,29.4c-9.5,8-29.2-5.8-37.2-9.9c-11.1-5.7-21.8-11.1-25.5-22.1c-3.9-11.5-11.3-23.3-9.6-35.5
			c1.7-11.9-0.1-24.8,0.1-36.9c0.2-14.2-2.2-28.4-1.8-42.6c0.1-2.6,0.2-5.2,0.4-7.9c0,0-7.4-128.1-3.6-155.4
			c3.6-25.9,14.4-75.7,21.3-101.2c3.4-12.6,1.9-40.5,3.2-65.1c1.3-24,2.5-46.6,5.3-59.4l0.3-1.5c2.6-11.6,8.2-23.7,9.3-35.3
			c0.6-6.7,0.3-13.6,0.1-21c-0.2-5.8-0.4-11.7-0.2-17.7c0.5-12.2,1.3-26.3,5.2-40c4.7-16.3,13.2-29,25.3-37.6
			c11.7-8.3,25.6-13.9,39-18.7c17.6-8.8,108.1-33.6,111.6-37.5L366,308.2z"/>
		<path class="st2" d="M334.1,1119.8c-1.8-21.5-5.7-51.9-10.2-79.1c-9-54.2-12.7-56.4-21-56.4c-9.4,0-11.5,10.2-13.9,22
			c-1.8,8.7-3.8,21.1-6,35.8c-3.7,26-7.1,55.6-9,77.7h-135c-3.2-50.1-4.3-101.3-5.2-146.7c-0.2-11.1-0.5-21.7-0.7-31.8l0-0.3l0-0.2
			c-1.4-26.9-3.9-76.9,6.4-116.8c0.9-3.5,2.2-8.3,3.7-13.8l0.1-0.4c9.2-34.4,12.7-48.8,13.1-53.1l0-0.2l0-0.2
			c0.9-28.4,0-119.3-7.1-155.8c-0.4-1.8-0.8-4.2-1.2-7l-7.4-27.2c-2.1,6.2-15,44.4-17.9,63.1c-1.8,11.2-3.6,22.9-4.9,27.4
			c-3.2,11.8-6.7,37.3-6.4,53.9c0.1,6,0.2,11.1,0,15.1c-0.5,11.5-2.8,23.3-5.1,34.8c-1.4,7.1-2.7,13.8-3.7,20.6
			c-1.4,7.2-24.2,69.8-34,96.6c-8.9,24.3-8.9,24.3-9,25.9c-0.1,1.3-0.3,2.6-0.5,4.1c-1,7.5-2.3,17.9,4.5,26.8
			c1.2,1.6,2.5,3.3,3.8,4.8c3.6,4.6,7,8.9,9.2,13.3c3.2,6.6,4.1,13.6,4.9,22.1c0.8,8.5,2.1,16.8,3.5,26c0.8,5.1,0.5,10-0.2,11.5
			c-0.1,0.3-0.5,0.5-0.8,0.6c-0.2-0.2-0.6-0.8-1-2.1c-0.6-4.3-2.8-19.3-2.8-19.3c-1.4-9.6-7-11.6-11.6-11.6c-1.6,0-3.2,0.3-4.8,0.6
			c-5,1-8.9,4.1-10.6,8.5c-5,12.7-1,28.5,10.8,43.1c0.9,1.1,2.1,2.4,3.6,4.1c2.5,2.8,5.7,6.3,8.4,9.8c0.6,0.8,1.2,1.5,1.6,2.2
			c-5.4-1.3-12.5-5.4-17.1-8c-2-1.1-3.6-2.1-5.2-2.8c-11.4-5.8-18.5-9.8-20.8-16.7c-1.1-3.4-2.5-6.8-3.9-10
			c-3.2-7.6-6.2-14.8-5.3-21.2c1.2-8.5,0.9-17.2,0.5-25.5c-0.2-4.4-0.4-8.5-0.3-12.6c0.1-7.3-0.4-14.4-0.9-21.3
			c-0.5-7.3-1-14.2-0.9-21.1c0.1-2.2,0.2-4.6,0.4-7.5l0-0.6l0-0.6c-2-35.4-6.7-131.9-3.7-153.5c3.6-25.6,14.3-74.8,21-100
			c2.5-9.2,2.6-23.7,2.8-40.4c0.1-8.8,0.2-18,0.7-26.6c1.3-23.6,2.5-45.8,5.1-57.9l0.3-1.5c0.9-4.2,2.3-8.5,3.8-13.1
			c2.4-7.5,4.9-15.3,5.6-23.4c0.7-7.3,0.4-14.5,0.1-22.2c-0.2-5.6-0.4-11.4-0.2-17c0.4-11.6,1.2-25.1,4.8-37.8
			c4.1-14.2,11.4-25.2,21.7-32.6c10.8-7.7,24-13,36.7-17.5l0.5-0.2l0.5-0.2c8.5-4.2,38.7-13.6,63-21c30.5-9.4,41.9-13.1,47-15.5
			l130-2.1c4.2,1.4,12.8,4,24.1,7.5c28.9,8.8,82.8,25.3,94.7,31.2l0.5,0.2l0.5,0.2c12.7,4.5,25.9,9.8,36.7,17.5
			c10.3,7.4,17.6,18.3,21.7,32.6c3.7,12.7,4.4,26.1,4.8,37.8c0.2,5.7,0,11.4-0.2,17c-0.3,7.6-0.5,14.8,0.1,22.1
			c0.7,8.1,3.2,15.8,5.6,23.4c1.5,4.6,2.9,8.9,3.8,13.1l0.3,1.6c2.7,12.1,3.9,34.3,5.1,57.9c0.5,8.7,0.6,17.8,0.7,26.6
			c0.2,16.7,0.4,31.2,2.8,40.4c6.8,25.2,17.5,74.4,21,100c3,21.6-1.6,118.2-3.7,153.5l0,0.6l0,0.6c0.2,2.9,0.3,5.2,0.4,7.5
			c0.2,6.9-0.3,13.8-0.9,21.1c-0.5,6.9-1,14.1-0.9,21.3c0.1,4-0.1,8.2-0.3,12.6c-0.3,8.3-0.7,17,0.5,25.5c0.9,6.4-2.1,13.6-5.3,21.2
			c-1.3,3.2-2.7,6.6-3.9,10c-2.3,6.9-9.4,10.9-20.8,16.7c-1.5,0.8-3.2,1.7-5.2,2.8c-4.6,2.6-11.7,6.7-17.1,8c0.5-0.7,1-1.4,1.6-2.2
			c2.7-3.5,5.8-7,8.4-9.8c1.5-1.7,2.7-3,3.6-4.1c11.9-14.6,15.8-30.4,10.8-43.1c-1.7-4.4-5.6-7.5-10.6-8.5c-1.6-0.3-3.2-0.6-4.8-0.6
			c-4.5,0-10.2,2-11.6,11.6l-2.8,19.3c-0.4,1.3-0.8,1.9-1,2.1c-0.3-0.1-0.7-0.3-0.8-0.6c-0.7-1.6-1-6.4-0.2-11.5
			c1.4-9.1,2.7-17.4,3.5-26c0.8-8.5,1.7-15.6,4.9-22.1c2.2-4.4,5.6-8.7,9.2-13.3c1.2-1.6,2.5-3.2,3.8-4.8c6.8-9,5.5-19.3,4.5-26.8
			c-0.2-1.4-0.4-2.8-0.5-4.1c-0.2-1.7-0.2-2.1-17.2-47c-8.8-23.3-17.6-46.5-19.7-51.7c-2.9-7.3-4.9-15.3-6.1-23.7
			c-1-6.8-2.3-13.5-3.7-20.7c-2.2-11.5-4.5-23.3-5.1-34.8c-0.2-3.9-0.1-9.1,0-15v-0.1c0.3-16.3-2.8-42.1-6.5-54.1
			c-1.2-4-3.3-17.4-5.2-29.1c-3-18.6-14.2-55.5-16-60.9l-8.9,26.8c-0.4,2.9-0.9,5.3-1.2,7.2c-7.1,36.5-7.9,127.4-7.1,155.8l0,0.2
			l0,0.2c0.3,4.3,3.9,18.7,13.1,53.1l0.2,0.6c1.5,5.5,2.7,10.2,3.6,13.7c10.2,39.4,7.7,90.8,6.5,115.5l0,0.1l0,0.3
			c-1.2,51.1-3.1,117.1-7.6,179.8L334.1,1119.8L334.1,1119.8z"/>
		<path class="st3" d="M346.9,1105.7c-2.1-20.3-5.4-44.9-9.1-67.3c-8-48.5-12.2-68.2-34.9-68.2c-5.6,0-16,1.9-22.2,14.4
			c-2.8,5.7-4.1,12.1-5.5,18.9c-1.8,9-4,21.7-6.1,36.6c-3.1,21.3-5.9,45.3-7.9,65.6H152.4c-2.6-45.6-3.5-91.7-4.4-132.9v-0.1
			c-0.2-11.1-0.5-21.6-0.7-31.6l0-0.5l0-0.4c-1.3-26.1-3.8-74.8,6-112.5c0.9-3.4,2.1-8,3.5-13.4l0.2-0.7
			c11-41.2,13.1-50.8,13.5-55.7l0-0.6l0-0.6c0.9-29.8,0.1-120.8-7.3-159c-0.3-1.6-0.7-3.8-1.1-6.5l-0.1-0.8l-19.7-72.4l-14.9,43.6
			c-2.5,7.4-15.4,45.6-18.5,65.4c-1.6,9.9-3.5,22.1-4.5,25.9c-3.5,12.7-7.2,39.6-6.9,57.9c0.1,5.7,0.2,10.7,0,14.2
			c-0.5,10.5-2.7,21.8-4.8,32.8c-1.4,7.1-2.7,13.8-3.7,20.8c-1.4,5.8-12.7,37.5-33.4,94.3c-9.5,26.1-9.5,26.1-9.8,29.5
			c-0.1,1-0.2,2.2-0.4,3.5c-1.1,8.8-3,23.6,7.2,37.2c1.3,1.8,2.6,3.4,3.9,5l0,0c3.1,4,6.1,7.7,7.6,10.8c1,2.1,1.7,4.4,2.2,7.1
			c-1.9,0.2-3.5,0.5-5,0.8c-9.6,1.9-17.4,8.4-20.9,17.1c0.4-7.2,0.1-14.1-0.1-20.5c-0.2-4.2-0.3-8.2-0.3-11.8
			c0.1-7.9-0.4-15.3-1-22.6c-0.5-7-1-13.5-0.8-19.7c0.1-2,0.2-4.2,0.4-6.9l0.1-1.5l-0.1-1.5c-2.8-48.6-6.3-132.6-3.8-150.8
			c3.5-25.1,14-73.5,20.7-98.3c2.9-10.9,3.1-26.2,3.3-43.9c0.1-8.7,0.2-17.7,0.7-26c1.2-22,2.4-44.7,4.8-55.6l0.3-1.5
			c0.8-3.5,2.1-7.6,3.5-11.8c2.5-7.9,5.4-16.8,6.3-26.5c0.7-8.2,0.5-15.8,0.2-23.9c-0.2-5.3-0.4-10.9-0.2-16
			c0.4-10.8,1.1-23.2,4.3-34.4c3.2-11.1,8.7-19.5,16.3-25c9.4-6.7,21.5-11.5,33.2-15.7l1.3-0.5l1.3-0.6c7.5-3.7,39.6-13.6,60.9-20.2
			c26.9-8.3,39.1-12.2,45.9-14.9l124.9-2c4.7,1.5,12.2,3.8,22.1,6.8c24.5,7.5,81.7,24.9,92.6,30.4l1.3,0.6l1.3,0.5
			c11.7,4.2,23.8,9,33.2,15.7c7.7,5.5,13.2,13.9,16.4,25c3.2,11.2,3.9,23.6,4.3,34.4c0.2,5.1,0,10.7-0.2,16
			c-0.3,7.7-0.6,15.7,0.2,23.9c0.9,9.6,3.7,18.6,6.3,26.4c1.4,4.3,2.7,8.3,3.5,11.9l0.3,1.6c2.4,10.9,3.6,33.6,4.8,55.6
			c0.5,8.4,0.6,17.3,0.7,26c0.2,17.7,0.4,33,3.3,43.9c6.7,24.9,17.2,73.2,20.7,98.3c2.5,18.2-1,102.1-3.8,150.8l-0.1,1.5l0.1,1.5
			c0.2,2.7,0.3,4.9,0.4,6.9c0.2,6.2-0.3,12.8-0.8,19.7c-0.5,7.2-1.1,14.7-1,22.5c0,3.6-0.1,7.6-0.3,11.8c-0.3,6.4-0.6,13.3-0.1,20.5
			c-3.5-8.8-11.3-15.2-20.9-17.1c-1.5-0.3-3.1-0.6-5-0.8c0.5-2.6,1.2-5,2.2-7.1c1.5-3.1,4.5-6.8,7.6-10.8c1.3-1.6,2.6-3.3,3.9-5.1
			c10.2-13.6,8.4-28.3,7.2-37.1c-0.2-1.3-0.3-2.5-0.4-3.6c-0.4-4-0.4-4-18-50.7c-8.8-23.3-17.7-46.6-19.8-51.9
			c-2.5-6.3-4.3-13.2-5.3-20.5c-1-7.2-2.4-14.1-3.8-21.4c-2.1-11-4.3-22.3-4.8-32.8c-0.2-3.5-0.1-8.4,0-14.1l0-0.2
			c0.3-17.7-3-45.1-7.1-58.4c-0.9-3.1-3.3-18.2-4.8-27.2c-3.1-19.4-14.4-57-16.5-63.2l-13.4-39.9L445.8,590l-0.2,1.2
			c-0.4,2.7-0.8,4.9-1.1,6.6c-7.4,38.1-8.2,129.2-7.3,159l0,0.6l0,0.5c0.4,4.9,2.5,14.5,13.5,55.7l0.2,0.6
			c1.4,5.2,2.7,10.1,3.6,13.6c9.7,37.3,7.2,87.2,6,111.2l0,0.4l0,0.5c-1.1,47-2.8,107.3-6.6,166H346.9z"/>
		<path class="st2" d="M247.5,326.6v-48.3c0,0-39.6-5.1-41.7-25.1c-2.1-20,1.3-16.3,1.3-16.3l-7.2-11.4l-3.2-4.2l-13.4-10.7
			l12.6-34.5c0,0-20-88.3,19.5-107.4c39.5-19.1,172,53.4,171.8,71.9c-0.2,18.6-19.6,82.8-22,84c-2.5,1.2-6.7,23.8-6.2,25.7
			c0.5,2,7.9,72.4,7.9,72.4L247.5,326.6z"/>
		<path class="st3" d="M351.4,327.8c-2.5-23.6-5.5-69.9-6.1-74.4c-0.5-2.1-0.8-6.1,2-19c1.8-8.5,3.6-14.3,6.6-18.1
			c4.1-10,17.7-56.5,19.2-73.2c-4.7-5.7-23.8-20.3-56.4-36.5c-33.8-16.8-65.4-26.8-84.4-26.8c-5.9,0-9.1,1-10.8,1.8
			c-14.4,7-16.6,32.8-16.6,47.7c0,22.7,4.7,43.7,4.7,43.9l0.9,4.1L200.1,206l6.8,5.4l4.7,6.1l7.5,12l-22.4,17
			c2.5,2.8,6.1,4.4,9.9,4.4c8,0,12.3-6.5,12.8-9.7c0,0.1-0.3,2.5,0.5,10.7c0.1,0.9,2.5,4.5,12.1,8.1c8.6,3.2,17.3,4.4,17.3,4.4
			l12.3,1.6l1,64.7c0,0-55,12-95.2,25.4c-40.2,13.4-64.9,25.4-64.9,25.4h404C506.6,381.5,432.4,348.3,351.4,327.8z"/>
		<path class="st1" d="M372,320c1.5-22.3-10.4-47.1-8.8-70.2c1.9-28.7,4.6-58.2,17.1-84.1c3.8-7.9,8.6-16.2,7.1-24.9
			c-2.1-11.6-15.1-18.1-26.8-18.6c-11.7-0.6-23.4,2.9-35.1,2.8c-33.6-0.3-59.4-28.7-89.5-43.7c-15.5-7.7,6.2-10.4-8.5-19.7
			c-1.7-1.1-20-48.4-36.6,43.8c-4,22.1-2.6,45.1,0.8,68.1c-0.1,0.3-16,38.6-14.7,42c1.4,3.4,17,7.9,17,7.9l-2.8,9.9l10.6,5.3
			c0,0-7.6,6.9-7.1,7.4c0.5,0.5,7.1,4.8,7.1,4.8s1.8,22.3,11.7,27.2c8,3.9,24,4.6,30,4.7c-0.8,20.1-3.6,16.6-4.4,36.7h10.4l3.8-45.9
			l-9.6-0.2c-11.6-0.2-21.8-1.7-26-3.7c-0.7-0.3-2.8-2.6-4.6-9.2c-1.5-5.3-1.9-10.3-1.9-10.3l-0.4-4.6l-1.5-1l9-8.1l-16-8l3.2-11.4
			l-9-2.6c-3.2-0.9-6.6-2.1-9.2-3.2c2.3-7.4,7.9-21.8,12.9-34l1-2.4l-0.4-2.6c-3.8-26.2-4.1-46.9-0.8-65.1
			c6.1-34,11.9-44.9,14.4-48.1c0.8,1,2,2.7,3.6,5.5c1.1,1.9,2,3.6,4,4.9c-1.1,2.3-2.2,5.7-1,9.7c1.7,5.7,6.9,8.8,10.6,10.7
			c9.4,4.6,18.3,10.7,27.7,17c19.9,13.5,40.5,27.4,65.9,27.6c0.2,0,0.5,0,0.7,0c6,0,11.7-0.8,17.2-1.5c5.1-0.7,10-1.4,14.7-1.4
			c0.7,0,1.5,0,2.2,0.1c7.9,0.4,16.9,4.6,18,10.9c0.9,4.6-2,10.3-4.9,16.3c-0.5,0.9-0.9,1.8-1.3,2.7c-13,26.9-15.9,56.8-18,87.6
			c-0.9,12.8,1.5,25.4,3.7,37.5c0,0,3.6,16.4,3.8,30.8L372,320z"/>
		<path class="st4" d="M207.1,157.5c0,0-4.1,9.9,2.5,16.9l14.5-8.7L207.1,157.5z"/>
		<path d="M203.2,155.8l19.6,10l-13.3,8.6l16.6-8.6L203.2,155.8z"/>
		<path d="M196.7,145.1c0,0,4.8-8.8,40.3-3.5C237,141.6,201.3,121.3,196.7,145.1z"/>
		<path class="st5" d="M296.4,456.2c0,0,2-176.9,0.7-209.1c-19.2,0.1-48.2,0.3-82.2,0.5c-7,0.1-8.6-14.3,0-14.4
			c22.8-0.2,33-0.2,55.4-0.4l-46.2-12.4h-24c-3.8,0-6.9-3.1-6.9-6.9c0-3.8,3.1-6.9,6.9-6.9h25.4c1,0,1.9,0.2,2.8,0.6
			c0,0,79.2,26.3,80.4,27.5c2.2,2.3,2.4,4.9,2.6,9.6c0.2,3,0.3,7.4,0.4,13c0.2,7.9-0.5,198.8-0.5,198.8L296.4,456.2L296.4,456.2z"/>
		<path class="st5" d="M157.8,552.2c6.6-41.4,19.5-84.7,50.8-115.1c12.1-11.7,35.6-31.4,53.8-30.5c19.4-3.2,21.4,33.8,22.5,44.1
			c3.6-2.8,7.2-5.7,10.8-8.5c0.2-39.3,0.4-76.7,0.4-109.6h16.1c0.1,57,0.1,107,0.1,107.6c3.6,2.8,7.3,5.7,10.9,8.5
			c1.2-13.1,3.4-46.9,25.1-42.3c32.9,2.2,65.8,41.4,78.6,68.7c25.9,51,32.5,117.1,16.4,171.7c-51.1-4.7-89.1-5.9-106.9-59.6
			c-10.8-32.7-13.6-83.2-12.3-117.3c-6.5-5.1-12.8-10.4-19.2-15.5c-6.7,5.3-13.5,10.7-20.2,16c1.5,33.8-0.4,64.8-27.8,87
			c-36.3,29.4,11.5,76.3-92.9,90.7c-6.1-20.9-8.7-43.3-8.4-65.5C155.8,572.4,156.5,562.2,157.8,552.2z"/>
		<path class="st6" d="M284.9,450.7c-1-10.3-3.1-47.2-22.5-44.1c-18.2-0.9-41.8,18.8-53.8,30.5c-31.3,30.4-44.3,73.7-50.8,115.1
			c-1.3,10-2,20.2-2.2,30.4c-0.3,22.2,2.3,44.6,8.4,65.5c104.4-14.4,56.6-61.3,92.9-90.7c27.3-22.1,29.3-53.2,27.8-87l0.8-20.2
			C285.3,450.4,285.1,450.6,284.9,450.7z"/>
		<path class="st6" d="M348.5,406.4c-21.8-4.6-23.9,29.2-25.1,42.3l0.9,21.2c-1.3,34,1.5,84.5,12.3,117.3
			c17.8,53.7,55.8,54.9,106.9,59.6c16.2-54.6,9.6-120.6-16.4-171.7C414.3,447.8,381.4,408.6,348.5,406.4z"/>
		<path class="st7" d="M160,583.6c2.2,0,4-1.8,4-4.1c0-2.2-1.8-4-4.1-4c-2.2,0-4,1.8-4,4.1C155.9,581.8,157.8,583.6,160,583.6z"/>
		<path class="st7" d="M225.6,525.2c0.5,2.2-0.8,4.3-3,4.8c-2.2,0.5-4.3-0.8-4.8-3s0.8-4.3,3-4.8
			C222.9,521.7,225.1,523.1,225.6,525.2z"/>
		<path class="st7" d="M185.1,565.6c0.5,2.2-0.8,4.3-3,4.8c-2.2,0.5-4.3-0.8-4.8-3s0.8-4.3,3-4.8
			C182.4,562.1,184.6,563.4,185.1,565.6z"/>
		<path class="st7" d="M262.6,571.2c1.4-1.7,1.1-4.3-0.6-5.7c-1.7-1.4-4.3-1.1-5.7,0.6c-1.4,1.7-1.1,4.3,0.6,5.7
			C258.7,573.2,261.2,572.9,262.6,571.2z"/>
		<path class="st7" d="M254.4,512.1c0.5,2.2-0.8,4.3-3,4.8c-2.2,0.5-4.3-0.8-4.8-3c-0.5-2.2,0.8-4.3,3-4.8
			C251.7,508.6,253.9,509.9,254.4,512.1z"/>
		<path class="st7" d="M172.5,614.4c2-0.9,3-3.3,2.1-5.3s-3.2-3-5.3-2.1c-2,0.9-3,3.3-2.1,5.3C168.1,614.4,170.5,615.3,172.5,614.4z
			"/>
		<path class="st7" d="M151.6,612.7c0.5,2.2-0.8,4.3-3,4.8c-2.2,0.5-4.3-0.8-4.8-3c-0.5-2.2,0.8-4.3,3-4.8
			C149,609.2,151.1,610.5,151.6,612.7z"/>
		<path class="st7" d="M211.1,619.2c0.5,2.2-0.8,4.3-3,4.8c-2.2,0.5-4.3-0.8-4.8-3c-0.5-2.2,0.8-4.3,3-4.8S210.6,617.1,211.1,619.2z
			"/>
		<path class="st7" d="M193,570c-1,0-1.8-0.9-1.8-1.9c0-1,0.9-1.8,1.9-1.8c1,0,1.8,0.9,1.8,1.9C194.8,569.2,194,570,193,570z"/>
		<path class="st7" d="M172.1,579.1c-1,0-1.8-0.9-1.8-1.9c0-1,0.9-1.8,1.9-1.8c1,0,1.8,0.9,1.8,1.9
			C174,578.4,173.1,579.2,172.1,579.1z"/>
		<path class="st7" d="M159.2,556.4c-1,0-1.8-0.9-1.8-1.9c0-1,0.9-1.8,1.9-1.8c1,0,1.8,0.9,1.8,1.9
			C161.1,555.7,160.3,556.5,159.2,556.4z"/>
		<path class="st7" d="M148.9,590.7c-1,0-1.8-0.9-1.8-1.9c0-1,0.9-1.8,1.9-1.8c1,0,1.8,0.9,1.8,1.9
			C150.8,590,149.9,590.7,148.9,590.7z"/>
		<path class="st7" d="M174.5,593.4c-1,0-1.8-0.9-1.8-1.9c0-1,0.9-1.8,1.9-1.8c1,0,1.8,0.9,1.8,1.9
			C176.3,592.7,175.5,593.5,174.5,593.4z"/>
		<path class="st7" d="M182.1,547.6c-1,0-1.8-0.9-1.8-1.9c0-1,0.9-1.8,1.9-1.8c1,0,1.8,0.9,1.8,1.9
			C183.9,546.8,183.1,547.6,182.1,547.6z"/>
		<path class="st7" d="M142.6,536c-1,0-1.8-0.9-1.8-1.9c0-1,0.9-1.8,1.9-1.8c1,0,1.8,0.9,1.8,1.9C144.4,535.2,143.6,536,142.6,536z"
			/>
		<path class="st7" d="M132.5,561.5c-1,0-1.8-0.9-1.8-1.9c0-1,0.9-1.8,1.9-1.8c1,0,1.8,0.9,1.8,1.9
			C134.4,560.7,133.5,561.5,132.5,561.5z"/>
		<path class="st7" d="M258,489.4c-1.4-1.7-1.2-4.2,0.5-5.7c1.7-1.4,4.2-1.2,5.7,0.5c1.4,1.7,1.2,4.2-0.5,5.7
			C262,491.3,259.5,491.1,258,489.4z"/>
		<path class="st7" d="M226.5,564.7c-1.4-1.7-1.2-4.2,0.5-5.7c1.7-1.4,4.2-1.2,5.7,0.5c1.4,1.7,1.2,4.2-0.5,5.7
			C230.5,566.6,228,566.4,226.5,564.7z"/>
		<path class="st7" d="M244.8,510.5c-1.4-1.7-1.2-4.2,0.5-5.7c1.7-1.4,4.2-1.2,5.7,0.5c1.4,1.7,1.2,4.2-0.5,5.7
			C248.8,512.5,246.2,512.2,244.8,510.5z"/>
		<path class="st7" d="M173.8,543.6c-1.4-1.7-1.2-4.2,0.5-5.7c1.7-1.4,4.2-1.2,5.7,0.5c1.4,1.7,1.2,4.2-0.5,5.7
			C177.7,545.5,175.2,545.3,173.8,543.6z"/>
		<path class="st7" d="M206.6,589.3c-1.4-1.7-1.2-4.2,0.5-5.7c1.7-1.4,4.2-1.2,5.7,0.5c1.4,1.7,1.2,4.2-0.5,5.7
			C210.6,591.3,208,591.1,206.6,589.3z"/>
		<path class="st7" d="M240.6,466.2c1.3-1.8,1-4.3-0.8-5.6c-1.8-1.3-4.3-1-5.6,0.8c-1.3,1.8-1,4.3,0.8,5.6
			C236.8,468.3,239.3,468,240.6,466.2z"/>
		<path class="st7" d="M260,453.4c1.4-1.7,1.2-4.3-0.5-5.7c-1.7-1.4-4.2-1.2-5.7,0.5c-1.4,1.7-1.2,4.3,0.5,5.7
			C256.1,455.4,258.6,455.1,260,453.4z"/>
		<path class="st7" d="M197.6,474.1c-1.4-1.7-1.2-4.2,0.5-5.7c1.7-1.4,4.2-1.2,5.7,0.5c1.4,1.7,1.2,4.2-0.5,5.7
			C201.6,476.1,199,475.8,197.6,474.1z"/>
		<path class="st7" d="M235.8,510.1c0.9-0.4,2,0,2.4,0.9c0.4,0.9,0,2-0.9,2.4c-0.9,0.4-2,0-2.4-0.9
			C234.5,511.6,234.9,510.5,235.8,510.1z"/>
		<path class="st7" d="M250.4,492.6c0.9-0.4,2,0,2.4,0.9c0.4,0.9,0,2-0.9,2.4c-0.9,0.4-2,0-2.4-0.9
			C249.1,494.1,249.5,493,250.4,492.6z"/>
		<path class="st7" d="M272,507.2c0.9-0.4,2,0,2.4,0.9c0.4,0.9,0,2-0.9,2.4c-0.9,0.4-2,0-2.4-0.9C270.7,508.7,271.1,507.6,272,507.2
			z"/>
		<path class="st7" d="M266,471.9c0.9-0.4,2,0,2.4,0.9c0.4,0.9,0,2-0.9,2.4c-0.9,0.4-2,0-2.4-0.9C264.7,473.4,265.1,472.3,266,471.9
			z"/>
		<path class="st7" d="M241.9,480.9c0.9-0.4,2,0,2.4,0.9c0.4,0.9,0,2-0.9,2.4c-0.9,0.4-2,0-2.4-0.9
			C240.6,482.4,241,481.3,241.9,480.9z"/>
		<path class="st7" d="M255.5,525.3c0.9-0.4,2,0,2.4,0.9c0.4,0.9,0,2-0.9,2.4c-0.9,0.4-2,0-2.4-0.9
			C254.2,526.8,254.6,525.7,255.5,525.3z"/>
		<path class="st7" d="M296.1,518c0.9-0.4,2,0,2.4,0.9c0.4,0.9,0,2-0.9,2.4c-0.9,0.4-2,0-2.4-0.9C294.7,519.5,295.1,518.5,296.1,518
			z"/>
		<path class="st7" d="M293.7,490.8c0.9-0.4,2,0,2.4,0.9c0.4,0.9,0,2-0.9,2.4c-0.9,0.4-2,0-2.4-0.9
			C292.4,492.3,292.8,491.2,293.7,490.8z"/>
		<path class="st7" d="M207.6,506.8c1.3,1.8,0.9,4.3-0.9,5.6c-1.8,1.3-4.3,0.9-5.6-0.9c-1.3-1.8-0.9-4.3,0.9-5.6
			C203.7,504.6,206.2,505,207.6,506.8z"/>
		<path class="st7" d="M243.5,433.5c1.3,1.8,0.9,4.3-0.9,5.6c-1.8,1.3-4.3,0.9-5.6-0.9c-1.3-1.8-0.9-4.3,0.9-5.6
			C239.7,431.3,242.2,431.7,243.5,433.5z"/>
		<path class="st7" d="M222,486.5c1.3,1.8,0.9,4.3-0.9,5.6c-1.8,1.3-4.3,0.9-5.6-0.9c-1.3-1.8-0.9-4.3,0.9-5.6
			C218.2,484.3,220.7,484.7,222,486.5z"/>
		<path class="st7" d="M294.9,457.8c1.3,1.8,0.9,4.3-0.9,5.6c-1.8,1.3-4.3,0.9-5.6-0.9c-1.3-1.8-0.9-4.3,0.9-5.6
			C291.1,455.6,293.6,456,294.9,457.8z"/>
		<path class="st7" d="M264.9,410.1c1.3,1.8,0.9,4.3-0.9,5.6c-1.8,1.3-4.3,0.9-5.6-0.9c-1.3-1.8-0.9-4.3,0.9-5.6
			C261.1,407.9,263.6,408.3,264.9,410.1z"/>
		<path class="st7" d="M229.8,531.2c1.3,1.8,0.9,4.3-0.9,5.6c-1.8,1.3-4.3,0.9-5.6-0.9c-1.3-1.8-0.9-4.3,0.9-5.6
			C226,529,228.5,529.4,229.8,531.2z"/>
		<path class="st7" d="M209.6,542.9c1.3,1.8,0.9,4.3-0.9,5.6c-1.8,1.3-4.3,0.9-5.6-0.9c-1.3-1.8-0.9-4.3,0.9-5.6
			C205.8,540.7,208.3,541.1,209.6,542.9z"/>
		<path class="st7" d="M266.9,525.6c1.3,1.8,0.9,4.3-0.9,5.6c-1.8,1.3-4.3,0.9-5.6-0.9c-1.3-1.8-0.9-4.3,0.9-5.6
			C263.1,523.5,265.6,523.9,266.9,525.6z"/>
		<path class="st7" d="M231,487.4c-0.9,0.4-2-0.1-2.4-1.1c-0.4-0.9,0.1-2,1.1-2.4c0.9-0.4,2,0.1,2.4,1.1
			C232.4,486,231.9,487.1,231,487.4z"/>
		<path class="st7" d="M215.4,504c-0.9,0.4-2-0.1-2.4-1.1c-0.4-0.9,0.1-2,1.1-2.4c0.9-0.4,2,0.1,2.4,1.1
			C216.8,502.6,216.3,503.7,215.4,504z"/>
		<path class="st7" d="M194.7,488.2c-0.9,0.4-2-0.1-2.4-1.1c-0.4-0.9,0.1-2,1.1-2.4c0.9-0.4,2,0.1,2.4,1.1
			C196.1,486.7,195.6,487.8,194.7,488.2z"/>
		<path class="st7" d="M198.5,523.8c-0.9,0.4-2-0.1-2.4-1.1c-0.4-0.9,0.1-2,1.1-2.4c0.9-0.4,2,0.1,2.4,1.1
			C199.9,522.3,199.5,523.4,198.5,523.8z"/>
		<path class="st7" d="M223.1,516.3c-0.9,0.4-2-0.1-2.4-1.1c-0.4-0.9,0.1-2,1.1-2.4c0.9-0.4,2,0.1,2.4,1.1
			C224.5,514.8,224,515.9,223.1,516.3z"/>
		<path class="st7" d="M212.2,471.1c-0.9,0.4-2-0.1-2.4-1.1c-0.4-0.9,0.1-2,1.1-2.4c0.9-0.4,2,0.1,2.4,1.1
			C213.6,469.7,213.2,470.7,212.2,471.1z"/>
		<path class="st7" d="M171.3,475.9c-0.9,0.4-2-0.1-2.4-1.1c-0.4-0.9,0.1-2,1.1-2.4c0.9-0.4,2,0.1,2.4,1.1
			C172.7,474.4,172.3,475.5,171.3,475.9z"/>
		<path class="st7" d="M172,503.2c-0.9,0.4-2-0.1-2.4-1.1c-0.4-0.9,0.1-2,1.1-2.4c0.9-0.4,2,0.1,2.4,1.1
			C173.4,501.8,173,502.9,172,503.2z"/>
		<path class="st7" d="M422.5,578.6c-0.5,2.2,0.8,4.3,3,4.8s4.3-0.8,4.8-3s-0.8-4.3-3-4.8S423,576.5,422.5,578.6z"/>
		<path class="st7" d="M360.8,525.2c-0.5,2.2,0.8,4.3,3,4.8s4.3-0.8,4.8-3c0.5-2.2-0.8-4.3-3-4.8S361.3,523.1,360.8,525.2z"/>
		<path class="st7" d="M401.2,565.6c-0.5,2.2,0.8,4.3,3,4.8c2.2,0.5,4.3-0.8,4.8-3c0.5-2.2-0.8-4.3-3-4.8S401.7,563.4,401.2,565.6z"
			/>
		<path class="st7" d="M322.9,567.7c-0.5,2.2,0.8,4.3,3,4.8c2.2,0.5,4.3-0.8,4.8-3c0.5-2.2-0.8-4.3-3-4.8S323.4,565.5,322.9,567.7z"
			/>
		<path class="st7" d="M332,512.1c-0.5,2.2,0.8,4.3,3,4.8s4.3-0.8,4.8-3c0.5-2.2-0.8-4.3-3-4.8C334.6,508.6,332.5,509.9,332,512.1z"
			/>
		<path class="st7" d="M411.5,609.8c-0.5,2.2,0.8,4.3,3,4.8c2.2,0.5,4.3-0.8,4.8-3c0.5-2.2-0.8-4.3-3-4.8
			C414.2,606.3,412,607.6,411.5,609.8z"/>
		<path class="st7" d="M434.7,612.7c-0.5,2.2,0.8,4.3,3,4.8c2.2,0.5,4.3-0.8,4.8-3c0.5-2.2-0.8-4.3-3-4.8
			C437.4,609.2,435.2,610.5,434.7,612.7z"/>
		<path class="st7" d="M375.2,619.2c-0.5,2.2,0.8,4.3,3,4.8s4.3-0.8,4.8-3c0.5-2.2-0.8-4.3-3-4.8
			C377.9,615.7,375.7,617.1,375.2,619.2z"/>
		<path class="st7" d="M393.4,570c1,0,1.8-0.9,1.8-1.9c0-1-0.9-1.8-1.9-1.8c-1,0-1.8,0.9-1.8,1.9C391.5,569.2,392.4,570,393.4,570z"
			/>
		<path class="st7" d="M414.2,579.1c1,0,1.8-0.9,1.8-1.9c0-1-0.9-1.8-1.9-1.8c-1,0-1.8,0.9-1.8,1.9
			C412.3,578.4,413.2,579.2,414.2,579.1z"/>
		<path class="st7" d="M427.1,556.4c1,0,1.8-0.9,1.8-1.9c0-1-0.9-1.8-1.9-1.8c-1,0-1.8,0.9-1.8,1.9
			C425.2,555.7,426.1,556.5,427.1,556.4z"/>
		<path class="st7" d="M437.4,590.7c1,0,1.8-0.9,1.8-1.9c0-1-0.9-1.8-1.9-1.8c-1,0-1.8,0.9-1.8,1.9
			C435.6,590,436.4,590.7,437.4,590.7z"/>
		<path class="st7" d="M411.9,593.4c1,0,1.8-0.9,1.8-1.9c0-1-0.9-1.8-1.9-1.8c-1,0-1.8,0.9-1.8,1.9
			C410,592.7,410.9,593.5,411.9,593.4z"/>
		<path class="st7" d="M404.3,547.6c1,0,1.8-0.9,1.8-1.9c0-1-0.9-1.8-1.9-1.8c-1,0-1.8,0.9-1.8,1.9
			C402.4,546.8,403.3,547.6,404.3,547.6z"/>
		<path class="st7" d="M443.8,536c1,0,1.8-0.9,1.8-1.9c0-1-0.9-1.8-1.9-1.8c-1,0-1.8,0.9-1.8,1.9C441.9,535.2,442.7,536,443.8,536z"
			/>
		<path class="st7" d="M453.8,561.5c1,0,1.8-0.9,1.8-1.9c0-1-0.9-1.8-1.9-1.8c-1,0-1.8,0.9-1.8,1.9
			C452,560.7,452.8,561.5,453.8,561.5z"/>
		<path class="st7" d="M328.3,489.4c1.4-1.7,1.2-4.2-0.5-5.7c-1.7-1.4-4.2-1.2-5.7,0.5c-1.4,1.7-1.2,4.2,0.5,5.7
			C324.3,491.3,326.9,491.1,328.3,489.4z"/>
		<path class="st7" d="M359.8,564.7c1.4-1.7,1.2-4.2-0.5-5.7c-1.7-1.4-4.2-1.2-5.7,0.5c-1.4,1.7-1.2,4.2,0.5,5.7
			C355.8,566.6,358.4,566.4,359.8,564.7z"/>
		<path class="st7" d="M341.5,510.5c1.4-1.7,1.2-4.2-0.5-5.7c-1.7-1.4-4.2-1.2-5.7,0.5c-1.4,1.7-1.2,4.2,0.5,5.7
			C337.6,512.5,340.1,512.2,341.5,510.5z"/>
		<path class="st7" d="M412.6,543.6c1.4-1.7,1.2-4.2-0.5-5.7c-1.7-1.4-4.2-1.2-5.7,0.5c-1.4,1.7-1.2,4.2,0.5,5.7
			C408.6,545.5,411.1,545.3,412.6,543.6z"/>
		<path class="st7" d="M379.7,589.3c1.4-1.7,1.2-4.2-0.5-5.7c-1.7-1.4-4.2-1.2-5.7,0.5c-1.4,1.7-1.2,4.2,0.5,5.7
			C375.7,591.3,378.3,591.1,379.7,589.3z"/>
		<path class="st7" d="M352,466.4c1.4-1.7,1.2-4.2-0.5-5.7c-1.7-1.4-4.2-1.2-5.7,0.5c-1.4,1.7-1.2,4.2,0.5,5.7
			C348,468.3,350.6,468.1,352,466.4z"/>
		<path class="st7" d="M332.5,453.5c1.4-1.7,1.2-4.2-0.5-5.7c-1.7-1.4-4.2-1.2-5.7,0.5c-1.4,1.7-1.2,4.2,0.5,5.7
			C328.6,455.4,331.1,455.2,332.5,453.5z"/>
		<path class="st7" d="M388.7,474.1c1.4-1.7,1.2-4.2-0.5-5.7c-1.7-1.4-4.2-1.2-5.7,0.5c-1.4,1.7-1.2,4.2,0.5,5.7
			C384.8,476.1,387.3,475.8,388.7,474.1z"/>
		<path class="st7" d="M350.5,510.1c-0.9-0.4-2,0-2.4,0.9c-0.4,0.9,0,2,0.9,2.4c0.9,0.4,2,0,2.4-0.9
			C351.8,511.6,351.4,510.5,350.5,510.1z"/>
		<path class="st7" d="M335.9,492.6c-0.9-0.4-2,0-2.4,0.9c-0.4,0.9,0,2,0.9,2.4c0.9,0.4,2,0,2.4-0.9
			C337.3,494.1,336.9,493,335.9,492.6z"/>
		<path class="st7" d="M314.3,507.2c-0.9-0.4-2,0-2.4,0.9c-0.4,0.9,0,2,0.9,2.4c0.9,0.4,2,0,2.4-0.9
			C315.6,508.7,315.2,507.6,314.3,507.2z"/>
		<path class="st7" d="M320.3,471.9c-0.9-0.4-2,0-2.4,0.9c-0.4,0.9,0,2,0.9,2.4c0.9,0.4,2,0,2.4-0.9
			C321.6,473.4,321.2,472.3,320.3,471.9z"/>
		<path class="st7" d="M344.4,480.9c-0.9-0.4-2,0-2.4,0.9c-0.4,0.9,0,2,0.9,2.4c0.9,0.4,2,0,2.4-0.9
			C345.7,482.4,345.3,481.3,344.4,480.9z"/>
		<path class="st7" d="M330.8,525.3c-0.9-0.4-2,0-2.4,0.9c-0.4,0.9,0,2,0.9,2.4c0.9,0.4,2,0,2.4-0.9
			C332.1,526.8,331.7,525.7,330.8,525.3z"/>
		<path class="st7" d="M290.3,518c-0.9-0.4-2,0-2.4,0.9c-0.4,0.9,0,2,0.9,2.4c0.9,0.4,2,0,2.4-0.9
			C291.6,519.5,291.2,518.5,290.3,518z"/>
		<path class="st7" d="M292.6,490.8c-0.9-0.4-2,0-2.4,0.9c-0.4,0.9,0,2,0.9,2.4c0.9,0.4,2,0,2.4-0.9
			C293.9,492.3,293.5,491.2,292.6,490.8z"/>
		<path class="st7" d="M378.8,506.8c-1.3,1.8-0.9,4.3,0.9,5.6c1.8,1.3,4.3,0.9,5.6-0.9c1.3-1.8,0.9-4.3-0.9-5.6
			C382.6,504.6,380.1,505,378.8,506.8z"/>
		<path class="st7" d="M342.8,433.5c-1.3,1.8-0.9,4.3,0.9,5.6c1.8,1.3,4.3,0.9,5.6-0.9c1.3-1.8,0.9-4.3-0.9-5.6
			C346.6,431.3,344.1,431.7,342.8,433.5z"/>
		<path class="st7" d="M364.3,486.5c-1.3,1.8-0.9,4.3,0.9,5.6c1.8,1.3,4.3,0.9,5.6-0.9c1.3-1.8,0.9-4.3-0.9-5.6
			C368.1,484.3,365.6,484.7,364.3,486.5z"/>
		<path class="st7" d="M291.4,457.8c-1.3,1.8-0.9,4.3,0.9,5.6c1.8,1.3,4.3,0.9,5.6-0.9c1.3-1.8,0.9-4.3-0.9-5.6
			C295.2,455.6,292.7,456,291.4,457.8z"/>
		<path class="st7" d="M321.4,410.1c-1.3,1.8-0.9,4.3,0.9,5.6c1.8,1.3,4.3,0.9,5.6-0.9c1.3-1.8,0.9-4.3-0.9-5.6
			C325.3,407.9,322.7,408.3,321.4,410.1z"/>
		<path class="st7" d="M356.5,531.2c-1.3,1.8-0.9,4.3,0.9,5.6c1.8,1.3,4.3,0.9,5.6-0.9c1.3-1.8,0.9-4.3-0.9-5.6
			C360.3,529,357.8,529.4,356.5,531.2z"/>
		<path class="st7" d="M383.4,547.3c1.2-1.9,0.6-4.4-1.3-5.5s-4.4-0.6-5.5,1.3c-1.2,1.9-0.6,4.4,1.3,5.5
			C379.8,549.8,382.3,549.2,383.4,547.3z"/>
		<path class="st7" d="M319.4,525.6c-1.3,1.8-0.9,4.3,0.9,5.6c1.8,1.3,4.3,0.9,5.6-0.9c1.3-1.8,0.9-4.3-0.9-5.6
			C323.2,523.5,320.7,523.9,319.4,525.6z"/>
		<path class="st7" d="M355.4,487.4c0.9,0.4,2-0.1,2.4-1.1c0.4-0.9-0.1-2-1.1-2.4c-0.9-0.4-2,0.1-2.4,1.1
			C353.9,486,354.4,487.1,355.4,487.4z"/>
		<path class="st7" d="M371,504c0.9,0.4,2-0.1,2.4-1.1c0.4-0.9-0.1-2-1.1-2.4c-0.9-0.4-2,0.1-2.4,1.1C369.5,502.6,370,503.7,371,504
			z"/>
		<path class="st7" d="M391.7,488.2c1,0.4,2-0.1,2.4-1.1c0.4-0.9-0.1-2-1.1-2.4c-0.9-0.4-2,0.1-2.4,1.1
			C390.2,486.7,390.7,487.8,391.7,488.2z"/>
		<path class="st7" d="M387.8,523.8c0.9,0.4,2-0.1,2.4-1.1c0.4-0.9-0.1-2-1.1-2.4c-0.9-0.4-2,0.1-2.4,1.1
			C386.4,522.3,386.9,523.4,387.8,523.8z"/>
		<path class="st7" d="M363.2,516.3c0.9,0.4,2-0.1,2.4-1.1c0.4-0.9-0.1-2-1.1-2.4c-0.9-0.4-2,0.1-2.4,1.1
			C361.8,514.8,362.3,515.9,363.2,516.3z"/>
		<path class="st7" d="M374.1,471.1c0.9,0.4,2-0.1,2.4-1.1c0.4-0.9-0.1-2-1.1-2.4c-0.9-0.4-2,0.1-2.4,1.1
			C372.7,469.7,373.2,470.7,374.1,471.1z"/>
		<path class="st7" d="M415,475.9c0.9,0.4,2-0.1,2.4-1.1c0.4-0.9-0.1-2-1.1-2.4c-0.9-0.4-2,0.1-2.4,1.1
			C413.6,474.4,414.1,475.5,415,475.9z"/>
		<path class="st7" d="M414.3,503.2c0.9,0.4,2-0.1,2.4-1.1c0.4-0.9-0.1-2-1.1-2.4c-0.9-0.4-2,0.1-2.4,1.1
			C412.9,501.8,413.4,502.9,414.3,503.2z"/>
		<path class="st8" d="M301.5,145.1l-12.4,42.2c0,0-35.2-28.7-48.9-90.2c0,0-15.5-12.6-27.5-4.9c-12,7.7-25.6,12.7-53.5,3.2
			l12.3-7.4l-27.5-19.1l32.9-7.6l-29.5-12.7c0,0,26.2,1.3,38.3-8.8c12.1-10.1,42.1-6.9,42.1-6.9l-20.7-14.6c0,0,28.8,5.5,59.4,0
			c30.7-5.5,80.4-20.3,110,31.5l-3.9-21.5c0,0,12.3,4.6,11.3,28.2c0,0,15.9-3.2,24,13.4l-18.3-7.1c0,0,20.4,18.7,21.9,40.6
			c1.4,21.9-19,86.1-31.7,113.6s-20.4,44.5-20.4,44.5s-21.9-41.6-26.8-67c-4.9-25.4,5.6-19.8-2.8-44.5
			C321.2,125.3,301.5,145.1,301.5,145.1z"/>
	</g>
</g>
<circle class="st9" cx="358.7" cy="36" r="11"/>
<circle class="st10" cx="358.5" cy="35.8" r="7.8"/>
<circle class="st9" cx="327.7" cy="304" r="11"/>
<circle class="st10" cx="327.5" cy="303.8" r="7.8"/>
<circle class="st9" cx="307.7" cy="349" r="11"/>
<circle class="st10" cx="307.5" cy="348.8" r="7.8"/>
<circle class="st9" cx="474.7" cy="408" r="11"/>
<circle class="st10" cx="474.5" cy="407.8" r="7.8"/>
<circle class="st9" cx="532.7" cy="484" r="11"/>
<circle class="st10" cx="532.5" cy="483.8" r="7.8"/>
<circle class="st9" cx="237.7" cy="520" r="11"/>
<circle class="st10" cx="237.5" cy="519.8" r="7.8"/>
<circle class="st9" cx="198.7" cy="711" r="11"/>
<circle class="st10" cx="198.5" cy="710.8" r="7.8"/>
<circle class="st9" cx="517.7" cy="582" r="11"/>
<circle class="st10" cx="517.5" cy="581.8" r="7.8"/>
<circle class="st9" cx="319.7" cy="224" r="11"/>
<circle class="st10" cx="319.5" cy="223.8" r="7.8"/>
<circle class="st9" cx="263.7" cy="246" r="11"/>
<circle class="st10" cx="263.5" cy="245.8" r="7.8"/>
<circle class="st9" cx="218.7" cy="242" r="11"/>
<circle class="st10" cx="218.5" cy="241.8" r="7.8"/>
<circle class="st9" cx="208.7" cy="207" r="11"/>
<circle class="st10" cx="208.5" cy="206.8" r="7.8"/>
<circle class="st9" cx="234.7" cy="121" r="11"/>
<circle class="st10" cx="234.5" cy="120.8" r="7.8"/>
</svg>
