<svg width="905" height="358" viewBox="0 0 905 358" fill="none" xmlns="http://www.w3.org/2000/svg">
<path d="M411.148 18.1471C410.401 17.7893 409.505 18.105 409.147 18.8522C408.789 19.5993 409.105 20.4951 409.852 20.8529L411.148 18.1471ZM409.852 20.8529L412.522 22.1311L413.817 19.4253L411.148 18.1471L409.852 20.8529ZM417.86 24.6876L423.199 27.244L424.495 24.5382L419.156 21.9818L417.86 24.6876ZM428.538 29.8005L433.876 32.3569L435.172 29.6511L429.833 27.0947L428.538 29.8005ZM439.215 34.9134L444.554 37.4698L445.849 34.764L440.511 32.2076L439.215 34.9134ZM449.892 40.0263L455.231 42.5827L456.527 39.8769L451.188 37.3205L449.892 40.0263ZM460.57 45.1392L465.909 47.6956L467.204 44.9899L461.866 42.4334L460.57 45.1392ZM471.247 50.2521L476.586 52.8085L477.882 50.1028L472.543 47.5463L471.247 50.2521ZM481.925 55.365L487.263 57.9214L488.559 55.2157L483.22 52.6592L481.925 55.365ZM492.602 60.4779L497.941 63.0343L499.237 60.3286L493.898 57.7721L492.602 60.4779ZM503.28 65.5908L508.618 68.1472L509.914 65.4415L504.575 62.885L503.28 65.5908ZM513.957 70.7037L519.296 73.2601L520.591 70.5544L515.253 67.9979L513.957 70.7037ZM524.634 75.8166L529.973 78.373L531.269 75.6673L525.93 73.1108L524.634 75.8166ZM535.312 80.9295L540.651 83.486L541.946 80.7802L536.608 78.2237L535.312 80.9295ZM545.989 86.0424L551.328 88.5989L552.624 85.8931L547.285 83.3366L545.989 86.0424ZM556.667 91.1553L562.005 93.7118L563.301 91.006L557.962 88.4495L556.667 91.1553ZM567.344 96.2682L572.683 98.8247L573.979 96.1189L568.64 93.5625L567.344 96.2682ZM578.022 101.381L583.36 103.938L584.656 101.232L579.317 98.6754L578.022 101.381ZM588.699 106.494L594.038 109.05L595.333 106.345L589.995 103.788L588.699 106.494ZM599.376 111.607L604.715 114.163L606.011 111.458L600.672 108.901L599.376 111.607ZM610.054 116.72L615.393 119.276L616.688 116.571L611.35 114.014L610.054 116.72ZM620.731 121.833L626.07 124.389L627.366 121.683L622.027 119.127L620.731 121.833ZM631.409 126.946L636.747 129.502L638.043 126.796L632.704 124.24L631.409 126.946ZM642.086 132.059L647.425 134.615L648.721 131.909L643.382 129.353L642.086 132.059ZM652.764 137.171L658.102 139.728L659.398 137.022L654.059 134.466L652.764 137.171ZM663.441 142.284L668.78 144.841L670.075 142.135L664.737 139.579L663.441 142.284ZM674.118 147.397L679.457 149.954L680.753 147.248L675.414 144.692L674.118 147.397ZM684.796 152.51L690.134 155.067L691.43 152.361L686.091 149.804L684.796 152.51ZM695.473 157.623L700.812 160.18L702.108 157.474L696.769 154.917L695.473 157.623ZM706.151 162.736L711.489 165.292L712.785 162.587L707.446 160.03L706.151 162.736ZM716.828 167.849L722.167 170.405L723.462 167.7L718.124 165.143L716.828 167.849ZM727.505 172.962L732.844 175.518L734.14 172.812L728.801 170.256L727.505 172.962ZM738.183 178.075L740.852 179.353L742.148 176.647L739.478 175.369L738.183 178.075ZM411.148 18.1471C410.401 17.7893 409.505 18.105 409.147 18.8522C408.789 19.5993 409.105 20.4951 409.852 20.8529L411.148 18.1471ZM409.852 20.8529L412.522 22.1311L413.817 19.4253L411.148 18.1471L409.852 20.8529ZM417.86 24.6876L423.199 27.244L424.495 24.5382L419.156 21.9818L417.86 24.6876ZM428.538 29.8005L433.876 32.3569L435.172 29.6511L429.833 27.0947L428.538 29.8005ZM439.215 34.9134L444.554 37.4698L445.849 34.764L440.511 32.2076L439.215 34.9134ZM449.892 40.0263L455.231 42.5827L456.527 39.8769L451.188 37.3205L449.892 40.0263ZM460.57 45.1392L465.909 47.6956L467.204 44.9899L461.866 42.4334L460.57 45.1392ZM471.247 50.2521L476.586 52.8085L477.882 50.1028L472.543 47.5463L471.247 50.2521ZM481.925 55.365L487.263 57.9214L488.559 55.2157L483.22 52.6592L481.925 55.365ZM492.602 60.4779L497.941 63.0343L499.237 60.3286L493.898 57.7721L492.602 60.4779ZM503.28 65.5908L508.618 68.1472L509.914 65.4415L504.575 62.885L503.28 65.5908ZM513.957 70.7037L519.296 73.2601L520.591 70.5544L515.253 67.9979L513.957 70.7037ZM524.634 75.8166L529.973 78.373L531.269 75.6673L525.93 73.1108L524.634 75.8166ZM535.312 80.9295L540.651 83.486L541.946 80.7802L536.608 78.2237L535.312 80.9295ZM545.989 86.0424L551.328 88.5989L552.624 85.8931L547.285 83.3366L545.989 86.0424ZM556.667 91.1553L562.005 93.7118L563.301 91.006L557.962 88.4495L556.667 91.1553ZM567.344 96.2682L572.683 98.8247L573.979 96.1189L568.64 93.5625L567.344 96.2682ZM578.022 101.381L583.36 103.938L584.656 101.232L579.317 98.6754L578.022 101.381ZM588.699 106.494L594.038 109.05L595.333 106.345L589.995 103.788L588.699 106.494ZM599.376 111.607L604.715 114.163L606.011 111.458L600.672 108.901L599.376 111.607ZM610.054 116.72L615.393 119.276L616.688 116.571L611.35 114.014L610.054 116.72ZM620.731 121.833L626.07 124.389L627.366 121.683L622.027 119.127L620.731 121.833ZM631.409 126.946L636.747 129.502L638.043 126.796L632.704 124.24L631.409 126.946ZM642.086 132.059L647.425 134.615L648.721 131.909L643.382 129.353L642.086 132.059ZM652.764 137.171L658.102 139.728L659.398 137.022L654.059 134.466L652.764 137.171ZM663.441 142.284L668.78 144.841L670.075 142.135L664.737 139.579L663.441 142.284ZM674.118 147.397L679.457 149.954L680.753 147.248L675.414 144.692L674.118 147.397ZM684.796 152.51L690.134 155.067L691.43 152.361L686.091 149.804L684.796 152.51ZM695.473 157.623L700.812 160.18L702.108 157.474L696.769 154.917L695.473 157.623ZM706.151 162.736L711.489 165.292L712.785 162.587L707.446 160.03L706.151 162.736ZM716.828 167.849L722.167 170.405L723.462 167.7L718.124 165.143L716.828 167.849ZM727.505 172.962L732.844 175.518L734.14 172.812L728.801 170.256L727.505 172.962ZM738.183 178.075L740.852 179.353L742.148 176.647L739.478 175.369L738.183 178.075Z" fill="#25527E"/>
<path d="M2.32382 13.0354C1.51493 12.8565 0.714213 13.3673 0.535371 14.1762C0.356528 14.9851 0.867285 15.7858 1.67618 15.9646L2.32382 13.0354ZM1.67618 15.9646L4.6107 16.6134L5.25835 13.6842L2.32382 13.0354L1.67618 15.9646ZM10.4797 17.9111L16.3488 19.2087L16.9964 16.2794L11.1274 14.9818L10.4797 17.9111ZM22.2178 20.5063L28.0869 21.8039L28.7345 18.8747L22.8655 17.577L22.2178 20.5063ZM33.9559 23.1015L39.825 24.3992L40.4726 21.4699L34.6036 20.1723L33.9559 23.1015ZM45.694 25.6968L51.5631 26.9944L52.2107 24.0651L46.3417 22.7675L45.694 25.6968ZM57.4321 28.292L63.3012 29.5896L63.9488 26.6604L58.0798 25.3628L57.4321 28.292ZM69.1702 30.8872L75.0393 32.1849L75.6869 29.2556L69.8179 27.958L69.1702 30.8872ZM80.9083 33.4825L86.7774 34.7801L87.425 31.8508L81.556 30.5532L80.9083 33.4825ZM92.6464 36.0777L98.5155 37.3753L99.1631 34.4461L93.2941 33.1485L92.6464 36.0777ZM104.385 38.673L110.254 39.9706L110.901 37.0413L105.032 35.7437L104.385 38.673ZM116.123 41.2682L121.992 42.5658L122.639 39.6366L116.77 38.3389L116.123 41.2682ZM127.861 43.8634L133.73 45.1611L134.377 42.2318L128.508 40.9342L127.861 43.8634ZM139.599 46.4587L145.468 47.7563L146.116 44.827L140.246 43.5294L139.599 46.4587ZM151.337 49.0539L157.206 50.3515L157.854 47.4223L151.985 46.1247L151.337 49.0539ZM163.075 51.6492L168.944 52.9468L169.592 50.0175L163.723 48.7199L163.075 51.6492ZM174.813 54.2444L180.682 55.542L181.33 52.6128L175.461 51.3151L174.813 54.2444ZM186.551 56.8396L192.42 58.1373L193.068 55.208L187.199 53.9104L186.551 56.8396ZM198.289 59.4349L204.158 60.7325L204.806 57.8032L198.937 56.5056L198.289 59.4349ZM210.027 62.0301L215.896 63.3277L216.544 60.3985L210.675 59.1009L210.027 62.0301ZM221.766 64.6254L227.635 65.923L228.282 62.9937L222.413 61.6961L221.766 64.6254ZM233.504 67.2206L239.373 68.5182L240.02 65.589L234.151 64.2913L233.504 67.2206ZM245.242 69.8158L251.111 71.1135L251.758 68.1842L245.889 66.8866L245.242 69.8158ZM256.98 72.4111L262.849 73.7087L263.497 70.7794L257.628 69.4818L256.98 72.4111ZM268.718 75.0063L274.587 76.3039L275.235 73.3747L269.366 72.0771L268.718 75.0063ZM280.456 77.6015L286.325 78.8992L286.973 75.9699L281.104 74.6723L280.456 77.6015ZM292.194 80.1968L298.063 81.4944L298.711 78.5651L292.842 77.2675L292.194 80.1968ZM303.932 82.792L309.801 84.0896L310.449 81.1604L304.58 79.8628L303.932 82.792ZM315.67 85.3872L321.539 86.6849L322.187 83.7556L316.318 82.458L315.67 85.3872ZM327.408 87.9825L333.277 89.2801L333.925 86.3508L328.056 85.0532L327.408 87.9825ZM339.146 90.5777L345.015 91.8753L345.663 88.9461L339.794 87.6484L339.146 90.5777ZM350.884 93.1729L356.753 94.4706L357.401 91.5413L351.532 90.2437L350.884 93.1729ZM362.622 95.7682L368.492 97.0658L369.139 94.1365L363.27 92.8389L362.622 95.7682ZM374.361 98.3634L380.23 99.661L380.877 96.7318L375.008 95.4341L374.361 98.3634ZM386.099 100.959L391.968 102.256L392.615 99.327L386.746 98.0294L386.099 100.959ZM397.837 103.554L403.706 104.851L404.353 101.922L398.484 100.625L397.837 103.554ZM409.575 106.149L415.444 107.447L416.091 104.517L410.222 103.22L409.575 106.149ZM421.313 108.744L427.182 110.042L427.83 107.113L421.96 105.815L421.313 108.744ZM433.051 111.34L438.92 112.637L439.568 109.708L433.699 108.41L433.051 111.34ZM444.789 113.935L450.658 115.232L451.306 112.303L445.437 111.006L444.789 113.935ZM456.527 116.53L462.396 117.828L463.044 114.898L457.175 113.601L456.527 116.53ZM468.265 119.125L474.134 120.423L474.782 117.494L468.913 116.196L468.265 119.125ZM480.003 121.72L485.872 123.018L486.52 120.089L480.651 118.791L480.003 121.72ZM491.741 124.316L497.61 125.613L498.258 122.684L492.389 121.386L491.741 124.316ZM503.479 126.911L509.348 128.209L509.996 125.279L504.127 123.982L503.479 126.911ZM515.217 129.506L521.087 130.804L521.734 127.875L515.865 126.577L515.217 129.506ZM526.956 132.101L532.825 133.399L533.472 130.47L527.603 129.172L526.956 132.101ZM538.694 134.697L544.563 135.994L545.21 133.065L539.341 131.767L538.694 134.697ZM550.432 137.292L556.301 138.59L556.949 135.66L551.08 134.363L550.432 137.292ZM562.17 139.887L568.039 141.185L568.687 138.256L562.818 136.958L562.17 139.887ZM573.908 142.482L579.777 143.78L580.425 140.851L574.556 139.553L573.908 142.482ZM585.646 145.078L591.515 146.375L592.163 143.446L586.294 142.148L585.646 145.078ZM597.384 147.673L603.253 148.971L603.901 146.041L598.032 144.744L597.384 147.673ZM609.123 150.268L614.992 151.566L615.639 148.637L609.77 147.339L609.123 150.268ZM620.861 152.863L626.73 154.161L627.377 151.232L621.508 149.934L620.861 152.863ZM632.599 155.459L638.468 156.756L639.115 153.827L633.246 152.529L632.599 155.459ZM644.337 158.054L650.206 159.352L650.854 156.422L644.985 155.125L644.337 158.054ZM656.075 160.649L661.944 161.947L662.592 159.018L656.723 157.72L656.075 160.649ZM667.813 163.244L673.682 164.542L674.33 161.613L668.461 160.315L667.813 163.244ZM679.551 165.84L685.42 167.137L686.068 164.208L680.199 162.91L679.551 165.84ZM691.289 168.435L697.159 169.733L697.806 166.803L691.937 165.506L691.289 168.435ZM703.028 171.03L708.897 172.328L709.544 169.399L703.675 168.101L703.028 171.03ZM714.766 173.625L720.635 174.923L721.282 171.994L715.413 170.696L714.766 173.625ZM726.504 176.221L732.373 177.518L733.021 174.589L727.151 173.291L726.504 176.221ZM738.242 178.816L741.176 179.465L741.824 176.535L738.89 175.887L738.242 178.816ZM2.32382 13.0354C1.51493 12.8565 0.714213 13.3673 0.535371 14.1762C0.356528 14.9851 0.867285 15.7858 1.67618 15.9646L2.32382 13.0354ZM1.67618 15.9646L4.6107 16.6134L5.25835 13.6842L2.32382 13.0354L1.67618 15.9646ZM10.4797 17.9111L16.3488 19.2087L16.9964 16.2794L11.1274 14.9818L10.4797 17.9111ZM22.2178 20.5063L28.0869 21.8039L28.7345 18.8747L22.8655 17.577L22.2178 20.5063ZM33.9559 23.1015L39.825 24.3992L40.4726 21.4699L34.6036 20.1723L33.9559 23.1015ZM45.694 25.6968L51.5631 26.9944L52.2107 24.0651L46.3417 22.7675L45.694 25.6968ZM57.4321 28.292L63.3012 29.5896L63.9488 26.6604L58.0798 25.3628L57.4321 28.292ZM69.1702 30.8872L75.0393 32.1849L75.6869 29.2556L69.8179 27.958L69.1702 30.8872ZM80.9083 33.4825L86.7774 34.7801L87.425 31.8508L81.556 30.5532L80.9083 33.4825ZM92.6464 36.0777L98.5155 37.3753L99.1631 34.4461L93.2941 33.1485L92.6464 36.0777ZM104.385 38.673L110.254 39.9706L110.901 37.0413L105.032 35.7437L104.385 38.673ZM116.123 41.2682L121.992 42.5658L122.639 39.6366L116.77 38.3389L116.123 41.2682ZM127.861 43.8634L133.73 45.1611L134.377 42.2318L128.508 40.9342L127.861 43.8634ZM139.599 46.4587L145.468 47.7563L146.116 44.827L140.246 43.5294L139.599 46.4587ZM151.337 49.0539L157.206 50.3515L157.854 47.4223L151.985 46.1247L151.337 49.0539ZM163.075 51.6492L168.944 52.9468L169.592 50.0175L163.723 48.7199L163.075 51.6492ZM174.813 54.2444L180.682 55.542L181.33 52.6128L175.461 51.3151L174.813 54.2444ZM186.551 56.8396L192.42 58.1373L193.068 55.208L187.199 53.9104L186.551 56.8396ZM198.289 59.4349L204.158 60.7325L204.806 57.8032L198.937 56.5056L198.289 59.4349ZM210.027 62.0301L215.896 63.3277L216.544 60.3985L210.675 59.1009L210.027 62.0301ZM221.766 64.6254L227.635 65.923L228.282 62.9937L222.413 61.6961L221.766 64.6254ZM233.504 67.2206L239.373 68.5182L240.02 65.589L234.151 64.2913L233.504 67.2206ZM245.242 69.8158L251.111 71.1135L251.758 68.1842L245.889 66.8866L245.242 69.8158ZM256.98 72.4111L262.849 73.7087L263.497 70.7794L257.628 69.4818L256.98 72.4111ZM268.718 75.0063L274.587 76.3039L275.235 73.3747L269.366 72.0771L268.718 75.0063ZM280.456 77.6015L286.325 78.8992L286.973 75.9699L281.104 74.6723L280.456 77.6015ZM292.194 80.1968L298.063 81.4944L298.711 78.5651L292.842 77.2675L292.194 80.1968ZM303.932 82.792L309.801 84.0896L310.449 81.1604L304.58 79.8628L303.932 82.792ZM315.67 85.3872L321.539 86.6849L322.187 83.7556L316.318 82.458L315.67 85.3872ZM327.408 87.9825L333.277 89.2801L333.925 86.3508L328.056 85.0532L327.408 87.9825ZM339.146 90.5777L345.015 91.8753L345.663 88.9461L339.794 87.6484L339.146 90.5777ZM350.884 93.1729L356.753 94.4706L357.401 91.5413L351.532 90.2437L350.884 93.1729ZM362.622 95.7682L368.492 97.0658L369.139 94.1365L363.27 92.8389L362.622 95.7682ZM374.361 98.3634L380.23 99.661L380.877 96.7318L375.008 95.4341L374.361 98.3634ZM386.099 100.959L391.968 102.256L392.615 99.327L386.746 98.0294L386.099 100.959ZM397.837 103.554L403.706 104.851L404.353 101.922L398.484 100.625L397.837 103.554ZM409.575 106.149L415.444 107.447L416.091 104.517L410.222 103.22L409.575 106.149ZM421.313 108.744L427.182 110.042L427.83 107.113L421.96 105.815L421.313 108.744ZM433.051 111.34L438.92 112.637L439.568 109.708L433.699 108.41L433.051 111.34ZM444.789 113.935L450.658 115.232L451.306 112.303L445.437 111.006L444.789 113.935ZM456.527 116.53L462.396 117.828L463.044 114.898L457.175 113.601L456.527 116.53ZM468.265 119.125L474.134 120.423L474.782 117.494L468.913 116.196L468.265 119.125ZM480.003 121.72L485.872 123.018L486.52 120.089L480.651 118.791L480.003 121.72ZM491.741 124.316L497.61 125.613L498.258 122.684L492.389 121.386L491.741 124.316ZM503.479 126.911L509.348 128.209L509.996 125.279L504.127 123.982L503.479 126.911ZM515.217 129.506L521.087 130.804L521.734 127.875L515.865 126.577L515.217 129.506ZM526.956 132.101L532.825 133.399L533.472 130.47L527.603 129.172L526.956 132.101ZM538.694 134.697L544.563 135.994L545.21 133.065L539.341 131.767L538.694 134.697ZM550.432 137.292L556.301 138.59L556.949 135.66L551.08 134.363L550.432 137.292ZM562.17 139.887L568.039 141.185L568.687 138.256L562.818 136.958L562.17 139.887ZM573.908 142.482L579.777 143.78L580.425 140.851L574.556 139.553L573.908 142.482ZM585.646 145.078L591.515 146.375L592.163 143.446L586.294 142.148L585.646 145.078ZM597.384 147.673L603.253 148.971L603.901 146.041L598.032 144.744L597.384 147.673ZM609.123 150.268L614.992 151.566L615.639 148.637L609.77 147.339L609.123 150.268ZM620.861 152.863L626.73 154.161L627.377 151.232L621.508 149.934L620.861 152.863ZM632.599 155.459L638.468 156.756L639.115 153.827L633.246 152.529L632.599 155.459ZM644.337 158.054L650.206 159.352L650.854 156.422L644.985 155.125L644.337 158.054ZM656.075 160.649L661.944 161.947L662.592 159.018L656.723 157.72L656.075 160.649ZM667.813 163.244L673.682 164.542L674.33 161.613L668.461 160.315L667.813 163.244ZM679.551 165.84L685.42 167.137L686.068 164.208L680.199 162.91L679.551 165.84ZM691.289 168.435L697.159 169.733L697.806 166.803L691.937 165.506L691.289 168.435ZM703.028 171.03L708.897 172.328L709.544 169.399L703.675 168.101L703.028 171.03ZM714.766 173.625L720.635 174.923L721.282 171.994L715.413 170.696L714.766 173.625ZM726.504 176.221L732.373 177.518L733.021 174.589L727.151 173.291L726.504 176.221ZM738.242 178.816L741.176 179.465L741.824 176.535L738.89 175.887L738.242 178.816Z" fill="#25527E"/>
<path d="M842.306 2.73821C842.713 2.01705 842.459 1.10193 841.738 0.694225C841.017 0.286524 840.102 0.540632 839.694 1.26179L842.306 2.73821ZM742.806 178.738L744.269 176.15L741.657 174.674L740.194 177.262L742.806 178.738ZM747.195 170.974L750.122 165.797L747.51 164.321L744.584 169.497L747.195 170.974ZM753.048 160.621L755.975 155.444L753.363 153.968L750.437 159.144L753.048 160.621ZM758.901 150.268L761.828 145.091L759.216 143.615L756.29 148.791L758.901 150.268ZM764.754 139.915L767.681 134.738L765.069 133.262L762.143 138.438L764.754 139.915ZM770.607 129.562L773.534 124.385L770.922 122.909L767.996 128.085L770.607 129.562ZM776.46 119.209L779.387 114.032L776.775 112.556L773.849 117.732L776.46 119.209ZM782.313 108.856L785.24 103.679L782.628 102.203L779.702 107.379L782.313 108.856ZM788.166 98.5029L791.093 93.3264L788.481 91.85L785.555 97.0265L788.166 98.5029ZM794.019 88.15L796.945 82.9735L794.334 81.4971L791.407 86.6736L794.019 88.15ZM799.872 77.797L802.798 72.6206L800.187 71.1441L797.26 76.3206L799.872 77.797ZM805.725 67.4441L808.651 62.2676L806.04 60.7912L803.113 65.9677L805.725 67.4441ZM811.578 57.0911L814.504 51.9147L811.893 50.4382L808.966 55.6147L811.578 57.0911ZM817.431 46.7382L820.357 41.5617L817.746 40.0853L814.819 45.2618L817.431 46.7382ZM823.284 36.3852L826.21 31.2088L823.599 29.7323L820.672 34.9088L823.284 36.3852ZM829.137 26.0323L832.063 20.8558L829.452 19.3794L826.525 24.5559L829.137 26.0323ZM834.99 15.6793L837.916 10.5028L835.305 9.02643L832.378 14.2029L834.99 15.6793ZM840.843 5.32636L842.306 2.73821L839.694 1.26179L838.231 3.84995L840.843 5.32636ZM842.306 2.73821C842.713 2.01705 842.459 1.10193 841.738 0.694225C841.017 0.286524 840.102 0.540632 839.694 1.26179L842.306 2.73821ZM742.806 178.738L744.269 176.15L741.657 174.674L740.194 177.262L742.806 178.738ZM747.195 170.974L750.122 165.797L747.51 164.321L744.584 169.497L747.195 170.974ZM753.048 160.621L755.975 155.444L753.363 153.968L750.437 159.144L753.048 160.621ZM758.901 150.268L761.828 145.091L759.216 143.615L756.29 148.791L758.901 150.268ZM764.754 139.915L767.681 134.738L765.069 133.262L762.143 138.438L764.754 139.915ZM770.607 129.562L773.534 124.385L770.922 122.909L767.996 128.085L770.607 129.562ZM776.46 119.209L779.387 114.032L776.775 112.556L773.849 117.732L776.46 119.209ZM782.313 108.856L785.24 103.679L782.628 102.203L779.702 107.379L782.313 108.856ZM788.166 98.5029L791.093 93.3264L788.481 91.85L785.555 97.0265L788.166 98.5029ZM794.019 88.15L796.945 82.9735L794.334 81.4971L791.407 86.6736L794.019 88.15ZM799.872 77.797L802.798 72.6206L800.187 71.1441L797.26 76.3206L799.872 77.797ZM805.725 67.4441L808.651 62.2676L806.04 60.7912L803.113 65.9677L805.725 67.4441ZM811.578 57.0911L814.504 51.9147L811.893 50.4382L808.966 55.6147L811.578 57.0911ZM817.431 46.7382L820.357 41.5617L817.746 40.0853L814.819 45.2618L817.431 46.7382ZM823.284 36.3852L826.21 31.2088L823.599 29.7323L820.672 34.9088L823.284 36.3852ZM829.137 26.0323L832.063 20.8558L829.452 19.3794L826.525 24.5559L829.137 26.0323ZM834.99 15.6793L837.916 10.5028L835.305 9.02643L832.378 14.2029L834.99 15.6793ZM840.843 5.32636L842.306 2.73821L839.694 1.26179L838.231 3.84995L840.843 5.32636Z" fill="#25527E"/>
<path d="M902.391 357.01C902.948 357.622 903.897 357.667 904.51 357.109C905.122 356.552 905.167 355.603 904.609 354.99L902.391 357.01ZM740.391 179.01L742.416 181.235L744.634 179.215L742.609 176.99L740.391 179.01ZM746.466 185.685L750.516 190.135L752.734 188.115L748.684 183.665L746.466 185.685ZM754.566 194.585L758.616 199.035L760.834 197.015L756.784 192.565L754.566 194.585ZM762.666 203.485L766.716 207.935L768.934 205.915L764.884 201.465L762.666 203.485ZM770.766 212.385L774.816 216.835L777.034 214.815L772.984 210.365L770.766 212.385ZM778.866 221.285L782.916 225.735L785.134 223.715L781.084 219.265L778.866 221.285ZM786.966 230.185L791.016 234.635L793.234 232.615L789.184 228.165L786.966 230.185ZM795.066 239.085L799.116 243.535L801.334 241.515L797.284 237.065L795.066 239.085ZM803.166 247.985L807.216 252.435L809.434 250.415L805.384 245.965L803.166 247.985ZM811.266 256.885L815.316 261.335L817.534 259.315L813.484 254.865L811.266 256.885ZM819.366 265.785L823.416 270.235L825.634 268.215L821.584 263.765L819.366 265.785ZM827.466 274.685L831.516 279.135L833.734 277.115L829.684 272.665L827.466 274.685ZM835.566 283.585L839.616 288.035L841.834 286.015L837.784 281.565L835.566 283.585ZM843.666 292.485L847.716 296.935L849.934 294.915L845.884 290.465L843.666 292.485ZM851.766 301.385L855.816 305.835L858.034 303.815L853.984 299.365L851.766 301.385ZM859.866 310.285L863.916 314.735L866.134 312.715L862.084 308.265L859.866 310.285ZM867.966 319.185L872.016 323.635L874.234 321.615L870.184 317.165L867.966 319.185ZM876.066 328.085L880.116 332.535L882.334 330.515L878.284 326.065L876.066 328.085ZM884.166 336.985L888.216 341.435L890.434 339.415L886.384 334.965L884.166 336.985ZM892.266 345.885L896.316 350.335L898.534 348.315L894.484 343.865L892.266 345.885ZM900.366 354.785L902.391 357.01L904.609 354.99L902.584 352.765L900.366 354.785ZM902.391 357.01C902.948 357.622 903.897 357.667 904.51 357.109C905.122 356.552 905.167 355.603 904.609 354.99L902.391 357.01ZM740.391 179.01L742.416 181.235L744.634 179.215L742.609 176.99L740.391 179.01ZM746.466 185.685L750.516 190.135L752.734 188.115L748.684 183.665L746.466 185.685ZM754.566 194.585L758.616 199.035L760.834 197.015L756.784 192.565L754.566 194.585ZM762.666 203.485L766.716 207.935L768.934 205.915L764.884 201.465L762.666 203.485ZM770.766 212.385L774.816 216.835L777.034 214.815L772.984 210.365L770.766 212.385ZM778.866 221.285L782.916 225.735L785.134 223.715L781.084 219.265L778.866 221.285ZM786.966 230.185L791.016 234.635L793.234 232.615L789.184 228.165L786.966 230.185ZM795.066 239.085L799.116 243.535L801.334 241.515L797.284 237.065L795.066 239.085ZM803.166 247.985L807.216 252.435L809.434 250.415L805.384 245.965L803.166 247.985ZM811.266 256.885L815.316 261.335L817.534 259.315L813.484 254.865L811.266 256.885ZM819.366 265.785L823.416 270.235L825.634 268.215L821.584 263.765L819.366 265.785ZM827.466 274.685L831.516 279.135L833.734 277.115L829.684 272.665L827.466 274.685ZM835.566 283.585L839.616 288.035L841.834 286.015L837.784 281.565L835.566 283.585ZM843.666 292.485L847.716 296.935L849.934 294.915L845.884 290.465L843.666 292.485ZM851.766 301.385L855.816 305.835L858.034 303.815L853.984 299.365L851.766 301.385ZM859.866 310.285L863.916 314.735L866.134 312.715L862.084 308.265L859.866 310.285ZM867.966 319.185L872.016 323.635L874.234 321.615L870.184 317.165L867.966 319.185ZM876.066 328.085L880.116 332.535L882.334 330.515L878.284 326.065L876.066 328.085ZM884.166 336.985L888.216 341.435L890.434 339.415L886.384 334.965L884.166 336.985ZM892.266 345.885L896.316 350.335L898.534 348.315L894.484 343.865L892.266 345.885ZM900.366 354.785L902.391 357.01L904.609 354.99L902.584 352.765L900.366 354.785Z" fill="#25527E"/>
</svg>
