<svg width="296" height="98" viewBox="0 0 296 98" fill="none" xmlns="http://www.w3.org/2000/svg">
<path d="M140.304 0.457081C140.058 0.289442 139.722 0.353005 139.555 0.599051C139.387 0.845098 139.451 1.18046 139.697 1.34809L140.304 0.457081ZM139.697 1.34809L140.593 1.95896L141.2 1.06795L140.304 0.457081L139.697 1.34809ZM142.386 3.18069L144.179 4.40242L144.787 3.5114L142.993 2.28967L142.386 3.18069ZM145.973 5.62415L147.766 6.84587L148.373 5.95486L146.58 4.73313L145.973 5.62415ZM149.559 8.0676L151.352 9.28933L151.959 8.39832L150.166 7.17659L149.559 8.0676ZM153.145 10.5111L154.938 11.7328L155.545 10.8418L153.752 9.62005L153.145 10.5111ZM156.732 12.9545L158.525 14.1762L159.132 13.2852L157.339 12.0635L156.732 12.9545ZM160.318 15.398L162.111 16.6197L162.718 15.7287L160.925 14.507L160.318 15.398ZM163.904 17.8414L165.697 19.0632L166.304 18.1721L164.511 16.9504L163.904 17.8414ZM167.491 20.2849L169.284 21.5066L169.891 20.6156L168.098 19.3939L167.491 20.2849ZM171.077 22.7283L172.87 23.9501L173.477 23.0591L171.684 21.8373L171.077 22.7283ZM174.663 25.1718L176.456 26.3935L177.063 25.5025L175.27 24.2808L174.663 25.1718ZM178.249 27.6153L180.043 28.837L180.65 27.946L178.857 26.7242L178.249 27.6153ZM181.836 30.0587L183.629 31.2804L184.236 30.3894L182.443 29.1677L181.836 30.0587ZM185.422 32.5022L187.215 33.7239L187.822 32.8329L186.029 31.6112L185.422 32.5022ZM189.008 34.9456L190.802 36.1674L191.409 35.2763L189.615 34.0546L189.008 34.9456ZM192.595 37.3891L194.388 38.6108L194.995 37.7198L193.202 36.4981L192.595 37.3891ZM196.181 39.8325L197.974 41.0543L198.581 40.1633L196.788 38.9415L196.181 39.8325ZM199.767 42.276L201.56 43.4977L202.168 42.6067L200.374 41.385L199.767 42.276ZM203.354 44.7195L205.147 45.9412L205.754 45.0502L203.961 43.8284L203.354 44.7195ZM206.94 47.1629L208.733 48.3846L209.34 47.4936L207.547 46.2719L206.94 47.1629ZM210.526 49.6064L212.319 50.8281L212.927 49.9371L211.133 48.7154L210.526 49.6064ZM214.113 52.0498L215.906 53.2716L216.513 52.3805L214.72 51.1588L214.113 52.0498ZM217.699 54.4933L219.492 55.715L220.099 54.824L218.306 53.6023L217.699 54.4933ZM221.285 56.9367L223.078 58.1585L223.685 57.2675L221.892 56.0457L221.285 56.9367ZM224.872 59.3802L226.665 60.6019L227.272 59.7109L225.479 58.4892L224.872 59.3802ZM228.458 61.8237L230.251 63.0454L230.858 62.1544L229.065 60.9326L228.458 61.8237ZM232.044 64.2671L233.837 65.4888L234.444 64.5978L232.651 63.3761L232.044 64.2671ZM235.63 66.7106L237.424 67.9323L238.031 67.0413L236.238 65.8196L235.63 66.7106ZM239.217 69.154L240.113 69.7649L240.72 68.8739L239.824 68.263L239.217 69.154ZM140.304 0.457081C140.058 0.289442 139.722 0.353005 139.555 0.599051C139.387 0.845098 139.451 1.18046 139.697 1.34809L140.304 0.457081ZM139.697 1.34809L140.593 1.95896L141.2 1.06795L140.304 0.457081L139.697 1.34809ZM142.386 3.18069L144.179 4.40242L144.787 3.5114L142.993 2.28967L142.386 3.18069ZM145.973 5.62415L147.766 6.84587L148.373 5.95486L146.58 4.73313L145.973 5.62415ZM149.559 8.0676L151.352 9.28933L151.959 8.39832L150.166 7.17659L149.559 8.0676ZM153.145 10.5111L154.938 11.7328L155.545 10.8418L153.752 9.62005L153.145 10.5111ZM156.732 12.9545L158.525 14.1762L159.132 13.2852L157.339 12.0635L156.732 12.9545ZM160.318 15.398L162.111 16.6197L162.718 15.7287L160.925 14.507L160.318 15.398ZM163.904 17.8414L165.697 19.0632L166.304 18.1721L164.511 16.9504L163.904 17.8414ZM167.491 20.2849L169.284 21.5066L169.891 20.6156L168.098 19.3939L167.491 20.2849ZM171.077 22.7283L172.87 23.9501L173.477 23.0591L171.684 21.8373L171.077 22.7283ZM174.663 25.1718L176.456 26.3935L177.063 25.5025L175.27 24.2808L174.663 25.1718ZM178.249 27.6153L180.043 28.837L180.65 27.946L178.857 26.7242L178.249 27.6153ZM181.836 30.0587L183.629 31.2804L184.236 30.3894L182.443 29.1677L181.836 30.0587ZM185.422 32.5022L187.215 33.7239L187.822 32.8329L186.029 31.6112L185.422 32.5022ZM189.008 34.9456L190.802 36.1674L191.409 35.2763L189.615 34.0546L189.008 34.9456ZM192.595 37.3891L194.388 38.6108L194.995 37.7198L193.202 36.4981L192.595 37.3891ZM196.181 39.8325L197.974 41.0543L198.581 40.1633L196.788 38.9415L196.181 39.8325ZM199.767 42.276L201.56 43.4977L202.168 42.6067L200.374 41.385L199.767 42.276ZM203.354 44.7195L205.147 45.9412L205.754 45.0502L203.961 43.8284L203.354 44.7195ZM206.94 47.1629L208.733 48.3846L209.34 47.4936L207.547 46.2719L206.94 47.1629ZM210.526 49.6064L212.319 50.8281L212.927 49.9371L211.133 48.7154L210.526 49.6064ZM214.113 52.0498L215.906 53.2716L216.513 52.3805L214.72 51.1588L214.113 52.0498ZM217.699 54.4933L219.492 55.715L220.099 54.824L218.306 53.6023L217.699 54.4933ZM221.285 56.9367L223.078 58.1585L223.685 57.2675L221.892 56.0457L221.285 56.9367ZM224.872 59.3802L226.665 60.6019L227.272 59.7109L225.479 58.4892L224.872 59.3802ZM228.458 61.8237L230.251 63.0454L230.858 62.1544L229.065 60.9326L228.458 61.8237ZM232.044 64.2671L233.837 65.4888L234.444 64.5978L232.651 63.3761L232.044 64.2671ZM235.63 66.7106L237.424 67.9323L238.031 67.0413L236.238 65.8196L235.63 66.7106ZM239.217 69.154L240.113 69.7649L240.72 68.8739L239.824 68.263L239.217 69.154Z" fill="#25527E"/>
<path d="M1.39523 7.7816C1.10674 7.708 0.813213 7.8822 0.739612 8.17069C0.66601 8.45917 0.840209 8.7527 1.1287 8.82631L1.39523 7.7816ZM1.1287 8.82631L2.17762 9.09392L2.44416 8.04922L1.39523 7.7816L1.1287 8.82631ZM4.27547 9.62914L6.37332 10.1644L6.63986 9.11966L4.54201 8.58444L4.27547 9.62914ZM8.47117 10.6996L10.569 11.2348L10.8356 10.1901L8.73771 9.65488L8.47117 10.6996ZM12.6669 11.77L14.7647 12.3053L15.0313 11.2606L12.9334 10.7253L12.6669 11.77ZM16.8626 12.8405L18.9604 13.3757L19.227 12.331L17.1291 11.7958L16.8626 12.8405ZM21.0583 13.9109L23.1561 14.4461L23.4227 13.4014L21.3248 12.8662L21.0583 13.9109ZM25.254 14.9814L27.3518 15.5166L27.6184 14.4719L25.5205 13.9367L25.254 14.9814ZM29.4497 16.0518L31.5475 16.587L31.8141 15.5423L29.7162 15.0071L29.4497 16.0518ZM33.6454 17.1223L35.7432 17.6575L36.0098 16.6128L33.9119 16.0776L33.6454 17.1223ZM37.8411 18.1927L39.9389 18.7279L40.2055 17.6832L38.1076 17.148L37.8411 18.1927ZM42.0368 19.2632L44.1346 19.7984L44.4012 18.7537L42.3033 18.2185L42.0368 19.2632ZM46.2325 20.3336L48.3303 20.8688L48.5969 19.8241L46.499 19.2889L46.2325 20.3336ZM50.4282 21.4041L52.526 21.9393L52.7926 20.8946L50.6947 20.3594L50.4282 21.4041ZM54.6239 22.4745L56.7217 23.0097L56.9883 21.965L54.8904 21.4298L54.6239 22.4745ZM58.8196 23.5449L60.9175 24.0802L61.184 23.0355L59.0861 22.5002L58.8196 23.5449ZM63.0153 24.6154L65.1131 25.1506L65.3797 24.1059L63.2818 23.5707L63.0153 24.6154ZM67.211 25.6858L69.3088 26.2211L69.5754 25.1764L67.4775 24.6411L67.211 25.6858ZM71.4067 26.7563L73.5045 27.2915L73.7711 26.2468L71.6732 25.7116L71.4067 26.7563ZM75.6024 27.8267L77.7002 28.3619L77.9668 27.3172L75.8689 26.782L75.6024 27.8267ZM79.7981 28.8972L81.8959 29.4324L82.1625 28.3877L80.0646 27.8525L79.7981 28.8972ZM83.9938 29.9676L86.0916 30.5028L86.3582 29.4581L84.2603 28.9229L83.9938 29.9676ZM88.1895 31.0381L90.2873 31.5733L90.5539 30.5286L88.456 29.9934L88.1895 31.0381ZM92.3852 32.1085L94.483 32.6437L94.7495 31.599L92.6517 31.0638L92.3852 32.1085ZM96.5809 33.1789L98.6787 33.7142L98.9452 32.6695L96.8474 32.1342L96.5809 33.1789ZM100.777 34.2494L102.874 34.7846L103.141 33.7399L101.043 33.2047L100.777 34.2494ZM104.972 35.3198L107.07 35.8551L107.337 34.8104L105.239 34.2751L104.972 35.3198ZM109.168 36.3903L111.266 36.9255L111.532 35.8808L109.434 35.3456L109.168 36.3903ZM113.364 37.4607L115.461 37.9959L115.728 36.9512L113.63 36.416L113.364 37.4607ZM117.559 38.5312L119.657 39.0664L119.924 38.0217L117.826 37.4865L117.559 38.5312ZM121.755 39.6016L123.853 40.1368L124.119 39.0921L122.022 38.5569L121.755 39.6016ZM125.951 40.6721L128.049 41.2073L128.315 40.1626L126.217 39.6274L125.951 40.6721ZM130.146 41.7425L132.244 42.2777L132.511 41.233L130.413 40.6978L130.146 41.7425ZM134.342 42.813L136.44 43.3482L136.707 42.3035L134.609 41.7683L134.342 42.813ZM138.538 43.8834L140.636 44.4186L140.902 43.3739L138.804 42.8387L138.538 43.8834ZM142.734 44.9539L144.831 45.4891L145.098 44.4444L143 43.9092L142.734 44.9539ZM146.929 46.0243L149.027 46.5595L149.294 45.5148L147.196 44.9796L146.929 46.0243ZM151.125 47.0948L153.223 47.63L153.489 46.5853L151.392 46.05L151.125 47.0948ZM155.321 48.1652L157.419 48.7004L157.685 47.6557L155.587 47.1205L155.321 48.1652ZM159.516 49.2356L161.614 49.7709L161.881 48.7262L159.783 48.1909L159.516 49.2356ZM163.712 50.3061L165.81 50.8413L166.077 49.7966L163.979 49.2614L163.712 50.3061ZM167.908 51.3765L170.006 51.9118L170.272 50.8671L168.174 50.3318L167.908 51.3765ZM172.104 52.447L174.201 52.9822L174.468 51.9375L172.37 51.4023L172.104 52.447ZM176.299 53.5174L178.397 54.0527L178.664 53.008L176.566 52.4727L176.299 53.5174ZM180.495 54.5879L182.593 55.1231L182.859 54.0784L180.761 53.5432L180.495 54.5879ZM184.691 55.6583L186.789 56.1936L187.055 55.1489L184.957 54.6136L184.691 55.6583ZM188.886 56.7288L190.984 57.264L191.251 56.2193L189.153 55.6841L188.886 56.7288ZM193.082 57.7992L195.18 58.3345L195.446 57.2898L193.349 56.7545L193.082 57.7992ZM197.278 58.8697L199.376 59.4049L199.642 58.3602L197.544 57.825L197.278 58.8697ZM201.474 59.9401L203.571 60.4754L203.838 59.4307L201.74 58.8954L201.474 59.9401ZM205.669 61.0106L207.767 61.5458L208.034 60.5011L205.936 59.9659L205.669 61.0106ZM209.865 62.081L211.963 62.6163L212.229 61.5716L210.131 61.0363L209.865 62.081ZM214.061 63.1515L216.158 63.6867L216.425 62.642L214.327 62.1068L214.061 63.1515ZM218.256 64.2219L220.354 64.7572L220.621 63.7124L218.523 63.1772L218.256 64.2219ZM222.452 65.2924L224.55 65.8276L224.816 64.7829L222.719 64.2477L222.452 65.2924ZM226.648 66.3628L228.746 66.898L229.012 65.8533L226.914 65.3181L226.648 66.3628ZM230.843 67.4333L232.941 67.9685L233.208 66.9238L231.11 66.3886L230.843 67.4333ZM235.039 68.5037L237.137 69.0389L237.404 67.9942L235.306 67.459L235.039 68.5037ZM239.235 69.5742L240.284 69.8418L240.55 68.797L239.501 68.5295L239.235 69.5742ZM1.39523 7.7816C1.10674 7.708 0.813213 7.8822 0.739612 8.17069C0.66601 8.45917 0.840209 8.7527 1.1287 8.82631L1.39523 7.7816ZM1.1287 8.82631L2.17762 9.09392L2.44416 8.04922L1.39523 7.7816L1.1287 8.82631ZM4.27547 9.62914L6.37332 10.1644L6.63986 9.11966L4.54201 8.58444L4.27547 9.62914ZM8.47117 10.6996L10.569 11.2348L10.8356 10.1901L8.73771 9.65488L8.47117 10.6996ZM12.6669 11.77L14.7647 12.3053L15.0313 11.2606L12.9334 10.7253L12.6669 11.77ZM16.8626 12.8405L18.9604 13.3757L19.227 12.331L17.1291 11.7958L16.8626 12.8405ZM21.0583 13.9109L23.1561 14.4461L23.4227 13.4014L21.3248 12.8662L21.0583 13.9109ZM25.254 14.9814L27.3518 15.5166L27.6184 14.4719L25.5205 13.9367L25.254 14.9814ZM29.4497 16.0518L31.5475 16.587L31.8141 15.5423L29.7162 15.0071L29.4497 16.0518ZM33.6454 17.1223L35.7432 17.6575L36.0098 16.6128L33.9119 16.0776L33.6454 17.1223ZM37.8411 18.1927L39.9389 18.7279L40.2055 17.6832L38.1076 17.148L37.8411 18.1927ZM42.0368 19.2632L44.1346 19.7984L44.4012 18.7537L42.3033 18.2185L42.0368 19.2632ZM46.2325 20.3336L48.3303 20.8688L48.5969 19.8241L46.499 19.2889L46.2325 20.3336ZM50.4282 21.4041L52.526 21.9393L52.7926 20.8946L50.6947 20.3594L50.4282 21.4041ZM54.6239 22.4745L56.7217 23.0097L56.9883 21.965L54.8904 21.4298L54.6239 22.4745ZM58.8196 23.5449L60.9175 24.0802L61.184 23.0355L59.0861 22.5002L58.8196 23.5449ZM63.0153 24.6154L65.1131 25.1506L65.3797 24.1059L63.2818 23.5707L63.0153 24.6154ZM67.211 25.6858L69.3088 26.2211L69.5754 25.1764L67.4775 24.6411L67.211 25.6858ZM71.4067 26.7563L73.5045 27.2915L73.7711 26.2468L71.6732 25.7116L71.4067 26.7563ZM75.6024 27.8267L77.7002 28.3619L77.9668 27.3172L75.8689 26.782L75.6024 27.8267ZM79.7981 28.8972L81.8959 29.4324L82.1625 28.3877L80.0646 27.8525L79.7981 28.8972ZM83.9938 29.9676L86.0916 30.5028L86.3582 29.4581L84.2603 28.9229L83.9938 29.9676ZM88.1895 31.0381L90.2873 31.5733L90.5539 30.5286L88.456 29.9934L88.1895 31.0381ZM92.3852 32.1085L94.483 32.6437L94.7495 31.599L92.6517 31.0638L92.3852 32.1085ZM96.5809 33.1789L98.6787 33.7142L98.9452 32.6695L96.8474 32.1342L96.5809 33.1789ZM100.777 34.2494L102.874 34.7846L103.141 33.7399L101.043 33.2047L100.777 34.2494ZM104.972 35.3198L107.07 35.8551L107.337 34.8104L105.239 34.2751L104.972 35.3198ZM109.168 36.3903L111.266 36.9255L111.532 35.8808L109.434 35.3456L109.168 36.3903ZM113.364 37.4607L115.461 37.9959L115.728 36.9512L113.63 36.416L113.364 37.4607ZM117.559 38.5312L119.657 39.0664L119.924 38.0217L117.826 37.4865L117.559 38.5312ZM121.755 39.6016L123.853 40.1368L124.119 39.0921L122.022 38.5569L121.755 39.6016ZM125.951 40.6721L128.049 41.2073L128.315 40.1626L126.217 39.6274L125.951 40.6721ZM130.146 41.7425L132.244 42.2777L132.511 41.233L130.413 40.6978L130.146 41.7425ZM134.342 42.813L136.44 43.3482L136.707 42.3035L134.609 41.7683L134.342 42.813ZM138.538 43.8834L140.636 44.4186L140.902 43.3739L138.804 42.8387L138.538 43.8834ZM142.734 44.9539L144.831 45.4891L145.098 44.4444L143 43.9092L142.734 44.9539ZM146.929 46.0243L149.027 46.5595L149.294 45.5148L147.196 44.9796L146.929 46.0243ZM151.125 47.0948L153.223 47.63L153.489 46.5853L151.392 46.05L151.125 47.0948ZM155.321 48.1652L157.419 48.7004L157.685 47.6557L155.587 47.1205L155.321 48.1652ZM159.516 49.2356L161.614 49.7709L161.881 48.7262L159.783 48.1909L159.516 49.2356ZM163.712 50.3061L165.81 50.8413L166.077 49.7966L163.979 49.2614L163.712 50.3061ZM167.908 51.3765L170.006 51.9118L170.272 50.8671L168.174 50.3318L167.908 51.3765ZM172.104 52.447L174.201 52.9822L174.468 51.9375L172.37 51.4023L172.104 52.447ZM176.299 53.5174L178.397 54.0527L178.664 53.008L176.566 52.4727L176.299 53.5174ZM180.495 54.5879L182.593 55.1231L182.859 54.0784L180.761 53.5432L180.495 54.5879ZM184.691 55.6583L186.789 56.1936L187.055 55.1489L184.957 54.6136L184.691 55.6583ZM188.886 56.7288L190.984 57.264L191.251 56.2193L189.153 55.6841L188.886 56.7288ZM193.082 57.7992L195.18 58.3345L195.446 57.2898L193.349 56.7545L193.082 57.7992ZM197.278 58.8697L199.376 59.4049L199.642 58.3602L197.544 57.825L197.278 58.8697ZM201.474 59.9401L203.571 60.4754L203.838 59.4307L201.74 58.8954L201.474 59.9401ZM205.669 61.0106L207.767 61.5458L208.034 60.5011L205.936 59.9659L205.669 61.0106ZM209.865 62.081L211.963 62.6163L212.229 61.5716L210.131 61.0363L209.865 62.081ZM214.061 63.1515L216.158 63.6867L216.425 62.642L214.327 62.1068L214.061 63.1515ZM218.256 64.2219L220.354 64.7572L220.621 63.7124L218.523 63.1772L218.256 64.2219ZM222.452 65.2924L224.55 65.8276L224.816 64.7829L222.719 64.2477L222.452 65.2924ZM226.648 66.3628L228.746 66.898L229.012 65.8533L226.914 65.3181L226.648 66.3628ZM230.843 67.4333L232.941 67.9685L233.208 66.9238L231.11 66.3886L230.843 67.4333ZM235.039 68.5037L237.137 69.0389L237.404 67.9942L235.306 67.459L235.039 68.5037ZM239.235 69.5742L240.284 69.8418L240.55 68.797L239.501 68.5295L239.235 69.5742Z" fill="#25527E"/>
<path d="M276.645 6.3322C276.792 6.07302 276.701 5.74414 276.441 5.59761C276.182 5.45109 275.853 5.54241 275.707 5.80159L276.645 6.3322ZM240.886 69.5847L241.412 68.6545L240.474 68.1239L239.948 69.054L240.886 69.5847ZM242.464 66.7941L243.516 64.9337L242.577 64.4031L241.525 66.2635L242.464 66.7941ZM244.567 63.0734L245.619 61.213L244.681 60.6824L243.629 62.5428L244.567 63.0734ZM246.671 59.3526L247.723 57.4923L246.784 56.9617L245.732 58.822L246.671 59.3526ZM248.774 55.6319L249.826 53.7715L248.888 53.2409L247.836 55.1013L248.774 55.6319ZM250.878 51.9112L251.93 50.0508L250.991 49.5202L249.939 51.3806L250.878 51.9112ZM252.981 48.1904L254.033 46.3301L253.094 45.7995L252.043 47.6598L252.981 48.1904ZM255.085 44.4697L256.137 42.6093L255.198 42.0787L254.146 43.9391L255.085 44.4697ZM257.188 40.749L258.24 38.8886L257.301 38.358L256.25 40.2184L257.188 40.749ZM259.292 37.0282L260.343 35.1679L259.405 34.6373L258.353 36.4976L259.292 37.0282ZM261.395 33.3075L262.447 31.4471L261.508 30.9165L260.457 32.7769L261.395 33.3075ZM263.499 29.5868L264.55 27.7264L263.612 27.1958L262.56 29.0562L263.499 29.5868ZM265.602 25.8661L266.654 24.0057L265.715 23.4751L264.664 25.3354L265.602 25.8661ZM267.706 22.1453L268.757 20.285L267.819 19.7543L266.767 21.6147L267.706 22.1453ZM269.809 18.4246L270.861 16.5642L269.922 16.0336L268.871 17.894L269.809 18.4246ZM271.913 14.7039L272.964 12.8435L272.026 12.3129L270.974 14.1733L271.913 14.7039ZM274.016 10.9831L275.068 9.12276L274.129 8.59215L273.078 10.4525L274.016 10.9831ZM276.12 7.26239L276.645 6.3322L275.707 5.80159L275.181 6.73178L276.12 7.26239ZM276.645 6.3322C276.792 6.07302 276.701 5.74414 276.441 5.59761C276.182 5.45109 275.853 5.54241 275.707 5.80159L276.645 6.3322ZM240.886 69.5847L241.412 68.6545L240.474 68.1239L239.948 69.054L240.886 69.5847ZM242.464 66.7941L243.516 64.9337L242.577 64.4031L241.525 66.2635L242.464 66.7941ZM244.567 63.0734L245.619 61.213L244.681 60.6824L243.629 62.5428L244.567 63.0734ZM246.671 59.3526L247.723 57.4923L246.784 56.9617L245.732 58.822L246.671 59.3526ZM248.774 55.6319L249.826 53.7715L248.888 53.2409L247.836 55.1013L248.774 55.6319ZM250.878 51.9112L251.93 50.0508L250.991 49.5202L249.939 51.3806L250.878 51.9112ZM252.981 48.1904L254.033 46.3301L253.094 45.7995L252.043 47.6598L252.981 48.1904ZM255.085 44.4697L256.137 42.6093L255.198 42.0787L254.146 43.9391L255.085 44.4697ZM257.188 40.749L258.24 38.8886L257.301 38.358L256.25 40.2184L257.188 40.749ZM259.292 37.0282L260.343 35.1679L259.405 34.6373L258.353 36.4976L259.292 37.0282ZM261.395 33.3075L262.447 31.4471L261.508 30.9165L260.457 32.7769L261.395 33.3075ZM263.499 29.5868L264.55 27.7264L263.612 27.1958L262.56 29.0562L263.499 29.5868ZM265.602 25.8661L266.654 24.0057L265.715 23.4751L264.664 25.3354L265.602 25.8661ZM267.706 22.1453L268.757 20.285L267.819 19.7543L266.767 21.6147L267.706 22.1453ZM269.809 18.4246L270.861 16.5642L269.922 16.0336L268.871 17.894L269.809 18.4246ZM271.913 14.7039L272.964 12.8435L272.026 12.3129L270.974 14.1733L271.913 14.7039ZM274.016 10.9831L275.068 9.12276L274.129 8.59215L273.078 10.4525L274.016 10.9831ZM276.12 7.26239L276.645 6.3322L275.707 5.80159L275.181 6.73178L276.12 7.26239Z" fill="#25527E"/>
<path d="M294.499 97.4215C294.764 97.5564 295.089 97.4507 295.224 97.1853C295.359 96.9199 295.253 96.5953 294.988 96.4604L294.499 97.4215ZM240.173 69.7999L241.143 70.2931L241.631 69.332L240.661 68.8388L240.173 69.7999ZM243.083 71.2796L245.023 72.2661L245.512 71.305L243.572 70.3185L243.083 71.2796ZM246.963 73.2526L248.904 74.2391L249.392 73.278L247.452 72.2915L246.963 73.2526ZM250.844 75.2255L252.784 76.212L253.273 75.251L251.333 74.2645L250.844 75.2255ZM254.724 77.1985L256.665 78.185L257.153 77.2239L255.213 76.2374L254.724 77.1985ZM258.605 79.1715L260.545 80.158L261.034 79.1969L259.093 78.2104L258.605 79.1715ZM262.485 81.1445L264.426 82.1309L264.914 81.1699L262.974 80.1834L262.485 81.1445ZM266.366 83.1174L268.306 84.1039L268.795 83.1428L266.854 82.1564L266.366 83.1174ZM270.246 85.0904L272.186 86.0769L272.675 85.1158L270.735 84.1293L270.246 85.0904ZM274.127 87.0634L276.067 88.0499L276.556 87.0888L274.615 86.1023L274.127 87.0634ZM278.007 89.0364L279.947 90.0228L280.436 89.0618L278.496 88.0753L278.007 89.0364ZM281.888 91.0093L283.828 91.9958L284.316 91.0347L282.376 90.0482L281.888 91.0093ZM285.768 92.9823L287.708 93.9688L288.197 93.0077L286.257 92.0212L285.768 92.9823ZM289.649 94.9553L291.589 95.9418L292.077 94.9807L290.137 93.9942L289.649 94.9553ZM293.529 96.9282L294.499 97.4215L294.988 96.4604L294.018 95.9672L293.529 96.9282ZM294.499 97.4215C294.764 97.5564 295.089 97.4507 295.224 97.1853C295.359 96.9199 295.253 96.5953 294.988 96.4604L294.499 97.4215ZM240.173 69.7999L241.143 70.2931L241.631 69.332L240.661 68.8388L240.173 69.7999ZM243.083 71.2796L245.023 72.2661L245.512 71.305L243.572 70.3185L243.083 71.2796ZM246.963 73.2526L248.904 74.2391L249.392 73.278L247.452 72.2915L246.963 73.2526ZM250.844 75.2255L252.784 76.212L253.273 75.251L251.333 74.2645L250.844 75.2255ZM254.724 77.1985L256.665 78.185L257.153 77.2239L255.213 76.2374L254.724 77.1985ZM258.605 79.1715L260.545 80.158L261.034 79.1969L259.093 78.2104L258.605 79.1715ZM262.485 81.1445L264.426 82.1309L264.914 81.1699L262.974 80.1834L262.485 81.1445ZM266.366 83.1174L268.306 84.1039L268.795 83.1428L266.854 82.1564L266.366 83.1174ZM270.246 85.0904L272.186 86.0769L272.675 85.1158L270.735 84.1293L270.246 85.0904ZM274.127 87.0634L276.067 88.0499L276.556 87.0888L274.615 86.1023L274.127 87.0634ZM278.007 89.0364L279.947 90.0228L280.436 89.0618L278.496 88.0753L278.007 89.0364ZM281.888 91.0093L283.828 91.9958L284.316 91.0347L282.376 90.0482L281.888 91.0093ZM285.768 92.9823L287.708 93.9688L288.197 93.0077L286.257 92.0212L285.768 92.9823ZM289.649 94.9553L291.589 95.9418L292.077 94.9807L290.137 93.9942L289.649 94.9553ZM293.529 96.9282L294.499 97.4215L294.988 96.4604L294.018 95.9672L293.529 96.9282Z" fill="#25527E"/>
</svg>
