<svg width="23" height="25" viewBox="0 0 23 25" fill="none" xmlns="http://www.w3.org/2000/svg">
<path d="M17.2406 13.7109L16.8071 13.1518C15.415 11.5184 13.4643 10.313 12.6223 9.83254L12.2888 10.3916C11.9887 10.8895 11.3968 11.1341 10.855 10.9768H10.83C10.1631 10.741 9.78794 10.0422 9.93799 9.34338C10.0547 8.79308 10.2548 8.26899 10.5132 7.77983L9.99635 7.70121C9.5712 7.64007 9.13771 7.71868 8.76258 7.93706L8.40411 8.13796C7.92894 8.40874 7.37041 8.44368 6.8619 8.22531L6.15331 7.91959L3.27728 12.6277L4.24429 13.3091L4.77782 12.75C5.01123 12.5054 5.32801 12.3657 5.66147 12.3657C5.99492 12.3657 6.3117 12.5054 6.54512 12.75C6.72851 12.9422 6.84522 13.1868 6.8869 13.4663C7.29538 13.3877 7.70386 13.5187 7.99563 13.8244C8.22905 14.069 8.36243 14.4009 8.36243 14.7591C8.36243 14.8377 8.36243 14.9075 8.34576 14.9862C8.59585 15.0298 8.82093 15.1434 8.99599 15.3181L9.021 15.3443C9.31277 15.65 9.43782 16.078 9.36279 16.506C9.62121 16.5497 9.86297 16.672 10.038 16.8642L10.063 16.8904C10.2881 17.135 10.4048 17.4582 10.4048 17.7988C10.4048 18.0783 10.3215 18.3404 10.1714 18.5675L10.7383 19.2925C11.0217 19.572 11.5136 19.572 11.797 19.275C11.9387 19.1265 12.0221 18.9256 12.0221 18.716C12.0221 18.5151 11.9554 18.3229 11.822 18.1832L11.5719 17.9211C11.4219 17.7639 11.4219 17.5106 11.5719 17.3533C11.722 17.1961 11.9637 17.1961 12.1138 17.3533L12.5723 17.8338C12.864 18.1395 13.3475 18.1395 13.6477 17.8338C13.6477 17.8338 13.656 17.825 13.6643 17.8163C13.9478 17.5018 13.9394 17.0214 13.6477 16.7157L13.1391 16.1829C13.0641 16.1042 13.0308 16.0082 13.0308 15.9033C13.0308 15.7985 13.0724 15.6937 13.1391 15.6238C13.2892 15.4666 13.5309 15.4666 13.681 15.6238L14.4229 16.4012C14.5563 16.541 14.7564 16.6283 14.9565 16.6283C15.1565 16.6283 15.3566 16.5497 15.49 16.4012C15.6317 16.2527 15.7151 16.0518 15.7151 15.8422C15.7151 15.6326 15.64 15.4491 15.515 15.3006L14.748 14.497C14.673 14.4184 14.6397 14.3136 14.6397 14.2175C14.6397 14.1214 14.6814 14.0078 14.748 13.938C14.8981 13.7807 15.1399 13.7807 15.2899 13.938L16.2319 14.925C16.3903 15.091 16.6154 15.1871 16.8488 15.1783C17.0489 15.1783 17.2406 15.091 17.374 14.9425C17.499 14.794 17.5741 14.6018 17.5741 14.4097C17.5741 14.3136 17.5574 14.2175 17.5157 14.1214C17.4323 13.9904 17.3406 13.8681 17.2573 13.7371L17.2406 13.7109Z" fill="black"/>
<path d="M13.7977 7.73615L12.714 7.35181C12.2138 7.17711 11.6636 7.36928 11.3802 7.8235L11.3302 7.90211C11.0301 8.39127 10.805 8.93284 10.68 9.51808C10.6216 9.80633 10.7883 10.1033 11.0634 10.1994C11.2802 10.2605 11.5136 10.1645 11.6386 9.95483L12.1638 9.08133C12.2305 8.96778 12.3555 8.8979 12.4889 8.8979C12.5473 8.8979 12.6056 8.91537 12.6557 8.94157C12.814 9.02019 16.4403 10.9069 18.1576 13.6847L19.7749 12.7238L16.8405 7.91085C15.8235 8.14669 14.7731 8.08555 13.7894 7.73615H13.7977Z" fill="black"/>
<path d="M9.16272 17.2835C9.02934 17.2835 8.90429 17.3359 8.81259 17.432L8.02064 18.2618C7.82891 18.4627 7.82891 18.7946 8.02064 18.9955C8.20404 19.1877 8.53749 19.1877 8.72089 18.9955L9.51284 18.1657C9.60454 18.0696 9.65456 17.9386 9.65456 17.7988C9.65456 17.6591 9.60454 17.528 9.51284 17.432C9.42114 17.3359 9.2961 17.2835 9.16272 17.2835Z" fill="black"/>
<path d="M8.49582 15.9121C8.40412 15.816 8.27908 15.7636 8.1457 15.7636C8.01232 15.7636 7.88727 15.816 7.79557 15.9121L6.78688 16.969C6.69518 17.0651 6.64516 17.1961 6.64516 17.3359C6.64516 17.4756 6.69518 17.6066 6.78688 17.7027C6.97028 17.8949 7.30373 17.8949 7.48713 17.7027L8.49582 16.6458C8.68756 16.4449 8.68756 16.113 8.49582 15.9121Z" fill="black"/>
<path d="M7.61217 14.7503C7.61217 14.6106 7.56215 14.4795 7.47045 14.3834C7.37875 14.2874 7.25371 14.235 7.12033 14.235C6.98695 14.235 6.8619 14.2874 6.7702 14.3834L5.54476 15.6675C5.45306 15.7636 5.40305 15.8946 5.40305 16.0344C5.40305 16.1741 5.45306 16.3051 5.54476 16.4012C5.72816 16.5934 6.05328 16.5934 6.24501 16.4012L7.47045 15.1172C7.56215 15.0211 7.61217 14.8901 7.61217 14.7503Z" fill="black"/>
<path d="M6.01995 13.3178C5.92825 13.2217 5.8032 13.1693 5.66982 13.1693C5.53644 13.1693 5.4114 13.2217 5.3197 13.3178L4.311 14.3747C4.2193 14.4708 4.16928 14.6018 4.16928 14.7416C4.16928 14.8813 4.2193 15.0124 4.311 15.1085C4.4027 15.2045 4.52775 15.2569 4.66113 15.2569C4.79451 15.2569 4.91955 15.2045 5.01125 15.1085L6.01995 14.0515C6.21168 13.8506 6.21168 13.5187 6.01995 13.3178Z" fill="black"/>
<path d="M5.60308 6.50452L4.21092 5.56988C4.13589 5.5262 4.06086 5.5 3.9775 5.5C3.94415 5.5 3.91914 5.5 3.8858 5.5C3.77743 5.5262 3.67739 5.59608 3.61904 5.7009L0.0677678 11.5271C-0.0572769 11.7368 -0.00725902 12.0163 0.201149 12.156L1.59331 13.0819C1.69335 13.1431 1.81006 13.1693 1.91843 13.1431C2.0268 13.1169 2.12684 13.047 2.19353 12.9509L5.73646 7.1247C5.86151 6.91506 5.80315 6.63554 5.60308 6.50452ZM1.60999 12.0774C1.27653 12.0774 1.00143 11.7892 1.00143 11.4398C1.00143 11.0904 1.27653 10.8021 1.60999 10.8021C1.94344 10.8021 2.21854 11.0904 2.21854 11.4398C2.21854 11.7892 1.94344 12.0774 1.60999 12.0774Z" fill="black"/>
<path d="M22.9343 11.5271L19.3914 5.70965C19.3247 5.60483 19.233 5.53495 19.1246 5.51748C19.0913 5.51748 19.0579 5.50874 19.0246 5.50874C18.9412 5.50874 18.8662 5.53495 18.7912 5.57862L17.399 6.50453C17.1989 6.63555 17.1406 6.92381 17.2656 7.12471L20.8085 12.9422C20.8752 13.047 20.9669 13.1169 21.0836 13.1344C21.192 13.1606 21.3087 13.1344 21.4088 13.0732L22.8009 12.1473C23.001 12.0163 23.0593 11.728 22.9343 11.5184V11.5271ZM21.3921 12.0774C21.0586 12.0774 20.7835 11.7979 20.7835 11.4398C20.7835 11.0816 21.0586 10.8021 21.3921 10.8021C21.7255 10.8021 22.0006 11.0904 22.0006 11.4398C22.0006 11.7892 21.7339 12.0774 21.3921 12.0774Z" fill="black"/>
</svg>
