<svg width="23" height="25" viewBox="0 0 23 25" fill="none" xmlns="http://www.w3.org/2000/svg">
<path d="M11.5 12.341C10.4833 12.341 9.50831 12.7097 8.78942 13.3661C8.07053 14.0225 7.66667 14.9127 7.66667 15.841C7.66667 16.7693 8.07053 17.6595 8.78942 18.3159C9.50831 18.9723 10.4833 19.341 11.5 19.341C12.5167 19.341 13.4917 18.9723 14.2106 18.3159C14.9295 17.6595 15.3333 16.7693 15.3333 15.841C15.3333 14.9127 14.9295 14.0225 14.2106 13.3661C13.4917 12.7097 12.5167 12.341 11.5 12.341ZM9.85714 15.841C9.85714 15.4432 10.0302 15.0616 10.3383 14.7803C10.6464 14.499 11.0643 14.341 11.5 14.341C11.9357 14.341 12.3536 14.499 12.6617 14.7803C12.9698 15.0616 13.1429 15.4432 13.1429 15.841C13.1429 16.2388 12.9698 16.6204 12.6617 16.9017C12.3536 17.183 11.9357 17.341 11.5 17.341C11.0643 17.341 10.6464 17.183 10.3383 16.9017C10.0302 16.6204 9.85714 16.2388 9.85714 15.841Z" fill="black"/>
<path d="M17.5523 4.957L14.0705 0.5L1.26829 9.838L0.558571 9.831V9.841H0V21.841H23V9.841H21.9464L19.8501 4.242L17.5523 4.957ZM19.6321 9.841H8.6491L16.8294 7.295L18.4964 6.808L19.6321 9.841ZM15.3881 5.631L6.94381 8.259L13.6313 3.381L15.3881 5.631ZM2.19048 18.01V13.67C2.65286 13.521 3.07285 13.2794 3.41967 12.9629C3.76648 12.6464 4.03132 12.2631 4.19476 11.841H18.8052C18.9685 12.2633 19.2333 12.6468 19.5801 12.9635C19.927 13.2801 20.347 13.5219 20.8095 13.671V18.011C20.347 18.1601 19.927 18.4019 19.5801 18.7185C19.2333 19.0352 18.9685 19.4187 18.8052 19.841H4.19695C4.03287 19.4187 3.76758 19.0351 3.42045 18.7184C3.07332 18.4016 2.65311 18.1596 2.19048 18.01Z" fill="black"/>
</svg>
