<svg width="24" height="25" viewBox="0 0 24 25" fill="none" xmlns="http://www.w3.org/2000/svg">
<path d="M16.1992 16.5316C17.2159 16.0252 17.0731 14.0964 15.8813 12.2203C15.37 11.4125 14.7432 10.7595 14.1175 10.3041C13.3751 10.7969 12.474 11.0669 11.5461 11.0746C10.6168 11.0779 9.71117 10.8178 8.96218 10.3326C8.34158 10.7949 7.72375 11.4555 7.21975 12.2682C6.04786 14.1566 5.92809 16.0876 6.95279 16.5827C7.40936 16.8093 7.88864 16.6348 8.38149 16.2106C8.2913 16.6652 8.2474 17.126 8.25034 17.5874C8.26227 19.7446 9.21906 21.4824 10.3847 21.476C11.0876 21.4721 11.4322 20.8351 11.5939 19.8627C11.7654 20.8266 12.1179 21.4664 12.8158 21.4625C13.9765 21.4561 14.9215 19.707 14.9095 17.5506C14.9069 17.066 14.8528 16.6037 14.7624 16.1761C15.2632 16.5955 15.7427 16.7676 16.1984 16.5331L16.1992 16.5316ZM11.5404 10.3403C12.0118 10.344 12.4795 10.2647 12.9162 10.1071C13.3528 9.94953 13.7498 9.71682 14.084 9.42252C14.4181 9.12822 14.6828 8.7782 14.8626 8.39283C15.0424 8.00746 15.1337 7.59445 15.1313 7.17782C15.1288 6.76119 15.0326 6.34926 14.8483 5.96602C14.6639 5.58278 14.3951 5.23588 14.0575 4.9455C13.7198 4.65511 13.3201 4.42706 12.8816 4.2746C12.4431 4.12214 11.9745 4.04832 11.5032 4.05744C10.5699 4.07549 9.68157 4.41721 9.03005 5.0088C8.37852 5.60039 8.01607 6.39438 8.02096 7.21932C8.02585 8.04427 8.39768 8.83397 9.05617 9.41791C9.71465 10.0019 10.607 10.3332 11.5404 10.3403ZM18.6917 12.2936C19.4508 12.2698 20.1699 11.9855 20.6964 11.501C21.2229 11.0166 21.5154 10.3701 21.5117 9.69891C21.508 9.02767 21.2084 8.38449 20.6766 7.90589C20.1447 7.4273 19.4225 7.15096 18.6631 7.13555C17.8889 7.13993 17.148 7.41592 16.6033 7.90281C16.0586 8.38971 15.7548 9.04762 15.7587 9.73181C15.7626 10.416 16.0738 11.0704 16.624 11.5511C17.1742 12.0318 17.9183 12.2994 18.6925 12.2951L18.6917 12.2936ZM22.2563 13.8379C21.8355 13.1735 21.3224 12.6374 20.8085 12.2635C20.1986 12.6678 19.4586 12.8893 18.6966 12.8957C18.0685 12.8991 17.4828 12.7504 16.9696 12.5014C17.3861 13.3016 17.6457 14.113 17.6971 14.8397C17.7813 15.9523 17.3921 16.7798 16.6065 17.1696C16.4382 17.2525 16.255 17.3092 16.0649 17.3371C16.0192 17.6252 15.9884 17.9249 15.9901 18.2407C15.9999 20.0124 16.7847 21.4391 17.7426 21.4338C18.3193 21.4307 18.6038 20.9078 18.7357 20.1096C18.8755 20.9018 19.165 21.426 19.74 21.4228C20.6913 21.4175 21.4685 19.9814 21.4588 18.2119C21.4565 17.8132 21.4104 17.4338 21.3362 17.0818C21.7469 17.4269 22.1415 17.5679 22.516 17.3749C23.3504 16.9591 23.2336 15.3752 22.2555 13.8372L22.2563 13.8379ZM4.41117 12.3725C4.9882 12.3691 5.55135 12.2145 6.02941 11.9283C6.50748 11.6421 6.87899 11.2372 7.09698 10.7648C7.31497 10.2923 7.36965 9.77359 7.25411 9.2741C7.13857 8.77461 6.858 8.31681 6.44786 7.95858C6.03772 7.60035 5.51644 7.35778 4.94992 7.26153C4.38339 7.16528 3.79707 7.21967 3.26506 7.41783C2.73306 7.61599 2.27927 7.94903 1.96106 8.37482C1.64286 8.80062 1.47452 9.30007 1.47734 9.81002C1.48134 10.4942 1.79264 11.1487 2.34279 11.6295C2.89294 12.1103 3.63692 12.3781 4.41118 12.374L4.41117 12.3725ZM6.54422 17.2231C5.21794 16.5806 5.08592 14.6436 6.13957 12.5598C5.61455 12.8268 5.02072 12.9699 4.41533 12.9753C3.62105 12.9797 2.89193 12.7488 2.29325 12.3659C1.78436 12.7446 1.27804 13.2864 0.862976 13.9547C-0.0980763 15.5049 -0.195666 17.09 0.644087 17.495C1.01901 17.6824 1.41288 17.5385 1.81725 17.1904C1.74468 17.5637 1.70924 17.9417 1.71133 18.3203C1.72112 20.0913 2.50586 21.5173 3.46382 21.512C4.04042 21.5088 4.32501 20.9859 4.45686 20.1885C4.59834 20.9808 4.88788 21.5049 5.46116 21.5017C6.41414 21.4965 7.18971 20.0604 7.17992 18.2908C7.17817 17.9729 7.14327 17.6728 7.09432 17.3852C6.90188 17.3595 6.71602 17.3044 6.54505 17.2223L6.54422 17.2231Z" fill="black"/>
</svg>
