<svg width="704" height="165" viewBox="0 0 704 165" fill="none" xmlns="http://www.w3.org/2000/svg">
<path d="M194.665 24.1159C193.053 24.1159 191.757 24.6055 190.778 25.5847C189.845 26.5323 189.356 27.7957 189.34 29.3435V83.5144C189.371 85.0621 189.845 86.3256 190.778 87.2732C191.757 88.2523 193.053 88.7419 194.665 88.7419C196.276 88.7419 197.651 88.2523 198.631 87.2732C199.61 86.294 200.1 84.9989 200.1 83.3722V29.4698C200.1 27.8589 199.61 26.5481 198.631 25.5689C197.651 24.5897 196.339 24.1001 194.665 24.1001V24.1159Z" fill="white"/>
<path d="M133.437 34.9504H162.604C164.627 34.9504 166.191 34.5082 167.345 33.6238C168.466 32.6762 169.035 31.3653 169.035 29.6439C169.035 27.8276 168.466 26.4536 167.313 25.5218C166.159 24.5742 164.548 24.1162 162.446 24.1162H61.8442C59.7901 24.1162 58.1942 24.6848 57.0408 25.8061C55.8874 26.9432 55.3027 28.5383 55.3027 30.5915V72.57C55.3027 74.6231 55.919 76.2814 57.1514 77.5606C58.3838 78.8399 60.0271 79.4716 62.0654 79.4716C64.1036 79.4716 65.7311 78.8399 66.9319 77.5606C68.1328 76.2814 68.7332 74.6231 68.7332 72.57V66.379H96.8424C101.14 66.379 103.289 64.5786 103.289 60.9619C103.289 57.3452 101.14 55.4343 96.8424 55.4343H68.7174V35.0452H98.9597C99.5285 35.0452 100.066 34.9978 100.571 34.9346H120.164V91.5851C120.164 93.6382 120.78 95.2807 122.013 96.5599C123.245 97.8234 124.873 98.4709 126.911 98.4709C128.949 98.4709 130.561 97.8392 131.762 96.5599C132.678 95.5807 133.231 94.3647 133.452 92.9433V66.4106H133.5V66.2842H162.778C164.737 66.2842 166.27 65.842 167.392 65.005C168.482 64.089 169.035 62.8097 169.035 61.1356C169.035 59.3668 168.466 58.0244 167.36 57.1083C166.238 56.1923 164.658 55.7343 162.62 55.7343H133.452V34.9662L133.437 34.9504Z" fill="white"/>
<path d="M319.74 58.0241L286.085 26.3112C284.837 25.0477 283.399 24.416 281.803 24.416H261.547H261.499C259.445 24.416 257.818 25.0477 256.585 26.327C255.353 27.6063 254.737 29.2645 254.737 31.3177V65.21C254.737 67.2631 255.353 68.9214 256.585 70.2007C257.818 71.4642 259.461 72.1117 261.499 72.1117C263.538 72.1117 265.292 71.4799 266.524 70.2007C267.756 68.9214 268.373 67.2631 268.373 65.21V35.3607H278.311L305.962 60.7563L276.305 88.4577H245.588L245.478 88.5683C245.351 88.4261 245.241 88.284 245.098 88.1418L242.602 85.8044L213.892 58.8611C212.47 57.5661 210.938 56.9659 209.263 57.0923C207.667 57.2028 206.308 57.9135 205.17 59.2244C204.049 60.5352 203.543 62.0198 203.654 63.6939C203.78 65.4311 204.617 66.9947 206.182 68.3529L233.738 94.2065L236.219 96.5281C236.44 96.7492 236.661 96.9229 236.882 97.0966L236.819 97.1598C238.304 98.6444 239.916 99.2919 241.686 99.2919H279.07C279.291 99.2919 279.496 99.2603 279.717 99.2445C279.86 99.2445 279.986 99.2919 280.128 99.2919C281.866 99.2919 283.478 98.5496 284.932 97.0808L319.74 64.3256C323.517 60.7721 319.74 58.0241 319.74 58.0241Z" fill="white"/>
<path d="M62.0654 83.3564C60.0271 83.3564 58.3838 83.9882 57.1514 85.2674C55.919 86.5467 55.3027 88.205 55.3027 90.2581V92.7061C55.3027 94.7592 55.919 96.4175 57.1514 97.6967C58.3838 98.976 60.0271 99.6077 62.0654 99.6077C64.1036 99.6077 65.8575 98.976 67.09 97.6967C68.3224 96.4175 68.9386 94.7592 68.9386 92.7061V90.2581C68.9386 88.205 68.3224 86.5467 67.09 85.2674C65.8575 83.9882 64.1826 83.3564 62.0654 83.3564Z" fill="white"/>
<path d="M343.852 46.1632C342.62 44.8839 340.977 44.2522 338.938 44.2522C336.9 44.2522 335.273 44.8839 334.072 46.1632C332.871 47.4266 332.286 49.1007 332.286 51.1539V88.6787H307.859C303.561 88.6787 301.412 90.4791 301.412 94.0958C301.412 97.7124 303.561 99.6234 307.859 99.6234H339.16C341.198 99.6234 342.81 99.0548 343.963 97.9177C345.132 96.7806 345.717 95.1855 345.717 93.1324V51.1539C345.717 49.1007 345.101 47.4424 343.868 46.1632H343.852Z" fill="white"/>
<path d="M338.939 40.3675C340.993 40.3675 342.62 39.7358 343.853 38.4565C345.085 37.1772 345.701 35.519 345.701 33.4658V31.0179C345.701 28.9647 345.085 27.3064 343.853 26.0272C342.62 24.7479 340.977 24.1162 338.939 24.1162C336.9 24.1162 335.147 24.7479 333.914 26.0272C332.682 27.3064 332.065 28.9647 332.065 31.0179V33.4658C332.065 35.519 332.682 37.1772 333.914 38.4565C335.147 39.7358 336.821 40.3675 338.939 40.3675Z" fill="white"/>
<path d="M244.673 34.0815V30.0069C244.673 30.0069 244.673 29.8805 244.673 29.8173V29.7542C244.673 29.5647 244.673 29.3909 244.641 29.2014C244.625 29.0277 244.594 28.854 244.562 28.6802C244.562 28.6802 244.562 28.6644 244.562 28.6486C244.53 28.4907 244.483 28.317 244.436 28.1591V28.1275C244.388 27.9695 244.341 27.8274 244.278 27.6853C244.278 27.6695 244.278 27.6537 244.262 27.6221C244.199 27.4799 244.135 27.3536 244.072 27.2273C244.072 27.1957 244.041 27.1641 244.025 27.1483C243.962 27.0377 243.883 26.9114 243.819 26.8008C243.788 26.7535 243.772 26.7219 243.74 26.6745C243.677 26.5797 243.598 26.485 243.519 26.3902C243.472 26.3428 243.44 26.2797 243.393 26.2323C243.361 26.1849 243.33 26.1533 243.282 26.1059C243.251 26.0743 243.203 26.027 243.172 25.9954C243.124 25.9322 243.061 25.8848 243.014 25.8374C242.935 25.7743 242.871 25.6953 242.792 25.6321C242.729 25.5848 242.666 25.5374 242.603 25.4742C242.524 25.411 242.445 25.3636 242.366 25.3005C242.303 25.2531 242.224 25.2057 242.145 25.1583C242.066 25.111 242.002 25.0636 241.923 25.0162C241.844 24.9688 241.75 24.9214 241.671 24.8741C241.607 24.8425 241.544 24.8109 241.465 24.7793C241.37 24.7319 241.26 24.7003 241.165 24.6529C241.102 24.6372 241.054 24.6056 240.991 24.5898C240.88 24.5582 240.77 24.5266 240.643 24.495C240.596 24.495 240.533 24.4634 240.485 24.4476C240.375 24.416 240.248 24.4003 240.138 24.3845C240.075 24.3845 240.027 24.3687 239.964 24.3529C239.853 24.3529 239.743 24.3213 239.632 24.3213C239.569 24.3213 239.49 24.3213 239.427 24.3213C239.379 24.3213 239.316 24.3213 239.269 24.3213H225.807C222.82 24.3213 220.387 26.7535 220.387 29.7542C220.387 32.597 222.552 34.9186 225.317 35.1713L191.077 66.5051C189.939 67.5317 189.307 69.0004 189.307 70.5324V87.5891H125.394C122.408 87.5891 119.975 90.0213 119.975 93.022C119.975 96.0227 122.392 98.4549 125.394 98.4549H194.711C197.698 98.4549 200.131 96.0227 200.131 93.022V72.933L233.849 42.0729V42.1677C233.849 45.1684 236.283 47.6006 239.269 47.6006C242.255 47.6006 244.688 45.1684 244.688 42.1677V34.0815H244.673Z" fill="url(#paint0_linear_688_23827)"/>
<path d="M507.041 12.9818C507.041 3.36366 500.152 4.42181 500.152 4.42181V1.6422C500.152 1.6422 511.023 0.852535 515.7 4.51657C520.377 8.16482 520.74 12.7133 520.74 17.5776V57.6451C520.74 57.6451 519.666 70.8009 530.205 70.8641C540.049 70.8641 539.575 57.9768 539.575 57.9768V49.4484C539.575 44.5841 539.954 40.0356 544.631 36.3874C549.308 32.7391 560.179 33.513 560.179 33.513V36.2768C560.179 36.2768 553.29 35.2187 553.29 44.8368V53.2388C553.29 53.2388 554.854 70.9589 540.175 72.1749C553.874 74.2439 553.29 91.0479 553.29 91.0479V110.742C553.29 120.36 560.179 119.302 560.179 119.302V122.066C560.179 122.066 549.292 122.856 544.631 119.191C539.954 115.543 539.591 111.011 539.591 106.13V86.2941C539.591 86.2941 540.049 73.4068 530.205 73.4068C519.666 73.47 520.74 86.6258 520.74 86.6258V106.13C520.74 111.011 520.377 115.543 515.7 119.191C511.023 122.84 500.152 122.066 500.152 122.066V119.302C500.152 119.302 507.041 120.36 507.041 110.742V12.9818Z" fill="white"/>
<path d="M567.083 12.9818C567.083 3.36366 560.194 4.42181 560.194 4.42181V1.6422C560.194 1.6422 571.065 0.852535 575.742 4.51657C580.419 8.16482 580.782 12.7133 580.782 17.5776V57.6451C580.782 57.6451 579.724 70.8009 590.247 70.8641C600.091 70.8641 599.617 57.9768 599.617 57.9768V49.4484C599.617 44.5841 599.996 40.0356 604.673 36.3874C609.35 32.7391 620.221 33.513 620.221 33.513V36.2768C620.221 36.2768 613.332 35.2187 613.332 44.8368V53.2388C613.332 53.2388 614.896 70.9589 600.217 72.1749C613.916 74.2439 613.332 91.0479 613.332 91.0479V110.742C613.332 120.36 620.221 119.302 620.221 119.302V122.066C620.221 122.066 609.35 122.856 604.673 119.191C599.996 115.543 599.633 111.011 599.633 106.13V86.2941C599.633 86.2941 600.091 73.4068 590.247 73.4068C579.708 73.47 580.782 86.6258 580.782 86.6258V106.13C580.782 111.011 580.403 115.543 575.742 119.191C571.065 122.84 560.194 122.066 560.194 122.066V119.302C560.194 119.302 567.083 120.36 567.083 110.742V12.9818Z" fill="white"/>
<path d="M626.604 49.4485C626.604 44.5684 626.968 40.0357 631.645 36.3874C636.322 32.7392 647.193 33.5289 647.193 33.5289V36.2927C647.193 36.2927 640.304 35.2345 640.304 44.8526V110.758C640.304 120.376 647.193 119.318 647.193 119.318V122.082C647.193 122.082 636.322 122.871 631.645 119.207C626.968 115.559 626.604 111.026 626.604 106.146V49.4485Z" fill="white"/>
<path fill-rule="evenodd" clip-rule="evenodd" d="M411.652 78.1925C409.866 82.0776 407.386 85.6943 404.241 88.8687C397.51 95.6283 388.219 99.8293 378.012 99.8293H371.107V122.145H378.012C394.35 122.145 409.203 115.433 419.947 104.646C420.911 103.667 421.843 102.672 422.728 101.646C417.403 94.5227 413.722 86.5313 411.636 78.1925M448.372 88.8687C441.246 81.6986 437.407 71.9699 437.407 61.878C437.407 49.4803 433.709 37.0984 426.299 26.6433C424.419 23.99 422.301 21.4631 419.931 19.0941C409.203 8.29148 394.366 1.57935 378.012 1.57935H371.107V23.8952H378.012C388.219 23.8952 397.494 28.0962 404.241 34.8558C411.541 42.1996 415.207 52.023 415.207 61.8465C415.207 77.8924 421.385 93.2909 432.682 104.63C443.427 115.433 458.279 122.129 474.617 122.129H481.522V99.8135H474.617C464.41 99.8135 455.119 95.6125 448.388 88.8529L448.372 88.8687ZM448.372 34.8716C455.103 28.112 464.394 23.911 474.601 23.911H481.506V1.57935H474.601C458.263 1.57935 443.427 8.29148 432.666 19.0941C431.687 20.0733 430.77 21.0682 429.886 22.0948C435.21 29.2018 438.892 37.209 440.978 45.5478C442.763 41.6627 445.228 38.046 448.388 34.8873L448.372 34.8716Z" fill="url(#paint1_linear_688_23827)"/>
<g opacity="0.43">
<path d="M466.418 67.4846C466.749 67.8005 467.05 68.1479 467.334 68.5112C468.187 69.6325 468.772 70.8644 469.309 72.0173C469.846 73.1702 470.368 74.2441 471 75.1601C471.632 76.0761 472.374 76.8184 473.196 77.2922C474.002 77.7818 474.918 77.9239 475.787 78.0819C476.656 78.224 477.478 78.4135 478.142 78.7452C478.473 78.9189 478.774 79.1084 479.011 79.3453C479.216 79.5507 479.374 79.7718 479.5 79.9771C479.5 79.8191 479.5 79.6612 479.5 79.5033C479.485 78.0661 479.311 76.3604 478.979 74.4652C478.821 73.5966 478.631 72.6806 478.426 71.7488C478.394 71.7014 478.363 71.6698 478.331 71.6224C477.81 70.9749 477.083 70.0115 475.977 69.0323C475.424 68.5585 474.776 68.0689 474.018 67.6741C473.259 67.2793 472.406 66.9634 471.474 66.8371C470.541 66.7107 469.53 66.8055 468.456 66.995C467.919 67.0898 467.366 67.2003 466.797 67.3109C466.655 67.3425 466.512 67.3582 466.37 67.3898L466.433 67.453L466.418 67.4846Z" fill="white"/>
<path d="M462.578 54.4079C462.72 54.2974 462.878 54.1868 463.02 54.0921C463.905 53.5077 464.963 53.1129 466.069 52.9865C466.891 52.8918 467.744 52.9707 468.566 53.1603C468.376 53.0339 468.171 52.8918 467.966 52.7496C467.176 52.2285 466.196 51.6599 465.058 51.1703C463.936 50.6965 462.609 50.3333 461.219 50.3017C459.828 50.2543 458.533 50.6018 457.411 51.0913C456.289 51.5809 455.325 52.1811 454.551 52.7181C453.856 53.1919 453.303 53.6341 452.876 53.9499C453.081 53.871 453.318 53.8078 453.603 53.7446C453.887 53.6814 454.219 53.6656 454.567 53.6972C454.914 53.7288 455.262 53.8078 455.609 53.9025C456.305 54.0921 457.032 54.3606 457.758 54.5185C458.485 54.6764 459.212 54.7238 459.876 54.708C460.539 54.6922 461.14 54.6132 461.645 54.5343C461.993 54.4869 462.293 54.4395 462.546 54.4079H462.578Z" fill="white"/>
<path d="M467.302 44.711C467.444 46.0692 467.745 47.3169 468.108 48.4224C468.851 50.6335 469.862 52.276 470.573 53.3815C470.762 53.6816 470.936 53.9343 471.094 54.1554C471.363 54.2975 471.616 54.4555 471.869 54.6292C471.647 54.2817 471.379 53.8869 471.142 53.4289C470.999 53.1762 470.873 52.9235 470.715 52.655C470.589 52.3707 470.446 52.0865 470.304 51.7864C470.162 51.4863 470.036 51.1705 469.909 50.823C469.846 50.6493 469.783 50.4914 469.72 50.3176C469.656 50.1439 469.609 49.9702 469.546 49.7807C469.498 49.6069 469.435 49.4174 469.372 49.2279C469.325 49.0384 469.277 48.8488 469.23 48.6593C469.182 48.4698 469.135 48.2645 469.103 48.075C469.072 47.8697 469.04 47.6644 469.009 47.4748C468.93 47.0642 468.914 46.6378 468.866 46.2114C468.866 45.9903 468.866 45.785 468.851 45.5638V45.2322V44.9005C468.914 43.1317 469.419 41.4576 470.146 40.0994C470.889 38.7412 471.853 37.7146 472.769 37.0197C473.227 36.6564 473.686 36.4038 474.081 36.1826C474.491 35.9773 474.855 35.8352 475.155 35.7404C475.313 35.6931 475.439 35.6615 475.566 35.6299C475.692 35.5983 475.787 35.5983 475.866 35.5825C476.04 35.5667 476.119 35.5825 476.135 35.6141C476.15 35.6457 476.008 35.772 475.803 36.0247C475.613 36.2932 475.376 36.7512 475.376 37.3671C475.376 37.6672 475.439 37.9989 475.597 38.3305C475.755 38.6622 476.008 38.9781 476.34 39.2307C477.004 39.7677 478.031 40.0204 479.074 39.7203C480.101 39.4361 481.128 38.6148 481.554 37.4461C481.981 36.2774 481.807 34.7928 481.017 33.5926C480.638 32.9924 480.085 32.487 479.453 32.108C478.805 31.7289 478.062 31.4763 477.288 31.3657C475.724 31.1288 474.049 31.5552 472.595 32.4396C471.869 32.8819 471.205 33.4188 470.604 34.019C470.02 34.6191 469.514 35.2824 469.088 35.9931C468.866 36.3406 468.693 36.7038 468.503 37.0671C468.424 37.2566 468.345 37.4303 468.25 37.6198C468.171 37.7936 468.108 37.9989 468.029 38.1726C467.76 38.9149 467.539 39.673 467.413 40.4152C467.128 41.9156 467.097 43.3686 467.255 44.7268L467.302 44.711Z" fill="white"/>
<path d="M479.958 74.3075C480.242 76.2501 480.337 78.0189 480.258 79.5193C480.258 79.5667 480.258 79.5983 480.258 79.6457C480.479 78.3664 480.653 76.8345 480.685 75.0972C480.685 73.6758 480.606 72.1281 480.337 70.4856C480.195 69.6643 480.005 68.8273 479.784 67.9744C479.547 67.1216 479.262 66.2688 478.915 65.4001C478.22 63.6787 477.303 61.9414 476.102 60.2989C475.502 59.4777 474.854 58.688 474.143 57.9299C473.78 57.5509 473.4 57.1876 473.021 56.8402C472.626 56.4927 472.215 56.1611 471.789 55.861C470.936 55.2451 470.019 54.7397 469.087 54.408C468.139 54.0764 467.159 53.95 466.227 54.0448C465.295 54.1395 464.394 54.4712 463.62 54.9608C462.846 55.4504 462.198 56.0979 461.724 56.8402C460.776 58.309 460.586 60.1568 461.171 61.5782C461.455 62.2889 461.929 62.889 462.482 63.3312C463.035 63.7734 463.683 64.0577 464.315 64.1367C464.947 64.2156 465.579 64.1051 466.116 63.8682C466.385 63.7576 466.638 63.5997 466.859 63.4418C467.08 63.268 467.27 63.0785 467.428 62.8732C467.76 62.4626 467.933 62.0046 467.997 61.5624C468.06 61.1202 468.028 60.6937 467.933 60.3305C467.839 59.9673 467.696 59.6514 467.554 59.3987C467.396 59.146 467.238 58.9565 467.096 58.8143C466.812 58.5301 466.606 58.4195 466.622 58.3721C466.606 58.309 467.033 58.0878 467.886 58.0563C468.313 58.0563 468.834 58.1036 469.419 58.2774C470.003 58.4353 470.635 58.7196 471.299 59.0828C471.631 59.2723 471.963 59.4777 472.294 59.6988C472.468 59.8093 472.626 59.9357 472.8 60.0462C472.974 60.1726 473.148 60.3147 473.321 60.4568C474.001 61.0412 474.649 61.7519 475.249 62.5258C475.85 63.3154 476.434 64.1525 476.987 65.0843C477.272 65.5739 477.493 66.0477 477.746 66.5373C477.998 67.0268 478.235 67.5322 478.457 68.0692C478.678 68.6062 478.867 69.1589 479.01 69.6959C479.152 70.2329 479.278 70.7698 479.389 71.291C479.61 72.3334 479.8 73.3441 479.942 74.3075H479.958Z" fill="white"/>
<path d="M474.901 57.1876C475.659 57.9773 476.339 58.8143 476.955 59.683C478.093 61.2623 478.978 62.9522 479.657 64.6105C479.673 64.2314 479.72 63.7892 479.768 63.2996C479.847 62.6363 479.973 61.8782 480.115 61.0412C480.257 60.2042 480.431 59.3039 480.558 58.3405C480.684 57.3772 480.779 56.3506 480.7 55.2924C480.637 54.2343 480.384 53.1604 479.878 52.1338C479.388 51.1072 478.677 50.128 477.824 49.2278C477.239 48.6119 476.592 48.0433 475.928 47.538L475.675 47.3484C475.675 47.3484 475.644 47.3168 475.628 47.3168C475.628 47.3168 475.596 47.2853 475.596 47.3011V47.3484V47.4432C475.596 47.5064 475.596 47.5695 475.612 47.6327C475.659 48.1381 475.659 48.6435 475.612 49.1173C475.517 50.0649 475.264 50.9335 475.043 51.7074C474.806 52.497 474.585 53.2077 474.443 53.8868C474.364 54.2185 474.316 54.5502 474.285 54.8502C474.253 55.1661 474.237 55.4504 474.285 55.7189C474.332 56.1769 474.459 56.5875 474.601 56.9507C474.696 57.0455 474.775 57.1245 474.869 57.2192L474.901 57.1876Z" fill="white"/>
<path d="M466.67 50.0965C467.539 50.7756 468.313 51.2652 468.819 51.6285C468.819 51.6285 468.819 51.6285 468.835 51.6285C468.835 51.6285 468.835 51.6127 468.819 51.5969C468.313 50.7756 467.808 49.7965 467.381 48.6593C466.955 47.5222 466.591 46.2272 466.401 44.8058C466.196 43.3844 466.196 41.8209 466.465 40.2099C466.244 40.0362 465.928 39.7835 465.548 39.4677C465.122 39.136 464.616 38.7254 464 38.299C463.7 38.0936 463.368 37.8725 463.004 37.6672C462.91 37.6198 462.831 37.5567 462.736 37.5093H462.688C462.688 37.5093 462.625 37.4619 462.609 37.4619C462.609 37.4935 462.609 37.5251 462.625 37.5567C462.625 37.5567 462.625 37.5567 462.625 37.6041V37.6988C462.625 37.8252 462.625 37.9515 462.641 38.0621C462.641 38.5517 462.673 39.0728 462.688 39.594C462.72 40.6364 462.752 41.7261 462.862 42.8316C463.052 44.4899 463.463 46.0377 464.158 47.2695C464.837 48.5014 465.801 49.3858 466.654 50.0807L466.67 50.0965Z" fill="white"/>
<path d="M477.066 85.0628C477.825 84.1468 478.441 83.2624 478.946 82.4569C479.452 81.6515 479.863 80.9408 480.179 80.3406C480.179 80.309 480.211 80.2932 480.226 80.2617C479.91 80.6881 479.531 81.1619 479.073 81.683C478.299 82.5833 477.287 83.594 476.039 84.5732C474.791 85.5366 473.29 86.4842 471.599 87.1791C471.378 87.2581 471.173 87.3528 470.967 87.4318C470.762 87.5108 470.541 87.5739 470.319 87.6529C469.893 87.8108 469.466 87.9056 469.055 88.0161C468.17 88.2373 467.317 88.2688 466.511 88.253C465.706 88.2373 464.947 88.1425 464.252 88.0004C463.904 87.9214 463.573 87.8424 463.241 87.7319C462.909 87.6213 462.609 87.4792 462.324 87.3212C461.218 86.7053 460.602 85.8051 460.365 85.1576C460.302 84.9996 460.27 84.8417 460.239 84.7154C460.223 84.589 460.207 84.4785 460.207 84.3837C460.207 84.2258 460.223 84.131 460.254 84.1152C460.318 84.1152 460.381 84.3047 460.555 84.6206C460.744 84.8891 461.139 85.1734 461.708 85.2839C462.008 85.3471 462.356 85.3471 462.704 85.2523C463.051 85.1576 463.399 84.9522 463.699 84.6522C463.983 84.3363 464.236 83.9415 464.363 83.4677C464.426 83.2308 464.473 82.9781 464.473 82.7254C464.473 82.4727 464.457 82.2042 464.394 81.9673C464.141 80.9566 463.146 80.0405 461.913 79.8352C461.297 79.7247 460.649 79.8036 460.049 80.0721C459.449 80.3406 458.88 80.7828 458.453 81.3514C458.027 81.9199 457.758 82.6148 457.663 83.3571C457.568 84.0994 457.647 84.8891 457.884 85.6472C458.374 87.1475 459.528 88.5057 461.013 89.3902C461.74 89.8482 462.546 90.1798 463.367 90.4009C464.189 90.622 465.026 90.7484 465.848 90.7642C467.507 90.7958 469.103 90.4799 470.541 89.9429C471.994 89.4217 473.243 88.6321 474.317 87.7792C475.391 86.9106 476.292 85.9788 477.05 85.0628H477.066Z" fill="white"/>
<path d="M453.776 67.832C453.776 67.832 453.776 67.7689 453.776 67.7373C453.665 67.7215 453.554 67.6899 453.412 67.6583C453.175 67.5951 452.907 67.5478 452.591 67.4846C452.275 67.4372 451.943 67.3898 451.579 67.3582C451.216 67.3267 450.868 67.3267 450.552 67.3267C450.473 67.3267 450.41 67.3267 450.331 67.3267C450.378 67.3582 450.426 67.4056 450.473 67.4372C450.679 67.6109 450.868 67.832 451.058 68.0689C451.232 68.3058 451.421 68.5585 451.595 68.827C451.959 69.364 452.306 69.9483 452.733 70.4853C453.586 71.5593 454.629 72.3015 455.45 72.7438C455.593 72.8227 455.735 72.9017 455.861 72.9649C455.45 72.4279 455.055 71.8119 454.724 71.1328C454.25 70.1694 453.918 69.0481 453.776 67.832Z" fill="white"/>
<path d="M476.166 93.1804L476.276 93.0699C476.576 92.8014 476.893 92.5329 477.193 92.2644C477.793 91.7117 478.394 91.1115 478.899 90.4324C479.91 89.1374 480.495 87.6528 480.511 86.2946C480.511 86.2156 480.511 86.1208 480.511 86.0419C480.511 85.9629 480.511 85.8839 480.495 85.7892C480.479 85.5997 480.463 85.4101 480.448 85.2364C480.416 84.8732 480.4 84.5099 480.4 84.1625C480.4 83.4676 480.4 82.8358 480.448 82.2515C480.495 81.604 480.558 81.0196 480.637 80.53C480.637 80.5458 480.637 80.5616 480.621 80.5774C480.321 81.3039 479.91 82.1567 479.389 83.1359C478.852 84.1151 478.188 85.189 477.335 86.3104C477.003 86.7368 476.64 87.179 476.26 87.6212C476.213 87.9687 476.134 88.4267 476.071 88.9636C475.992 89.6112 475.897 90.4008 475.913 91.2852C475.913 91.7275 475.944 92.2013 476.008 92.6751C476.008 92.8014 476.039 92.9119 476.071 93.0383V93.1331L476.087 93.1488C476.087 93.1488 476.118 93.212 476.118 93.2278L476.15 93.1804H476.166Z" fill="white"/>
<path d="M462.878 77.1505C462.846 75.6186 463.368 74.1182 464.332 73.0285C464.458 72.9021 464.584 72.76 464.711 72.6336L464.916 72.4599L465.074 72.3494C465.074 71.9229 465.09 71.3386 464.964 70.6279C464.9 70.2331 464.79 69.8066 464.6 69.3802C464.411 68.9538 464.158 68.5116 463.779 68.1641C463.731 68.1168 463.684 68.0694 463.636 68.022L463.478 67.8957C463.384 67.8167 463.257 67.7377 463.147 67.6745C462.925 67.564 462.704 67.5008 462.451 67.5324C462.199 67.564 461.962 67.643 461.677 67.8009C461.551 67.8641 461.409 67.9746 461.282 68.0694C461.156 68.1641 461.013 68.2747 460.871 68.3852C460.603 68.6064 460.318 68.8433 460.05 69.0644C460.05 69.0328 460.05 68.9696 460.05 68.9064V68.7327C460.05 68.6064 460.065 68.4958 460.081 68.3695C460.081 68.1326 460.113 67.8799 460.113 67.6272C460.113 67.3745 460.113 67.1376 460.113 66.8849C460.113 66.7585 460.097 66.6164 460.081 66.4901C460.018 65.9689 459.923 65.4477 459.749 64.9265C459.576 64.4053 459.354 63.9 459.07 63.4262C458.77 62.9524 458.406 62.5101 457.964 62.1469C457.537 61.7837 457.032 61.4836 456.479 61.2941C455.91 61.1046 455.294 60.9782 454.662 60.9308C454.03 60.8677 453.366 60.8834 452.687 60.9308H452.592L452.702 61.0256C452.797 61.0888 452.876 61.1677 452.971 61.2309C453.145 61.373 453.303 61.531 453.477 61.6889C454.124 62.3206 454.646 63.0787 454.993 63.9C455.341 64.737 455.452 65.6056 455.499 66.3953C455.546 67.2008 455.546 67.943 455.626 68.6537C455.768 70.0593 456.131 71.386 456.637 72.5389C457.142 73.6918 457.79 74.7026 458.485 75.5396C459.876 77.2137 461.409 78.1771 462.483 78.7614C462.767 78.9194 463.036 79.0457 463.257 79.1563C463.02 78.5245 462.862 77.8454 462.846 77.1505H462.878Z" fill="white"/>
<path d="M446.602 53.1764C447.377 53.05 448.483 52.8447 449.731 52.2761C450.347 51.9919 450.995 51.6128 451.58 51.0917C451.88 50.839 452.148 50.5389 452.401 50.223C452.654 49.8914 452.891 49.5439 453.081 49.1491C453.27 48.7543 453.428 48.3436 453.539 47.9014C453.649 47.4592 453.697 47.0012 453.681 46.5432C453.681 46.4326 453.681 46.3063 453.65 46.1957V46.022C453.65 46.022 453.602 45.9115 453.602 45.8483C453.571 45.6114 453.492 45.3903 453.413 45.185C453.239 44.7586 453.002 44.3637 452.67 44.0952C452.354 43.8268 451.927 43.6846 451.548 43.7004C451.153 43.7004 450.853 43.8899 450.616 44.2058C450.126 44.8533 450 45.8641 449.794 46.7801C449.605 47.6961 449.383 48.6279 448.988 49.4334C448.593 50.2388 448.072 50.8863 447.535 51.4075C446.76 52.134 445.97 52.5762 445.291 52.8447C445.607 52.9395 445.907 53.0658 446.207 53.2395C446.334 53.2237 446.46 53.208 446.602 53.1764Z" fill="white"/>
<path d="M454.077 40.6047C454.077 40.6047 454.077 40.6205 454.077 40.6363C453.809 41.5681 453.777 41.9471 453.698 42.263C453.919 41.9629 454.441 40.9995 454.709 40.6521C455.421 39.7519 456.384 39.0254 457.285 39.0096C457.727 39.0096 458.075 39.1833 458.233 39.3728C458.407 39.5623 458.407 39.7045 458.359 39.7361C458.312 39.7677 458.201 39.7045 458.043 39.6571C458.012 39.6571 457.98 39.6413 457.949 39.6255C457.885 39.6255 457.822 39.6413 457.775 39.6887C457.633 39.7677 457.506 39.9888 457.506 40.2415C457.506 40.3678 457.554 40.5099 457.617 40.6679C457.68 40.8258 457.775 40.9837 457.901 41.1259C458.012 41.268 458.154 41.3944 458.312 41.4733C458.47 41.5523 458.644 41.5839 458.849 41.5839C459.244 41.5839 459.671 41.3786 460.003 41.0311C460.319 40.6837 460.556 40.1941 460.571 39.6887C460.603 39.1833 460.413 38.6463 460.05 38.2041C459.876 37.983 459.671 37.7935 459.434 37.6514C459.213 37.5092 458.96 37.3987 458.707 37.3197C458.186 37.1776 457.648 37.1934 457.159 37.3039C456.163 37.525 455.389 38.1725 454.946 38.8201C454.709 39.1517 454.567 39.4676 454.441 39.7834C454.314 40.0993 454.22 40.3678 454.109 40.6047H454.077Z" fill="white"/>
<path d="M447.836 70.612C448.041 70.8016 448.357 71.0227 448.768 71.2438C449.115 71.4175 449.542 71.6228 450.016 71.7965C450.174 71.8281 450.348 71.8597 450.538 71.8755C450.759 71.8913 451.012 71.9071 451.185 71.8123C451.264 71.7649 451.328 71.7018 451.359 71.5912C451.391 71.4965 451.407 71.3701 451.391 71.2438C451.359 70.9911 451.233 70.7226 451.043 70.5015C450.854 70.2646 450.585 70.0751 450.301 69.9171C450 69.7592 449.684 69.6171 449.384 69.4749C449.084 69.3328 448.784 69.1906 448.499 69.0327C447.946 68.7326 447.472 68.3852 447.14 68.0377C447.014 67.9114 446.903 67.785 446.809 67.6587C446.982 68.243 447.188 68.9064 447.456 69.6329C447.567 69.9487 447.709 70.2804 447.851 70.612H447.836Z" fill="white"/>
<path d="M451.833 73.7704C451.612 73.7072 451.391 73.6282 451.185 73.5493C450.348 73.2334 449.637 72.8702 449.068 72.5069C448.815 72.349 448.594 72.1753 448.404 72.0173C448.594 72.4122 448.799 72.8228 449.021 73.2176C449.321 73.7388 449.637 74.2284 449.969 74.6864C450.063 74.8127 450.158 74.9391 450.253 75.0496C450.522 75.2392 450.885 75.4919 451.327 75.7288C451.612 75.8867 451.912 76.0288 452.26 76.1078C452.607 76.2026 452.986 76.2341 453.366 76.171C453.555 76.1394 453.729 76.0762 453.871 75.9814C454.014 75.8867 454.108 75.7603 454.14 75.6024C454.172 75.4603 454.14 75.2707 454.045 75.097C453.95 74.9233 453.824 74.7496 453.65 74.5916C453.318 74.2916 452.907 74.1021 452.481 73.9599C452.26 73.8809 452.054 73.8178 451.833 73.7546V73.7704Z" fill="white"/>
<path d="M465.706 50.3648C465.374 50.1279 465.058 49.8595 464.727 49.5436C464.221 49.0698 463.731 48.4854 463.32 47.8063C462.657 46.7324 462.23 45.4531 461.977 44.0791C461.614 43.858 461.077 43.6053 460.318 43.4474C459.591 43.2895 458.691 43.2579 457.664 43.2737C457.142 43.2737 456.589 43.2737 456.021 43.2895C455.878 43.2895 455.736 43.2895 455.594 43.2895H455.404V43.321L455.436 43.4316C455.483 43.5737 455.515 43.7001 455.562 43.8422C455.657 44.1107 455.736 44.3792 455.847 44.6319C456.036 45.1373 456.258 45.6269 456.495 46.0691C456.953 46.9535 457.506 47.6642 458.027 48.2012C458.549 48.7381 459.038 49.1014 459.402 49.3383C460.002 49.2277 460.634 49.1646 461.266 49.1803C462.831 49.2277 464.284 49.6541 465.485 50.2227C465.564 50.2543 465.643 50.3017 465.706 50.3333V50.3648Z" fill="white"/>
<path d="M478.189 80.5302C478.252 80.4196 478.316 80.2933 478.379 80.1827C478.474 80.009 478.553 79.8353 478.647 79.6773C478.047 80.2459 477.257 80.7829 476.356 81.3198C475.408 81.8726 474.255 82.299 473.007 82.4885C472.375 82.5833 471.758 82.6149 471.158 82.5991C470.557 82.5833 469.973 82.4885 469.436 82.3306C468.883 82.1727 468.377 81.9358 467.966 81.6041C467.761 81.4462 467.571 81.2567 467.413 81.0672C467.255 80.8618 467.145 80.6723 467.05 80.4828C466.844 80.1038 466.718 79.7247 466.655 79.3773C466.607 79.014 466.655 78.6824 466.765 78.4455C466.813 78.3191 466.892 78.2402 466.939 78.1612C467.002 78.098 467.066 78.0348 467.113 78.0033C467.224 77.9401 467.287 77.9243 467.318 77.9401C467.366 77.9401 467.35 78.0822 467.397 78.3033C467.445 78.5244 467.571 78.8403 467.887 79.093C468.045 79.2193 468.235 79.3299 468.456 79.3615C468.693 79.4089 468.946 79.3931 469.214 79.3141C469.483 79.2351 469.736 79.0772 469.957 78.8561C470.162 78.635 470.336 78.3349 470.399 78.0033C470.557 77.3399 470.384 76.4713 469.846 75.8554C469.341 75.2552 468.409 74.9709 467.476 75.1447C467.018 75.2394 466.544 75.4132 466.149 75.6974C465.944 75.8396 465.754 75.9975 465.596 76.187L465.47 76.3292L465.359 76.4871C465.28 76.5819 465.217 76.7082 465.154 76.803C464.885 77.2452 464.727 77.7664 464.632 78.3033C464.553 78.8403 464.569 79.4089 464.695 79.9616C464.822 80.5144 465.043 81.0198 465.343 81.4778C465.644 81.9358 466.023 82.3464 466.434 82.6939C467.271 83.373 468.282 83.8152 469.262 83.9889C470.257 84.1784 471.253 84.131 472.153 83.9415C473.054 83.7678 473.876 83.4677 474.587 83.1203C476.024 82.4254 477.02 81.5567 477.715 80.9566C477.889 80.7987 478.063 80.6565 478.189 80.5302Z" fill="white"/>
<path d="M448.073 62.6519C448.105 62.3361 448.168 62.0044 448.278 61.6727C448.389 61.3569 448.547 61.041 448.737 60.7567C449.116 60.1882 449.574 59.7144 449.985 59.2248C450.396 58.7352 450.727 58.2614 450.87 57.6771C451.028 57.1085 450.996 56.4768 450.806 55.8924C450.617 55.3239 450.222 54.8027 449.716 54.4868C449.463 54.3289 449.179 54.2341 448.879 54.2025C448.579 54.1709 448.263 54.2025 447.947 54.2815C447.33 54.4552 446.762 54.8027 446.303 55.2923C445.861 55.7661 445.513 56.3504 445.308 56.9664C445.087 57.5823 445.008 58.214 445.023 58.8615C445.023 59.4933 445.134 60.125 445.308 60.7409C445.64 61.9412 446.177 63.0626 446.762 64.0259C447.346 64.9893 448.01 65.8264 448.689 66.5055C449.116 66.9319 449.542 67.2794 449.969 67.5952C449.558 67.153 449.147 66.6318 448.816 66.0159C448.342 65.0999 447.947 63.947 448.057 62.6519H448.073Z" fill="white"/>
<path d="M472.153 45.153C472.153 45.153 472.153 45.1688 472.153 45.1846C471.884 46.1164 471.852 46.4955 471.773 46.8113C471.995 46.5113 472.516 45.5479 472.785 45.2004C473.496 44.3002 474.46 43.5737 475.36 43.5579C475.803 43.5579 476.15 43.7316 476.308 43.9212C476.482 44.1107 476.482 44.2528 476.435 44.2844C476.387 44.316 476.277 44.2528 476.119 44.2054C476.087 44.2054 476.055 44.1896 476.024 44.1739C475.961 44.1739 475.897 44.1896 475.85 44.237C475.708 44.316 475.581 44.5371 475.581 44.7898C475.581 44.9161 475.629 45.0583 475.692 45.2162C475.755 45.3741 475.85 45.5321 475.976 45.6742C476.087 45.8164 476.229 45.9427 476.387 46.0217C476.545 46.1006 476.719 46.1322 476.924 46.1322C477.319 46.1322 477.746 45.9269 478.078 45.5795C478.394 45.232 478.631 44.7424 478.647 44.237C478.678 43.7316 478.489 43.1947 478.125 42.7525C477.951 42.5314 477.746 42.3418 477.509 42.1997C477.288 42.0576 477.035 41.947 476.782 41.868C476.261 41.7259 475.724 41.7417 475.234 41.8522C474.238 42.0733 473.464 42.7209 473.022 43.3684C472.785 43.7001 472.642 44.0159 472.516 44.3318C472.39 44.6477 472.295 44.9161 472.184 45.153H472.153Z" fill="white"/>
<path d="M456.794 77.8925C456.684 77.7662 456.541 77.6714 456.399 77.5766C456.115 77.4029 455.815 77.3082 455.53 77.3082C455.246 77.3082 454.961 77.3713 454.756 77.5135C454.551 77.6556 454.377 77.8451 454.282 78.0504C454.171 78.2558 454.108 78.4611 454.092 78.6506C454.092 78.6664 454.092 78.698 454.092 78.7138C454.092 78.7296 454.092 78.7611 454.092 78.7769C454.092 78.8243 454.092 78.8717 454.092 78.9033C454.092 78.9822 454.092 79.0612 454.124 79.1402C454.124 79.1718 454.14 79.2034 454.156 79.2507C454.156 79.2823 454.187 79.3139 454.187 79.3455C454.187 79.3771 454.203 79.4087 454.219 79.4245C454.219 79.456 454.25 79.4718 454.266 79.4876C454.298 79.535 454.314 79.5824 454.329 79.5982C454.345 79.6298 454.377 79.6614 454.393 79.6771C454.424 79.7245 454.44 79.7561 454.424 79.7561C454.424 79.7719 454.361 79.7719 454.235 79.7561C454.171 79.7561 454.108 79.7245 454.013 79.7087C453.934 79.6929 453.824 79.6614 453.729 79.6298C453.302 79.4876 452.686 79.2191 452.007 78.7769C451.659 78.5558 451.311 78.2715 450.948 77.9715C450.585 77.6398 450.221 77.2924 449.874 76.8659C449.684 76.6606 449.526 76.4395 449.352 76.2184C449.194 75.9815 449.02 75.7604 448.862 75.5077C448.546 75.0181 448.246 74.4812 447.978 73.9126C447.44 72.7755 447.077 71.6542 446.808 70.6118C446.54 69.5695 446.366 68.6219 446.255 67.8164C446.16 67.1689 446.097 66.6161 446.05 66.1897C446.05 66.2845 446.05 66.3792 446.05 66.4898C446.05 67.2952 446.018 68.4797 446.16 69.9169C446.303 71.3541 446.603 73.0598 447.282 74.8128C447.456 75.255 447.646 75.6972 447.867 76.1395C448.088 76.5817 448.341 77.0239 448.61 77.4503C449.163 78.3031 449.842 79.1402 450.632 79.8667C451.422 80.5932 452.307 81.1933 453.239 81.4934C454.171 81.7776 455.167 81.7303 455.957 81.3354C456.731 80.9406 457.237 80.1667 457.331 79.3929C457.347 79.2034 457.331 79.0138 457.316 78.8401C457.284 78.6506 457.221 78.4927 457.142 78.3347C457.063 78.1768 456.952 78.0347 456.842 77.9083L456.794 77.8925Z" fill="white"/>
</g>
<g opacity="0.43">
<path d="M372.418 90.9534L372.671 91.2535C372.893 91.5062 373.114 91.7536 373.335 91.9958C373.556 92.2379 373.762 92.4643 373.951 92.6749C374.141 92.8855 374.214 92.9697 374.172 92.9276C374.383 92.9065 374.578 92.8855 374.757 92.8644C374.936 92.8434 375.447 92.7749 376.29 92.6591C376.764 92.5959 377.253 92.5222 377.759 92.438C377.949 92.4064 378.133 92.3748 378.312 92.3432C378.428 92.2379 378.56 92.1274 378.707 92.0116C379.013 91.7378 379.329 91.4535 379.655 91.1587C379.992 90.8534 380.314 90.5533 380.619 90.2585C380.745 90.1427 380.872 90.0216 380.998 89.8953C380.935 89.8005 380.872 89.711 380.809 89.6268C380.64 89.3846 380.472 89.1372 380.303 88.8845C380.198 88.7266 380.087 88.5634 379.971 88.3949C380.719 87.6053 381.472 86.7945 382.231 85.9628C382.705 85.8996 383.173 85.8364 383.637 85.7732C384.279 85.6785 384.922 85.5732 385.565 85.4574C385.754 85.4258 385.933 85.3942 386.102 85.3626C386.218 85.2257 386.344 85.0783 386.481 84.9204C386.902 84.4255 387.324 83.9307 387.745 83.4358C388.145 82.941 388.561 82.4303 388.993 81.9039C389.099 81.767 389.209 81.6196 389.325 81.4617C389.272 81.3459 389.22 81.2195 389.167 81.0826C388.956 80.651 388.746 80.2087 388.535 79.756C388.293 79.3033 388.056 78.84 387.824 78.3662C387.75 78.2293 387.677 78.0924 387.603 77.9556C387.403 77.9872 387.208 78.0082 387.018 78.0187C386.344 78.0819 385.659 78.1503 384.964 78.224C384.258 78.2872 383.547 78.3504 382.831 78.4136C382.61 78.4346 382.399 78.4504 382.199 78.461C382.073 78.6294 381.946 78.7979 381.82 78.9663C381.377 79.5349 380.946 80.0929 380.524 80.6404C380.092 81.1879 379.66 81.7302 379.229 82.2671C379.092 82.4251 378.965 82.583 378.849 82.7409C378.934 82.8778 379.018 83.0147 379.102 83.1516C379.408 83.6043 379.703 84.0518 379.987 84.494C380.177 84.7993 380.377 85.0994 380.587 85.3942C379.829 86.247 379.071 87.0788 378.312 87.8895C377.986 87.9211 377.654 87.958 377.317 88.0001C376.779 88.0527 376.237 88.1054 375.689 88.158C375.479 88.1791 375.268 88.2001 375.057 88.2212C374.931 88.3581 374.81 88.4897 374.694 88.616C374.357 88.9529 374.025 89.2899 373.698 89.6268C373.382 89.9532 373.061 90.2743 372.734 90.5902C372.608 90.7165 372.487 90.8376 372.371 90.9534H372.418ZM381.409 82.5356C381.714 82.1566 382.025 81.7723 382.341 81.3827C382.647 80.9931 382.947 80.6088 383.242 80.2298C383.737 80.1877 384.232 80.135 384.727 80.0719C385.212 80.0192 385.691 79.9666 386.165 79.9139C386.344 80.2403 386.523 80.5615 386.702 80.8773C386.871 81.1932 387.034 81.5038 387.192 81.8091C386.887 82.1882 386.586 82.5567 386.291 82.9147C385.986 83.2832 385.691 83.6411 385.407 83.9886C384.933 84.0728 384.464 84.1413 384 84.1939C383.505 84.2676 383.015 84.336 382.531 84.3992C382.362 84.0834 382.178 83.778 381.978 83.4832C381.788 83.1568 381.588 82.8409 381.377 82.5356H381.409ZM374.883 90.7323C375.084 90.5428 375.278 90.348 375.468 90.148C375.679 89.9479 375.879 89.7479 376.068 89.5478C376.384 89.5162 376.716 89.4794 377.064 89.4373C377.39 89.3952 377.706 89.3583 378.012 89.3267C378.128 89.4847 378.249 89.6426 378.375 89.8005C378.491 89.9585 378.607 90.1059 378.723 90.2427C378.523 90.4322 378.323 90.6218 378.122 90.8113C377.922 91.0008 377.727 91.1851 377.538 91.364C377.222 91.4062 376.911 91.4483 376.606 91.4904C376.269 91.5325 375.947 91.5746 375.642 91.6167C375.526 91.4693 375.405 91.3219 375.278 91.1745C375.152 91.0166 375.02 90.8639 374.883 90.7165V90.7323Z" fill="white"/>
<path d="M389.025 41.6469C388.604 41.1205 388.188 40.6098 387.777 40.115C387.366 39.6201 386.945 39.1253 386.513 38.6304C386.376 38.483 386.249 38.3356 386.133 38.1882C385.965 38.1671 385.786 38.1356 385.596 38.0934C384.954 37.9776 384.311 37.8723 383.669 37.7776C383.195 37.7039 382.726 37.6354 382.262 37.5723C381.504 36.7405 380.751 35.9298 380.003 35.1401C380.119 34.9716 380.229 34.8084 380.335 34.6505C380.503 34.3978 380.672 34.1451 380.84 33.8924C380.903 33.7977 380.967 33.7082 381.03 33.6239C380.903 33.4976 380.777 33.3765 380.651 33.2607C380.345 32.9659 380.024 32.6658 379.687 32.3605C379.36 32.0657 379.044 31.7814 378.739 31.5076C378.602 31.3918 378.47 31.2813 378.344 31.176C378.154 31.1444 377.97 31.1128 377.791 31.0812C377.285 30.997 376.795 30.9286 376.321 30.8759C375.816 30.8127 375.305 30.7443 374.789 30.6706C374.61 30.6495 374.415 30.6285 374.204 30.6074C374.12 30.6917 374.046 30.7759 373.983 30.8601C373.762 31.0812 373.556 31.3076 373.367 31.5392C373.145 31.7814 372.924 32.0288 372.703 32.2815C372.619 32.3763 372.534 32.4763 372.45 32.5816C372.556 32.6974 372.677 32.8132 372.814 32.929C373.14 33.2449 373.461 33.566 373.777 33.8924C374.104 34.2293 374.436 34.5663 374.773 34.9032C374.889 35.0295 375.01 35.1611 375.136 35.298C375.347 35.3191 375.558 35.3401 375.768 35.3612C376.316 35.4138 376.859 35.4665 377.396 35.5191C377.733 35.5612 378.065 35.5981 378.391 35.6297C379.15 36.4404 379.908 37.2722 380.666 38.125C380.466 38.4198 380.266 38.7199 380.066 39.0252C379.782 39.478 379.487 39.9255 379.181 40.3677C379.097 40.5045 379.013 40.6414 378.928 40.7783C379.065 40.9362 379.192 41.0942 379.308 41.2521C379.74 41.7891 380.171 42.3313 380.603 42.8788C381.035 43.4263 381.467 43.9843 381.899 44.5529C382.025 44.7213 382.152 44.8898 382.278 45.0583C382.478 45.0583 382.689 45.0741 382.91 45.1056C383.626 45.1688 384.337 45.232 385.043 45.2952C385.738 45.3689 386.423 45.4373 387.097 45.5005C387.287 45.511 387.482 45.5321 387.682 45.5637C387.756 45.4268 387.829 45.2899 387.903 45.153C388.135 44.6687 388.372 44.2054 388.614 43.7632C388.835 43.3105 389.051 42.8683 389.262 42.4366C389.325 42.3208 389.378 42.1892 389.42 42.0418C389.315 41.9049 389.204 41.7575 389.088 41.5995L389.025 41.6469ZM378.739 33.3081C378.623 33.4555 378.507 33.6029 378.391 33.7503C378.275 33.9082 378.154 34.0661 378.028 34.2241C377.722 34.1925 377.406 34.1609 377.08 34.1293C376.732 34.0872 376.4 34.0504 376.084 34.0188C375.895 33.8187 375.695 33.6187 375.484 33.4186C375.284 33.2291 375.089 33.0396 374.899 32.8501C375.047 32.7027 375.178 32.55 375.294 32.3921C375.41 32.2447 375.531 32.0973 375.658 31.9499C375.963 31.9814 376.284 32.0236 376.622 32.0762C376.938 32.1183 377.248 32.1604 377.554 32.2025C377.743 32.3815 377.938 32.5658 378.138 32.7553C378.339 32.9448 378.539 33.1343 378.739 33.3239V33.3081ZM387.208 41.7575C387.05 42.0733 386.887 42.3839 386.718 42.6893C386.539 43.0051 386.36 43.3263 386.181 43.6527C385.707 43.6 385.228 43.5474 384.743 43.4947C384.248 43.4421 383.753 43.3947 383.258 43.3526C382.963 42.963 382.663 42.5787 382.357 42.1997C382.041 41.8101 381.73 41.4258 381.425 41.0468C381.636 40.7309 381.836 40.415 382.025 40.0992C382.225 39.7938 382.415 39.4938 382.594 39.199C383.068 39.2516 383.547 39.3148 384.032 39.3885C384.485 39.4411 384.943 39.499 385.407 39.5622C385.712 39.9307 386.018 40.294 386.323 40.6519C386.618 41.0205 386.918 41.389 387.224 41.7575H387.208Z" fill="white"/>
<path d="M368.136 59.3037C367.757 59.9513 367.741 59.9828 367.394 60.5672L366.777 61.7833C367.109 62.3676 367.757 63.6153 368.136 64.2628C368.505 64.8945 368.874 65.5263 369.242 66.158C369.348 66.3475 369.458 66.5318 369.574 66.7108C369.785 66.7108 369.995 66.7108 370.206 66.7108C370.943 66.7108 371.676 66.7108 372.402 66.7108C373.129 66.7108 373.851 66.7002 374.567 66.6792C374.778 66.6792 374.988 66.6739 375.199 66.6634C375.304 66.4844 375.41 66.3001 375.515 66.1106C375.884 65.4789 376.247 64.8524 376.605 64.2312C376.963 63.61 377.316 62.9836 377.664 62.3518C377.769 62.1728 377.869 61.9938 377.964 61.8149C377.859 61.6253 377.759 61.4411 377.664 61.2621C377.306 60.6304 376.953 60.0039 376.605 59.3827C376.247 58.751 375.884 58.1245 375.515 57.5033C375.41 57.3243 375.304 57.1401 375.199 56.9505C374.988 56.9505 374.783 56.9505 374.583 56.9505C373.867 56.9505 373.145 56.9453 372.418 56.9347C371.681 56.9347 370.949 56.9295 370.222 56.9189C370.011 56.9189 369.795 56.9189 369.574 56.9189C369.469 57.0979 369.358 57.2822 369.242 57.4717C368.874 58.1034 368.505 58.7352 368.136 59.3669V59.3037ZM369.305 61.7833C369.569 61.3305 369.832 60.8778 370.095 60.425C370.359 59.9723 370.617 59.5248 370.87 59.0826C371.386 59.0826 371.907 59.0826 372.434 59.0826C372.95 59.0826 373.466 59.0826 373.982 59.0826C374.235 59.5354 374.493 59.9828 374.757 60.425C375.009 60.8778 375.262 61.3305 375.515 61.7833C375.262 62.2255 375.009 62.673 374.757 63.1257C374.504 63.5784 374.246 64.0259 373.982 64.4681C373.466 64.4681 372.95 64.4681 372.434 64.4681C371.918 64.4681 371.396 64.4681 370.87 64.4681C370.606 64.0259 370.348 63.5784 370.095 63.1257C369.832 62.673 369.569 62.2202 369.305 61.7675V61.7833Z" fill="white"/>
<path d="M372.466 43.2419C372.255 43.1366 372.044 43.0366 371.834 42.9418C371.244 42.6681 370.643 42.3891 370.032 42.1048C369.421 41.8205 368.821 41.5468 368.231 41.2835C368.02 41.1888 367.815 41.094 367.615 40.9993C367.404 41.0835 367.204 41.1677 367.014 41.252C366.425 41.4941 365.835 41.7416 365.245 41.9942C364.655 42.2469 364.06 42.5049 363.459 42.7681C363.238 42.8629 363.022 42.9576 362.812 43.0524C362.812 43.2314 362.817 43.4156 362.827 43.6052C362.827 44.1421 362.827 44.6844 362.827 45.2319C362.827 45.7899 362.827 46.3479 362.827 46.906C362.827 47.106 362.827 47.3008 362.827 47.4903C363.049 47.5956 363.264 47.6956 363.475 47.7904C364.097 48.0852 364.718 48.3747 365.34 48.659C365.961 48.9538 366.588 49.2486 367.22 49.5434C367.431 49.6382 367.647 49.7435 367.868 49.8593C368.078 49.754 368.289 49.654 368.5 49.5592C369.111 49.2855 369.711 49.0065 370.301 48.7222C370.301 48.7222 370.301 48.7222 370.317 48.7222C370.907 48.4484 371.497 48.1747 372.086 47.9009C372.297 47.8062 372.503 47.7167 372.703 47.6324C372.703 47.4324 372.697 47.2376 372.687 47.0481C372.655 46.4901 372.624 45.9373 372.592 45.3898C372.56 44.8423 372.529 44.3053 372.497 43.7789C372.476 43.5894 372.466 43.4051 372.466 43.2261V43.2419ZM370.143 46.4164C369.753 46.5848 369.364 46.7585 368.974 46.9375C368.584 47.1165 368.194 47.2955 367.805 47.4745C367.404 47.285 366.999 47.0955 366.588 46.906C366.188 46.7164 365.793 46.5322 365.403 46.3532C365.392 45.9847 365.387 45.6214 365.387 45.2635C365.387 44.9055 365.387 44.5475 365.387 44.1895C365.766 44.021 366.151 43.8526 366.54 43.6841C366.93 43.5157 367.315 43.3472 367.694 43.1787C368.094 43.3577 368.494 43.542 368.895 43.7315C369.284 43.9105 369.674 44.0948 370.064 44.2843C370.085 44.6423 370.101 45.0002 370.111 45.3582C370.122 45.7162 370.138 46.0794 370.159 46.4479L370.143 46.4164Z" fill="white"/>
<path d="M362.812 79.9772C362.812 80.1667 362.806 80.351 362.796 80.53C363.007 80.6247 363.223 80.7142 363.444 80.7985C364.055 81.0617 364.65 81.3196 365.229 81.5723C365.809 81.825 366.398 82.0724 366.999 82.3146C367.188 82.3988 367.389 82.4831 367.599 82.5673C367.799 82.4725 368.005 82.3778 368.215 82.283C368.816 82.0093 369.416 81.7355 370.017 81.4618C370.607 81.188 371.207 80.909 371.818 80.6247C372.029 80.5194 372.239 80.4194 372.45 80.3247C372.45 80.1457 372.461 79.9614 372.482 79.7719C372.513 79.2349 372.545 78.698 372.576 78.161C372.608 77.6135 372.64 77.0607 372.671 76.5027C372.671 76.3132 372.677 76.1184 372.687 75.9183C372.476 75.8236 372.271 75.7341 372.071 75.6499C371.481 75.3761 370.886 75.1076 370.285 74.8444C369.695 74.5601 369.095 74.2811 368.484 74.0074C368.273 73.9126 368.063 73.8126 367.852 73.7073C367.631 73.8126 367.41 73.9179 367.188 74.0231C366.577 74.3179 365.956 74.6128 365.324 74.9076C364.703 75.2024 364.081 75.4919 363.46 75.7762C363.249 75.8815 363.033 75.9815 362.812 76.0763C362.812 76.2763 362.812 76.4711 362.812 76.6606C362.812 77.2187 362.812 77.7767 362.812 78.3347C362.812 78.8822 362.812 79.4244 362.812 79.9614V79.9772ZM365.356 79.3929C365.356 79.0349 365.356 78.6769 365.356 78.3189C365.356 77.9609 365.361 77.5977 365.371 77.2292C365.772 77.0397 366.167 76.8554 366.556 76.6764C366.957 76.4869 367.362 76.2974 367.773 76.1079C368.173 76.2868 368.563 76.4658 368.942 76.6448C369.332 76.8238 369.722 76.9975 370.112 77.166C370.09 77.5345 370.075 77.8978 370.064 78.2557C370.054 78.6137 370.038 78.9717 370.017 79.3297C369.627 79.5192 369.237 79.7035 368.848 79.8824C368.447 80.072 368.047 80.2562 367.647 80.4352C367.267 80.2668 366.883 80.0983 366.493 79.9298C366.103 79.7614 365.719 79.5929 365.34 79.4244L365.356 79.3929Z" fill="white"/>
<path d="M388.962 88.8845C388.909 88.9793 388.846 89.0846 388.772 89.2004C388.878 89.2004 388.973 89.2004 389.057 89.2004C389.141 89.2004 389.389 89.2004 389.799 89.2004C390.021 89.2004 390.237 89.1898 390.447 89.1688C390.521 89.1688 390.59 89.1635 390.653 89.153C390.79 89.0582 390.921 88.9687 391.048 88.8845C391.427 88.6213 391.801 88.3528 392.17 88.0791C392.538 87.8053 392.891 87.5368 393.228 87.2736C393.355 87.1683 393.481 87.0683 393.607 86.9735C393.671 86.8893 393.744 86.7945 393.829 86.6892C394.029 86.4155 394.229 86.1417 394.429 85.868C394.608 85.5837 394.798 85.2889 394.998 84.9836C395.061 84.8783 395.13 84.7677 395.203 84.6519C395.14 84.6414 395.082 84.6309 395.029 84.6203C394.85 84.5887 394.661 84.5466 394.461 84.494C394.229 84.4624 394.002 84.4098 393.781 84.3361C393.697 84.315 393.618 84.2887 393.544 84.2571C393.397 84.3624 393.249 84.4729 393.102 84.5887C392.702 84.873 392.285 85.1626 391.854 85.4574C391.422 85.7417 390.99 86.0312 390.558 86.326C390.41 86.4208 390.258 86.5208 390.1 86.6261C390.047 86.7419 389.994 86.863 389.942 86.9893C389.784 87.3262 389.626 87.6579 389.468 87.9843C389.31 88.3002 389.146 88.6055 388.978 88.9003L388.962 88.8845ZM390.558 88.0633C390.684 87.8632 390.795 87.6684 390.89 87.4789C391.006 87.2683 391.116 87.0578 391.222 86.8472C391.506 86.6577 391.78 86.4734 392.043 86.2944C392.317 86.0944 392.586 85.9048 392.849 85.7259C393.007 85.7469 393.149 85.7785 393.276 85.8206C393.423 85.8311 393.555 85.8522 393.671 85.8838C393.555 86.0838 393.434 86.2839 393.307 86.4839C393.202 86.6629 393.081 86.8472 392.944 87.0367C392.702 87.2157 392.454 87.3999 392.201 87.5895C391.959 87.7579 391.706 87.9369 391.443 88.1264C391.316 88.1264 391.174 88.1264 391.016 88.1264C390.879 88.1054 390.732 88.0948 390.574 88.0948L390.558 88.0633Z" fill="white"/>
<path d="M405.647 61.8148C405.647 61.6569 405.653 61.52 405.663 61.4042C405.674 60.983 405.674 60.5777 405.663 60.1881C405.663 60.0617 405.663 59.9828 405.663 59.9038C405.695 60.5355 405.726 61.1673 405.726 61.799C405.726 62.4307 405.695 63.0625 405.663 63.6942C405.663 63.6152 405.663 63.5363 405.663 63.4099C405.663 63.0203 405.663 62.615 405.663 62.1938C405.663 62.0675 405.658 61.9464 405.647 61.8306V61.8148Z" fill="white"/>
<path d="M398.901 80.8931C398.88 80.9668 398.859 81.0457 398.838 81.13C398.817 81.2142 398.885 81.1616 399.043 80.972C399.201 80.7825 399.417 80.593 399.691 80.4035C399.965 80.214 400.086 80.0718 400.054 79.9771C399.991 80.0823 399.928 80.1929 399.865 80.3087C400.781 78.9821 401.587 77.6081 402.298 76.1709C402.424 75.8866 402.54 75.6076 402.646 75.3338C402.74 75.018 402.825 74.7179 402.898 74.4336C402.92 74.3389 402.941 74.2388 402.962 74.1335C402.962 74.1335 402.898 74.1967 402.819 74.2441C402.64 74.3704 402.456 74.4915 402.266 74.6073C402.035 74.7442 401.798 74.8758 401.555 75.0022C401.471 75.0548 401.392 75.0917 401.318 75.1127C401.234 75.2601 401.155 75.4023 401.081 75.5392C400.797 76.034 400.513 76.5289 400.228 77.0237C399.944 77.487 399.649 77.9608 399.343 78.4451C399.249 78.5925 399.154 78.7399 399.059 78.8873C399.059 78.9716 399.059 79.0663 399.059 79.1716C399.059 79.4769 399.048 79.777 399.027 80.0718C398.985 80.3561 398.943 80.6298 398.901 80.8931ZM399.912 79.5664C399.944 79.3874 399.981 79.1927 400.023 78.9821C400.044 78.7715 400.07 78.5504 400.102 78.3188C400.302 77.9924 400.507 77.6607 400.718 77.3238C400.908 76.9974 401.097 76.671 401.287 76.3446C401.455 76.2498 401.613 76.1498 401.761 76.0445C401.908 75.9392 402.045 75.8287 402.172 75.7129C402.119 75.934 402.061 76.1551 401.998 76.3762C401.945 76.5657 401.882 76.7552 401.808 76.9448C401.64 77.2606 401.466 77.5712 401.287 77.8766C401.108 78.1819 400.923 78.4872 400.734 78.7926C400.607 78.9294 400.481 79.0558 400.355 79.1716C400.207 79.2979 400.054 79.4243 399.896 79.5506L399.912 79.5664Z" fill="white"/>
<path d="M394.65 82.1093C395.25 81.646 395.83 81.188 396.388 80.7353C396.946 80.2826 397.483 79.8245 398 79.3613C398.115 79.256 398.231 79.1507 398.347 79.0454C398.4 78.9085 398.447 78.7717 398.489 78.6348C398.69 78.0136 398.89 77.3819 399.09 76.7396C399.258 76.0973 399.427 75.4445 399.595 74.7812C399.638 74.6233 399.674 74.4654 399.706 74.3074C399.622 74.2548 399.543 74.2021 399.469 74.1495C399.1 73.9073 398.716 73.6494 398.316 73.3756C397.979 73.1756 397.636 72.965 397.289 72.7439C397.478 71.3752 397.647 69.9801 397.794 68.5587C398.395 68.0849 398.979 67.6216 399.548 67.1689C400.085 66.7161 400.601 66.2634 401.096 65.8106C401.771 66.4108 402.387 66.9899 402.945 67.5479C402.882 68.0849 402.808 68.6219 402.724 69.1588C402.619 69.8432 402.503 70.5223 402.376 71.1962C402.355 71.333 402.324 71.4857 402.282 71.6542C402.345 71.6963 402.397 71.7489 402.44 71.8121C402.64 72.0332 402.824 72.2438 402.993 72.4438C403.119 72.6333 403.23 72.8176 403.324 72.9966C403.324 72.9966 403.356 73.044 403.372 73.0913C403.424 73.0071 403.482 72.9071 403.546 72.7913C403.756 72.3807 403.951 71.97 404.13 71.5594C404.246 71.2541 404.357 70.9487 404.462 70.6434C404.825 69.3641 405.126 68.0533 405.331 66.7109C405.363 66.4898 405.363 66.4898 405.394 66.2371C405.415 66.1107 405.431 65.9739 405.442 65.8264C405.442 65.8264 405.442 65.7475 405.442 65.6843C405.442 65.4106 405.415 65.1473 405.363 64.8946C405.278 64.6209 405.178 64.3314 405.062 64.026C405.031 63.9523 404.999 63.8786 404.968 63.8049C404.925 63.8997 404.883 63.9839 404.841 64.0576C404.62 64.4366 404.388 64.8051 404.146 65.1631C403.935 65.4579 403.714 65.7475 403.482 66.0318C402.945 65.4632 402.355 64.8736 401.713 64.2629C401.734 63.4522 401.75 62.6467 401.76 61.8465C401.76 61.0148 401.744 60.1935 401.713 59.3828C402.355 58.7616 402.945 58.172 403.482 57.6139C403.714 57.8982 403.935 58.1878 404.146 58.4826C404.399 58.8511 404.631 59.2196 404.841 59.5881C404.883 59.6618 404.925 59.746 404.968 59.8408C404.999 59.7671 405.031 59.6934 405.062 59.6197C405.178 59.3249 405.278 59.0353 405.363 58.7511C405.405 58.4984 405.431 58.2351 405.442 57.9614C405.442 57.9614 405.442 57.8824 405.442 57.8193C405.421 57.6719 405.405 57.535 405.394 57.4086C405.363 57.1875 405.363 57.1875 405.331 56.9348C405.126 55.6082 404.825 54.2974 404.462 53.0023C404.357 52.697 404.246 52.3916 404.13 52.0863C403.951 51.6651 403.756 51.2545 403.546 50.8544C403.482 50.7386 403.424 50.6386 403.372 50.5544C403.372 50.5544 403.34 50.6017 403.324 50.6491C403.23 50.8281 403.119 51.0124 402.993 51.2019C402.835 51.423 402.65 51.6336 402.44 51.8336C402.387 51.8968 402.334 51.9442 402.282 51.9757C402.313 52.1442 402.35 52.3074 402.392 52.4653C402.508 53.1181 402.619 53.7867 402.724 54.4711C402.798 55.0081 402.871 55.545 402.945 56.082C402.387 56.6506 401.771 57.2296 401.096 57.8193C400.601 57.3665 400.085 56.9138 399.548 56.461C398.979 56.0083 398.395 55.545 397.794 55.0712C397.647 53.6604 397.478 52.2653 397.289 50.886C397.636 50.6649 397.979 50.4543 398.316 50.2543C398.716 49.9805 399.1 49.7278 399.469 49.4962C399.553 49.4436 399.632 49.3909 399.706 49.3383C399.674 49.1803 399.638 49.0224 399.595 48.8645C399.427 48.2012 399.258 47.5484 399.09 46.9061C398.9 46.2639 398.7 45.6321 398.489 45.0109C398.447 44.874 398.4 44.7372 398.347 44.6003C398.231 44.495 398.115 44.3897 398 44.2844C397.473 43.8212 396.936 43.3632 396.388 42.9104C395.819 42.4577 395.24 41.9997 394.65 41.5364C394.502 41.4311 394.365 41.3311 394.239 41.2363C394.144 41.2679 394.049 41.2995 393.955 41.3311C393.533 41.489 393.086 41.6522 392.612 41.8207C392.116 42.0102 391.611 42.2102 391.095 42.4208C390.968 42.4735 390.837 42.5208 390.7 42.563C390.742 42.7209 390.779 42.8788 390.81 43.0368C390.979 43.7527 391.126 44.4582 391.253 45.1531C391.379 45.8795 391.511 46.6218 391.648 47.3799C391.679 47.5589 391.706 47.7326 391.727 47.9011C391.885 47.9958 392.048 48.1064 392.217 48.2327C392.912 48.696 393.591 49.1593 394.255 49.6226C394.76 49.9805 395.256 50.328 395.74 50.6649C395.93 52.0968 396.093 53.5288 396.23 54.9607C395.619 55.3397 394.992 55.724 394.35 56.1136C393.675 56.5242 392.986 56.9401 392.28 57.3613C390.953 56.54 389.583 55.7082 388.172 54.8659C388.129 54.2026 388.087 53.5498 388.045 52.9076C387.982 52.0758 387.914 51.2493 387.84 50.428C387.819 50.2385 387.798 50.049 387.777 49.8595C387.598 49.7542 387.413 49.6436 387.224 49.5278C386.423 49.0645 385.617 48.6013 384.806 48.138C383.974 47.6642 383.131 47.1957 382.278 46.7324C382.088 46.6376 381.899 46.5376 381.709 46.4323C381.53 46.5165 381.351 46.5955 381.172 46.6692C380.361 47.0167 379.555 47.3799 378.755 47.7589C377.912 48.1275 377.069 48.5118 376.226 48.9119C376.016 48.9961 375.816 49.0908 375.626 49.1961C375.626 49.3857 375.637 49.5857 375.658 49.7963C375.689 50.6596 375.726 51.5335 375.768 52.418C375.8 53.3129 375.826 54.2079 375.847 55.1028C375.847 55.3029 375.847 55.5082 375.847 55.7188C376.058 55.824 376.269 55.9346 376.479 56.0504C377.385 56.5137 378.28 56.9769 379.165 57.4402C380.05 57.914 380.924 58.3773 381.788 58.83C381.988 58.9353 382.183 59.0406 382.373 59.1459C382.562 59.0511 382.757 58.9511 382.957 58.8458C383.779 58.4036 384.59 57.9719 385.391 57.5508C385.991 57.2244 386.586 56.9033 387.176 56.5874C388.609 57.4192 389.999 58.2404 391.348 59.0511C391.369 59.9882 391.379 60.92 391.379 61.8465C391.379 62.7731 391.369 63.6944 391.348 64.6104C389.989 65.4211 388.598 66.2423 387.176 67.0741C386.586 66.7583 385.991 66.4371 385.391 66.1107C384.59 65.6896 383.779 65.2579 382.957 64.8157C382.768 64.7209 382.578 64.6209 382.389 64.5156C382.188 64.6209 381.988 64.7262 381.788 64.8315C380.924 65.2842 380.05 65.7475 379.165 66.2213C378.27 66.6845 377.375 67.1478 376.479 67.6111C376.269 67.7269 376.058 67.8375 375.847 67.9427C375.847 68.1533 375.847 68.3586 375.847 68.5587C375.826 69.4536 375.8 70.3486 375.768 71.2435C375.737 72.128 375.7 73.0019 375.658 73.8652C375.647 74.0653 375.637 74.2653 375.626 74.4654C375.826 74.5601 376.026 74.6549 376.226 74.7496C377.069 75.1497 377.912 75.534 378.755 75.9026C379.555 76.2816 380.361 76.6448 381.172 76.9923C381.351 77.0765 381.525 77.1607 381.693 77.245C381.894 77.1292 382.088 77.0239 382.278 76.9291C383.121 76.4658 383.963 76.0026 384.806 75.5393C385.617 75.076 386.423 74.6128 387.224 74.1495C387.413 74.0337 387.598 73.9231 387.777 73.8178C387.798 73.6389 387.819 73.4493 387.84 73.2493C387.914 72.428 387.982 71.6015 388.045 70.7697C388.087 70.1275 388.129 69.4747 388.172 68.8114C389.573 67.9796 390.942 67.1478 392.28 66.316C392.986 66.7372 393.675 67.1531 394.35 67.5637C394.992 67.9533 395.619 68.3376 396.23 68.7166C396.082 70.1696 395.919 71.6015 395.74 73.0124C395.256 73.3493 394.76 73.702 394.255 74.0705C393.581 74.5233 392.896 74.9813 392.201 75.4445C392.032 75.5604 391.869 75.6709 391.711 75.7762C391.69 75.9447 391.664 76.1184 391.632 76.2974C391.506 77.0449 391.374 77.7872 391.237 78.5242C391.089 79.2402 390.942 79.9456 390.795 80.6405C390.752 80.7985 390.716 80.9564 390.684 81.1143C390.821 81.1564 390.953 81.2038 391.079 81.2565C391.595 81.467 392.101 81.6671 392.596 81.8566C393.049 82.0356 393.496 82.1988 393.939 82.3462C394.034 82.3778 394.128 82.4094 394.223 82.441C394.35 82.3462 394.487 82.2462 394.634 82.1409L394.65 82.1093ZM386.039 68.8745C386.007 69.5273 385.97 70.1801 385.928 70.8329C385.875 71.4857 385.828 72.1385 385.786 72.7913C385.154 73.1493 384.516 73.5072 383.874 73.8652C383.231 74.2127 382.578 74.5654 381.915 74.9234C381.293 74.6391 380.672 74.3548 380.05 74.0705C379.418 73.7652 378.781 73.4599 378.138 73.1545C378.17 72.4912 378.201 71.8226 378.233 71.1488C378.265 70.4644 378.291 69.78 378.312 69.0957C378.997 68.7377 379.676 68.3797 380.35 68.0217C381.025 67.6637 381.693 67.3057 382.357 66.9478C382.989 67.2847 383.616 67.6111 384.237 67.9269C384.848 68.2428 385.449 68.5587 386.039 68.8745ZM386.039 54.7238C385.438 55.0291 384.832 55.3397 384.221 55.6556C383.6 55.9714 382.973 56.2978 382.341 56.6348C381.678 56.2768 381.009 55.9188 380.335 55.5608C379.66 55.2028 378.981 54.8449 378.296 54.4869C378.275 53.8025 378.249 53.1181 378.217 52.4338C378.186 51.7599 378.154 51.0913 378.122 50.428C378.765 50.1227 379.402 49.8173 380.034 49.512C380.666 49.2277 381.293 48.9382 381.915 48.6434C382.568 49.0013 383.216 49.3541 383.858 49.7015C384.501 50.0595 385.138 50.4175 385.77 50.7755C385.823 51.4177 385.87 52.0705 385.912 52.7338C385.954 53.3866 385.991 54.0499 386.023 54.7238H386.039ZM403.245 53.1287C403.382 52.9497 403.509 52.7865 403.625 52.6391C403.709 52.4706 403.788 52.3127 403.862 52.1653C404.03 52.4811 404.193 52.8023 404.351 53.1287C404.478 53.434 404.599 53.7393 404.715 54.0447C404.82 54.5079 404.915 54.9554 404.999 55.3871C405.084 55.8504 405.163 56.3242 405.236 56.8085C405.205 56.9875 405.168 57.177 405.126 57.3771C405.052 57.5771 404.968 57.7824 404.873 57.993C404.715 57.7192 404.546 57.4297 404.367 57.1244C404.167 56.8085 403.956 56.5084 403.735 56.2241C403.661 55.6977 403.588 55.1765 403.514 54.6606C403.43 54.1342 403.34 53.6235 403.245 53.1287ZM403.245 70.4697C403.34 69.9748 403.43 69.4642 403.514 68.9377C403.588 68.4113 403.661 67.8901 403.735 67.3742C403.946 67.0899 404.157 66.7898 404.367 66.474C404.546 66.1792 404.715 65.8896 404.873 65.6053C404.968 65.8159 405.052 66.0212 405.126 66.2213C405.178 66.4213 405.215 66.6108 405.236 66.7898C405.163 67.2742 405.084 67.748 404.999 68.2112C404.915 68.6429 404.82 69.0904 404.715 69.5537C404.599 69.859 404.478 70.1643 404.351 70.4697C404.193 70.7961 404.03 71.1172 403.862 71.4331C403.788 71.2857 403.709 71.1277 403.625 70.9593C403.509 70.8119 403.382 70.6487 403.245 70.4697ZM396.293 49.2119C395.809 48.8434 395.324 48.4802 394.839 48.1222C394.344 47.7853 393.839 47.4326 393.323 47.064C393.217 46.506 393.107 45.948 392.991 45.39C392.885 44.853 392.77 44.3213 392.643 43.7948C393.022 43.6264 393.396 43.4579 393.765 43.2895C393.765 43.2895 393.781 43.321 393.797 43.321C394.144 43.1736 394.487 43.0315 394.824 42.8946C395.277 43.2315 395.735 43.5843 396.198 43.9528C396.63 44.2897 397.062 44.6424 397.494 45.0109C397.631 45.4952 397.768 45.9901 397.905 46.4955C398.042 47.0219 398.173 47.5431 398.3 48.059C398.005 48.2485 397.689 48.4275 397.352 48.596C397.015 48.796 396.667 49.0066 396.309 49.2277L396.293 49.2119ZM397.162 67.0109C396.572 66.6003 395.961 66.1897 395.329 65.7791C394.666 65.3684 393.992 64.9473 393.307 64.5156C393.328 63.6101 393.338 62.7046 393.338 61.7992C393.338 60.8726 393.328 59.9619 393.307 59.0669C394.002 58.6352 394.676 58.2141 395.329 57.8035C395.961 57.3928 396.572 56.9822 397.162 56.5716C397.784 57.0454 398.389 57.5087 398.979 57.9614C399.527 58.4036 400.059 58.8406 400.575 59.2722C400.596 60.104 400.612 60.9463 400.622 61.7992C400.622 62.6309 400.607 63.4575 400.575 64.2787C400.059 64.7209 399.527 65.1579 398.979 65.5895C398.389 66.0423 397.784 66.5056 397.162 66.9794V67.0109ZM394.808 80.7195C394.481 80.5826 394.139 80.4405 393.781 80.2931C393.781 80.2931 393.781 80.2931 393.765 80.3247C393.396 80.1667 393.022 79.9983 392.643 79.8193C392.77 79.2823 392.885 78.7506 392.991 78.2242C393.107 77.6556 393.217 77.0923 393.323 76.5343C393.839 76.1658 394.344 75.8131 394.839 75.4761C395.324 75.1182 395.809 74.7549 396.293 74.3864C396.641 74.6075 396.988 74.8181 397.336 75.0181C397.663 75.1866 397.979 75.3656 398.284 75.5551C398.158 76.071 398.026 76.5922 397.889 77.1186C397.752 77.624 397.615 78.1189 397.478 78.6032C397.046 78.9717 396.614 79.3244 396.183 79.6613C395.719 80.0299 395.261 80.3826 394.808 80.7195Z" fill="white"/>
<path d="M405.679 59.888C405.679 59.7616 405.679 59.6195 405.663 59.4932C405.663 59.6669 405.679 59.7616 405.679 59.888Z" fill="white"/>
<path d="M402.818 49.3224C402.818 49.3224 402.882 49.3698 402.961 49.4329C402.939 49.3382 402.918 49.2382 402.897 49.1329C402.824 48.8381 402.739 48.538 402.644 48.2327C402.55 47.9273 402.434 47.6483 402.297 47.3956C401.586 45.9742 400.764 44.5844 399.864 43.2578C399.927 43.3631 399.995 43.4736 400.069 43.5894C399.953 43.4526 399.832 43.3157 399.706 43.1788C399.505 42.9893 399.3 42.805 399.089 42.626C399.005 42.5523 398.931 42.4892 398.868 42.4365C398.889 42.5102 398.91 42.5839 398.931 42.6576C398.973 42.9208 399.016 43.1946 399.058 43.4789C399.079 43.7737 399.089 44.0738 399.089 44.3791C399.089 44.4844 399.089 44.5791 399.089 44.6634C399.184 44.8108 399.279 44.9582 399.374 45.1056C399.679 45.5899 399.974 46.0637 400.259 46.527C400.543 47.0218 400.827 47.5167 401.112 48.0115C401.186 48.1379 401.265 48.28 401.349 48.438C401.423 48.4696 401.502 48.5064 401.586 48.5485C401.839 48.6749 402.076 48.8065 402.297 48.9433C402.497 49.0592 402.681 49.1855 402.85 49.3224H402.818ZM402.17 47.8378C402.034 47.722 401.897 47.6114 401.76 47.5062C401.602 47.4009 401.444 47.3008 401.286 47.2061C401.096 46.8797 400.906 46.5533 400.717 46.2269C400.506 45.8795 400.301 45.5478 400.101 45.2319C400.069 45.0003 400.043 44.7792 400.022 44.5686C399.979 44.358 399.943 44.1633 399.911 43.9843C400.069 44.1106 400.222 44.237 400.369 44.3633C400.496 44.4791 400.622 44.6055 400.748 44.7423C400.938 45.0477 401.122 45.353 401.301 45.6583C401.481 45.9637 401.654 46.2743 401.823 46.5902C401.897 46.7797 401.96 46.9692 402.012 47.1587C402.076 47.3798 402.134 47.6009 402.186 47.822L402.17 47.8378Z" fill="white"/>
<path d="M394.998 38.962C395.061 38.9514 395.119 38.9409 395.172 38.9304L394.982 38.5987C394.793 38.2934 394.603 37.9986 394.413 37.7143C394.224 37.43 394.024 37.1563 393.813 36.8931C393.729 36.7878 393.655 36.693 393.592 36.6088C393.465 36.5035 393.339 36.4035 393.213 36.3087C392.876 36.0455 392.523 35.777 392.154 35.5032C391.785 35.2295 391.411 34.961 391.032 34.6978C390.895 34.603 390.764 34.5083 390.637 34.4135C390.574 34.4135 390.505 34.403 390.432 34.3819C390.221 34.3609 390.005 34.3503 389.784 34.3503C389.552 34.3503 389.305 34.3503 389.041 34.3503C388.957 34.3503 388.862 34.3503 388.757 34.3503C388.831 34.4556 388.894 34.5609 388.946 34.6662C389.115 34.9715 389.278 35.2769 389.436 35.5822C389.605 35.9191 389.763 36.2508 389.91 36.5772C389.963 36.693 390.016 36.8141 390.068 36.9404C390.216 37.0352 390.369 37.1352 390.527 37.2405C390.958 37.5248 391.39 37.8143 391.822 38.1091C392.243 38.4039 392.66 38.6935 393.07 38.9778C393.218 39.0831 393.365 39.1883 393.513 39.2936C393.597 39.262 393.676 39.2357 393.75 39.2147C393.992 39.1726 394.219 39.1199 394.429 39.0567C394.629 39.0146 394.819 38.9725 394.998 38.9304V38.962ZM393.655 37.7143C393.539 37.7354 393.407 37.7564 393.26 37.7775C393.134 37.8091 392.991 37.8354 392.833 37.8564C392.581 37.6775 392.312 37.4879 392.028 37.2879C391.764 37.1089 391.49 36.9246 391.206 36.7351C391.101 36.5245 390.99 36.314 390.874 36.1034C390.779 35.9139 390.669 35.7191 390.542 35.519C390.7 35.519 390.858 35.519 391.016 35.519C391.153 35.5085 391.285 35.498 391.411 35.4875C391.675 35.677 391.927 35.856 392.17 36.0244C392.433 36.2139 392.681 36.3982 392.912 36.5772C393.049 36.7667 393.181 36.9615 393.307 37.1615C393.413 37.3405 393.523 37.5301 393.639 37.7301L393.655 37.7143Z" fill="white"/>
<path d="M405.679 63.6785C405.679 63.8048 405.679 63.8996 405.663 64.0733C405.663 63.947 405.663 63.8048 405.679 63.6785Z" fill="white"/>
</g>
<g clip-path="url(#clip0_688_23827)">
<path d="M3.39712 147.636V150.936H10.7444V154.032H3.39712V160.033H0V144.54H11.7398V147.636H3.39712Z" fill="white"/>
<path d="M24.7121 155.264H16.4959C16.8277 156.796 17.8863 157.585 19.3874 157.585C20.5092 157.585 21.3308 157.238 22.2473 156.369L24.1591 158.075C23.0531 159.449 21.473 160.286 19.34 160.286C15.8006 160.286 13.1777 157.791 13.1777 154.158V154.111C13.1777 150.731 15.5794 147.936 19.0081 147.936C22.9425 147.936 24.7595 151.015 24.7595 154.379V154.427C24.7595 154.758 24.7437 154.964 24.7121 155.264ZM19.0081 150.636C17.6177 150.636 16.7171 151.631 16.4484 153.163H21.4888C21.2834 151.663 20.4144 150.636 19.0081 150.636Z" fill="white"/>
<path d="M31.395 160.239C29.7518 160.239 27.9031 159.686 26.3389 158.454L27.7767 156.243C29.0566 157.175 30.3996 157.664 31.4899 157.664C32.4537 157.664 32.8961 157.317 32.8961 156.78V156.732C32.8961 156.006 31.7585 155.753 30.447 155.358C28.8038 154.869 26.9235 154.095 26.9235 151.805V151.758C26.9235 149.341 28.867 147.999 31.237 147.999C32.7381 147.999 34.3656 148.504 35.6454 149.373L34.3656 151.694C33.1963 151.015 32.0271 150.589 31.1738 150.589C30.368 150.589 29.9414 150.936 29.9414 151.41V151.458C29.9414 152.121 31.0632 152.437 32.3431 152.879C33.9863 153.432 35.914 154.221 35.914 156.401V156.448C35.914 159.086 33.9547 160.27 31.395 160.27V160.239Z" fill="white"/>
<path d="M42.0615 160.223C40.0075 160.223 38.6328 159.401 38.6328 156.669V151.047H37.2266V148.172H38.6328V145.14H41.9825V148.172H44.7634V151.047H41.9825V156.116C41.9825 156.89 42.3143 157.269 43.057 157.269C43.6732 157.269 44.2262 157.111 44.7002 156.843V159.544C43.9892 159.97 43.1834 160.223 42.0615 160.223Z" fill="white"/>
<path d="M47.2744 146.862V143.877H50.7979V146.862H47.2744ZM47.3692 160.017V148.172H50.7189V160.033H47.3692V160.017Z" fill="white"/>
<path d="M60.4847 160.112H57.451L52.8057 148.172H56.345L58.9837 156.116L61.654 148.172H65.1301L60.4847 160.112Z" fill="white"/>
<path d="M73.4254 160.017V158.738C72.6196 159.638 71.482 160.239 69.8545 160.239C67.6266 160.239 65.8096 158.959 65.8096 156.606V156.559C65.8096 153.969 67.7688 152.784 70.5655 152.784C71.7506 152.784 72.6196 152.989 73.457 153.274V153.068C73.457 151.679 72.6038 150.905 70.9289 150.905C69.6491 150.905 68.7485 151.142 67.674 151.552L66.8366 148.994C68.1322 148.425 69.4121 148.046 71.4188 148.046C75.0687 148.046 76.6804 149.941 76.6804 153.163V160.049H73.4412L73.4254 160.017ZM73.4886 155.232C72.9198 154.964 72.1614 154.79 71.3556 154.79C69.9177 154.79 69.0487 155.358 69.0487 156.432V156.48C69.0487 157.38 69.7913 157.917 70.8815 157.917C72.4458 157.917 73.5044 157.048 73.5044 155.832V155.232H73.4886Z" fill="white"/>
<path d="M79.6973 160.017V143.877H83.047V160.017H79.6973Z" fill="white"/>
<path d="M93.1592 160.017V144.54H104.788V147.572H96.5405V150.715H103.809V153.748H96.5405V157.001H104.899V160.033H93.1592V160.017Z" fill="white"/>
<path d="M115.138 160.017L112.057 155.169L110.888 156.401V160.002H107.538V143.877H110.888V152.484L114.806 148.172H118.82L114.332 152.847L118.978 160.033H115.154L115.138 160.017Z" fill="white"/>
<path d="M125.819 160.286C122.169 160.286 119.451 157.569 119.451 154.158V154.111C119.451 150.699 122.185 147.936 125.85 147.936C129.516 147.936 132.218 150.652 132.218 154.063V154.111C132.218 157.522 129.485 160.286 125.819 160.286ZM128.916 154.111C128.916 152.358 127.667 150.842 125.819 150.842C123.97 150.842 122.753 152.326 122.753 154.079V154.127C122.753 155.88 124.002 157.396 125.85 157.396C127.699 157.396 128.916 155.911 128.916 154.174V154.127V154.111Z" fill="white"/>
<path d="M142.11 160.017V153.4C142.11 151.805 141.368 150.984 140.088 150.984C138.808 150.984 138.002 151.805 138.002 153.4V160.017H134.652V148.172H138.002V149.847C138.776 148.852 139.772 147.936 141.462 147.936C143.99 147.936 145.476 149.61 145.476 152.342V160.017H142.126H142.11Z" fill="white"/>
<path d="M154.15 160.286C150.5 160.286 147.782 157.569 147.782 154.158V154.111C147.782 150.699 150.516 147.936 154.181 147.936C157.847 147.936 160.549 150.652 160.549 154.063V154.111C160.549 157.522 157.816 160.286 154.15 160.286ZM157.247 154.111C157.247 152.358 155.999 150.842 154.15 150.842C152.301 150.842 151.085 152.326 151.085 154.079V154.127C151.085 155.88 152.333 157.396 154.181 157.396C156.03 157.396 157.247 155.911 157.247 154.174V154.127V154.111Z" fill="white"/>
<path d="M177.629 160.017V153.4C177.629 151.805 176.918 150.984 175.669 150.984C174.421 150.984 173.647 151.805 173.647 153.4V160.017H170.297V153.4C170.297 151.805 169.586 150.984 168.338 150.984C167.09 150.984 166.316 151.805 166.316 153.4V160.017H162.966V148.172H166.316V149.847C167.09 148.852 168.101 147.936 169.792 147.936C171.34 147.936 172.494 148.615 173.11 149.815C174.137 148.599 175.369 147.936 176.981 147.936C179.462 147.936 180.963 149.436 180.963 152.294V160.017H177.613H177.629Z" fill="white"/>
<path d="M183.95 146.862V143.877H187.474V146.862H183.95ZM184.045 160.017V148.172H187.395V160.033H184.045V160.017Z" fill="white"/>
<path d="M207.445 160.017L202.673 153.432L200.887 155.295V160.033H197.49V144.54H200.887V151.299L207.144 144.524H211.237L204.964 151.094L211.521 160.017H207.445Z" fill="white"/>
<path d="M223.499 155.264H215.283C215.615 156.796 216.673 157.585 218.174 157.585C219.296 157.585 220.118 157.238 221.034 156.369L222.946 158.075C221.84 159.449 220.26 160.286 218.127 160.286C214.588 160.286 211.965 157.791 211.965 154.158V154.111C211.965 150.731 214.367 147.936 217.795 147.936C221.73 147.936 223.547 151.015 223.547 154.379V154.427C223.547 154.758 223.531 154.964 223.499 155.264ZM217.795 150.636C216.405 150.636 215.504 151.631 215.236 153.163H220.276C220.071 151.663 219.202 150.636 217.795 150.636Z" fill="white"/>
<path d="M233.406 160.017V158.343C232.632 159.338 231.652 160.238 229.946 160.238C227.418 160.238 225.933 158.564 225.933 155.832V148.172H229.282V154.774C229.282 156.369 230.025 157.19 231.305 157.19C232.585 157.19 233.39 156.369 233.39 154.774V148.172H236.74V160.033H233.39L233.406 160.017Z" fill="white"/>
<path d="M246.663 160.017V158.738C245.857 159.638 244.719 160.239 243.092 160.239C240.864 160.239 239.047 158.959 239.047 156.606V156.559C239.047 153.969 241.006 152.784 243.803 152.784C244.988 152.784 245.857 152.989 246.694 153.274V153.068C246.694 151.679 245.841 150.905 244.166 150.905C242.886 150.905 241.986 151.142 240.911 151.552L240.074 148.994C241.37 148.425 242.649 148.046 244.656 148.046C248.306 148.046 249.918 149.941 249.918 153.163V160.049H246.679L246.663 160.017ZM246.726 155.232C246.157 154.964 245.399 154.79 244.593 154.79C243.155 154.79 242.286 155.358 242.286 156.432V156.48C242.286 157.38 243.029 157.917 244.119 157.917C245.683 157.917 246.742 157.048 246.742 155.832V155.232H246.726Z" fill="white"/>
<path d="M260.251 160.017V153.4C260.251 151.805 259.508 150.984 258.228 150.984C256.948 150.984 256.143 151.805 256.143 153.4V160.017H252.793V148.172H256.143V149.847C256.917 148.852 257.912 147.936 259.603 147.936C262.131 147.936 263.616 149.61 263.616 152.342V160.017H260.267H260.251Z" fill="white"/>
<path d="M271.77 163.602C269.858 163.602 268.057 163.16 266.556 162.355L267.693 159.828C268.91 160.507 270.111 160.917 271.675 160.917C273.966 160.917 275.041 159.812 275.041 157.696V157.127C274.045 158.327 272.971 159.054 271.185 159.054C268.436 159.054 265.939 157.048 265.939 153.526V153.479C265.939 149.941 268.468 147.951 271.185 147.951C273.018 147.951 274.093 148.725 274.993 149.72V148.172H278.343V157.348C278.343 161.818 276.147 163.602 271.754 163.602H271.77ZM275.056 153.463C275.056 151.852 273.808 150.715 272.181 150.715C270.553 150.715 269.321 151.836 269.321 153.463V153.51C269.321 155.153 270.553 156.258 272.181 156.258C273.808 156.258 275.056 155.137 275.056 153.51V153.463Z" fill="white"/>
<path d="M288.264 160.017V158.738C287.458 159.638 286.321 160.239 284.693 160.239C282.465 160.239 280.648 158.959 280.648 156.606V156.559C280.648 153.969 282.608 152.784 285.404 152.784C286.589 152.784 287.458 152.989 288.296 153.274V153.068C288.296 151.679 287.443 150.905 285.768 150.905C284.488 150.905 283.587 151.142 282.513 151.552L281.675 148.994C282.971 148.425 284.251 148.046 286.258 148.046C289.908 148.046 291.519 149.941 291.519 153.163V160.049H288.28L288.264 160.017ZM288.328 155.232C287.759 154.964 287 154.79 286.194 154.79C284.757 154.79 283.888 155.358 283.888 156.432V156.48C283.888 157.38 284.63 157.917 285.72 157.917C287.285 157.917 288.343 157.048 288.343 155.832V155.232H288.328Z" fill="white"/>
<path d="M301.853 160.017V153.4C301.853 151.805 301.111 150.984 299.831 150.984C298.551 150.984 297.745 151.805 297.745 153.4V160.017H294.396V148.172H297.745V149.847C298.519 148.852 299.515 147.936 301.206 147.936C303.734 147.936 305.219 149.61 305.219 152.342V160.017H301.869H301.853Z" fill="white"/>
<path d="M321.067 160.017H315.062V144.54H321.067C325.902 144.54 329.251 147.888 329.251 152.247V152.295C329.251 156.653 325.902 160.033 321.067 160.033V160.017ZM325.712 152.279C325.712 149.531 323.848 147.604 321.067 147.604H318.444V156.938H321.067C323.832 156.938 325.712 155.058 325.712 152.31V152.263V152.279Z" fill="white"/>
<path d="M331.986 146.862V143.877H335.51V146.862H331.986ZM332.081 160.017V148.172H335.431V160.033H332.081V160.017Z" fill="white"/>
<path d="M343.852 163.602C341.94 163.602 340.139 163.16 338.638 162.355L339.775 159.828C340.992 160.507 342.193 160.917 343.757 160.917C346.048 160.917 347.123 159.812 347.123 157.696V157.127C346.127 158.327 345.053 159.054 343.267 159.054C340.518 159.054 338.021 157.048 338.021 153.526V153.479C338.021 149.941 340.55 147.951 343.267 147.951C345.1 147.951 346.175 148.725 347.075 149.72V148.172H350.425V157.348C350.425 161.818 348.229 163.602 343.836 163.602H343.852ZM347.138 153.463C347.138 151.852 345.89 150.715 344.263 150.715C342.635 150.715 341.403 151.836 341.403 153.463V153.51C341.403 155.153 342.635 156.258 344.263 156.258C345.89 156.258 347.138 155.137 347.138 153.51V153.463Z" fill="white"/>
<path d="M353.49 146.862V143.877H357.014V146.862H353.49ZM353.585 160.017V148.172H356.935V160.033H353.585V160.017Z" fill="white"/>
<path d="M364.045 160.223C361.991 160.223 360.616 159.401 360.616 156.669V151.047H359.21V148.172H360.616V145.14H363.966V148.172H366.747V151.047H363.966V156.116C363.966 156.89 364.298 157.269 365.04 157.269C365.657 157.269 366.21 157.111 366.684 156.843V159.544C365.973 159.97 365.167 160.223 364.045 160.223Z" fill="white"/>
<path d="M376.117 160.017V158.738C375.311 159.638 374.173 160.239 372.546 160.239C370.318 160.239 368.501 158.959 368.501 156.606V156.559C368.501 153.969 370.46 152.784 373.257 152.784C374.442 152.784 375.311 152.989 376.148 153.274V153.068C376.148 151.679 375.295 150.905 373.62 150.905C372.341 150.905 371.44 151.142 370.365 151.552L369.528 148.994C370.824 148.425 372.104 148.046 374.11 148.046C377.76 148.046 379.372 149.941 379.372 153.163V160.049H376.133L376.117 160.017ZM376.18 155.232C375.611 154.964 374.853 154.79 374.047 154.79C372.609 154.79 371.74 155.358 371.74 156.432V156.48C371.74 157.38 372.483 157.917 373.573 157.917C375.137 157.917 376.196 157.048 376.196 155.832V155.232H376.18Z" fill="white"/>
<path d="M382.389 160.017V143.877H385.738V160.017H382.389Z" fill="white"/>
<path d="M404.004 160.017V158.312C403.182 159.417 402.06 160.239 400.322 160.239C397.573 160.239 394.95 158.075 394.95 154.111V154.063C394.95 150.099 397.526 147.936 400.322 147.936C402.108 147.936 403.214 148.757 404.004 149.704V143.877H407.354V160.017H404.004ZM404.051 154.063C404.051 152.089 402.756 150.794 401.191 150.794C399.627 150.794 398.3 152.073 398.3 154.063V154.111C398.3 156.085 399.627 157.38 401.191 157.38C402.756 157.38 404.051 156.069 404.051 154.111V154.063Z" fill="white"/>
<path d="M417.245 160.017V158.738C416.439 159.638 415.301 160.239 413.674 160.239C411.446 160.239 409.629 158.959 409.629 156.606V156.559C409.629 153.969 411.588 152.784 414.385 152.784C415.57 152.784 416.439 152.989 417.276 153.274V153.068C417.276 151.679 416.423 150.905 414.748 150.905C413.468 150.905 412.568 151.142 411.493 151.552L410.656 148.994C411.952 148.425 413.231 148.046 415.238 148.046C418.888 148.046 420.5 149.941 420.5 153.163V160.049H417.261L417.245 160.017ZM417.308 155.232C416.739 154.964 415.981 154.79 415.175 154.79C413.737 154.79 412.868 155.358 412.868 156.432V156.48C412.868 157.38 413.611 157.917 414.701 157.917C416.265 157.917 417.324 157.048 417.324 155.832V155.232H417.308Z" fill="white"/>
<path d="M430.833 160.017V153.4C430.833 151.805 430.09 150.984 428.81 150.984C427.531 150.984 426.725 151.805 426.725 153.4V160.017H423.375V148.172H426.725V149.847C427.499 148.852 428.494 147.936 430.185 147.936C432.713 147.936 434.198 149.61 434.198 152.342V160.017H430.849H430.833Z" fill="white"/>
<path d="M453.982 160.017L449.21 153.432L447.425 155.295V160.033H444.027V144.54H447.425V151.299L453.682 144.524H457.774L451.501 151.094L458.058 160.017H453.982Z" fill="white"/>
<path d="M466.448 160.017V158.738C465.642 159.638 464.504 160.239 462.877 160.239C460.649 160.239 458.832 158.959 458.832 156.606V156.559C458.832 153.969 460.791 152.784 463.588 152.784C464.773 152.784 465.642 152.989 466.479 153.274V153.068C466.479 151.679 465.626 150.905 463.951 150.905C462.672 150.905 461.771 151.142 460.696 151.552L459.859 148.994C461.155 148.425 462.435 148.046 464.441 148.046C468.091 148.046 469.703 149.941 469.703 153.163V160.049H466.464L466.448 160.017ZM466.511 155.232C465.942 154.964 465.184 154.79 464.378 154.79C462.94 154.79 462.071 155.358 462.071 156.432V156.48C462.071 157.38 462.814 157.917 463.904 157.917C465.468 157.917 466.527 157.048 466.527 155.832V155.232H466.511Z" fill="white"/>
<path d="M479.499 151.458C477.271 151.458 475.912 152.8 475.912 155.643V160.017H472.562V148.173H475.912V150.557C476.592 148.915 477.698 147.857 479.673 147.951V151.473H479.499V151.458Z" fill="white"/>
<path d="M488.459 160.302C487.558 162.718 486.595 163.618 484.588 163.618C483.371 163.618 482.471 163.302 481.617 162.797L482.739 160.365C483.182 160.633 483.735 160.823 484.177 160.823C484.746 160.823 485.062 160.649 485.346 160.049L480.717 148.141H484.256L486.942 156.211L489.518 148.141H492.994L488.459 160.286V160.302Z" fill="white"/>
<path d="M501.336 160.017V158.738C500.53 159.638 499.392 160.239 497.765 160.239C495.537 160.239 493.72 158.959 493.72 156.606V156.559C493.72 153.969 495.679 152.784 498.476 152.784C499.661 152.784 500.53 152.989 501.367 153.274V153.068C501.367 151.679 500.514 150.905 498.839 150.905C497.559 150.905 496.659 151.142 495.584 151.552L494.747 148.994C496.042 148.425 497.322 148.046 499.329 148.046C502.979 148.046 504.591 149.941 504.591 153.163V160.049H501.351L501.336 160.017ZM501.399 155.232C500.83 154.964 500.072 154.79 499.266 154.79C497.828 154.79 496.959 155.358 496.959 156.432V156.48C496.959 157.38 497.701 157.917 498.792 157.917C500.356 157.917 501.415 157.048 501.415 155.832V155.232H501.399Z" fill="white"/>
<path d="M524.357 160.017L519.585 153.432L517.799 155.295V160.033H514.402V144.54H517.799V151.299L524.057 144.524H528.149L521.876 151.094L528.433 160.017H524.357Z" fill="white"/>
<path d="M537.059 151.458C534.832 151.458 533.473 152.8 533.473 155.643V160.017H530.123V148.173H533.473V150.557C534.152 148.915 535.258 147.857 537.233 147.951V151.473H537.059V151.458Z" fill="white"/>
<path d="M549.953 155.264H541.737C542.069 156.796 543.128 157.585 544.629 157.585C545.75 157.585 546.572 157.238 547.488 156.369L549.4 158.075C548.294 159.449 546.714 160.286 544.581 160.286C541.042 160.286 538.419 157.791 538.419 154.158V154.111C538.419 150.731 540.821 147.936 544.249 147.936C548.184 147.936 550.001 151.015 550.001 154.379V154.427C550.001 154.758 549.985 154.964 549.953 155.264ZM544.249 150.636C542.859 150.636 541.958 151.631 541.69 153.163H546.73C546.525 151.663 545.656 150.636 544.249 150.636Z" fill="white"/>
<path d="M559.403 160.017V158.738C558.597 159.638 557.46 160.239 555.832 160.239C553.604 160.239 551.787 158.959 551.787 156.606V156.559C551.787 153.969 553.746 152.784 556.543 152.784C557.728 152.784 558.597 152.989 559.435 153.274V153.068C559.435 151.679 558.581 150.905 556.906 150.905C555.627 150.905 554.726 151.142 553.652 151.552L552.814 148.994C554.11 148.425 555.39 148.046 557.396 148.046C561.046 148.046 562.658 149.941 562.658 153.163V160.049H559.419L559.403 160.017ZM559.466 155.232C558.897 154.964 558.139 154.79 557.333 154.79C555.895 154.79 555.026 155.358 555.026 156.432V156.48C555.026 157.38 555.769 157.917 556.859 157.917C558.423 157.917 559.482 157.048 559.482 155.832V155.232H559.466Z" fill="white"/>
<path d="M569.39 160.223C567.336 160.223 565.961 159.401 565.961 156.669V151.047H564.555V148.172H565.961V145.14H569.311V148.172H572.092V151.047H569.311V156.116C569.311 156.89 569.642 157.269 570.385 157.269C571.001 157.269 571.554 157.111 572.028 156.843V159.544C571.317 159.97 570.511 160.223 569.39 160.223Z" fill="white"/>
<path d="M574.618 146.862V143.877H578.142V146.862H574.618ZM574.713 160.017V148.172H578.063V160.033H574.713V160.017Z" fill="white"/>
<path d="M586.28 146.546C585.505 146.546 585.063 146.941 585.063 147.825V148.283H587.765V151.031H585.095V160.017H581.745V151.047H580.354V148.283H581.745V147.525C581.745 144.919 583.041 143.719 585.395 143.719C586.454 143.719 587.149 143.845 587.765 144.05V146.83C587.275 146.656 586.817 146.546 586.248 146.546H586.28Z" fill="white"/>
<path d="M596.708 160.017V144.54H600.105V160.017H596.708Z" fill="white"/>
<path d="M611.071 160.017V153.4C611.071 151.805 610.329 150.984 609.049 150.984C607.769 150.984 606.963 151.805 606.963 153.4V160.017H603.613V148.172H606.963V149.847C607.737 148.852 608.733 147.936 610.423 147.936C612.951 147.936 614.437 149.61 614.437 152.342V160.017H611.087H611.071Z" fill="white"/>
<path d="M625.828 160.017V158.312C625.006 159.417 623.885 160.239 622.147 160.239C619.397 160.239 616.774 158.075 616.774 154.111V154.063C616.774 150.099 619.35 147.936 622.147 147.936C623.932 147.936 625.038 148.757 625.828 149.704V143.877H629.178V160.017H625.828ZM625.876 154.063C625.876 152.089 624.58 150.794 623.016 150.794C621.451 150.794 620.124 152.073 620.124 154.063V154.111C620.124 156.085 621.451 157.38 623.016 157.38C624.58 157.38 625.876 156.069 625.876 154.111V154.063Z" fill="white"/>
<path d="M637.963 160.286C634.313 160.286 631.596 157.569 631.596 154.158V154.111C631.596 150.699 634.329 147.936 637.995 147.936C641.661 147.936 644.363 150.652 644.363 154.063V154.111C644.363 157.522 641.629 160.286 637.963 160.286ZM641.06 154.111C641.06 152.358 639.812 150.842 637.963 150.842C636.115 150.842 634.898 152.326 634.898 154.079V154.127C634.898 155.88 636.146 157.396 637.995 157.396C639.844 157.396 641.06 155.911 641.06 154.174V154.127V154.111Z" fill="white"/>
<path d="M654.253 160.017V153.4C654.253 151.805 653.51 150.984 652.23 150.984C650.95 150.984 650.145 151.805 650.145 153.4V160.017H646.795V148.172H650.145V149.847C650.919 148.852 651.914 147.936 653.605 147.936C656.133 147.936 657.618 149.61 657.618 152.342V160.017H654.269H654.253Z" fill="white"/>
<path d="M671.46 155.264H663.244C663.576 156.796 664.634 157.585 666.135 157.585C667.257 157.585 668.079 157.238 668.995 156.369L670.907 158.075C669.801 159.449 668.221 160.286 666.088 160.286C662.549 160.286 659.926 157.791 659.926 154.158V154.111C659.926 150.731 662.327 147.936 665.756 147.936C669.691 147.936 671.508 151.015 671.508 154.379V154.427C671.508 154.758 671.492 154.964 671.46 155.264ZM665.756 150.636C664.366 150.636 663.465 151.631 663.197 153.163H668.237C668.031 151.663 667.162 150.636 665.756 150.636Z" fill="white"/>
<path d="M678.127 160.239C676.484 160.239 674.636 159.686 673.071 158.454L674.509 156.243C675.789 157.175 677.132 157.664 678.222 157.664C679.186 157.664 679.629 157.317 679.629 156.78V156.732C679.629 156.006 678.491 155.753 677.179 155.358C675.536 154.869 673.656 154.095 673.656 151.805V151.758C673.656 149.341 675.599 147.999 677.969 147.999C679.47 147.999 681.098 148.504 682.378 149.373L681.098 151.694C679.929 151.015 678.759 150.589 677.906 150.589C677.1 150.589 676.674 150.936 676.674 151.41V151.458C676.674 152.121 677.796 152.437 679.075 152.879C680.719 153.432 682.646 154.221 682.646 156.401V156.448C682.646 159.086 680.687 160.27 678.127 160.27V160.239Z" fill="white"/>
<path d="M685.111 146.862V143.877H688.635V146.862H685.111ZM685.206 160.017V148.172H688.556V160.033H685.206V160.017Z" fill="white"/>
<path d="M698.605 160.017V158.738C697.799 159.638 696.662 160.239 695.034 160.239C692.806 160.239 690.989 158.959 690.989 156.606V156.559C690.989 153.969 692.948 152.784 695.745 152.784C696.93 152.784 697.799 152.989 698.637 153.274V153.068C698.637 151.679 697.783 150.905 696.109 150.905C694.829 150.905 693.928 151.142 692.854 151.552L692.016 148.994C693.312 148.425 694.592 148.046 696.598 148.046C700.248 148.046 701.86 149.941 701.86 153.163V160.049H698.621L698.605 160.017ZM698.668 155.232C698.099 154.964 697.341 154.79 696.535 154.79C695.097 154.79 694.228 155.358 694.228 156.432V156.48C694.228 157.38 694.971 157.917 696.061 157.917C697.625 157.917 698.684 157.048 698.684 155.832V155.232H698.668Z" fill="white"/>
</g>
<defs>
<linearGradient id="paint0_linear_688_23827" x1="98.7229" y1="129.599" x2="266.293" y2="27.0162" gradientUnits="userSpaceOnUse">
<stop stop-color="#CD6F24"/>
<stop offset="0.04" stop-color="#AE561E"/>
<stop offset="0.08" stop-color="#97431A"/>
<stop offset="0.12" stop-color="#8A3817"/>
<stop offset="0.15" stop-color="#863517"/>
<stop offset="0.4" stop-color="#E7B343"/>
<stop offset="0.54" stop-color="#FDE892"/>
<stop offset="0.57" stop-color="#F8DC81"/>
<stop offset="0.6" stop-color="#F1CB67"/>
<stop offset="0.63" stop-color="#E4B75A"/>
<stop offset="0.68" stop-color="#C4863A"/>
<stop offset="0.71" stop-color="#BB7931"/>
<stop offset="0.73" stop-color="#B8742E"/>
<stop offset="0.74" stop-color="#AF6D2C"/>
<stop offset="0.78" stop-color="#A36429"/>
<stop offset="0.81" stop-color="#A06229"/>
<stop offset="0.83" stop-color="#A6682C"/>
<stop offset="0.87" stop-color="#B87936"/>
<stop offset="0.91" stop-color="#DD9E4B"/>
<stop offset="0.99" stop-color="#8C5E25"/>
<stop offset="1" stop-color="#8C5E25"/>
</linearGradient>
<linearGradient id="paint1_linear_688_23827" x1="479.973" y1="138.017" x2="372.28" y2="-14.9872" gradientUnits="userSpaceOnUse">
<stop stop-color="#CD6F24"/>
<stop offset="0.04" stop-color="#AE561E"/>
<stop offset="0.08" stop-color="#97431A"/>
<stop offset="0.12" stop-color="#8A3817"/>
<stop offset="0.15" stop-color="#863517"/>
<stop offset="0.4" stop-color="#E7B343"/>
<stop offset="0.54" stop-color="#FDE892"/>
<stop offset="0.57" stop-color="#F8DC81"/>
<stop offset="0.6" stop-color="#F1CB67"/>
<stop offset="0.63" stop-color="#E4B75A"/>
<stop offset="0.68" stop-color="#C4863A"/>
<stop offset="0.71" stop-color="#BB7931"/>
<stop offset="0.73" stop-color="#B8742E"/>
<stop offset="0.74" stop-color="#AF6D2C"/>
<stop offset="0.78" stop-color="#A36429"/>
<stop offset="0.81" stop-color="#A06229"/>
<stop offset="0.83" stop-color="#A6682C"/>
<stop offset="0.87" stop-color="#B87936"/>
<stop offset="0.91" stop-color="#DD9E4B"/>
<stop offset="0.99" stop-color="#8C5E25"/>
<stop offset="1" stop-color="#8C5E25"/>
</linearGradient>
<clipPath id="clip0_688_23827">
<rect width="701.845" height="19.9153" fill="white" transform="translate(0 143.719)"/>
</clipPath>
</defs>
</svg>
