<svg width="342" height="62" viewBox="0 0 342 62" fill="none" xmlns="http://www.w3.org/2000/svg">
<g clip-path="url(#clip0_76_5058)">
<path d="M110.628 14.8632C111.059 15.1917 111.361 15.348 111.57 15.5864C114.785 19.3923 117.991 23.2049 121.189 27.0244C122.905 29.0773 124.592 31.1508 126.291 33.2164C126.393 33.3756 126.553 33.4888 126.737 33.5322C126.768 33.3228 126.788 33.112 126.798 32.9005C126.798 28.5388 126.811 24.1756 126.79 19.8139C126.785 19.0256 126.707 18.2395 126.558 17.4657C126.336 16.305 125.854 15.9402 124.694 15.806C124.496 15.7838 124.315 15.5943 124.127 15.4806C124.334 15.3938 124.54 15.2311 124.747 15.228C126.841 15.209 128.935 15.209 131.028 15.228C131.217 15.228 131.405 15.3733 131.592 15.4506C131.418 15.5754 131.256 15.7791 131.064 15.8123C129.983 15.9986 129.519 16.5213 129.419 17.8652C129.334 19.0164 129.262 20.1724 129.262 21.3268C129.246 27.135 129.262 32.9432 129.262 38.7498V39.9373C128.874 39.6989 128.571 39.5978 128.393 39.3894C123.515 33.6254 118.644 27.8556 113.779 22.08C113.614 21.8842 113.446 21.6915 113.14 21.3362C113.115 21.791 113.087 22.0595 113.087 22.3295C113.087 26.6138 113.087 30.8966 113.104 35.1809C113.115 35.8109 113.17 36.4394 113.269 37.0617C113.479 38.4829 113.914 38.813 115.709 38.9725C115.709 39.1556 115.725 39.3467 115.736 39.5662H101.446C101.277 39.143 101.333 38.9472 101.842 38.9109C103.224 38.8114 103.519 38.4276 103.125 37.0948C102.712 35.6894 102.203 34.3107 101.691 32.9384C101.631 32.8224 101.545 32.7222 101.44 32.6459C101.334 32.5696 101.212 32.5195 101.084 32.4994C98.5471 32.471 96.0101 32.471 93.4725 32.4994C93.3429 32.5201 93.2198 32.571 93.1132 32.6481C93.0066 32.7251 92.9194 32.8262 92.8585 32.9432C92.3231 34.3076 91.7829 35.6751 91.3527 37.0759C90.9554 38.3676 91.3119 38.8256 92.6513 38.9061C93.1082 38.9346 93.2794 39.064 93.1224 39.5046C91.9164 39.5046 90.7214 39.5046 89.5265 39.5046C88.4822 39.5141 87.4364 39.5378 86.3859 39.5694C85.9714 39.582 85.6935 39.5094 85.8929 38.9472C87.0769 38.9835 87.7301 38.1892 88.1525 37.2243C89.3914 34.3913 90.6037 31.5393 91.7641 28.681C93.5353 24.3082 95.2485 19.9118 97.0025 15.5328C97.1139 15.2548 97.3824 15.0385 97.5772 14.7953C97.7625 15.048 98.0121 15.269 98.122 15.558C100.662 22.1053 103.193 28.6552 105.717 35.2077C106.007 35.9394 106.334 36.6557 106.697 37.3538C106.89 37.7269 107.13 38.073 107.412 38.3834C107.633 38.6499 107.935 38.8375 108.27 38.9185C108.606 38.9996 108.959 38.9697 109.277 38.8335C109.72 38.6345 110.229 38.0439 110.273 37.5859C110.477 35.4477 110.602 33.2953 110.623 31.1476C110.668 26.129 110.637 21.1088 110.637 16.0886L110.628 14.8632ZM97.3542 20.872C96.131 24.1108 94.9988 27.1207 93.8399 30.1733H100.691C99.5808 27.0986 98.513 24.0982 97.3542 20.872Z" fill="#005596"/>
<path d="M341.805 39.5315H334.48C334.303 39.1604 334.323 38.8998 334.851 38.9109C336.129 38.933 336.565 38.3676 336.148 37.0159C335.73 35.6641 335.232 34.2839 334.716 32.94C334.645 32.8164 334.546 32.7112 334.427 32.6331C334.309 32.5549 334.174 32.5059 334.033 32.49C331.548 32.4568 329.064 32.46 326.579 32.49C326.349 32.49 325.987 32.6668 325.914 32.8532C325.358 34.265 324.795 35.6815 324.364 37.1343C323.983 38.4182 324.379 38.8572 325.721 38.9172L326.172 38.9393C326.184 39.143 326.195 39.3325 326.209 39.5615H311.107V38.9425C311.404 38.9267 311.663 38.9219 311.92 38.8951C312.705 38.8114 313.261 38.4213 313.414 37.6223C313.583 36.8545 313.684 36.0727 313.713 35.2867C313.739 29.9533 313.739 24.6194 313.713 19.2849C313.705 18.681 313.646 18.0789 313.539 17.4846C313.348 16.3634 312.898 15.9797 311.774 15.8186C311.565 15.7886 311.375 15.6181 311.177 15.5122C311.378 15.4143 311.578 15.2327 311.779 15.2311C314.054 15.2101 316.328 15.2101 318.603 15.2311C318.782 15.2311 318.96 15.397 319.137 15.487C318.98 15.5991 318.831 15.7902 318.666 15.8139C317.36 15.9955 316.928 16.3555 316.808 17.7089C316.675 19.2217 316.603 20.7456 316.601 22.2664C316.601 26.7591 316.639 31.2519 316.673 35.7431C316.694 36.1365 316.739 36.5283 316.807 36.9164C316.964 38.0897 317.389 38.6866 318.212 38.873C319.402 39.143 320.282 38.8983 320.819 37.8055C321.88 35.6483 322.86 33.4406 323.761 31.2108C325.88 25.9995 327.934 20.7488 330.03 15.5217C330.14 15.2469 330.407 15.0369 330.602 14.7969C330.773 15.029 331.004 15.2375 331.104 15.4965C333.721 22.2343 336.338 28.9758 338.955 35.7209C339.249 36.4742 339.583 37.2433 340.07 37.8765C340.417 38.3313 341.045 38.5682 341.538 38.9156C341.704 39.048 341.862 39.191 342.009 39.3436L341.805 39.5315ZM333.725 30.197C332.626 27.1144 331.541 24.1061 330.382 20.8799C329.163 24.0998 328.026 27.1129 326.853 30.197H333.725Z" fill="#005596"/>
<path d="M226.436 27.4698C226.436 20.1629 231.774 14.928 239.244 14.9295C246.364 14.9295 251.517 20.0129 251.517 27.0355C251.517 34.4892 246.106 39.9737 238.721 39.9231C231.228 39.8726 226.233 33.9428 226.436 27.4698ZM229.494 27.3624C229.615 28.2436 229.664 29.1421 229.87 30.0028C230.719 33.5717 232.808 36.0921 236.375 37.0869C239.896 38.0692 243.096 37.2859 245.649 34.6124C247.968 32.1852 248.622 29.1674 248.298 25.8732C247.741 20.2087 242.331 16.305 236.818 17.6284C232.454 18.6769 229.571 22.5443 229.494 27.3624Z" fill="#005596"/>
<path d="M202.712 38.9425L203.172 38.9172C204.389 38.8493 204.967 38.4119 205.104 37.1801C205.284 35.6438 205.379 34.0985 205.388 32.5516C205.388 27.9546 205.325 23.3592 205.278 18.7638C205.273 18.4229 205.239 18.0831 205.174 17.7484C204.91 16.3366 204.683 16.1281 203.29 15.8534C203.089 15.8139 202.916 15.6291 202.729 15.5107L202.849 15.1948C206.06 15.1948 209.273 15.1633 212.482 15.2138C213.604 15.2394 214.722 15.3684 215.821 15.5991C220.566 16.5624 223.692 20.0919 224.236 24.9384C224.534 27.6072 224.28 30.1938 223.163 32.6337C221.18 36.9622 217.642 39.0799 213.03 39.4573C211.19 39.6073 209.328 39.4968 207.475 39.5126C206.061 39.5252 204.648 39.5647 203.235 39.5536C203.007 39.5536 202.78 39.342 202.552 39.2283L202.712 38.9425ZM208.197 17.6236V35.1698C208.197 37.0822 208.197 37.117 210.128 37.2101C213.344 37.368 216.351 36.7964 218.667 34.3044C220.823 31.9846 221.428 29.1263 221.269 26.0611C221.056 21.9126 218.612 18.9327 214.64 17.93C214.061 17.7657 213.467 17.6646 212.867 17.6284C211.337 17.5857 209.813 17.6141 208.197 17.6141V17.6236Z" fill="#005596"/>
<path d="M267.688 15.5549C267.845 15.4365 268.017 15.2169 268.184 15.2154C270.382 15.1948 272.581 15.2012 274.779 15.2154C274.936 15.2154 275.093 15.3828 275.25 15.4712C275.113 15.5849 274.991 15.7681 274.839 15.7997C273.6 16.0507 273.301 16.2434 273.169 17.5052C272.997 19.1712 272.909 20.853 272.899 22.5285C272.866 27.9151 272.887 33.3032 272.887 38.6898V39.9626C272.494 39.6957 272.221 39.5852 272.051 39.3846C267.131 33.5596 262.211 27.7282 257.291 21.8905C257.176 21.7547 257.06 21.6205 256.855 21.382C256.793 21.5711 256.749 21.7657 256.724 21.9632C256.759 26.7702 256.798 31.5767 256.842 36.3826C256.839 36.4618 256.843 36.5411 256.855 36.6195C257.107 38.0218 257.136 38.8825 259.306 38.9583V39.5394H251.425C251.709 39.2552 251.888 38.9298 252.053 38.9362C253.584 39.0025 254.015 37.8797 254.094 36.6732C254.176 35.4178 254.251 34.1576 254.251 32.899C254.268 27.3024 254.259 21.7042 254.259 16.1076V14.879C254.697 15.1948 255.024 15.3528 255.236 15.5944C258.536 19.4981 261.828 23.4102 265.111 27.3308C266.727 29.2605 268.314 31.2124 269.916 33.1548C270.027 33.289 270.148 33.4169 270.387 33.6775C270.426 32.9653 270.484 32.4063 270.483 31.8472C270.471 27.6435 270.452 23.4397 270.425 19.2359C270.427 18.8421 270.398 18.4487 270.338 18.0595C270.024 16.1866 269.751 15.9355 267.887 15.7665L267.688 15.5549Z" fill="#005596"/>
<path d="M176.49 39.3578C176.696 39.2109 176.886 38.9646 177.109 38.9314C178.444 38.7277 178.926 38.2997 179.047 36.9116C179.155 35.6594 179.218 34.3976 179.223 33.1406C179.24 27.465 179.223 21.791 179.223 16.1155V15.168L179.405 14.9832C179.689 15.2027 180.024 15.378 180.25 15.6465C183.533 19.5291 186.807 23.4207 190.072 27.3213C191.669 29.2305 193.24 31.1619 194.825 33.0837C194.954 33.2416 195.092 33.3901 195.354 33.6917C195.39 32.9953 195.442 32.4647 195.44 31.9341C195.429 27.705 195.408 23.476 195.379 19.247C195.368 18.6698 195.312 18.0943 195.213 17.5257C195.018 16.3524 194.511 15.9212 193.328 15.7981C193.119 15.776 192.925 15.6133 192.724 15.5138C192.94 15.4127 193.154 15.2232 193.371 15.2217C195.411 15.1996 197.452 15.1996 199.495 15.2217C199.738 15.2217 199.981 15.3701 200.225 15.4506C200.016 15.5738 199.82 15.7744 199.597 15.8075C198.749 15.9386 198.27 16.4518 198.168 17.2541C198.026 18.319 197.948 19.3917 197.934 20.4661C197.913 26.4575 197.924 32.4473 197.924 38.4371C197.94 38.6729 197.936 38.9095 197.913 39.1446C197.861 39.3547 197.789 39.5594 197.698 39.7557C197.485 39.6436 197.21 39.5836 197.07 39.4115C192.175 33.6317 187.288 27.8445 182.407 22.05L181.928 21.4847L181.69 21.5478C181.69 22.1084 181.69 22.6691 181.69 23.2297C181.731 27.5882 181.775 31.9472 181.821 36.3068C181.82 36.3326 181.82 36.3584 181.821 36.3842C182.044 38.4687 182.459 38.8698 184.287 38.9582V39.5378H176.68L176.49 39.3578Z" fill="#005596"/>
<path d="M81.3533 26.8413C81.5857 26.9281 81.7726 27.0134 81.9673 27.0687C84.5629 27.7998 86.3184 29.7975 86.5383 32.2799C86.7848 35.0577 85.3936 37.5054 82.8984 38.6835C80.8681 39.6405 78.7011 39.6547 76.5263 39.6231C74.8823 39.5994 73.2382 39.5868 71.5942 39.5631C71.2346 39.5631 70.8091 39.5978 70.9802 38.9583C71.1372 38.944 71.2943 38.9251 71.4387 38.9156C72.5724 38.8446 73.1111 38.4624 73.2524 37.3491C73.4396 35.9455 73.5376 34.5314 73.546 33.1153C73.546 28.2578 73.4832 23.4002 73.4329 18.5427C73.4204 18.1233 73.3679 17.706 73.2759 17.2967C73.0702 16.2955 72.7342 16.0065 71.7182 15.817C71.5424 15.7854 71.3947 15.6038 71.2346 15.4917C71.3995 15.4128 71.5628 15.2627 71.7277 15.2627C74.3657 15.2485 77.0084 15.1522 79.6402 15.277C84.4247 15.5075 87.0361 20.2514 84.665 24.253C84.0039 25.3616 83.2502 25.9443 81.3533 26.8413ZM77.5847 28.1488C77.324 28.1488 77.032 28.0746 76.809 28.1693C76.586 28.2641 76.2547 28.5231 76.2531 28.7142C76.2154 31.2408 76.2249 33.7533 76.2327 36.2737C76.2327 36.828 76.5169 37.1106 77.0822 37.2038C78.5082 37.4408 79.9723 37.2261 81.2716 36.5895C82.7555 35.8883 83.5187 34.6597 83.6192 33.0458C83.7213 31.4035 83.0916 30.0801 81.7097 29.1516C80.4583 28.3115 79.0199 28.2325 77.5847 28.1488ZM76.2249 21.6995C76.2249 22.9059 76.2013 24.1124 76.2453 25.3158C76.2547 25.5369 76.5185 25.9222 76.6912 25.938C78.1186 26.0627 79.502 25.8858 80.7409 25.0805C82.1824 24.133 82.8498 22.448 82.5059 20.6098C82.206 18.9991 81.0769 17.8542 79.3512 17.5462C78.5661 17.4057 77.7449 17.442 76.9409 17.4041C76.4149 17.3773 76.2029 17.6189 76.2154 18.1621C76.2437 19.3402 76.2249 20.5198 76.2249 21.6995Z" fill="#005596"/>
<path d="M146.217 15.5565C146.401 15.4349 146.583 15.2091 146.767 15.2075C148.859 15.1917 150.95 15.2075 153.048 15.2296C153.229 15.2296 153.404 15.4017 153.583 15.4917C153.426 15.6086 153.269 15.7365 153.094 15.8376C152.428 16.2245 151.605 16.4692 151.112 17.0062C148.285 20.1092 145.545 23.2786 142.79 26.4465C142.731 26.5542 142.7 26.675 142.7 26.7978C142.7 26.9206 142.731 27.0415 142.79 27.1492C145.751 30.5476 148.73 33.9307 151.727 37.2986C152.462 38.1213 153.306 38.8367 154.504 38.9314C154.653 38.9441 154.782 39.2473 155.041 39.5473H146.8C146.781 39.3989 146.758 39.203 146.736 39.0246C146.791 38.9877 146.849 38.9559 146.91 38.9298C147.367 38.7956 147.827 38.6661 148.285 38.535C148.105 38.0613 148.029 37.507 147.728 37.1391C145.252 34.1165 142.735 31.1303 140.225 28.1378C140.086 28.0157 139.937 27.9058 139.779 27.8093C139.779 28.4504 139.771 28.9368 139.779 29.4216C139.822 31.8378 139.808 34.2555 139.936 36.6653C140.029 38.4245 140.689 38.9204 142.045 38.9346C142.216 38.9346 142.384 39.2094 142.556 39.3578L142.417 39.5473H134.235C134.222 39.3894 134.206 39.1904 134.191 39.0056C134.248 38.9723 134.31 38.9468 134.375 38.9298C136.146 38.824 136.535 38.5508 136.749 36.7806C136.91 35.2924 136.981 33.7957 136.961 32.2989C136.95 27.8077 136.895 23.315 136.846 18.8238C136.836 18.4043 136.791 17.9864 136.711 17.5747C136.479 16.3113 136.1 15.9781 134.872 15.8139C134.687 15.7902 134.519 15.6307 134.343 15.5344C134.53 15.4286 134.717 15.2327 134.907 15.2312C137.181 15.209 139.455 15.209 141.731 15.2312C141.909 15.2312 142.084 15.4017 142.262 15.4917C142.105 15.6054 141.948 15.7918 141.78 15.8186C140.583 16.005 140.073 16.3334 139.996 17.532C139.814 20.3745 139.773 23.2313 139.669 26.2838C139.983 26.0706 140.095 26.0217 140.169 25.9332C142.375 23.336 144.577 20.7346 146.773 18.1289C147.025 17.8266 147.248 17.5015 147.441 17.1577C147.912 16.3176 147.742 15.9781 146.789 15.836C146.66 15.817 146.53 15.8139 146.4 15.8044L146.217 15.5565Z" fill="#005596"/>
<path d="M291.138 24.2245V30.1259C290.885 29.9001 290.607 29.7738 290.565 29.5921C290.335 28.6178 289.656 28.283 288.772 28.2704C286.948 28.2483 285.125 28.2704 283.221 28.2704V32.2594C283.221 33.4943 283.221 34.7292 283.221 35.9641C283.221 37.0111 283.378 37.1754 284.381 37.1801C286.082 37.188 287.782 37.1927 289.481 37.1801C291.033 37.1643 291.579 36.7142 291.958 35.214C291.97 35.136 291.994 35.0603 292.03 34.9898C292.14 34.8208 292.265 34.6597 292.383 34.4955C292.471 34.6787 292.639 34.8634 292.634 35.0435C292.603 36.3826 292.537 37.7281 292.477 39.0577C292.477 39.2156 292.46 39.3736 292.449 39.5615H277.985C277.985 39.3878 277.967 39.192 277.957 39.0009C279.823 38.7119 280.204 38.2981 280.28 36.2957C280.361 34.1718 280.419 32.0446 280.413 29.9175C280.404 26.1101 280.341 22.3011 280.289 18.4921C280.273 18.099 280.224 17.7081 280.141 17.3235C279.948 16.3097 279.62 16.0144 278.604 15.8233C278.425 15.7902 278.273 15.6164 278.108 15.5075C278.304 15.4033 278.5 15.2106 278.697 15.209C282.985 15.1885 287.272 15.1917 291.56 15.1806C291.972 15.1806 292.198 15.269 292.171 15.7507C292.096 17.1719 292.058 18.5837 291.984 19.9987C291.984 20.1471 291.841 20.2892 291.766 20.4329C291.628 20.3113 291.486 20.1945 291.358 20.065C291.328 20.035 291.34 19.9639 291.329 19.9071C290.926 17.8257 290.742 17.6125 288.66 17.4988C287.044 17.4104 285.419 17.4546 283.792 17.4262C283.346 17.4183 283.207 17.6141 283.208 18.0436C283.221 20.4882 283.217 22.9391 283.208 25.3758C283.208 25.7405 283.276 25.9869 283.717 25.9743C285.519 25.9206 287.328 25.8921 289.122 25.829C289.441 25.84 289.754 25.742 290.011 25.551C290.267 25.36 290.452 25.0873 290.535 24.7772C290.601 24.5877 290.86 24.4693 291.138 24.2245Z" fill="#005596"/>
<path d="M307.528 15.5817C307.528 17.1798 307.544 18.6469 307.516 20.114C307.516 20.4472 307.602 20.9999 306.924 20.8293C306.897 20.774 306.853 20.7282 306.855 20.6824C306.88 19.2059 306.398 18.0579 304.889 17.5588C303.177 16.9919 301.169 17.4751 300.132 18.7085C299.225 19.7886 299.057 21.5115 299.845 22.8428C300.215 23.4733 300.694 24.0331 301.258 24.4962C302.379 25.3947 303.579 26.1938 304.755 27.0228C306.325 28.1283 307.707 29.3805 308.293 31.2945C309.549 35.4225 306.845 39.3625 302.445 39.7699C300.516 39.9566 298.568 39.7416 296.725 39.1383C296.175 38.9582 295.94 38.6945 295.988 38.0723C296.101 36.7142 296.117 35.3483 296.215 33.9886C296.23 33.7659 296.458 33.559 296.588 33.3443C296.686 33.5527 296.844 33.7533 296.874 33.9759C297.262 36.9116 299.173 37.7928 302.056 37.417C303.681 37.2054 305.009 36.4079 305.455 34.696C305.911 32.9416 305.41 31.4003 304.006 30.2538C302.934 29.379 301.746 28.6478 300.654 27.7982C299.711 27.0623 298.711 26.3469 297.937 25.4484C296.317 23.5676 295.99 21.3425 296.866 19.0338C297.758 16.6887 299.646 15.4854 302.048 15.1127C303.94 14.8142 305.798 15.0527 307.528 15.5817Z" fill="#005596"/>
<path d="M174.08 38.933V39.541H165.891C165.734 39.1304 165.813 38.9409 166.307 38.8998C167.655 38.7877 168.061 38.4545 168.253 37.1091C168.417 35.9402 168.502 34.7616 168.507 33.5812C168.537 29.3511 168.537 25.121 168.507 20.8909C168.495 19.7371 168.405 18.5853 168.239 17.4436C168.082 16.3003 167.618 15.9623 166.466 15.8107C166.263 15.7854 166.083 15.607 165.891 15.4949C166.089 15.4001 166.285 15.2248 166.483 15.2233C168.707 15.2043 170.929 15.2043 173.151 15.2233C173.377 15.2233 173.6 15.4049 173.824 15.5028C173.626 15.6086 173.439 15.7776 173.232 15.8091C172.064 15.9876 171.588 16.5229 171.478 17.9331C171.4 18.9533 171.321 19.9766 171.334 20.9999C171.361 26.0943 171.405 31.1887 171.467 36.2831C171.48 36.6764 171.538 37.0668 171.638 37.447C171.866 38.3945 172.383 38.8209 173.342 38.8919C173.574 38.9172 173.807 38.9219 174.08 38.933Z" fill="#005596"/>
<path d="M271.985 55.1085V48.2596H273.733V57.7615C273.085 57.7615 272.433 57.812 271.799 57.7347C271.568 57.7062 271.299 57.4188 271.17 57.1725C270.199 55.3169 269.261 53.4425 268.308 51.5775C268.181 51.3076 267.983 51.0781 267.735 50.9142V57.6952H266.058V48.2201C266.699 48.1935 267.342 48.2024 267.983 48.247C268.189 48.2707 268.424 48.5628 268.54 48.7918C269.504 50.6521 270.442 52.525 271.389 54.3931C271.518 54.6458 271.651 54.8937 271.783 55.1448L271.985 55.1085Z" fill="#005596"/>
<path d="M305.231 48.2501H307.021V57.7552C306.33 57.7552 305.633 57.801 304.947 57.7268C304.746 57.7062 304.531 57.373 304.408 57.1377C303.43 55.2538 302.474 53.3572 301.508 51.4669C301.396 51.2166 301.215 51.0039 300.987 50.8542V57.6225C300.895 57.6765 300.798 57.7185 300.696 57.7473C299.2 57.8531 299.2 57.8531 299.2 56.3387C299.2 53.8957 299.214 51.4511 299.19 49.0081C299.19 48.4096 299.366 48.2486 299.985 48.1838C301.136 48.0606 301.758 48.4428 302.226 49.534C302.968 51.2711 303.904 52.9119 304.763 54.5874C304.867 54.8089 305.03 54.997 305.234 55.1306L305.231 48.2501Z" fill="#005596"/>
<path d="M135.854 50.8716V57.7584C135.37 57.7584 134.93 57.8073 134.511 57.7347C134.408 57.6897 134.318 57.6194 134.248 57.5304C134.179 57.4413 134.133 57.3362 134.114 57.2246C134.089 54.3821 134.097 51.549 134.101 48.7113C134.092 48.58 134.124 48.4492 134.192 48.337C134.478 47.9769 136.432 48.2596 136.65 48.6876C137.639 50.6247 138.626 52.5634 139.611 54.5037C139.725 54.75 139.895 54.9663 140.106 55.1353V48.2817H141.904V57.7568C141.238 57.7568 140.543 57.7931 139.863 57.7331C139.681 57.7157 139.472 57.4267 139.363 57.2167C138.371 55.3106 137.399 53.3935 136.419 51.4811C136.304 51.2569 136.173 51.0405 136.05 50.8195L135.854 50.8716Z" fill="#005596"/>
<path d="M90.4278 48.2154C91.1015 48.2154 91.7296 48.1649 92.3404 48.2422C92.5744 48.2707 92.8507 48.5581 92.9685 48.7886C93.9625 50.6836 94.9251 52.6087 95.9002 54.521C96.0152 54.7794 96.2088 54.9945 96.4529 55.1353V48.2596H98.1158V57.7599C97.461 57.7599 96.7905 57.7978 96.1294 57.7362C95.9473 57.7189 95.74 57.4362 95.6317 57.2293C94.6063 55.2538 93.6013 53.2703 92.5885 51.2901C92.5061 51.0995 92.3615 50.943 92.1787 50.8463C92.163 51.1148 92.1363 51.3832 92.1363 51.6517C92.1363 53.3051 92.1363 54.9585 92.1363 56.6119C92.1363 57.801 92.1363 57.801 90.9225 57.7663C90.7655 57.7663 90.621 57.7394 90.4263 57.722L90.4278 48.2154Z" fill="#005596"/>
<path d="M277.334 57.651V48.2422C279.293 48.2422 281.245 47.969 283.104 48.8171C284.885 49.6303 285.549 51.3974 285.37 53.5104C285.155 56.037 284.045 57.2656 281.531 57.6162C280.184 57.8073 278.788 57.651 277.334 57.651ZM279.14 49.7677V54.7421C279.14 56.5124 279.392 56.7161 281.115 56.2107C281.538 56.0802 281.932 55.8702 282.277 55.5917C283.442 54.6584 283.778 52.9624 283.133 51.5159C282.498 50.0962 281.052 49.4329 279.141 49.7677H279.14Z" fill="#005596"/>
<path d="M292.154 57.9431C289.216 57.9336 287.504 56.0797 287.515 52.9213C287.528 49.8625 289.299 48.0259 292.226 48.0464C295.09 48.0622 296.879 49.9856 296.863 53.0303C296.847 56.0749 295.037 57.951 292.154 57.9431ZM289.327 53.0571C289.53 53.7662 289.66 54.461 289.926 55.1006C290.329 56.0718 291.165 56.5124 292.171 56.5218C293.145 56.5218 293.955 56.1002 294.401 55.1922C295.096 53.7709 295.122 52.3133 294.421 50.8858C293.966 49.9556 293.176 49.5071 292.143 49.515C291.11 49.5229 290.317 50.0109 289.912 50.9505C289.634 51.5995 289.527 52.3323 289.334 53.0571H289.327Z" fill="#005596"/>
<path d="M75.6031 52.8187C77.098 53.4156 77.6805 54.1657 77.5753 55.2506C77.4371 56.6719 76.6112 57.5846 75.0802 57.7157C73.736 57.8294 72.3746 57.7394 70.9708 57.7394V48.127C72.5662 48.2296 74.1757 48.2359 75.7507 48.4728C76.7085 48.6165 77.211 49.4408 77.277 50.431C77.3398 51.3785 76.9629 52.1144 76.093 52.5534C75.9564 52.6229 75.8213 52.7002 75.6031 52.8187ZM72.7452 53.4361V54.8069C72.7452 56.514 72.9446 56.6656 74.617 56.2281C74.6672 56.2155 74.719 56.2044 74.774 56.1871C75.3424 55.9849 75.7051 55.598 75.7161 54.979C75.7271 54.36 75.479 53.8057 74.8383 53.6588C74.1977 53.5119 73.5146 53.5151 72.7452 53.4361ZM72.7452 49.6461V50.8984C72.7452 52.1744 72.9321 52.3197 74.1914 52.0654C74.3186 52.0404 74.4443 52.0087 74.5683 51.9707C75.1304 51.7922 75.4507 51.4085 75.4256 50.8147C75.426 50.5484 75.3276 50.2915 75.1496 50.0943C74.9715 49.8972 74.7267 49.7739 74.4631 49.7488C73.9355 49.6651 73.3937 49.6809 72.7452 49.6477V49.6461Z" fill="#005596"/>
<path d="M223.797 57.7346V48.1175C225.426 48.2296 227.032 48.2454 228.607 48.4823C229.529 48.6228 230.02 49.4029 230.088 50.3773C230.149 51.3248 229.846 52.078 228.97 52.5344C228.813 52.6165 228.664 52.7144 228.488 52.8187C230.067 53.5151 230.482 54.0931 230.361 55.3785C230.237 56.7003 229.439 57.5704 227.938 57.7094C226.597 57.8341 225.236 57.7346 223.797 57.7346ZM225.606 53.523V54.9442C225.606 56.5439 225.639 56.5724 227.235 56.2613C227.26 56.2613 227.287 56.2534 227.312 56.2486C228.166 56.0702 228.546 55.6391 228.526 54.8748C228.507 54.142 228.054 53.6288 227.257 53.5293C226.75 53.4709 226.227 53.5246 225.606 53.5246V53.523ZM225.65 52.1017C226.574 52.1017 227.477 52.2881 228.032 51.4922C228.233 51.2063 228.241 50.5447 228.047 50.2651C227.469 49.4108 226.531 49.7045 225.65 49.6824V52.1017Z" fill="#005596"/>
<path d="M155.548 53.883C155.548 54.8811 155.501 55.8539 155.562 56.8187C155.611 57.5862 155.345 57.8784 154.592 57.7662C154.293 57.7463 153.994 57.7463 153.695 57.7662V48.2438C155.386 48.2628 157.103 47.9959 158.78 48.5312C159.601 48.7934 160.061 49.3982 160.168 50.2683C160.289 51.249 160.086 52.1017 159.2 52.6702C159.039 52.7657 158.873 52.8506 158.701 52.9245C159.387 54.5037 160.066 56.0702 160.782 57.7252H158.684C158.337 56.8266 157.994 55.9218 157.638 55.0216C157.175 53.8436 156.967 53.7251 155.548 53.883ZM155.641 49.6919V52.3023C156.606 52.2912 157.596 52.5313 158.101 51.5522C158.277 51.2127 158.236 50.5573 158.015 50.2525C157.42 49.4361 156.489 49.6982 155.639 49.6919H155.641Z" fill="#005596"/>
<path d="M188.614 53.8957V57.6857H186.81V48.1317C188.405 48.2264 189.991 48.2406 191.554 48.4475C192.609 48.5849 193.179 49.395 193.281 50.4167C193.385 51.568 192.937 52.3828 191.945 52.8471C191.887 52.8762 191.827 52.9005 191.766 52.9197L193.886 57.7678C193.237 57.7678 192.763 57.8262 192.315 57.7441C192.169 57.7144 192.03 57.655 191.907 57.5694C191.784 57.4839 191.68 57.3741 191.601 57.2467C191.251 56.5171 190.993 55.7433 190.7 54.9869C190.246 53.8325 190.007 53.6983 188.614 53.8957ZM188.573 50.9695C188.774 51.4622 188.134 52.3781 189.374 52.3291C190.703 52.2739 191.342 51.8712 191.326 50.93C191.312 50.0583 190.709 49.7061 189.351 49.6477C188.184 49.5987 188.754 50.4704 188.577 50.9695H188.573Z" fill="#005596"/>
<path d="M109.368 48.2154L105.472 52.7223L109.514 57.7615C108.69 57.7615 108.046 57.8025 107.41 57.7409C107.144 57.6809 106.909 57.5261 106.747 57.3051C105.757 56.0607 104.791 54.7942 103.817 53.5356L103.596 53.5782C103.596 54.4768 103.61 55.3738 103.596 56.2723C103.565 57.9368 103.91 57.7678 102.013 57.7536C101.922 57.7419 101.833 57.7207 101.746 57.6904V48.2154C102.217 48.2154 102.709 48.1538 103.174 48.2469C103.351 48.2817 103.569 48.667 103.579 48.9007C103.623 49.943 103.598 50.9884 103.784 52.1286C104.007 51.8727 104.235 51.6201 104.455 51.3611C105.13 50.5604 105.838 49.7819 106.465 48.9434C106.879 48.3859 107.338 48.1096 108.035 48.2027C108.407 48.2596 108.794 48.2154 109.368 48.2154Z" fill="#005596"/>
<path d="M78.8787 57.6462C79.2351 56.7129 79.5837 55.7907 79.9402 54.87C80.6876 52.9418 81.4806 51.0295 82.1699 49.0792C82.4165 48.3875 82.7384 48.1017 83.4576 48.2043C83.8572 48.2359 84.2586 48.2395 84.6588 48.2154C85.8946 51.3737 87.1163 54.5131 88.3709 57.7283H86.3296C86.1223 57.1914 85.8883 56.664 85.7171 56.1176C85.5868 55.6991 85.367 55.5348 84.932 55.5491C84.0181 55.5775 83.1011 55.5775 82.1872 55.5491C81.757 55.5348 81.4853 55.6564 81.3817 56.0923C81.3425 56.2177 81.2958 56.3405 81.2419 56.4602C80.6798 57.9352 80.5808 57.9936 78.8787 57.6462ZM84.9917 54.1168L83.6413 50.2573L83.4403 50.292L82.115 54.1168H84.9917Z" fill="#005596"/>
<path d="M332.354 57.7647C333.58 54.6063 334.747 51.579 335.937 48.5644C335.992 48.4738 336.066 48.3966 336.154 48.3384C336.242 48.2802 336.342 48.2425 336.446 48.228C338.147 48.0701 338.147 48.0701 338.754 49.6366C339.677 52.0043 340.598 54.3705 341.52 56.735C341.64 57.0509 341.747 57.3667 341.89 57.7631C341.282 57.7631 340.756 57.8215 340.252 57.7362C340.025 57.6983 339.753 57.4204 339.654 57.1772C338.976 55.5617 338.988 55.557 337.236 55.557H337.004C335.199 55.557 335.217 55.557 334.463 57.2388C334.356 57.4741 334.011 57.6841 333.741 57.7425C333.34 57.8262 332.91 57.7647 332.354 57.7647ZM338.514 54.1104C338.043 52.7666 337.614 51.5206 337.181 50.2746L336.972 50.2999L335.655 54.1104H338.514Z" fill="#005596"/>
<path d="M171.725 57.7347H169.828C169.636 57.1597 169.413 56.5957 169.161 56.0449C169.089 55.9236 168.992 55.8193 168.877 55.7391C168.761 55.659 168.63 55.6049 168.492 55.5807C167.549 55.5286 166.607 55.5807 165.665 55.5491C165.227 55.5349 164.969 55.6786 164.867 56.1065C164.843 56.1812 164.814 56.2541 164.779 56.3245C164.18 57.8894 164.18 57.8894 162.393 57.6999C162.482 57.4236 162.55 57.1614 162.647 56.9103C163.674 54.2479 164.72 51.5917 165.723 48.9197C165.932 48.3623 166.216 48.1206 166.807 48.2075C167.121 48.2517 167.435 48.1759 167.749 48.2296C167.94 48.2628 168.22 48.3875 168.273 48.5454C169.453 51.5459 170.607 54.5463 171.764 57.5467C171.772 57.5767 171.755 57.6052 171.725 57.7347ZM168.492 54.1184C168.003 52.7271 167.567 51.489 167.13 50.2494L166.95 50.262L165.615 54.1184H168.492Z" fill="#005596"/>
<path d="M212.818 48.2596H214.612C214.627 48.6023 214.649 48.9323 214.656 49.2624C214.696 51.0721 214.673 52.885 214.794 54.69C214.874 55.8649 215.626 56.4997 216.664 56.5376C217.702 56.5755 218.437 55.9802 218.631 54.8005C218.765 53.9794 218.752 53.1298 218.765 52.2928C218.784 50.9805 218.765 49.6682 218.765 48.2912H220.53C220.56 48.4853 220.58 48.6808 220.589 48.877C220.589 50.772 220.604 52.6671 220.589 54.551C220.572 56.6166 219.398 57.8294 217.355 57.932C217.198 57.9399 217.041 57.9494 216.884 57.9526C214.018 58.0189 212.814 56.8345 212.814 53.9462L212.818 48.2596Z" fill="#005596"/>
<path d="M247.738 52.1444C248.575 51.1479 249.465 50.1878 250.233 49.1439C250.773 48.4049 251.382 48.0685 252.274 48.2107C252.546 48.2549 252.83 48.2186 253.314 48.2186C252.568 49.0792 251.944 49.7977 251.319 50.5242L249.41 52.7271L253.46 57.7647C252.605 57.7647 251.938 57.7978 251.279 57.7441C251.07 57.7268 250.837 57.5057 250.69 57.3193C249.702 56.0686 248.735 54.8021 247.618 53.3556C247.57 53.7883 247.526 54.022 247.522 54.2573C247.513 55.1764 247.477 56.0986 247.53 57.0146C247.574 57.7726 247.161 57.7884 246.605 57.7773C246.076 57.7678 245.638 57.8152 245.663 57.0351C245.71 55.407 245.677 53.7772 245.677 52.1491C245.677 51.1242 245.715 50.0962 245.665 49.0745C245.63 48.3749 245.88 48.2217 246.555 48.187C247.413 48.1427 247.573 48.4807 247.533 49.2276C247.483 50.1752 247.521 51.1385 247.521 52.0939L247.738 52.1444Z" fill="#005596"/>
<path d="M206.173 54.27V57.7078H204.377V48.2328C205.904 48.2328 207.439 48.0164 208.93 48.5297C210.124 48.9418 210.7 49.8151 210.695 51.1163C210.695 52.4539 210.106 53.4409 208.927 53.7899C208.068 54.052 207.151 54.1105 206.173 54.27ZM206.187 52.5629C207.286 52.7918 208.283 52.6197 208.494 52.0054C208.667 51.4577 208.651 50.8673 208.448 50.3299C208.18 49.6793 207.173 49.5214 206.187 49.8009V52.5629Z" fill="#005596"/>
<path d="M315.818 52.1175V53.5214H312.467V56.3639H316.139V57.7015H310.623V48.2596H316.161C316.148 48.5263 316.148 48.7935 316.161 49.0602C316.212 49.534 315.975 49.654 315.562 49.6493C314.547 49.6382 313.531 49.6493 312.398 49.6493C312.398 50.3978 312.36 51.0705 312.426 51.7322C312.442 51.8791 312.815 52.0907 313.03 52.1001C313.947 52.1412 314.863 52.1175 315.818 52.1175Z" fill="#005596"/>
<path d="M125.741 48.2596H131.237C131.25 48.5217 131.247 48.7523 131.276 48.9781C131.346 49.4961 131.119 49.6761 130.615 49.6651C129.603 49.6414 128.59 49.6651 127.632 49.6651C127.6 49.7235 127.575 49.7848 127.555 49.8482C127.294 52.1333 127.294 52.1333 129.544 52.1333H130.912V53.5546H127.514C127.514 54.431 127.476 55.189 127.544 55.9391C127.56 56.1081 127.938 56.3655 128.158 56.375C129.168 56.4223 130.182 56.3955 131.236 56.3955V57.7157H125.74L125.741 48.2596Z" fill="#005596"/>
<path d="M197.945 49.6525C197.915 49.7103 197.89 49.7705 197.869 49.8325C197.606 52.1191 197.606 52.1191 199.853 52.1191C200.088 52.131 200.323 52.131 200.558 52.1191C201.09 52.0654 201.231 52.3339 201.227 52.8187C201.222 53.3035 201.129 53.5672 200.578 53.542C199.875 53.5088 199.165 53.553 198.463 53.5309C198.006 53.5151 197.794 53.6588 197.818 54.1626C197.851 54.8622 197.818 55.5649 197.818 56.3608H201.527V57.7189H196.031V48.217C197.738 48.217 199.402 48.1996 201.065 48.2454C201.222 48.2454 201.451 48.6323 201.498 48.8771C201.569 49.2355 201.55 49.6461 200.999 49.6493L198.884 49.6603L197.945 49.6525Z" fill="#005596"/>
<path d="M121.993 49.7377C121.263 49.6603 120.594 49.5403 119.923 49.5356C119.217 49.5356 118.733 49.9304 118.604 50.641C118.484 51.3058 118.919 51.6501 119.456 51.8901C119.927 52.1049 120.421 52.2849 120.899 52.4934C122.339 53.125 122.97 54.1262 122.783 55.4938C122.612 56.7872 121.725 57.6889 120.244 57.8626C119.429 57.9605 118.586 57.8262 117.755 57.8089C116.949 57.7931 116.717 57.373 116.898 56.634C116.938 56.4634 116.949 56.2866 116.984 56.0576C117.526 56.1965 118.016 56.3734 118.52 56.4334C118.948 56.4871 119.462 56.5392 119.81 56.356C120.22 56.1413 120.704 55.7038 120.767 55.3012C120.819 54.9616 120.387 54.4421 120.04 54.1705C119.642 53.8546 119.098 53.7283 118.626 53.523C117.031 52.8376 116.492 51.977 116.7 50.4373C116.88 49.0981 117.763 48.2754 119.327 48.0843C119.898 48.0219 120.475 48.0347 121.043 48.1222C122.35 48.3117 122.403 48.4286 121.993 49.7377Z" fill="#005596"/>
<path d="M319.396 56.195C320.309 56.2771 321.174 56.4208 322.036 56.4113C322.33 56.4171 322.616 56.3129 322.839 56.1189C323.061 55.925 323.204 55.655 323.24 55.3612C323.344 54.6726 322.849 54.3189 322.311 54.0615C321.865 53.8483 321.395 53.6841 320.941 53.4867C319.468 52.8455 318.916 51.9565 319.076 50.4957C319.213 49.2324 320.037 48.3307 321.524 48.1459C322.529 48.0212 323.565 48.1838 324.653 48.2186C324.564 48.8976 324.506 49.3524 324.452 49.763C323.741 49.6761 323.077 49.5451 322.411 49.5308C321.745 49.5166 321.196 49.8198 321.04 50.5652C320.885 51.3106 321.354 51.6706 321.935 51.9359C322.388 52.1381 322.857 52.296 323.309 52.4965C324.854 53.1819 325.374 54.1136 325.132 55.7323C324.964 56.8645 323.991 57.7457 322.57 57.8799C321.75 57.9557 320.91 57.8247 320.081 57.7899C319.324 57.7568 319.073 57.3857 319.31 56.6624C319.352 56.5093 319.381 56.353 319.396 56.195Z" fill="#005596"/>
<path d="M148.73 57.7236H146.91V49.6493C146.155 49.6493 145.487 49.6287 144.822 49.6493C144.247 49.673 144.124 49.3777 144.121 48.8739C144.118 48.3701 144.289 48.1917 144.806 48.198C146.97 48.2233 149.133 48.2091 151.275 48.2091C151.698 49.3713 151.526 49.6398 150.413 49.6445C149.871 49.6445 149.331 49.6445 148.73 49.6445V57.7236Z" fill="#005596"/>
<path d="M238.139 56.3766V57.7062H232.643V48.2754H234.394C234.408 48.5517 234.436 48.8297 234.436 49.1092C234.436 51.2632 234.456 53.4172 234.427 55.5712C234.427 56.1902 234.612 56.416 235.235 56.3876C236.168 56.345 237.107 56.3766 238.139 56.3766Z" fill="#005596"/>
<path d="M174.089 48.2485H175.837V56.3766C176.88 56.3766 177.838 56.4034 178.792 56.3671C179.362 56.345 179.578 56.525 179.578 57.1235C179.578 57.722 179.252 57.7757 178.781 57.771C177.244 57.7536 175.705 57.771 174.093 57.771L174.089 48.2485Z" fill="#005596"/>
<path d="M329.945 57.7189H328.229V48.2707H329.945V57.7189Z" fill="#005596"/>
<path d="M240.455 48.2501H242.19V57.7125H240.455V48.2501Z" fill="#005596"/>
<path d="M262.589 52.9971C262.589 54.3615 262.559 55.7291 262.6 57.0919C262.624 57.8499 262.162 57.7804 261.681 57.7694C261.201 57.7583 260.73 57.8957 260.739 57.1172C260.766 54.361 260.766 51.6043 260.739 48.847C260.739 47.9769 261.334 48.2706 261.772 48.2154C262.283 48.1538 262.617 48.2391 262.598 48.8976C262.562 50.262 262.589 51.628 262.589 52.9971Z" fill="#005596"/>
<path d="M31.4318 0.00475017C14.55 -0.295293 0.0722141 13.2983 0.00312283 30.9313C-0.032993 48.0875 13.7005 61.9353 30.8147 62C47.753 62.0632 61.466 48.3654 61.7204 31.5219C61.9826 13.8936 47.8441 0.295318 31.4318 0.00475017ZM39.126 57.4441H24.5572V55.8933C25.1617 55.8428 25.7333 55.8397 26.2845 55.7354C27.8374 55.4607 28.5865 54.6916 28.7372 53.125C28.7985 52.4934 28.9979 52.2802 29.6385 52.296C31.358 52.337 33.0774 52.3102 34.8471 52.3102C35.0151 53.3951 35.0151 54.6079 36.053 55.1132C36.9591 55.5522 38.0315 55.6486 39.1213 55.9186L39.126 57.4441ZM45.9566 48.3338C43.1851 50.1609 40.0886 50.9537 36.8177 50.9726C29.4674 51.0184 22.117 50.9869 14.7667 50.9869C13.6502 50.9869 13.6486 50.9868 13.6581 49.8941C13.6581 49.6382 13.6816 49.3808 13.6957 49.1045C14.5154 49.0381 15.2927 49.0034 16.0621 48.9039C17.8868 48.6686 18.7017 47.8238 18.8619 45.9935C18.9372 45.1313 18.9859 44.2564 18.9859 43.3989C18.9953 35.0672 18.9953 26.736 18.9859 18.4053C18.9809 17.3827 18.8842 16.3626 18.697 15.3575C18.441 13.9915 17.5601 13.2114 16.1846 13.0124C15.3885 12.8987 14.5814 12.8545 13.6926 12.774V11.0527H28.7859C28.7859 9.84459 28.6147 8.74549 27.5799 8.23068C26.699 7.79167 25.6548 7.68586 24.5839 7.40792V6.03089H39.126V7.6985C38.4257 7.77272 37.7222 7.78692 37.0454 7.92905C35.5678 8.24489 34.8062 9.40716 35.0041 10.909C36.5744 11.0574 38.1446 11.1016 39.6709 11.3827C40.9535 11.6183 42.2031 12.0091 43.3924 12.5466C47.6776 14.4968 48.4879 18.4321 47.0762 22.2253C46.1545 24.7031 44.2341 26.257 41.9854 27.4571C41.4625 27.7351 40.9192 27.9783 40.3241 28.2657C41.3825 28.7521 42.3906 29.1611 43.35 29.6632C45.944 31.0213 48.2178 32.7584 49.5902 35.4414C51.9236 40.0132 50.3957 45.3997 45.9472 48.3338H45.9566Z" fill="#005596"/>
<path d="M44.2152 41.6665C43.708 45.1155 41.3778 46.9094 38.3127 47.9138C37.2716 48.2549 36.1473 48.3496 34.9413 48.5786V31.5203L28.8032 32.231V48.3212C26.8027 48.637 25.2748 47.3295 25.066 45.237C25.0407 44.9219 25.0313 44.6057 25.0377 44.2895C25.0377 34.2239 25.0377 24.1582 25.0377 14.0926V13.2098C25.1843 13.1783 25.3327 13.1561 25.4821 13.1435C28.7796 13.1435 32.0772 13.104 35.3747 13.1703C38.4556 13.2319 40.9444 15.0353 41.5709 17.6868C42.254 20.5688 41.5709 23.1033 39.2925 25.0962C38.0363 26.1938 36.0719 27.1492 34.9319 27.2297V26.2964C34.9319 22.6438 34.9146 18.9912 34.946 15.3385C34.946 14.6468 34.767 14.4258 34.0698 14.451C32.6063 14.5031 31.1382 14.5031 29.6731 14.451C28.9759 14.4273 28.7796 14.6484 28.7843 15.3385C28.8126 19.4112 28.7938 23.4855 28.8047 27.5582C28.8047 28.0319 28.7482 28.452 28.1546 28.3478C27.0837 28.1583 26.6519 28.752 26.4148 29.6537C26.3426 29.9254 26.2374 30.1875 26.0929 30.6155C27.3899 30.5586 28.5818 30.5712 29.7579 30.437C31.7019 30.2144 33.6349 29.8922 35.5678 29.6237C35.7677 29.5824 35.9751 29.5988 36.1661 29.6711C39.4244 31.3166 42.1786 33.4896 43.5573 37.0348C44.1367 38.5208 44.4476 40.0779 44.2152 41.6665Z" fill="#005596"/>
</g>
<defs>
<clipPath id="clip0_76_5058">
<rect width="342" height="62" fill="white"/>
</clipPath>
</defs>
</svg>
