<svg width="170" height="38" viewBox="0 0 170 38" fill="none" xmlns="http://www.w3.org/2000/svg">
<path d="M145.721 18.3863L150.019 14.8409C151.363 15.8336 151.697 17.273 151.849 18.8968L156.729 14.8409C157.905 16.2165 159.481 17.2092 160.265 19.0103L165.297 14.8267C166.176 15.7698 167.083 16.6348 167.868 17.6063C168.762 18.7416 169.224 20.1455 169.175 21.5772C169.175 24.7681 169.138 27.959 169.175 31.1641C169.208 32.0227 169.039 32.8772 168.68 33.6617C168.321 34.4462 167.782 35.1395 167.105 35.6881C166.169 36.504 165.085 37.1436 163.91 37.5743V36.8652C163.91 31.7929 163.91 26.7252 163.91 21.6623C163.91 20.9532 163.816 20.3008 163.104 19.9534C162.737 19.7825 162.332 19.7065 161.926 19.7326C161.521 19.7586 161.129 19.886 160.788 20.1023C160.728 20.1535 160.68 20.2168 160.647 20.2878C160.615 20.3587 160.598 20.4358 160.599 20.5136C160.599 24.3285 160.599 28.1434 160.599 31.9583C160.602 32.3151 160.69 32.6663 160.856 32.9839C161.023 33.3015 161.263 33.5768 161.558 33.7877L157.673 37.0566C157.471 36.8902 157.28 36.7127 157.099 36.5248C155.988 35.3218 155.379 33.7556 155.393 32.1356C155.393 28.6965 155.393 25.2574 155.393 21.8112C155.393 21.0312 155.342 20.2938 154.507 19.925C154.096 19.7571 153.647 19.6987 153.205 19.7561C152.764 19.8134 152.346 19.9843 151.994 20.2512C151.937 20.3057 151.892 20.3708 151.861 20.4426C151.83 20.5144 151.813 20.5916 151.813 20.6696C151.813 24.527 151.813 28.3774 151.813 32.2277C151.942 32.8092 152.17 33.3653 152.488 33.8728L148.553 37.0992C148.154 36.6758 147.781 36.2307 147.434 35.7661C146.721 34.6721 146.352 33.3972 146.374 32.1001C146.374 28.2616 146.374 24.4278 146.374 20.5987C146.442 19.8079 146.209 19.0205 145.721 18.3863Z" fill="#204160"/>
<path d="M60.8787 14.8338C61.9534 15.5996 62.331 16.486 62.694 19.0103L65.1193 16.9398L67.5663 14.8125C69.0549 16.3583 70.7758 17.7056 71.197 20.0031C71.2972 20.5318 71.3507 21.0679 71.3568 21.6056C71.3568 24.7469 71.3568 27.8881 71.3568 31.0294C71.3974 31.9031 71.2356 32.7744 70.8836 33.5786C70.5316 34.3827 69.9983 35.099 69.3236 35.674C68.4215 36.471 67.3815 37.1048 66.252 37.546V21.712C66.252 20.0669 65.2427 19.3223 63.7106 19.8329C63.5436 19.8896 63.3766 19.9747 63.2095 20.0456C62.994 20.1219 62.8124 20.269 62.6958 20.4618C62.5792 20.6546 62.5349 20.881 62.5705 21.1021C62.5996 24.5436 62.5996 27.9827 62.5705 31.4194C62.5705 32.3129 62.6287 33.1354 63.4637 33.6956L59.5063 37.0283C58.8658 36.4913 58.3465 35.8301 57.9815 35.0867C57.6165 34.3433 57.4137 33.534 57.386 32.71C57.2916 31.0791 57.3279 29.4411 57.3206 27.8101C57.3206 25.3921 57.3206 22.9742 57.3206 20.5562C57.3804 19.7749 57.1539 18.9984 56.6816 18.3651L60.8787 14.8338Z" fill="#204160"/>
<path d="M142.779 25.7251C142.779 27.0866 142.779 28.4552 142.779 29.8237C142.807 30.7417 142.62 31.6539 142.233 32.4908C141.845 33.3276 141.267 34.067 140.543 34.6526C138.943 35.9297 136.935 36.6166 134.87 36.5933C132.804 36.57 130.813 35.8378 129.244 34.525C128.565 33.9468 128.024 33.2297 127.66 32.4246C127.296 31.6195 127.118 30.7461 127.138 29.8663C127.138 27.2426 127.138 24.626 127.138 22.0024C127.138 18.8257 128.656 16.5566 131.698 15.4788C135.133 14.2591 138.306 14.7697 141.015 17.2657C141.592 17.8052 142.048 18.4568 142.351 19.1786C142.655 19.9003 142.801 20.6763 142.779 21.4564V25.7251ZM132.461 25.9166H132.366C132.366 27.3348 132.366 28.753 132.366 30.1286C132.326 31.3859 132.574 32.636 133.093 33.7875C133.24 34.1535 133.497 34.4677 133.83 34.689C134.163 34.9104 134.556 35.0286 134.959 35.0284C135.356 35.0405 135.747 34.9269 136.072 34.7045C136.398 34.4822 136.642 34.163 136.767 33.7946C137.131 32.975 137.356 32.1034 137.435 31.2135C137.536 28.0013 137.536 24.775 137.522 21.5557C137.574 20.3341 137.325 19.1182 136.796 18.0102C136.661 17.6386 136.414 17.3157 136.087 17.0841C135.76 16.8524 135.37 16.7229 134.966 16.7126C134.569 16.7149 134.184 16.8405 133.865 17.0713C133.547 17.3021 133.312 17.626 133.194 17.9961C132.835 18.7781 132.607 19.6112 132.519 20.4637C132.395 22.2861 132.461 24.1013 132.461 25.9166Z" fill="#204160"/>
<path d="M125.126 31.469C125.234 31.7634 125.238 32.0844 125.14 32.3819C125.041 32.6794 124.845 32.9368 124.581 33.114C123.759 33.6699 122.978 34.2813 122.243 34.9435C119.571 37.3048 114.125 37.2977 111.206 33.8515C109.43 31.6869 108.492 28.9805 108.556 26.2075C108.439 23.898 108.94 21.5986 110.008 19.535C110.967 17.6924 112.574 16.2486 114.534 15.4674C116.494 14.6862 118.676 14.6199 120.682 15.2804C122.017 15.6448 123.174 16.4634 123.945 17.5882C124.716 18.713 125.05 20.07 124.886 21.414C124.84 22.0559 124.561 22.6607 124.099 23.1196C123.637 23.5785 123.023 23.8613 122.367 23.9171C121.888 23.992 121.398 23.927 120.957 23.7301C120.516 23.5333 120.145 23.2134 119.89 22.811C119.611 22.3701 119.463 21.8618 119.463 21.3431C119.463 20.8245 119.611 20.3162 119.89 19.8753C120.188 19.4184 120.534 18.993 120.922 18.606C121.43 18.0104 121.372 17.6133 120.696 17.1879C119.9 16.7024 118.939 16.5454 118.024 16.7515C117.109 16.9576 116.315 17.5098 115.817 18.2869C115.248 19.2867 114.906 20.3943 114.815 21.5346C114.416 24.3665 114.514 27.244 115.105 30.0437C115.264 30.7 115.508 31.3338 115.831 31.9299C116.652 33.4828 118.068 34.0997 119.934 33.8302C121.666 33.5447 123.295 32.8347 124.668 31.7668L125.09 31.469H125.126Z" fill="#204160"/>
<path d="M47.8737 14.8335C49.3768 17.06 51.3882 17.0529 53.6827 16.4502C52.5717 17.4926 51.5043 18.5775 50.328 19.556C49.9784 19.8356 49.5635 20.0265 49.1201 20.1119C48.6768 20.1972 48.2187 20.1743 47.7866 20.0453C47.3891 19.9457 47.0227 19.7528 46.7189 19.4834C46.4152 19.214 46.1835 18.8762 46.0438 18.4995C45.7947 18.6913 45.5975 18.9396 45.4691 19.2229C45.3408 19.5061 45.2853 19.8157 45.3075 20.1247C45.3297 20.4337 45.4289 20.7327 45.5965 20.9957C45.764 21.2587 45.9949 21.4777 46.2689 21.6337C47.3872 22.3924 48.5998 22.988 49.7617 23.6758C50.5775 24.1195 51.3568 24.6245 52.0925 25.1862C52.6156 25.5987 53.0405 26.1175 53.3377 26.7064C53.6349 27.2954 53.7972 27.9405 53.8134 28.5969C53.8318 29.3349 53.7036 30.0694 53.4359 30.7597C52.9376 32.1373 52.1012 33.3747 50.9999 34.3636C49.8986 35.3525 48.566 36.0628 47.1185 36.4324C44.8385 37.0281 42.9505 36.2126 41.7016 34.1633C40.8447 32.7451 40.8447 32.7451 42.0574 31.724L45.5573 28.753C45.6662 29.3699 45.7243 29.93 45.8623 30.476C46.2689 32.036 47.3872 32.9437 48.7668 32.8728C49.053 32.8649 49.3318 32.7824 49.5743 32.6339C49.8168 32.4854 50.0142 32.2762 50.1461 32.0281C50.2779 31.78 50.3394 31.502 50.3242 31.2228C50.3089 30.9437 50.2175 30.6736 50.0593 30.4406C49.8525 30.0749 49.5555 29.7653 49.1952 29.54C48.0117 28.8309 46.8063 28.1219 45.5646 27.4766C44.221 26.8348 43.1073 25.8116 42.3696 24.541C41.797 23.606 41.5896 22.5005 41.7858 21.4281C41.9819 20.3557 42.5684 19.3887 43.437 18.7051L47.8737 14.8335Z" fill="#204160"/>
<path d="M97.5125 16.3439C96.6121 17.3012 95.748 18.2726 94.8113 19.1803C94.5119 19.4849 94.1521 19.7269 93.7539 19.8914C93.3556 20.056 92.9273 20.1397 92.4949 20.1375C91.958 20.1599 91.4276 20.0146 90.9811 19.7225C90.5345 19.4305 90.1949 19.0071 90.0116 18.5137C89.6554 18.7507 89.4043 19.1106 89.3086 19.521C89.213 19.9313 89.2799 20.3619 89.496 20.7261C89.6987 21.1338 90.0033 21.485 90.3819 21.7472C91.4711 22.4563 92.5603 23.0873 93.7366 23.6759C94.8274 24.1604 95.7983 24.8691 96.583 25.7535C97.1722 26.3991 97.5658 27.192 97.7197 28.0436C97.8736 28.8952 97.7817 29.7718 97.4544 30.5753C96.2345 33.6457 94.0779 35.6808 90.9192 36.4466C88.6464 36.9997 86.7367 36.0424 85.5531 33.8797C84.8996 32.6742 84.8996 32.6743 85.9016 31.8163L89.162 29.0437C89.283 28.9453 89.409 28.8531 89.5396 28.7672C89.6336 29.4138 89.7621 30.0552 89.9244 30.6888C90.0582 31.3113 90.4143 31.8671 90.9291 32.2568C91.4439 32.6466 92.0838 32.8448 92.7346 32.8161C93.0074 32.808 93.2734 32.7308 93.5065 32.5921C93.7396 32.4535 93.9319 32.258 94.0644 32.025C94.1969 31.7919 94.2651 31.5292 94.2624 31.2627C94.2597 30.9961 94.1861 30.7348 94.0489 30.5044C93.8448 30.0972 93.5342 29.7499 93.1485 29.4975C91.9431 28.753 90.7086 28.0793 89.4597 27.3702C88.6172 26.9803 87.867 26.4233 87.2569 25.7348C86.6468 25.0463 86.1902 24.2412 85.9162 23.371C85.6523 22.5769 85.6334 21.7246 85.8619 20.9202C86.0905 20.1157 86.5563 19.3947 87.2014 18.847C88.7336 17.4855 90.2948 16.1595 91.8632 14.8052C93.3082 17.0317 95.3268 17.0743 97.5125 16.3439Z" fill="#204160"/>
<path d="M81.1534 14.8335V15.6419C81.1534 20.771 81.1534 25.9 81.1534 31.0291C81.1021 31.4706 81.1665 31.9176 81.3405 32.3281C81.5145 32.7386 81.7924 33.0993 82.1482 33.3762L78.2416 36.5955C77.5262 36.0084 76.9523 35.2744 76.5607 34.4458C76.1691 33.6173 75.9695 32.7146 75.9761 31.802C75.9761 28.4362 75.9761 25.0704 75.9761 21.7046C76.0121 20.9686 75.772 20.245 75.3008 19.6695L81.1534 14.8335Z" fill="#204160"/>
<path d="M78.7267 6.94141L82.1468 10.4018L78.7194 13.8621L75.3066 10.4018C76.4104 9.26014 77.5939 8.06886 78.7267 6.94141Z" fill="#204160"/>
<path d="M37.1777 14.8335V15.5426C37.1777 20.8419 37.1777 26.1341 37.1777 31.4191C37.1609 31.7976 37.2411 32.1741 37.411 32.5146C37.5809 32.8551 37.8352 33.1488 38.1507 33.3691L34.2369 36.5884C33.5301 36.0159 32.9608 35.2986 32.5693 34.4874C32.1778 33.6763 31.9737 32.791 31.9714 31.8942C31.9714 28.4764 31.9714 25.0586 31.9714 21.6408C32.0061 20.9268 31.7709 20.2252 31.3105 19.6695L37.1777 14.8335Z" fill="#204160"/>
<path d="M38.1208 10.3805L34.7008 13.848L31.2734 10.3805L34.7008 6.92725L38.1208 10.3805Z" fill="#204160"/>
<path d="M101.651 34.2488C101.671 33.78 101.832 33.3273 102.113 32.9472C102.395 32.5671 102.785 32.2763 103.235 32.1113C103.685 31.9462 104.174 31.9141 104.643 32.0189C105.111 32.1238 105.537 32.361 105.869 32.7009C106.2 33.0408 106.421 33.4684 106.505 33.9304C106.589 34.3923 106.532 34.8683 106.341 35.2988C106.15 35.7292 105.833 36.0953 105.43 36.3511C105.028 36.607 104.557 36.7415 104.076 36.7377C103.418 36.7191 102.793 36.4471 102.339 35.9809C101.884 35.5147 101.637 34.8922 101.651 34.2488Z" fill="#204160"/>
<path d="M9.23728 29.6326C10.4281 28.3846 10.6532 26.8388 10.6895 25.2717C10.6895 20.4357 10.6895 15.5926 10.6895 10.7566C10.6532 9.93468 10.8045 9.11515 11.1322 8.35728C11.46 7.5994 11.9561 6.92213 12.5848 6.37443C14.0806 5.06261 15.5764 3.75079 17.0505 2.42479C20.0929 -0.298122 24.3118 1.00662 25.2412 5.00589C25.7463 7.2993 25.3635 9.69413 24.1666 11.7281C23.1525 13.5857 21.7047 15.1841 19.9405 16.3939L19.6283 16.6279C20.5722 16.7626 21.4581 16.8477 22.3222 17.0108C22.911 17.1245 23.4872 17.2931 24.0431 17.5142C27.0057 18.6913 28.5161 21.2228 28.3636 24.435C28.1385 29.3986 25.4591 32.6179 21.2402 34.731C18.8226 36.03 16.0905 36.667 13.3327 36.5746C12.7325 36.5652 12.1403 36.44 11.59 36.2059C8.54749 34.731 5.54857 35.0926 2.54965 36.2981L2.07764 36.4753C2.07764 36.4753 2.04136 36.4753 1.96875 36.4753C2.86274 35.188 3.93553 34.0281 5.15643 33.0291C6.88547 31.4972 9.0767 30.5542 11.4012 30.3417C13.2303 30.2534 15.0516 30.6296 16.6874 31.4337C16.8834 31.5259 17.0795 31.6322 17.37 31.767V31.0579C17.37 24.4397 17.37 17.8215 17.37 11.2033C17.37 10.4233 17.4644 9.62913 16.5131 9.23204L17.6822 8.09042L18.7714 9.17535C18.7714 9.17535 18.7714 9.21076 18.7714 9.22495C18.4607 9.46599 18.2215 9.7837 18.0785 10.1452C17.9356 10.5067 17.894 10.8989 17.9581 11.2813C18.0162 12.8201 17.9581 14.3588 17.9581 15.8975V16.4931L18.1469 16.5995C18.5996 16.1214 19.0192 15.6144 19.4031 15.082C20.2698 13.5328 20.7125 11.7914 20.6884 10.0262C20.7763 8.65777 20.5939 7.28561 20.151 5.98444C19.9933 5.52503 19.7683 5.09033 19.483 4.69389C19.3032 4.41209 19.0494 4.18249 18.7479 4.02898C18.4464 3.87548 18.1083 3.80369 17.7688 3.82107C17.4292 3.83844 17.1006 3.94436 16.8172 4.12779C16.5338 4.31122 16.306 4.56546 16.1573 4.86406C15.7793 5.55158 15.5751 6.31741 15.5619 7.09767C15.5111 11.9549 15.482 16.8123 15.5619 21.6695C15.6162 23.2591 15.1689 24.8266 14.2805 26.1596C13.3921 27.4927 12.1056 28.5269 10.5952 29.1221C10.1522 29.3206 9.69474 29.4695 9.23728 29.6326ZM18.0308 17.656C18.0043 17.7415 17.9872 17.8294 17.9799 17.9184C17.9799 22.5464 17.9799 27.1744 17.9799 31.8024C17.9845 31.9233 18.0206 32.041 18.0849 32.1443C18.1492 32.2477 18.2394 32.3332 18.3471 32.3929C18.4548 32.4526 18.5763 32.4844 18.7002 32.4853C18.824 32.4862 18.946 32.4562 19.0546 32.3981C20.1394 31.773 21.0264 30.8675 21.6178 29.7815C22.6461 27.8862 23.0971 25.743 22.9176 23.6053C22.8712 22.1598 22.3859 20.7604 21.5234 19.5848C21.1189 19.0356 20.5971 18.5786 19.9941 18.2456C19.3911 17.9126 18.7212 17.7115 18.0308 17.656Z" fill="#204160"/>
<path d="M9.80256 8.90576C9.44794 10.1488 9.29601 11.4385 9.35236 12.7277C9.35236 16.5143 9.30153 20.2937 9.35236 24.0732C9.41045 27.6186 7.63144 29.8523 4.45825 31.2634C4.13875 31.4052 3.8047 31.5258 3.47794 31.6463C3.47794 31.6463 3.40534 31.6463 3.31095 31.6463C4.51632 30.5756 4.55991 29.1929 4.55991 27.7889V21.9956C3.35454 21.7828 2.71551 22.3785 1.85142 24.5483C1.12529 22.421 0.537144 20.3788 1.46659 18.2657C1.96762 17.117 2.83172 16.5923 4.55991 16.3087C4.55991 15.8832 4.55991 15.4365 4.55991 14.9897C4.5284 14.056 4.85755 13.1448 5.48207 12.437C6.74062 11.0629 8.19581 9.87358 9.80256 8.90576Z" fill="#204160"/>
<path d="M0 5.5233C0.994799 2.97766 2.17839 0.651854 5.08291 0.0845811C5.96194 -0.0769176 6.87116 0.0739754 7.64618 0.510018C8.26492 0.803382 8.84717 1.16503 9.3816 1.58785C10.9283 2.89967 12.533 2.84293 14.2177 1.97074L14.6388 1.75093C14.6388 1.82184 14.6823 1.88565 14.6388 1.9211C13.8375 3.42986 12.7161 4.75458 11.3494 5.80695C9.27995 7.31022 7.47915 7.31022 5.40968 5.80695L5.13375 5.60129C3.36199 4.1831 2.12755 4.18313 0.21783 5.36022L0 5.5233Z" fill="#204160"/>
<path d="M101.651 34.2488C101.671 33.78 101.832 33.3273 102.113 32.9472C102.395 32.5671 102.785 32.2763 103.235 32.1113C103.685 31.9462 104.174 31.9141 104.643 32.0189C105.111 32.1238 105.537 32.361 105.869 32.7009C106.2 33.0408 106.421 33.4684 106.505 33.9304C106.589 34.3923 106.532 34.8683 106.341 35.2988C106.15 35.7292 105.833 36.0953 105.43 36.3511C105.028 36.607 104.557 36.7415 104.076 36.7377C103.418 36.7191 102.793 36.4471 102.339 35.9809C101.884 35.5147 101.637 34.8922 101.651 34.2488Z" fill="#204160"/>
</svg>
