<svg width="246" height="87" viewBox="0 0 246 87" fill="none" xmlns="http://www.w3.org/2000/svg">
<path d="M68.1065 18.8878C67.5426 18.8878 67.0893 19.0591 66.7466 19.4017C66.4204 19.7333 66.2491 20.1753 66.2435 20.7168V39.6694C66.2546 40.2109 66.4204 40.6529 66.7466 40.9845C67.0893 41.3271 67.5426 41.4984 68.1065 41.4984C68.6704 41.4984 69.1513 41.3271 69.494 40.9845C69.8368 40.6419 70.0082 40.1888 70.0082 39.6197V20.761C70.0082 20.1974 69.8368 19.7388 69.494 19.3962C69.1513 19.0536 68.6925 18.8823 68.1065 18.8823V18.8878Z" fill="white"/>
<path d="M46.6849 22.6785H56.8898C57.5974 22.6785 58.1447 22.5237 58.5482 22.2143C58.9407 21.8828 59.1397 21.4242 59.1397 20.8219C59.1397 20.1864 58.9407 19.7057 58.5371 19.3797C58.1336 19.0482 57.5697 18.8879 56.8345 18.8879H21.6371C20.9185 18.8879 20.3602 19.0869 19.9566 19.4792C19.5531 19.877 19.3485 20.4351 19.3485 21.1534V35.8403C19.3485 36.5586 19.5641 37.1388 19.9953 37.5864C20.4265 38.0339 21.0014 38.255 21.7145 38.255C22.4277 38.255 22.9971 38.0339 23.4172 37.5864C23.8373 37.1388 24.0474 36.5586 24.0474 35.8403V33.6743H33.8819C35.3855 33.6743 36.1373 33.0444 36.1373 31.779C36.1373 30.5137 35.3855 29.8451 33.8819 29.8451H24.0419V22.7116H34.6226C34.8216 22.7116 35.0096 22.695 35.1865 22.6729H42.0413V42.493C42.0413 43.2114 42.2569 43.786 42.6881 44.2336C43.1193 44.6756 43.6887 44.9022 44.4018 44.9022C45.1149 44.9022 45.6788 44.6812 46.0989 44.2336C46.4196 43.891 46.6131 43.4655 46.6904 42.9682V33.6853H46.707V33.6411H56.9506C57.6361 33.6411 58.1723 33.4864 58.5648 33.1936C58.9462 32.8731 59.1397 32.4255 59.1397 31.8398C59.1397 31.2209 58.9407 30.7513 58.5537 30.4308C58.1612 30.1103 57.6084 29.9501 56.8953 29.9501H46.6904V22.684L46.6849 22.6785Z" fill="white"/>
<path d="M111.866 30.7513L100.092 19.656C99.6549 19.2139 99.1518 18.9929 98.5935 18.9929H91.5065H91.4899C90.7712 18.9929 90.2018 19.2139 89.7707 19.6615C89.3395 20.1091 89.1239 20.6893 89.1239 21.4076V33.2654C89.1239 33.9837 89.3395 34.5639 89.7707 35.0115C90.2018 35.4535 90.7768 35.68 91.4899 35.68C92.203 35.68 92.8166 35.459 93.2478 35.0115C93.679 34.5639 93.8946 33.9837 93.8946 33.2654V22.8221H97.3718L107.046 31.7072L96.6697 41.399H85.9231L85.8844 41.4377C85.8402 41.3879 85.8015 41.3382 85.7517 41.2885L84.8783 40.4707L74.8338 31.0441C74.3362 30.591 73.8 30.3811 73.214 30.4253C72.6557 30.4639 72.1803 30.7126 71.7822 31.1712C71.3897 31.6298 71.2129 32.1492 71.2515 32.7349C71.2958 33.3427 71.5888 33.8898 72.136 34.365L81.777 43.4103L82.6449 44.2225C82.7223 44.2999 82.7997 44.3607 82.8771 44.4214L82.855 44.4436C83.3746 44.963 83.9385 45.1895 84.5577 45.1895H97.6371C97.7145 45.1895 97.7864 45.1784 97.8638 45.1729C97.9135 45.1729 97.9577 45.1895 98.0075 45.1895C98.6156 45.1895 99.1795 44.9298 99.688 44.4159L111.866 32.956C113.188 31.7127 111.866 30.7513 111.866 30.7513Z" fill="white"/>
<path d="M21.7145 39.614C21.0014 39.614 20.4265 39.835 19.9953 40.2826C19.5641 40.7302 19.3485 41.3104 19.3485 42.0287V42.8851C19.3485 43.6035 19.5641 44.1836 19.9953 44.6312C20.4265 45.0788 21.0014 45.2998 21.7145 45.2998C22.4277 45.2998 23.0413 45.0788 23.4725 44.6312C23.9037 44.1836 24.1193 43.6035 24.1193 42.8851V42.0287C24.1193 41.3104 23.9037 40.7302 23.4725 40.2826C23.0413 39.835 22.4553 39.614 21.7145 39.614Z" fill="white"/>
<path d="M120.302 26.6015C119.871 26.1539 119.296 25.9329 118.583 25.9329C117.87 25.9329 117.301 26.1539 116.881 26.6015C116.46 27.0435 116.256 27.6292 116.256 28.3475V41.4762H107.709C106.206 41.4762 105.454 42.1061 105.454 43.3715C105.454 44.6368 106.206 45.3054 107.709 45.3054H118.661C119.374 45.3054 119.938 45.1065 120.341 44.7086C120.75 44.3108 120.955 43.7527 120.955 43.0344V28.3475C120.955 27.6292 120.739 27.049 120.308 26.6015H120.302Z" fill="white"/>
<path d="M118.583 24.5737C119.302 24.5737 119.871 24.3527 120.303 23.9051C120.734 23.4576 120.949 22.8774 120.949 22.1591V21.3026C120.949 20.5843 120.734 20.0041 120.303 19.5565C119.871 19.109 119.296 18.8879 118.583 18.8879C117.87 18.8879 117.257 19.109 116.825 19.5565C116.394 20.0041 116.179 20.5843 116.179 21.3026V22.1591C116.179 22.8774 116.394 23.4576 116.825 23.9051C117.257 24.3527 117.843 24.5737 118.583 24.5737Z" fill="white"/>
<path d="M85.6027 22.3745V20.9489C85.6027 20.9489 85.6027 20.9047 85.6027 20.8826V20.8605C85.6027 20.7942 85.6027 20.7334 85.5916 20.6671C85.5861 20.6063 85.575 20.5455 85.564 20.4848C85.564 20.4848 85.564 20.4792 85.564 20.4737C85.5529 20.4185 85.5363 20.3577 85.5197 20.3024V20.2914C85.5032 20.2361 85.4866 20.1864 85.4645 20.1367C85.4645 20.1311 85.4645 20.1256 85.4589 20.1146C85.4368 20.0648 85.4147 20.0206 85.3926 19.9764C85.3926 19.9654 85.3815 19.9543 85.376 19.9488C85.3539 19.9101 85.3263 19.8659 85.3041 19.8272C85.2931 19.8107 85.2876 19.7996 85.2765 19.783C85.2544 19.7499 85.2268 19.7167 85.1991 19.6836C85.1825 19.667 85.1715 19.6449 85.1549 19.6283C85.1438 19.6117 85.1328 19.6007 85.1162 19.5841C85.1051 19.5731 85.0886 19.5565 85.0775 19.5454C85.0609 19.5233 85.0388 19.5067 85.0222 19.4902C84.9946 19.4681 84.9725 19.4404 84.9448 19.4183C84.9227 19.4018 84.9006 19.3852 84.8785 19.3631C84.8508 19.341 84.8232 19.3244 84.7956 19.3023C84.7734 19.2857 84.7458 19.2691 84.7182 19.2526C84.6905 19.236 84.6684 19.2194 84.6408 19.2028C84.6131 19.1863 84.58 19.1697 84.5523 19.1531C84.5302 19.1421 84.5081 19.131 84.4805 19.12C84.4473 19.1034 84.4086 19.0923 84.3754 19.0758C84.3533 19.0702 84.3367 19.0592 84.3146 19.0537C84.2759 19.0426 84.2372 19.0315 84.193 19.0205C84.1764 19.0205 84.1543 19.0094 84.1377 19.0039C84.099 18.9929 84.0548 18.9873 84.0161 18.9818C83.994 18.9818 83.9774 18.9763 83.9553 18.9708C83.9166 18.9708 83.8779 18.9597 83.8392 18.9597C83.8171 18.9597 83.7894 18.9597 83.7673 18.9597C83.7508 18.9597 83.7286 18.9597 83.7121 18.9597H79.0021C77.9573 18.9597 77.106 19.8107 77.106 20.8605C77.106 21.8551 77.8633 22.6674 78.8307 22.7558L66.8514 33.7184C66.4534 34.0776 66.2322 34.5915 66.2322 35.1274V41.095H43.8711C42.8263 41.095 41.975 41.946 41.975 42.9958C41.975 44.0457 42.8208 44.8966 43.8711 44.8966H68.1228C69.1677 44.8966 70.019 44.0457 70.019 42.9958V35.9673L81.8159 25.1704V25.2036C81.8159 26.2534 82.6672 27.1044 83.7121 27.1044C84.7569 27.1044 85.6082 26.2534 85.6082 25.2036V22.3745H85.6027Z" fill="url(#paint0_linear_693_45953)"/>
<path d="M177.397 14.9924C177.397 11.6273 174.986 11.9976 174.986 11.9976V11.0251C174.986 11.0251 178.79 10.7488 180.426 12.0307C182.062 13.3071 182.19 14.8985 182.19 16.6003V30.6186C182.19 30.6186 181.814 35.2214 185.501 35.2435C188.945 35.2435 188.779 30.7347 188.779 30.7347V27.7509C188.779 26.049 188.912 24.4577 190.548 23.1813C192.184 21.9049 195.988 22.1756 195.988 22.1756V23.1426C195.988 23.1426 193.577 22.7724 193.577 26.1374V29.077C193.577 29.077 194.125 35.2767 188.989 35.7021C193.782 36.426 193.577 42.3051 193.577 42.3051V49.1955C193.577 52.5605 195.988 52.1903 195.988 52.1903V53.1573C195.988 53.1573 192.179 53.4336 190.548 52.1517C188.912 50.8753 188.785 49.2894 188.785 47.582V40.642C188.785 40.642 188.945 36.1331 185.501 36.1331C181.814 36.1552 182.19 40.758 182.19 40.758V47.582C182.19 49.2894 182.062 50.8753 180.426 52.1517C178.79 53.4281 174.986 53.1573 174.986 53.1573V52.1903C174.986 52.1903 177.397 52.5605 177.397 49.1955V14.9924Z" fill="white"/>
<path d="M198.403 14.9924C198.403 11.6273 195.993 11.9976 195.993 11.9976V11.0251C195.993 11.0251 199.796 10.7488 201.433 12.0307C203.069 13.3071 203.196 14.8985 203.196 16.6003V30.6186C203.196 30.6186 202.826 35.2214 206.508 35.2435C209.952 35.2435 209.786 30.7347 209.786 30.7347V27.7509C209.786 26.049 209.918 24.4577 211.555 23.1813C213.191 21.9049 216.994 22.1756 216.994 22.1756V23.1426C216.994 23.1426 214.584 22.7724 214.584 26.1374V29.077C214.584 29.077 215.131 35.2767 209.996 35.7021C214.789 36.426 214.584 42.3051 214.584 42.3051V49.1955C214.584 52.5605 216.994 52.1903 216.994 52.1903V53.1573C216.994 53.1573 213.191 53.4336 211.555 52.1517C209.918 50.8753 209.791 49.2894 209.791 47.582V40.642C209.791 40.642 209.952 36.1331 206.508 36.1331C202.82 36.1552 203.196 40.758 203.196 40.758V47.582C203.196 49.2894 203.064 50.8753 201.433 52.1517C199.796 53.4281 195.993 53.1573 195.993 53.1573V52.1903C195.993 52.1903 198.403 52.5605 198.403 49.1955V14.9924Z" fill="white"/>
<path d="M219.228 27.751C219.228 26.0436 219.355 24.4577 220.991 23.1813C222.628 21.9049 226.431 22.1812 226.431 22.1812V23.1482C226.431 23.1482 224.021 22.778 224.021 26.143V49.2011C224.021 52.5662 226.431 52.196 226.431 52.196V53.1629C226.431 53.1629 222.628 53.4392 220.991 52.1573C219.355 50.8809 219.228 49.295 219.228 47.5877V27.751Z" fill="white"/>
<path fill-rule="evenodd" clip-rule="evenodd" d="M144.023 37.8073C143.399 39.1666 142.531 40.4319 141.431 41.5426C139.076 43.9075 135.825 45.3773 132.254 45.3773H129.838V53.1849H132.254C137.97 53.1849 143.166 50.8365 146.925 47.0626C147.263 46.72 147.589 46.3719 147.898 46.0127C146.035 43.5207 144.747 40.7248 144.018 37.8073M156.871 41.5426C154.377 39.034 153.034 35.6303 153.034 32.0994C153.034 27.7619 151.74 23.4299 149.148 19.772C148.49 18.8437 147.749 17.9596 146.92 17.1308C143.166 13.3513 137.975 11.0029 132.254 11.0029H129.838V18.8105H132.254C135.825 18.8105 139.07 20.2803 141.431 22.6452C143.985 25.2146 145.267 28.6515 145.267 32.0884C145.267 37.7023 147.429 43.0897 151.381 47.0571C155.14 50.8365 160.337 53.1794 166.053 53.1794H168.468V45.3718H166.053C162.482 45.3718 159.231 43.902 156.876 41.5371L156.871 41.5426ZM156.871 22.6508C159.225 20.2858 162.476 18.816 166.047 18.816H168.463V11.0029H166.047C160.331 11.0029 155.14 13.3513 151.376 17.1308C151.033 17.4733 150.712 17.8214 150.403 18.1806C152.266 20.6671 153.554 23.4685 154.283 26.386C154.908 25.0267 155.77 23.7614 156.876 22.6563L156.871 22.6508Z" fill="url(#paint1_linear_693_45953)"/>
<g opacity="0.43">
<path d="M163.183 34.0611C163.3 34.1716 163.405 34.2932 163.504 34.4203C163.803 34.8126 164.007 35.2436 164.195 35.647C164.383 36.0503 164.565 36.4261 164.787 36.7465C165.008 37.067 165.268 37.3267 165.555 37.4925C165.837 37.6638 166.158 37.7135 166.462 37.7688C166.766 37.8185 167.053 37.8848 167.285 38.0008C167.401 38.0616 167.506 38.1279 167.589 38.2108C167.661 38.2826 167.716 38.36 167.761 38.4318C167.761 38.3766 167.761 38.3213 167.761 38.2661C167.755 37.7632 167.694 37.1665 167.578 36.5034C167.523 36.1995 167.457 35.879 167.385 35.553C167.374 35.5364 167.363 35.5254 167.352 35.5088C167.169 35.2823 166.915 34.9452 166.528 34.6026C166.334 34.4369 166.108 34.2656 165.842 34.1274C165.577 33.9893 165.279 33.8788 164.952 33.8346C164.626 33.7904 164.272 33.8235 163.897 33.8898C163.709 33.923 163.515 33.9617 163.316 34.0003C163.266 34.0114 163.217 34.0169 163.167 34.028L163.189 34.0501L163.183 34.0611Z" fill="white"/>
<path d="M161.84 29.486C161.89 29.4473 161.945 29.4086 161.995 29.3755C162.305 29.171 162.675 29.0329 163.062 28.9887C163.349 28.9556 163.648 28.9832 163.935 29.0495C163.869 29.0053 163.797 28.9556 163.725 28.9058C163.449 28.7235 163.106 28.5246 162.708 28.3533C162.316 28.1875 161.851 28.0604 161.365 28.0494C160.878 28.0328 160.425 28.1543 160.032 28.3256C159.64 28.4969 159.303 28.7069 159.032 28.8948C158.789 29.0605 158.595 29.2153 158.446 29.3258C158.518 29.2981 158.601 29.276 158.7 29.2539C158.8 29.2318 158.916 29.2263 159.037 29.2374C159.159 29.2484 159.281 29.276 159.402 29.3092C159.646 29.3755 159.9 29.4694 160.154 29.5247C160.408 29.5799 160.663 29.5965 160.895 29.591C161.127 29.5855 161.337 29.5578 161.514 29.5302C161.636 29.5136 161.741 29.4971 161.829 29.486H161.84Z" fill="white"/>
<path d="M163.493 26.0933C163.543 26.5685 163.648 27.005 163.775 27.3918C164.035 28.1654 164.388 28.7401 164.637 29.1268C164.704 29.2318 164.764 29.3202 164.82 29.3976C164.914 29.4473 165.002 29.5026 165.091 29.5634C165.013 29.4418 164.919 29.3037 164.836 29.1434C164.786 29.055 164.742 28.9666 164.687 28.8727C164.643 28.7732 164.593 28.6737 164.543 28.5688C164.493 28.4638 164.449 28.3533 164.405 28.2317C164.383 28.1709 164.361 28.1157 164.339 28.0549C164.317 27.9941 164.3 27.9333 164.278 27.867C164.261 27.8062 164.239 27.7399 164.217 27.6736C164.201 27.6073 164.184 27.541 164.167 27.4747C164.151 27.4084 164.134 27.3366 164.123 27.2703C164.112 27.1984 164.101 27.1266 164.09 27.0603C164.062 26.9166 164.057 26.7674 164.04 26.6182C164.04 26.5409 164.04 26.4691 164.035 26.3917V26.2757V26.1596C164.057 25.5408 164.234 24.9551 164.488 24.4799C164.748 24.0047 165.085 23.6455 165.406 23.4024C165.566 23.2753 165.726 23.1869 165.864 23.1095C166.008 23.0377 166.135 22.988 166.24 22.9548C166.296 22.9382 166.34 22.9272 166.384 22.9161C166.428 22.9051 166.462 22.9051 166.489 22.8996C166.55 22.894 166.578 22.8996 166.583 22.9106C166.589 22.9217 166.539 22.9659 166.467 23.0543C166.401 23.1482 166.318 23.3084 166.318 23.5239C166.318 23.6289 166.34 23.745 166.395 23.861C166.45 23.977 166.539 24.0875 166.655 24.176C166.887 24.3638 167.246 24.4522 167.611 24.3472C167.971 24.2478 168.33 23.9605 168.479 23.5516C168.629 23.1427 168.568 22.6233 168.291 22.2033C168.159 21.9934 167.965 21.8166 167.744 21.6839C167.517 21.5513 167.258 21.4629 166.987 21.4242C166.439 21.3414 165.853 21.4905 165.345 21.8C165.091 21.9547 164.858 22.1426 164.648 22.3525C164.444 22.5625 164.267 22.7946 164.118 23.0432C164.04 23.1648 163.979 23.2919 163.913 23.419C163.885 23.4853 163.858 23.546 163.825 23.6124C163.797 23.6731 163.775 23.745 163.747 23.8057C163.653 24.0654 163.576 24.3307 163.532 24.5904C163.432 25.1153 163.421 25.6236 163.476 26.0988L163.493 26.0933Z" fill="white"/>
<path d="M167.921 36.4481C168.02 37.1278 168.053 37.7466 168.026 38.2715C168.026 38.2881 168.026 38.2992 168.026 38.3158C168.103 37.8682 168.164 37.3322 168.175 36.7244C168.175 36.2271 168.147 35.6856 168.053 35.1109C168.004 34.8236 167.937 34.5308 167.86 34.2324C167.777 33.934 167.677 33.6356 167.556 33.3317C167.313 32.7294 166.992 32.1216 166.572 31.547C166.362 31.2596 166.135 30.9834 165.886 30.7181C165.759 30.5855 165.627 30.4584 165.494 30.3369C165.356 30.2153 165.212 30.0993 165.063 29.9943C164.764 29.7788 164.444 29.602 164.117 29.4859C163.786 29.3699 163.443 29.3257 163.117 29.3589C162.791 29.392 162.476 29.508 162.205 29.6793C161.934 29.8506 161.707 30.0772 161.541 30.3369C161.21 30.8508 161.143 31.4972 161.348 31.9945C161.447 32.2432 161.613 32.4532 161.807 32.6079C162 32.7626 162.227 32.862 162.448 32.8897C162.669 32.9173 162.89 32.8786 163.078 32.7957C163.172 32.7571 163.261 32.7018 163.338 32.6465C163.415 32.5858 163.482 32.5195 163.537 32.4476C163.653 32.304 163.714 32.1437 163.736 31.989C163.758 31.8343 163.747 31.6851 163.714 31.558C163.681 31.4309 163.631 31.3204 163.581 31.232C163.526 31.1436 163.471 31.0773 163.421 31.0276C163.321 30.9281 163.249 30.8894 163.255 30.8729C163.249 30.8508 163.399 30.7734 163.697 30.7623C163.847 30.7623 164.029 30.7789 164.233 30.8397C164.438 30.895 164.659 30.9944 164.891 31.1215C165.007 31.1878 165.124 31.2596 165.24 31.337C165.3 31.3757 165.356 31.4199 165.417 31.4586C165.477 31.5028 165.538 31.5525 165.599 31.6022C165.837 31.8067 166.063 32.0553 166.273 32.3261C166.483 32.6023 166.688 32.8952 166.881 33.2212C166.981 33.3925 167.058 33.5583 167.147 33.7296C167.235 33.9008 167.318 34.0777 167.396 34.2655C167.473 34.4534 167.539 34.6468 167.589 34.8347C167.639 35.0225 167.683 35.2104 167.722 35.3927C167.799 35.7574 167.865 36.1111 167.915 36.4481H167.921Z" fill="white"/>
<path d="M166.152 30.4586C166.417 30.7349 166.655 31.0277 166.87 31.3316C167.269 31.8842 167.578 32.4754 167.816 33.0556C167.821 32.923 167.838 32.7683 167.854 32.597C167.882 32.3649 167.926 32.0997 167.976 31.8068C168.026 31.514 168.087 31.199 168.131 30.8619C168.175 30.5249 168.208 30.1657 168.181 29.7955C168.159 29.4253 168.07 29.0496 167.893 28.6904C167.722 28.3312 167.473 27.9887 167.175 27.6737C166.97 27.4582 166.743 27.2593 166.511 27.0825L166.423 27.0162C166.423 27.0162 166.412 27.0051 166.406 27.0051C166.406 27.0051 166.395 26.9941 166.395 26.9996V27.0162V27.0493C166.395 27.0714 166.395 27.0935 166.401 27.1156C166.417 27.2924 166.417 27.4693 166.401 27.635C166.367 27.9666 166.279 28.2705 166.202 28.5412C166.119 28.8175 166.041 29.0661 165.992 29.3037C165.964 29.4198 165.947 29.5358 165.936 29.6408C165.925 29.7513 165.92 29.8508 165.936 29.9447C165.953 30.1049 165.997 30.2486 166.047 30.3757C166.08 30.4089 166.108 30.4365 166.141 30.4696L166.152 30.4586Z" fill="white"/>
<path d="M163.272 27.9776C163.576 28.2152 163.847 28.3865 164.024 28.5135C164.024 28.5135 164.024 28.5135 164.029 28.5135C164.029 28.5135 164.029 28.508 164.024 28.5025C163.847 28.2152 163.67 27.8726 163.521 27.4747C163.371 27.0769 163.244 26.6238 163.178 26.1265C163.106 25.6292 163.106 25.0822 163.2 24.5186C163.123 24.4578 163.012 24.3694 162.879 24.2589C162.73 24.1428 162.553 23.9992 162.338 23.85C162.233 23.7782 162.116 23.7008 161.989 23.629C161.956 23.6124 161.928 23.5903 161.895 23.5737H161.879C161.879 23.5737 161.857 23.5571 161.851 23.5571C161.851 23.5682 161.851 23.5792 161.857 23.5903C161.857 23.5903 161.857 23.5903 161.857 23.6069V23.64C161.857 23.6842 161.857 23.7284 161.862 23.7671C161.862 23.9384 161.873 24.1207 161.879 24.3031C161.89 24.6678 161.901 25.049 161.94 25.4358C162.006 26.016 162.15 26.5575 162.393 26.9885C162.631 27.4195 162.968 27.7289 163.266 27.972L163.272 27.9776Z" fill="white"/>
<path d="M166.909 40.2111C167.175 39.8906 167.39 39.5812 167.567 39.2994C167.744 39.0176 167.888 38.7689 167.998 38.559C167.998 38.5479 168.009 38.5424 168.015 38.5313C167.904 38.6805 167.772 38.8463 167.611 39.0286C167.34 39.3436 166.987 39.6972 166.55 40.0398C166.113 40.3769 165.588 40.7084 164.997 40.9515C164.919 40.9792 164.847 41.0123 164.775 41.0399C164.704 41.0676 164.626 41.0897 164.549 41.1173C164.399 41.1726 164.25 41.2057 164.106 41.2444C163.797 41.3217 163.498 41.3328 163.216 41.3273C162.935 41.3217 162.669 41.2886 162.426 41.2389C162.304 41.2112 162.188 41.1836 162.072 41.1449C161.956 41.1062 161.851 41.0565 161.752 41.0013C161.365 40.7858 161.149 40.4708 161.066 40.2443C161.044 40.189 161.033 40.1338 161.022 40.0895C161.016 40.0453 161.011 40.0067 161.011 39.9735C161.011 39.9183 161.016 39.8851 161.027 39.8796C161.049 39.8796 161.072 39.9459 161.132 40.0564C161.199 40.1503 161.337 40.2498 161.536 40.2885C161.641 40.3106 161.763 40.3106 161.884 40.2774C162.006 40.2443 162.127 40.1724 162.232 40.0674C162.332 39.9569 162.42 39.8188 162.465 39.653C162.487 39.5701 162.503 39.4817 162.503 39.3933C162.503 39.3049 162.498 39.211 162.476 39.1281C162.387 38.7745 162.039 38.454 161.608 38.3822C161.392 38.3435 161.166 38.3711 160.955 38.465C160.745 38.559 160.546 38.7137 160.397 38.9126C160.248 39.1115 160.154 39.3547 160.121 39.6144C160.088 39.8741 160.115 40.1503 160.198 40.4156C160.37 40.9405 160.773 41.4157 161.293 41.7251C161.547 41.8853 161.829 42.0014 162.116 42.0787C162.404 42.1561 162.697 42.2003 162.984 42.2058C163.565 42.2169 164.123 42.1064 164.626 41.9185C165.135 41.7362 165.571 41.4599 165.947 41.1615C166.323 40.8576 166.638 40.5316 166.904 40.2111H166.909Z" fill="white"/>
<path d="M158.761 34.1827C158.761 34.1827 158.761 34.1606 158.761 34.1495C158.722 34.144 158.683 34.1329 158.634 34.1219C158.551 34.0998 158.457 34.0832 158.346 34.0611C158.236 34.0445 158.12 34.028 157.992 34.0169C157.865 34.0059 157.744 34.0059 157.633 34.0059C157.605 34.0059 157.583 34.0059 157.556 34.0059C157.572 34.0169 157.589 34.0335 157.605 34.0445C157.677 34.1053 157.744 34.1827 157.81 34.2656C157.871 34.3484 157.937 34.4369 157.998 34.5308C158.125 34.7187 158.247 34.9231 158.396 35.111C158.694 35.4867 159.059 35.7464 159.347 35.9011C159.397 35.9287 159.446 35.9564 159.49 35.9785C159.347 35.7906 159.209 35.5751 159.092 35.3375C158.927 35.0005 158.811 34.6081 158.761 34.1827Z" fill="white"/>
<path d="M166.594 43.0512L166.633 43.0125C166.738 42.9186 166.848 42.8247 166.954 42.7307C167.164 42.5373 167.374 42.3274 167.551 42.0898C167.904 41.6367 168.109 41.1173 168.114 40.6421C168.114 40.6144 168.114 40.5813 168.114 40.5537C168.114 40.526 168.114 40.4984 168.109 40.4652C168.103 40.3989 168.098 40.3326 168.092 40.2719C168.081 40.1448 168.076 40.0177 168.076 39.8961C168.076 39.653 168.076 39.432 168.092 39.2275C168.109 39.001 168.131 38.7965 168.159 38.6252C168.159 38.6308 168.159 38.6363 168.153 38.6418C168.048 38.896 167.904 39.1944 167.722 39.537C167.534 39.8795 167.302 40.2553 167.003 40.6476C166.887 40.7968 166.76 40.9515 166.627 41.1062C166.611 41.2278 166.583 41.388 166.561 41.5759C166.533 41.8024 166.5 42.0787 166.506 42.3881C166.506 42.5428 166.517 42.7086 166.539 42.8744C166.539 42.9186 166.55 42.9573 166.561 43.0015V43.0346L166.567 43.0401C166.567 43.0401 166.578 43.0622 166.578 43.0678L166.589 43.0512H166.594Z" fill="white"/>
<path d="M161.945 37.4427C161.934 36.9067 162.117 36.3818 162.454 36.0006C162.498 35.9564 162.542 35.9066 162.587 35.8624L162.658 35.8016L162.714 35.763C162.714 35.6138 162.719 35.4093 162.675 35.1607C162.653 35.0225 162.614 34.8733 162.548 34.7242C162.482 34.575 162.393 34.4203 162.26 34.2987C162.244 34.2821 162.227 34.2655 162.211 34.249L162.155 34.2048C162.122 34.1771 162.078 34.1495 162.039 34.1274C161.962 34.0887 161.885 34.0666 161.796 34.0777C161.708 34.0887 161.625 34.1163 161.525 34.1716C161.481 34.1937 161.431 34.2324 161.387 34.2655C161.343 34.2987 161.293 34.3374 161.243 34.376C161.149 34.4534 161.05 34.5363 160.956 34.6136C160.956 34.6026 160.956 34.5805 160.956 34.5584V34.4976C160.956 34.4534 160.961 34.4147 160.967 34.3705C160.967 34.2876 160.978 34.1992 160.978 34.1108C160.978 34.0224 160.978 33.9395 160.978 33.8511C160.978 33.8069 160.972 33.7572 160.967 33.713C160.945 33.5306 160.912 33.3483 160.851 33.166C160.79 32.9836 160.713 32.8068 160.613 32.641C160.508 32.4753 160.381 32.3205 160.226 32.1935C160.077 32.0664 159.9 31.9614 159.706 31.8951C159.507 31.8288 159.292 31.7846 159.071 31.768C158.85 31.7459 158.617 31.7514 158.38 31.768H158.347L158.385 31.8011C158.418 31.8232 158.446 31.8509 158.479 31.873C158.54 31.9227 158.595 31.978 158.656 32.0332C158.883 32.2542 159.065 32.5195 159.187 32.8068C159.308 33.0996 159.347 33.4036 159.364 33.6798C159.38 33.9616 159.38 34.2213 159.408 34.47C159.458 34.9618 159.585 35.4259 159.762 35.8293C159.939 36.2326 160.165 36.5863 160.409 36.8791C160.895 37.4648 161.431 37.8019 161.807 38.0063C161.907 38.0616 162.001 38.1058 162.078 38.1445C161.995 37.9234 161.94 37.6858 161.934 37.4427H161.945Z" fill="white"/>
<path d="M156.251 29.055C156.522 29.0108 156.909 28.939 157.346 28.74C157.561 28.6406 157.788 28.508 157.992 28.3256C158.097 28.2372 158.191 28.1322 158.28 28.0217C158.368 27.9057 158.451 27.7841 158.518 27.646C158.584 27.5078 158.639 27.3642 158.678 27.2095C158.717 27.0548 158.733 26.8945 158.728 26.7343C158.728 26.6956 158.728 26.6514 158.717 26.6127V26.5519C158.717 26.5519 158.7 26.5132 158.7 26.4911C158.689 26.4083 158.661 26.3309 158.634 26.2591C158.573 26.1099 158.49 25.9717 158.374 25.8778C158.263 25.7839 158.114 25.7341 157.981 25.7397C157.843 25.7397 157.738 25.806 157.655 25.9165C157.484 26.143 157.44 26.4967 157.368 26.8172C157.301 27.1376 157.224 27.4636 157.086 27.7454C156.948 28.0272 156.765 28.2538 156.577 28.4361C156.306 28.6903 156.03 28.845 155.792 28.939C155.903 28.9721 156.008 29.0163 156.113 29.0771C156.157 29.0716 156.201 29.066 156.251 29.055Z" fill="white"/>
<path d="M158.866 24.6567C158.866 24.6567 158.866 24.6622 158.866 24.6677C158.772 24.9937 158.761 25.1263 158.733 25.2368C158.811 25.1319 158.993 24.7948 159.087 24.6732C159.336 24.3583 159.673 24.1041 159.988 24.0986C160.143 24.0986 160.265 24.1594 160.32 24.2257C160.381 24.292 160.381 24.3417 160.364 24.3528C160.347 24.3638 160.309 24.3417 160.254 24.3251C160.242 24.3251 160.231 24.3196 160.22 24.3141C160.198 24.3141 160.176 24.3196 160.16 24.3362C160.11 24.3638 160.066 24.4412 160.066 24.5296C160.066 24.5738 160.082 24.6235 160.104 24.6788C160.126 24.734 160.16 24.7893 160.204 24.839C160.242 24.8887 160.292 24.9329 160.347 24.9606C160.403 24.9882 160.464 24.9992 160.535 24.9992C160.674 24.9992 160.823 24.9274 160.939 24.8059C161.05 24.6843 161.132 24.513 161.138 24.3362C161.149 24.1594 161.083 23.9715 160.956 23.8168C160.895 23.7394 160.823 23.6731 160.74 23.6234C160.663 23.5737 160.574 23.535 160.486 23.5074C160.303 23.4576 160.115 23.4631 159.944 23.5018C159.596 23.5792 159.325 23.8057 159.17 24.0323C159.087 24.1483 159.037 24.2588 158.993 24.3693C158.949 24.4798 158.916 24.5738 158.877 24.6567H158.866Z" fill="white"/>
<path d="M156.682 35.1551C156.754 35.2214 156.865 35.2988 157.008 35.3761C157.13 35.4369 157.279 35.5087 157.445 35.5695C157.5 35.5806 157.561 35.5916 157.628 35.5971C157.705 35.6027 157.793 35.6082 157.854 35.575C157.882 35.5585 157.904 35.5364 157.915 35.4977C157.926 35.4645 157.932 35.4203 157.926 35.3761C157.915 35.2877 157.871 35.1938 157.805 35.1164C157.738 35.0335 157.644 34.9672 157.545 34.912C157.44 34.8567 157.329 34.807 157.224 34.7573C157.119 34.7075 157.014 34.6578 156.915 34.6025C156.721 34.4976 156.555 34.376 156.439 34.2544C156.395 34.2102 156.356 34.166 156.323 34.1218C156.384 34.3263 156.456 34.5583 156.55 34.8125C156.588 34.923 156.638 35.0391 156.688 35.1551H156.682Z" fill="white"/>
<path d="M158.081 36.2603C158.004 36.2382 157.926 36.2106 157.854 36.183C157.561 36.0724 157.313 35.9454 157.114 35.8183C157.025 35.763 156.948 35.7022 156.881 35.647C156.948 35.7851 157.02 35.9288 157.097 36.0669C157.202 36.2493 157.313 36.4205 157.429 36.5808C157.462 36.625 157.495 36.6692 157.528 36.7079C157.622 36.7742 157.749 36.8626 157.904 36.9455C158.004 37.0007 158.109 37.0505 158.23 37.0781C158.352 37.1112 158.484 37.1223 158.617 37.1002C158.684 37.0891 158.744 37.067 158.794 37.0339C158.844 37.0007 158.877 36.9565 158.888 36.9013C158.899 36.8515 158.888 36.7852 158.855 36.7245C158.822 36.6637 158.777 36.6029 158.717 36.5476C158.601 36.4427 158.457 36.3763 158.308 36.3266C158.23 36.299 158.158 36.2769 158.081 36.2548V36.2603Z" fill="white"/>
<path d="M162.935 28.0716C162.818 27.9887 162.708 27.8948 162.592 27.7843C162.415 27.6185 162.244 27.4141 162.1 27.1765C161.868 26.8007 161.718 26.3532 161.63 25.8724C161.503 25.7951 161.315 25.7067 161.049 25.6514C160.795 25.5962 160.48 25.5851 160.121 25.5906C159.938 25.5906 159.745 25.5906 159.546 25.5962C159.496 25.5962 159.446 25.5962 159.397 25.5962H159.33V25.6072L159.341 25.6459C159.358 25.6956 159.369 25.7398 159.385 25.7895C159.419 25.8835 159.446 25.9774 159.485 26.0658C159.551 26.2426 159.629 26.4139 159.712 26.5687C159.872 26.8781 160.065 27.1267 160.248 27.3146C160.43 27.5025 160.602 27.6296 160.729 27.7124C160.939 27.6738 161.16 27.6517 161.381 27.6572C161.928 27.6738 162.437 27.8229 162.857 28.0219C162.885 28.0329 162.912 28.0495 162.935 28.0605V28.0716Z" fill="white"/>
<path d="M167.302 38.6252C167.324 38.5866 167.346 38.5424 167.368 38.5037C167.401 38.4429 167.429 38.3821 167.462 38.3269C167.252 38.5258 166.976 38.7137 166.66 38.9015C166.329 39.0949 165.925 39.2441 165.489 39.3104C165.267 39.3436 165.052 39.3546 164.842 39.3491C164.632 39.3436 164.427 39.3104 164.239 39.2552C164.046 39.1999 163.869 39.117 163.725 39.001C163.653 38.9457 163.587 38.8794 163.532 38.8131C163.476 38.7413 163.438 38.675 163.404 38.6087C163.333 38.4761 163.288 38.3434 163.266 38.2219C163.25 38.0948 163.266 37.9788 163.305 37.8959C163.322 37.8517 163.349 37.824 163.366 37.7964C163.388 37.7743 163.41 37.7522 163.427 37.7412C163.465 37.7191 163.487 37.7135 163.498 37.7191C163.515 37.7191 163.509 37.7688 163.526 37.8461C163.543 37.9235 163.587 38.034 163.697 38.1224C163.753 38.1666 163.819 38.2053 163.896 38.2164C163.979 38.2329 164.068 38.2274 164.162 38.1998C164.256 38.1721 164.344 38.1169 164.422 38.0395C164.493 37.9622 164.554 37.8572 164.576 37.7412C164.632 37.5091 164.571 37.2052 164.383 36.9897C164.206 36.7797 163.88 36.6803 163.554 36.741C163.393 36.7742 163.228 36.835 163.089 36.9344C163.017 36.9842 162.951 37.0394 162.896 37.1057L162.852 37.1555L162.813 37.2107C162.785 37.2439 162.763 37.2881 162.741 37.3212C162.647 37.4759 162.592 37.6583 162.559 37.8461C162.531 38.034 162.537 38.2329 162.581 38.4263C162.625 38.6197 162.702 38.7965 162.807 38.9568C162.912 39.117 163.045 39.2607 163.189 39.3822C163.482 39.6198 163.836 39.7746 164.178 39.8353C164.527 39.9016 164.875 39.8851 165.19 39.8188C165.505 39.758 165.793 39.653 166.041 39.5314C166.544 39.2883 166.893 38.9844 167.136 38.7744C167.197 38.7192 167.258 38.6694 167.302 38.6252Z" fill="white"/>
<path d="M156.765 32.3703C156.776 32.2598 156.798 32.1438 156.837 32.0277C156.876 31.9172 156.931 31.8067 156.997 31.7072C157.13 31.5083 157.29 31.3426 157.434 31.1713C157.578 31 157.694 30.8342 157.744 30.6298C157.799 30.4308 157.788 30.2098 157.722 30.0054C157.655 29.8065 157.517 29.6241 157.34 29.5136C157.252 29.4584 157.152 29.4252 157.047 29.4141C156.942 29.4031 156.832 29.4141 156.721 29.4418C156.505 29.5026 156.306 29.6241 156.146 29.7954C155.991 29.9612 155.87 30.1656 155.798 30.3811C155.72 30.5966 155.693 30.8176 155.698 31.0442C155.698 31.2652 155.737 31.4862 155.798 31.7017C155.914 32.1217 156.102 32.514 156.306 32.851C156.511 33.1881 156.743 33.4809 156.981 33.7185C157.13 33.8677 157.279 33.9893 157.429 34.0998C157.285 33.9451 157.141 33.7627 157.025 33.5473C156.859 33.2268 156.721 32.8234 156.76 32.3703H156.765Z" fill="white"/>
<path d="M165.19 26.248C165.19 26.248 165.19 26.2535 165.19 26.259C165.096 26.585 165.085 26.7176 165.057 26.8282C165.135 26.7232 165.317 26.3861 165.411 26.2645C165.66 25.9496 165.997 25.6954 166.312 25.6899C166.467 25.6899 166.589 25.7507 166.644 25.817C166.705 25.8833 166.705 25.933 166.688 25.9441C166.672 25.9551 166.633 25.933 166.578 25.9164C166.567 25.9164 166.555 25.9109 166.544 25.9054C166.522 25.9054 166.5 25.9109 166.484 25.9275C166.434 25.9551 166.39 26.0325 166.39 26.1209C166.39 26.1651 166.406 26.2148 166.428 26.2701C166.45 26.3253 166.484 26.3806 166.528 26.4303C166.567 26.48 166.616 26.5242 166.672 26.5519C166.727 26.5795 166.788 26.5906 166.86 26.5906C166.998 26.5906 167.147 26.5187 167.263 26.3972C167.374 26.2756 167.457 26.1043 167.462 25.9275C167.473 25.7507 167.407 25.5628 167.28 25.4081C167.219 25.3307 167.147 25.2644 167.064 25.2147C166.987 25.165 166.898 25.1263 166.81 25.0987C166.627 25.0489 166.439 25.0545 166.268 25.0931C165.92 25.1705 165.649 25.397 165.494 25.6236C165.411 25.7396 165.361 25.8501 165.317 25.9606C165.273 26.0712 165.24 26.1651 165.201 26.248H165.19Z" fill="white"/>
<path d="M159.817 37.7026C159.778 37.6584 159.728 37.6252 159.678 37.5921C159.579 37.5313 159.474 37.4981 159.374 37.4981C159.275 37.4981 159.175 37.5202 159.104 37.57C159.032 37.6197 158.971 37.686 158.938 37.7578C158.899 37.8297 158.877 37.9015 158.871 37.9678C158.871 37.9733 158.871 37.9844 158.871 37.9899C158.871 37.9954 158.871 38.0065 158.871 38.012C158.871 38.0286 158.871 38.0452 158.871 38.0562C158.871 38.0838 158.871 38.1115 158.882 38.1391C158.882 38.1501 158.888 38.1612 158.893 38.1778C158.893 38.1888 158.905 38.1999 158.905 38.2109C158.905 38.222 158.91 38.233 158.916 38.2386C158.916 38.2496 158.927 38.2551 158.932 38.2607C158.943 38.2772 158.949 38.2938 158.954 38.2993C158.96 38.3104 158.971 38.3214 158.976 38.327C158.987 38.3435 158.993 38.3546 158.987 38.3546C158.987 38.3601 158.965 38.3601 158.921 38.3546C158.899 38.3546 158.877 38.3435 158.844 38.338C158.816 38.3325 158.777 38.3214 158.744 38.3104C158.595 38.2607 158.379 38.1667 158.142 38.012C158.02 37.9347 157.898 37.8352 157.771 37.7302C157.644 37.6142 157.517 37.4926 157.395 37.3434C157.329 37.2716 157.274 37.1942 157.213 37.1169C157.158 37.034 157.097 36.9566 157.042 36.8682C156.931 36.6969 156.826 36.5091 156.732 36.3101C156.544 35.9123 156.417 35.52 156.323 35.1553C156.229 34.7906 156.168 34.4591 156.129 34.1773C156.096 33.9507 156.074 33.7573 156.058 33.6082C156.058 33.6413 156.058 33.6745 156.058 33.7131C156.058 33.9949 156.047 34.4094 156.096 34.9122C156.146 35.415 156.251 36.0118 156.489 36.6251C156.55 36.7798 156.616 36.9345 156.693 37.0892C156.771 37.244 156.859 37.3987 156.953 37.5479C157.147 37.8462 157.384 38.1391 157.661 38.3933C157.937 38.6474 158.247 38.8574 158.573 38.9624C158.899 39.0619 159.247 39.0453 159.524 38.9071C159.795 38.769 159.971 38.4983 160.005 38.2275C160.01 38.1612 160.005 38.0949 159.999 38.0341C159.988 37.9678 159.966 37.9125 159.938 37.8573C159.911 37.802 159.872 37.7523 159.833 37.7081L159.817 37.7026Z" fill="white"/>
</g>
<g opacity="0.43">
<path d="M130.297 42.2721L130.385 42.3771C130.463 42.4655 130.54 42.5521 130.618 42.6368C130.695 42.7215 130.767 42.8007 130.833 42.8744C130.9 42.9481 130.925 42.9776 130.911 42.9628C130.984 42.9555 131.052 42.9481 131.115 42.9407C131.178 42.9333 131.357 42.9094 131.651 42.8689C131.817 42.8468 131.989 42.821 132.165 42.7915C132.232 42.7805 132.296 42.7694 132.359 42.7584C132.399 42.7215 132.446 42.6829 132.497 42.6423C132.604 42.5466 132.715 42.4471 132.829 42.344C132.947 42.2371 133.059 42.1321 133.166 42.029C133.21 41.9885 133.255 41.9461 133.299 41.9019C133.277 41.8688 133.255 41.8375 133.232 41.808C133.173 41.7233 133.114 41.6367 133.055 41.5483C133.019 41.493 132.98 41.4359 132.939 41.377C133.201 41.1007 133.465 40.8171 133.73 40.5261C133.896 40.504 134.06 40.4819 134.222 40.4598C134.447 40.4266 134.672 40.3898 134.896 40.3492C134.963 40.3382 135.025 40.3271 135.084 40.3161C135.125 40.2682 135.169 40.2166 135.217 40.1614C135.364 39.9882 135.512 39.8151 135.659 39.642C135.799 39.4688 135.945 39.2902 136.096 39.106C136.133 39.0581 136.171 39.0065 136.212 38.9513C136.194 38.9108 136.175 38.8666 136.157 38.8187C136.083 38.6676 136.009 38.5129 135.936 38.3545C135.851 38.1961 135.768 38.034 135.687 37.8683C135.661 37.8204 135.635 37.7725 135.609 37.7246C135.539 37.7357 135.471 37.743 135.405 37.7467C135.169 37.7688 134.93 37.7928 134.686 37.8185C134.439 37.8406 134.191 37.8627 133.94 37.8849C133.863 37.8922 133.789 37.8977 133.719 37.9014C133.675 37.9604 133.63 38.0193 133.586 38.0782C133.431 38.2772 133.28 38.4724 133.133 38.664C132.982 38.8555 132.831 39.0452 132.68 39.2331C132.632 39.2883 132.587 39.3436 132.547 39.3988C132.576 39.4467 132.606 39.4946 132.635 39.5425C132.742 39.7009 132.845 39.8575 132.945 40.0122C133.011 40.119 133.081 40.224 133.155 40.3271C132.89 40.6255 132.624 40.9165 132.359 41.2002C132.245 41.2112 132.129 41.2241 132.011 41.2389C131.823 41.2573 131.633 41.2757 131.441 41.2941C131.368 41.3015 131.294 41.3088 131.22 41.3162C131.176 41.3641 131.134 41.4101 131.093 41.4543C130.975 41.5722 130.859 41.6901 130.745 41.808C130.634 41.9222 130.522 42.0345 130.408 42.145C130.363 42.1892 130.321 42.2316 130.28 42.2721H130.297ZM133.442 39.327C133.549 39.1944 133.658 39.0599 133.769 38.9237C133.875 38.7874 133.981 38.6529 134.084 38.5203C134.257 38.5056 134.43 38.4871 134.603 38.465C134.773 38.4466 134.941 38.4282 135.106 38.4098C135.169 38.524 135.232 38.6363 135.294 38.7468C135.353 38.8573 135.41 38.966 135.466 39.0728C135.359 39.2055 135.254 39.3344 135.151 39.4596C135.044 39.5886 134.941 39.7138 134.841 39.8354C134.675 39.8648 134.511 39.8888 134.349 39.9072C134.176 39.933 134.004 39.9569 133.835 39.979C133.776 39.8685 133.711 39.7617 133.641 39.6585C133.575 39.5444 133.505 39.4338 133.431 39.327H133.442ZM131.159 42.1948C131.229 42.1285 131.298 42.0603 131.364 41.9903C131.438 41.9203 131.508 41.8503 131.574 41.7804C131.685 41.7693 131.801 41.7564 131.922 41.7417C132.036 41.7269 132.147 41.714 132.254 41.703C132.294 41.7583 132.337 41.8135 132.381 41.8688C132.422 41.924 132.462 41.9756 132.503 42.0235C132.433 42.0898 132.363 42.1561 132.293 42.2224C132.223 42.2887 132.154 42.3532 132.088 42.4158C131.978 42.4305 131.869 42.4453 131.762 42.46C131.644 42.4747 131.532 42.4895 131.425 42.5042C131.384 42.4526 131.342 42.4011 131.298 42.3495C131.253 42.2942 131.207 42.2408 131.159 42.1892V42.1948Z" fill="white"/>
<path d="M136.107 25.0213C135.96 24.8371 135.814 24.6584 135.67 24.4853C135.526 24.3122 135.379 24.139 135.228 23.9659C135.18 23.9143 135.136 23.8628 135.095 23.8112C135.036 23.8038 134.974 23.7928 134.907 23.778C134.683 23.7375 134.458 23.7007 134.233 23.6675C134.067 23.6417 133.903 23.6178 133.741 23.5957C133.476 23.3047 133.212 23.021 132.95 22.7448C132.991 22.6858 133.03 22.6287 133.067 22.5735C133.125 22.4851 133.184 22.3967 133.243 22.3082C133.266 22.2751 133.288 22.2438 133.31 22.2143C133.266 22.1701 133.221 22.1277 133.177 22.0872C133.07 21.9841 132.958 21.8791 132.84 21.7723C132.726 21.6691 132.615 21.5697 132.508 21.4739C132.46 21.4334 132.414 21.3947 132.37 21.3579C132.304 21.3468 132.239 21.3358 132.176 21.3247C132 21.2952 131.828 21.2713 131.662 21.2529C131.485 21.2308 131.307 21.2068 131.126 21.181C131.063 21.1737 130.995 21.1663 130.922 21.1589C130.892 21.1884 130.866 21.2179 130.844 21.2473C130.767 21.3247 130.695 21.4039 130.629 21.4849C130.551 21.5697 130.474 21.6562 130.396 21.7446C130.367 21.7778 130.337 21.8128 130.308 21.8496C130.345 21.8901 130.387 21.9307 130.435 21.9712C130.549 22.0817 130.662 22.1941 130.772 22.3082C130.887 22.4261 131.003 22.544 131.121 22.6619C131.161 22.7061 131.204 22.7521 131.248 22.8C131.321 22.8074 131.395 22.8148 131.469 22.8221C131.661 22.8405 131.85 22.859 132.038 22.8774C132.156 22.8921 132.272 22.905 132.387 22.9161C132.652 23.1997 132.917 23.4907 133.183 23.7891C133.113 23.8922 133.043 23.9972 132.973 24.104C132.873 24.2624 132.77 24.419 132.663 24.5737C132.633 24.6216 132.604 24.6695 132.575 24.7174C132.622 24.7726 132.667 24.8279 132.707 24.8832C132.858 25.071 133.009 25.2607 133.16 25.4523C133.312 25.6438 133.463 25.8391 133.614 26.038C133.658 26.0969 133.702 26.1559 133.746 26.2148C133.816 26.2148 133.89 26.2203 133.968 26.2314C134.218 26.2535 134.467 26.2756 134.714 26.2977C134.957 26.3235 135.197 26.3474 135.433 26.3695C135.499 26.3732 135.567 26.3806 135.637 26.3916C135.663 26.3437 135.689 26.2958 135.714 26.248C135.796 26.0785 135.878 25.9164 135.963 25.7617C136.041 25.6033 136.116 25.4486 136.19 25.2976C136.212 25.257 136.23 25.211 136.245 25.1594C136.208 25.1115 136.17 25.06 136.129 25.0047L136.107 25.0213ZM132.508 22.1038C132.468 22.1554 132.427 22.2069 132.387 22.2585C132.346 22.3138 132.304 22.369 132.259 22.4243C132.153 22.4132 132.042 22.4022 131.928 22.3911C131.806 22.3764 131.69 22.3635 131.579 22.3525C131.513 22.2825 131.443 22.2125 131.369 22.1425C131.299 22.0762 131.231 22.0099 131.165 21.9436C131.216 21.892 131.263 21.8386 131.303 21.7833C131.344 21.7318 131.386 21.6802 131.43 21.6286C131.537 21.6397 131.649 21.6544 131.767 21.6728C131.878 21.6875 131.987 21.7023 132.094 21.717C132.16 21.7796 132.228 21.8441 132.298 21.9104C132.368 21.9767 132.438 22.043 132.508 22.1093V22.1038ZM135.471 25.06C135.416 25.1705 135.359 25.2791 135.3 25.386C135.237 25.4965 135.175 25.6088 135.112 25.723C134.946 25.7046 134.778 25.6862 134.609 25.6678C134.436 25.6494 134.262 25.6328 134.089 25.618C133.986 25.4818 133.881 25.3473 133.774 25.2147C133.664 25.0784 133.555 24.9439 133.448 24.8113C133.522 24.7008 133.592 24.5903 133.658 24.4798C133.728 24.373 133.794 24.268 133.857 24.1648C134.023 24.1832 134.191 24.2054 134.36 24.2311C134.519 24.2496 134.679 24.2698 134.841 24.2919C134.948 24.4208 135.055 24.5479 135.162 24.6732C135.265 24.8021 135.37 24.931 135.477 25.06H135.471Z" fill="white"/>
<path d="M128.799 31.1989C128.666 31.4254 128.661 31.4365 128.539 31.6409L128.323 32.0664C128.44 32.2708 128.666 32.7073 128.799 32.9339C128.928 33.1549 129.057 33.3759 129.186 33.5969C129.223 33.6632 129.261 33.7277 129.302 33.7903C129.376 33.7903 129.449 33.7903 129.523 33.7903C129.781 33.7903 130.037 33.7903 130.291 33.7903C130.546 33.7903 130.798 33.7867 131.049 33.7793C131.123 33.7793 131.196 33.7774 131.27 33.7738C131.307 33.7111 131.344 33.6467 131.381 33.5804C131.51 33.3593 131.637 33.1402 131.762 32.9228C131.887 32.7055 132.011 32.4863 132.132 32.2653C132.169 32.2027 132.204 32.14 132.237 32.0774C132.201 32.0111 132.166 31.9466 132.132 31.884C132.007 31.663 131.884 31.4438 131.762 31.2265C131.637 31.0055 131.51 30.7863 131.381 30.5689C131.344 30.5063 131.307 30.4419 131.27 30.3756C131.196 30.3756 131.124 30.3756 131.054 30.3756C130.804 30.3756 130.551 30.3737 130.297 30.37C130.039 30.37 129.783 30.3682 129.529 30.3645C129.455 30.3645 129.379 30.3645 129.302 30.3645C129.265 30.4271 129.226 30.4916 129.186 30.5579C129.057 30.7789 128.928 30.9999 128.799 31.221V31.1989ZM129.208 32.0664C129.3 31.908 129.392 31.7496 129.484 31.5912C129.577 31.4328 129.667 31.2762 129.755 31.1215C129.936 31.1215 130.118 31.1215 130.303 31.1215C130.483 31.1215 130.664 31.1215 130.844 31.1215C130.933 31.2799 131.023 31.4365 131.115 31.5912C131.204 31.7496 131.292 31.908 131.381 32.0664C131.292 32.2211 131.204 32.3776 131.115 32.536C131.027 32.6944 130.936 32.851 130.844 33.0057C130.664 33.0057 130.483 33.0057 130.303 33.0057C130.122 33.0057 129.94 33.0057 129.755 33.0057C129.663 32.851 129.573 32.6944 129.484 32.536C129.392 32.3776 129.3 32.2192 129.208 32.0608V32.0664Z" fill="white"/>
<path d="M130.314 25.5793C130.24 25.5425 130.166 25.5075 130.092 25.4743C129.886 25.3785 129.676 25.2809 129.462 25.1815C129.249 25.082 129.038 24.9862 128.832 24.8941C128.758 24.861 128.686 24.8278 128.616 24.7947C128.543 24.8241 128.473 24.8536 128.406 24.8831C128.2 24.9678 127.994 25.0544 127.787 25.1428C127.581 25.2312 127.373 25.3214 127.163 25.4135C127.085 25.4467 127.01 25.4798 126.936 25.513C126.936 25.5756 126.938 25.6401 126.941 25.7064C126.941 25.8943 126.941 26.084 126.941 26.2755C126.941 26.4708 126.941 26.666 126.941 26.8612C126.941 26.9312 126.941 26.9994 126.941 27.0657C127.019 27.1025 127.094 27.1375 127.168 27.1707C127.386 27.2738 127.603 27.3751 127.82 27.4746C128.038 27.5777 128.257 27.6809 128.478 27.784C128.552 27.8171 128.628 27.854 128.705 27.8945C128.779 27.8577 128.852 27.8227 128.926 27.7895C129.14 27.6937 129.35 27.5961 129.556 27.4967C129.556 27.4967 129.556 27.4967 129.562 27.4967C129.768 27.4009 129.975 27.3051 130.181 27.2093C130.255 27.1762 130.326 27.1449 130.397 27.1154C130.397 27.0454 130.395 26.9773 130.391 26.911C130.38 26.7157 130.369 26.5223 130.358 26.3308C130.347 26.1392 130.336 25.9514 130.325 25.7672C130.317 25.7009 130.314 25.6364 130.314 25.5738V25.5793ZM129.501 26.6899C129.365 26.7489 129.228 26.8097 129.092 26.8723C128.956 26.9349 128.819 26.9975 128.683 27.0601C128.543 26.9938 128.401 26.9275 128.257 26.8612C128.117 26.7949 127.979 26.7305 127.843 26.6678C127.839 26.5389 127.837 26.4118 127.837 26.2866C127.837 26.1613 127.837 26.0361 127.837 25.9108C127.97 25.8519 128.104 25.793 128.241 25.734C128.377 25.6751 128.511 25.6161 128.644 25.5572C128.784 25.6198 128.924 25.6843 129.064 25.7506C129.201 25.8132 129.337 25.8777 129.473 25.944C129.481 26.0692 129.486 26.1945 129.49 26.3197C129.494 26.445 129.499 26.5721 129.506 26.701L129.501 26.6899Z" fill="white"/>
<path d="M126.936 38.4317C126.936 38.498 126.934 38.5624 126.93 38.6251C127.004 38.6582 127.08 38.6895 127.157 38.719C127.371 38.8111 127.579 38.9013 127.782 38.9898C127.984 39.0782 128.191 39.1647 128.401 39.2495C128.467 39.2789 128.537 39.3084 128.611 39.3379C128.681 39.3047 128.753 39.2716 128.827 39.2384C129.037 39.1426 129.247 39.0469 129.457 38.9511C129.663 38.8553 129.873 38.7577 130.087 38.6582C130.161 38.6214 130.234 38.5864 130.308 38.5532C130.308 38.4906 130.312 38.4262 130.319 38.3598C130.33 38.172 130.341 37.9841 130.352 37.7962C130.363 37.6047 130.374 37.4113 130.385 37.2161C130.385 37.1498 130.387 37.0816 130.391 37.0116C130.317 36.9785 130.245 36.9471 130.175 36.9177C129.969 36.8219 129.761 36.728 129.551 36.6359C129.344 36.5364 129.134 36.4388 128.921 36.343C128.847 36.3099 128.773 36.2749 128.699 36.238C128.622 36.2749 128.545 36.3117 128.467 36.3485C128.253 36.4517 128.036 36.5548 127.815 36.658C127.597 36.7611 127.38 36.8624 127.163 36.9619C127.089 36.9987 127.013 37.0337 126.936 37.0669C126.936 37.1369 126.936 37.205 126.936 37.2713C126.936 37.4666 126.936 37.6618 126.936 37.857C126.936 38.0486 126.936 38.2383 126.936 38.4262V38.4317ZM127.826 38.2272C127.826 38.102 127.826 37.9767 127.826 37.8515C127.826 37.7263 127.828 37.5992 127.832 37.4702C127.972 37.4039 128.11 37.3395 128.246 37.2768C128.386 37.2105 128.528 37.1442 128.672 37.0779C128.812 37.1405 128.948 37.2032 129.081 37.2658C129.217 37.3284 129.354 37.3892 129.49 37.4481C129.483 37.5771 129.477 37.7041 129.473 37.8294C129.47 37.9546 129.464 38.0799 129.457 38.2051C129.32 38.2714 129.184 38.3359 129.048 38.3985C128.908 38.4648 128.768 38.5293 128.628 38.5919C128.495 38.533 128.36 38.474 128.224 38.4151C128.088 38.3562 127.953 38.2972 127.82 38.2383L127.826 38.2272Z" fill="white"/>
<path d="M136.085 41.5482C136.067 41.5813 136.044 41.6182 136.019 41.6587C136.056 41.6587 136.089 41.6587 136.118 41.6587C136.148 41.6587 136.234 41.6587 136.378 41.6587C136.455 41.6587 136.531 41.655 136.605 41.6476C136.63 41.6476 136.654 41.6458 136.677 41.6421C136.724 41.609 136.77 41.5777 136.815 41.5482C136.947 41.4561 137.078 41.3622 137.207 41.2664C137.336 41.1706 137.46 41.0767 137.578 40.9846C137.622 40.9477 137.666 40.9127 137.71 40.8796C137.732 40.8501 137.758 40.817 137.788 40.7801C137.858 40.6844 137.928 40.5886 137.998 40.4928C138.06 40.3933 138.127 40.2902 138.197 40.1834C138.219 40.1465 138.243 40.1079 138.269 40.0673C138.246 40.0637 138.226 40.06 138.208 40.0563C138.145 40.0452 138.079 40.0305 138.009 40.0121C137.928 40.001 137.848 39.9826 137.771 39.9568C137.742 39.9495 137.714 39.9403 137.688 39.9292C137.637 39.966 137.585 40.0047 137.533 40.0452C137.393 40.1447 137.248 40.246 137.097 40.3491C136.946 40.4486 136.794 40.5499 136.643 40.653C136.592 40.6862 136.538 40.7212 136.483 40.758C136.465 40.7986 136.446 40.8409 136.428 40.8851C136.372 41.003 136.317 41.119 136.262 41.2332C136.207 41.3437 136.15 41.4506 136.091 41.5537L136.085 41.5482ZM136.643 41.2609C136.688 41.1909 136.726 41.1227 136.759 41.0564C136.8 40.9827 136.839 40.9091 136.876 40.8354C136.975 40.7691 137.071 40.7046 137.163 40.642C137.259 40.572 137.353 40.5057 137.445 40.4431C137.5 40.4504 137.55 40.4615 137.594 40.4762C137.646 40.4799 137.692 40.4873 137.732 40.4983C137.692 40.5683 137.649 40.6383 137.605 40.7083C137.568 40.7709 137.526 40.8354 137.478 40.9017C137.393 40.9643 137.307 41.0288 137.218 41.0951C137.134 41.154 137.045 41.2167 136.953 41.283C136.909 41.283 136.859 41.283 136.804 41.283C136.756 41.2756 136.704 41.2719 136.649 41.2719L136.643 41.2609Z" fill="white"/>
<path d="M141.922 32.0773C141.922 32.022 141.924 31.9741 141.928 31.9336C141.932 31.7863 141.932 31.6444 141.928 31.5082C141.928 31.4639 141.928 31.4363 141.928 31.4087C141.939 31.6297 141.95 31.8507 141.95 32.0718C141.95 32.2928 141.939 32.5138 141.928 32.7348C141.928 32.7072 141.928 32.6796 141.928 32.6354C141.928 32.4991 141.928 32.3572 141.928 32.2099C141.928 32.1657 141.926 32.1233 141.922 32.0828V32.0773Z" fill="white"/>
<path d="M139.562 38.7521C139.555 38.7779 139.547 38.8056 139.54 38.835C139.533 38.8645 139.557 38.8461 139.612 38.7798C139.667 38.7135 139.743 38.6472 139.839 38.5808C139.934 38.5145 139.977 38.4648 139.966 38.4317C139.944 38.4685 139.922 38.5072 139.899 38.5477C140.22 38.0835 140.502 37.6028 140.751 37.1C140.795 37.0005 140.836 36.9029 140.872 36.8071C140.906 36.6966 140.935 36.5917 140.961 36.4922C140.968 36.459 140.976 36.424 140.983 36.3872C140.983 36.3872 140.961 36.4093 140.933 36.4259C140.871 36.4701 140.806 36.5125 140.74 36.553C140.659 36.6009 140.576 36.6469 140.491 36.6911C140.461 36.7095 140.434 36.7224 140.408 36.7298C140.379 36.7814 140.351 36.8311 140.325 36.879C140.226 37.0521 140.126 37.2252 140.027 37.3984C139.927 37.5605 139.824 37.7262 139.717 37.8957C139.684 37.9473 139.651 37.9988 139.618 38.0504C139.618 38.0799 139.618 38.113 139.618 38.1499C139.618 38.2567 139.614 38.3617 139.606 38.4648C139.592 38.5643 139.577 38.66 139.562 38.7521ZM139.916 38.288C139.927 38.2254 139.94 38.1572 139.955 38.0835C139.962 38.0099 139.971 37.9325 139.982 37.8515C140.052 37.7373 140.124 37.6212 140.198 37.5034C140.264 37.3892 140.331 37.275 140.397 37.1608C140.456 37.1276 140.511 37.0926 140.563 37.0558C140.614 37.019 140.662 36.9803 140.707 36.9398C140.688 37.0171 140.668 37.0945 140.646 37.1718C140.627 37.2381 140.605 37.3044 140.579 37.3708C140.52 37.4813 140.46 37.5899 140.397 37.6968C140.334 37.8036 140.27 37.9104 140.203 38.0172C140.159 38.0651 140.115 38.1093 140.071 38.1499C140.019 38.1941 139.966 38.2383 139.911 38.2825L139.916 38.288Z" fill="white"/>
<path d="M138.075 39.1778C138.285 39.0157 138.488 38.8555 138.683 38.6971C138.878 38.5387 139.066 38.3784 139.247 38.2163C139.288 38.1795 139.328 38.1427 139.369 38.1058C139.387 38.0579 139.404 38.0101 139.418 37.9622C139.488 37.7448 139.558 37.5238 139.628 37.2991C139.687 37.0744 139.746 36.846 139.805 36.6139C139.82 36.5587 139.833 36.5034 139.844 36.4482C139.815 36.4297 139.787 36.4113 139.761 36.3929C139.632 36.3082 139.498 36.2179 139.358 36.1222C139.24 36.0522 139.12 35.9785 138.998 35.9011C139.065 35.4223 139.124 34.9342 139.175 34.4369C139.385 34.2711 139.59 34.109 139.789 33.9506C139.977 33.7922 140.157 33.6338 140.33 33.4754C140.566 33.6854 140.782 33.888 140.977 34.0832C140.955 34.2711 140.929 34.459 140.9 34.6468C140.863 34.8863 140.822 35.1239 140.778 35.3596C140.771 35.4075 140.76 35.4609 140.745 35.5199C140.767 35.5346 140.786 35.553 140.8 35.5751C140.87 35.6525 140.935 35.7262 140.994 35.7962C141.038 35.8625 141.077 35.9269 141.11 35.9895C141.11 35.9895 141.121 36.0061 141.127 36.0227C141.145 35.9932 141.165 35.9582 141.187 35.9177C141.261 35.774 141.329 35.6304 141.392 35.4867C141.432 35.3799 141.471 35.2731 141.508 35.1662C141.635 34.7187 141.74 34.2601 141.812 33.7904C141.823 33.713 141.823 33.713 141.834 33.6246C141.841 33.5804 141.847 33.5325 141.851 33.481C141.851 33.481 141.851 33.4533 141.851 33.4312C141.851 33.3354 141.841 33.2434 141.823 33.1549C141.794 33.0592 141.759 32.9579 141.718 32.851C141.707 32.8253 141.696 32.7995 141.685 32.7737C141.67 32.8068 141.655 32.8363 141.641 32.8621C141.563 32.9947 141.482 33.1236 141.397 33.2489C141.324 33.352 141.246 33.4533 141.165 33.5528C140.977 33.3539 140.771 33.1476 140.546 32.9339C140.553 32.6503 140.559 32.3685 140.563 32.0885C140.563 31.7975 140.557 31.5102 140.546 31.2265C140.771 31.0092 140.977 30.8029 141.165 30.6077C141.246 30.7071 141.324 30.8084 141.397 30.9116C141.486 31.0405 141.567 31.1694 141.641 31.2984C141.655 31.3241 141.67 31.3536 141.685 31.3868C141.696 31.361 141.707 31.3352 141.718 31.3094C141.759 31.2063 141.794 31.105 141.823 31.0055C141.838 30.9171 141.847 30.825 141.851 30.7292C141.851 30.7292 141.851 30.7016 141.851 30.6795C141.843 30.6279 141.838 30.58 141.834 30.5358C141.823 30.4585 141.823 30.4585 141.812 30.3701C141.74 29.9059 141.635 29.4473 141.508 28.9942C141.471 28.8874 141.432 28.7806 141.392 28.6737C141.329 28.5264 141.261 28.3827 141.187 28.2427C141.165 28.2022 141.145 28.1672 141.127 28.1378C141.127 28.1378 141.115 28.1543 141.11 28.1709C141.077 28.2335 141.038 28.298 140.994 28.3643C140.939 28.4417 140.874 28.5153 140.8 28.5853C140.782 28.6074 140.764 28.624 140.745 28.6351C140.756 28.694 140.769 28.7511 140.784 28.8063C140.824 29.0347 140.863 29.2686 140.9 29.5081C140.926 29.696 140.951 29.8838 140.977 30.0717C140.782 30.2706 140.566 30.4732 140.33 30.6795C140.157 30.5211 139.977 30.3627 139.789 30.2043C139.59 30.0459 139.385 29.8838 139.175 29.7181C139.124 29.2244 139.065 28.7364 138.998 28.2538C139.12 28.1764 139.24 28.1028 139.358 28.0328C139.498 27.937 139.632 27.8486 139.761 27.7675C139.791 27.7491 139.818 27.7307 139.844 27.7123C139.833 27.657 139.82 27.6018 139.805 27.5465C139.746 27.3144 139.687 27.0861 139.628 26.8614C139.562 26.6366 139.492 26.4156 139.418 26.1983C139.404 26.1504 139.387 26.1025 139.369 26.0546C139.328 26.0178 139.288 25.981 139.247 25.9441C139.063 25.782 138.875 25.6218 138.683 25.4634C138.484 25.305 138.281 25.1448 138.075 24.9827C138.023 24.9458 137.976 24.9108 137.931 24.8777C137.898 24.8887 137.865 24.8998 137.832 24.9108C137.684 24.9661 137.528 25.0232 137.362 25.0821C137.189 25.1484 137.012 25.2184 136.831 25.2921C136.787 25.3105 136.741 25.3271 136.693 25.3418C136.708 25.3971 136.721 25.4523 136.732 25.5076C136.791 25.7581 136.842 26.0049 136.886 26.248C136.931 26.5022 136.977 26.7619 137.025 27.0271C137.036 27.0897 137.045 27.1505 137.052 27.2095C137.108 27.2426 137.165 27.2813 137.224 27.3255C137.467 27.4876 137.705 27.6497 137.937 27.8117C138.114 27.937 138.287 28.0586 138.456 28.1764C138.523 28.6774 138.58 29.1784 138.628 29.6794C138.414 29.812 138.195 29.9464 137.97 30.0827C137.734 30.2264 137.493 30.3719 137.246 30.5193C136.781 30.2319 136.302 29.9409 135.808 29.6462C135.794 29.4142 135.779 29.1858 135.764 28.9611C135.742 28.67 135.718 28.3809 135.692 28.0935C135.685 28.0272 135.678 27.9609 135.67 27.8946C135.608 27.8578 135.543 27.8191 135.477 27.7786C135.197 27.6165 134.915 27.4544 134.631 27.2923C134.34 27.1266 134.045 26.9627 133.747 26.8006C133.68 26.7674 133.614 26.7324 133.548 26.6956C133.485 26.7251 133.422 26.7527 133.36 26.7785C133.076 26.9 132.794 27.0271 132.514 27.1597C132.219 27.2887 131.924 27.4231 131.629 27.5631C131.556 27.5926 131.486 27.6257 131.419 27.6626C131.419 27.7289 131.423 27.7989 131.43 27.8725C131.441 28.1746 131.454 28.4803 131.469 28.7898C131.48 29.1029 131.489 29.416 131.497 29.7291C131.497 29.7991 131.497 29.8709 131.497 29.9446C131.57 29.9814 131.644 30.0201 131.718 30.0606C132.035 30.2227 132.348 30.3848 132.657 30.5469C132.967 30.7127 133.273 30.8747 133.575 31.0331C133.645 31.07 133.713 31.1068 133.78 31.1436C133.846 31.1105 133.914 31.0755 133.984 31.0387C134.272 30.8839 134.555 30.7329 134.836 30.5856C135.046 30.4714 135.254 30.359 135.46 30.2485C135.961 30.5395 136.448 30.8268 136.92 31.1105C136.927 31.4383 136.931 31.7643 136.931 32.0885C136.931 32.4127 136.927 32.735 136.92 33.0555C136.444 33.3391 135.958 33.6265 135.46 33.9175C135.254 33.807 135.046 33.6946 134.836 33.5804C134.555 33.4331 134.272 33.282 133.984 33.1273C133.918 33.0942 133.852 33.0592 133.785 33.0223C133.715 33.0592 133.645 33.096 133.575 33.1328C133.273 33.2912 132.967 33.4533 132.657 33.6191C132.344 33.7812 132.031 33.9433 131.718 34.1053C131.644 34.1459 131.57 34.1845 131.497 34.2214C131.497 34.295 131.497 34.3669 131.497 34.4369C131.489 34.75 131.48 35.0631 131.469 35.3762C131.458 35.6856 131.445 35.9914 131.43 36.2935C131.427 36.3634 131.423 36.4334 131.419 36.5034C131.489 36.5366 131.559 36.5697 131.629 36.6029C131.924 36.7429 132.219 36.8773 132.514 37.0062C132.794 37.1389 133.076 37.2659 133.36 37.3875C133.422 37.417 133.483 37.4464 133.542 37.4759C133.612 37.4354 133.68 37.3986 133.747 37.3654C134.041 37.2033 134.336 37.0412 134.631 36.8792C134.915 36.7171 135.197 36.555 135.477 36.3929C135.543 36.3524 135.608 36.3137 135.67 36.2769C135.678 36.2143 135.685 36.1479 135.692 36.078C135.718 35.7906 135.742 35.5015 135.764 35.2104C135.779 34.9857 135.794 34.7573 135.808 34.5253C136.299 34.2343 136.778 33.9433 137.246 33.6522C137.493 33.7996 137.734 33.9451 137.97 34.0888C138.195 34.2251 138.414 34.3595 138.628 34.4921C138.576 35.0005 138.519 35.5015 138.456 35.9951C138.287 36.1129 138.114 36.2364 137.937 36.3653C137.701 36.5237 137.461 36.6839 137.218 36.846C137.159 36.8865 137.102 36.9252 137.047 36.962C137.039 37.021 137.03 37.0818 137.019 37.1444C136.975 37.4059 136.929 37.6656 136.881 37.9235C136.829 38.174 136.778 38.4208 136.726 38.6639C136.711 38.7192 136.699 38.7744 136.687 38.8297C136.735 38.8444 136.781 38.861 136.826 38.8794C137.006 38.9531 137.183 39.0231 137.356 39.0894C137.515 39.152 137.671 39.2091 137.826 39.2607C137.859 39.2717 137.893 39.2828 137.926 39.2938C137.97 39.2607 138.018 39.2257 138.069 39.1888L138.075 39.1778ZM135.062 34.5474C135.051 34.7758 135.038 35.0042 135.024 35.2325C135.005 35.4609 134.988 35.6893 134.974 35.9177C134.753 36.043 134.53 36.1682 134.305 36.2935C134.08 36.415 133.852 36.5384 133.619 36.6637C133.402 36.5642 133.184 36.4647 132.967 36.3653C132.746 36.2585 132.523 36.1516 132.298 36.0448C132.309 35.8127 132.32 35.5788 132.331 35.3431C132.342 35.1036 132.352 34.8642 132.359 34.6247C132.599 34.4995 132.836 34.3742 133.072 34.249C133.308 34.1238 133.542 33.9985 133.774 33.8733C133.995 33.9911 134.215 34.1053 134.432 34.2158C134.646 34.3264 134.856 34.4369 135.062 34.5474ZM135.062 29.5965C134.852 29.7033 134.64 29.812 134.426 29.9225C134.209 30.033 133.99 30.1472 133.769 30.2651C133.536 30.1398 133.302 30.0146 133.067 29.8893C132.831 29.7641 132.593 29.6389 132.353 29.5136C132.346 29.2742 132.337 29.0347 132.326 28.7953C132.315 28.5595 132.304 28.3256 132.293 28.0935C132.517 27.9867 132.74 27.8799 132.962 27.7731C133.183 27.6736 133.402 27.5723 133.619 27.4692C133.848 27.5944 134.075 27.7178 134.299 27.8394C134.524 27.9646 134.747 28.0899 134.968 28.2151C134.987 28.4398 135.003 28.6682 135.018 28.9003C135.033 29.1287 135.046 29.3607 135.057 29.5965H135.062ZM141.082 29.0384C141.13 28.9758 141.174 28.9187 141.215 28.8671C141.244 28.8082 141.272 28.7529 141.298 28.7014C141.357 28.8119 141.414 28.9242 141.469 29.0384C141.513 29.1452 141.556 29.2521 141.596 29.3589C141.633 29.521 141.666 29.6775 141.696 29.8286C141.725 29.9907 141.753 30.1564 141.779 30.3259C141.768 30.3885 141.755 30.4548 141.74 30.5248C141.714 30.5948 141.685 30.6666 141.652 30.7403C141.596 30.6445 141.537 30.5432 141.475 30.4364C141.405 30.3259 141.331 30.2209 141.254 30.1214C141.228 29.9372 141.202 29.7549 141.176 29.5744C141.147 29.3902 141.115 29.2115 141.082 29.0384ZM141.082 35.1055C141.115 34.9323 141.147 34.7537 141.176 34.5695C141.202 34.3853 141.228 34.203 141.254 34.0225C141.327 33.923 141.401 33.818 141.475 33.7075C141.537 33.6044 141.596 33.5031 141.652 33.4036C141.685 33.4773 141.714 33.5491 141.74 33.6191C141.759 33.6891 141.771 33.7554 141.779 33.818C141.753 33.9875 141.725 34.1532 141.696 34.3153C141.666 34.4663 141.633 34.6229 141.596 34.785C141.556 34.8918 141.513 34.9986 141.469 35.1055C141.414 35.2197 141.357 35.332 141.298 35.4425C141.272 35.3909 141.244 35.3357 141.215 35.2768C141.174 35.2252 141.13 35.1681 141.082 35.1055ZM138.65 27.6681C138.48 27.5392 138.311 27.4121 138.141 27.2868C137.968 27.1689 137.791 27.0455 137.611 26.9166C137.574 26.7214 137.535 26.5261 137.495 26.3309C137.458 26.143 137.417 25.957 137.373 25.7728C137.506 25.7139 137.636 25.6549 137.765 25.596C137.765 25.596 137.771 25.6071 137.776 25.6071C137.898 25.5555 138.018 25.5058 138.136 25.4579C138.294 25.5757 138.455 25.6991 138.617 25.8281C138.768 25.946 138.919 26.0694 139.07 26.1983C139.118 26.3677 139.166 26.5409 139.214 26.7177C139.262 26.9019 139.308 27.0842 139.352 27.2647C139.249 27.331 139.138 27.3936 139.02 27.4526C138.902 27.5226 138.781 27.5963 138.655 27.6736L138.65 27.6681ZM138.954 33.8954C138.748 33.7517 138.534 33.608 138.313 33.4644C138.081 33.3207 137.845 33.1734 137.605 33.0223C137.612 32.7055 137.616 32.3887 137.616 32.0719C137.616 31.7478 137.612 31.4291 137.605 31.116C137.848 30.965 138.084 30.8176 138.313 30.674C138.534 30.5303 138.748 30.3866 138.954 30.243C139.171 30.4088 139.383 30.5708 139.59 30.7292C139.781 30.8839 139.967 31.0368 140.148 31.1879C140.155 31.4789 140.161 31.7736 140.165 32.0719C140.165 32.3629 140.159 32.6521 140.148 32.9394C139.967 33.0942 139.781 33.247 139.59 33.3981C139.383 33.5565 139.171 33.7185 138.954 33.8843V33.8954ZM138.13 38.6915C138.016 38.6436 137.896 38.5939 137.771 38.5423C137.771 38.5423 137.771 38.5423 137.765 38.5534C137.636 38.4981 137.506 38.4392 137.373 38.3766C137.417 38.1887 137.458 38.0027 137.495 37.8185C137.535 37.6196 137.574 37.4225 137.611 37.2273C137.791 37.0983 137.968 36.9749 138.141 36.8571C138.311 36.7318 138.48 36.6047 138.65 36.4758C138.772 36.5531 138.893 36.6268 139.015 36.6968C139.129 36.7558 139.24 36.8184 139.346 36.8847C139.302 37.0652 139.256 37.2475 139.208 37.4317C139.16 37.6085 139.112 37.7817 139.065 37.9511C138.913 38.08 138.762 38.2034 138.611 38.3213C138.449 38.4503 138.289 38.5737 138.13 38.6915Z" fill="white"/>
<path d="M141.934 31.4033C141.934 31.3591 141.934 31.3093 141.928 31.2651C141.928 31.3259 141.934 31.3591 141.934 31.4033Z" fill="white"/>
<path d="M140.933 27.7067C140.933 27.7067 140.955 27.7233 140.983 27.7454C140.975 27.7123 140.968 27.6773 140.96 27.6404C140.935 27.5373 140.905 27.4323 140.872 27.3255C140.839 27.2187 140.798 27.121 140.75 27.0326C140.502 26.5353 140.214 26.0491 139.899 25.5849C139.921 25.6218 139.945 25.6605 139.971 25.701C139.93 25.6531 139.888 25.6052 139.844 25.5573C139.774 25.491 139.702 25.4265 139.628 25.3639C139.599 25.3381 139.573 25.316 139.551 25.2976C139.558 25.3234 139.566 25.3492 139.573 25.375C139.588 25.4671 139.602 25.5628 139.617 25.6623C139.624 25.7654 139.628 25.8704 139.628 25.9772C139.628 26.0141 139.628 26.0472 139.628 26.0767C139.661 26.1283 139.695 26.1799 139.728 26.2314C139.835 26.4009 139.938 26.5666 140.037 26.7287C140.137 26.9019 140.236 27.075 140.336 27.2481C140.362 27.2923 140.389 27.3421 140.419 27.3973C140.444 27.4084 140.472 27.4213 140.502 27.436C140.59 27.4802 140.673 27.5262 140.75 27.5741C140.82 27.6146 140.885 27.6589 140.944 27.7067H140.933ZM140.706 27.1873C140.658 27.1468 140.61 27.1081 140.562 27.0713C140.507 27.0345 140.452 26.9995 140.397 26.9663C140.33 26.8521 140.264 26.7379 140.198 26.6237C140.124 26.5022 140.052 26.3861 139.982 26.2756C139.971 26.1946 139.962 26.1172 139.954 26.0436C139.94 25.9699 139.927 25.9017 139.916 25.8391C139.971 25.8833 140.024 25.9275 140.076 25.9717C140.12 26.0122 140.164 26.0564 140.209 26.1043C140.275 26.2112 140.339 26.318 140.402 26.4248C140.465 26.5316 140.526 26.6403 140.585 26.7508C140.61 26.8171 140.632 26.8834 140.651 26.9497C140.673 27.0271 140.693 27.1045 140.712 27.1818L140.706 27.1873Z" fill="white"/>
<path d="M138.197 24.082C138.219 24.0783 138.239 24.0746 138.258 24.0709L138.191 23.9549C138.125 23.848 138.059 23.7449 137.992 23.6454C137.926 23.546 137.856 23.4502 137.782 23.3581C137.753 23.3213 137.727 23.2881 137.705 23.2587C137.661 23.2218 137.616 23.1868 137.572 23.1537C137.454 23.0616 137.331 22.9676 137.202 22.8719C137.073 22.7761 136.942 22.6822 136.809 22.5901C136.761 22.5569 136.715 22.5238 136.671 22.4906C136.649 22.4906 136.625 22.4869 136.599 22.4796C136.525 22.4722 136.45 22.4685 136.373 22.4685C136.291 22.4685 136.205 22.4685 136.113 22.4685C136.083 22.4685 136.05 22.4685 136.013 22.4685C136.039 22.5053 136.061 22.5422 136.08 22.579C136.138 22.6858 136.196 22.7927 136.251 22.8995C136.31 23.0174 136.365 23.1334 136.417 23.2476C136.435 23.2881 136.454 23.3305 136.472 23.3747C136.524 23.4078 136.577 23.4428 136.632 23.4797C136.783 23.5791 136.935 23.6804 137.086 23.7836C137.233 23.8867 137.379 23.988 137.522 24.0875C137.574 24.1243 137.626 24.1612 137.677 24.198C137.707 24.1869 137.734 24.1777 137.76 24.1704C137.845 24.1556 137.924 24.1372 137.998 24.1151C138.068 24.1004 138.134 24.0856 138.197 24.0709V24.082ZM137.727 23.6454C137.686 23.6528 137.64 23.6602 137.589 23.6675C137.544 23.6786 137.495 23.6878 137.439 23.6952C137.351 23.6326 137.257 23.5662 137.158 23.4963C137.065 23.4336 136.97 23.3692 136.87 23.3029C136.833 23.2292 136.794 23.1555 136.754 23.0818C136.721 23.0155 136.682 22.9474 136.638 22.8774C136.693 22.8774 136.748 22.8774 136.804 22.8774C136.852 22.8737 136.898 22.87 136.942 22.8663C137.034 22.9327 137.122 22.9953 137.207 23.0542C137.299 23.1205 137.386 23.185 137.467 23.2476C137.515 23.3139 137.561 23.3821 137.605 23.4521C137.642 23.5147 137.681 23.581 137.721 23.651L137.727 23.6454Z" fill="white"/>
<path d="M141.934 32.7295C141.934 32.7737 141.934 32.8068 141.928 32.8676C141.928 32.8234 141.928 32.7737 141.934 32.7295Z" fill="white"/>
</g>
<g clip-path="url(#clip0_693_45953)">
<path d="M1.18854 62.1033V63.2581H3.7591V64.3411H1.18854V66.4408H0V61.0203H4.10737V62.1033H1.18854Z" fill="white"/>
<path d="M8.64598 64.7721H5.77137C5.88746 65.3081 6.25784 65.5844 6.78301 65.5844C7.17551 65.5844 7.46297 65.4628 7.7836 65.1589L8.4525 65.7556C8.06553 66.2364 7.51272 66.5292 6.76643 66.5292C5.52814 66.5292 4.61047 65.6562 4.61047 64.3853V64.3687C4.61047 63.1863 5.45074 62.2083 6.65034 62.2083C8.02683 62.2083 8.66256 63.2857 8.66256 64.4627V64.4792C8.66256 64.5953 8.65704 64.6671 8.64598 64.7721ZM6.65034 63.1531C6.16387 63.1531 5.84877 63.5012 5.75479 64.0372H7.51825C7.44638 63.5123 7.14234 63.1531 6.65034 63.1531Z" fill="white"/>
<path d="M10.9842 66.5125C10.4093 66.5125 9.76249 66.3191 9.21521 65.8881L9.71827 65.1146C10.166 65.4406 10.6359 65.6119 11.0174 65.6119C11.3546 65.6119 11.5094 65.4903 11.5094 65.3024V65.2858C11.5094 65.0317 11.1113 64.9433 10.6525 64.8051C10.0776 64.6338 9.41975 64.3631 9.41975 63.5619V63.5453C9.41975 62.6999 10.0997 62.2302 10.9289 62.2302C11.4541 62.2302 12.0235 62.407 12.4713 62.7109L12.0235 63.5232C11.6144 63.2856 11.2053 63.1364 10.9068 63.1364C10.6249 63.1364 10.4756 63.258 10.4756 63.4237V63.4403C10.4756 63.6724 10.8681 63.7829 11.3159 63.9376C11.8908 64.131 12.5652 64.4073 12.5652 65.1698V65.1864C12.5652 66.1092 11.8798 66.5236 10.9842 66.5236V66.5125Z" fill="white"/>
<path d="M14.7158 66.5071C13.9971 66.5071 13.5162 66.2198 13.5162 65.2639V63.2968H13.0242V62.2911H13.5162V61.2302H14.6881V62.2911H15.6611V63.2968H14.6881V65.0705C14.6881 65.3412 14.8042 65.4738 15.064 65.4738C15.2796 65.4738 15.4731 65.4186 15.639 65.3246V66.2695C15.3902 66.4187 15.1083 66.5071 14.7158 66.5071Z" fill="white"/>
<path d="M16.5398 61.8324V60.7881H17.7726V61.8324H16.5398ZM16.573 66.4352V62.291H17.7449V66.4407H16.573V66.4352Z" fill="white"/>
<path d="M21.1616 66.4683H20.1002L18.475 62.291H19.7133L20.6365 65.0704L21.5707 62.291H22.7869L21.1616 66.4683Z" fill="white"/>
<path d="M25.689 66.4352V65.9876C25.407 66.3026 25.009 66.5125 24.4396 66.5125C23.6601 66.5125 23.0244 66.065 23.0244 65.2417V65.2251C23.0244 64.3189 23.7099 63.9045 24.6884 63.9045C25.103 63.9045 25.407 63.9763 25.7 64.0758V64.0039C25.7 63.5177 25.4015 63.2469 24.8155 63.2469C24.3677 63.2469 24.0526 63.3298 23.6767 63.4735L23.3837 62.5784C23.837 62.3794 24.2848 62.2468 24.9869 62.2468C26.2639 62.2468 26.8277 62.9099 26.8277 64.0371V66.4462H25.6945L25.689 66.4352ZM25.7111 64.7609C25.5121 64.667 25.2467 64.6062 24.9648 64.6062C24.4617 64.6062 24.1577 64.8052 24.1577 65.1809V65.1975C24.1577 65.5124 24.4175 65.7003 24.7989 65.7003C25.3462 65.7003 25.7166 65.3964 25.7166 64.9709V64.7609H25.7111Z" fill="white"/>
<path d="M27.8834 66.4352V60.7881H29.0554V66.4352H27.8834Z" fill="white"/>
<path d="M32.5934 66.4353V61.0203H36.6621V62.0812H33.7764V63.1807H36.3193V64.2417H33.7764V65.3799H36.7008V66.4408H32.5934V66.4353Z" fill="white"/>
<path d="M40.2829 66.4352L39.2049 64.7388L38.7959 65.1698V66.4297H37.6239V60.7881H38.7959V63.7995L40.1668 62.291H41.571L40.001 63.9266L41.6262 66.4407H40.2884L40.2829 66.4352Z" fill="white"/>
<path d="M44.0199 66.5292C42.7429 66.5292 41.7921 65.5788 41.7921 64.3853V64.3687C41.7921 63.1752 42.7485 62.2083 44.031 62.2083C45.3135 62.2083 46.2588 63.1586 46.2588 64.3522V64.3687C46.2588 65.5623 45.3025 66.5292 44.0199 66.5292ZM45.1034 64.3687C45.1034 63.7554 44.6667 63.225 44.0199 63.225C43.3731 63.225 42.9475 63.7444 42.9475 64.3577V64.3743C42.9475 64.9876 43.3842 65.518 44.031 65.518C44.6778 65.518 45.1034 64.9986 45.1034 64.3908V64.3743V64.3687Z" fill="white"/>
<path d="M49.7196 66.4353V64.1201C49.7196 63.562 49.4598 63.2747 49.012 63.2747C48.5642 63.2747 48.2823 63.562 48.2823 64.1201V66.4353H47.1104V62.2911H48.2823V62.8768C48.5532 62.5287 48.9015 62.2083 49.493 62.2083C50.3775 62.2083 50.8971 62.794 50.8971 63.7499V66.4353H49.7251H49.7196Z" fill="white"/>
<path d="M53.9318 66.5292C52.6548 66.5292 51.704 65.5788 51.704 64.3853V64.3687C51.704 63.1752 52.6603 62.2083 53.9429 62.2083C55.2254 62.2083 56.1707 63.1586 56.1707 64.3522V64.3687C56.1707 65.5623 55.2143 66.5292 53.9318 66.5292ZM55.0153 64.3687C55.0153 63.7554 54.5786 63.225 53.9318 63.225C53.285 63.225 52.8594 63.7444 52.8594 64.3577V64.3743C52.8594 64.9876 53.2961 65.518 53.9429 65.518C54.5896 65.518 55.0153 64.9986 55.0153 64.3908V64.3743V64.3687Z" fill="white"/>
<path d="M62.1464 66.4353V64.1201C62.1464 63.562 61.8977 63.2747 61.4609 63.2747C61.0242 63.2747 60.7533 63.562 60.7533 64.1201V66.4353H59.5814V64.1201C59.5814 63.562 59.3326 63.2747 58.8959 63.2747C58.4592 63.2747 58.1883 63.562 58.1883 64.1201V66.4353H57.0164V62.2911H58.1883V62.8768C58.4592 62.5287 58.813 62.2083 59.4045 62.2083C59.9462 62.2083 60.3498 62.4459 60.5654 62.8658C60.9247 62.4403 61.3559 62.2083 61.9198 62.2083C62.7877 62.2083 63.3129 62.7332 63.3129 63.7333V66.4353H62.1409H62.1464Z" fill="white"/>
<path d="M64.3582 61.8324V60.7881H65.5909V61.8324H64.3582ZM64.3913 66.4352V62.291H65.5633V66.4407H64.3913V66.4352Z" fill="white"/>
<path d="M72.5782 66.4352L70.9087 64.1311L70.284 64.7831V66.4407H69.0955V61.0202H70.284V63.3851L72.4731 61.0146H73.9049L71.7102 63.3133L74.0044 66.4352H72.5782Z" fill="white"/>
<path d="M78.1949 64.7721H75.3203C75.4364 65.3081 75.8068 65.5844 76.332 65.5844C76.7245 65.5844 77.0119 65.4628 77.3326 65.1589L78.0015 65.7556C77.6145 66.2364 77.0617 66.5292 76.3154 66.5292C75.0771 66.5292 74.1594 65.6562 74.1594 64.3853V64.3687C74.1594 63.1863 74.9997 62.2083 76.1993 62.2083C77.5758 62.2083 78.2115 63.2857 78.2115 64.4627V64.4792C78.2115 64.5953 78.206 64.6671 78.1949 64.7721ZM76.1993 63.1531C75.7128 63.1531 75.3977 63.5012 75.3037 64.0372H77.0672C76.9953 63.5123 76.6913 63.1531 76.1993 63.1531Z" fill="white"/>
<path d="M81.661 66.4352V65.8495C81.3902 66.1976 81.0474 66.5125 80.4504 66.5125C79.5659 66.5125 79.0463 65.9268 79.0463 64.9709V62.291H80.2182V64.6007C80.2182 65.1588 80.478 65.4461 80.9258 65.4461C81.3736 65.4461 81.6555 65.1588 81.6555 64.6007V62.291H82.8275V66.4407H81.6555L81.661 66.4352Z" fill="white"/>
<path d="M86.2989 66.4352V65.9876C86.017 66.3026 85.619 66.5125 85.0496 66.5125C84.2701 66.5125 83.6344 66.065 83.6344 65.2417V65.2251C83.6344 64.3189 84.3199 63.9045 85.2984 63.9045C85.713 63.9045 86.017 63.9763 86.31 64.0758V64.0039C86.31 63.5177 86.0115 63.2469 85.4255 63.2469C84.9777 63.2469 84.6626 63.3298 84.2867 63.4735L83.9937 62.5784C84.447 62.3794 84.8948 62.2468 85.5969 62.2468C86.8739 62.2468 87.4377 62.9099 87.4377 64.0371V66.4462H86.3045L86.2989 66.4352ZM86.3211 64.7609C86.122 64.667 85.8567 64.6062 85.5748 64.6062C85.0717 64.6062 84.7677 64.8052 84.7677 65.1809V65.1975C84.7677 65.5124 85.0275 65.7003 85.4089 65.7003C85.9562 65.7003 86.3266 65.3964 86.3266 64.9709V64.7609H86.3211Z" fill="white"/>
<path d="M91.053 66.4353V64.1201C91.053 63.562 90.7932 63.2747 90.3454 63.2747C89.8976 63.2747 89.6157 63.562 89.6157 64.1201V66.4353H88.4437V62.2911H89.6157V62.8768C89.8866 62.5287 90.2348 62.2083 90.8263 62.2083C91.7108 62.2083 92.2305 62.794 92.2305 63.7499V66.4353H91.0585H91.053Z" fill="white"/>
<path d="M95.0831 67.6894C94.4142 67.6894 93.784 67.5347 93.2588 67.2529L93.6568 66.3688C94.0825 66.6064 94.5026 66.7501 95.0499 66.7501C95.8515 66.7501 96.2274 66.3633 96.2274 65.6229V65.424C95.8791 65.8439 95.5032 66.0981 94.8785 66.0981C93.9167 66.0981 93.0432 65.3963 93.0432 64.1641V64.1476C93.0432 62.9098 93.9277 62.2136 94.8785 62.2136C95.5198 62.2136 95.8957 62.4844 96.2108 62.8325V62.291H97.3828V65.5013C97.3828 67.065 96.6144 67.6894 95.0776 67.6894H95.0831ZM96.2329 64.142C96.2329 63.5784 95.7962 63.1806 95.2268 63.1806C94.6574 63.1806 94.2262 63.5729 94.2262 64.142V64.1586C94.2262 64.7333 94.6574 65.1201 95.2268 65.1201C95.7962 65.1201 96.2329 64.7277 96.2329 64.1586V64.142Z" fill="white"/>
<path d="M100.854 66.4352V65.9876C100.572 66.3026 100.174 66.5125 99.6049 66.5125C98.8254 66.5125 98.1897 66.065 98.1897 65.2417V65.2251C98.1897 64.3189 98.8752 63.9045 99.8537 63.9045C100.268 63.9045 100.572 63.9763 100.865 64.0758V64.0039C100.865 63.5177 100.567 63.2469 99.9808 63.2469C99.533 63.2469 99.2179 63.3298 98.842 63.4735L98.549 62.5784C99.0023 62.3794 99.4501 62.2468 100.152 62.2468C101.429 62.2468 101.993 62.9099 101.993 64.0371V66.4462H100.86L100.854 66.4352ZM100.876 64.7609C100.677 64.667 100.412 64.6062 100.13 64.6062C99.627 64.6062 99.323 64.8052 99.323 65.1809V65.1975C99.323 65.5124 99.5828 65.7003 99.9642 65.7003C100.511 65.7003 100.882 65.3964 100.882 64.9709V64.7609H100.876Z" fill="white"/>
<path d="M105.609 66.4353V64.1201C105.609 63.562 105.349 63.2747 104.901 63.2747C104.453 63.2747 104.171 63.562 104.171 64.1201V66.4353H102.999V62.2911H104.171V62.8768C104.442 62.5287 104.79 62.2083 105.382 62.2083C106.266 62.2083 106.786 62.794 106.786 63.7499V66.4353H105.614H105.609Z" fill="white"/>
<path d="M112.331 66.4353H110.23V61.0203H112.331C114.022 61.0203 115.194 62.1917 115.194 63.7167V63.7333C115.194 65.2584 114.022 66.4408 112.331 66.4408V66.4353ZM113.956 63.7278C113.956 62.7663 113.304 62.0922 112.331 62.0922H111.413V65.3578H112.331C113.298 65.3578 113.956 64.7003 113.956 63.7388V63.7223V63.7278Z" fill="white"/>
<path d="M116.151 61.8324V60.7881H117.384V61.8324H116.151ZM116.184 66.4352V62.291H117.356V66.4407H116.184V66.4352Z" fill="white"/>
<path d="M120.302 67.6894C119.633 67.6894 119.003 67.5347 118.478 67.2529L118.876 66.3688C119.301 66.6064 119.722 66.7501 120.269 66.7501C121.07 66.7501 121.446 66.3633 121.446 65.6229V65.424C121.098 65.8439 120.722 66.0981 120.098 66.0981C119.136 66.0981 118.262 65.3963 118.262 64.1641V64.1476C118.262 62.9098 119.147 62.2136 120.098 62.2136C120.739 62.2136 121.115 62.4844 121.43 62.8325V62.291H122.602V65.5013C122.602 67.065 121.833 67.6894 120.297 67.6894H120.302ZM121.452 64.142C121.452 63.5784 121.015 63.1806 120.446 63.1806C119.876 63.1806 119.445 63.5729 119.445 64.142V64.1586C119.445 64.7333 119.876 65.1201 120.446 65.1201C121.015 65.1201 121.452 64.7277 121.452 64.1586V64.142Z" fill="white"/>
<path d="M123.674 61.8324V60.7881H124.907V61.8324H123.674ZM123.708 66.4352V62.291H124.88V66.4407H123.708V66.4352Z" fill="white"/>
<path d="M127.367 66.5071C126.648 66.5071 126.168 66.2198 126.168 65.2639V63.2968H125.676V62.2911H126.168V61.2302H127.339V62.2911H128.312V63.2968H127.339V65.0705C127.339 65.3412 127.456 65.4738 127.715 65.4738C127.931 65.4738 128.124 65.4186 128.29 65.3246V66.2695C128.042 66.4187 127.76 66.5071 127.367 66.5071Z" fill="white"/>
<path d="M131.591 66.4352V65.9876C131.309 66.3026 130.911 66.5125 130.341 66.5125C129.562 66.5125 128.926 66.065 128.926 65.2417V65.2251C128.926 64.3189 129.612 63.9045 130.59 63.9045C131.005 63.9045 131.309 63.9763 131.602 64.0758V64.0039C131.602 63.5177 131.303 63.2469 130.717 63.2469C130.269 63.2469 129.954 63.3298 129.578 63.4735L129.285 62.5784C129.739 62.3794 130.187 62.2468 130.889 62.2468C132.166 62.2468 132.729 62.9099 132.729 64.0371V66.4462H131.596L131.591 66.4352ZM131.613 64.7609C131.414 64.667 131.148 64.6062 130.867 64.6062C130.363 64.6062 130.059 64.8052 130.059 65.1809V65.1975C130.059 65.5124 130.319 65.7003 130.701 65.7003C131.248 65.7003 131.618 65.3964 131.618 64.9709V64.7609H131.613Z" fill="white"/>
<path d="M133.785 66.4352V60.7881H134.957V66.4352H133.785Z" fill="white"/>
<path d="M141.348 66.4352V65.8384C141.06 66.2252 140.668 66.5125 140.06 66.5125C139.098 66.5125 138.18 65.7555 138.18 64.3686V64.3521C138.18 62.9651 139.081 62.2081 140.06 62.2081C140.684 62.2081 141.071 62.4955 141.348 62.827V60.7881H142.52V66.4352H141.348ZM141.364 64.3521C141.364 63.6614 140.911 63.2083 140.364 63.2083C139.816 63.2083 139.352 63.6558 139.352 64.3521V64.3686C139.352 65.0593 139.816 65.5124 140.364 65.5124C140.911 65.5124 141.364 65.0538 141.364 64.3686V64.3521Z" fill="white"/>
<path d="M145.98 66.4352V65.9876C145.698 66.3026 145.3 66.5125 144.731 66.5125C143.951 66.5125 143.315 66.065 143.315 65.2417V65.2251C143.315 64.3189 144.001 63.9045 144.979 63.9045C145.394 63.9045 145.698 63.9763 145.991 64.0758V64.0039C145.991 63.5177 145.693 63.2469 145.107 63.2469C144.659 63.2469 144.344 63.3298 143.968 63.4735L143.675 62.5784C144.128 62.3794 144.576 62.2468 145.278 62.2468C146.555 62.2468 147.119 62.9099 147.119 64.0371V66.4462H145.985L145.98 66.4352ZM146.002 64.7609C145.803 64.667 145.538 64.6062 145.256 64.6062C144.753 64.6062 144.449 64.8052 144.449 65.1809V65.1975C144.449 65.5124 144.709 65.7003 145.09 65.7003C145.637 65.7003 146.008 65.3964 146.008 64.9709V64.7609H146.002Z" fill="white"/>
<path d="M150.734 66.4353V64.1201C150.734 63.562 150.474 63.2747 150.026 63.2747C149.579 63.2747 149.297 63.562 149.297 64.1201V66.4353H148.125V62.2911H149.297V62.8768C149.568 62.5287 149.916 62.2083 150.507 62.2083C151.392 62.2083 151.911 62.794 151.911 63.7499V66.4353H150.74H150.734Z" fill="white"/>
<path d="M158.833 66.4352L157.164 64.1311L156.539 64.7831V66.4407H155.35V61.0202H156.539V63.3851L158.728 61.0146H160.16L157.965 63.3133L160.259 66.4352H158.833Z" fill="white"/>
<path d="M163.195 66.4352V65.9876C162.913 66.3026 162.515 66.5125 161.945 66.5125C161.166 66.5125 160.53 66.065 160.53 65.2417V65.2251C160.53 64.3189 161.216 63.9045 162.194 63.9045C162.609 63.9045 162.913 63.9763 163.206 64.0758V64.0039C163.206 63.5177 162.907 63.2469 162.321 63.2469C161.874 63.2469 161.558 63.3298 161.183 63.4735L160.89 62.5784C161.343 62.3794 161.791 62.2468 162.493 62.2468C163.77 62.2468 164.334 62.9099 164.334 64.0371V66.4462H163.2L163.195 66.4352ZM163.217 64.7609C163.018 64.667 162.753 64.6062 162.471 64.6062C161.968 64.6062 161.664 64.8052 161.664 65.1809V65.1975C161.664 65.5124 161.923 65.7003 162.305 65.7003C162.852 65.7003 163.222 65.3964 163.222 64.9709V64.7609H163.217Z" fill="white"/>
<path d="M167.761 63.4404C166.981 63.4404 166.506 63.9101 166.506 64.9047V66.4352H165.334V62.2911H166.506V63.1254C166.744 62.5508 167.131 62.1806 167.822 62.2137V63.4459H167.761V63.4404Z" fill="white"/>
<path d="M170.896 66.5347C170.58 67.3801 170.243 67.6951 169.541 67.6951C169.115 67.6951 168.8 67.5845 168.502 67.4077L168.894 66.5568C169.049 66.6507 169.243 66.717 169.397 66.717C169.596 66.717 169.707 66.6563 169.807 66.4463L168.187 62.28H169.425L170.365 65.1036L171.266 62.28H172.482L170.896 66.5292V66.5347Z" fill="white"/>
<path d="M175.401 66.4352V65.9876C175.119 66.3026 174.721 66.5125 174.151 66.5125C173.372 66.5125 172.736 66.065 172.736 65.2417V65.2251C172.736 64.3189 173.422 63.9045 174.4 63.9045C174.815 63.9045 175.119 63.9763 175.412 64.0758V64.0039C175.412 63.5177 175.113 63.2469 174.527 63.2469C174.08 63.2469 173.764 63.3298 173.389 63.4735L173.096 62.5784C173.549 62.3794 173.997 62.2468 174.699 62.2468C175.976 62.2468 176.54 62.9099 176.54 64.0371V66.4462H175.406L175.401 66.4352ZM175.423 64.7609C175.224 64.667 174.959 64.6062 174.677 64.6062C174.174 64.6062 173.869 64.8052 173.869 65.1809V65.1975C173.869 65.5124 174.129 65.7003 174.511 65.7003C175.058 65.7003 175.428 65.3964 175.428 64.9709V64.7609H175.423Z" fill="white"/>
<path d="M183.455 66.4352L181.786 64.1311L181.161 64.7831V66.4407H179.972V61.0202H181.161V63.3851L183.35 61.0146H184.782L182.587 63.3133L184.881 66.4352H183.455Z" fill="white"/>
<path d="M187.899 63.4404C187.12 63.4404 186.644 63.9101 186.644 64.9047V66.4352H185.473V62.2911H186.644V63.1254C186.882 62.5508 187.269 62.1806 187.96 62.2137V63.4459H187.899V63.4404Z" fill="white"/>
<path d="M192.41 64.7721H189.536C189.652 65.3081 190.022 65.5844 190.548 65.5844C190.94 65.5844 191.227 65.4628 191.548 65.1589L192.217 65.7556C191.83 66.2364 191.277 66.5292 190.531 66.5292C189.293 66.5292 188.375 65.6562 188.375 64.3853V64.3687C188.375 63.1863 189.215 62.2083 190.415 62.2083C191.791 62.2083 192.427 63.2857 192.427 64.4627V64.4792C192.427 64.5953 192.422 64.6671 192.41 64.7721ZM190.415 63.1531C189.928 63.1531 189.613 63.5012 189.519 64.0372H191.283C191.211 63.5123 190.907 63.1531 190.415 63.1531Z" fill="white"/>
<path d="M195.716 66.4352V65.9876C195.434 66.3026 195.036 66.5125 194.467 66.5125C193.687 66.5125 193.052 66.065 193.052 65.2417V65.2251C193.052 64.3189 193.737 63.9045 194.716 63.9045C195.13 63.9045 195.434 63.9763 195.727 64.0758V64.0039C195.727 63.5177 195.429 63.2469 194.843 63.2469C194.395 63.2469 194.08 63.3298 193.704 63.4735L193.411 62.5784C193.864 62.3794 194.312 62.2468 195.014 62.2468C196.291 62.2468 196.855 62.9099 196.855 64.0371V66.4462H195.722L195.716 66.4352ZM195.738 64.7609C195.539 64.667 195.274 64.6062 194.992 64.6062C194.489 64.6062 194.185 64.8052 194.185 65.1809V65.1975C194.185 65.5124 194.445 65.7003 194.826 65.7003C195.374 65.7003 195.744 65.3964 195.744 64.9709V64.7609H195.738Z" fill="white"/>
<path d="M199.21 66.5071C198.492 66.5071 198.011 66.2198 198.011 65.2639V63.2968H197.519V62.2911H198.011V61.2302H199.183V62.2911H200.156V63.2968H199.183V65.0705C199.183 65.3412 199.299 65.4738 199.559 65.4738C199.774 65.4738 199.968 65.4186 200.134 65.3246V66.2695C199.885 66.4187 199.603 66.5071 199.21 66.5071Z" fill="white"/>
<path d="M201.04 61.8324V60.7881H202.273V61.8324H201.04ZM201.073 66.4352V62.291H202.245V66.4407H201.073V66.4352Z" fill="white"/>
<path d="M205.12 61.722C204.849 61.722 204.694 61.8601 204.694 62.1696V62.3298H205.64V63.2912H204.705V66.4353H203.533V63.2968H203.047V62.3298H203.533V62.0646C203.533 61.1529 203.987 60.7329 204.81 60.7329C205.181 60.7329 205.424 60.7771 205.64 60.8489V61.8214C205.468 61.7607 205.308 61.722 205.109 61.722H205.12Z" fill="white"/>
<path d="M208.768 66.4353V61.0203H209.957V66.4353H208.768Z" fill="white"/>
<path d="M213.793 66.4353V64.1201C213.793 63.562 213.534 63.2747 213.086 63.2747C212.638 63.2747 212.356 63.562 212.356 64.1201V66.4353H211.184V62.2911H212.356V62.8768C212.627 62.5287 212.975 62.2083 213.567 62.2083C214.451 62.2083 214.971 62.794 214.971 63.7499V66.4353H213.799H213.793Z" fill="white"/>
<path d="M218.956 66.4352V65.8384C218.669 66.2252 218.276 66.5125 217.668 66.5125C216.706 66.5125 215.789 65.7555 215.789 64.3686V64.3521C215.789 62.9651 216.69 62.2081 217.668 62.2081C218.293 62.2081 218.68 62.4955 218.956 62.827V60.7881H220.128V66.4352H218.956ZM218.973 64.3521C218.973 63.6614 218.52 63.2083 217.972 63.2083C217.425 63.2083 216.961 63.6558 216.961 64.3521V64.3686C216.961 65.0593 217.425 65.5124 217.972 65.5124C218.52 65.5124 218.973 65.0538 218.973 64.3686V64.3521Z" fill="white"/>
<path d="M223.202 66.5292C221.925 66.5292 220.974 65.5788 220.974 64.3853V64.3687C220.974 63.1752 221.931 62.2083 223.213 62.2083C224.496 62.2083 225.441 63.1586 225.441 64.3522V64.3687C225.441 65.5623 224.485 66.5292 223.202 66.5292ZM224.286 64.3687C224.286 63.7554 223.849 63.225 223.202 63.225C222.555 63.225 222.13 63.7444 222.13 64.3577V64.3743C222.13 64.9876 222.566 65.518 223.213 65.518C223.86 65.518 224.286 64.9986 224.286 64.3908V64.3743V64.3687Z" fill="white"/>
<path d="M228.901 66.4353V64.1201C228.901 63.562 228.642 63.2747 228.194 63.2747C227.746 63.2747 227.464 63.562 227.464 64.1201V66.4353H226.292V62.2911H227.464V62.8768C227.735 62.5287 228.083 62.2083 228.675 62.2083C229.559 62.2083 230.079 62.794 230.079 63.7499V66.4353H228.907H228.901Z" fill="white"/>
<path d="M234.922 64.7721H232.047C232.163 65.3081 232.533 65.5844 233.059 65.5844C233.451 65.5844 233.739 65.4628 234.059 65.1589L234.728 65.7556C234.341 66.2364 233.788 66.5292 233.042 66.5292C231.804 66.5292 230.886 65.6562 230.886 64.3853V64.3687C230.886 63.1863 231.726 62.2083 232.926 62.2083C234.302 62.2083 234.938 63.2857 234.938 64.4627V64.4792C234.938 64.5953 234.933 64.6671 234.922 64.7721ZM232.926 63.1531C232.44 63.1531 232.124 63.5012 232.03 64.0372H233.794C233.722 63.5123 233.418 63.1531 232.926 63.1531Z" fill="white"/>
<path d="M237.254 66.5125C236.679 66.5125 236.033 66.3191 235.485 65.8881L235.988 65.1146C236.436 65.4406 236.906 65.6119 237.287 65.6119C237.625 65.6119 237.779 65.4903 237.779 65.3024V65.2858C237.779 65.0317 237.381 64.9433 236.923 64.8051C236.348 64.6338 235.69 64.3631 235.69 63.5619V63.5453C235.69 62.6999 236.37 62.2302 237.199 62.2302C237.724 62.2302 238.293 62.407 238.741 62.7109L238.293 63.5232C237.884 63.2856 237.475 63.1364 237.177 63.1364C236.895 63.1364 236.746 63.258 236.746 63.4237V63.4403C236.746 63.6724 237.138 63.7829 237.586 63.9376C238.161 64.131 238.835 64.4073 238.835 65.1698V65.1864C238.835 66.1092 238.15 66.5236 237.254 66.5236V66.5125Z" fill="white"/>
<path d="M239.698 61.8324V60.7881H240.93V61.8324H239.698ZM239.731 66.4352V62.291H240.903V66.4407H239.731V66.4352Z" fill="white"/>
<path d="M244.419 66.4352V65.9876C244.137 66.3026 243.739 66.5125 243.17 66.5125C242.39 66.5125 241.754 66.065 241.754 65.2417V65.2251C241.754 64.3189 242.44 63.9045 243.418 63.9045C243.833 63.9045 244.137 63.9763 244.43 64.0758V64.0039C244.43 63.5177 244.131 63.2469 243.545 63.2469C243.098 63.2469 242.783 63.3298 242.407 63.4735L242.114 62.5784C242.567 62.3794 243.015 62.2468 243.717 62.2468C244.994 62.2468 245.558 62.9099 245.558 64.0371V66.4462H244.424L244.419 66.4352ZM244.441 64.7609C244.242 64.667 243.977 64.6062 243.695 64.6062C243.192 64.6062 242.888 64.8052 242.888 65.1809V65.1975C242.888 65.5124 243.147 65.7003 243.529 65.7003C244.076 65.7003 244.447 65.3964 244.447 64.9709V64.7609H244.441Z" fill="white"/>
</g>
<defs>
<linearGradient id="paint0_linear_693_45953" x1="34.5397" y1="55.793" x2="93.1669" y2="19.9026" gradientUnits="userSpaceOnUse">
<stop stop-color="#CD6F24"/>
<stop offset="0.04" stop-color="#AE561E"/>
<stop offset="0.08" stop-color="#97431A"/>
<stop offset="0.12" stop-color="#8A3817"/>
<stop offset="0.15" stop-color="#863517"/>
<stop offset="0.4" stop-color="#E7B343"/>
<stop offset="0.54" stop-color="#FDE892"/>
<stop offset="0.57" stop-color="#F8DC81"/>
<stop offset="0.6" stop-color="#F1CB67"/>
<stop offset="0.63" stop-color="#E4B75A"/>
<stop offset="0.68" stop-color="#C4863A"/>
<stop offset="0.71" stop-color="#BB7931"/>
<stop offset="0.73" stop-color="#B8742E"/>
<stop offset="0.74" stop-color="#AF6D2C"/>
<stop offset="0.78" stop-color="#A36429"/>
<stop offset="0.81" stop-color="#A06229"/>
<stop offset="0.83" stop-color="#A6682C"/>
<stop offset="0.87" stop-color="#B87936"/>
<stop offset="0.91" stop-color="#DD9E4B"/>
<stop offset="0.99" stop-color="#8C5E25"/>
<stop offset="1" stop-color="#8C5E25"/>
</linearGradient>
<linearGradient id="paint1_linear_693_45953" x1="167.927" y1="58.7381" x2="130.248" y2="5.20684" gradientUnits="userSpaceOnUse">
<stop stop-color="#CD6F24"/>
<stop offset="0.04" stop-color="#AE561E"/>
<stop offset="0.08" stop-color="#97431A"/>
<stop offset="0.12" stop-color="#8A3817"/>
<stop offset="0.15" stop-color="#863517"/>
<stop offset="0.4" stop-color="#E7B343"/>
<stop offset="0.54" stop-color="#FDE892"/>
<stop offset="0.57" stop-color="#F8DC81"/>
<stop offset="0.6" stop-color="#F1CB67"/>
<stop offset="0.63" stop-color="#E4B75A"/>
<stop offset="0.68" stop-color="#C4863A"/>
<stop offset="0.71" stop-color="#BB7931"/>
<stop offset="0.73" stop-color="#B8742E"/>
<stop offset="0.74" stop-color="#AF6D2C"/>
<stop offset="0.78" stop-color="#A36429"/>
<stop offset="0.81" stop-color="#A06229"/>
<stop offset="0.83" stop-color="#A6682C"/>
<stop offset="0.87" stop-color="#B87936"/>
<stop offset="0.91" stop-color="#DD9E4B"/>
<stop offset="0.99" stop-color="#8C5E25"/>
<stop offset="1" stop-color="#8C5E25"/>
</linearGradient>
<clipPath id="clip0_693_45953">
<rect width="245.552" height="6.9677" fill="white" transform="translate(0 60.7329)"/>
</clipPath>
</defs>
</svg>
