<svg width="55" height="55" viewBox="0 0 55 55" fill="none" xmlns="http://www.w3.org/2000/svg">
<path fill-rule="evenodd" clip-rule="evenodd" d="M7.58409 5.0638C6.98975 5.2632 6.48717 5.70002 6.18651 6.27838C6.03971 6.56085 6.02853 6.90188 6.00534 11.8246C5.9887 15.3401 6.01089 17.2542 6.07256 17.6288C6.12601 17.9537 6.3207 18.5183 6.53767 18.9775C6.96361 19.8791 7.64719 20.6502 8.46186 21.1479C9.02477 21.4919 10.134 21.8422 10.6601 21.8422H11.0276L11.0497 34.375L11.0718 46.9077L11.3604 47.4524C11.8884 48.449 12.7385 48.968 13.8466 48.9701C14.439 48.9712 14.5879 48.9375 15.0769 48.6911C15.7245 48.3649 16.1689 47.8987 16.4804 47.219L16.7018 46.7357L16.7438 42.2449L16.7858 37.754L17.3874 38.6764C18.3214 40.1084 19.3512 41.3671 20.8176 42.8694C22.7258 44.824 24.6822 46.4607 27.0264 48.0636C28.8647 49.3204 29.0022 49.3189 30.9114 48.0178C34.8528 45.332 38.3075 41.9616 40.4611 38.7014L41.1124 37.7155V42.0661C41.1124 46.1903 41.1212 46.4459 41.2824 46.9798C41.4982 47.6949 42.0869 48.3845 42.777 48.7307C43.1858 48.9357 43.3587 48.9706 43.9694 48.971C44.5818 48.9713 44.7519 48.9371 45.1618 48.7312C45.7773 48.4219 46.4221 47.7058 46.6524 47.0762C46.8235 46.608 46.8264 46.4765 46.8264 38.9665V31.3325L47.2896 31.1361C47.8825 30.8846 48.4575 30.3113 48.7439 29.686L48.9691 29.1942L48.9942 20.5524C49.0115 14.5987 48.9906 11.704 48.9269 11.2463C48.5454 8.50323 46.6729 6.21552 44.0954 5.34334C43.2032 5.04144 42.6542 4.94763 42.2423 5.02674C41.8457 5.10284 41.3066 5.60939 41.1985 6.00734C41.1434 6.21071 41.1131 9.5915 41.1129 15.5966L41.1124 24.8718L40.7645 24.5501C40.2283 24.0545 39.2047 23.4143 38.5054 23.1374C37.0096 22.5448 35.0197 22.4532 33.5264 22.908C32.1569 23.3251 30.547 24.2978 29.5139 25.3324C29.2583 25.5883 29.0188 25.7977 28.9817 25.7977C28.9445 25.7977 28.5863 25.5128 28.1859 25.1645C25.9964 23.261 24.1429 22.5275 21.8066 22.6401C20.0171 22.7262 18.5858 23.2894 17.2371 24.438L16.7438 24.8581V23.3501V21.8422L17.0589 21.8409C18.0548 21.837 19.2652 21.2934 20.1341 20.46C20.8148 19.8072 21.1928 19.2173 21.5164 18.3025L21.7396 17.6718L21.7673 12.3576C21.7982 6.4206 21.8012 6.4574 21.2334 5.7787C20.2662 4.62233 18.5276 4.7778 17.775 6.08783L17.5421 6.49335L17.5001 9.90458L17.4581 13.3158L17.2544 13.5376C17.0065 13.8074 16.5985 13.8323 16.312 13.5951L16.1136 13.4309L16.0701 10.0481L16.0268 6.66532L15.8 6.22257C15.0416 4.7422 13.1458 4.5802 12.1539 5.91104C12.0037 6.11251 11.8451 6.46385 11.7938 6.70883C11.7371 6.97944 11.702 8.32911 11.702 10.242V13.3372L11.4957 13.5482C11.2128 13.8378 10.7909 13.8332 10.5192 13.5376L10.3156 13.3158L10.2735 9.90458C10.2361 6.868 10.2154 6.46308 10.0843 6.21793C9.8865 5.84766 9.40425 5.37886 9.03872 5.20129C8.69664 5.03525 7.89508 4.95941 7.58409 5.0638ZM8.58286 6.6698L8.83772 6.88932L8.86243 10.2598C8.88629 13.5282 8.8926 13.6408 9.06897 13.9743C9.30627 14.4228 9.81532 14.9206 10.2078 15.0879C10.5778 15.2456 11.2591 15.2608 11.714 15.1213C12.175 14.98 12.6997 14.4876 12.9311 13.9791C13.1277 13.547 13.1289 13.5244 13.13 10.3198C13.1311 7.26672 13.14 7.08056 13.2963 6.81812C13.3872 6.66567 13.5611 6.51536 13.683 6.48406C13.9804 6.4077 14.4579 6.64623 14.5143 6.8993C14.5382 7.00713 14.5675 8.54631 14.5795 10.3198C14.6034 13.901 14.5961 13.8501 15.1836 14.5154C15.6087 14.997 16.113 15.2216 16.7639 15.2192C17.4018 15.2169 17.8423 15.0259 18.2732 14.565C18.8875 13.9078 18.8835 13.9346 18.912 10.2236C18.9364 7.05562 18.9452 6.89448 19.1034 6.72061C19.4559 6.33358 20.0173 6.41303 20.2496 6.88287C20.4131 7.21367 20.3987 16.6828 20.2335 17.4809C19.9979 18.6183 19.2682 19.5444 18.2071 20.0525C17.7235 20.2841 17.5283 20.3249 16.6866 20.3708C15.7615 20.4212 15.7123 20.4335 15.5181 20.6647L15.3153 20.906V23.9188V26.9317L15.0261 27.805C14.4411 29.5707 14.4675 31.5011 15.1081 33.8375L15.3203 34.6114L15.2968 40.551L15.2733 46.4904L15.0367 46.8563C14.7814 47.251 14.2749 47.5475 13.8503 47.5507C13.4618 47.5537 12.9064 47.232 12.6926 46.8801L12.5003 46.5638L12.4583 33.6895L12.4163 20.8151L12.2287 20.6231C12.0653 20.456 11.9184 20.4236 11.0943 20.3727C10.5735 20.3406 9.99111 20.255 9.79995 20.1826C8.65345 19.7484 7.76484 18.6968 7.51107 17.4741C7.4472 17.1661 7.41653 15.3871 7.41653 11.9857V6.95304L7.66215 6.7017C7.96592 6.39094 8.24759 6.38113 8.58286 6.6698ZM43.8104 6.79508C45.4659 7.40688 46.7145 8.74039 47.3117 10.5348L47.5406 11.2227L47.5643 19.9822C47.5879 28.7329 47.5878 28.7421 47.4113 29.1152C47.2002 29.5613 46.8406 29.8081 46.2288 29.9269C45.9805 29.9751 45.7014 30.0922 45.6086 30.1871C45.4427 30.3569 45.4392 30.4933 45.3979 38.4656C45.351 47.5146 45.4062 46.7594 44.7546 47.2674C44.4966 47.4688 44.3633 47.5091 43.9655 47.5068C43.5712 47.5045 43.4316 47.4608 43.1728 47.2588C43 47.124 42.788 46.8544 42.7016 46.6597C42.5531 46.3251 42.5445 45.9838 42.5438 40.4156L42.5431 34.5254L42.7433 33.8805C43.2579 32.2241 43.3968 29.9252 43.0656 28.5493C42.9688 28.1473 42.8111 27.6313 42.7152 27.4028C42.5421 26.99 42.5409 26.9202 42.5409 16.7149V6.44253L42.856 6.50074C43.0293 6.53273 43.4587 6.66524 43.8104 6.79508ZM23.6838 24.2512C25.0936 24.6189 26.3018 25.3699 27.718 26.759C28.9618 27.9789 28.9006 27.9779 30.0936 26.8011C31.411 25.5016 32.5654 24.7477 33.8888 24.3224C34.429 24.1488 34.6852 24.1213 35.7345 24.1242C36.8434 24.1271 37.0133 24.1487 37.6251 24.3655C40.0139 25.2119 41.5669 27.2267 41.823 29.8113C41.9376 30.9684 41.5779 33.1098 41.0331 34.513C39.9955 37.1859 38.2699 39.6618 35.6189 42.2812C33.8985 43.981 31.514 45.9095 29.6488 47.1093L28.9344 47.569L28.4158 47.2466C28.1306 47.0693 27.4201 46.575 26.8371 46.1483C20.721 41.6715 16.9807 36.7689 16.1983 32.2038C16.0226 31.1784 16.0188 29.6178 16.1902 28.8658C16.7167 26.5569 18.55 24.7106 20.8192 24.2041C21.611 24.0274 22.9073 24.0487 23.6838 24.2512ZM25.6553 31.538C25.5457 31.6288 25.2098 32.3572 24.8127 33.3652L24.1525 35.0414L22.7934 35.0844L21.4344 35.1273L21.2318 35.3686C20.9608 35.6914 20.9746 35.9875 21.2749 36.2948L21.5206 36.5462L23.1446 36.5449C24.2813 36.544 24.8317 36.5111 24.9787 36.4352C25.1364 36.3539 25.2861 36.0822 25.5794 35.3446L25.97 34.3623L26.1442 34.9598C27.3443 39.0769 27.5926 39.8612 27.7459 40.0179C27.9692 40.2466 28.4557 40.2499 28.674 40.0244C28.7632 39.9321 29.331 38.717 29.9356 37.3241C30.5402 35.9312 31.0461 34.78 31.0598 34.7661C31.0734 34.7521 31.4187 35.5393 31.8271 36.5154C32.5788 38.3116 32.7839 38.6685 33.0876 38.7086C33.5385 38.7681 33.7063 38.6223 34.3909 37.5765L35.0655 36.5462H36.4149H37.7641L38.0098 36.2948C38.3463 35.9504 38.312 35.4974 37.9266 35.1946C37.7626 35.0658 34.5423 35.0409 34.3126 35.1667C34.2299 35.212 34.0011 35.5022 33.8042 35.8116C33.6071 36.121 33.4186 36.3742 33.3854 36.3742C33.352 36.3742 32.952 35.4811 32.4965 34.3896C32.0047 33.2113 31.5991 32.3554 31.4979 32.2829C31.2872 32.1319 30.8573 32.1245 30.6648 32.2685C30.5856 32.3278 30.0333 33.4942 29.4376 34.8604L28.3545 37.3446L28.1014 36.4939C27.9623 36.0261 27.6542 34.9855 27.4169 34.1815C26.6749 31.668 26.67 31.6549 26.404 31.5141C26.0877 31.3468 25.8779 31.3534 25.6553 31.538Z" fill="black"/>
</svg>
