<svg width="31" height="30" viewBox="0 0 31 30" fill="none" xmlns="http://www.w3.org/2000/svg">
<path d="M12.375 13.75C14.7875 13.75 16.75 15.7125 16.75 18.125C16.75 20.5375 14.7875 22.5 12.375 22.5C9.9625 22.5 8 20.5375 8 18.125C8 15.7125 9.9625 13.75 12.375 13.75ZM12.375 11.25C8.575 11.25 5.5 14.325 5.5 18.125C5.5 21.925 8.575 25 12.375 25C16.175 25 19.25 21.925 19.25 18.125C19.25 16.675 18.8 15.3375 18.0375 14.225L23 9.275V12.5H25.5V5H18V7.5H21.225L16.2625 12.4625C15.1625 11.7 13.825 11.25 12.375 11.25Z" fill="#77B026"/>
</svg>
