<svg width="31" height="30" viewBox="0 0 31 30" fill="none" xmlns="http://www.w3.org/2000/svg">
<path d="M22.375 11.875C22.375 8.075 19.3 5 15.5 5C11.7 5 8.625 8.075 8.625 11.875C8.625 15.25 11.05 18.0375 14.25 18.625V21.25H11.75V23.75H14.25V26.25H16.75V23.75H19.25V21.25H16.75V18.625C19.95 18.0375 22.375 15.25 22.375 11.875ZM11.125 11.875C11.125 9.4625 13.0875 7.5 15.5 7.5C17.9125 7.5 19.875 9.4625 19.875 11.875C19.875 14.2875 17.9125 16.25 15.5 16.25C13.0875 16.25 11.125 14.2875 11.125 11.875Z" fill="#77B026"/>
</svg>
