<svg width="1440" height="145" viewBox="0 0 1440 145" fill="none" xmlns="http://www.w3.org/2000/svg">
<g clip-path="url(#clip0_42_11650)">
<path d="M633.29 12.31H511.02V27.89H633.29V12.31Z" fill="#FFB200"/>
<path d="M524.9 12.89L512.35 13.46V12.31L554.44 12.4L524.9 12.89Z" fill="#FFD600"/>
<path d="M616.6 12.88L630.64 13.46V12.31L552.2 12.4L616.6 12.88Z" fill="#FFD600"/>
<path d="M633.61 16.44C633.61 16.44 629.31 22.11 618.68 23.27C608.05 24.42 511.69 25.61 511.69 25.61L511.03 27.89H633.3L633.61 16.44Z" fill="#E78900"/>
<path d="M510.52 12.4H457.44V27.98H510.52V12.4Z" fill="#FFB200"/>
<path d="M463.79 13.56H458.02V12.4H467.83L463.79 13.56Z" fill="#FFD600"/>
<path d="M503.6 13.56H509.37V12.4H499.56L503.6 13.56Z" fill="#FFD600"/>
<path d="M510.66 17.71C510.66 17.71 508.79 22.22 504.18 23.37C502.21 23.86 493.45 24.36 484.05 24.77C474.66 24.36 465.9 23.86 463.92 23.37C459.3 22.22 457.44 17.71 457.44 17.71L457.56 27.01L457.44 27.99H457.58H510.52H510.66L510.54 27L510.66 17.71Z" fill="#E78900"/>
<path d="M457.73 32.02C456.93 32.02 456.29 31.37 456.29 30.58V9.23C456.29 8.43 456.94 7.79 457.73 7.79C458.53 7.79 459.17 8.44 459.17 9.23V30.58C459.17 31.38 458.53 32.02 457.73 32.02Z" fill="#FFB200"/>
<path d="M457.73 7.79H457.59C456.87 7.79 456.29 8.95 456.29 10.39V29.43C456.29 30.86 456.87 32.03 457.59 32.03H457.73V7.79Z" fill="#FF8D00"/>
<path d="M456.29 13.01C455.96 13.08 455.71 13.37 455.71 13.72C455.71 14.07 455.96 14.36 456.29 14.43V13.01Z" fill="#5C4500"/>
<path d="M459.17 13.01C459.5 13.08 459.75 13.37 459.75 13.72C459.75 14.07 459.5 14.36 459.17 14.43V13.01Z" fill="#5C4500"/>
<path d="M456.29 19.36C455.96 19.43 455.71 19.72 455.71 20.07C455.71 20.42 455.96 20.71 456.29 20.78V19.36Z" fill="#5C4500"/>
<path d="M459.17 19.36C459.5 19.43 459.75 19.72 459.75 20.07C459.75 20.42 459.5 20.71 459.17 20.78V19.36Z" fill="#5C4500"/>
<path d="M456.29 25.7C455.96 25.77 455.71 26.06 455.71 26.41C455.71 26.76 455.96 27.05 456.29 27.12V25.7Z" fill="#5C4500"/>
<path d="M459.17 25.7C459.5 25.77 459.75 26.06 459.75 26.41C459.75 26.76 459.5 27.05 459.17 27.12V25.7Z" fill="#5C4500"/>
<path d="M510.81 32.02C510.01 32.02 509.37 31.37 509.37 30.58V9.23C509.37 8.43 510.02 7.79 510.81 7.79C511.61 7.79 512.25 8.44 512.25 9.23V30.58C512.25 31.38 511.61 32.02 510.81 32.02Z" fill="#FFB200"/>
<path d="M510.81 7.79H510.67C509.95 7.79 509.37 8.95 509.37 10.39V29.43C509.37 30.86 509.95 32.03 510.67 32.03H510.81V7.79Z" fill="#FF8D00"/>
<path d="M509.37 13.01C509.04 13.08 508.79 13.37 508.79 13.72C508.79 14.07 509.04 14.36 509.37 14.43V13.01Z" fill="#5C4500"/>
<path d="M512.25 13.01C512.58 13.08 512.83 13.37 512.83 13.72C512.83 14.07 512.58 14.36 512.25 14.43V13.01Z" fill="#5C4500"/>
<path d="M509.37 19.36C509.04 19.43 508.79 19.72 508.79 20.07C508.79 20.42 509.04 20.71 509.37 20.78V19.36Z" fill="#5C4500"/>
<path d="M512.25 19.36C512.58 19.43 512.83 19.72 512.83 20.07C512.83 20.42 512.58 20.71 512.25 20.78V19.36Z" fill="#5C4500"/>
<path d="M509.37 25.7C509.04 25.77 508.79 26.06 508.79 26.41C508.79 26.76 509.04 27.05 509.37 27.12V25.7Z" fill="#5C4500"/>
<path d="M512.25 25.7C512.58 25.77 512.83 26.06 512.83 26.41C512.83 26.76 512.58 27.05 512.25 27.12V25.7Z" fill="#5C4500"/>
<path d="M503.02 12.98H465.52C473.6 12.98 477.06 2.59 477.06 2.59H491.48C491.48 2.6 494.37 12.98 503.02 12.98Z" fill="#FFB200"/>
<path d="M492.25 4.63C492.25 4.63 481.65 8.37 475.32 12.98H465.53C465.53 12.98 473.61 12.4 477.07 2.59H491.49L492.25 4.63Z" fill="#FFA500"/>
<path d="M496.39 2.02C496.39 2.82 495.74 3.46 494.95 3.46H473.6C472.8 3.46 472.16 2.81 472.16 2.02C472.16 1.22 472.81 0.580002 473.6 0.580002H494.95C495.74 0.580002 496.39 1.22 496.39 2.02Z" fill="#FFB200"/>
<path d="M472.16 2.02V2.16C472.16 2.88 473.32 3.46 474.76 3.46H493.8C495.53 3.46 496.4 2.88 496.4 2.16V2.02H472.16Z" fill="#FF8D00"/>
<path d="M479.69 3.46C479.76 3.79 480.05 4.04 480.4 4.04C480.75 4.04 481.04 3.79 481.11 3.46H479.69Z" fill="#5C4500"/>
<path d="M479.69 0.58C479.76 0.25 480.05 0 480.4 0C480.75 0 481.04 0.25 481.11 0.58H479.69Z" fill="#5C4500"/>
<path d="M487.76 3.46C487.83 3.79 488.12 4.04 488.47 4.04C488.82 4.04 489.11 3.79 489.18 3.46H487.76Z" fill="#5C4500"/>
<path d="M487.76 0.58C487.83 0.25 488.12 0 488.47 0C488.82 0 489.11 0.25 489.18 0.58H487.76Z" fill="#5C4500"/>
<path d="M475.91 6.64C475.91 6.64 474.18 10.1 470.43 12.02C470.43 12.02 475.33 11.83 477.07 6.64H475.91Z" fill="#FFD600"/>
<path d="M492.93 6.64C492.93 6.64 494.66 10.1 498.41 12.02C498.41 12.02 493.51 11.83 491.77 6.64H492.93Z" fill="#FFD600"/>
<path d="M755.13 12.31H632.86V27.89H755.13V12.31Z" fill="#FFB200"/>
<path d="M646.74 12.89L634.19 13.46V12.31L676.28 12.4L646.74 12.89Z" fill="#FFD600"/>
<path d="M738.44 12.88L752.48 13.46V12.31L674.04 12.4L738.44 12.88Z" fill="#FFD600"/>
<path d="M755.45 16.44C755.45 16.44 751.15 22.11 740.52 23.27C729.89 24.42 633.53 25.61 633.53 25.61L632.87 27.89H755.14L755.45 16.44Z" fill="#E78900"/>
<path d="M633.3 32.02C632.5 32.02 631.86 31.37 631.86 30.58V9.23C631.86 8.43 632.51 7.79 633.3 7.79C634.1 7.79 634.74 8.44 634.74 9.23V30.58C634.74 31.38 634.09 32.02 633.3 32.02Z" fill="#FFB200"/>
<path d="M633.3 7.79H633.16C632.44 7.79 631.86 8.95 631.86 10.39V29.43C631.86 30.86 632.44 32.03 633.16 32.03H633.3V7.79Z" fill="#FF8D00"/>
<path d="M631.85 13.01C631.52 13.08 631.27 13.37 631.27 13.72C631.27 14.07 631.52 14.36 631.85 14.43V13.01Z" fill="#5C4500"/>
<path d="M634.74 13.01C635.07 13.08 635.32 13.37 635.32 13.72C635.32 14.07 635.07 14.36 634.74 14.43V13.01Z" fill="#5C4500"/>
<path d="M631.85 19.36C631.52 19.43 631.27 19.72 631.27 20.07C631.27 20.42 631.52 20.71 631.85 20.78V19.36Z" fill="#5C4500"/>
<path d="M634.74 19.36C635.07 19.43 635.32 19.72 635.32 20.07C635.32 20.42 635.07 20.71 634.74 20.78V19.36Z" fill="#5C4500"/>
<path d="M631.85 25.7C631.52 25.77 631.27 26.06 631.27 26.41C631.27 26.76 631.52 27.05 631.85 27.12V25.7Z" fill="#5C4500"/>
<path d="M634.74 25.7C635.07 25.77 635.32 26.06 635.32 26.41C635.32 26.76 635.07 27.05 634.74 27.12V25.7Z" fill="#5C4500"/>
<path d="M876.62 12.31H754.35V27.89H876.62V12.31Z" fill="#FFB200"/>
<path d="M768.23 12.89L755.68 13.46V12.31L797.77 12.4L768.23 12.89Z" fill="#FFD600"/>
<path d="M859.93 12.88L873.97 13.46V12.31L795.53 12.4L859.93 12.88Z" fill="#FFD600"/>
<path d="M876.94 16.44C876.94 16.44 872.64 22.11 862.01 23.27C851.38 24.42 755.02 25.61 755.02 25.61L754.36 27.89H876.63L876.94 16.44Z" fill="#E78900"/>
<path d="M754.79 32.02C753.99 32.02 753.35 31.37 753.35 30.58V9.23C753.35 8.43 754 7.79 754.79 7.79C755.59 7.79 756.23 8.44 756.23 9.23V30.58C756.23 31.38 755.58 32.02 754.79 32.02Z" fill="#FFB200"/>
<path d="M754.79 7.79H754.65C753.93 7.79 753.35 8.95 753.35 10.39V29.43C753.35 30.86 753.93 32.03 754.65 32.03H754.79V7.79Z" fill="#FF8D00"/>
<path d="M753.34 13.01C753.01 13.08 752.76 13.37 752.76 13.72C752.76 14.07 753.01 14.36 753.34 14.43V13.01Z" fill="#5C4500"/>
<path d="M756.23 13.01C756.56 13.08 756.81 13.37 756.81 13.72C756.81 14.07 756.56 14.36 756.23 14.43V13.01Z" fill="#5C4500"/>
<path d="M753.34 19.36C753.01 19.43 752.76 19.72 752.76 20.07C752.76 20.42 753.01 20.71 753.34 20.78V19.36Z" fill="#5C4500"/>
<path d="M756.23 19.36C756.56 19.43 756.81 19.72 756.81 20.07C756.81 20.42 756.56 20.71 756.23 20.78V19.36Z" fill="#5C4500"/>
<path d="M753.34 25.7C753.01 25.77 752.76 26.06 752.76 26.41C752.76 26.76 753.01 27.05 753.34 27.12V25.7Z" fill="#5C4500"/>
<path d="M756.23 25.7C756.56 25.77 756.81 26.06 756.81 26.41C756.81 26.76 756.56 27.05 756.23 27.12V25.7Z" fill="#5C4500"/>
<path d="M1051.55 12.31H929.28V27.89H1051.55V12.31Z" fill="#FFB200"/>
<path d="M943.15 12.89L930.61 13.46V12.31L972.7 12.4L943.15 12.89Z" fill="#FFD600"/>
<path d="M1034.86 12.88L1048.89 13.46V12.31L970.46 12.4L1034.86 12.88Z" fill="#FFD600"/>
<path d="M1051.87 16.44C1051.87 16.44 1047.57 22.11 1036.94 23.27C1026.31 24.42 929.95 25.61 929.95 25.61L929.29 27.89H1051.56L1051.87 16.44Z" fill="#E78900"/>
<path d="M928.78 12.4H875.7V27.98H928.78V12.4Z" fill="#FFB200"/>
<path d="M882.05 13.56H876.28V12.4H886.08L882.05 13.56Z" fill="#FFD600"/>
<path d="M921.86 13.56H927.63V12.4H917.82L921.86 13.56Z" fill="#FFD600"/>
<path d="M928.92 17.71C928.92 17.71 927.05 22.22 922.44 23.37C920.47 23.86 911.71 24.36 902.31 24.77C892.92 24.36 884.16 23.86 882.18 23.37C877.56 22.22 875.7 17.71 875.7 17.71L875.82 27.01L875.7 27.99H875.84H928.78H928.92L928.79 27L928.92 17.71Z" fill="#E78900"/>
<path d="M875.99 32.02C875.19 32.02 874.55 31.37 874.55 30.58V9.23C874.55 8.43 875.2 7.79 875.99 7.79C876.79 7.79 877.43 8.44 877.43 9.23V30.58C877.43 31.38 876.78 32.02 875.99 32.02Z" fill="#FFB200"/>
<path d="M875.99 7.79H875.85C875.13 7.79 874.55 8.95 874.55 10.39V29.43C874.55 30.86 875.13 32.03 875.85 32.03H875.99V7.79Z" fill="#FF8D00"/>
<path d="M874.54 13.01C874.21 13.08 873.96 13.37 873.96 13.72C873.96 14.07 874.21 14.36 874.54 14.43V13.01Z" fill="#5C4500"/>
<path d="M877.43 13.01C877.76 13.08 878.01 13.37 878.01 13.72C878.01 14.07 877.76 14.36 877.43 14.43V13.01Z" fill="#5C4500"/>
<path d="M874.54 19.36C874.21 19.43 873.96 19.72 873.96 20.07C873.96 20.42 874.21 20.71 874.54 20.78V19.36Z" fill="#5C4500"/>
<path d="M877.43 19.36C877.76 19.43 878.01 19.72 878.01 20.07C878.01 20.42 877.76 20.71 877.43 20.78V19.36Z" fill="#5C4500"/>
<path d="M874.54 25.7C874.21 25.77 873.96 26.06 873.96 26.41C873.96 26.76 874.21 27.05 874.54 27.12V25.7Z" fill="#5C4500"/>
<path d="M877.43 25.7C877.76 25.77 878.01 26.06 878.01 26.41C878.01 26.76 877.76 27.05 877.43 27.12V25.7Z" fill="#5C4500"/>
<path d="M929.07 32.02C928.27 32.02 927.63 31.37 927.63 30.58V9.23C927.63 8.43 928.28 7.79 929.07 7.79C929.87 7.79 930.51 8.44 930.51 9.23V30.58C930.51 31.38 929.86 32.02 929.07 32.02Z" fill="#FFB200"/>
<path d="M929.07 7.79H928.93C928.21 7.79 927.63 8.95 927.63 10.39V29.43C927.63 30.86 928.21 32.03 928.93 32.03H929.07V7.79Z" fill="#FF8D00"/>
<path d="M927.63 13.01C927.3 13.08 927.05 13.37 927.05 13.72C927.05 14.07 927.3 14.36 927.63 14.43V13.01Z" fill="#5C4500"/>
<path d="M930.51 13.01C930.84 13.08 931.09 13.37 931.09 13.72C931.09 14.07 930.84 14.36 930.51 14.43V13.01Z" fill="#5C4500"/>
<path d="M927.63 19.36C927.3 19.43 927.05 19.72 927.05 20.07C927.05 20.42 927.3 20.71 927.63 20.78V19.36Z" fill="#5C4500"/>
<path d="M930.51 19.36C930.84 19.43 931.09 19.72 931.09 20.07C931.09 20.42 930.84 20.71 930.51 20.78V19.36Z" fill="#5C4500"/>
<path d="M927.63 25.7C927.3 25.77 927.05 26.06 927.05 26.41C927.05 26.76 927.3 27.05 927.63 27.12V25.7Z" fill="#5C4500"/>
<path d="M930.51 25.7C930.84 25.77 931.09 26.06 931.09 26.41C931.09 26.76 930.84 27.05 930.51 27.12V25.7Z" fill="#5C4500"/>
<path d="M921.28 12.98H883.78C891.86 12.98 895.32 2.59 895.32 2.59H909.74C909.74 2.6 912.62 12.98 921.28 12.98Z" fill="#FFB200"/>
<path d="M910.5 4.63C910.5 4.63 899.9 8.37 893.57 12.98H883.78C883.78 12.98 891.86 12.4 895.32 2.59H909.74L910.5 4.63Z" fill="#FFA500"/>
<path d="M914.64 2.02C914.64 2.82 913.99 3.46 913.2 3.46H891.85C891.05 3.46 890.41 2.81 890.41 2.02C890.41 1.22 891.06 0.580002 891.85 0.580002H913.2C914 0.580002 914.64 1.22 914.64 2.02Z" fill="#FFB200"/>
<path d="M890.41 2.02V2.16C890.41 2.88 891.57 3.46 893.01 3.46H912.05C913.78 3.46 914.65 2.88 914.65 2.16V2.02H890.41Z" fill="#FF8D00"/>
<path d="M897.94 3.46C898.01 3.79 898.3 4.04 898.65 4.04C899 4.04 899.29 3.79 899.36 3.46H897.94Z" fill="#5C4500"/>
<path d="M897.94 0.58C898.01 0.25 898.3 0 898.65 0C899 0 899.29 0.25 899.36 0.58H897.94Z" fill="#5C4500"/>
<path d="M906.02 3.46C906.09 3.79 906.38 4.04 906.73 4.04C907.08 4.04 907.37 3.79 907.44 3.46H906.02Z" fill="#5C4500"/>
<path d="M906.02 0.58C906.09 0.25 906.38 0 906.73 0C907.08 0 907.37 0.25 907.44 0.58H906.02Z" fill="#5C4500"/>
<path d="M894.16 6.64C894.16 6.64 892.43 10.1 888.68 12.02C888.68 12.02 893.58 11.83 895.32 6.64H894.16Z" fill="#FFD600"/>
<path d="M911.18 6.64C911.18 6.64 912.91 10.1 916.66 12.02C916.66 12.02 911.76 11.83 910.02 6.64H911.18Z" fill="#FFD600"/>
<path d="M1173.39 12.31H1051.12V27.89H1173.39V12.31Z" fill="#FFB200"/>
<path d="M1064.99 12.89L1052.45 13.46V12.31L1094.54 12.4L1064.99 12.89Z" fill="#FFD600"/>
<path d="M1156.7 12.88L1170.73 13.46V12.31L1092.3 12.4L1156.7 12.88Z" fill="#FFD600"/>
<path d="M1173.71 16.44C1173.71 16.44 1169.41 22.11 1158.78 23.27C1148.15 24.42 1051.79 25.61 1051.79 25.61L1051.13 27.89H1173.4L1173.71 16.44Z" fill="#E78900"/>
<path d="M1051.55 32.02C1050.75 32.02 1050.11 31.37 1050.11 30.58V9.23C1050.11 8.43 1050.76 7.79 1051.55 7.79C1052.35 7.79 1052.99 8.44 1052.99 9.23V30.58C1052.99 31.38 1052.35 32.02 1051.55 32.02Z" fill="#FFB200"/>
<path d="M1051.55 7.79H1051.41C1050.69 7.79 1050.11 8.95 1050.11 10.39V29.43C1050.11 30.86 1050.69 32.03 1051.41 32.03H1051.55V7.79Z" fill="#FF8D00"/>
<path d="M1050.11 13.01C1049.78 13.08 1049.53 13.37 1049.53 13.72C1049.53 14.07 1049.78 14.36 1050.11 14.43V13.01Z" fill="#5C4500"/>
<path d="M1052.99 13.01C1053.32 13.08 1053.57 13.37 1053.57 13.72C1053.57 14.07 1053.32 14.36 1052.99 14.43V13.01Z" fill="#5C4500"/>
<path d="M1050.11 19.36C1049.78 19.43 1049.53 19.72 1049.53 20.07C1049.53 20.42 1049.78 20.71 1050.11 20.78V19.36Z" fill="#5C4500"/>
<path d="M1052.99 19.36C1053.32 19.43 1053.57 19.72 1053.57 20.07C1053.57 20.42 1053.32 20.71 1052.99 20.78V19.36Z" fill="#5C4500"/>
<path d="M1050.11 25.7C1049.78 25.77 1049.53 26.06 1049.53 26.41C1049.53 26.76 1049.78 27.05 1050.11 27.12V25.7Z" fill="#5C4500"/>
<path d="M1052.99 25.7C1053.32 25.77 1053.57 26.06 1053.57 26.41C1053.57 26.76 1053.32 27.05 1052.99 27.12V25.7Z" fill="#5C4500"/>
<path d="M1294.88 12.31H1172.61V27.89H1294.88V12.31Z" fill="#FFB200"/>
<path d="M1186.48 12.89L1173.94 13.46V12.31L1216.03 12.4L1186.48 12.89Z" fill="#FFD600"/>
<path d="M1278.19 12.88L1292.22 13.46V12.31L1213.79 12.4L1278.19 12.88Z" fill="#FFD600"/>
<path d="M1295.2 16.44C1295.2 16.44 1290.9 22.11 1280.27 23.27C1269.64 24.42 1173.28 25.61 1173.28 25.61L1172.62 27.89H1294.89L1295.2 16.44Z" fill="#E78900"/>
<path d="M1173.04 32.02C1172.24 32.02 1171.6 31.37 1171.6 30.58V9.23C1171.6 8.43 1172.25 7.79 1173.04 7.79C1173.84 7.79 1174.48 8.44 1174.48 9.23V30.58C1174.48 31.38 1173.84 32.02 1173.04 32.02Z" fill="#FFB200"/>
<path d="M1173.04 7.79H1172.9C1172.18 7.79 1171.6 8.95 1171.6 10.39V29.43C1171.6 30.86 1172.18 32.03 1172.9 32.03H1173.04V7.79Z" fill="#FF8D00"/>
<path d="M1171.6 13.01C1171.27 13.08 1171.02 13.37 1171.02 13.72C1171.02 14.07 1171.27 14.36 1171.6 14.43V13.01Z" fill="#5C4500"/>
<path d="M1174.48 13.01C1174.81 13.08 1175.06 13.37 1175.06 13.72C1175.06 14.07 1174.81 14.36 1174.48 14.43V13.01Z" fill="#5C4500"/>
<path d="M1171.6 19.36C1171.27 19.43 1171.02 19.72 1171.02 20.07C1171.02 20.42 1171.27 20.71 1171.6 20.78V19.36Z" fill="#5C4500"/>
<path d="M1174.48 19.36C1174.81 19.43 1175.06 19.72 1175.06 20.07C1175.06 20.42 1174.81 20.71 1174.48 20.78V19.36Z" fill="#5C4500"/>
<path d="M1171.6 25.7C1171.27 25.77 1171.02 26.06 1171.02 26.41C1171.02 26.76 1171.27 27.05 1171.6 27.12V25.7Z" fill="#5C4500"/>
<path d="M1174.48 25.7C1174.81 25.77 1175.06 26.06 1175.06 26.41C1175.06 26.76 1174.81 27.05 1174.48 27.12V25.7Z" fill="#5C4500"/>
<path d="M1237.02 125.12H1114.75V140.7H1237.02V125.12Z" fill="#FFB200"/>
<path d="M1128.62 125.7L1116.08 126.27V125.12L1158.17 125.22L1128.62 125.7Z" fill="#FFD600"/>
<path d="M1220.33 125.7L1234.36 126.27V125.12L1155.93 125.22L1220.33 125.7Z" fill="#FFD600"/>
<path d="M1237.34 129.26C1237.34 129.26 1233.04 134.93 1222.41 136.09C1211.78 137.24 1115.42 138.43 1115.42 138.43L1114.76 140.71H1237.03L1237.34 129.26Z" fill="#E78900"/>
<path d="M1358.51 125.12H1236.24V140.7H1358.51V125.12Z" fill="#FFB200"/>
<path d="M1250.11 125.7L1237.57 126.27V125.12L1279.66 125.22L1250.11 125.7Z" fill="#FFD600"/>
<path d="M1341.82 125.7L1355.85 126.27V125.12L1277.42 125.22L1341.82 125.7Z" fill="#FFD600"/>
<path d="M1358.83 129.26C1358.83 129.26 1354.53 134.93 1343.9 136.09C1333.27 137.24 1236.91 138.43 1236.91 138.43L1236.25 140.71H1358.52L1358.83 129.26Z" fill="#E78900"/>
<path d="M1236.67 144.83C1235.87 144.83 1235.23 144.18 1235.23 143.39V122.04C1235.23 121.24 1235.88 120.6 1236.67 120.6C1237.47 120.6 1238.11 121.25 1238.11 122.04V143.39C1238.12 144.19 1237.47 144.83 1236.67 144.83Z" fill="#FFB200"/>
<path d="M1236.67 120.6H1236.53C1235.81 120.6 1235.23 121.76 1235.23 123.2V142.24C1235.23 143.67 1235.81 144.84 1236.53 144.84H1236.67V120.6Z" fill="#FF8D00"/>
<path d="M1235.23 125.82C1234.9 125.89 1234.65 126.18 1234.65 126.53C1234.65 126.88 1234.9 127.17 1235.23 127.24V125.82Z" fill="#5C4500"/>
<path d="M1238.12 125.82C1238.45 125.89 1238.7 126.18 1238.7 126.53C1238.7 126.88 1238.45 127.17 1238.12 127.24V125.82Z" fill="#5C4500"/>
<path d="M1235.23 132.17C1234.9 132.24 1234.65 132.53 1234.65 132.88C1234.65 133.23 1234.9 133.52 1235.23 133.59V132.17Z" fill="#5C4500"/>
<path d="M1238.12 132.17C1238.45 132.24 1238.7 132.53 1238.7 132.88C1238.7 133.23 1238.45 133.52 1238.12 133.59V132.17Z" fill="#5C4500"/>
<path d="M1235.23 138.52C1234.9 138.59 1234.65 138.88 1234.65 139.23C1234.65 139.58 1234.9 139.87 1235.23 139.94V138.52Z" fill="#5C4500"/>
<path d="M1238.12 138.52C1238.45 138.59 1238.7 138.88 1238.7 139.23C1238.7 139.58 1238.45 139.87 1238.12 139.94V138.52Z" fill="#5C4500"/>
<path d="M444.555 66.2488V33.2088H428.975V66.2488H444.555Z" fill="#FFB200"/>
<path d="M443.98 36.96L443.4 33.57H444.55L444.46 44.94L443.98 36.96Z" fill="#FFD600"/>
<path d="M443.98 61.74L443.4 65.53H444.55L444.46 44.34L443.98 61.74Z" fill="#FFD600"/>
<path d="M440.42 66.34C440.42 66.34 434.75 65.18 433.59 62.3C432.44 59.43 431.25 33.39 431.25 33.39L428.97 33.21V66.25L440.42 66.34Z" fill="#E78900"/>
<path d="M484.27 5.57C476.64 5.57 470.45 11.76 470.45 19.39C470.45 27.02 476.64 33.21 484.27 33.21C491.9 33.21 498.09 27.02 498.09 19.39C498.09 11.76 491.91 5.57 484.27 5.57ZM484.27 30.55C478.1 30.55 473.11 25.55 473.11 19.39C473.11 13.22 478.11 8.23 484.27 8.23C490.43 8.23 495.43 13.23 495.43 19.39C495.44 25.56 490.44 30.55 484.27 30.55Z" fill="#FF3617"/>
<path d="M484.27 22.58C486.032 22.58 487.46 21.1518 487.46 19.39C487.46 17.6282 486.032 16.2 484.27 16.2C482.508 16.2 481.08 17.6282 481.08 19.39C481.08 21.1518 482.508 22.58 484.27 22.58Z" fill="#FF3617"/>
<path d="M477.12 30.8L474.16 28.27L483.4 19.39L484.48 20.31L477.12 30.8Z" fill="#FF3617"/>
<path d="M486.28 6.04H482.38L483.62 18.79H485.04L486.28 6.04Z" fill="#FF3617"/>
<path d="M497.49 17.52L496.37 13.78L484.51 18.66L484.92 20.02L497.49 17.52Z" fill="#FF3617"/>
<path d="M471.12 16.88L472.4 13.19L484.05 18.54L483.59 19.88L471.12 16.88Z" fill="#FF3617"/>
<path d="M490.98 31.1L494.04 28.68L485.15 19.44L484.04 20.32L490.98 31.1Z" fill="#FF3617"/>
<path d="M474.05 15.34C474.05 16.07 473.45 16.67 472.72 16.67C471.99 16.67 471.39 16.07 471.39 15.34C471.39 14.61 471.99 14.01 472.72 14.01C473.45 14.01 474.05 14.6 474.05 15.34Z" fill="#FFE473"/>
<path d="M485.75 6.83C485.75 7.56 485.15 8.16 484.42 8.16C483.69 8.16 483.09 7.56 483.09 6.83C483.09 6.1 483.69 5.5 484.42 5.5C485.15 5.5 485.75 6.1 485.75 6.83Z" fill="#FFE473"/>
<path d="M496.91 15.87C496.91 16.6 496.31 17.2 495.58 17.2C494.85 17.2 494.25 16.61 494.25 15.87C494.25 15.14 494.85 14.54 495.58 14.54C496.32 14.54 496.91 15.14 496.91 15.87Z" fill="#FFE473"/>
<path d="M484.28 20.72C485.014 20.72 485.61 20.1245 485.61 19.39C485.61 18.6555 485.014 18.06 484.28 18.06C483.545 18.06 482.95 18.6555 482.95 19.39C482.95 20.1245 483.545 20.72 484.28 20.72Z" fill="#FFE473"/>
<path d="M490.5 28.89C490.44 28.16 490.98 27.51 491.71 27.45C492.44 27.39 493.09 27.93 493.15 28.66C493.21 29.39 492.67 30.04 491.94 30.1C491.21 30.16 490.57 29.62 490.5 28.89Z" fill="#FFE473"/>
<path d="M475.12 28.74C475.06 28.01 475.6 27.36 476.33 27.3C477.06 27.24 477.71 27.78 477.77 28.51C477.83 29.24 477.29 29.89 476.56 29.95C475.83 30.02 475.18 29.48 475.12 28.74Z" fill="#FFE473"/>
<path d="M902.42 5.57C894.79 5.57 888.6 11.76 888.6 19.39C888.6 27.02 894.79 33.21 902.42 33.21C910.05 33.21 916.24 27.02 916.24 19.39C916.24 11.76 910.06 5.57 902.42 5.57ZM902.42 30.55C896.25 30.55 891.26 25.55 891.26 19.39C891.26 13.22 896.26 8.23 902.42 8.23C908.58 8.23 913.58 13.23 913.58 19.39C913.59 25.56 908.59 30.55 902.42 30.55Z" fill="#FF3617"/>
<path d="M902.42 22.58C904.182 22.58 905.61 21.1518 905.61 19.39C905.61 17.6282 904.182 16.2 902.42 16.2C900.658 16.2 899.23 17.6282 899.23 19.39C899.23 21.1518 900.658 22.58 902.42 22.58Z" fill="#FF3617"/>
<path d="M895.27 30.8L892.31 28.27L901.55 19.39L902.63 20.31L895.27 30.8Z" fill="#FF3617"/>
<path d="M904.43 6.04H900.53L901.77 18.79H903.19L904.43 6.04Z" fill="#FF3617"/>
<path d="M915.65 17.52L914.52 13.78L902.66 18.66L903.07 20.02L915.65 17.52Z" fill="#FF3617"/>
<path d="M889.27 16.88L890.55 13.19L902.2 18.54L901.74 19.88L889.27 16.88Z" fill="#FF3617"/>
<path d="M909.13 31.1L912.19 28.68L903.3 19.44L902.19 20.32L909.13 31.1Z" fill="#FF3617"/>
<path d="M892.2 15.34C892.2 16.07 891.6 16.67 890.87 16.67C890.14 16.67 889.54 16.07 889.54 15.34C889.54 14.61 890.14 14.01 890.87 14.01C891.61 14.01 892.2 14.6 892.2 15.34Z" fill="#FFE473"/>
<path d="M902.57 8.16C903.305 8.16 903.9 7.56454 903.9 6.83C903.9 6.09546 903.305 5.5 902.57 5.5C901.835 5.5 901.24 6.09546 901.24 6.83C901.24 7.56454 901.835 8.16 902.57 8.16Z" fill="#FFE473"/>
<path d="M915.06 15.87C915.06 16.6 914.46 17.2 913.73 17.2C913 17.2 912.4 16.61 912.4 15.87C912.4 15.14 913 14.54 913.73 14.54C914.47 14.54 915.06 15.14 915.06 15.87Z" fill="#FFE473"/>
<path d="M902.43 20.72C903.165 20.72 903.76 20.1245 903.76 19.39C903.76 18.6555 903.165 18.06 902.43 18.06C901.695 18.06 901.1 18.6555 901.1 19.39C901.1 20.1245 901.695 20.72 902.43 20.72Z" fill="#FFE473"/>
<path d="M908.66 28.89C908.6 28.16 909.14 27.51 909.87 27.45C910.6 27.39 911.25 27.93 911.31 28.66C911.37 29.39 910.83 30.04 910.1 30.1C909.36 30.16 908.72 29.62 908.66 28.89Z" fill="#FFE473"/>
<path d="M893.27 28.74C893.21 28.01 893.75 27.36 894.48 27.3C895.21 27.24 895.86 27.78 895.92 28.51C895.98 29.24 895.44 29.89 894.71 29.95C893.98 30.02 893.34 29.48 893.27 28.74Z" fill="#FFE473"/>
<path d="M428.9 37.99C428.9 37.99 428.9 37.9 428.9 32.23C428.9 22.1 433.87 12.64 446.95 12.64C457.91 12.64 457.17 12.64 457.17 12.64V28.22C457.17 28.22 453.58 28.22 450.17 28.22C445.84 28.22 444.47 30.79 444.47 35.96C444.47 39 444.47 38 444.47 38H428.9V37.99Z" fill="#FFB200"/>
<path d="M457.18 20.24C457.18 20.24 451.26 20.24 448.72 20.24C444.63 20.24 438.47 23.84 438.47 29.38C438.47 34.12 438.47 38.16 438.47 38.16L444.55 38.31C444.55 38.31 444.48 38.89 444.48 35.57C444.48 29.3 447.27 28.23 452.75 28.23C457.17 28.23 457.18 28.23 457.18 28.23V20.24Z" fill="#E78900"/>
<path d="M457.19 32.19C456.39 32.19 455.75 31.54 455.75 30.75V9.4C455.75 8.6 456.4 7.96 457.19 7.96C457.99 7.96 458.63 8.61 458.63 9.4V30.75C458.63 31.55 457.98 32.19 457.19 32.19Z" fill="#FFB200"/>
<path d="M457.19 7.96H457.05C456.33 7.96 455.75 9.12 455.75 10.56V29.6C455.75 31.03 456.33 32.2 457.05 32.2H457.19V7.96Z" fill="#FF8D00"/>
<path d="M455.75 13.18C455.42 13.25 455.17 13.54 455.17 13.89C455.17 14.24 455.42 14.53 455.75 14.6V13.18Z" fill="#5C4500"/>
<path d="M458.63 13.18C458.96 13.25 459.21 13.54 459.21 13.89C459.21 14.24 458.96 14.53 458.63 14.6V13.18Z" fill="#5C4500"/>
<path d="M455.75 19.53C455.42 19.6 455.17 19.89 455.17 20.24C455.17 20.59 455.42 20.88 455.75 20.95V19.53Z" fill="#5C4500"/>
<path d="M458.63 19.53C458.96 19.6 459.21 19.89 459.21 20.24C459.21 20.59 458.96 20.88 458.63 20.95V19.53Z" fill="#5C4500"/>
<path d="M455.75 25.88C455.42 25.95 455.17 26.24 455.17 26.59C455.17 26.94 455.42 27.23 455.75 27.3V25.88Z" fill="#5C4500"/>
<path d="M458.63 25.88C458.96 25.95 459.21 26.24 459.21 26.59C459.21 26.94 458.96 27.23 458.63 27.3V25.88Z" fill="#5C4500"/>
<path d="M448.72 37.58C448.72 38.38 448.07 39.02 447.28 39.02H425.93C425.13 39.02 424.49 38.37 424.49 37.58C424.49 36.78 425.14 36.14 425.93 36.14H447.28C448.08 36.13 448.72 36.78 448.72 37.58Z" fill="#FFB200"/>
<path d="M424.49 37.58V37.72C424.49 38.44 425.65 39.02 427.09 39.02H446.13C447.56 39.02 448.73 38.44 448.73 37.72V37.58H424.49Z" fill="#FF8D00"/>
<path d="M429.71 39.02C429.78 39.35 430.07 39.6 430.42 39.6C430.77 39.6 431.06 39.35 431.13 39.02H429.71Z" fill="#5C4500"/>
<path d="M429.71 36.13C429.78 35.8 430.07 35.55 430.42 35.55C430.77 35.55 431.06 35.8 431.13 36.13H429.71Z" fill="#5C4500"/>
<path d="M436.06 39.02C436.13 39.35 436.42 39.6 436.77 39.6C437.12 39.6 437.41 39.35 437.48 39.02H436.06Z" fill="#5C4500"/>
<path d="M436.06 36.13C436.13 35.8 436.42 35.55 436.77 35.55C437.12 35.55 437.41 35.8 437.48 36.13H436.06Z" fill="#5C4500"/>
<path d="M442.4 39.02C442.47 39.35 442.76 39.6 443.11 39.6C443.46 39.6 443.75 39.35 443.82 39.02H442.4Z" fill="#5C4500"/>
<path d="M442.4 36.13C442.47 35.8 442.76 35.55 443.11 35.55C443.46 35.55 443.75 35.8 443.82 36.13H442.4Z" fill="#5C4500"/>
<path d="M448.72 13.18C448.72 13.18 440.07 13.11 436.06 18.84C432.05 24.57 431.13 33 431.13 33C431.13 33 430.46 22.22 435.57 17.59C440.68 12.98 448.72 13.18 448.72 13.18Z" fill="#FFD600"/>
<path d="M1320.62 66.2562V33.2162H1305.04V66.2562H1320.62Z" fill="#FFB200"/>
<path d="M1320.04 36.96L1319.46 33.57H1320.61L1320.52 44.94L1320.04 36.96Z" fill="#FFD600"/>
<path d="M1320.04 61.74L1319.46 65.53H1320.62L1320.52 44.34L1320.04 61.74Z" fill="#FFD600"/>
<path d="M1316.48 66.34C1316.48 66.34 1310.81 65.18 1309.65 62.3C1308.5 59.43 1307.31 33.39 1307.31 33.39L1305.03 33.21V66.25L1316.48 66.34Z" fill="#E78900"/>
<path d="M1320.53 37.99C1320.53 37.99 1320.53 37.9 1320.53 32.23C1320.53 22.1 1315.56 12.64 1302.48 12.64C1291.52 12.64 1292.26 12.64 1292.26 12.64V28.22C1292.26 28.22 1295.85 28.22 1299.26 28.22C1303.59 28.22 1304.96 30.79 1304.96 35.96C1304.96 39 1304.96 38 1304.96 38H1320.53V37.99Z" fill="#FFB200"/>
<path d="M1292.25 20.24C1292.25 20.24 1298.17 20.24 1300.71 20.24C1304.8 20.24 1310.96 23.84 1310.96 29.38C1310.96 34.12 1310.96 38.16 1310.96 38.16L1304.88 38.31C1304.88 38.31 1304.95 38.89 1304.95 35.57C1304.95 29.3 1302.16 28.23 1296.68 28.23C1292.26 28.23 1292.25 28.23 1292.25 28.23V20.24Z" fill="#E78900"/>
<path d="M1292.24 32.19C1293.04 32.19 1293.68 31.54 1293.68 30.75V9.4C1293.68 8.6 1293.03 7.96 1292.24 7.96C1291.44 7.96 1290.8 8.61 1290.8 9.4V30.75C1290.8 31.55 1291.45 32.19 1292.24 32.19Z" fill="#FFB200"/>
<path d="M1292.24 7.96H1292.38C1293.1 7.96 1293.68 9.12 1293.68 10.56V29.6C1293.68 31.03 1293.1 32.2 1292.38 32.2H1292.24V7.96Z" fill="#FF8D00"/>
<path d="M1293.69 13.18C1294.02 13.25 1294.27 13.54 1294.27 13.89C1294.27 14.24 1294.02 14.53 1293.69 14.6V13.18Z" fill="#5C4500"/>
<path d="M1290.8 13.18C1290.47 13.25 1290.22 13.54 1290.22 13.89C1290.22 14.24 1290.47 14.53 1290.8 14.6V13.18Z" fill="#5C4500"/>
<path d="M1293.69 19.53C1294.02 19.6 1294.27 19.89 1294.27 20.24C1294.27 20.59 1294.02 20.88 1293.69 20.95V19.53Z" fill="#5C4500"/>
<path d="M1290.8 19.53C1290.47 19.6 1290.22 19.89 1290.22 20.24C1290.22 20.59 1290.47 20.88 1290.8 20.95V19.53Z" fill="#5C4500"/>
<path d="M1293.69 25.88C1294.02 25.95 1294.27 26.24 1294.27 26.59C1294.27 26.94 1294.02 27.23 1293.69 27.3V25.88Z" fill="#5C4500"/>
<path d="M1290.8 25.88C1290.47 25.95 1290.22 26.24 1290.22 26.59C1290.22 26.94 1290.47 27.23 1290.8 27.3V25.88Z" fill="#5C4500"/>
<path d="M1300.71 37.58C1300.71 38.38 1301.36 39.02 1302.15 39.02H1323.5C1324.3 39.02 1324.94 38.37 1324.94 37.58C1324.94 36.78 1324.29 36.14 1323.5 36.14H1302.15C1301.36 36.13 1300.71 36.78 1300.71 37.58Z" fill="#FFB200"/>
<path d="M1324.94 37.58V37.72C1324.94 38.44 1323.78 39.02 1322.34 39.02H1303.3C1301.87 39.02 1300.7 38.44 1300.7 37.72V37.58H1324.94Z" fill="#FF8D00"/>
<path d="M1319.72 39.02C1319.65 39.35 1319.36 39.6 1319.01 39.6C1318.66 39.6 1318.37 39.35 1318.3 39.02H1319.72Z" fill="#5C4500"/>
<path d="M1319.72 36.13C1319.65 35.8 1319.36 35.55 1319.01 35.55C1318.66 35.55 1318.37 35.8 1318.3 36.13H1319.72Z" fill="#5C4500"/>
<path d="M1313.37 39.02C1313.3 39.35 1313.01 39.6 1312.66 39.6C1312.31 39.6 1312.02 39.35 1311.95 39.02H1313.37Z" fill="#5C4500"/>
<path d="M1313.37 36.13C1313.3 35.8 1313.01 35.55 1312.66 35.55C1312.31 35.55 1312.02 35.8 1311.95 36.13H1313.37Z" fill="#5C4500"/>
<path d="M1307.03 39.02C1306.96 39.35 1306.67 39.6 1306.32 39.6C1305.97 39.6 1305.68 39.35 1305.61 39.02H1307.03Z" fill="#5C4500"/>
<path d="M1307.03 36.13C1306.96 35.8 1306.67 35.55 1306.32 35.55C1305.97 35.55 1305.68 35.8 1305.61 36.13H1307.03Z" fill="#5C4500"/>
<path d="M1300.71 13.18C1300.71 13.18 1309.36 13.11 1313.37 18.84C1317.38 24.57 1318.3 33 1318.3 33C1318.3 33 1318.97 22.22 1313.86 17.59C1308.75 12.98 1300.71 13.18 1300.71 13.18Z" fill="#FFD600"/>
<path d="M416 69.36H293.73V84.94H416V69.36Z" fill="#FFB200"/>
<path d="M307.6 69.94L295.06 70.52V69.36L337.15 69.46L307.6 69.94Z" fill="#FFD600"/>
<path d="M399.31 69.94L413.34 70.52V69.36L334.91 69.46L399.31 69.94Z" fill="#FFD600"/>
<path d="M416.32 73.5C416.32 73.5 412.02 79.17 401.39 80.33C390.76 81.48 294.4 82.67 294.4 82.67L293.74 84.95H416L416.32 73.5Z" fill="#E78900"/>
<path d="M293.23 69.46H240.15V85.04H293.23V69.46Z" fill="#FFB200"/>
<path d="M246.49 70.62H240.72V69.46H250.53L246.49 70.62Z" fill="#FFD600"/>
<path d="M286.3 70.62H292.07V69.46H282.27L286.3 70.62Z" fill="#FFD600"/>
<path d="M293.37 74.76C293.37 74.76 291.5 79.27 286.89 80.42C284.92 80.91 276.16 81.41 266.76 81.82C257.37 81.41 248.61 80.91 246.63 80.42C242.01 79.27 240.15 74.76 240.15 74.76L240.27 84.06L240.15 85.04H240.29H293.23H293.37L293.25 84.06L293.37 74.76Z" fill="#E78900"/>
<path d="M240.44 89.08C239.64 89.08 239 88.43 239 87.64V66.29C239 65.49 239.65 64.85 240.44 64.85C241.24 64.85 241.88 65.5 241.88 66.29V87.64C241.88 88.43 241.23 89.08 240.44 89.08Z" fill="#FFB200"/>
<path d="M240.44 64.85H240.3C239.58 64.85 239 66.01 239 67.45V86.49C239 87.92 239.58 89.09 240.3 89.09H240.44V64.85Z" fill="#FF8D00"/>
<path d="M238.99 70.07C238.66 70.14 238.41 70.43 238.41 70.78C238.41 71.13 238.66 71.42 238.99 71.49V70.07Z" fill="#5C4500"/>
<path d="M241.88 70.07C242.21 70.14 242.46 70.43 242.46 70.78C242.46 71.13 242.21 71.42 241.88 71.49V70.07Z" fill="#5C4500"/>
<path d="M238.99 76.41C238.66 76.48 238.41 76.77 238.41 77.12C238.41 77.47 238.66 77.76 238.99 77.83V76.41Z" fill="#5C4500"/>
<path d="M241.88 76.41C242.21 76.48 242.46 76.77 242.46 77.12C242.46 77.47 242.21 77.76 241.88 77.83V76.41Z" fill="#5C4500"/>
<path d="M238.99 82.76C238.66 82.83 238.41 83.12 238.41 83.47C238.41 83.82 238.66 84.11 238.99 84.18V82.76Z" fill="#5C4500"/>
<path d="M241.88 82.76C242.21 82.83 242.46 83.12 242.46 83.47C242.46 83.82 242.21 84.11 241.88 84.18V82.76Z" fill="#5C4500"/>
<path d="M293.52 89.08C292.72 89.08 292.08 88.43 292.08 87.64V66.29C292.08 65.49 292.73 64.85 293.52 64.85C294.32 64.85 294.96 65.5 294.96 66.29V87.64C294.96 88.43 294.31 89.08 293.52 89.08Z" fill="#FFB200"/>
<path d="M293.52 64.85H293.38C292.66 64.85 292.08 66.01 292.08 67.45V86.49C292.08 87.92 292.66 89.09 293.38 89.09H293.52V64.85Z" fill="#FF8D00"/>
<path d="M292.07 70.07C291.74 70.14 291.49 70.43 291.49 70.78C291.49 71.13 291.74 71.42 292.07 71.49V70.07Z" fill="#5C4500"/>
<path d="M294.96 70.07C295.29 70.14 295.54 70.43 295.54 70.78C295.54 71.13 295.29 71.42 294.96 71.49V70.07Z" fill="#5C4500"/>
<path d="M292.07 76.41C291.74 76.48 291.49 76.77 291.49 77.12C291.49 77.47 291.74 77.76 292.07 77.83V76.41Z" fill="#5C4500"/>
<path d="M294.96 76.41C295.29 76.48 295.54 76.77 295.54 77.12C295.54 77.47 295.29 77.76 294.96 77.83V76.41Z" fill="#5C4500"/>
<path d="M292.07 82.76C291.74 82.83 291.49 83.12 291.49 83.47C291.49 83.82 291.74 84.11 292.07 84.18V82.76Z" fill="#5C4500"/>
<path d="M294.96 82.76C295.29 82.83 295.54 83.12 295.54 83.47C295.54 83.82 295.29 84.11 294.96 84.18V82.76Z" fill="#5C4500"/>
<path d="M285.73 70.04H248.23C256.31 70.04 259.77 59.65 259.77 59.65H274.19C274.19 59.65 277.07 70.04 285.73 70.04Z" fill="#FFB200"/>
<path d="M274.95 61.69C274.95 61.69 264.35 65.43 258.02 70.04H248.23C248.23 70.04 256.31 69.46 259.77 59.65H274.19L274.95 61.69Z" fill="#FFA500"/>
<path d="M279.09 59.08C279.09 59.88 278.44 60.52 277.65 60.52H256.3C255.5 60.52 254.86 59.87 254.86 59.08C254.86 58.28 255.51 57.64 256.3 57.64H277.65C278.45 57.63 279.09 58.28 279.09 59.08Z" fill="#FFB200"/>
<path d="M254.86 59.08V59.22C254.86 59.94 256.02 60.52 257.46 60.52H276.5C278.23 60.52 279.1 59.94 279.1 59.22V59.08H254.86Z" fill="#FF8D00"/>
<path d="M262.39 60.52C262.46 60.85 262.75 61.1 263.1 61.1C263.45 61.1 263.74 60.85 263.81 60.52H262.39Z" fill="#5C4500"/>
<path d="M262.39 57.63C262.46 57.3 262.75 57.05 263.1 57.05C263.45 57.05 263.74 57.3 263.81 57.63H262.39Z" fill="#5C4500"/>
<path d="M270.47 60.52C270.54 60.85 270.83 61.1 271.18 61.1C271.53 61.1 271.82 60.85 271.89 60.52H270.47Z" fill="#5C4500"/>
<path d="M270.47 57.63C270.54 57.3 270.83 57.05 271.18 57.05C271.53 57.05 271.82 57.3 271.89 57.63H270.47Z" fill="#5C4500"/>
<path d="M258.61 63.69C258.61 63.69 256.88 67.15 253.13 69.07C253.13 69.07 258.03 68.88 259.77 63.69H258.61Z" fill="#FFD600"/>
<path d="M275.63 63.69C275.63 63.69 277.36 67.15 281.11 69.07C281.11 69.07 276.21 68.88 274.47 63.69H275.63Z" fill="#FFD600"/>
<path d="M240.58 69.36H118.31V84.94H240.58V69.36Z" fill="#FFB200"/>
<path d="M132.18 69.94L119.64 70.52V69.36L161.73 69.46L132.18 69.94Z" fill="#FFD600"/>
<path d="M223.89 69.94L237.93 70.52V69.36L159.49 69.46L223.89 69.94Z" fill="#FFD600"/>
<path d="M240.9 73.5C240.9 73.5 236.6 79.17 225.97 80.33C215.34 81.48 118.98 82.67 118.98 82.67L118.32 84.95H240.59L240.9 73.5Z" fill="#E78900"/>
<path d="M117.81 69.46H64.73V85.04H117.81V69.46Z" fill="#FFB200"/>
<path d="M71.0801 70.62H65.3101V69.46H75.1201L71.0801 70.62Z" fill="#FFD600"/>
<path d="M110.89 70.62H116.66V69.46H106.85L110.89 70.62Z" fill="#FFD600"/>
<path d="M117.95 74.76C117.95 74.76 116.08 79.27 111.47 80.42C109.5 80.91 100.74 81.41 91.34 81.82C81.95 81.41 73.19 80.91 71.21 80.42C66.59 79.27 64.73 74.76 64.73 74.76L64.85 84.06L64.73 85.04H64.87H117.81H117.95L117.83 84.06L117.95 74.76Z" fill="#E78900"/>
<path d="M65.0201 89.08C64.2201 89.08 63.5801 88.43 63.5801 87.64V66.29C63.5801 65.49 64.2301 64.85 65.0201 64.85C65.8201 64.85 66.4601 65.5 66.4601 66.29V87.64C66.4601 88.43 65.8201 89.08 65.0201 89.08Z" fill="#FFB200"/>
<path d="M65.0201 64.85H64.8801C64.1601 64.85 63.5801 66.01 63.5801 67.45V86.49C63.5801 87.92 64.1601 89.09 64.8801 89.09H65.0201V64.85Z" fill="#FF8D00"/>
<path d="M63.58 70.07C63.25 70.13 63 70.43 63 70.77C63 71.11 63.25 71.41 63.58 71.48V70.07Z" fill="#5C4500"/>
<path d="M66.46 70.07C66.79 70.14 67.04 70.43 67.04 70.78C67.04 71.13 66.79 71.42 66.46 71.49V70.07Z" fill="#5C4500"/>
<path d="M63.58 76.41C63.25 76.48 63 76.77 63 77.12C63 77.47 63.25 77.76 63.58 77.83V76.41Z" fill="#5C4500"/>
<path d="M66.46 76.41C66.79 76.48 67.04 76.77 67.04 77.12C67.04 77.47 66.79 77.76 66.46 77.83V76.41Z" fill="#5C4500"/>
<path d="M63.58 82.76C63.25 82.83 63 83.12 63 83.47C63 83.82 63.25 84.11 63.58 84.18V82.76Z" fill="#5C4500"/>
<path d="M66.46 82.76C66.79 82.83 67.04 83.12 67.04 83.47C67.04 83.82 66.79 84.11 66.46 84.18V82.76Z" fill="#5C4500"/>
<path d="M118.1 89.08C117.3 89.08 116.66 88.43 116.66 87.64V66.29C116.66 65.49 117.31 64.85 118.1 64.85C118.9 64.85 119.54 65.5 119.54 66.29V87.64C119.54 88.43 118.9 89.08 118.1 89.08Z" fill="#FFB200"/>
<path d="M118.1 64.85H117.96C117.24 64.85 116.66 66.01 116.66 67.45V86.49C116.66 87.92 117.24 89.09 117.96 89.09H118.1V64.85Z" fill="#FF8D00"/>
<path d="M116.66 70.07C116.33 70.14 116.08 70.43 116.08 70.78C116.08 71.13 116.33 71.42 116.66 71.49V70.07Z" fill="#5C4500"/>
<path d="M119.54 70.07C119.87 70.14 120.12 70.43 120.12 70.78C120.12 71.13 119.87 71.42 119.54 71.49V70.07Z" fill="#5C4500"/>
<path d="M116.66 76.41C116.33 76.48 116.08 76.77 116.08 77.12C116.08 77.47 116.33 77.76 116.66 77.83V76.41Z" fill="#5C4500"/>
<path d="M119.54 76.41C119.87 76.48 120.12 76.77 120.12 77.12C120.12 77.47 119.87 77.76 119.54 77.83V76.41Z" fill="#5C4500"/>
<path d="M116.66 82.76C116.33 82.83 116.08 83.12 116.08 83.47C116.08 83.82 116.33 84.11 116.66 84.18V82.76Z" fill="#5C4500"/>
<path d="M119.54 82.76C119.87 82.83 120.12 83.12 120.12 83.47C120.12 83.82 119.87 84.11 119.54 84.18V82.76Z" fill="#5C4500"/>
<path d="M110.31 70.04H72.8101C80.8901 70.04 84.3501 59.65 84.3501 59.65H98.7701C98.7701 59.65 101.66 70.04 110.31 70.04Z" fill="#FFB200"/>
<path d="M99.5301 61.69C99.5301 61.69 88.9301 65.43 82.6001 70.04H72.8101C72.8101 70.04 80.8901 69.46 84.3501 59.65H98.7701L99.5301 61.69Z" fill="#FFA500"/>
<path d="M103.68 59.08C103.68 59.88 103.03 60.52 102.24 60.52H80.8899C80.0899 60.52 79.45 59.87 79.45 59.08C79.45 58.28 80.0999 57.64 80.8899 57.64H102.24C103.03 57.63 103.68 58.28 103.68 59.08Z" fill="#FFB200"/>
<path d="M79.4399 59.08V59.22C79.4399 59.94 80.5999 60.52 82.0399 60.52H101.08C102.81 60.52 103.68 59.94 103.68 59.22V59.08H79.4399Z" fill="#FF8D00"/>
<path d="M86.97 60.52C87.04 60.85 87.33 61.1 87.68 61.1C88.03 61.1 88.32 60.85 88.39 60.52H86.97Z" fill="#5C4500"/>
<path d="M86.97 57.63C87.04 57.3 87.33 57.05 87.68 57.05C88.03 57.05 88.32 57.3 88.39 57.63H86.97Z" fill="#5C4500"/>
<path d="M95.05 60.52C95.12 60.85 95.41 61.1 95.76 61.1C96.11 61.1 96.4001 60.85 96.4701 60.52H95.05Z" fill="#5C4500"/>
<path d="M95.05 57.63C95.12 57.3 95.41 57.05 95.76 57.05C96.11 57.05 96.4001 57.3 96.4701 57.63H95.05Z" fill="#5C4500"/>
<path d="M83.19 63.69C83.19 63.69 81.46 67.15 77.71 69.07C77.71 69.07 82.61 68.88 84.35 63.69H83.19Z" fill="#FFD600"/>
<path d="M100.21 63.69C100.21 63.69 101.94 67.15 105.69 69.07C105.69 69.07 100.79 68.88 99.05 63.69H100.21Z" fill="#FFD600"/>
<path d="M266.98 62.14C259.35 62.14 253.16 68.33 253.16 75.96C253.16 83.59 259.35 89.78 266.98 89.78C274.61 89.78 280.8 83.59 280.8 75.96C280.8 68.33 274.61 62.14 266.98 62.14ZM266.98 87.12C260.81 87.12 255.82 82.12 255.82 75.96C255.82 69.79 260.82 64.8 266.98 64.8C273.15 64.8 278.14 69.8 278.14 75.96C278.14 82.13 273.14 87.12 266.98 87.12Z" fill="#FF3617"/>
<path d="M270.17 75.96C270.17 77.72 268.74 79.15 266.98 79.15C265.22 79.15 263.79 77.72 263.79 75.96C263.79 74.2 265.22 72.77 266.98 72.77C268.74 72.77 270.17 74.2 270.17 75.96Z" fill="#FF3617"/>
<path d="M259.82 87.37L256.86 84.84L266.11 75.96L267.18 76.88L259.82 87.37Z" fill="#FF3617"/>
<path d="M268.98 62.61H265.09L266.33 75.36H267.74L268.98 62.61Z" fill="#FF3617"/>
<path d="M280.2 74.09L279.07 70.35L267.22 75.23L267.63 76.59L280.2 74.09Z" fill="#FF3617"/>
<path d="M253.83 73.45L255.1 69.76L266.75 75.11L266.29 76.45L253.83 73.45Z" fill="#FF3617"/>
<path d="M273.68 87.67L276.74 85.25L267.85 76.01L266.74 76.89L273.68 87.67Z" fill="#FF3617"/>
<path d="M255.43 73.24C256.165 73.24 256.76 72.6446 256.76 71.91C256.76 71.1755 256.165 70.58 255.43 70.58C254.696 70.58 254.1 71.1755 254.1 71.91C254.1 72.6446 254.696 73.24 255.43 73.24Z" fill="#FFE473"/>
<path d="M268.45 63.4C268.45 64.13 267.85 64.73 267.12 64.73C266.39 64.73 265.79 64.14 265.79 63.4C265.79 62.67 266.39 62.07 267.12 62.07C267.86 62.07 268.45 62.67 268.45 63.4Z" fill="#FFE473"/>
<path d="M278.29 73.77C279.025 73.77 279.62 73.1746 279.62 72.44C279.62 71.7055 279.025 71.11 278.29 71.11C277.556 71.11 276.96 71.7055 276.96 72.44C276.96 73.1746 277.556 73.77 278.29 73.77Z" fill="#FFE473"/>
<path d="M268.31 75.96C268.31 76.69 267.71 77.29 266.98 77.29C266.25 77.29 265.65 76.7 265.65 75.96C265.65 75.23 266.25 74.63 266.98 74.63C267.72 74.63 268.31 75.22 268.31 75.96Z" fill="#FFE473"/>
<path d="M273.21 85.46C273.15 84.73 273.69 84.08 274.42 84.02C275.15 83.96 275.8 84.5 275.86 85.23C275.92 85.96 275.38 86.61 274.65 86.67C273.92 86.73 273.27 86.19 273.21 85.46Z" fill="#FFE473"/>
<path d="M257.83 85.31C257.77 84.58 258.31 83.93 259.04 83.87C259.77 83.81 260.42 84.35 260.48 85.08C260.54 85.81 260 86.46 259.27 86.52C258.53 86.59 257.89 86.05 257.83 85.31Z" fill="#FFE473"/>
<path d="M445.45 58.17C445.45 58.17 445.45 58.26 445.45 63.93C445.45 74.06 440.48 83.52 427.4 83.52C416.44 83.52 417.17 83.52 417.17 83.52V67.95C417.17 67.95 420.76 67.95 424.17 67.95C428.5 67.95 429.87 65.38 429.87 60.21C429.87 57.17 429.87 58.17 429.87 58.17H445.45Z" fill="#FFB200"/>
<path d="M417.17 75.93C417.17 75.93 423.09 75.93 425.63 75.93C429.72 75.93 435.88 72.33 435.88 66.79C435.88 62.05 435.88 58.01 435.88 58.01L429.8 57.86C429.8 57.86 429.87 57.28 429.87 60.6C429.87 66.87 427.08 67.94 421.6 67.94C417.18 67.94 417.17 67.94 417.17 67.94V75.93Z" fill="#E78900"/>
<path d="M417.16 63.97C417.96 63.97 418.6 64.62 418.6 65.41V86.76C418.6 87.56 417.95 88.2 417.16 88.2C416.36 88.2 415.72 87.55 415.72 86.76V65.41C415.72 64.62 416.37 63.97 417.16 63.97Z" fill="#FFB200"/>
<path d="M417.16 88.2H417.3C418.02 88.2 418.6 87.04 418.6 85.6V66.57C418.6 65.14 418.02 63.97 417.3 63.97H417.16V88.2Z" fill="#FF8D00"/>
<path d="M418.61 82.98C418.94 82.91 419.19 82.62 419.19 82.27C419.19 81.92 418.94 81.63 418.61 81.56V82.98Z" fill="#5C4500"/>
<path d="M415.72 82.98C415.39 82.91 415.14 82.62 415.14 82.27C415.14 81.92 415.39 81.63 415.72 81.56V82.98Z" fill="#5C4500"/>
<path d="M418.61 76.63C418.94 76.56 419.19 76.27 419.19 75.92C419.19 75.57 418.94 75.28 418.61 75.21V76.63Z" fill="#5C4500"/>
<path d="M415.72 76.63C415.39 76.56 415.14 76.27 415.14 75.92C415.14 75.57 415.39 75.28 415.72 75.21V76.63Z" fill="#5C4500"/>
<path d="M418.61 70.29C418.94 70.22 419.19 69.93 419.19 69.58C419.19 69.23 418.94 68.94 418.61 68.87V70.29Z" fill="#5C4500"/>
<path d="M415.72 70.29C415.39 70.22 415.14 69.93 415.14 69.58C415.14 69.23 415.39 68.94 415.72 68.87V70.29Z" fill="#5C4500"/>
<path d="M425.63 58.59C425.63 57.79 426.28 57.15 427.07 57.15H448.42C449.22 57.15 449.86 57.8 449.86 58.59C449.86 59.39 449.21 60.03 448.42 60.03H427.07C426.28 60.03 425.63 59.39 425.63 58.59Z" fill="#FFB200"/>
<path d="M449.86 58.59V58.45C449.86 57.73 448.7 57.15 447.26 57.15H428.22C426.79 57.15 425.62 57.73 425.62 58.45V58.59H449.86Z" fill="#FF8D00"/>
<path d="M444.64 57.15C444.57 56.82 444.28 56.57 443.93 56.57C443.58 56.57 443.29 56.82 443.22 57.15H444.64Z" fill="#5C4500"/>
<path d="M444.64 60.03C444.57 60.36 444.28 60.61 443.93 60.61C443.58 60.61 443.29 60.36 443.22 60.03H444.64Z" fill="#5C4500"/>
<path d="M438.29 57.15C438.22 56.82 437.93 56.57 437.58 56.57C437.23 56.57 436.94 56.82 436.87 57.15H438.29Z" fill="#5C4500"/>
<path d="M438.29 60.03C438.22 60.36 437.93 60.61 437.58 60.61C437.23 60.61 436.94 60.36 436.87 60.03H438.29Z" fill="#5C4500"/>
<path d="M431.95 57.15C431.88 56.82 431.59 56.57 431.24 56.57C430.89 56.57 430.6 56.82 430.53 57.15H431.95Z" fill="#5C4500"/>
<path d="M431.95 60.03C431.88 60.36 431.59 60.61 431.24 60.61C430.89 60.61 430.6 60.36 430.53 60.03H431.95Z" fill="#5C4500"/>
<path d="M425.63 82.98C425.63 82.98 434.28 83.05 438.29 77.32C442.3 71.59 443.22 63.16 443.22 63.16C443.22 63.16 443.89 73.94 438.78 78.57C433.67 83.19 425.63 82.98 425.63 82.98Z" fill="#FFD600"/>
<path d="M1291.03 69.36H1168.76V84.94H1291.03V69.36Z" fill="#FFB200"/>
<path d="M1182.64 69.94L1170.09 70.52V69.36L1212.18 69.46L1182.64 69.94Z" fill="#FFD600"/>
<path d="M1274.34 69.94L1288.38 70.52V69.36L1209.94 69.46L1274.34 69.94Z" fill="#FFD600"/>
<path d="M1291.35 73.5C1291.35 73.5 1287.05 79.17 1276.42 80.33C1265.79 81.48 1169.43 82.67 1169.43 82.67L1168.77 84.95H1291.04L1291.35 73.5Z" fill="#E78900"/>
<path d="M1168.26 69.46H1115.18V85.04H1168.26V69.46Z" fill="#FFB200"/>
<path d="M1121.53 70.62H1115.76V69.46H1125.57L1121.53 70.62Z" fill="#FFD600"/>
<path d="M1161.34 70.62H1167.11V69.46H1157.3L1161.34 70.62Z" fill="#FFD600"/>
<path d="M1168.4 74.76C1168.4 74.76 1166.53 79.27 1161.92 80.42C1159.95 80.91 1151.19 81.41 1141.79 81.82C1132.4 81.41 1123.64 80.91 1121.66 80.42C1117.04 79.27 1115.18 74.76 1115.18 74.76L1115.3 84.06L1115.18 85.04H1115.32H1168.26H1168.4L1168.28 84.06L1168.4 74.76Z" fill="#E78900"/>
<path d="M1115.47 89.08C1114.67 89.08 1114.03 88.43 1114.03 87.64V66.29C1114.03 65.49 1114.68 64.85 1115.47 64.85C1116.27 64.85 1116.91 65.5 1116.91 66.29V87.64C1116.91 88.43 1116.27 89.08 1115.47 89.08Z" fill="#FFB200"/>
<path d="M1115.47 64.85H1115.33C1114.61 64.85 1114.03 66.01 1114.03 67.45V86.49C1114.03 87.92 1114.61 89.09 1115.33 89.09H1115.47V64.85Z" fill="#FF8D00"/>
<path d="M1114.03 70.07C1113.7 70.14 1113.45 70.43 1113.45 70.78C1113.45 71.13 1113.7 71.42 1114.03 71.49V70.07Z" fill="#5C4500"/>
<path d="M1116.91 70.07C1117.24 70.14 1117.49 70.43 1117.49 70.78C1117.49 71.13 1117.24 71.42 1116.91 71.49V70.07Z" fill="#5C4500"/>
<path d="M1114.03 76.41C1113.7 76.48 1113.45 76.77 1113.45 77.12C1113.45 77.47 1113.7 77.76 1114.03 77.83V76.41Z" fill="#5C4500"/>
<path d="M1116.91 76.41C1117.24 76.48 1117.49 76.77 1117.49 77.12C1117.49 77.47 1117.24 77.76 1116.91 77.83V76.41Z" fill="#5C4500"/>
<path d="M1114.03 82.76C1113.7 82.83 1113.45 83.12 1113.45 83.47C1113.45 83.82 1113.7 84.11 1114.03 84.18V82.76Z" fill="#5C4500"/>
<path d="M1116.91 82.76C1117.24 82.83 1117.49 83.12 1117.49 83.47C1117.49 83.82 1117.24 84.11 1116.91 84.18V82.76Z" fill="#5C4500"/>
<path d="M1168.55 89.08C1167.75 89.08 1167.11 88.43 1167.11 87.64V66.29C1167.11 65.49 1167.76 64.85 1168.55 64.85C1169.35 64.85 1169.99 65.5 1169.99 66.29V87.64C1169.99 88.43 1169.35 89.08 1168.55 89.08Z" fill="#FFB200"/>
<path d="M1168.55 64.85H1168.41C1167.69 64.85 1167.11 66.01 1167.11 67.45V86.49C1167.11 87.92 1167.69 89.09 1168.41 89.09H1168.55V64.85Z" fill="#FF8D00"/>
<path d="M1167.11 70.07C1166.78 70.14 1166.53 70.43 1166.53 70.78C1166.53 71.13 1166.78 71.42 1167.11 71.49V70.07Z" fill="#5C4500"/>
<path d="M1169.99 70.07C1170.32 70.14 1170.57 70.43 1170.57 70.78C1170.57 71.13 1170.32 71.42 1169.99 71.49V70.07Z" fill="#5C4500"/>
<path d="M1167.11 76.41C1166.78 76.48 1166.53 76.77 1166.53 77.12C1166.53 77.47 1166.78 77.76 1167.11 77.83V76.41Z" fill="#5C4500"/>
<path d="M1169.99 76.41C1170.32 76.48 1170.57 76.77 1170.57 77.12C1170.57 77.47 1170.32 77.76 1169.99 77.83V76.41Z" fill="#5C4500"/>
<path d="M1167.11 82.76C1166.78 82.83 1166.53 83.12 1166.53 83.47C1166.53 83.82 1166.78 84.11 1167.11 84.18V82.76Z" fill="#5C4500"/>
<path d="M1169.99 82.76C1170.32 82.83 1170.57 83.12 1170.57 83.47C1170.57 83.82 1170.32 84.11 1169.99 84.18V82.76Z" fill="#5C4500"/>
<path d="M1160.76 70.04H1123.26C1131.34 70.04 1134.8 59.65 1134.8 59.65H1149.22C1149.22 59.65 1152.11 70.04 1160.76 70.04Z" fill="#FFB200"/>
<path d="M1149.99 61.69C1149.99 61.69 1139.39 65.43 1133.06 70.04H1123.27C1123.27 70.04 1131.35 69.46 1134.81 59.65H1149.23L1149.99 61.69Z" fill="#FFA500"/>
<path d="M1154.13 59.08C1154.13 59.88 1153.48 60.52 1152.69 60.52H1131.34C1130.54 60.52 1129.9 59.87 1129.9 59.08C1129.9 58.28 1130.55 57.64 1131.34 57.64H1152.69C1153.48 57.63 1154.13 58.28 1154.13 59.08Z" fill="#FFB200"/>
<path d="M1129.89 59.08V59.22C1129.89 59.94 1131.05 60.52 1132.49 60.52H1151.53C1153.26 60.52 1154.13 59.94 1154.13 59.22V59.08H1129.89Z" fill="#FF8D00"/>
<path d="M1137.42 60.52C1137.49 60.85 1137.78 61.1 1138.13 61.1C1138.48 61.1 1138.77 60.85 1138.84 60.52H1137.42Z" fill="#5C4500"/>
<path d="M1137.42 57.63C1137.49 57.3 1137.78 57.05 1138.13 57.05C1138.48 57.05 1138.77 57.3 1138.84 57.63H1137.42Z" fill="#5C4500"/>
<path d="M1145.5 60.52C1145.57 60.85 1145.86 61.1 1146.21 61.1C1146.56 61.1 1146.85 60.85 1146.92 60.52H1145.5Z" fill="#5C4500"/>
<path d="M1145.5 57.63C1145.57 57.3 1145.86 57.05 1146.21 57.05C1146.56 57.05 1146.85 57.3 1146.92 57.63H1145.5Z" fill="#5C4500"/>
<path d="M1133.65 63.69C1133.65 63.69 1131.92 67.15 1128.17 69.07C1128.17 69.07 1133.07 68.88 1134.81 63.69H1133.65Z" fill="#FFD600"/>
<path d="M1150.67 63.69C1150.67 63.69 1152.4 67.15 1156.15 69.07C1156.15 69.07 1151.25 68.88 1149.51 63.69H1150.67Z" fill="#FFD600"/>
<path d="M1141.79 63.49C1134.16 63.49 1127.97 69.68 1127.97 77.31C1127.97 84.94 1134.16 91.13 1141.79 91.13C1149.42 91.13 1155.61 84.94 1155.61 77.31C1155.61 69.67 1149.43 63.49 1141.79 63.49ZM1141.79 88.47C1135.62 88.47 1130.63 83.47 1130.63 77.31C1130.63 71.14 1135.63 66.15 1141.79 66.15C1147.96 66.15 1152.95 71.15 1152.95 77.31C1152.96 83.47 1147.96 88.47 1141.79 88.47Z" fill="#FF3617"/>
<path d="M1144.98 77.31C1144.98 79.07 1143.55 80.5 1141.79 80.5C1140.03 80.5 1138.6 79.07 1138.6 77.31C1138.6 75.55 1140.03 74.12 1141.79 74.12C1143.55 74.12 1144.98 75.55 1144.98 77.31Z" fill="#FF3617"/>
<path d="M1134.64 88.72L1131.68 86.18L1140.92 77.3L1142 78.23L1134.64 88.72Z" fill="#FF3617"/>
<path d="M1143.8 63.95H1139.9L1141.14 76.71H1142.56L1143.8 63.95Z" fill="#FF3617"/>
<path d="M1155.01 75.43L1153.89 71.7L1142.03 76.58L1142.44 77.94L1155.01 75.43Z" fill="#FF3617"/>
<path d="M1128.64 74.8L1129.92 71.11L1141.57 76.46L1141.1 77.8L1128.64 74.8Z" fill="#FF3617"/>
<path d="M1148.5 89.02L1151.56 86.6L1142.67 77.36L1141.56 78.24L1148.5 89.02Z" fill="#FF3617"/>
<path d="M1130.24 74.59C1130.97 74.59 1131.57 73.9945 1131.57 73.26C1131.57 72.5255 1130.97 71.93 1130.24 71.93C1129.51 71.93 1128.91 72.5255 1128.91 73.26C1128.91 73.9945 1129.51 74.59 1130.24 74.59Z" fill="#FFE473"/>
<path d="M1141.94 66.08C1142.67 66.08 1143.27 65.4845 1143.27 64.75C1143.27 64.0155 1142.67 63.42 1141.94 63.42C1141.21 63.42 1140.61 64.0155 1140.61 64.75C1140.61 65.4845 1141.21 66.08 1141.94 66.08Z" fill="#FFE473"/>
<path d="M1154.43 73.79C1154.43 74.52 1153.84 75.12 1153.1 75.12C1152.37 75.12 1151.77 74.52 1151.77 73.79C1151.77 73.06 1152.36 72.46 1153.1 72.46C1153.84 72.46 1154.43 73.06 1154.43 73.79Z" fill="#FFE473"/>
<path d="M1143.13 77.3C1143.13 78.03 1142.54 78.63 1141.8 78.63C1141.07 78.63 1140.47 78.03 1140.47 77.3C1140.47 76.57 1141.06 75.97 1141.8 75.97C1142.53 75.98 1143.13 76.57 1143.13 77.3Z" fill="#FFE473"/>
<path d="M1148.02 86.81C1147.96 86.08 1148.5 85.43 1149.23 85.37C1149.96 85.31 1150.61 85.85 1150.67 86.58C1150.73 87.31 1150.19 87.96 1149.46 88.02C1148.73 88.08 1148.09 87.54 1148.02 86.81Z" fill="#FFE473"/>
<path d="M1132.64 86.66C1132.58 85.93 1133.12 85.28 1133.85 85.22C1134.58 85.16 1135.23 85.7 1135.29 86.43C1135.35 87.16 1134.81 87.81 1134.08 87.87C1133.35 87.94 1132.7 87.39 1132.64 86.66Z" fill="#FFE473"/>
<path d="M1320.49 58.17C1320.49 58.17 1320.49 58.26 1320.49 63.93C1320.49 74.06 1315.52 83.52 1302.44 83.52C1291.48 83.52 1292.22 83.52 1292.22 83.52V67.95C1292.22 67.95 1295.81 67.95 1299.22 67.95C1303.55 67.95 1304.92 65.38 1304.92 60.21C1304.92 57.17 1304.92 58.17 1304.92 58.17H1320.49Z" fill="#FFB200"/>
<path d="M1292.21 75.93C1292.21 75.93 1298.13 75.93 1300.67 75.93C1304.76 75.93 1310.92 72.33 1310.92 66.79C1310.92 62.05 1310.92 58.01 1310.92 58.01L1304.84 57.86C1304.84 57.86 1304.91 57.28 1304.91 60.6C1304.91 66.87 1302.12 67.94 1296.64 67.94C1292.22 67.94 1292.21 67.94 1292.21 67.94V75.93Z" fill="#E78900"/>
<path d="M1292.2 63.97C1293 63.97 1293.64 64.62 1293.64 65.41V86.76C1293.64 87.56 1292.99 88.2 1292.2 88.2C1291.4 88.2 1290.76 87.55 1290.76 86.76V65.41C1290.76 64.62 1291.4 63.97 1292.2 63.97Z" fill="#FFB200"/>
<path d="M1292.2 88.2H1292.34C1293.06 88.2 1293.64 87.04 1293.64 85.6V66.57C1293.64 65.14 1293.06 63.97 1292.34 63.97H1292.2V88.2Z" fill="#FF8D00"/>
<path d="M1293.64 82.98C1293.97 82.91 1294.22 82.62 1294.22 82.27C1294.22 81.92 1293.97 81.63 1293.64 81.56V82.98Z" fill="#5C4500"/>
<path d="M1290.76 82.98C1290.43 82.91 1290.18 82.62 1290.18 82.27C1290.18 81.92 1290.43 81.63 1290.76 81.56V82.98Z" fill="#5C4500"/>
<path d="M1293.64 76.63C1293.97 76.56 1294.22 76.27 1294.22 75.92C1294.22 75.57 1293.97 75.28 1293.64 75.21V76.63Z" fill="#5C4500"/>
<path d="M1290.76 76.63C1290.43 76.56 1290.18 76.27 1290.18 75.92C1290.18 75.57 1290.43 75.28 1290.76 75.21V76.63Z" fill="#5C4500"/>
<path d="M1293.64 70.29C1293.97 70.22 1294.22 69.93 1294.22 69.58C1294.22 69.23 1293.97 68.94 1293.64 68.87V70.29Z" fill="#5C4500"/>
<path d="M1290.76 70.29C1290.43 70.22 1290.18 69.93 1290.18 69.58C1290.18 69.23 1290.43 68.94 1290.76 68.87V70.29Z" fill="#5C4500"/>
<path d="M1300.66 58.59C1300.66 57.79 1301.31 57.15 1302.1 57.15H1323.45C1324.25 57.15 1324.89 57.8 1324.89 58.59C1324.89 59.39 1324.24 60.03 1323.45 60.03H1302.1C1301.31 60.03 1300.66 59.39 1300.66 58.59Z" fill="#FFB200"/>
<path d="M1324.9 58.59V58.45C1324.9 57.73 1323.74 57.15 1322.3 57.15H1303.26C1301.83 57.15 1300.66 57.73 1300.66 58.45V58.59H1324.9Z" fill="#FF8D00"/>
<path d="M1319.68 57.15C1319.61 56.82 1319.32 56.57 1318.97 56.57C1318.62 56.57 1318.33 56.82 1318.26 57.15H1319.68Z" fill="#5C4500"/>
<path d="M1319.68 60.03C1319.61 60.36 1319.32 60.61 1318.97 60.61C1318.62 60.61 1318.33 60.36 1318.26 60.03H1319.68Z" fill="#5C4500"/>
<path d="M1313.33 57.15C1313.26 56.82 1312.97 56.57 1312.62 56.57C1312.27 56.57 1311.98 56.82 1311.91 57.15H1313.33Z" fill="#5C4500"/>
<path d="M1313.33 60.03C1313.26 60.36 1312.97 60.61 1312.62 60.61C1312.27 60.61 1311.98 60.36 1311.91 60.03H1313.33Z" fill="#5C4500"/>
<path d="M1306.98 57.15C1306.91 56.82 1306.62 56.57 1306.27 56.57C1305.92 56.57 1305.63 56.82 1305.56 57.15H1306.98Z" fill="#5C4500"/>
<path d="M1306.98 60.03C1306.91 60.36 1306.62 60.61 1306.27 60.61C1305.92 60.61 1305.63 60.36 1305.56 60.03H1306.98Z" fill="#5C4500"/>
<path d="M1300.66 82.98C1300.66 82.98 1309.31 83.05 1313.32 77.32C1317.33 71.59 1318.25 63.16 1318.25 63.16C1318.25 63.16 1318.92 73.94 1313.81 78.57C1308.7 83.19 1300.66 82.98 1300.66 82.98Z" fill="#FFD600"/>
<path d="M1102.59 123.039V89.9986H1087.01V123.039H1102.59Z" fill="#FFB200"/>
<path d="M1102.01 93.75L1101.43 90.36H1102.58L1102.49 101.73L1102.01 93.75Z" fill="#FFD600"/>
<path d="M1102.01 118.53L1101.43 122.32H1102.58L1102.49 101.13L1102.01 118.53Z" fill="#FFD600"/>
<path d="M1098.45 123.13C1098.45 123.13 1092.78 121.97 1091.62 119.09C1090.47 116.22 1089.28 90.18 1089.28 90.18L1087 90V123.04L1098.45 123.13Z" fill="#E78900"/>
<path d="M1087.04 94.78C1087.04 94.78 1087.04 94.69 1087.04 89.02C1087.04 78.89 1092.01 69.43 1105.09 69.43C1116.05 69.43 1115.31 69.43 1115.31 69.43V85.01C1115.31 85.01 1111.72 85.01 1108.31 85.01C1103.98 85.01 1102.61 87.58 1102.61 92.75C1102.61 95.79 1102.61 94.79 1102.61 94.79H1087.04V94.78Z" fill="#FFB200"/>
<path d="M1115.32 77.03C1115.32 77.03 1109.4 77.03 1106.86 77.03C1102.77 77.03 1096.61 80.63 1096.61 86.17C1096.61 90.91 1096.61 94.95 1096.61 94.95L1102.69 95.1C1102.69 95.1 1102.62 95.68 1102.62 92.36C1102.62 86.09 1105.41 85.02 1110.89 85.02C1115.31 85.02 1115.32 85.02 1115.32 85.02V77.03Z" fill="#E78900"/>
<path d="M1115.33 88.98C1114.53 88.98 1113.89 88.33 1113.89 87.54V66.19C1113.89 65.39 1114.54 64.75 1115.33 64.75C1116.13 64.75 1116.77 65.4 1116.77 66.19V87.54C1116.77 88.34 1116.13 88.98 1115.33 88.98Z" fill="#FFB200"/>
<path d="M1115.33 64.75H1115.19C1114.47 64.75 1113.89 65.91 1113.89 67.35V86.39C1113.89 87.82 1114.47 88.99 1115.19 88.99H1115.33V64.75Z" fill="#FF8D00"/>
<path d="M1113.89 69.97C1113.56 70.04 1113.31 70.33 1113.31 70.68C1113.31 71.03 1113.56 71.32 1113.89 71.39V69.97Z" fill="#5C4500"/>
<path d="M1116.77 69.97C1117.1 70.04 1117.35 70.33 1117.35 70.68C1117.35 71.03 1117.1 71.32 1116.77 71.39V69.97Z" fill="#5C4500"/>
<path d="M1113.89 76.32C1113.56 76.39 1113.31 76.68 1113.31 77.03C1113.31 77.38 1113.56 77.67 1113.89 77.74V76.32Z" fill="#5C4500"/>
<path d="M1116.77 76.32C1117.1 76.39 1117.35 76.68 1117.35 77.03C1117.35 77.38 1117.1 77.67 1116.77 77.74V76.32Z" fill="#5C4500"/>
<path d="M1113.89 82.67C1113.56 82.74 1113.31 83.03 1113.31 83.38C1113.31 83.73 1113.56 84.02 1113.89 84.09V82.67Z" fill="#5C4500"/>
<path d="M1116.77 82.67C1117.1 82.74 1117.35 83.03 1117.35 83.38C1117.35 83.73 1117.1 84.02 1116.77 84.09V82.67Z" fill="#5C4500"/>
<path d="M1106.86 94.37C1106.86 95.17 1106.21 95.81 1105.42 95.81H1084.07C1083.27 95.81 1082.63 95.16 1082.63 94.37C1082.63 93.57 1083.28 92.93 1084.07 92.93H1105.42C1106.22 92.92 1106.86 93.57 1106.86 94.37Z" fill="#FFB200"/>
<path d="M1082.63 94.37V94.51C1082.63 95.23 1083.79 95.81 1085.23 95.81H1104.27C1105.7 95.81 1106.87 95.23 1106.87 94.51V94.37H1082.63Z" fill="#FF8D00"/>
<path d="M1087.85 95.81C1087.92 96.14 1088.21 96.39 1088.56 96.39C1088.91 96.39 1089.2 96.14 1089.27 95.81H1087.85Z" fill="#5C4500"/>
<path d="M1087.85 92.92C1087.92 92.59 1088.21 92.34 1088.56 92.34C1088.91 92.34 1089.2 92.59 1089.27 92.92H1087.85Z" fill="#5C4500"/>
<path d="M1094.2 95.81C1094.27 96.14 1094.56 96.39 1094.91 96.39C1095.26 96.39 1095.55 96.14 1095.62 95.81H1094.2Z" fill="#5C4500"/>
<path d="M1094.2 92.92C1094.27 92.59 1094.56 92.34 1094.91 92.34C1095.26 92.34 1095.55 92.59 1095.62 92.92H1094.2Z" fill="#5C4500"/>
<path d="M1100.55 95.81C1100.62 96.14 1100.91 96.39 1101.26 96.39C1101.61 96.39 1101.9 96.14 1101.97 95.81H1100.55Z" fill="#5C4500"/>
<path d="M1100.55 92.92C1100.62 92.59 1100.91 92.34 1101.26 92.34C1101.61 92.34 1101.9 92.59 1101.97 92.92H1100.55Z" fill="#5C4500"/>
<path d="M1106.86 69.97C1106.86 69.97 1098.21 69.9 1094.2 75.63C1090.19 81.36 1089.27 89.79 1089.27 89.79C1089.27 89.79 1088.6 79.01 1093.71 74.38C1098.82 69.77 1106.86 69.97 1106.86 69.97Z" fill="#FFD600"/>
<path d="M1087.09 114.96C1087.09 114.96 1087.09 115.05 1087.09 120.72C1087.09 130.85 1092.06 140.31 1105.14 140.31C1116.1 140.31 1115.36 140.31 1115.36 140.31V124.73C1115.36 124.73 1111.77 124.73 1108.36 124.73C1104.03 124.73 1102.66 122.16 1102.66 116.99C1102.66 113.95 1102.66 114.95 1102.66 114.95H1087.09V114.96Z" fill="#FFB200"/>
<path d="M1115.37 132.72C1115.37 132.72 1109.45 132.72 1106.91 132.72C1102.82 132.72 1096.66 129.12 1096.66 123.58C1096.66 118.84 1096.66 114.8 1096.66 114.8L1102.74 114.65C1102.74 114.65 1102.67 114.07 1102.67 117.39C1102.67 123.66 1105.46 124.73 1110.94 124.73C1115.36 124.73 1115.37 124.73 1115.37 124.73V132.72Z" fill="#E78900"/>
<path d="M1115.38 120.76C1114.58 120.76 1113.94 121.41 1113.94 122.2V143.55C1113.94 144.35 1114.59 144.99 1115.38 144.99C1116.18 144.99 1116.82 144.34 1116.82 143.55V122.2C1116.82 121.41 1116.17 120.76 1115.38 120.76Z" fill="#FFB200"/>
<path d="M1115.38 144.99H1115.24C1114.52 144.99 1113.94 143.83 1113.94 142.39V123.35C1113.94 121.92 1114.52 120.75 1115.24 120.75H1115.38V144.99Z" fill="#FF8D00"/>
<path d="M1113.93 139.77C1113.6 139.7 1113.35 139.41 1113.35 139.06C1113.35 138.71 1113.6 138.42 1113.93 138.35V139.77Z" fill="#5C4500"/>
<path d="M1116.82 139.77C1117.15 139.7 1117.4 139.41 1117.4 139.06C1117.4 138.71 1117.15 138.42 1116.82 138.35V139.77Z" fill="#5C4500"/>
<path d="M1113.93 133.42C1113.6 133.35 1113.35 133.06 1113.35 132.71C1113.35 132.36 1113.6 132.07 1113.93 132V133.42Z" fill="#5C4500"/>
<path d="M1116.82 133.42C1117.15 133.35 1117.4 133.06 1117.4 132.71C1117.4 132.36 1117.15 132.07 1116.82 132V133.42Z" fill="#5C4500"/>
<path d="M1113.93 127.08C1113.6 127.01 1113.35 126.72 1113.35 126.37C1113.35 126.02 1113.6 125.73 1113.93 125.66V127.08Z" fill="#5C4500"/>
<path d="M1116.82 127.08C1117.15 127.01 1117.4 126.72 1117.4 126.37C1117.4 126.02 1117.15 125.73 1116.82 125.66V127.08Z" fill="#5C4500"/>
<path d="M1106.91 115.38C1106.91 114.58 1106.26 113.94 1105.47 113.94H1084.12C1083.32 113.94 1082.68 114.59 1082.68 115.38C1082.68 116.18 1083.33 116.82 1084.12 116.82H1105.47C1106.26 116.82 1106.91 116.18 1106.91 115.38Z" fill="#FFB200"/>
<path d="M1082.68 115.38V115.24C1082.68 114.52 1083.84 113.94 1085.28 113.94H1104.32C1105.75 113.94 1106.92 114.52 1106.92 115.24V115.38H1082.68Z" fill="#FF8D00"/>
<path d="M1087.9 113.94C1087.97 113.61 1088.26 113.36 1088.61 113.36C1088.96 113.36 1089.25 113.61 1089.32 113.94H1087.9Z" fill="#5C4500"/>
<path d="M1087.9 116.82C1087.97 117.15 1088.26 117.4 1088.61 117.4C1088.96 117.4 1089.25 117.15 1089.32 116.82H1087.9Z" fill="#5C4500"/>
<path d="M1094.25 113.94C1094.32 113.61 1094.61 113.36 1094.96 113.36C1095.31 113.36 1095.6 113.61 1095.67 113.94H1094.25Z" fill="#5C4500"/>
<path d="M1094.25 116.82C1094.32 117.15 1094.61 117.4 1094.96 117.4C1095.31 117.4 1095.6 117.15 1095.67 116.82H1094.25Z" fill="#5C4500"/>
<path d="M1100.59 113.94C1100.66 113.61 1100.95 113.36 1101.3 113.36C1101.65 113.36 1101.94 113.61 1102.01 113.94H1100.59Z" fill="#5C4500"/>
<path d="M1100.59 116.82C1100.66 117.15 1100.95 117.4 1101.3 117.4C1101.65 117.4 1101.94 117.15 1102.01 116.82H1100.59Z" fill="#5C4500"/>
<path d="M1106.91 139.77C1106.91 139.77 1098.26 139.84 1094.25 134.11C1090.24 128.38 1089.32 119.95 1089.32 119.95C1089.32 119.95 1088.65 130.73 1093.76 135.36C1098.87 139.98 1106.91 139.77 1106.91 139.77Z" fill="#FFD600"/>
<path d="M1476.86 125.12H1354.59V140.7H1476.86V125.12Z" fill="#FFB200"/>
<path d="M1368.46 125.7L1355.92 126.27V125.12L1398.01 125.22L1368.46 125.7Z" fill="#FFD600"/>
<path d="M1460.17 125.7L1474.2 126.27V125.12L1395.77 125.22L1460.17 125.7Z" fill="#FFD600"/>
<path d="M1477.18 129.26C1477.18 129.26 1472.88 134.93 1462.25 136.09C1451.62 137.24 1355.26 138.43 1355.26 138.43L1354.6 140.71H1476.87L1477.18 129.26Z" fill="#E78900"/>
<path d="M1355.02 144.83C1354.22 144.83 1353.58 144.18 1353.58 143.39V122.04C1353.58 121.24 1354.23 120.6 1355.02 120.6C1355.82 120.6 1356.46 121.25 1356.46 122.04V143.39C1356.47 144.19 1355.82 144.83 1355.02 144.83Z" fill="#FFB200"/>
<path d="M1355.02 120.6H1354.88C1354.16 120.6 1353.58 121.76 1353.58 123.2V142.24C1353.58 143.67 1354.16 144.84 1354.88 144.84H1355.02V120.6Z" fill="#FF8D00"/>
<path d="M1353.58 125.82C1353.25 125.89 1353 126.18 1353 126.53C1353 126.88 1353.25 127.17 1353.58 127.24V125.82Z" fill="#5C4500"/>
<path d="M1356.47 125.82C1356.8 125.89 1357.05 126.18 1357.05 126.53C1357.05 126.88 1356.8 127.17 1356.47 127.24V125.82Z" fill="#5C4500"/>
<path d="M1353.58 132.17C1353.25 132.24 1353 132.53 1353 132.88C1353 133.23 1353.25 133.52 1353.58 133.59V132.17Z" fill="#5C4500"/>
<path d="M1356.47 132.17C1356.8 132.24 1357.05 132.53 1357.05 132.88C1357.05 133.23 1356.8 133.52 1356.47 133.59V132.17Z" fill="#5C4500"/>
<path d="M1353.58 138.52C1353.25 138.59 1353 138.88 1353 139.23C1353 139.58 1353.25 139.87 1353.58 139.94V138.52Z" fill="#5C4500"/>
<path d="M1356.47 138.52C1356.8 138.59 1357.05 138.88 1357.05 139.23C1357.05 139.58 1356.8 139.87 1356.47 139.94V138.52Z" fill="#5C4500"/>
<path d="M64.8599 69.52H-57.4102V85.1H64.8599V69.52Z" fill="#FFB200"/>
<path d="M48.1699 70.1L62.2 70.67V69.52L-16.23 69.62L48.1699 70.1Z" fill="#FFD600"/>
<path d="M65.1798 73.66C65.1798 73.66 60.8799 79.33 50.2499 80.49C39.6199 81.64 -56.7401 82.83 -56.7401 82.83L-57.4001 85.11H64.8699L65.1798 73.66Z" fill="#E78900"/>
</g>
<defs>
<clipPath id="clip0_42_11650">
<rect width="1536.18" height="144.99" fill="white" transform="translate(-59)"/>
</clipPath>
</defs>
</svg>
