<svg width="46" height="46" viewBox="0 0 46 46" fill="none" xmlns="http://www.w3.org/2000/svg">
<path d="M22.5818 39.5021C17.9693 39.5021 17.4256 39.4777 15.6256 39.3989C14.2219 39.3528 12.8364 39.0675 11.5287 38.5552C10.4097 38.1197 9.39343 37.4563 8.54451 36.607C7.69558 35.7578 7.03254 34.7413 6.59747 33.6221C6.10492 32.3096 5.83926 30.923 5.81185 29.5214C5.70685 27.7252 5.70685 27.1364 5.70685 22.5596C5.70685 17.9339 5.73122 17.3939 5.81185 15.6033C5.83986 14.2037 6.10551 12.819 6.59747 11.5083C7.03204 10.3877 7.69553 9.37003 8.54559 8.5203C9.39564 7.67057 10.4136 7.00746 11.5343 6.57332C12.8443 6.0787 14.2294 5.81234 15.6293 5.78582C17.42 5.68457 18.0087 5.68457 22.5818 5.68457C27.2318 5.68457 27.7662 5.70895 29.5381 5.78582C30.9406 5.81207 32.3318 6.07832 33.6443 6.57332C34.7648 7.00796 35.7825 7.67125 36.6325 8.52091C37.4825 9.37058 38.1461 10.388 38.5812 11.5083C39.0818 12.8396 39.35 14.2458 39.3706 15.6652C39.4756 17.4614 39.4756 18.0483 39.4756 22.6233C39.4756 27.1983 39.4493 27.7983 39.3706 29.5739C39.3426 30.9768 39.0763 32.3647 38.5831 33.6783C38.1469 34.7983 37.4826 35.8154 36.6324 36.6649C35.7822 37.5145 34.7647 38.178 33.6443 38.6133C32.3318 39.1046 30.9462 39.3708 29.5456 39.3989C27.755 39.5021 27.1681 39.5021 22.5818 39.5021ZM22.5181 8.65269C17.9318 8.65269 17.4556 8.67519 15.665 8.75582C14.5956 8.7698 13.5365 8.96703 12.5337 9.33894C11.8023 9.61929 11.1378 10.0498 10.583 10.6027C10.0282 11.1555 9.59537 11.8186 9.31247 12.5489C8.93747 13.5614 8.7406 14.6321 8.72935 15.7121C8.62997 17.5289 8.62997 18.0052 8.62997 22.5596C8.62997 27.0596 8.64685 27.6052 8.72935 29.4108C8.74622 30.4796 8.9431 31.5389 9.31247 32.5421C9.88622 34.0177 11.0562 35.1839 12.5356 35.7502C13.5371 36.1244 14.5959 36.3217 15.665 36.3333C17.48 36.4383 17.9581 36.4383 22.5181 36.4383C27.1175 36.4383 27.5937 36.4158 29.3693 36.3333C30.4389 36.3204 31.4981 36.1231 32.5006 35.7502C33.2281 35.4677 33.8888 35.0369 34.4408 34.4853C34.9928 33.9336 35.4239 33.2731 35.7068 32.5458C36.0818 31.5333 36.2787 30.4608 36.29 29.3808H36.3106C36.3912 27.5883 36.3912 27.1102 36.3912 22.5296C36.3912 17.9489 36.3706 17.4671 36.29 15.6764C36.273 14.6086 36.0759 13.5512 35.7068 12.5489C35.4246 11.8206 34.9937 11.159 34.4417 10.6063C33.8897 10.0537 33.2286 9.62205 32.5006 9.33894C31.4983 8.96522 30.4389 8.76793 29.3693 8.75582C27.5562 8.65269 27.0818 8.65269 22.5181 8.65269ZM22.5818 31.2202C20.8673 31.2213 19.1909 30.7139 17.7648 29.7622C16.3386 28.8105 15.2267 27.4572 14.5697 25.8735C13.9127 24.2899 13.7402 22.5469 14.0738 20.8651C14.4075 19.1834 15.2324 17.6383 16.4443 16.4254C17.6561 15.2125 19.2005 14.3863 20.8819 14.0511C22.5634 13.716 24.3065 13.8871 25.8908 14.5427C27.475 15.1983 28.8293 16.309 29.7822 17.7344C30.7351 19.1597 31.244 20.8356 31.2443 22.5502C31.2414 24.8474 30.328 27.0498 28.7043 28.6749C27.0807 30.3 24.8791 31.2152 22.5818 31.2202ZM22.5818 16.9214C21.4693 16.9214 20.3818 17.2513 19.4568 17.8694C18.5317 18.4875 17.8108 19.366 17.385 20.3938C16.9593 21.4217 16.8479 22.5527 17.0649 23.6438C17.282 24.735 17.8177 25.7372 18.6044 26.5239C19.391 27.3106 20.3933 27.8463 21.4845 28.0634C22.5756 28.2804 23.7066 28.169 24.7344 27.7433C25.7623 27.3175 26.6408 26.5965 27.2589 25.6715C27.8769 24.7465 28.2068 23.659 28.2068 22.5464C28.2034 21.0557 27.6096 19.6269 26.5555 18.5728C25.5013 17.5187 24.0726 16.9249 22.5818 16.9214ZM31.5818 15.5846C31.3164 15.5836 31.0538 15.5303 30.8089 15.4278C30.5641 15.3254 30.3418 15.1756 30.1548 14.9873C29.7771 14.6068 29.5661 14.0919 29.5681 13.5558C29.5701 13.0197 29.7849 12.5064 30.1654 12.1288C30.5459 11.7511 31.0608 11.5401 31.5968 11.5421C32.1329 11.5441 32.6462 11.7589 33.0239 12.1394C33.4015 12.5198 33.6126 13.0347 33.6106 13.5708C33.6086 14.1069 33.3937 14.6202 33.0133 14.9979C32.6328 15.3755 32.1179 15.5866 31.5818 15.5846Z" fill="black"/>
</svg>
