<svg width="24" height="25" viewBox="0 0 24 25" fill="none" xmlns="http://www.w3.org/2000/svg">
<path d="M13 16.0586V17.0586C13 17.8542 12.6839 18.6173 12.1213 19.1799C11.5587 19.7425 10.7956 20.0586 10 20.0586H6C5.20435 20.0586 4.44129 19.7425 3.87868 19.1799C3.31607 18.6173 3 17.8542 3 17.0586V7.05859C3 6.26294 3.31607 5.49988 3.87868 4.93727C4.44129 4.37466 5.20435 4.05859 6 4.05859H10C10.7956 4.05859 11.5587 4.37466 12.1213 4.93727C12.6839 5.49988 13 6.26294 13 7.05859V8.05859M17 16.0586L21 12.0586L17 16.0586ZM21 12.0586L17 8.05859L21 12.0586ZM21 12.0586H7H21Z" stroke="black" stroke-width="2" stroke-linecap="round" stroke-linejoin="round"/>
</svg>
