<svg width="25" height="26" viewBox="0 0 25 26" fill="none" xmlns="http://www.w3.org/2000/svg">
<path d="M22.5318 17.3414H7.99322L8.7232 15.8546L20.8521 15.8326C21.2623 15.8326 21.6138 15.5396 21.6871 15.1343L23.3668 5.73248C23.4107 5.4859 23.3448 5.23199 23.1836 5.03912C23.104 4.9442 23.0047 4.86774 22.8925 4.81504C22.7804 4.76235 22.6581 4.73468 22.5342 4.73395L7.10455 4.68268L6.97271 4.06256C6.8897 3.66705 6.53326 3.37897 6.12798 3.37897H2.35601C2.12744 3.37897 1.90824 3.46977 1.74661 3.63139C1.58499 3.79301 1.49419 4.01222 1.49419 4.24078C1.49419 4.46935 1.58499 4.68856 1.74661 4.85018C1.90824 5.0118 2.12744 5.1026 2.35601 5.1026H5.42974L6.00591 7.84186L7.42437 14.7095L5.5982 17.6905C5.50336 17.8185 5.44624 17.9705 5.4333 18.1293C5.42035 18.288 5.4521 18.4473 5.52496 18.5889C5.67144 18.8795 5.96685 19.0626 6.294 19.0626H7.8272C7.50034 19.4967 7.32379 20.0255 7.32427 20.5689C7.32427 21.9507 8.44732 23.0738 9.82915 23.0738C11.211 23.0738 12.334 21.9507 12.334 20.5689C12.334 20.0245 12.1534 19.4947 11.8311 19.0626H15.7642C15.4374 19.4967 15.2608 20.0255 15.2613 20.5689C15.2613 21.9507 16.3843 23.0738 17.7662 23.0738C19.148 23.0738 20.271 21.9507 20.271 20.5689C20.271 20.0245 20.0904 19.4947 19.7681 19.0626H22.5342C23.0079 19.0626 23.396 18.6768 23.396 18.2007C23.3946 17.9724 23.303 17.7539 23.1411 17.5929C22.9791 17.4319 22.7601 17.3415 22.5318 17.3414ZM7.46343 6.3819L21.521 6.42828L20.1441 14.1382L9.10161 14.1578L7.46343 6.3819ZM9.82915 21.3404C9.40435 21.3404 9.05767 20.9937 9.05767 20.5689C9.05767 20.1441 9.40435 19.7974 9.82915 19.7974C10.254 19.7974 10.6006 20.1441 10.6006 20.5689C10.6006 20.7735 10.5194 20.9698 10.3747 21.1144C10.23 21.2591 10.0338 21.3404 9.82915 21.3404ZM17.7662 21.3404C17.3414 21.3404 16.9947 20.9937 16.9947 20.5689C16.9947 20.1441 17.3414 19.7974 17.7662 19.7974C18.191 19.7974 18.5376 20.1441 18.5376 20.5689C18.5376 20.7735 18.4564 20.9698 18.3117 21.1144C18.167 21.2591 17.9708 21.3404 17.7662 21.3404Z" fill="black"/>
</svg>
