<svg width="24" height="25" viewBox="0 0 24 25" fill="none" xmlns="http://www.w3.org/2000/svg">
<path d="M20 20.0446H4C3.46957 20.0446 2.96086 19.8339 2.58579 19.4588C2.21071 19.0837 2 18.575 2 18.0446V5.95759C2.02243 5.44238 2.24301 4.95574 2.61568 4.59929C2.98835 4.24283 3.4843 4.0441 4 4.04459H20C20.5304 4.04459 21.0391 4.2553 21.4142 4.63037C21.7893 5.00545 22 5.51415 22 6.04459V18.0446C22 18.575 21.7893 19.0837 21.4142 19.4588C21.0391 19.8339 20.5304 20.0446 20 20.0446ZM4 7.91259V18.0446H20V7.91259L12 13.2446L4 7.91259ZM4.8 6.04459L12 10.8446L19.2 6.04459H4.8Z" fill="black"/>
</svg>
