<svg width="31" height="30" viewBox="0 0 31 30" fill="none" xmlns="http://www.w3.org/2000/svg">
<path d="M22.361 15.3663C22.245 15.2501 22.1072 15.1579 21.9556 15.095C21.8039 15.0321 21.6414 14.9998 21.4772 14.9998C21.3131 14.9998 21.1505 15.0321 20.9989 15.095C20.8472 15.1579 20.7095 15.2501 20.5935 15.3663L18.601 17.3588C17.6772 17.0838 15.9535 16.4588 14.861 15.3663C13.7685 14.2738 13.1435 12.55 12.8685 11.6263L14.861 9.63376C14.9772 9.51777 15.0693 9.38002 15.1322 9.22837C15.1951 9.07673 15.2275 8.91417 15.2275 8.75001C15.2275 8.58584 15.1951 8.42328 15.1322 8.27164C15.0693 8.12 14.9772 7.98224 14.861 7.86626L9.86097 2.86626C9.74499 2.75008 9.60723 2.6579 9.45559 2.59501C9.30395 2.53213 9.14139 2.49976 8.97722 2.49976C8.81306 2.49976 8.6505 2.53213 8.49886 2.59501C8.34721 2.6579 8.20946 2.75008 8.09347 2.86626L4.70347 6.25626C4.22847 6.73126 3.96097 7.38376 3.97097 8.05001C3.99972 9.83001 4.47097 16.0125 9.34347 20.885C14.216 25.7575 20.3985 26.2275 22.1797 26.2575H22.2147C22.8747 26.2575 23.4985 25.9975 23.971 25.525L27.361 22.135C27.4772 22.019 27.5693 21.8813 27.6322 21.7296C27.6951 21.578 27.7275 21.4154 27.7275 21.2513C27.7275 21.0871 27.6951 20.9245 27.6322 20.7729C27.5693 20.6212 27.4772 20.4835 27.361 20.3675L22.361 15.3663ZM22.2022 23.7563C20.6422 23.73 15.3047 23.3113 11.111 19.1163C6.90347 14.9088 6.49597 9.55251 6.47097 8.02376L8.97722 5.51751L12.2097 8.75001L10.5935 10.3663C10.4466 10.5131 10.3385 10.6942 10.2792 10.8932C10.2198 11.0923 10.211 11.3029 10.2535 11.5063C10.2835 11.65 11.0172 15.0588 13.0922 17.1338C15.1672 19.2088 18.576 19.9425 18.7197 19.9725C18.9229 20.0162 19.1338 20.0081 19.333 19.9489C19.5323 19.8897 19.7134 19.7813 19.8597 19.6338L21.4772 18.0175L24.7097 21.25L22.2022 23.7563Z" fill="white"/>
</svg>
