<svg width="20" height="20" viewBox="0 0 20 20" fill="none" xmlns="http://www.w3.org/2000/svg">
<path d="M18.5495 10.1672C18.9433 9.64689 19.1613 9.00939 19.1613 8.34611C19.1613 7.29377 18.573 6.29767 17.6261 5.74221C17.3823 5.59923 17.1048 5.52397 16.8222 5.52424H11.2019L11.3425 2.64377C11.3753 1.94767 11.1292 1.28674 10.6511 0.78283C10.4165 0.534458 10.1334 0.336845 9.81934 0.202202C9.50531 0.0675583 9.167 -0.00125394 8.82532 1.72973e-05C7.60657 1.72973e-05 6.52844 0.82033 6.20501 1.99455L4.19172 9.28361H1.16125C0.746411 9.28361 0.411255 9.61877 0.411255 10.0336V18.5649C0.411255 18.9797 0.746411 19.3149 1.16125 19.3149H15.2542C15.4698 19.3149 15.6808 19.2727 15.8753 19.1883C16.9909 18.7125 17.7105 17.6227 17.7105 16.4133C17.7105 16.118 17.6683 15.8274 17.5839 15.5461C17.9777 15.0258 18.1956 14.3883 18.1956 13.725C18.1956 13.4297 18.1534 13.1391 18.0691 12.8578C18.4628 12.3375 18.6808 11.7 18.6808 11.0367C18.6761 10.7414 18.6339 10.4485 18.5495 10.1672ZM2.09875 17.6274V10.9711H3.99719V17.6274H2.09875ZM17.0144 9.35392L16.5011 9.79924L16.8269 10.3946C16.9342 10.5907 16.9899 10.8108 16.9886 11.0344C16.9886 11.4211 16.8198 11.7891 16.5292 12.0422L16.0159 12.4875L16.3417 13.0828C16.4491 13.2789 16.5047 13.4991 16.5034 13.7227C16.5034 14.1094 16.3347 14.4774 16.0441 14.7305L15.5308 15.1758L15.8566 15.7711C15.9639 15.9672 16.0196 16.1874 16.0183 16.411C16.0183 16.936 15.7089 17.4094 15.2308 17.625H5.49719V10.8961L7.82922 2.44689C7.88936 2.23033 8.01844 2.03927 8.19692 1.90267C8.3754 1.76606 8.59354 1.69135 8.81829 1.68986C8.99641 1.68986 9.17219 1.74142 9.31282 1.84689C9.54485 2.02033 9.66907 2.28283 9.655 2.56174L9.43 7.21174H16.7988C17.2159 7.46721 17.4738 7.89846 17.4738 8.34611C17.4738 8.73283 17.305 9.09846 17.0144 9.35392Z" fill="black"/>
<path d="M1.35681 10.36V18.1421H15.9482L17.4074 12.5834L18.0327 9.87358V6.5384H10.1117V0.84082H7.67976L4.69199 10.36H1.35681Z" fill="black"/>
</svg>
