<svg width="13" height="13" viewBox="0 0 13 13" fill="none" xmlns="http://www.w3.org/2000/svg">
<path d="M5.53429 1.90604C5.56614 1.87343 5.6042 1.84753 5.64622 1.82987C5.68824 1.81222 5.73337 1.80315 5.77895 1.80322C5.82453 1.80329 5.86963 1.81249 5.9116 1.83028C5.95357 1.84807 5.99154 1.87408 6.02329 1.90679L9.90979 5.89454C9.97805 5.96457 10.0163 6.0585 10.0163 6.15629C10.0163 6.25409 9.97805 6.34801 9.90979 6.41804L6.02329 10.4058C5.99149 10.4384 5.95348 10.4644 5.91148 10.4821C5.86949 10.4999 5.82437 10.509 5.77879 10.509C5.73321 10.509 5.68809 10.4999 5.6461 10.4821C5.60411 10.4644 5.56609 10.4384 5.53429 10.4058C5.46887 10.3388 5.43225 10.2489 5.43225 10.1553C5.43225 10.0617 5.46887 9.97177 5.53429 9.90479L9.18904 6.15629L5.53429 2.40629C5.4691 2.33935 5.43262 2.24961 5.43262 2.15617C5.43262 2.06273 5.4691 1.97298 5.53429 1.90604ZM2.53429 1.90604C2.56614 1.87343 2.60419 1.84753 2.64622 1.82987C2.68824 1.81222 2.73337 1.80315 2.77895 1.80322C2.82453 1.80329 2.86963 1.81249 2.9116 1.83028C2.95357 1.84807 2.99154 1.87408 3.02329 1.90679L6.90979 5.89454C6.97805 5.96457 7.01626 6.0585 7.01626 6.15629C7.01626 6.25409 6.97805 6.34801 6.90979 6.41804L3.02329 10.4058C2.99149 10.4384 2.95348 10.4644 2.91148 10.4821C2.86949 10.4999 2.82437 10.509 2.77879 10.509C2.73321 10.509 2.68809 10.4999 2.6461 10.4821C2.6041 10.4644 2.56609 10.4384 2.53429 10.4058C2.46887 10.3388 2.43225 10.2489 2.43225 10.1553C2.43225 10.0617 2.46887 9.97177 2.53429 9.90479L6.18904 6.15629L2.53429 2.40629C2.4691 2.33935 2.43262 2.24961 2.43262 2.15617C2.43262 2.06273 2.4691 1.97298 2.53429 1.90604Z" fill="black"/>
</svg>
