<svg width="31" height="31" viewBox="0 0 31 31" fill="none" xmlns="http://www.w3.org/2000/svg">
<path d="M24.7685 10.1527C24.7848 10.3714 24.7848 10.5889 24.7848 10.8064C24.7848 17.4627 19.7185 25.1327 10.4598 25.1327C7.60729 25.1327 4.95729 24.3064 2.72729 22.8714C3.13229 22.9177 3.52229 22.9339 3.94354 22.9339C6.20978 22.9394 8.41185 22.1816 10.1948 20.7827C9.14407 20.7637 8.12551 20.417 7.28134 19.7911C6.43717 19.1652 5.80952 18.2913 5.48604 17.2914C5.79729 17.3377 6.10979 17.3689 6.43729 17.3689C6.88854 17.3689 7.34229 17.3064 7.76354 17.1977C6.62324 16.9674 5.59789 16.3494 4.86182 15.4485C4.12575 14.5477 3.72441 13.4197 3.72604 12.2564V12.1939C4.39729 12.5677 5.17604 12.8014 6.00104 12.8327C5.30991 12.3734 4.74319 11.7502 4.35147 11.0187C3.95974 10.2871 3.75519 9.46999 3.75604 8.64018C3.75604 7.70518 4.00479 6.84768 4.44104 6.10018C5.70622 7.65645 7.28417 8.92963 9.07271 9.83725C10.8613 10.7449 12.8205 11.2667 14.8235 11.3689C14.746 10.9939 14.6985 10.6052 14.6985 10.2152C14.6982 9.55388 14.8282 8.899 15.0811 8.28798C15.3341 7.67695 15.7049 7.12177 16.1725 6.65416C16.6401 6.18655 17.1953 5.81569 17.8063 5.56277C18.4174 5.30986 19.0722 5.17985 19.7335 5.18018C21.1835 5.18018 22.4923 5.78768 23.4123 6.77018C24.5395 6.5522 25.6205 6.1407 26.6073 5.55393C26.2316 6.71745 25.4445 7.70406 24.3935 8.32893C25.3933 8.2149 26.3703 7.95199 27.2923 7.54893C26.6037 8.5528 25.7504 9.43311 24.7685 10.1527V10.1527Z" fill="black"/>
</svg>
