<svg width="31" height="31" viewBox="0 0 31 31" fill="none" xmlns="http://www.w3.org/2000/svg">
<path fill-rule="evenodd" clip-rule="evenodd" d="M12.5909 12.0481H16.3993V13.9452C16.9479 12.8541 18.3548 11.8738 20.4682 11.8738C24.5197 11.8738 25.4816 14.0457 25.4816 18.0305V25.4106H21.3799V18.938C21.3799 16.6687 20.8312 15.389 19.4346 15.389C17.4976 15.389 16.6926 16.7682 16.6926 18.937V25.4106H12.5909V12.0481V12.0481ZM5.5574 25.2362H9.65914V11.8738H5.5574V25.2362V25.2362ZM10.2467 7.51671C10.2469 7.86052 10.1787 8.20092 10.0461 8.51814C9.91357 8.83536 9.71928 9.12307 9.47456 9.36455C8.97866 9.8574 8.30742 10.1333 7.60827 10.1316C6.91035 10.1311 6.24066 9.85593 5.74403 9.36557C5.50019 9.12328 5.30656 8.83524 5.17424 8.51798C5.04191 8.20072 4.97349 7.86046 4.9729 7.51671C4.9729 6.8225 5.24977 6.15801 5.74505 5.66786C6.24125 5.17683 6.91122 4.90155 7.60929 4.90186C8.30864 4.90186 8.97927 5.1777 9.47456 5.66786C9.96882 6.15801 10.2467 6.8225 10.2467 7.51671Z" fill="black"/>
</svg>
