<svg width="24" height="25" viewBox="0 0 24 25" fill="none" xmlns="http://www.w3.org/2000/svg">
<g clip-path="url(#clip0_110_3447)">
<path d="M11.9997 11.3779C12.9227 11.3779 13.8249 11.1042 14.5923 10.5914C15.3598 10.0787 15.9579 9.34983 16.3111 8.49711C16.6643 7.64439 16.7567 6.70608 16.5767 5.80083C16.3966 4.89559 15.9522 4.06407 15.2995 3.41142C14.6469 2.75878 13.8153 2.31432 12.9101 2.13426C12.0049 1.95419 11.0665 2.04661 10.2138 2.39982C9.3611 2.75303 8.63226 3.35116 8.11948 4.11859C7.6067 4.88602 7.33301 5.78828 7.33301 6.71125C7.33301 7.94893 7.82467 9.13592 8.69984 10.0111C9.57501 10.8863 10.762 11.3779 11.9997 11.3779ZM11.9997 3.37792C12.6589 3.37792 13.3034 3.57342 13.8516 3.93969C14.3997 4.30596 14.827 4.82656 15.0793 5.43564C15.3316 6.04473 15.3976 6.71495 15.269 7.36156C15.1403 8.00816 14.8229 8.6021 14.3567 9.06828C13.8905 9.53445 13.2966 9.85192 12.65 9.98054C12.0034 10.1092 11.3331 10.0431 10.7241 9.79085C10.115 9.53856 9.59438 9.11132 9.22811 8.56316C8.86184 8.01499 8.66634 7.37053 8.66634 6.71125C8.66634 5.8272 9.01753 4.97935 9.64265 4.35423C10.2678 3.72911 11.1156 3.37792 11.9997 3.37792Z" fill="black"/>
<path d="M20.313 16.2912C19.2439 15.1613 17.9555 14.2612 16.5267 13.646C15.0979 13.0309 13.5586 12.7137 12.003 12.7137C10.4474 12.7137 8.90814 13.0309 7.47932 13.646C6.05049 14.2612 4.76214 15.1613 3.69301 16.2912C3.46122 16.5388 3.33248 16.8654 3.33301 17.2046V20.7112C3.33301 21.0649 3.47349 21.404 3.72353 21.6541C3.97358 21.9041 4.31272 22.0446 4.66634 22.0446H19.333C19.6866 22.0446 20.0258 21.9041 20.2758 21.6541C20.5259 21.404 20.6663 21.0649 20.6663 20.7112V17.2046C20.6687 16.8663 20.5424 16.5398 20.313 16.2912ZM19.333 20.7112H4.66634V17.1979C5.61116 16.203 6.74854 15.4108 8.00925 14.8694C9.26996 14.3281 10.6276 14.0489 11.9997 14.0489C13.3717 14.0489 14.7294 14.3281 15.9901 14.8694C17.2508 15.4108 18.3882 16.203 19.333 17.1979V20.7112Z" fill="black"/>
</g>
<defs>
<clipPath id="clip0_110_3447">
<rect width="24" height="24" fill="white" transform="translate(0 0.0445862)"/>
</clipPath>
</defs>
</svg>
