<svg width="31" height="30" viewBox="0 0 31 30" fill="none" xmlns="http://www.w3.org/2000/svg">
<path fill-rule="evenodd" clip-rule="evenodd" d="M21.8575 6.495C22.7284 7.36558 23.4191 8.39918 23.8904 9.53677C24.3617 10.6744 24.6043 11.8936 24.6043 13.125C24.6043 14.3563 24.3617 15.5756 23.8904 16.7132C23.4191 17.8508 22.7284 18.8844 21.8575 19.755L15.2275 26.3812L8.59755 19.7531C7.72688 18.8825 7.03623 17.8488 6.56503 16.7113C6.09383 15.5737 5.85131 14.3544 5.85131 13.1231C5.85131 11.8918 6.09383 10.6726 6.56503 9.53499C7.03623 8.39741 7.72688 7.36378 8.59755 6.49312C9.46821 5.62246 10.5018 4.93181 11.6394 4.46061C12.777 3.98941 13.9962 3.74688 15.2275 3.74688C16.4589 3.74688 17.6781 3.98941 18.8157 4.46061C19.9533 4.93181 20.9869 5.62246 21.8575 6.49312V6.495ZM23.845 21.7425C25.5496 20.0381 26.7105 17.8665 27.1808 15.5023C27.6511 13.1381 27.4098 10.6876 26.4874 8.46055C25.565 6.23352 24.0029 4.33003 21.9987 2.9908C19.9944 1.65158 17.6381 0.936768 15.2275 0.936768C12.817 0.936768 10.4607 1.65158 8.45643 2.9908C6.45218 4.33003 4.89008 6.23352 3.96766 8.46055C3.04525 10.6876 2.80396 13.1381 3.2743 15.5023C3.74464 17.8665 4.90549 20.0381 6.61005 21.7425L13.2382 28.3725C13.4994 28.6339 13.8095 28.8412 14.1508 28.9826C14.4922 29.1241 14.8581 29.1969 15.2275 29.1969C15.597 29.1969 15.9629 29.1241 16.3043 28.9826C16.6456 28.8412 16.9557 28.6339 17.2169 28.3725L23.845 21.7425ZM15.2275 16.875C16.2221 16.875 17.1759 16.4799 17.8792 15.7766C18.5825 15.0734 18.9775 14.1196 18.9775 13.125C18.9775 12.1304 18.5825 11.1766 17.8792 10.4733C17.1759 9.77008 16.2221 9.375 15.2275 9.375C14.233 9.375 13.2792 9.77008 12.5759 10.4733C11.8726 11.1766 11.4775 12.1304 11.4775 13.125C11.4775 14.1196 11.8726 15.0734 12.5759 15.7766C13.2792 16.4799 14.233 16.875 15.2275 16.875Z" fill="white"/>
</svg>
