<svg width="13" height="13" viewBox="0 0 13 13" fill="none" xmlns="http://www.w3.org/2000/svg">
<path d="M12.4949 10.635L7.47909 1.40496C7.37925 1.22101 7.2316 1.06742 7.05174 0.960395C6.87187 0.853368 6.66645 0.796875 6.45715 0.796875C6.24785 0.796875 6.04243 0.853368 5.86256 0.960395C5.68269 1.06742 5.53505 1.22101 5.4352 1.40496L0.422982 10.635C0.323865 10.8124 0.273006 11.0128 0.275477 11.2161C0.277947 11.4193 0.33366 11.6184 0.437061 11.7934C0.540461 11.9684 0.687936 12.1133 0.864779 12.2135C1.04162 12.3137 1.24165 12.3659 1.44493 12.3647H11.473C11.6742 12.3645 11.8719 12.3121 12.0468 12.2126C12.2217 12.1131 12.3677 11.9699 12.4707 11.7971C12.5737 11.6242 12.6301 11.4276 12.6343 11.2264C12.6386 11.0253 12.5905 10.8264 12.4949 10.6494V10.635ZM5.99493 3.69802C5.99493 3.56394 6.04819 3.43535 6.143 3.34054C6.23781 3.24573 6.3664 3.19246 6.50048 3.19246C6.63456 3.19246 6.76315 3.24573 6.85796 3.34054C6.95277 3.43535 7.00604 3.56394 7.00604 3.69802V8.03135C7.00604 8.16543 6.95277 8.29402 6.85796 8.38883C6.76315 8.48364 6.63456 8.53691 6.50048 8.53691C6.3664 8.53691 6.23781 8.48364 6.143 8.38883C6.04819 8.29402 5.99493 8.16543 5.99493 8.03135V3.69802ZM6.50048 10.8661C6.37192 10.8661 6.24625 10.828 6.13936 10.7565C6.03247 10.6851 5.94916 10.5836 5.89996 10.4648C5.85076 10.346 5.83789 10.2154 5.86297 10.0893C5.88805 9.96318 5.94996 9.84736 6.04086 9.75645C6.13177 9.66555 6.24759 9.60364 6.37367 9.57856C6.49976 9.55348 6.63045 9.56635 6.74923 9.61555C6.868 9.66475 6.96951 9.74806 7.04094 9.85495C7.11236 9.96184 7.15048 10.0875 7.15048 10.2161C7.15048 10.3014 7.13367 10.386 7.101 10.4648C7.06834 10.5437 7.02046 10.6153 6.9601 10.6757C6.89974 10.7361 6.82809 10.7839 6.74923 10.8166C6.67036 10.8493 6.58584 10.8661 6.50048 10.8661Z" fill="#CD1E1E"/>
</svg>
