<svg width="51" height="51" viewBox="0 0 51 51" fill="none" xmlns="http://www.w3.org/2000/svg">
<circle cx="25.5" cy="25.2011" r="24" stroke="black" stroke-width="2"/>
<path fill-rule="evenodd" clip-rule="evenodd" d="M38.0257 25.2012C38.0257 24.9639 37.9315 24.7363 37.7637 24.5685C37.5959 24.4007 37.3683 24.3065 37.131 24.3065H16.0288L21.66 18.677C21.7432 18.5939 21.8092 18.4951 21.8542 18.3864C21.8992 18.2777 21.9224 18.1612 21.9224 18.0436C21.9224 17.926 21.8992 17.8095 21.8542 17.7008C21.8092 17.5921 21.7432 17.4933 21.66 17.4102C21.5768 17.327 21.478 17.261 21.3694 17.216C21.2607 17.171 21.1442 17.1478 21.0265 17.1478C20.9089 17.1478 20.7924 17.171 20.6837 17.216C20.575 17.261 20.4763 17.327 20.3931 17.4102L13.2356 24.5677C13.1522 24.6508 13.0861 24.7495 13.041 24.8582C12.9959 24.9669 12.9727 25.0835 12.9727 25.2012C12.9727 25.3188 12.9959 25.4354 13.041 25.5441C13.0861 25.6528 13.1522 25.7515 13.2356 25.8346L20.3931 32.9921C20.4763 33.0753 20.575 33.1413 20.6837 33.1863C20.7924 33.2314 20.9089 33.2545 21.0265 33.2545C21.1442 33.2545 21.2607 33.2314 21.3694 33.1863C21.478 33.1413 21.5768 33.0753 21.66 32.9921C21.7432 32.909 21.8092 32.8102 21.8542 32.7015C21.8992 32.5928 21.9224 32.4763 21.9224 32.3587C21.9224 32.2411 21.8992 32.1246 21.8542 32.0159C21.8092 31.9072 21.7432 31.8084 21.66 31.7253L16.0288 26.0958H37.131C37.3683 26.0958 37.5959 26.0016 37.7637 25.8338C37.9315 25.666 38.0257 25.4384 38.0257 25.2012Z" fill="black"/>
</svg>
