<svg width="25" height="25" viewBox="0 0 25 25" fill="none" xmlns="http://www.w3.org/2000/svg">
<path d="M22.25 12.2222C22.25 14.4722 17.885 18.9722 12.5 18.9722C7.115 18.9722 2.75 14.4722 2.75 12.2222C2.75 9.97217 7.115 5.47217 12.5 5.47217C17.885 5.47217 22.25 9.97217 22.25 12.2222Z" stroke="#008DD2" stroke-width="2" stroke-linejoin="round"/>
<path d="M16.25 12.2222C16.25 13.2167 15.8549 14.1706 15.1517 14.8738C14.4484 15.5771 13.4946 15.9722 12.5 15.9722C11.5054 15.9722 10.5516 15.5771 9.84835 14.8738C9.14509 14.1706 8.75 13.2167 8.75 12.2222C8.75 11.2276 9.14509 10.2738 9.84835 9.57052C10.5516 8.86726 11.5054 8.47217 12.5 8.47217C13.4946 8.47217 14.4484 8.86726 15.1517 9.57052C15.8549 10.2738 16.25 11.2276 16.25 12.2222V12.2222Z" stroke="#008DD2" stroke-width="2" stroke-linejoin="round"/>
</svg>
