<svg width="25" height="24" viewBox="0 0 25 24" fill="none" xmlns="http://www.w3.org/2000/svg">
<path d="M19.5 22H5.5C4.96957 22 4.46086 21.7893 4.08579 21.4142C3.71071 21.0391 3.5 20.5304 3.5 20V6C3.5 5.46957 3.71071 4.96086 4.08579 4.58579C4.46086 4.21071 4.96957 4 5.5 4H7.5V2H9.5V4H15.5V2H17.5V4H19.5C20.0304 4 20.5391 4.21071 20.9142 4.58579C21.2893 4.96086 21.5 5.46957 21.5 6V20C21.5 20.5304 21.2893 21.0391 20.9142 21.4142C20.5391 21.7893 20.0304 22 19.5 22ZM5.5 10V20H19.5V10H5.5ZM5.5 6V8H19.5V6H5.5ZM13.5 18H11.5V16H9.5V14H11.5V12H13.5V14H15.5V16H13.5V18Z" fill="black"/>
</svg>
