<svg width="20" height="20" viewBox="0 0 20 20" fill="none" xmlns="http://www.w3.org/2000/svg">
<path d="M12.9589 8.05059H10.1933V4.90996C10.1933 4.80684 10.1089 4.72246 10.0058 4.72246H8.59954C8.49641 4.72246 8.41204 4.80684 8.41204 4.90996V8.05059H5.64641C5.54329 8.05059 5.45891 8.13496 5.45891 8.23809V9.64434C5.45891 9.74746 5.54329 9.83184 5.64641 9.83184H8.41204V12.9725C8.41204 13.0756 8.49641 13.16 8.59954 13.16H10.0058C10.1089 13.16 10.1933 13.0756 10.1933 12.9725V9.83184H12.9589C13.062 9.83184 13.1464 9.74746 13.1464 9.64434V8.23809C13.1464 8.13496 13.062 8.05059 12.9589 8.05059ZM19.6152 17.9881L16.1933 14.5662C19.055 11.0764 18.8558 5.90605 15.5839 2.63652C12.1152 -0.83457 6.48079 -0.83457 2.99797 2.63652C-0.47312 6.11934 -0.47312 11.7537 2.99797 15.2225C6.2675 18.4943 11.4378 18.6936 14.9277 15.8318L18.3495 19.2537C18.4245 19.3193 18.5441 19.3193 18.6073 19.2537L19.6152 18.2459C19.6808 18.1826 19.6808 18.0631 19.6152 17.9881ZM14.3417 13.9803C11.5573 16.7623 7.04797 16.7623 4.2636 13.9803C1.48157 11.1959 1.48157 6.68652 4.2636 3.90215C7.04797 1.12012 11.5573 1.12012 14.3417 3.90215C17.1238 6.68652 17.1238 11.1959 14.3417 13.9803Z" fill="black"/>
</svg>
