<svg width="31" height="30" viewBox="0 0 31 30" fill="none" xmlns="http://www.w3.org/2000/svg">
<path d="M10.54 3.75C9.79412 3.75 9.07875 4.04632 8.5513 4.57376C8.02385 5.10121 7.72754 5.81658 7.72754 6.5625V11.25C6.73298 11.25 5.77915 11.6451 5.07589 12.3483C4.37263 13.0516 3.97754 14.0054 3.97754 15V23.4375C3.97754 24.1834 4.27386 24.8988 4.8013 25.4262C5.32875 25.9537 6.04412 26.25 6.79004 26.25H18.04C17.6229 25.6955 17.3347 25.055 17.1963 24.375H6.79004C6.5414 24.375 6.30294 24.2762 6.12713 24.1004C5.95131 23.9246 5.85254 23.6861 5.85254 23.4375V15C5.85254 14.5027 6.05008 14.0258 6.40171 13.6742C6.75334 13.3225 7.23026 13.125 7.72754 13.125H17.1963C17.3369 12.4312 17.6294 11.7937 18.04 11.25H9.60254V6.5625C9.60254 6.31386 9.70131 6.0754 9.87713 5.89959C10.0529 5.72377 10.2914 5.625 10.54 5.625H19.915C20.1637 5.625 20.4021 5.72377 20.578 5.89959C20.7538 6.0754 20.8525 6.31386 20.8525 6.5625V9.46875C21.1563 9.40688 21.4694 9.375 21.79 9.375H22.7275V6.5625C22.7275 5.81658 22.4312 5.10121 21.9038 4.57376C21.3763 4.04632 20.661 3.75 19.915 3.75H10.54ZM21.79 11.25C21.0441 11.25 20.3287 11.5463 19.8013 12.0738C19.2739 12.6012 18.9775 13.3166 18.9775 14.0625V23.4375C18.9775 24.1834 19.2739 24.8988 19.8013 25.4262C20.3287 25.9537 21.0441 26.25 21.79 26.25H23.665C24.411 26.25 25.1263 25.9537 25.6538 25.4262C26.1812 24.8988 26.4775 24.1834 26.4775 23.4375V14.0625C26.4775 13.3166 26.1812 12.6012 25.6538 12.0738C25.1263 11.5463 24.411 11.25 23.665 11.25H21.79ZM20.8525 14.0625C20.8525 13.8139 20.9513 13.5754 21.1271 13.3996C21.3029 13.2238 21.5414 13.125 21.79 13.125H23.665C23.9137 13.125 24.1521 13.2238 24.328 13.3996C24.5038 13.5754 24.6025 13.8139 24.6025 14.0625V23.4375C24.6025 23.6861 24.5038 23.9246 24.328 24.1004C24.1521 24.2762 23.9137 24.375 23.665 24.375H21.79C21.5414 24.375 21.3029 24.2762 21.1271 24.1004C20.9513 23.9246 20.8525 23.6861 20.8525 23.4375V14.0625ZM9.60254 15.9375C9.60254 16.1861 9.50377 16.4246 9.32795 16.6004C9.15214 16.7762 8.91368 16.875 8.66504 16.875C8.4164 16.875 8.17794 16.7762 8.00213 16.6004C7.82631 16.4246 7.72754 16.1861 7.72754 15.9375C7.72754 15.6889 7.82631 15.4504 8.00213 15.2746C8.17794 15.0988 8.4164 15 8.66504 15C8.91368 15 9.15214 15.0988 9.32795 15.2746C9.50377 15.4504 9.60254 15.6889 9.60254 15.9375ZM8.66504 20.625C8.91368 20.625 9.15214 20.5262 9.32795 20.3504C9.50377 20.1746 9.60254 19.9361 9.60254 19.6875C9.60254 19.4389 9.50377 19.2004 9.32795 19.0246C9.15214 18.8488 8.91368 18.75 8.66504 18.75C8.4164 18.75 8.17794 18.8488 8.00213 19.0246C7.82631 19.2004 7.72754 19.4389 7.72754 19.6875C7.72754 19.9361 7.82631 20.1746 8.00213 20.3504C8.17794 20.5262 8.4164 20.625 8.66504 20.625ZM13.3525 15.9375C13.3525 16.1861 13.2538 16.4246 13.078 16.6004C12.9021 16.7762 12.6637 16.875 12.415 16.875C12.1664 16.875 11.9279 16.7762 11.7521 16.6004C11.5763 16.4246 11.4775 16.1861 11.4775 15.9375C11.4775 15.6889 11.5763 15.4504 11.7521 15.2746C11.9279 15.0988 12.1664 15 12.415 15C12.6637 15 12.9021 15.0988 13.078 15.2746C13.2538 15.4504 13.3525 15.6889 13.3525 15.9375ZM12.415 20.625C12.6637 20.625 12.9021 20.5262 13.078 20.3504C13.2538 20.1746 13.3525 19.9361 13.3525 19.6875C13.3525 19.4389 13.2538 19.2004 13.078 19.0246C12.9021 18.8488 12.6637 18.75 12.415 18.75C12.1664 18.75 11.9279 18.8488 11.7521 19.0246C11.5763 19.2004 11.4775 19.4389 11.4775 19.6875C11.4775 19.9361 11.5763 20.1746 11.7521 20.3504C11.9279 20.5262 12.1664 20.625 12.415 20.625Z" fill="white"/>
</svg>
