<svg width="31" height="31" viewBox="0 0 31 31" fill="none" xmlns="http://www.w3.org/2000/svg">
<path d="M27.2186 9.16001C27.0762 8.63176 26.798 8.15001 26.4115 7.76272C26.0251 7.37542 25.544 7.09608 25.0161 6.95251C23.0586 6.41501 15.2273 6.40626 15.2273 6.40626C15.2273 6.40626 7.39734 6.39751 5.43859 6.91126C4.911 7.06144 4.43087 7.34473 4.0443 7.73393C3.65773 8.12312 3.3777 8.60516 3.23109 9.13376C2.71484 11.0913 2.70984 15.1513 2.70984 15.1513C2.70984 15.1513 2.70484 19.2313 3.21734 21.1688C3.50484 22.24 4.34859 23.0863 5.42109 23.375C7.39859 23.9125 15.2086 23.9213 15.2086 23.9213C15.2086 23.9213 23.0398 23.93 24.9973 23.4175C25.5255 23.2742 26.007 22.9955 26.3944 22.609C26.7818 22.2225 27.0616 21.7416 27.2061 21.2138C27.7236 19.2575 27.7273 15.1988 27.7273 15.1988C27.7273 15.1988 27.7523 11.1175 27.2186 9.16001V9.16001ZM12.7223 18.9125L12.7286 11.4125L19.2373 15.1688L12.7223 18.9125V18.9125Z" fill="black"/>
</svg>
