<svg width="24" height="25" viewBox="0 0 24 25" fill="none" xmlns="http://www.w3.org/2000/svg">
<path fill-rule="evenodd" clip-rule="evenodd" d="M18.403 5.67758C17.5714 4.84047 16.5819 4.1767 15.4919 3.72473C14.4019 3.27277 13.233 3.04159 12.053 3.04458C7.105 3.04458 3.077 7.07158 3.075 12.0216C3.075 13.6036 3.488 15.1476 4.273 16.5096L3 21.1606L7.759 19.9116C9.07539 20.6282 10.5502 21.0039 12.049 21.0046H12.053C17 21.0046 21.028 16.9776 21.03 12.0276C21.0334 10.8481 20.803 9.67958 20.3521 8.58964C19.9012 7.49971 19.2387 6.50996 18.403 5.67758ZM12.053 19.4896H12.05C10.7135 19.4897 9.40163 19.1301 8.252 18.4486L7.98 18.2866L5.156 19.0276L5.909 16.2746L5.732 15.9926C4.98479 14.803 4.58923 13.4264 4.591 12.0216C4.593 7.90758 7.94 4.56058 12.056 4.56058C13.0363 4.55841 14.0072 4.75067 14.9127 5.12624C15.8181 5.50181 16.6401 6.05323 17.331 6.74858C18.0256 7.44063 18.5762 8.26348 18.9509 9.16958C19.3256 10.0757 19.517 11.0471 19.514 12.0276C19.512 16.1416 16.165 19.4896 12.053 19.4896ZM16.146 13.9006C15.921 13.7876 14.819 13.2456 14.613 13.1706C14.408 13.0956 14.259 13.0586 14.109 13.2826C13.959 13.5066 13.529 14.0116 13.398 14.1616C13.267 14.3116 13.136 14.3296 12.912 14.2176C12.688 14.1056 11.965 13.8686 11.108 13.1046C10.441 12.5096 9.991 11.7756 9.86 11.5506C9.729 11.3256 9.846 11.2046 9.959 11.0926C10.06 10.9926 10.183 10.8306 10.295 10.6996C10.407 10.5686 10.444 10.4756 10.519 10.3256C10.594 10.1756 10.557 10.0446 10.5 9.93258C10.444 9.81958 9.995 8.71558 9.808 8.26658C9.627 7.83158 9.442 7.88958 9.304 7.88358C9.16108 7.87774 9.01804 7.87507 8.875 7.87558C8.76126 7.87848 8.64934 7.90485 8.54626 7.95303C8.44318 8.00121 8.35117 8.07017 8.276 8.15558C8.07 8.38058 7.491 8.92258 7.491 10.0266C7.491 11.1306 8.295 12.1976 8.407 12.3476C8.519 12.4976 9.989 14.7626 12.239 15.7346C12.775 15.9656 13.193 16.1036 13.518 16.2076C14.055 16.3786 14.544 16.3536 14.931 16.2966C15.362 16.2326 16.258 15.7546 16.445 15.2306C16.632 14.7066 16.632 14.2576 16.576 14.1636C16.52 14.0696 16.369 14.0126 16.146 13.9006Z" fill="black"/>
</svg>
