<svg width="50" height="51" viewBox="0 0 50 51" fill="none" xmlns="http://www.w3.org/2000/svg">
<circle cx="25" cy="25.2011" r="24" transform="rotate(-180 25 25.2011)" stroke="black" stroke-width="2"/>
<path fill-rule="evenodd" clip-rule="evenodd" d="M12.4742 25.2011C12.4742 25.4384 12.5685 25.666 12.7363 25.8338C12.904 26.0016 13.1316 26.0958 13.3689 26.0958L34.4711 26.0958L28.8399 31.7252C28.7568 31.8084 28.6908 31.9072 28.6457 32.0159C28.6007 32.1245 28.5776 32.241 28.5776 32.3587C28.5776 32.4763 28.6007 32.5928 28.6457 32.7015C28.6908 32.8102 28.7568 32.9089 28.8399 32.9921C28.9231 33.0753 29.0219 33.1413 29.1306 33.1863C29.2393 33.2313 29.3557 33.2545 29.4734 33.2545C29.591 33.2545 29.7075 33.2313 29.8162 33.1863C29.9249 33.1413 30.0236 33.0753 30.1068 32.9921L37.2644 25.8346C37.3477 25.7515 37.4138 25.6527 37.4589 25.544C37.504 25.4353 37.5272 25.3188 37.5272 25.2011C37.5272 25.0834 37.504 24.9669 37.4589 24.8582C37.4138 24.7495 37.3477 24.6508 37.2644 24.5677L30.1068 17.4101C30.0236 17.327 29.9249 17.261 29.8162 17.2159C29.7075 17.1709 29.591 17.1478 29.4734 17.1478C29.3557 17.1478 29.2393 17.1709 29.1306 17.2159C29.0219 17.261 28.9231 17.327 28.8399 17.4101C28.7568 17.4933 28.6908 17.5921 28.6458 17.7008C28.6007 17.8095 28.5776 17.9259 28.5776 18.0436C28.5776 18.1612 28.6007 18.2777 28.6458 18.3864C28.6908 18.4951 28.7568 18.5938 28.8399 18.677L34.4711 24.3064L13.3689 24.3064C13.1316 24.3064 12.904 24.4007 12.7363 24.5685C12.5685 24.7363 12.4742 24.9638 12.4742 25.2011Z" fill="black"/>
</svg>
