<svg width="31" height="31" viewBox="0 0 31 31" fill="none" xmlns="http://www.w3.org/2000/svg">
<g clip-path="url(#clip0_970_6312)">
<path fill-rule="evenodd" clip-rule="evenodd" d="M21.8566 7.33728C22.7274 8.20786 23.4182 9.24146 23.8895 10.3791C24.3607 11.5166 24.6033 12.7359 24.6033 13.9673C24.6033 15.1986 24.3607 16.4179 23.8895 17.5555C23.4182 18.6931 22.7274 19.7267 21.8566 20.5973L15.2266 27.2235L8.59657 20.5954C7.7259 19.7247 7.03526 18.6911 6.56406 17.5535C6.09286 16.416 5.85033 15.1967 5.85033 13.9654C5.85033 12.7341 6.09286 11.5149 6.56406 10.3773C7.03526 9.2397 7.7259 8.20607 8.59657 7.33541C9.46723 6.46474 10.5009 5.77409 11.6384 5.30289C12.776 4.83169 13.9953 4.58917 15.2266 4.58917C16.4579 4.58917 17.6771 4.83169 18.8147 5.30289C19.9523 5.77409 20.9859 6.46474 21.8566 7.33541V7.33728ZM23.8441 22.5848C25.5486 20.8804 26.7095 18.7088 27.1798 16.3446C27.6502 13.9804 27.4089 11.5299 26.4865 9.30284C25.564 7.0758 24.0019 5.17231 21.9977 3.83309C19.9934 2.49386 17.6371 1.77905 15.2266 1.77905C12.8161 1.77905 10.4597 2.49386 8.45545 3.83309C6.4512 5.17231 4.8891 7.0758 3.96669 9.30284C3.04427 11.5299 2.80298 13.9804 3.27332 16.3446C3.74366 18.7088 4.90451 20.8804 6.60907 22.5848L13.2372 29.2148C13.4984 29.4761 13.8085 29.6835 14.1499 29.8249C14.4912 29.9664 14.8571 30.0392 15.2266 30.0392C15.5961 30.0392 15.9619 29.9664 16.3033 29.8249C16.6446 29.6835 16.9548 29.4761 17.2159 29.2148L23.8441 22.5848ZM15.2266 17.7173C16.2211 17.7173 17.175 17.3222 17.8782 16.6189C18.5815 15.9157 18.9766 14.9618 18.9766 13.9673C18.9766 12.9727 18.5815 12.0189 17.8782 11.3156C17.175 10.6124 16.2211 10.2173 15.2266 10.2173C14.232 10.2173 13.2782 10.6124 12.5749 11.3156C11.8717 12.0189 11.4766 12.9727 11.4766 13.9673C11.4766 14.9618 11.8717 15.9157 12.5749 16.6189C13.2782 17.3222 14.232 17.7173 15.2266 17.7173Z" fill="black"/>
</g>
<defs>
<clipPath id="clip0_970_6312">
<rect width="30" height="30" fill="white" transform="translate(0.226562 0.842285)"/>
</clipPath>
</defs>
</svg>
