<svg width="20" height="20" viewBox="0 0 20 20" fill="none" xmlns="http://www.w3.org/2000/svg">
<path d="M18.7928 10.2004C19.1866 9.6801 19.4045 9.0426 19.4045 8.37931C19.4045 7.32697 18.8163 6.33088 17.8694 5.77541C17.6256 5.63243 17.3481 5.55718 17.0655 5.55744H11.4452L11.5858 2.67697C11.6186 1.98088 11.3725 1.31994 10.8944 0.816033C10.6597 0.567661 10.3767 0.370048 10.0626 0.235405C9.74859 0.100761 9.41028 0.0319492 9.0686 0.0332204C7.84985 0.0332204 6.77173 0.853533 6.44829 2.02775L4.43501 9.31682H1.40454C0.989697 9.31682 0.654541 9.65197 0.654541 10.0668V18.5981C0.654541 19.0129 0.989697 19.3481 1.40454 19.3481H15.4975C15.7131 19.3481 15.9241 19.3059 16.1186 19.2215C17.2342 18.7457 17.9538 17.6559 17.9538 16.4465C17.9538 16.1512 17.9116 15.8606 17.8272 15.5793C18.2209 15.059 18.4389 14.4215 18.4389 13.7582C18.4389 13.4629 18.3967 13.1723 18.3124 12.891C18.7061 12.3707 18.9241 11.7332 18.9241 11.0699C18.9194 10.7746 18.8772 10.4817 18.7928 10.2004ZM2.34204 17.6606V11.0043H4.24048V17.6606H2.34204ZM17.2577 9.38713L16.7444 9.83244L17.0702 10.4278C17.1775 10.6239 17.2331 10.844 17.2319 11.0676C17.2319 11.4543 17.0631 11.8223 16.7725 12.0754L16.2592 12.5207L16.585 13.116C16.6923 13.3121 16.748 13.5323 16.7467 13.7559C16.7467 14.1426 16.578 14.5106 16.2874 14.7637L15.7741 15.209L16.0999 15.8043C16.2072 16.0004 16.2628 16.2206 16.2616 16.4442C16.2616 16.9692 15.9522 17.4426 15.4741 17.6582H5.74048V10.9293L8.07251 2.4801C8.13264 2.26353 8.26173 2.07247 8.4402 1.93587C8.61868 1.79926 8.83682 1.72455 9.06157 1.72306C9.2397 1.72306 9.41548 1.77463 9.5561 1.8801C9.78813 2.05353 9.91235 2.31603 9.89829 2.59494L9.67329 7.24494H17.042C17.4592 7.50041 17.717 7.93166 17.717 8.37931C17.717 8.76603 17.5483 9.13166 17.2577 9.38713Z" fill="black"/>
</svg>
