<svg width="25" height="25" viewBox="0 0 25 25" fill="none" xmlns="http://www.w3.org/2000/svg">
<path d="M16.9901 5.98205L19.1081 8.09905L16.9901 5.98205ZM18.3521 4.11705L12.6251 9.84405C12.3292 10.1395 12.1274 10.516 12.0451 10.926L11.5161 13.574L14.1641 13.044C14.5741 12.962 14.9501 12.761 15.2461 12.465L20.9731 6.73805C21.1452 6.56595 21.2817 6.36164 21.3749 6.13678C21.468 5.91193 21.5159 5.67093 21.5159 5.42755C21.5159 5.18416 21.468 4.94316 21.3749 4.71831C21.2817 4.49345 21.1452 4.28914 20.9731 4.11705C20.801 3.94495 20.5967 3.80843 20.3719 3.71529C20.147 3.62216 19.906 3.57422 19.6626 3.57422C19.4192 3.57422 19.1782 3.62216 18.9534 3.71529C18.7285 3.80843 18.5242 3.94495 18.3521 4.11705V4.11705Z" stroke="black" stroke-width="2" stroke-linecap="round" stroke-linejoin="round"/>
<path d="M19.5161 15.5742V18.5742C19.5161 19.1047 19.3054 19.6134 18.9303 19.9884C18.5553 20.3635 18.0465 20.5742 17.5161 20.5742H6.51611C5.98568 20.5742 5.47697 20.3635 5.1019 19.9884C4.72683 19.6134 4.51611 19.1047 4.51611 18.5742V7.57422C4.51611 7.04379 4.72683 6.53508 5.1019 6.16001C5.47697 5.78493 5.98568 5.57422 6.51611 5.57422H9.51611" stroke="black" stroke-width="2" stroke-linecap="round" stroke-linejoin="round"/>
</svg>
