<?xml version="1.0" encoding="utf-8"?>
<!-- Generator: Adobe Illustrator 27.0.1, SVG Export Plug-In . SVG Version: 6.00 Build 0)  -->
<svg version="1.1" id="Layer_1" xmlns="http://www.w3.org/2000/svg" xmlns:xlink="http://www.w3.org/1999/xlink" x="0px" y="0px"
	 viewBox="0 0 1246 632.6" style="enable-background:new 0 0 1246 632.6;" xml:space="preserve">
<style type="text/css">
	.st0{fill:#55A1B6;}
	.st1{fill:#55A2B6;}
	.st2{fill:#62B9D1;}
	.st3{clip-path:url(#SVGID_00000123438128329216839560000007341115429428923054_);}
	.st4{fill:#5AB5C3;}
	.st5{fill:#509AA9;}
	.st6{opacity:0.2;}
	.st7{fill:#88E2E0;}
	.st8{fill:#4A95A9;}
	.st9{fill:#6CBBD0;}
	.st10{fill:#6BCDD8;}
	.st11{fill:#5597A3;}
	.st12{fill:#50A5B3;}
	.st13{fill:#3A6E77;}
	.st14{fill:#77CED8;}
	.st15{opacity:0.15;}
	.st16{fill:#64B5C9;}
	.st17{fill:#559CA8;}
	.st18{clip-path:url(#SVGID_00000065763516045253726790000011845620289890862220_);}
	.st19{clip-path:url(#SVGID_00000074423900506370508250000013519303277981116328_);}
	.st20{clip-path:url(#SVGID_00000049937071035763242000000004236714548646726284_);}
	.st21{clip-path:url(#SVGID_00000003793298998908741990000013030713953389707433_);}
	.st22{fill:#1E1714;}
	.st23{fill:#332822;}
	.st24{fill:#493B32;}
	.st25{fill:#604D3F;}
	.st26{fill:#9B8B80;}
	.st27{fill:#BCA99C;}
	.st28{fill:#D6C3B4;}
	.st29{fill:#EFDED0;}
	.st30{fill:#16353D;}
	.st31{fill:#225060;}
	.st32{fill:#479EB5;}
	.st33{fill:#2D6C89;}
	.st34{opacity:0.1;fill:url(#SVGID_00000038399035588134129410000002254939411127534752_);enable-background:new    ;}
	.st35{fill:#153843;}
	.st36{fill:none;stroke:#97D4E7;stroke-width:2;}
	.st37{fill:none;stroke:#97D4E7;stroke-width:2;stroke-linecap:round;}
	.st38{fill-rule:evenodd;clip-rule:evenodd;fill:#FFFFFF;}
	.st39{opacity:0.4;fill:#040A0C;enable-background:new    ;}
	.st40{fill:#42342A;}
	.st41{fill:#D3CA53;}
	.st42{fill:#C6B044;}
	.st43{fill:#E8DB64;}
</style>
<path class="st0" d="M761,87.5v538.8h104.6V60.7C842.1,76.9,804.1,87.5,761,87.5L761,87.5z"/>
<path class="st0" d="M892.6,157.5v538.8H746.8V130.7C779.5,146.9,832.6,157.5,892.6,157.5z"/>
<path class="st0" d="M858,0.7h-4.5v101.2h4.5V0.7z"/>
<path class="st0" d="M842.3,29.5h-4.5v101.2h4.5V29.5z"/>
<path class="st1" d="M541.5,150.8H406.1v545.6h135.4V150.8z"/>
<path class="st1" d="M526.3,110.4H421.2v48.8h105.1V110.4z"/>
<path class="st1" d="M501.8,75.3h-56.1v45.1h56.1V75.3z"/>
<path class="st1" d="M473.8,49.8l-28.1,25.5h56.1L473.8,49.8z"/>
<path class="st1" d="M475.4,22.1h-3.2v38.4h3.2V22.1z"/>
<path class="st2" d="M1032.6,197.9H919.8v454.3h112.7V197.9z"/>
<path class="st2" d="M1020,164.3h-87.5v40.7h87.5V164.3z"/>
<path class="st2" d="M999.5,135.1h-46.7v37.6h46.7V135.1z"/>
<path class="st2" d="M976.2,113.8l-23.4,21.3h46.7L976.2,113.8z"/>
<path class="st2" d="M977.5,90.7h-2.7v32h2.7V90.7z"/>
<g>
	<defs>
		<rect id="SVGID_1_" x="735" y="254.1" width="97" height="397"/>
	</defs>
	<clipPath id="SVGID_00000010304039022299759130000010796569221021865387_">
		<use xlink:href="#SVGID_1_"  style="overflow:visible;"/>
	</clipPath>
	<g style="clip-path:url(#SVGID_00000010304039022299759130000010796569221021865387_);">
		<path class="st4" d="M832.4,254.7h-97.8v396.7h97.8V254.7z"/>
		<path class="st5" d="M832.4,272v-1.3h-10v-16.2h-1.2v16.2h-13.9v-16.2H806v16.2h-13.9v-16.2h-1.2v16.2h-13.9v-16.2h-1.2v16.2
			h-13.9v-16.2h-1.2v16.2h-13.9v-16.2h-1.2v16.2h-11v1.3h11v20h-11v1.3h11v19.9h-11v1.3h11v20h-11v1.3h11v20h-11v1.3h11v19.9h-11
			v1.3h11v20h-11v1.3h11v20h-11v1.3h11v19.9h-11v1.3h11v20h-11v1.3h11v14.6h1.2V463h13.9v14.6h1.2V463h13.9v14.6h1.2V463h13.9v14.6
			h1.2V463H806v14.6h1.2V463h13.9v14.6h1.2V463h10v-1.3h-10v-20h10v-1.3h-10v-19.9h10v-1.3h-10v-20h10V398h-10v-20h10v-1.3h-10
			v-19.9h10v-1.3h-10v-20h10v-1.3h-10v-20h10v-1.3h-10v-19.9h10v-1.3h-10V272H832.4L832.4,272z M760.7,461.7h-13.9v-20h13.9
			L760.7,461.7L760.7,461.7z M760.7,440.5h-13.9v-19.9h13.9L760.7,440.5L760.7,440.5z M760.7,419.3h-13.9v-20h13.9L760.7,419.3
			L760.7,419.3z M760.7,398h-13.9v-20h13.9L760.7,398L760.7,398z M760.7,376.8h-13.9v-19.9h13.9L760.7,376.8L760.7,376.8z
			 M760.7,355.6h-13.9v-20h13.9L760.7,355.6L760.7,355.6z M760.7,334.4h-13.9v-20h13.9L760.7,334.4L760.7,334.4z M760.7,313.2h-13.9
			v-19.9h13.9L760.7,313.2L760.7,313.2z M760.7,291.9h-13.9v-20h13.9L760.7,291.9L760.7,291.9z M775.8,461.7h-13.9v-20h13.9V461.7z
			 M775.8,440.5h-13.9v-19.9h13.9V440.5z M775.8,419.3h-13.9v-20h13.9V419.3z M775.8,398h-13.9v-20h13.9V398z M775.8,376.8h-13.9
			v-19.9h13.9V376.8z M775.8,355.6h-13.9v-20h13.9V355.6z M775.8,334.4h-13.9v-20h13.9V334.4z M775.8,313.2h-13.9v-19.9h13.9V313.2z
			 M775.8,291.9h-13.9v-20h13.9V291.9z M790.9,461.7H777v-20h13.9V461.7z M790.9,440.5H777v-19.9h13.9V440.5z M790.9,419.3H777v-20
			h13.9V419.3z M790.9,398H777v-20h13.9V398z M790.9,376.8H777v-19.9h13.9V376.8z M790.9,355.6H777v-20h13.9V355.6z M790.9,334.4
			H777v-20h13.9V334.4z M790.9,313.2H777v-19.9h13.9V313.2z M790.9,291.9H777v-20h13.9V291.9z M806,461.7h-13.9v-20H806V461.7z
			 M806,440.5h-13.9v-19.9H806V440.5z M806,419.3h-13.9v-20H806V419.3z M806,398h-13.9v-20H806V398z M806,376.8h-13.9v-19.9H806
			V376.8z M806,355.6h-13.9v-20H806V355.6z M806,334.4h-13.9v-20H806V334.4z M806,313.2h-13.9v-19.9H806V313.2z M806,291.9h-13.9
			v-20H806V291.9z M821.1,461.7h-13.9v-20h13.9V461.7z M821.1,440.5h-13.9v-19.9h13.9V440.5z M821.1,419.3h-13.9v-20h13.9V419.3z
			 M821.1,398h-13.9v-20h13.9V398z M821.1,376.8h-13.9v-19.9h13.9V376.8z M821.1,355.6h-13.9v-20h13.9V355.6z M821.1,334.4h-13.9
			v-20h13.9V334.4z M821.1,313.2h-13.9v-19.9h13.9V313.2z M821.1,291.9h-13.9v-20h13.9V291.9z"/>
		<path class="st5" d="M832.4,479.9v-1.3h-10v-16.2h-1.2v16.2h-13.9v-16.2H806v16.2h-13.9v-16.2h-1.2v16.2h-13.9v-16.2h-1.2v16.2
			h-13.9v-16.2h-1.2v16.2h-13.9v-16.2h-1.2v16.2h-11v1.3h11v20h-11v1.3h11v19.9h-11v1.3h11v20h-11v1.3h11v20h-11v1.3h11v19.9h-11
			v1.3h11v20h-11v1.3h11v20h-11v1.3h11v19.9h-11v1.3h11v20h-11v1.3h11v14.6h1.2v-14.6h13.9v14.6h1.2v-14.6h13.9v14.6h1.2v-14.6h13.9
			v14.6h1.2v-14.6H806v14.6h1.2v-14.6h13.9v14.6h1.2v-14.6h10v-1.3h-10v-20h10v-1.3h-10v-19.9h10v-1.3h-10v-20h10V606h-10v-20h10
			v-1.3h-10v-19.9h10v-1.3h-10v-20h10v-1.3h-10v-20h10v-1.3h-10v-19.9h10v-1.3h-10v-19.9H832.4L832.4,479.9z M760.7,669.6h-13.9v-20
			h13.9L760.7,669.6L760.7,669.6z M760.7,648.4h-13.9v-19.9h13.9L760.7,648.4L760.7,648.4z M760.7,627.2h-13.9v-20h13.9L760.7,627.2
			L760.7,627.2z M760.7,606h-13.9v-20h13.9L760.7,606L760.7,606z M760.7,584.7h-13.9v-19.9h13.9L760.7,584.7L760.7,584.7z
			 M760.7,563.5h-13.9v-20h13.9L760.7,563.5L760.7,563.5z M760.7,542.3h-13.9v-20h13.9L760.7,542.3L760.7,542.3z M760.7,521.1h-13.9
			v-19.9h13.9L760.7,521.1L760.7,521.1z M760.7,499.9h-13.9v-20h13.9L760.7,499.9L760.7,499.9z M775.8,669.6h-13.9v-20h13.9V669.6z
			 M775.8,648.4h-13.9v-19.9h13.9V648.4z M775.8,627.2h-13.9v-20h13.9V627.2z M775.8,606h-13.9v-20h13.9V606z M775.8,584.7h-13.9
			v-19.9h13.9V584.7z M775.8,563.5h-13.9v-20h13.9V563.5z M775.8,542.3h-13.9v-20h13.9V542.3z M775.8,521.1h-13.9v-19.9h13.9V521.1z
			 M775.8,499.9h-13.9v-20h13.9V499.9z M790.9,669.6H777v-20h13.9V669.6z M790.9,648.4H777v-19.9h13.9V648.4z M790.9,627.2H777v-20
			h13.9V627.2z M790.9,606H777v-20h13.9V606z M790.9,584.7H777v-19.9h13.9V584.7z M790.9,563.5H777v-20h13.9V563.5z M790.9,542.3
			H777v-20h13.9V542.3z M790.9,521.1H777v-19.9h13.9V521.1z M790.9,499.9H777v-20h13.9V499.9z M806,669.6h-13.9v-20H806V669.6z
			 M806,648.4h-13.9v-19.9H806V648.4z M806,627.2h-13.9v-20H806V627.2z M806,606h-13.9v-20H806V606z M806,584.7h-13.9v-19.9H806
			V584.7z M806,563.5h-13.9v-20H806V563.5z M806,542.3h-13.9v-20H806V542.3z M806,521.1h-13.9v-19.9H806V521.1z M806,499.9h-13.9
			v-20H806V499.9z M821.1,669.6h-13.9v-20h13.9V669.6z M821.1,648.4h-13.9v-19.9h13.9V648.4z M821.1,627.2h-13.9v-20h13.9V627.2z
			 M821.1,606h-13.9v-20h13.9V606z M821.1,584.7h-13.9v-19.9h13.9V584.7z M821.1,563.5h-13.9v-20h13.9V563.5z M821.1,542.3h-13.9
			v-20h13.9V542.3z M821.1,521.1h-13.9v-19.9h13.9V521.1z M821.1,499.9h-13.9v-20h13.9V499.9z"/>
		<g class="st6">
			<path class="st7" d="M734.6,323.3v36.9l97.8-52.3V270L734.6,323.3z"/>
			<path class="st7" d="M832.4,339.2v-21.7l-97.8,52.3v21.7L832.4,339.2z"/>
		</g>
	</g>
</g>
<path class="st2" d="M1136.7,656.7h-87.2V218.5l87.2,54V656.7z"/>
<path class="st8" d="M406.8,651.8h-79.1V254.1l79.1,49V651.8z"/>
<path class="st8" d="M406.8,651.8h-79.1V254.1l79.1,49V651.8z"/>
<path class="st9" d="M1081.9,651.8h-63V335.1l63,39V651.8z"/>
<path class="st2" d="M172.2,200h-48.6V239h48.6V200z"/>
<path class="st2" d="M147.9,177.9L123.6,200h48.6L147.9,177.9z"/>
<path class="st2" d="M149.3,153.9h-2.8v33.2h2.8V153.9z"/>
<path class="st2" d="M100.2,172.4h-6.1v75.9h6.1V172.4z"/>
<path class="st2" d="M90.1,198.6h-8.6V247h8.6V198.6z"/>
<path class="st2" d="M82.7,230.6l-46.2,73v350.5h145.2V230.6H82.7z"/>
<path class="st4" d="M347.5,365.5v288.6h74.9V332.5L347.5,365.5z"/>
<path class="st10" d="M445.7,332.5h-23.2V651h23.2V332.5z"/>
<path class="st4" d="M435.8,348.6h-3.5V651h3.5V348.6z"/>
<path class="st11" d="M422.4,521.9h-74.9v1.9h74.9V521.9z"/>
<path class="st11" d="M422.4,474.1h-74.9v1.9h74.9V474.1z"/>
<path class="st11" d="M422.4,506h-74.9v1.9h74.9V506z"/>
<path class="st11" d="M422.4,490h-74.9v1.9h74.9V490z"/>
<path class="st11" d="M422.4,537.8h-74.9v1.9h74.9V537.8z"/>
<path class="st11" d="M422.4,569.7h-74.9v1.9h74.9V569.7z"/>
<path class="st11" d="M422.4,585.6h-74.9v1.9h74.9V585.6z"/>
<path class="st11" d="M422.4,553.7h-74.9v1.9h74.9V553.7z"/>
<path class="st11" d="M422.4,378.6h-74.9v1.9h74.9V378.6z"/>
<path class="st11" d="M353.5,362.6l-4.3,1.9h73.3v-1.9H353.5z"/>
<path class="st11" d="M422.4,458.2h-74.9v1.9h74.9V458.2z"/>
<path class="st11" d="M389.9,346.7l-4.3,1.9h36.9v-1.9H389.9z"/>
<path class="st11" d="M422.4,394.5h-74.9v1.9h74.9V394.5z"/>
<path class="st11" d="M422.4,442.3h-74.9v1.9h74.9V442.3z"/>
<path class="st11" d="M422.4,410.4h-74.9v1.9h74.9V410.4z"/>
<path class="st11" d="M422.4,426.3h-74.9v1.9h74.9V426.3z"/>
<path class="st12" d="M78.8,400v254.1h66V370.9L78.8,400z"/>
<path class="st10" d="M165.2,370.9h-20.5v280.4h20.5V370.9z"/>
<path class="st4" d="M156.5,385.2h-3.1v266.2h3.1V385.2z"/>
<path class="st13" d="M144.8,537.7h-66v1.7h66V537.7z"/>
<path class="st13" d="M144.8,495.6h-66v1.7h66V495.6z"/>
<path class="st13" d="M144.8,523.7h-66v1.7h66V523.7z"/>
<path class="st13" d="M144.8,509.7h-66v1.7h66V509.7z"/>
<path class="st13" d="M144.8,551.7h-66v1.7h66V551.7z"/>
<path class="st13" d="M144.8,579.8h-66v1.7h66V579.8z"/>
<path class="st13" d="M144.8,593.8h-66v1.7h66V593.8z"/>
<path class="st13" d="M144.8,565.7h-66v1.7h66V565.7z"/>
<path class="st13" d="M144.8,411.5h-66v1.7h66V411.5z"/>
<path class="st13" d="M84.1,397.5l-3.8,1.7h64.5v-1.7H84.1z"/>
<path class="st13" d="M144.8,481.6h-66v1.7h66V481.6z"/>
<path class="st13" d="M116.1,383.5l-3.8,1.7h32.5v-1.7H116.1z"/>
<path class="st13" d="M144.8,425.5h-66v1.7h66V425.5z"/>
<path class="st13" d="M144.8,467.6h-66v1.7h66V467.6z"/>
<path class="st13" d="M144.8,439.6h-66v1.7h66V439.6z"/>
<path class="st13" d="M144.8,453.6h-66v1.7h66V453.6z"/>
<path class="st14" d="M182.4,680.4h110V122.7l-110,114.7V680.4z"/>
<path class="st4" d="M292.4,122.7h35.3v533.6h-35.3V122.7z"/>
<path class="st7" d="M182.4,241V239h5.3v-7.1l2.1-2.2v9.3h6.9v-16.4l2.1-2.2V239h6.9v-20H200l2-2.1h3.6v-3.7l2.1-2.2v5.9h6.9v-13.1
	l2.1-2.2v15.3h6.9v-20h-2.4l2-2.1h0.4v-0.4l2.1-2.2v2.6h6.9v-9.8l2.1-2.2v11.9h6.9v-19.1l2.8-2.9h6.2v-6.4l2.1-2.2v8.6h6.9v-15.8
	l2.1-2.2v17.9h6.9v-25.1l2.1-2.2v27.3h6.9v-34.5l2.1-2.2v36.6h6.9V129l2.1-2.2v46h3.9v2.1h-3.9v20h3.9v2.1h-3.9v20h3.9v2.1h-3.9v20
	h3.9v2.1h-3.9v20h3.9v2.1h-3.9v20h3.9v2.1h-3.9v20h3.9v2.1h-3.9v20h3.9v2.1h-3.9v20h3.9v2.1h-3.9v20h3.9v2.1h-3.9v20h3.9v2.1h-3.9
	v20h3.9v2.1h-3.9v20h3.9v2.1h-3.9v20h3.9v2.1h-3.9v20h3.9v2.1h-3.9v20h3.9v2.1h-3.9v20h3.9v2.1h-3.9v20h3.9v2.1h-3.9v130.7h-2.1
	V549.7h-6.9v130.7h-2.1V549.7h-6.9v130.7h-2.1V549.7h-6.9v130.7h-2.1V549.7h-6.9v130.7h-2.1V549.7h-6.9v130.7h-2.1V549.7h-6.9v130.7
	h-2.1V549.7h-6.9v130.7h-2.1V549.7h-6.9v130.7h-2.1V549.7h-6.9v130.7h-2.1V549.7h-6.9v130.7h-2.1V549.7h-6.9v130.7h-2.1V549.7h-5.3
	v-2.1h5.3v-20h-5.3v-2.1h5.3v-20h-5.3v-2.1h5.3v-20h-5.3v-2.1h5.3v-20h-5.3v-2.1h5.3v-20h-5.3v-2.1h5.3v-20h-5.3v-2.1h5.3v-20h-5.3
	v-2.1h5.3v-20h-5.3v-2.1h5.3v-20h-5.3v-2.1h5.3v-20h-5.3v-2.1h5.3v-20h-5.3v-2.1h5.3v-20h-5.3v-2.1h5.3v-20h-5.3V261h5.3v-20H182.4
	L182.4,241z M279.5,547.6h6.9v-20h-6.9V547.6z M279.5,525.6h6.9v-20h-6.9V525.6z M279.5,503.5h6.9v-20h-6.9V503.5z M279.5,481.5h6.9
	v-20h-6.9V481.5z M279.5,459.4h6.9v-20h-6.9V459.4z M279.5,437.4h6.9v-20h-6.9V437.4z M279.5,415.3h6.9v-20h-6.9V415.3z
	 M279.5,393.3h6.9v-20h-6.9V393.3z M279.5,371.2h6.9v-20h-6.9V371.2z M279.5,349.2h6.9v-20h-6.9V349.2z M279.5,327.1h6.9v-20h-6.9
	V327.1z M279.5,305.1h6.9v-20h-6.9V305.1z M279.5,283.1h6.9v-20h-6.9V283.1z M279.5,261h6.9v-20h-6.9V261z M279.5,239h6.9v-20h-6.9
	V239z M279.5,216.9h6.9v-20h-6.9V216.9z M279.5,194.9h6.9v-20h-6.9V194.9z M270.5,547.6h6.9v-20h-6.9V547.6z M270.5,525.6h6.9v-20
	h-6.9V525.6z M270.5,503.5h6.9v-20h-6.9V503.5z M270.5,481.5h6.9v-20h-6.9V481.5z M270.5,459.4h6.9v-20h-6.9V459.4z M270.5,437.4
	h6.9v-20h-6.9V437.4z M270.5,415.3h6.9v-20h-6.9V415.3z M270.5,393.3h6.9v-20h-6.9V393.3z M270.5,371.2h6.9v-20h-6.9V371.2z
	 M270.5,349.2h6.9v-20h-6.9V349.2z M270.5,327.1h6.9v-20h-6.9V327.1z M270.5,305.1h6.9v-20h-6.9V305.1z M270.5,283.1h6.9v-20h-6.9
	V283.1z M270.5,261h6.9v-20h-6.9V261z M270.5,239h6.9v-20h-6.9V239z M270.5,216.9h6.9v-20h-6.9V216.9z M270.5,194.9h6.9v-20h-6.9
	V194.9z M261.5,547.6h6.9v-20h-6.9V547.6z M261.5,525.6h6.9v-20h-6.9V525.6z M261.5,503.5h6.9v-20h-6.9V503.5z M261.5,481.5h6.9v-20
	h-6.9V481.5z M261.5,459.4h6.9v-20h-6.9V459.4z M261.5,437.4h6.9v-20h-6.9V437.4z M261.5,415.3h6.9v-20h-6.9V415.3z M261.5,393.3
	h6.9v-20h-6.9V393.3z M261.5,371.2h6.9v-20h-6.9V371.2z M261.5,349.2h6.9v-20h-6.9V349.2z M261.5,327.1h6.9v-20h-6.9V327.1z
	 M261.5,305.1h6.9v-20h-6.9V305.1z M261.5,283.1h6.9v-20h-6.9V283.1z M261.5,261h6.9v-20h-6.9V261z M261.5,239h6.9v-20h-6.9V239z
	 M261.5,216.9h6.9v-20h-6.9V216.9z M261.5,194.9h6.9v-20h-6.9V194.9z M252.6,547.6h6.9v-20h-6.9V547.6z M252.6,525.6h6.9v-20h-6.9
	V525.6z M252.6,503.5h6.9v-20h-6.9V503.5z M252.6,481.5h6.9v-20h-6.9V481.5z M252.6,459.4h6.9v-20h-6.9V459.4z M252.6,437.4h6.9v-20
	h-6.9V437.4z M252.6,415.3h6.9v-20h-6.9V415.3z M252.6,393.3h6.9v-20h-6.9V393.3z M252.6,371.2h6.9v-20h-6.9V371.2z M252.6,349.2
	h6.9v-20h-6.9V349.2z M252.6,327.1h6.9v-20h-6.9V327.1z M252.6,305.1h6.9v-20h-6.9V305.1z M252.6,283.1h6.9v-20h-6.9V283.1z
	 M252.6,261h6.9v-20h-6.9V261z M252.6,239h6.9v-20h-6.9V239z M252.6,216.9h6.9v-20h-6.9V216.9z M252.6,194.9h6.9v-20h-6.9V194.9z
	 M243.6,547.6h6.9v-20h-6.9V547.6z M243.6,525.6h6.9v-20h-6.9V525.6z M243.6,503.5h6.9v-20h-6.9V503.5z M243.6,481.5h6.9v-20h-6.9
	V481.5z M243.6,459.4h6.9v-20h-6.9V459.4z M243.6,437.4h6.9v-20h-6.9V437.4z M243.6,415.3h6.9v-20h-6.9V415.3z M243.6,393.3h6.9v-20
	h-6.9V393.3z M243.6,371.2h6.9v-20h-6.9V371.2z M243.6,349.2h6.9v-20h-6.9V349.2z M243.6,327.1h6.9v-20h-6.9V327.1z M243.6,305.1
	h6.9v-20h-6.9V305.1z M243.6,283.1h6.9v-20h-6.9V283.1z M243.6,261h6.9v-20h-6.9V261z M243.6,239h6.9v-20h-6.9V239z M243.6,216.9
	h6.9v-20h-6.9V216.9z M243.6,194.9h6.9v-20h-6.9V194.9z M234.6,547.6h6.9v-20h-6.9V547.6z M234.6,525.6h6.9v-20h-6.9V525.6z
	 M234.6,503.5h6.9v-20h-6.9V503.5z M234.6,481.5h6.9v-20h-6.9V481.5z M234.6,459.4h6.9v-20h-6.9V459.4z M234.6,437.4h6.9v-20h-6.9
	V437.4z M234.6,415.3h6.9v-20h-6.9V415.3z M234.6,393.3h6.9v-20h-6.9V393.3z M234.6,371.2h6.9v-20h-6.9V371.2z M234.6,349.2h6.9v-20
	h-6.9V349.2z M234.6,327.1h6.9v-20h-6.9V327.1z M234.6,305.1h6.9v-20h-6.9V305.1z M234.6,283.1h6.9v-20h-6.9V283.1z M234.6,261h6.9
	v-20h-6.9V261z M234.6,239h6.9v-20h-6.9V239z M234.6,216.9h6.9v-20h-6.9V216.9z M225.6,547.6h6.9v-20h-6.9V547.6z M225.6,525.6h6.9
	v-20h-6.9V525.6z M225.6,503.5h6.9v-20h-6.9V503.5z M225.6,481.5h6.9v-20h-6.9V481.5z M225.6,459.4h6.9v-20h-6.9V459.4z
	 M225.6,437.4h6.9v-20h-6.9V437.4z M225.6,415.3h6.9v-20h-6.9V415.3z M225.6,393.3h6.9v-20h-6.9V393.3z M225.6,371.2h6.9v-20h-6.9
	V371.2z M225.6,349.2h6.9v-20h-6.9V349.2z M225.6,327.1h6.9v-20h-6.9V327.1z M225.6,305.1h6.9v-20h-6.9V305.1z M225.6,283.1h6.9v-20
	h-6.9V283.1z M225.6,261h6.9v-20h-6.9V261z M225.6,239h6.9v-20h-6.9V239z M225.6,216.9h6.9v-20h-6.9V216.9z M216.6,547.6h6.9v-20
	h-6.9V547.6z M216.6,525.6h6.9v-20h-6.9V525.6z M216.6,503.5h6.9v-20h-6.9V503.5z M216.6,481.5h6.9v-20h-6.9V481.5z M216.6,459.4
	h6.9v-20h-6.9V459.4z M216.6,437.4h6.9v-20h-6.9V437.4z M216.6,415.3h6.9v-20h-6.9V415.3z M216.6,393.3h6.9v-20h-6.9V393.3z
	 M216.6,371.2h6.9v-20h-6.9V371.2z M216.6,349.2h6.9v-20h-6.9V349.2z M216.6,327.1h6.9v-20h-6.9V327.1z M216.6,305.1h6.9v-20h-6.9
	V305.1z M216.6,283.1h6.9v-20h-6.9V283.1z M216.6,261h6.9v-20h-6.9V261z M216.6,239h6.9v-20h-6.9V239z M207.6,547.6h6.9v-20h-6.9
	V547.6z M207.6,525.6h6.9v-20h-6.9V525.6z M207.6,503.5h6.9v-20h-6.9V503.5z M207.6,481.5h6.9v-20h-6.9V481.5z M207.6,459.4h6.9v-20
	h-6.9V459.4z M207.6,437.4h6.9v-20h-6.9V437.4z M207.6,415.3h6.9v-20h-6.9V415.3z M207.6,393.3h6.9v-20h-6.9V393.3z M207.6,371.2
	h6.9v-20h-6.9V371.2z M207.6,349.2h6.9v-20h-6.9V349.2z M207.6,327.1h6.9v-20h-6.9V327.1z M207.6,305.1h6.9v-20h-6.9V305.1z
	 M207.6,283.1h6.9v-20h-6.9V283.1z M207.6,261h6.9v-20h-6.9V261z M207.6,239h6.9v-20h-6.9V239z M198.7,547.6h6.9v-20h-6.9V547.6z
	 M198.7,525.6h6.9v-20h-6.9V525.6z M198.7,503.5h6.9v-20h-6.9V503.5z M198.7,481.5h6.9v-20h-6.9V481.5z M198.7,459.4h6.9v-20h-6.9
	V459.4z M198.7,437.4h6.9v-20h-6.9V437.4z M198.7,415.3h6.9v-20h-6.9V415.3z M198.7,393.3h6.9v-20h-6.9V393.3z M198.7,371.2h6.9v-20
	h-6.9V371.2z M198.7,349.2h6.9v-20h-6.9V349.2z M198.7,327.1h6.9v-20h-6.9V327.1z M198.7,305.1h6.9v-20h-6.9V305.1z M198.7,283.1
	h6.9v-20h-6.9V283.1z M198.7,261h6.9v-20h-6.9V261z M189.7,547.6h6.9v-20h-6.9V547.6z M189.7,525.6h6.9v-20h-6.9V525.6z
	 M189.7,503.5h6.9v-20h-6.9V503.5z M189.7,481.5h6.9v-20h-6.9V481.5z M189.7,459.4h6.9v-20h-6.9V459.4z M189.7,437.4h6.9v-20h-6.9
	V437.4z M189.7,415.3h6.9v-20h-6.9V415.3z M189.7,393.3h6.9v-20h-6.9V393.3z M189.7,371.2h6.9v-20h-6.9V371.2z M189.7,349.2h6.9v-20
	h-6.9V349.2z M189.7,327.1h6.9v-20h-6.9V327.1z M189.7,305.1h6.9v-20h-6.9V305.1z M189.7,283.1h6.9v-20h-6.9V283.1z M189.7,261h6.9
	v-20h-6.9V261z"/>
<g class="st15">
	<path class="st7" d="M182.4,369.6v-35.3l110,90.5v35.3L182.4,369.6z"/>
	<path class="st7" d="M292.4,349.1v60l-110-90.4V257L292.4,349.1z"/>
</g>
<path class="st14" d="M1245.5,680.4h-120V72.1l120,125.1V680.4z"/>
<path class="st4" d="M1125.5,72.1H1087v582h38.5V72.1z"/>
<path class="st7" d="M1245.5,201.1v-2.3h-5.8v-7.7l-2.3-2.4v10.1h-7.5v-17.9l-2.3-2.4v20.3h-7.5v-21.8h6.1l-2.2-2.3h-3.9v-4.1
	l-2.3-2.4v6.4h-7.5v-14.3l-2.3-2.4v16.6h-7.5V153h2.6l-2.2-2.3h-0.4v-0.4l-2.3-2.4v2.8h-7.5v-10.6l-2.3-2.4v13h-7.5v-20.8l-3.1-3.2
	h-6.7v-7l-2.3-2.4v9.4h-7.5v-17.2l-2.3-2.4v19.6h-7.5V99.3l-2.3-2.4v29.8h-7.5V89.1l-2.3-2.4v40h-7.5V78.9l-2.3-2.4v50.2h-4.3v2.3
	h4.3v21.8h-4.3v2.3h4.3v21.8h-4.3v2.3h4.3v21.8h-4.3v2.3h4.3v21.8h-4.3v2.3h4.3v21.8h-4.3v2.3h4.3V271h-4.3v2.3h4.3v21.8h-4.3v2.3
	h4.3v21.8h-4.3v2.3h4.3v21.8h-4.3v2.3h4.3v21.8h-4.3v2.3h4.3v21.8h-4.3v2.3h4.3v21.8h-4.3v2.3h4.3v21.8h-4.3v2.3h4.3v21.8h-4.3v2.3
	h4.3v21.8h-4.3v2.3h4.3v21.8h-4.3v2.3h4.3v21.8h-4.3v2.3h4.3v142.5h2.3V537.9h7.5v142.5h2.3V537.9h7.5v142.5h2.3V537.9h7.5v142.5
	h2.3V537.9h7.5v142.5h2.3V537.9h7.5v142.5h2.3V537.9h7.5v142.5h2.3V537.9h7.5v142.5h2.3V537.9h7.5v142.5h2.3V537.9h7.5v142.5h2.3
	V537.9h7.5v142.5h2.3V537.9h7.5v142.5h2.3V537.9h5.8v-2.3h-5.8v-21.8h5.8v-2.3h-5.8v-21.8h5.8v-2.3h-5.8v-21.8h5.8v-2.3h-5.8v-21.8
	h5.8v-2.3h-5.8v-21.8h5.8v-2.3h-5.8v-21.8h5.8v-2.3h-5.8v-21.8h5.8v-2.3h-5.8v-21.8h5.8v-2.3h-5.8v-21.8h5.8v-2.3h-5.8v-21.8h5.8
	v-2.3h-5.8v-21.8h5.8V271h-5.8v-21.8h5.8v-2.3h-5.8v-21.8h5.8v-2.3h-5.8v-21.8H1245.5L1245.5,201.1z M1139.6,535.6h-7.5v-21.8h7.5
	V535.6z M1139.6,511.5h-7.5v-21.8h7.5V511.5z M1139.6,487.5h-7.5v-21.8h7.5V487.5z M1139.6,463.4h-7.5v-21.8h7.5V463.4z
	 M1139.6,439.4h-7.5v-21.8h7.5V439.4z M1139.6,415.3h-7.5v-21.8h7.5V415.3z M1139.6,391.3h-7.5v-21.8h7.5V391.3z M1139.6,367.2h-7.5
	v-21.8h7.5V367.2z M1139.6,343.2h-7.5v-21.8h7.5V343.2z M1139.6,319.1h-7.5v-21.8h7.5V319.1z M1139.6,295.1h-7.5v-21.8h7.5V295.1z
	 M1139.6,271h-7.5v-21.8h7.5V271z M1139.6,246.9h-7.5v-21.8h7.5V246.9z M1139.6,222.9h-7.5v-21.8h7.5V222.9z M1139.6,198.8h-7.5
	v-21.8h7.5V198.8z M1139.6,174.8h-7.5V153h7.5V174.8z M1139.6,150.7h-7.5V129h7.5V150.7z M1149.4,535.6h-7.5v-21.8h7.5V535.6z
	 M1149.4,511.5h-7.5v-21.8h7.5V511.5z M1149.4,487.5h-7.5v-21.8h7.5V487.5z M1149.4,463.4h-7.5v-21.8h7.5V463.4z M1149.4,439.4h-7.5
	v-21.8h7.5V439.4z M1149.4,415.3h-7.5v-21.8h7.5V415.3z M1149.4,391.3h-7.5v-21.8h7.5V391.3z M1149.4,367.2h-7.5v-21.8h7.5V367.2z
	 M1149.4,343.2h-7.5v-21.8h7.5V343.2z M1149.4,319.1h-7.5v-21.8h7.5V319.1z M1149.4,295.1h-7.5v-21.8h7.5V295.1z M1149.4,271h-7.5
	v-21.8h7.5V271z M1149.4,246.9h-7.5v-21.8h7.5V246.9z M1149.4,222.9h-7.5v-21.8h7.5V222.9z M1149.4,198.8h-7.5v-21.8h7.5V198.8z
	 M1149.4,174.8h-7.5V153h7.5V174.8z M1149.4,150.7h-7.5V129h7.5V150.7z M1159.2,535.6h-7.5v-21.8h7.5V535.6z M1159.2,511.5h-7.5
	v-21.8h7.5V511.5z M1159.2,487.5h-7.5v-21.8h7.5V487.5z M1159.2,463.4h-7.5v-21.8h7.5V463.4z M1159.2,439.4h-7.5v-21.8h7.5V439.4z
	 M1159.2,415.3h-7.5v-21.8h7.5V415.3z M1159.2,391.3h-7.5v-21.8h7.5V391.3z M1159.2,367.2h-7.5v-21.8h7.5V367.2z M1159.2,343.2h-7.5
	v-21.8h7.5V343.2z M1159.2,319.1h-7.5v-21.8h7.5V319.1z M1159.2,295.1h-7.5v-21.8h7.5V295.1z M1159.2,271h-7.5v-21.8h7.5V271z
	 M1159.2,246.9h-7.5v-21.8h7.5V246.9z M1159.2,222.9h-7.5v-21.8h7.5V222.9z M1159.2,198.8h-7.5v-21.8h7.5V198.8z M1159.2,174.8h-7.5
	V153h7.5V174.8z M1159.2,150.7h-7.5V129h7.5V150.7z M1169,535.6h-7.5v-21.8h7.5V535.6z M1169,511.5h-7.5v-21.8h7.5V511.5z
	 M1169,487.5h-7.5v-21.8h7.5V487.5z M1169,463.4h-7.5v-21.8h7.5V463.4z M1169,439.4h-7.5v-21.8h7.5V439.4z M1169,415.3h-7.5v-21.8
	h7.5V415.3z M1169,391.3h-7.5v-21.8h7.5V391.3z M1169,367.2h-7.5v-21.8h7.5V367.2z M1169,343.2h-7.5v-21.8h7.5V343.2z M1169,319.1
	h-7.5v-21.8h7.5V319.1z M1169,295.1h-7.5v-21.8h7.5V295.1z M1169,271h-7.5v-21.8h7.5V271z M1169,246.9h-7.5v-21.8h7.5V246.9z
	 M1169,222.9h-7.5v-21.8h7.5V222.9z M1169,198.8h-7.5v-21.8h7.5V198.8z M1169,174.8h-7.5V153h7.5V174.8z M1169,150.7h-7.5V129h7.5
	V150.7z M1178.8,535.6h-7.5v-21.8h7.5V535.6z M1178.8,511.5h-7.5v-21.8h7.5V511.5z M1178.8,487.5h-7.5v-21.8h7.5V487.5z
	 M1178.8,463.4h-7.5v-21.8h7.5V463.4z M1178.8,439.4h-7.5v-21.8h7.5V439.4z M1178.8,415.3h-7.5v-21.8h7.5V415.3z M1178.8,391.3h-7.5
	v-21.8h7.5V391.3z M1178.8,367.2h-7.5v-21.8h7.5V367.2z M1178.8,343.2h-7.5v-21.8h7.5V343.2z M1178.8,319.1h-7.5v-21.8h7.5V319.1z
	 M1178.8,295.1h-7.5v-21.8h7.5V295.1z M1178.8,271h-7.5v-21.8h7.5V271z M1178.8,246.9h-7.5v-21.8h7.5V246.9z M1178.8,222.9h-7.5
	v-21.8h7.5V222.9z M1178.8,198.8h-7.5v-21.8h7.5V198.8z M1178.8,174.8h-7.5V153h7.5V174.8z M1178.8,150.7h-7.5V129h7.5V150.7z
	 M1188.6,535.6h-7.5v-21.8h7.5V535.6z M1188.6,511.5h-7.5v-21.8h7.5V511.5z M1188.6,487.5h-7.5v-21.8h7.5V487.5z M1188.6,463.4h-7.5
	v-21.8h7.5V463.4z M1188.6,439.4h-7.5v-21.8h7.5V439.4z M1188.6,415.3h-7.5v-21.8h7.5V415.3z M1188.6,391.3h-7.5v-21.8h7.5V391.3z
	 M1188.6,367.2h-7.5v-21.8h7.5V367.2z M1188.6,343.2h-7.5v-21.8h7.5V343.2z M1188.6,319.1h-7.5v-21.8h7.5V319.1z M1188.6,295.1h-7.5
	v-21.8h7.5V295.1z M1188.6,271h-7.5v-21.8h7.5V271z M1188.6,246.9h-7.5v-21.8h7.5V246.9z M1188.6,222.9h-7.5v-21.8h7.5V222.9z
	 M1188.6,198.8h-7.5v-21.8h7.5V198.8z M1188.6,174.8h-7.5V153h7.5V174.8z M1198.4,535.6h-7.5v-21.8h7.5V535.6z M1198.4,511.5h-7.5
	v-21.8h7.5V511.5z M1198.4,487.5h-7.5v-21.8h7.5V487.5z M1198.4,463.4h-7.5v-21.8h7.5V463.4z M1198.4,439.4h-7.5v-21.8h7.5V439.4z
	 M1198.4,415.3h-7.5v-21.8h7.5V415.3z M1198.4,391.3h-7.5v-21.8h7.5V391.3z M1198.4,367.2h-7.5v-21.8h7.5V367.2z M1198.4,343.2h-7.5
	v-21.8h7.5V343.2z M1198.4,319.1h-7.5v-21.8h7.5V319.1z M1198.4,295.1h-7.5v-21.8h7.5V295.1z M1198.4,271h-7.5v-21.8h7.5V271z
	 M1198.4,246.9h-7.5v-21.8h7.5V246.9z M1198.4,222.9h-7.5v-21.8h7.5V222.9z M1198.4,198.8h-7.5v-21.8h7.5V198.8z M1198.4,174.8h-7.5
	V153h7.5V174.8z M1208.2,535.6h-7.5v-21.8h7.5V535.6z M1208.2,511.5h-7.5v-21.8h7.5V511.5z M1208.2,487.5h-7.5v-21.8h7.5V487.5z
	 M1208.2,463.4h-7.5v-21.8h7.5V463.4z M1208.2,439.4h-7.5v-21.8h7.5V439.4z M1208.2,415.3h-7.5v-21.8h7.5V415.3z M1208.2,391.3h-7.5
	v-21.8h7.5V391.3z M1208.2,367.2h-7.5v-21.8h7.5V367.2z M1208.2,343.2h-7.5v-21.8h7.5V343.2z M1208.2,319.1h-7.5v-21.8h7.5V319.1z
	 M1208.2,295.1h-7.5v-21.8h7.5V295.1z M1208.2,271h-7.5v-21.8h7.5V271z M1208.2,246.9h-7.5v-21.8h7.5V246.9z M1208.2,222.9h-7.5
	v-21.8h7.5V222.9z M1208.2,198.8h-7.5v-21.8h7.5V198.8z M1218,535.6h-7.5v-21.8h7.5V535.6z M1218,511.5h-7.5v-21.8h7.5V511.5z
	 M1218,487.5h-7.5v-21.8h7.5V487.5z M1218,463.4h-7.5v-21.8h7.5V463.4z M1218,439.4h-7.5v-21.8h7.5V439.4z M1218,415.3h-7.5v-21.8
	h7.5V415.3z M1218,391.3h-7.5v-21.8h7.5V391.3z M1218,367.2h-7.5v-21.8h7.5V367.2z M1218,343.2h-7.5v-21.8h7.5V343.2z M1218,319.1
	h-7.5v-21.8h7.5V319.1z M1218,295.1h-7.5v-21.8h7.5V295.1z M1218,271h-7.5v-21.8h7.5V271z M1218,246.9h-7.5v-21.8h7.5V246.9z
	 M1218,222.9h-7.5v-21.8h7.5V222.9z M1218,198.8h-7.5v-21.8h7.5V198.8z M1227.8,535.6h-7.5v-21.8h7.5V535.6z M1227.8,511.5h-7.5
	v-21.8h7.5V511.5z M1227.8,487.5h-7.5v-21.8h7.5V487.5z M1227.8,463.4h-7.5v-21.8h7.5V463.4z M1227.8,439.4h-7.5v-21.8h7.5V439.4z
	 M1227.8,415.3h-7.5v-21.8h7.5V415.3z M1227.8,391.3h-7.5v-21.8h7.5V391.3z M1227.8,367.2h-7.5v-21.8h7.5V367.2z M1227.8,343.2h-7.5
	v-21.8h7.5V343.2z M1227.8,319.1h-7.5v-21.8h7.5V319.1z M1227.8,295.1h-7.5v-21.8h7.5V295.1z M1227.8,271h-7.5v-21.8h7.5V271z
	 M1227.8,246.9h-7.5v-21.8h7.5V246.9z M1227.8,222.9h-7.5v-21.8h7.5V222.9z M1237.6,535.6h-7.5v-21.8h7.5V535.6z M1237.6,511.5h-7.5
	v-21.8h7.5V511.5z M1237.6,487.5h-7.5v-21.8h7.5V487.5z M1237.6,463.4h-7.5v-21.8h7.5V463.4z M1237.6,439.4h-7.5v-21.8h7.5V439.4z
	 M1237.6,415.3h-7.5v-21.8h7.5V415.3z M1237.6,391.3h-7.5v-21.8h7.5V391.3z M1237.6,367.2h-7.5v-21.8h7.5V367.2z M1237.6,343.2h-7.5
	v-21.8h7.5V343.2z M1237.6,319.1h-7.5v-21.8h7.5V319.1z M1237.6,295.1h-7.5v-21.8h7.5V295.1z M1237.6,271h-7.5v-21.8h7.5V271z
	 M1237.6,246.9h-7.5v-21.8h7.5V246.9z M1237.6,222.9h-7.5v-21.8h7.5V222.9z"/>
<g class="st15">
	<path class="st7" d="M1245.5,341.4v-38.5l-120,98.7v38.5L1245.5,341.4z"/>
	<path class="st7" d="M1125.5,319v65.5l120-98.7v-67.3L1125.5,319z"/>
</g>
<path class="st4" d="M832,323.7v327.9h85.8V286.2L832,323.7z"/>
<path class="st10" d="M944.4,286.2h-26.6v364.7h26.6V286.2z"/>
<path class="st4" d="M933.1,304.7h-4v346.2h4V304.7z"/>
<path class="st11" d="M917.8,503.1H832v2.2h85.8V503.1z"/>
<path class="st11" d="M917.8,448.4H832v2.2h85.8V448.4z"/>
<path class="st11" d="M917.8,484.8H832v2.2h85.8V484.8z"/>
<path class="st11" d="M917.8,466.6H832v2.2h85.8V466.6z"/>
<path class="st11" d="M917.8,521.3H832v2.2h85.8V521.3z"/>
<path class="st11" d="M917.8,557.8H832v2.2h85.8V557.8z"/>
<path class="st11" d="M917.8,576H832v2.2h85.8V576z"/>
<path class="st11" d="M917.8,539.5H832v2.2h85.8V539.5z"/>
<path class="st11" d="M917.8,339H832v2.2h85.8V339z"/>
<path class="st11" d="M838.9,320.7l-5,2.2h83.9v-2.2H838.9z"/>
<path class="st11" d="M917.8,430.1H832v2.2h85.8V430.1z"/>
<path class="st11" d="M880.5,302.5l-5,2.2h42.3v-2.2H880.5z"/>
<path class="st11" d="M917.8,357.2H832v2.2h85.8V357.2z"/>
<path class="st11" d="M917.8,411.9H832v2.2h85.8V411.9z"/>
<path class="st11" d="M917.8,375.4H832v2.2h85.8V375.4z"/>
<path class="st11" d="M917.8,393.7H832v2.2h85.8V393.7z"/>
<path class="st16" d="M484.4,242.3h-48.5v73.1h48.5V242.3z"/>
<path class="st16" d="M470.3,221.2h-20.5v34.3h20.5V221.2z"/>
<path class="st16" d="M461.2,185.4H459v53h2.2V185.4z"/>
<path class="st14" d="M431.8,332.5v321.6h89.5V201.5C471.8,201.5,431.8,260.2,431.8,332.5z"/>
<path class="st16" d="M464,213.8c0,1.7-1.7,3-3.9,3c-2.2,0-3.9-1.3-3.9-3c0-1.7,1.7-3,3.9-3C462.2,210.8,464,212.1,464,213.8z"/>
<path class="st7" d="M521.3,365.6h-89.5v2.3h89.5V365.6z"/>
<path class="st7" d="M521.3,404.5h-89.5v2.3h89.5V404.5z"/>
<path class="st7" d="M521.3,385.1h-89.5v2.3h89.5V385.1z"/>
<path class="st7" d="M521.3,443.4h-89.5v2.3h89.5V443.4z"/>
<path class="st7" d="M521.3,423.9h-89.5v2.3h89.5V423.9z"/>
<path class="st7" d="M521.3,462.8h-89.5v2.3h89.5V462.8z"/>
<path class="st7" d="M521.3,482.2h-89.5v2.3h89.5V482.2z"/>
<path class="st7" d="M521.3,501.7h-89.5v2.3h89.5V501.7z"/>
<path class="st7" d="M521.3,212.5v-2.3h-32c-1.3,0.7-2.6,1.5-3.9,2.3H521.3z"/>
<path class="st7" d="M443.1,268.4c-0.3,0.8-0.6,1.5-0.9,2.3h79.1v-2.3H443.1z"/>
<path class="st7" d="M521.3,346.2h-89.5v2.3h89.5V346.2z"/>
<path class="st7" d="M465.8,229.6c-0.7,0.8-1.3,1.5-2,2.3h57.4v-2.3H465.8z"/>
<path class="st7" d="M452.2,249c-0.4,0.8-0.8,1.6-1.3,2.3h70.4V249H452.2z"/>
<path class="st7" d="M431.9,326.7c0,0.8,0,1.5,0,2.3h89.4v-2.3H431.9z"/>
<path class="st7" d="M433.4,307.3c-0.1,0.8-0.2,1.5-0.3,2.3h88.2v-2.3H433.4z"/>
<path class="st7" d="M437,287.9c-0.2,0.8-0.4,1.5-0.5,2.3h84.8v-2.3H437z"/>
<path class="st4" d="M545.5,201.5h-24.2v450.2h24.2V201.5z"/>
<g class="st15">
	<path class="st7" d="M451.2,250.8c-5.9,10.9-10.7,23.2-14.1,36.5l84.1,78.1v-49.5L451.2,250.8z"/>
</g>
<g class="st15">
	<path class="st7" d="M521.3,415.8v-28.9l-87.7-81.4c-1.2,8.5-1.8,17.3-1.8,26.3v0.9L521.3,415.8L521.3,415.8z"/>
</g>
<path class="st17" d="M539,210.1h-11v248.8h11V210.1z"/>
<path class="st16" d="M976.7,242.3h48.5v73.1h-48.5V242.3z"/>
<path class="st16" d="M990.7,221.2h20.5v34.3h-20.5V221.2z"/>
<path class="st16" d="M999.9,185.4h2.2v53h-2.2V185.4z"/>
<path class="st14" d="M1029.3,331.8v319.8h-89.5V201.5C989.2,201.5,1029.3,259.9,1029.3,331.8z"/>
<path class="st16" d="M997.1,213.8c0,1.7,1.7,3,3.9,3c2.2,0,3.9-1.3,3.9-3c0-1.7-1.7-3-3.9-3C998.8,210.8,997.1,212.1,997.1,213.8z"
	/>
<path class="st7" d="M939.8,365.6h89.5v2.3h-89.5V365.6z"/>
<path class="st7" d="M939.8,404.5h89.5v2.3h-89.5V404.5z"/>
<path class="st7" d="M939.8,385.1h89.5v2.3h-89.5V385.1z"/>
<path class="st7" d="M939.8,443.4h89.5v2.3h-89.5V443.4z"/>
<path class="st7" d="M939.8,423.9h89.5v2.3h-89.5V423.9z"/>
<path class="st7" d="M939.8,462.8h89.5v2.3h-89.5V462.8z"/>
<path class="st7" d="M939.8,482.2h89.5v2.3h-89.5V482.2z"/>
<path class="st7" d="M939.8,501.7h89.5v2.3h-89.5V501.7z"/>
<path class="st7" d="M939.8,212.5v-2.3h32c1.3,0.7,2.6,1.5,3.9,2.3H939.8z"/>
<path class="st7" d="M1018,268.4c0.3,0.8,0.6,1.5,0.9,2.3h-79.1v-2.3H1018z"/>
<path class="st7" d="M939.8,346.2h89.5v2.3h-89.5V346.2z"/>
<path class="st7" d="M995.2,229.6c0.7,0.8,1.3,1.5,2,2.3h-57.4v-2.3H995.2z"/>
<path class="st7" d="M1008.9,249c0.4,0.8,0.8,1.6,1.2,2.3h-70.4V249H1008.9z"/>
<path class="st7" d="M1029.2,326.7c0,0.8,0,1.5,0,2.3h-89.5v-2.3H1029.2z"/>
<path class="st7" d="M1027.7,307.3c0.1,0.8,0.2,1.5,0.3,2.3h-88.2v-2.3H1027.7z"/>
<path class="st7" d="M1024.1,287.9c0.2,0.8,0.4,1.5,0.5,2.3h-84.8v-2.3H1024.1z"/>
<path class="st4" d="M915.6,201.5h24.2v450.2h-24.2V201.5z"/>
<g class="st15">
	<path class="st7" d="M1009.9,250.8c6,10.9,10.7,23.2,14.1,36.5l-84.1,78.1v-49.5L1009.9,250.8z"/>
</g>
<g class="st15">
	<path class="st7" d="M939.8,415.8v-28.9l87.7-81.4c1.2,8.5,1.8,17.3,1.8,26.3v0.9L939.8,415.8L939.8,415.8z"/>
</g>
<path class="st17" d="M922,210.1h11v248.8h-11V210.1z"/>
<g>
	<defs>
		<rect id="SVGID_00000043440830465370064560000013637858120260693928_" x="0.8" y="333.1" width="78" height="321"/>
	</defs>
	<clipPath id="SVGID_00000008108834981578222220000003356425771821416351_">
		<use xlink:href="#SVGID_00000043440830465370064560000013637858120260693928_"  style="overflow:visible;"/>
	</clipPath>
	<g style="clip-path:url(#SVGID_00000008108834981578222220000003356425771821416351_);">
		<path class="st4" d="M79.1,344.6H0.5v320.6h78.6V344.6z"/>
		<path class="st5" d="M79.1,347.5v-1H71v-13.1h-1v13.1H58.9v-13.1h-1v13.1H46.8v-13.1h-1v13.1H34.6v-13.1h-1v13.1H22.5v-13.1h-1
			v13.1H10.3v-13.1h-1v13.1H0.5v1h8.9v16.1H0.5v1h8.9v16.1H0.5v1h8.9V398H0.5v1h8.9v16.1H0.5v1h8.9v16.1H0.5v1h8.9v16.1H0.5v1h8.9
			v16.1H0.5v1h8.9v16.1H0.5v1h8.9v16.1H0.5v1h8.9v11.8h1V502h11.2v11.8h1V502h11.2v11.8h1V502h11.2v11.8h1V502h11.2v11.8h1V502H70
			v11.8h1V502h8.1v-1H71v-16.1h8.1v-1H71v-16.1h8.1v-1H71v-16.1h8.1v-1H71v-16.1h8.1v-1H71v-16.1h8.1v-1H71V399h8.1v-1H71v-16.1h8.1
			v-1H71v-16.1h8.1v-1H71v-16.1H79.1L79.1,347.5z M21.5,500.9H10.3v-16.1h11.2L21.5,500.9L21.5,500.9z M21.5,483.8H10.3v-16.1h11.2
			L21.5,483.8L21.5,483.8z M21.5,466.6H10.3v-16.1h11.2L21.5,466.6L21.5,466.6z M21.5,449.5H10.3v-16.1h11.2L21.5,449.5L21.5,449.5z
			 M21.5,432.3H10.3v-16.1h11.2L21.5,432.3L21.5,432.3z M21.5,415.1H10.3V399h11.2L21.5,415.1L21.5,415.1z M21.5,398H10.3v-16.1
			h11.2L21.5,398L21.5,398z M21.5,380.8H10.3v-16.1h11.2L21.5,380.8L21.5,380.8z M21.5,363.7H10.3v-16.1h11.2L21.5,363.7L21.5,363.7
			z M33.6,500.9H22.5v-16.1h11.2V500.9z M33.6,483.8H22.5v-16.1h11.2V483.8z M33.6,466.6H22.5v-16.1h11.2V466.6z M33.6,449.5H22.5
			v-16.1h11.2V449.5z M33.6,432.3H22.5v-16.1h11.2V432.3z M33.6,415.1H22.5V399h11.2V415.1z M33.6,398H22.5v-16.1h11.2V398z
			 M33.6,380.8H22.5v-16.1h11.2V380.8z M33.6,363.7H22.5v-16.1h11.2V363.7z M45.8,500.9H34.6v-16.1h11.2V500.9z M45.8,483.8H34.6
			v-16.1h11.2V483.8z M45.8,466.6H34.6v-16.1h11.2V466.6z M45.8,449.5H34.6v-16.1h11.2V449.5z M45.8,432.3H34.6v-16.1h11.2V432.3z
			 M45.8,415.1H34.6V399h11.2V415.1z M45.8,398H34.6v-16.1h11.2V398z M45.8,380.8H34.6v-16.1h11.2V380.8z M45.8,363.7H34.6v-16.1
			h11.2V363.7z M57.9,500.9H46.8v-16.1h11.2V500.9z M57.9,483.8H46.8v-16.1h11.2V483.8z M57.9,466.6H46.8v-16.1h11.2V466.6z
			 M57.9,449.5H46.8v-16.1h11.2V449.5z M57.9,432.3H46.8v-16.1h11.2V432.3z M57.9,415.1H46.8V399h11.2V415.1z M57.9,398H46.8v-16.1
			h11.2V398z M57.9,380.8H46.8v-16.1h11.2V380.8z M57.9,363.7H46.8v-16.1h11.2V363.7z M70.1,500.9H58.9v-16.1h11.2V500.9z
			 M70.1,483.8H58.9v-16.1h11.2V483.8z M70.1,466.6H58.9v-16.1h11.2V466.6z M70.1,449.5H58.9v-16.1h11.2V449.5z M70.1,432.3H58.9
			v-16.1h11.2V432.3z M70.1,415.1H58.9V399h11.2V415.1z M70.1,398H58.9v-16.1h11.2V398z M70.1,380.8H58.9v-16.1h11.2V380.8z
			 M70.1,363.7H58.9v-16.1h11.2V363.7z"/>
		<path class="st5" d="M79.1,515.7v-1H71v-13.1h-1v13.1H58.9v-13.1h-1v13.1H46.8v-13.1h-1v13.1H34.6v-13.1h-1v13.1H22.5v-13.1h-1
			v13.1H10.3v-13.1h-1v13.1H0.5v1h8.9v16.1H0.5v1h8.9v16.1H0.5v1h8.9v16.1H0.5v1h8.9v16.1H0.5v1h8.9v16.1H0.5v1h8.9v16.1H0.5v1h8.9
			v16.1H0.5v1h8.9v16.1H0.5v1h8.9v16.1H0.5v1h8.9v11.8h1v-11.8h11.2v11.8h1v-11.8h11.2v11.8h1v-11.8h11.2v11.8h1v-11.8h11.2v11.8h1
			v-11.8H70v11.8h1v-11.8h8.1v-1H71v-16.1h8.1v-1H71v-16.1h8.1v-1H71v-16.1h8.1v-1H71v-16.1h8.1v-1H71v-16.1h8.1v-1H71v-16.1h8.1v-1
			H71V550h8.1v-1H71v-16.1h8.1v-1H71v-16.1H79.1L79.1,515.7z M21.5,669.1H10.3v-16.1h11.2L21.5,669.1L21.5,669.1z M21.5,651.9H10.3
			v-16.1h11.2L21.5,651.9L21.5,651.9z M21.5,634.7H10.3v-16.1h11.2L21.5,634.7L21.5,634.7z M21.5,617.6H10.3v-16.1h11.2L21.5,617.6
			L21.5,617.6z M21.5,600.4H10.3v-16.1h11.2L21.5,600.4L21.5,600.4z M21.5,583.3H10.3v-16.1h11.2L21.5,583.3L21.5,583.3z
			 M21.5,566.1H10.3V550h11.2L21.5,566.1L21.5,566.1z M21.5,549H10.3v-16.1h11.2L21.5,549L21.5,549z M21.5,531.8H10.3v-16.1h11.2
			L21.5,531.8L21.5,531.8z M33.6,669.1H22.5v-16.1h11.2V669.1z M33.6,651.9H22.5v-16.1h11.2V651.9z M33.6,634.7H22.5v-16.1h11.2
			V634.7z M33.6,617.6H22.5v-16.1h11.2V617.6z M33.6,600.4H22.5v-16.1h11.2V600.4z M33.6,583.3H22.5v-16.1h11.2V583.3z M33.6,566.1
			H22.5V550h11.2V566.1z M33.6,549H22.5v-16.1h11.2V549z M33.6,531.8H22.5v-16.1h11.2V531.8z M45.8,669.1H34.6v-16.1h11.2V669.1z
			 M45.8,651.9H34.6v-16.1h11.2V651.9z M45.8,634.7H34.6v-16.1h11.2V634.7z M45.8,617.6H34.6v-16.1h11.2V617.6z M45.8,600.4H34.6
			v-16.1h11.2V600.4z M45.8,583.3H34.6v-16.1h11.2V583.3z M45.8,566.1H34.6V550h11.2V566.1z M45.8,549H34.6v-16.1h11.2V549z
			 M45.8,531.8H34.6v-16.1h11.2V531.8z M57.9,669.1H46.8v-16.1h11.2V669.1z M57.9,651.9H46.8v-16.1h11.2V651.9z M57.9,634.7H46.8
			v-16.1h11.2V634.7z M57.9,617.6H46.8v-16.1h11.2V617.6z M57.9,600.4H46.8v-16.1h11.2V600.4z M57.9,583.3H46.8v-16.1h11.2V583.3z
			 M57.9,566.1H46.8V550h11.2V566.1z M57.9,549H46.8v-16.1h11.2V549z M57.9,531.8H46.8v-16.1h11.2V531.8z M70.1,669.1H58.9v-16.1
			h11.2V669.1z M70.1,651.9H58.9v-16.1h11.2V651.9z M70.1,634.7H58.9v-16.1h11.2V634.7z M70.1,617.6H58.9v-16.1h11.2V617.6z
			 M70.1,600.4H58.9v-16.1h11.2V600.4z M70.1,583.3H58.9v-16.1h11.2V583.3z M70.1,566.1H58.9V550h11.2V566.1z M70.1,549H58.9v-16.1
			h11.2V549z M70.1,531.8H58.9v-16.1h11.2V531.8z"/>
		<g class="st6">
			<path class="st7" d="M0.5,389v29.9l78.6-42.3v-30.6L0.5,389z"/>
			<path class="st7" d="M79.1,401.9v-17.6L0.5,426.6v17.6L79.1,401.9z"/>
		</g>
	</g>
</g>
<g>
	<defs>
		<rect id="SVGID_00000151518353072321902930000004128493864076950428_" x="544" y="312" width="87" height="321"/>
	</defs>
	<clipPath id="SVGID_00000167377981743672755520000009131100848004317070_">
		<use xlink:href="#SVGID_00000151518353072321902930000004128493864076950428_"  style="overflow:visible;"/>
	</clipPath>
	<g style="clip-path:url(#SVGID_00000167377981743672755520000009131100848004317070_);">
		<path class="st4" d="M631.4,323.5h-87.7v320.6h87.7V323.5z"/>
		<path class="st5" d="M631.3,326.4v-1h-9v-13.1h-1.1v13.1h-12.5v-13.1h-1.1v13.1h-12.5v-13.1h-1.1v13.1h-12.5v-13.1h-1.1v13.1
			h-12.5v-13.1h-1.1v13.1h-12.5v-13.1h-1.1v13.1h-9.9v1h9.9v16.1h-9.9v1h9.9v16.1h-9.9v1h9.9v16.1h-9.9v1h9.9V394h-9.9v1h9.9v16.1
			h-9.9v1h9.9v16.1h-9.9v1h9.9v16.1h-9.9v1h9.9v16.1h-9.9v1h9.9v16.1h-9.9v1h9.9v11.8h1.1v-11.8h12.5v11.8h1.1v-11.8h12.5v11.8h1.1
			v-11.8h12.5v11.8h1.1v-11.8h12.5v11.8h1.1v-11.8h12.5v11.8h1.1v-11.8h9v-1h-9v-16.1h9v-1h-9v-16.1h9v-1h-9v-16.1h9v-1h-9v-16.1h9
			v-1h-9v-16.1h9v-1h-9v-16.1h9v-1h-9v-16.1h9v-1h-9v-16.1h9v-1h-9v-16.1H631.3L631.3,326.4z M567.1,479.8h-12.5v-16.1h12.5
			L567.1,479.8L567.1,479.8z M567.1,462.7h-12.5v-16.1h12.5L567.1,462.7L567.1,462.7z M567.1,445.5h-12.5v-16.1h12.5L567.1,445.5
			L567.1,445.5z M567.1,428.4h-12.5v-16.1h12.5L567.1,428.4L567.1,428.4z M567.1,411.2h-12.5v-16.1h12.5L567.1,411.2L567.1,411.2z
			 M567.1,394h-12.5v-16.1h12.5L567.1,394L567.1,394z M567.1,376.9h-12.5v-16.1h12.5L567.1,376.9L567.1,376.9z M567.1,359.7h-12.5
			v-16.1h12.5L567.1,359.7L567.1,359.7z M567.1,342.6h-12.5v-16.1h12.5L567.1,342.6L567.1,342.6z M580.6,479.8h-12.5v-16.1h12.5
			V479.8z M580.6,462.7h-12.5v-16.1h12.5V462.7z M580.6,445.5h-12.5v-16.1h12.5V445.5z M580.6,428.4h-12.5v-16.1h12.5V428.4z
			 M580.6,411.2h-12.5v-16.1h12.5V411.2z M580.6,394h-12.5v-16.1h12.5V394z M580.6,376.9h-12.5v-16.1h12.5V376.9z M580.6,359.7
			h-12.5v-16.1h12.5V359.7z M580.6,342.6h-12.5v-16.1h12.5V342.6z M594.2,479.8h-12.5v-16.1h12.5V479.8z M594.2,462.7h-12.5v-16.1
			h12.5V462.7z M594.2,445.5h-12.5v-16.1h12.5V445.5z M594.2,428.4h-12.5v-16.1h12.5V428.4z M594.2,411.2h-12.5v-16.1h12.5V411.2z
			 M594.2,394h-12.5v-16.1h12.5V394z M594.2,376.9h-12.5v-16.1h12.5V376.9z M594.2,359.7h-12.5v-16.1h12.5V359.7z M594.2,342.6
			h-12.5v-16.1h12.5V342.6z M607.7,479.8h-12.5v-16.1h12.5V479.8z M607.7,462.7h-12.5v-16.1h12.5V462.7z M607.7,445.5h-12.5v-16.1
			h12.5V445.5z M607.7,428.4h-12.5v-16.1h12.5V428.4z M607.7,411.2h-12.5v-16.1h12.5V411.2z M607.7,394h-12.5v-16.1h12.5V394z
			 M607.7,376.9h-12.5v-16.1h12.5V376.9z M607.7,359.7h-12.5v-16.1h12.5V359.7z M607.7,342.6h-12.5v-16.1h12.5V342.6z M621.3,479.8
			h-12.5v-16.1h12.5V479.8z M621.3,462.7h-12.5v-16.1h12.5V462.7z M621.3,445.5h-12.5v-16.1h12.5V445.5z M621.3,428.4h-12.5v-16.1
			h12.5V428.4z M621.3,411.2h-12.5v-16.1h12.5V411.2z M621.3,394h-12.5v-16.1h12.5V394z M621.3,376.9h-12.5v-16.1h12.5V376.9z
			 M621.3,359.7h-12.5v-16.1h12.5V359.7z M621.3,342.6h-12.5v-16.1h12.5V342.6z"/>
		<path class="st5" d="M631.3,494.6v-1h-9v-13.1h-1.1v13.1h-12.5v-13.1h-1.1v13.1h-12.5v-13.1h-1.1v13.1h-12.5v-13.1h-1.1v13.1
			h-12.5v-13.1h-1.1v13.1h-12.5v-13.1h-1.1v13.1h-9.9v1h9.9v16.1h-9.9v1h9.9v16.1h-9.9v1h9.9V545h-9.9v1h9.9v16.1h-9.9v1h9.9v16.1
			h-9.9v1h9.9v16.1h-9.9v1h9.9v16.1h-9.9v1h9.9v16.1h-9.9v1h9.9V648h-9.9v1h9.9v11.8h1.1V649h12.5v11.8h1.1V649h12.5v11.8h1.1V649
			h12.5v11.8h1.1V649h12.5v11.8h1.1V649h12.5v11.8h1.1V649h9v-1h-9v-16.1h9v-1h-9v-16.1h9v-1h-9v-16.1h9v-1h-9v-16.1h9v-1h-9v-16.1
			h9v-1h-9V546h9v-1h-9v-16.1h9v-1h-9v-16.1h9v-1h-9v-16.1H631.3L631.3,494.6z M567.1,648h-12.5v-16.1h12.5L567.1,648L567.1,648z
			 M567.1,630.8h-12.5v-16.1h12.5L567.1,630.8L567.1,630.8z M567.1,613.6h-12.5v-16.1h12.5L567.1,613.6L567.1,613.6z M567.1,596.5
			h-12.5v-16.1h12.5L567.1,596.5L567.1,596.5z M567.1,579.3h-12.5v-16.1h12.5L567.1,579.3L567.1,579.3z M567.1,562.2h-12.5V546h12.5
			L567.1,562.2L567.1,562.2z M567.1,545h-12.5v-16.1h12.5L567.1,545L567.1,545z M567.1,527.9h-12.5v-16.1h12.5L567.1,527.9
			L567.1,527.9z M567.1,510.7h-12.5v-16.1h12.5L567.1,510.7L567.1,510.7z M580.6,648h-12.5v-16.1h12.5V648z M580.6,630.8h-12.5
			v-16.1h12.5V630.8z M580.6,613.6h-12.5v-16.1h12.5V613.6z M580.6,596.5h-12.5v-16.1h12.5V596.5z M580.6,579.3h-12.5v-16.1h12.5
			V579.3z M580.6,562.2h-12.5V546h12.5V562.2z M580.6,545h-12.5v-16.1h12.5V545z M580.6,527.9h-12.5v-16.1h12.5V527.9z M580.6,510.7
			h-12.5v-16.1h12.5V510.7z M594.2,648h-12.5v-16.1h12.5V648z M594.2,630.8h-12.5v-16.1h12.5V630.8z M594.2,613.6h-12.5v-16.1h12.5
			V613.6z M594.2,596.5h-12.5v-16.1h12.5V596.5z M594.2,579.3h-12.5v-16.1h12.5V579.3z M594.2,562.2h-12.5V546h12.5V562.2z
			 M594.2,545h-12.5v-16.1h12.5V545z M594.2,527.9h-12.5v-16.1h12.5V527.9z M594.2,510.7h-12.5v-16.1h12.5V510.7z M607.7,648h-12.5
			v-16.1h12.5V648z M607.7,630.8h-12.5v-16.1h12.5V630.8z M607.7,613.6h-12.5v-16.1h12.5V613.6z M607.7,596.5h-12.5v-16.1h12.5
			V596.5z M607.7,579.3h-12.5v-16.1h12.5V579.3z M607.7,562.2h-12.5V546h12.5V562.2z M607.7,545h-12.5v-16.1h12.5V545z M607.7,527.9
			h-12.5v-16.1h12.5V527.9z M607.7,510.7h-12.5v-16.1h12.5V510.7z M621.3,648h-12.5v-16.1h12.5V648z M621.3,630.8h-12.5v-16.1h12.5
			V630.8z M621.3,613.6h-12.5v-16.1h12.5V613.6z M621.3,596.5h-12.5v-16.1h12.5V596.5z M621.3,579.3h-12.5v-16.1h12.5V579.3z
			 M621.3,562.2h-12.5V546h12.5V562.2z M621.3,545h-12.5v-16.1h12.5V545z M621.3,527.9h-12.5v-16.1h12.5V527.9z M621.3,510.7h-12.5
			v-16.1h12.5V510.7z"/>
		<g class="st6">
			<path class="st7" d="M543.6,367.9v29.9l87.7-42.3v-30.6L543.6,367.9z"/>
			<path class="st7" d="M631.4,380.8v-17.6l-87.7,42.3v17.6L631.4,380.8z"/>
		</g>
	</g>
</g>
<g>
	<defs>
		<rect id="SVGID_00000135684432118390680070000002490980750645990784_" x="1036.6" y="377.1" width="113" height="274"/>
	</defs>
	<clipPath id="SVGID_00000150812770738635069570000014834800319332476833_">
		<use xlink:href="#SVGID_00000135684432118390680070000002490980750645990784_"  style="overflow:visible;"/>
	</clipPath>
	<g style="clip-path:url(#SVGID_00000150812770738635069570000014834800319332476833_);">
		<path class="st4" d="M1037,414.9v327.5h85.6v-365L1037,414.9z"/>
		<path class="st10" d="M1149.2,377.4h-26.6v364.3h26.6V377.4z"/>
		<path class="st4" d="M1137.8,395.9h-4v345.8h4V395.9z"/>
		<path class="st11" d="M1122.6,594H1037v2.2h85.6V594z"/>
		<path class="st11" d="M1122.6,539.4H1037v2.2h85.6V539.4z"/>
		<path class="st11" d="M1122.6,575.8H1037v2.2h85.6V575.8z"/>
		<path class="st11" d="M1122.6,557.6H1037v2.2h85.6V557.6z"/>
		<path class="st11" d="M1122.6,612.2H1037v2.2h85.6V612.2z"/>
		<path class="st11" d="M1122.6,648.7H1037v2.2h85.6V648.7z"/>
		<path class="st11" d="M1122.6,630.4H1037v2.2h85.6V630.4z"/>
		<path class="st11" d="M1122.6,430.1H1037v2.2h85.6V430.1z"/>
		<path class="st11" d="M1043.8,411.9l-5,2.2h83.8v-2.2H1043.8z"/>
		<path class="st11" d="M1122.6,521.2H1037v2.2h85.6V521.2z"/>
		<path class="st11" d="M1085.4,393.7l-5,2.2h42.2v-2.2H1085.4z"/>
		<path class="st11" d="M1122.6,448.3H1037v2.2h85.6V448.3z"/>
		<path class="st11" d="M1122.6,503H1037v2.2h85.6V503z"/>
		<path class="st11" d="M1122.6,466.5H1037v2.2h85.6V466.5z"/>
		<path class="st11" d="M1122.6,484.8H1037v2.2h85.6V484.8z"/>
	</g>
</g>
<g>
	<defs>
		<rect id="SVGID_00000064353613158604602990000002939979918763236255_" x="624" y="364" width="113" height="274"/>
	</defs>
	<clipPath id="SVGID_00000111156413419937523490000016404931638046011818_">
		<use xlink:href="#SVGID_00000064353613158604602990000002939979918763236255_"  style="overflow:visible;"/>
	</clipPath>
	<g style="clip-path:url(#SVGID_00000111156413419937523490000016404931638046011818_);">
		<path class="st4" d="M624.4,401.8v327.5H710v-365L624.4,401.8z"/>
		<path class="st10" d="M736.6,364.3H710v364.3h26.6V364.3z"/>
		<path class="st4" d="M725.3,382.7h-4v345.8h4V382.7z"/>
		<path class="st11" d="M710,580.9h-85.6v2.2H710V580.9z"/>
		<path class="st11" d="M710,526.3h-85.6v2.2H710V526.3z"/>
		<path class="st11" d="M710,562.7h-85.6v2.2H710V562.7z"/>
		<path class="st11" d="M710,544.5h-85.6v2.2H710V544.5z"/>
		<path class="st11" d="M710,599.1h-85.6v2.2H710V599.1z"/>
		<path class="st11" d="M710,635.5h-85.6v2.2H710V635.5z"/>
		<path class="st11" d="M710,617.3h-85.6v2.2H710V617.3z"/>
		<path class="st11" d="M710,417h-85.6v2.2H710V417z"/>
		<path class="st11" d="M631.2,398.8l-5,2.2H710v-2.2H631.2z"/>
		<path class="st11" d="M710,508.1h-85.6v2.2H710V508.1z"/>
		<path class="st11" d="M672.8,380.6l-5,2.2H710v-2.2H672.8z"/>
		<path class="st11" d="M710,435.2h-85.6v2.2H710V435.2z"/>
		<path class="st11" d="M710,489.8h-85.6v2.2H710V489.8z"/>
		<path class="st11" d="M710,453.4h-85.6v2.2H710V453.4z"/>
		<path class="st11" d="M710,471.6h-85.6v2.2H710V471.6z"/>
	</g>
</g>
<path class="st22" d="M674.3,117c0,0,40.1,4.8,58.6,11.5l-4,4.9c-23.5-6.7-54.3-11.2-54.3-11.2h-5.1L674.3,117L674.3,117z"/>
<path class="st23" d="M733,110.1v18.3c-18.5-6.7-58.6-11.5-58.6-11.5V94.9C674.4,94.9,712.4,102.2,733,110.1z"/>
<path class="st24" d="M674.3,117l-4.8,5.1H559.3l-4.8-5.5L674.3,117z"/>
<path class="st25" d="M674.3,94.9V117l-119.9-0.5V94.9H674.3z"/>
<path class="st26" d="M737.4,507.4l0.3,30.2l-40.1-7.3c-0.2-9.7-0.4-20-0.6-30.7L737.4,507.4L737.4,507.4z"/>
<path class="st26" d="M736.4,403l0.3,29.8l-41.8-8.2c-0.3-9.9-0.7-20-1-30.2L736.4,403z"/>
<path class="st26" d="M735.4,303.2l0.3,28.8l-44.8-7.7c-0.5-9.2-0.9-18.3-1.4-27.5L735.4,303.2z"/>
<path class="st26" d="M734.5,206.2l0.2,25.6l-49.8-4.7c-0.7-8.8-1.3-17.5-2.1-26L734.5,206.2z"/>
<path class="st27" d="M697.6,530.3l-107.2,0.9v-31.6h106.6C697.2,510.3,697.4,520.6,697.6,530.3L697.6,530.3z"/>
<path class="st27" d="M694.9,424.6l-82.1,0.5c3.3-9.3,6.8-19.5,10.3-30.6h70.7C694.2,404.6,694.5,414.7,694.9,424.6L694.9,424.6z"/>
<path class="st27" d="M690.9,324.3l-47.6,0.3c2.3-8.9,4.6-18.2,6.7-27.7h39.4C690,306,690.4,315.1,690.9,324.3z"/>
<path class="st27" d="M685,227.2h-21.3c1.4-8.6,2.7-17.2,3.8-26H683C683.7,209.7,684.4,218.4,685,227.2z"/>
<path class="st28" d="M575.1,394.4h48c-3.6,11.1-7.1,21.4-10.3,30.6l-32.8,0.2C578.3,414.7,576.7,404.5,575.1,394.4L575.1,394.4z"/>
<path class="st28" d="M563.1,296.9H650c-2.2,9.5-4.4,18.8-6.7,27.7l-77.2,0.5C565,315.4,564,306,563.1,296.9z"/>
<path class="st28" d="M556.2,201.1h111.3c-1.2,8.8-2.5,17.5-3.8,26H557.6C557,217.9,556.6,209.2,556.2,201.1z"/>
<path class="st29" d="M557.6,227.2H546c0.7-9.3,1.3-17.9,1.9-26h8.2C556.5,209.3,557,218,557.6,227.2L557.6,227.2z"/>
<path class="st29" d="M566.1,325.1l-26,0.1c0.6-9.7,1.1-19.2,1.6-28.3h21.5C564,306,565,315.4,566.1,325.1z"/>
<path class="st29" d="M580,425.2l-44.6,0.2c0.4-10.6,0.9-21,1.3-31.1h38.4C576.6,404.5,578.2,414.7,580,425.2L580,425.2z"/>
<path class="st29" d="M590.4,499.6v31.6l-58.7,0.5c0.3-10.9,0.6-21.6,1-32.1H590.4L590.4,499.6z"/>
<path class="st30" d="M737.7,537.6l0.9,94.9h-39.8c0,0-0.1-41.2-1.3-102.3L737.7,537.6z"/>
<path class="st30" d="M736.7,432.8l0.7,74.6l-40.5-7.8c-0.5-23.3-1.2-48.6-2-75L736.7,432.8z"/>
<path class="st30" d="M735.8,332.1l0.7,71l-42.6-8.6c-0.8-23-1.8-46.6-3-70.1L735.8,332.1z"/>
<path class="st30" d="M734.8,231.8l0.7,71.4l-46-6.3c-1.3-23.6-2.8-47.1-4.4-69.7L734.8,231.8L734.8,231.8z"/>
<path class="st30" d="M733.9,134.8l0.7,71.4l-51.6-5c-2.4-28.4-5.1-55.1-8.3-79c0,0,30.8,4.6,54.3,11.2
	C730.7,133.8,732.3,134.3,733.9,134.8L733.9,134.8z"/>
<path class="st31" d="M698.9,632.6H590.4V531.2l107.2-0.9C698.8,591.4,698.9,632.5,698.9,632.6L698.9,632.6z"/>
<path class="st31" d="M697,499.6H590.4v-17.4c0,0,9.6-21.1,22.4-57.2l82.1-0.5C695.7,451,696.4,476.3,697,499.6L697,499.6z"/>
<path class="st31" d="M693.9,394.4h-70.7c6.6-20.5,13.6-44,20.1-69.8l47.6-0.3C692,347.8,693,371.3,693.9,394.4z"/>
<path class="st31" d="M689.4,296.9H650c5-22,9.7-45.3,13.6-69.7H685C686.6,249.8,688.1,273.2,689.4,296.9L689.4,296.9z"/>
<path class="st31" d="M683,201.1h-15.5c3.4-25.5,5.9-52,7.2-79C677.8,146,680.6,172.8,683,201.1z"/>
<path class="st32" d="M590.4,531.2v101.4h-61c0.6-35.2,1.4-68.9,2.3-100.9L590.4,531.2L590.4,531.2z"/>
<path class="st32" d="M590.4,482.2v17.4h-57.7c0.8-25.9,1.7-50.6,2.7-74.1l44.6-0.2C583,443.8,586.5,462.9,590.4,482.2L590.4,482.2z
	"/>
<path class="st32" d="M575.1,394.4h-38.4c1.1-24.6,2.2-47.7,3.4-69.2l26-0.1C568.5,347,571.5,370.2,575.1,394.4z"/>
<path class="st32" d="M563.1,296.9h-21.5c1.5-26,3-49.3,4.4-69.7h11.6C558.9,248,560.7,271.4,563.1,296.9z"/>
<path class="st32" d="M556.2,201.1h-8.2c3.8-51.4,6.6-79,6.6-79S553.9,151.7,556.2,201.1L556.2,201.1z"/>
<path class="st33" d="M669.6,122.1h5.1c-1.3,27-3.8,53.5-7.2,79H556.2c-2.3-49.4-1.7-79-1.7-79H669.6z"/>
<path class="st33" d="M557.6,227.2h106.1c-3.9,24.4-8.6,47.7-13.6,69.7h-86.9C560.7,271.4,558.9,248,557.6,227.2z"/>
<path class="st33" d="M566.1,325.1l77.2-0.5c-6.6,25.8-13.5,49.3-20.1,69.8h-48C571.5,370.3,568.5,347.1,566.1,325.1z"/>
<path class="st33" d="M580,425.2l32.8-0.2c-12.8,36.1-22.4,57.2-22.4,57.2C586.5,462.9,583,443.8,580,425.2z"/>
<linearGradient id="SVGID_00000023985370436224053930000011433280745396356258_" gradientUnits="userSpaceOnUse" x1="602.7089" y1="491.3561" x2="611.8439" y2="181.8941" gradientTransform="matrix(1 0 0 -1 0 698)">
	<stop  offset="0" style="stop-color:#D0DADA"/>
	<stop  offset="1" style="stop-color:#2C4B4D"/>
</linearGradient>
<path style="opacity:0.1;fill:url(#SVGID_00000023985370436224053930000011433280745396356258_);enable-background:new    ;" d="
	M529.4,632.6h169.5c0,0-0.9-334-24.2-510.5H554.6C554.6,122.1,534.8,315.9,529.4,632.6z"/>
<path class="st35" d="M572,567c0-2.2,1.8-4,4-4h40.7c2.2,0,4,1.8,4,4v65.5H572V567z"/>
<path class="st36" d="M572,632.6v-66.2c0-2.2,1.8-4,4-4h40.7c2.2,0,4,1.8,4,4v66.2"/>
<path class="st36" d="M596.4,562.4v69.7"/>
<path class="st37" d="M589.7,595.1v5.4"/>
<path class="st37" d="M602.9,595.1v5.4"/>
<g>
	<path class="st38" d="M575.5,133c-2.9,0.1-5.4,0.6-7.9,1.3c-1.2,0.4-2.9,1-4,1.5l-0.4,0.2l-0.2,0.5c-1.4,3-2.4,6.5-2.8,9.9
		c-0.2,1.6-0.2,4.2-0.1,5.5c0.3,4,1.3,7.6,2.8,11.1l0.3,0.6l0.6,0.3c3,1.4,5.9,2.2,8.8,2.7c1.6,0.3,2,0.3,4.3,0.3c1.8,0,2.3,0,3-0.1
		c3.5-0.4,6.5-1.1,9.7-2.5c1.1-0.5,1-0.4,1.3-1c2.8-6.1,3.6-12.3,2.4-18.6c-0.5-2.7-1.4-5.5-2.6-8l-0.2-0.4l-0.4-0.2
		c-3.7-1.7-7.4-2.7-11.1-3.1C578.4,133,576.2,132.9,575.5,133z M578.9,133.7c3.6,0.3,7.1,1.3,10.5,2.8l0.6,0.3l0.2,0.5
		c1.4,3.1,2.4,6.8,2.7,10c0.1,1.4,0.2,3.4,0.1,4.7c-0.2,3.7-1.2,7.4-2.7,10.8l-0.3,0.6l-0.5,0.2c-4.7,2.1-10.5,3.1-15.5,2.5
		c-3.2-0.3-6.5-1.3-9.8-2.8l-0.6-0.3l-0.2-0.6c-3-6.8-3.6-13.9-1.7-20.8c0.4-1.5,1.1-3.4,1.7-4.7l0.2-0.5l0.5-0.2
		c2.2-1,4.8-1.8,7.2-2.2c1.3-0.2,2.2-0.3,4-0.4C575.8,133.7,578.5,133.7,578.9,133.7z M643.4,136.1l-0.3,0.5l-0.5-0.2
		c-0.9-0.3-1.1-0.3-2.2-0.3c-3.1,0-6.1,0.8-8.8,2.4c-5,2.9-8.4,8.2-8.9,13.6c-0.1,0.8,0,2.2,0.1,2.9c0.6,4,2.8,6.9,6.4,8.4
		c1.6,0.6,3.2,1,5.3,1c1.5,0,2.4,0,4.3-0.4c0.5-0.1,1-0.2,1.1-0.2c0.1,0,0.6-1.2,2.1-4.4c1.1-2.4,2-4.4,2-4.4c0,0-0.1,0.1-0.3,0.2
		c-0.3,0.2-1.3,0.7-2,1c-0.7,0.3-1.9,0.7-2.5,0.8c-1.3,0.3-2.8,0.2-4.2-0.3c-2.4-0.8-3.8-2.8-3.8-5.2c0-2.4,1.3-4.8,3.3-6.1
		c2-1.3,4.8-1.7,7.2-1c1.1,0.3,2.2,0.9,3.2,1.7l0.3,0.2l2.1-3.8c1.1-2.1,2.1-3.8,2-3.8c-0.1-0.1-5.7-3-5.7-3
		C643.8,135.7,643.6,135.9,643.4,136.1z M603.4,139.9c-1.1,2.2-2.1,4.1-2.1,4.1c0,0,0.4,0,1,0c0.7,0,1,0,1,0c0,0-1.1,4.4-2.5,9.6
		c-1.4,5.3-2.5,9.7-2.5,9.7l0,0.1l6.5,0c6.4,0,7.3,0,8.1-0.1c1.5-0.2,3.1-0.8,4.3-1.6c2.1-1.3,3.6-3.2,4.1-5.3
		c0.2-0.7,0.2-1.3,0.2-2.2c0-1.3-0.2-2.1-0.6-2.9c-0.5-1-1.1-1.6-2.2-2.1l-0.4-0.2l0.3-0.1c1.5-0.8,3-2.2,3.9-3.5
		c1.1-1.6,1.5-3.4,1.1-5.1c-0.5-2.2-2.2-3.8-4.8-4.3c-0.9-0.2-0.9-0.2-7.3-0.2l-6.2,0L603.4,139.9z M651.6,139.8
		c-1.2,2.2-2.1,3.9-2.1,3.9c0,0,0.5,0,1.1,0.1c0.6,0,1.1,0,1.1,0c0,0-2.2,4.4-4.9,9.9c-2.7,5.4-5,9.9-5,9.9c0,0,1.8,0,4.8,0l4.8,0
		l1-2.4l1-2.4l3,0l3,0v1.8c0,1,0,2.1,0,2.4l0,0.6h4.4h4.4l0-0.4c0-0.4-1.2-27.1-1.2-27.2c0-0.1-0.3-0.1-6.6-0.1l-6.6,0L651.6,139.8z
		 M576.1,136.1c-0.8,0.1-1.3,0.2-1.8,0.5c-1.1,0.5-2,1.3-2.5,2.3c-0.4,0.8-0.5,1.5-0.5,2.4c0,0.9,0.1,1.5,0.5,2.3
		c0.4,0.7,0.8,1.2,1.9,2.5c0.4,0.4,0.7,0.8,0.9,1.1c0.9,1.4,1.4,3,1.6,5c0,0.4,0.1,4.4,0.1,6l0,0.6h0.3h0.3l0-1.7
		c0-2.1,0-4.9,0.1-5.6c0.2-1.8,0.8-3.2,1.7-4.5c0.1-0.2,0.5-0.7,0.9-1.1c1.1-1.1,1.5-1.6,1.8-2.4c0.4-0.8,0.5-1.3,0.5-2.3
		c0-0.7,0-1-0.2-1.6c-0.5-1.8-2-3.1-3.9-3.5C577.5,136.1,576.4,136,576.1,136.1z M615,143.3c0.7,0.3,0.9,0.9,0.7,1.8
		c-0.2,1-0.9,1.6-1.9,1.9c-0.3,0.1-0.5,0.1-1.9,0.1c-1.4,0-1.5,0-1.5-0.1c0.1-0.4,0.9-3.8,0.9-3.9c0,0,0.8,0,1.7,0
		C614.7,143.2,614.7,143.2,615,143.3z M659.2,149.3l0,3.1h-1.7c-1.6,0-1.7,0-1.7-0.1c0,0,0.8-1.9,1.7-4l1.7-4l0,0.9
		C659.2,145.8,659.2,147.6,659.2,149.3z M569.3,144.5c-1.8,0.3-3,1.1-3.6,2.7c-0.2,0.6-0.3,1.1-0.3,1.8c0,0.9,0.3,1.6,0.8,2.2
		c0.5,0.6,1.1,0.9,2.1,1.2c1.8,0.5,2.9,0.8,3.8,1.3c0.7,0.3,1.1,0.6,1.5,1.1c1.1,1,1.6,2.3,1.8,3.8l0,0.3h0.2h0.2l0-3.2
		c0-3.4,0-3.4-0.2-4.4c-0.4-2-1.4-3.9-2.8-5.2c-0.7-0.7-1.3-1.1-2.1-1.3c-0.3-0.1-0.5-0.1-0.9-0.1
		C569.6,144.5,569.4,144.5,569.3,144.5z M582.9,144.5c-1.6,0.4-3.2,2-4.2,4c-0.7,1.4-1,2.8-1.1,4.4c0,0.4,0,2,0,3.4l0,2.6h0.3h0.3
		l0-0.3c0.1-1.1,0.4-2.1,1-2.9c0.8-1.1,1.8-1.8,3.6-2.5c0.7-0.2,1.6-0.5,2.5-0.7c0.3-0.1,0.6-0.2,0.8-0.2c1.4-0.5,2.2-2,2.1-3.7
		c0-0.5-0.1-0.9-0.3-1.3c-0.4-1-1.1-1.7-2-2.2C584.9,144.5,583.7,144.3,582.9,144.5z M565.6,151.9c-0.3,0.5-0.5,1.4-0.5,2.3
		c0,0.6,0.1,0.8,0.3,1.2c0.3,0.7,1.1,1.4,1.7,1.6c0.8,0.3,1.8,0.3,3.6,0c0.8-0.1,1.1-0.2,1.6,0c0.9,0.2,1.7,0.9,1.9,1.6l0.1,0.2h0.3
		h0.3l0-0.4c-0.1-0.8-0.3-1.5-0.7-2.2c-0.3-0.5-0.9-1.1-1.4-1.4c-0.9-0.6-2.2-1.1-4.6-1.7c-1.3-0.3-1.9-0.7-2.3-1.2l-0.1-0.1
		L565.6,151.9z M587.5,151.9c-0.3,0.5-0.9,0.8-2.4,1.2c-3,0.8-4.2,1.4-5.2,2.4c-0.8,0.8-1.2,1.9-1.4,3.1l0,0.3h0.3h0.3l0.1-0.2
		c0.2-0.8,1-1.4,2-1.6c0.4-0.1,0.7-0.1,1.5,0.1c1.5,0.3,2.6,0.3,3.2,0.2c0.9-0.2,1.7-0.9,2.1-1.8c0.3-0.5,0.3-0.8,0.3-1.6
		c0-0.9-0.2-1.6-0.5-2l-0.1-0.1L587.5,151.9z M612.8,152.1c0.4,0.1,0.7,0.3,1,0.5c0.3,0.3,0.5,0.7,0.5,1.2c0,0.7-0.2,1.3-0.7,1.8
		c-0.5,0.5-1,0.8-1.8,0.9c-0.3,0.1-3.7,0.1-3.7,0.1c0,0,1-4.1,1.1-4.5C609.2,152,612.5,152,612.8,152.1z M568.2,160.6
		c-0.2,0.1-0.4,0.6-0.6,1.2c-0.2,0.9-0.2,1.2,0.3,1.4c0.3,0.1,0.5,0.1,0.7,0c0.1-0.1,0.1-0.1,0.1,0c-0.1,0.2,0,0.2,0.1,0.3
		c0.1,0,0.2,0,0.2,0c0,0,0.3-1.2,0.4-1.3c0-0.1,0-0.1-0.4-0.2c-0.2-0.1-0.4-0.1-0.4-0.1s0,0.1-0.1,0.2c0,0.1,0,0.2-0.1,0.2
		c0,0,0,0.1,0.1,0.1c0.1,0,0.2,0,0.2,0.1c0,0.1-0.2,0.5-0.3,0.6c-0.2,0.1-0.5,0-0.5-0.3c0-0.2,0.2-1.1,0.3-1.4
		c0.1-0.3,0.4-0.3,0.6-0.1c0.1,0.1,0.1,0.1,0.1,0.3l0,0.2l0.2,0.1c0.1,0,0.2,0,0.3,0c0,0,0-0.1,0-0.3c0-0.4-0.1-0.5-0.4-0.7
		C568.9,160.5,568.4,160.4,568.2,160.6z M584.4,160.7c-0.3,0.1-0.3-0.1-0.2,1.7c0,0.9,0.1,1.3,0.1,1.3c0,0,0.1,0,0.3-0.1
		c0.2-0.1,0.2-0.1,0.2-0.2c0-0.1,0-0.2,0-0.4l0-0.2l0.2-0.1c0.1,0,0.3-0.1,0.3-0.1c0,0,0.1,0.1,0.2,0.3l0.2,0.3l0.2-0.1
		c0.1,0,0.2-0.1,0.2-0.1c0,0-1.3-2.4-1.4-2.4C584.7,160.6,584.5,160.6,584.4,160.7z M570.6,161.1c0,0.1-0.5,2.5-0.5,2.6
		c0,0.1,0,0.1,0.2,0.1c0.1,0,0.3,0.1,0.3,0c0,0,0.1-0.3,0.1-0.6c0.1-0.4,0.1-0.5,0.2-0.6c0.1,0,0.4,0.1,0.5,0.2
		c0.1,0.1,0.1,0.1,0,0.5c0,0.2-0.1,0.4-0.1,0.5c0,0.1,0,0.1,0.3,0.2l0.3,0.1l0-0.1c0-0.1,0-0.3,0-0.5c0.1-0.5,0.1-0.7,0-0.7
		l-0.1-0.1l0.1-0.1c0.2-0.1,0.3-0.3,0.3-0.6c0-0.2,0-0.3,0-0.4c0-0.1-0.1-0.2-0.2-0.2c-0.1-0.1-0.6-0.2-1.3-0.4
		C570.6,161,570.6,161,570.6,161.1z M582.3,161.1c-0.5,0.1-0.7,0.4-0.7,1.1c0,0.4,0.2,1,0.3,1.2c0.1,0.3,0.2,0.4,0.4,0.5
		c0.2,0.1,0.5,0.1,0.8-0.1c0.3-0.1,0.3-0.3,0.3-0.7c0-0.2,0-0.3,0-0.3c0,0-0.1,0-0.3,0l-0.2,0l0,0.2c0,0.2,0,0.3,0,0.3
		c-0.1,0.2-0.4,0.2-0.5-0.1c-0.1-0.2-0.3-1.2-0.3-1.4c0-0.3,0.3-0.5,0.4-0.3c0.1,0.1,0.1,0.2,0.1,0.2c0,0.1,0.1,0.1,0.1,0.1
		c0.1,0,0.2,0,0.2-0.1c0.2,0,0.2-0.1,0-0.4C582.9,161.2,582.7,161,582.3,161.1z M585,162.1c0,0-0.4,0.1-0.4,0.1c0,0-0.1-1-0.1-1.1
		C584.5,161.1,585,162.1,585,162.1z M573,161.6c-0.1,0.7-0.2,1.9-0.2,2.1c0.1,0.4,0.3,0.6,0.9,0.7c0.3,0,0.4,0,0.5-0.1
		c0.2-0.1,0.3-0.3,0.4-0.5c0-0.2,0.3-2.1,0.3-2.1c0,0-0.5-0.1-0.5-0.1c0,0-0.1,0.5-0.1,1c-0.1,1-0.2,1.2-0.3,1.3
		c-0.1,0.1-0.4,0-0.4-0.1c-0.1-0.1-0.1-0.2,0-1.3c0.1-0.5,0.1-1,0.1-1c0,0-0.1,0-0.3,0l-0.3,0L573,161.6z M571.4,161.6
		c0.2,0,0.3,0.2,0.2,0.4c0,0.2-0.2,0.4-0.3,0.4c-0.1,0-0.5-0.1-0.5-0.1s0.1-0.6,0.1-0.7C571,161.5,571.1,161.5,571.4,161.6z
		 M579.5,161.6c-0.2,0-0.4,0.1-0.4,0.1c0,0,0.3,2.7,0.4,2.7c0,0,1.1-0.1,1.2-0.2c0.2-0.1,0.3-0.3,0.3-0.5c0-0.1,0-0.3,0-0.4
		c-0.1-0.2-0.2-0.4-0.4-0.4h-0.1l0.1-0.1c0.1-0.2,0.2-0.3,0.2-0.5c0-0.2-0.1-0.5-0.2-0.6C580.5,161.5,580.1,161.5,579.5,161.6z
		 M575.6,161.9c0,0.1,0,0.7-0.1,1.4c0,0.7-0.1,1.2-0.1,1.2c0,0,0.1,0,0.3,0l0.3,0l0-0.4c0-0.2,0-0.5,0-0.6l0-0.2h0.3
		c0.5,0,0.7-0.1,0.8-0.5c0.1-0.2,0.1-0.6,0-0.8c-0.1-0.3-0.3-0.3-1-0.4l-0.6,0L575.6,161.9z M580.2,162c0.1,0.1,0.1,0.3,0.1,0.5
		c-0.1,0.1-0.1,0.1-0.3,0.2l-0.1,0l0-0.3c0-0.1,0-0.3-0.1-0.4c0-0.1,0-0.1,0.3-0.1C580.1,161.9,580.2,161.9,580.2,162z M576.7,162.3
		c0.1,0.1,0.1,0.1,0.1,0.3c0,0.3-0.2,0.4-0.5,0.4c-0.2,0-0.2-0.1-0.1-0.6l0-0.3l0.2,0C576.6,162.2,576.7,162.2,576.7,162.3z
		 M580.3,163.1c0.2,0.1,0.2,0.6,0.1,0.7c-0.1,0.1-0.1,0.1-0.4,0.1c-0.1,0-0.1-0.1-0.1-0.3c-0.1-0.5-0.1-0.5,0-0.5
		C580.1,163.1,580.2,163.1,580.3,163.1z"/>
</g>
<path class="st39" d="M734.2,173.3l4.4,459.3h-39.8c0,0-0.8-132.2-4.3-218.2C694.6,414.4,725.7,505.3,734.2,173.3L734.2,173.3z"/>
<path class="st25" d="M724.1,621.4h-8.6v11.1h8.6V621.4z"/>
<path class="st40" d="M715.4,624v1.8c0,0,3.9,3,8.6,0v-3.4L715.4,624L715.4,624z"/>
<path class="st41" d="M719.5,549.4c-13.1,0.5-15.2,35.9-14.8,55.8c0.3,19.9,14.8,19.6,14.8,19.6s14.5,0.3,14.8-19.6
	C734.6,585.3,732.5,549.9,719.5,549.4z"/>
<path class="st42" d="M733.2,593.8c-3.6,11.3-9.4,18.7-16.8,20.4c-3.9,0.9-8.1,0-11.4-3.8c2.5,14.6,14.4,14.4,14.4,14.4
	s14.5,0.3,14.8-19.6c0-4.3,0-9.2-0.2-14.4C733.8,591.8,733.5,592.9,733.2,593.8L733.2,593.8z"/>
<path class="st43" d="M716.1,563.1c-1.8,3.5-4,5.1-4.9,3.7c-0.9-1.4-0.2-5.4,1.6-8.8c1.8-3.5,4-5.1,4.9-3.7
	C718.6,555.7,717.9,559.7,716.1,563.1z"/>
<path class="st25" d="M755.2,624.1h-6.5v8.5h6.5V624.1z"/>
<path class="st40" d="M748.7,626.1v1.3c0,0,3,2.3,6.5,0v-2.6L748.7,626.1L748.7,626.1z"/>
<path class="st41" d="M751.7,569.4c-9.9,0.4-11.5,27.3-11.3,42.4c0.2,15.1,11.3,14.9,11.3,14.9s11,0.3,11.3-14.9
	C763.2,596.6,761.6,569.8,751.7,569.4z"/>
<path class="st42" d="M762.2,603.2c-2.7,8.6-7.1,14.2-12.7,15.5c-3,0.7-6.1,0-8.6-2.9c1.9,11.1,10.9,10.9,10.9,10.9
	s11,0.3,11.3-14.9c0-3.2,0-7-0.2-10.9C762.6,601.6,762.4,602.4,762.2,603.2L762.2,603.2z"/>
<path class="st43" d="M749.2,579.8c-1.4,2.6-3,3.9-3.7,2.8c-0.7-1.1-0.2-4.1,1.2-6.7c1.4-2.6,3-3.9,3.7-2.8
	C751.1,574.2,750.6,577.2,749.2,579.8z"/>
<path class="st25" d="M520.1,624.1h-6.5v8.5h6.5V624.1z"/>
<path class="st40" d="M513.6,626.1v1.3c0,0,3,2.3,6.5,0v-2.6L513.6,626.1L513.6,626.1z"/>
<path class="st41" d="M516.6,569.4c-9.9,0.4-11.5,27.3-11.3,42.4c0.3,15.1,11.3,14.9,11.3,14.9s11,0.3,11.3-14.9
	C528.1,596.7,526.5,569.8,516.6,569.4z"/>
<path class="st42" d="M527.1,603.2c-2.7,8.6-7.1,14.2-12.7,15.5c-3,0.7-6.1,0-8.6-2.9c1.9,11.1,10.9,10.9,10.9,10.9
	s11,0.3,11.3-14.9c0-3.2,0-7-0.2-10.9C527.5,601.6,527.3,602.4,527.1,603.2L527.1,603.2z"/>
<path class="st43" d="M514.1,579.8c-1.4,2.6-3,3.9-3.7,2.8c-0.7-1.1-0.2-4.1,1.2-6.7c1.4-2.6,3-3.9,3.7-2.8
	C516,574.2,515.5,577.2,514.1,579.8z"/>
<path class="st25" d="M495.2,626.4h-5v6h5V626.4z"/>
<path class="st40" d="M490.2,627.8v1c0,0,2.3,1.6,5,0v-1.8L490.2,627.8L490.2,627.8z"/>
<path class="st41" d="M492.6,587.4c-7.6,0.3-8.8,19.5-8.6,30.2c0.2,10.8,8.6,10.6,8.6,10.6s8.5,0.2,8.6-10.6
	S500.2,587.7,492.6,587.4z"/>
<path class="st42" d="M500.6,611.5c-2.1,6.1-5.5,10.1-9.7,11c-2.3,0.5-4.7,0-6.6-2c1.5,7.9,8.4,7.8,8.4,7.8s8.5,0.2,8.6-10.6
	c0-2.3,0-5-0.1-7.8C501,610.3,500.8,610.9,500.6,611.5L500.6,611.5z"/>
<path class="st43" d="M490.6,594.8c-1,1.9-2.3,2.8-2.8,2c-0.5-0.8-0.1-2.9,0.9-4.8c1-1.9,2.3-2.8,2.8-2
	C492.1,590.8,491.7,592.9,490.6,594.8z"/>
</svg>
