<?xml version="1.0" encoding="utf-8"?>
<!-- Generator: Adobe Illustrator 27.1.1, SVG Export Plug-In . SVG Version: 6.00 Build 0)  -->
<svg version="1.1" id="Layer_1" xmlns="http://www.w3.org/2000/svg" xmlns:xlink="http://www.w3.org/1999/xlink" x="0px" y="0px"
	 viewBox="0 0 598 633" style="enable-background:new 0 0 598 633;" xml:space="preserve">
<style type="text/css">
	.st0{fill:#55A1B6;}
	.st1{fill:#55A2B6;}
	.st2{clip-path:url(#SVGID_00000106132131886915840330000000796783011434901164_);}
	.st3{fill:#5AB5C3;}
	.st4{fill:#509AA9;}
	.st5{opacity:0.2;}
	.st6{fill:#88E2E0;}
	.st7{fill:#6BCDD8;}
	.st8{fill:#5597A3;}
	.st9{fill:#64B5C9;}
	.st10{fill:#77CED8;}
	.st11{opacity:0.15;}
	.st12{fill:#559CA8;}
	.st13{clip-path:url(#SVGID_00000084524858587077965520000010236763855772841919_);}
	.st14{clip-path:url(#SVGID_00000100342482096611109410000007391499160479939978_);}
	.st15{fill:#1E1714;}
	.st16{fill:#332822;}
	.st17{fill:#493B32;}
	.st18{fill:#604D3F;}
	.st19{fill:#9B8B80;}
	.st20{fill:#BCA99C;}
	.st21{fill:#D6C3B4;}
	.st22{fill:#EFDED0;}
	.st23{fill:#16353D;}
	.st24{fill:#225060;}
	.st25{fill:#479EB5;}
	.st26{fill:#2D6C89;}
	.st27{opacity:0.1;fill:url(#SVGID_00000141440904365052742000000017567307691636535717_);enable-background:new    ;}
	.st28{fill:#153843;}
	.st29{fill:none;stroke:#97D4E7;stroke-width:2;}
	.st30{fill:none;stroke:#97D4E7;stroke-width:2;stroke-linecap:round;}
	.st31{fill-rule:evenodd;clip-rule:evenodd;fill:#FFFFFF;}
	.st32{opacity:0.4;fill:#040A0C;enable-background:new    ;}
	.st33{fill:#42342A;}
	.st34{fill:#D3CA53;}
	.st35{fill:#C6B044;}
	.st36{fill:#E8DB64;}
</style>
<path class="st0" d="M414,87.5v538.8h104.6V60.7C495.1,76.9,457.1,87.5,414,87.5L414,87.5z"/>
<path class="st0" d="M545.6,157.5v538.8H399.8V130.7C432.5,146.9,485.6,157.5,545.6,157.5z"/>
<path class="st0" d="M511,0.7h-4.5v101.2h4.5V0.7z"/>
<path class="st0" d="M495.3,29.5h-4.5v101.2h4.5V29.5z"/>
<path class="st1" d="M194.5,150.8H59.1v545.6h135.4V150.8z"/>
<path class="st1" d="M179.3,110.4H74.2v48.8h105.1V110.4z"/>
<path class="st1" d="M154.8,75.3H98.7v45.1h56.1V75.3z"/>
<path class="st1" d="M126.8,49.8L98.7,75.3h56.1L126.8,49.8z"/>
<path class="st1" d="M128.4,22.1h-3.2v38.4h3.2V22.1z"/>
<g>
	<defs>
		<rect id="SVGID_1_" x="388" y="254.1" width="97" height="397"/>
	</defs>
	<clipPath id="SVGID_00000036948851082025068420000013125412280531757466_">
		<use xlink:href="#SVGID_1_"  style="overflow:visible;"/>
	</clipPath>
	<g style="clip-path:url(#SVGID_00000036948851082025068420000013125412280531757466_);">
		<path class="st3" d="M485.4,254.7h-97.8v396.7h97.8V254.7z"/>
		<path class="st4" d="M485.4,272v-1.3h-10v-16.2h-1.2v16.2h-13.9v-16.2H459v16.2h-13.9v-16.2h-1.2v16.2h-13.9v-16.2h-1.2v16.2
			h-13.9v-16.2h-1.2v16.2h-13.9v-16.2h-1.2v16.2h-11v1.3h11v20h-11v1.3h11v19.9h-11v1.3h11v20h-11v1.3h11v20h-11v1.3h11v19.9h-11
			v1.3h11v20h-11v1.3h11v20h-11v1.3h11v19.9h-11v1.3h11v20h-11v1.3h11v14.6h1.2V463h13.9v14.6h1.2V463h13.9v14.6h1.2V463h13.9v14.6
			h1.2V463H459v14.6h1.2V463h13.9v14.6h1.2V463h10v-1.3h-10v-20h10v-1.3h-10v-19.9h10v-1.3h-10v-20h10V398h-10v-20h10v-1.3h-10
			v-19.9h10v-1.3h-10v-20h10v-1.3h-10v-20h10v-1.3h-10v-19.9h10v-1.3h-10V272H485.4L485.4,272z M413.7,461.7h-13.9v-20h13.9
			L413.7,461.7L413.7,461.7z M413.7,440.5h-13.9v-19.9h13.9L413.7,440.5L413.7,440.5z M413.7,419.3h-13.9v-20h13.9L413.7,419.3
			L413.7,419.3z M413.7,398h-13.9v-20h13.9L413.7,398L413.7,398z M413.7,376.8h-13.9v-19.9h13.9L413.7,376.8L413.7,376.8z
			 M413.7,355.6h-13.9v-20h13.9L413.7,355.6L413.7,355.6z M413.7,334.4h-13.9v-20h13.9L413.7,334.4L413.7,334.4z M413.7,313.2h-13.9
			v-19.9h13.9L413.7,313.2L413.7,313.2z M413.7,291.9h-13.9v-20h13.9L413.7,291.9L413.7,291.9z M428.8,461.7h-13.9v-20h13.9V461.7z
			 M428.8,440.5h-13.9v-19.9h13.9V440.5z M428.8,419.3h-13.9v-20h13.9V419.3z M428.8,398h-13.9v-20h13.9V398z M428.8,376.8h-13.9
			v-19.9h13.9V376.8z M428.8,355.6h-13.9v-20h13.9V355.6z M428.8,334.4h-13.9v-20h13.9V334.4z M428.8,313.2h-13.9v-19.9h13.9V313.2z
			 M428.8,291.9h-13.9v-20h13.9V291.9z M443.9,461.7H430v-20h13.9V461.7z M443.9,440.5H430v-19.9h13.9V440.5z M443.9,419.3H430v-20
			h13.9V419.3z M443.9,398H430v-20h13.9V398z M443.9,376.8H430v-19.9h13.9V376.8z M443.9,355.6H430v-20h13.9V355.6z M443.9,334.4
			H430v-20h13.9V334.4z M443.9,313.2H430v-19.9h13.9V313.2z M443.9,291.9H430v-20h13.9V291.9z M459,461.7h-13.9v-20H459V461.7z
			 M459,440.5h-13.9v-19.9H459V440.5z M459,419.3h-13.9v-20H459V419.3z M459,398h-13.9v-20H459V398z M459,376.8h-13.9v-19.9H459
			V376.8z M459,355.6h-13.9v-20H459V355.6z M459,334.4h-13.9v-20H459V334.4z M459,313.2h-13.9v-19.9H459V313.2z M459,291.9h-13.9
			v-20H459V291.9z M474.1,461.7h-13.9v-20h13.9V461.7z M474.1,440.5h-13.9v-19.9h13.9V440.5z M474.1,419.3h-13.9v-20h13.9V419.3z
			 M474.1,398h-13.9v-20h13.9V398z M474.1,376.8h-13.9v-19.9h13.9V376.8z M474.1,355.6h-13.9v-20h13.9V355.6z M474.1,334.4h-13.9
			v-20h13.9V334.4z M474.1,313.2h-13.9v-19.9h13.9V313.2z M474.1,291.9h-13.9v-20h13.9V291.9z"/>
		<path class="st4" d="M485.4,479.9v-1.3h-10v-16.2h-1.2v16.2h-13.9v-16.2H459v16.2h-13.9v-16.2h-1.2v16.2h-13.9v-16.2h-1.2v16.2
			h-13.9v-16.2h-1.2v16.2h-13.9v-16.2h-1.2v16.2h-11v1.3h11v20h-11v1.3h11v19.9h-11v1.3h11v20h-11v1.3h11v20h-11v1.3h11v19.9h-11
			v1.3h11v20h-11v1.3h11v20h-11v1.3h11v19.9h-11v1.3h11v20h-11v1.3h11v14.6h1.2v-14.6h13.9v14.6h1.2v-14.6h13.9v14.6h1.2v-14.6h13.9
			v14.6h1.2v-14.6H459v14.6h1.2v-14.6h13.9v14.6h1.2v-14.6h10v-1.3h-10v-20h10v-1.3h-10v-19.9h10v-1.3h-10v-20h10V606h-10v-20h10
			v-1.3h-10v-19.9h10v-1.3h-10v-20h10v-1.3h-10v-20h10v-1.3h-10v-19.9h10v-1.3h-10v-19.9H485.4L485.4,479.9z M413.7,669.6h-13.9v-20
			h13.9L413.7,669.6L413.7,669.6z M413.7,648.4h-13.9v-19.9h13.9L413.7,648.4L413.7,648.4z M413.7,627.2h-13.9v-20h13.9L413.7,627.2
			L413.7,627.2z M413.7,606h-13.9v-20h13.9L413.7,606L413.7,606z M413.7,584.7h-13.9v-19.9h13.9L413.7,584.7L413.7,584.7z
			 M413.7,563.5h-13.9v-20h13.9L413.7,563.5L413.7,563.5z M413.7,542.3h-13.9v-20h13.9L413.7,542.3L413.7,542.3z M413.7,521.1h-13.9
			v-19.9h13.9L413.7,521.1L413.7,521.1z M413.7,499.9h-13.9v-20h13.9L413.7,499.9L413.7,499.9z M428.8,669.6h-13.9v-20h13.9V669.6z
			 M428.8,648.4h-13.9v-19.9h13.9V648.4z M428.8,627.2h-13.9v-20h13.9V627.2z M428.8,606h-13.9v-20h13.9V606z M428.8,584.7h-13.9
			v-19.9h13.9V584.7z M428.8,563.5h-13.9v-20h13.9V563.5z M428.8,542.3h-13.9v-20h13.9V542.3z M428.8,521.1h-13.9v-19.9h13.9V521.1z
			 M428.8,499.9h-13.9v-20h13.9V499.9z M443.9,669.6H430v-20h13.9V669.6z M443.9,648.4H430v-19.9h13.9V648.4z M443.9,627.2H430v-20
			h13.9V627.2z M443.9,606H430v-20h13.9V606z M443.9,584.7H430v-19.9h13.9V584.7z M443.9,563.5H430v-20h13.9V563.5z M443.9,542.3
			H430v-20h13.9V542.3z M443.9,521.1H430v-19.9h13.9V521.1z M443.9,499.9H430v-20h13.9V499.9z M459,669.6h-13.9v-20H459V669.6z
			 M459,648.4h-13.9v-19.9H459V648.4z M459,627.2h-13.9v-20H459V627.2z M459,606h-13.9v-20H459V606z M459,584.7h-13.9v-19.9H459
			V584.7z M459,563.5h-13.9v-20H459V563.5z M459,542.3h-13.9v-20H459V542.3z M459,521.1h-13.9v-19.9H459V521.1z M459,499.9h-13.9
			v-20H459V499.9z M474.1,669.6h-13.9v-20h13.9V669.6z M474.1,648.4h-13.9v-19.9h13.9V648.4z M474.1,627.2h-13.9v-20h13.9V627.2z
			 M474.1,606h-13.9v-20h13.9V606z M474.1,584.7h-13.9v-19.9h13.9V584.7z M474.1,563.5h-13.9v-20h13.9V563.5z M474.1,542.3h-13.9
			v-20h13.9V542.3z M474.1,521.1h-13.9v-19.9h13.9V521.1z M474.1,499.9h-13.9v-20h13.9V499.9z"/>
		<g class="st5">
			<path class="st6" d="M387.6,323.3v36.9l97.8-52.3V270L387.6,323.3z"/>
			<path class="st6" d="M485.4,339.2v-21.7l-97.8,52.3v21.7L485.4,339.2z"/>
		</g>
	</g>
</g>
<path class="st3" d="M0.5,365.5v288.6h74.9V332.5L0.5,365.5z"/>
<path class="st7" d="M98.7,332.5H75.4V651h23.2V332.5z"/>
<path class="st3" d="M88.8,348.6h-3.5V651h3.5V348.6z"/>
<path class="st8" d="M75.4,521.9H0.5v1.9h74.9V521.9z"/>
<path class="st8" d="M75.4,474.1H0.5v1.9h74.9V474.1z"/>
<path class="st8" d="M75.4,506H0.5v1.9h74.9V506z"/>
<path class="st8" d="M75.4,490H0.5v1.9h74.9V490z"/>
<path class="st8" d="M75.4,537.8H0.5v1.9h74.9V537.8z"/>
<path class="st8" d="M75.4,569.7H0.5v1.9h74.9V569.7z"/>
<path class="st8" d="M75.4,585.6H0.5v1.9h74.9V585.6z"/>
<path class="st8" d="M75.4,553.7H0.5v1.9h74.9V553.7z"/>
<path class="st8" d="M75.4,378.6H0.5v1.9h74.9V378.6z"/>
<path class="st8" d="M6.5,362.6l-4.3,1.9h73.3v-1.9H6.5z"/>
<path class="st8" d="M75.4,458.2H0.5v1.9h74.9V458.2z"/>
<path class="st8" d="M42.9,346.7l-4.3,1.9h36.9v-1.9H42.9z"/>
<path class="st8" d="M75.4,394.5H0.5v1.9h74.9V394.5z"/>
<path class="st8" d="M75.4,442.3H0.5v1.9h74.9V442.3z"/>
<path class="st8" d="M75.4,410.4H0.5v1.9h74.9V410.4z"/>
<path class="st8" d="M75.4,426.3H0.5v1.9h74.9V426.3z"/>
<path class="st3" d="M485,323.7v327.9h85.8V286.2L485,323.7z"/>
<path class="st7" d="M597.4,286.2h-26.6v364.7h26.6V286.2z"/>
<path class="st3" d="M586.1,304.7h-4v346.2h4V304.7z"/>
<path class="st8" d="M570.8,503.1H485v2.2h85.8V503.1z"/>
<path class="st8" d="M570.8,448.4H485v2.2h85.8V448.4z"/>
<path class="st8" d="M570.8,484.8H485v2.2h85.8V484.8z"/>
<path class="st8" d="M570.8,466.6H485v2.2h85.8V466.6z"/>
<path class="st8" d="M570.8,521.3H485v2.2h85.8V521.3z"/>
<path class="st8" d="M570.8,557.8H485v2.2h85.8V557.8z"/>
<path class="st8" d="M570.8,576H485v2.2h85.8V576z"/>
<path class="st8" d="M570.8,539.5H485v2.2h85.8V539.5z"/>
<path class="st8" d="M570.8,339H485v2.2h85.8V339z"/>
<path class="st8" d="M491.9,320.7l-5,2.2h83.9v-2.2H491.9z"/>
<path class="st8" d="M570.8,430.1H485v2.2h85.8V430.1z"/>
<path class="st8" d="M533.5,302.5l-5,2.2h42.3v-2.2H533.5z"/>
<path class="st8" d="M570.8,357.2H485v2.2h85.8V357.2z"/>
<path class="st8" d="M570.8,411.9H485v2.2h85.8V411.9z"/>
<path class="st8" d="M570.8,375.4H485v2.2h85.8V375.4z"/>
<path class="st8" d="M570.8,393.7H485v2.2h85.8V393.7z"/>
<path class="st9" d="M137.4,242.3H88.8v73.1h48.5V242.3z"/>
<path class="st9" d="M123.3,221.2h-20.5v34.3h20.5V221.2z"/>
<path class="st9" d="M114.2,185.4H112v53h2.2V185.4z"/>
<path class="st10" d="M84.8,332.5v321.6h89.5V201.5C124.8,201.5,84.8,260.2,84.8,332.5z"/>
<path class="st9" d="M117,213.8c0,1.7-1.7,3-3.9,3c-2.2,0-3.9-1.3-3.9-3c0-1.7,1.7-3,3.9-3S117,212.1,117,213.8z"/>
<path class="st6" d="M174.3,365.6H84.8v2.3h89.5V365.6z"/>
<path class="st6" d="M174.3,404.5H84.8v2.3h89.5V404.5z"/>
<path class="st6" d="M174.3,385.1H84.8v2.3h89.5V385.1z"/>
<path class="st6" d="M174.3,443.4H84.8v2.3h89.5V443.4z"/>
<path class="st6" d="M174.3,423.9H84.8v2.3h89.5V423.9z"/>
<path class="st6" d="M174.3,462.8H84.8v2.3h89.5V462.8z"/>
<path class="st6" d="M174.3,482.2H84.8v2.3h89.5V482.2z"/>
<path class="st6" d="M174.3,501.7H84.8v2.3h89.5V501.7z"/>
<path class="st6" d="M174.3,212.5v-2.3h-32c-1.3,0.7-2.6,1.5-3.9,2.3H174.3z"/>
<path class="st6" d="M96.1,268.4c-0.3,0.8-0.6,1.5-0.9,2.3h79.1v-2.3H96.1z"/>
<path class="st6" d="M174.3,346.2H84.8v2.3h89.5V346.2z"/>
<path class="st6" d="M118.8,229.6c-0.7,0.8-1.3,1.5-2,2.3h57.4v-2.3H118.8z"/>
<path class="st6" d="M105.2,249c-0.4,0.8-0.8,1.6-1.3,2.3h70.4V249H105.2z"/>
<path class="st6" d="M84.8,326.7c0,0.8,0,1.5,0,2.3h89.4v-2.3H84.8z"/>
<path class="st6" d="M86.4,307.3c-0.1,0.8-0.2,1.5-0.3,2.3h88.2v-2.3H86.4z"/>
<path class="st6" d="M90,287.9c-0.2,0.8-0.4,1.5-0.5,2.3h84.8v-2.3H90z"/>
<path class="st3" d="M198.5,201.5h-24.2v450.2h24.2V201.5z"/>
<g class="st11">
	<path class="st6" d="M104.2,250.8c-5.9,10.9-10.7,23.2-14.1,36.5l84.1,78.1v-49.5L104.2,250.8z"/>
</g>
<g class="st11">
	<path class="st6" d="M174.3,415.8v-28.9l-87.7-81.4c-1.2,8.5-1.8,17.3-1.8,26.3v0.9L174.3,415.8L174.3,415.8z"/>
</g>
<path class="st12" d="M192,210.1h-11v248.8h11V210.1z"/>
<g>
	<defs>
		<rect id="SVGID_00000105416264211020862250000011565778220838485675_" x="197" y="312" width="87" height="321"/>
	</defs>
	<clipPath id="SVGID_00000057856666854427084670000016428397318017403574_">
		<use xlink:href="#SVGID_00000105416264211020862250000011565778220838485675_"  style="overflow:visible;"/>
	</clipPath>
	<g style="clip-path:url(#SVGID_00000057856666854427084670000016428397318017403574_);">
		<path class="st3" d="M284.4,323.5h-87.7v320.6h87.7V323.5z"/>
		<path class="st4" d="M284.3,326.4v-1h-9v-13.1h-1.1v13.1h-12.5v-13.1h-1.1v13.1h-12.5v-13.1h-1.1v13.1h-12.5v-13.1h-1.1v13.1
			h-12.5v-13.1h-1.1v13.1h-12.5v-13.1h-1.1v13.1h-9.9v1h9.9v16.1h-9.9v1h9.9v16.1h-9.9v1h9.9v16.1h-9.9v1h9.9V394h-9.9v1h9.9v16.1
			h-9.9v1h9.9v16.1h-9.9v1h9.9v16.1h-9.9v1h9.9v16.1h-9.9v1h9.9v16.1h-9.9v1h9.9v11.8h1.1v-11.8h12.5v11.8h1.1v-11.8h12.5v11.8h1.1
			v-11.8h12.5v11.8h1.1v-11.8h12.5v11.8h1.1v-11.8h12.5v11.8h1.1v-11.8h9v-1h-9v-16.1h9v-1h-9v-16.1h9v-1h-9v-16.1h9v-1h-9v-16.1h9
			v-1h-9v-16.1h9v-1h-9v-16.1h9v-1h-9v-16.1h9v-1h-9v-16.1h9v-1h-9v-16.1H284.3L284.3,326.4z M220.1,479.8h-12.5v-16.1h12.5
			L220.1,479.8L220.1,479.8z M220.1,462.7h-12.5v-16.1h12.5L220.1,462.7L220.1,462.7z M220.1,445.5h-12.5v-16.1h12.5L220.1,445.5
			L220.1,445.5z M220.1,428.4h-12.5v-16.1h12.5L220.1,428.4L220.1,428.4z M220.1,411.2h-12.5v-16.1h12.5L220.1,411.2L220.1,411.2z
			 M220.1,394h-12.5v-16.1h12.5L220.1,394L220.1,394z M220.1,376.9h-12.5v-16.1h12.5L220.1,376.9L220.1,376.9z M220.1,359.7h-12.5
			v-16.1h12.5L220.1,359.7L220.1,359.7z M220.1,342.6h-12.5v-16.1h12.5L220.1,342.6L220.1,342.6z M233.6,479.8h-12.5v-16.1h12.5
			V479.8z M233.6,462.7h-12.5v-16.1h12.5V462.7z M233.6,445.5h-12.5v-16.1h12.5V445.5z M233.6,428.4h-12.5v-16.1h12.5V428.4z
			 M233.6,411.2h-12.5v-16.1h12.5V411.2z M233.6,394h-12.5v-16.1h12.5V394z M233.6,376.9h-12.5v-16.1h12.5V376.9z M233.6,359.7
			h-12.5v-16.1h12.5V359.7z M233.6,342.6h-12.5v-16.1h12.5V342.6z M247.2,479.8h-12.5v-16.1h12.5V479.8z M247.2,462.7h-12.5v-16.1
			h12.5V462.7z M247.2,445.5h-12.5v-16.1h12.5V445.5z M247.2,428.4h-12.5v-16.1h12.5V428.4z M247.2,411.2h-12.5v-16.1h12.5V411.2z
			 M247.2,394h-12.5v-16.1h12.5V394z M247.2,376.9h-12.5v-16.1h12.5V376.9z M247.2,359.7h-12.5v-16.1h12.5V359.7z M247.2,342.6
			h-12.5v-16.1h12.5V342.6z M260.7,479.8h-12.5v-16.1h12.5V479.8z M260.7,462.7h-12.5v-16.1h12.5V462.7z M260.7,445.5h-12.5v-16.1
			h12.5V445.5z M260.7,428.4h-12.5v-16.1h12.5V428.4z M260.7,411.2h-12.5v-16.1h12.5V411.2z M260.7,394h-12.5v-16.1h12.5V394z
			 M260.7,376.9h-12.5v-16.1h12.5V376.9z M260.7,359.7h-12.5v-16.1h12.5V359.7z M260.7,342.6h-12.5v-16.1h12.5V342.6z M274.3,479.8
			h-12.5v-16.1h12.5V479.8z M274.3,462.7h-12.5v-16.1h12.5V462.7z M274.3,445.5h-12.5v-16.1h12.5V445.5z M274.3,428.4h-12.5v-16.1
			h12.5V428.4z M274.3,411.2h-12.5v-16.1h12.5V411.2z M274.3,394h-12.5v-16.1h12.5V394z M274.3,376.9h-12.5v-16.1h12.5V376.9z
			 M274.3,359.7h-12.5v-16.1h12.5V359.7z M274.3,342.6h-12.5v-16.1h12.5V342.6z"/>
		<path class="st4" d="M284.3,494.6v-1h-9v-13.1h-1.1v13.1h-12.5v-13.1h-1.1v13.1h-12.5v-13.1h-1.1v13.1h-12.5v-13.1h-1.1v13.1
			h-12.5v-13.1h-1.1v13.1h-12.5v-13.1h-1.1v13.1h-9.9v1h9.9v16.1h-9.9v1h9.9v16.1h-9.9v1h9.9V545h-9.9v1h9.9v16.1h-9.9v1h9.9v16.1
			h-9.9v1h9.9v16.1h-9.9v1h9.9v16.1h-9.9v1h9.9v16.1h-9.9v1h9.9V648h-9.9v1h9.9v11.8h1.1V649h12.5v11.8h1.1V649h12.5v11.8h1.1V649
			h12.5v11.8h1.1V649h12.5v11.8h1.1V649h12.5v11.8h1.1V649h9v-1h-9v-16.1h9v-1h-9v-16.1h9v-1h-9v-16.1h9v-1h-9v-16.1h9v-1h-9v-16.1
			h9v-1h-9V546h9v-1h-9v-16.1h9v-1h-9v-16.1h9v-1h-9v-16.1H284.3L284.3,494.6z M220.1,648h-12.5v-16.1h12.5L220.1,648L220.1,648z
			 M220.1,630.8h-12.5v-16.1h12.5L220.1,630.8L220.1,630.8z M220.1,613.6h-12.5v-16.1h12.5L220.1,613.6L220.1,613.6z M220.1,596.5
			h-12.5v-16.1h12.5L220.1,596.5L220.1,596.5z M220.1,579.3h-12.5v-16.1h12.5L220.1,579.3L220.1,579.3z M220.1,562.2h-12.5V546h12.5
			L220.1,562.2L220.1,562.2z M220.1,545h-12.5v-16.1h12.5L220.1,545L220.1,545z M220.1,527.9h-12.5v-16.1h12.5L220.1,527.9
			L220.1,527.9z M220.1,510.7h-12.5v-16.1h12.5L220.1,510.7L220.1,510.7z M233.6,648h-12.5v-16.1h12.5V648z M233.6,630.8h-12.5
			v-16.1h12.5V630.8z M233.6,613.6h-12.5v-16.1h12.5V613.6z M233.6,596.5h-12.5v-16.1h12.5V596.5z M233.6,579.3h-12.5v-16.1h12.5
			V579.3z M233.6,562.2h-12.5V546h12.5V562.2z M233.6,545h-12.5v-16.1h12.5V545z M233.6,527.9h-12.5v-16.1h12.5V527.9z M233.6,510.7
			h-12.5v-16.1h12.5V510.7z M247.2,648h-12.5v-16.1h12.5V648z M247.2,630.8h-12.5v-16.1h12.5V630.8z M247.2,613.6h-12.5v-16.1h12.5
			V613.6z M247.2,596.5h-12.5v-16.1h12.5V596.5z M247.2,579.3h-12.5v-16.1h12.5V579.3z M247.2,562.2h-12.5V546h12.5V562.2z
			 M247.2,545h-12.5v-16.1h12.5V545z M247.2,527.9h-12.5v-16.1h12.5V527.9z M247.2,510.7h-12.5v-16.1h12.5V510.7z M260.7,648h-12.5
			v-16.1h12.5V648z M260.7,630.8h-12.5v-16.1h12.5V630.8z M260.7,613.6h-12.5v-16.1h12.5V613.6z M260.7,596.5h-12.5v-16.1h12.5
			V596.5z M260.7,579.3h-12.5v-16.1h12.5V579.3z M260.7,562.2h-12.5V546h12.5V562.2z M260.7,545h-12.5v-16.1h12.5V545z M260.7,527.9
			h-12.5v-16.1h12.5V527.9z M260.7,510.7h-12.5v-16.1h12.5V510.7z M274.3,648h-12.5v-16.1h12.5V648z M274.3,630.8h-12.5v-16.1h12.5
			V630.8z M274.3,613.6h-12.5v-16.1h12.5V613.6z M274.3,596.5h-12.5v-16.1h12.5V596.5z M274.3,579.3h-12.5v-16.1h12.5V579.3z
			 M274.3,562.2h-12.5V546h12.5V562.2z M274.3,545h-12.5v-16.1h12.5V545z M274.3,527.9h-12.5v-16.1h12.5V527.9z M274.3,510.7h-12.5
			v-16.1h12.5V510.7z"/>
		<g class="st5">
			<path class="st6" d="M196.6,367.9v29.9l87.7-42.3v-30.6L196.6,367.9z"/>
			<path class="st6" d="M284.4,380.8v-17.6l-87.7,42.3v17.6L284.4,380.8z"/>
		</g>
	</g>
</g>
<g>
	<defs>
		<rect id="SVGID_00000049907692582570243000000004678204726409284521_" x="277" y="364" width="113" height="274"/>
	</defs>
	<clipPath id="SVGID_00000129924872046414254550000004123911196567489158_">
		<use xlink:href="#SVGID_00000049907692582570243000000004678204726409284521_"  style="overflow:visible;"/>
	</clipPath>
	<g style="clip-path:url(#SVGID_00000129924872046414254550000004123911196567489158_);">
		<path class="st3" d="M277.4,401.8v327.5H363v-365L277.4,401.8z"/>
		<path class="st7" d="M389.6,364.3H363v364.3h26.6V364.3z"/>
		<path class="st3" d="M378.3,382.7h-4v345.8h4V382.7z"/>
		<path class="st8" d="M363,580.9h-85.6v2.2H363V580.9z"/>
		<path class="st8" d="M363,526.3h-85.6v2.2H363V526.3z"/>
		<path class="st8" d="M363,562.7h-85.6v2.2H363V562.7z"/>
		<path class="st8" d="M363,544.5h-85.6v2.2H363V544.5z"/>
		<path class="st8" d="M363,599.1h-85.6v2.2H363V599.1z"/>
		<path class="st8" d="M363,635.5h-85.6v2.2H363V635.5z"/>
		<path class="st8" d="M363,617.3h-85.6v2.2H363V617.3z"/>
		<path class="st8" d="M363,417h-85.6v2.2H363V417z"/>
		<path class="st8" d="M284.2,398.8l-5,2.2H363v-2.2H284.2z"/>
		<path class="st8" d="M363,508.1h-85.6v2.2H363V508.1z"/>
		<path class="st8" d="M325.8,380.6l-5,2.2H363v-2.2H325.8z"/>
		<path class="st8" d="M363,435.2h-85.6v2.2H363V435.2z"/>
		<path class="st8" d="M363,489.8h-85.6v2.2H363V489.8z"/>
		<path class="st8" d="M363,453.4h-85.6v2.2H363V453.4z"/>
		<path class="st8" d="M363,471.6h-85.6v2.2H363V471.6z"/>
	</g>
</g>
<path class="st15" d="M327.3,117c0,0,40.1,4.8,58.6,11.5l-4,4.9c-23.5-6.7-54.3-11.2-54.3-11.2h-5.1L327.3,117L327.3,117z"/>
<path class="st16" d="M386,110.1v18.3c-18.5-6.7-58.6-11.5-58.6-11.5V94.9C327.4,94.9,365.4,102.2,386,110.1z"/>
<path class="st17" d="M327.3,117l-4.8,5.1H212.3l-4.8-5.5L327.3,117z"/>
<path class="st18" d="M327.3,94.9V117l-119.9-0.5V94.9H327.3z"/>
<path class="st19" d="M390.4,507.4l0.3,30.2l-40.1-7.3c-0.2-9.7-0.4-20-0.6-30.7L390.4,507.4L390.4,507.4z"/>
<path class="st19" d="M389.4,403l0.3,29.8l-41.8-8.2c-0.3-9.9-0.7-20-1-30.2L389.4,403z"/>
<path class="st19" d="M388.4,303.2l0.3,28.8l-44.8-7.7c-0.5-9.2-0.9-18.3-1.4-27.5L388.4,303.2z"/>
<path class="st19" d="M387.5,206.2l0.2,25.6l-49.8-4.7c-0.7-8.8-1.3-17.5-2.1-26L387.5,206.2z"/>
<path class="st20" d="M350.6,530.3l-107.2,0.9v-31.6h106.6C350.2,510.3,350.4,520.6,350.6,530.3L350.6,530.3z"/>
<path class="st20" d="M347.9,424.6l-82.1,0.5c3.3-9.3,6.8-19.5,10.3-30.6h70.7C347.2,404.6,347.5,414.7,347.9,424.6L347.9,424.6z"/>
<path class="st20" d="M343.9,324.3l-47.6,0.3c2.3-8.9,4.6-18.2,6.7-27.7h39.4C343,306,343.4,315.1,343.9,324.3z"/>
<path class="st20" d="M338,227.2h-21.3c1.4-8.6,2.7-17.2,3.8-26H336C336.7,209.7,337.4,218.4,338,227.2z"/>
<path class="st21" d="M228.1,394.4h48.1c-3.6,11.1-7.1,21.4-10.3,30.6l-32.8,0.2C231.3,414.7,229.7,404.5,228.1,394.4L228.1,394.4z"
	/>
<path class="st21" d="M216.1,296.9H303c-2.2,9.5-4.4,18.8-6.7,27.7l-77.2,0.5C218,315.4,217,306,216.1,296.9z"/>
<path class="st21" d="M209.2,201.1h111.3c-1.2,8.8-2.5,17.5-3.8,26H210.6C210,217.9,209.6,209.2,209.2,201.1z"/>
<path class="st22" d="M210.6,227.2H199c0.7-9.3,1.3-17.9,1.9-26h8.2C209.5,209.3,210,218,210.6,227.2L210.6,227.2z"/>
<path class="st22" d="M219.1,325.1l-26,0.1c0.6-9.7,1.1-19.2,1.6-28.3h21.5C217,306,218,315.4,219.1,325.1z"/>
<path class="st22" d="M233,425.2l-44.6,0.2c0.4-10.6,0.9-21,1.3-31.1h38.4C229.6,404.5,231.2,414.7,233,425.2L233,425.2z"/>
<path class="st22" d="M243.4,499.6v31.6l-58.7,0.5c0.3-10.9,0.6-21.6,1-32.1H243.4L243.4,499.6z"/>
<path class="st23" d="M390.7,537.6l0.9,94.9h-39.8c0,0-0.1-41.2-1.3-102.3L390.7,537.6z"/>
<path class="st23" d="M389.7,432.8l0.7,74.6l-40.5-7.8c-0.5-23.3-1.2-48.6-2.1-75L389.7,432.8z"/>
<path class="st23" d="M388.8,332.1l0.7,71l-42.6-8.6c-0.8-23-1.8-46.6-3-70.1L388.8,332.1z"/>
<path class="st23" d="M387.8,231.8l0.7,71.4l-46-6.3c-1.3-23.6-2.8-47.1-4.4-69.7L387.8,231.8L387.8,231.8z"/>
<path class="st23" d="M386.9,134.8l0.7,71.4l-51.6-5c-2.4-28.4-5.1-55.1-8.3-79c0,0,30.8,4.6,54.3,11.2
	C383.7,133.8,385.3,134.3,386.9,134.8L386.9,134.8z"/>
<path class="st24" d="M351.9,632.6H243.4V531.2l107.2-0.9C351.8,591.4,351.9,632.5,351.9,632.6L351.9,632.6z"/>
<path class="st24" d="M350,499.6H243.4v-17.4c0,0,9.6-21.1,22.4-57.2l82.1-0.5C348.7,451,349.4,476.3,350,499.6L350,499.6z"/>
<path class="st24" d="M346.9,394.4h-70.7c6.6-20.5,13.6-44,20.1-69.8l47.6-0.3C345,347.8,346,371.3,346.9,394.4z"/>
<path class="st24" d="M342.4,296.9H303c5-22,9.7-45.3,13.6-69.7H338C339.6,249.8,341.1,273.2,342.4,296.9L342.4,296.9z"/>
<path class="st24" d="M336,201.1h-15.5c3.4-25.5,5.9-52,7.2-79C330.8,146,333.6,172.8,336,201.1z"/>
<path class="st25" d="M243.4,531.2v101.4h-61c0.6-35.2,1.4-68.9,2.3-100.9L243.4,531.2L243.4,531.2z"/>
<path class="st25" d="M243.4,482.2v17.4h-57.7c0.8-25.9,1.7-50.6,2.7-74.1l44.6-0.2C236,443.8,239.5,462.9,243.4,482.2L243.4,482.2z
	"/>
<path class="st25" d="M228.1,394.4h-38.4c1.1-24.6,2.2-47.7,3.4-69.2l26-0.1C221.5,347,224.5,370.2,228.1,394.4z"/>
<path class="st25" d="M216.1,296.9h-21.5c1.5-26,3-49.3,4.4-69.7h11.6C211.9,248,213.7,271.4,216.1,296.9z"/>
<path class="st25" d="M209.2,201.1h-8.2c3.8-51.4,6.6-79,6.6-79S206.9,151.7,209.2,201.1L209.2,201.1z"/>
<path class="st26" d="M322.6,122.1h5.1c-1.3,27-3.8,53.5-7.2,79H209.2c-2.3-49.4-1.7-79-1.7-79H322.6z"/>
<path class="st26" d="M210.6,227.2h106.1c-3.9,24.4-8.6,47.7-13.6,69.7h-86.9C213.7,271.4,211.9,248,210.6,227.2z"/>
<path class="st26" d="M219.1,325.1l77.2-0.5c-6.6,25.8-13.5,49.3-20.1,69.8h-48.1C224.5,370.3,221.5,347.1,219.1,325.1z"/>
<path class="st26" d="M233,425.2l32.8-0.2c-12.8,36.1-22.4,57.2-22.4,57.2C239.5,462.9,236,443.8,233,425.2z"/>
<linearGradient id="SVGID_00000051385064725191150280000011308055223035660164_" gradientUnits="userSpaceOnUse" x1="255.7089" y1="491.3561" x2="264.8439" y2="181.8941" gradientTransform="matrix(1 0 0 -1 0 698)">
	<stop  offset="0" style="stop-color:#D0DADA"/>
	<stop  offset="1" style="stop-color:#2C4B4D"/>
</linearGradient>
<path style="opacity:0.1;fill:url(#SVGID_00000051385064725191150280000011308055223035660164_);enable-background:new    ;" d="
	M182.4,632.6h169.5c0,0-0.9-334-24.2-510.5H207.6C207.6,122.1,187.8,315.9,182.4,632.6z"/>
<path class="st28" d="M225,567c0-2.2,1.8-4,4-4h40.7c2.2,0,4,1.8,4,4v65.5H225V567z"/>
<path class="st29" d="M225,632.6v-66.2c0-2.2,1.8-4,4-4h40.7c2.2,0,4,1.8,4,4v66.2"/>
<path class="st29" d="M249.4,562.4v69.7"/>
<path class="st30" d="M242.7,595.1v5.4"/>
<path class="st30" d="M255.9,595.1v5.4"/>
<g>
	<path class="st31" d="M228.5,133c-2.9,0.1-5.4,0.6-7.9,1.3c-1.2,0.4-2.9,1-4,1.5l-0.4,0.2l-0.2,0.5c-1.4,3-2.4,6.5-2.8,9.9
		c-0.2,1.6-0.2,4.2-0.1,5.5c0.3,4,1.3,7.6,2.8,11.1l0.3,0.6l0.6,0.3c3,1.4,5.9,2.2,8.8,2.7c1.6,0.3,2,0.3,4.3,0.3c1.8,0,2.3,0,3-0.1
		c3.5-0.4,6.5-1.1,9.7-2.5c1.1-0.5,1-0.4,1.3-1c2.8-6.1,3.6-12.3,2.4-18.6c-0.5-2.7-1.4-5.5-2.6-8l-0.2-0.4l-0.4-0.2
		c-3.7-1.7-7.4-2.7-11.1-3.1C231.4,133,229.2,132.9,228.5,133z M231.9,133.7c3.6,0.3,7.1,1.3,10.5,2.8l0.6,0.3l0.2,0.5
		c1.4,3.1,2.4,6.8,2.7,10c0.1,1.4,0.2,3.4,0.1,4.7c-0.2,3.7-1.2,7.4-2.7,10.8l-0.3,0.6l-0.5,0.2c-4.7,2.1-10.5,3.1-15.5,2.5
		c-3.2-0.3-6.5-1.3-9.8-2.8l-0.6-0.3l-0.2-0.6c-3-6.8-3.6-13.9-1.7-20.8c0.4-1.5,1.1-3.4,1.7-4.7l0.2-0.5l0.5-0.2
		c2.2-1,4.8-1.8,7.2-2.2c1.3-0.2,2.2-0.3,4-0.4C228.8,133.7,231.5,133.7,231.9,133.7z M296.4,136.1l-0.3,0.5l-0.5-0.2
		c-0.9-0.3-1.1-0.3-2.2-0.3c-3.1,0-6.1,0.8-8.8,2.4c-5,2.9-8.4,8.2-8.9,13.6c-0.1,0.8,0,2.2,0.1,2.9c0.6,4,2.8,6.9,6.4,8.4
		c1.6,0.6,3.2,1,5.3,1c1.5,0,2.4,0,4.3-0.4c0.5-0.1,1-0.2,1.1-0.2c0.1,0,0.6-1.2,2.1-4.4c1.1-2.4,2-4.4,2-4.4c0,0-0.1,0.1-0.3,0.2
		c-0.3,0.2-1.3,0.7-2,1c-0.7,0.3-1.9,0.7-2.5,0.8c-1.3,0.3-2.8,0.2-4.2-0.3c-2.4-0.8-3.8-2.8-3.8-5.2c0-2.4,1.3-4.8,3.3-6.1
		c2-1.3,4.8-1.7,7.2-1c1.1,0.3,2.2,0.9,3.2,1.7l0.3,0.2l2.1-3.8c1.1-2.1,2.1-3.8,2-3.8c-0.1-0.1-5.7-3-5.7-3
		C296.8,135.7,296.6,135.9,296.4,136.1z M256.4,139.9c-1.1,2.2-2.1,4.1-2.1,4.1c0,0,0.4,0,1,0c0.7,0,1,0,1,0c0,0-1.1,4.4-2.5,9.6
		c-1.4,5.3-2.5,9.7-2.5,9.7l0,0.1l6.5,0c6.4,0,7.3,0,8.1-0.1c1.5-0.2,3.1-0.8,4.3-1.6c2.1-1.3,3.6-3.2,4.1-5.3
		c0.2-0.7,0.2-1.3,0.2-2.2c0-1.3-0.2-2.1-0.6-2.9c-0.5-1-1.1-1.6-2.2-2.1l-0.4-0.2l0.3-0.1c1.5-0.8,3-2.2,3.9-3.5
		c1.1-1.6,1.5-3.4,1.1-5.1c-0.5-2.2-2.2-3.8-4.8-4.3c-0.9-0.2-0.9-0.2-7.3-0.2l-6.2,0L256.4,139.9z M304.6,139.8
		c-1.2,2.2-2.1,3.9-2.1,3.9c0,0,0.5,0,1.1,0.1c0.6,0,1.1,0,1.1,0c0,0-2.2,4.4-4.9,9.9c-2.7,5.4-5,9.9-5,9.9c0,0,1.8,0,4.8,0l4.8,0
		l1-2.4l1-2.4l3,0l3,0v1.8c0,1,0,2.1,0,2.4l0,0.6h4.4h4.4l0-0.4c0-0.4-1.2-27.1-1.2-27.2c0-0.1-0.3-0.1-6.6-0.1l-6.6,0L304.6,139.8z
		 M229.1,136.1c-0.8,0.1-1.3,0.2-1.8,0.5c-1.1,0.5-2,1.3-2.5,2.3c-0.4,0.8-0.5,1.5-0.5,2.4c0,0.9,0.1,1.5,0.5,2.3
		c0.4,0.7,0.8,1.2,1.9,2.5c0.4,0.4,0.7,0.8,0.9,1.1c0.9,1.4,1.4,3,1.6,5c0,0.4,0.1,4.4,0.1,6l0,0.6h0.3h0.3l0-1.7
		c0-2.1,0-4.9,0.1-5.6c0.2-1.8,0.8-3.2,1.7-4.5c0.1-0.2,0.5-0.7,0.9-1.1c1.1-1.1,1.5-1.6,1.8-2.4c0.4-0.8,0.5-1.3,0.5-2.3
		c0-0.7,0-1-0.2-1.6c-0.5-1.8-2-3.1-3.9-3.5C230.5,136.1,229.4,136,229.1,136.1z M268,143.3c0.7,0.3,0.9,0.9,0.7,1.8
		c-0.2,1-0.9,1.6-1.9,1.9c-0.3,0.1-0.5,0.1-1.9,0.1c-1.4,0-1.5,0-1.5-0.1c0.1-0.4,0.9-3.8,0.9-3.9c0,0,0.8,0,1.7,0
		C267.7,143.2,267.7,143.2,268,143.3z M312.2,149.3l0,3.1h-1.7c-1.6,0-1.7,0-1.7-0.1c0,0,0.8-1.9,1.7-4l1.7-4l0,0.9
		C312.2,145.8,312.2,147.6,312.2,149.3z M222.3,144.5c-1.8,0.3-3,1.1-3.6,2.7c-0.2,0.6-0.3,1.1-0.3,1.8c0,0.9,0.3,1.6,0.8,2.2
		c0.5,0.6,1.1,0.9,2.1,1.2c1.8,0.5,2.9,0.8,3.8,1.3c0.7,0.3,1.1,0.6,1.5,1.1c1.1,1,1.6,2.3,1.8,3.8l0,0.3h0.2h0.2l0-3.2
		c0-3.4,0-3.4-0.2-4.4c-0.4-2-1.4-3.9-2.8-5.2c-0.7-0.7-1.3-1.1-2.1-1.3c-0.3-0.1-0.5-0.1-0.9-0.1
		C222.6,144.5,222.4,144.5,222.3,144.5z M235.9,144.5c-1.6,0.4-3.2,2-4.2,4c-0.7,1.4-1,2.8-1.1,4.4c0,0.4,0,2,0,3.4l0,2.6h0.3h0.3
		l0-0.3c0.1-1.1,0.4-2.1,1-2.9c0.8-1.1,1.8-1.8,3.6-2.5c0.7-0.2,1.6-0.5,2.5-0.7c0.3-0.1,0.6-0.2,0.8-0.2c1.4-0.5,2.2-2,2.1-3.7
		c0-0.5-0.1-0.9-0.3-1.3c-0.4-1-1.1-1.7-2-2.2C237.9,144.5,236.7,144.3,235.9,144.5z M218.6,151.9c-0.3,0.5-0.5,1.4-0.5,2.3
		c0,0.6,0.1,0.8,0.3,1.2c0.3,0.7,1.1,1.4,1.7,1.6c0.8,0.3,1.8,0.3,3.6,0c0.8-0.1,1.1-0.2,1.6,0c0.9,0.2,1.7,0.9,1.9,1.6l0.1,0.2h0.3
		h0.3l0-0.4c-0.1-0.8-0.3-1.5-0.7-2.2c-0.3-0.5-0.9-1.1-1.4-1.4c-0.9-0.6-2.2-1.1-4.6-1.7c-1.3-0.3-1.9-0.7-2.3-1.2l-0.1-0.1
		L218.6,151.9z M240.5,151.9c-0.3,0.5-0.9,0.8-2.4,1.2c-3,0.8-4.2,1.4-5.1,2.4c-0.8,0.8-1.2,1.9-1.4,3.1l0,0.3h0.3h0.3l0.1-0.2
		c0.2-0.8,1-1.4,2-1.6c0.4-0.1,0.7-0.1,1.5,0.1c1.5,0.3,2.6,0.3,3.2,0.2c0.9-0.2,1.7-0.9,2.1-1.8c0.3-0.5,0.3-0.8,0.3-1.6
		c0-0.9-0.2-1.6-0.5-2l-0.1-0.1L240.5,151.9z M265.8,152.1c0.4,0.1,0.7,0.3,1,0.5c0.3,0.3,0.5,0.7,0.5,1.2c0,0.7-0.2,1.3-0.7,1.8
		c-0.5,0.5-1,0.8-1.8,0.9c-0.3,0.1-3.7,0.1-3.7,0.1c0,0,1-4.1,1.1-4.5C262.2,152,265.5,152,265.8,152.1z M221.2,160.6
		c-0.2,0.1-0.4,0.6-0.6,1.2c-0.2,0.9-0.2,1.2,0.3,1.4c0.3,0.1,0.5,0.1,0.7,0c0.1-0.1,0.1-0.1,0.1,0c-0.1,0.2,0,0.2,0.1,0.3
		c0.1,0,0.2,0,0.2,0c0,0,0.3-1.2,0.4-1.3c0-0.1,0-0.1-0.4-0.2c-0.2-0.1-0.4-0.1-0.4-0.1s0,0.1-0.1,0.2c0,0.1,0,0.2-0.1,0.2
		c0,0,0,0.1,0.1,0.1c0.1,0,0.2,0,0.2,0.1c0,0.1-0.2,0.5-0.3,0.6c-0.2,0.1-0.5,0-0.5-0.3c0-0.2,0.2-1.1,0.3-1.4
		c0.1-0.3,0.4-0.3,0.6-0.1c0.1,0.1,0.1,0.1,0.1,0.3l0,0.2l0.2,0.1c0.1,0,0.2,0,0.3,0c0,0,0-0.1,0-0.3c0-0.4-0.1-0.5-0.4-0.7
		C221.9,160.5,221.4,160.4,221.2,160.6z M237.4,160.7c-0.3,0.1-0.3-0.1-0.2,1.7c0,0.9,0.1,1.3,0.1,1.3c0,0,0.1,0,0.3-0.1
		c0.2-0.1,0.2-0.1,0.2-0.2c0-0.1,0-0.2,0-0.4l0-0.2l0.2-0.1c0.1,0,0.3-0.1,0.3-0.1c0,0,0.1,0.1,0.2,0.3l0.2,0.3l0.2-0.1
		c0.1,0,0.2-0.1,0.2-0.1c0,0-1.3-2.4-1.4-2.4C237.7,160.6,237.5,160.6,237.4,160.7z M223.6,161.1c0,0.1-0.5,2.5-0.5,2.6
		c0,0.1,0,0.1,0.2,0.1c0.1,0,0.3,0.1,0.3,0c0,0,0.1-0.3,0.1-0.6c0.1-0.4,0.1-0.5,0.2-0.6c0.1,0,0.4,0.1,0.5,0.2
		c0.1,0.1,0.1,0.1,0,0.5c0,0.2-0.1,0.4-0.1,0.5c0,0.1,0,0.1,0.3,0.2l0.3,0.1l0-0.1c0-0.1,0-0.3,0-0.5c0.1-0.5,0.1-0.7,0-0.7
		l-0.1-0.1l0.1-0.1c0.2-0.1,0.3-0.3,0.3-0.6c0-0.2,0-0.3,0-0.4c0-0.1-0.1-0.2-0.2-0.2c-0.1-0.1-0.6-0.2-1.3-0.4
		C223.6,161,223.6,161,223.6,161.1z M235.3,161.1c-0.5,0.1-0.7,0.4-0.7,1.1c0,0.4,0.2,1,0.3,1.2c0.1,0.3,0.2,0.4,0.4,0.5
		c0.2,0.1,0.5,0.1,0.8-0.1c0.3-0.1,0.3-0.3,0.3-0.7c0-0.2,0-0.3,0-0.3c0,0-0.1,0-0.3,0l-0.2,0l0,0.2c0,0.2,0,0.3,0,0.3
		c-0.1,0.2-0.4,0.2-0.5-0.1c-0.1-0.2-0.3-1.2-0.3-1.4c0-0.3,0.3-0.5,0.4-0.3c0.1,0.1,0.1,0.2,0.1,0.2c0,0.1,0.1,0.1,0.1,0.1
		c0,0,0.2,0,0.2-0.1c0.2,0,0.2-0.1,0-0.4C235.9,161.2,235.7,161,235.3,161.1z M238,162.1c0,0-0.4,0.1-0.4,0.1c0,0-0.1-1-0.1-1.1
		C237.5,161.1,238,162.1,238,162.1z M226,161.6c-0.1,0.7-0.2,1.9-0.2,2.1c0.1,0.4,0.3,0.6,0.9,0.7c0.3,0,0.4,0,0.5-0.1
		c0.2-0.1,0.3-0.3,0.4-0.5c0-0.2,0.3-2.1,0.3-2.1c0,0-0.5-0.1-0.5-0.1c0,0-0.1,0.5-0.1,1c-0.1,1-0.2,1.2-0.3,1.3
		c-0.1,0.1-0.4,0-0.4-0.1c-0.1-0.1-0.1-0.2,0-1.3c0.1-0.5,0.1-1,0.1-1c0,0-0.1,0-0.3,0l-0.3,0L226,161.6z M224.4,161.6
		c0.2,0,0.3,0.2,0.2,0.4c0,0.2-0.2,0.4-0.3,0.4c-0.1,0-0.5-0.1-0.5-0.1s0.1-0.6,0.1-0.7C224,161.5,224.1,161.5,224.4,161.6z
		 M232.5,161.6c-0.2,0-0.4,0.1-0.4,0.1c0,0,0.3,2.7,0.4,2.7c0,0,1.1-0.1,1.2-0.2c0.2-0.1,0.3-0.3,0.3-0.5c0-0.1,0-0.3,0-0.4
		c-0.1-0.2-0.2-0.4-0.4-0.4h-0.1l0.1-0.1c0.1-0.2,0.2-0.3,0.2-0.5c0-0.2-0.1-0.5-0.2-0.6C233.5,161.5,233.1,161.5,232.5,161.6z
		 M228.6,161.9c0,0.1,0,0.7-0.1,1.4c0,0.7-0.1,1.2-0.1,1.2c0,0,0.1,0,0.3,0l0.3,0l0-0.4c0-0.2,0-0.5,0-0.6l0-0.2h0.3
		c0.5,0,0.7-0.1,0.8-0.5c0.1-0.2,0.1-0.6,0-0.8c-0.1-0.3-0.3-0.3-1-0.4l-0.6,0L228.6,161.9z M233.2,162c0.1,0.1,0.1,0.3,0.1,0.5
		c-0.1,0.1-0.1,0.1-0.3,0.2l-0.1,0l0-0.3c0-0.1,0-0.3-0.1-0.4c0-0.1,0-0.1,0.3-0.1C233.1,161.9,233.2,161.9,233.2,162z M229.7,162.3
		c0.1,0.1,0.1,0.1,0.1,0.3c0,0.3-0.2,0.4-0.5,0.4c-0.2,0-0.2-0.1-0.1-0.6l0-0.3l0.2,0C229.6,162.2,229.7,162.2,229.7,162.3z
		 M233.3,163.1c0.2,0.1,0.2,0.6,0.1,0.7c-0.1,0.1-0.1,0.1-0.4,0.1c-0.1,0-0.1-0.1-0.1-0.3c-0.1-0.5-0.1-0.5,0-0.5
		C233.1,163.1,233.2,163.1,233.3,163.1z"/>
</g>
<path class="st32" d="M387.2,173.3l4.4,459.3h-39.8c0,0-0.8-132.2-4.3-218.2C347.6,414.4,378.6,505.3,387.2,173.3L387.2,173.3z"/>
<path class="st18" d="M377.1,621.4h-8.6v11.1h8.6V621.4z"/>
<path class="st33" d="M368.4,624v1.8c0,0,3.9,3,8.6,0v-3.4L368.4,624L368.4,624z"/>
<path class="st34" d="M372.5,549.4c-13.1,0.5-15.2,35.9-14.8,55.8c0.3,19.9,14.8,19.6,14.8,19.6s14.5,0.3,14.8-19.6
	C387.6,585.3,385.5,549.9,372.5,549.4z"/>
<path class="st35" d="M386.2,593.8c-3.6,11.3-9.4,18.7-16.8,20.4c-3.9,0.9-8.1,0-11.4-3.8c2.5,14.6,14.4,14.4,14.4,14.4
	s14.5,0.3,14.8-19.6c0-4.3,0-9.2-0.2-14.4C386.8,591.8,386.5,592.9,386.2,593.8L386.2,593.8z"/>
<path class="st36" d="M369.1,563.1c-1.8,3.5-4,5.1-4.9,3.7c-0.9-1.4-0.2-5.4,1.6-8.8c1.8-3.5,4-5.1,4.9-3.7
	C371.6,555.7,370.9,559.7,369.1,563.1z"/>
<path class="st18" d="M408.2,624.1h-6.5v8.5h6.5V624.1z"/>
<path class="st33" d="M401.7,626.1v1.3c0,0,3,2.3,6.5,0v-2.6L401.7,626.1L401.7,626.1z"/>
<path class="st34" d="M404.7,569.4c-9.9,0.4-11.5,27.3-11.3,42.4c0.2,15.1,11.3,14.9,11.3,14.9s11,0.3,11.3-14.9
	C416.2,596.6,414.6,569.8,404.7,569.4z"/>
<path class="st35" d="M415.2,603.2c-2.7,8.6-7.1,14.2-12.7,15.5c-3,0.7-6.1,0-8.6-2.9c1.9,11.1,10.9,10.9,10.9,10.9
	s11,0.3,11.3-14.9c0-3.2,0-7-0.2-10.9C415.6,601.6,415.4,602.4,415.2,603.2L415.2,603.2z"/>
<path class="st36" d="M402.2,579.8c-1.4,2.6-3,3.9-3.7,2.8c-0.7-1.1-0.2-4.1,1.2-6.7c1.4-2.6,3-3.9,3.7-2.8
	C404.1,574.2,403.6,577.2,402.2,579.8z"/>
<path class="st18" d="M173.1,624.1h-6.5v8.5h6.5V624.1z"/>
<path class="st33" d="M166.6,626.1v1.3c0,0,3,2.3,6.5,0v-2.6L166.6,626.1L166.6,626.1z"/>
<path class="st34" d="M169.6,569.4c-9.9,0.4-11.5,27.3-11.3,42.4s11.3,14.9,11.3,14.9s11,0.3,11.3-14.9
	C181.1,596.7,179.5,569.8,169.6,569.4z"/>
<path class="st35" d="M180.1,603.2c-2.7,8.6-7.1,14.2-12.7,15.5c-3,0.7-6.1,0-8.6-2.9c1.9,11.1,10.9,10.9,10.9,10.9
	s11,0.3,11.3-14.9c0-3.2,0-7-0.2-10.9C180.5,601.6,180.3,602.4,180.1,603.2L180.1,603.2z"/>
<path class="st36" d="M167.1,579.8c-1.4,2.6-3,3.9-3.7,2.8c-0.7-1.1-0.2-4.1,1.2-6.7c1.4-2.6,3-3.9,3.7-2.8
	C169,574.2,168.5,577.2,167.1,579.8z"/>
<path class="st18" d="M148.2,626.4h-5v6h5V626.4z"/>
<path class="st33" d="M143.2,627.8v1c0,0,2.3,1.6,5,0v-1.8L143.2,627.8L143.2,627.8z"/>
<path class="st34" d="M145.6,587.4c-7.6,0.3-8.8,19.5-8.6,30.2c0.2,10.8,8.6,10.6,8.6,10.6s8.5,0.2,8.6-10.6
	C154.4,606.8,153.2,587.7,145.6,587.4z"/>
<path class="st35" d="M153.6,611.5c-2.1,6.1-5.5,10.1-9.7,11c-2.3,0.5-4.7,0-6.6-2c1.5,7.9,8.4,7.8,8.4,7.8s8.5,0.2,8.6-10.6
	c0-2.3,0-5-0.1-7.8C154,610.3,153.8,610.9,153.6,611.5L153.6,611.5z"/>
<path class="st36" d="M143.6,594.8c-1,1.9-2.3,2.8-2.8,2c-0.5-0.8-0.1-2.9,0.9-4.8c1-1.9,2.3-2.8,2.8-2
	C145.1,590.8,144.7,592.9,143.6,594.8z"/>
</svg>
