<svg width="433" height="871" viewBox="0 0 433 871" fill="none" xmlns="http://www.w3.org/2000/svg">
<g clip-path="url(#clip0_94_45320)">
<rect width="433" height="871" fill="#FFFAF1"/>
<path d="M208.061 194.634C270.057 -20.6622 410.489 39.1736 472.955 96.0036L494.09 112.912L516.634 935.772C348.492 950.331 9.6731 979.169 -0.471741 978.042C-13.1528 976.633 -21.6069 730.057 -86.4211 658.197C-151.235 586.338 -59.65 341.171 -14.5618 305.946C30.5265 270.72 130.566 463.754 208.061 194.634Z" fill="#FFF5E0"/>
<path d="M48.0056 403.504C43.1345 456.39 80.7691 469.031 100.195 468.741C121.626 472.982 156.734 456.564 157.604 403.504C158.3 361.057 177.03 302.894 186.308 279.119C197.616 251.864 208.924 194.05 163.693 180.828C118.462 167.607 93.2366 204.894 86.278 225.19C75.5501 262.592 52.8766 350.619 48.0056 403.504Z" fill="#F7E9CD"/>
<path fill-rule="evenodd" clip-rule="evenodd" d="M124.525 307.291C113.959 305.105 106.016 295.746 106.016 284.532C106.016 271.697 116.421 261.291 129.257 261.291C137.538 261.291 144.808 265.623 148.924 272.143H150.967C160.806 272.143 168.782 280.119 168.782 289.958C168.782 299.797 160.806 307.773 150.967 307.773H129.316C129.296 307.773 129.277 307.773 129.257 307.773C129.237 307.773 129.218 307.773 129.198 307.773H128.658C127.236 307.773 125.852 307.606 124.525 307.291Z" fill="#FFF6E3"/>
<path fill-rule="evenodd" clip-rule="evenodd" d="M81.3958 429.949C68.0242 427.183 57.9731 415.34 57.9731 401.149C57.9731 384.906 71.1404 371.739 87.3829 371.739C97.8624 371.739 107.062 377.22 112.27 385.472H114.856C127.306 385.472 137.399 395.565 137.399 408.015C137.399 420.466 127.306 430.559 114.856 430.559H87.4686C87.44 430.559 87.4115 430.559 87.3829 430.559C87.3544 430.559 87.3258 430.559 87.2973 430.559H86.6256C84.8252 430.559 83.0742 430.348 81.3958 429.949Z" fill="#FFF6E3"/>
<path fill-rule="evenodd" clip-rule="evenodd" d="M193.582 255.653C162.133 247.453 114.598 230.409 88.1626 220.341C97.1513 199.561 121.869 168.603 163.692 180.828C198.229 190.923 199.802 227.016 193.582 255.653Z" fill="#DEB970"/>
<path d="M163.915 233.892C158.212 235.223 144.096 229.439 135.603 225.371C134.031 224.618 133.456 222.621 134.739 221.441C145.771 211.297 171.425 232.139 163.915 233.892Z" fill="#44382A"/>
<path d="M390.093 393.825C449.929 400.473 464.888 533.026 464.888 598.471H181.811C188.39 551.725 206.95 450.752 228.557 420.834C255.566 383.436 315.298 385.514 390.093 393.825Z" fill="#D2B06E"/>
<path d="M116.877 590.986H192.424H436.246V880.251L365.088 899.838L110.978 873.029C108.08 793.036 101.939 628.931 100.566 612.448C99.1924 595.965 110.868 591.272 116.877 590.986Z" fill="#B8995D"/>
<path d="M159.611 697.651L161.095 878.687L365.54 899.692V707.576L159.611 697.651Z" fill="#B39150"/>
<path d="M264.946 920.627C267.035 918.836 264.075 879.095 262.334 859.449L222.047 855.346C220.803 861.563 218.018 874.893 216.824 878.474C215.332 882.95 160.869 915.404 156.02 938.159C152.14 956.363 176.785 959.422 189.593 958.676C213.84 946.739 262.857 922.417 264.946 920.627Z" fill="#1A1A1A"/>
<path d="M387.928 709.403L159.401 697.375V676.827L198.291 669.31L214.386 643.777L406.954 637.759L387.928 709.403Z" fill="#A4823F"/>
<path d="M320.705 690.683L366.726 665.581C379.635 614.421 334.252 580.114 309.947 569.356L234.043 654.823L226.87 811.413L216.71 847.273C212.327 848.867 204.518 853.609 208.343 859.824C212.168 866.04 250.18 868.391 268.707 868.79L275.282 830.539L320.705 690.683Z" fill="#222222"/>
<path d="M265.26 368.766C263.486 351.91 274.132 334.388 284.112 327.735C294.093 321.081 306.291 323.299 321.816 329.953C337.342 336.606 340.669 355.458 338.451 370.984C336.233 386.509 319.599 394.272 314.054 399.816C308.509 405.361 281.894 414.233 274.132 409.797C266.369 405.361 267.478 389.836 265.26 368.766Z" fill="#F8A492"/>
<path fill-rule="evenodd" clip-rule="evenodd" d="M337.791 350.698C339.335 357.274 339.387 364.425 338.45 370.983C337.024 380.968 329.635 387.741 323.068 392.78C326.289 388.645 325.436 384.75 324.546 383.252C332.032 379.45 333.606 366.915 333.458 361.123L337.791 350.698Z" fill="url(#paint0_linear_94_45320)" style="mix-blend-mode:multiply"/>
<path d="M317.381 394.271C318.268 390.723 315.532 374.31 317.381 366.547L315.163 365.439C312.206 373.571 305.182 390.944 300.746 395.38C295.202 400.925 290.766 403.143 284.112 400.925C280.785 399.816 279.676 396.489 275.241 396.489C271.692 396.489 273.023 400.925 268.587 400.925L267.478 409.796V415.341L271.914 413.123V416.45L277.459 414.232L278.568 416.45C281.894 416.45 305.182 407.579 308.509 405.361C311.836 403.143 316.272 398.707 317.381 394.271Z" fill="#241815"/>
<path fill-rule="evenodd" clip-rule="evenodd" d="M275.983 335.471C281.736 332.43 289.733 329.332 294.855 331.013C295.954 331.374 297.116 331.703 298.302 332.038C306.221 334.277 315.185 336.811 313.106 351.151L314.868 355.808L330.868 336.51C329.918 335.426 328.875 334.418 327.732 333.497L324.087 331.058C323.361 330.659 322.604 330.29 321.817 329.953C306.291 323.299 294.093 321.081 284.112 327.735C281.362 329.568 278.561 332.228 275.983 335.471Z" fill="url(#paint1_linear_94_45320)" style="mix-blend-mode:multiply"/>
<path d="M294.093 328.843C296.755 328.843 307.031 331.8 311.836 333.279C318.934 338.602 316.642 349.174 314.054 354.349C315.533 355.828 317.381 369.874 322.926 359.894C325.618 355.047 331.797 368.765 329.579 374.31C327.805 378.746 327.362 386.508 327.362 389.835C340.669 382.073 341.778 374.31 342.887 359.894C343.996 345.477 334.015 333.279 329.579 325.516C326.031 319.306 310.358 313.318 302.965 311.1C298.159 311.839 288.327 313.096 287.439 312.209C286.552 311.322 287.809 308.882 288.548 307.773C277.902 308.66 272.284 319.232 270.805 324.407L266.369 319.972C263.042 323.298 267.478 339.933 266.369 341.042C265.482 341.929 263.782 340.672 263.042 339.933C263.042 342.594 266 347.695 267.478 349.913L274.168 337.984L284.113 331.061C286.33 330.322 291.432 328.843 294.093 328.843Z" fill="#241815"/>
<path d="M331.797 425.322L396.116 448.61C385.766 491.12 363.513 579.466 357.303 592.773C351.093 606.081 322.186 607.929 308.509 607.19L228.665 602.754L207.595 578.357L239.754 435.302L275.241 430.867C280.416 433.085 292.097 437.52 297.42 437.52C302.743 437.52 322.556 429.388 331.797 425.322Z" fill="#E8E8E8"/>
<path d="M287.439 435.302H301.856V438.629L296.311 445.283C296.311 452.676 295.867 471.011 294.093 485.205C292.319 499.4 291.136 565.419 291.875 591.664L274.132 609.407L263.042 594.991C266.739 569.485 274.576 514.038 276.35 496.295C278.124 478.551 285.961 454.894 289.657 445.283L287.439 435.302Z" fill="#CFAC68"/>
<path d="M342.887 428.649L331.797 418.668C327.361 421.995 329.579 428.649 328.47 437.52C327.361 446.392 320.708 461.917 315.163 484.096C310.727 501.839 308.14 538.804 307.4 555.069C309.249 562.831 315.828 579.909 327.361 586.119C338.895 592.329 358.782 638.24 367.284 660.419V677.053C370.98 677.792 379.038 677.053 381.7 668.181C385.027 657.092 372.828 601.645 372.828 593.882C372.828 587.672 391.311 492.228 400.552 445.283L342.887 428.649Z" fill="#323232"/>
<path d="M418.295 540.652L400.552 445.283C391.681 458.59 380.591 528.454 376.155 561.723L385.027 580.575L402.77 603.863C408.684 604.602 421.844 605.637 427.167 603.863C433.821 601.645 438.256 587.228 438.256 580.575C438.256 575.252 424.949 551.742 418.295 540.652Z" fill="#323232"/>
<path d="M390.602 532.522L420.545 522.863C422.01 522.391 423.437 523.681 423.115 525.186L410.533 583.902L378.373 593.882L389.248 534.068C389.38 533.343 389.9 532.749 390.602 532.522Z" fill="#F1EDDC"/>
<path d="M365.882 621.06V844.26H395.287C405.848 835.22 430.295 808.935 443.592 776.108C456.889 743.282 462.987 643.72 464.374 598.042H384.624C368.285 605.564 365.321 616.521 365.882 621.06Z" fill="#D6B77B"/>
<path d="M421.622 553.96C420.735 550.411 419.034 551.003 418.295 551.742C414.968 558.396 418.295 561.722 417.186 565.049C416.077 568.376 410.532 571.703 411.641 573.921C412.75 576.139 423.84 583.901 423.84 581.683C423.84 579.466 429.385 566.158 428.276 563.94C427.167 561.722 422.731 558.396 421.622 553.96Z" fill="#F8A492"/>
<path d="M406.097 569.485C410.533 570.372 419.035 574.291 422.731 576.139C423.84 579.096 424.949 586.563 420.513 592.773C414.968 600.536 402.77 603.863 395.007 603.863H380.591L370.61 593.882C368.836 592.108 369.871 589.446 370.61 588.337C369.871 587.598 368.393 585.454 368.393 582.792C368.393 580.131 371.35 577.987 372.828 577.248C372.459 575.769 372.163 572.147 373.937 569.485C375.712 566.824 381.33 572.073 383.918 575.03C384.657 572.442 386.358 567.045 387.245 566.158C388.354 565.049 400.552 568.376 406.097 569.485Z" fill="#F8A492"/>
<path d="M135.513 502.948C131.077 498.512 134.404 486.314 136.622 480.769C135.578 484.835 134.782 494.52 139.949 500.73C145.116 506.94 158.366 501.1 164.346 497.403C157.692 508.493 141.058 508.493 135.513 502.948Z" stroke="black"/>
<path d="M122.206 501.838C123.093 496.515 131.447 484.835 135.513 479.659C148.821 505.165 169.891 491.858 174.327 490.749C177.875 489.862 207.969 453.201 222.755 435.458C225.041 442.64 205.747 489.27 200.941 512.928C189.113 518.842 163.459 530.671 155.474 530.671C145.494 530.671 139.949 525.126 132.187 519.582C124.424 514.037 121.097 508.492 122.206 501.838Z" fill="#323232"/>
<path d="M222.011 436.411C224.673 431.975 259.346 430.127 276.35 429.757C275.241 436.411 266.369 456.372 261.933 461.917C257.498 467.462 248.626 497.403 246.408 515.146C244.19 532.89 233.101 577.248 231.992 579.465C230.883 581.683 217.575 590.555 205.377 598.318C195.618 604.528 176.914 602.384 168.782 600.535L189.852 577.248C191.33 562.831 194.509 532.224 195.397 525.127C196.505 516.255 218.684 441.956 222.011 436.411Z" fill="#323232"/>
<path d="M173.217 458.59H206.486L203.159 494.076C201.311 495.185 196.283 497.403 190.961 497.403C185.638 497.403 179.871 495.185 177.653 494.076L177.376 491.858C158.801 484.096 151.038 466.353 156.583 460.808C162.128 455.263 170.26 460.808 173.772 463.026L173.217 458.59Z" fill="#BBEDED"/>
<path d="M136.622 468.571C136.622 466.796 139.579 463.396 141.058 461.917H159.91C162.498 463.026 168.338 465.909 170.999 468.571C173.661 471.232 172.108 474.115 170.999 475.224C174.326 475.224 174.326 480.769 174.326 482.987C174.326 484.761 169.89 485.205 167.673 485.205C171.221 485.205 170.63 489.641 169.89 491.859L163.237 497.403C159.91 499.621 152.147 503.835 147.712 502.948C142.167 501.839 137.731 490.75 136.622 487.423C135.735 484.761 136.992 478.182 137.731 475.224C137.361 473.746 136.622 470.345 136.622 468.571Z" fill="#F8A492"/>
<path d="M277.459 382.073C275.684 382.073 273.762 382.812 273.023 383.182C275.241 392.053 281.895 390.944 288.548 387.618C291.057 386.363 293.354 382.073 294.093 379.855C291.875 380.964 279.677 382.073 277.459 382.073Z" fill="white"/>
<path d="M317.608 361.855L304.567 358.097L304.145 355.422C307.49 356.216 315.07 357.907 318.627 358.32C322.184 358.732 325.064 360.43 326.06 361.228C326.617 362.188 327.284 363.746 325.498 362.291C323.711 360.837 319.494 361.395 317.608 361.855Z" fill="#1C1C1C"/>
<path d="M292.883 353.126C286.355 352.308 281.829 354.28 280.493 355.383C276.642 356.056 274.985 355.351 274.639 354.914C269.261 351.282 259.111 352.26 254.708 353.203L254.681 356.349L255.626 357.905C256.014 361.097 257.08 367.975 258.241 369.952C259.692 372.424 268.47 375.173 272.37 371.311C275.49 368.22 275.776 361.952 275.529 359.204C275.621 358.546 276.232 357.478 277.941 358.469C280.077 359.708 278.712 364.211 280.966 368.62C283.22 373.03 286.118 373.983 289.079 374.307C292.041 374.632 298.393 373.995 299.615 371.998C300.837 370 301.973 361.574 302.473 359.838C302.71 359.014 303.352 358.607 303.986 358.427C304.577 358.26 305.112 357.762 305.076 357.149L305.012 356.032C304.981 355.504 304.545 355.076 304.02 355.004C301.741 354.691 296.78 353.615 292.883 353.126Z" fill="#323232"/>
<path d="M281.77 356.887C279.874 358.506 280.558 363.158 281.137 365.282C281.57 367.692 283.357 370.312 284.196 371.32C288.533 375.225 298.069 372.182 298.683 371.644C299.298 371.106 302.799 358.485 298.323 356.123C293.847 353.761 284.14 354.864 281.77 356.887Z" fill="#1C1C1C"/>
<path d="M272.725 356.81C270.021 354.353 264.293 354.504 260.499 355.069C259.232 355.257 258.192 356.126 257.669 357.296C257.427 357.838 257.303 358.425 257.327 359.019C257.469 362.45 258.159 368.342 260.092 370.177C262.736 372.686 268.313 372.12 270.121 371.319C271.928 370.519 276.779 360.493 272.725 356.81Z" fill="#1C1C1C"/>
<path d="M322.766 840.617C319.781 840.02 311.575 801.324 307.844 782.051C309.933 767.726 327.366 758.674 335.822 755.938C338.682 759.669 349.176 767.279 368.276 767.876C387.375 768.472 391.155 788.019 390.658 797.718L373.498 810.774C373.125 811.769 371.558 815.624 368.276 823.085C364.172 832.41 326.496 841.363 322.766 840.617Z" fill="#1A1A1A"/>
<path d="M259.352 572.296C237.227 580.381 192.338 597.102 189.772 599.301C178.583 619.278 185.281 669.074 193.932 670.155C200.852 671.02 222.767 665.469 232.859 662.586L292.872 758.823L286.925 776.124L306.93 789.641C318.103 780.089 341.792 767.906 348.28 758.823C354.768 749.74 329.998 642.401 316.662 594.463L259.352 572.296Z" fill="#2C2C2C"/>
<path d="M-1.11151 523.511L-359.219 547.752V583.474C-265.514 583.695 -57.3577 584.003 25.6256 583.474C108.609 582.946 220.146 563.433 265.541 553.743V534.529L-1.11151 523.511Z" fill="#99793B"/>
<path fill-rule="evenodd" clip-rule="evenodd" d="M-359.219 564.685V583.474C-265.514 583.694 -57.3577 584.003 25.6256 583.474C108.609 582.945 220.146 563.433 265.541 553.743V534.953C220.146 544.644 108.609 564.156 25.6256 564.685C-57.3577 565.213 -265.514 564.905 -359.219 564.685Z" fill="#8A6929"/>
<rect x="125.632" y="526.212" width="111.657" height="12.1585" fill="#D9D9D9"/>
<path d="M9.25504 446.721L65.5088 538.371H153.381L94.2126 436.939C93.6295 435.939 92.5234 435.364 91.3702 435.461L11.5608 442.162C9.33446 442.349 8.08631 444.817 9.25504 446.721Z" fill="#E4E4E4"/>
<rect x="-75.4189" y="583.766" width="101.194" height="14.1889" fill="#2C2C2C"/>
<rect x="25.7744" y="583.766" width="14.6877" height="14.1889" fill="#252525"/>
<path d="M328.577 416.408C321.633 411.957 292.989 416.408 280.234 423.809L289.004 438.014H298.574L323.5 427.999L328.577 416.408Z" fill="#F8A492"/>
<path fill-rule="evenodd" clip-rule="evenodd" d="M307.465 434.442C287.743 436.999 288.906 425.762 292.533 418.802C287.812 420.211 283.502 421.913 280.234 423.81L289.004 438.014H298.574L307.465 434.442Z" fill="url(#paint2_linear_94_45320)" style="mix-blend-mode:multiply"/>
<path d="M292.774 432.41L277.627 420.759L274.132 446.392L292.774 432.41Z" fill="#F6F6F6"/>
<path d="M314.911 446.392L298.599 432.41C303.26 432.41 322.29 418.429 331.223 411.438L334.718 424.254L314.911 446.392Z" fill="#F6F6F6"/>
<path d="M328.075 356.643C325.688 356.25 321.182 360.552 319.61 363.656V381.068C319.288 384.695 319.635 389.029 328.075 382.277C338.353 374.055 336.901 358.094 328.075 356.643Z" fill="#F8A492"/>
<path fill-rule="evenodd" clip-rule="evenodd" d="M325.053 384.452C324.909 383.964 324.729 383.558 324.547 383.252C332.032 379.45 333.607 366.915 333.458 361.123L333.624 360.724C336.804 366.352 335.502 376.335 328.075 382.277C326.923 383.198 325.922 383.913 325.053 384.452Z" fill="url(#paint3_linear_94_45320)" style="mix-blend-mode:multiply"/>
<path fill-rule="evenodd" clip-rule="evenodd" d="M141.199 461.917L139.516 468.91L141.496 477.896C140.302 487.021 142.446 502.006 157.747 500.505C154.335 502.141 150.408 503.487 147.712 502.948C142.167 501.839 137.731 490.75 136.622 487.423C135.735 484.761 136.992 478.182 137.731 475.224C137.361 473.746 136.622 470.345 136.622 468.571C136.622 466.796 139.579 463.396 141.058 461.917H141.199Z" fill="url(#paint4_linear_94_45320)" style="mix-blend-mode:multiply"/>
<path fill-rule="evenodd" clip-rule="evenodd" d="M423.074 587.325C422.581 589.155 421.769 591.014 420.513 592.773C414.968 600.535 402.77 603.862 395.007 603.862H380.591L370.61 593.882C368.836 592.107 369.871 589.446 370.61 588.337C369.871 587.598 368.393 585.454 368.393 582.792C368.393 581.167 369.495 579.735 370.691 578.698L370.795 578.774C370.184 581.158 369.915 586.585 373.729 589.225C372.812 591.364 372.115 596.083 376.663 597.843C382.238 600.001 410.572 607.629 423.074 587.325Z" fill="url(#paint5_linear_94_45320)" style="mix-blend-mode:multiply"/>
<path d="M282.86 348.784L285.504 343.7C294.512 342.571 301.553 345.98 305.325 350.223C293.851 346.294 285.979 346.886 282.86 348.784Z" fill="#241815"/>
<path d="M278.073 348.436L275.906 344.268C274.283 344.268 268.788 346.753 268.246 349.926C272.348 346.753 275.517 346.88 278.073 348.436Z" fill="#241815"/>
</g>
<defs>
<linearGradient id="paint0_linear_94_45320" x1="343.823" y1="398.784" x2="332.107" y2="347.578" gradientUnits="userSpaceOnUse">
<stop stop-color="#FDE8D9"/>
<stop offset="0.99" stop-color="#C045B7"/>
</linearGradient>
<linearGradient id="paint1_linear_94_45320" x1="347.171" y1="360.387" x2="345.086" y2="319.399" gradientUnits="userSpaceOnUse">
<stop stop-color="#FDE8D9"/>
<stop offset="0.99" stop-color="#C045B7"/>
</linearGradient>
<linearGradient id="paint2_linear_94_45320" x1="315.553" y1="440.756" x2="314.049" y2="416.246" gradientUnits="userSpaceOnUse">
<stop stop-color="#FDE8D9"/>
<stop offset="0.99" stop-color="#C045B7"/>
</linearGradient>
<linearGradient id="paint3_linear_94_45320" x1="338.428" y1="387.837" x2="332.777" y2="358.543" gradientUnits="userSpaceOnUse">
<stop stop-color="#FDE8D9"/>
<stop offset="0.99" stop-color="#C045B7"/>
</linearGradient>
<linearGradient id="paint4_linear_94_45320" x1="164.112" y1="508.941" x2="155.546" y2="457.675" gradientUnits="userSpaceOnUse">
<stop stop-color="#FDE8D9"/>
<stop offset="0.99" stop-color="#C045B7"/>
</linearGradient>
<linearGradient id="paint5_linear_94_45320" x1="439.315" y1="607.453" x2="438.027" y2="575.28" gradientUnits="userSpaceOnUse">
<stop stop-color="#FDE8D9"/>
<stop offset="0.99" stop-color="#C045B7"/>
</linearGradient>
<clipPath id="clip0_94_45320">
<rect width="433" height="871" fill="white"/>
</clipPath>
</defs>
</svg>
