<svg width="433" height="871" viewBox="0 0 433 871" fill="none" xmlns="http://www.w3.org/2000/svg">
<g clip-path="url(#clip0_105_19067)">
<rect width="433" height="871" transform="translate(-0.0639648 -0.208252)" fill="#FFFAF1"/>
<path d="M267.594 202.477C205.598 -12.8191 65.1667 47.0167 2.70056 103.847L-18.4343 120.755L-40.9785 943.615C127.163 958.175 465.982 987.012 476.127 985.885C488.808 984.476 497.262 737.9 562.076 666.04C626.891 594.181 535.305 349.014 490.217 313.789C445.129 278.564 345.089 471.598 267.594 202.477Z" fill="#FFF5E0"/>
<g clip-path="url(#clip1_105_19067)">
<path d="M174.778 549.083H19.7783V226.083H174.778V549.083ZM24.2084 542.536H170.348V232.63H24.2084V542.546V542.536Z" fill="#EFDEBC"/>
<path opacity="0.6" d="M164.345 237.63H28.8032V536.077H164.345V237.63Z" fill="#EFDEBC"/>
</g>
<g clip-path="url(#clip2_105_19067)">
<path d="M356.251 549.083H201.251V300.083H356.251V549.083ZM205.681 544.036H351.821V305.13H205.681V544.044V544.036Z" fill="#EFDEBC"/>
<path opacity="0.6" d="M345.818 308.985H210.276V539.057H345.818V308.985Z" fill="#EFDEBC"/>
</g>
<g clip-path="url(#clip3_105_19067)">
<path d="M386.278 570.961L384.314 655.275H415.345V570.961H386.278Z" fill="#CFAC68"/>
<path d="M438.286 570.961H391.666L394.476 655.275H442.348L438.286 570.961Z" fill="#E7C88D"/>
<g opacity="0.4">
<path d="M416.537 589.838C409.985 589.838 406.516 585.933 404.751 582.588C402.793 578.883 402.473 575.171 402.467 575.012C402.447 574.766 402.633 574.553 402.88 574.533C403.126 574.513 403.339 574.699 403.359 574.945C403.359 574.978 403.679 578.65 405.557 582.195C408.04 586.878 411.963 589.146 417.203 588.927C420.766 588.78 423.43 587.61 425.128 585.441C428.304 581.39 427.079 575.131 427.065 575.065C427.019 574.825 427.172 574.586 427.412 574.539C427.658 574.493 427.891 574.646 427.938 574.885C427.991 575.158 429.263 581.603 425.827 585.987C423.962 588.368 421.066 589.658 417.23 589.818C416.99 589.824 416.757 589.831 416.531 589.831L416.537 589.838Z" fill="#DFE5F4"/>
</g>
<path d="M411.743 596.203L408.913 655.201H453.562V596.203H411.743Z" fill="#CFAC68"/>
<path d="M486.584 596.203H419.494L423.536 655.275H492.431L486.584 596.203Z" fill="#F1DEAE"/>
<path d="M419.494 596.203L416.364 596.256V655.201H423.536L419.494 596.203Z" fill="#E7C88D"/>
<path d="M544.099 751.734H419.354V870.968H544.099V751.734Z" fill="#F1DEAE"/>
<path d="M513.493 751.734H269.099V870.961H513.493V751.734Z" fill="#E7C88D"/>
<path d="M476.356 655.068H375.225V751.734H476.356V655.068Z" fill="#F1DEAE"/>
<path d="M501.174 655.068H400.043V751.734H501.174V655.068Z" fill="#E7C88D"/>
<path d="M501.174 751.734L269.099 804.114V751.734H501.174Z" fill="#F1DEAE"/>
<path d="M493.656 701.17C493.23 698.728 492.464 695.323 491.112 691.897C487.69 683.224 482.203 678.748 475.171 678.96C468.272 679.167 462.505 683.397 458.49 691.179C456.432 695.17 455.347 699.088 454.86 701.17H443.633L432.579 736.11C430.129 743.845 435.915 751.734 444.039 751.734H481.37C488.475 751.734 494.642 746.825 496.22 739.901L505.05 701.17H493.663H493.656ZM457.777 701.17C459.102 695.922 463.69 682.133 475.257 681.781C485.779 681.448 489.541 694.531 490.773 701.17H457.777Z" fill="#F1DEAE"/>
</g>
<path d="M-30.1871 616.226C-28.9353 614.952 -19.7743 612.586 -19.7743 612.586C-19.7743 612.586 -5.14179 582.936 4.11518 567.603C7.29 562.342 9.46544 541.96 11.6914 530.865C11.6914 530.865 13.0188 521.059 17.6625 515.617C20.7666 511.987 37.3928 510.251 37.3928 510.251C37.3928 510.261 37.3928 510.271 37.3928 510.281C37.9178 510.17 38.4376 510.064 38.9424 509.964C40.5525 509.641 42.0768 508.705 42.2535 507.074C42.2636 506.994 42.2737 506.908 42.2787 506.827C42.4857 504.824 42.5311 502.78 42.5059 501.003C42.5059 500.978 42.5059 500.953 42.5059 500.928C42.4655 498.028 42.2434 495.879 42.2434 495.879H42.2989L59.7226 493.08C59.9598 498.501 60.2778 502.544 60.611 505.554C60.8633 507.859 62.746 509.652 65.0628 509.792C65.406 509.813 65.7644 509.838 66.1127 509.863C66.1127 509.863 77.3432 509.42 81.6436 510.729C86.479 512.204 97.2149 523.873 97.2149 523.873L97.1543 523.923C110.035 536.538 123.795 554.469 123.032 557.887C121.957 562.705 103.691 590.069 97.0685 595.114H90.4412C90.4412 595.114 105.134 561.693 105.321 558.985C105.483 556.659 92.7378 548.051 82.1735 540.52C81.9969 541.049 82.1231 541.683 82.3906 542.438V542.443C83.3143 545.005 85.8985 549.017 83.9149 555.476C79.0694 571.262 79.3823 573.402 79.3823 573.402C79.2763 573.482 79.1703 573.553 79.0593 573.628C78.812 575.718 78.499 577.902 78.1003 580.218C78.1003 580.218 79.0038 582.453 87.1604 590.784L62.529 601.018L25.173 602.232C25.173 602.232 26.9548 597.263 28.8021 592.184C30.493 587.522 32.2495 582.765 32.724 581.678C32.946 581.169 32.9915 579.508 32.9107 577.036C32.5372 576.971 28.575 565.186 26.026 557.192C25.6121 555.899 25.3699 554.912 25.2538 553.986V553.961C23.038 564.592 20.2669 575.184 17.2385 580.56C11.4087 590.905 -14.3483 617.404 -14.3483 617.404C-15.4133 619.679 -20.3143 620.706 -23.7466 624.477C-23.7466 624.477 -27.2041 627.985 -33.7708 627.512C-35.0326 627.422 -31.4439 617.515 -30.1921 616.241L-30.1871 616.226Z" fill="#F2E0B2"/>
<path d="M57.5165 809.108C57.5165 809.108 52.3075 753.76 59.1064 723.113C59.1064 723.113 61.5443 715.29 56.7846 700.042C48.8803 674.716 51.081 633.256 54.054 627.452C55.1694 625.267 58.4452 622.69 62.7204 620.057C75.5307 612.169 96.2857 604.18 96.2857 604.18C96.2857 604.18 110.731 627.376 110.661 641.834C110.59 655.697 86.6199 720.414 85.7013 730.367C84.7877 740.324 84.3031 766.838 68.1867 809.103C68.1867 809.103 68.7924 816.045 69.6858 817.475C70.5792 818.904 74.3395 823.722 78.6349 825.328C82.9302 826.934 95.2207 826.103 96.1747 830.558H52.8577C52.8577 830.558 52.2621 823.883 53.9328 819.488C55.6035 815.094 57.5114 809.103 57.5114 809.103L57.5165 809.108Z" fill="#F2E0B2"/>
<path d="M42.2787 506.822C49.5217 505.846 59.7175 493.075 59.7175 493.075L42.2383 495.385C42.2383 495.385 42.2585 495.556 42.2938 495.869C42.3796 496.734 42.5462 498.677 42.5058 500.928C42.5058 500.953 42.5058 500.978 42.5058 501.003C42.531 502.78 42.4856 504.824 42.2787 506.827V506.822Z" fill="#E9D1A2"/>
<path d="M37.0341 496.266C37.0341 496.266 57.3954 503.042 61.4283 490.331C65.4662 477.62 70.8115 469.933 57.9809 465.071C45.1504 460.208 41.0721 464.255 38.6947 468.172C36.3123 472.088 31.8403 494.172 37.0341 496.266Z" fill="#F2E0B2"/>
<path d="M56.7846 700.047C83.8589 683.052 104.346 629.672 104.346 629.672L62.7203 620.062C58.4452 622.695 55.1744 625.272 54.0539 627.457C51.081 633.266 54.2962 673.644 56.7846 700.047Z" fill="#E9D1A2"/>
<path d="M-10.2597 816.765C-9.06849 814.147 -4.22297 807.543 -4.22297 807.543C7.95141 733.835 23.6994 732.723 23.977 724.155C24.0678 721.326 22.6646 712.275 20.8425 700.963C17.1579 677.993 11.7521 645.68 13.6701 637.132C14.5383 633.256 15.9415 628.519 17.4658 623.792C20.9788 612.959 25.1682 602.217 25.1682 602.217L73.0934 617.097C73.0934 617.097 58.0874 701.638 56.0786 723.052C54.4735 740.178 7.74951 807.538 7.74951 807.538C8.34511 811.409 5.24599 818.185 5.48322 821.754C5.72045 825.323 3.5753 830.553 3.5753 830.553C3.5753 830.553 -17.427 830.649 -18.381 830.553C-19.3349 830.457 -11.461 819.373 -10.2647 816.755L-10.2597 816.765Z" fill="#F2E0B2"/>
<path d="M20.842 700.968C29.887 683.747 43.0153 639.161 43.0153 639.161C43.0153 639.161 28.0396 632.249 17.4703 623.797C15.941 628.519 14.5428 633.261 13.6747 637.137C11.7567 645.69 17.1574 677.998 20.8471 700.968H20.842Z" fill="#E9D1A2"/>
<path d="M13.6746 637.137C13.6746 637.137 28.0144 637.611 42.3137 641.517C51.8331 644.114 61.3374 648.237 66.5767 654.751C66.5767 654.751 80.2047 640.052 96.4473 636.397C100.884 635.396 105.512 635.224 110.121 636.397C110.121 636.397 109.717 621.381 90.4308 595.109C89.1538 593.367 87.791 591.575 86.3373 589.732C86.3373 589.732 67.8234 600.374 37.4631 593.775C34.6921 593.171 31.8151 592.425 28.8522 591.509C28.8522 591.509 21.8868 608.252 19.6508 614.978C18.0911 619.659 13.6646 637.142 13.6646 637.142L13.6746 637.137Z" fill="#E6CC9A"/>
<path d="M88.3813 591.988C88.3813 591.988 75.2934 601.809 61.418 602.207C47.5427 602.604 28.8521 593.432 28.8521 593.432L88.3763 591.988H88.3813Z" fill="#C6A25E"/>
<path d="M97.0632 595.104C97.0632 595.104 103.696 603.455 103.696 604.975C103.696 606.495 102.353 612.828 100.743 612.919C99.1327 613.009 98.5977 607.744 97.3408 606.762C96.0891 605.781 91.612 603.933 90.9861 602.227C90.3603 600.515 90.436 595.109 90.436 595.109H97.0632V595.104Z" fill="#F2E0B2"/>
<path d="M77.0194 510.004C77.0194 510.004 97.4716 511.061 123.057 528.262C123.057 528.262 129.619 531.348 126.525 537.087C123.43 542.82 116.369 545.896 116.369 545.896C116.369 545.896 113.255 557.268 101.646 557.822C101.646 557.822 97.9965 560.137 92.3586 558.481C92.3586 558.481 86.1654 551.424 85.8322 550.321C85.8322 550.321 78.3116 579.433 79.3059 580.424C80.3003 581.416 91.4904 587.009 90.4304 589.727C89.3705 592.446 71.3461 600.163 57.8594 599.282C44.3677 598.401 24.7988 595.974 27.4538 590.789C30.1087 585.604 32.9252 578.053 32.5971 577.61C32.264 577.167 25.6872 558.919 25.6872 558.919C25.6872 558.919 29.1144 577.776 27.3478 579.543C25.5812 581.305 10.9891 580.238 7.55684 573.92C7.55684 573.92 0.596447 573.261 -4.21879 568.625C-4.21879 568.625 -13.6726 565.755 -16.1055 559.8C-16.1055 559.8 7.33475 510.487 25.248 509.999C43.1613 509.511 45.4832 514.64 53.9426 514.142C62.4021 513.644 68.9638 508.7 77.0295 509.999L77.0194 510.004Z" fill="#E6CC9A"/>
<path d="M191.208 762.181H119.56V830.563H191.208V762.181Z" fill="#E6CC9A"/>
<path d="M208.788 762.181H137.14V830.558H208.788V762.181Z" fill="#F2E0B2"/>
<path d="M216.555 607.573H158.47V762.181H216.555V607.573Z" fill="#E6CC9A"/>
<path d="M202.302 607.573H144.216V762.181H202.302V607.573Z" fill="#F2E0B2"/>
<path d="M144.216 762.181L208.788 792.224V762.181H144.216Z" fill="#E9D1A2"/>
<path d="M171.861 573.211C172.189 571.801 172.926 569.153 174.324 566.45C177.045 561.18 180.957 558.315 185.636 558.174C190.4 558.033 194.125 561.059 196.447 566.933C197.366 569.254 197.881 571.56 198.168 573.211H206.083L209.147 598.512C209.722 603.264 206.002 607.447 201.207 607.447H173.855L160.934 573.211H171.866H171.861ZM196.21 573.211C195.377 568.715 192.823 559.861 185.691 560.082C177.848 560.319 174.738 569.657 173.835 573.211H196.21Z" fill="#DCB871"/>
<path d="M153.428 596.865L160.923 573.211H168.54C168.868 571.801 169.605 569.153 170.998 566.45C173.718 561.179 177.63 558.315 182.309 558.174C187.074 558.033 190.799 561.059 193.121 566.933C194.039 569.254 194.554 571.56 194.842 573.211H202.564L196.578 599.433C195.508 604.119 191.329 607.442 186.509 607.442H161.196C155.689 607.442 151.767 602.101 153.423 596.865H153.428ZM192.889 573.211C192.056 568.715 189.502 559.861 182.37 560.082C174.526 560.319 171.417 569.657 170.513 573.211H192.889Z" fill="#E6CC9A"/>
<path d="M147.719 727.945C148.047 726.536 148.784 723.888 150.177 721.185C152.897 715.914 156.809 713.05 161.488 712.909C166.253 712.768 169.978 715.793 172.295 721.668C173.213 723.989 173.728 726.294 174.016 727.945H181.935L184.999 753.246C185.575 757.998 181.855 762.182 177.06 762.182H149.708L136.786 727.945H147.719ZM172.068 727.945C171.235 723.45 168.681 714.595 161.549 714.817C153.705 715.053 150.596 724.391 149.692 727.945H172.068Z" fill="#DCB871"/>
<path d="M129.291 751.605L136.786 727.95H144.403C144.731 726.541 145.468 723.893 146.861 721.19C149.581 715.919 153.493 713.055 158.172 712.914C162.937 712.773 166.662 715.798 168.984 721.673C169.902 723.994 170.417 726.299 170.705 727.95H178.427L172.441 754.172C171.371 758.859 167.192 762.182 162.372 762.182H137.059C131.547 762.182 127.625 756.845 129.286 751.605H129.291ZM168.751 727.95C167.919 723.455 165.365 714.6 158.233 714.822C150.389 715.058 147.28 724.396 146.376 727.95H168.751Z" fill="#E6CC9A"/>
<path d="M209.217 726.138C209.217 726.138 227.655 739.81 231.249 738.985C234.843 738.154 217.772 724.225 217.772 724.225C224.198 721.144 244.165 723.077 244.165 723.077C244.165 723.077 250.818 744.467 254.098 742.78C257.379 741.094 247.239 724.14 247.239 724.14C254.396 723.712 263.169 729.007 263.169 729.007C275.182 738.466 262.381 753.367 262.381 753.367C262.381 753.367 264.844 760.732 272.436 767.437C272.436 767.437 283.273 775.426 284.025 789.707L282.056 789.883C282.056 789.883 278.907 776.448 273.183 770.201C272.971 769.979 272.683 769.687 272.34 769.34C271.421 768.494 270.78 767.855 270.346 767.382C267.525 764.678 263.623 761.23 261.745 760.893C261.745 760.893 261.841 760.55 261.826 759.951C261.801 760.253 261.776 760.561 261.745 760.893C261.104 768.424 246.457 774.998 237.447 776.347C228.437 777.696 231.224 774.006 234.328 768.529C237.432 763.052 247.254 760.601 249.495 758.079C251.736 755.557 247.103 755.552 241.677 758.023C236.251 760.495 235.504 767.09 226.797 771.248C218.09 775.406 204.987 760.993 204.987 760.993C211.927 760.641 221.835 753.125 221.477 750.825C221.119 748.524 204.654 754.792 201.837 755.094C199.021 755.396 192.621 751.902 191.627 740.596C190.637 729.289 209.222 726.133 209.222 726.133L209.217 726.138Z" fill="#DCB871"/>
<path d="M307.142 734.625C307.142 734.625 286.775 723.254 296.28 707.814C296.28 707.814 303.886 698.335 312.027 695.899C312.027 695.899 307.682 718.919 312.027 719.458C316.373 720.002 315.016 693.463 315.016 693.463C315.016 693.463 336.467 683.173 344.886 683.984C344.886 683.984 331.581 706.46 335.927 705.917C340.273 705.373 355.208 682.629 355.208 682.629C355.208 682.629 377.205 678.567 380.733 691.565C384.261 704.562 378.563 711.061 375.302 711.877C372.041 712.687 351.135 712.421 351.68 715.129C352.225 717.837 366.343 722.171 374.217 719.735C374.217 719.735 365.53 741.129 354.123 740.047C342.716 738.965 339.188 731.922 332.131 731.384C325.07 730.84 319.912 732.738 323.44 734.635C326.968 736.533 338.915 735.255 344.619 740.092C350.322 744.93 354.936 747.905 344.346 750.075C333.757 752.239 314.748 750.885 310.947 742.765C310.781 742.408 310.624 742.076 310.473 741.749C310.7 742.418 310.947 742.765 310.947 742.765C308.989 743.903 306.056 749.335 304.022 753.498C303.735 754.203 303.28 755.174 302.604 756.493C302.362 757.022 302.16 757.465 302.013 757.797C298.203 767.09 300.196 783.334 300.196 783.334L297.935 783.938C292.923 767.729 301.716 754.409 301.716 754.409C307.419 743.848 307.147 734.641 307.147 734.641L307.142 734.625Z" fill="#DCB871"/>
<path d="M177.741 662.181C182.395 645.046 211.388 650.402 211.388 650.402C211.388 650.402 231.073 680.389 236.801 681.104C242.53 681.819 224.99 652.189 224.99 652.189C236.085 651.117 264.365 664.683 264.365 664.683C264.365 664.683 262.573 699.669 268.302 698.955C274.031 698.24 268.302 667.9 268.302 667.9C279.038 671.112 289.062 683.606 289.062 683.606C301.59 703.953 274.743 718.95 274.743 718.95C274.743 718.95 274.384 731.087 281.9 745.011C281.9 745.011 293.494 762.569 286.882 783.938L283.899 783.138C283.899 783.138 286.503 761.935 281.587 749.657C281.385 749.204 281.092 748.554 280.729 747.754C279.836 746.007 279.23 744.719 278.851 743.787C276.171 738.305 272.31 731.157 269.731 729.657C269.731 729.657 270.054 729.204 270.357 728.318C270.155 728.746 269.948 729.189 269.731 729.657C264.719 740.364 239.663 742.151 225.707 739.297C211.746 736.443 217.833 732.516 225.349 726.143C232.864 719.77 248.617 721.452 253.266 718.95C257.92 716.453 251.121 713.951 241.813 714.666C232.506 715.381 227.852 724.663 212.821 726.088C197.79 727.517 186.332 699.317 186.332 699.317C196.71 702.529 215.325 696.82 216.041 693.246C216.758 689.677 189.194 690.034 184.899 688.962C180.603 687.89 173.088 679.322 177.741 662.186V662.181Z" fill="#E6CC9A"/>
<path d="M223.067 778.159C223.067 803.808 241.535 825.162 265.93 829.702C268.06 830.105 270.24 830.372 272.451 830.503C273.511 830.568 274.576 830.603 275.651 830.603C304.694 830.603 328.24 807.125 328.24 778.159H223.072H223.067Z" fill="#E6CC9A"/>
<path d="M265.925 829.702C268.055 830.105 270.235 830.372 272.446 830.503C300 828.852 321.825 806.048 321.825 778.159H308.762C308.762 803.803 290.309 825.142 265.93 829.702H265.925Z" fill="#E9D1A2"/>
<path d="M329.962 777.822H221.866V779.433H329.962V777.822Z" fill="#E6CC9A"/>
<path d="M-32.0902 830.603H323.475C327.054 830.603 329.961 833.503 329.961 837.072V864.492C329.961 868.061 327.054 870.961 323.475 870.961H-32.0852C-35.6638 870.961 -38.5762 868.061 -38.5762 864.487V837.067C-38.5762 833.498 -35.6689 830.598 -32.0902 830.598V830.603Z" fill="#E6CC9A"/>
<path d="M77.1639 120.336H77.5503C79.0179 120.336 80.2224 118.338 80.2224 115.895V-5.2843C78.3232 -5.17481 76.4116 -5.03795 74.5 -4.86687V115.895C74.5 118.338 75.7004 120.336 77.168 120.336H77.1639Z" fill="#DDC79D"/>
<path d="M75.8687 105.105C55.0015 105.105 38.085 122.992 38.085 145.056H113.652C113.652 122.992 96.7358 105.105 75.8687 105.105Z" fill="#F2CE89"/>
<path d="M78.8782 105.591C77.7929 105.352 76.6871 105.229 75.5607 105.229C61.9658 105.229 50.9443 123.058 50.9443 145.056H57.5794C57.5794 124.879 66.8537 108.213 78.8782 105.591Z" fill="#FFFAF1"/>
<path d="M217.731 120.336H218.118C219.585 120.336 220.79 118.338 220.79 115.895V-5.2843C218.891 -5.17481 216.979 -5.03795 215.067 -4.86687V115.895C215.067 118.338 216.268 120.336 217.735 120.336H217.731Z" fill="#DDC79D"/>
<path d="M216.436 105.105C195.569 105.105 178.652 122.992 178.652 145.056H254.22C254.22 122.992 237.303 105.105 216.436 105.105Z" fill="#F2CE89"/>
<path d="M219.446 105.591C218.36 105.352 217.254 105.229 216.128 105.229C202.533 105.229 191.512 123.058 191.512 145.056H198.147C198.147 124.879 207.421 108.213 219.446 105.591Z" fill="#FFFAF1"/>
<path d="M358.299 120.336H358.685C360.153 120.336 361.357 118.338 361.357 115.895V-5.2843C359.458 -5.17481 357.546 -5.03795 355.635 -4.86687V115.895C355.635 118.338 356.835 120.336 358.303 120.336H358.299Z" fill="#DDC79D"/>
<path d="M357.003 105.105C336.136 105.105 319.22 122.992 319.22 145.056H394.787C394.787 122.992 377.871 105.105 357.003 105.105Z" fill="#F2CE89"/>
<path d="M360.013 105.591C358.928 105.352 357.822 105.229 356.695 105.229C343.101 105.229 332.079 123.058 332.079 145.056H338.714C338.714 124.879 347.988 108.213 360.013 105.591Z" fill="#FFFAF1"/>
<path d="M314.192 595.792C317.543 596.636 322.692 715.714 325.466 720.994C343.05 754.452 347.225 856.18 347.225 856.18L352.47 870.983L357.798 888.574C357.798 888.574 340.249 893.085 331.041 888.011L332.064 870.502L332.998 854.491L288.644 727.75L264.372 598.476L314.192 595.785V595.792Z" fill="#F7A491"/>
<path fill-rule="evenodd" clip-rule="evenodd" d="M320.959 670.352C306.401 675.59 290.307 676.895 279.07 676.761L264.372 598.476L314.192 595.785V595.792C315.996 596.247 318.322 630.981 320.518 663.771C320.665 665.977 320.812 668.174 320.959 670.352Z" fill="url(#paint0_linear_105_19067)" style="mix-blend-mode:multiply"/>
<path d="M332.07 870.434C340.165 874.032 348.885 871.862 352.394 870.715L353.561 873.846L358.024 888.691C358.024 888.691 340.255 893.085 331.047 888.018L332.07 870.434Z" fill="#3A3A3A"/>
<path d="M266.541 566.652L251.003 705.147C251.003 705.147 258.597 734.438 257.684 742.76C256.77 751.081 240.793 860.231 240.793 860.231L241.466 866.355L241.487 884.434H182.191C182.191 884.434 194.777 878.81 212.381 867.701C213.686 866.877 216.686 864.261 217.414 859.036C222.117 825.392 212.814 713.174 212.814 713.174L205.488 567.099L266.548 566.652H266.541Z" fill="#F7A491"/>
<path fill-rule="evenodd" clip-rule="evenodd" d="M210.807 673.159L205.488 567.099L266.541 566.652L253.902 679.303C241.601 680.297 224.563 676.923 210.807 673.159Z" fill="url(#paint1_linear_105_19067)" style="mix-blend-mode:multiply"/>
<path d="M242.091 888.924H180.448C178.169 888.718 177.612 886.864 178.402 885.718C180.029 883.363 187.218 881.632 195.306 877.877C209.485 879.367 239.235 869.603 241.473 866.321C242.764 872.892 243.362 888.643 242.091 888.924Z" fill="#3A3A3A"/>
<path d="M70.8589 469.986H154.425C154.425 469.986 171.309 532.329 174.646 559.739C177.99 587.148 149.578 775.154 149.578 775.154L118.598 777.681C118.598 777.681 114.815 617.901 114.815 603.194V526.308L107.798 777.681H75.8024C75.8024 777.681 56.3166 610.547 51.6339 571.109C46.9513 531.663 70.852 469.993 70.852 469.993L70.8589 469.986Z" fill="#232729"/>
<path d="M67.0137 467.48L54.3115 505.257L158.449 483.656L155.091 468.585L67.0137 467.48Z" fill="#CFAC68"/>
<path d="M152.825 481.15L142.966 484.83L131.603 534.973L157.172 542.326L152.825 481.157V481.15ZM140.961 522.6L147.648 487.165L151.322 522.6H140.961Z" fill="#CFAC68"/>
<path d="M155.854 479.179L151.508 481.15L165.377 540.685L185.769 529.652L155.854 479.179ZM155.854 486.368L178.086 525.642C178.086 525.642 170.396 528.986 168.645 528.986C166.895 528.986 155.861 486.368 155.861 486.368H155.854Z" fill="#CFAC68"/>
<path d="M141.476 431.378H119.326V415.332C137.027 412.105 134.685 385.822 116.655 385.822C112.357 385.822 108.272 387.682 105.443 390.923L109.473 394.439C115.241 387.827 126.185 391.912 126.185 400.694C126.185 405.946 121.915 410.224 116.655 410.224H113.984V431.378H88.1543C70.9686 431.378 56.9824 445.357 56.9824 462.55V465.221H172.641V462.55C172.641 445.364 158.662 431.378 141.469 431.378H141.476ZM62.4753 459.872C63.821 446.888 74.8273 436.727 88.1611 436.727H141.483C154.817 436.727 165.823 446.888 167.169 459.872H62.4684H62.4753Z" fill="#6D531F"/>
<path d="M78.5073 458.176H72.5063V474.613H78.5073V458.176Z" fill="#C4B9C7"/>
<path d="M147.388 458.176H141.387V474.613H147.388V458.176Z" fill="#C4B9C7"/>
<path d="M299.835 582.678C299.835 582.678 301.325 579.052 301.723 577.817C302.19 576.361 303.248 571.898 303.248 571.898C303.248 571.898 306.172 556.182 304.957 556.065C303.742 555.948 301.682 558.379 301.153 559.285C300.625 560.191 299.911 561.208 299.375 562.114C298.846 563.02 297.707 563.391 296.491 562.828C295.276 562.265 296.587 558.2 297.329 556.882C299.636 552.769 308.095 542.992 308.946 541.914C309.949 540.644 309.839 512.479 310.594 502.826C311.343 486.986 311.295 470.672 311.363 468.997L294.232 403.158L316.698 387.689C316.698 387.689 336.768 460.496 337.337 464.252C337.612 466.037 332.943 502.613 332.923 502.613C329.448 520.485 326.345 536.222 325.837 539.257C325.837 539.257 326.839 548.746 327.849 554.747C328.858 560.748 327.292 566.666 327.306 568.396C327.306 568.65 327.698 574.603 325.377 581.565C323.379 587.566 322.418 580.954 322.418 580.954C322.418 580.954 324.045 569.159 323.056 569.186C322.294 569.207 321.8 575.702 319.664 582.369C319.115 584.085 318.566 585.774 318.051 587.319C316.691 591.384 313.711 591.707 314.432 587.223C314.686 585.644 315.174 583.021 315.792 581.208C316.465 579.245 316.423 577.226 316.726 575.496C317.323 572.049 317.81 569.55 317.646 569.598C317.44 569.667 317.055 568.891 316.417 570.697C315.648 572.859 315.064 577.83 313.67 580.927C312.881 582.685 311.466 586.454 311.466 586.454C311.466 586.454 308.473 592.311 308.088 592.228C305.994 591.775 306.893 586.976 308.287 584.731C308.411 582.849 310.017 578.929 310.017 578.929C310.017 578.929 311.418 570.264 310.148 570.037C309.104 569.852 301.607 589.921 299.54 589.317C297.851 588.83 299.828 582.691 299.828 582.691L299.835 582.678Z" fill="#F7A491"/>
<path fill-rule="evenodd" clip-rule="evenodd" d="M326.243 422.504C319.368 425.095 306.545 423.513 299.14 422.021L294.232 403.158L316.698 387.689C316.698 387.689 321.353 404.576 326.243 422.504Z" fill="url(#paint2_linear_105_19067)" style="mix-blend-mode:multiply"/>
<circle cx="305.384" cy="531.59" r="4.31575" transform="rotate(-74.1743 305.384 531.59)" fill="url(#paint3_linear_105_19067)"/>
<ellipse cx="304.078" cy="529.39" rx="1.30591" ry="0.775446" fill="white" fill-opacity="0.35"/>
<circle cx="313.689" cy="533.944" r="4.31575" transform="rotate(-74.1743 313.689 533.944)" fill="url(#paint4_linear_105_19067)"/>
<ellipse cx="311.901" cy="532.366" rx="1.30591" ry="0.775446" fill="white" fill-opacity="0.35"/>
<circle cx="321.992" cy="536.298" r="4.31575" transform="rotate(-74.1743 321.992 536.298)" fill="url(#paint5_linear_105_19067)"/>
<ellipse cx="320.205" cy="534.098" rx="1.30591" ry="0.775446" fill="white" fill-opacity="0.35"/>
<circle cx="330.297" cy="538.651" r="4.31575" transform="rotate(-74.1743 330.297 538.651)" fill="url(#paint6_linear_105_19067)"/>
<ellipse cx="328.51" cy="536.919" rx="1.30591" ry="0.775446" fill="white" fill-opacity="0.35"/>
<path d="M225.97 365.113C233.124 355.357 262.648 327.11 265.93 327.165C275.488 327.33 306.872 327.343 313.011 330.454L312.715 384.235C311.713 388.746 290.051 459.068 291.307 474.462L291.156 474.606C272.995 492.094 244.364 490.721 227.755 471.565C227.755 471.565 227.824 450.232 225.269 430.773C221.267 400.288 208.2 389.337 225.97 365.107V365.113Z" fill="#3A3A3A"/>
<path fill-rule="evenodd" clip-rule="evenodd" d="M277.573 327.327C290.645 327.561 308.536 328.183 313.011 330.45L312.715 384.232C312.528 385.076 311.616 388.226 310.267 392.89C307.969 400.832 304.4 413.165 300.973 425.979C271.338 422.491 264.68 369.723 265.127 342.955L279.663 334.11L277.573 327.327Z" fill="url(#paint7_linear_105_19067)" style="mix-blend-mode:multiply"/>
<path d="M199.948 656.742L197.84 574.576C197.476 551.355 202.221 528.34 211.73 507.192L227.756 471.558C234.237 473.617 240.348 475.368 247.166 476.13C261.99 477.792 276.566 476.144 291.308 474.455C291.356 475.011 291.418 475.499 291.514 475.904C294.191 488.002 309.084 514.978 315.366 551.849C322.493 593.705 324.354 651.729 323.461 656.639C282.203 666.272 239.909 666.588 199.955 656.728L199.948 656.742Z" fill="#3A3A3A"/>
<path d="M267.091 547.325V573.182C267.091 586.626 255.837 597.522 241.961 597.522H216.11V537.245H256.682C259.463 537.245 261.982 538.303 263.843 540.019C265.841 541.846 267.084 544.448 267.084 547.325H267.091Z" fill="#987C47"/>
<path d="M266.974 548.286L259.298 548.128L263.623 345.909C255.583 347.351 248.841 353.125 246.561 360.932L193.157 543.541L185.769 541.516L239.173 358.906C242.75 346.671 254.423 338.123 267.551 338.123H271.471L266.974 548.286Z" fill="#AC8E52"/>
<path d="M263.85 540.019H263.678C258.343 540.019 254.025 544.208 254.025 549.371V568.39C254.025 584.477 240.56 597.516 223.958 597.516H208.221C191.612 597.516 178.155 584.477 178.155 568.39V549.467C178.155 542.718 183.806 537.245 190.768 537.245H256.695C259.476 537.245 261.996 538.303 263.857 540.019H263.85Z" fill="#CFAC68"/>
<path d="M176.126 232.42C202.123 229.227 247.01 244.392 266.204 252.373V274.608C225.346 261.875 150.129 235.612 176.126 232.42Z" fill="#DACBAF"/>
<path d="M290.923 259.797C295.544 278.796 270.538 292.597 250.729 293.098C237.862 293.427 231.944 292.109 229.863 278.583C226.485 256.646 235.555 243.278 248.25 237.744C264.64 230.603 287.105 244.122 290.923 259.797Z" fill="#241815"/>
<path d="M319.98 416.975C359.096 405.268 348.618 370.89 348.405 372.195C348.522 371.13 352.202 366.805 354.029 363.104C361.623 347.69 351.605 329.124 340.125 322.704C347.739 303.102 340.18 284.296 325.844 276.461C318.607 272.507 312.523 266.883 307.635 260.374C296.78 245.935 277.047 231.4 253.318 236.144C229.836 242.131 261.275 255.698 258.158 278.219C256.579 289.637 261.117 287.996 268.189 297.176C258.007 315.021 263.898 344.978 279.505 358.566C271.849 390.726 280.068 428.929 319.98 416.982V416.975Z" fill="#241815"/>
<path d="M261.838 247.605C261.838 247.605 270.544 250.861 275.186 260.644C279.827 270.428 278.938 305.13 259.631 315.457C245.675 322.922 236.428 310.972 232.903 297.238C231.551 291.971 231.04 286.441 231.429 281.644C232.829 264.337 238.418 241.69 261.838 247.605Z" fill="#F7A491"/>
<path d="M256.462 277.86C256.462 282.81 258.316 286.827 260.609 286.827C262.903 286.827 264.75 282.81 264.75 277.86C264.75 272.909 262.896 268.893 260.609 268.893C258.323 268.893 256.462 272.909 256.462 277.86Z" fill="#F7A491"/>
<path fill-rule="evenodd" clip-rule="evenodd" d="M248.728 247.427C238.851 250.215 234.493 260.032 232.548 269.96L232.856 270.923C234.147 266.15 238.238 256.861 245.075 253.496C251.003 259.775 263.17 268.257 267.749 269.892C270.845 270.998 270.574 270.502 269.847 269.176C269.382 268.327 268.729 267.138 268.656 265.81L260.038 249.935L252.53 250.857C253.895 249.56 251.182 248.205 248.728 247.427Z" fill="url(#paint8_linear_105_19067)" style="mix-blend-mode:multiply"/>
<path d="M273.449 249.62C263.115 244.312 254.279 239.046 245.03 248.59L242.943 249.764C242.943 249.764 260.396 254.57 261.371 263.819C262.346 273.06 271.296 290.022 269.868 294.561C268.44 299.099 255.71 314.588 255.71 314.588C307.903 301.54 332.033 279.71 273.449 249.62Z" fill="#241815"/>
<path d="M264.055 274.88C262.613 278.883 263.705 282.906 266.486 283.861C269.274 284.815 272.7 282.343 274.142 278.333C275.583 274.331 274.492 270.307 271.711 269.353C268.923 268.398 265.497 270.87 264.055 274.88Z" fill="#F7A491"/>
<path d="M317.511 276.888C280.112 280.081 244.437 253.706 230.375 240.023C247.535 245.7 312.708 251.437 361.199 251.798C367.206 251.843 369.936 260.119 364.747 263.146C354.284 269.251 340.09 274.961 317.511 276.888Z" fill="#F5EEE0"/>
<path d="M278.491 220.023C255.373 213.557 241.529 231.908 237.349 242.161C255.373 250.938 288.026 251.957 305.135 251.761C305.201 246.797 302.536 226.747 278.491 220.023Z" fill="#F5EEE0"/>
<path fill-rule="evenodd" clip-rule="evenodd" d="M243.361 232.067C240.561 235.579 238.554 239.206 237.349 242.161C255.373 250.938 288.026 251.957 305.135 251.761C305.152 250.517 304.997 248.325 304.376 245.633C283.441 246.015 256.62 237.438 243.361 232.067Z" fill="#A6874D"/>
<path d="M238.581 301.047L238.658 301.202L238.761 301.408L238.812 301.485L239.07 301.923C239.07 301.923 239.43 302.952 240.279 304.059C241.438 305.552 243.471 307.122 246.715 306.299C249.006 305.707 250.473 304.111 251.425 302.412C252.558 299.966 253.021 297.495 253.073 297.264C250.962 299.941 243.059 301.382 241 301.614H240.871C239.404 301.768 238.812 301.356 238.632 301.176C238.632 301.176 238.581 301.125 238.581 301.099V301.047Z" fill="white"/>
<path style="mix-blend-mode:multiply" opacity="0.58" d="M238.58 301.047L239.069 301.897C239.069 301.897 239.429 302.926 240.279 304.033C241.205 304.548 242.184 304.6 242.184 304.6L240.974 301.588H240.845C239.12 301.768 238.606 301.15 238.554 301.073L238.58 301.047Z" fill="url(#paint9_linear_105_19067)"/>
<path d="M253.046 297.212C253.046 297.212 249.854 300.61 243.908 301.356C237.936 302.103 237.859 300.687 237.859 300.687C237.859 300.687 241.669 299.76 243.213 300.198C243.728 300.352 244.86 299.632 245.53 299.477C246.199 299.297 249.725 299.503 253.046 297.238V297.212Z" fill="url(#paint10_linear_105_19067)"/>
<path d="M238.631 301.125V301.202C239.249 302.695 239.738 306.993 243.934 307.405C246.843 307.714 250.24 304.96 251.424 302.386C252.557 299.94 253.02 297.469 253.072 297.238C252.943 297.392 249.108 303.029 244.629 303.518C240.948 303.93 239.429 302.437 238.837 301.459L238.786 301.382C238.786 301.382 238.683 301.202 238.657 301.125H238.631Z" fill="url(#paint11_linear_105_19067)"/>
<ellipse cx="222.915" cy="279.996" rx="14.1125" ry="12.0659" transform="rotate(27.4717 222.915 279.996)" fill="#E77B17"/>
<ellipse cx="222.915" cy="279.996" rx="11.6593" ry="9.96852" transform="rotate(27.4717 222.915 279.996)" fill="#222222"/>
<path fill-rule="evenodd" clip-rule="evenodd" d="M220.117 269.721C218.046 272.85 215.848 277.02 217.273 278.245C217.592 278.519 217.976 278.794 218.38 279.083C220.8 280.815 223.947 283.068 218.243 288.801C218.268 288.815 218.293 288.828 218.318 288.841C221.306 290.394 224.562 290.711 227.351 289.96C229.243 286.642 231.516 281.915 227.016 277.509C225.453 275.978 226.54 273.75 228.346 271.621C228.077 271.457 227.8 271.3 227.515 271.152C225.095 269.893 222.499 269.446 220.117 269.721Z" fill="#404040"/>
<ellipse rx="14.1125" ry="12.0659" transform="matrix(-0.807898 0.589323 0.589323 0.807898 254.504 277.611)" fill="#E77B17"/>
<ellipse rx="11.6593" ry="9.96852" transform="matrix(-0.807898 0.589323 0.589323 0.807898 254.504 277.611)" fill="#222222"/>
<path fill-rule="evenodd" clip-rule="evenodd" d="M255.727 267.032C258.245 269.815 261.045 273.607 259.82 275.032C259.546 275.351 259.207 275.68 258.851 276.027C256.719 278.103 253.946 280.803 260.446 285.614C260.423 285.631 260.4 285.648 260.377 285.664C257.657 287.649 254.486 288.451 251.616 288.128C249.246 285.131 246.29 280.8 250.077 275.767C251.393 274.019 249.983 271.979 247.877 270.146C248.118 269.943 248.369 269.747 248.628 269.557C250.832 267.95 253.332 267.118 255.727 267.032Z" fill="#404040"/>
<path d="M235.617 277.362C237.548 278.062 239.696 277.802 241.405 276.663L241.607 276.528L243.758 286.618C240.749 285.907 237.593 286.145 234.724 287.3L235.617 277.362Z" fill="#E77B17"/>
<path d="M254.055 408.947C255.323 406.895 277.401 370.953 278.956 353.462H278.963C278.963 353.462 271.362 338.192 266.528 337.622C260.507 336.915 251.272 336.928 244.474 347.784C242.978 350.187 224.873 392.717 224.873 392.717C224.894 392.741 224.915 392.766 224.937 392.79L205.248 436.761C194.484 426.389 170.844 408.515 158.536 399.21C156.194 397.439 154.263 395.979 152.908 394.94C141.703 382.876 132.839 379.827 128.513 378.798C126.186 378.248 116.319 376.463 116.319 376.463C116.319 376.463 104.839 379.546 105.045 380.356C105.739 383.075 116.463 379.924 116.463 379.924C116.463 379.924 122.773 381.606 123.666 381.977C125.87 382.897 124.531 383.082 124.531 383.082C122.554 382.574 113.545 381.764 113.545 381.764C113.545 381.764 99.0718 382.828 99.5456 383.542C99.8271 383.968 102.278 384.826 106.933 385.204C108.177 385.303 109.774 385.295 111.39 385.288C113.467 385.278 115.574 385.269 116.999 385.485C121.448 386.165 123.865 387.874 122.238 387.833C121.7 387.821 121.119 387.591 120.397 387.306C119.525 386.961 118.446 386.534 116.985 386.309C110.49 385.3 100.754 385.883 101.379 386.961C101.706 387.522 104.301 387.981 107.588 388.562C109.895 388.97 112.544 389.438 114.987 390.044C117.495 390.664 121.442 393.527 124.044 395.414C124.121 395.47 124.196 395.524 124.27 395.578C123.11 395.976 121.833 396.1 121.222 396.127C120.916 396.144 120.131 395.999 119.143 395.817C116.448 395.32 112.246 394.545 112.186 396.018C112.104 398.036 129.406 403.714 129.406 403.714L138.73 405.225L139.17 405.5V405.513C139.17 405.513 190.088 472.21 214.957 468.942C230.619 466.883 246.817 428.687 254.055 408.947Z" fill="#F8A492"/>
<path fill-rule="evenodd" clip-rule="evenodd" d="M266.667 337.642C271.194 342.591 276.499 351.076 273.062 358.305C272.001 360.538 270.375 363.876 268.465 367.799C261.198 382.721 249.811 406.105 249.671 409.308C249.523 412.708 231.352 459.861 214.908 468.948C214.924 468.946 214.941 468.944 214.957 468.942C230.619 466.883 246.817 428.687 254.055 408.947C255.323 406.895 277.401 370.953 278.956 353.462H278.962C278.962 353.462 271.506 338.481 266.667 337.642Z" fill="url(#paint12_linear_105_19067)" style="mix-blend-mode:multiply"/>
<circle cx="155.974" cy="391.917" r="4.31575" transform="rotate(42.0061 155.974 391.917)" fill="url(#paint13_linear_105_19067)"/>
<ellipse cx="155.862" cy="389.87" rx="1.30591" ry="0.775446" transform="rotate(42.0061 155.862 389.87)" fill="white" fill-opacity="0.35"/>
<circle cx="150.197" cy="398.331" r="4.31575" transform="rotate(42.0061 150.197 398.331)" fill="url(#paint14_linear_105_19067)"/>
<ellipse cx="150.085" cy="396.284" rx="1.30591" ry="0.775446" transform="rotate(42.0061 150.085 396.284)" fill="white" fill-opacity="0.35"/>
<circle cx="144.421" cy="404.744" r="4.31575" transform="rotate(42.0061 144.421 404.744)" fill="url(#paint15_linear_105_19067)"/>
<ellipse cx="144.309" cy="402.698" rx="1.30591" ry="0.775446" transform="rotate(42.0061 144.309 402.698)" fill="white" fill-opacity="0.35"/>
<circle cx="138.645" cy="411.158" r="4.31575" transform="rotate(42.0061 138.645 411.158)" fill="url(#paint16_linear_105_19067)"/>
<ellipse cx="138.534" cy="409.111" rx="1.30591" ry="0.775446" transform="rotate(42.0061 138.534 409.111)" fill="white" fill-opacity="0.35"/>
</g>
<defs>
<linearGradient id="paint0_linear_105_19067" x1="337.766" y1="688.326" x2="325.05" y2="586.204" gradientUnits="userSpaceOnUse">
<stop stop-color="#FDE8D9"/>
<stop offset="0.99" stop-color="#C045B7"/>
</linearGradient>
<linearGradient id="paint1_linear_105_19067" x1="284.675" y1="695.577" x2="262.03" y2="554.74" gradientUnits="userSpaceOnUse">
<stop stop-color="#FDE8D9"/>
<stop offset="0.99" stop-color="#C045B7"/>
</linearGradient>
<linearGradient id="paint2_linear_105_19067" x1="335.751" y1="429.048" x2="331.234" y2="383.144" gradientUnits="userSpaceOnUse">
<stop stop-color="#FDE8D9"/>
<stop offset="0.99" stop-color="#C045B7"/>
</linearGradient>
<linearGradient id="paint3_linear_105_19067" x1="309.667" y1="531.668" x2="301.061" y2="531.435" gradientUnits="userSpaceOnUse">
<stop stop-color="#471C47"/>
<stop offset="0.27" stop-color="#4B1C46"/>
<stop offset="0.55" stop-color="#571D44"/>
<stop offset="0.83" stop-color="#6C2042"/>
<stop offset="1" stop-color="#7C2240"/>
</linearGradient>
<linearGradient id="paint4_linear_105_19067" x1="317.972" y1="534.023" x2="309.366" y2="533.789" gradientUnits="userSpaceOnUse">
<stop stop-color="#471C47"/>
<stop offset="0.27" stop-color="#4B1C46"/>
<stop offset="0.55" stop-color="#571D44"/>
<stop offset="0.83" stop-color="#6C2042"/>
<stop offset="1" stop-color="#7C2240"/>
</linearGradient>
<linearGradient id="paint5_linear_105_19067" x1="326.275" y1="536.377" x2="317.67" y2="536.143" gradientUnits="userSpaceOnUse">
<stop stop-color="#471C47"/>
<stop offset="0.27" stop-color="#4B1C46"/>
<stop offset="0.55" stop-color="#571D44"/>
<stop offset="0.83" stop-color="#6C2042"/>
<stop offset="1" stop-color="#7C2240"/>
</linearGradient>
<linearGradient id="paint6_linear_105_19067" x1="334.58" y1="538.73" x2="325.974" y2="538.496" gradientUnits="userSpaceOnUse">
<stop stop-color="#471C47"/>
<stop offset="0.27" stop-color="#4B1C46"/>
<stop offset="0.55" stop-color="#571D44"/>
<stop offset="0.83" stop-color="#6C2042"/>
<stop offset="1" stop-color="#7C2240"/>
</linearGradient>
<linearGradient id="paint7_linear_105_19067" x1="327.239" y1="440.054" x2="305.308" y2="317.657" gradientUnits="userSpaceOnUse">
<stop stop-color="#FDE8D9"/>
<stop offset="0.99" stop-color="#C045B7"/>
</linearGradient>
<linearGradient id="paint8_linear_105_19067" x1="281.538" y1="274.276" x2="279.914" y2="244.275" gradientUnits="userSpaceOnUse">
<stop stop-color="#FDE8D9"/>
<stop offset="0.99" stop-color="#C045B7"/>
</linearGradient>
<linearGradient id="paint9_linear_105_19067" x1="236.455" y1="302.941" x2="232.872" y2="302.988" gradientUnits="userSpaceOnUse">
<stop stop-color="#FDE8D9"/>
<stop offset="0.99" stop-color="#C045B7"/>
</linearGradient>
<linearGradient id="paint10_linear_105_19067" x1="245.222" y1="297.959" x2="247.448" y2="303.817" gradientUnits="userSpaceOnUse">
<stop stop-color="#BB0E58"/>
<stop offset="0.26" stop-color="#D71147"/>
<stop offset="0.51" stop-color="#EC143A"/>
<stop offset="0.76" stop-color="#F81533"/>
<stop offset="1" stop-color="#FD1631"/>
</linearGradient>
<linearGradient id="paint11_linear_105_19067" x1="245.43" y1="297.887" x2="247.656" y2="303.746" gradientUnits="userSpaceOnUse">
<stop stop-color="#BB0E58"/>
<stop offset="0.26" stop-color="#D71147"/>
<stop offset="0.51" stop-color="#EC143A"/>
<stop offset="0.76" stop-color="#F81533"/>
<stop offset="1" stop-color="#FD1631"/>
</linearGradient>
<linearGradient id="paint12_linear_105_19067" x1="297.988" y1="487.683" x2="268.924" y2="324.725" gradientUnits="userSpaceOnUse">
<stop stop-color="#FDE8D9"/>
<stop offset="0.99" stop-color="#C045B7"/>
</linearGradient>
<linearGradient id="paint13_linear_105_19067" x1="160.257" y1="391.995" x2="151.651" y2="391.762" gradientUnits="userSpaceOnUse">
<stop stop-color="#471C47"/>
<stop offset="0.27" stop-color="#4B1C46"/>
<stop offset="0.55" stop-color="#571D44"/>
<stop offset="0.83" stop-color="#6C2042"/>
<stop offset="1" stop-color="#7C2240"/>
</linearGradient>
<linearGradient id="paint14_linear_105_19067" x1="154.48" y1="398.409" x2="145.875" y2="398.175" gradientUnits="userSpaceOnUse">
<stop stop-color="#471C47"/>
<stop offset="0.27" stop-color="#4B1C46"/>
<stop offset="0.55" stop-color="#571D44"/>
<stop offset="0.83" stop-color="#6C2042"/>
<stop offset="1" stop-color="#7C2240"/>
</linearGradient>
<linearGradient id="paint15_linear_105_19067" x1="148.704" y1="404.823" x2="140.098" y2="404.589" gradientUnits="userSpaceOnUse">
<stop stop-color="#471C47"/>
<stop offset="0.27" stop-color="#4B1C46"/>
<stop offset="0.55" stop-color="#571D44"/>
<stop offset="0.83" stop-color="#6C2042"/>
<stop offset="1" stop-color="#7C2240"/>
</linearGradient>
<linearGradient id="paint16_linear_105_19067" x1="142.928" y1="411.237" x2="134.323" y2="411.003" gradientUnits="userSpaceOnUse">
<stop stop-color="#471C47"/>
<stop offset="0.27" stop-color="#4B1C46"/>
<stop offset="0.55" stop-color="#571D44"/>
<stop offset="0.83" stop-color="#6C2042"/>
<stop offset="1" stop-color="#7C2240"/>
</linearGradient>
<clipPath id="clip0_105_19067">
<rect width="433" height="871" fill="white" transform="translate(-0.0639648 -0.208252)"/>
</clipPath>
<clipPath id="clip1_105_19067">
<rect width="155" height="323" fill="white" transform="translate(19.7783 226.083)"/>
</clipPath>
<clipPath id="clip2_105_19067">
<rect width="155" height="249" fill="white" transform="translate(201.251 300.083)"/>
</clipPath>
<clipPath id="clip3_105_19067">
<rect width="275" height="300" fill="white" transform="translate(269.099 570.961)"/>
</clipPath>
</defs>
</svg>
