<svg width="19" height="19" viewBox="0 0 19 19" fill="none" xmlns="http://www.w3.org/2000/svg">
<path d="M7.61519 14.5177C9.20669 14.5177 10.6622 13.9795 11.8226 13.0604L16.7962 18.048C16.9613 18.2135 17.172 18.298 17.3986 18.298C17.6253 18.298 17.836 18.2135 18.001 18.048C18.333 17.7151 18.333 17.1748 18.001 16.8418L13.0254 11.8522C13.9295 10.6886 14.4804 9.21702 14.4804 7.63387C14.4804 3.83386 11.4062 0.75 7.61519 0.75C3.83883 0.75 0.75 3.84857 0.75 7.63387C0.75 11.4342 3.83919 14.5177 7.61519 14.5177ZM7.61519 2.45616C10.4682 2.45616 12.7776 4.78486 12.7776 7.63387C12.7776 10.4972 10.4687 12.8116 7.61519 12.8116C4.76213 12.8116 2.45276 10.4829 2.45276 7.63387C2.45276 4.7853 4.77635 2.45616 7.61519 2.45616Z" fill="#333333" stroke="#333333" stroke-width="0.5"/>
</svg>
