<svg width="130" height="30" viewBox="0 0 130 30" fill="none" xmlns="http://www.w3.org/2000/svg">
<path d="M111.965 14.6732C113.076 13.7228 114.155 12.8012 115.268 11.8489C116.301 12.6409 116.562 13.7902 116.674 15.0887C117.941 13.9958 119.166 12.9397 120.426 11.8525C121.33 12.9499 122.539 13.7401 123.141 15.1793C124.432 14.0655 125.697 12.9739 127.008 11.8423C127.684 12.5921 128.384 13.2833 128.985 14.057C129.691 14.9671 129.995 16.0498 129.991 17.2258C129.983 19.7784 129.961 22.3309 129.999 24.8831C130.022 26.3716 129.473 27.5453 128.409 28.4944C127.7 29.1283 126.913 29.6326 125.956 30.0002C125.956 29.7561 125.956 29.5829 125.956 29.4098C125.956 25.3647 125.952 21.3197 125.96 17.2746C125.961 16.7055 125.887 16.1866 125.34 15.9073C124.731 15.597 124.129 15.7102 123.558 16.0298C123.476 16.076 123.417 16.2452 123.417 16.3579C123.409 19.4028 123.408 22.4477 123.414 25.493C123.414 26.0817 123.675 26.5522 124.151 26.9553C123.155 27.8263 122.18 28.6791 121.169 29.5621C121.013 29.4142 120.856 29.289 120.725 29.139C119.86 28.1433 119.42 26.9757 119.418 25.6333C119.413 22.8872 119.401 20.1411 119.4 17.3945C119.4 16.7725 119.359 16.1786 118.717 15.8842C118.029 15.5691 117.388 15.7586 116.788 16.147C116.706 16.2008 116.652 16.3681 116.651 16.4831C116.645 19.5577 116.628 22.6333 116.669 25.7074C116.675 26.1185 116.984 26.5256 117.189 27.0215C116.273 27.801 115.253 28.668 114.164 29.5949C113.864 29.2273 113.545 28.9055 113.305 28.5304C112.741 27.6496 112.491 26.6588 112.489 25.6062C112.482 22.5462 112.478 19.4863 112.488 16.4267C112.489 15.7946 112.392 15.2104 111.965 14.6732Z" fill="url(#paint0_linear_2164_3423)"/>
<path d="M46.7791 11.8423C47.6018 12.4501 47.898 13.1598 48.1711 15.1751C48.8111 14.608 49.4242 14.0651 50.0365 13.5213C50.6549 12.9722 51.2722 12.4218 51.9158 11.8489C53.0578 13.0839 54.3794 14.1586 54.7173 15.9948C54.7944 16.4137 54.8357 16.8471 54.8373 17.2739C54.8485 19.7814 54.8109 22.2898 54.8547 24.7963C54.8811 26.3244 54.3554 27.5307 53.2922 28.5057C52.6036 29.1373 51.8362 29.6242 50.9342 30.0002C50.9342 29.7804 50.9342 29.6087 50.9342 29.4375C50.9342 25.4015 50.9342 21.3659 50.9342 17.33C50.9342 16.0186 50.1594 15.4232 48.9827 15.8324C48.8515 15.8778 48.7273 15.9458 48.5986 15.9992C48.2355 16.1497 48.1047 16.4039 48.108 16.844C48.1299 19.5889 48.1286 22.3339 48.1126 25.0788C48.1084 25.7903 48.153 26.4511 48.7991 26.8938C47.7606 27.803 46.765 28.6743 45.755 29.5584C44.7215 28.6536 44.2078 27.4764 44.129 26.1108C44.0539 24.8096 44.0803 23.5013 44.0758 22.1957C44.0688 20.2669 44.0651 18.3381 44.0795 16.4092C44.0844 15.782 44.0011 15.1994 43.584 14.6561C44.6596 13.7089 45.7228 12.7723 46.7791 11.8423Z" fill="white"/>
<path d="M109.707 20.5317C109.707 21.6223 109.695 22.7134 109.71 23.8041C109.731 25.3738 109.13 26.644 107.987 27.6587C105.614 29.7662 101.633 29.7213 99.3067 27.5613C98.2348 26.5662 97.6795 25.336 97.6873 23.8387C97.6981 21.7468 97.6899 19.6548 97.6899 17.5628C97.6899 15.0278 98.8589 13.2145 101.192 12.354C103.83 11.3807 106.273 11.7629 108.354 13.7838C109.271 14.6744 109.705 15.8193 109.706 17.1242C109.708 18.2606 109.707 19.3961 109.707 20.5317ZM101.781 20.6863C101.756 20.6863 101.73 20.6863 101.704 20.6863C101.704 21.8072 101.685 22.9285 101.71 24.0485C101.733 25.0511 101.823 26.0507 102.276 26.9676C102.572 27.568 103.021 27.9667 103.712 27.9609C104.383 27.9555 104.876 27.5871 105.1 26.9782C105.344 26.3165 105.59 25.6098 105.611 24.916C105.688 22.3485 105.692 19.7779 105.682 17.2082C105.678 16.2366 105.538 15.2686 105.095 14.3842C104.801 13.798 104.395 13.3465 103.687 13.3522C103 13.3576 102.556 13.7798 102.326 14.3731C102.082 15.0038 101.841 15.6766 101.805 16.3428C101.728 17.7868 101.781 19.2379 101.781 20.6863Z" fill="url(#paint1_linear_2164_3423)"/>
<path d="M96.1417 25.118C96.2204 25.6292 96.2463 26.0738 95.7239 26.4337C95.0915 26.8699 94.4979 27.3718 93.9302 27.8923C91.8746 29.7755 87.6905 29.7737 85.4468 27.0225C83.9937 25.241 83.4501 23.1696 83.4128 20.9181C83.382 19.0593 83.64 17.2582 84.521 15.5942C86.4478 11.9551 90.0576 11.3277 92.7218 12.1806C94.9325 12.8883 96.2063 14.8612 95.9541 17.0758C95.8271 18.1914 95.0388 19.0025 94.018 19.074C93.2223 19.1299 92.5421 18.904 92.1145 18.1892C91.6558 17.4219 91.6883 16.6117 92.1075 15.8458C92.3109 15.4739 92.6255 15.1624 92.8997 14.8319C93.2939 14.3562 93.2495 14.0398 92.7279 13.6986C91.4752 12.879 89.7491 13.2819 88.9718 14.5852C88.4977 15.3808 88.3008 16.2705 88.1985 17.1774C87.9401 19.4569 87.9168 21.7341 88.419 23.9865C88.5342 24.5039 88.7235 25.0186 88.963 25.4908C89.5927 26.7315 90.6807 27.2258 92.1171 27.0075C93.4833 26.8002 94.6675 26.1941 95.7546 25.3634C95.8601 25.2827 95.9668 25.2037 96.0741 25.1251C96.0833 25.1185 96.1 25.122 96.1417 25.118Z" fill="url(#paint2_linear_2164_3423)"/>
<path d="M36.7823 11.8423C37.9372 13.6169 39.4862 13.6121 41.233 13.1328C40.3762 13.963 39.5485 14.8303 38.6522 15.6089C38.1035 16.0855 37.41 16.1834 36.7017 15.9978C36.0581 15.8293 35.622 15.4078 35.3634 14.7672C34.5495 15.4343 34.601 16.6132 35.5351 17.2706C36.3919 17.8738 37.3277 18.3491 38.2178 18.9006C38.8293 19.2798 39.4699 19.6316 40.0125 20.1052C40.8027 20.7952 41.3178 21.7149 41.3299 22.8277C41.3361 23.4048 41.2521 24.0292 41.0401 24.5552C40.1081 26.8659 38.5196 28.4351 36.1878 29.0611C34.4339 29.5316 32.9868 28.8834 32.0256 27.246C31.3675 26.1247 31.3671 26.1243 32.2967 25.302C33.1842 24.5168 34.0735 23.7338 34.9893 22.9256C35.0708 23.4185 35.114 23.8709 35.2233 24.3043C35.5376 25.5507 36.3919 26.276 37.4296 26.2147C38.4078 26.1569 38.9295 25.1706 38.4265 24.2743C38.2685 23.9926 38.0274 23.7232 37.7634 23.5561C36.853 22.9811 35.9238 22.4384 34.9872 21.9124C33.9803 21.3467 33.0994 20.6453 32.5353 19.5673C31.6494 17.8742 31.9554 16.1512 33.3522 14.9083C34.4871 13.9 35.6166 12.885 36.7823 11.8423Z" fill="white"/>
<path d="M74.9274 13.0453C74.2315 13.8077 73.5678 14.5877 72.8483 15.3043C72.3643 15.7859 71.7653 16.0807 71.0718 16.0688C70.1863 16.0539 69.5272 15.6555 69.1604 14.7724C68.5948 15.2192 68.4243 15.8767 68.7637 16.5382C68.9244 16.851 69.1649 17.167 69.4448 17.3512C70.2823 17.9021 71.1414 18.4216 72.0215 18.8901C72.8384 19.325 73.6212 19.7917 74.2133 20.5488C75.1104 21.6967 75.4172 22.9857 74.8782 24.399C73.9438 26.8487 72.2886 28.474 69.8497 29.0887C68.1017 29.5289 66.6345 28.763 65.7258 27.0356C65.2219 26.078 65.2215 26.0775 65.994 25.3923C66.8279 24.6524 67.6617 23.9134 68.4971 23.1757C68.5886 23.095 68.6909 23.028 68.7873 22.9553C68.8884 23.4916 68.9405 24.0077 69.0854 24.492C69.4299 25.6461 70.2529 26.275 71.2457 26.2045C72.1677 26.1388 72.6844 25.231 72.2542 24.3598C72.0998 24.0469 71.8456 23.7389 71.5641 23.5577C70.6371 22.9619 69.6841 22.4106 68.7273 21.8695C67.4555 21.1499 66.4184 20.2006 66.0023 18.6755C65.6173 17.2644 65.9473 16.0327 66.9943 15.0645C68.1696 13.9778 69.3707 12.9228 70.5738 11.8423C71.711 13.5957 73.2457 13.6284 74.9274 13.0453Z" fill="white"/>
<path d="M62.3578 11.8421C62.3578 12.1386 62.3578 12.3101 62.3578 12.4821C62.3578 16.5776 62.3612 20.6731 62.3544 24.769C62.3531 25.4937 62.47 26.1549 63.1209 26.6402C62.1092 27.5053 61.1285 28.3446 60.1159 29.2106C58.9788 28.1816 58.3831 26.9198 58.3792 25.3822C58.3724 22.6955 58.3737 20.0084 58.3797 17.3218C58.3809 16.7366 58.2658 16.1986 57.8608 15.6977C59.3323 14.4359 60.7983 13.1792 62.3578 11.8421Z" fill="white"/>
<path d="M60.4907 5.52637C61.3506 6.43028 62.2587 7.38518 63.1209 8.29169C62.2674 9.18697 61.3593 10.1397 60.4888 11.0527C59.6376 10.1579 58.7235 9.19647 57.8608 8.28996C58.7143 7.39296 59.6234 6.43806 60.4907 5.52637Z" fill="white"/>
<path d="M28.566 11.8421C28.566 12.1068 28.566 12.2597 28.566 12.413C28.5643 16.637 28.5643 20.8606 28.5584 25.0846C28.5575 25.706 28.767 26.2172 29.3064 26.6426C28.2991 27.5036 27.3118 28.3469 26.3015 29.2106C25.1794 28.2044 24.5708 26.9651 24.5584 25.4641C24.5359 22.7355 24.5457 20.0064 24.5542 17.2778C24.5559 16.7044 24.4369 16.1862 24.0463 15.7069C25.5288 14.4395 27.0062 13.176 28.566 11.8421Z" fill="white"/>
<path d="M29.3064 8.28543C28.4352 9.20439 27.5282 10.1605 26.6819 11.0527C25.83 10.1584 24.9124 9.19489 24.0463 8.28586C24.9133 7.37813 25.8332 6.41466 26.6814 5.52637C27.5305 6.41898 28.4389 7.3738 29.3064 8.28543Z" fill="white"/>
<path d="M78.1028 27.3366C78.1053 26.2358 78.9296 25.3751 79.9805 25.3755C81.0592 25.3759 81.8679 26.2362 81.8599 27.3743C81.8519 28.4743 81.0192 29.3324 79.9687 29.3228C78.9355 29.3131 78.1002 28.4244 78.1028 27.3366Z" fill="white"/>
<path d="M7.09902 23.6532C8.00989 22.6557 8.18734 21.4236 8.19592 20.1707C8.22163 16.3093 8.20963 12.4475 8.20063 8.58576C8.1972 7.19212 8.6357 6.0148 9.65801 5.08541C10.8076 4.04029 11.9542 2.99161 13.0914 1.93269C15.4262 -0.241678 18.6599 0.817241 19.3856 3.994C19.8219 5.90441 19.4207 7.67195 18.5562 9.35937C17.776 10.883 16.6547 12.0919 15.3075 13.0854C15.2398 13.1352 15.1746 13.1891 15.0675 13.2732C15.7961 13.3769 16.4743 13.4477 17.1417 13.5781C17.5913 13.6663 18.0379 13.8051 18.464 13.9801C20.741 14.9161 21.8996 16.9369 21.7843 19.5021C21.6068 23.4485 19.5519 26.0346 16.3084 27.7233C14.4151 28.7088 12.3906 29.3177 10.2324 29.1948C9.77932 29.169 9.29195 29.1 8.89117 28.8984C6.55422 27.7233 4.25113 28.0113 1.94547 28.9736C1.82588 29.0235 1.70501 29.0693 1.58413 29.1147C1.57384 29.1187 1.55798 29.1063 1.50312 29.0858C2.20609 28.0478 3.01108 27.1273 3.94894 26.3346C5.35488 25.1466 6.92157 24.3494 8.76172 24.2221C10.1934 24.1232 11.5316 24.4825 12.8192 25.098C12.9735 25.1719 13.1249 25.2525 13.346 25.3647C13.346 25.1381 13.346 24.9672 13.346 24.7963C13.346 19.5128 13.343 14.2289 13.3499 8.94541C13.3508 8.32359 13.4253 7.69287 12.6906 7.37239C13.0327 7.02787 13.3173 6.74078 13.5921 6.46347C13.8681 6.74923 14.1403 7.03054 14.4275 7.32788C14.4292 7.31675 14.4344 7.3577 14.4189 7.36883C13.8634 7.77566 13.7708 8.34184 13.7948 9.01084C13.8385 10.2367 13.8073 11.4652 13.8073 12.6924C13.8073 12.8517 13.8073 13.0111 13.8073 13.1704C13.8561 13.198 13.9046 13.2256 13.9534 13.2536C14.2779 12.853 14.6508 12.484 14.917 12.0456C15.6637 10.8175 15.8446 9.42123 15.9093 8.00667C15.9595 6.90769 15.8519 5.82162 15.494 4.78051C15.3701 4.41952 15.2008 4.0572 14.9783 3.75364C14.2659 2.78196 12.9976 2.8198 12.4245 3.88539C12.1428 4.40929 11.9748 5.07028 11.9684 5.67162C11.9272 9.54765 11.9054 13.4255 11.9568 17.301C11.992 19.9307 10.6306 22.1608 8.14191 23.2531C7.80157 23.4022 7.44708 23.5206 7.09902 23.6532ZM13.854 14.0949C13.8338 14.1902 13.812 14.2462 13.812 14.3023C13.8098 17.9954 13.8068 21.6889 13.8115 25.382C13.812 25.8062 14.2753 26.0724 14.6332 25.861C15.4811 25.3611 16.1271 24.6471 16.6037 23.7725C17.4378 22.2413 17.6967 20.5753 17.6016 18.8433C17.5373 17.6736 17.2218 16.5759 16.53 15.6296C15.8622 14.7172 14.9672 14.216 13.854 14.0949Z" fill="white"/>
<path d="M7.51389 7.10531C7.19514 8.11491 7.16744 9.13482 7.16872 10.1607C7.1734 13.1784 7.13207 16.1969 7.1815 19.2137C7.22795 22.0229 5.85964 23.8308 3.42216 24.9551C3.17543 25.0689 2.91933 25.1613 2.6662 25.2605C2.64405 25.2691 2.61294 25.2554 2.53922 25.2463C3.4652 24.3966 3.49801 23.2877 3.49844 22.1699C3.49929 20.7839 3.49844 19.3975 3.49844 18.0116C3.49844 17.8543 3.49844 17.6975 3.49844 17.548C2.57033 17.3766 2.07942 17.8526 1.41849 19.5836C0.846194 17.8823 0.408556 16.2575 1.1202 14.5695C1.5084 13.6484 2.17104 13.2329 3.49844 13.0035C3.49844 12.6633 3.50313 12.3088 3.49759 11.9544C3.48523 11.1862 3.71449 10.4903 4.20412 9.91415C5.15141 8.80015 6.296 7.91342 7.51389 7.10531Z" fill="white"/>
<path d="M0 4.3982C0.764944 2.36431 1.68005 0.509394 3.90666 0.0547312C4.60682 -0.088455 5.25979 0.0579851 5.8763 0.392706C6.33835 0.643747 6.81113 0.904551 7.20883 1.25508C8.39551 2.30062 9.63023 2.25831 10.9246 1.56098C11.0271 1.50565 11.1297 1.45033 11.2502 1.38525C11.2584 1.44382 11.2815 1.4945 11.2669 1.521C10.599 2.7232 9.81213 3.8143 8.73701 4.62507C7.14748 5.82356 5.76604 5.82449 4.1718 4.64134C4.10058 4.58834 4.03065 4.53302 3.96158 4.47677C2.60201 3.37033 1.65387 3.32152 0.184908 4.28244C0.123987 4.32196 0.061779 4.35962 0 4.3982Z" fill="white"/>
<path d="M78.1028 27.3375C78.1053 26.2361 78.9294 25.3751 79.98 25.3755C81.0584 25.3759 81.8668 26.2366 81.8588 27.3752C81.8508 28.4757 81.0184 29.3341 79.9682 29.3245C78.9353 29.3148 78.1002 28.4257 78.1028 27.3375Z" fill="url(#paint3_linear_2164_3423)"/>
<defs>
<linearGradient id="paint0_linear_2164_3423" x1="112.044" y1="11.7692" x2="123.998" y2="33.3705" gradientUnits="userSpaceOnUse">
<stop stop-color="#C2570F"/>
<stop offset="0.515625" stop-color="#FFB546"/>
<stop offset="1" stop-color="#DE611A"/>
</linearGradient>
<linearGradient id="paint1_linear_2164_3423" x1="97.7395" y1="11.7724" x2="110.884" y2="28.3258" gradientUnits="userSpaceOnUse">
<stop stop-color="#C2570F"/>
<stop offset="0.515625" stop-color="#FFAB2D"/>
<stop offset="1" stop-color="#DE611A"/>
</linearGradient>
<linearGradient id="paint2_linear_2164_3423" x1="83.4659" y1="11.7724" x2="96.4083" y2="29.0906" gradientUnits="userSpaceOnUse">
<stop stop-color="#C2570F"/>
<stop offset="0.515625" stop-color="#FFAB2D"/>
<stop offset="1" stop-color="#DE611A"/>
</linearGradient>
<linearGradient id="paint3_linear_2164_3423" x1="78.1191" y1="25.3596" x2="80.7777" y2="29.96" gradientUnits="userSpaceOnUse">
<stop stop-color="#C2570F"/>
<stop offset="0.515625" stop-color="#FFB546"/>
<stop offset="1" stop-color="#DE611A"/>
</linearGradient>
</defs>
</svg>
