<svg width="128" height="30" viewBox="0 0 128 30" fill="none" xmlns="http://www.w3.org/2000/svg">
<path d="M110.243 14.673C111.337 13.7225 112.398 12.8009 113.495 11.8487C114.512 12.6407 114.768 13.79 114.879 15.0885C116.127 13.9955 117.332 12.9394 118.574 11.8523C119.464 12.9496 120.654 13.7398 121.246 15.179C122.518 14.0652 123.763 12.9736 125.054 11.842C125.719 12.5918 126.409 13.283 127 14.0568C127.695 14.9668 127.995 16.0496 127.991 17.2255C127.984 19.7781 127.962 22.3307 127.999 24.8828C128.021 26.3713 127.481 27.5451 126.434 28.4942C125.735 29.1281 124.96 29.6324 124.018 30C124.018 29.7558 124.018 29.5827 124.018 29.4095C124.018 25.3645 124.015 21.3194 124.022 17.2744C124.023 16.7053 123.95 16.1863 123.411 15.9071C122.812 15.5968 122.219 15.71 121.657 16.0296C121.576 16.0758 121.518 16.2449 121.518 16.3577C121.511 19.4026 121.51 22.4474 121.515 25.4928C121.516 26.0814 121.773 26.552 122.241 26.9551C121.26 27.8261 120.3 28.6788 119.305 29.5618C119.151 29.414 118.996 29.2888 118.868 29.1388C118.016 28.143 117.583 26.9755 117.581 25.6331C117.576 22.8869 117.564 20.1408 117.563 17.3942C117.563 16.7723 117.523 16.1783 116.891 15.884C116.213 15.5688 115.582 15.7584 114.992 16.1468C114.91 16.2005 114.857 16.3679 114.857 16.4829C114.85 19.5575 114.834 22.633 114.875 25.7072C114.88 26.1183 115.184 26.5254 115.386 27.0212C114.484 27.8008 113.48 28.6677 112.408 29.5947C112.112 29.2271 111.798 28.9053 111.562 28.5301C111.006 27.6494 110.76 26.6585 110.758 25.606C110.752 22.546 110.748 19.486 110.757 16.4265C110.758 15.7943 110.663 15.2101 110.243 14.673Z" fill="url(#paint0_linear_2384_2425)"/>
<path d="M46.0594 11.842C46.8694 12.4498 47.1611 13.1596 47.43 15.1749C48.0601 14.6077 48.6638 14.0648 49.2667 13.5211C49.8756 12.972 50.4834 12.4216 51.1171 11.8487C52.2416 13.0836 53.5428 14.1584 53.8755 15.9945C53.9514 16.4134 53.9921 16.8468 53.9937 17.2737C54.0047 19.7811 53.9677 22.2895 54.0108 24.7961C54.0368 26.3242 53.5192 27.5305 52.4723 28.5055C51.7943 29.1371 51.0387 29.6239 50.1506 30C50.1506 29.7802 50.1506 29.6085 50.1506 29.4372C50.1506 25.4012 50.1506 21.3657 50.1506 17.3297C50.1506 16.0184 49.3877 15.423 48.2291 15.8321C48.0999 15.8776 47.9777 15.9456 47.8509 15.999C47.4934 16.1495 47.3646 16.4037 47.3679 16.8438C47.3894 19.5887 47.3882 22.3336 47.3724 25.0786C47.3683 25.7901 47.4122 26.4508 48.0483 26.8935C47.0258 27.8028 46.0456 28.6741 45.0511 29.5581C44.0335 28.6533 43.5277 27.4762 43.4501 26.1105C43.3762 24.8093 43.4022 23.5011 43.3977 22.1955C43.3908 20.2667 43.3871 18.3378 43.4013 16.409C43.4062 15.7818 43.3242 15.1992 42.9135 14.6558C43.9725 13.7086 45.0194 12.772 46.0594 11.842Z" fill="#333333"/>
<path d="M108.019 20.5314C108.019 21.6221 108.007 22.7132 108.022 23.8038C108.043 25.3736 107.451 26.6438 106.326 27.6584C103.989 29.7659 100.069 29.721 97.7789 27.5611C96.7235 26.566 96.1768 25.3358 96.1844 23.8385C96.1951 21.7465 96.187 19.6545 96.187 17.5626C96.187 15.0275 97.338 13.2142 99.6348 12.3538C102.233 11.3805 104.638 11.7627 106.687 13.7835C107.59 14.6742 108.018 15.8191 108.019 17.1239C108.02 18.2604 108.019 19.3959 108.019 20.5314ZM100.216 20.6861C100.19 20.6861 100.165 20.6861 100.14 20.6861C100.14 21.807 100.12 22.9283 100.145 24.0483C100.168 25.0509 100.256 26.0504 100.702 26.9673C100.994 27.5677 101.436 27.9664 102.117 27.9606C102.777 27.9553 103.262 27.5869 103.483 26.978C103.723 26.3162 103.966 25.6096 103.986 24.9158C104.062 22.3483 104.066 19.7777 104.056 17.2079C104.052 16.2364 103.914 15.2684 103.478 14.384C103.188 13.7978 102.789 13.3462 102.092 13.352C101.416 13.3573 100.978 13.7795 100.752 14.3729C100.512 15.0035 100.274 15.6764 100.239 16.3426C100.163 17.7866 100.216 19.2377 100.216 20.6861Z" fill="url(#paint1_linear_2384_2425)"/>
<path d="M94.6626 25.1178C94.7401 25.629 94.7656 26.0736 94.2512 26.4335C93.6286 26.8697 93.0441 27.3715 92.4851 27.892C90.4611 29.7752 86.3414 29.7735 84.1323 27.0223C82.7015 25.2407 82.1663 23.1694 82.1295 20.9179C82.0992 19.0591 82.3532 17.258 83.2207 15.594C85.1179 11.9549 88.6721 11.3275 91.2953 12.1803C93.472 12.8881 94.7262 14.8609 94.4779 17.0756C94.3529 18.1911 93.5767 19.0023 92.5716 19.0737C91.7881 19.1296 91.1183 18.9038 90.6974 18.1889C90.2457 17.4217 90.2777 16.6114 90.6904 15.8456C90.8908 15.4737 91.2005 15.1622 91.4705 14.8316C91.8586 14.3559 91.8149 14.0396 91.3013 13.6983C90.0679 12.8788 88.3684 13.2817 87.603 14.5849C87.1362 15.3805 86.9424 16.2702 86.8416 17.1772C86.5872 19.4567 86.5642 21.7339 87.0587 23.9863C87.1721 24.5037 87.3586 25.0184 87.5944 25.4905C88.2144 26.7312 89.2856 27.2255 90.7 27.0072C92.0451 26.8 93.2111 26.1939 94.2815 25.3632C94.3853 25.2824 94.4904 25.2034 94.596 25.1249C94.6051 25.1182 94.6215 25.1218 94.6626 25.1178Z" fill="url(#paint2_linear_2384_2425)"/>
<path d="M36.2164 11.842C37.3535 13.6167 38.8787 13.6118 40.5987 13.1326C39.755 13.9628 38.9401 14.83 38.0576 15.6086C37.5173 16.0852 36.8345 16.1831 36.137 15.9975C35.5034 15.8291 35.074 15.4076 34.8194 14.767C34.0179 15.434 34.0687 16.613 34.9884 17.2704C35.8321 17.8735 36.7535 18.3488 37.6298 18.9004C38.2319 19.2796 38.8627 19.6314 39.3969 20.1049C40.175 20.7949 40.6822 21.7146 40.694 22.8275C40.7002 23.4046 40.6175 24.0289 40.4087 24.5549C39.491 26.8657 37.927 28.4348 35.6311 29.0609C33.9041 29.5313 32.4793 28.8832 31.5329 27.2457C30.885 26.1245 30.8845 26.1241 31.7998 25.3018C32.6737 24.5165 33.5493 23.7335 34.451 22.9253C34.5312 23.4183 34.5738 23.8706 34.6815 24.304C34.9909 25.5505 35.8321 26.2757 36.8537 26.2144C37.8169 26.1567 38.3306 25.1704 37.8353 24.2741C37.6798 23.9923 37.4424 23.7229 37.1824 23.5558C36.286 22.9809 35.3712 22.4382 34.449 21.9122C33.4576 21.3465 32.5902 20.645 32.0348 19.567C31.1625 17.874 31.4637 16.1509 32.8391 14.908C33.9565 13.8997 35.0687 12.8848 36.2164 11.842Z" fill="#333333"/>
<path d="M73.7747 13.0451C73.0895 13.8075 72.436 14.5875 71.7276 15.304C71.251 15.7857 70.6612 16.0805 69.9784 16.0686C69.1065 16.0536 68.4575 15.6552 68.0963 14.7721C67.5395 15.219 67.3716 15.8765 67.7058 16.5379C67.864 16.8508 68.1008 17.1668 68.3764 17.351C69.201 17.9018 70.0469 18.4214 70.9135 18.8898C71.7178 19.3248 72.4886 19.7914 73.0715 20.5485C73.9549 21.6965 74.2569 22.9855 73.7262 24.3987C72.8062 26.8485 71.1764 28.4737 68.7751 29.0885C67.054 29.5287 65.6094 28.7628 64.7146 27.0353C64.2185 26.0777 64.2181 26.0773 64.9788 25.392C65.7997 24.6521 66.6207 23.9131 67.4433 23.1754C67.5334 23.0948 67.6341 23.0278 67.7291 22.9551C67.8285 23.4914 67.8799 24.0074 68.0226 24.4917C68.3617 25.6459 69.1721 26.2747 70.1496 26.2042C71.0574 26.1385 71.5661 25.2307 71.1426 24.3595C70.9906 24.0466 70.7403 23.7386 70.4631 23.5575C69.5504 22.9617 68.612 22.4104 67.67 21.8692C66.4177 21.1496 65.3966 20.2004 64.9869 18.6752C64.6078 17.2642 64.9327 16.0325 65.9636 15.0643C67.1209 13.9776 68.3034 12.9226 69.488 11.842C70.6078 13.5955 72.1189 13.6281 73.7747 13.0451Z" fill="#333333"/>
<path d="M61.3984 11.8421C61.3984 12.1386 61.3984 12.3101 61.3984 12.4821C61.3984 16.5776 61.4018 20.6731 61.3951 24.769C61.3938 25.4937 61.5089 26.1549 62.1498 26.6402C61.1537 27.5053 60.188 28.3446 59.191 29.2106C58.0714 28.1816 57.4849 26.9198 57.4811 25.3822C57.4744 22.6955 57.4756 20.0084 57.4815 17.3218C57.4828 16.7366 57.3694 16.1986 56.9707 15.6977C58.4195 14.4359 59.863 13.1792 61.3984 11.8421Z" fill="#333333"/>
<path d="M59.56 5.52637C60.4067 6.43028 61.3009 7.38518 62.1498 8.29169C61.3095 9.18697 60.4153 10.1397 59.5582 11.0527C58.7201 10.1579 57.8201 9.19647 56.9707 8.28996C57.8111 7.39296 58.7061 6.43806 59.56 5.52637Z" fill="#333333"/>
<path d="M28.1265 11.8421C28.1265 12.1068 28.1265 12.2597 28.1265 12.413C28.1249 16.637 28.1249 20.8606 28.119 25.0846C28.1182 25.706 28.3245 26.2172 28.8555 26.6426C27.8637 27.5036 26.8916 28.3469 25.8968 29.2106C24.792 28.2044 24.1928 26.9651 24.1806 25.4641C24.1585 22.7355 24.1681 20.0064 24.1764 17.2778C24.1781 16.7044 24.0609 16.1862 23.6764 15.7069C25.136 14.4395 26.5907 13.176 28.1265 11.8421Z" fill="#333333"/>
<path d="M28.8555 8.28543C27.9978 9.20439 27.1047 10.1605 26.2714 11.0527C25.4326 10.1584 24.5292 9.19489 23.6764 8.28586C24.5301 7.37813 25.4358 6.41466 26.2709 5.52637C27.107 6.41898 28.0014 7.3738 28.8555 8.28543Z" fill="#333333"/>
<path d="M76.9012 27.3366C76.9037 26.2358 77.7153 25.3751 78.75 25.3755C79.8122 25.3759 80.6084 26.2362 80.6006 27.3743C80.5927 28.4743 79.7728 29.3324 78.7384 29.3228C77.7211 29.3131 76.8987 28.4244 76.9012 27.3366Z" fill="#333333"/>
<path d="M6.98981 23.6532C7.88666 22.6557 8.06138 21.4236 8.06983 20.1707C8.09515 16.3093 8.08333 12.4475 8.07447 8.58576C8.07109 7.19212 8.50285 6.0148 9.50943 5.08541C10.6414 4.04029 11.7703 2.99161 12.89 1.93269C15.1889 -0.241678 18.3728 0.817241 19.0873 3.994C19.517 5.90441 19.122 7.67195 18.2707 9.35937C17.5026 10.883 16.3985 12.0919 15.072 13.0854C15.0053 13.1352 14.9412 13.1891 14.8357 13.2732C15.5531 13.3769 16.2208 13.4477 16.8779 13.5781C17.3207 13.6663 17.7604 13.8051 18.1799 13.9801C20.4219 14.9161 21.5627 16.9369 21.4491 19.5021C21.2744 23.4485 19.2511 26.0346 16.0575 27.7233C14.1933 28.7088 12.2 29.3177 10.075 29.1948C9.62887 29.169 9.149 29.1 8.75438 28.8984C6.45339 27.7233 4.18573 28.0113 1.91554 28.9736C1.79779 29.0235 1.67878 29.0693 1.55976 29.1147C1.54963 29.1187 1.53401 29.1063 1.47999 29.0858C2.17215 28.0478 2.96475 27.1273 3.88819 26.3346C5.2725 25.1466 6.81508 24.3494 8.62693 24.2221C10.0366 24.1232 11.3542 24.4825 12.622 25.098C12.774 25.1719 12.9229 25.2525 13.1407 25.3647C13.1407 25.1381 13.1407 24.9672 13.1407 24.7963C13.1407 19.5128 13.1378 14.2289 13.1445 8.94541C13.1454 8.32359 13.2188 7.69287 12.4954 7.37239C12.8322 7.02787 13.1124 6.74078 13.383 6.46347C13.6548 6.74923 13.9228 7.03054 14.2055 7.32788C14.2072 7.31675 14.2123 7.3577 14.1971 7.36883C13.6501 7.77566 13.559 8.34184 13.5826 9.01084C13.6256 10.2367 13.5948 11.4652 13.5948 12.6924C13.5948 12.8517 13.5948 13.0111 13.5948 13.1704C13.643 13.198 13.6906 13.2256 13.7388 13.2536C14.0582 12.853 14.4254 12.484 14.6875 12.0456C15.4227 10.8175 15.6008 9.42123 15.6646 8.00667C15.7139 6.90769 15.608 5.82162 15.2556 4.78051C15.1336 4.41952 14.9669 4.0572 14.7479 3.75364C14.0464 2.78196 12.7976 2.8198 12.2333 3.88539C11.956 4.40929 11.7906 5.07028 11.7843 5.67162C11.7437 9.54765 11.7222 13.4255 11.7729 17.301C11.8075 19.9307 10.467 22.1608 8.01665 23.2531C7.68154 23.4022 7.33251 23.5206 6.98981 23.6532ZM13.6408 14.0949C13.621 14.1902 13.5995 14.2462 13.5995 14.3023C13.5974 17.9954 13.5944 21.6889 13.5991 25.382C13.5995 25.8062 14.0557 26.0724 14.4081 25.861C15.2429 25.3611 15.879 24.6471 16.3483 23.7725C17.1696 22.2413 17.4245 20.5753 17.3308 18.8433C17.2675 17.6736 16.9569 16.5759 16.2757 15.6296C15.6181 14.7172 14.7369 14.216 13.6408 14.0949Z" fill="#333333"/>
<path d="M7.39829 7.10531C7.08444 8.11491 7.05717 9.13482 7.05843 10.1607C7.06304 13.1784 7.02235 16.1969 7.07102 19.2137C7.11675 22.0229 5.76949 23.8308 3.36951 24.9551C3.12658 25.0689 2.87441 25.1613 2.62519 25.2605C2.60337 25.2691 2.57274 25.2554 2.50015 25.2463C3.41189 24.3966 3.4442 23.2877 3.44462 22.1699C3.44546 20.7839 3.44462 19.3975 3.44462 18.0116C3.44462 17.8543 3.44462 17.6975 3.44462 17.548C2.53078 17.3766 2.04743 17.8526 1.39667 19.5836C0.833176 17.8823 0.402271 16.2575 1.10296 14.5695C1.4852 13.6484 2.13764 13.2329 3.44462 13.0035C3.44462 12.6633 3.44923 12.3088 3.44378 11.9544C3.43161 11.1862 3.65734 10.4903 4.13944 9.91415C5.07215 8.80015 6.19914 7.91342 7.39829 7.10531Z" fill="#333333"/>
<path d="M0 4.3982C0.753175 2.36431 1.6542 0.509394 3.84656 0.0547312C4.53595 -0.088455 5.17887 0.0579851 5.78589 0.392706C6.24084 0.643747 6.70635 0.904551 7.09793 1.25508C8.26634 2.30062 9.48207 2.25831 10.7565 1.56098C10.8575 1.50565 10.9584 1.45033 11.0771 1.38525C11.0852 1.44382 11.108 1.4945 11.0936 1.521C10.4359 2.7232 9.66118 3.8143 8.60259 4.62507C7.03752 5.82356 5.67733 5.82449 4.10762 4.64134C4.03749 4.58834 3.96864 4.53302 3.90063 4.47677C2.56198 3.37033 1.62843 3.32152 0.182063 4.28244C0.122079 4.32196 0.0608285 4.35962 0 4.3982Z" fill="#333333"/>
<path d="M76.9012 27.3375C76.9037 26.2361 77.7151 25.3751 78.7495 25.3755C79.8113 25.3759 80.6073 26.2366 80.5995 27.3752C80.5916 28.4757 79.7719 29.3341 78.7379 29.3245C77.7209 29.3148 76.8987 28.4257 76.9012 27.3375Z" fill="url(#paint3_linear_2384_2425)"/>
<defs>
<linearGradient id="paint0_linear_2384_2425" x1="110.32" y1="11.769" x2="122.372" y2="33.212" gradientUnits="userSpaceOnUse">
<stop stop-color="#C2570F"/>
<stop offset="0.515625" stop-color="#FFB546"/>
<stop offset="1" stop-color="#DE611A"/>
</linearGradient>
<linearGradient id="paint1_linear_2384_2425" x1="96.2358" y1="11.7721" x2="109.425" y2="28.1264" gradientUnits="userSpaceOnUse">
<stop stop-color="#C2570F"/>
<stop offset="0.515625" stop-color="#FFAB2D"/>
<stop offset="1" stop-color="#DE611A"/>
</linearGradient>
<linearGradient id="paint2_linear_2384_2425" x1="82.1818" y1="11.7721" x2="95.1798" y2="28.897" gradientUnits="userSpaceOnUse">
<stop stop-color="#C2570F"/>
<stop offset="0.515625" stop-color="#FFAB2D"/>
<stop offset="1" stop-color="#DE611A"/>
</linearGradient>
<linearGradient id="paint3_linear_2384_2425" x1="76.9173" y1="25.3596" x2="79.5963" y2="29.924" gradientUnits="userSpaceOnUse">
<stop stop-color="#C2570F"/>
<stop offset="0.515625" stop-color="#FFB546"/>
<stop offset="1" stop-color="#DE611A"/>
</linearGradient>
</defs>
</svg>
