<svg width="103" height="22" viewBox="0 0 103 22" fill="none" xmlns="http://www.w3.org/2000/svg">
<path fill-rule="evenodd" clip-rule="evenodd" d="M21.4737 10.7585C21.8655 10.004 22.1175 9.17178 22.2295 8.2618C22.2673 7.808 22.2862 7.48656 22.2862 7.29748C22.2862 5.65247 21.7757 4.3478 20.7546 3.38349C19.7525 2.41917 18.3911 1.93701 16.6705 1.93701H14.1395L13.6221 5.96445H15.4509C16.1316 5.96445 16.6705 6.15353 17.0675 6.5317C17.4835 6.89095 17.6915 7.37311 17.6915 7.97817C17.6915 8.64378 17.5141 9.208 17.1593 9.67085C18.2888 9.71161 20.0569 9.92294 21.4737 10.7585Z" fill="#454545"/>
<path d="M21.5922 11.8588C20.6693 11.0254 19.4108 10.6088 17.8168 10.6088L12.3466 10.6086L11.8807 14.3359H16.6529C17.4609 14.3359 18.5166 14.9043 18.5166 15.9667C18.5166 17.3644 17.5453 18.3216 16.1938 18.3216H12.0482L11.5952 21.8596H16.2693C19.3178 21.8596 22.7481 19.5319 22.9896 16.3263C23.0232 16.1376 23.0399 15.8624 23.0399 15.5008C23.0399 14.0856 22.5151 12.6765 21.5922 11.8588Z" fill="#FFAB2E"/>
<path d="M0 14.3359H17.2386L17.7045 10.6086H0.465908L0 14.3359Z" fill="#FFAB2E"/>
<path d="M0 14.3554H8.44507L8.85224 10.6086H0.465907L0 14.3554Z" fill="url(#paint0_linear_2024_2484)" style="mix-blend-mode:multiply"/>
<path d="M8.96234 14.3554H17.2084L17.7045 10.6086H9.31818L8.96234 14.3554Z" fill="url(#paint1_linear_2024_2484)" style="mix-blend-mode:multiply"/>
<path d="M5.64722 21.7595C5.71399 21.8263 5.80581 21.8597 5.92266 21.8597L10.3557 21.8597L12.9113 1.88818C11.5491 1.9032 10.1228 1.88932 8.76058 1.88932C8.64373 1.88932 8.55192 1.9227 8.48515 1.98946C8.41837 2.05622 8.37664 2.14801 8.35995 2.26484L5.59714 21.4841C5.58045 21.601 5.59714 21.6928 5.64722 21.7595Z" fill="#FFAB2E"/>
<path d="M31.4405 16.1379V6.18481H34.6944C35.7745 6.18481 36.5857 6.40812 37.128 6.85474C37.6749 7.30135 37.9483 7.96216 37.9483 8.83716C37.9483 9.302 37.8161 9.71444 37.5518 10.0745C37.2875 10.4299 36.9275 10.7056 36.4717 10.9016C37.0095 11.052 37.4333 11.3391 37.7432 11.7629C38.0577 12.1822 38.2149 12.6835 38.2149 13.2668C38.2149 14.1601 37.9255 14.8619 37.3467 15.3723C36.768 15.8827 35.9499 16.1379 34.8926 16.1379H31.4405ZM32.753 11.4827V15.0647H34.92C35.5307 15.0647 36.0115 14.9075 36.3624 14.593C36.7178 14.274 36.8956 13.8365 36.8956 13.2805C36.8956 12.0819 36.2439 11.4827 34.9405 11.4827H32.753ZM32.753 10.4299H34.7354C35.3096 10.4299 35.7676 10.2864 36.1094 9.99927C36.4558 9.71216 36.629 9.32251 36.629 8.83032C36.629 8.28345 36.4695 7.88696 36.1505 7.64087C35.8314 7.39022 35.3461 7.26489 34.6944 7.26489H32.753V10.4299ZM41.3389 16.1379H40.0743V8.74146H41.3389V16.1379ZM39.9717 6.77954C39.9717 6.57446 40.0333 6.40129 40.1563 6.26001C40.2839 6.11873 40.4708 6.0481 40.7169 6.0481C40.963 6.0481 41.1498 6.11873 41.2774 6.26001C41.405 6.40129 41.4688 6.57446 41.4688 6.77954C41.4688 6.98462 41.405 7.15552 41.2774 7.29224C41.1498 7.42896 40.963 7.49731 40.7169 7.49731C40.4708 7.49731 40.2839 7.42896 40.1563 7.29224C40.0333 7.15552 39.9717 6.98462 39.9717 6.77954ZM47.6758 14.176C47.6758 13.8342 47.546 13.5699 47.2862 13.3831C47.031 13.1917 46.5821 13.0276 45.9395 12.8909C45.3015 12.7542 44.7934 12.5901 44.4151 12.3987C44.0414 12.2073 43.7634 11.9794 43.5811 11.7151C43.4034 11.4508 43.3145 11.1363 43.3145 10.7717C43.3145 10.1656 43.5697 9.65291 44.0801 9.23364C44.5951 8.81437 45.2514 8.60474 46.0489 8.60474C46.8874 8.60474 47.5665 8.82121 48.086 9.25415C48.6101 9.68709 48.8721 10.2408 48.8721 10.9153H47.6006C47.6006 10.5689 47.4525 10.2704 47.1563 10.0198C46.8646 9.76912 46.4955 9.6438 46.0489 9.6438C45.5886 9.6438 45.2286 9.74406 44.9688 9.94458C44.709 10.1451 44.5792 10.4071 44.5792 10.7307C44.5792 11.0361 44.6999 11.2662 44.9415 11.4211C45.183 11.5761 45.6182 11.7242 46.2471 11.8655C46.8806 12.0068 47.3933 12.1754 47.7852 12.3713C48.1771 12.5673 48.4665 12.8043 48.6534 13.0823C48.8448 13.3557 48.9405 13.6907 48.9405 14.0872C48.9405 14.748 48.6762 15.2789 48.1475 15.6799C47.6189 16.0764 46.933 16.2747 46.0899 16.2747C45.4975 16.2747 44.9734 16.1698 44.5176 15.9602C44.0619 15.7506 43.7042 15.4589 43.4444 15.0852C43.1892 14.7069 43.0616 14.2991 43.0616 13.8616H44.3262C44.349 14.2854 44.5176 14.6226 44.8321 14.8733C45.1511 15.1194 45.5704 15.2424 46.0899 15.2424C46.5684 15.2424 46.9512 15.1467 47.2383 14.9553C47.53 14.7594 47.6758 14.4996 47.6758 14.176ZM51.7842 8.74146L51.8253 9.67114C52.3904 8.96021 53.1286 8.60474 54.0401 8.60474C55.6033 8.60474 56.3917 9.48657 56.4053 11.2502V16.1379H55.1407V11.2434C55.1361 10.7102 55.0131 10.316 54.7715 10.0608C54.5346 9.80558 54.1631 9.67798 53.6573 9.67798C53.2471 9.67798 52.8871 9.78735 52.5772 10.0061C52.2673 10.2249 52.0258 10.512 51.8526 10.8674V16.1379H50.588V8.74146H51.7842ZM59.6866 16.1379H58.4219V8.74146H59.6866V16.1379ZM58.3194 6.77954C58.3194 6.57446 58.3809 6.40129 58.504 6.26001C58.6316 6.11873 58.8184 6.0481 59.0645 6.0481C59.3106 6.0481 59.4975 6.11873 59.6251 6.26001C59.7527 6.40129 59.8165 6.57446 59.8165 6.77954C59.8165 6.98462 59.7527 7.15552 59.6251 7.29224C59.4975 7.42896 59.3106 7.49731 59.0645 7.49731C58.8184 7.49731 58.6316 7.42896 58.504 7.29224C58.3809 7.15552 58.3194 6.98462 58.3194 6.77954ZM66.0235 14.176C66.0235 13.8342 65.8936 13.5699 65.6339 13.3831C65.3786 13.1917 64.9297 13.0276 64.2872 12.8909C63.6491 12.7542 63.141 12.5901 62.7628 12.3987C62.3891 12.2073 62.1111 11.9794 61.9288 11.7151C61.751 11.4508 61.6622 11.1363 61.6622 10.7717C61.6622 10.1656 61.9174 9.65291 62.4278 9.23364C62.9428 8.81437 63.599 8.60474 64.3965 8.60474C65.2351 8.60474 65.9141 8.82121 66.4337 9.25415C66.9577 9.68709 67.2198 10.2408 67.2198 10.9153H65.9483C65.9483 10.5689 65.8002 10.2704 65.504 10.0198C65.2123 9.76912 64.8432 9.6438 64.3965 9.6438C63.9363 9.6438 63.5762 9.74406 63.3165 9.94458C63.0567 10.1451 62.9268 10.4071 62.9268 10.7307C62.9268 11.0361 63.0476 11.2662 63.2891 11.4211C63.5307 11.5761 63.9659 11.7242 64.5948 11.8655C65.2283 12.0068 65.7409 12.1754 66.1329 12.3713C66.5248 12.5673 66.8142 12.8043 67.001 13.0823C67.1924 13.3557 67.2881 13.6907 67.2881 14.0872C67.2881 14.748 67.0238 15.2789 66.4952 15.6799C65.9665 16.0764 65.2807 16.2747 64.4376 16.2747C63.8451 16.2747 63.321 16.1698 62.8653 15.9602C62.4096 15.7506 62.0518 15.4589 61.7921 15.0852C61.5368 14.7069 61.4092 14.2991 61.4092 13.8616H62.6739C62.6967 14.2854 62.8653 14.6226 63.1797 14.8733C63.4988 15.1194 63.918 15.2424 64.4376 15.2424C64.9161 15.2424 65.2989 15.1467 65.586 14.9553C65.8777 14.7594 66.0235 14.4996 66.0235 14.176ZM73.919 12.2415V16.1379H72.6065V6.18481H76.2774C77.3666 6.18481 78.2188 6.46281 78.834 7.0188C79.4538 7.57479 79.7637 8.31079 79.7637 9.22681C79.7637 10.193 79.4607 10.9381 78.8546 11.4622C78.253 11.9817 77.3894 12.2415 76.2637 12.2415H73.919ZM73.919 11.1682H76.2774C76.9792 11.1682 77.517 11.0042 77.8907 10.676C78.2644 10.3433 78.4512 9.86483 78.4512 9.24048C78.4512 8.64803 78.2644 8.17407 77.8907 7.8186C77.517 7.46313 77.0043 7.27856 76.3526 7.26489H73.919V11.1682ZM82.6143 16.1379H81.3497V5.63794H82.6143V16.1379ZM89.211 15.4065C88.7188 15.9853 87.9965 16.2747 87.044 16.2747C86.2556 16.2747 85.654 16.0468 85.2393 15.5911C84.8292 15.1308 84.6218 14.4517 84.6172 13.554V8.74146H85.8819V13.5198C85.8819 14.6409 86.3376 15.2014 87.2491 15.2014C88.2152 15.2014 88.8578 14.8414 89.1768 14.1213V8.74146H90.4415V16.1379H89.2383L89.211 15.4065ZM96.6758 14.176C96.6758 13.8342 96.546 13.5699 96.2862 13.3831C96.031 13.1917 95.5821 13.0276 94.9395 12.8909C94.3015 12.7542 93.7934 12.5901 93.4151 12.3987C93.0414 12.2073 92.7634 11.9794 92.5811 11.7151C92.4034 11.4508 92.3145 11.1363 92.3145 10.7717C92.3145 10.1656 92.5697 9.65291 93.0801 9.23364C93.5951 8.81437 94.2514 8.60474 95.0489 8.60474C95.8874 8.60474 96.5665 8.82121 97.086 9.25415C97.6101 9.68709 97.8721 10.2408 97.8721 10.9153H96.6006C96.6006 10.5689 96.4525 10.2704 96.1563 10.0198C95.8646 9.76912 95.4955 9.6438 95.0489 9.6438C94.5886 9.6438 94.2286 9.74406 93.9688 9.94458C93.709 10.1451 93.5792 10.4071 93.5792 10.7307C93.5792 11.0361 93.6999 11.2662 93.9415 11.4211C94.183 11.5761 94.6182 11.7242 95.2471 11.8655C95.8806 12.0068 96.3933 12.1754 96.7852 12.3713C97.1771 12.5673 97.4665 12.8043 97.6534 13.0823C97.8448 13.3557 97.9405 13.6907 97.9405 14.0872C97.9405 14.748 97.6762 15.2789 97.1475 15.6799C96.6189 16.0764 95.933 16.2747 95.0899 16.2747C94.4975 16.2747 93.9734 16.1698 93.5176 15.9602C93.0619 15.7506 92.7042 15.4589 92.4444 15.0852C92.1892 14.7069 92.0616 14.2991 92.0616 13.8616H93.3262C93.349 14.2854 93.5176 14.6226 93.8321 14.8733C94.1511 15.1194 94.5704 15.2424 95.0899 15.2424C95.5684 15.2424 95.9512 15.1467 96.2383 14.9553C96.53 14.7594 96.6758 14.4996 96.6758 14.176Z" fill="#333333"/>
<defs>
<linearGradient id="paint0_linear_2024_2484" x1="8.76522" y1="12.5275" x2="0.194782" y2="12.5275" gradientUnits="userSpaceOnUse">
<stop offset="0.0968749" stop-color="#7C5F12"/>
<stop offset="0.654167" stop-color="#F3B71B" stop-opacity="0"/>
</linearGradient>
<linearGradient id="paint1_linear_2024_2484" x1="9.55241" y1="12.1301" x2="17.6166" y2="12.1301" gradientUnits="userSpaceOnUse">
<stop offset="0.154167" stop-color="#84620B"/>
<stop offset="0.755208" stop-color="#FFC328" stop-opacity="0"/>
</linearGradient>
</defs>
</svg>
