<svg width="109" height="23" viewBox="0 0 109 23" fill="none" xmlns="http://www.w3.org/2000/svg">
<path d="M40.1553 17V7.04688H43.4092C44.4893 7.04688 45.3005 7.27018 45.8428 7.7168C46.3896 8.16341 46.6631 8.82422 46.6631 9.69922C46.6631 10.1641 46.5309 10.5765 46.2666 10.9365C46.0023 11.292 45.6423 11.5677 45.1865 11.7637C45.7243 11.9141 46.1481 12.2012 46.458 12.625C46.7725 13.0443 46.9297 13.5456 46.9297 14.1289C46.9297 15.0221 46.6403 15.724 46.0615 16.2344C45.4827 16.7448 44.6647 17 43.6074 17H40.1553ZM41.4678 12.3447V15.9268H43.6348C44.2454 15.9268 44.7262 15.7695 45.0771 15.4551C45.4326 15.1361 45.6104 14.6986 45.6104 14.1426C45.6104 12.944 44.9587 12.3447 43.6553 12.3447H41.4678ZM41.4678 11.292H43.4502C44.0244 11.292 44.4824 11.1484 44.8242 10.8613C45.1706 10.5742 45.3438 10.1846 45.3438 9.69238C45.3438 9.14551 45.1842 8.74902 44.8652 8.50293C44.5462 8.25228 44.0609 8.12695 43.4092 8.12695H41.4678V11.292ZM50.0537 17H48.7891V9.60352H50.0537V17ZM48.6865 7.6416C48.6865 7.43652 48.748 7.26335 48.8711 7.12207C48.9987 6.98079 49.1855 6.91016 49.4316 6.91016C49.6777 6.91016 49.8646 6.98079 49.9922 7.12207C50.1198 7.26335 50.1836 7.43652 50.1836 7.6416C50.1836 7.84668 50.1198 8.01758 49.9922 8.1543C49.8646 8.29102 49.6777 8.35938 49.4316 8.35938C49.1855 8.35938 48.9987 8.29102 48.8711 8.1543C48.748 8.01758 48.6865 7.84668 48.6865 7.6416ZM56.3906 15.0381C56.3906 14.6963 56.2607 14.432 56.001 14.2451C55.7458 14.0537 55.2969 13.8896 54.6543 13.7529C54.0163 13.6162 53.5081 13.4521 53.1299 13.2607C52.7562 13.0693 52.4782 12.8415 52.2959 12.5771C52.1182 12.3128 52.0293 11.9984 52.0293 11.6338C52.0293 11.0277 52.2845 10.515 52.7949 10.0957C53.3099 9.67643 53.9661 9.4668 54.7637 9.4668C55.6022 9.4668 56.2812 9.68327 56.8008 10.1162C57.3249 10.5492 57.5869 11.1029 57.5869 11.7773H56.3154C56.3154 11.431 56.1673 11.1325 55.8711 10.8818C55.5794 10.6312 55.2103 10.5059 54.7637 10.5059C54.3034 10.5059 53.9434 10.6061 53.6836 10.8066C53.4238 11.0072 53.2939 11.2692 53.2939 11.5928C53.2939 11.8981 53.4147 12.1283 53.6562 12.2832C53.8978 12.4382 54.333 12.5863 54.9619 12.7275C55.5954 12.8688 56.1081 13.0374 56.5 13.2334C56.8919 13.4294 57.1813 13.6663 57.3682 13.9443C57.5596 14.2178 57.6553 14.5527 57.6553 14.9492C57.6553 15.61 57.391 16.141 56.8623 16.542C56.3337 16.9385 55.6478 17.1367 54.8047 17.1367C54.2122 17.1367 53.6882 17.0319 53.2324 16.8223C52.7767 16.6126 52.4189 16.321 52.1592 15.9473C51.904 15.569 51.7764 15.1611 51.7764 14.7236H53.041C53.0638 15.1475 53.2324 15.4847 53.5469 15.7354C53.8659 15.9814 54.2852 16.1045 54.8047 16.1045C55.2832 16.1045 55.666 16.0088 55.9531 15.8174C56.2448 15.6214 56.3906 15.3617 56.3906 15.0381ZM60.499 9.60352L60.54 10.5332C61.1051 9.82227 61.8434 9.4668 62.7549 9.4668C64.318 9.4668 65.1064 10.3486 65.1201 12.1123V17H63.8555V12.1055C63.8509 11.5723 63.7279 11.1781 63.4863 10.9229C63.2493 10.6676 62.8779 10.54 62.3721 10.54C61.9619 10.54 61.6019 10.6494 61.292 10.8682C60.9821 11.0869 60.7406 11.374 60.5674 11.7295V17H59.3027V9.60352H60.499ZM68.4014 17H67.1367V9.60352H68.4014V17ZM67.0342 7.6416C67.0342 7.43652 67.0957 7.26335 67.2188 7.12207C67.3464 6.98079 67.5332 6.91016 67.7793 6.91016C68.0254 6.91016 68.2122 6.98079 68.3398 7.12207C68.4674 7.26335 68.5312 7.43652 68.5312 7.6416C68.5312 7.84668 68.4674 8.01758 68.3398 8.1543C68.2122 8.29102 68.0254 8.35938 67.7793 8.35938C67.5332 8.35938 67.3464 8.29102 67.2188 8.1543C67.0957 8.01758 67.0342 7.84668 67.0342 7.6416ZM74.7383 15.0381C74.7383 14.6963 74.6084 14.432 74.3486 14.2451C74.0934 14.0537 73.6445 13.8896 73.002 13.7529C72.3639 13.6162 71.8558 13.4521 71.4775 13.2607C71.1038 13.0693 70.8258 12.8415 70.6436 12.5771C70.4658 12.3128 70.377 11.9984 70.377 11.6338C70.377 11.0277 70.6322 10.515 71.1426 10.0957C71.6576 9.67643 72.3138 9.4668 73.1113 9.4668C73.9499 9.4668 74.6289 9.68327 75.1484 10.1162C75.6725 10.5492 75.9346 11.1029 75.9346 11.7773H74.6631C74.6631 11.431 74.515 11.1325 74.2188 10.8818C73.9271 10.6312 73.5579 10.5059 73.1113 10.5059C72.651 10.5059 72.291 10.6061 72.0312 10.8066C71.7715 11.0072 71.6416 11.2692 71.6416 11.5928C71.6416 11.8981 71.7624 12.1283 72.0039 12.2832C72.2454 12.4382 72.6807 12.5863 73.3096 12.7275C73.943 12.8688 74.4557 13.0374 74.8477 13.2334C75.2396 13.4294 75.529 13.6663 75.7158 13.9443C75.9072 14.2178 76.0029 14.5527 76.0029 14.9492C76.0029 15.61 75.7386 16.141 75.21 16.542C74.6813 16.9385 73.9954 17.1367 73.1523 17.1367C72.5599 17.1367 72.0358 17.0319 71.5801 16.8223C71.1243 16.6126 70.7666 16.321 70.5068 15.9473C70.2516 15.569 70.124 15.1611 70.124 14.7236H71.3887C71.4115 15.1475 71.5801 15.4847 71.8945 15.7354C72.2135 15.9814 72.6328 16.1045 73.1523 16.1045C73.6309 16.1045 74.0137 16.0088 74.3008 15.8174C74.5924 15.6214 74.7383 15.3617 74.7383 15.0381ZM80.6172 16.1045C81.0684 16.1045 81.4626 15.9678 81.7998 15.6943C82.137 15.4209 82.3239 15.0791 82.3604 14.6689H83.5566C83.5339 15.0928 83.388 15.4961 83.1191 15.8789C82.8503 16.2617 82.4902 16.5671 82.0391 16.7949C81.5924 17.0228 81.1185 17.1367 80.6172 17.1367C79.61 17.1367 78.8079 16.8018 78.2109 16.1318C77.6185 15.4574 77.3223 14.5368 77.3223 13.3701V13.1582C77.3223 12.4382 77.4544 11.7979 77.7188 11.2373C77.9831 10.6768 78.3613 10.2415 78.8535 9.93164C79.3503 9.62174 79.9359 9.4668 80.6104 9.4668C81.4398 9.4668 82.1279 9.71517 82.6748 10.2119C83.2262 10.7087 83.5202 11.3535 83.5566 12.1465H82.3604C82.3239 11.668 82.1416 11.276 81.8135 10.9707C81.4899 10.6608 81.0889 10.5059 80.6104 10.5059C79.9678 10.5059 79.4688 10.7383 79.1133 11.2031C78.7624 11.6634 78.5869 12.3311 78.5869 13.2061V13.4453C78.5869 14.2975 78.7624 14.9538 79.1133 15.4141C79.4642 15.8743 79.9655 16.1045 80.6172 16.1045ZM84.6436 13.2334C84.6436 12.5088 84.7848 11.8571 85.0674 11.2783C85.3545 10.6995 85.751 10.2529 86.2568 9.93848C86.7673 9.62402 87.3483 9.4668 88 9.4668C89.0072 9.4668 89.8206 9.81543 90.4404 10.5127C91.0648 11.21 91.377 12.1374 91.377 13.2949V13.3838C91.377 14.1038 91.238 14.751 90.96 15.3252C90.6865 15.8949 90.2923 16.3392 89.7773 16.6582C89.2669 16.9772 88.679 17.1367 88.0137 17.1367C87.0111 17.1367 86.1976 16.7881 85.5732 16.0908C84.9535 15.3936 84.6436 14.4707 84.6436 13.3223V13.2334ZM85.915 13.3838C85.915 14.2041 86.1042 14.8626 86.4824 15.3594C86.8652 15.8561 87.3757 16.1045 88.0137 16.1045C88.6562 16.1045 89.1667 15.8538 89.5449 15.3525C89.9232 14.8467 90.1123 14.1403 90.1123 13.2334C90.1123 12.4222 89.9186 11.766 89.5312 11.2646C89.1484 10.7588 88.638 10.5059 88 10.5059C87.3757 10.5059 86.8721 10.7542 86.4893 11.251C86.1064 11.7477 85.915 12.4587 85.915 13.3838ZM94.1523 9.60352L94.1865 10.4238C94.7288 9.78581 95.4603 9.4668 96.3809 9.4668C97.4154 9.4668 98.1195 9.86328 98.4932 10.6562C98.7393 10.3008 99.0583 10.0137 99.4502 9.79492C99.8467 9.57617 100.314 9.4668 100.852 9.4668C102.474 9.4668 103.299 10.3258 103.326 12.0439V17H102.062V12.1191C102.062 11.5905 101.941 11.1963 101.699 10.9365C101.458 10.6722 101.052 10.54 100.482 10.54C100.013 10.54 99.6234 10.6813 99.3135 10.9639C99.0036 11.2419 98.8236 11.6178 98.7734 12.0918V17H97.502V12.1533C97.502 11.0778 96.9756 10.54 95.9229 10.54C95.0934 10.54 94.526 10.8932 94.2207 11.5996V17H92.9561V9.60352H94.1523Z" fill="#333333"/>
<path d="M6.60971 6.28613H10.9731V21.7232H6.60971V6.28613Z" fill="#FFCE21"/>
<path style="mix-blend-mode:multiply" d="M6.60971 6.28613H10.9731V21.7232H6.60971V6.28613Z" fill="url(#paint0_linear_2024_2594)"/>
<path d="M29.8142 0.744385H25.2526L21.2857 12.817L23.4675 19.546L29.8142 0.744385Z" fill="#E9A728"/>
<path style="mix-blend-mode:multiply" d="M29.8142 0.744385H25.2526L21.2857 12.817L23.4675 19.546L29.8142 0.744385Z" fill="url(#paint1_linear_2024_2594)"/>
<path d="M12.3617 2.92142L16.1301 0.744385L22.8735 21.7231H18.5101L12.3617 2.92142Z" fill="#FFCE21"/>
<path style="mix-blend-mode:multiply" d="M12.3617 2.92142L16.1301 0.744385L22.8735 21.7231H18.5101L12.3617 2.92142Z" fill="url(#paint2_linear_2024_2594)"/>
<path style="mix-blend-mode:multiply" d="M12.3617 2.92142L16.1301 0.744385L22.8735 21.7231H18.5101L12.3617 2.92142Z" fill="url(#paint3_linear_2024_2594)"/>
<path d="M1.84905 5.09807L0.26236 0.744019H16.1293L17.5177 5.09807H1.84905Z" fill="#FFCE21"/>
<path style="mix-blend-mode:multiply" d="M1.84905 5.09807L0.26236 0.744019H16.1293L17.5177 5.09807H1.84905Z" fill="url(#paint4_linear_2024_2594)"/>
<defs>
<linearGradient id="paint0_linear_2024_2594" x1="8.7914" y1="6.28613" x2="8.7914" y2="21.7232" gradientUnits="userSpaceOnUse">
<stop stop-color="#FF85F3"/>
<stop offset="1" stop-color="#FF03E6" stop-opacity="0"/>
</linearGradient>
<linearGradient id="paint1_linear_2024_2594" x1="25.55" y1="0.744385" x2="25.55" y2="19.546" gradientUnits="userSpaceOnUse">
<stop stop-color="#DF20E3" stop-opacity="0"/>
<stop offset="1" stop-color="#9E17BF"/>
</linearGradient>
<linearGradient id="paint2_linear_2024_2594" x1="14.9401" y1="-0.443086" x2="19.2868" y2="12.229" gradientUnits="userSpaceOnUse">
<stop/>
<stop offset="1" stop-opacity="0"/>
</linearGradient>
<linearGradient id="paint3_linear_2024_2594" x1="17.6176" y1="0.744385" x2="17.6176" y2="21.7231" gradientUnits="userSpaceOnUse">
<stop stop-color="#FF3F3F"/>
<stop offset="1" stop-color="#FF2B2B" stop-opacity="0"/>
</linearGradient>
<linearGradient id="paint4_linear_2024_2594" x1="0.26236" y1="2.92104" x2="17.5177" y2="2.92104" gradientUnits="userSpaceOnUse">
<stop stop-color="#F85353"/>
<stop offset="1" stop-color="#FF4242" stop-opacity="0"/>
</linearGradient>
</defs>
</svg>
