<svg width="100" height="32" viewBox="0 0 100 32" fill="none" xmlns="http://www.w3.org/2000/svg">
<path d="M33.1482 13L30.0412 8.372H30.0022L29.1962 13H27.6102L29.2352 3.796H30.8212L30.0932 7.878H30.1322L34.2792 3.796H36.4372L31.6662 8.138L35.2412 13H33.1482ZM38.6629 13.169C38.2296 13.169 37.8266 13.104 37.4539 12.974C37.0899 12.844 36.7736 12.6577 36.5049 12.415C36.2363 12.1723 36.0239 11.8863 35.8679 11.557C35.7206 11.2277 35.6469 10.8593 35.6469 10.452C35.6469 9.94067 35.7336 9.45533 35.9069 8.996C36.0889 8.528 36.3446 8.11633 36.6739 7.761C37.0033 7.40567 37.3976 7.124 37.8569 6.916C38.3249 6.69933 38.8449 6.591 39.4169 6.591C39.8589 6.591 40.2619 6.656 40.6259 6.786C40.9986 6.916 41.3193 7.10233 41.5879 7.345C41.8566 7.579 42.0646 7.865 42.2119 8.203C42.3679 8.53233 42.4459 8.89633 42.4459 9.295C42.4459 9.815 42.3549 10.309 42.1729 10.777C41.9996 11.245 41.7483 11.6567 41.4189 12.012C41.0896 12.3673 40.6909 12.649 40.2229 12.857C39.7549 13.065 39.2349 13.169 38.6629 13.169ZM40.9119 9.451C40.9119 8.983 40.7689 8.59733 40.4829 8.294C40.1969 7.99067 39.8069 7.839 39.3129 7.839C38.9836 7.839 38.6846 7.90833 38.4159 8.047C38.1559 8.177 37.9306 8.35467 37.7399 8.58C37.5579 8.80533 37.4149 9.06533 37.3109 9.36C37.2069 9.65467 37.1549 9.96667 37.1549 10.296C37.1549 10.764 37.2936 11.1497 37.5709 11.453C37.8483 11.7563 38.2383 11.908 38.7409 11.908C39.0703 11.908 39.3693 11.843 39.6379 11.713C39.9066 11.583 40.1319 11.4053 40.3139 11.18C40.5046 10.9547 40.6519 10.6947 40.7559 10.4C40.8599 10.0967 40.9119 9.78033 40.9119 9.451ZM45.8066 7.735C46.0233 7.397 46.2963 7.124 46.6256 6.916C46.9636 6.69933 47.3666 6.591 47.8346 6.591C48.1813 6.591 48.4803 6.643 48.7316 6.747C48.9916 6.851 49.204 6.98967 49.3686 7.163C49.542 7.33633 49.6676 7.54433 49.7456 7.787C49.8323 8.021 49.8756 8.268 49.8756 8.528C49.8756 8.74467 49.8583 8.93967 49.8236 9.113L49.1346 13H47.6136L48.2116 9.568C48.229 9.464 48.242 9.36 48.2506 9.256C48.268 9.152 48.2766 9.048 48.2766 8.944C48.2766 8.66667 48.203 8.424 48.0556 8.216C47.9083 7.99933 47.6396 7.891 47.2496 7.891C46.9983 7.891 46.7773 7.93867 46.5866 8.034C46.396 8.12933 46.227 8.25933 46.0796 8.424C45.941 8.58 45.824 8.75767 45.7286 8.957C45.642 9.15633 45.5813 9.36 45.5466 9.568L44.9356 13H43.4146L44.2726 8.099C44.3073 7.93433 44.342 7.722 44.3766 7.462C44.42 7.202 44.4503 6.968 44.4676 6.76H45.8976C45.889 6.85533 45.8716 7.007 45.8456 7.215C45.8196 7.41433 45.798 7.58767 45.7806 7.735H45.8066ZM50.9804 7.995L51.2014 6.76H52.2804L52.5924 4.94H54.1004L53.7884 6.76H55.1924L54.9714 7.995H53.5934L53.0474 10.933C53.0214 11.063 53.0084 11.1843 53.0084 11.297C53.0084 11.5223 53.0734 11.6783 53.2034 11.765C53.3421 11.8517 53.5241 11.895 53.7494 11.895C53.8534 11.895 53.9531 11.8863 54.0484 11.869C54.1524 11.8517 54.2478 11.83 54.3344 11.804L54.2434 12.961C54.1134 13.013 53.9574 13.052 53.7754 13.078C53.6021 13.1127 53.4418 13.13 53.2944 13.13C52.6358 13.13 52.1678 13 51.8904 12.74C51.6131 12.4713 51.4744 12.1203 51.4744 11.687C51.4744 11.5657 51.4788 11.4357 51.4874 11.297C51.5048 11.1497 51.5264 11.0153 51.5524 10.894L52.0854 7.995H50.9804ZM56.9714 10.361C56.9627 10.4043 56.9584 10.452 56.9584 10.504C56.9584 10.712 56.9974 10.9027 57.0754 11.076C57.1621 11.2493 57.2791 11.401 57.4264 11.531C57.5737 11.6523 57.7471 11.752 57.9464 11.83C58.1457 11.8993 58.3624 11.934 58.5964 11.934C58.9951 11.934 59.3331 11.8603 59.6104 11.713C59.8964 11.5657 60.1521 11.3663 60.3774 11.115L61.2484 11.934C60.4771 12.766 59.5367 13.182 58.4274 13.182C58.0027 13.182 57.6127 13.1213 57.2574 13C56.9021 12.87 56.5944 12.688 56.3344 12.454C56.0744 12.22 55.8707 11.934 55.7234 11.596C55.5761 11.2493 55.5024 10.855 55.5024 10.413C55.5024 9.87567 55.5934 9.37733 55.7754 8.918C55.9574 8.45 56.2087 8.04267 56.5294 7.696C56.8587 7.34933 57.2444 7.08067 57.6864 6.89C58.1371 6.69067 58.6267 6.591 59.1554 6.591C59.5281 6.591 59.8704 6.643 60.1824 6.747C60.5031 6.851 60.7804 7.007 61.0144 7.215C61.2484 7.423 61.4304 7.683 61.5604 7.995C61.6904 8.307 61.7554 8.671 61.7554 9.087C61.7554 9.22567 61.7424 9.42067 61.7164 9.672C61.6904 9.91467 61.6514 10.1443 61.5994 10.361H56.9714ZM60.3514 9.269C60.3601 9.20833 60.3644 9.152 60.3644 9.1C60.3731 9.048 60.3774 8.996 60.3774 8.944C60.3774 8.606 60.2561 8.32 60.0134 8.086C59.7794 7.852 59.4457 7.735 59.0124 7.735C58.7437 7.735 58.5011 7.78267 58.2844 7.878C58.0677 7.97333 57.8771 8.099 57.7124 8.255C57.5564 8.40233 57.4264 8.567 57.3224 8.749C57.2184 8.931 57.1491 9.10433 57.1144 9.269H60.3514ZM65.1543 7.735C65.371 7.397 65.644 7.124 65.9733 6.916C66.3113 6.69933 66.7143 6.591 67.1823 6.591C67.529 6.591 67.828 6.643 68.0793 6.747C68.3393 6.851 68.5516 6.98967 68.7163 7.163C68.8896 7.33633 69.0153 7.54433 69.0933 7.787C69.18 8.021 69.2233 8.268 69.2233 8.528C69.2233 8.74467 69.206 8.93967 69.1713 9.113L68.4823 13H66.9613L67.5593 9.568C67.5766 9.464 67.5896 9.36 67.5983 9.256C67.6156 9.152 67.6243 9.048 67.6243 8.944C67.6243 8.66667 67.5506 8.424 67.4033 8.216C67.256 7.99933 66.9873 7.891 66.5973 7.891C66.346 7.891 66.125 7.93867 65.9343 8.034C65.7436 8.12933 65.5746 8.25933 65.4273 8.424C65.2886 8.58 65.1716 8.75767 65.0763 8.957C64.9896 9.15633 64.929 9.36 64.8943 9.568L64.2833 13H62.7623L63.6203 8.099C63.655 7.93433 63.6896 7.722 63.7243 7.462C63.7676 7.202 63.798 6.968 63.8153 6.76H65.2453C65.2366 6.85533 65.2193 7.007 65.1933 7.215C65.1673 7.41433 65.1456 7.58767 65.1283 7.735H65.1543ZM27.6102 28L29.2352 18.796H30.8342L29.2092 28H27.6102ZM33.7334 22.735C33.9501 22.397 34.2231 22.124 34.5524 21.916C34.8904 21.6993 35.2934 21.591 35.7614 21.591C36.1081 21.591 36.4071 21.643 36.6584 21.747C36.9184 21.851 37.1307 21.9897 37.2954 22.163C37.4687 22.3363 37.5944 22.5443 37.6724 22.787C37.7591 23.021 37.8024 23.268 37.8024 23.528C37.8024 23.7447 37.7851 23.9397 37.7504 24.113L37.0614 28H35.5404L36.1384 24.568C36.1557 24.464 36.1687 24.36 36.1774 24.256C36.1947 24.152 36.2034 24.048 36.2034 23.944C36.2034 23.6667 36.1297 23.424 35.9824 23.216C35.8351 22.9993 35.5664 22.891 35.1764 22.891C34.9251 22.891 34.7041 22.9387 34.5134 23.034C34.3227 23.1293 34.1537 23.2593 34.0064 23.424C33.8677 23.58 33.7507 23.7577 33.6554 23.957C33.5687 24.1563 33.5081 24.36 33.4734 24.568L32.8624 28H31.3414L32.1994 23.099C32.2341 22.9343 32.2687 22.722 32.3034 22.462C32.3467 22.202 32.3771 21.968 32.3944 21.76H33.8244C33.8157 21.8553 33.7984 22.007 33.7724 22.215C33.7464 22.4143 33.7247 22.5877 33.7074 22.735H33.7334ZM38.9072 22.995L39.1282 21.76H40.2072L40.5192 19.94H42.0272L41.7152 21.76H43.1192L42.8982 22.995H41.5202L40.9742 25.933C40.9482 26.063 40.9352 26.1843 40.9352 26.297C40.9352 26.5223 41.0002 26.6783 41.1302 26.765C41.2689 26.8517 41.4509 26.895 41.6762 26.895C41.7802 26.895 41.8799 26.8863 41.9752 26.869C42.0792 26.8517 42.1745 26.83 42.2612 26.804L42.1702 27.961C42.0402 28.013 41.8842 28.052 41.7022 28.078C41.5289 28.1127 41.3685 28.13 41.2212 28.13C40.5625 28.13 40.0945 28 39.8172 27.74C39.5399 27.4713 39.4012 27.1203 39.4012 26.687C39.4012 26.5657 39.4055 26.4357 39.4142 26.297C39.4315 26.1497 39.4532 26.0153 39.4792 25.894L40.0122 22.995H38.9072ZM44.8982 25.361C44.8895 25.4043 44.8852 25.452 44.8852 25.504C44.8852 25.712 44.9242 25.9027 45.0022 26.076C45.0888 26.2493 45.2058 26.401 45.3532 26.531C45.5005 26.6523 45.6738 26.752 45.8732 26.83C46.0725 26.8993 46.2892 26.934 46.5232 26.934C46.9218 26.934 47.2598 26.8603 47.5372 26.713C47.8232 26.5657 48.0788 26.3663 48.3042 26.115L49.1752 26.934C48.4038 27.766 47.4635 28.182 46.3542 28.182C45.9295 28.182 45.5395 28.1213 45.1842 28C44.8288 27.87 44.5212 27.688 44.2612 27.454C44.0012 27.22 43.7975 26.934 43.6502 26.596C43.5028 26.2493 43.4292 25.855 43.4292 25.413C43.4292 24.8757 43.5202 24.3773 43.7022 23.918C43.8842 23.45 44.1355 23.0427 44.4562 22.696C44.7855 22.3493 45.1712 22.0807 45.6132 21.89C46.0638 21.6907 46.5535 21.591 47.0822 21.591C47.4548 21.591 47.7972 21.643 48.1092 21.747C48.4298 21.851 48.7072 22.007 48.9412 22.215C49.1752 22.423 49.3572 22.683 49.4872 22.995C49.6172 23.307 49.6822 23.671 49.6822 24.087C49.6822 24.2257 49.6692 24.4207 49.6432 24.672C49.6172 24.9147 49.5782 25.1443 49.5262 25.361H44.8982ZM48.2782 24.269C48.2868 24.2083 48.2912 24.152 48.2912 24.1C48.2998 24.048 48.3042 23.996 48.3042 23.944C48.3042 23.606 48.1828 23.32 47.9402 23.086C47.7062 22.852 47.3725 22.735 46.9392 22.735C46.6705 22.735 46.4278 22.7827 46.2112 22.878C45.9945 22.9733 45.8038 23.099 45.6392 23.255C45.4832 23.4023 45.3532 23.567 45.2492 23.749C45.1452 23.931 45.0758 24.1043 45.0412 24.269H48.2782ZM53.055 22.8C53.2717 22.436 53.5274 22.1457 53.822 21.929C54.1167 21.7037 54.472 21.591 54.888 21.591C54.9487 21.591 55.0137 21.5953 55.083 21.604C55.1524 21.604 55.213 21.6127 55.265 21.63L55.057 23.047C54.9617 23.021 54.875 23.0037 54.797 22.995C54.7277 22.9863 54.6584 22.982 54.589 22.982C54.2337 22.982 53.9434 23.047 53.718 23.177C53.4927 23.307 53.3107 23.463 53.172 23.645C53.0334 23.827 52.9337 24.0133 52.873 24.204C52.8124 24.3947 52.7734 24.5463 52.756 24.659L52.171 28H50.65L51.521 23.099C51.5557 22.9343 51.5904 22.722 51.625 22.462C51.6684 22.202 51.6987 21.968 51.716 21.76H53.146C53.146 21.8033 53.1417 21.8683 53.133 21.955C53.1244 22.0417 53.1114 22.137 53.094 22.241C53.0854 22.345 53.0724 22.449 53.055 22.553C53.0464 22.6483 53.0377 22.7307 53.029 22.8H53.055ZM59.31 24.048C59.3273 23.944 59.336 23.866 59.336 23.814C59.3446 23.7533 59.349 23.697 59.349 23.645C59.349 23.3417 59.2493 23.125 59.05 22.995C58.8593 22.865 58.5733 22.8 58.192 22.8C57.8886 22.8 57.5723 22.8607 57.243 22.982C56.9223 23.0947 56.6363 23.242 56.385 23.424L55.8 22.397C56.1553 22.1457 56.5583 21.9507 57.009 21.812C57.4683 21.6647 57.9363 21.591 58.413 21.591C58.7076 21.591 58.998 21.6257 59.284 21.695C59.5786 21.7557 59.8386 21.8597 60.064 22.007C60.298 22.1543 60.4843 22.3493 60.623 22.592C60.7616 22.826 60.831 23.1207 60.831 23.476C60.831 23.554 60.8266 23.6493 60.818 23.762C60.8093 23.8747 60.7963 23.9743 60.779 24.061L60.324 26.596C60.2806 26.8387 60.2416 27.09 60.207 27.35C60.181 27.61 60.168 27.8267 60.168 28H58.764C58.764 27.766 58.79 27.519 58.842 27.259H58.816C58.3306 27.8397 57.6546 28.13 56.788 28.13C56.5713 28.13 56.346 28.104 56.112 28.052C55.878 28 55.6656 27.9133 55.475 27.792C55.2843 27.662 55.1283 27.493 55.007 27.285C54.8856 27.0683 54.825 26.7997 54.825 26.479C54.825 25.9677 54.9593 25.556 55.228 25.244C55.5053 24.9233 55.8606 24.6763 56.294 24.503C56.7273 24.321 57.2083 24.1997 57.737 24.139C58.2743 24.0783 58.7986 24.048 59.31 24.048ZM58.985 25.14C58.6903 25.14 58.3826 25.153 58.062 25.179C57.75 25.1963 57.4596 25.244 57.191 25.322C56.931 25.4 56.7143 25.5127 56.541 25.66C56.3763 25.7987 56.294 25.9893 56.294 26.232C56.294 26.3793 56.32 26.505 56.372 26.609C56.4326 26.7043 56.5106 26.7823 56.606 26.843C56.7013 26.9037 56.8096 26.947 56.931 26.973C57.0523 26.999 57.178 27.012 57.308 27.012C57.542 27.012 57.7586 26.973 57.958 26.895C58.166 26.817 58.3436 26.713 58.491 26.583C58.647 26.4443 58.7726 26.2883 58.868 26.115C58.972 25.933 59.0456 25.738 59.089 25.53L59.167 25.14H58.985ZM66.0448 28L64.0818 24.802H64.0428L63.4708 28H61.9498L63.6788 18.172H65.2128L64.1078 24.399H64.1468L66.9678 21.76H68.9698L65.6548 24.659L67.9298 28H66.0448ZM68.7031 22.995L68.9241 21.76H70.0031L70.3151 19.94H71.8231L71.5111 21.76H72.9151L72.6941 22.995H71.3161L70.7701 25.933C70.7441 26.063 70.7311 26.1843 70.7311 26.297C70.7311 26.5223 70.7961 26.6783 70.9261 26.765C71.0648 26.8517 71.2468 26.895 71.4721 26.895C71.5761 26.895 71.6758 26.8863 71.7711 26.869C71.8751 26.8517 71.9704 26.83 72.0571 26.804L71.9661 27.961C71.8361 28.013 71.6801 28.052 71.4981 28.078C71.3248 28.1127 71.1644 28.13 71.0171 28.13C70.3584 28.13 69.8904 28 69.6131 27.74C69.3358 27.4713 69.1971 27.1203 69.1971 26.687C69.1971 26.5657 69.2014 26.4357 69.2101 26.297C69.2274 26.1497 69.2491 26.0153 69.2751 25.894L69.8081 22.995H68.7031ZM73.1471 28L74.2391 21.76H75.7731L74.6681 28H73.1471ZM76.2801 19.615C76.2801 19.8663 76.1891 20.0873 76.0071 20.278C75.8337 20.4687 75.6171 20.564 75.3571 20.564C75.1057 20.564 74.8891 20.486 74.7071 20.33C74.5337 20.174 74.4471 19.953 74.4471 19.667C74.4471 19.3897 74.5424 19.1643 74.7331 18.991C74.9237 18.809 75.1447 18.718 75.3961 18.718C75.6474 18.718 75.8554 18.8003 76.0201 18.965C76.1934 19.121 76.2801 19.3377 76.2801 19.615ZM81.3449 19.407C81.2669 19.381 81.1845 19.3593 81.0979 19.342C81.0199 19.3247 80.9245 19.316 80.8119 19.316C80.6039 19.316 80.4262 19.3593 80.2789 19.446C80.1315 19.5327 80.0102 19.6453 79.9149 19.784C79.8282 19.9227 79.7545 20.0787 79.6939 20.252C79.6419 20.4167 79.6029 20.577 79.5769 20.733L79.3949 21.76H80.8639L80.6429 22.982H79.1999L78.3159 28H76.8339L77.7179 22.982H76.5349L76.7429 21.76H77.8999L78.0819 20.811C78.1425 20.4643 78.2335 20.1263 78.3549 19.797C78.4849 19.459 78.6582 19.16 78.8749 18.9C79.1002 18.6313 79.3775 18.419 79.7069 18.263C80.0362 18.0983 80.4349 18.016 80.9029 18.016C81.2062 18.016 81.4619 18.0463 81.6699 18.107L81.3449 19.407Z" fill="#333333"/>
<g clip-path="url(#clip0_2024_2584)">
<path d="M17.2852 6.61964C15.5685 4.94231 13.2402 4 10.8125 4C8.38473 4 6.05641 4.94231 4.33973 6.61964C2.62305 8.29697 1.65863 10.5719 1.65863 12.944C1.65863 15.3161 2.62305 17.5911 4.33973 19.2684L17.2852 6.61964Z" fill="#333333"/>
<path d="M0.285187 26.3803C2.00186 28.0576 4.33018 29 6.75794 29C9.18568 29 11.514 28.0576 13.2307 26.3803C14.9474 24.703 15.9117 22.428 15.9117 20.056C15.9118 17.6839 14.9474 15.4089 13.2307 13.7316L0.285187 26.3803Z" fill="#333333"/>
</g>
<defs>
<clipPath id="clip0_2024_2584">
<rect width="17" height="25" fill="white" transform="translate(0.285187 4)"/>
</clipPath>
</defs>
</svg>
