<svg width="27" height="26" viewBox="0 0 27 26" fill="none" xmlns="http://www.w3.org/2000/svg">
<rect x="0.5" width="26" height="26" rx="13" fill="black"/>
<path fill-rule="evenodd" clip-rule="evenodd" d="M11.7103 15.7395V10.9792L16.3932 13.3675L11.7103 15.7395ZM21.9933 10.1539C21.9933 10.1539 21.8236 8.98625 21.3043 8.4723C20.6449 7.7974 19.9061 7.79458 19.5674 7.75505C17.1422 7.5835 13.5036 7.5835 13.5036 7.5835H13.4964C13.4964 7.5835 9.85783 7.5835 7.43261 7.75505C7.09317 7.79387 6.35505 7.7974 5.69494 8.4723C5.17567 8.98625 5.00667 10.1539 5.00667 10.1539C5.00667 10.1539 4.83333 11.5256 4.83333 12.8959V14.1821C4.83333 15.5531 5.00667 16.9241 5.00667 16.9241C5.00667 16.9241 5.17567 18.0911 5.69494 18.6057C6.35505 19.2806 7.221 19.2594 7.60667 19.33C8.99333 19.4599 13.5 19.5002 13.5 19.5002C13.5 19.5002 17.1422 19.4952 19.5674 19.3237C19.9068 19.2841 20.6449 19.2806 21.3043 18.6057C21.8243 18.0911 21.9933 16.9241 21.9933 16.9241C21.9933 16.9241 22.1667 15.5531 22.1667 14.1814V12.8966C22.1667 11.5256 21.9933 10.1539 21.9933 10.1539Z" fill="white"/>
</svg>
