<svg width="27" height="26" viewBox="0 0 27 26" fill="none" xmlns="http://www.w3.org/2000/svg">
<rect x="0.5" width="26" height="26" rx="13" fill="black"/>
<path d="M21.0345 9.89302C21.026 9.2562 20.9066 8.62572 20.6816 8.02977C20.4865 7.52708 20.1885 7.07056 19.8067 6.68936C19.4248 6.30816 18.9676 6.01067 18.464 5.81589C17.8748 5.59506 17.2522 5.47565 16.6229 5.46275C15.8127 5.42659 15.5559 5.4165 13.4992 5.4165C11.4425 5.4165 11.1788 5.4165 10.3745 5.46275C9.74552 5.47574 9.12328 5.59515 8.53428 5.81589C8.03068 6.01053 7.57333 6.30798 7.19148 6.68919C6.80962 7.07041 6.51168 7.52701 6.31672 8.02977C6.09507 8.61761 5.97573 9.23895 5.96383 9.86695C5.92761 10.6767 5.91667 10.9331 5.91667 12.9864C5.91667 15.0397 5.91667 15.302 5.96383 16.1058C5.97646 16.7348 6.09522 17.3553 6.31672 17.9447C6.51201 18.4473 6.81017 18.9037 7.19215 19.2848C7.57413 19.6658 8.03153 19.9631 8.53512 20.1577C9.12251 20.3874 9.74486 20.5154 10.3754 20.5361C11.1864 20.5722 11.4433 20.5832 13.5 20.5832C15.5567 20.5832 15.8203 20.5832 16.6246 20.5361C17.2539 20.5237 17.8765 20.4046 18.4657 20.1838C18.9691 19.9888 19.4263 19.6912 19.8081 19.31C20.1899 18.9289 20.488 18.4725 20.6833 17.9699C20.9048 17.3813 21.0235 16.7608 21.0362 16.131C21.0724 15.3222 21.0833 15.0657 21.0833 13.0116C21.0816 10.9583 21.0817 10.6977 21.0345 9.89302ZM13.4941 16.8693C11.3431 16.8693 9.60053 15.1296 9.60053 12.9822C9.60053 10.8347 11.3431 9.09508 13.4941 9.09508C14.5267 9.09508 15.5171 9.50461 16.2473 10.2336C16.9775 10.9626 17.3877 11.9513 17.3877 12.9822C17.3877 14.0131 16.9775 15.0018 16.2473 15.7308C15.5171 16.4597 14.5267 16.8693 13.4941 16.8693ZM17.5426 9.8577C17.4234 9.85781 17.3053 9.83444 17.1951 9.78893C17.0849 9.74342 16.9847 9.67666 16.9004 9.59247C16.8161 9.50828 16.7492 9.40832 16.7036 9.2983C16.658 9.18828 16.6346 9.07036 16.6347 8.9513C16.6347 8.83233 16.6582 8.71452 16.7038 8.6046C16.7494 8.49468 16.8163 8.3948 16.9005 8.31068C16.9848 8.22655 17.0848 8.15981 17.1949 8.11428C17.305 8.06875 17.4231 8.04532 17.5422 8.04532C17.6614 8.04532 17.7794 8.06875 17.8895 8.11428C17.9996 8.15981 18.0997 8.22655 18.1839 8.31068C18.2682 8.3948 18.335 8.49468 18.3806 8.6046C18.4262 8.71452 18.4497 8.83233 18.4497 8.9513C18.4497 9.45243 18.0438 9.8577 17.5426 9.8577Z" fill="white"/>
<path d="M13.5 15.1668C14.6966 15.1668 15.6667 14.1968 15.6667 13.0002C15.6667 11.8035 14.6966 10.8335 13.5 10.8335C12.3034 10.8335 11.3333 11.8035 11.3333 13.0002C11.3333 14.1968 12.3034 15.1668 13.5 15.1668Z" fill="white"/>
</svg>
