<svg width="20" height="20" viewBox="0 0 20 20" fill="none" xmlns="http://www.w3.org/2000/svg">
<path d="M8.33331 9.16662V6.66663L12.5 9.99996L8.33331 13.3333V10.8333H0.833313V9.16662H8.33331ZM2.04831 12.5H3.81831C4.40002 13.9325 5.4614 15.1185 6.82091 15.8549C8.18042 16.5914 9.75357 16.8326 11.2713 16.5372C12.789 16.2419 14.1569 15.4285 15.1411 14.236C16.1253 13.0435 16.6645 11.5461 16.6666 9.99996C16.6675 8.45217 16.1298 6.95232 15.1457 5.75764C14.1617 4.56297 12.7926 3.74792 11.2733 3.4523C9.754 3.15668 8.17918 3.39891 6.81896 4.13744C5.45874 4.87597 4.39787 6.06478 3.81831 7.49996H2.04831C3.10998 4.11913 6.26831 1.66663 9.99998 1.66663C14.6025 1.66663 18.3333 5.39746 18.3333 9.99996C18.3333 14.6025 14.6025 18.3333 9.99998 18.3333C6.26831 18.3333 3.10998 15.8808 2.04831 12.5Z" fill="white"/>
</svg>
