<svg width="27" height="26" viewBox="0 0 27 26" fill="none" xmlns="http://www.w3.org/2000/svg">
<path d="M13.5 0.52002C6.6074 0.52002 1.02 6.10742 1.02 13C1.02 19.8926 6.6074 25.48 13.5 25.48C20.3926 25.48 25.98 19.8926 25.98 13C25.98 6.10742 20.3926 0.52002 13.5 0.52002ZM18.5765 10.7432C18.5817 10.8498 18.583 10.9564 18.583 11.0604C18.583 14.3104 16.1117 18.0557 11.5903 18.0557C10.2543 18.0579 8.94606 17.6742 7.8229 16.9507C8.014 16.9741 8.2103 16.9832 8.4092 16.9832C9.561 16.9832 10.6205 16.5919 11.4616 15.9315C10.949 15.9215 10.4524 15.7517 10.0408 15.446C9.62932 15.1403 9.32342 14.7138 9.1658 14.2259C9.5339 14.2959 9.91311 14.2812 10.2747 14.183C9.71836 14.0705 9.21806 13.7691 8.85862 13.3298C8.49918 12.8905 8.30274 12.3404 8.3026 11.7728V11.7429C8.6341 11.9262 9.0137 12.038 9.4167 12.051C8.89514 11.7038 8.52592 11.1705 8.38456 10.5601C8.2432 9.94969 8.34037 9.30835 8.6562 8.76722C9.27364 9.52642 10.0436 10.1475 10.9163 10.5902C11.789 11.033 12.745 11.2875 13.7223 11.3373C13.5981 10.8099 13.6515 10.2562 13.8744 9.76237C14.0973 9.2685 14.4771 8.86211 14.9548 8.60636C15.4325 8.35062 15.9813 8.25986 16.5159 8.34819C17.0504 8.43653 17.5409 8.699 17.9109 9.09482C18.461 8.98598 18.9886 8.78419 19.4709 8.49812C19.2876 9.06769 18.9037 9.55135 18.3906 9.85922C18.8779 9.80053 19.3537 9.66952 19.8024 9.47052C19.4728 9.96438 19.0577 10.3954 18.5765 10.7432Z" fill="black"/>
<path d="M18.583 11.0605C18.583 10.9565 18.5817 10.8499 18.5765 10.7433C19.0577 10.3955 19.4728 9.96451 19.8024 9.47065C19.3537 9.66965 18.8779 9.80066 18.3906 9.85935C18.9037 9.55148 19.2876 9.06782 19.4709 8.49825C18.9886 8.78432 18.461 8.98611 17.9109 9.09495C17.5409 8.69913 17.0504 8.43665 16.5159 8.34832C15.9813 8.25999 15.4325 8.35075 14.9548 8.60649C14.4771 8.86223 14.0973 9.26863 13.8744 9.7625C13.6515 10.2564 13.598 10.81 13.7223 11.3374C12.745 11.2876 11.789 11.0331 10.9163 10.5904C10.0436 10.1476 9.27364 9.52655 8.6562 8.76735C8.34037 9.30848 8.24319 9.94982 8.38456 10.5602C8.52592 11.1706 8.89514 11.704 9.4167 12.0511C9.0137 12.0381 8.6341 11.9263 8.3026 11.743V11.7729C8.30274 12.3405 8.49918 12.8906 8.85862 13.3299C9.21806 13.7692 9.71836 14.0706 10.2747 14.1831C9.9131 14.2814 9.5339 14.296 9.1658 14.226C9.32342 14.7139 9.62932 15.1404 10.0408 15.4461C10.4524 15.7519 10.949 15.9216 11.4616 15.9316C10.6205 16.592 9.561 16.9833 8.4092 16.9833C8.2103 16.9833 8.014 16.9742 7.8229 16.9508C8.94606 17.6744 10.2543 18.0581 11.5903 18.0558C16.1117 18.0558 18.583 14.3105 18.583 11.0605Z" fill="white"/>
</svg>
