<svg width="120" height="25" viewBox="0 0 120 25" fill="none" xmlns="http://www.w3.org/2000/svg">
<path d="M17.2346 9.41179C16.4182 10.0578 16.3168 10.1661 15.708 11.0287C15.0958 10.1661 14.9954 10.0578 14.1797 9.41179C14.9954 8.76631 15.0958 8.65909 15.708 7.79651C16.3185 8.65909 16.4182 8.76631 17.2346 9.41179Z" fill="#333333"/>
<path d="M17.3275 19.3406C17.1735 19.2433 17.0733 19.1222 17.0059 19.0013C16.9517 18.9241 16.9222 18.8186 16.9022 18.7196C16.8668 18.5513 16.8845 18.4232 16.8845 18.4232V11.2145L14.2266 13.3367C14.4861 13.5966 14.5233 13.9153 14.5262 14.0388C14.5285 14.0714 14.5262 14.0927 14.5262 14.0927V18.6365C14.5262 20.0284 15.5597 20.7521 15.5597 20.7521L17.3275 19.3406Z" fill="#333333"/>
<path d="M37.0483 9.41179C36.2348 10.0578 36.132 10.1661 35.5205 11.0287C34.9112 10.1661 34.8091 10.0578 33.9922 9.41179C34.8091 8.76631 34.9112 8.65909 35.5205 7.79651C36.132 8.65909 36.2348 8.76631 37.0483 9.41179Z" fill="#333333"/>
<path d="M37.1403 19.3406C36.9888 19.2433 36.8869 19.1222 36.8194 19.0013C36.7646 18.9241 36.7328 18.8186 36.7169 18.7196C36.6832 18.5513 36.6954 18.4232 36.6954 18.4232V11.2145L34.0391 13.3367C34.2978 13.5966 34.3362 13.9153 34.3415 14.0388C34.3427 14.0714 34.3415 14.0927 34.3415 14.0927V18.6365C34.3415 20.0284 35.3744 20.7521 35.3744 20.7521L37.1403 19.3406Z" fill="#333333"/>
<path d="M20.7824 12.9345C20.7824 12.9345 20.963 13.6732 21.9886 13.6732C21.9886 13.6732 22.5867 13.6945 23.2369 13.0705L24.3983 11.9619C23.8579 12.2296 23.333 12.242 22.981 12.2033C22.8801 12.196 22.7342 12.1764 22.5632 12.1191C22.5543 12.1163 22.5468 12.1141 22.5468 12.1141H22.5484C22.2595 12.0146 21.9144 11.8109 21.6441 11.3844L19.3478 13.222C19.3478 13.222 18.7834 13.7091 18.7834 14.533C18.7834 14.533 18.6931 15.953 20.6096 16.833C20.6096 16.833 21.6731 17.317 22.3156 17.7411C22.3156 17.7411 22.7359 18.0051 22.7359 18.4516C22.7359 18.4516 22.7666 19.133 21.951 19.133C21.951 19.133 20.6249 19.2045 20.5878 17.3305L18.4531 19.0135C18.4531 19.0135 18.9485 20.739 20.6544 20.739C20.6544 20.739 22.3927 20.7854 23.7247 19.0624C23.7247 19.0624 24.389 18.2398 24.389 17.4247C24.389 17.4247 24.5027 16.0235 22.5531 15.2095C22.5531 15.2095 21.7032 14.8814 20.931 14.3547C20.931 14.3547 20.4438 14.0785 20.4438 13.5602C20.4438 13.5602 20.3931 13.2539 20.7824 12.9345Z" fill="#333333"/>
<path d="M40.6383 12.9345C40.6383 12.9345 40.8188 13.6732 41.8444 13.6732C41.8444 13.6732 42.4427 13.6945 43.0955 13.0705L44.2547 11.9619C43.7138 12.2296 43.1892 12.242 42.8384 12.2033C42.7363 12.196 42.5907 12.1764 42.4202 12.1191C42.4108 12.1163 42.4036 12.1141 42.4036 12.1141C42.1163 12.0146 41.7702 11.8109 41.5016 11.3844L39.2038 13.222C39.2038 13.222 38.6393 13.7091 38.6393 14.533C38.6393 14.533 38.5489 15.953 40.4683 16.833C40.4683 16.833 41.5296 17.317 42.1741 17.7411C42.1741 17.7411 42.5936 18.0051 42.5936 18.4516C42.5936 18.4516 42.6226 19.133 41.8066 19.133C41.8066 19.133 40.4807 19.2045 40.4437 17.3305L38.3125 19.0135C38.3125 19.0135 38.8049 20.739 40.5107 20.739C40.5107 20.739 42.2475 20.7854 43.5805 19.0624C43.5805 19.0624 44.2463 18.2398 44.2463 17.4247C44.2463 17.4247 44.3587 16.0235 42.4078 15.2095C42.4078 15.2095 41.559 14.8814 40.7894 14.3547C40.7894 14.3547 40.3031 14.0785 40.3031 13.5602C40.3031 13.5602 40.2495 13.2539 40.6383 12.9345Z" fill="#333333"/>
<path d="M2.49867 11.9248C2.49867 11.9248 2.42366 11.9147 2.30871 11.9147C1.91752 11.9147 0.640625 12.0517 0.640625 13.8186C0.641842 13.8504 0.675873 14.6269 0.957332 15.3279L1.06585 15.5945L1.11482 15.3138C1.12194 15.2756 1.29175 14.3766 2.19602 14.3766C2.27399 14.3766 2.35715 14.3833 2.44207 14.3967L2.53583 14.4119L2.57107 11.935L2.49867 11.9248Z" fill="#333333"/>
<path d="M8.6931 8.78781L8.17932 9.27519L7.66797 8.78781L8.17932 8.29944L8.6931 8.78781Z" fill="#333333"/>
<path d="M8.02734 19.0148V8.98499H8.29475V19.0148H8.02734Z" fill="#333333"/>
<path d="M31.5029 12.125L30.5597 11.2236L28.2679 13.0342C28.2679 11.657 27.4521 11.2164 27.4521 11.2164L25.5039 12.7357C25.7181 12.967 25.7811 13.2126 25.7994 13.3615C25.8135 13.4405 25.8059 13.5057 25.8059 13.5057V18.5135C25.8059 20.1139 26.8229 20.7423 26.8229 20.7423L28.6649 19.3134C28.4585 19.1789 28.3583 19.0283 28.3093 18.9075C28.2757 18.8421 28.2639 18.7684 28.2616 18.7243C28.2597 18.6995 28.2597 18.6833 28.2597 18.6833V13.6278C28.7286 13.2878 29.1285 13.3065 29.1285 13.3065C29.9773 13.3065 29.9567 13.9604 29.9567 13.9604V20.9883C29.9567 20.9883 32.325 20.1829 32.325 18.456V13.9995C32.325 12.8845 31.5029 12.125 31.5029 12.125Z" fill="#333333"/>
<path d="M4.40956 9.87176C4.40956 9.87176 4.40956 9.82632 4.41424 9.75114C4.41424 9.74388 4.41546 9.73594 4.41546 9.72918C4.42605 9.48497 4.47744 8.97761 4.66496 8.58655C3.63567 9.21849 2.82047 10.0176 2.81229 10.0267C2.22108 10.6081 2.24487 11.2456 2.24781 11.2687V17.2117C2.24781 18.1002 1.89327 18.4592 1.88562 18.4645L1.61719 18.7214L1.9747 18.5929C4.4974 17.6811 4.41128 15.6728 4.40956 15.6576V9.87176Z" fill="#333333"/>
<path d="M9.02026 12.0001H8.96192C11.6812 10.3018 11.6546 7.97213 11.6546 7.94899C11.6546 5.32576 9.5139 5.29553 9.49097 5.29553C8.53009 5.29553 7.95728 5.85163 7.93854 5.87014L5.66219 7.77849C4.91784 8.58787 5.0222 9.47291 5.02584 9.50033V15.5675C5.02584 16.8187 4.52491 17.2894 4.52196 17.2927L4.25004 17.5364L4.60287 17.4234C7.28549 16.5686 7.20528 14.3967 7.20528 14.3785V8.01871C7.20528 7.40247 7.37996 6.95013 7.71142 6.70809C7.96388 6.52355 8.21981 6.52173 8.23162 6.52173C8.48408 6.52173 8.7053 6.61111 8.88761 6.78558C9.5264 7.39571 9.52466 8.85089 9.52466 8.86609C9.52466 11.5894 8.15784 12.0271 8.14481 12.0315L8.08663 12.0474V12.37L8.16322 12.3757C10.5237 12.5463 10.5237 15.0445 10.5237 15.1509C10.5237 17.8612 8.8817 18.6395 8.61499 18.749C7.60689 18.112 6.59948 17.7898 5.61793 17.7898C3.26137 17.7898 1.64521 19.6603 1.0625 20.4615C1.74609 20.155 2.38437 20.0075 2.84329 19.9348C3.00736 19.904 3.17178 19.887 3.33812 19.8786C3.46975 19.8682 3.54528 19.8674 3.54528 19.8674C4.10211 19.8674 4.67719 19.9909 5.25939 20.2311L5.27935 20.2402C5.60976 20.3899 6.01677 20.4651 6.49043 20.4651C7.87654 20.4651 9.37709 19.834 9.43612 19.807C11.9376 18.8402 12.6775 16.7809 12.6839 16.7577C12.7021 16.7034 12.7122 16.6707 12.7122 16.6674C12.9428 15.8937 12.9452 15.1519 12.9452 15.1218C12.9452 12.2258 9.94329 12.0001 9.02026 12.0001Z" fill="#333333"/>
<path d="M5.62726 6.12984C5.55243 6.14438 5.47326 6.15231 5.39304 6.15677C5.35658 6.15958 5.33174 6.15958 5.33174 6.15958C5.33174 6.15958 5.31768 6.16123 5.30221 6.16123C5.21437 6.16123 4.88585 6.13216 4.3337 5.75828C4.29655 5.73185 3.41344 5.08934 2.7111 5.08934C2.7111 5.08934 2.69512 5.08752 2.66492 5.08752C2.42791 5.08752 1.6068 5.1465 0.894208 5.90483C0.869552 5.93109 0.335111 6.56319 0.0223986 7.33722L0 7.3909C0.724396 6.88205 1.30068 6.92352 1.30068 6.92352C1.30068 6.92352 1.79259 6.92798 2.29526 7.30682C2.32529 7.33094 3.05786 7.9034 3.74041 7.9034C3.74041 7.9034 3.77391 7.90852 3.8359 7.90852C4.20574 7.90852 5.50346 7.74842 6.73261 5.72524C6.32875 5.98281 5.90266 6.08838 5.62726 6.12984Z" fill="#333333"/>
<path d="M111.259 9.41179C110.445 10.0578 110.343 10.1661 109.732 11.0287C109.12 10.1661 109.017 10.0578 108.203 9.41179C109.017 8.76631 109.12 8.65909 109.732 7.79651C110.343 8.65909 110.445 8.76631 111.259 9.41179Z" fill="#333333"/>
<path d="M111.352 19.3406C111.198 19.2433 111.096 19.1222 111.03 19.0013C110.976 18.9241 110.943 18.8186 110.927 18.7196C110.893 18.5513 110.908 18.4232 110.908 18.4232V11.2145L108.25 13.3367C108.507 13.5966 108.546 13.9153 108.552 14.0388C108.553 14.0714 108.552 14.0927 108.552 14.0927V18.6365C108.552 20.0284 109.584 20.7521 109.584 20.7521L111.352 19.3406Z" fill="#333333"/>
<path d="M103.461 12.9345C103.461 12.9345 103.641 13.6732 104.666 13.6732C104.666 13.6732 105.265 13.6945 105.916 13.0705L107.077 11.9619C106.538 12.2296 106.012 12.242 105.66 12.2033C105.56 12.196 105.412 12.1764 105.241 12.1191C105.234 12.1163 105.226 12.1141 105.226 12.1141C104.939 12.0146 104.592 11.8109 104.322 11.3844L102.027 13.222C102.027 13.222 101.463 13.7091 101.463 14.533C101.463 14.533 101.373 15.953 103.289 16.833C103.289 16.833 104.353 17.317 104.995 17.7411C104.995 17.7411 105.416 18.0051 105.416 18.4516C105.416 18.4516 105.447 19.133 104.631 19.133C104.631 19.133 103.304 19.2045 103.267 17.3305L101.133 19.0134C101.133 19.0134 101.626 20.7388 103.333 20.7388C103.333 20.7388 105.071 20.7852 106.404 19.0623C106.404 19.0623 107.067 18.2397 107.067 17.4245C107.067 17.4245 107.182 16.0233 105.232 15.2093C105.232 15.2093 104.383 14.8812 103.611 14.3545C103.611 14.3545 103.124 14.0783 103.124 13.56C103.124 13.56 103.072 13.2539 103.461 12.9345Z" fill="#333333"/>
<path d="M76.1283 19.0493C76.08 18.9533 76.084 18.8494 76.084 18.8494V9.19381C76.084 7.85907 75.3745 7.43811 75.3745 7.43811L73.3587 8.97127C73.7843 9.29311 73.7433 9.64253 73.7433 9.64253V12.3027C73.3648 11.8112 72.4556 11.272 72.4556 11.272L69.0742 13.9497C69.3493 14.182 69.3155 14.3908 69.3155 14.3908V17.7C69.3155 19.8299 71.3901 20.8386 71.3901 20.8386L73.7342 19.0064C73.7342 20.0954 74.7503 20.8485 74.7503 20.8485L76.4617 19.5149C76.2668 19.3479 76.1731 19.1772 76.1283 19.0493ZM72.6744 18.8354C71.6522 18.8354 71.6774 17.9358 71.6774 17.9358V13.2973L71.8063 13.1741C72.6744 13.724 73.2637 14.5098 73.2637 14.5098C73.7225 15.0869 73.7342 15.7872 73.7342 15.7872V18.3495C73.179 18.8679 72.6744 18.8354 72.6744 18.8354Z" fill="#333333"/>
<path d="M83.1947 12.2656L81.3691 11.1813L77.8555 13.9551C77.9959 14.0768 78.0316 14.2449 78.0404 14.3311V14.3323C78.0448 14.3633 78.0448 14.3861 78.0448 14.3861V17.5861C78.0448 17.5861 77.9057 18.9782 79.2934 19.7157C79.2934 19.7157 80.2815 20.2749 81.1888 20.8424L83.9853 18.617C83.9853 18.617 84.5028 18.2007 84.5028 17.2456V14.3387C84.5028 14.3387 84.5736 13.0512 83.1947 12.2656ZM81.9443 19.2184C81.9443 19.2184 81.2947 18.9995 80.7466 18.4234C80.7466 18.4234 80.379 18.1103 80.379 17.337V13.4816C80.379 13.4816 80.3507 13.1343 80.6287 12.8786L81.6095 13.5384C81.6095 13.5384 82.125 13.9009 82.125 14.4978V18.5083C82.125 18.5083 82.162 18.9636 81.9443 19.2184Z" fill="#333333"/>
<path d="M119.529 18.9079C119.49 18.8512 119.457 18.7658 119.438 18.6401C119.422 18.5403 119.428 18.4729 119.428 18.4729V13.5955C119.428 13.5955 119.465 11.9478 117.879 11.111C117.879 11.111 115.552 11.1485 113.407 13.0894V13.9033C113.407 13.9033 114.404 12.72 115.771 12.2566C115.771 12.2566 117.109 12.4834 117.109 14.1015V14.523L114.734 15.2425C114.734 15.2425 112.563 15.8108 112.563 17.7558C112.563 17.7558 112.548 19.7584 114.855 20.6535L117.109 18.9137C117.161 19.4435 117.376 20.1843 118.087 20.6822L119.854 19.2677C119.69 19.1568 119.591 19.0285 119.529 18.9079ZM117.109 18.264C116.872 18.4796 116.396 18.8487 115.888 18.8487C115.888 18.8487 115.092 18.9353 115.092 17.9554V16.5439C115.092 16.5439 115.083 15.8625 115.891 15.5129L117.109 14.9862V18.264Z" fill="#333333"/>
<path d="M54.4802 11.6214L54.4031 11.617C54.4031 11.617 54.3815 11.6158 54.3354 11.6158C54.0221 11.6158 52.4619 11.7057 52.4648 13.4802C52.4648 13.5151 52.5096 14.2964 52.8053 14.8981L52.9184 15.128L52.9585 14.8758C52.965 14.8409 53.1142 14.0124 54.0303 14.0124C54.1413 14.0124 54.2592 14.0246 54.3829 14.0495L54.4802 14.0674V11.6214Z" fill="#333333"/>
<path d="M66.5958 12.125L65.653 11.2236L63.3623 13.0342C63.3623 11.657 62.5464 11.2164 62.5464 11.2164L60.5977 12.7357C60.8126 12.967 60.8774 13.2126 60.8954 13.3615C60.9049 13.4405 60.8999 13.5057 60.8999 13.5057V18.5135C60.8999 20.1139 61.9185 20.7423 61.9185 20.7423L63.7591 19.3134C63.5542 19.1789 63.4541 19.0283 63.4026 18.9075C63.3709 18.8421 63.3608 18.7684 63.3564 18.7243C63.3549 18.6995 63.3549 18.6833 63.3549 18.6833V13.6278C63.8257 13.2878 64.2246 13.3065 64.2246 13.3065C65.0721 13.3065 65.0513 13.9604 65.0513 13.9604V20.9883C65.0513 20.9883 67.4202 20.1829 67.4202 18.456V13.9995C67.4202 12.8845 66.5958 12.125 66.5958 12.125Z" fill="#333333"/>
<path d="M91.9753 12.125L91.0325 11.2236L88.7412 13.0342C88.7412 11.657 87.9256 11.2164 87.9256 11.2164L85.9766 12.7357C86.1907 12.967 86.255 13.2126 86.2739 13.3615C86.2844 13.4405 86.2796 13.5057 86.2796 13.5057V18.5135C86.2796 20.1139 87.2974 20.7423 87.2974 20.7423L89.1382 19.3134C88.933 19.1789 88.8315 19.0283 88.7824 18.9075C88.749 18.8421 88.738 18.7684 88.7353 18.7243C88.733 18.6995 88.733 18.6833 88.733 18.6833V13.6278C89.2012 13.2878 89.6011 13.3065 89.6011 13.3065C90.4495 13.3065 90.4306 13.9604 90.4306 13.9604V20.9883C90.4306 20.9883 92.798 20.1829 92.798 18.456V13.9995C92.798 12.8845 91.9753 12.125 91.9753 12.125Z" fill="#333333"/>
<path d="M98.2423 18.8736C97.2193 18.8736 96.9957 18.2058 96.9505 17.8086C98.3203 16.9712 99.3734 15.925 99.3734 15.925C100.002 15.3065 100 14.5275 100 14.5275C100 13.8224 99.3711 13.1649 99.3711 13.1649C98.4527 12.161 97.359 11.2955 97.359 11.2955L94.4414 13.4897C94.5425 13.6184 94.5746 13.7547 94.5841 13.8359C94.594 13.8769 94.5898 13.9081 94.5898 13.9081V17.5955C94.5898 18.7748 95.2291 19.4421 95.2291 19.4421C95.977 20.2837 96.941 20.8437 96.941 20.8437L99.9603 18.5085C99.3542 18.7705 98.7038 18.8447 98.4075 18.865C98.3045 18.8782 98.2423 18.8736 98.2423 18.8736ZM96.949 13.809C98.1526 14.6452 98.1 15.5913 98.1 15.5913C98.1 16.4365 97.2951 17.0249 96.949 17.24V13.809Z" fill="#333333"/>
<path d="M57.3475 6.12984C57.2744 6.14438 57.1964 6.15231 57.1151 6.15677C57.0762 6.15958 57.0514 6.15958 57.0514 6.15958C57.0514 6.15958 57.0409 6.16123 57.0233 6.16123C56.9346 6.16123 56.6048 6.13216 56.0534 5.75828C56.0162 5.73185 55.1337 5.08934 54.4314 5.08934C54.4314 5.08934 54.4154 5.08752 54.387 5.08752C54.15 5.08752 53.3276 5.1465 52.6123 5.90483C52.5927 5.93109 52.056 6.56319 51.7426 7.33722L51.7227 7.3909C52.4445 6.88205 53.021 6.92352 53.021 6.92352C53.0246 6.92352 53.5134 6.92798 54.0155 7.30682C54.0459 7.33094 54.7788 7.9034 55.4607 7.9034C55.4607 7.9034 55.4941 7.90852 55.5561 7.90852C55.9277 7.90852 57.2237 7.74842 58.4523 5.72524C58.049 5.98281 57.6226 6.08838 57.3475 6.12984Z" fill="#333333"/>
<path d="M56.291 9.89111C56.291 9.70475 56.3045 9.53689 56.3257 9.38819C56.3576 9.08569 56.4171 8.70009 56.5279 8.37463L56.5222 8.37677C55.3335 9.03233 54.5461 10.0527 54.5373 10.0672C54.1321 10.6551 54.148 11.3874 54.148 11.4176V15.8445C54.148 16.6139 53.8187 16.9986 53.8145 17.0023L53.6172 17.2253L53.9049 17.1255C56.3257 16.2829 56.2919 14.4124 56.291 14.3931V9.89111Z" fill="#333333"/>
<path d="M59.1012 17.0435V8.72309C59.1012 8.72309 59.0205 6.84166 60.2226 5.5094C58.8948 6.41294 57.6124 7.58049 57.6 7.59255C56.8285 8.30825 56.9151 9.17991 56.9187 9.20783V17.9432C56.9187 18.8352 56.2699 19.0977 56.2393 19.1096C56.0871 19.1757 55.9343 19.2084 55.7786 19.2084C55.2324 19.2084 54.8383 18.8015 54.836 18.7975L54.0792 17.9832C53.3105 17.1499 52.4179 17.1239 52.3154 17.1239C51.7692 17.1239 51.3081 17.3063 50.9424 17.6627C50.0988 18.4914 50.0192 20.0075 50.0156 20.4622C50.4864 19.8841 50.9817 19.6916 51.278 19.6272C51.3781 19.6064 51.4596 19.598 51.5138 19.5971C51.5368 19.5966 51.5492 19.5971 51.5492 19.5971C51.5651 19.5971 51.574 19.5971 51.5811 19.598C52.1351 19.598 52.4923 19.8881 52.5031 19.8953L52.8757 20.1503C54.297 21.1357 56.1254 20.4352 56.556 20.2479C57.1824 19.9492 57.661 19.6132 57.9817 19.3475C58.109 19.251 58.2295 19.1421 58.345 19.0154L58.5951 18.7572C59.2195 17.9174 59.1037 17.0811 59.1012 17.0435Z" fill="#333333"/>
</svg>
