<svg width="99" height="24" viewBox="0 0 99 24" fill="none" xmlns="http://www.w3.org/2000/svg">
<path d="M13.1079 19.936C10.585 20.4684 7.8524 19.7583 5.89412 17.7975C2.81195 14.7123 2.81195 9.70997 5.89412 6.62411C8.97629 3.53825 13.9737 3.53894 17.0566 6.62411C19.0995 8.66905 19.7803 11.5451 19.1145 14.1587H22.775C23.3855 10.606 22.3299 6.8312 19.5898 4.08845C15.1085 -0.397157 7.84215 -0.397157 3.36092 4.08845C-1.12031 8.57405 -1.12031 15.8475 3.36092 20.3331C7.84215 24.8187 15.1085 24.8187 19.5898 20.3331C19.7174 20.2053 19.8281 20.0679 19.9482 19.936H13.1079Z" fill="#333333"/>
<path d="M15.2938 5.30042C15.9247 5.65035 16.5208 6.08709 17.0561 6.62293C19.099 8.66787 19.7798 11.5439 19.114 14.1575H22.7746C23.385 10.6048 22.3294 6.83002 19.5893 4.08726C18.6491 3.14613 17.5825 2.41482 16.4484 1.86804L15.2938 5.30042Z" fill="#333333"/>
<path d="M9.51392 14.1565L7.01624 10.4951H22.819C22.819 10.4951 22.9173 11.4451 22.9419 12.3186C22.9596 12.9706 22.7753 14.1558 22.7753 14.1558H9.51392V14.1565Z" fill="#333333"/>
<path d="M83.9801 16.6009C82.5462 16.9037 80.9929 16.4997 79.8792 15.385C78.1272 13.6312 78.1272 10.788 79.8792 9.03285C81.6313 7.27907 84.4717 7.27907 86.2245 9.03285C87.3852 10.1947 87.7724 11.8303 87.3948 13.3155H89.4753C89.8228 11.2958 89.222 9.15041 87.6645 7.59074C85.117 5.04072 80.9867 5.04072 78.4392 7.59074C75.8917 10.1408 75.8917 14.275 78.4392 16.8251C80.9867 19.3751 85.117 19.3751 87.6645 16.8251C87.7369 16.7526 87.7997 16.6747 87.868 16.5995H83.9794V16.6009H83.9801Z" fill="#333333"/>
<path d="M85.2224 8.2828C85.5808 8.48168 85.9195 8.72978 86.224 9.03461C87.3848 10.1965 87.7719 11.832 87.3943 13.3172H89.4748C89.8224 11.2976 89.2215 9.15217 87.664 7.59249C87.1294 7.05734 86.5231 6.64179 85.8792 6.33081L85.2224 8.2828Z" fill="#333333"/>
<path d="M81.9379 13.3169L80.5176 11.2357H89.5013C89.5013 11.2357 89.5579 11.7763 89.5709 12.2732C89.5805 12.6437 89.476 13.3169 89.476 13.3169H81.9379Z" fill="#333333"/>
<path d="M41.6163 5.60767C37.9674 5.60767 35.0088 8.56845 35.0088 12.2223C35.0088 15.8747 37.9667 18.8362 41.6163 18.8362C45.2658 18.8362 48.2244 15.8754 48.2244 12.2223C48.2244 8.56845 45.2658 5.60767 41.6163 5.60767ZM41.6163 16.727C39.1302 16.727 37.1159 14.7101 37.1159 12.2223C37.1159 9.73376 39.1309 7.71753 41.6163 7.71753C44.1023 7.71753 46.1166 9.73445 46.1166 12.2223C46.1173 14.7101 44.1023 16.727 41.6163 16.727Z" fill="#333333"/>
<path d="M35.0095 12.2214C35.0095 15.8738 37.9674 18.8353 41.617 18.8353V16.7261C39.1309 16.7261 37.1166 14.7092 37.1166 12.2214H35.0095Z" fill="#333333"/>
<path d="M37.1038 22.3026L35.0247 23.7242V5.70388C35.0247 5.70388 35.5648 5.64715 36.0612 5.63416C36.4312 5.6246 37.1038 5.72917 37.1038 5.72917V22.3026Z" fill="#333333"/>
<path d="M37.1038 7.41414V5.72803C37.1038 5.72803 36.4306 5.62278 36.0612 5.63303C35.5648 5.6467 35.0247 5.70274 35.0247 5.70274V11.7993L35.054 11.7788C35.1694 10.0605 35.9232 8.5241 37.1038 7.41414Z" fill="#333333"/>
<path d="M31.3231 11.2356H26.4561V13.3168H31.3231V11.2356Z" fill="#333333"/>
<path d="M69.308 5.60767C65.6591 5.60767 62.7005 8.56845 62.7005 12.2223C62.7005 15.8747 65.6584 18.8362 69.308 18.8362C72.9569 18.8362 75.9162 15.8754 75.9162 12.2223C75.9155 8.56845 72.9576 5.60767 69.308 5.60767ZM69.308 16.727C66.8219 16.727 64.8076 14.7101 64.8076 12.2223C64.8076 9.73376 66.8226 7.71753 69.308 7.71753C71.7941 7.71753 73.8083 9.73445 73.8083 12.2223C73.8083 14.7101 71.7941 16.727 69.308 16.727Z" fill="#333333"/>
<path d="M62.7004 12.2214C62.7004 15.8738 65.6583 18.8353 69.3078 18.8353V16.7261C66.8218 16.7261 64.8075 14.7092 64.8075 12.2214H62.7004Z" fill="#333333"/>
<path d="M64.7947 22.3026L62.7155 23.7242V5.70388C62.7155 5.70388 63.2556 5.64715 63.752 5.63416C64.1221 5.6246 64.7947 5.72917 64.7947 5.72917V22.3026Z" fill="#333333"/>
<path d="M64.7947 7.41414V5.72803C64.7947 5.72803 64.1214 5.62278 63.752 5.63303C63.2556 5.6467 62.7155 5.70274 62.7155 5.70274V11.7993L62.7449 11.7788C62.861 10.0605 63.6141 8.5241 64.7947 7.41414Z" fill="#333333"/>
<path d="M97.435 8.19061C97.041 8.07715 96.6259 8.0129 96.1957 8.0129C94.5536 8.0129 93.1245 8.89526 92.3427 10.213L90.8713 8.74011C92.0525 7.0663 93.9923 5.97412 96.1957 5.97412C96.9516 5.97412 97.674 6.10945 98.3493 6.34593L97.435 8.19061Z" fill="#333333"/>
<path d="M92.3635 18.0287L90.2843 19.4504V5.70241C90.2843 5.70241 90.8244 5.64568 91.3208 5.6327C91.6909 5.62313 92.3635 5.7277 92.3635 5.7277V18.0287Z" fill="#333333"/>
<path d="M55.4059 5.60767C51.757 5.60767 48.7984 8.56845 48.7984 12.2223C48.7984 15.8747 51.7563 18.8362 55.4059 18.8362C59.0548 18.8362 62.0141 15.8754 62.0141 12.2223C62.0141 8.56845 59.0562 5.60767 55.4059 5.60767ZM55.4059 16.727C52.9198 16.727 50.9055 14.7101 50.9055 12.2223C50.9055 9.73376 52.9205 7.71753 55.4059 7.71753C57.892 7.71753 59.9062 9.73445 59.9062 12.2223C59.9069 14.7101 57.892 16.727 55.4059 16.727Z" fill="#333333"/>
<path d="M59.9073 12.2214C59.9073 14.7099 57.8924 16.7261 55.407 16.7261V18.8353C59.0559 18.8353 62.0145 15.8745 62.0145 12.2214H59.9073Z" fill="#333333"/>
<path d="M59.9353 18.029L62.0144 19.4506V5.70266C62.0144 5.70266 61.4743 5.64593 60.9779 5.63294C60.6079 5.62337 59.9353 5.72794 59.9353 5.72794V18.029Z" fill="#333333"/>
<path d="M59.9353 7.41292V5.72681C59.9353 5.72681 60.6085 5.62155 60.9779 5.63181C61.4743 5.64548 62.0144 5.70152 62.0144 5.70152V11.7981L61.9851 11.7775C61.869 10.0593 61.1152 8.52288 59.9353 7.41292Z" fill="#333333"/>
</svg>
