<svg width="104" height="31" viewBox="0 0 104 31" fill="none" xmlns="http://www.w3.org/2000/svg">
<path d="M3.25357 0.906166C3.6869 0.675175 4.17913 0.717056 4.6419 0.750883C5.50699 0.952557 6.19598 1.62975 6.94889 2.11363C7.66891 2.69965 8.53775 3.05049 9.42195 3.06917C10.0849 3.08431 10.7085 2.7512 11.3614 2.70674C11.2646 3.01408 11.0468 3.22961 10.8535 3.45963C9.85715 4.62264 8.71384 5.7325 7.30796 6.13649C6.4081 6.48862 5.42051 6.17354 4.65726 5.56819C3.91468 5.07271 3.23979 4.35009 2.35716 4.21253C1.51651 4.09623 0.727254 4.56304 3.29646e-05 4.99184C-0.00341358 4.56304 0.264164 4.23637 0.443697 3.88843C1.18815 2.69482 2.02911 1.45739 3.25357 0.906166Z" fill="#333333"/>
<path d="M14.6088 14.736C14.5966 18.6193 14.6104 22.502 14.6019 26.3879C14.6122 26.5506 14.5621 26.7571 14.6953 26.8747C14.8488 27.0297 14.9904 27.3051 15.227 27.2146C16.5981 26.2249 17.795 24.8045 18.4097 23.0535C18.5165 22.6583 18.6118 22.2581 18.7033 21.8583C18.7396 21.1128 18.7324 20.3632 18.7017 19.6177C18.5222 18.2949 18.0867 16.9595 17.2304 16.023C16.5169 15.2714 15.5807 14.7521 14.6088 14.736ZM15.8727 1.35397C16.4442 1.24636 17.0364 1.26408 17.6151 1.31917C18.4595 1.57948 19.1833 2.2383 19.6893 3.05144C20.3369 4.13036 20.5976 5.46734 20.539 6.76791C20.5857 7.40611 20.4009 8.01532 20.18 8.58877C19.6671 9.74727 18.9643 10.7833 18.1475 11.6767C17.7054 12.159 17.3012 12.6957 16.8093 13.1132C16.4605 13.4789 16.0303 13.7363 15.7314 14.159C17.4497 14.1467 19.2406 14.5143 20.6863 15.648C21.8519 16.553 22.6186 18.0842 22.731 19.7002C22.9052 20.5339 22.7464 21.3838 22.6668 22.2179C22.4303 23.7104 21.8155 25.1212 20.9037 26.2159C19.8676 27.472 18.5259 28.337 17.1288 28.9369C15.7838 29.5142 14.3606 29.7874 12.9532 30.0654C12.1173 30.2365 11.2575 30.2004 10.43 29.9797C9.32149 29.7207 8.28345 29.1347 7.15236 28.9962C5.78471 28.886 4.38416 28.9353 3.08011 29.4659C2.77118 29.6102 2.47572 29.7803 2.15613 29.8879C2.66058 29.1038 3.36492 28.531 4.04013 27.9604C5.59108 26.6115 7.36793 25.4859 9.32118 25.233C10.9445 25.1418 12.5923 25.4904 14.0407 26.3541C14.0599 20.7011 14.0407 15.0504 14.0511 9.39837C14.1166 9.00951 13.7609 8.82846 13.5676 8.58877C13.452 8.43252 13.1565 8.27788 13.2828 8.03465C13.5814 7.65547 13.8991 7.28627 14.2811 7.01726C14.3293 7.0163 14.4227 7.0134 14.4709 7.0134C14.8507 7.38002 15.2633 7.72376 15.5604 8.18993C15.31 8.43478 15.0772 8.70121 14.8284 8.95088C14.6884 9.09553 14.5364 9.28013 14.5383 9.51467C14.5383 11.1271 14.5402 12.7392 14.5383 14.35C14.7629 14.264 14.9647 14.1235 15.1255 13.9212C16.1131 12.8503 16.7247 11.3793 16.9785 9.85551C16.9838 9.11518 17.2805 8.3871 17.1079 7.65031C17.0286 6.49375 16.8143 5.27887 16.1704 4.35298C15.7352 3.74119 15.0478 3.46155 14.3829 3.42676C13.9063 3.59171 13.4022 3.80144 13.0738 4.25697C12.7699 4.65388 12.5177 5.13164 12.4453 5.66064C12.4419 9.88676 12.4453 14.111 12.4434 18.3368C12.4657 19.0127 12.2313 19.6438 12.1016 20.291C11.7685 21.3293 11.1745 22.2411 10.4056 22.9015C9.65455 23.5245 8.88252 24.1702 7.99833 24.5065C8.05034 24.0403 8.34204 23.6834 8.49056 23.2601C8.76691 22.4698 8.90132 21.6122 8.88064 20.7588C8.8772 16.6419 8.88064 12.525 8.8772 8.40739C8.86341 8.06365 9.03104 7.76532 9.12754 7.45379C9.39355 6.67416 9.93403 6.07494 10.4833 5.55368C11.7905 4.37907 13.1202 3.23926 14.4174 2.04984C14.8538 1.70738 15.384 1.57046 15.8727 1.35397Z" fill="#333333"/>
<path d="M7.53642 7.92563C7.59501 7.90952 7.71062 7.87763 7.76922 7.86249C7.75042 8.38471 7.5502 8.87827 7.57088 9.40468C7.56587 13.1559 7.57245 16.904 7.56744 20.6552C7.58122 21.1169 7.38947 21.5367 7.32211 21.9842C7.23406 22.6198 6.9527 23.1865 6.66789 23.7296C6.03905 24.786 5.08938 25.5115 4.15192 26.1626C3.79285 26.3543 3.46449 26.6861 3.05185 26.6932C3.2555 26.1117 3.60956 25.6082 3.74272 24.9912C3.83609 24.5054 3.97082 24.0209 3.95327 23.5183C3.95327 21.759 3.96017 19.999 3.94983 18.2397C3.15524 18.4214 2.34907 18.8866 1.9242 19.7184C1.78446 19.9449 1.8396 20.2393 1.81391 20.5C1.71396 20.4175 1.60336 20.3489 1.52033 20.2425C1.05567 19.2918 0.862355 18.1968 0.808777 17.1153C0.910606 16.0512 1.61683 15.2413 2.38196 14.7246C2.87263 14.3428 3.42689 14.0986 3.95359 13.7961C3.95891 13.3583 3.94325 12.9214 3.95703 12.4846C4.14189 11.4085 4.69114 10.4411 5.4356 9.76776C6.13587 9.15243 6.83019 8.52808 7.53642 7.92563Z" fill="#333333"/>
<path d="M25.5929 3.18036H25.7931C26.0886 3.21773 26.3577 3.36045 26.6065 3.52153C26.8606 3.69356 27.1091 3.91199 27.4214 3.95032C27.7724 3.95032 28.1192 3.82694 28.4147 3.63396C28.0951 4.19613 27.684 4.74123 27.1091 5.04309C26.8327 5.19225 26.5097 5.2641 26.2023 5.19225C25.9122 5.12396 25.6534 4.96062 25.4237 4.77506C25.2319 4.62235 25.0004 4.52023 24.7585 4.50863C24.4446 4.51862 24.1579 4.66294 23.9072 4.84432V4.8237C24.0523 4.45805 24.244 4.11012 24.4806 3.7973C24.7554 3.45484 25.1611 3.22031 25.5929 3.18036Z" fill="#333333"/>
<path d="M60.1547 3.18036H60.3533C60.6832 3.22192 60.9815 3.39137 61.2544 3.57887C61.4756 3.7406 61.7072 3.91456 61.9835 3.95C62.3338 3.95 62.6813 3.82823 62.9743 3.63557C62.7139 4.09884 62.3943 4.53924 61.9694 4.85721C61.6483 5.09593 61.251 5.2699 60.8471 5.20611C60.5244 5.15456 60.2358 4.97641 59.9855 4.77216C59.7918 4.62106 59.5587 4.51894 59.3168 4.50831C59.0044 4.51894 58.7159 4.66649 58.4655 4.84851C58.5793 4.5286 58.7453 4.22867 58.9352 3.94904C59.2012 3.52217 59.6624 3.23094 60.1547 3.18036Z" fill="#333333"/>
<path d="M29.4246 8.45232C29.423 9.93137 29.423 11.4104 29.4246 12.8895C29.5057 12.9401 29.5872 12.9897 29.6665 13.0457C29.9253 12.9178 30.1518 12.7252 30.3313 12.4961C30.7474 11.9697 30.9166 11.2809 30.9342 10.614C30.9549 10.0528 30.8251 9.46165 30.478 9.01481C30.2226 8.68395 29.8272 8.49259 29.4246 8.45232ZM29.2783 3.68205C29.5581 3.4459 29.9221 3.31607 30.2847 3.33056C30.7409 3.366 31.1742 3.6305 31.4126 4.03191C31.6476 4.42785 31.7147 4.91013 31.6924 5.36921C31.6131 6.23551 31.1726 7.03802 30.5648 7.63467C30.3642 7.8328 30.1433 8.00483 29.9171 8.16752C30.52 8.17816 31.1413 8.28737 31.6611 8.6192C32.0308 8.8518 32.3191 9.22035 32.4485 9.64497C32.6126 10.1607 32.5713 10.7165 32.476 11.2394C32.4378 11.4285 32.3983 11.6195 32.3137 11.7935C31.913 12.6714 31.188 13.3827 30.3226 13.7687C29.6925 14.0509 29.0188 14.2596 28.328 14.2909C28.0256 14.298 27.7113 14.2609 27.4334 14.1292C27.1417 13.9942 26.8325 13.9017 26.5148 13.8708C26.1883 13.8353 25.8634 13.8885 25.5494 13.9613C25.2245 14.0341 24.914 14.1498 24.6135 14.2873C25.1039 13.5634 25.7531 12.9236 26.5564 12.5799C27.1402 12.3305 27.8031 12.2857 28.4163 12.452C28.7237 12.5335 29.0191 12.6614 29.3005 12.817C29.3005 10.5912 29.2989 8.3663 29.3005 6.14241C29.2125 6.04286 29.1175 5.9504 29.0242 5.85504C29.1401 5.73487 29.2557 5.61438 29.3713 5.49711C29.4873 5.61631 29.6044 5.73519 29.7185 5.85504C29.6201 5.95523 29.5214 6.05639 29.4246 6.1569C29.423 6.82539 29.423 7.49227 29.4246 8.16076C29.8598 7.88918 30.0757 7.37339 30.1794 6.88145C30.3022 6.25194 30.3122 5.58603 30.1361 4.96619C30.0534 4.69364 29.9218 4.40627 29.6611 4.2745C29.4246 4.15401 29.1294 4.24712 28.9653 4.4504C28.777 4.67689 28.7303 4.98842 28.7237 5.27772C28.7218 6.84279 28.7237 8.4085 28.7218 9.97357C28.6942 10.5354 28.4404 11.075 28.0447 11.4613C27.6838 11.8202 27.2175 12.0332 26.7394 12.1772C26.8378 12.076 26.9534 11.989 27.0208 11.8618C27.2175 11.5119 27.2645 11.0973 27.2661 10.6997C27.2645 9.2719 27.2661 7.84472 27.2645 6.41592C27.2232 5.87598 27.4372 5.30543 27.857 4.9707C28.3298 4.53964 28.803 4.11181 29.2783 3.68205Z" fill="#333333"/>
<path d="M62.638 4.75787C63.1237 4.30524 63.6244 3.86935 64.1592 3.4776C63.6053 4.1593 63.3825 5.07327 63.4082 5.94762C63.4082 7.90282 63.4066 9.85609 63.4082 11.81C63.4408 12.2585 63.3151 12.7201 63.0491 13.0777C62.6797 13.5252 62.2066 13.8731 61.6968 14.1344C61.1792 14.3725 60.5936 14.4956 60.029 14.4008C59.7351 14.3512 59.4556 14.2285 59.2187 14.0458C59.0461 13.925 58.8907 13.7742 58.687 13.7137C58.4126 13.617 58.1052 13.665 57.8564 13.8132C57.6493 13.9285 57.4801 14.1025 57.3297 14.2874C57.3401 13.7227 57.4265 13.1428 57.6838 12.6367C57.8614 12.2878 58.1691 11.9914 58.5526 11.907C59.0687 11.7775 59.6041 12.0233 59.9669 12.3976C60.143 12.5948 60.3122 12.7971 60.4849 12.9981C60.6227 13.1757 60.8167 13.3106 61.0357 13.3603C61.2791 13.4153 61.5489 13.3274 61.7147 13.1331C61.8804 12.9511 61.9459 12.6953 61.9459 12.4505C61.9459 10.3722 61.9459 8.29103 61.9425 6.21179C61.9164 5.84775 62.0202 5.47662 62.2329 5.18377C62.3444 5.02172 62.4948 4.89479 62.638 4.75787Z" fill="#333333"/>
<path d="M71.8059 9.11842C71.8074 10.2192 71.8059 11.3191 71.8074 12.4209C71.8059 12.6074 71.861 12.8052 71.9992 12.9376C72.1358 13.0746 72.3398 13.1181 72.5259 13.1055C72.7747 13.0788 72.9956 12.9351 73.1735 12.7627C73.1773 12.1342 73.1773 11.5056 73.1735 10.8752C73.1529 10.5334 73.0322 10.197 72.8214 9.93059C72.5569 9.58491 72.248 9.27435 71.8955 9.025C71.8645 9.05624 71.8353 9.08814 71.8059 9.11842ZM74.2755 4.87201C74.5086 5.05306 74.6383 5.34011 74.7019 5.62587C74.7712 5.9229 74.7521 6.22863 74.7536 6.53114C74.7536 8.72603 74.7536 10.9222 74.7536 13.119C74.7605 13.3126 74.8852 13.4695 75.0043 13.6084C74.6208 13.926 74.2407 14.2495 73.8613 14.5707C73.4828 14.2389 73.1807 13.7672 73.1789 13.2427C72.6556 13.6796 72.1358 14.1232 71.6141 14.561C70.9787 14.1909 70.452 13.571 70.2828 12.8291C70.2051 12.505 70.2274 12.1703 70.2258 11.8381C70.2258 11.188 70.2258 10.5356 70.2258 9.88291C70.2258 9.76146 70.1428 9.66223 70.0632 9.57943C70.8177 8.93382 71.5709 8.28757 72.3272 7.64228C72.6381 7.85426 72.9492 8.08074 73.1854 8.38099C73.1854 7.74505 73.1854 7.11039 73.1873 6.47476C73.1889 6.27696 73.0698 6.1046 72.9266 5.98476C73.3756 5.6133 73.8281 5.24475 74.2755 4.87201Z" fill="#333333"/>
<path d="M34.4025 5.13104C34.5304 5.32531 34.6563 5.5215 34.8033 5.70256C34.9828 5.93065 35.209 6.11364 35.4265 6.30274C35.2626 6.44868 35.095 6.58689 34.943 6.74668C34.7287 6.96318 34.5702 7.22509 34.4025 7.47735C34.2782 7.2892 34.1557 7.1001 34.0175 6.9242C33.8307 6.68902 33.5995 6.49797 33.3749 6.30274C33.5908 6.11718 33.812 5.93419 33.9949 5.71416C34.1434 5.52956 34.271 5.32885 34.4025 5.13104Z" fill="#333333"/>
<path d="M47.1444 5.81957C47.3361 5.61177 47.4865 5.36661 47.6451 5.13336C47.7748 5.32505 47.8992 5.52124 48.0439 5.70165C48.2253 5.93007 48.4516 6.11467 48.6709 6.30281C48.4412 6.50352 48.2028 6.69875 48.0145 6.94198C47.8866 7.11691 47.7522 7.29088 47.652 7.4845C47.526 7.30344 47.4085 7.1124 47.2703 6.93843C47.0839 6.69617 46.8455 6.50158 46.6158 6.30281C46.7988 6.14817 46.9817 5.99482 47.1444 5.81957Z" fill="#333333"/>
<path d="M96.9288 5.58626C97.0369 5.43871 97.1369 5.28375 97.239 5.13104C97.4098 5.38652 97.5724 5.65037 97.7883 5.86976C97.9371 6.02505 98.101 6.16261 98.2651 6.30308C98.0524 6.49025 97.8312 6.66905 97.6504 6.89199C97.5 7.07756 97.3722 7.27794 97.2387 7.47865C97.0729 7.22543 96.9103 6.96834 96.7013 6.75056C96.5484 6.59012 96.3774 6.44966 96.2132 6.30308C96.4686 6.08433 96.7296 5.86429 96.9288 5.58626Z" fill="#333333"/>
<path d="M60.3748 6.7441C60.7395 6.27084 61.1797 5.85461 61.6888 5.54565C61.5886 5.89552 61.5457 6.25763 61.5281 6.62007C61.5247 7.73765 61.5281 8.85556 61.5247 9.97346C61.4852 10.5247 61.1966 11.0405 60.784 11.3878C60.4797 11.6542 60.1087 11.8246 59.7306 11.9532C59.8048 11.8591 59.8897 11.7727 59.9411 11.6629C60.0605 11.4206 60.095 11.1445 60.095 10.8752C60.0931 10.4596 60.095 10.0443 60.0931 9.62778C59.8878 9.61747 59.6613 9.66805 59.5144 9.82784C59.3539 9.98667 59.2916 10.2183 59.2728 10.4393C59.1177 10.142 59.0293 9.81431 58.9861 9.47958C58.9382 9.12198 58.9761 8.73668 59.1675 8.42676C59.3646 8.10073 59.734 7.93224 60.095 7.89583C60.0762 7.49796 60.1485 7.07689 60.3748 6.7441Z" fill="#333333"/>
<path d="M25.9584 6.57C26.2902 6.25138 26.6474 5.95467 27.0275 5.70081C26.9134 5.98141 26.8652 6.28682 26.8602 6.59062C26.8602 8.00041 26.8602 9.40762 26.8602 10.8164C26.8479 11.3226 26.6474 11.8171 26.3213 12.1934C25.9707 12.6061 25.4819 12.8619 24.9831 13.0297C25.0677 12.926 25.1849 12.8441 25.2453 12.7178C25.3594 12.4923 25.4042 12.2343 25.4057 11.9811C25.4042 11.2842 25.4057 10.5864 25.4042 9.88925C25.1902 9.88281 24.9727 9.96915 24.8411 10.1467C24.698 10.3197 24.6497 10.5452 24.6203 10.7646C24.4461 10.3793 24.363 9.95755 24.3336 9.53648C24.3214 9.17083 24.3856 8.77682 24.6149 8.48526C24.8067 8.243 25.1072 8.12219 25.4042 8.10608C25.4057 7.9392 25.4042 7.77135 25.4057 7.60447C25.418 7.36736 25.4991 7.13572 25.6288 6.93759C25.7219 6.79906 25.8413 6.68534 25.9584 6.57Z" fill="#333333"/>
<path d="M101.315 10.735C101.054 10.8638 100.848 11.1277 100.826 11.4276C100.824 11.7891 100.826 12.1486 100.826 12.5081C100.826 12.6918 100.876 12.8899 101.018 13.0107C101.154 13.1286 101.344 13.1367 101.513 13.0993C101.766 13.0371 101.981 12.8754 102.168 12.6953C102.164 11.9089 102.168 11.1212 102.166 10.3355C101.881 10.4688 101.596 10.6003 101.315 10.735ZM101.407 7.83291C101.817 7.67312 102.248 7.54715 102.69 7.53265C103.291 7.85514 103.667 8.52717 103.718 9.21434C103.731 9.45661 103.72 9.70178 103.724 9.94501C103.724 10.877 103.724 11.8094 103.724 12.7427C103.722 12.8757 103.715 13.0188 103.779 13.1405C103.828 13.2549 103.913 13.3413 104 13.4218V13.4298C103.606 13.7691 103.216 14.1109 102.821 14.4492C102.427 14.1544 102.211 13.666 102.166 13.174C101.662 13.5913 101.165 14.013 100.662 14.4276C100.381 14.3068 100.115 14.1499 99.8885 13.9411C99.5134 13.6009 99.2549 13.1315 99.1616 12.6261C99.0767 12.2034 99.1634 11.7491 99.3944 11.3877C99.6485 10.9908 100.051 10.714 100.478 10.5484C101.039 10.3587 101.607 10.1802 102.168 9.99011C102.17 9.66183 102.179 9.31905 102.037 9.01428C101.898 8.69019 101.609 8.44792 101.28 8.359C100.657 8.59772 100.125 9.03909 99.6955 9.55133C99.6955 9.35255 99.6955 9.15442 99.6955 8.95661C100.189 8.47273 100.771 8.08581 101.407 7.83291Z" fill="#333333"/>
<path d="M77.6256 9.21408C77.6256 10.149 77.6256 11.081 77.6256 12.0124C77.6187 12.3162 77.6945 12.6445 77.9154 12.8613C78.1297 13.0842 78.3873 13.2724 78.674 13.3825C78.7539 13.2521 78.7877 13.0984 78.7877 12.9457C78.7877 11.9567 78.7877 10.966 78.7877 9.97342C78.7843 9.70506 78.6433 9.45216 78.4409 9.28625C78.2234 9.12742 78.0038 8.97375 77.7913 8.81041C77.6873 8.91544 77.6237 9.06396 77.6256 9.21408ZM75.9352 9.57974C76.7191 8.91286 77.4993 8.24341 78.2833 7.57782C78.7203 7.85842 79.159 8.13709 79.5958 8.42027C80.0448 8.71956 80.3559 9.24147 80.3781 9.79816C80.3781 10.5449 80.3797 11.2933 80.3781 12.0417C80.3662 12.4077 80.2437 12.8017 79.948 13.0301C79.352 13.5414 78.7583 14.052 78.1642 14.5642C77.7121 14.2608 77.2555 13.9695 76.7928 13.6863C76.3391 13.3961 76.0593 12.8526 76.0574 12.3059C76.0593 11.5076 76.0574 10.7115 76.0574 9.91414C76.0627 9.79011 76.0107 9.67188 75.9352 9.57974Z" fill="#333333"/>
<path d="M33.4127 9.13785C34.0067 8.62368 34.5992 8.11079 35.1949 7.60114C35.1967 9.38398 35.1949 11.1659 35.1967 12.9474C35.2071 13.1597 35.3227 13.3549 35.4903 13.4774C35.0968 13.8185 34.7011 14.1565 34.3091 14.4983C33.9998 14.2525 33.7874 13.8884 33.6837 13.5057C33.5887 13.1829 33.6148 12.8417 33.611 12.5096C33.611 11.557 33.611 10.6053 33.611 9.65427C33.6113 9.46258 33.5336 9.27895 33.4127 9.13785Z" fill="#333333"/>
<path d="M40.9479 8.70148C41.385 8.33486 41.8183 7.96727 42.2535 7.60065C42.6542 7.89349 42.8027 8.42796 42.7974 8.91378C43.3106 8.47854 43.8163 8.03943 44.3311 7.60773C44.5298 7.81617 44.73 8.02042 44.9305 8.22661C45.2827 8.59581 45.5089 9.09999 45.5139 9.62222C45.5158 10.5649 45.5139 11.5072 45.5139 12.4518C45.5123 12.7298 45.533 13.0181 45.44 13.2846C45.298 13.7134 44.9737 14.0474 44.6162 14.2968C44.4004 14.4469 44.1707 14.5693 43.9272 14.6695C43.9257 13.0549 43.9272 11.4405 43.9272 9.82776C43.9257 9.67119 43.941 9.50173 43.8633 9.36159C43.7822 9.20437 43.6061 9.13156 43.44 9.1219C43.205 9.10064 42.9823 9.21146 42.7958 9.34484C42.7908 10.5568 42.7958 11.7669 42.7943 12.9785C42.7877 13.1773 42.9187 13.3442 43.0656 13.4605C42.6511 13.8016 42.2435 14.1515 41.8289 14.4924C41.4956 14.2324 41.2885 13.83 41.202 13.4154C41.1327 13.0977 41.1503 12.771 41.1484 12.4492C41.1484 11.3989 41.1468 10.3503 41.1484 9.29909C41.1638 9.08066 41.0807 8.86836 40.9479 8.70148Z" fill="#333333"/>
<path d="M46.6526 9.13848C47.2448 8.62173 47.8407 8.11207 48.4348 7.5979C48.4363 9.30278 48.4348 11.0073 48.4348 12.7109C48.4332 12.8611 48.4279 13.0154 48.4815 13.1568C48.5332 13.2854 48.6231 13.3949 48.7318 13.4764C48.338 13.8166 47.9425 14.1581 47.5471 14.4993C47.105 14.1236 46.8428 13.536 46.8581 12.9455C46.8581 11.8675 46.8581 10.788 46.8581 9.70935C46.8613 9.50156 46.7923 9.29215 46.6526 9.13848Z" fill="#333333"/>
<path d="M64.3999 8.70148C64.837 8.3355 65.2722 7.9692 65.7071 7.60065C66.1078 7.89188 66.2582 8.43086 66.251 8.91378C66.7627 8.47983 67.27 8.04137 67.7851 7.6087C67.9643 7.79781 68.1476 7.98434 68.3321 8.17249C68.6984 8.5346 68.9472 9.03814 68.9644 9.56455C68.9644 10.6718 68.966 11.7788 68.9644 12.8867C68.9541 13.3918 68.6483 13.8332 68.2754 14.1386C68.0063 14.3641 67.7005 14.5391 67.3793 14.6702C67.3759 13.0462 67.3777 11.4225 67.3777 9.79683C67.3759 9.65669 67.3947 9.50302 67.3242 9.37351C67.2533 9.22596 67.0976 9.14542 66.9441 9.1248C66.6919 9.08646 66.4465 9.20212 66.2463 9.35031C66.2463 10.5568 66.2463 11.7652 66.2463 12.9708C66.241 13.1705 66.3669 13.3445 66.5192 13.4556C66.1097 13.8045 65.6971 14.1434 65.2891 14.4917C64.951 14.2395 64.7489 13.8358 64.6587 13.4253C64.5813 13.0967 64.6092 12.7559 64.6036 12.4202C64.6036 11.3609 64.6036 10.3 64.6036 9.24271C64.6054 9.04329 64.5205 8.85257 64.3999 8.70148Z" fill="#333333"/>
<path d="M82.6603 7.60486C82.7941 7.67767 82.8865 7.80267 82.968 7.9296C83.1491 8.22083 83.2146 8.57231 83.2146 8.91412C83.7203 8.47792 84.2322 8.04783 84.7398 7.60808C84.9325 7.79365 85.1127 7.99081 85.301 8.18185C85.6773 8.55459 85.9257 9.07843 85.9273 9.62256C85.9273 10.7005 85.9273 11.7775 85.9273 12.8561C85.9238 13.3087 85.6876 13.7234 85.368 14.0217C85.0732 14.3029 84.7151 14.5172 84.3413 14.6695C84.3394 13.0465 84.3413 11.4228 84.3413 9.79814C84.3394 9.66154 84.3548 9.51786 84.2927 9.38899C84.2291 9.24402 84.0819 9.15446 83.9315 9.13126C83.6733 9.08004 83.4123 9.19279 83.208 9.35065C83.2096 10.5597 83.208 11.7682 83.208 12.9756C83.2027 13.1754 83.3321 13.3467 83.4809 13.4579C83.0686 13.8013 82.6588 14.147 82.248 14.493C81.8025 14.1476 81.5897 13.5632 81.5678 13.0049C81.5653 11.8567 81.5678 10.7108 81.5678 9.56457C81.5603 9.37804 81.5866 9.18635 81.5277 9.00884C81.4948 8.89254 81.4309 8.79589 81.3622 8.7015C81.794 8.33617 82.2311 7.97309 82.6603 7.60486Z" fill="#333333"/>
<path d="M96.2467 9.13855C96.8392 8.62277 97.4351 8.1131 98.0285 7.60022C98.0285 9.36438 98.0285 11.1266 98.0285 12.8898C98.0235 13.1215 98.1407 13.347 98.3278 13.4765C97.9323 13.8183 97.5373 14.1582 97.1412 14.4993C96.7135 14.1372 96.4541 13.5741 96.4507 13.0051C96.4526 11.9665 96.4507 10.9249 96.4526 9.88468C96.4692 9.6234 96.4353 9.33571 96.2467 9.13855Z" fill="#333333"/>
<path d="M88.7015 9.48538C88.7015 10.3075 88.7015 11.1297 88.7015 11.9509C88.8444 11.8533 88.9794 11.7421 89.0951 11.6126C89.3332 11.3559 89.5074 11.0034 89.4554 10.6413C89.3868 10.1635 89.0687 9.76599 88.7015 9.48538ZM87.019 9.24473C87.6719 8.71735 88.3215 8.18545 88.9704 7.65936C89.3714 8.00827 89.7515 8.3794 90.1071 8.77276C90.3662 9.04692 90.6109 9.35781 90.7046 9.73699C90.7854 10.0372 90.7046 10.3578 90.579 10.6336C90.4471 10.9187 90.2108 11.1265 89.9896 11.3385C89.5876 11.7147 89.1605 12.0672 88.7 12.37C88.7238 12.5798 88.8012 12.7937 88.96 12.9348C89.1402 13.0981 89.3902 13.1452 89.6214 13.1329C89.9981 13.1071 90.3712 13.0256 90.7165 12.8694C90.0447 13.4377 89.3664 13.9995 88.6921 14.5652C88.3487 14.3388 88.0291 14.0723 87.7409 13.7724C87.6306 13.6509 87.5115 13.5282 87.4272 13.3819C87.228 13.0508 87.128 12.6635 87.1192 12.2747C87.1174 11.3707 87.1192 10.467 87.1192 9.56238C87.1192 9.44801 87.076 9.33976 87.019 9.24473Z" fill="#333333"/>
<path d="M36.8444 9.04338C37.3538 8.60298 37.8617 8.1642 38.3712 7.72412C38.5232 7.9825 38.7597 8.19287 39.0448 8.27438C39.4349 8.3794 39.8613 8.32947 40.2188 8.13939C40.034 8.33913 39.8388 8.53082 39.6489 8.72798C39.4832 8.89518 39.3293 9.08333 39.1241 9.20672C38.9013 9.3504 38.6269 9.42772 38.3643 9.36039C38.1017 9.31239 37.8724 9.11425 37.7894 8.85234C37.6459 8.98732 37.5321 9.18352 37.5785 9.39035C37.613 9.63809 37.8013 9.82108 37.9999 9.94447C38.3176 10.1639 38.6594 10.3485 39.0116 10.5018C39.4073 10.6829 39.7786 10.9615 40.003 11.3507C40.179 11.65 40.2568 12.0176 40.1791 12.3636C40.0735 12.8491 39.8028 13.2853 39.4641 13.6387C39.048 14.0843 38.4899 14.3987 37.8874 14.475C37.5559 14.5185 37.2088 14.4448 36.9324 14.2505C36.5906 14.0134 36.359 13.6371 36.2331 13.2376C36.7115 12.8307 37.1897 12.4225 37.6684 12.015C37.6753 12.3655 37.7358 12.7386 37.9585 13.0163C38.1606 13.2711 38.52 13.3964 38.8217 13.2779C39.0273 13.199 39.131 12.9502 39.0896 12.7363C39.057 12.5649 38.948 12.4132 38.8083 12.3156C38.551 12.1336 38.2747 11.9809 37.9999 11.8327C37.7358 11.6906 37.4594 11.5707 37.221 11.3836C36.881 11.1287 36.6063 10.7673 36.4991 10.344C36.3782 9.89067 36.5126 9.37037 36.8444 9.04338Z" fill="#333333"/>
<path d="M50.2053 8.96601C50.6818 8.55138 51.1622 8.13934 51.6403 7.72504C51.7926 7.976 52.0219 8.18927 52.3017 8.27078C52.6975 8.38257 53.1289 8.32845 53.4914 8.1403C53.2254 8.41447 52.9597 8.68702 52.6937 8.96118C52.4866 9.17542 52.2187 9.34681 51.9201 9.38128C51.7023 9.39384 51.4742 9.34423 51.3016 9.20634C51.1879 9.11839 51.1083 8.99146 51.0613 8.85647C50.9457 8.96118 50.8423 9.10422 50.8438 9.27206C50.8316 9.50016 50.9579 9.716 51.134 9.84745C51.4949 10.1148 51.8922 10.3313 52.2995 10.5114C52.7141 10.7047 53.0991 11.0056 53.3135 11.4267C53.4566 11.7028 53.5171 12.0285 53.4551 12.3384C53.367 12.7753 53.1374 13.1722 52.8522 13.504C52.4775 13.9518 51.9715 14.2907 51.4088 14.4273C51.0582 14.5198 50.6712 14.5091 50.345 14.3378C49.927 14.1148 49.6438 13.688 49.5075 13.235C49.9841 12.8313 50.4537 12.4209 50.9356 12.0208C50.9444 12.3358 50.993 12.6641 51.1653 12.9325C51.3104 13.1632 51.566 13.3168 51.8336 13.3233C51.9633 13.3233 52.1015 13.2959 52.2049 13.2105C52.3469 13.0897 52.3982 12.8764 52.3519 12.6983C52.3071 12.534 52.1999 12.3935 52.0617 12.3023C51.8079 12.1287 51.5404 11.9792 51.2709 11.8326C51.0187 11.6967 50.7527 11.5829 50.5233 11.4074C50.1692 11.15 49.8807 10.7817 49.7685 10.3462C49.6372 9.85196 49.808 9.27947 50.2053 8.96601Z" fill="#333333"/>
<path d="M92.1714 8.98018C92.6568 8.56266 93.139 8.1403 93.6262 7.72504C93.7606 7.95925 93.9715 8.15448 94.2237 8.24952C94.6291 8.38998 95.0885 8.34101 95.4701 8.14127C95.1922 8.43057 94.9174 8.72374 94.6345 9.00628C94.3719 9.25563 94.0113 9.4457 93.6465 9.36678C93.374 9.32586 93.1308 9.12709 93.0421 8.85454C92.9438 8.95151 92.8542 9.06942 92.8313 9.21149C92.7974 9.45311 92.9196 9.6928 93.1023 9.83584C93.4357 10.0852 93.7969 10.2894 94.1701 10.4599C94.4941 10.5984 94.8021 10.7885 95.0399 11.053C95.3354 11.3787 95.5199 11.8378 95.4463 12.2888C95.378 12.6944 95.18 13.0675 94.9343 13.388C94.6376 13.7714 94.2575 14.0893 93.8189 14.2836C93.4388 14.4473 93.0092 14.55 92.6029 14.4434C92.0417 14.3013 91.6566 13.781 91.4877 13.2388C91.9646 12.8313 92.4443 12.4254 92.9209 12.0166C92.9293 12.3423 92.9798 12.6841 93.1659 12.956C93.3595 13.2514 93.7534 13.4096 94.0833 13.2756C94.2958 13.1902 94.3926 12.9276 94.3374 12.7092C94.2958 12.5317 94.1701 12.3825 94.0213 12.2865C93.7001 12.07 93.3598 11.8861 93.0164 11.7105C92.6135 11.5214 92.236 11.2508 91.9869 10.8681C91.7538 10.5166 91.64 10.0662 91.7575 9.64899C91.8264 9.39029 91.9649 9.14545 92.1714 8.98018Z" fill="#333333"/>
<path d="M32.5157 24.8435C32.5157 26.2961 32.1569 27.3741 31.4397 28.078C30.7222 28.7819 29.6134 29.1337 28.1129 29.1337C27.5871 29.1337 27.0617 29.0857 26.5359 28.9904C26.0102 28.8943 25.5227 28.7677 25.0737 28.6102L25.5007 26.4984C25.8839 26.656 26.2865 26.78 26.7083 26.8702C27.1297 26.9601 27.6091 27.0052 28.1458 27.0052C28.8464 27.0052 29.342 26.8473 29.6325 26.5323C29.9226 26.2169 30.068 25.8116 30.068 25.3161V24.9952C29.8051 25.1193 29.5341 25.2124 29.2546 25.2739C28.9755 25.3357 28.6715 25.3667 28.3429 25.3667C27.1491 25.3667 26.2345 25.0036 25.5994 24.2771C24.9643 23.5506 24.6466 22.5349 24.6466 21.2282C24.6466 20.5755 24.745 19.9811 24.9424 19.4463C25.1395 18.9115 25.4271 18.4524 25.8046 18.0697C26.1825 17.687 26.6453 17.3912 27.193 17.1828C27.7407 16.9747 28.3595 16.8703 29.0494 16.8703C29.3452 16.8703 29.6491 16.8845 29.9612 16.9125C30.2732 16.9409 30.5825 16.9776 30.8892 17.0224C31.196 17.0675 31.4889 17.1209 31.7681 17.1828C32.0476 17.2447 32.2964 17.3094 32.5157 17.3771V24.8435ZM27.1438 21.2288C27.1438 22.6367 27.6968 23.3403 28.8028 23.3403C29.0547 23.3403 29.29 23.3068 29.5094 23.2391C29.7284 23.1715 29.9145 23.0929 30.068 23.0027V18.9821C29.9474 18.9595 29.8051 18.9399 29.641 18.9228C29.4768 18.906 29.2847 18.8973 29.066 18.8973C28.4199 18.8973 27.9377 19.1171 27.6203 19.5562C27.3023 19.9959 27.1438 20.5529 27.1438 21.2288Z" fill="#333333"/>
<path d="M38.7091 19.3005C38.4898 19.2444 38.2325 19.1855 37.9371 19.1233C37.6413 19.0615 37.3236 19.0302 36.9843 19.0302C36.8307 19.0302 36.6474 19.0444 36.4341 19.0724C36.2204 19.1004 36.0587 19.1314 35.9494 19.1652V25.9557H33.5017V17.5441C33.9394 17.3865 34.457 17.2374 35.0542 17.0963C35.6511 16.9555 36.3163 16.8853 37.0504 16.8853C37.182 16.8853 37.3405 16.8936 37.5269 16.9107C37.7131 16.9275 37.8992 16.9503 38.0856 16.9784C38.2717 17.0064 38.4578 17.0402 38.6442 17.0795C38.8304 17.1191 38.9892 17.1668 39.1208 17.2232L38.7091 19.3005Z" fill="#333333"/>
<path d="M47.0539 21.4982C47.0539 22.1967 46.9552 22.8355 46.7581 23.4154C46.5611 23.9956 46.2763 24.4908 45.9037 24.9019C45.5312 25.3129 45.085 25.6312 44.5649 25.8561C44.0448 26.0813 43.4617 26.1941 42.8156 26.1941C42.1802 26.1941 41.6024 26.0813 41.0823 25.8561C40.5619 25.6312 40.1157 25.3129 39.7435 24.9019C39.3713 24.4908 39.0808 23.9956 38.8728 23.4154C38.6648 22.8355 38.5607 22.1967 38.5607 21.4982C38.5607 20.8001 38.6676 20.1638 38.8809 19.5894C39.0946 19.015 39.3904 18.5253 39.7683 18.1197C40.1458 17.7144 40.5951 17.399 41.1152 17.1735C41.6354 16.9483 42.2021 16.8359 42.8156 16.8359C43.4398 16.8359 44.0119 16.9486 44.5323 17.1735C45.0524 17.399 45.4989 17.7141 45.8711 18.1197C46.2434 18.525 46.5338 19.015 46.7419 19.5894C46.9496 20.1638 47.0539 20.8001 47.0539 21.4982ZM44.5571 21.4982C44.5571 20.7212 44.4064 20.1103 44.1053 19.6658C43.8038 19.2208 43.374 18.9982 42.8156 18.9982C42.257 18.9982 41.8243 19.2208 41.5175 19.6658C41.2108 20.1107 41.0576 20.7212 41.0576 21.4982C41.0576 22.2753 41.2108 22.8919 41.5175 23.3477C41.8243 23.8039 42.257 24.032 42.8156 24.032C43.374 24.032 43.8038 23.8039 44.1053 23.3477C44.4064 22.8919 44.5571 22.2753 44.5571 21.4982Z" fill="#333333"/>
<path d="M55.005 25.6541C54.5886 25.7781 54.0522 25.8935 53.3952 26.0001C52.7381 26.1071 52.0482 26.1609 51.325 26.1609C50.5912 26.1609 49.9806 26.0594 49.4934 25.8567C49.0058 25.6541 48.6198 25.3696 48.3353 25.0037C48.0505 24.6377 47.8478 24.2012 47.7275 23.6947C47.6069 23.188 47.5467 22.6303 47.5467 22.0224V17.073H49.9944V21.7183C49.9944 22.5291 50.0984 23.1148 50.3068 23.475C50.5148 23.8355 50.9033 24.0156 51.4733 24.0156C51.6484 24.0156 51.8345 24.0072 52.0316 23.9901C52.2287 23.9734 52.4038 23.9541 52.5573 23.9309V17.073H55.005V25.6541Z" fill="#333333"/>
<path d="M64.0408 21.516C64.0408 22.2029 63.9584 22.8279 63.7942 23.3907C63.63 23.9542 63.3891 24.438 63.0714 24.8436C62.7534 25.2489 62.3592 25.5643 61.8886 25.7892C61.4177 26.0144 60.8756 26.1271 60.2625 26.1271C59.9228 26.1271 59.6051 26.0936 59.3097 26.026C59.0142 25.9583 58.7291 25.863 58.4552 25.7386V29.0833H56.0076V17.3775C56.2266 17.3099 56.4785 17.2451 56.7633 17.1833C57.0478 17.1214 57.3464 17.068 57.6585 17.0228C57.9705 16.9781 58.2882 16.9413 58.6113 16.913C58.9343 16.885 59.2435 16.8708 59.5396 16.8708C60.2512 16.8708 60.8866 16.9806 61.4452 17.2C62.0036 17.4198 62.4745 17.7297 62.858 18.1292C63.2415 18.529 63.5341 19.0161 63.7369 19.5905C63.9393 20.1649 64.0408 20.8066 64.0408 21.516ZM61.5436 21.5837C61.5436 20.8066 61.3735 20.1842 61.0342 19.7171C60.6948 19.2499 60.191 19.0161 59.523 19.0161C59.304 19.0161 59.1013 19.0244 58.9152 19.0415C58.7288 19.0583 58.5759 19.0782 58.4552 19.1008V23.6446C58.6084 23.7457 58.8083 23.8301 59.0549 23.8978C59.3012 23.9654 59.5503 23.9989 59.8025 23.9989C60.963 23.9989 61.5436 23.1942 61.5436 21.5837Z" fill="#333333"/>
</svg>
