<svg width="158" height="49" viewBox="0 0 158 49" fill="none" xmlns="http://www.w3.org/2000/svg">
<g clip-path="url(#clip0_1543_13569)">
<path d="M156.993 43.2859C156.993 43.89 156.877 44.4881 156.651 45.0462C156.426 45.6042 156.095 46.1112 155.678 46.5381C155.261 46.965 154.766 47.3035 154.221 47.5343C153.676 47.765 153.092 47.8834 152.503 47.8828H5.53891C4.34777 47.8841 3.20489 47.4005 2.36164 46.5385C1.51838 45.6764 1.04379 44.5065 1.04224 43.2859V6.6273C1.04379 5.40619 1.51819 4.23563 2.36128 3.37263C3.20437 2.50962 4.34723 2.02473 5.53891 2.02441H152.501C153.091 2.02441 153.675 2.14348 154.22 2.37481C154.765 2.60614 155.26 2.94521 155.677 3.37264C156.094 3.80007 156.425 4.3075 156.651 4.86594C156.876 5.42438 156.992 6.02289 156.992 6.6273L156.993 43.2859Z" fill="white"/>
<path d="M152.503 48.954H5.53915C4.07179 48.9537 2.66449 48.3569 1.62603 47.2946C0.587574 46.2323 0.00279198 44.7913 0 43.2877L0 6.63029C0.00217074 5.12597 0.586567 3.68395 1.62499 2.62057C2.66341 1.55718 4.07107 0.959278 5.53915 0.958008L152.502 0.958008C153.97 0.959911 155.377 1.55802 156.415 2.62127C157.454 3.68451 158.038 5.12616 158.041 6.63029V43.2877C158.043 46.4131 155.554 48.954 152.503 48.954Z" fill="#A6A6A6"/>
<path d="M156.993 43.2859C156.993 43.89 156.877 44.4881 156.651 45.0462C156.426 45.6042 156.095 46.1112 155.678 46.5381C155.261 46.965 154.766 47.3035 154.221 47.5343C153.676 47.765 153.092 47.8834 152.503 47.8828H5.53891C4.34777 47.8841 3.20489 47.4005 2.36164 46.5385C1.51838 45.6764 1.04379 44.5065 1.04224 43.2859V6.6273C1.04379 5.40619 1.51819 4.23563 2.36128 3.37263C3.20437 2.50962 4.34723 2.02473 5.53891 2.02441H152.501C153.091 2.02441 153.675 2.14348 154.22 2.37481C154.765 2.60614 155.26 2.94521 155.677 3.37264C156.094 3.80007 156.425 4.3075 156.651 4.86594C156.876 5.42438 156.992 6.02289 156.992 6.6273L156.993 43.2859Z" fill="black"/>
<path d="M35.2892 24.7015C35.2552 20.8332 38.3803 18.9512 38.5232 18.8636C36.7533 16.2195 34.0101 15.8582 33.0461 15.8294C30.7421 15.5809 28.5073 17.2421 27.3336 17.2421C26.1365 17.2421 24.3292 15.8534 22.3813 15.8942C19.8747 15.9338 17.5297 17.4209 16.2436 19.7301C13.5894 24.4386 15.5689 31.358 18.1118 35.1639C19.3839 37.0291 20.8703 39.1091 22.8158 39.0358C24.7192 38.9566 25.4302 37.7936 27.7272 37.7936C30.003 37.7936 30.6707 39.0359 32.6549 38.989C34.6977 38.9566 35.9838 37.1167 37.2113 35.2359C38.6813 33.1007 39.2716 30.9955 39.2951 30.8875C39.2482 30.8707 35.329 29.3368 35.2892 24.7015ZM31.541 13.3257C32.5647 12.0139 33.2651 10.2291 33.0707 8.41797C31.589 8.48518 29.736 9.46817 28.6689 10.7512C27.7248 11.8818 26.8815 13.735 27.0993 15.4777C28.7638 15.6049 30.4727 14.6172 31.541 13.3257Z" fill="white"/>
<path d="M152.503 0.956055H73.7847L104.617 48.9521H152.503C153.971 48.9508 155.378 48.3532 156.416 47.2904C157.455 46.2275 158.039 44.7861 158.042 43.2822V6.62835C158.04 5.12412 157.455 3.68228 156.417 2.61897C155.378 1.55565 153.971 0.957641 152.503 0.956055V0.956055Z" fill="url(#paint0_linear_1543_13569)"/>
<path d="M62.8587 38.7677H60.1986L58.7415 34.076H53.6768L52.2887 38.7677H49.699L54.7181 22.795H57.8174L62.8587 38.7677ZM58.3023 32.1076L56.9846 27.9368C56.8452 27.5107 56.5828 26.5074 56.1986 24.9278H56.1517C55.9971 25.6072 55.75 26.6106 55.4115 27.9368L54.116 32.1076H58.3023ZM75.7408 32.8674C75.7408 34.8262 75.2219 36.3745 74.183 37.5111C73.2529 38.5229 72.0969 39.0282 70.7182 39.0282C69.2295 39.0282 68.1589 38.4845 67.5088 37.3946V43.4378H65.0116V31.0358C65.0116 29.8056 64.9799 28.5441 64.919 27.2503H67.1153L67.2546 29.0758H67.3015C68.1343 27.7004 69.3981 27.0126 71.0942 27.0126C72.4201 27.0126 73.527 27.5492 74.4125 28.6234C75.2969 29.7 75.7408 31.1138 75.7408 32.8674ZM73.1967 32.961C73.1967 31.84 72.9507 30.9158 72.4564 30.1873C71.9165 29.4299 71.1914 29.0506 70.2825 29.0506C69.6664 29.0506 69.1065 29.2619 68.6063 29.6784C68.105 30.0984 67.777 30.6469 67.6236 31.3263C67.5551 31.5803 67.5162 31.8418 67.5076 32.1052V34.0268C67.5076 34.8634 67.7583 35.5703 68.2596 36.1488C68.761 36.7249 69.4122 37.0142 70.2134 37.0142C71.1539 37.0142 71.886 36.6409 72.4096 35.9004C72.9343 35.1574 73.1967 34.178 73.1967 32.961ZM88.6686 32.8674C88.6686 34.8262 88.1497 36.3745 87.1108 37.5111C86.1796 38.5229 85.0247 39.0282 83.6448 39.0282C82.1561 39.0282 81.0855 38.4845 80.4354 37.3946V43.4378H77.9382V31.0358C77.9382 29.8056 77.9066 28.5441 77.8457 27.2503H80.0419L80.1813 29.0758H80.2281C81.0598 27.7004 82.3236 27.0126 84.0208 27.0126C85.3456 27.0126 86.4525 27.5492 87.3403 28.6234C88.2235 29.7 88.6686 31.1138 88.6686 32.8674ZM86.1233 32.961C86.1233 31.84 85.8762 30.9158 85.3819 30.1873C84.8419 29.4299 84.1192 29.0506 83.2103 29.0506C82.5942 29.0506 82.0343 29.2619 81.5318 29.6784C81.0305 30.0984 80.7037 30.6469 80.5502 31.3263C80.4741 31.6431 80.4331 31.9012 80.4331 32.1052V34.0268C80.4331 34.8634 80.6849 35.5703 81.1839 36.1488C81.6852 36.7237 82.3365 37.0142 83.14 37.0142C84.0817 37.0142 84.8138 36.6409 85.3362 35.9004C85.861 35.1574 86.1233 34.178 86.1233 32.961ZM103.123 34.2872C103.123 35.6471 102.659 36.7525 101.737 37.6059C100.723 38.5373 99.3065 39.0042 97.491 39.0042C95.8136 39.0042 94.469 38.6729 93.4546 38.0092L94.0321 35.8764C95.1272 36.5413 96.3302 36.8725 97.6397 36.8725C98.5814 36.8725 99.3135 36.6541 99.8359 36.2208C100.36 35.7863 100.624 35.2054 100.624 34.4805C100.624 33.8312 100.405 33.2875 99.9753 32.8446C99.5431 32.4029 98.8286 31.9912 97.8248 31.6131C95.0956 30.5701 93.7299 29.0446 93.7299 27.0379C93.7299 25.7272 94.2124 24.6542 95.1753 23.8152C96.1381 22.9775 97.4148 22.5586 99.0031 22.5586C100.422 22.5586 101.603 22.8118 102.542 23.3171L101.915 25.4031C101.032 24.9134 100.035 24.6686 98.92 24.6686C98.0391 24.6686 97.3481 24.8906 96.8538 25.3323C96.4379 25.7272 96.2271 26.2085 96.2271 26.7798C96.2271 27.4099 96.4672 27.9332 96.9451 28.3437C97.3598 28.7218 98.1164 29.1335 99.2104 29.5751C100.553 30.1296 101.539 30.7754 102.17 31.5171C102.806 32.2589 103.123 33.1842 103.123 34.2872ZM111.4 29.1707H108.648V34.7625C108.648 36.1848 109.133 36.8942 110.105 36.8942C110.551 36.8942 110.921 36.8557 111.214 36.7753L111.283 38.7185C110.791 38.9069 110.143 39.0018 109.341 39.0018C108.355 39.0018 107.584 38.6933 107.028 38.0764C106.474 37.4595 106.195 36.4261 106.195 34.9714V29.1659H104.555V27.2455H106.195V25.1367L108.648 24.3781V27.2455H111.4V29.1707ZM123.795 32.9142C123.795 34.6845 123.301 36.138 122.315 37.2746C121.283 38.4448 119.91 39.0282 118.199 39.0282C116.547 39.0282 115.234 38.4677 114.255 37.3478C113.276 36.2256 112.786 34.8118 112.786 33.1062C112.786 31.3215 113.292 29.8596 114.3 28.723C115.311 27.5852 116.672 27.0162 118.384 27.0162C120.033 27.0162 121.358 27.578 122.36 28.699C123.318 29.7864 123.795 31.1907 123.795 32.9142ZM121.207 32.973C121.207 31.918 120.984 31.013 120.538 30.2557C120.014 29.3411 119.265 28.8838 118.293 28.8838C117.293 28.8838 116.526 29.3411 116.004 30.2557C115.556 31.013 115.334 31.9336 115.334 33.021C115.334 34.0772 115.556 34.9846 116.004 35.7395C116.544 36.6541 117.297 37.1114 118.272 37.1114C119.227 37.1114 119.976 36.6445 120.517 35.7167C120.976 34.9414 121.207 34.0304 121.207 32.973ZM131.916 29.5007C131.656 29.4527 131.393 29.429 131.129 29.4299C130.25 29.4299 129.571 29.7684 129.093 30.4501C128.678 31.0502 128.47 31.8088 128.47 32.7245V38.7677H125.973V30.8774C125.975 29.6684 125.951 28.4594 125.9 27.2515H128.075L128.167 29.4551H128.236C128.5 28.6978 128.915 28.0869 129.484 27.6296C130.005 27.23 130.638 27.0136 131.289 27.0126C131.52 27.0126 131.728 27.0295 131.914 27.0595L131.916 29.5007ZM143.084 32.4641C143.091 32.8531 143.06 33.2418 142.993 33.6247H135.501C135.529 34.7625 135.893 35.6339 136.588 36.234C137.22 36.7693 138.036 37.0382 139.039 37.0382C140.148 37.0382 141.16 36.8581 142.07 36.4945L142.461 38.2696C141.398 38.7449 140.142 38.9813 138.693 38.9813C136.95 38.9813 135.582 38.4557 134.586 37.4066C133.593 36.3564 133.095 34.945 133.095 33.177C133.095 31.4415 133.558 29.9952 134.485 28.8418C135.454 27.6104 136.765 26.9946 138.414 26.9946C140.034 26.9946 141.261 27.6104 142.093 28.8418C142.753 29.8176 143.084 31.0274 143.084 32.4641ZM140.703 31.8004C140.721 31.0406 140.557 30.3865 140.218 29.8332C139.786 29.1203 139.121 28.765 138.229 28.765C137.413 28.765 136.748 29.1119 136.242 29.808C135.826 30.3613 135.579 31.0262 135.502 31.798L140.703 31.8004Z" fill="white"/>
<path d="M52.9563 17.1485C52.2617 17.1485 51.6608 17.1137 51.1606 17.0549V9.33259C51.8602 9.22186 52.5671 9.16728 53.2749 9.16936C56.1387 9.16936 57.4576 10.6132 57.4576 12.9669C57.4576 15.6818 55.8998 17.1485 52.9563 17.1485ZM53.3756 10.1595C52.9891 10.1595 52.6599 10.1836 52.387 10.2412V16.1115C52.5346 16.1355 52.8181 16.1463 53.2163 16.1463C55.0927 16.1463 56.161 15.0517 56.161 13.0017C56.161 11.1737 55.1947 10.1595 53.3756 10.1595ZM61.5678 17.2073C59.9537 17.2073 58.9077 15.9723 58.9077 14.2955C58.9077 12.548 59.976 11.3022 61.6591 11.3022C63.2498 11.3022 64.3192 12.4784 64.3192 14.2031C64.3192 15.9723 63.217 17.2073 61.5678 17.2073ZM61.6146 12.2215C60.7279 12.2215 60.1599 13.0713 60.1599 14.2595C60.1599 15.425 60.7397 16.2747 61.6029 16.2747C62.4662 16.2747 63.046 15.3661 63.046 14.2355C63.046 13.0833 62.4779 12.2215 61.6146 12.2215ZM73.5234 11.4186L71.7957 17.0789H70.6701L69.9544 14.6208C69.7764 14.0195 69.6283 13.4094 69.5105 12.7929H69.487C69.3968 13.4098 69.2258 14.0279 69.0443 14.6208L68.2829 17.0789H67.1456L65.5198 11.4186H66.7813L67.4068 14.1095C67.5544 14.7504 67.6785 15.3553 67.7816 15.9267H67.805C67.8952 15.4502 68.0428 14.8548 68.2595 14.1215L69.0443 11.4198H70.0446L70.7954 14.0639C70.9769 14.7048 71.1245 15.3337 71.2393 15.9279H71.2721C71.3518 15.3457 71.4771 14.7276 71.6469 14.0639L72.3181 11.4198L73.5234 11.4186ZM79.8836 17.0789H78.6561V13.8287C78.6561 12.8277 78.2813 12.326 77.5422 12.326C76.8148 12.326 76.3146 12.9669 76.3146 13.7122V17.0789H75.0871V13.0365C75.0871 12.536 75.0754 11.9995 75.0414 11.4174H76.1214L76.1788 12.2912H76.2127C76.543 11.6862 77.213 11.3022 77.9638 11.3022C79.1234 11.3022 79.8848 12.2107 79.8848 13.6894L79.8836 17.0789ZM83.2687 17.0789H82.04V8.82129H83.2687V17.0789ZM87.7443 17.2073C86.1314 17.2073 85.0843 15.9723 85.0843 14.2955C85.0843 12.548 86.1525 11.3022 87.8345 11.3022C89.4263 11.3022 90.4946 12.4784 90.4946 14.2031C90.4957 15.9723 89.3924 17.2073 87.7443 17.2073ZM87.79 12.2215C86.9033 12.2215 86.3352 13.0713 86.3352 14.2595C86.3352 15.425 86.9162 16.2747 87.7771 16.2747C88.6415 16.2747 89.2202 15.3661 89.2202 14.2355C89.2213 13.0833 88.6544 12.2215 87.79 12.2215ZM95.3344 17.0789L95.2454 16.4272H95.2126C94.8378 16.9517 94.2908 17.2073 93.5974 17.2073C92.6076 17.2073 91.9048 16.4968 91.9048 15.5414C91.9048 14.1443 93.0867 13.4218 95.133 13.4218V13.3174C95.133 12.572 94.7476 12.1987 93.9863 12.1987C93.4416 12.1987 92.9637 12.3392 92.5432 12.6188L92.2937 11.7919C92.8044 11.4654 93.4416 11.3022 94.1901 11.3022C95.6331 11.3022 96.3617 12.0823 96.3617 13.6438V15.7286C96.3617 16.2999 96.3863 16.7428 96.4413 17.0801L95.3344 17.0789ZM95.1658 14.2595C93.8024 14.2595 93.1183 14.598 93.1183 15.401C93.1183 15.9951 93.4709 16.2855 93.9605 16.2855C94.5848 16.2855 95.1658 15.797 95.1658 15.1333V14.2595ZM102.323 17.0789L102.265 16.1703H102.231C101.879 16.8568 101.286 17.2073 100.458 17.2073C99.126 17.2073 98.1397 16.0071 98.1397 14.3183C98.1397 12.548 99.1623 11.301 100.559 11.301C101.298 11.301 101.821 11.5566 102.116 12.0703H102.141V8.82129H103.37V15.5534C103.37 16.1007 103.383 16.6132 103.415 17.0789H102.323ZM102.141 13.7482C102.141 12.9561 101.629 12.2804 100.848 12.2804C99.9377 12.2804 99.3813 13.1073 99.3813 14.2715C99.3813 15.413 99.9588 16.1943 100.823 16.1943C101.595 16.1943 102.141 15.5066 102.141 14.6916V13.7482ZM111.16 17.2073C109.547 17.2073 108.501 15.9723 108.501 14.2955C108.501 12.548 109.569 11.3022 111.251 11.3022C112.843 11.3022 113.911 12.4784 113.911 14.2031C113.913 15.9723 112.81 17.2073 111.16 17.2073ZM111.206 12.2215C110.32 12.2215 109.752 13.0713 109.752 14.2595C109.752 15.425 110.332 16.2747 111.194 16.2747C112.058 16.2747 112.637 15.3661 112.637 14.2355C112.639 13.0833 112.071 12.2215 111.206 12.2215ZM120.513 17.0789H119.284V13.8287C119.284 12.8277 118.909 12.326 118.17 12.326C117.443 12.326 116.944 12.9669 116.944 13.7122V17.0789H115.715V13.0365C115.715 12.536 115.704 11.9995 115.67 11.4174H116.75L116.807 12.2912H116.841C117.17 11.6862 117.841 11.301 118.591 11.301C119.75 11.301 120.513 12.2095 120.513 13.6882V17.0789ZM128.772 12.362H127.421V15.1105C127.421 15.8102 127.658 16.1595 128.136 16.1595C128.353 16.1595 128.534 16.1355 128.681 16.1007L128.715 17.0561C128.477 17.1497 128.158 17.1965 127.762 17.1965C126.795 17.1965 126.216 16.6492 126.216 15.2161V12.362H125.41V11.4186H126.216V10.3816L127.421 10.0083V11.4174H128.772V12.362ZM135.27 17.0789H134.044V13.8527C134.044 12.8397 133.67 12.3272 132.93 12.3272C132.294 12.3272 131.701 12.77 131.701 13.6666V17.0789H130.475V8.82129H131.701V12.2215H131.726C132.113 11.6046 132.672 11.301 133.387 11.301C134.556 11.301 135.27 12.2323 135.27 13.7122V17.0789ZM141.928 14.5512H138.244C138.268 15.623 138.96 16.2279 139.985 16.2279C140.53 16.2279 141.031 16.1343 141.474 15.9603L141.665 16.834C141.142 17.0669 140.527 17.1833 139.812 17.1833C138.084 17.1833 137.061 16.0647 137.061 14.3303C137.061 12.5948 138.109 11.2902 139.673 11.2902C141.085 11.2902 141.97 12.362 141.97 13.9811C141.978 14.1722 141.964 14.3635 141.928 14.5512ZM140.803 13.6546C140.803 12.7809 140.373 12.1639 139.588 12.1639C138.883 12.1639 138.325 12.7929 138.246 13.6546H140.803Z" fill="white"/>
</g>
<defs>
<linearGradient id="paint0_linear_1543_13569" x1="115.912" y1="49.0795" x2="115.912" y2="-124.017" gradientUnits="userSpaceOnUse">
<stop stop-color="#1A1A1A" stop-opacity="0.1"/>
<stop offset="0.123" stop-color="#212121" stop-opacity="0.151"/>
<stop offset="0.308" stop-color="#353535" stop-opacity="0.227"/>
<stop offset="0.532" stop-color="#575757" stop-opacity="0.318"/>
<stop offset="0.783" stop-color="#858585" stop-opacity="0.421"/>
<stop offset="1" stop-color="#B3B3B3" stop-opacity="0.51"/>
</linearGradient>
<clipPath id="clip0_1543_13569">
<rect width="158" height="48" fill="white" transform="translate(0 0.955078)"/>
</clipPath>
</defs>
</svg>
