<?xml version="1.0" encoding="utf-8"?>
<!-- Generator: Adobe Illustrator 27.4.1, SVG Export Plug-In . SVG Version: 6.00 Build 0)  -->
<svg version="1.1" id="Layer_1" xmlns="http://www.w3.org/2000/svg" xmlns:xlink="http://www.w3.org/1999/xlink" x="0px" y="0px"
	 viewBox="0 0 165.6 37.8" style="enable-background:new 0 0 165.6 37.8;" xml:space="preserve">
<style type="text/css">
	.st0{fill:url(#SVGID_1_);}
	.st1{fill:#222222;}
	.st2{fill:url(#SVGID_00000037670850232505708890000017741505041221865888_);}
	.st3{fill:url(#SVGID_00000014625450176725322850000006375572774491429567_);}
</style>
<linearGradient id="SVGID_1_" gradientUnits="userSpaceOnUse" x1="145.3395" y1="21.1747" x2="160.0795" y2="-5.9841" gradientTransform="matrix(1 0 0 -1 0 33.6759)">
	<stop  offset="0" style="stop-color:#C2570F"/>
	<stop  offset="0.5156" style="stop-color:#FFB546"/>
	<stop  offset="1" style="stop-color:#DE611A"/>
</linearGradient>
<path class="st0" d="M141.3,18.3c1.4-1.2,2.8-2.3,4.2-3.5c1.3,1,1.6,2.4,1.8,4c1.6-1.4,3.2-2.7,4.8-4c1.1,1.4,2.7,2.4,3.4,4.1
	c1.6-1.4,3.2-2.7,4.9-4.2c0.9,0.9,1.7,1.8,2.5,2.8c0.9,1.1,1.3,2.5,1.3,3.9c0,3.2,0,6.4,0,9.5c0,1.9-0.7,3.3-2,4.5
	c-0.9,0.8-1.9,1.4-3.1,1.9c0-0.3,0-0.5,0-0.7c0-5,0-10.1,0-15.1c0-0.7-0.1-1.4-0.8-1.7c-0.8-0.4-1.5-0.2-2.3,0.2
	c-0.1,0.1-0.2,0.3-0.2,0.4c0,3.8,0,7.6,0,11.4c0,0.7,0.3,1.3,0.9,1.8c-1.3,1.1-2.5,2.1-3.8,3.2c-0.2-0.2-0.4-0.3-0.6-0.5
	c-1.1-1.2-1.7-2.7-1.7-4.4c0-3.4,0-6.8,0-10.3c0-0.8-0.1-1.5-0.9-1.9c-0.9-0.4-1.7-0.2-2.5,0.3c-0.1,0.1-0.2,0.3-0.2,0.4
	c0,3.8,0,7.7,0,11.5c0,0.5,0.4,1,0.7,1.6c-1.2,1-2.5,2.1-3.8,3.2c-0.4-0.5-0.8-0.9-1.1-1.3c-0.7-1.1-1-2.3-1-3.6c0-3.8,0-7.6,0-11.4
	C141.9,19.7,141.8,19,141.3,18.3z"/>
<path class="st1" d="M58.4,14.8c1,0.8,1.4,1.6,1.8,4.2c0.8-0.7,1.6-1.4,2.4-2.1c0.8-0.7,1.6-1.4,2.4-2.1c1.5,1.5,3.1,2.9,3.6,5.2
	c0.1,0.5,0.2,1.1,0.2,1.6c0,3.1,0,6.2,0,9.4c0,1.9-0.6,3.4-2,4.6c-0.9,0.8-1.8,1.4-3,1.9c0-0.3,0-0.5,0-0.7c0-5,0-10.1,0-15.1
	c0-1.6-1-2.4-2.5-1.9c-0.2,0.1-0.3,0.1-0.5,0.2c-0.5,0.2-0.6,0.5-0.6,1.1c0,3.4,0,6.8,0,10.3c0,0.9,0.1,1.7,0.9,2.3
	c-1.3,1.1-2.6,2.2-3.9,3.3c-1.3-1.1-2-2.6-2.1-4.3C55,30.9,55,29.3,55,27.7c0-2.4,0-4.8,0-7.2c0-0.8-0.1-1.5-0.6-2.2
	C55.7,17.1,57.1,15.9,58.4,14.8z"/>
<linearGradient id="SVGID_00000173157678963159807240000009918238506054045885_" gradientUnits="userSpaceOnUse" x1="122.6056" y1="18.5601" x2="138.9085" y2="-2.3751" gradientTransform="matrix(1 0 0 -1 0 33.6759)">
	<stop  offset="0" style="stop-color:#C2570F"/>
	<stop  offset="0.5156" style="stop-color:#FFAB2D"/>
	<stop  offset="1" style="stop-color:#DE611A"/>
</linearGradient>
<path style="fill:url(#SVGID_00000173157678963159807240000009918238506054045885_);" d="M138.4,25.6c0,1.4,0,2.7,0,4.1
	c0,2-0.7,3.5-2.2,4.8c-3,2.6-8.1,2.6-11-0.1c-1.4-1.2-2.1-2.8-2.1-4.6c0-2.6,0-5.2,0-7.8c0-3.2,1.5-5.4,4.4-6.5
	c3.4-1.2,6.5-0.7,9.1,1.8c1.2,1.1,1.7,2.5,1.7,4.2C138.4,22.8,138.4,24.2,138.4,25.6z M128.3,25.8C128.3,25.8,128.3,25.8,128.3,25.8
	c-0.1,1.4-0.1,2.8-0.1,4.2c0,1.2,0.1,2.5,0.7,3.6c0.4,0.7,0.9,1.2,1.8,1.2c0.9,0,1.5-0.5,1.8-1.2c0.3-0.8,0.6-1.7,0.6-2.6
	c0.1-3.2,0.1-6.4,0.1-9.6c0-1.2-0.2-2.4-0.7-3.5c-0.4-0.7-0.9-1.3-1.8-1.3c-0.9,0-1.4,0.5-1.7,1.3c-0.3,0.8-0.6,1.6-0.7,2.5
	C128.2,22.2,128.3,24,128.3,25.8z"/>
<linearGradient id="SVGID_00000013195401840028640830000018395265933221963166_" gradientUnits="userSpaceOnUse" x1="105.5224" y1="19.3571" x2="121.5568" y2="-2.5212" gradientTransform="matrix(1 0 0 -1 0 33.6759)">
	<stop  offset="0" style="stop-color:#C2570F"/>
	<stop  offset="0.5156" style="stop-color:#FFAB2D"/>
	<stop  offset="1" style="stop-color:#DE611A"/>
</linearGradient>
<path style="fill:url(#SVGID_00000013195401840028640830000018395265933221963166_);" d="M121.2,31.3c0.1,0.6,0.1,1.2-0.5,1.6
	c-0.8,0.5-1.6,1.2-2.3,1.8c-2.6,2.3-7.9,2.3-10.8-1.1c-1.8-2.2-2.5-4.8-2.6-7.6c0-2.3,0.3-4.6,1.4-6.6c2.4-4.5,7-5.3,10.4-4.3
	c2.8,0.9,4.4,3.3,4.1,6.1c-0.2,1.4-1.2,2.4-2.5,2.5c-1,0.1-1.9-0.2-2.4-1.1c-0.6-1-0.5-2,0-2.9c0.3-0.5,0.7-0.9,1-1.3
	c0.5-0.6,0.4-1-0.2-1.4c-1.6-1-3.8-0.5-4.8,1.1c-0.6,1-0.9,2.1-1,3.2c-0.3,2.8-0.4,5.7,0.3,8.5c0.1,0.6,0.4,1.3,0.7,1.9
	c0.8,1.5,2.2,2.2,4,1.9c1.7-0.3,3.2-1,4.6-2C120.8,31.5,120.9,31.4,121.2,31.3C121.1,31.3,121.1,31.3,121.2,31.3z"/>
<path class="st1" d="M45.7,14.8c1.5,2.2,3.4,2.2,5.7,1.6c-1.1,1-2.1,2.1-3.3,3.1c-0.7,0.6-1.6,0.7-2.5,0.5c-0.8-0.2-1.4-0.7-1.7-1.5
	c-1,0.8-1,2.3,0.2,3.1c1.1,0.8,2.3,1.3,3.4,2c0.8,0.5,1.6,0.9,2.3,1.5c1,0.9,1.7,2,1.7,3.4c0,0.7-0.1,1.5-0.4,2.2
	c-1.2,2.9-3.2,4.8-6.2,5.6c-2.2,0.6-4.1-0.2-5.3-2.3c-0.8-1.4-0.8-1.4,0.3-2.4c1.1-1,2.3-2,3.4-3c0.1,0.6,0.2,1.2,0.3,1.7
	c0.4,1.6,1.5,2.5,2.8,2.4c1.2-0.1,1.9-1.3,1.3-2.4c-0.2-0.4-0.5-0.7-0.8-0.9c-1.2-0.7-2.3-1.4-3.5-2c-1.3-0.7-2.4-1.6-3.1-2.9
	c-1.1-2.1-0.7-4.3,1-5.8C42.8,17.3,44.3,16.1,45.7,14.8z"/>
<path class="st1" d="M94.2,16.3c-0.9,0.9-1.7,1.9-2.6,2.8c-0.6,0.6-1.4,1-2.3,1c-1.1,0-2-0.5-2.4-1.6c-0.7,0.6-0.9,1.4-0.5,2.2
	c0.2,0.4,0.5,0.8,0.9,1c1.1,0.7,2.2,1.3,3.3,1.9c1,0.5,2,1.1,2.8,2.1c1.1,1.4,1.5,3,0.8,4.8c-1.2,3.1-3.3,5.1-6.4,5.8
	c-2.2,0.5-4.1-0.4-5.2-2.6c-0.6-1.2-0.6-1.2,0.3-2c1.1-0.9,2.1-1.8,3.2-2.8c0.1-0.1,0.2-0.2,0.4-0.3c0.1,0.7,0.2,1.3,0.4,1.9
	c0.4,1.4,1.5,2.2,2.7,2.1c1.2-0.1,1.8-1.2,1.3-2.3c-0.2-0.4-0.5-0.8-0.9-1c-1.2-0.7-2.4-1.4-3.6-2.1c-1.6-0.9-2.9-2.1-3.5-4
	c-0.5-1.8-0.1-3.3,1.3-4.5c1.5-1.4,3-2.7,4.5-4C90.1,16.9,92.1,17,94.2,16.3z"/>
<path class="st1" d="M78.2,14.8c0,0.4,0,0.6,0,0.8c0,5.1,0,10.2,0,15.3c0,0.9,0.1,1.7,1,2.3c-1.3,1.1-2.5,2.1-3.8,3.2
	c-1.4-1.3-2.2-2.9-2.2-4.8c0-3.3,0-6.7,0-10c0-0.7-0.1-1.4-0.7-2C74.4,18,76.2,16.4,78.2,14.8z"/>
<path class="st1" d="M75.9,6.9c1.1,1.1,2.2,2.3,3.3,3.4c-1.1,1.1-2.2,2.3-3.3,3.4c-1.1-1.1-2.2-2.3-3.3-3.4
	C73.6,9.2,74.8,8,75.9,6.9z"/>
<path class="st1" d="M35.3,14.8c0,0.3,0,0.5,0,0.7c0,5.3,0,10.5,0,15.8c0,0.8,0.3,1.4,1,1.9c-1.3,1.1-2.5,2.1-3.8,3.2
	c-1.4-1.3-2.2-2.8-2.2-4.7c0-3.4,0-6.8,0-10.2c0-0.7-0.1-1.4-0.6-2C31.4,18,33.3,16.4,35.3,14.8z"/>
<path class="st1" d="M36.2,10.3c-1.1,1.1-2.3,2.3-3.3,3.4c-1.1-1.1-2.2-2.3-3.3-3.4c1.1-1.1,2.3-2.3,3.3-3.4
	C34,8,35.1,9.2,36.2,10.3z"/>
<path class="st1" d="M98.3,33.9c0-1.4,1.1-2.4,2.4-2.4c1.4,0,2.4,1.1,2.4,2.5c0,1.4-1.1,2.4-2.4,2.4C99.3,36.4,98.3,35.3,98.3,33.9z
	"/>
<path class="st1" d="M8,29.5c1.2-1.2,1.4-2.8,1.4-4.3c0-4.8,0-9.6,0-14.4c0-1.7,0.6-3.2,1.9-4.4c1.5-1.3,2.9-2.6,4.4-3.9
	c3-2.7,7.1-1.4,8,2.6c0.6,2.4,0,4.6-1.1,6.7c-1,1.9-2.4,3.4-4.1,4.6c-0.1,0.1-0.2,0.1-0.3,0.2c0.9,0.1,1.8,0.2,2.6,0.4
	c0.6,0.1,1.1,0.3,1.7,0.5c2.9,1.2,4.4,3.7,4.2,6.9c-0.2,4.9-2.8,8.1-7,10.2c-2.4,1.2-5,2-7.7,1.8c-0.6,0-1.2-0.1-1.7-0.4
	c-3-1.5-5.9-1.1-8.8,0.1c-0.2,0.1-0.3,0.1-0.5,0.2c0,0,0,0-0.1,0c0.9-1.3,1.9-2.4,3.1-3.4c1.8-1.5,3.8-2.5,6.1-2.6
	c1.8-0.1,3.5,0.3,5.2,1.1c0.2,0.1,0.4,0.2,0.7,0.3c0-0.3,0-0.5,0-0.7c0-6.6,0-13.2,0-19.8c0-0.8,0.1-1.6-0.8-2
	c0.4-0.4,0.8-0.8,1.1-1.1c0.4,0.4,0.7,0.7,1.1,1.1c0,0,0,0,0,0.1c-0.7,0.5-0.8,1.2-0.8,2c0.1,1.5,0,3.1,0,4.6c0,0.2,0,0.4,0,0.6
	c0.1,0,0.1,0.1,0.2,0.1c0.4-0.5,0.9-1,1.2-1.5c0.9-1.5,1.2-3.3,1.3-5c0.1-1.4-0.1-2.7-0.5-4c-0.2-0.4-0.4-0.9-0.7-1.3
	c-0.9-1.2-2.5-1.2-3.2,0.2c-0.4,0.7-0.6,1.5-0.6,2.2c-0.1,4.8-0.1,9.7,0,14.5c0,3.3-1.7,6.1-4.8,7.4C8.9,29.2,8.5,29.3,8,29.5z
	 M16.6,17.6c0,0.1-0.1,0.2-0.1,0.3c0,4.6,0,9.2,0,13.8c0,0.5,0.6,0.9,1,0.6c1.1-0.6,1.9-1.5,2.5-2.6c1.1-1.9,1.4-4,1.3-6.1
	c-0.1-1.5-0.5-2.8-1.4-4C19.2,18.3,18,17.7,16.6,17.6z"/>
<path class="st1" d="M8.5,8.9c-0.4,1.3-0.4,2.5-0.4,3.8c0,3.8,0,7.5,0,11.3c0.1,3.5-1.7,5.8-4.8,7.2c-0.3,0.1-0.6,0.3-1,0.4
	c0,0-0.1,0-0.2,0c1.2-1.1,1.2-2.4,1.2-3.8c0-1.7,0-3.5,0-5.2c0-0.2,0-0.4,0-0.6c-1.2-0.2-1.8,0.4-2.6,2.5c-0.7-2.1-1.3-4.1-0.4-6.2
	c0.5-1.1,1.3-1.7,3-2c0-0.4,0-0.9,0-1.3c0-1,0.3-1.8,0.9-2.5C5.5,11,7,9.9,8.5,8.9z"/>
<path class="st1" d="M-1,5.5c1-2.5,2.1-4.8,5-5.4c0.9-0.2,1.7,0,2.5,0.4c0.6,0.3,1.2,0.6,1.7,1.1c1.5,1.3,3.1,1.3,4.7,0.4
	c0.1-0.1,0.3-0.1,0.4-0.2c0,0.1,0,0.1,0,0.2c-0.8,1.5-1.8,2.9-3.2,3.9c-2,1.5-3.8,1.5-5.8,0C4.2,5.7,4.1,5.6,4,5.6
	C2.3,4.2,1.1,4.1-0.8,5.3C-0.8,5.4-0.9,5.4-1,5.5z"/>
</svg>
