<svg width="190" height="44" viewBox="0 0 190 44" fill="none" xmlns="http://www.w3.org/2000/svg">
<path d="M163.642 21.5313C165.266 20.169 166.841 18.848 168.469 17.4832C169.979 18.6183 170.359 20.2657 170.524 22.1269C172.376 20.5603 174.165 19.0466 176.008 17.4883C177.329 19.0612 179.095 20.1938 179.975 22.2567C181.862 20.6602 183.71 19.0955 185.627 17.4736C186.615 18.5483 187.638 19.539 188.516 20.6481C189.548 21.9525 189.992 23.5044 189.987 25.19C189.976 28.8487 189.943 32.5074 189.999 36.1654C190.032 38.2989 189.23 39.9813 187.675 41.3417C186.638 42.2503 185.488 42.9732 184.089 43.5C184.089 43.15 184.089 42.9019 184.089 42.6537C184.089 36.8558 184.084 31.0579 184.095 25.26C184.096 24.4442 183.988 23.7004 183.189 23.3002C182.3 22.8554 181.419 23.0177 180.585 23.4758C180.465 23.542 180.379 23.7844 180.378 23.946C180.367 28.3104 180.366 32.6747 180.374 37.0397C180.375 37.8834 180.757 38.5579 181.452 39.1357C179.995 40.3841 178.57 41.6064 177.094 42.872C176.865 42.6601 176.635 42.4807 176.445 42.2656C175.18 40.8384 174.538 39.1649 174.534 37.2408C174.526 33.3047 174.509 29.3685 174.507 25.4318C174.507 24.5403 174.449 23.689 173.51 23.2671C172.504 22.8153 171.567 23.087 170.691 23.6438C170.57 23.7208 170.491 23.9607 170.491 24.1255C170.481 28.5324 170.456 32.9407 170.517 37.347C170.525 37.9362 170.977 38.5197 171.276 39.2305C169.937 40.3478 168.447 41.5905 166.855 42.9191C166.416 42.3922 165.95 41.9309 165.6 41.3932C164.775 40.1308 164.41 38.7106 164.407 37.202C164.397 32.816 164.391 28.43 164.405 24.0447C164.407 23.1386 164.265 22.3012 163.642 21.5313Z" fill="url(#paint0_linear_1128_17404)"/>
<path d="M68.3695 17.4736C69.5719 18.3448 70.0048 19.3621 70.404 22.2507C71.3393 21.4378 72.2354 20.6596 73.1303 19.8802C74.0342 19.0932 74.9363 18.3043 75.877 17.4831C77.5461 19.2533 79.4776 20.7938 79.9715 23.4256C80.0842 24.0259 80.1445 24.6472 80.1469 25.259C80.1632 28.853 80.1084 32.4483 80.1723 36.0411C80.2109 38.2313 79.4426 39.9604 77.8887 41.3579C76.8822 42.2632 75.7606 42.961 74.4424 43.5C74.4424 43.1849 74.4424 42.9388 74.4424 42.6934C74.4424 36.9085 74.4424 31.1242 74.4424 25.3393C74.4424 23.4597 73.31 22.6063 71.5902 23.1927C71.3984 23.2579 71.2169 23.3553 71.0288 23.4319C70.4981 23.6476 70.3069 24.012 70.3118 24.6428C70.3437 28.5772 70.3419 32.5116 70.3184 36.446C70.3124 37.4658 70.3775 38.4129 71.3218 39.0474C69.804 40.3507 68.349 41.5995 66.8728 42.8667C65.3622 41.5698 64.6115 39.8825 64.4963 37.9251C64.3865 36.0601 64.4251 34.1849 64.4185 32.3136C64.4083 29.5489 64.4028 26.7843 64.4239 24.0196C64.4312 23.1206 64.3094 22.2855 63.6997 21.5067C65.2718 20.1491 66.8257 18.8066 68.3695 17.4736Z" fill="#222222"/>
<path d="M160.341 29.9284C160.341 31.4917 160.323 33.0556 160.345 34.6188C160.376 36.8688 159.498 38.6894 157.828 40.1438C154.359 43.1645 148.54 43.1002 145.141 40.0043C143.574 38.578 142.762 36.8147 142.774 34.6685C142.79 31.67 142.778 28.6716 142.778 25.6731C142.778 22.0395 144.486 19.4404 147.895 18.2071C151.752 16.812 155.322 17.3599 158.363 20.2564C159.704 21.533 160.339 23.174 160.34 25.0443C160.342 26.6732 160.341 28.3008 160.341 29.9284ZM148.757 30.1501C148.72 30.1501 148.682 30.1501 148.645 30.1501C148.645 31.7567 148.616 33.3639 148.653 34.9692C148.687 36.4063 148.818 37.839 149.48 39.1532C149.913 40.0138 150.57 40.5852 151.579 40.5769C152.559 40.5693 153.28 40.0412 153.608 39.1685C153.965 38.22 154.324 37.2071 154.354 36.2127C154.467 32.5326 154.473 28.848 154.458 25.1647C154.453 23.7722 154.248 22.3847 153.6 21.1171C153.17 20.2768 152.577 19.6296 151.543 19.6379C150.539 19.6455 149.89 20.2507 149.554 21.1011C149.197 22.0051 148.845 22.9695 148.792 23.9244C148.679 25.9941 148.757 28.074 148.757 30.1501Z" fill="url(#paint1_linear_1128_17404)"/>
<path d="M140.515 36.5022C140.63 37.2349 140.668 37.8722 139.904 38.388C138.98 39.0132 138.112 39.7326 137.283 40.4786C134.278 43.1779 128.163 43.1753 124.884 39.232C122.76 36.6784 121.966 33.7095 121.911 30.4823C121.866 27.818 122.243 25.2364 123.531 22.8514C126.347 17.6354 131.623 16.7361 135.516 17.9585C138.747 18.9729 140.609 21.8007 140.241 24.975C140.055 26.574 138.903 27.7366 137.411 27.839C136.248 27.9192 135.254 27.5954 134.629 26.5708C133.958 25.4711 134.006 24.3098 134.619 23.212C134.916 22.679 135.376 22.2325 135.777 21.7587C136.353 21.0769 136.288 20.6234 135.525 20.1343C133.694 18.9596 131.172 19.5371 130.036 21.4051C129.343 22.5455 129.055 23.8207 128.905 25.1207C128.528 28.3879 128.494 31.652 129.228 34.8804C129.396 35.622 129.673 36.3598 130.023 37.0365C130.943 38.8148 132.533 39.5233 134.633 39.2104C136.629 38.9134 138.36 38.0446 139.949 36.8539C140.103 36.7382 140.259 36.625 140.416 36.5124C140.429 36.5029 140.454 36.5079 140.515 36.5022Z" fill="url(#paint2_linear_1128_17404)"/>
<path d="M53.7587 17.4736C55.4466 20.0172 57.7105 20.0103 60.2636 19.3234C59.0113 20.5133 57.8016 21.7564 56.4916 22.8724C55.6896 23.5556 54.6761 23.6959 53.6408 23.4298C52.7003 23.1884 52.0629 22.5842 51.685 21.666C50.4953 22.6222 50.5706 24.312 51.9359 25.2543C53.1882 26.1188 54.5558 26.8 55.8567 27.5906C56.7505 28.1341 57.6868 28.6384 58.4797 29.3171C59.6347 30.3061 60.3875 31.6244 60.4051 33.2194C60.4143 34.0466 60.2915 34.9415 59.9817 35.6954C58.6194 39.0075 56.2978 41.2566 52.8898 42.154C50.3264 42.8283 48.2114 41.8993 46.8066 39.5522C45.8448 37.9452 45.8442 37.9445 47.2028 36.7659C48.5 35.6404 49.7996 34.5181 51.1381 33.3597C51.2572 34.0662 51.3204 34.7146 51.4802 35.3358C51.9395 37.1224 53.1882 38.1619 54.7047 38.0741C56.1344 37.9913 56.8969 36.5776 56.1617 35.2929C55.9308 34.889 55.5784 34.5029 55.1926 34.2634C53.862 33.4393 52.504 32.6614 51.1351 31.9075C49.6635 31.0967 48.376 30.0912 47.5515 28.5461C46.2567 26.1194 46.7039 23.6497 48.7454 21.8682C50.4042 20.423 52.055 18.9682 53.7587 17.4736Z" fill="#222222"/>
<path d="M109.509 19.198C108.492 20.2907 107.522 21.4087 106.471 22.4358C105.763 23.1262 104.888 23.5487 103.874 23.5317C102.58 23.5102 101.617 22.9392 101.081 21.6734C100.254 22.3139 100.005 23.2563 100.501 24.2044C100.736 24.6529 101.087 25.1057 101.496 25.3698C102.72 26.1593 103.976 26.904 105.262 27.5755C106.456 28.1989 107.6 28.8678 108.466 29.9529C109.777 31.5984 110.225 33.4459 109.437 35.4716C108.072 38.9829 105.653 41.3124 102.088 42.1935C99.5334 42.8245 97.389 41.7267 96.0608 39.2507C95.3244 37.8781 95.3238 37.8775 96.4529 36.8953C97.6716 35.8348 98.8902 34.7755 100.111 33.7182C100.245 33.6026 100.394 33.5066 100.535 33.4023C100.683 34.171 100.759 34.9107 100.971 35.6049C101.475 37.2591 102.677 38.1605 104.128 38.0594C105.476 37.9653 106.231 36.6641 105.602 35.4154C105.377 34.9669 105.005 34.5254 104.594 34.2658C103.239 33.4118 101.846 32.6216 100.448 31.846C98.5889 30.8145 97.0731 29.4539 96.465 27.2678C95.9023 25.2453 96.3845 23.4799 97.9148 22.0922C99.6326 20.5346 101.388 19.0224 103.146 17.4736C104.809 19.9869 107.052 20.0337 109.509 19.198Z" fill="#222222"/>
<path d="M91.1384 17.4735C91.1384 17.8984 91.1384 18.1443 91.1384 18.3908C91.1384 24.261 91.1433 30.1312 91.1334 36.0019C91.1315 37.0407 91.3023 37.9884 92.2538 38.684C90.7751 39.9241 89.3417 41.127 87.8618 42.3683C86.1999 40.8934 85.3292 39.0848 85.3236 36.8809C85.3137 33.03 85.3155 29.1785 85.3242 25.3276C85.3261 24.4889 85.1578 23.7178 84.5659 22.9999C86.7166 21.1912 88.8592 19.3899 91.1384 17.4735Z" fill="#222222"/>
<path d="M88.4095 8.4209C89.6663 9.71651 90.9936 11.0852 92.2538 12.3845C91.0063 13.6678 89.6791 15.0334 88.4068 16.342C87.1627 15.0594 85.8268 13.6814 84.5659 12.3821C85.8134 11.0963 87.1419 9.72766 88.4095 8.4209Z" fill="#222222"/>
<path d="M41.7503 17.4735C41.7503 17.8529 41.7503 18.072 41.7503 18.2917C41.7478 24.3461 41.7478 30.3999 41.7391 36.4543C41.7378 37.345 42.0441 38.0778 42.8324 38.6875C41.3602 39.9216 39.9171 41.1304 38.4406 42.3683C36.8006 40.9261 35.9111 39.1498 35.8931 36.9984C35.8601 33.0873 35.8744 29.1757 35.8869 25.2646C35.8893 24.4427 35.7154 23.7 35.1445 23.0129C37.3112 21.1964 39.4705 19.3854 41.7503 17.4735Z" fill="#222222"/>
<path d="M42.8324 12.3756C41.5591 13.6927 40.2335 15.0632 38.9965 16.342C37.7514 15.0601 36.4104 13.6791 35.1445 12.3762C36.4117 11.0751 37.7561 9.69412 38.9958 8.4209C40.2369 9.70031 41.5645 11.0689 42.8324 12.3756Z" fill="#222222"/>
<path d="M114.219 39.5214C114.222 37.9435 115.427 36.7098 116.963 36.7104C118.539 36.7111 119.721 37.9441 119.71 39.5755C119.698 41.1521 118.481 42.3821 116.946 42.3682C115.436 42.3544 114.215 41.0805 114.219 39.5214Z" fill="#222222"/>
<path d="M10.3755 34.4029C11.7068 32.9732 11.9661 31.2072 11.9786 29.4113C12.0162 23.8767 11.9987 18.3415 11.9855 12.8063C11.9805 10.8087 12.6214 9.12122 14.1156 7.78909C15.7958 6.29108 17.4716 4.78797 19.1336 3.27019C22.546 0.153595 27.2722 1.67138 28.3328 6.22473C28.9705 8.96299 28.3842 11.4965 27.1206 13.9151C25.9804 16.0989 24.3415 17.8317 22.3725 19.2557C22.2735 19.3272 22.1783 19.4044 22.0217 19.525C23.0867 19.6736 24.0778 19.775 25.0532 19.962C25.7104 20.0883 26.3631 20.2874 26.9859 20.5381C30.3137 21.8798 32.0071 24.7763 31.8385 28.453C31.5792 34.1095 28.5759 37.8162 23.8353 40.2367C21.0682 41.6493 18.1093 42.522 14.955 42.3459C14.2928 42.3089 13.5805 42.21 12.9948 41.921C9.57925 40.2367 6.2132 40.6495 2.84339 42.0289C2.6686 42.1003 2.49193 42.166 2.31527 42.2311C2.30023 42.2368 2.27705 42.219 2.19686 42.1896C3.22428 40.7018 4.4008 39.3825 5.77153 38.2462C7.82637 36.5434 10.1161 35.4008 12.8056 35.2183C14.898 35.0767 16.8539 35.5915 18.7358 36.4739C18.9613 36.5798 19.1825 36.6952 19.5057 36.856C19.5057 36.5313 19.5057 36.2863 19.5057 36.0413C19.5057 28.4683 19.5014 20.8947 19.5114 13.3218C19.5126 12.4305 19.6216 11.5264 18.5479 11.0671C19.0478 10.5733 19.4638 10.1618 19.8653 9.76431C20.2688 10.1739 20.6666 10.5771 21.0863 11.0033C21.0889 10.9873 21.0964 11.046 21.0738 11.062C20.2619 11.6451 20.1266 12.4566 20.1617 13.4155C20.2256 15.1726 20.1798 16.9334 20.1798 18.6924C20.1798 18.9208 20.1798 19.1492 20.1798 19.3776C20.2513 19.4171 20.322 19.4567 20.3935 19.4969C20.8677 18.9227 21.4127 18.3938 21.8018 17.7654C22.8931 16.0052 23.1575 14.0038 23.2521 11.9762C23.3254 10.401 23.1681 8.84433 22.645 7.35206C22.464 6.83465 22.2165 6.31532 21.8914 5.88021C20.8502 4.48748 18.9964 4.54171 18.1588 6.06906C17.7472 6.81998 17.5017 7.7674 17.4923 8.62932C17.4321 14.185 17.4002 19.7431 17.4753 25.2981C17.5267 29.0674 15.537 32.2637 11.8997 33.8294C11.4023 34.0431 10.8842 34.2128 10.3755 34.4029ZM20.2481 20.7027C20.2187 20.8392 20.1867 20.9196 20.1867 21C20.1836 26.2934 20.1792 31.5875 20.1861 36.8809C20.1867 37.4889 20.8639 37.8704 21.3871 37.5674C22.6262 36.8509 23.5703 35.8276 24.267 34.5739C25.4861 32.3792 25.8645 29.9912 25.7254 27.5088C25.6314 25.8321 25.1703 24.2589 24.1592 22.9025C23.1832 21.5946 21.8751 20.8762 20.2481 20.7027Z" fill="#222222"/>
<path d="M10.9818 10.6843C10.516 12.1314 10.4755 13.5932 10.4774 15.0637C10.4842 19.389 10.4238 23.7155 10.496 28.0396C10.5639 32.0662 8.56409 34.6574 5.00162 36.2689C4.64102 36.4321 4.26671 36.5645 3.89676 36.7068C3.86438 36.7191 3.81891 36.6994 3.71116 36.6864C5.06453 35.4684 5.11248 33.8791 5.11311 32.2768C5.11435 30.2903 5.11311 28.3031 5.11311 26.3166C5.11311 26.0912 5.11311 25.8665 5.11311 25.6522C3.75663 25.4065 3.03915 26.0888 2.07318 28.5698C1.23674 26.1313 0.597121 23.8024 1.63721 21.3829C2.20459 20.0627 3.17306 19.4672 5.11311 19.1384C5.11311 18.6507 5.11996 18.1427 5.11186 17.6346C5.0938 16.5336 5.42887 15.536 6.14448 14.7103C7.52898 13.1135 9.20185 11.8426 10.9818 10.6843Z" fill="#222222"/>
<path d="M0 6.80409C1.118 3.88884 2.45545 1.23013 5.70974 0.578448C6.73305 0.373214 7.68739 0.583112 8.58843 1.06288C9.26374 1.4227 9.95473 1.79652 10.536 2.29895C12.2704 3.79755 14.0749 3.73691 15.9667 2.7374C16.1166 2.6581 16.2664 2.57881 16.4426 2.48552C16.4545 2.56948 16.4884 2.64211 16.4671 2.68009C15.4908 4.40326 14.3408 5.96716 12.7695 7.12927C10.4463 8.8471 8.42729 8.84843 6.09724 7.15259C5.99316 7.07662 5.89095 6.99733 5.79 6.9167C3.80294 5.3308 2.4172 5.26084 0.27025 6.63817C0.181212 6.69481 0.0902924 6.74878 0 6.80409Z" fill="#222222"/>
<defs>
<linearGradient id="paint0_linear_1128_17404" x1="163.756" y1="17.3689" x2="180.712" y2="48.6108" gradientUnits="userSpaceOnUse">
<stop stop-color="#C2570F"/>
<stop offset="0.515625" stop-color="#FFB546"/>
<stop offset="1" stop-color="#DE611A"/>
</linearGradient>
<linearGradient id="paint1_linear_1128_17404" x1="142.85" y1="17.3734" x2="161.604" y2="41.456" gradientUnits="userSpaceOnUse">
<stop stop-color="#C2570F"/>
<stop offset="0.515625" stop-color="#FFAB2D"/>
<stop offset="1" stop-color="#DE611A"/>
</linearGradient>
<linearGradient id="paint2_linear_1128_17404" x1="121.989" y1="17.3734" x2="140.434" y2="42.5409" gradientUnits="userSpaceOnUse">
<stop stop-color="#C2570F"/>
<stop offset="0.515625" stop-color="#FFAB2D"/>
<stop offset="1" stop-color="#DE611A"/>
</linearGradient>
</defs>
</svg>
