<svg width="158" height="49" viewBox="0 0 158 49" fill="none" xmlns="http://www.w3.org/2000/svg">
<g clip-path="url(#clip0_1543_13560)">
<path d="M157.65 42.4679V42.5287C157.614 45.8662 154.683 48.6051 151.017 48.6051H6.9844C3.29621 48.6054 0.35 45.8331 0.35 42.4679V7.44168C0.35 4.07707 3.29617 1.30508 6.9844 1.30508H151.017C154.705 1.30508 157.65 4.07698 157.65 7.44168V42.4679Z" fill="black" stroke="#A6A6A6" stroke-width="0.7"/>
<path d="M15.8315 10.1963V42.7019L31.8313 26.4492L15.8315 10.1963Z" fill="url(#paint0_linear_1543_13560)"/>
<path d="M36.1285 22.0836L29.6699 18.2637L15.8315 10.0781V10.1963L31.8313 26.4493L36.1285 22.0836Z" fill="url(#paint1_linear_1543_13560)"/>
<path d="M15.8315 42.7019V42.8201L29.6699 34.6342L36.1282 30.8143L31.8313 26.4492L15.8315 42.7019Z" fill="url(#paint2_linear_1543_13560)"/>
<path d="M36.1292 22.084L31.832 26.4496L36.1289 30.8146L43.5099 26.4493L36.1292 22.084Z" fill="url(#paint3_linear_1543_13560)"/>
<path d="M116.56 32.8033C115.959 32.8033 115.411 32.6897 114.914 32.4627C114.418 32.2355 114 31.8861 113.663 31.415H113.563C113.63 31.967 113.663 32.4903 113.663 32.9846V36.8746H112.267V23.1775H113.403L113.596 24.4714H113.663C114.023 23.9536 114.441 23.5803 114.918 23.3502C115.395 23.1201 115.943 23.0051 116.56 23.0051C117.783 23.0051 118.728 23.4337 119.393 24.2904C120.058 25.147 120.39 26.3491 120.39 27.8954C120.39 29.4481 120.052 30.6539 119.376 31.5143C118.7 32.3738 117.761 32.8033 116.56 32.8033ZM116.358 24.2212C115.415 24.2212 114.733 24.4889 114.312 25.0234C113.891 25.5581 113.675 26.4094 113.663 27.5767V27.8955C113.663 29.224 113.88 30.1742 114.312 30.7466C114.744 31.319 115.438 31.6044 116.391 31.6044C117.189 31.6044 117.813 31.2742 118.265 30.6129C118.717 29.9519 118.943 29.0404 118.943 27.8783C118.943 26.7 118.717 25.7951 118.265 25.1657C117.814 24.5357 117.177 24.2212 116.358 24.2212ZM123.627 32.6306H122.229V19.2098H123.627V32.6306ZM131.662 32.6306L131.384 31.2851H131.316C130.856 31.8778 130.397 32.2791 129.94 32.4883C129.482 32.6986 128.911 32.8033 128.227 32.8033C127.312 32.8033 126.595 32.5617 126.076 32.0789C125.556 31.5961 125.297 30.9092 125.297 30.0176C125.297 28.1089 126.787 27.1082 129.767 27.0158L131.334 26.9639V26.3775C131.334 25.6356 131.178 25.0876 130.866 24.7345C130.555 24.3804 130.056 24.2037 129.372 24.2037C128.603 24.2037 127.733 24.4453 126.762 24.9281L126.332 23.8328C126.787 23.5797 127.285 23.3815 127.827 23.2378C128.369 23.094 128.912 23.0221 129.456 23.0221C130.556 23.0221 131.371 23.2719 131.902 23.7723C132.432 24.2726 132.697 25.0747 132.697 26.179V32.6303H131.662V32.6306H131.662ZM128.505 31.6219C129.374 31.6219 130.057 31.3774 130.554 30.8889C131.051 30.4003 131.3 29.7158 131.3 28.8356V27.9818L129.901 28.0418C128.79 28.0828 127.99 28.2589 127.498 28.5731C127.007 28.8864 126.761 29.3738 126.761 30.0351C126.761 30.5523 126.914 30.9465 127.22 31.2162C127.526 31.4867 127.954 31.6219 128.505 31.6219ZM133.509 23.1775H135.007L137.028 28.5685C137.471 29.7992 137.746 30.6875 137.853 31.234H137.92C137.993 30.9402 138.147 30.439 138.379 29.7281C138.612 29.0178 139.374 26.8348 140.665 23.1775H142.164L138.198 33.942C137.806 35.0057 137.347 35.7605 136.821 36.2069C136.297 36.6522 135.652 36.8746 134.89 36.8746C134.463 36.8746 134.042 36.8258 133.626 36.7282V35.5812C133.935 35.6501 134.28 35.6848 134.662 35.6848C135.622 35.6848 136.306 35.1328 136.716 34.0286L137.23 32.6833L133.509 23.1775ZM90.6706 24.056C91.1142 24.4321 92.0405 25.2222 92.0405 26.7258C92.0405 28.1881 91.2298 28.8815 90.4191 29.533C90.1682 29.7898 89.8786 30.0675 89.8786 30.503C89.8786 30.937 90.1679 31.1746 90.381 31.3528L91.0761 31.9053C91.9251 32.6372 92.6964 33.3099 92.6964 34.6747C92.6964 36.5331 90.94 38.4108 87.621 38.4108C84.822 38.4108 83.4717 37.047 83.4717 35.5829C83.4717 34.8715 83.8175 33.8636 84.9578 33.1708C86.1536 32.4194 87.7758 32.3216 88.6439 32.2608C88.3729 31.9053 88.0648 31.5295 88.0648 30.9176C88.0648 30.5819 88.1617 30.3839 88.2578 30.1455C88.0447 30.1656 87.8327 30.1854 87.6395 30.1854C85.5943 30.1854 84.4364 28.6233 84.4364 27.0818C84.4364 26.1721 84.8422 25.1631 85.6711 24.4324C86.7716 23.5032 88.0839 23.3445 89.1271 23.3445H93.1019L91.8666 24.0563H90.6706V24.056H90.6706ZM89.2998 32.8354C89.1455 32.8148 89.0486 32.8148 88.8565 32.8148C88.6829 32.8148 87.6392 32.8552 86.8296 33.1326C86.4051 33.2896 85.1695 33.7641 85.1695 35.1687C85.1695 36.5719 86.5019 37.5818 88.5672 37.5818C90.4188 37.5818 91.4043 36.6703 91.4043 35.4456C91.4043 34.4351 90.7672 33.9035 89.2998 32.8354ZM89.8598 29.078C90.3031 28.6227 90.3413 27.9907 90.3413 27.6344C90.3413 26.2111 89.5118 23.9966 87.9102 23.9966C87.4078 23.9966 86.8679 24.2534 86.5591 24.6493C86.2314 25.0644 86.1339 25.5977 86.1339 26.1124C86.1339 27.437 86.8867 29.632 88.5473 29.632C89.0298 29.632 89.5499 29.3947 89.8598 29.078ZM78.52 32.519C75.4567 32.519 73.8187 30.0709 73.8187 27.8596C73.8187 25.2732 75.8801 23.0633 78.8101 23.0633C81.6413 23.0633 83.4142 25.3326 83.4142 27.7219C83.4145 30.0503 81.6617 32.519 78.52 32.519ZM80.9283 30.9201C81.3915 30.2878 81.5072 29.4986 81.5072 28.728C81.5072 26.9903 80.6978 23.6744 78.3083 23.6744C77.6726 23.6744 77.0369 23.9315 76.5746 24.3469C75.8229 25.0369 75.6874 25.9059 75.6874 26.7557C75.6874 28.7085 76.6317 31.9254 78.9639 31.9254C79.7152 31.9254 80.4861 31.551 80.9283 30.9201ZM68.076 32.519C65.012 32.519 63.3738 30.0709 63.3738 27.8596C63.3738 25.2732 65.436 23.0633 68.3652 23.0633C71.1973 23.0633 72.9699 25.3326 72.9699 27.7219C72.9702 30.0503 71.2171 32.519 68.076 32.519ZM70.4848 30.9201C70.9472 30.2878 71.0631 29.4986 71.0631 28.728C71.0631 26.9903 70.2532 23.6744 67.8637 23.6744C67.2283 23.6744 66.592 23.9315 66.1299 24.3469C65.3783 25.0369 65.2436 25.9059 65.2436 26.7557C65.2436 28.7085 66.1874 31.9254 68.5198 31.9254C69.2714 31.9254 70.0419 31.551 70.4848 30.9201ZM61.902 32.2094L59.1312 32.8644C58.0072 33.0434 57.0002 33.2009 55.9352 33.2009C50.5876 33.2009 48.5542 29.1718 48.5542 26.016C48.5542 22.1663 51.4403 18.5947 56.381 18.5947C57.4275 18.5947 58.434 18.7531 59.3444 19.0113C60.7972 19.4282 61.4752 19.9437 61.9017 20.2418L60.2931 21.8096L59.6154 21.9677L60.0996 21.1736C59.4413 20.5192 58.2391 19.3088 55.9539 19.3088C52.8928 19.3088 50.587 21.6914 50.587 25.1642C50.587 28.8944 53.2222 32.4074 57.4446 32.4074C58.6857 32.4074 59.3237 32.1498 59.9053 31.9111V28.7165L56.9806 28.8752L58.5297 28.0208H62.6371L62.1338 28.5169C61.9972 28.6365 61.9784 28.6767 61.9398 28.8339C61.9196 29.0129 61.9014 29.589 61.9014 29.7872V32.2094H61.902V32.2094Z" fill="#F9F9F9"/>
<path d="M96.7936 31.6374C96.154 31.5777 96.0201 31.4592 96.0201 30.6843V19.4514C96.024 19.4086 96.0265 19.3647 96.0304 19.3234C96.1086 18.6291 96.3021 18.5101 96.9033 18.1523H94.1321L92.6787 18.867H94.1598V18.8759L94.1587 18.8687V31.1215C94.1587 31.5177 94.0823 31.578 93.6361 32.1727H97.0655L97.7824 31.7372C97.4533 31.6962 97.1235 31.677 96.7936 31.6374ZM104.677 31.8198C104.466 31.9383 104.254 32.0769 104.043 32.1747C103.407 32.4702 102.753 32.5494 102.175 32.5494C101.561 32.5494 100.598 32.5087 99.6161 31.7802C98.2512 30.7939 97.6547 29.099 97.6547 27.6212C97.6547 24.5666 100.079 23.0688 102.06 23.0688C102.753 23.0688 103.466 23.2458 104.043 23.6211C105.004 24.2703 105.254 25.1178 105.388 25.5713L100.868 27.4445L99.3862 27.5627C99.8664 30.0658 101.521 31.5232 103.349 31.5232C104.33 31.5232 105.042 31.1692 105.696 30.8346L104.677 31.8198ZM102.869 25.9454C103.234 25.808 103.426 25.6893 103.426 25.4136C103.426 24.6258 102.561 23.7186 101.521 23.7186C100.75 23.7186 99.3086 24.33 99.3086 26.4581C99.3086 26.7932 99.3472 27.1478 99.3671 27.5038L102.869 25.9454ZM106.534 23.2036V24.5041H106.379V23.2036H105.959V23.0688H106.953V23.2036H106.534ZM108.264 24.5041V23.1916H108.257L107.866 24.5041H107.746L107.351 23.1916H107.346V24.5041H107.206V23.0688H107.446L107.803 24.229H107.808L108.159 23.0688H108.403V24.5041H108.264Z" fill="#F9F9F9"/>
<path d="M52.4021 14.7299H51.4393C51.4393 14.5942 51.348 14.21 51.1654 13.5771H49.7756C49.5871 14.1997 49.4928 14.5838 49.4928 14.7299H48.5874C48.5874 14.6498 48.8215 13.9922 49.2897 12.7575C49.7579 11.5227 49.9921 10.8425 49.9921 10.7174H51.1293C51.1293 10.8345 51.3413 11.5046 51.7656 12.7282C52.1898 13.9518 52.4021 14.6188 52.4021 14.7299ZM51.0122 12.9884C50.6692 11.9283 50.4978 11.3552 50.4978 11.2688H50.4497C50.4497 11.3488 50.2721 11.922 49.9173 12.9884H51.0122ZM56.2812 14.7299H55.5382C55.5382 14.6455 55.2624 14.2008 54.711 13.3955C54.1336 12.5469 53.8045 11.9668 53.7244 11.6544H53.6763C53.7264 12.1042 53.7516 12.511 53.7516 12.8748C53.7516 13.3824 53.7656 14.0009 53.7936 14.7302H53.0535C53.0834 14.0933 53.0986 13.3938 53.0986 12.6316C53.0986 11.8817 53.0835 11.2436 53.0535 10.7177H53.9468C53.9468 10.8267 54.1944 11.2614 54.6897 12.0213C55.2171 12.8287 55.5201 13.3763 55.5982 13.6641H55.6433C55.5952 13.2059 55.571 12.7951 55.571 12.4313C55.571 11.8748 55.557 11.3033 55.529 10.7177H56.2812C56.2529 11.2272 56.2392 11.8653 56.2392 12.6316C56.2389 13.4036 56.2529 14.103 56.2812 14.7299ZM60.6411 12.5848C60.6411 13.1683 60.4585 13.6779 60.0936 14.1134C59.7284 14.5491 59.2171 14.7666 58.5593 14.7666C58.2625 14.7666 57.8533 14.7542 57.3319 14.7296C57.3579 14.1091 57.3711 13.4093 57.3711 12.631C57.3711 11.8834 57.3579 11.2453 57.3319 10.7171H57.8584C57.9446 10.7171 58.0729 10.714 58.2434 10.7079C58.4137 10.7019 58.5251 10.6988 58.5772 10.6988C59.3011 10.6988 59.8259 10.8838 60.1521 11.2536C60.4781 11.6234 60.6411 12.0669 60.6411 12.5848ZM59.82 12.7173C59.82 12.3228 59.7077 11.9906 59.4831 11.7201C59.2585 11.4501 58.9155 11.315 58.4543 11.315C58.368 11.315 58.2498 11.3242 58.0992 11.3428C58.119 11.7539 58.1291 12.1831 58.1291 12.631C58.1291 13.1221 58.1392 13.609 58.1591 14.0918C58.2878 14.1184 58.4187 14.1318 58.55 14.132C58.9813 14.132 59.3005 13.9946 59.508 13.7203C59.7156 13.446 59.82 13.1118 59.82 12.7173ZM64.6616 14.7299H63.7711C63.5384 14.0026 63.36 13.5536 63.2357 13.3832C63.1113 13.2125 62.9108 13.1273 62.6342 13.1273C62.5177 13.1273 62.4065 13.1284 62.3003 13.1304C62.3003 13.6586 62.3093 14.1917 62.3275 14.7299H61.4913C61.5173 14.1093 61.5305 13.4096 61.5305 12.6313C61.5305 11.8836 61.5174 11.2456 61.4913 10.7174H62.0116C62.0718 10.7174 62.1976 10.7142 62.3891 10.7082C62.5807 10.7022 62.7577 10.699 62.9201 10.699C63.8406 10.699 64.3009 11.0215 64.3009 11.6667C64.3009 12.1783 64.0383 12.5346 63.5129 12.7363V12.7824C63.7154 12.8398 63.8929 13.0019 64.0453 13.2676C64.1973 13.5335 64.4029 14.021 64.6616 14.7299ZM63.5336 11.8945C63.5336 11.4857 63.2768 11.2811 62.7635 11.2811C62.575 11.2811 62.4084 11.2955 62.2642 11.3242C62.2863 11.6426 62.2972 12.0578 62.2972 12.5693C62.4076 12.5736 62.5009 12.5753 62.577 12.5753C63.2146 12.5756 63.5336 12.3487 63.5336 11.8945ZM68.9736 12.6496C68.9736 13.2802 68.7851 13.8032 68.408 14.2183C68.0307 14.6332 67.5645 14.8409 67.0092 14.8409C66.4796 14.8409 66.0363 14.6504 65.6795 14.2691C65.3225 13.8881 65.1441 13.4036 65.1441 12.8163C65.1441 12.1857 65.3326 11.6627 65.7098 11.2476C66.0867 10.8327 66.553 10.625 67.1086 10.625C67.6381 10.625 68.0812 10.8149 68.4382 11.1951C68.7953 11.5752 68.9736 12.0598 68.9736 12.6496ZM68.1436 12.7388C68.1436 12.3094 68.0363 11.9611 67.8218 11.694C67.6071 11.4269 67.3424 11.2935 67.0277 11.2935C66.7347 11.2935 66.4861 11.428 66.2816 11.6971C66.0772 11.9662 65.9744 12.3062 65.9744 12.7173C65.9744 13.1445 66.0822 13.4922 66.2978 13.7605C66.5135 14.0287 66.7776 14.1627 67.0907 14.1627C67.3833 14.1627 67.6323 14.0276 67.8367 13.7573C68.0411 13.4873 68.1436 13.1476 68.1436 12.7388ZM70.6746 14.7299H69.8233C69.8493 14.093 69.8625 13.3935 69.8625 12.6313C69.8625 11.8813 69.8493 11.2433 69.8233 10.7174H70.6746C70.6486 11.2352 70.6354 11.873 70.6354 12.6313C70.6354 13.4056 70.6486 14.1053 70.6746 14.7299ZM75.0348 12.5848C75.0348 13.1683 74.8522 13.6779 74.4873 14.1134C74.1222 14.5491 73.6108 14.7666 72.953 14.7666C72.6561 14.7666 72.247 14.7542 71.7256 14.7296C71.7516 14.1091 71.7648 13.4093 71.7648 12.631C71.7648 11.8834 71.7516 11.2453 71.7256 10.7171H72.2521C72.3383 10.7171 72.4666 10.714 72.6371 10.7079C72.8074 10.7019 72.9188 10.6988 72.9709 10.6988C73.6948 10.6988 74.2196 10.8838 74.5458 11.2536C74.8718 11.6234 75.0348 12.0669 75.0348 12.5848ZM74.2137 12.7173C74.2137 12.3228 74.1014 11.9906 73.8768 11.7201C73.6522 11.4501 73.3092 11.315 72.8479 11.315C72.7617 11.315 72.6435 11.3242 72.4929 11.3428C72.5127 11.7539 72.5228 12.1831 72.5228 12.631C72.5228 13.1221 72.5329 13.609 72.5528 14.0918C72.6815 14.1184 72.8124 14.1318 72.9437 14.132C73.3749 14.132 73.6942 13.9946 73.9017 13.7203C74.1093 13.446 74.2137 13.1118 74.2137 12.7173ZM80.8193 14.7299H79.8565C79.8565 14.5942 79.7652 14.21 79.5823 13.5771H78.1925C78.004 14.1997 77.9096 14.5838 77.9096 14.7299H77.0046C77.0046 14.6498 77.2387 13.9922 77.7069 12.7575C78.1751 11.5227 78.4093 10.8425 78.4093 10.7174H79.5465C79.5465 10.8345 79.7588 11.5046 80.1827 12.7282C80.6067 13.9518 80.8193 14.6188 80.8193 14.7299ZM79.4294 12.9884C79.0864 11.9283 78.9147 11.3552 78.9147 11.2688H78.8665C78.8665 11.3488 78.6893 11.922 78.3345 12.9884H79.4294ZM84.3281 11.768C84.3281 12.2592 84.15 12.6218 83.7941 12.8559C83.4382 13.09 83.0016 13.2073 82.484 13.2073C82.3897 13.2073 82.3228 13.2053 82.2824 13.2013C82.2824 13.5877 82.2933 14.097 82.3155 14.7299H81.47C81.496 14.1363 81.5092 13.4365 81.5092 12.6313C81.5092 11.8916 81.4961 11.2536 81.47 10.7174H81.9934C82.0676 10.7174 82.2099 10.7142 82.4205 10.7082C82.6311 10.7022 82.8134 10.699 82.968 10.699C83.3488 10.699 83.6708 10.7874 83.9335 10.9641C84.1962 11.1409 84.3281 11.4085 84.3281 11.768ZM83.5522 11.9375C83.5522 11.498 83.2673 11.278 82.6978 11.278C82.5552 11.278 82.4048 11.2935 82.2466 11.3242C82.2687 11.7126 82.2797 12.1521 82.2797 12.6433C82.3298 12.6476 82.388 12.6493 82.4541 12.6493C83.1861 12.6496 83.5522 12.4124 83.5522 11.9375ZM87.9362 11.768C87.9362 12.2592 87.7581 12.6218 87.4024 12.8559C87.0465 13.09 86.6096 13.2073 86.0921 13.2073C85.9977 13.2073 85.9308 13.2053 85.8905 13.2013C85.8905 13.5877 85.9014 14.097 85.9235 14.7299H85.0781C85.1041 14.1363 85.1173 13.4365 85.1173 12.6313C85.1173 11.8916 85.1042 11.2536 85.0781 10.7174H85.6015C85.6757 10.7174 85.8179 10.7142 86.0285 10.7082C86.2391 10.7022 86.4214 10.699 86.576 10.699C86.9568 10.699 87.2789 10.7874 87.5416 10.9641C87.8042 11.1409 87.9362 11.4085 87.9362 11.768ZM87.1602 11.9375C87.1602 11.498 86.8754 11.278 86.3058 11.278C86.1633 11.278 86.0129 11.2935 85.8547 11.3242C85.8768 11.7126 85.8877 12.1521 85.8877 12.6433C85.9378 12.6476 85.9961 12.6493 86.0622 12.6493C86.7942 12.6496 87.1602 12.4124 87.1602 11.9375ZM93.8352 12.6496C93.8352 13.2802 93.6467 13.8032 93.2695 14.2183C92.8923 14.6334 92.426 14.8409 91.8707 14.8409C91.3412 14.8409 90.8979 14.6504 90.5411 14.2691C90.1843 13.8881 90.0057 13.4036 90.0057 12.8163C90.0057 12.1857 90.1941 11.6627 90.5713 11.2476C90.9485 10.8324 91.4148 10.625 91.9701 10.625C92.4997 10.625 92.943 10.8149 93.2997 11.1951C93.6565 11.5752 93.8352 12.0598 93.8352 12.6496ZM93.0049 12.7388C93.0049 12.3094 92.8976 11.9611 92.6831 11.694C92.4686 11.4269 92.2037 11.2935 91.8889 11.2935C91.596 11.2935 91.3473 11.428 91.1429 11.6971C90.9384 11.9662 90.836 12.3062 90.836 12.7173C90.836 13.1445 90.9438 13.4922 91.1594 13.7605C91.375 14.0287 91.6391 14.1627 91.9519 14.1627C92.2448 14.1627 92.4935 14.0276 92.6979 13.7573C92.9026 13.4873 93.0049 13.1476 93.0049 12.7388ZM97.9125 14.7299H97.1696C97.1696 14.6455 96.894 14.2008 96.3424 13.3955C95.7649 12.5469 95.4358 11.9668 95.3558 11.6544H95.3076C95.3577 12.1042 95.383 12.511 95.383 12.8748C95.383 13.3824 95.397 14.0009 95.425 14.7302H94.6848C94.7148 14.0933 94.7299 13.3938 94.7299 12.6316C94.7299 11.8817 94.7148 11.2436 94.6848 10.7177H95.5782C95.5782 10.8267 95.826 11.2614 96.3211 12.0213C96.8487 12.8287 97.1514 13.3763 97.2296 13.6641H97.2747C97.2265 13.2059 97.2024 12.7951 97.2024 12.4313C97.2024 11.8748 97.1884 11.3033 97.1604 10.7177H97.9126C97.8843 11.2272 97.8705 11.8653 97.8705 12.6316C97.8705 13.4036 97.8845 14.103 97.9125 14.7299Z" fill="#F9F9FA"/>
</g>
<defs>
<linearGradient id="paint0_linear_1543_13560" x1="23.8314" y1="10.1963" x2="23.8314" y2="42.7019" gradientUnits="userSpaceOnUse">
<stop stop-color="#257CB0"/>
<stop offset="0.286" stop-color="#4A93B5"/>
<stop offset="0.767" stop-color="#78BCBB"/>
<stop offset="1" stop-color="#89CFBD"/>
</linearGradient>
<linearGradient id="paint1_linear_1543_13560" x1="15.8318" y1="18.2635" x2="36.1287" y2="18.2635" gradientUnits="userSpaceOnUse">
<stop stop-color="#52C1AD"/>
<stop offset="1" stop-color="#DEE89A"/>
</linearGradient>
<linearGradient id="paint2_linear_1543_13560" x1="25.9798" y1="26.4493" x2="25.9798" y2="42.8201" gradientUnits="userSpaceOnUse">
<stop stop-color="#EC413D"/>
<stop offset="0.167" stop-color="#DA4452"/>
<stop offset="0.575" stop-color="#B0487A"/>
<stop offset="0.862" stop-color="#954A92"/>
<stop offset="1" stop-color="#8A4A9D"/>
</linearGradient>
<linearGradient id="paint3_linear_1543_13560" x1="37.6711" y1="22.084" x2="37.6711" y2="30.8144" gradientUnits="userSpaceOnUse">
<stop stop-color="#F58879"/>
<stop offset="0.119" stop-color="#F69079"/>
<stop offset="0.713" stop-color="#FCB877"/>
<stop offset="1" stop-color="#FEC874"/>
</linearGradient>
<clipPath id="clip0_1543_13560">
<rect width="158" height="48" fill="white" transform="translate(0 0.955078)"/>
</clipPath>
</defs>
</svg>
