<svg width="104" height="43" viewBox="0 0 104 43" fill="none" xmlns="http://www.w3.org/2000/svg">
<g clip-path="url(#clip0_1365_20963)">
<path d="M35.436 7.58342V3.00922H37.3889C37.8582 3.00922 38.2217 3.11519 38.4795 3.32714C38.7374 3.53477 38.8663 3.82457 38.8663 4.19656C38.8663 4.44312 38.805 4.65507 38.6824 4.83241C38.5598 5.00976 38.3908 5.13952 38.1752 5.22171C38.4288 5.29524 38.6254 5.425 38.7649 5.611C38.9086 5.79267 38.9804 6.02408 38.9804 6.30524C38.9804 6.71184 38.8452 7.0276 38.5746 7.25252C38.3083 7.47312 37.9364 7.58342 37.4587 7.58342H35.436ZM36.2159 4.9492H37.2495C37.8032 4.9492 38.0801 4.73076 38.0801 4.29389C38.0801 3.85701 37.8032 3.63858 37.2495 3.63858H36.2159V4.9492ZM36.2159 6.95406H37.3572C37.9152 6.95406 38.1942 6.72481 38.1942 6.26631C38.1942 5.80781 37.9152 5.57856 37.3572 5.57856H36.2159V6.95406Z" fill="#1A1A1A"/>
<path d="M40.7525 7.58342V3.00922H41.5641V7.58342H40.7525Z" fill="#1A1A1A"/>
<path d="M45.0277 7.6483C44.6768 7.6483 44.3513 7.60289 44.0512 7.51205C43.7511 7.41689 43.4975 7.28929 43.2903 7.12925L43.5376 6.47393C43.7447 6.62533 43.9709 6.74211 44.2161 6.8243C44.4655 6.90648 44.736 6.94757 45.0277 6.94757C45.3616 6.94757 45.6047 6.89134 45.7568 6.77888C45.909 6.66209 45.9851 6.51286 45.9851 6.33119C45.9851 6.1798 45.9302 6.06085 45.8202 5.97434C45.7146 5.88783 45.5307 5.81646 45.2686 5.76023L44.5711 5.611C43.7765 5.43798 43.3791 5.02057 43.3791 4.35877C43.3791 4.07329 43.4531 3.82457 43.601 3.61262C43.749 3.40067 43.954 3.23631 44.2161 3.11952C44.4781 3.00273 44.7804 2.94434 45.1228 2.94434C45.4271 2.94434 45.7125 2.99192 45.9788 3.08708C46.2451 3.17791 46.467 3.30768 46.6445 3.47637L46.3972 4.09924C46.0464 3.79646 45.6195 3.64506 45.1164 3.64506C44.8248 3.64506 44.5965 3.70778 44.4316 3.83322C44.2668 3.95866 44.1844 4.12303 44.1844 4.32633C44.1844 4.48205 44.2351 4.60749 44.3365 4.70265C44.438 4.79348 44.6113 4.86485 44.8565 4.91676L45.5476 5.06599C45.9661 5.15682 46.2768 5.29956 46.4797 5.49421C46.6868 5.68886 46.7904 5.94839 46.7904 6.2728C46.7904 6.5453 46.7185 6.78537 46.5748 6.99299C46.4311 7.20062 46.226 7.36282 45.9597 7.47961C45.6977 7.59207 45.387 7.6483 45.0277 7.6483Z" fill="#1A1A1A"/>
<path d="M48.438 7.58342V3.00922H49.0467L51.4498 6.20143V3.00922H52.2044V7.58342H51.602L49.1926 4.37824V7.58342H48.438Z" fill="#1A1A1A"/>
<path d="M54.1322 7.58342V3.00922H54.9438V7.58342H54.1322Z" fill="#1A1A1A"/>
<path d="M58.4074 7.6483C58.0565 7.6483 57.731 7.60289 57.4309 7.51205C57.1308 7.41689 56.8772 7.28929 56.67 7.12925L56.9173 6.47393C57.1245 6.62533 57.3506 6.74211 57.5958 6.8243C57.8452 6.90648 58.1157 6.94757 58.4074 6.94757C58.7413 6.94757 58.9844 6.89134 59.1365 6.77888C59.2887 6.66209 59.3648 6.51286 59.3648 6.33119C59.3648 6.1798 59.3099 6.06085 59.2 5.97434C59.0943 5.88783 58.9104 5.81646 58.6483 5.76023L57.9509 5.611C57.1562 5.43798 56.7588 5.02057 56.7588 4.35877C56.7588 4.07329 56.8328 3.82457 56.9807 3.61262C57.1287 3.40067 57.3337 3.23631 57.5958 3.11952C57.8579 3.00273 58.1601 2.94434 58.5025 2.94434C58.8068 2.94434 59.0922 2.99192 59.3585 3.08708C59.6248 3.17791 59.8467 3.30768 60.0242 3.47637L59.777 4.09924C59.4261 3.79646 58.9992 3.64506 58.4961 3.64506C58.2045 3.64506 57.9762 3.70778 57.8114 3.83322C57.6465 3.95866 57.5641 4.12303 57.5641 4.32633C57.5641 4.48205 57.6148 4.60749 57.7162 4.70265C57.8177 4.79348 57.991 4.86485 58.2362 4.91676L58.9273 5.06599C59.3458 5.15682 59.6565 5.29956 59.8594 5.49421C60.0665 5.68886 60.1701 5.94839 60.1701 6.2728C60.1701 6.5453 60.0982 6.78537 59.9545 6.99299C59.8108 7.20062 59.6058 7.36282 59.3395 7.47961C59.0774 7.59207 58.7667 7.6483 58.4074 7.6483Z" fill="#1A1A1A"/>
<path d="M61.835 31.1566V31.9456L65.4364 31.9456C67.4823 31.9456 68.1398 31.3402 75.0191 33.8466C82.4522 36.5549 86.9803 39.8349 93.9704 39.2684C100.751 38.7188 103.249 34.901 103.868 32.1867C103.991 31.6494 103.394 31.3372 102.95 31.6499C92.031 39.3352 75.0283 33.6418 69.5124 29.8894C68.5921 29.2634 68.3734 28.1172 68.3734 26.9864V5.20372L63.8235 0.126512C63.8235 0.35437 63.8235 3.60294 63.8235 9.74894V23.2254C63.8235 24.1667 63.8099 25.1217 63.7829 26.0906V28.9143C63.7829 29.994 63.3365 30.686 62.4437 30.9905L61.835 31.1566Z" fill="#A20087"/>
<path d="M8.92885 32.5965C9.25974 32.236 9.54873 31.8349 9.78786 31.4011C9.9056 31.4042 10.0256 31.4058 10.148 31.4058C11.7982 31.4058 13.0968 30.9767 14.0437 30.1185C15.0176 29.2327 15.5045 28.07 15.5045 26.6305C15.5045 25.3293 15.1664 24.3051 14.49 23.5576C13.8408 22.8102 12.7857 22.0904 11.3248 21.3983L9.66101 20.6509C7.38853 19.6266 5.58948 18.4362 4.26387 17.0798C2.96531 15.7233 2.31603 13.9239 2.31603 11.6816C2.31603 10.0206 2.72183 8.60875 3.53343 7.44605C4.37209 6.25568 5.52185 5.34214 6.98273 4.70542C8.44361 4.06871 10.148 3.75036 12.0958 3.75036C13.5296 3.75036 14.8688 3.94414 16.1132 4.3317C17.3577 4.71926 18.2969 5.48432 19.1431 6.4929V11.0899H17.9799C17.9799 7.64292 16.2553 5.68225 13.8002 5.20372C13.4755 5.14835 13.1915 5.10683 12.948 5.07915C12.7316 5.05146 12.434 5.03762 12.0552 5.03762C10.7296 5.03762 9.57985 5.43903 8.60593 6.24184C7.65906 7.01697 7.18563 8.09661 7.18563 9.48077C7.18563 10.8096 7.55085 11.8892 8.28129 12.7197C9.01173 13.5502 10.0668 14.2838 11.4465 14.9205L13.2726 15.7095C15.8968 16.8722 17.777 18.1179 18.9133 19.4467C20.0495 20.7478 20.6176 22.4226 20.6176 24.4712C20.6176 26.9073 19.7113 28.8866 17.8988 30.4092C16.1132 31.9041 13.5837 32.6515 10.3103 32.6515C9.85237 32.6515 9.3919 32.6332 8.92885 32.5965Z" fill="#A20087"/>
<path d="M31.2565 32.527C29.5792 32.527 28.2536 32.1117 27.2796 31.2812C26.3328 30.423 25.8593 29.0389 25.8593 27.1288V25.2601C25.8864 24.6511 25.8999 23.9452 25.8999 23.1424L25.8999 7.18566H23.0187V6.27212C25.9411 5.06939 28.4365 2.98491 30.1732 0.295826L30.2826 0.126465H31.5L31.3782 12.0138H49.317V12.7612L48.4648 13.0104C47.8696 13.2041 47.545 13.5087 47.4909 13.9239C47.4638 14.3115 47.5585 14.8236 47.7749 15.4603L51.6461 25.7906L52.5976 28.3556L50.8996 33.0253C49.8175 36.0704 48.7083 38.3127 47.572 39.7523C46.5976 41.0412 45.4144 41.764 44.0224 41.9206C43.7676 41.9742 43.5035 42.0024 43.2328 42.0024C41.1174 42.0024 39.4025 40.2797 39.4025 38.1546C39.4025 36.0295 41.1174 34.3068 43.2328 34.3068C45.3482 34.3068 47.0631 36.0295 47.0631 38.1546C47.0631 38.3096 47.054 38.4624 47.0363 38.6125C47.1211 38.5265 47.205 38.422 47.288 38.2989C47.6397 37.8283 47.9778 37.2469 48.3025 36.5549C48.6542 35.8628 49.0329 34.9492 49.4387 33.8142L41.7285 15.5018C41.5391 14.9759 41.3227 14.5745 41.0792 14.2976C40.8358 13.9931 40.4705 13.744 39.9836 13.5502C39.5246 13.4416 39.057 13.3756 38.5864 13.353L37.5038 13.301H31.3376V27.461C31.3376 28.4575 31.5405 29.205 31.9463 29.7033C32.3792 30.2016 32.9067 30.4507 33.529 30.4507C34.07 30.4507 34.557 30.3262 34.9898 30.077C35.4227 29.8002 35.8555 29.4403 36.2884 28.9974L36.8159 29.6202C36.3019 30.5338 35.585 31.2535 34.6652 31.7795C33.7454 32.2778 32.6091 32.527 31.2565 32.527Z" fill="#A20087"/>
<path d="M55.9313 15.26L55.9332 15.2609L54.2272 21.3983C55.0516 20.0801 57.4012 14.4608 57.9601 13.9665C58.0005 13.9065 58.0412 13.8507 58.0823 13.7993C58.3528 13.4671 58.7857 13.218 59.3808 13.0519L60.2736 12.7612V12.0138H54.2272V12.7612L55.1199 13.0104C55.7422 13.1488 56.0803 13.4256 56.1344 13.8409C56.185 14.2292 56.1173 14.7022 55.9313 15.26Z" fill="#A20087"/>
<path d="M88.1002 12.4705C86.8828 11.7508 85.4219 11.3909 83.7176 11.3909C82.0403 11.3909 80.4306 11.82 78.8885 12.6782C77.3736 13.5087 76.1291 14.7129 75.1552 16.2908C74.2083 17.8687 73.7349 19.7927 73.7349 22.0627C73.7349 24.2497 74.1407 26.1322 74.9523 27.7101C75.7909 29.2604 76.9407 30.4507 78.4016 31.2812C79.8625 32.1117 81.5533 32.527 83.4741 32.527C85.3949 32.527 87.0451 32.1117 88.4249 31.2812C89.5093 30.6197 89.9899 30.2459 90.5567 29.2894C90.9472 28.6305 91.1031 27.8578 91.1031 27.0872C90.3998 27.9177 89.6287 28.5683 88.7901 29.0389C87.9514 29.4818 86.8558 29.7033 85.5031 29.7033C83.5552 29.7033 82.0673 29.0804 81.0393 27.8347C80.0967 26.6616 79.5859 24.7767 79.5069 22.1798H79.5063C79.4901 21.7453 79.4893 21.154 79.5036 20.5263H79.4972C79.5109 20.0014 79.5333 19.5065 79.5642 19.0417C79.595 18.538 79.6356 18.0736 79.6857 17.7159C79.7798 16.9342 79.9064 16.2654 80.0654 15.7095C80.4171 14.5468 80.877 13.744 81.4451 13.301C82.0403 12.8304 82.7301 12.5951 83.5147 12.5951C84.9485 12.5951 85.9224 13.218 86.4364 14.4637C86.9504 15.7095 87.0587 17.7303 86.7611 20.5263H82.4522L83.1238 21.689H91.7118C91.793 21.4122 91.8471 21.1215 91.8742 20.817C91.9012 20.4848 91.9147 20.1388 91.9147 19.7789C91.9147 18.1456 91.5766 16.7061 90.9002 15.4603C90.251 14.1869 89.3176 13.1903 88.1002 12.4705Z" fill="#A20087"/>
<path d="M4.5378 32.9189C6.98909 32.9189 8.97624 30.8854 8.97624 28.3771C8.97624 25.8688 6.98909 23.8353 4.5378 23.8353C2.08652 23.8353 0.0993652 25.8688 0.0993652 28.3771C0.0993652 30.8854 2.08652 32.9189 4.5378 32.9189Z" fill="#A20087"/>
</g>
<defs>
<clipPath id="clip0_1365_20963">
<rect width="104" height="42" fill="white" transform="translate(0 0.00292969)"/>
</clipPath>
</defs>
</svg>
