<svg width="160" height="39" viewBox="0 0 160 39" fill="none" xmlns="http://www.w3.org/2000/svg">
<rect x="0.5" y="0.672852" width="159" height="37" rx="4.25" fill="black"/>
<path d="M48.1023 19.9642C48.0811 16.8161 50.6806 15.2737 50.8074 15.2119C49.3289 13.057 47.0457 12.7613 46.2219 12.7402C44.2988 12.529 42.4391 13.9018 41.4459 13.9018C40.4526 13.9018 38.9308 12.7608 37.3034 12.803C35.2114 12.8452 33.246 14.0497 32.1683 15.93C29.9506 19.7752 31.598 25.4161 33.7323 28.5004C34.7884 30.0217 36.0356 31.7119 37.663 31.6485C39.2471 31.5852 39.8396 30.6342 41.7627 30.6342C43.6636 30.6342 44.2138 31.6485 45.8813 31.6063C47.5932 31.5852 48.6709 30.085 49.6832 28.5437C50.9088 26.8112 51.3951 25.0787 51.4162 24.9942C51.4162 24.9942 48.1424 23.7481 48.098 19.9663L48.1023 19.9642ZM44.9747 10.6893C45.8196 9.61156 46.412 8.17531 46.242 6.69629C44.9948 6.75965 43.4524 7.56227 42.5648 8.59721C41.7827 9.52655 41.0641 11.0262 41.2542 12.4424C42.6487 12.5485 44.0871 11.7453 44.9747 10.6893Z" fill="white"/>
<path d="M68.4519 23.4106H66.4512L65.346 19.9631H61.5357L60.4881 23.4106H58.5444L62.3172 11.6777H64.6607L68.4519 23.4106ZM65.0197 18.5152L64.0291 15.4489C63.9145 15.1442 63.7244 14.4013 63.4383 13.2396H63.4002C63.2862 13.7349 63.0956 14.4773 62.8479 15.4489L61.8763 18.5152H65.0197ZM78.1466 19.068C78.1466 20.5154 77.7464 21.639 76.9654 22.477C76.2605 23.22 75.403 23.6012 74.3554 23.6012C73.2312 23.6012 72.4312 23.201 71.9359 22.401V26.8365H70.0688V17.7152C70.0688 16.8202 70.0498 15.8872 69.9922 14.9346H71.6497L71.7643 16.2679H71.8023C72.4312 15.2583 73.3864 14.744 74.66 14.744C75.6506 14.744 76.4891 15.1442 77.156 15.9252C77.8229 16.7442 78.1466 17.7918 78.1466 19.068ZM76.2415 19.1441C76.2415 18.3251 76.0509 17.6392 75.6892 17.1059C75.2889 16.5535 74.7387 16.2679 74.0523 16.2679C73.5925 16.2688 73.1475 16.4306 72.7945 16.7252C72.4109 17.0311 72.1478 17.4627 72.0515 17.9439C72.0015 18.1308 71.9696 18.3221 71.9565 18.5152V19.925C71.9565 20.5344 72.1466 21.0677 72.5278 21.487C72.9091 21.9062 73.4044 22.1153 73.9947 22.1153C74.6996 22.1153 75.2525 21.8487 75.6522 21.2963C76.0525 20.763 76.2431 20.0391 76.2431 19.1441H76.2415ZM87.9015 19.068C87.9015 20.5154 87.5013 21.639 86.7203 22.477C86.0154 23.22 85.1579 23.6012 84.1097 23.6012C82.9861 23.6012 82.1856 23.201 81.6903 22.401V26.8365H79.8041V17.7152C79.8041 16.8202 79.7851 15.8872 79.7281 14.9346H81.3856L81.4996 16.2679H81.5377C82.1666 15.2583 83.1218 14.744 84.3959 14.744C85.3865 14.744 86.2245 15.1442 86.8914 15.9252C87.5609 16.7442 87.9042 17.7944 87.9042 19.068H87.9015ZM85.9768 19.1441C85.9768 18.3251 85.7868 17.6392 85.4245 17.1059C85.0243 16.5535 84.4741 16.2679 83.7876 16.2679C83.328 16.2687 82.8832 16.4305 82.5304 16.7252C82.1464 17.0308 81.8832 17.4626 81.7874 17.9439C81.7336 18.13 81.7016 18.3217 81.6919 18.5152V19.925C81.6919 20.5344 81.8825 21.0677 82.2637 21.487C82.645 21.9062 83.1397 22.1153 83.7306 22.1153C84.4355 22.1153 84.9878 21.8487 85.3881 21.2963C85.7883 20.763 85.9784 20.0391 85.9784 19.1441H85.9768ZM98.7827 20.1178C98.7827 21.1084 98.4395 21.9273 97.7346 22.5562C96.9728 23.2416 95.906 23.5845 94.5342 23.5848C93.2764 23.5848 92.2668 23.3372 91.4858 22.8609L91.9241 21.299C92.7431 21.7943 93.6576 22.0229 94.6482 22.0229C95.3531 22.0229 95.906 21.8703 96.3057 21.5477C96.7054 21.2251 96.8966 20.8047 96.8966 20.2714C96.9002 20.0483 96.8581 19.8267 96.7729 19.6204C96.6877 19.4141 96.5613 19.2274 96.4013 19.0717C96.0771 18.7475 95.5438 18.4428 94.7818 18.1572C92.7239 17.3951 91.6951 16.2712 91.6954 14.7857C91.6954 13.8146 92.0572 13.0337 92.7811 12.4243C93.505 11.815 94.4771 11.5098 95.6583 11.5098C96.725 11.5098 97.6205 11.7004 98.3254 12.0621L97.8502 13.586C97.1833 13.2243 96.4404 13.0527 95.6018 13.0527C94.9355 13.0527 94.4206 13.2243 94.0399 13.548C93.8899 13.6821 93.77 13.8466 93.6881 14.0304C93.6062 14.2142 93.5641 14.4133 93.5647 14.6146C93.5647 15.0719 93.7358 15.4716 94.098 15.7573C94.4027 16.0429 94.9745 16.3286 95.8125 16.6718C96.8228 17.0714 97.566 17.5475 98.0419 18.1002C98.5541 18.6298 98.7827 19.2962 98.7827 20.1178ZM105.014 16.3656H102.937V20.48C102.937 21.5276 103.299 22.0419 104.042 22.0419C104.385 22.0419 104.652 22.0229 104.88 21.9464L104.937 23.3752C104.576 23.5083 104.08 23.5864 103.471 23.5864C102.728 23.5864 102.156 23.3578 101.737 22.9C101.317 22.4422 101.108 21.6808 101.108 20.6141V16.3476H99.8699V14.9346H101.108V13.3917L102.956 12.8394V14.9515H105.031L105.012 16.3608L105.014 16.3656ZM114.349 19.1087C114.349 20.404 113.968 21.4706 113.225 22.3086C112.444 23.1656 111.415 23.6039 110.12 23.6039C108.881 23.6039 107.891 23.1846 107.148 22.3656C106.405 21.5466 106.043 20.499 106.043 19.2418C106.043 17.9275 106.423 16.8609 107.186 16.0208C107.948 15.1807 108.976 14.7635 110.253 14.7635C111.491 14.7635 112.501 15.1828 113.245 16.0017C113.987 16.8017 114.349 17.8499 114.349 19.1066V19.1087ZM112.406 19.1467C112.406 18.3658 112.234 17.6989 111.911 17.1465C111.51 16.4801 110.96 16.1375 110.215 16.1375C109.453 16.1375 108.881 16.4801 108.481 17.1465C108.138 17.6989 107.986 18.3848 107.986 19.1847C107.986 19.9657 108.157 20.6321 108.481 21.1849C108.881 21.8513 109.453 22.194 110.196 22.194C110.92 22.194 111.472 21.8513 111.892 21.1654C112.234 20.5941 112.406 19.9277 112.406 19.1467ZM120.465 16.5942C120.27 16.5564 120.073 16.5373 119.875 16.5372C119.208 16.5372 118.693 16.7848 118.35 17.2801C118.045 17.7179 117.875 18.2707 117.875 18.9561V23.3916H115.989V17.6012C115.989 16.7061 115.97 15.8296 115.932 14.9346H117.569L117.645 16.5535H117.702C117.876 16.0274 118.2 15.5639 118.635 15.2203C119.028 14.9317 119.501 14.772 119.988 14.763C120.147 14.7654 120.306 14.7782 120.463 14.8015V16.5916L120.465 16.5942ZM128.886 18.7845C128.889 19.0721 128.863 19.3594 128.81 19.642H123.169C123.188 20.48 123.455 21.1274 123.988 21.5656C124.464 21.9654 125.075 22.156 125.837 22.156C126.675 22.156 127.437 22.0227 128.123 21.7563L128.409 23.0515C127.609 23.3942 126.656 23.5653 125.57 23.5653C124.255 23.5653 123.226 23.1846 122.484 22.4036C121.741 21.6227 121.359 20.5941 121.359 19.2988C121.359 18.0231 121.703 16.9564 122.407 16.1179C123.131 15.2039 124.122 14.7656 125.36 14.7656C126.579 14.7656 127.513 15.2229 128.123 16.1179C128.637 16.8419 128.885 17.7179 128.885 18.7845H128.886ZM127.095 18.2897C127.121 17.7819 126.995 17.2779 126.733 16.8419C126.409 16.3085 125.914 16.0609 125.228 16.0609C124.618 16.0609 124.104 16.3085 123.723 16.8228C123.418 17.2231 123.228 17.7179 123.17 18.2897H127.095Z" fill="white"/>
<rect x="0.5" y="0.672852" width="159" height="37" rx="4.25" stroke="#737373"/>
</svg>
