<svg width="127" height="20" viewBox="0 0 127 20" fill="none" xmlns="http://www.w3.org/2000/svg">
<path d="M1.6213 16V14.9698C1.86065 14.9593 2.05837 14.9281 2.21447 14.8761C2.38097 14.8241 2.50585 14.7044 2.5891 14.5171C2.68276 14.3298 2.72959 14.028 2.72959 13.6117V7.63317C2.72959 7.3522 2.73479 7.08163 2.7452 6.82147C2.76601 6.5613 2.78162 6.36358 2.79203 6.22829C2.62552 6.2387 2.41739 6.24911 2.16764 6.25951C1.91788 6.25951 1.73577 6.26472 1.6213 6.27512V5.07317H6.1013V6.10342C5.87235 6.11382 5.67463 6.14504 5.50813 6.19708C5.34162 6.24911 5.21154 6.36878 5.11788 6.5561C5.03463 6.73301 4.993 7.0348 4.993 7.46147V9.83415H6.11691L7.31886 7.78927C7.49577 7.47707 7.68308 7.16488 7.88081 6.85269C8.07853 6.54049 8.24503 6.32716 8.38032 6.21269C8.21382 6.22309 8.0369 6.2335 7.84959 6.24391C7.66227 6.25431 7.51138 6.26472 7.3969 6.27512V5.07317H11.2213V6.10342C10.9924 6.11382 10.7426 6.15545 10.472 6.22829C10.2119 6.30114 9.94129 6.44683 9.66032 6.66537C9.37934 6.8839 9.09317 7.22732 8.80178 7.69561L7.30325 10.0995C7.51138 10.2348 7.69349 10.3805 7.84959 10.5366C8.01609 10.6823 8.16178 10.8436 8.28666 11.0205L9.89447 13.2839C10.1026 13.5753 10.3159 13.8511 10.5345 14.1112C10.7634 14.361 10.9976 14.5639 11.2369 14.72C11.4763 14.8761 11.7104 14.9593 11.9393 14.9698V16H9.53544C9.45219 15.9896 9.3169 15.8959 9.12959 15.719C8.94227 15.5421 8.74455 15.3288 8.53642 15.079C8.32829 14.8293 8.15138 14.6055 8.00569 14.4078L6.46032 12.16C6.32504 11.9623 6.17414 11.7594 6.00764 11.5512C5.85154 11.3431 5.70065 11.187 5.55495 11.0829H4.993V13.44C4.993 13.721 4.9878 13.9915 4.97739 14.2517C4.96699 14.5119 4.95138 14.7096 4.93056 14.8449C5.09707 14.8241 5.3052 14.8137 5.55495 14.8137C5.81512 14.8033 5.99723 14.798 6.1013 14.798V16H1.6213ZM15.8503 16.2498C15.101 16.2498 14.4246 16.0885 13.821 15.7659C13.2175 15.4433 12.7388 14.9854 12.385 14.3922C12.0415 13.7886 11.8698 13.081 11.8698 12.2693C11.8698 11.4055 12.0467 10.6511 12.4006 10.0059C12.7648 9.35025 13.2435 8.84553 13.8367 8.49171C14.4402 8.12748 15.0958 7.94537 15.8035 7.94537C16.5528 7.94537 17.224 8.10667 17.8171 8.42927C18.4103 8.75187 18.8786 9.21496 19.222 9.81854C19.5654 10.4117 19.7371 11.1246 19.7371 11.9571C19.7371 12.8312 19.5706 13.5909 19.2376 14.2361C18.9046 14.8813 18.4467 15.3808 17.864 15.7346C17.2812 16.078 16.61 16.2498 15.8503 16.2498ZM15.9128 15.1415C16.329 15.1311 16.6412 14.9854 16.8493 14.7044C17.0679 14.4234 17.2188 14.0696 17.302 13.6429C17.3853 13.2163 17.4269 12.7844 17.4269 12.3473C17.4269 11.9623 17.3957 11.572 17.3332 11.1766C17.2812 10.7811 17.1928 10.4221 17.0679 10.0995C16.943 9.77691 16.7713 9.51675 16.5528 9.31903C16.3446 9.1213 16.0845 9.02764 15.7723 9.03805C15.3664 9.04846 15.0438 9.19415 14.8045 9.47512C14.5755 9.7561 14.409 10.1099 14.305 10.5366C14.2113 10.9528 14.1645 11.3899 14.1645 11.8478C14.1645 12.3785 14.2217 12.8989 14.3362 13.4088C14.4506 13.9187 14.6328 14.3402 14.8825 14.6732C15.1427 14.9958 15.4861 15.1519 15.9128 15.1415ZM20.7113 16V14.9854C21.0027 14.9854 21.2108 14.9281 21.3357 14.8137C21.4606 14.6992 21.5386 14.5379 21.5698 14.3298C21.6115 14.1112 21.6323 13.8667 21.6323 13.5961V10.9737C21.6323 10.7863 21.6375 10.5782 21.6479 10.3493C21.6583 10.1099 21.6739 9.87577 21.6947 9.64683C21.5282 9.65724 21.3305 9.66764 21.1015 9.67805C20.883 9.67805 20.7165 9.68325 20.602 9.69366V8.50732C21.0807 8.50732 21.4866 8.4813 21.8196 8.42927C22.1526 8.37724 22.4128 8.3148 22.6001 8.24195C22.7978 8.16911 22.9331 8.10147 23.0059 8.03903H23.7708C23.7916 8.17431 23.802 8.27317 23.802 8.33561C23.802 8.39805 23.802 8.46049 23.802 8.52293C23.8124 8.57496 23.8332 8.67382 23.8645 8.81951C24.0726 8.65301 24.3119 8.50732 24.5825 8.38244C24.8531 8.24716 25.1236 8.14309 25.3942 8.07025C25.6648 7.98699 25.9041 7.94537 26.1123 7.94537C27.0697 7.94537 27.7461 8.22114 28.1415 8.77268C28.5474 9.31382 28.7503 10.188 28.7503 11.3951V13.4868C28.7503 13.6325 28.7451 13.8407 28.7347 14.1112C28.7243 14.3714 28.7087 14.6211 28.6879 14.8605C28.8648 14.8397 29.0521 14.8293 29.2498 14.8293C29.4475 14.8189 29.5984 14.8137 29.7025 14.8137V16H25.6128V14.9854C25.9041 14.9854 26.1123 14.9281 26.2371 14.8137C26.3724 14.6992 26.4557 14.5379 26.4869 14.3298C26.5285 14.1112 26.5493 13.8667 26.5493 13.5961L26.5337 11.3795C26.5337 10.7031 26.4349 10.2036 26.2371 9.88098C26.0498 9.54797 25.7272 9.38146 25.2693 9.38146C25.0092 9.38146 24.749 9.4387 24.4889 9.55317C24.2391 9.66764 24.0258 9.80293 23.8489 9.95903C23.8489 10.1047 23.8489 10.2556 23.8489 10.4117C23.8489 10.5574 23.8489 10.7031 23.8489 10.8488V13.4868C23.8489 13.6325 23.8436 13.8407 23.8332 14.1112C23.8228 14.3714 23.8072 14.6211 23.7864 14.8605C23.9529 14.8397 24.135 14.8293 24.3328 14.8293C24.5409 14.8189 24.697 14.8137 24.801 14.8137V16H20.7113ZM33.4782 16.2498C33.166 16.2498 32.8643 16.2133 32.5729 16.1405C32.2919 16.0676 32.0317 15.9324 31.7924 15.7346C31.5634 15.5265 31.3813 15.2247 31.246 14.8293C31.1108 14.4338 31.0431 13.9083 31.0431 13.2527L31.0743 9.49073H30.0129V8.19512C30.3355 8.18472 30.6477 8.07545 30.9495 7.86732C31.2512 7.65919 31.5062 7.38862 31.7143 7.05561C31.9329 6.7226 32.0786 6.37399 32.1514 6.00976H33.3065L33.2909 8.19512H35.2734V9.39707L33.2909 9.4439L33.2753 13.2839C33.2753 13.5233 33.2961 13.7626 33.3378 14.002C33.3898 14.2309 33.4834 14.4234 33.6187 14.5795C33.754 14.7252 33.9517 14.798 34.2119 14.798C34.3576 14.798 34.5553 14.746 34.8051 14.642C35.0652 14.5379 35.341 14.2777 35.6324 13.8615L36.3817 14.5639C36.1007 14.9802 35.8093 15.3028 35.5075 15.5317C35.2057 15.7607 34.9143 15.9272 34.6334 16.0312C34.3628 16.1353 34.1234 16.1977 33.9153 16.2185C33.7072 16.2393 33.5615 16.2498 33.4782 16.2498ZM40.3791 16.2498C39.6194 16.2498 38.9482 16.0833 38.3654 15.7502C37.7827 15.4068 37.33 14.9281 37.0074 14.3141C36.6848 13.6898 36.5235 12.9561 36.5235 12.1132C36.5235 11.3847 36.6848 10.7031 37.0074 10.0683C37.33 9.4335 37.7827 8.92358 38.3654 8.53854C38.9586 8.14309 39.6454 7.94537 40.4259 7.94537C40.863 7.94537 41.2897 8.00781 41.7059 8.13269C42.1222 8.24716 42.4968 8.45008 42.8298 8.74146C43.1732 9.03285 43.4438 9.42829 43.6415 9.92781C43.8497 10.4273 43.9485 11.0517 43.9381 11.801L38.8181 11.8946C38.8181 12.4566 38.8858 12.9613 39.021 13.4088C39.1667 13.8563 39.4009 14.2101 39.7235 14.4702C40.0461 14.7304 40.478 14.8605 41.0191 14.8605C41.2272 14.8605 41.4614 14.8241 41.7215 14.7512C41.9921 14.6784 42.2627 14.5587 42.5332 14.3922C42.8142 14.2153 43.0744 13.9811 43.3137 13.6898L44.0162 14.3454C43.6415 14.8761 43.2409 15.282 42.8142 15.5629C42.3875 15.8335 41.9609 16.0156 41.5342 16.1093C41.118 16.2029 40.7329 16.2498 40.3791 16.2498ZM38.9118 10.802H41.784C41.7736 10.3649 41.7111 10.0215 41.5967 9.77171C41.4926 9.51155 41.3469 9.32423 41.1596 9.20976C40.9723 9.09529 40.7537 9.03805 40.504 9.03805C40.0461 9.03805 39.6871 9.20455 39.4269 9.53756C39.1667 9.86016 38.995 10.2816 38.9118 10.802ZM44.9229 16V14.9854C45.2143 14.9854 45.4224 14.9281 45.5473 14.8137C45.6721 14.6992 45.7502 14.5379 45.7814 14.3298C45.823 14.1112 45.8438 13.8667 45.8438 13.5961V10.9737C45.8438 10.7863 45.849 10.5782 45.8595 10.3493C45.8699 10.1099 45.8855 9.87577 45.9063 9.64683C45.7398 9.65724 45.5421 9.66764 45.3131 9.67805C45.0946 9.67805 44.9281 9.68325 44.8136 9.69366V8.50732C45.2923 8.50732 45.6982 8.4813 46.0312 8.42927C46.3642 8.37724 46.6243 8.3148 46.8117 8.24195C47.0094 8.16911 47.1447 8.10147 47.2175 8.03903H47.9824C48.0032 8.17431 48.0136 8.27317 48.0136 8.33561C48.0136 8.39805 48.0136 8.46049 48.0136 8.52293C48.024 8.57496 48.0448 8.67382 48.076 8.81951C48.2842 8.65301 48.5235 8.50732 48.7941 8.38244C49.0647 8.24716 49.3352 8.14309 49.6058 8.07025C49.8764 7.98699 50.1157 7.94537 50.3238 7.94537C51.2812 7.94537 51.9577 8.22114 52.3531 8.77268C52.759 9.31382 52.9619 10.188 52.9619 11.3951V13.4868C52.9619 13.6325 52.9567 13.8407 52.9463 14.1112C52.9359 14.3714 52.9203 14.6211 52.8995 14.8605C53.0764 14.8397 53.2637 14.8293 53.4614 14.8293C53.6591 14.8189 53.81 14.8137 53.9141 14.8137V16H49.8243V14.9854C50.1157 14.9854 50.3238 14.9281 50.4487 14.8137C50.584 14.6992 50.6673 14.5379 50.6985 14.3298C50.7401 14.1112 50.7609 13.8667 50.7609 13.5961L50.7453 11.3795C50.7453 10.7031 50.6464 10.2036 50.4487 9.88098C50.2614 9.54797 49.9388 9.38146 49.4809 9.38146C49.2208 9.38146 48.9606 9.4387 48.7004 9.55317C48.4507 9.66764 48.2373 9.80293 48.0604 9.95903C48.0604 10.1047 48.0604 10.2556 48.0604 10.4117C48.0604 10.5574 48.0604 10.7031 48.0604 10.8488V13.4868C48.0604 13.6325 48.0552 13.8407 48.0448 14.1112C48.0344 14.3714 48.0188 14.6211 47.998 14.8605C48.1645 14.8397 48.3466 14.8293 48.5443 14.8293C48.7525 14.8189 48.9086 14.8137 49.0126 14.8137V16H44.9229ZM58.7756 14.9698C59.0149 14.9593 59.2126 14.9281 59.3687 14.8761C59.5352 14.8241 59.6601 14.7044 59.7434 14.5171C59.837 14.3298 59.8838 14.028 59.8838 13.6117V7.63317C59.8838 7.3522 59.889 7.08163 59.8995 6.82147C59.9203 6.5613 59.9359 6.36358 59.9463 6.22829C59.7798 6.2387 59.5716 6.24911 59.3219 6.25951C59.0721 6.25951 58.89 6.26472 58.7756 6.27512V5.07317C59.5144 5.06277 60.2533 5.05756 60.9921 5.05756C61.731 5.05756 62.4699 5.05236 63.2087 5.04195C64.1245 5.03155 64.9206 5.15122 65.597 5.40098C66.2838 5.65073 66.8094 6.03577 67.1736 6.5561C67.5482 7.07643 67.7251 7.75285 67.7043 8.58537C67.6939 9.00163 67.5951 9.41268 67.4077 9.81854C67.2204 10.214 66.9447 10.5782 66.5804 10.9112C66.2162 11.2338 65.7583 11.4992 65.2068 11.7073C64.6552 11.9154 64.01 12.0299 63.2712 12.0507C63.0422 12.0611 62.8393 12.0663 62.6624 12.0663C62.4959 12.0663 62.3242 12.0611 62.1473 12.0507V13.4244C62.1473 13.7158 62.1421 13.9915 62.1316 14.2517C62.1212 14.5119 62.1056 14.7096 62.0848 14.8449C62.1993 14.8345 62.345 14.8293 62.5219 14.8293C62.6988 14.8189 62.8705 14.8137 63.037 14.8137C63.2139 14.8033 63.3388 14.798 63.4116 14.798V16H58.7756V14.9698ZM62.1473 10.88C62.2617 10.8904 62.3762 10.9008 62.4907 10.9112C62.6051 10.9216 62.7248 10.9268 62.8497 10.9268C63.4221 10.9268 63.8851 10.8332 64.239 10.6459C64.6032 10.4481 64.8686 10.1672 65.0351 9.80293C65.2016 9.42829 65.2848 8.97561 65.2848 8.44488C65.2848 7.92455 65.212 7.50829 65.0663 7.1961C64.931 6.8839 64.7541 6.65496 64.5356 6.50927C64.317 6.35317 64.0881 6.25431 63.8487 6.21269C63.6094 6.16065 63.3908 6.13464 63.1931 6.13464C62.9746 6.13464 62.7873 6.16065 62.6312 6.21269C62.4751 6.26472 62.3554 6.37919 62.2721 6.5561C62.1889 6.73301 62.1473 7.00358 62.1473 7.36781V10.88ZM68.4485 14.9854C68.7399 14.9854 68.948 14.9281 69.0729 14.8137C69.1977 14.6992 69.2758 14.5379 69.307 14.3298C69.3486 14.1112 69.3694 13.8667 69.3694 13.5961V10.9737C69.3694 10.7863 69.3747 10.5782 69.3851 10.3493C69.3955 10.1099 69.4111 9.87577 69.4319 9.64683C69.2654 9.65724 69.0677 9.66764 68.8387 9.67805C68.6202 9.67805 68.4537 9.68325 68.3392 9.69366V8.50732H68.9636C69.3694 8.50732 69.7389 8.45529 70.0719 8.35122C70.4153 8.24716 70.639 8.14309 70.7431 8.03903H71.508C71.5288 8.14309 71.5444 8.34081 71.5548 8.6322C71.5652 8.91317 71.5704 9.16293 71.5704 9.38146C71.8514 9.03805 72.1168 8.76228 72.3665 8.55415C72.6163 8.34602 72.8608 8.19512 73.1002 8.10146C73.3499 7.9974 73.5997 7.94537 73.8494 7.94537C74.2137 7.94537 74.5311 8.04943 74.8016 8.25756C75.0722 8.45529 75.2075 8.78309 75.2075 9.24098C75.2075 9.39707 75.1711 9.56358 75.0982 9.74049C75.0254 9.90699 74.9109 10.0475 74.7548 10.162C74.5987 10.2764 74.3854 10.3337 74.1148 10.3337C73.9067 10.3337 73.6933 10.2712 73.4748 10.1463C73.2563 10.0215 73.1314 9.78212 73.1002 9.42829C72.892 9.42829 72.6839 9.51675 72.4758 9.69366C72.2677 9.86016 72.0803 10.0631 71.9138 10.3024C71.7577 10.5314 71.6485 10.7447 71.586 10.9424V13.4868C71.586 13.6325 71.5808 13.8407 71.5704 14.1112C71.56 14.3714 71.5444 14.6211 71.5236 14.8605C71.6901 14.8397 71.8722 14.8293 72.0699 14.8293C72.2781 14.8189 72.4342 14.8137 72.5382 14.8137V16H68.4485V14.9854ZM79.3699 16.2498C78.6103 16.2498 77.939 16.0833 77.3563 15.7502C76.7735 15.4068 76.3208 14.9281 75.9982 14.3141C75.6756 13.6898 75.5143 12.9561 75.5143 12.1132C75.5143 11.3847 75.6756 10.7031 75.9982 10.0683C76.3208 9.4335 76.7735 8.92358 77.3563 8.53854C77.9494 8.14309 78.6363 7.94537 79.4168 7.94537C79.8538 7.94537 80.2805 8.00781 80.6968 8.13269C81.113 8.24716 81.4877 8.45008 81.8207 8.74146C82.1641 9.03285 82.4347 9.42829 82.6324 9.92781C82.8405 10.4273 82.9394 11.0517 82.929 11.801L77.809 11.8946C77.809 12.4566 77.8766 12.9613 78.0119 13.4088C78.1576 13.8563 78.3917 14.2101 78.7143 14.4702C79.0369 14.7304 79.4688 14.8605 80.0099 14.8605C80.2181 14.8605 80.4522 14.8241 80.7124 14.7512C80.9829 14.6784 81.2535 14.5587 81.5241 14.3922C81.8051 14.2153 82.0652 13.9811 82.3046 13.6898L83.007 14.3454C82.6324 14.8761 82.2317 15.282 81.8051 15.5629C81.3784 15.8335 80.9517 16.0156 80.5251 16.1093C80.1088 16.2029 79.7238 16.2498 79.3699 16.2498ZM77.9026 10.802H80.7748C80.7644 10.3649 80.702 10.0215 80.5875 9.77171C80.4834 9.51155 80.3377 9.32423 80.1504 9.20976C79.9631 9.09529 79.7446 9.03805 79.4948 9.03805C79.0369 9.03805 78.6779 9.20455 78.4177 9.53756C78.1576 9.86016 77.9859 10.2816 77.9026 10.802ZM83.9137 16V14.9854C84.2051 14.9854 84.4132 14.9281 84.5381 14.8137C84.663 14.6992 84.741 14.5379 84.7722 14.3298C84.8139 14.1112 84.8347 13.8667 84.8347 13.5961V10.9737C84.8347 10.7863 84.8399 10.5782 84.8503 10.3493C84.8607 10.1099 84.8763 9.87577 84.8971 9.64683C84.7306 9.65724 84.5329 9.66764 84.304 9.67805C84.0854 9.67805 83.9189 9.68325 83.8044 9.69366V8.50732C84.2831 8.50732 84.689 8.4813 85.022 8.42927C85.355 8.37724 85.6152 8.3148 85.8025 8.24195C86.0002 8.16911 86.1355 8.10147 86.2083 8.03903H86.9732C86.994 8.14309 87.0044 8.27317 87.0044 8.42927C87.0148 8.58537 87.0253 8.71545 87.0357 8.81951C87.3895 8.54894 87.7693 8.33561 88.1752 8.17951C88.5914 8.02342 88.9817 7.94537 89.3459 7.94537C89.8246 7.94537 90.2201 8.03382 90.5322 8.21073C90.8444 8.37724 91.0942 8.6322 91.2815 8.97561C91.6561 8.66342 92.0672 8.41366 92.5147 8.22634C92.9726 8.03903 93.4096 7.94537 93.8259 7.94537C94.6688 7.94537 95.3036 8.18992 95.7303 8.67903C96.1674 9.15773 96.3859 9.99545 96.3859 11.1922V13.4868C96.3859 13.6325 96.3807 13.8407 96.3703 14.1112C96.3599 14.3714 96.3443 14.6211 96.3235 14.8605C96.49 14.8397 96.6721 14.8293 96.8698 14.8293C97.0779 14.8189 97.234 14.8137 97.3381 14.8137V16H93.3888V14.9854C93.6282 14.9854 93.7999 14.9281 93.904 14.8137C94.0184 14.6992 94.0913 14.5379 94.1225 14.3298C94.1537 14.1112 94.1693 13.8667 94.1693 13.5961V11.2078C94.1589 10.5314 94.0444 10.0631 93.8259 9.80293C93.6178 9.54277 93.3368 9.40748 92.983 9.39707C92.7124 9.38667 92.4574 9.4335 92.2181 9.53756C91.9892 9.64163 91.781 9.76651 91.5937 9.9122C91.6457 10.1203 91.6822 10.3493 91.703 10.599C91.7238 10.8488 91.7342 11.1141 91.7342 11.3951C91.7342 11.7489 91.7342 12.0976 91.7342 12.441C91.7342 12.7844 91.7342 13.133 91.7342 13.4868C91.7342 13.6325 91.729 13.8407 91.7186 14.1112C91.7082 14.3714 91.6926 14.6211 91.6718 14.8605C91.8383 14.8397 92.0204 14.8293 92.2181 14.8293C92.4158 14.8189 92.5719 14.8137 92.6864 14.8137V16H88.6591V14.9854C88.9296 14.9854 89.1222 14.9281 89.2366 14.8137C89.3615 14.6992 89.4396 14.5379 89.4708 14.3298C89.502 14.1112 89.5176 13.8667 89.5176 13.5961L89.502 11.161C89.502 10.4846 89.4031 10.0215 89.2054 9.77171C89.0077 9.52195 88.7319 9.39187 88.3781 9.38146C88.1179 9.38146 87.8734 9.4387 87.6444 9.55317C87.4259 9.66764 87.2282 9.80293 87.0513 9.95903C87.0513 10.0943 87.0513 10.2244 87.0513 10.3493C87.0513 10.4741 87.0513 10.6042 87.0513 10.7395V13.4868C87.0513 13.6325 87.0461 13.8407 87.0357 14.1112C87.0253 14.3714 87.0096 14.6211 86.9888 14.8605C87.1553 14.8397 87.327 14.8293 87.504 14.8293C87.6809 14.8189 87.8214 14.8137 87.9254 14.8137V16H83.9137ZM98.1174 14.9854C98.4088 14.9854 98.6169 14.9281 98.7418 14.8137C98.8666 14.6992 98.9447 14.5379 98.9759 14.3298C99.0175 14.1112 99.0383 13.8667 99.0383 13.5961V11.0049C99.0383 10.8176 99.0435 10.6042 99.054 10.3649C99.0644 10.1151 99.08 9.87577 99.1008 9.64683C98.9343 9.65724 98.7366 9.66764 98.5076 9.67805C98.2891 9.67805 98.1226 9.68325 98.0081 9.69366V8.50732C98.4868 8.50732 98.8927 8.4813 99.2257 8.42927C99.5587 8.37724 99.8188 8.3148 100.006 8.24195C100.204 8.16911 100.339 8.10147 100.412 8.03903H101.255V13.4868C101.255 13.6325 101.25 13.8407 101.239 14.1112C101.229 14.3714 101.213 14.6211 101.192 14.8605C101.359 14.8397 101.541 14.8293 101.739 14.8293C101.947 14.8189 102.103 14.8137 102.207 14.8137V16H98.1174V14.9854ZM100.069 6.80586C99.7148 6.80586 99.4234 6.68098 99.1944 6.43122C98.9655 6.18147 98.851 5.87968 98.851 5.52586C98.851 5.17204 98.9707 4.87025 99.2101 4.62049C99.4494 4.37073 99.7304 4.24586 100.053 4.24586C100.386 4.24586 100.662 4.37073 100.88 4.62049C101.109 4.87025 101.224 5.17204 101.224 5.52586C101.224 5.87968 101.12 6.18147 100.912 6.43122C100.703 6.68098 100.422 6.80586 100.069 6.80586ZM106.299 16.2498C105.675 16.2498 105.17 16.1301 104.785 15.8907C104.41 15.6514 104.135 15.2767 103.958 14.7668C103.791 14.2569 103.708 13.6013 103.708 12.8V11.0049C103.708 10.8176 103.713 10.6042 103.724 10.3649C103.734 10.1151 103.744 9.87577 103.755 9.64683C103.588 9.65724 103.391 9.66764 103.162 9.67805C102.943 9.67805 102.777 9.68325 102.662 9.69366V8.50732H102.818C103.463 8.50732 103.973 8.45529 104.348 8.35122C104.723 8.24716 104.962 8.14309 105.066 8.03903H105.925V12.8156C105.925 13.492 106.013 13.9967 106.19 14.3298C106.367 14.6524 106.648 14.8137 107.033 14.8137C107.303 14.8137 107.574 14.7408 107.845 14.5951C108.126 14.439 108.354 14.2621 108.531 14.0644V11.0049C108.531 10.8176 108.537 10.6042 108.547 10.3649C108.557 10.1151 108.573 9.87577 108.594 9.64683C108.427 9.65724 108.23 9.66764 108.001 9.67805C107.782 9.67805 107.616 9.68325 107.501 9.69366V8.50732H107.876C108.365 8.50732 108.797 8.45529 109.171 8.35122C109.546 8.23675 109.785 8.13268 109.889 8.03903H110.748V13.4868C110.748 13.6325 110.743 13.8407 110.732 14.1112C110.722 14.3714 110.706 14.6211 110.686 14.8605C110.852 14.8397 111.034 14.8293 111.232 14.8293C111.44 14.8189 111.596 14.8137 111.7 14.8137V16H108.734C108.724 15.8647 108.708 15.7294 108.687 15.5941C108.677 15.4589 108.661 15.3236 108.641 15.1883C108.318 15.4589 107.969 15.7034 107.595 15.922C107.231 16.1405 106.799 16.2498 106.299 16.2498ZM112.561 16V14.9854C112.853 14.9854 113.061 14.9281 113.186 14.8137C113.311 14.6992 113.389 14.5379 113.42 14.3298C113.461 14.1112 113.482 13.8667 113.482 13.5961V10.9737C113.482 10.7863 113.487 10.5782 113.498 10.3493C113.508 10.1099 113.524 9.87577 113.545 9.64683C113.378 9.65724 113.18 9.66764 112.952 9.67805C112.733 9.67805 112.566 9.68325 112.452 9.69366V8.50732C112.931 8.50732 113.337 8.4813 113.67 8.42927C114.003 8.37724 114.263 8.3148 114.45 8.24195C114.648 8.16911 114.783 8.10147 114.856 8.03903H115.621C115.642 8.14309 115.652 8.27317 115.652 8.42927C115.662 8.58537 115.673 8.71545 115.683 8.81951C116.037 8.54894 116.417 8.33561 116.823 8.17951C117.239 8.02342 117.629 7.94537 117.993 7.94537C118.472 7.94537 118.868 8.03382 119.18 8.21073C119.492 8.37724 119.742 8.6322 119.929 8.97561C120.304 8.66342 120.715 8.41366 121.162 8.22634C121.62 8.03903 122.057 7.94537 122.473 7.94537C123.316 7.94537 123.951 8.18992 124.378 8.67903C124.815 9.15773 125.033 9.99545 125.033 11.1922V13.4868C125.033 13.6325 125.028 13.8407 125.018 14.1112C125.007 14.3714 124.992 14.6211 124.971 14.8605C125.138 14.8397 125.32 14.8293 125.517 14.8293C125.725 14.8189 125.882 14.8137 125.986 14.8137V16H122.036V14.9854C122.276 14.9854 122.447 14.9281 122.552 14.8137C122.666 14.6992 122.739 14.5379 122.77 14.3298C122.801 14.1112 122.817 13.8667 122.817 13.5961V11.2078C122.806 10.5314 122.692 10.0631 122.473 9.80293C122.265 9.54277 121.984 9.40748 121.631 9.39707C121.36 9.38667 121.105 9.4335 120.866 9.53756C120.637 9.64163 120.429 9.76651 120.241 9.9122C120.293 10.1203 120.33 10.3493 120.351 10.599C120.371 10.8488 120.382 11.1141 120.382 11.3951C120.382 11.7489 120.382 12.0976 120.382 12.441C120.382 12.7844 120.382 13.133 120.382 13.4868C120.382 13.6325 120.377 13.8407 120.366 14.1112C120.356 14.3714 120.34 14.6211 120.319 14.8605C120.486 14.8397 120.668 14.8293 120.866 14.8293C121.063 14.8189 121.219 14.8137 121.334 14.8137V16H117.307V14.9854C117.577 14.9854 117.77 14.9281 117.884 14.8137C118.009 14.6992 118.087 14.5379 118.118 14.3298C118.15 14.1112 118.165 13.8667 118.165 13.5961L118.15 11.161C118.15 10.4846 118.051 10.0215 117.853 9.77171C117.655 9.52195 117.379 9.39187 117.026 9.38146C116.765 9.38146 116.521 9.4387 116.292 9.55317C116.073 9.66764 115.876 9.80293 115.699 9.95903C115.699 10.0943 115.699 10.2244 115.699 10.3493C115.699 10.4741 115.699 10.6042 115.699 10.7395V13.4868C115.699 13.6325 115.694 13.8407 115.683 14.1112C115.673 14.3714 115.657 14.6211 115.636 14.8605C115.803 14.8397 115.975 14.8293 116.152 14.8293C116.328 14.8189 116.469 14.8137 116.573 14.8137V16H112.561Z" fill="#3D3D3D"/>
</svg>
