<svg width="175" height="25" viewBox="0 0 175 25" fill="none" xmlns="http://www.w3.org/2000/svg">
<path d="M11.3562 3.62768C11.8454 2.63639 13.259 2.6364 13.7482 3.62768L15.7697 7.72355C15.9639 8.11719 16.3395 8.39003 16.7739 8.45316L21.2939 9.10996C22.3879 9.26892 22.8247 10.6133 22.0331 11.3849L18.7624 14.5731C18.448 14.8795 18.3046 15.3209 18.3788 15.7536L19.1509 20.2554C19.3378 21.3449 18.1942 22.1758 17.2157 21.6614L13.1729 19.5359C12.7843 19.3317 12.3201 19.3317 11.9316 19.5359L7.88872 21.6614C6.91026 22.1758 5.76668 21.3449 5.95355 20.2554L6.72566 15.7536C6.79987 15.3209 6.65643 14.8795 6.34209 14.5731L3.07134 11.3849C2.27975 10.6133 2.71656 9.26892 3.81051 9.10996L8.33057 8.45316C8.76498 8.39003 9.14051 8.11719 9.33479 7.72355L11.3562 3.62768Z" fill="#FDB043"/>
<path d="M31.0759 18.7159V17.5279C31.3519 17.5159 31.5799 17.4799 31.7599 17.4199C31.9519 17.3599 32.0959 17.2219 32.1919 17.0059C32.2999 16.7899 32.3539 16.4419 32.3539 15.9619V9.06794C32.3539 8.74394 32.3599 8.43194 32.3719 8.13194C32.3959 7.83194 32.4139 7.60394 32.4259 7.44794C32.2339 7.45994 31.9939 7.47194 31.7059 7.48394C31.4179 7.48394 31.2079 7.48994 31.0759 7.50194V6.11594H36.2419V7.30394C35.9779 7.31594 35.7499 7.35194 35.5579 7.41194C35.3659 7.47194 35.2159 7.60994 35.1079 7.82594C35.0119 8.02994 34.9639 8.37794 34.9639 8.86994V11.6059H36.2599L37.6459 9.24794C37.8499 8.88794 38.0659 8.52794 38.2939 8.16794C38.5219 7.80794 38.7139 7.56194 38.8699 7.42994C38.6779 7.44194 38.4739 7.45394 38.2579 7.46594C38.0419 7.47794 37.8679 7.48994 37.7359 7.50194V6.11594H42.1459V7.30394C41.8819 7.31594 41.5939 7.36394 41.2819 7.44794C40.9819 7.53194 40.6699 7.69994 40.3459 7.95194C40.0219 8.20394 39.6919 8.59994 39.3559 9.13994L37.6279 11.9119C37.8679 12.0679 38.0779 12.2359 38.2579 12.4159C38.4499 12.5839 38.6179 12.7699 38.7619 12.9739L40.6159 15.5839C40.8559 15.9199 41.1019 16.2379 41.3539 16.5379C41.6179 16.8259 41.8879 17.0599 42.1639 17.2399C42.4399 17.4199 42.7099 17.5159 42.9739 17.5279V18.7159H40.2019C40.1059 18.7039 39.9499 18.5959 39.7339 18.3919C39.5179 18.1879 39.2899 17.9419 39.0499 17.6539C38.8099 17.3659 38.6059 17.1079 38.4379 16.8799L36.6559 14.2879C36.4999 14.0599 36.3259 13.8259 36.1339 13.5859C35.9539 13.3459 35.7799 13.1659 35.6119 13.0459H34.9639V15.7639C34.9639 16.0879 34.9579 16.3999 34.9459 16.6999C34.9339 16.9999 34.9159 17.2279 34.8919 17.3839C35.0839 17.3599 35.3239 17.3479 35.6119 17.3479C35.9119 17.3359 36.1219 17.3299 36.2419 17.3299V18.7159H31.0759ZM47.4837 19.0039C46.6197 19.0039 45.8397 18.8179 45.1437 18.4459C44.4477 18.0739 43.8957 17.5459 43.4877 16.8619C43.0917 16.1659 42.8937 15.3499 42.8937 14.4139C42.8937 13.4179 43.0977 12.5479 43.5057 11.8039C43.9257 11.0479 44.4777 10.4659 45.1617 10.0579C45.8577 9.63794 46.6137 9.42794 47.4297 9.42794C48.2937 9.42794 49.0677 9.61394 49.7517 9.98594C50.4357 10.3579 50.9757 10.8919 51.3717 11.5879C51.7677 12.2719 51.9657 13.0939 51.9657 14.0539C51.9657 15.0619 51.7737 15.9379 51.3897 16.6819C51.0057 17.4259 50.4777 18.0019 49.8057 18.4099C49.1337 18.8059 48.3597 19.0039 47.4837 19.0039ZM47.5557 17.7259C48.0357 17.7139 48.3957 17.5459 48.6357 17.2219C48.8877 16.8979 49.0617 16.4899 49.1577 15.9979C49.2537 15.5059 49.3017 15.0079 49.3017 14.5039C49.3017 14.0599 49.2657 13.6099 49.1937 13.1539C49.1337 12.6979 49.0317 12.2839 48.8877 11.9119C48.7437 11.5399 48.5457 11.2399 48.2937 11.0119C48.0537 10.7839 47.7537 10.6759 47.3937 10.6879C46.9257 10.6999 46.5537 10.8679 46.2777 11.1919C46.0137 11.5159 45.8217 11.9239 45.7017 12.4159C45.5937 12.8959 45.5397 13.3999 45.5397 13.9279C45.5397 14.5399 45.6057 15.1399 45.7377 15.7279C45.8697 16.3159 46.0797 16.8019 46.3677 17.1859C46.6677 17.5579 47.0637 17.7379 47.5557 17.7259ZM53.089 18.7159V17.5459C53.425 17.5459 53.665 17.4799 53.809 17.3479C53.953 17.2159 54.043 17.0299 54.079 16.7899C54.127 16.5379 54.151 16.2559 54.151 15.9439V12.9199C54.151 12.7039 54.157 12.4639 54.169 12.1999C54.181 11.9239 54.199 11.6539 54.223 11.3899C54.031 11.4019 53.803 11.4139 53.539 11.4259C53.287 11.4259 53.095 11.4319 52.963 11.4439V10.0759C53.515 10.0759 53.983 10.0459 54.367 9.98594C54.751 9.92594 55.051 9.85394 55.267 9.76994C55.495 9.68594 55.651 9.60794 55.735 9.53594H56.617C56.641 9.69194 56.653 9.80594 56.653 9.87794C56.653 9.94994 56.653 10.0219 56.653 10.0939C56.665 10.1539 56.689 10.2679 56.725 10.4359C56.965 10.2439 57.241 10.0759 57.553 9.93194C57.865 9.77594 58.177 9.65594 58.489 9.57194C58.801 9.47594 59.077 9.42794 59.317 9.42794C60.421 9.42794 61.201 9.74594 61.657 10.3819C62.125 11.0059 62.359 12.0139 62.359 13.4059V15.8179C62.359 15.9859 62.353 16.2259 62.341 16.5379C62.329 16.8379 62.311 17.1259 62.287 17.4019C62.491 17.3779 62.707 17.3659 62.935 17.3659C63.163 17.3539 63.337 17.3479 63.457 17.3479V18.7159H58.741V17.5459C59.077 17.5459 59.317 17.4799 59.461 17.3479C59.617 17.2159 59.713 17.0299 59.749 16.7899C59.797 16.5379 59.821 16.2559 59.821 15.9439L59.803 13.3879C59.803 12.6079 59.689 12.0319 59.461 11.6599C59.245 11.2759 58.873 11.0839 58.345 11.0839C58.045 11.0839 57.745 11.1499 57.445 11.2819C57.157 11.4139 56.911 11.5699 56.707 11.7499C56.707 11.9179 56.707 12.0919 56.707 12.2719C56.707 12.4399 56.707 12.6079 56.707 12.7759V15.8179C56.707 15.9859 56.701 16.2259 56.689 16.5379C56.677 16.8379 56.659 17.1259 56.635 17.4019C56.827 17.3779 57.037 17.3659 57.265 17.3659C57.505 17.3539 57.685 17.3479 57.805 17.3479V18.7159H53.089ZM67.8109 19.0039C67.4509 19.0039 67.1029 18.9619 66.7669 18.8779C66.4429 18.7939 66.1429 18.6379 65.8669 18.4099C65.6029 18.1699 65.3929 17.8219 65.2369 17.3659C65.0809 16.9099 65.0029 16.3039 65.0029 15.5479L65.0389 11.2099H63.8149V9.71594C64.1869 9.70394 64.5469 9.57794 64.8949 9.33794C65.2429 9.09794 65.5369 8.78594 65.7769 8.40194C66.0289 8.01794 66.1969 7.61594 66.2809 7.19594H67.6129L67.5949 9.71594H69.8809V11.1019L67.5949 11.1559L67.5769 15.5839C67.5769 15.8599 67.6009 16.1359 67.6489 16.4119C67.7089 16.6759 67.8169 16.8979 67.9729 17.0779C68.1289 17.2459 68.3569 17.3299 68.6569 17.3299C68.8249 17.3299 69.0529 17.2699 69.3409 17.1499C69.6409 17.0299 69.9589 16.7299 70.2949 16.2499L71.1589 17.0599C70.8349 17.5399 70.4989 17.9119 70.1509 18.1759C69.8029 18.4399 69.4669 18.6319 69.1429 18.7519C68.8309 18.8719 68.5549 18.9439 68.3149 18.9679C68.0749 18.9919 67.9069 19.0039 67.8109 19.0039ZM75.7685 19.0039C74.8925 19.0039 74.1185 18.8119 73.4465 18.4279C72.7745 18.0319 72.2525 17.4799 71.8805 16.7719C71.5085 16.0519 71.3225 15.2059 71.3225 14.2339C71.3225 13.3939 71.5085 12.6079 71.8805 11.8759C72.2525 11.1439 72.7745 10.5559 73.4465 10.1119C74.1305 9.65594 74.9225 9.42794 75.8225 9.42794C76.3265 9.42794 76.8185 9.49994 77.2985 9.64394C77.7785 9.77594 78.2105 10.0099 78.5945 10.3459C78.9905 10.6819 79.3025 11.1379 79.5305 11.7139C79.7705 12.2899 79.8845 13.0099 79.8725 13.8739L73.9685 13.9819C73.9685 14.6299 74.0465 15.2119 74.2025 15.7279C74.3705 16.2439 74.6405 16.6519 75.0125 16.9519C75.3845 17.2519 75.8825 17.4019 76.5065 17.4019C76.7465 17.4019 77.0165 17.3599 77.3165 17.2759C77.6285 17.1919 77.9405 17.0539 78.2525 16.8619C78.5765 16.6579 78.8765 16.3879 79.1525 16.0519L79.9625 16.8079C79.5305 17.4199 79.0685 17.8879 78.5765 18.2119C78.0845 18.5239 77.5925 18.7339 77.1005 18.8419C76.6205 18.9499 76.1765 19.0039 75.7685 19.0039ZM74.0765 12.7219H77.3885C77.3765 12.2179 77.3045 11.8219 77.1725 11.5339C77.0525 11.2339 76.8845 11.0179 76.6685 10.8859C76.4525 10.7539 76.2005 10.6879 75.9125 10.6879C75.3845 10.6879 74.9705 10.8799 74.6705 11.2639C74.3705 11.6359 74.1725 12.1219 74.0765 12.7219ZM81.008 18.7159V17.5459C81.344 17.5459 81.584 17.4799 81.728 17.3479C81.872 17.2159 81.962 17.0299 81.998 16.7899C82.046 16.5379 82.07 16.2559 82.07 15.9439V12.9199C82.07 12.7039 82.076 12.4639 82.088 12.1999C82.1 11.9239 82.118 11.6539 82.142 11.3899C81.95 11.4019 81.722 11.4139 81.458 11.4259C81.206 11.4259 81.014 11.4319 80.882 11.4439V10.0759C81.434 10.0759 81.902 10.0459 82.286 9.98594C82.67 9.92594 82.97 9.85394 83.186 9.76994C83.414 9.68594 83.57 9.60794 83.654 9.53594H84.536C84.56 9.69194 84.572 9.80594 84.572 9.87794C84.572 9.94994 84.572 10.0219 84.572 10.0939C84.584 10.1539 84.608 10.2679 84.644 10.4359C84.884 10.2439 85.16 10.0759 85.472 9.93194C85.784 9.77594 86.096 9.65594 86.408 9.57194C86.72 9.47594 86.996 9.42794 87.236 9.42794C88.34 9.42794 89.12 9.74594 89.576 10.3819C90.044 11.0059 90.278 12.0139 90.278 13.4059V15.8179C90.278 15.9859 90.272 16.2259 90.26 16.5379C90.248 16.8379 90.23 17.1259 90.206 17.4019C90.41 17.3779 90.626 17.3659 90.854 17.3659C91.082 17.3539 91.256 17.3479 91.376 17.3479V18.7159H86.66V17.5459C86.996 17.5459 87.236 17.4799 87.38 17.3479C87.536 17.2159 87.632 17.0299 87.668 16.7899C87.716 16.5379 87.74 16.2559 87.74 15.9439L87.722 13.3879C87.722 12.6079 87.608 12.0319 87.38 11.6599C87.164 11.2759 86.792 11.0839 86.264 11.0839C85.964 11.0839 85.664 11.1499 85.364 11.2819C85.076 11.4139 84.83 11.5699 84.626 11.7499C84.626 11.9179 84.626 12.0919 84.626 12.2719C84.626 12.4399 84.626 12.6079 84.626 12.7759V15.8179C84.626 15.9859 84.62 16.2259 84.608 16.5379C84.596 16.8379 84.578 17.1259 84.554 17.4019C84.746 17.3779 84.956 17.3659 85.184 17.3659C85.424 17.3539 85.604 17.3479 85.724 17.3479V18.7159H81.008ZM96.9819 17.5279C97.2579 17.5159 97.4859 17.4799 97.6659 17.4199C97.8579 17.3599 98.0019 17.2219 98.0979 17.0059C98.2059 16.7899 98.2599 16.4419 98.2599 15.9619V9.06794C98.2599 8.74394 98.2659 8.43194 98.2779 8.13194C98.3019 7.83194 98.3199 7.60394 98.3319 7.44794C98.1399 7.45994 97.8999 7.47194 97.6119 7.48394C97.3239 7.48394 97.1139 7.48994 96.9819 7.50194V6.11594C97.8339 6.10394 98.6859 6.09794 99.5379 6.09794C100.39 6.09794 101.242 6.09194 102.094 6.07994C103.15 6.06794 104.068 6.20594 104.848 6.49394C105.64 6.78194 106.246 7.22594 106.666 7.82594C107.098 8.42594 107.302 9.20594 107.278 10.1659C107.266 10.6459 107.152 11.1199 106.936 11.5879C106.72 12.0439 106.402 12.4639 105.982 12.8479C105.562 13.2199 105.034 13.5259 104.398 13.7659C103.762 14.0059 103.018 14.1379 102.166 14.1619C101.902 14.1739 101.668 14.1799 101.464 14.1799C101.272 14.1799 101.074 14.1739 100.87 14.1619V15.7459C100.87 16.0819 100.864 16.3999 100.852 16.6999C100.84 16.9999 100.822 17.2279 100.798 17.3839C100.93 17.3719 101.098 17.3659 101.302 17.3659C101.506 17.3539 101.704 17.3479 101.896 17.3479C102.1 17.3359 102.244 17.3299 102.328 17.3299V18.7159H96.9819V17.5279ZM100.87 12.8119C101.002 12.8239 101.134 12.8359 101.266 12.8479C101.398 12.8599 101.536 12.8659 101.68 12.8659C102.34 12.8659 102.874 12.7579 103.282 12.5419C103.702 12.3139 104.008 11.9899 104.2 11.5699C104.392 11.1379 104.488 10.6159 104.488 10.0039C104.488 9.40394 104.404 8.92394 104.236 8.56394C104.08 8.20394 103.876 7.93994 103.624 7.77194C103.372 7.59194 103.108 7.47794 102.832 7.42994C102.556 7.36994 102.304 7.33994 102.076 7.33994C101.824 7.33994 101.608 7.36994 101.428 7.42994C101.248 7.48994 101.11 7.62194 101.014 7.82594C100.918 8.02994 100.87 8.34194 100.87 8.76194V12.8119ZM108.136 17.5459C108.472 17.5459 108.712 17.4799 108.856 17.3479C109 17.2159 109.09 17.0299 109.126 16.7899C109.174 16.5379 109.198 16.2559 109.198 15.9439V12.9199C109.198 12.7039 109.204 12.4639 109.216 12.1999C109.228 11.9239 109.246 11.6539 109.27 11.3899C109.078 11.4019 108.85 11.4139 108.586 11.4259C108.334 11.4259 108.142 11.4319 108.01 11.4439V10.0759H108.73C109.198 10.0759 109.624 10.0159 110.008 9.89594C110.404 9.77594 110.662 9.65594 110.782 9.53594H111.664C111.688 9.65594 111.706 9.88394 111.718 10.2199C111.73 10.5439 111.736 10.8319 111.736 11.0839C112.06 10.6879 112.366 10.3699 112.654 10.1299C112.942 9.88994 113.224 9.71594 113.5 9.60794C113.788 9.48794 114.076 9.42794 114.364 9.42794C114.784 9.42794 115.15 9.54794 115.462 9.78794C115.774 10.0159 115.93 10.3939 115.93 10.9219C115.93 11.1019 115.888 11.2939 115.804 11.4979C115.72 11.6899 115.588 11.8519 115.408 11.9839C115.228 12.1159 114.982 12.1819 114.67 12.1819C114.43 12.1819 114.184 12.1099 113.932 11.9659C113.68 11.8219 113.536 11.5459 113.5 11.1379C113.26 11.1379 113.02 11.2399 112.78 11.4439C112.54 11.6359 112.324 11.8699 112.132 12.1459C111.952 12.4099 111.826 12.6559 111.754 12.8839V15.8179C111.754 15.9859 111.748 16.2259 111.736 16.5379C111.724 16.8379 111.706 17.1259 111.682 17.4019C111.874 17.3779 112.084 17.3659 112.312 17.3659C112.552 17.3539 112.732 17.3479 112.852 17.3479V18.7159H108.136V17.5459ZM120.73 19.0039C119.854 19.0039 119.08 18.8119 118.408 18.4279C117.736 18.0319 117.214 17.4799 116.842 16.7719C116.47 16.0519 116.284 15.2059 116.284 14.2339C116.284 13.3939 116.47 12.6079 116.842 11.8759C117.214 11.1439 117.736 10.5559 118.408 10.1119C119.092 9.65594 119.884 9.42794 120.784 9.42794C121.288 9.42794 121.78 9.49994 122.26 9.64394C122.74 9.77594 123.172 10.0099 123.556 10.3459C123.952 10.6819 124.264 11.1379 124.492 11.7139C124.732 12.2899 124.846 13.0099 124.834 13.8739L118.93 13.9819C118.93 14.6299 119.008 15.2119 119.164 15.7279C119.332 16.2439 119.602 16.6519 119.974 16.9519C120.346 17.2519 120.844 17.4019 121.468 17.4019C121.708 17.4019 121.978 17.3599 122.278 17.2759C122.59 17.1919 122.902 17.0539 123.214 16.8619C123.538 16.6579 123.838 16.3879 124.114 16.0519L124.924 16.8079C124.492 17.4199 124.03 17.8879 123.538 18.2119C123.046 18.5239 122.554 18.7339 122.062 18.8419C121.582 18.9499 121.138 19.0039 120.73 19.0039ZM119.038 12.7219H122.35C122.338 12.2179 122.266 11.8219 122.134 11.5339C122.014 11.2339 121.846 11.0179 121.63 10.8859C121.414 10.7539 121.162 10.6879 120.874 10.6879C120.346 10.6879 119.932 10.8799 119.632 11.2639C119.332 11.6359 119.134 12.1219 119.038 12.7219ZM125.969 18.7159V17.5459C126.305 17.5459 126.545 17.4799 126.689 17.3479C126.833 17.2159 126.923 17.0299 126.959 16.7899C127.007 16.5379 127.031 16.2559 127.031 15.9439V12.9199C127.031 12.7039 127.037 12.4639 127.049 12.1999C127.061 11.9239 127.079 11.6539 127.103 11.3899C126.911 11.4019 126.683 11.4139 126.419 11.4259C126.167 11.4259 125.975 11.4319 125.843 11.4439V10.0759C126.395 10.0759 126.863 10.0459 127.247 9.98594C127.631 9.92594 127.931 9.85394 128.147 9.76994C128.375 9.68594 128.531 9.60794 128.615 9.53594H129.497C129.521 9.65594 129.533 9.80594 129.533 9.98594C129.545 10.1659 129.557 10.3159 129.569 10.4359C129.977 10.1239 130.415 9.87794 130.883 9.69794C131.363 9.51794 131.813 9.42794 132.233 9.42794C132.785 9.42794 133.241 9.52994 133.601 9.73394C133.961 9.92594 134.249 10.2199 134.465 10.6159C134.897 10.2559 135.371 9.96794 135.887 9.75194C136.415 9.53594 136.919 9.42794 137.399 9.42794C138.371 9.42794 139.103 9.70994 139.595 10.2739C140.099 10.8259 140.351 11.7919 140.351 13.1719V15.8179C140.351 15.9859 140.345 16.2259 140.333 16.5379C140.321 16.8379 140.303 17.1259 140.279 17.4019C140.471 17.3779 140.681 17.3659 140.909 17.3659C141.149 17.3539 141.329 17.3479 141.449 17.3479V18.7159H136.895V17.5459C137.171 17.5459 137.369 17.4799 137.489 17.3479C137.621 17.2159 137.705 17.0299 137.741 16.7899C137.777 16.5379 137.795 16.2559 137.795 15.9439V13.1899C137.783 12.4099 137.651 11.8699 137.399 11.5699C137.159 11.2699 136.835 11.1139 136.427 11.1019C136.115 11.0899 135.821 11.1439 135.545 11.2639C135.281 11.3839 135.041 11.5279 134.825 11.6959C134.885 11.9359 134.927 12.1999 134.951 12.4879C134.975 12.7759 134.987 13.0819 134.987 13.4059C134.987 13.8139 134.987 14.2159 134.987 14.6119C134.987 15.0079 134.987 15.4099 134.987 15.8179C134.987 15.9859 134.981 16.2259 134.969 16.5379C134.957 16.8379 134.939 17.1259 134.915 17.4019C135.107 17.3779 135.317 17.3659 135.545 17.3659C135.773 17.3539 135.953 17.3479 136.085 17.3479V18.7159H131.441V17.5459C131.753 17.5459 131.975 17.4799 132.107 17.3479C132.251 17.2159 132.341 17.0299 132.377 16.7899C132.413 16.5379 132.431 16.2559 132.431 15.9439L132.413 13.1359C132.413 12.3559 132.299 11.8219 132.071 11.5339C131.843 11.2459 131.525 11.0959 131.117 11.0839C130.817 11.0839 130.535 11.1499 130.271 11.2819C130.019 11.4139 129.791 11.5699 129.587 11.7499C129.587 11.9059 129.587 12.0559 129.587 12.1999C129.587 12.3439 129.587 12.4939 129.587 12.6499V15.8179C129.587 15.9859 129.581 16.2259 129.569 16.5379C129.557 16.8379 129.539 17.1259 129.515 17.4019C129.707 17.3779 129.905 17.3659 130.109 17.3659C130.313 17.3539 130.475 17.3479 130.595 17.3479V18.7159H125.969ZM142.348 17.5459C142.684 17.5459 142.924 17.4799 143.068 17.3479C143.212 17.2159 143.302 17.0299 143.338 16.7899C143.386 16.5379 143.41 16.2559 143.41 15.9439V12.9559C143.41 12.7399 143.416 12.4939 143.428 12.2179C143.44 11.9299 143.458 11.6539 143.482 11.3899C143.29 11.4019 143.062 11.4139 142.798 11.4259C142.546 11.4259 142.354 11.4319 142.222 11.4439V10.0759C142.774 10.0759 143.242 10.0459 143.626 9.98594C144.01 9.92594 144.31 9.85394 144.526 9.76994C144.754 9.68594 144.91 9.60794 144.994 9.53594H145.966V15.8179C145.966 15.9859 145.96 16.2259 145.948 16.5379C145.936 16.8379 145.918 17.1259 145.894 17.4019C146.086 17.3779 146.296 17.3659 146.524 17.3659C146.764 17.3539 146.944 17.3479 147.064 17.3479V18.7159H142.348V17.5459ZM144.598 8.11394C144.19 8.11394 143.854 7.96994 143.59 7.68194C143.326 7.39394 143.194 7.04594 143.194 6.63794C143.194 6.22994 143.332 5.88194 143.608 5.59394C143.884 5.30594 144.208 5.16194 144.58 5.16194C144.964 5.16194 145.282 5.30594 145.534 5.59394C145.798 5.88194 145.93 6.22994 145.93 6.63794C145.93 7.04594 145.81 7.39394 145.57 7.68194C145.33 7.96994 145.006 8.11394 144.598 8.11394ZM151.783 19.0039C151.063 19.0039 150.481 18.8659 150.037 18.5899C149.605 18.3139 149.287 17.8819 149.083 17.2939C148.891 16.7059 148.795 15.9499 148.795 15.0259V12.9559C148.795 12.7399 148.801 12.4939 148.813 12.2179C148.825 11.9299 148.837 11.6539 148.849 11.3899C148.657 11.4019 148.429 11.4139 148.165 11.4259C147.913 11.4259 147.721 11.4319 147.589 11.4439V10.0759H147.769C148.513 10.0759 149.101 10.0159 149.533 9.89594C149.965 9.77594 150.241 9.65594 150.361 9.53594H151.351V15.0439C151.351 15.8239 151.453 16.4059 151.657 16.7899C151.861 17.1619 152.185 17.3479 152.629 17.3479C152.941 17.3479 153.253 17.2639 153.565 17.0959C153.889 16.9159 154.153 16.7119 154.357 16.4839V12.9559C154.357 12.7399 154.363 12.4939 154.375 12.2179C154.387 11.9299 154.405 11.6539 154.429 11.3899C154.237 11.4019 154.009 11.4139 153.745 11.4259C153.493 11.4259 153.301 11.4319 153.169 11.4439V10.0759H153.601C154.165 10.0759 154.663 10.0159 155.095 9.89594C155.527 9.76394 155.803 9.64394 155.923 9.53594H156.913V15.8179C156.913 15.9859 156.907 16.2259 156.895 16.5379C156.883 16.8379 156.865 17.1259 156.841 17.4019C157.033 17.3779 157.243 17.3659 157.471 17.3659C157.711 17.3539 157.891 17.3479 158.011 17.3479V18.7159H154.591C154.579 18.5599 154.561 18.4039 154.537 18.2479C154.525 18.0919 154.507 17.9359 154.483 17.7799C154.111 18.0919 153.709 18.3739 153.277 18.6259C152.857 18.8779 152.359 19.0039 151.783 19.0039ZM159.004 18.7159V17.5459C159.34 17.5459 159.58 17.4799 159.724 17.3479C159.868 17.2159 159.958 17.0299 159.994 16.7899C160.042 16.5379 160.066 16.2559 160.066 15.9439V12.9199C160.066 12.7039 160.072 12.4639 160.084 12.1999C160.096 11.9239 160.114 11.6539 160.138 11.3899C159.946 11.4019 159.718 11.4139 159.454 11.4259C159.202 11.4259 159.01 11.4319 158.878 11.4439V10.0759C159.43 10.0759 159.898 10.0459 160.282 9.98594C160.666 9.92594 160.966 9.85394 161.182 9.76994C161.41 9.68594 161.566 9.60794 161.65 9.53594H162.532C162.556 9.65594 162.568 9.80594 162.568 9.98594C162.58 10.1659 162.592 10.3159 162.604 10.4359C163.012 10.1239 163.45 9.87794 163.918 9.69794C164.398 9.51794 164.848 9.42794 165.268 9.42794C165.82 9.42794 166.276 9.52994 166.636 9.73394C166.996 9.92594 167.284 10.2199 167.5 10.6159C167.932 10.2559 168.406 9.96794 168.922 9.75194C169.45 9.53594 169.954 9.42794 170.434 9.42794C171.406 9.42794 172.138 9.70994 172.63 10.2739C173.134 10.8259 173.386 11.7919 173.386 13.1719V15.8179C173.386 15.9859 173.38 16.2259 173.368 16.5379C173.356 16.8379 173.338 17.1259 173.314 17.4019C173.506 17.3779 173.716 17.3659 173.944 17.3659C174.184 17.3539 174.364 17.3479 174.484 17.3479V18.7159H169.93V17.5459C170.206 17.5459 170.404 17.4799 170.524 17.3479C170.656 17.2159 170.74 17.0299 170.776 16.7899C170.812 16.5379 170.83 16.2559 170.83 15.9439V13.1899C170.818 12.4099 170.686 11.8699 170.434 11.5699C170.194 11.2699 169.87 11.1139 169.462 11.1019C169.15 11.0899 168.856 11.1439 168.58 11.2639C168.316 11.3839 168.076 11.5279 167.86 11.6959C167.92 11.9359 167.962 12.1999 167.986 12.4879C168.01 12.7759 168.022 13.0819 168.022 13.4059C168.022 13.8139 168.022 14.2159 168.022 14.6119C168.022 15.0079 168.022 15.4099 168.022 15.8179C168.022 15.9859 168.016 16.2259 168.004 16.5379C167.992 16.8379 167.974 17.1259 167.95 17.4019C168.142 17.3779 168.352 17.3659 168.58 17.3659C168.808 17.3539 168.988 17.3479 169.12 17.3479V18.7159H164.476V17.5459C164.788 17.5459 165.01 17.4799 165.142 17.3479C165.286 17.2159 165.376 17.0299 165.412 16.7899C165.448 16.5379 165.466 16.2559 165.466 15.9439L165.448 13.1359C165.448 12.3559 165.334 11.8219 165.106 11.5339C164.878 11.2459 164.56 11.0959 164.152 11.0839C163.852 11.0839 163.57 11.1499 163.306 11.2819C163.054 11.4139 162.826 11.5699 162.622 11.7499C162.622 11.9059 162.622 12.0559 162.622 12.1999C162.622 12.3439 162.622 12.4939 162.622 12.6499V15.8179C162.622 15.9859 162.616 16.2259 162.604 16.5379C162.592 16.8379 162.574 17.1259 162.55 17.4019C162.742 17.3779 162.94 17.3659 163.144 17.3659C163.348 17.3539 163.51 17.3479 163.63 17.3479V18.7159H159.004Z" fill="#3D3D3D"/>
</svg>
