<svg width="145" height="24" viewBox="0 0 145 24" fill="none" xmlns="http://www.w3.org/2000/svg">
<path d="M1.07586 18.7159V17.5279C1.35186 17.5159 1.57986 17.4799 1.75986 17.4199C1.95186 17.3599 2.09586 17.2219 2.19186 17.0059C2.29986 16.7899 2.35386 16.4419 2.35386 15.9619V9.06794C2.35386 8.74394 2.35986 8.43194 2.37186 8.13194C2.39586 7.83194 2.41386 7.60394 2.42586 7.44794C2.23386 7.45994 1.99386 7.47194 1.70586 7.48394C1.41786 7.48394 1.20786 7.48994 1.07586 7.50194V6.11594H6.24186V7.30394C5.97786 7.31594 5.74986 7.35194 5.55786 7.41194C5.36586 7.47194 5.21586 7.60994 5.10786 7.82594C5.01186 8.02994 4.96386 8.37794 4.96386 8.86994V11.6059H6.25986L7.64586 9.24794C7.84986 8.88794 8.06586 8.52794 8.29386 8.16794C8.52186 7.80794 8.71386 7.56194 8.86986 7.42994C8.67786 7.44194 8.47386 7.45394 8.25786 7.46594C8.04186 7.47794 7.86786 7.48994 7.73586 7.50194V6.11594H12.1459V7.30394C11.8819 7.31594 11.5939 7.36394 11.2819 7.44794C10.9819 7.53194 10.6699 7.69994 10.3459 7.95194C10.0219 8.20394 9.69186 8.59994 9.35586 9.13994L7.62786 11.9119C7.86786 12.0679 8.07786 12.2359 8.25786 12.4159C8.44986 12.5839 8.61786 12.7699 8.76186 12.9739L10.6159 15.5839C10.8559 15.9199 11.1019 16.2379 11.3539 16.5379C11.6179 16.8259 11.8879 17.0599 12.1639 17.2399C12.4399 17.4199 12.7099 17.5159 12.9739 17.5279V18.7159H10.2019C10.1059 18.7039 9.94986 18.5959 9.73386 18.3919C9.51786 18.1879 9.28986 17.9419 9.04986 17.6539C8.80986 17.3659 8.60586 17.1079 8.43786 16.8799L6.65586 14.2879C6.49986 14.0599 6.32586 13.8259 6.13386 13.5859C5.95386 13.3459 5.77986 13.1659 5.61186 13.0459H4.96386V15.7639C4.96386 16.0879 4.95786 16.3999 4.94586 16.6999C4.93386 16.9999 4.91586 17.2279 4.89186 17.3839C5.08386 17.3599 5.32386 17.3479 5.61186 17.3479C5.91186 17.3359 6.12186 17.3299 6.24186 17.3299V18.7159H1.07586ZM17.4837 19.0039C16.6197 19.0039 15.8397 18.8179 15.1437 18.4459C14.4477 18.0739 13.8957 17.5459 13.4877 16.8619C13.0917 16.1659 12.8937 15.3499 12.8937 14.4139C12.8937 13.4179 13.0977 12.5479 13.5057 11.8039C13.9257 11.0479 14.4777 10.4659 15.1617 10.0579C15.8577 9.63794 16.6137 9.42794 17.4297 9.42794C18.2937 9.42794 19.0677 9.61394 19.7517 9.98594C20.4357 10.3579 20.9757 10.8919 21.3717 11.5879C21.7677 12.2719 21.9657 13.0939 21.9657 14.0539C21.9657 15.0619 21.7737 15.9379 21.3897 16.6819C21.0057 17.4259 20.4777 18.0019 19.8057 18.4099C19.1337 18.8059 18.3597 19.0039 17.4837 19.0039ZM17.5557 17.7259C18.0357 17.7139 18.3957 17.5459 18.6357 17.2219C18.8877 16.8979 19.0617 16.4899 19.1577 15.9979C19.2537 15.5059 19.3017 15.0079 19.3017 14.5039C19.3017 14.0599 19.2657 13.6099 19.1937 13.1539C19.1337 12.6979 19.0317 12.2839 18.8877 11.9119C18.7437 11.5399 18.5457 11.2399 18.2937 11.0119C18.0537 10.7839 17.7537 10.6759 17.3937 10.6879C16.9257 10.6999 16.5537 10.8679 16.2777 11.1919C16.0137 11.5159 15.8217 11.9239 15.7017 12.4159C15.5937 12.8959 15.5397 13.3999 15.5397 13.9279C15.5397 14.5399 15.6057 15.1399 15.7377 15.7279C15.8697 16.3159 16.0797 16.8019 16.3677 17.1859C16.6677 17.5579 17.0637 17.7379 17.5557 17.7259ZM23.089 18.7159V17.5459C23.425 17.5459 23.665 17.4799 23.809 17.3479C23.953 17.2159 24.043 17.0299 24.079 16.7899C24.127 16.5379 24.151 16.2559 24.151 15.9439V12.9199C24.151 12.7039 24.157 12.4639 24.169 12.1999C24.181 11.9239 24.199 11.6539 24.223 11.3899C24.031 11.4019 23.803 11.4139 23.539 11.4259C23.287 11.4259 23.095 11.4319 22.963 11.4439V10.0759C23.515 10.0759 23.983 10.0459 24.367 9.98594C24.751 9.92594 25.051 9.85394 25.267 9.76994C25.495 9.68594 25.651 9.60794 25.735 9.53594H26.617C26.641 9.69194 26.653 9.80594 26.653 9.87794C26.653 9.94994 26.653 10.0219 26.653 10.0939C26.665 10.1539 26.689 10.2679 26.725 10.4359C26.965 10.2439 27.241 10.0759 27.553 9.93194C27.865 9.77594 28.177 9.65594 28.489 9.57194C28.801 9.47594 29.077 9.42794 29.317 9.42794C30.421 9.42794 31.201 9.74594 31.657 10.3819C32.125 11.0059 32.359 12.0139 32.359 13.4059V15.8179C32.359 15.9859 32.353 16.2259 32.341 16.5379C32.329 16.8379 32.311 17.1259 32.287 17.4019C32.491 17.3779 32.707 17.3659 32.935 17.3659C33.163 17.3539 33.337 17.3479 33.457 17.3479V18.7159H28.741V17.5459C29.077 17.5459 29.317 17.4799 29.461 17.3479C29.617 17.2159 29.713 17.0299 29.749 16.7899C29.797 16.5379 29.821 16.2559 29.821 15.9439L29.803 13.3879C29.803 12.6079 29.689 12.0319 29.461 11.6599C29.245 11.2759 28.873 11.0839 28.345 11.0839C28.045 11.0839 27.745 11.1499 27.445 11.2819C27.157 11.4139 26.911 11.5699 26.707 11.7499C26.707 11.9179 26.707 12.0919 26.707 12.2719C26.707 12.4399 26.707 12.6079 26.707 12.7759V15.8179C26.707 15.9859 26.701 16.2259 26.689 16.5379C26.677 16.8379 26.659 17.1259 26.635 17.4019C26.827 17.3779 27.037 17.3659 27.265 17.3659C27.505 17.3539 27.685 17.3479 27.805 17.3479V18.7159H23.089ZM37.8109 19.0039C37.4509 19.0039 37.1029 18.9619 36.7669 18.8779C36.4429 18.7939 36.1429 18.6379 35.8669 18.4099C35.6029 18.1699 35.3929 17.8219 35.2369 17.3659C35.0809 16.9099 35.0029 16.3039 35.0029 15.5479L35.0389 11.2099H33.8149V9.71594C34.1869 9.70394 34.5469 9.57794 34.8949 9.33794C35.2429 9.09794 35.5369 8.78594 35.7769 8.40194C36.0289 8.01794 36.1969 7.61594 36.2809 7.19594H37.6129L37.5949 9.71594H39.8809V11.1019L37.5949 11.1559L37.5769 15.5839C37.5769 15.8599 37.6009 16.1359 37.6489 16.4119C37.7089 16.6759 37.8169 16.8979 37.9729 17.0779C38.1289 17.2459 38.3569 17.3299 38.6569 17.3299C38.8249 17.3299 39.0529 17.2699 39.3409 17.1499C39.6409 17.0299 39.9589 16.7299 40.2949 16.2499L41.1589 17.0599C40.8349 17.5399 40.4989 17.9119 40.1509 18.1759C39.8029 18.4399 39.4669 18.6319 39.1429 18.7519C38.8309 18.8719 38.5549 18.9439 38.3149 18.9679C38.0749 18.9919 37.9069 19.0039 37.8109 19.0039ZM45.7685 19.0039C44.8925 19.0039 44.1185 18.8119 43.4465 18.4279C42.7745 18.0319 42.2525 17.4799 41.8805 16.7719C41.5085 16.0519 41.3225 15.2059 41.3225 14.2339C41.3225 13.3939 41.5085 12.6079 41.8805 11.8759C42.2525 11.1439 42.7745 10.5559 43.4465 10.1119C44.1305 9.65594 44.9225 9.42794 45.8225 9.42794C46.3265 9.42794 46.8185 9.49994 47.2985 9.64394C47.7785 9.77594 48.2105 10.0099 48.5945 10.3459C48.9905 10.6819 49.3025 11.1379 49.5305 11.7139C49.7705 12.2899 49.8845 13.0099 49.8725 13.8739L43.9685 13.9819C43.9685 14.6299 44.0465 15.2119 44.2025 15.7279C44.3705 16.2439 44.6405 16.6519 45.0125 16.9519C45.3845 17.2519 45.8825 17.4019 46.5065 17.4019C46.7465 17.4019 47.0165 17.3599 47.3165 17.2759C47.6285 17.1919 47.9405 17.0539 48.2525 16.8619C48.5765 16.6579 48.8765 16.3879 49.1525 16.0519L49.9625 16.8079C49.5305 17.4199 49.0685 17.8879 48.5765 18.2119C48.0845 18.5239 47.5925 18.7339 47.1005 18.8419C46.6205 18.9499 46.1765 19.0039 45.7685 19.0039ZM44.0765 12.7219H47.3885C47.3765 12.2179 47.3045 11.8219 47.1725 11.5339C47.0525 11.2339 46.8845 11.0179 46.6685 10.8859C46.4525 10.7539 46.2005 10.6879 45.9125 10.6879C45.3845 10.6879 44.9705 10.8799 44.6705 11.2639C44.3705 11.6359 44.1725 12.1219 44.0765 12.7219ZM51.008 18.7159V17.5459C51.344 17.5459 51.584 17.4799 51.728 17.3479C51.872 17.2159 51.962 17.0299 51.998 16.7899C52.046 16.5379 52.07 16.2559 52.07 15.9439V12.9199C52.07 12.7039 52.076 12.4639 52.088 12.1999C52.1 11.9239 52.118 11.6539 52.142 11.3899C51.95 11.4019 51.722 11.4139 51.458 11.4259C51.206 11.4259 51.014 11.4319 50.882 11.4439V10.0759C51.434 10.0759 51.902 10.0459 52.286 9.98594C52.67 9.92594 52.97 9.85394 53.186 9.76994C53.414 9.68594 53.57 9.60794 53.654 9.53594H54.536C54.56 9.69194 54.572 9.80594 54.572 9.87794C54.572 9.94994 54.572 10.0219 54.572 10.0939C54.584 10.1539 54.608 10.2679 54.644 10.4359C54.884 10.2439 55.16 10.0759 55.472 9.93194C55.784 9.77594 56.096 9.65594 56.408 9.57194C56.72 9.47594 56.996 9.42794 57.236 9.42794C58.34 9.42794 59.12 9.74594 59.576 10.3819C60.044 11.0059 60.278 12.0139 60.278 13.4059V15.8179C60.278 15.9859 60.272 16.2259 60.26 16.5379C60.248 16.8379 60.23 17.1259 60.206 17.4019C60.41 17.3779 60.626 17.3659 60.854 17.3659C61.082 17.3539 61.256 17.3479 61.376 17.3479V18.7159H56.66V17.5459C56.996 17.5459 57.236 17.4799 57.38 17.3479C57.536 17.2159 57.632 17.0299 57.668 16.7899C57.716 16.5379 57.74 16.2559 57.74 15.9439L57.722 13.3879C57.722 12.6079 57.608 12.0319 57.38 11.6599C57.164 11.2759 56.792 11.0839 56.264 11.0839C55.964 11.0839 55.664 11.1499 55.364 11.2819C55.076 11.4139 54.83 11.5699 54.626 11.7499C54.626 11.9179 54.626 12.0919 54.626 12.2719C54.626 12.4399 54.626 12.6079 54.626 12.7759V15.8179C54.626 15.9859 54.62 16.2259 54.608 16.5379C54.596 16.8379 54.578 17.1259 54.554 17.4019C54.746 17.3779 54.956 17.3659 55.184 17.3659C55.424 17.3539 55.604 17.3479 55.724 17.3479V18.7159H51.008ZM66.9819 17.5279C67.2579 17.5159 67.4859 17.4799 67.6659 17.4199C67.8579 17.3599 68.0019 17.2219 68.0979 17.0059C68.2059 16.7899 68.2599 16.4419 68.2599 15.9619V9.06794C68.2599 8.74394 68.2659 8.43194 68.2779 8.13194C68.3019 7.83194 68.3199 7.60394 68.3319 7.44794C68.1399 7.45994 67.8999 7.47194 67.6119 7.48394C67.3239 7.48394 67.1139 7.48994 66.9819 7.50194V6.11594C67.8339 6.10394 68.6859 6.09794 69.5379 6.09794C70.3899 6.09794 71.2419 6.09194 72.0939 6.07994C73.1499 6.06794 74.0679 6.20594 74.8479 6.49394C75.6399 6.78194 76.2459 7.22594 76.6659 7.82594C77.0979 8.42594 77.3019 9.20594 77.2779 10.1659C77.2659 10.6459 77.1519 11.1199 76.9359 11.5879C76.7199 12.0439 76.4019 12.4639 75.9819 12.8479C75.5619 13.2199 75.0339 13.5259 74.3979 13.7659C73.7619 14.0059 73.0179 14.1379 72.1659 14.1619C71.9019 14.1739 71.6679 14.1799 71.4639 14.1799C71.2719 14.1799 71.0739 14.1739 70.8699 14.1619V15.7459C70.8699 16.0819 70.8639 16.3999 70.8519 16.6999C70.8399 16.9999 70.8219 17.2279 70.7979 17.3839C70.9299 17.3719 71.0979 17.3659 71.3019 17.3659C71.5059 17.3539 71.7039 17.3479 71.8959 17.3479C72.0999 17.3359 72.2439 17.3299 72.3279 17.3299V18.7159H66.9819V17.5279ZM70.8699 12.8119C71.0019 12.8239 71.1339 12.8359 71.2659 12.8479C71.3979 12.8599 71.5359 12.8659 71.6799 12.8659C72.3399 12.8659 72.8739 12.7579 73.2819 12.5419C73.7019 12.3139 74.0079 11.9899 74.1999 11.5699C74.3919 11.1379 74.4879 10.6159 74.4879 10.0039C74.4879 9.40394 74.4039 8.92394 74.2359 8.56394C74.0799 8.20394 73.8759 7.93994 73.6239 7.77194C73.3719 7.59194 73.1079 7.47794 72.8319 7.42994C72.5559 7.36994 72.3039 7.33994 72.0759 7.33994C71.8239 7.33994 71.6079 7.36994 71.4279 7.42994C71.2479 7.48994 71.1099 7.62194 71.0139 7.82594C70.9179 8.02994 70.8699 8.34194 70.8699 8.76194V12.8119ZM78.136 17.5459C78.472 17.5459 78.712 17.4799 78.856 17.3479C79 17.2159 79.09 17.0299 79.126 16.7899C79.174 16.5379 79.198 16.2559 79.198 15.9439V12.9199C79.198 12.7039 79.204 12.4639 79.216 12.1999C79.228 11.9239 79.246 11.6539 79.27 11.3899C79.078 11.4019 78.85 11.4139 78.586 11.4259C78.334 11.4259 78.142 11.4319 78.01 11.4439V10.0759H78.73C79.198 10.0759 79.624 10.0159 80.008 9.89594C80.404 9.77594 80.662 9.65594 80.782 9.53594H81.664C81.688 9.65594 81.706 9.88394 81.718 10.2199C81.73 10.5439 81.736 10.8319 81.736 11.0839C82.06 10.6879 82.366 10.3699 82.654 10.1299C82.942 9.88994 83.224 9.71594 83.5 9.60794C83.788 9.48794 84.076 9.42794 84.364 9.42794C84.784 9.42794 85.15 9.54794 85.462 9.78794C85.774 10.0159 85.93 10.3939 85.93 10.9219C85.93 11.1019 85.888 11.2939 85.804 11.4979C85.72 11.6899 85.588 11.8519 85.408 11.9839C85.228 12.1159 84.982 12.1819 84.67 12.1819C84.43 12.1819 84.184 12.1099 83.932 11.9659C83.68 11.8219 83.536 11.5459 83.5 11.1379C83.26 11.1379 83.02 11.2399 82.78 11.4439C82.54 11.6359 82.324 11.8699 82.132 12.1459C81.952 12.4099 81.826 12.6559 81.754 12.8839V15.8179C81.754 15.9859 81.748 16.2259 81.736 16.5379C81.724 16.8379 81.706 17.1259 81.682 17.4019C81.874 17.3779 82.084 17.3659 82.312 17.3659C82.552 17.3539 82.732 17.3479 82.852 17.3479V18.7159H78.136V17.5459ZM90.7298 19.0039C89.8538 19.0039 89.0798 18.8119 88.4078 18.4279C87.7358 18.0319 87.2138 17.4799 86.8418 16.7719C86.4698 16.0519 86.2838 15.2059 86.2838 14.2339C86.2838 13.3939 86.4698 12.6079 86.8418 11.8759C87.2138 11.1439 87.7358 10.5559 88.4078 10.1119C89.0918 9.65594 89.8838 9.42794 90.7838 9.42794C91.2878 9.42794 91.7798 9.49994 92.2598 9.64394C92.7398 9.77594 93.1718 10.0099 93.5558 10.3459C93.9518 10.6819 94.2638 11.1379 94.4918 11.7139C94.7318 12.2899 94.8458 13.0099 94.8338 13.8739L88.9298 13.9819C88.9298 14.6299 89.0078 15.2119 89.1638 15.7279C89.3318 16.2439 89.6018 16.6519 89.9738 16.9519C90.3458 17.2519 90.8438 17.4019 91.4678 17.4019C91.7078 17.4019 91.9778 17.3599 92.2778 17.2759C92.5898 17.1919 92.9018 17.0539 93.2138 16.8619C93.5378 16.6579 93.8378 16.3879 94.1138 16.0519L94.9238 16.8079C94.4918 17.4199 94.0298 17.8879 93.5378 18.2119C93.0458 18.5239 92.5538 18.7339 92.0618 18.8419C91.5818 18.9499 91.1378 19.0039 90.7298 19.0039ZM89.0378 12.7219H92.3498C92.3378 12.2179 92.2658 11.8219 92.1338 11.5339C92.0138 11.2339 91.8458 11.0179 91.6298 10.8859C91.4138 10.7539 91.1618 10.6879 90.8738 10.6879C90.3458 10.6879 89.9318 10.8799 89.6318 11.2639C89.3318 11.6359 89.1338 12.1219 89.0378 12.7219ZM95.9693 18.7159V17.5459C96.3053 17.5459 96.5453 17.4799 96.6893 17.3479C96.8333 17.2159 96.9233 17.0299 96.9593 16.7899C97.0073 16.5379 97.0313 16.2559 97.0313 15.9439V12.9199C97.0313 12.7039 97.0373 12.4639 97.0493 12.1999C97.0613 11.9239 97.0793 11.6539 97.1033 11.3899C96.9113 11.4019 96.6833 11.4139 96.4193 11.4259C96.1673 11.4259 95.9753 11.4319 95.8433 11.4439V10.0759C96.3953 10.0759 96.8633 10.0459 97.2473 9.98594C97.6313 9.92594 97.9313 9.85394 98.1473 9.76994C98.3753 9.68594 98.5313 9.60794 98.6153 9.53594H99.4973C99.5213 9.65594 99.5333 9.80594 99.5333 9.98594C99.5453 10.1659 99.5573 10.3159 99.5693 10.4359C99.9773 10.1239 100.415 9.87794 100.883 9.69794C101.363 9.51794 101.813 9.42794 102.233 9.42794C102.785 9.42794 103.241 9.52994 103.601 9.73394C103.961 9.92594 104.249 10.2199 104.465 10.6159C104.897 10.2559 105.371 9.96794 105.887 9.75194C106.415 9.53594 106.919 9.42794 107.399 9.42794C108.371 9.42794 109.103 9.70994 109.595 10.2739C110.099 10.8259 110.351 11.7919 110.351 13.1719V15.8179C110.351 15.9859 110.345 16.2259 110.333 16.5379C110.321 16.8379 110.303 17.1259 110.279 17.4019C110.471 17.3779 110.681 17.3659 110.909 17.3659C111.149 17.3539 111.329 17.3479 111.449 17.3479V18.7159H106.895V17.5459C107.171 17.5459 107.369 17.4799 107.489 17.3479C107.621 17.2159 107.705 17.0299 107.741 16.7899C107.777 16.5379 107.795 16.2559 107.795 15.9439V13.1899C107.783 12.4099 107.651 11.8699 107.399 11.5699C107.159 11.2699 106.835 11.1139 106.427 11.1019C106.115 11.0899 105.821 11.1439 105.545 11.2639C105.281 11.3839 105.041 11.5279 104.825 11.6959C104.885 11.9359 104.927 12.1999 104.951 12.4879C104.975 12.7759 104.987 13.0819 104.987 13.4059C104.987 13.8139 104.987 14.2159 104.987 14.6119C104.987 15.0079 104.987 15.4099 104.987 15.8179C104.987 15.9859 104.981 16.2259 104.969 16.5379C104.957 16.8379 104.939 17.1259 104.915 17.4019C105.107 17.3779 105.317 17.3659 105.545 17.3659C105.773 17.3539 105.953 17.3479 106.085 17.3479V18.7159H101.441V17.5459C101.753 17.5459 101.975 17.4799 102.107 17.3479C102.251 17.2159 102.341 17.0299 102.377 16.7899C102.413 16.5379 102.431 16.2559 102.431 15.9439L102.413 13.1359C102.413 12.3559 102.299 11.8219 102.071 11.5339C101.843 11.2459 101.525 11.0959 101.117 11.0839C100.817 11.0839 100.535 11.1499 100.271 11.2819C100.019 11.4139 99.7913 11.5699 99.5873 11.7499C99.5873 11.9059 99.5873 12.0559 99.5873 12.1999C99.5873 12.3439 99.5873 12.4939 99.5873 12.6499V15.8179C99.5873 15.9859 99.5813 16.2259 99.5693 16.5379C99.5573 16.8379 99.5393 17.1259 99.5153 17.4019C99.7073 17.3779 99.9053 17.3659 100.109 17.3659C100.313 17.3539 100.475 17.3479 100.595 17.3479V18.7159H95.9693ZM112.348 17.5459C112.684 17.5459 112.924 17.4799 113.068 17.3479C113.212 17.2159 113.302 17.0299 113.338 16.7899C113.386 16.5379 113.41 16.2559 113.41 15.9439V12.9559C113.41 12.7399 113.416 12.4939 113.428 12.2179C113.44 11.9299 113.458 11.6539 113.482 11.3899C113.29 11.4019 113.062 11.4139 112.798 11.4259C112.546 11.4259 112.354 11.4319 112.222 11.4439V10.0759C112.774 10.0759 113.242 10.0459 113.626 9.98594C114.01 9.92594 114.31 9.85394 114.526 9.76994C114.754 9.68594 114.91 9.60794 114.994 9.53594H115.966V15.8179C115.966 15.9859 115.96 16.2259 115.948 16.5379C115.936 16.8379 115.918 17.1259 115.894 17.4019C116.086 17.3779 116.296 17.3659 116.524 17.3659C116.764 17.3539 116.944 17.3479 117.064 17.3479V18.7159H112.348V17.5459ZM114.598 8.11394C114.19 8.11394 113.854 7.96994 113.59 7.68194C113.326 7.39394 113.194 7.04594 113.194 6.63794C113.194 6.22994 113.332 5.88194 113.608 5.59394C113.884 5.30594 114.208 5.16194 114.58 5.16194C114.964 5.16194 115.282 5.30594 115.534 5.59394C115.798 5.88194 115.93 6.22994 115.93 6.63794C115.93 7.04594 115.81 7.39394 115.57 7.68194C115.33 7.96994 115.006 8.11394 114.598 8.11394ZM121.783 19.0039C121.063 19.0039 120.481 18.8659 120.037 18.5899C119.605 18.3139 119.287 17.8819 119.083 17.2939C118.891 16.7059 118.795 15.9499 118.795 15.0259V12.9559C118.795 12.7399 118.801 12.4939 118.813 12.2179C118.825 11.9299 118.837 11.6539 118.849 11.3899C118.657 11.4019 118.429 11.4139 118.165 11.4259C117.913 11.4259 117.721 11.4319 117.589 11.4439V10.0759H117.769C118.513 10.0759 119.101 10.0159 119.533 9.89594C119.965 9.77594 120.241 9.65594 120.361 9.53594H121.351V15.0439C121.351 15.8239 121.453 16.4059 121.657 16.7899C121.861 17.1619 122.185 17.3479 122.629 17.3479C122.941 17.3479 123.253 17.2639 123.565 17.0959C123.889 16.9159 124.153 16.7119 124.357 16.4839V12.9559C124.357 12.7399 124.363 12.4939 124.375 12.2179C124.387 11.9299 124.405 11.6539 124.429 11.3899C124.237 11.4019 124.009 11.4139 123.745 11.4259C123.493 11.4259 123.301 11.4319 123.169 11.4439V10.0759H123.601C124.165 10.0759 124.663 10.0159 125.095 9.89594C125.527 9.76394 125.803 9.64394 125.923 9.53594H126.913V15.8179C126.913 15.9859 126.907 16.2259 126.895 16.5379C126.883 16.8379 126.865 17.1259 126.841 17.4019C127.033 17.3779 127.243 17.3659 127.471 17.3659C127.711 17.3539 127.891 17.3479 128.011 17.3479V18.7159H124.591C124.579 18.5599 124.561 18.4039 124.537 18.2479C124.525 18.0919 124.507 17.9359 124.483 17.7799C124.111 18.0919 123.709 18.3739 123.277 18.6259C122.857 18.8779 122.359 19.0039 121.783 19.0039ZM129.004 18.7159V17.5459C129.34 17.5459 129.58 17.4799 129.724 17.3479C129.868 17.2159 129.958 17.0299 129.994 16.7899C130.042 16.5379 130.066 16.2559 130.066 15.9439V12.9199C130.066 12.7039 130.072 12.4639 130.084 12.1999C130.096 11.9239 130.114 11.6539 130.138 11.3899C129.946 11.4019 129.718 11.4139 129.454 11.4259C129.202 11.4259 129.01 11.4319 128.878 11.4439V10.0759C129.43 10.0759 129.898 10.0459 130.282 9.98594C130.666 9.92594 130.966 9.85394 131.182 9.76994C131.41 9.68594 131.566 9.60794 131.65 9.53594H132.532C132.556 9.65594 132.568 9.80594 132.568 9.98594C132.58 10.1659 132.592 10.3159 132.604 10.4359C133.012 10.1239 133.45 9.87794 133.918 9.69794C134.398 9.51794 134.848 9.42794 135.268 9.42794C135.82 9.42794 136.276 9.52994 136.636 9.73394C136.996 9.92594 137.284 10.2199 137.5 10.6159C137.932 10.2559 138.406 9.96794 138.922 9.75194C139.45 9.53594 139.954 9.42794 140.434 9.42794C141.406 9.42794 142.138 9.70994 142.63 10.2739C143.134 10.8259 143.386 11.7919 143.386 13.1719V15.8179C143.386 15.9859 143.38 16.2259 143.368 16.5379C143.356 16.8379 143.338 17.1259 143.314 17.4019C143.506 17.3779 143.716 17.3659 143.944 17.3659C144.184 17.3539 144.364 17.3479 144.484 17.3479V18.7159H139.93V17.5459C140.206 17.5459 140.404 17.4799 140.524 17.3479C140.656 17.2159 140.74 17.0299 140.776 16.7899C140.812 16.5379 140.83 16.2559 140.83 15.9439V13.1899C140.818 12.4099 140.686 11.8699 140.434 11.5699C140.194 11.2699 139.87 11.1139 139.462 11.1019C139.15 11.0899 138.856 11.1439 138.58 11.2639C138.316 11.3839 138.076 11.5279 137.86 11.6959C137.92 11.9359 137.962 12.1999 137.986 12.4879C138.01 12.7759 138.022 13.0819 138.022 13.4059C138.022 13.8139 138.022 14.2159 138.022 14.6119C138.022 15.0079 138.022 15.4099 138.022 15.8179C138.022 15.9859 138.016 16.2259 138.004 16.5379C137.992 16.8379 137.974 17.1259 137.95 17.4019C138.142 17.3779 138.352 17.3659 138.58 17.3659C138.808 17.3539 138.988 17.3479 139.12 17.3479V18.7159H134.476V17.5459C134.788 17.5459 135.01 17.4799 135.142 17.3479C135.286 17.2159 135.376 17.0299 135.412 16.7899C135.448 16.5379 135.466 16.2559 135.466 15.9439L135.448 13.1359C135.448 12.3559 135.334 11.8219 135.106 11.5339C134.878 11.2459 134.56 11.0959 134.152 11.0839C133.852 11.0839 133.57 11.1499 133.306 11.2819C133.054 11.4139 132.826 11.5699 132.622 11.7499C132.622 11.9059 132.622 12.0559 132.622 12.1999C132.622 12.3439 132.622 12.4939 132.622 12.6499V15.8179C132.622 15.9859 132.616 16.2259 132.604 16.5379C132.592 16.8379 132.574 17.1259 132.55 17.4019C132.742 17.3779 132.94 17.3659 133.144 17.3659C133.348 17.3539 133.51 17.3479 133.63 17.3479V18.7159H129.004Z" fill="#3D3D3D"/>
</svg>
