<svg width="100" height="32" viewBox="0 0 100 32" fill="none" xmlns="http://www.w3.org/2000/svg">
<path d="M48.2109 31.1992H54.4293L46.6669 19.1775L54.2927 9.48809H48.1689L40.5425 19.0623L48.2109 31.1992Z" fill="#131313"/>
<path fill-rule="evenodd" clip-rule="evenodd" d="M100 20.3437C100 22.7324 99.5448 24.7573 98.6345 26.4181C97.7242 28.079 96.4917 29.3405 94.9371 30.2027C93.3896 31.0649 91.6529 31.4961 89.7272 31.4961C87.7945 31.4961 86.0543 31.0614 84.5068 30.1921C82.9592 29.3228 81.7302 28.0613 80.8199 26.4075C79.9165 24.7467 79.4649 22.7254 79.4649 20.3437C79.4649 17.9549 79.9165 15.93 80.8199 14.2692C81.7302 12.6084 82.9592 11.3468 84.5068 10.4846C86.0543 9.62237 87.7945 9.19125 89.7272 9.19125C91.6529 9.19125 93.3896 9.62237 94.9371 10.4846C96.4917 11.3468 97.7242 12.6084 98.6345 14.2692C99.5448 15.93 100 17.9549 100 20.3437ZM94.685 20.3437C94.685 18.9302 94.4855 17.7358 94.0863 16.7605C93.6942 15.7852 93.127 15.0466 92.3847 14.5448C91.6494 14.043 90.7636 13.7921 89.7272 13.7921C88.6978 13.7921 87.812 14.043 87.0697 14.5448C86.3274 15.0466 85.7567 15.7852 85.3576 16.7605C84.9654 17.7358 84.7694 18.9302 84.7694 20.3437C84.7694 21.7571 84.9654 22.9515 85.3576 23.9268C85.7567 24.9021 86.3274 25.6407 87.0697 26.1425C87.812 26.6443 88.6978 26.8952 89.7272 26.8952C90.7636 26.8952 91.6494 26.6443 92.3847 26.1425C93.127 25.6407 93.6942 24.9021 94.0863 23.9268C94.4855 22.9515 94.685 21.7571 94.685 20.3437Z" fill="#131313"/>
<path d="M0 9.48809V13.7497H5.48052V13.7488H13.1957V13.7497H18.1823V9.48809H0Z" fill="#131313"/>
<path d="M6.53343 31.1992V13.7488L11.6593 19.1292V31.1992H6.53343Z" fill="#131313"/>
<path d="M21.6089 18.2034V31.1992H36.6085V26.9376H26.8084V22.4745H35.8417V18.2022H27.4048V18.2034H21.6089Z" fill="#131313"/>
<path d="M21.6089 13.7488H27.4048V13.7497H36.6085V9.48809H21.6089V13.7488Z" fill="#131313"/>
<path d="M21.6094 13.7488H27.4052V13.7497H36.6089V9.48807H21.6094V13.7488Z" fill="#0845DD"/>
<path d="M58.0593 31.125L63.0105 31.1298V24.6703L58.0593 17.1448L58.0593 31.125Z" fill="#0845DD"/>
<path d="M76.8576 9.56625V31.1299H72.4459L58.1064 9.56625H63.0239L71.4901 22.0756H71.6686V9.56625H76.8576Z" fill="#131313"/>
<path d="M0.298096 0.120784H3.03468C3.56126 0.120784 3.97347 0.252304 4.27133 0.515344C4.56919 0.778384 4.71812 1.15952 4.71812 1.65876C4.71812 1.91107 4.65961 2.1419 4.5426 2.35126C4.42558 2.55525 4.26601 2.71361 4.06389 2.82634C4.34048 2.92833 4.54792 3.08401 4.68621 3.29337C4.8245 3.49736 4.89365 3.76577 4.89365 4.0986C4.89365 4.43679 4.81652 4.73204 4.66227 4.98434C4.51334 5.23128 4.3059 5.42185 4.03996 5.55605C3.77933 5.68489 3.48945 5.74931 3.17031 5.74931H0.298096V0.120784ZM2.80331 2.40762C3.01607 2.40762 3.18361 2.35394 3.30595 2.24658C3.42828 2.13921 3.48945 1.96743 3.48945 1.73123C3.48945 1.47356 3.42828 1.29641 3.30595 1.19979C3.18893 1.10316 3.00809 1.05484 2.76342 1.05484H1.51081V2.40762H2.80331ZM2.87511 4.81525C3.13574 4.81525 3.33254 4.76425 3.46551 4.66225C3.60381 4.55489 3.67295 4.36969 3.67295 4.10665C3.67295 3.83824 3.60115 3.64498 3.45754 3.52689C3.31924 3.40879 3.11181 3.34974 2.83522 3.34974H1.51081V4.81525H2.87511Z" fill="#0845DD"/>
<path d="M6.61006 0.120784H7.82277V5.74931H6.61006V0.120784Z" fill="#0845DD"/>
<path d="M11.3718 5.87009C11.0314 5.87009 10.6937 5.83788 10.3586 5.77346C10.0235 5.70904 9.74957 5.62315 9.53682 5.51579V4.43679C9.81872 4.57636 10.1113 4.68104 10.4144 4.75083C10.7176 4.82061 11.0075 4.85551 11.2841 4.85551C11.5926 4.85551 11.8266 4.80182 11.9862 4.69446C12.1457 4.5871 12.2255 4.43679 12.2255 4.24354C12.2255 4.10396 12.1856 3.98586 12.1059 3.88924C12.0261 3.79261 11.9091 3.70672 11.7548 3.63156C11.6059 3.55104 11.3745 3.44636 11.0607 3.31753C10.5394 3.1028 10.1618 2.86392 9.92776 2.60088C9.69372 2.33247 9.57671 2.00233 9.57671 1.61045C9.57671 1.29373 9.66181 1.01458 9.83202 0.773016C10.0022 0.52608 10.2416 0.335511 10.5501 0.201307C10.8586 0.0671024 11.2149 0 11.6192 0C11.9489 0 12.2415 0.0268408 12.4968 0.0805224C12.7521 0.134204 13.0021 0.217411 13.2468 0.330142V1.37693C12.7787 1.14074 12.3106 1.02264 11.8426 1.02264C11.5447 1.02264 11.3107 1.07632 11.1405 1.18368C10.9703 1.28568 10.8852 1.4333 10.8852 1.62655C10.8852 1.76613 10.9251 1.88154 11.0048 1.9728C11.0846 2.06406 11.1963 2.14458 11.3399 2.21437C11.4835 2.28415 11.7176 2.38615 12.042 2.52035C12.4197 2.6814 12.7149 2.83708 12.9276 2.98738C13.1404 3.13233 13.2973 3.30679 13.3984 3.51078C13.4994 3.7094 13.5499 3.95634 13.5499 4.25159C13.5499 4.76156 13.3664 5.15881 12.9994 5.44332C12.6377 5.72783 12.0952 5.87009 11.3718 5.87009Z" fill="#0845DD"/>
<path d="M15.2682 0.120784H16.449L18.7787 3.7604V0.120784H19.9914V5.74931H18.8185L16.4809 2.10969V5.74931H15.2682V0.120784Z" fill="#0845DD"/>
<path d="M21.8606 0.120784H23.0733V5.74931H21.8606V0.120784Z" fill="#0845DD"/>
<path d="M26.6224 5.87009C26.282 5.87009 25.9442 5.83788 25.6091 5.77346C25.2741 5.70904 25.0001 5.62315 24.7874 5.51579V4.43679C25.0693 4.57636 25.3618 4.68104 25.665 4.75083C25.9682 4.82061 26.2581 4.85551 26.5346 4.85551C26.8431 4.85551 27.0772 4.80182 27.2367 4.69446C27.3963 4.5871 27.4761 4.43679 27.4761 4.24354C27.4761 4.10396 27.4362 3.98586 27.3564 3.88924C27.2766 3.79261 27.1596 3.70672 27.0054 3.63156C26.8564 3.55104 26.6251 3.44636 26.3112 3.31753C25.79 3.1028 25.4123 2.86392 25.1783 2.60088C24.9443 2.33247 24.8273 2.00233 24.8273 1.61045C24.8273 1.29373 24.9124 1.01458 25.0826 0.773016C25.2528 0.52608 25.4921 0.335511 25.8006 0.201307C26.1091 0.0671024 26.4655 0 26.8697 0C27.1995 0 27.492 0.0268408 27.7474 0.0805224C28.0027 0.134204 28.2527 0.217411 28.4973 0.330142V1.37693C28.0293 1.14074 27.5612 1.02264 27.0931 1.02264C26.7953 1.02264 26.5612 1.07632 26.391 1.18368C26.2208 1.28568 26.1357 1.4333 26.1357 1.62655C26.1357 1.76613 26.1756 1.88154 26.2554 1.9728C26.3352 2.06406 26.4469 2.14458 26.5905 2.21437C26.7341 2.28415 26.9681 2.38615 27.2926 2.52035C27.6702 2.6814 27.9654 2.83708 28.1782 2.98738C28.3909 3.13233 28.5479 3.30679 28.6489 3.51078C28.75 3.7094 28.8005 3.95634 28.8005 4.25159C28.8005 4.76156 28.617 5.15881 28.25 5.44332C27.8883 5.72783 27.3458 5.87009 26.6224 5.87009Z" fill="#0845DD"/>
</svg>
