<svg width="225" height="30" viewBox="0 0 225 30" fill="none" xmlns="http://www.w3.org/2000/svg">
<path d="M0.787354 3.86133C0.787354 2.61869 1.79471 1.61133 3.03735 1.61133H18.1482C19.3908 1.61133 20.3982 2.61869 20.3982 3.86133V22.4115C20.3982 23.0423 20.1334 23.6441 19.6684 24.0703L16.5105 26.9642C16.0955 27.3445 15.5532 27.5554 14.9903 27.5554H3.03735C1.79471 27.5554 0.787354 26.5481 0.787354 25.3054V3.86133Z" stroke="white" stroke-width="1.5"/>
<path d="M15.5186 27.6016V25.6758C15.5186 24.0189 16.8618 22.6758 18.5186 22.6758H20.4445" stroke="white" stroke-width="1.5"/>
<path d="M3.55585 11.7682H6.01878L7.77802 6.13867L9.53725 11.7682H11.2965L13.7594 16.6941L14.815 11.7682H16.926" stroke="white" stroke-width="1.5" stroke-linecap="round"/>
<path d="M3.55585 18.4531H10.9446" stroke="white" stroke-width="1.5" stroke-linecap="round"/>
<path d="M3.55585 21.9727H13.4076" stroke="white" stroke-width="1.5" stroke-linecap="round"/>
<path d="M15.5822 8.87934V5.34849H15.9382L15.9911 5.54091C16.0584 5.47998 16.1555 5.42466 16.2821 5.37495C16.4104 5.32524 16.5475 5.30039 16.6934 5.30039C17.0189 5.30039 17.2611 5.37976 17.4198 5.53851C17.5801 5.69725 17.6603 5.89929 17.6603 6.14462V7.07062C17.6603 7.32718 17.5721 7.53803 17.3957 7.70319C17.221 7.86835 16.9676 7.95093 16.6357 7.95093C16.493 7.95093 16.3719 7.93569 16.2725 7.90523C16.1747 7.87637 16.0953 7.8467 16.0344 7.81624V8.87934H15.5822ZM16.6068 7.60458C16.7848 7.60458 16.9291 7.56289 17.0398 7.47951C17.152 7.39452 17.2081 7.27426 17.2081 7.11873V6.10854C17.2081 5.95621 17.152 5.84156 17.0398 5.76459C16.9291 5.68602 16.7904 5.64674 16.6237 5.64674C16.5178 5.64674 16.4224 5.66518 16.3375 5.70206C16.2541 5.73734 16.1859 5.77662 16.133 5.81991C16.0817 5.86321 16.0488 5.89528 16.0344 5.91612V7.46748C16.0921 7.49955 16.1691 7.53082 16.2653 7.56128C16.3615 7.59015 16.4754 7.60458 16.6068 7.60458Z" fill="white"/>
<path d="M12.138 7.89801V4.42008H13.6893C13.8849 4.42008 14.0549 4.45215 14.1992 4.51629C14.3451 4.57883 14.4582 4.68546 14.5384 4.83618C14.6201 4.98531 14.661 5.18975 14.661 5.44951C14.661 5.73012 14.6153 5.93857 14.5239 6.07487C14.4341 6.20956 14.3163 6.30737 14.1704 6.3683L14.9088 7.89801H14.4109L13.7206 6.45489H12.6238V7.89801H12.138ZM12.6238 6.0893H13.6484C13.7895 6.0893 13.8978 6.06284 13.9731 6.00993C14.0485 5.95701 14.1006 5.88566 14.1295 5.79586C14.1599 5.70446 14.1752 5.60345 14.1752 5.49281C14.1752 5.38056 14.1656 5.27073 14.1463 5.16329C14.1287 5.05586 14.087 4.96687 14.0212 4.89632C13.9555 4.82416 13.8497 4.78808 13.7038 4.78808H12.6238V6.0893Z" fill="white"/>
<path fill-rule="evenodd" clip-rule="evenodd" d="M15.5822 8.87934H16.0344V7.81624C16.0896 7.84385 16.16 7.87081 16.2455 7.8971C16.2543 7.89982 16.2633 7.90252 16.2725 7.90523C16.3719 7.93569 16.493 7.95093 16.6357 7.95093C16.9676 7.95093 17.221 7.86835 17.3957 7.70319C17.5721 7.53803 17.6603 7.32718 17.6603 7.07062V6.14462C17.6603 5.89929 17.5801 5.69725 17.4198 5.53851C17.2611 5.37976 17.0189 5.30039 16.6934 5.30039C16.5475 5.30039 16.4104 5.32524 16.2821 5.37495C16.2445 5.38973 16.2094 5.40501 16.177 5.42079C16.1004 5.45806 16.0384 5.49809 15.9911 5.54091L15.9382 5.34849H15.5822V8.87934ZM16.3375 5.70206C16.2541 5.73734 16.1859 5.77662 16.133 5.81991C16.0817 5.86321 16.0488 5.89528 16.0344 5.91612V7.46748C16.0921 7.49955 16.1691 7.53082 16.2653 7.56128C16.3615 7.59015 16.4754 7.60458 16.6068 7.60458C16.7848 7.60458 16.9291 7.56289 17.0398 7.47951C17.152 7.39452 17.2081 7.27426 17.2081 7.11873V6.10854C17.2081 5.95621 17.152 5.84156 17.0398 5.76459C16.9291 5.68602 16.7904 5.64674 16.6237 5.64674C16.5178 5.64674 16.4224 5.66518 16.3375 5.70206ZM16.9124 7.3111C16.9658 7.27061 16.997 7.21605 16.997 7.11873V6.10855C16.997 6.01613 16.9676 5.97113 16.9204 5.93871L16.9175 5.93675C16.85 5.88885 16.7568 5.85786 16.6236 5.85786C16.5426 5.85786 16.4764 5.87188 16.4215 5.89573L16.4197 5.8965C16.35 5.92598 16.301 5.95545 16.2678 5.9824C16.2595 5.98936 16.2521 5.99576 16.2455 6.00162V7.33135C16.2698 7.34047 16.297 7.34988 16.3274 7.35952C16.3987 7.38072 16.4907 7.39348 16.6068 7.39348C16.7519 7.39348 16.8477 7.35981 16.9124 7.3111ZM16.1202 5.21423L16.099 5.13739H15.3711V9.09045H16.2455V8.11708C16.3623 8.14838 16.4935 8.16204 16.6357 8.16204C17.0004 8.16204 17.3132 8.07116 17.54 7.8573C17.7619 7.64954 17.8714 7.38154 17.8714 7.07063V6.14463C17.8714 5.84855 17.7725 5.59087 17.5687 5.38886C17.3555 5.17596 17.0494 5.08929 16.6934 5.08929C16.523 5.08929 16.3599 5.11842 16.2058 5.17811L16.205 5.17844C16.1759 5.18984 16.1476 5.20175 16.1202 5.21423Z" fill="white"/>
<path fill-rule="evenodd" clip-rule="evenodd" d="M11.9268 8.10913V4.20898H13.6893C13.9071 4.20898 14.107 4.24458 14.2837 4.32282C14.4762 4.40569 14.6234 4.54712 14.7241 4.73587C14.8291 4.9281 14.8721 5.17197 14.8721 5.44952C14.8721 5.74557 14.8253 6.0045 14.6992 6.19245C14.6294 6.29723 14.5451 6.38484 14.4466 6.45508L15.245 8.10913H14.2778L13.5875 6.66601H12.8349V8.10913H11.9268ZM12.6238 6.34415L12.6238 6.45489H13.7206L14.4109 7.89801H14.9088L14.1704 6.3683C14.1979 6.35682 12.8447 6.34415 12.8447 6.34415M12.6238 6.34415L12.6238 7.89801H12.138V4.42008H13.6893C13.8849 4.42008 14.0549 4.45215 14.1992 4.51629C14.3451 4.57883 14.9087 5.38655 14.2837 6.08931M13.9292 5.72911C13.9515 5.66217 13.964 5.58407 13.964 5.49281C13.964 5.3927 13.9555 5.29532 13.9385 5.20052L13.9379 5.19751C13.9261 5.12568 13.9006 5.07651 13.8668 5.04024L13.8651 5.03851C13.8557 5.02815 13.8197 4.9992 13.7037 4.9992H12.8349V5.8782H13.6484C13.7677 5.8782 13.8263 5.85506 13.8518 5.83716C13.8886 5.81135 13.9133 5.77844 13.9285 5.73127L13.9292 5.72911ZM12.6238 6.0893V4.78808H13.7038C13.8497 4.78808 13.9555 4.82416 14.0212 4.89632C14.087 4.96687 14.1287 5.05586 14.1463 5.16329C14.1656 5.27073 14.1752 5.38056 14.1752 5.49281C14.1752 5.60345 14.1599 5.70446 14.1295 5.79586C14.1006 5.88566 14.0485 5.95701 13.9731 6.00993C13.8978 6.06284 13.7895 6.0893 13.6484 6.0893H12.6238Z" fill="white"/>
<mask id="path-7-outside-1_4594_19197" maskUnits="userSpaceOnUse" x="29.1482" y="7.08398" width="194" height="15" fill="black">
<rect fill="white" x="29.1482" y="7.08398" width="194" height="15"/>
<path d="M30.2595 8.375H32.0261V19.7217H37.7302V21.084H30.2595V8.375ZM39.1716 21.084L43.9089 8.375H45.4646L50.2107 21.084H48.4089L47.5564 18.6055H41.8699L41.0085 21.084H39.1716ZM42.3269 17.3047H47.1082L44.7351 10.4053L42.3269 17.3047ZM52.8826 8.375H57.9626C59.0291 8.375 59.8845 8.67969 60.5291 9.28906C61.1736 9.89844 61.4958 10.9268 61.4958 12.374C61.4958 13.3877 61.3494 14.1904 61.0564 14.7822C60.7634 15.374 60.3503 15.7988 59.8171 16.0566C59.2839 16.3086 58.657 16.4346 57.9363 16.4346H54.658V21.084H52.8826V8.375ZM57.9714 15.0898C58.4871 15.0898 58.8679 14.9668 59.114 14.7207C59.3601 14.4688 59.5212 14.1436 59.5974 13.7451C59.6794 13.3467 59.7205 12.9307 59.7205 12.4971C59.7205 12.0811 59.6882 11.6592 59.6238 11.2314C59.5593 10.8037 59.407 10.4463 59.1667 10.1592C58.9324 9.86621 58.5486 9.71973 58.0154 9.71973H54.658V15.0898H57.9714ZM69.4939 21.2773C68.4333 21.2773 67.5603 21.1689 66.8748 20.9521C66.1951 20.7354 65.6648 20.4307 65.2839 20.0381C64.9031 19.6396 64.6365 19.168 64.4841 18.623C64.3318 18.0781 64.2556 17.4746 64.2556 16.8125V12.8135C64.2556 12.1396 64.3289 11.5215 64.4753 10.959C64.6277 10.3965 64.8943 9.90723 65.2751 9.49121C65.656 9.0752 66.1863 8.75293 66.866 8.52441C67.5515 8.2959 68.4275 8.18164 69.4939 8.18164C70.5193 8.18164 71.363 8.30176 72.0251 8.54199C72.6873 8.78223 73.2029 9.11914 73.572 9.55273C73.9412 9.98047 74.199 10.4814 74.3455 11.0557C74.4978 11.6299 74.574 12.2539 74.574 12.9277V16.6895C74.574 17.3398 74.4978 17.9463 74.3455 18.5088C74.199 19.0654 73.9382 19.5518 73.5632 19.9678C73.1941 20.3779 72.6785 20.7002 72.0164 20.9346C71.3542 21.1631 70.5134 21.2773 69.4939 21.2773ZM69.4939 19.8535C70.2498 19.8535 70.8708 19.7803 71.3572 19.6338C71.8494 19.4814 72.2126 19.2061 72.447 18.8076C72.6873 18.4092 72.8074 17.835 72.8074 17.085V12.4883C72.8074 11.7324 72.6873 11.1465 72.447 10.7305C72.2068 10.3145 71.8406 10.0244 71.3484 9.86035C70.8621 9.69043 70.2439 9.60547 69.4939 9.60547C68.7498 9.60547 68.1199 9.69043 67.6042 9.86035C67.0886 10.0244 66.696 10.3145 66.4265 10.7305C66.1628 11.1465 66.031 11.7324 66.031 12.4883V17.085C66.031 17.835 66.1628 18.4092 66.4265 18.8076C66.6902 19.2061 67.0798 19.4814 67.5955 19.6338C68.1111 19.7803 68.7439 19.8535 69.4939 19.8535ZM78.1248 21.084V8.375H83.7937C84.5085 8.375 85.1296 8.49219 85.657 8.72656C86.1902 8.95508 86.6033 9.34473 86.8962 9.89551C87.1951 10.4404 87.3445 11.1875 87.3445 12.1367C87.3445 13.1621 87.1775 13.9238 86.8435 14.4219C86.5154 14.9141 86.0847 15.2715 85.5515 15.4941L88.2498 21.084H86.4304L83.908 15.8105H79.9001V21.084H78.1248ZM79.9001 14.4746H83.6443C84.1599 14.4746 84.5554 14.3779 84.8308 14.1846C85.1062 13.9912 85.2966 13.7305 85.4021 13.4023C85.5134 13.0684 85.5691 12.6992 85.5691 12.2949C85.5691 11.8848 85.5339 11.4834 85.4636 11.0908C85.3992 10.6982 85.2468 10.373 85.0066 10.1152C84.7664 9.85156 84.3796 9.71973 83.8464 9.71973H79.9001V14.4746ZM89.8318 21.084L94.5691 8.375H96.1248L100.871 21.084H99.0691L98.2166 18.6055H92.53L91.6687 21.084H89.8318ZM92.9871 17.3047H97.7683L95.3953 10.4053L92.9871 17.3047ZM103.543 8.375H104.887L112.165 18.5439V8.375H113.72V21.084H112.147L105.098 11.3809V21.084H103.543V8.375ZM123.819 17.2432V21.084H122.052V8.375H123.819V15.3096L129.831 8.375H131.747L126.904 13.9648L132.002 21.084H130.042L125.753 15.0459L123.819 17.2432ZM134.515 8.375H142.452V9.69336H136.282V13.877H141.731V15.1953H136.282V19.7656H142.557V21.084H134.515V8.375ZM150.485 21.2773C149.448 21.2773 148.595 21.1631 147.927 20.9346C147.265 20.7061 146.75 20.3926 146.381 19.9941C146.011 19.5957 145.754 19.1357 145.607 18.6143C145.467 18.0869 145.396 17.5244 145.396 16.9268V8.375H147.172V17.1113C147.172 17.8906 147.324 18.4766 147.629 18.8691C147.939 19.2617 148.346 19.5254 148.85 19.6602C149.354 19.7891 149.899 19.8535 150.485 19.8535C151.083 19.8535 151.616 19.7891 152.085 19.6602C152.559 19.5254 152.934 19.2617 153.21 18.8691C153.485 18.4766 153.623 17.8906 153.623 17.1113V8.375H155.398V16.9268C155.398 17.5127 155.325 18.0693 155.178 18.5967C155.038 19.1182 154.789 19.5811 154.431 19.9854C154.074 20.3896 153.576 20.7061 152.937 20.9346C152.299 21.1631 151.481 21.2773 150.485 21.2773ZM157.912 21.084L162.649 8.375H164.205L168.951 21.084H167.149L166.297 18.6055H160.61L159.749 21.084H157.912ZM161.067 17.3047H165.848L163.475 10.4053L161.067 17.3047ZM171.623 8.375H172.968L180.245 18.5439V8.375H181.801V21.084H180.227L173.178 11.3809V21.084H171.623V8.375ZM190.642 21.2773C189.582 21.2773 188.706 21.1689 188.014 20.9521C187.329 20.7354 186.793 20.4307 186.406 20.0381C186.019 19.6396 185.747 19.168 185.589 18.623C185.43 18.0781 185.351 17.4746 185.351 16.8125V12.8223C185.351 12.1484 185.427 11.5303 185.58 10.9678C185.738 10.3994 186.01 9.90723 186.397 9.49121C186.784 9.0752 187.32 8.75293 188.006 8.52441C188.697 8.2959 189.576 8.18164 190.642 8.18164C191.668 8.18164 192.5 8.27832 193.138 8.47168C193.783 8.65918 194.278 8.92578 194.624 9.27148C194.969 9.61133 195.207 10.0127 195.336 10.4756C195.465 10.9326 195.529 11.4307 195.529 11.9697V12.1631L193.912 12.2949V12.1016C193.912 11.4453 193.821 10.9385 193.639 10.5811C193.464 10.2178 193.138 9.96582 192.664 9.8252C192.195 9.67871 191.521 9.60547 190.642 9.60547C189.898 9.60547 189.262 9.69043 188.735 9.86035C188.214 10.0244 187.815 10.3174 187.54 10.7393C187.264 11.1553 187.127 11.7412 187.127 12.4971V17.085C187.127 17.835 187.261 18.4092 187.531 18.8076C187.806 19.2061 188.205 19.4814 188.726 19.6338C189.254 19.7803 189.892 19.8535 190.642 19.8535C191.398 19.8535 192.016 19.7803 192.497 19.6338C192.977 19.4814 193.329 19.2061 193.552 18.8076C193.78 18.4092 193.894 17.835 193.894 17.085V15.916H190.88V14.624H195.67V21.084H194.703L194.483 18.9219C194.378 19.6133 194.026 20.1787 193.428 20.6182C192.831 21.0576 191.902 21.2773 190.642 21.2773ZM198.148 21.084L202.885 8.375H204.441L209.187 21.084H207.385L206.533 18.6055H200.846L199.985 21.084H198.148ZM201.303 17.3047H206.085L203.712 10.4053L201.303 17.3047ZM211.859 8.375H213.204L220.481 18.5439V8.375H222.037V21.084H220.464L213.415 11.3809V21.084H211.859V8.375Z"/>
</mask>
<path d="M30.2595 8.375H32.0261V19.7217H37.7302V21.084H30.2595V8.375ZM39.1716 21.084L43.9089 8.375H45.4646L50.2107 21.084H48.4089L47.5564 18.6055H41.8699L41.0085 21.084H39.1716ZM42.3269 17.3047H47.1082L44.7351 10.4053L42.3269 17.3047ZM52.8826 8.375H57.9626C59.0291 8.375 59.8845 8.67969 60.5291 9.28906C61.1736 9.89844 61.4958 10.9268 61.4958 12.374C61.4958 13.3877 61.3494 14.1904 61.0564 14.7822C60.7634 15.374 60.3503 15.7988 59.8171 16.0566C59.2839 16.3086 58.657 16.4346 57.9363 16.4346H54.658V21.084H52.8826V8.375ZM57.9714 15.0898C58.4871 15.0898 58.8679 14.9668 59.114 14.7207C59.3601 14.4688 59.5212 14.1436 59.5974 13.7451C59.6794 13.3467 59.7205 12.9307 59.7205 12.4971C59.7205 12.0811 59.6882 11.6592 59.6238 11.2314C59.5593 10.8037 59.407 10.4463 59.1667 10.1592C58.9324 9.86621 58.5486 9.71973 58.0154 9.71973H54.658V15.0898H57.9714ZM69.4939 21.2773C68.4333 21.2773 67.5603 21.1689 66.8748 20.9521C66.1951 20.7354 65.6648 20.4307 65.2839 20.0381C64.9031 19.6396 64.6365 19.168 64.4841 18.623C64.3318 18.0781 64.2556 17.4746 64.2556 16.8125V12.8135C64.2556 12.1396 64.3289 11.5215 64.4753 10.959C64.6277 10.3965 64.8943 9.90723 65.2751 9.49121C65.656 9.0752 66.1863 8.75293 66.866 8.52441C67.5515 8.2959 68.4275 8.18164 69.4939 8.18164C70.5193 8.18164 71.363 8.30176 72.0251 8.54199C72.6873 8.78223 73.2029 9.11914 73.572 9.55273C73.9412 9.98047 74.199 10.4814 74.3455 11.0557C74.4978 11.6299 74.574 12.2539 74.574 12.9277V16.6895C74.574 17.3398 74.4978 17.9463 74.3455 18.5088C74.199 19.0654 73.9382 19.5518 73.5632 19.9678C73.1941 20.3779 72.6785 20.7002 72.0164 20.9346C71.3542 21.1631 70.5134 21.2773 69.4939 21.2773ZM69.4939 19.8535C70.2498 19.8535 70.8708 19.7803 71.3572 19.6338C71.8494 19.4814 72.2126 19.2061 72.447 18.8076C72.6873 18.4092 72.8074 17.835 72.8074 17.085V12.4883C72.8074 11.7324 72.6873 11.1465 72.447 10.7305C72.2068 10.3145 71.8406 10.0244 71.3484 9.86035C70.8621 9.69043 70.2439 9.60547 69.4939 9.60547C68.7498 9.60547 68.1199 9.69043 67.6042 9.86035C67.0886 10.0244 66.696 10.3145 66.4265 10.7305C66.1628 11.1465 66.031 11.7324 66.031 12.4883V17.085C66.031 17.835 66.1628 18.4092 66.4265 18.8076C66.6902 19.2061 67.0798 19.4814 67.5955 19.6338C68.1111 19.7803 68.7439 19.8535 69.4939 19.8535ZM78.1248 21.084V8.375H83.7937C84.5085 8.375 85.1296 8.49219 85.657 8.72656C86.1902 8.95508 86.6033 9.34473 86.8962 9.89551C87.1951 10.4404 87.3445 11.1875 87.3445 12.1367C87.3445 13.1621 87.1775 13.9238 86.8435 14.4219C86.5154 14.9141 86.0847 15.2715 85.5515 15.4941L88.2498 21.084H86.4304L83.908 15.8105H79.9001V21.084H78.1248ZM79.9001 14.4746H83.6443C84.1599 14.4746 84.5554 14.3779 84.8308 14.1846C85.1062 13.9912 85.2966 13.7305 85.4021 13.4023C85.5134 13.0684 85.5691 12.6992 85.5691 12.2949C85.5691 11.8848 85.5339 11.4834 85.4636 11.0908C85.3992 10.6982 85.2468 10.373 85.0066 10.1152C84.7664 9.85156 84.3796 9.71973 83.8464 9.71973H79.9001V14.4746ZM89.8318 21.084L94.5691 8.375H96.1248L100.871 21.084H99.0691L98.2166 18.6055H92.53L91.6687 21.084H89.8318ZM92.9871 17.3047H97.7683L95.3953 10.4053L92.9871 17.3047ZM103.543 8.375H104.887L112.165 18.5439V8.375H113.72V21.084H112.147L105.098 11.3809V21.084H103.543V8.375ZM123.819 17.2432V21.084H122.052V8.375H123.819V15.3096L129.831 8.375H131.747L126.904 13.9648L132.002 21.084H130.042L125.753 15.0459L123.819 17.2432ZM134.515 8.375H142.452V9.69336H136.282V13.877H141.731V15.1953H136.282V19.7656H142.557V21.084H134.515V8.375ZM150.485 21.2773C149.448 21.2773 148.595 21.1631 147.927 20.9346C147.265 20.7061 146.75 20.3926 146.381 19.9941C146.011 19.5957 145.754 19.1357 145.607 18.6143C145.467 18.0869 145.396 17.5244 145.396 16.9268V8.375H147.172V17.1113C147.172 17.8906 147.324 18.4766 147.629 18.8691C147.939 19.2617 148.346 19.5254 148.85 19.6602C149.354 19.7891 149.899 19.8535 150.485 19.8535C151.083 19.8535 151.616 19.7891 152.085 19.6602C152.559 19.5254 152.934 19.2617 153.21 18.8691C153.485 18.4766 153.623 17.8906 153.623 17.1113V8.375H155.398V16.9268C155.398 17.5127 155.325 18.0693 155.178 18.5967C155.038 19.1182 154.789 19.5811 154.431 19.9854C154.074 20.3896 153.576 20.7061 152.937 20.9346C152.299 21.1631 151.481 21.2773 150.485 21.2773ZM157.912 21.084L162.649 8.375H164.205L168.951 21.084H167.149L166.297 18.6055H160.61L159.749 21.084H157.912ZM161.067 17.3047H165.848L163.475 10.4053L161.067 17.3047ZM171.623 8.375H172.968L180.245 18.5439V8.375H181.801V21.084H180.227L173.178 11.3809V21.084H171.623V8.375ZM190.642 21.2773C189.582 21.2773 188.706 21.1689 188.014 20.9521C187.329 20.7354 186.793 20.4307 186.406 20.0381C186.019 19.6396 185.747 19.168 185.589 18.623C185.43 18.0781 185.351 17.4746 185.351 16.8125V12.8223C185.351 12.1484 185.427 11.5303 185.58 10.9678C185.738 10.3994 186.01 9.90723 186.397 9.49121C186.784 9.0752 187.32 8.75293 188.006 8.52441C188.697 8.2959 189.576 8.18164 190.642 8.18164C191.668 8.18164 192.5 8.27832 193.138 8.47168C193.783 8.65918 194.278 8.92578 194.624 9.27148C194.969 9.61133 195.207 10.0127 195.336 10.4756C195.465 10.9326 195.529 11.4307 195.529 11.9697V12.1631L193.912 12.2949V12.1016C193.912 11.4453 193.821 10.9385 193.639 10.5811C193.464 10.2178 193.138 9.96582 192.664 9.8252C192.195 9.67871 191.521 9.60547 190.642 9.60547C189.898 9.60547 189.262 9.69043 188.735 9.86035C188.214 10.0244 187.815 10.3174 187.54 10.7393C187.264 11.1553 187.127 11.7412 187.127 12.4971V17.085C187.127 17.835 187.261 18.4092 187.531 18.8076C187.806 19.2061 188.205 19.4814 188.726 19.6338C189.254 19.7803 189.892 19.8535 190.642 19.8535C191.398 19.8535 192.016 19.7803 192.497 19.6338C192.977 19.4814 193.329 19.2061 193.552 18.8076C193.78 18.4092 193.894 17.835 193.894 17.085V15.916H190.88V14.624H195.67V21.084H194.703L194.483 18.9219C194.378 19.6133 194.026 20.1787 193.428 20.6182C192.831 21.0576 191.902 21.2773 190.642 21.2773ZM198.148 21.084L202.885 8.375H204.441L209.187 21.084H207.385L206.533 18.6055H200.846L199.985 21.084H198.148ZM201.303 17.3047H206.085L203.712 10.4053L201.303 17.3047ZM211.859 8.375H213.204L220.481 18.5439V8.375H222.037V21.084H220.464L213.415 11.3809V21.084H211.859V8.375Z" fill="white"/>
<path d="M30.2595 8.375V7.875H29.7595V8.375H30.2595ZM32.0261 8.375H32.5261V7.875H32.0261V8.375ZM32.0261 19.7217H31.5261V20.2217H32.0261V19.7217ZM37.7302 19.7217H38.2302V19.2217H37.7302V19.7217ZM37.7302 21.084V21.584H38.2302V21.084H37.7302ZM30.2595 21.084H29.7595V21.584H30.2595V21.084ZM30.2595 8.875H32.0261V7.875H30.2595V8.875ZM31.5261 8.375V19.7217H32.5261V8.375H31.5261ZM32.0261 20.2217H37.7302V19.2217H32.0261V20.2217ZM37.2302 19.7217V21.084H38.2302V19.7217H37.2302ZM37.7302 20.584H30.2595V21.584H37.7302V20.584ZM30.7595 21.084V8.375H29.7595V21.084H30.7595ZM39.1716 21.084L38.7031 20.9093L38.4516 21.584H39.1716V21.084ZM43.9089 8.375V7.875H43.5617L43.4404 8.20036L43.9089 8.375ZM45.4646 8.375L45.933 8.20008L45.8116 7.875H45.4646V8.375ZM50.2107 21.084V21.584H50.9311L50.6791 20.9091L50.2107 21.084ZM48.4089 21.084L47.9361 21.2466L48.0522 21.584H48.4089V21.084ZM47.5564 18.6055L48.0292 18.4428L47.9132 18.1055H47.5564V18.6055ZM41.8699 18.6055V18.1055H41.5143L41.3976 18.4413L41.8699 18.6055ZM41.0085 21.084V21.584H41.3641L41.4808 21.2481L41.0085 21.084ZM42.3269 17.3047L41.8548 17.1399L41.6228 17.8047H42.3269V17.3047ZM47.1082 17.3047V17.8047H47.8089L47.581 17.1421L47.1082 17.3047ZM44.7351 10.4053L45.2079 10.2426L44.7386 8.87809L44.263 10.2405L44.7351 10.4053ZM39.6401 21.2586L44.3774 8.54964L43.4404 8.20036L38.7031 20.9093L39.6401 21.2586ZM43.9089 8.875H45.4646V7.875H43.9089V8.875ZM44.9962 8.54992L49.7423 21.2589L50.6791 20.9091L45.933 8.20008L44.9962 8.54992ZM50.2107 20.584H48.4089V21.584H50.2107V20.584ZM48.8817 20.9214L48.0292 18.4428L47.0836 18.7681L47.9361 21.2466L48.8817 20.9214ZM47.5564 18.1055H41.8699V19.1055H47.5564V18.1055ZM41.3976 18.4413L40.5363 20.9199L41.4808 21.2481L42.3422 18.7696L41.3976 18.4413ZM41.0085 20.584H39.1716V21.584H41.0085V20.584ZM42.3269 17.8047H47.1082V16.8047H42.3269V17.8047ZM47.581 17.1421L45.2079 10.2426L44.2623 10.5679L46.6353 17.4673L47.581 17.1421ZM44.263 10.2405L41.8548 17.1399L42.799 17.4695L45.2072 10.57L44.263 10.2405ZM52.8826 8.375V7.875H52.3826V8.375H52.8826ZM59.8171 16.0566L60.0308 16.5087L60.0348 16.5068L59.8171 16.0566ZM54.658 16.4346V15.9346H54.158V16.4346H54.658ZM54.658 21.084V21.584H55.158V21.084H54.658ZM52.8826 21.084H52.3826V21.584H52.8826V21.084ZM59.114 14.7207L59.4676 15.0743L59.4717 15.0701L59.114 14.7207ZM59.5974 13.7451L59.1076 13.6443L59.1063 13.6512L59.5974 13.7451ZM59.1667 10.1592L58.7762 10.4716L58.7833 10.48L59.1667 10.1592ZM54.658 9.71973V9.21973H54.158V9.71973H54.658ZM54.658 15.0898H54.158V15.5898H54.658V15.0898ZM52.8826 8.875H57.9626V7.875H52.8826V8.875ZM57.9626 8.875C58.9287 8.875 59.652 9.14796 60.1855 9.65239L60.8726 8.92574C60.117 8.21142 59.1294 7.875 57.9626 7.875V8.875ZM60.1855 9.65239C60.6824 10.1222 60.9958 10.9806 60.9958 12.374H61.9958C61.9958 10.8729 61.6647 9.6747 60.8726 8.92574L60.1855 9.65239ZM60.9958 12.374C60.9958 13.3481 60.8537 14.0646 60.6083 14.5604L61.5045 15.0041C61.845 14.3162 61.9958 13.4273 61.9958 12.374H60.9958ZM60.6083 14.5604C60.3587 15.0647 60.0211 15.4026 59.5995 15.6065L60.0348 16.5068C60.6796 16.195 61.1682 15.6834 61.5045 15.0041L60.6083 14.5604ZM59.6035 15.6046C59.1503 15.8187 58.5992 15.9346 57.9363 15.9346V16.9346C58.7148 16.9346 59.4176 16.7984 60.0308 16.5087L59.6035 15.6046ZM57.9363 15.9346H54.658V16.9346H57.9363V15.9346ZM54.158 16.4346V21.084H55.158V16.4346H54.158ZM54.658 20.584H52.8826V21.584H54.658V20.584ZM53.3826 21.084V8.375H52.3826V21.084H53.3826ZM57.9714 15.5898C58.5563 15.5898 59.0908 15.451 59.4676 15.0743L58.7605 14.3671C58.6451 14.4826 58.4179 14.5898 57.9714 14.5898V15.5898ZM59.4717 15.0701C59.7963 14.7377 59.9968 14.3188 60.0885 13.839L59.1063 13.6512C59.0457 13.9683 58.9239 14.1998 58.7563 14.3713L59.4717 15.0701ZM60.0871 13.8459C60.1764 13.4122 60.2205 12.9623 60.2205 12.4971H59.2205C59.2205 12.899 59.1825 13.2811 59.1077 13.6443L60.0871 13.8459ZM60.2205 12.4971C60.2205 12.0551 60.1862 11.6084 60.1182 11.1569L59.1294 11.3059C59.1902 11.71 59.2205 12.107 59.2205 12.4971H60.2205ZM60.1182 11.1569C60.0422 10.6528 59.858 10.2062 59.5502 9.83832L58.7833 10.48C58.956 10.6864 59.0764 10.9546 59.1294 11.3059L60.1182 11.1569ZM59.5572 9.84683C59.1928 9.39131 58.6335 9.21973 58.0154 9.21973V10.2197C58.4637 10.2197 58.672 10.3411 58.7763 10.4715L59.5572 9.84683ZM58.0154 9.21973H54.658V10.2197H58.0154V9.21973ZM54.158 9.71973V15.0898H55.158V9.71973H54.158ZM54.658 15.5898H57.9714V14.5898H54.658V15.5898ZM66.8748 20.9521L66.7228 21.4285L66.724 21.4289L66.8748 20.9521ZM65.2839 20.0381L64.9225 20.3836L64.9251 20.3862L65.2839 20.0381ZM64.4753 10.959L63.9927 10.8283L63.9915 10.833L64.4753 10.959ZM66.866 8.52441L66.7079 8.05007L66.7066 8.05048L66.866 8.52441ZM73.572 9.55273L73.1913 9.87686L73.1935 9.87941L73.572 9.55273ZM74.3455 11.0557L73.861 11.1793L73.8622 11.1839L74.3455 11.0557ZM74.3455 18.5088L73.8628 18.3781L73.8619 18.3815L74.3455 18.5088ZM73.5632 19.9678L73.1918 19.633L73.1916 19.6333L73.5632 19.9678ZM72.0164 20.9346L72.1795 21.4072L72.1832 21.4059L72.0164 20.9346ZM71.3572 19.6338L71.5014 20.1126L71.505 20.1114L71.3572 19.6338ZM72.447 18.8076L72.0188 18.5494L72.0161 18.5541L72.447 18.8076ZM71.3484 9.86035L71.1834 10.3324L71.1903 10.3347L71.3484 9.86035ZM67.6042 9.86035L67.7559 10.3368L67.7607 10.3352L67.6042 9.86035ZM66.4265 10.7305L66.0069 10.4586L66.0042 10.4628L66.4265 10.7305ZM67.5955 19.6338L67.4538 20.1133L67.4588 20.1148L67.5955 19.6338ZM69.4939 20.7773C68.4626 20.7773 67.6451 20.6713 67.0255 20.4754L66.724 21.4289C67.4755 21.6665 68.4041 21.7773 69.4939 21.7773V20.7773ZM67.0267 20.4758C66.4024 20.2767 65.9515 20.0081 65.6428 19.6899L64.9251 20.3862C65.3781 20.8532 65.9878 21.194 66.7228 21.4285L67.0267 20.4758ZM65.6454 19.6926C65.3228 19.3551 65.0965 18.9564 64.9657 18.4884L64.0026 18.7577C64.1764 19.3795 64.4834 19.9242 64.9225 20.3836L65.6454 19.6926ZM64.9657 18.4884C64.8274 17.994 64.7556 17.4366 64.7556 16.8125H63.7556C63.7556 17.5126 63.8361 18.1622 64.0026 18.7577L64.9657 18.4884ZM64.7556 16.8125V12.8135H63.7556V16.8125H64.7556ZM64.7556 12.8135C64.7556 12.1756 64.825 11.6004 64.9592 11.085L63.9915 10.833C63.8327 11.4425 63.7556 12.1037 63.7556 12.8135H64.7556ZM64.958 11.0897C65.0901 10.6016 65.3188 10.184 65.6439 9.82884L64.9064 9.15358C64.4698 9.63049 64.1652 10.1914 63.9927 10.8283L64.958 11.0897ZM65.6439 9.82884C65.9542 9.48997 66.4045 9.20705 67.0253 8.99835L66.7066 8.05048C65.968 8.29881 65.3578 8.66042 64.9064 9.15358L65.6439 9.82884ZM67.0241 8.99876C67.6406 8.79325 68.4582 8.68164 69.4939 8.68164V7.68164C68.3968 7.68164 67.4624 7.79854 66.7079 8.05007L67.0241 8.99876ZM69.4939 8.68164C70.4853 8.68164 71.266 8.79844 71.8546 9.01201L72.1957 8.07197C71.4601 7.80507 70.5533 7.68164 69.4939 7.68164V8.68164ZM71.8546 9.01201C72.4543 9.2296 72.8902 9.52323 73.1913 9.87686L73.9527 9.22861C73.5155 8.71505 72.9202 8.33485 72.1957 8.07197L71.8546 9.01201ZM73.1935 9.87941C73.5096 10.2457 73.7327 10.6763 73.861 11.1793L74.8299 10.9321C74.6653 10.2866 74.3727 9.71525 73.9506 9.22606L73.1935 9.87941ZM73.8622 11.1839C74.0021 11.7111 74.074 12.2915 74.074 12.9277H75.074C75.074 12.2163 74.9936 11.5487 74.8287 10.9274L73.8622 11.1839ZM74.074 12.9277V16.6895H75.074V12.9277H74.074ZM74.074 16.6895C74.074 17.3007 74.0024 17.8628 73.8628 18.3781L74.8281 18.6395C74.9932 18.0298 75.074 17.3789 75.074 16.6895H74.074ZM73.8619 18.3815C73.7352 18.8633 73.5119 19.2779 73.1918 19.633L73.9346 20.3025C74.3645 19.8256 74.6628 19.2676 74.829 18.636L73.8619 18.3815ZM73.1916 19.6333C72.8914 19.9668 72.454 20.2493 71.8495 20.4632L72.1832 21.4059C72.903 21.1511 73.4968 20.7891 73.9349 20.3023L73.1916 19.6333ZM71.8532 20.4619C71.2616 20.6661 70.4809 20.7773 69.4939 20.7773V21.7773C70.546 21.7773 71.4469 21.6601 72.1795 21.4072L71.8532 20.4619ZM69.4939 20.3535C70.2772 20.3535 70.9515 20.2782 71.5014 20.1125L71.213 19.155C70.7902 19.2824 70.2223 19.3535 69.4939 19.3535V20.3535ZM71.505 20.1114C72.1015 19.9268 72.5731 19.5795 72.878 19.0611L72.0161 18.5541C71.8522 18.8326 71.5972 19.0361 71.2093 19.1561L71.505 20.1114ZM72.8752 19.0658C73.1829 18.5554 73.3074 17.8757 73.3074 17.085H72.3074C72.3074 17.7942 72.1916 18.263 72.0188 18.5494L72.8752 19.0658ZM73.3074 17.085V12.4883H72.3074V17.085H73.3074ZM73.3074 12.4883C73.3074 11.6904 73.1824 11.0041 72.88 10.4804L72.014 10.9805C72.1921 11.2888 72.3074 11.7745 72.3074 12.4883H73.3074ZM72.88 10.4804C72.5736 9.94973 72.1046 9.58537 71.5065 9.38601L71.1903 10.3347C71.5766 10.4635 71.84 10.6792 72.014 10.9805L72.88 10.4804ZM71.5133 9.38833C70.9557 9.19352 70.2768 9.10547 69.4939 9.10547V10.1055C70.211 10.1055 70.7684 10.1873 71.1835 10.3324L71.5133 9.38833ZM69.4939 9.10547C68.7149 9.10547 68.0287 9.19402 67.4478 9.38547L67.7607 10.3352C68.211 10.1868 68.7847 10.1055 69.4939 10.1055V9.10547ZM67.4526 9.38389C66.8375 9.57962 66.3453 9.93629 66.0069 10.4586L66.8461 11.0023C67.0468 10.6926 67.3397 10.4692 67.7559 10.3368L67.4526 9.38389ZM66.0042 10.4628C65.6695 10.9909 65.531 11.6845 65.531 12.4883H66.531C66.531 11.7803 66.6562 11.302 66.8488 10.9981L66.0042 10.4628ZM65.531 12.4883V17.085H66.531V12.4883H65.531ZM65.531 17.085C65.531 17.8816 65.669 18.5689 66.0095 19.0836L66.8435 18.5317C66.6567 18.2495 66.531 17.7883 66.531 17.085H65.531ZM66.0095 19.0836C66.3463 19.5925 66.8403 19.9321 67.4538 20.1133L67.7371 19.1543C67.3193 19.0308 67.034 18.8196 66.8435 18.5317L66.0095 19.0836ZM67.4588 20.1148C68.0326 20.2778 68.7146 20.3535 69.4939 20.3535V19.3535C68.7732 19.3535 68.1895 19.2828 67.7321 19.1528L67.4588 20.1148ZM78.1248 21.084H77.6248V21.584H78.1248V21.084ZM78.1248 8.375V7.875H77.6248V8.375H78.1248ZM85.657 8.72656L85.4539 9.18351L85.46 9.18614L85.657 8.72656ZM86.8962 9.89551L86.4548 10.1303L86.4578 10.1359L86.8962 9.89551ZM86.8435 14.4219L86.4282 14.1434L86.4275 14.1445L86.8435 14.4219ZM85.5515 15.4941L85.3588 15.0328L84.8718 15.2361L85.1012 15.7115L85.5515 15.4941ZM88.2498 21.084V21.584H89.0463L88.7 20.8666L88.2498 21.084ZM86.4304 21.084L85.9794 21.2997L86.1153 21.584H86.4304V21.084ZM83.908 15.8105L84.359 15.5948L84.223 15.3105H83.908V15.8105ZM79.9001 15.8105V15.3105H79.4001V15.8105H79.9001ZM79.9001 21.084V21.584H80.4001V21.084H79.9001ZM79.9001 14.4746H79.4001V14.9746H79.9001V14.4746ZM85.4021 13.4023L84.9277 13.2442L84.9261 13.2493L85.4021 13.4023ZM85.4636 11.0908L84.9702 11.1718L84.9715 11.179L85.4636 11.0908ZM85.0066 10.1152L84.637 10.452L84.6408 10.4561L85.0066 10.1152ZM79.9001 9.71973V9.21973H79.4001V9.71973H79.9001ZM78.6248 21.084V8.375H77.6248V21.084H78.6248ZM78.1248 8.875H83.7937V7.875H78.1248V8.875ZM83.7937 8.875C84.4548 8.875 85.0038 8.98343 85.4539 9.18347L85.8601 8.26966C85.2554 8.00094 84.5623 7.875 83.7937 7.875V8.875ZM85.46 9.18614C85.8803 9.36627 86.211 9.67199 86.4548 10.1303L87.3377 9.6607C86.9955 9.01746 86.5 8.54388 85.8539 8.26699L85.46 9.18614ZM86.4578 10.1359C86.7004 10.5783 86.8445 11.231 86.8445 12.1367H87.8445C87.8445 11.144 87.6897 10.3026 87.3346 9.65509L86.4578 10.1359ZM86.8445 12.1367C86.8445 13.1255 86.6802 13.7677 86.4282 14.1434L87.2588 14.7004C87.6748 14.08 87.8445 13.1987 87.8445 12.1367H86.8445ZM86.4275 14.1445C86.1527 14.5568 85.7988 14.849 85.3588 15.0328L85.7442 15.9555C86.3706 15.6939 86.8781 15.2714 87.2595 14.6992L86.4275 14.1445ZM85.1012 15.7115L87.7995 21.3013L88.7 20.8666L86.0018 15.2768L85.1012 15.7115ZM88.2498 20.584H86.4304V21.584H88.2498V20.584ZM86.8815 20.8682L84.359 15.5948L83.4569 16.0263L85.9794 21.2997L86.8815 20.8682ZM83.908 15.3105H79.9001V16.3105H83.908V15.3105ZM79.4001 15.8105V21.084H80.4001V15.8105H79.4001ZM79.9001 20.584H78.1248V21.584H79.9001V20.584ZM79.9001 14.9746H83.6443V13.9746H79.9001V14.9746ZM83.6443 14.9746C84.2115 14.9746 84.7246 14.8701 85.1181 14.5938L84.5435 13.7754C84.3862 13.8858 84.1083 13.9746 83.6443 13.9746V14.9746ZM85.1181 14.5938C85.4849 14.3362 85.7402 13.9844 85.8781 13.5553L84.9261 13.2493C84.8531 13.4765 84.7275 13.6462 84.5435 13.7754L85.1181 14.5938ZM85.8764 13.5605C86.0071 13.1686 86.0691 12.7451 86.0691 12.2949H85.0691C85.0691 12.6533 85.0198 12.9682 84.9278 13.2442L85.8764 13.5605ZM86.0691 12.2949C86.0691 11.856 86.0315 11.4252 85.9558 11.0027L84.9715 11.179C85.0364 11.5416 85.0691 11.9135 85.0691 12.2949H86.0691ZM85.957 11.0098C85.8787 10.5329 85.6883 10.1134 85.3724 9.77437L84.6408 10.4561C84.8054 10.6327 84.9196 10.8636 84.9702 11.1718L85.957 11.0098ZM85.3762 9.77849C85.0026 9.36846 84.4504 9.21973 83.8464 9.21973V10.2197C84.3089 10.2197 84.5301 10.3347 84.637 10.452L85.3762 9.77849ZM83.8464 9.21973H79.9001V10.2197H83.8464V9.21973ZM79.4001 9.71973V14.4746H80.4001V9.71973H79.4001ZM89.8318 21.084L89.3633 20.9093L89.1118 21.584H89.8318V21.084ZM94.5691 8.375V7.875H94.2219L94.1006 8.20036L94.5691 8.375ZM96.1248 8.375L96.5932 8.20008L96.4718 7.875H96.1248V8.375ZM100.871 21.084V21.584H101.591L101.339 20.9091L100.871 21.084ZM99.0691 21.084L98.5963 21.2466L98.7123 21.584H99.0691V21.084ZM98.2166 18.6055L98.6894 18.4428L98.5733 18.1055H98.2166V18.6055ZM92.53 18.6055V18.1055H92.1745L92.0577 18.4413L92.53 18.6055ZM91.6687 21.084V21.584H92.0243L92.141 21.2481L91.6687 21.084ZM92.9871 17.3047L92.515 17.1399L92.283 17.8047H92.9871V17.3047ZM97.7683 17.3047V17.8047H98.469L98.2411 17.1421L97.7683 17.3047ZM95.3953 10.4053L95.8681 10.2426L95.3987 8.87809L94.9232 10.2405L95.3953 10.4053ZM90.3003 21.2586L95.0376 8.54964L94.1006 8.20036L89.3633 20.9093L90.3003 21.2586ZM94.5691 8.875H96.1248V7.875H94.5691V8.875ZM95.6563 8.54992L100.402 21.2589L101.339 20.9091L96.5932 8.20008L95.6563 8.54992ZM100.871 20.584H99.0691V21.584H100.871V20.584ZM99.5419 20.9214L98.6894 18.4428L97.7437 18.7681L98.5963 21.2466L99.5419 20.9214ZM98.2166 18.1055H92.53V19.1055H98.2166V18.1055ZM92.0577 18.4413L91.1964 20.9199L92.141 21.2481L93.0023 18.7696L92.0577 18.4413ZM91.6687 20.584H89.8318V21.584H91.6687V20.584ZM92.9871 17.8047H97.7683V16.8047H92.9871V17.8047ZM98.2411 17.1421L95.8681 10.2426L94.9224 10.5679L97.2955 17.4673L98.2411 17.1421ZM94.9232 10.2405L92.515 17.1399L93.4591 17.4695L95.8673 10.57L94.9232 10.2405ZM103.543 8.375V7.875H103.043V8.375H103.543ZM104.887 8.375L105.294 8.08401L105.144 7.875H104.887V8.375ZM112.165 18.5439L111.758 18.8349L112.665 20.1018V18.5439H112.165ZM112.165 8.375V7.875H111.665V8.375H112.165ZM113.72 8.375H114.22V7.875H113.72V8.375ZM113.72 21.084V21.584H114.22V21.084H113.72ZM112.147 21.084L111.743 21.3779L111.892 21.584H112.147V21.084ZM105.098 11.3809L105.503 11.087L104.598 9.84186V11.3809H105.098ZM105.098 21.084V21.584H105.598V21.084H105.098ZM103.543 21.084H103.043V21.584H103.543V21.084ZM103.543 8.875H104.887V7.875H103.543V8.875ZM104.481 8.66599L111.758 18.8349L112.571 18.253L105.294 8.08401L104.481 8.66599ZM112.665 18.5439V8.375H111.665V18.5439H112.665ZM112.165 8.875H113.72V7.875H112.165V8.875ZM113.22 8.375V21.084H114.22V8.375H113.22ZM113.72 20.584H112.147V21.584H113.72V20.584ZM112.552 20.7901L105.503 11.087L104.694 11.6747L111.743 21.3779L112.552 20.7901ZM104.598 11.3809V21.084H105.598V11.3809H104.598ZM105.098 20.584H103.543V21.584H105.098V20.584ZM104.043 21.084V8.375H103.043V21.084H104.043ZM123.819 17.2432L123.444 16.9128L123.319 17.0545V17.2432H123.819ZM123.819 21.084V21.584H124.319V21.084H123.819ZM122.052 21.084H121.552V21.584H122.052V21.084ZM122.052 8.375V7.875H121.552V8.375H122.052ZM123.819 8.375H124.319V7.875H123.819V8.375ZM123.819 15.3096H123.319V16.6496L124.197 15.6371L123.819 15.3096ZM129.831 8.375V7.875H129.603L129.453 8.04748L129.831 8.375ZM131.747 8.375L132.125 8.7024L132.842 7.875H131.747V8.375ZM126.904 13.9648L126.526 13.6374L126.268 13.9354L126.498 14.2559L126.904 13.9648ZM132.002 21.084V21.584H132.975L132.408 20.7929L132.002 21.084ZM130.042 21.084L129.634 21.3735L129.784 21.584H130.042V21.084ZM125.753 15.0459L126.16 14.7563L125.795 14.2415L125.377 14.7156L125.753 15.0459ZM123.319 17.2432V21.084H124.319V17.2432H123.319ZM123.819 20.584H122.052V21.584H123.819V20.584ZM122.552 21.084V8.375H121.552V21.084H122.552ZM122.052 8.875H123.819V7.875H122.052V8.875ZM123.319 8.375V15.3096H124.319V8.375H123.319ZM124.197 15.6371L130.209 8.70252L129.453 8.04748L123.441 14.982L124.197 15.6371ZM129.831 8.875H131.747V7.875H129.831V8.875ZM131.369 8.0476L126.526 13.6374L127.282 14.2922L132.125 8.7024L131.369 8.0476ZM126.498 14.2559L131.595 21.3751L132.408 20.7929L127.311 13.6737L126.498 14.2559ZM132.002 20.584H130.042V21.584H132.002V20.584ZM130.449 20.7944L126.16 14.7563L125.345 15.3355L129.634 21.3735L130.449 20.7944ZM125.377 14.7156L123.444 16.9128L124.194 17.5735L126.128 15.3762L125.377 14.7156ZM134.515 8.375V7.875H134.015V8.375H134.515ZM142.452 8.375H142.952V7.875H142.452V8.375ZM142.452 9.69336V10.1934H142.952V9.69336H142.452ZM136.282 9.69336V9.19336H135.782V9.69336H136.282ZM136.282 13.877H135.782V14.377H136.282V13.877ZM141.731 13.877H142.231V13.377H141.731V13.877ZM141.731 15.1953V15.6953H142.231V15.1953H141.731ZM136.282 15.1953V14.6953H135.782V15.1953H136.282ZM136.282 19.7656H135.782V20.2656H136.282V19.7656ZM142.557 19.7656H143.057V19.2656H142.557V19.7656ZM142.557 21.084V21.584H143.057V21.084H142.557ZM134.515 21.084H134.015V21.584H134.515V21.084ZM134.515 8.875H142.452V7.875H134.515V8.875ZM141.952 8.375V9.69336H142.952V8.375H141.952ZM142.452 9.19336H136.282V10.1934H142.452V9.19336ZM135.782 9.69336V13.877H136.782V9.69336H135.782ZM136.282 14.377H141.731V13.377H136.282V14.377ZM141.231 13.877V15.1953H142.231V13.877H141.231ZM141.731 14.6953H136.282V15.6953H141.731V14.6953ZM135.782 15.1953V19.7656H136.782V15.1953H135.782ZM136.282 20.2656H142.557V19.2656H136.282V20.2656ZM142.057 19.7656V21.084H143.057V19.7656H142.057ZM142.557 20.584H134.515V21.584H142.557V20.584ZM135.015 21.084V8.375H134.015V21.084H135.015ZM147.927 20.9346L147.764 21.4072L147.766 21.4077L147.927 20.9346ZM145.607 18.6143L145.124 18.7431L145.126 18.7495L145.607 18.6143ZM145.396 8.375V7.875H144.896V8.375H145.396ZM147.172 8.375H147.672V7.875H147.172V8.375ZM147.629 18.8691L147.234 19.1757L147.237 19.1793L147.629 18.8691ZM148.85 19.6602L148.721 20.1432L148.726 20.1446L148.85 19.6602ZM152.085 19.6602L152.217 20.1423L152.221 20.1411L152.085 19.6602ZM153.623 8.375V7.875H153.123V8.375H153.623ZM155.398 8.375H155.898V7.875H155.398V8.375ZM155.178 18.5967L154.697 18.4629L154.696 18.4665L155.178 18.5967ZM150.485 20.7773C149.48 20.7773 148.687 20.6659 148.089 20.4615L147.766 21.4077C148.504 21.6602 149.416 21.7773 150.485 21.7773V20.7773ZM148.091 20.4619C147.484 20.2527 147.047 19.9774 146.747 19.6543L146.014 20.334C146.453 20.8077 147.046 21.1594 147.764 21.4072L148.091 20.4619ZM146.747 19.6543C146.432 19.3139 146.214 18.924 146.089 18.479L145.126 18.7495C145.294 19.3475 145.591 19.8775 146.014 20.334L146.747 19.6543ZM146.09 18.4854C145.962 18.0039 145.896 17.485 145.896 16.9268H144.896C144.896 17.5638 144.971 18.1699 145.124 18.7431L146.09 18.4854ZM145.896 16.9268V8.375H144.896V16.9268H145.896ZM145.396 8.875H147.172V7.875H145.396V8.875ZM146.672 8.375V17.1113H147.672V8.375H146.672ZM146.672 17.1113C146.672 17.9425 146.832 18.658 147.234 19.1757L148.024 18.5626C147.816 18.2951 147.672 17.8387 147.672 17.1113H146.672ZM147.237 19.1793C147.617 19.6601 148.118 19.9819 148.721 20.1432L148.98 19.1771C148.575 19.0689 148.262 18.8634 148.021 18.5589L147.237 19.1793ZM148.726 20.1446C149.276 20.285 149.863 20.3535 150.485 20.3535V19.3535C149.936 19.3535 149.433 19.2931 148.974 19.1758L148.726 20.1446ZM150.485 20.3535C151.118 20.3535 151.697 20.2854 152.217 20.1423L151.952 19.1781C151.535 19.2927 151.048 19.3535 150.485 19.3535V20.3535ZM152.221 20.1411C152.803 19.976 153.276 19.6458 153.619 19.1563L152.8 18.582C152.593 18.8777 152.316 19.0748 151.948 19.1792L152.221 20.1411ZM153.619 19.1563C153.98 18.6418 154.123 17.9347 154.123 17.1113H153.123C153.123 17.8465 152.99 18.3114 152.8 18.582L153.619 19.1563ZM154.123 17.1113V8.375H153.123V17.1113H154.123ZM153.623 8.875H155.398V7.875H153.623V8.875ZM154.898 8.375V16.9268H155.898V8.375H154.898ZM154.898 16.9268C154.898 17.4706 154.83 17.9821 154.697 18.4629L155.66 18.7305C155.82 18.1566 155.898 17.5547 155.898 16.9268H154.898ZM154.696 18.4665C154.575 18.9136 154.363 19.3077 154.057 19.6542L154.806 20.3165C155.215 19.8544 155.501 19.3227 155.661 18.7269L154.696 18.4665ZM154.057 19.6542C153.768 19.9811 153.348 20.2565 152.769 20.4638L153.106 21.4053C153.804 21.1556 154.38 20.7982 154.806 20.3165L154.057 19.6542ZM152.769 20.4638C152.203 20.6662 151.448 20.7773 150.485 20.7773V21.7773C151.514 21.7773 152.394 21.66 153.106 21.4053L152.769 20.4638ZM157.912 21.084L157.443 20.9093L157.192 21.584H157.912V21.084ZM162.649 8.375V7.875H162.302L162.181 8.20036L162.649 8.375ZM164.205 8.375L164.673 8.20008L164.552 7.875H164.205V8.375ZM168.951 21.084V21.584H169.671L169.419 20.9091L168.951 21.084ZM167.149 21.084L166.676 21.2466L166.792 21.584H167.149V21.084ZM166.297 18.6055L166.769 18.4428L166.653 18.1055H166.297V18.6055ZM160.61 18.6055V18.1055H160.255L160.138 18.4413L160.61 18.6055ZM159.749 21.084V21.584H160.104L160.221 21.2481L159.749 21.084ZM161.067 17.3047L160.595 17.1399L160.363 17.8047H161.067V17.3047ZM165.848 17.3047V17.8047H166.549L166.321 17.1421L165.848 17.3047ZM163.475 10.4053L163.948 10.2426L163.479 8.87809L163.003 10.2405L163.475 10.4053ZM158.38 21.2586L163.118 8.54964L162.181 8.20036L157.443 20.9093L158.38 21.2586ZM162.649 8.875H164.205V7.875H162.649V8.875ZM163.736 8.54992L168.483 21.2589L169.419 20.9091L164.673 8.20008L163.736 8.54992ZM168.951 20.584H167.149V21.584H168.951V20.584ZM167.622 20.9214L166.769 18.4428L165.824 18.7681L166.676 21.2466L167.622 20.9214ZM166.297 18.1055H160.61V19.1055H166.297V18.1055ZM160.138 18.4413L159.276 20.9199L160.221 21.2481L161.082 18.7696L160.138 18.4413ZM159.749 20.584H157.912V21.584H159.749V20.584ZM161.067 17.8047H165.848V16.8047H161.067V17.8047ZM166.321 17.1421L163.948 10.2426L163.003 10.5679L165.376 17.4673L166.321 17.1421ZM163.003 10.2405L160.595 17.1399L161.539 17.4695L163.947 10.57L163.003 10.2405ZM171.623 8.375V7.875H171.123V8.375H171.623ZM172.968 8.375L173.374 8.08401L173.225 7.875H172.968V8.375ZM180.245 18.5439L179.838 18.8349L180.745 20.1018V18.5439H180.245ZM180.245 8.375V7.875H179.745V8.375H180.245ZM181.801 8.375H182.301V7.875H181.801V8.375ZM181.801 21.084V21.584H182.301V21.084H181.801ZM180.227 21.084L179.823 21.3779L179.973 21.584H180.227V21.084ZM173.178 11.3809L173.583 11.087L172.678 9.84186V11.3809H173.178ZM173.178 21.084V21.584H173.678V21.084H173.178ZM171.623 21.084H171.123V21.584H171.623V21.084ZM171.623 8.875H172.968V7.875H171.623V8.875ZM172.561 8.66599L179.838 18.8349L180.651 18.253L173.374 8.08401L172.561 8.66599ZM180.745 18.5439V8.375H179.745V18.5439H180.745ZM180.245 8.875H181.801V7.875H180.245V8.875ZM181.301 8.375V21.084H182.301V8.375H181.301ZM181.801 20.584H180.227V21.584H181.801V20.584ZM180.632 20.7901L173.583 11.087L172.774 11.6747L179.823 21.3779L180.632 20.7901ZM172.678 11.3809V21.084H173.678V11.3809H172.678ZM173.178 20.584H171.623V21.584H173.178V20.584ZM172.123 21.084V8.375H171.123V21.084H172.123ZM188.014 20.9521L187.864 21.4289L187.865 21.4292L188.014 20.9521ZM186.406 20.0381L186.047 20.3863L186.05 20.389L186.406 20.0381ZM185.58 10.9678L185.098 10.8337L185.097 10.8371L185.58 10.9678ZM188.006 8.52441L187.849 8.04967L187.848 8.05007L188.006 8.52441ZM193.138 8.47168L192.994 8.95026L192.999 8.95178L193.138 8.47168ZM194.624 9.27148L194.27 9.62505L194.273 9.62805L194.624 9.27148ZM195.336 10.4756L194.854 10.6097L194.854 10.6113L195.336 10.4756ZM195.529 12.1631L195.57 12.6614L196.029 12.624V12.1631H195.529ZM193.912 12.2949H193.412V12.8373L193.952 12.7933L193.912 12.2949ZM193.639 10.5811L193.189 10.7989L193.194 10.8076L193.639 10.5811ZM192.664 9.8252L192.515 10.3025L192.522 10.3046L192.664 9.8252ZM188.735 9.86035L188.885 10.3373L188.888 10.3363L188.735 9.86035ZM187.54 10.7393L187.957 11.0153L187.958 11.0126L187.54 10.7393ZM187.531 18.8076L187.117 19.0878L187.12 19.0919L187.531 18.8076ZM188.726 19.6338L188.586 20.1138L188.592 20.1155L188.726 19.6338ZM192.497 19.6338L192.643 20.1121L192.648 20.1104L192.497 19.6338ZM193.552 18.8076L193.118 18.5588L193.115 18.5637L193.552 18.8076ZM193.894 15.916H194.394V15.416H193.894V15.916ZM190.88 15.916H190.38V16.416H190.88V15.916ZM190.88 14.624V14.124H190.38V14.624H190.88ZM195.67 14.624H196.17V14.124H195.67V14.624ZM195.67 21.084V21.584H196.17V21.084H195.67ZM194.703 21.084L194.205 21.1345L194.251 21.584H194.703V21.084ZM194.483 18.9219L194.981 18.8713L193.989 18.8465L194.483 18.9219ZM190.642 20.7773C189.611 20.7773 188.79 20.6714 188.164 20.4751L187.865 21.4292C188.621 21.6665 189.552 21.7773 190.642 21.7773V20.7773ZM188.165 20.4754C187.534 20.276 187.077 20.0067 186.762 19.6872L186.05 20.389C186.508 20.8546 187.123 21.1947 187.864 21.4289L188.165 20.4754ZM186.765 19.6898C186.436 19.3514 186.205 18.9519 186.069 18.4836L185.108 18.7625C185.289 19.3841 185.602 19.9279 186.047 20.3863L186.765 19.6898ZM186.069 18.4836C185.926 17.9908 185.851 17.4351 185.851 16.8125H184.851C184.851 17.5141 184.935 18.1654 185.108 18.7625L186.069 18.4836ZM185.851 16.8125V12.8223H184.851V16.8125H185.851ZM185.851 12.8223C185.851 12.1859 185.923 11.6123 186.062 11.0985L185.097 10.8371C184.932 11.4482 184.851 12.111 184.851 12.8223H185.851ZM186.062 11.1019C186.199 10.6074 186.433 10.1868 186.763 9.83163L186.031 9.15079C185.588 9.62766 185.277 10.1914 185.098 10.8337L186.062 11.1019ZM186.763 9.83163C187.08 9.49148 187.537 9.20783 188.164 8.99876L187.848 8.05007C187.104 8.29803 186.488 8.65891 186.031 9.15079L186.763 9.83163ZM188.163 8.99916C188.786 8.79319 189.607 8.68164 190.642 8.68164V7.68164C189.545 7.68164 188.608 7.7986 187.849 8.04967L188.163 8.99916ZM190.642 8.68164C191.642 8.68164 192.42 8.77656 192.994 8.95023L193.283 7.99313C192.58 7.78008 191.693 7.68164 190.642 7.68164V8.68164ZM192.999 8.95178C193.591 9.12412 194.002 9.35691 194.27 9.62504L194.977 8.91793C194.554 8.49465 193.975 8.19423 193.278 7.99158L192.999 8.95178ZM194.273 9.62805C194.557 9.90708 194.749 10.232 194.854 10.6097L195.817 10.3414C195.665 9.79343 195.382 9.31557 194.974 8.91492L194.273 9.62805ZM194.854 10.6113C194.969 11.0187 195.029 11.4705 195.029 11.9697H196.029C196.029 11.3909 195.96 10.8465 195.817 10.3399L194.854 10.6113ZM195.029 11.9697V12.1631H196.029V11.9697H195.029ZM195.488 11.6647L193.871 11.7966L193.952 12.7933L195.57 12.6614L195.488 11.6647ZM194.412 12.2949V12.1016H193.412V12.2949H194.412ZM194.412 12.1016C194.412 11.411 194.318 10.8132 194.085 10.3545L193.194 10.8076C193.324 11.0638 193.412 11.4797 193.412 12.1016H194.412ZM194.089 10.3633C193.839 9.84536 193.382 9.51663 192.806 9.3458L192.522 10.3046C192.894 10.415 193.088 10.5902 193.189 10.7988L194.089 10.3633ZM192.813 9.34796C192.272 9.17893 191.539 9.10547 190.642 9.10547V10.1055C191.504 10.1055 192.118 10.1785 192.515 10.3024L192.813 9.34796ZM190.642 9.10547C189.863 9.10547 189.172 9.19415 188.582 9.38445L188.888 10.3363C189.353 10.1867 189.934 10.1055 190.642 10.1055V9.10547ZM188.585 9.3834C187.963 9.57903 187.465 9.93865 187.121 10.4659L187.958 11.0126C188.165 10.6961 188.464 10.4698 188.885 10.3373L188.585 9.3834ZM187.123 10.4633C186.772 10.9932 186.627 11.6903 186.627 12.4971H187.627C187.627 11.7922 187.757 11.3174 187.957 11.0153L187.123 10.4633ZM186.627 12.4971V17.085H187.627V12.4971H186.627ZM186.627 17.085C186.627 17.8832 186.768 18.5722 187.117 19.0878L187.945 18.5275C187.755 18.2461 187.627 17.7868 187.627 17.085H186.627ZM187.12 19.0919C187.468 19.5962 187.969 19.9334 188.586 20.1137L188.867 19.1538C188.441 19.0295 188.145 18.8159 187.942 18.5233L187.12 19.0919ZM188.592 20.1155C189.176 20.2777 189.863 20.3535 190.642 20.3535V19.3535C189.922 19.3535 189.331 19.2829 188.86 19.152L188.592 20.1155ZM190.642 20.3535C191.425 20.3535 192.098 20.2783 192.643 20.1121L192.351 19.1555C191.935 19.2823 191.371 19.3535 190.642 19.3535V20.3535ZM192.648 20.1104C193.236 19.924 193.697 19.573 193.988 19.0515L193.115 18.5637C192.961 18.8391 192.719 19.0389 192.346 19.1572L192.648 20.1104ZM193.985 19.0564C194.276 18.5486 194.394 17.8729 194.394 17.085H193.394C193.394 17.7971 193.284 18.2698 193.118 18.5589L193.985 19.0564ZM194.394 17.085V15.916H193.394V17.085H194.394ZM193.894 15.416H190.88V16.416H193.894V15.416ZM191.38 15.916V14.624H190.38V15.916H191.38ZM190.88 15.124H195.67V14.124H190.88V15.124ZM195.17 14.624V21.084H196.17V14.624H195.17ZM195.67 20.584H194.703V21.584H195.67V20.584ZM195.2 21.0334L194.981 18.8713L193.986 18.9724L194.205 21.1345L195.2 21.0334ZM193.989 18.8465C193.905 19.3982 193.63 19.8492 193.132 20.2153L193.725 21.021C194.422 20.5083 194.851 19.8283 194.977 18.9973L193.989 18.8465ZM193.132 20.2153C192.662 20.561 191.863 20.7773 190.642 20.7773V21.7773C191.942 21.7773 193 21.5542 193.725 21.021L193.132 20.2153ZM198.148 21.084L197.68 20.9093L197.428 21.584H198.148V21.084ZM202.885 8.375V7.875H202.538L202.417 8.20036L202.885 8.375ZM204.441 8.375L204.91 8.20008L204.788 7.875H204.441V8.375ZM209.187 21.084V21.584H209.908L209.656 20.9091L209.187 21.084ZM207.385 21.084L206.913 21.2466L207.029 21.584H207.385V21.084ZM206.533 18.6055L207.006 18.4428L206.89 18.1055H206.533V18.6055ZM200.846 18.6055V18.1055H200.491L200.374 18.4413L200.846 18.6055ZM199.985 21.084V21.584H200.341L200.457 21.2481L199.985 21.084ZM201.303 17.3047L200.831 17.1399L200.599 17.8047H201.303V17.3047ZM206.085 17.3047V17.8047H206.785L206.558 17.1421L206.085 17.3047ZM203.712 10.4053L204.184 10.2426L203.715 8.87809L203.24 10.2405L203.712 10.4053ZM198.617 21.2586L203.354 8.54964L202.417 8.20036L197.68 20.9093L198.617 21.2586ZM202.885 8.875H204.441V7.875H202.885V8.875ZM203.973 8.54992L208.719 21.2589L209.656 20.9091L204.91 8.20008L203.973 8.54992ZM209.187 20.584H207.385V21.584H209.187V20.584ZM207.858 20.9214L207.006 18.4428L206.06 18.7681L206.913 21.2466L207.858 20.9214ZM206.533 18.1055H200.846V19.1055H206.533V18.1055ZM200.374 18.4413L199.513 20.9199L200.457 21.2481L201.319 18.7696L200.374 18.4413ZM199.985 20.584H198.148V21.584H199.985V20.584ZM201.303 17.8047H206.085V16.8047H201.303V17.8047ZM206.558 17.1421L204.184 10.2426L203.239 10.5679L205.612 17.4673L206.558 17.1421ZM203.24 10.2405L200.831 17.1399L201.776 17.4695L204.184 10.57L203.24 10.2405ZM211.859 8.375V7.875H211.359V8.375H211.859ZM213.204 8.375L213.61 8.08401L213.461 7.875H213.204V8.375ZM220.481 18.5439L220.075 18.8349L220.981 20.1018V18.5439H220.481ZM220.481 8.375V7.875H219.981V8.375H220.481ZM222.037 8.375H222.537V7.875H222.037V8.375ZM222.037 21.084V21.584H222.537V21.084H222.037ZM220.464 21.084L220.059 21.3779L220.209 21.584H220.464V21.084ZM213.415 11.3809L213.819 11.087L212.915 9.84186V11.3809H213.415ZM213.415 21.084V21.584H213.915V21.084H213.415ZM211.859 21.084H211.359V21.584H211.859V21.084ZM211.859 8.875H213.204V7.875H211.859V8.875ZM212.797 8.66599L220.075 18.8349L220.888 18.253L213.61 8.08401L212.797 8.66599ZM220.981 18.5439V8.375H219.981V18.5439H220.981ZM220.481 8.875H222.037V7.875H220.481V8.875ZM221.537 8.375V21.084H222.537V8.375H221.537ZM222.037 20.584H220.464V21.584H222.037V20.584ZM220.868 20.7901L213.819 11.087L213.01 11.6747L220.059 21.3779L220.868 20.7901ZM212.915 11.3809V21.084H213.915V11.3809H212.915ZM213.415 20.584H211.859V21.584H213.415V20.584ZM212.359 21.084V8.375H211.359V21.084H212.359Z" fill="white" mask="url(#path-7-outside-1_4594_19197)"/>
</svg>
