<svg width="24" height="24" viewBox="0 0 24 24" fill="none" xmlns="http://www.w3.org/2000/svg">
<path fill-rule="evenodd" clip-rule="evenodd" d="M12.0492 2.98035L12.5248 3.60226C13.1239 4.38562 14.2046 4.61533 15.0706 4.14338L15.758 3.76869L15.9396 4.53029C16.1683 5.48961 17.0622 6.13903 18.0452 6.06009L18.8256 5.99741L18.6817 6.76702C18.5004 7.73642 19.0529 8.69325 19.983 9.02097L20.7215 9.28115L20.277 9.92568C19.7171 10.7375 19.8326 11.8364 20.549 12.5141L21.1178 13.0521L20.4496 13.4601C19.6079 13.9741 19.2665 15.0249 19.6453 15.9354L19.9461 16.6582L19.1697 16.7592C18.1917 16.8864 17.4525 17.7074 17.4282 18.6933L17.409 19.4761L16.6586 19.2525C15.7135 18.9709 14.7041 19.4203 14.281 20.3111L13.945 21.0183L13.3505 20.5089C12.6016 19.8672 11.4968 19.8672 10.7479 20.5089L10.1533 21.0183L9.81738 20.3111C9.39423 19.4203 8.38489 18.9709 7.43975 19.2525L6.6894 19.4761L6.67016 18.6933C6.64591 17.7074 5.90662 16.8864 4.92865 16.7592L4.15224 16.6582L4.45301 15.9354C4.83187 15.0249 4.49045 13.9741 3.64875 13.4601L2.98053 13.0521L3.54932 12.5141C4.26577 11.8363 4.38126 10.7375 3.82137 9.92568L3.37688 9.28115L4.11533 9.02097C5.04549 8.69325 5.59791 7.73642 5.41665 6.76702L5.27274 5.99741L6.05317 6.06009C7.03621 6.13903 7.93006 5.48961 8.15875 4.53029L8.34031 3.76869L9.02778 4.14338C9.89372 4.61533 10.9744 4.38562 11.5735 3.60226L12.0492 2.98035ZM11.2549 2.37285C11.6551 1.84951 12.4433 1.84951 12.8435 2.37285L13.3191 2.99476C13.6187 3.38644 14.1591 3.5013 14.592 3.26532L15.2795 2.89064C15.858 2.57534 16.578 2.89591 16.7308 3.5368L16.9124 4.2984C17.0267 4.77806 17.4736 5.10277 17.9651 5.0633L18.7456 5.00062C19.4023 4.94788 19.9297 5.53359 19.8086 6.18122L19.6647 6.95082C19.574 7.43552 19.8503 7.91394 20.3153 8.0778L21.0538 8.33797C21.6752 8.55691 21.9188 9.30649 21.5447 9.84887L21.1002 10.4934C20.8203 10.8993 20.878 11.4487 21.2362 11.7876L21.805 12.3256C22.2837 12.7784 22.2013 13.5622 21.639 13.9056L20.9707 14.3136C20.5499 14.5706 20.3792 15.096 20.5686 15.5512L20.8694 16.2741C21.1225 16.8824 20.7284 17.5649 20.0751 17.6499L19.2987 17.7509C18.8097 17.8144 18.44 18.225 18.4279 18.7179L18.4087 19.5006C18.3925 20.1593 17.7548 20.6225 17.1234 20.4344L16.3731 20.2109C15.9005 20.0701 15.3958 20.2947 15.1843 20.7401L14.8483 21.4474C14.5656 22.0425 13.7947 22.2063 13.2944 21.7777L12.6998 21.2682C12.3254 20.9474 11.773 20.9474 11.3985 21.2682L10.804 21.7777C10.3037 22.2063 9.53274 22.0425 9.25005 21.4474L8.91411 20.7401C8.70253 20.2947 8.19786 20.0701 7.72529 20.2109L6.97495 20.4344C6.34353 20.6225 5.7059 20.1593 5.6897 19.5006L5.67046 18.7179C5.65834 18.225 5.28869 17.8144 4.7997 17.7509L4.0233 17.6499C3.36995 17.5649 2.97587 16.8824 3.22897 16.2741L3.52975 15.5512C3.71917 15.096 3.54846 14.5706 3.12762 14.3136L2.45939 13.9056C1.89708 13.5622 1.8147 12.7784 2.29334 12.3256L2.86212 11.7876C3.22035 11.4487 3.27809 10.8993 2.99815 10.4934L2.55365 9.84887C2.17961 9.30649 2.42316 8.55691 3.04457 8.33797L3.78303 8.0778C4.2481 7.91394 4.52432 7.43552 4.43368 6.95082L4.28978 6.18122C4.16868 5.53359 4.69605 4.94788 5.35279 5.00062L6.13322 5.0633C6.62474 5.10277 7.07166 4.77806 7.18601 4.2984L7.36757 3.5368C7.52035 2.89591 8.24037 2.57534 8.81887 2.89064L9.50634 3.26532C9.93931 3.5013 10.4797 3.38644 10.7792 2.99476L11.2549 2.37285ZM10.1727 9.4078C10.1727 9.85775 9.80795 10.2225 9.358 10.2225C8.90805 10.2225 8.5433 9.85775 8.5433 9.4078C8.5433 8.95785 8.90805 8.5931 9.358 8.5931C9.80795 8.5931 10.1727 8.95785 10.1727 9.4078ZM10.9727 9.4078C10.9727 10.2996 10.2498 11.0225 9.358 11.0225C8.46623 11.0225 7.7433 10.2996 7.7433 9.4078C7.7433 8.51602 8.46623 7.7931 9.358 7.7931C10.2498 7.7931 10.9727 8.51602 10.9727 9.4078ZM14.7404 15.6048C15.1903 15.6048 15.5551 15.2401 15.5551 14.7901C15.5551 14.3402 15.1903 13.9754 14.7404 13.9754C14.2904 13.9754 13.9257 14.3402 13.9257 14.7901C13.9257 15.2401 14.2904 15.6048 14.7404 15.6048ZM14.7404 16.4048C15.6322 16.4048 16.3551 15.6819 16.3551 14.7901C16.3551 13.8984 15.6322 13.1754 14.7404 13.1754C13.8486 13.1754 13.1257 13.8984 13.1257 14.7901C13.1257 15.6819 13.8486 16.4048 14.7404 16.4048ZM15.6324 9.22311C15.8276 9.02785 15.8276 8.71126 15.6324 8.516C15.4371 8.32074 15.1205 8.32074 14.9252 8.516L8.46642 14.9748C8.27116 15.1701 8.27116 15.4867 8.46642 15.6819C8.66169 15.8772 8.97827 15.8772 9.17353 15.6819L15.6324 9.22311Z" fill="#1373E3"/>
</svg>
