<?xml version="1.0" encoding="utf-8"?>
<!-- Generator: Adobe Illustrator 27.4.1, SVG Export Plug-In . SVG Version: 6.00 Build 0)  -->
<svg version="1.1" id="Layer_1" xmlns="http://www.w3.org/2000/svg" xmlns:xlink="http://www.w3.org/1999/xlink" x="0px" y="0px"
	 viewBox="0 0 24 24" style="enable-background:new 0 0 24 24;" xml:space="preserve">
<path d="M6.3,4.9C6.4,5,6.5,5.1,6.6,5.3c0.1,0.1,0.1,0.3,0.1,0.4c0,0.1,0,0.3-0.1,0.4C6.5,6.1,6.4,6.3,6.3,6.4C4.8,7.9,4,9.9,4,12
	c0,2.1,0.8,4.2,2.3,5.7c0.1,0.1,0.2,0.2,0.2,0.3c0.1,0.1,0.1,0.3,0.1,0.4c0,0.1,0,0.3-0.1,0.4c-0.1,0.1-0.1,0.2-0.2,0.3
	c-0.1,0.1-0.2,0.2-0.3,0.2c-0.1,0.1-0.3,0.1-0.4,0.1c-0.1,0-0.3,0-0.4-0.1c-0.1-0.1-0.2-0.1-0.3-0.2C1,15.2,1,8.8,4.9,4.9
	C5,4.8,5.1,4.8,5.3,4.7c0.1-0.1,0.3-0.1,0.4-0.1c0.1,0,0.3,0,0.4,0.1C6.1,4.8,6.3,4.8,6.3,4.9z M19.1,4.9c3.9,3.9,3.9,10.2,0,14.1
	c-0.2,0.2-0.4,0.3-0.7,0.3c-0.3,0-0.5-0.1-0.7-0.3s-0.3-0.4-0.3-0.7c0-0.3,0.1-0.5,0.3-0.7c1.5-1.5,2.3-3.5,2.3-5.7
	c0-2.1-0.8-4.2-2.3-5.7c-0.2-0.2-0.3-0.4-0.3-0.7c0-0.3,0.1-0.5,0.3-0.7s0.4-0.3,0.7-0.3C18.6,4.6,18.9,4.8,19.1,4.9z M9.3,7.8
	C9.5,8,9.6,8.3,9.6,8.5c0,0.3-0.1,0.5-0.3,0.7C8.9,9.6,8.7,10,8.5,10.5c-0.2,0.5-0.3,1-0.3,1.5c0,0.5,0.1,1,0.3,1.5
	c0.2,0.5,0.5,0.9,0.8,1.3c0.1,0.1,0.2,0.2,0.2,0.3c0.1,0.1,0.1,0.3,0.1,0.4c0,0.1,0,0.3-0.1,0.4c-0.1,0.1-0.1,0.2-0.2,0.3
	c-0.1,0.1-0.2,0.2-0.3,0.2s-0.3,0.1-0.4,0.1c-0.1,0-0.3,0-0.4-0.1c-0.1-0.1-0.2-0.1-0.3-0.2c-1.1-1.1-1.7-2.6-1.7-4.2
	c0-1.6,0.6-3.1,1.7-4.2c0.2-0.2,0.4-0.3,0.7-0.3C8.9,7.5,9.1,7.6,9.3,7.8z M16.3,7.8C17.4,8.9,18,10.4,18,12c0,1.6-0.6,3.1-1.7,4.2
	c-0.1,0.1-0.2,0.2-0.3,0.2c-0.1,0.1-0.3,0.1-0.4,0.1c-0.1,0-0.3,0-0.4-0.1c-0.1-0.1-0.2-0.1-0.3-0.2c-0.1-0.1-0.2-0.2-0.2-0.3
	c-0.1-0.1-0.1-0.3-0.1-0.4c0-0.1,0-0.3,0.1-0.4c0.1-0.1,0.1-0.2,0.2-0.3c0.4-0.4,0.7-0.8,0.8-1.3c0.2-0.5,0.3-1,0.3-1.5
	c0-0.5-0.1-1-0.3-1.5c-0.2-0.5-0.5-0.9-0.8-1.3c-0.2-0.2-0.3-0.4-0.3-0.7s0.1-0.5,0.3-0.7c0.2-0.2,0.4-0.3,0.7-0.3
	C15.8,7.5,16.1,7.6,16.3,7.8z M12.1,10.6c0.2,0,0.4,0,0.6,0.1c0.2,0.1,0.3,0.2,0.5,0.3c0.1,0.1,0.2,0.3,0.3,0.5
	c0.1,0.2,0.1,0.4,0.1,0.6c0,0.2,0,0.4-0.1,0.6c-0.1,0.2-0.2,0.3-0.3,0.5c-0.1,0.1-0.3,0.2-0.5,0.3c-0.2,0.1-0.4,0.1-0.6,0.1
	c-0.4,0-0.8-0.2-1.1-0.4c-0.3-0.3-0.4-0.7-0.4-1.1c0-0.4,0.2-0.8,0.4-1.1C11.3,10.7,11.7,10.6,12.1,10.6z"/>
</svg>
