<?xml version="1.0" encoding="utf-8"?>
<!-- Generator: Adobe Illustrator 27.4.0, SVG Export Plug-In . SVG Version: 6.00 Build 0)  -->
<svg version="1.1" id="Layer_1" xmlns="http://www.w3.org/2000/svg" xmlns:xlink="http://www.w3.org/1999/xlink" x="0px" y="0px"
	 viewBox="0 0 21 21" style="enable-background:new 0 0 21 21;" xml:space="preserve">
<style type="text/css">
	.st0{stroke:#000000;stroke-width:0.4;}
</style>
<path class="st0" d="M16,5.5l-8.9-1c-0.3,0-0.7,0.1-1,0.3C5.9,4.9,5.8,5.2,5.7,5.6L5.6,6.9H5.1c-0.7,0-1.3,0.6-1.3,1.4v6.7
	c0,0.7,0.5,1.3,1.2,1.3c0,0,0,0,0,0H14c0.7,0,1.4-0.6,1.4-1.3v-0.3c0.2,0,0.4-0.1,0.6-0.3c0.3-0.2,0.4-0.5,0.5-0.9l0.7-6.6
	C17.3,6.2,16.8,5.5,16,5.5z M14.7,14.9c0,0.4-0.4,0.6-0.7,0.6H5.1c-0.3,0-0.6-0.2-0.6-0.6c0,0,0,0,0-0.1v-1.2L7,11.9
	c0.3-0.2,0.7-0.2,1,0l1.8,1.6c0.3,0.2,0.6,0.4,1,0.4c0.3,0,0.5-0.1,0.8-0.2l3.2-1.9L14.7,14.9L14.7,14.9z M14.7,11l-3.5,2.1
	c-0.3,0.2-0.7,0.1-1-0.1l-1.8-1.6c-0.5-0.4-1.3-0.5-1.8-0.1l-2.1,1.6V8.3c0-0.4,0.2-0.7,0.6-0.7H14c0.4,0,0.7,0.3,0.7,0.7V11z
	 M16.5,6.8C16.5,6.8,16.5,6.8,16.5,6.8l-0.8,6.6c0,0.2-0.1,0.3-0.2,0.4c-0.1,0.1-0.2,0.1-0.2,0.1V8.3c0-0.7-0.6-1.3-1.4-1.4H6.2
	l0.1-1.3c0-0.2,0.1-0.3,0.2-0.4c0.1-0.1,0.3-0.1,0.5-0.1l8.9,1C16.3,6.1,16.6,6.5,16.5,6.8z"/>
</svg>
