<svg width="37" height="36" viewBox="0 0 37 36" fill="none" xmlns="http://www.w3.org/2000/svg">
<path d="M15.3082 25.3927C16.0739 24.5777 16.2231 23.571 16.2303 22.5472C16.2519 19.3923 16.2418 16.237 16.2342 13.0817C16.2314 11.943 16.6 10.9811 17.4594 10.2217C18.4258 9.3678 19.3896 8.51097 20.3456 7.64577C22.3083 5.86919 25.0266 6.73438 25.6366 9.32998C26.0034 10.8909 25.6662 12.3351 24.9394 13.7138C24.2836 14.9587 23.341 15.9464 22.2085 16.7582C22.1515 16.7989 22.0968 16.8429 22.0067 16.9116C22.6192 16.9964 23.1893 17.0542 23.7503 17.1608C24.1283 17.2328 24.5037 17.3462 24.8619 17.4892C26.776 18.254 27.7499 19.9051 27.653 22.001C27.5038 25.2254 25.7764 27.3384 23.0498 28.7182C21.4583 29.5234 19.7564 30.0209 17.9422 29.9205C17.5613 29.8994 17.1516 29.843 16.8147 29.6783C14.8502 28.7182 12.9142 28.9535 10.976 29.7398C10.8755 29.7805 10.7738 29.818 10.6722 29.855C10.6636 29.8583 10.6503 29.8481 10.6041 29.8314C11.1951 28.9833 11.8718 28.2312 12.6602 27.5835C13.842 26.6128 15.159 25.9615 16.7059 25.8575C17.9094 25.7767 19.0343 26.0702 20.1168 26.5732C20.2465 26.6336 20.3737 26.6994 20.5596 26.791C20.5596 26.6059 20.5596 26.4663 20.5596 26.3266C20.5596 22.0097 20.5571 17.6925 20.5629 13.3756C20.5636 12.8675 20.6263 12.3522 20.0087 12.0903C20.2962 11.8088 20.5355 11.5743 20.7664 11.3477C20.9985 11.5812 21.2273 11.811 21.4687 12.0539C21.4702 12.0449 21.4745 12.0783 21.4615 12.0874C20.9945 12.4198 20.9167 12.8824 20.9369 13.429C20.9736 14.4306 20.9473 15.4344 20.9473 16.437C20.9473 16.5672 20.9473 16.6974 20.9473 16.8276C20.9884 16.8502 21.0291 16.8727 21.0702 16.8956C21.343 16.5683 21.6564 16.2668 21.8802 15.9086C22.5079 14.9052 22.66 13.7643 22.7144 12.6086C22.7565 11.7106 22.6661 10.8233 22.3652 9.9726C22.2611 9.67766 22.1187 9.38162 21.9317 9.13359C21.3329 8.33967 20.2667 8.37059 19.7849 9.24124C19.5482 9.66929 19.4069 10.2094 19.4015 10.7007C19.3669 13.8676 19.3486 17.036 19.3918 20.2026C19.4213 22.3512 18.2769 24.1733 16.1849 25.0657C15.8988 25.1876 15.6008 25.2843 15.3082 25.3927ZM20.9866 17.583C20.9697 17.6608 20.9513 17.7066 20.9513 17.7525C20.9495 20.7699 20.947 23.7878 20.9509 26.8052C20.9513 27.1518 21.3408 27.3693 21.6417 27.1965C22.3544 26.7881 22.8974 26.2048 23.2981 25.4901C23.9993 24.2391 24.2169 22.8778 24.1369 21.4627C24.0829 20.507 23.8177 19.6102 23.2361 18.837C22.6747 18.0914 21.9224 17.6819 20.9866 17.583Z" fill="#414141"/>
<path d="M15.6569 11.8721C15.389 12.697 15.3657 13.5303 15.3668 14.3686C15.3707 16.8341 15.336 19.3004 15.3775 21.7653C15.4166 24.0606 14.2663 25.5377 12.2173 26.4564C12.0099 26.5494 11.7946 26.6249 11.5819 26.706C11.5632 26.713 11.5371 26.7017 11.4751 26.6944C12.2535 26 12.2811 25.0941 12.2815 24.1807C12.2822 23.0483 12.2815 21.9155 12.2815 20.7831C12.2815 20.6547 12.2815 20.5266 12.2815 20.4044C11.5013 20.2643 11.0886 20.6533 10.533 22.0675C10.0519 20.6775 9.68402 19.3499 10.2822 17.9708C10.6086 17.2182 11.1656 16.8787 12.2815 16.6913C12.2815 16.4133 12.2854 16.1237 12.2807 15.8341C12.2704 15.2065 12.4631 14.6378 12.8747 14.1671C13.671 13.2569 14.6332 12.5324 15.6569 11.8721Z" fill="#414141"/>
<path d="M9.34058 9.66023C9.98361 7.99842 10.7529 6.48285 12.6246 6.11137C13.2132 5.99438 13.7621 6.11403 14.2803 6.38751C14.6688 6.59263 15.0662 6.80572 15.4005 7.09212C16.3981 7.94639 17.436 7.91182 18.5241 7.34206C18.6103 7.29686 18.6965 7.25165 18.7978 7.19848C18.8047 7.24634 18.8241 7.28774 18.8119 7.30939C18.2503 8.29166 17.5889 9.18315 16.6851 9.8456C15.3489 10.8248 14.1877 10.8256 12.8475 9.85889C12.7876 9.81559 12.7288 9.77039 12.6708 9.72443C11.5279 8.8204 10.7309 8.78052 9.49601 9.56565C9.4448 9.59794 9.39251 9.62871 9.34058 9.66023Z" fill="#414141"/>
</svg>
