<?xml version="1.0" encoding="utf-8"?>
<!-- Generator: Adobe Illustrator 27.4.0, SVG Export Plug-In . SVG Version: 6.00 Build 0)  -->
<svg version="1.1" id="Layer_1" xmlns="http://www.w3.org/2000/svg" xmlns:xlink="http://www.w3.org/1999/xlink" x="0px" y="0px"
	 viewBox="0 0 27 25" style="enable-background:new 0 0 27 25;" xml:space="preserve">
<path d="M11.1,6.4c-0.1,0.1-0.2,0.3-0.3,0.4c-0.1,0.2-0.1,0.3-0.1,0.5c0,0.2,0,0.3,0.1,0.5C10.9,8,11,8.1,11.1,8.3l2.5,2.5H1.4
	c-0.7,0-1.3,0.6-1.3,1.3s0.6,1.3,1.3,1.3h12.3L11.1,16c-0.1,0.1-0.2,0.3-0.3,0.4c-0.1,0.2-0.1,0.3-0.1,0.5c0,0.2,0,0.3,0.1,0.5
	c0.1,0.2,0.2,0.3,0.3,0.4c0.5,0.5,1.3,0.5,1.9,0l4.8-4.8c0.1-0.1,0.2-0.3,0.3-0.4c0.1-0.2,0.1-0.3,0.1-0.5c0-0.2,0-0.3-0.1-0.5
	c-0.1-0.2-0.2-0.3-0.3-0.4L13,6.4c-0.1-0.1-0.3-0.2-0.4-0.3C12.4,6,12.2,6,12,6s-0.3,0-0.5,0.1C11.4,6.2,11.2,6.3,11.1,6.4z
	 M24,21.5h-9.3c-0.7,0-1.3,0.6-1.3,1.3c0,0.7,0.6,1.3,1.3,1.3H24c1.5,0,2.7-1.2,2.7-2.7V2.8c0-1.5-1.2-2.7-2.7-2.7h-9.3
	c-0.7,0-1.3,0.6-1.3,1.3c0,0.7,0.6,1.3,1.3,1.3H24V21.5z"/>
</svg>
