<?xml version="1.0" encoding="utf-8"?>
<!-- Generator: Adobe Illustrator 27.4.0, SVG Export Plug-In . SVG Version: 6.00 Build 0)  -->
<svg version="1.1" id="Layer_1" xmlns="http://www.w3.org/2000/svg" xmlns:xlink="http://www.w3.org/1999/xlink" x="0px" y="0px"
	 viewBox="0 0 37 37" style="enable-background:new 0 0 37 37;" xml:space="preserve">
<path d="M15.5,17v-4.5l7.5,6l-7.5,6V20H2v-3H15.5z M4.2,23h3.2c1,2.6,3,4.7,5.4,6s5.3,1.8,8,1.2c2.7-0.5,5.2-2,7-4.1
	c1.8-2.1,2.7-4.8,2.7-7.6c0-2.8-1-5.5-2.7-7.6c-1.8-2.2-4.2-3.6-7-4.1c-2.7-0.5-5.6-0.1-8,1.2c-2.4,1.3-4.4,3.5-5.4,6.1H4.2
	C6.1,7.9,11.8,3.5,18.5,3.5c8.3,0,15,6.7,15,15s-6.7,15-15,15C11.8,33.5,6.1,29.1,4.2,23z"/>
</svg>
