<svg width="40" height="41" viewBox="0 0 40 41" fill="none" xmlns="http://www.w3.org/2000/svg">
<path d="M17.2316 27.3145C17.8958 26.5632 18.0252 25.6353 18.0314 24.6916C18.0502 21.7834 18.0414 18.8749 18.0348 15.9664C18.0323 14.9168 18.3521 14.0301 19.0974 13.3301C19.9356 12.543 20.7716 11.7531 21.6008 10.9556C23.3031 9.31798 25.6608 10.1155 26.1899 12.5081C26.5081 13.9469 26.2156 15.2782 25.5852 16.549C25.0164 17.6966 24.1988 18.6071 23.2165 19.3553C23.1672 19.3928 23.1197 19.4334 23.0415 19.4968C23.5728 19.5749 24.0672 19.6282 24.5539 19.7264C24.8817 19.7928 25.2073 19.8974 25.518 20.0291C27.1781 20.7341 28.0229 22.2561 27.9388 24.1881C27.8094 27.1603 26.3112 29.108 23.9463 30.3799C22.5659 31.1221 21.0898 31.5807 19.5162 31.4882C19.1859 31.4687 18.8305 31.4168 18.5383 31.2649C16.8344 30.3799 15.1552 30.5968 13.4741 31.3216C13.3869 31.3591 13.2988 31.3937 13.2107 31.4278C13.2032 31.4309 13.1916 31.4215 13.1516 31.4061C13.6641 30.6243 14.2511 29.931 14.9349 29.334C15.96 28.4392 17.1023 27.8388 18.4439 27.7429C19.4878 27.6685 20.4635 27.939 21.4023 28.4027C21.5148 28.4583 21.6252 28.519 21.7864 28.6035C21.7864 28.4328 21.7864 28.3041 21.7864 28.1754C21.7864 24.1961 21.7842 20.2165 21.7892 16.2373C21.7899 15.7689 21.8442 15.2939 21.3086 15.0525C21.558 14.7931 21.7655 14.5768 21.9658 14.368C22.1671 14.5832 22.3655 14.7951 22.5749 15.019C22.5762 15.0106 22.5799 15.0415 22.5687 15.0499C22.1636 15.3563 22.0961 15.7827 22.1136 16.2865C22.1455 17.2098 22.1227 18.135 22.1227 19.0593C22.1227 19.1793 22.1227 19.2993 22.1227 19.4193C22.1583 19.4401 22.1936 19.4609 22.2293 19.482C22.4659 19.1803 22.7378 18.9024 22.9318 18.5722C23.4763 17.6473 23.6081 16.5956 23.6553 15.5303C23.6919 14.7026 23.6135 13.8846 23.3525 13.1005C23.2622 12.8286 23.1387 12.5557 22.9765 12.3271C22.4571 11.5952 21.5323 11.6237 21.1145 12.4263C20.9092 12.8209 20.7866 13.3187 20.782 13.7716C20.752 16.6908 20.736 19.6114 20.7735 22.5303C20.7991 24.5109 19.8066 26.1904 17.992 27.0131C17.7439 27.1254 17.4854 27.2146 17.2316 27.3145ZM22.1568 20.1156C22.1421 20.1874 22.1261 20.2296 22.1261 20.2718C22.1246 23.0533 22.1224 25.8351 22.1258 28.6166C22.1261 28.936 22.464 29.1365 22.7249 28.9773C23.3431 28.6008 23.8141 28.0631 24.1616 27.4043C24.7698 26.2511 24.9586 24.9963 24.8892 23.6919C24.8423 22.8109 24.6123 21.9842 24.1079 21.2715C23.621 20.5843 22.9684 20.2068 22.1568 20.1156Z" fill="#C9CACF"/>
<path d="M17.5341 14.8514C17.3017 15.6118 17.2815 16.3799 17.2825 17.1526C17.2859 19.4253 17.2557 21.6987 17.2918 23.9708C17.3256 26.0866 16.328 27.4482 14.5508 28.295C14.3709 28.3807 14.1842 28.4503 13.9996 28.525C13.9835 28.5315 13.9608 28.5212 13.907 28.5144C14.5822 27.8744 14.6061 27.0392 14.6064 26.1973C14.607 25.1535 14.6064 24.1093 14.6064 23.0655C14.6064 22.9471 14.6064 22.829 14.6064 22.7164C13.9297 22.5872 13.5718 22.9458 13.0899 24.2494C12.6726 22.9681 12.3535 21.7444 12.8724 20.4731C13.1555 19.7793 13.6386 19.4664 14.6064 19.2937C14.6064 19.0374 14.6098 18.7704 14.6058 18.5035C14.5968 17.925 14.7639 17.4008 15.1209 16.9669C15.8116 16.1279 16.6462 15.46 17.5341 14.8514Z" fill="#C9CACF"/>
<path d="M12.0557 12.8125C12.6134 11.2807 13.2806 9.88365 14.9041 9.54122C15.4146 9.43338 15.8906 9.54367 16.3401 9.79577C16.677 9.98484 17.0217 10.1813 17.3117 10.4453C18.1769 11.2327 19.0772 11.2009 20.0209 10.6757C20.0957 10.634 20.1704 10.5923 20.2583 10.5433C20.2643 10.5874 20.2812 10.6256 20.2705 10.6455C19.7835 11.551 19.2098 12.3728 18.4259 12.9834C17.267 13.886 16.2598 13.8867 15.0974 12.9956C15.0454 12.9557 14.9945 12.9141 14.9441 12.8717C13.9528 12.0384 13.2615 12.0016 12.1905 12.7253C12.1461 12.7551 12.1007 12.7835 12.0557 12.8125Z" fill="#C9CACF"/>
<rect x="0.5" y="1" width="39" height="39" rx="19.5" stroke="#C9CACF"/>
</svg>
