<svg width="24" height="25" viewBox="0 0 24 25" fill="none" xmlns="http://www.w3.org/2000/svg">
<g id="Frame 923">
<path id="Star 1" d="M11.3562 3.62768C11.8454 2.63639 13.259 2.6364 13.7482 3.62768L15.7697 7.72355C15.9639 8.11719 16.3395 8.39003 16.7739 8.45316L21.2939 9.10996C22.3879 9.26892 22.8247 10.6133 22.0331 11.3849L18.7624 14.5731C18.448 14.8795 18.3046 15.3209 18.3788 15.7536L19.1509 20.2554C19.3378 21.3449 18.1942 22.1758 17.2157 21.6614L13.1729 19.5359C12.7843 19.3317 12.3201 19.3317 11.9316 19.5359L7.88872 21.6614C6.91026 22.1758 5.76668 21.3449 5.95355 20.2554L6.72566 15.7536C6.79987 15.3209 6.65643 14.8795 6.34209 14.5731L3.07134 11.3849C2.27975 10.6133 2.71656 9.26892 3.81051 9.10996L8.33057 8.45316C8.76498 8.39003 9.14051 8.11719 9.33479 7.72355L11.3562 3.62768Z" fill="#FDB043"/>
</g>
</svg>
