<?xml version="1.0" encoding="utf-8"?>
<!-- Generator: Adobe Illustrator 27.4.1, SVG Export Plug-In . SVG Version: 6.00 Build 0)  -->
<svg version="1.1" id="Layer_1" xmlns="http://www.w3.org/2000/svg" xmlns:xlink="http://www.w3.org/1999/xlink" x="0px" y="0px"
	 viewBox="0 0 27 17" style="enable-background:new 0 0 27 17;" xml:space="preserve">
<path d="M26.1,11.4c0,1.6-0.5,2.7-1.5,3.5c-1,0.8-2.6,1.1-4.7,1.1c-2.1,0-3.6-0.5-4.6-1.4s-1.4-2.4-1.4-4.5c0-2.1,0.6-3.9,1.9-5.5
	c1.3-1.6,3.1-3,5.5-4.4l5.2,0.8l-4.1,5.6c1.3,0.3,2.3,0.7,2.8,1.4C25.8,8.7,26.1,9.8,26.1,11.4z M13,11.4c0,1.6-0.5,2.7-1.5,3.5
	c-1,0.8-2.6,1.1-4.7,1.1c-2.1,0-3.6-0.5-4.6-1.4s-1.4-2.4-1.4-4.5c0-2.1,0.6-3.9,1.9-5.5c1.3-1.6,3.1-3,5.5-4.4l5.2,0.8L9.3,6.7
	c1.3,0.3,2.3,0.7,2.8,1.4C12.7,8.7,13,9.8,13,11.4z"/>
</svg>
