<svg width="25" height="25" viewBox="0 0 25 25" fill="none" xmlns="http://www.w3.org/2000/svg">
<g clip-path="url(#clip0_4504_21602)">
<path d="M22.397 2.7388C19.4649 -0.189945 14.8187 -0.297758 10.5713 3.9449C6.88648 7.62552 7.71289 6.80052 6.5518 7.96021C3.71773 10.791 3.25227 15.0304 3.56867 17.8588L11.933 9.50334C12.2265 9.21037 12.7018 9.21037 12.9948 9.50334C13.2877 9.7963 13.2877 10.2711 12.9948 10.5641L0.829766 22.7165C0.390078 23.1557 0.390078 23.8682 0.829766 24.3074C1.26945 24.7466 1.98289 24.7466 2.42258 24.3074L5.52102 21.2122C7.97258 21.9486 13.5779 22.064 17.0912 18.6369H12.4885L19.4059 16.3335C21.7491 13.993 21.1112 14.6376 21.5766 14.1369H16.9932L23.1591 12.0838C25.2891 8.59349 24.7674 5.10693 22.397 2.7388Z" fill="#222222"/>
</g>
<defs>
<clipPath id="clip0_4504_21602">
<rect width="24" height="24" fill="white" transform="translate(0.5 0.636719)"/>
</clipPath>
</defs>
</svg>
