<?xml version="1.0" encoding="UTF-8"?><svg id="Layer_1" xmlns="http://www.w3.org/2000/svg" viewBox="0 0 34 34"><defs><style>.cls-1{fill:none;}</style></defs><circle class="cls-1" cx="17" cy="17" r="17"/><path d="m15.71,18.29c.38.36.38.94,0,1.3-.36.36-.94.36-1.3,0-.86-.86-1.34-2.02-1.34-3.23s.48-2.38,1.34-3.23l3.24-3.24c.86-.86,2.02-1.34,3.23-1.34s2.38.48,3.23,1.34c.86.86,1.34,2.02,1.34,3.23s-.48,2.38-1.34,3.23l-1.36,1.36c0-.75-.11-1.5-.37-2.21l.43-.44c.26-.25.46-.56.6-.89.14-.33.21-.69.21-1.05s-.07-.72-.21-1.05c-.14-.33-.34-.63-.6-.89-.25-.26-.56-.46-.89-.6-.33-.14-.69-.21-1.05-.21s-.72.07-1.05.21c-.33.14-.63.34-.89.6l-3.23,3.23c-.26.25-.46.56-.6.89s-.21.69-.21,1.05.07.72.21,1.05c.14.33.34.63.6.89Zm2.58-3.88c.36-.36.94-.36,1.3,0,.86.86,1.34,2.02,1.34,3.23s-.48,2.38-1.34,3.23l-3.24,3.24c-.86.86-2.02,1.34-3.23,1.34s-2.38-.48-3.23-1.34c-.86-.86-1.34-2.02-1.34-3.23s.48-2.38,1.34-3.23l1.36-1.36c0,.75.11,1.5.37,2.22l-.43.43c-.26.25-.46.56-.6.89-.14.33-.21.69-.21,1.05s.07.72.21,1.05c.14.33.34.63.6.89.25.26.56.46.89.6.33.14.69.21,1.05.21s.72-.07,1.05-.21c.33-.14.63-.34.89-.6l3.23-3.23c.26-.25.46-.56.6-.89.14-.33.21-.69.21-1.05s-.07-.72-.21-1.05c-.14-.33-.34-.63-.6-.89-.09-.08-.16-.18-.21-.3-.05-.11-.07-.23-.07-.35s.02-.24.07-.35c.05-.11.12-.21.21-.3Z"/></svg>