<?xml version="1.0" encoding="utf-8"?>
<!-- Generator: Adobe Illustrator 27.4.1, SVG Export Plug-In . SVG Version: 6.00 Build 0)  -->
<svg version="1.1" id="Layer_1" xmlns="http://www.w3.org/2000/svg" xmlns:xlink="http://www.w3.org/1999/xlink" x="0px" y="0px"
	 viewBox="0 0 26 27" style="enable-background:new 0 0 26 27;" xml:space="preserve">
<path d="M21.2,23.2l-6.8-6.8c-0.5,0.4-1.2,0.8-1.9,1c-0.7,0.3-1.5,0.4-2.2,0.4c-2,0-3.6-0.7-5-2c-1.4-1.4-2-3-2-5c0-2,0.7-3.6,2-5
	c1.4-1.4,3-2,5-2c2,0,3.6,0.7,5,2c1.4,1.4,2,3,2,5c0,0.8-0.1,1.5-0.4,2.2c-0.3,0.7-0.6,1.3-1,1.9l6.8,6.8L21.2,23.2z M10.3,15.7
	c1.4,0,2.5-0.5,3.5-1.4c0.9-0.9,1.4-2.1,1.4-3.5c0-1.4-0.5-2.5-1.4-3.5c-0.9-0.9-2.1-1.4-3.5-1.4c-1.4,0-2.5,0.5-3.5,1.4
	c-0.9,0.9-1.4,2.1-1.4,3.5c0,1.4,0.5,2.5,1.4,3.5C7.8,15.2,8.9,15.7,10.3,15.7z"/>
</svg>
