<?xml version="1.0" encoding="utf-8"?>
<!-- Generator: Adobe Illustrator 27.4.1, SVG Export Plug-In . SVG Version: 6.00 Build 0)  -->
<svg version="1.1" id="Layer_1" xmlns="http://www.w3.org/2000/svg" xmlns:xlink="http://www.w3.org/1999/xlink" x="0px" y="0px"
	 viewBox="0 0 18 19" style="enable-background:new 0 0 18 19;" xml:space="preserve">
<path d="M9,3.5c0.8,0,1.6,0.3,2.1,0.9S12,5.7,12,6.5S11.7,8,11.1,8.6C10.6,9.1,9.8,9.5,9,9.5S7.4,9.1,6.9,8.6C6.3,8,6,7.2,6,6.5
	s0.3-1.6,0.9-2.1S8.2,3.5,9,3.5z M9,5C8.6,5,8.2,5.1,7.9,5.4S7.5,6.1,7.5,6.5s0.2,0.8,0.4,1.1S8.6,8,9,8s0.8-0.2,1.1-0.4
	c0.3-0.3,0.4-0.7,0.4-1.1s-0.2-0.8-0.4-1.1C9.8,5.1,9.4,5,9,5z M9,10.2c2,0,6,1,6,3v2.2H3v-2.2C3,11.2,7,10.2,9,10.2z M9,11.6
	c-2.2,0-4.6,1.1-4.6,1.6V14h9.1v-0.8C13.6,12.7,11.2,11.6,9,11.6z"/>
</svg>
