<?xml version="1.0" encoding="utf-8"?>
<!-- Generator: Adobe Illustrator 27.4.1, SVG Export Plug-In . SVG Version: 6.00 Build 0)  -->
<svg version="1.1" id="Layer_1" xmlns="http://www.w3.org/2000/svg" xmlns:xlink="http://www.w3.org/1999/xlink" x="0px" y="0px"
	 viewBox="0 0 18 19" style="enable-background:new 0 0 18 19;" xml:space="preserve">
<path d="M17.6,9.1c-0.5-1-1.2-2-2-2.8C13.8,4.5,11.5,3.5,9,3.5s-4.8,1-6.6,2.8c-0.8,0.8-1.5,1.8-2,2.8c0,0.1-0.1,0.2-0.1,0.3
	s0,0.2,0.1,0.3c0.5,1,1.2,2,2,2.8c1.8,1.8,4.1,2.8,6.6,2.8s4.8-1,6.6-2.8c0.8-0.8,1.5-1.8,2-2.8c0-0.1,0.1-0.2,0.1-0.3
	S17.7,9.2,17.6,9.1z M14.4,11.4c-1.5,1.5-3.3,2.2-5.4,2.2s-3.9-0.8-5.4-2.2c-0.6-0.6-1.1-1.3-1.5-2c0.4-0.7,0.9-1.4,1.5-2
	C5.1,6,6.9,5.2,9,5.2s3.9,0.8,5.4,2.2c0.6,0.6,1.1,1.3,1.5,2C15.5,10.2,15,10.8,14.4,11.4z M9,6.4c-0.6,0-1.2,0.2-1.7,0.5
	C6.8,7.2,6.4,7.7,6.1,8.3C5.9,8.8,5.8,9.5,6,10.1c0.1,0.6,0.4,1.2,0.8,1.6c0.4,0.4,1,0.7,1.6,0.8c0.6,0.1,1.2,0.1,1.8-0.2
	c0.6-0.2,1-0.6,1.4-1.1c0.3-0.5,0.5-1.1,0.5-1.7c0-0.8-0.3-1.6-0.9-2.2S9.8,6.4,9,6.4z M9,10.9c-0.3,0-0.6-0.1-0.8-0.2
	C8,10.5,7.8,10.2,7.7,10C7.6,9.7,7.6,9.4,7.6,9.2C7.7,8.9,7.8,8.7,8,8.5c0.2-0.2,0.4-0.3,0.7-0.4C9,8,9.3,8,9.5,8.2
	c0.3,0.1,0.5,0.3,0.6,0.5s0.2,0.5,0.2,0.8c0,0.4-0.2,0.7-0.4,1C9.7,10.7,9.4,10.9,9,10.9z"/>
</svg>
