<?xml version="1.0" encoding="UTF-8"?><svg id="Layer_1" xmlns="http://www.w3.org/2000/svg" viewBox="0 0 34 34"><defs><style>.cls-1{fill:none;}</style></defs><circle class="cls-1" cx="17" cy="17" r="17"/><path d="m26.89,10.86c-.73.33-1.51.55-2.33.65.83-.5,1.47-1.3,1.78-2.25-.78.47-1.65.8-2.57.99-.75-.81-1.8-1.29-2.99-1.29-2.22,0-4.04,1.81-4.04,4.06,0,.32.04.63.1.93-3.37-.17-6.36-1.79-8.36-4.24-.35.6-.55,1.3-.55,2.03,0,1.41.71,2.66,1.81,3.37-.67,0-1.3-.19-1.84-.47v.03c0,1.97,1.4,3.61,3.25,3.98-.59.16-1.22.19-1.82.07.26.81.76,1.51,1.44,2.02.68.51,1.5.79,2.34.8-1.43,1.13-3.21,1.75-5.04,1.74-.32,0-.64-.02-.96-.06,1.8,1.15,3.93,1.82,6.22,1.82,7.45,0,11.54-6.18,11.54-11.54,0-.18,0-.35,0-.53.79-.57,1.47-1.29,2.02-2.11Z"/></svg>