<svg width="29" height="29" viewBox="0 0 29 29" fill="none" xmlns="http://www.w3.org/2000/svg">
<g id="solar:bill-list-bold">
<path id="Vector" fill-rule="evenodd" clip-rule="evenodd" d="M8.9525 2.9707H20.0475C21.3997 2.9707 22.0752 2.9707 22.6212 3.16087C23.136 3.34332 23.6018 3.64202 23.9824 4.03375C24.363 4.42548 24.6481 4.89969 24.8157 5.41954C25 5.98187 25 6.6772 25 8.06904V24.407C25 25.408 23.8508 25.94 23.124 25.275C22.9201 25.0866 22.6526 24.982 22.375 24.982C22.0974 24.982 21.8299 25.0866 21.626 25.275L21.0625 25.7907C20.7053 26.1211 20.2366 26.3045 19.75 26.3045C19.2634 26.3045 18.7947 26.1211 18.4375 25.7907C18.0803 25.4603 17.6116 25.2769 17.125 25.2769C16.6384 25.2769 16.1697 25.4603 15.8125 25.7907C15.4553 26.1211 14.9866 26.3045 14.5 26.3045C14.0134 26.3045 13.5447 26.1211 13.1875 25.7907C12.8303 25.4603 12.3616 25.2769 11.875 25.2769C11.3884 25.2769 10.9197 25.4603 10.5625 25.7907C10.2053 26.1211 9.73658 26.3045 9.25 26.3045C8.76342 26.3045 8.29474 26.1211 7.9375 25.7907L7.374 25.275C7.17008 25.0866 6.90264 24.982 6.625 24.982C6.34736 24.982 6.07992 25.0866 5.876 25.275C5.14917 25.94 4 25.408 4 24.407V8.06904C4 6.6772 4 5.9807 4.18433 5.4207C4.53433 4.35554 5.34517 3.5202 6.37883 3.16087C6.92483 2.9707 7.60033 2.9707 8.9525 2.9707ZM8.66667 8.51237C8.4346 8.51237 8.21204 8.60456 8.04795 8.76865C7.88385 8.93275 7.79167 9.15531 7.79167 9.38737C7.79167 9.61943 7.88385 9.84199 8.04795 10.0061C8.21204 10.1702 8.4346 10.2624 8.66667 10.2624H9.25C9.48206 10.2624 9.70462 10.1702 9.86872 10.0061C10.0328 9.84199 10.125 9.61943 10.125 9.38737C10.125 9.15531 10.0328 8.93275 9.86872 8.76865C9.70462 8.60456 9.48206 8.51237 9.25 8.51237H8.66667ZM12.75 8.51237C12.5179 8.51237 12.2954 8.60456 12.1313 8.76865C11.9672 8.93275 11.875 9.15531 11.875 9.38737C11.875 9.61943 11.9672 9.84199 12.1313 10.0061C12.2954 10.1702 12.5179 10.2624 12.75 10.2624H20.3333C20.5654 10.2624 20.788 10.1702 20.9521 10.0061C21.1161 9.84199 21.2083 9.61943 21.2083 9.38737C21.2083 9.15531 21.1161 8.93275 20.9521 8.76865C20.788 8.60456 20.5654 8.51237 20.3333 8.51237H12.75ZM8.66667 12.5957C8.4346 12.5957 8.21204 12.6879 8.04795 12.852C7.88385 13.0161 7.79167 13.2386 7.79167 13.4707C7.79167 13.7028 7.88385 13.9253 8.04795 14.0894C8.21204 14.2535 8.4346 14.3457 8.66667 14.3457H9.25C9.48206 14.3457 9.70462 14.2535 9.86872 14.0894C10.0328 13.9253 10.125 13.7028 10.125 13.4707C10.125 13.2386 10.0328 13.0161 9.86872 12.852C9.70462 12.6879 9.48206 12.5957 9.25 12.5957H8.66667ZM12.75 12.5957C12.5179 12.5957 12.2954 12.6879 12.1313 12.852C11.9672 13.0161 11.875 13.2386 11.875 13.4707C11.875 13.7028 11.9672 13.9253 12.1313 14.0894C12.2954 14.2535 12.5179 14.3457 12.75 14.3457H20.3333C20.5654 14.3457 20.788 14.2535 20.9521 14.0894C21.1161 13.9253 21.2083 13.7028 21.2083 13.4707C21.2083 13.2386 21.1161 13.0161 20.9521 12.852C20.788 12.6879 20.5654 12.5957 20.3333 12.5957H12.75ZM8.66667 16.679C8.4346 16.679 8.21204 16.7712 8.04795 16.9353C7.88385 17.0994 7.79167 17.322 7.79167 17.554C7.79167 17.7861 7.88385 18.0087 8.04795 18.1728C8.21204 18.3368 8.4346 18.429 8.66667 18.429H9.25C9.48206 18.429 9.70462 18.3368 9.86872 18.1728C10.0328 18.0087 10.125 17.7861 10.125 17.554C10.125 17.322 10.0328 17.0994 9.86872 16.9353C9.70462 16.7712 9.48206 16.679 9.25 16.679H8.66667ZM12.75 16.679C12.5179 16.679 12.2954 16.7712 12.1313 16.9353C11.9672 17.0994 11.875 17.322 11.875 17.554C11.875 17.7861 11.9672 18.0087 12.1313 18.1728C12.2954 18.3368 12.5179 18.429 12.75 18.429H20.3333C20.5654 18.429 20.788 18.3368 20.9521 18.1728C21.1161 18.0087 21.2083 17.7861 21.2083 17.554C21.2083 17.322 21.1161 17.0994 20.9521 16.9353C20.788 16.7712 20.5654 16.679 20.3333 16.679H12.75Z" fill="#222222"/>
</g>
</svg>
