<svg width="25" height="25" viewBox="0 0 25 25" fill="none" xmlns="http://www.w3.org/2000/svg">
<g id="icomoon-free:pie-chart" clip-path="url(#clip0_4504_21549)">
<path id="Vector" d="M10.9999 14.1367V3.63672C8.71551 3.63713 6.49354 4.38255 4.67104 5.7599C2.84854 7.13726 1.52495 9.07141 0.901035 11.269C0.277118 13.4666 0.386912 15.8077 1.21376 17.9372C2.04062 20.0667 3.53941 21.8685 5.48282 23.0693C7.42623 24.27 9.70822 24.8042 11.9827 24.5908C14.2571 24.3774 16.3999 23.4281 18.086 21.8868C19.7722 20.3455 20.9097 18.2964 21.326 16.0502C21.7423 13.8041 21.4147 11.4834 20.3929 9.44022L10.9999 14.1367ZM21.8929 6.44022C21.0208 4.69591 19.68 3.229 18.021 2.20394C16.3619 1.17888 14.4501 0.636195 12.4999 0.636719V11.1367L21.8929 6.44022Z" fill="black"/>
</g>
<defs>
<clipPath id="clip0_4504_21549">
<rect width="24" height="24" fill="white" transform="translate(0.5 0.636719)"/>
</clipPath>
</defs>
</svg>
