<svg id="Layer_1" data-name="Layer 1" xmlns="http://www.w3.org/2000/svg" viewBox="0 0 162.88 42"><defs><style>.cls-1,.cls-2{fill:#0066b2;}.cls-2,.cls-4{fill-rule:evenodd;}.cls-3,.cls-4{fill:#db1f26;}</style></defs><title>tribun jatim</title><path class="cls-1" d="M27.42,13.58h-.89v-.8l5-.38v3.25c.66-2.08,1.56-3.12,2.71-3.12h.21c.78,0,1.36.52,1.73,1.57a6.81,6.81,0,0,1,.4,2.43,5.2,5.2,0,0,1-.4,2.07,1.75,1.75,0,0,1-1.6,1.25c-1.31-.24-2-1.45-2-3.65l.14-1.45a.69.69,0,0,0-.11-.12l-.07-.07c-.25,0-.49.65-.71,1.94a18.18,18.18,0,0,0-.14,2.69v8.08h1.23V28H26.53v-.75h.89Z"/><path class="cls-1" d="M38,13.6h-.89v-.82c.81,0,1.76,0,2.85-.16l2.3-.22V27.27h1V28H37.11v-.75H38Zm-.18-5.8c0-1.95.78-2.92,2.34-2.92S42.4,5.93,42.4,8A4.58,4.58,0,0,1,42,10.11a1.85,1.85,0,0,1-1.74,1.13c-1.63,0-2.44-1-2.44-3.14Z"/><path class="cls-1" d="M48.66,14.69c.7-1.55,1.5-2.32,2.42-2.32a1.48,1.48,0,0,1,.36,0q1.77.22,2.64,3.36a17.22,17.22,0,0,1,.59,4.54q0,5.86-2.18,7.66a2.17,2.17,0,0,1-.6.37,2.45,2.45,0,0,1-.9.16c-1.23,0-2.07-1-2.53-3v3c-.77-.12-1.92-.27-3.47-.44-.42,0-.86,0-1.34,0v-.75h.92V6.45h-.92V5.73a37.53,37.53,0,0,0,5-.53Zm1.6,2c0-1.57-.21-2.35-.64-2.35-.64,0-1,1-1,3.14V23.2c0,2.25.31,3.38.92,3.38q.53,0,.63-1.59c0-.47,0-1.09,0-1.86Z"/><path class="cls-1" d="M56.19,13.6h-.86v-.82a48,48,0,0,0,5.06-.38V24.51a3.85,3.85,0,0,0,.16,1.54.46.46,0,0,0,.48.26c.35,0,.61-.34.78-1A9,9,0,0,0,62.06,23V13.6h-.94v-.82c.57,0,1.41,0,2.53-.16s2-.16,2.53-.16V27.27h1V28a21.77,21.77,0,0,0-2.64.16l-2.31.31v-3q-1.22,3-3.15,3a1.59,1.59,0,0,1-.44,0,2.22,2.22,0,0,1-1.87-1.75,13.17,13.17,0,0,1-.56-4.17Z"/><path class="cls-1" d="M68.66,27.27V13.6H67.8v-.82c.48,0,1.06,0,1.73-.09,1.55-.15,2.66-.23,3.33-.23v3c.72-2,1.71-3,3-3a4.43,4.43,0,0,1,.6,0,3.26,3.26,0,0,1,.61.26c1.06.55,1.6,2.37,1.6,5.44v9.14h.93V28H73.94v-.75h.59V16.53c0-1.23-.2-1.84-.59-1.84h-.07c-.31,0-.55.29-.71.86a7.55,7.55,0,0,0-.3,2v9.7h.64V28H67.8v-.75Z"/><path class="cls-2" d="M34.6,3.57c.12.06.31.06.43.12-.44,5.54-3.87,8.3-10.14,7.88V36.14c4.5-1,7.32-4,9.43-7.47l.53.22C33.48,34.62,30.39,39,25,40.76a20.13,20.13,0,0,1-9.63.39A17.21,17.21,0,0,1,8,37.7,14.51,14.51,0,0,1,2.59,26.89,17,17,0,0,1,3,22a17.77,17.77,0,0,1,3.61-7.24,29.23,29.23,0,0,1,5.63-5.2,12,12,0,0,0-7.42.67A10.77,10.77,0,0,0,.9,13.87c-.12.18-.34.57-.47.6s-.3,0-.43,0A11.62,11.62,0,0,1,4.53,6.31C7,4.56,10.46,3.6,14.71,3.88c4.83.32,8.88,1.79,13.41,2.45a9.85,9.85,0,0,0,2.91.1c1.83-.28,2.71-1.44,3.53-2.8C34.57,3.61,34.57,3.57,34.6,3.57ZM8.22,20.87c-.47,5.64,1.5,9.48,4.39,12a5.06,5.06,0,0,0,1.33-1.75,6.66,6.66,0,0,0,.42-2.68V9.84a4.52,4.52,0,0,1-.67-.09A16.88,16.88,0,0,0,8.22,20.87ZM20,10.83v7.25a42.53,42.53,0,0,1-.24,7.05c-.74,4.13-3.38,6.33-5.94,8.6,2.15,1.9,5.51,3,9.7,2.65V11.49c-1.17-.23-2.32-.48-3.51-.7C20,10.76,20,10.79,20,10.83Z"/><path class="cls-1" d="M84.76,7.17H83.12V6.32h8v.85H90V20.82A14.64,14.64,0,0,1,89.17,26c-.8,2.11-2.1,3.16-3.92,3.16a4.16,4.16,0,0,1-3-1.15,5.81,5.81,0,0,1-1.56-4.41,7.33,7.33,0,0,1,.43-2.65q.42-1,1.23-1.05A1.64,1.64,0,0,1,83.91,21a4,4,0,0,1,.42,1.86v.36a4.11,4.11,0,0,1-.45,2,3.12,3.12,0,0,1-.87.91c-.3.22-.45.35-.45.4v.23a.75.75,0,0,0,.68.85c.75-.11,1.32-.75,1.71-1.91a8.34,8.34,0,0,0,.42-2.64,7.66,7.66,0,0,0-.61-3.1Z"/><path class="cls-1" d="M101.59,17.22V26c0,.5.11.79.33.85s.45-.37.66-.91V27a2.92,2.92,0,0,1-2.79,2.06,1.73,1.73,0,0,1-1.26-.54,3.47,3.47,0,0,1-.84-1.64,3.51,3.51,0,0,1-3.16,2.24A2.56,2.56,0,0,1,91.94,27a7,7,0,0,1-.29-1.82c0-2.15.63-3.63,1.87-4.44A6.16,6.16,0,0,1,96.89,20h.64V16c0-.74,0-1.19,0-1.35a.89.89,0,0,0-1-.79.57.57,0,0,0-.63.41c0,.06.15.29.35.68a1.69,1.69,0,0,1,.21.69l.07.89a2,2,0,0,1-.78,2,11.21,11.21,0,0,1-1.39.53,1.82,1.82,0,0,1-1.42-.58A2,2,0,0,1,92.4,17l-.07-.62c0-2.26,1.57-3.38,4.72-3.38a12,12,0,0,1,2,.28,6.24,6.24,0,0,1,1.32.63A4,4,0,0,1,101.59,17.22Zm-4.06,7.26V20.76h-.66c-.56,0-.85.83-.85,2.5V25c0,1.43.2,2.19.59,2.27l.19-.06C97.29,27.17,97.53,26.27,97.53,24.48Z"/><path class="cls-1" d="M102.89,14.17v-.78c2,0,3.67-1.9,4.91-5.69h.35v5.69h2v.78h-2V25.52c0,1.1.15,1.65.47,1.65h.07c.83-.18,1.24-1.49,1.24-3.91h.39a8.78,8.78,0,0,1-.75,4A3.07,3.07,0,0,1,107.4,29a3,3,0,0,1-.52.07h-.43a1.91,1.91,0,0,1-1.77-.74,3.52,3.52,0,0,1-.57-1.7,17.5,17.5,0,0,1-.2-2.56V14.17Z"/><path class="cls-1" d="M111.67,14.19h-.89v-.82c.81,0,1.76,0,2.85-.16l2.31-.22V27.86h1v.75h-6.11v-.75h.89Zm-.18-5.8c0-1.95.79-2.92,2.35-2.92s2.23,1,2.23,3.16a4.51,4.51,0,0,1-.43,2.06,1.84,1.84,0,0,1-1.73,1.14c-1.63,0-2.45-1-2.45-3.14Z"/><path class="cls-1" d="M122.16,13V16.3Q123.42,13,125.08,13h.2c1.32,0,2.1,1.06,2.35,3.18Q128.77,13,130.68,13a2.41,2.41,0,0,1,1.32.38,3.38,3.38,0,0,1,1,1.91,17.92,17.92,0,0,1,.28,3.57v9h.92v.75h-5.43v-.75h.48V17.28c0-1.29-.16-1.94-.48-1.94h-.08c-.26,0-.48.48-.64,1.44a10.9,10.9,0,0,0-.17,1.72v9.36h.49v.75h-5.07v-.75h.56V17.09a6.86,6.86,0,0,0-.09-1.44.44.44,0,0,0-.47-.31h-.07q-.3,0-.54.75a7,7,0,0,0-.29,2.07v9.7h.47v.75h-5.4v-.75h.91V14.17h-.91v-.8A41.21,41.21,0,0,0,122.16,13Z"/><path class="cls-3" d="M142.26,29.16a2.72,2.72,0,0,1-1.28-.3,2.76,2.76,0,0,1-1-.93,4.67,4.67,0,0,1-.65-1.56,9,9,0,0,1-.23-2.21,8.69,8.69,0,0,1,.24-2.18,5.4,5.4,0,0,1,.64-1.55,2.75,2.75,0,0,1,1-1,2.54,2.54,0,0,1,1.29-.34,2.63,2.63,0,0,1,1.07.22,4.59,4.59,0,0,1,.93.52v1.81h-.07c-.08-.1-.19-.21-.31-.34a4.05,4.05,0,0,0-.47-.38,2.06,2.06,0,0,0-.55-.3,1.61,1.61,0,0,0-.62-.13,1.58,1.58,0,0,0-1.42.95,5.48,5.48,0,0,0-.54,2.68,5.51,5.51,0,0,0,.52,2.65,1.57,1.57,0,0,0,1.44,1,2,2,0,0,0,1.06-.32,3.57,3.57,0,0,0,.89-.85h.07v1.82l-.43.27a2.81,2.81,0,0,1-.46.23,4.27,4.27,0,0,1-.52.19A2.38,2.38,0,0,1,142.26,29.16Z"/><path class="cls-3" d="M150.86,24.15A7.1,7.1,0,0,1,150,27.9a2.51,2.51,0,0,1-2.2,1.31,2.48,2.48,0,0,1-2.22-1.36,7.23,7.23,0,0,1-.81-3.7,7,7,0,0,1,.84-3.73,2.47,2.47,0,0,1,4.39,0A7.11,7.11,0,0,1,150.86,24.15Zm-1.17,0a6.17,6.17,0,0,0-.48-2.77,1.49,1.49,0,0,0-2.74,0,6.17,6.17,0,0,0-.48,2.77,6.14,6.14,0,0,0,.48,2.74,1.5,1.5,0,0,0,1.37.93,1.48,1.48,0,0,0,1.36-.91A6,6,0,0,0,149.69,24.15Z"/><path class="cls-3" d="M159.72,29V23.4c0-.44,0-.85,0-1.23a3.06,3.06,0,0,0-.15-.88,1,1,0,0,0-.35-.5,1,1,0,0,0-.6-.17,1.25,1.25,0,0,0-.76.31,4.47,4.47,0,0,0-.83.88c0,.1,0,.21,0,.35s0,.29,0,.47V29h-1.15V23.4q0-.66,0-1.23a4,4,0,0,0-.15-.88,1,1,0,0,0-.35-.5,1,1,0,0,0-.6-.17A1.25,1.25,0,0,0,154,21a4.87,4.87,0,0,0-.79.83V29H152v-9.6h1.14v1.07a4.67,4.67,0,0,1,.89-1,1.52,1.52,0,0,1,1-.35,1.6,1.6,0,0,1,1.06.39,2.51,2.51,0,0,1,.71,1.27,5.61,5.61,0,0,1,1-1.23,1.57,1.57,0,0,1,1.07-.43,1.63,1.63,0,0,1,.79.2,1.69,1.69,0,0,1,.63.62,3.65,3.65,0,0,1,.42,1.09,7.51,7.51,0,0,1,.15,1.64V29Z"/><path class="cls-4" d="M136.47,25.43c1.94-.36,2.1,3.21.55,3.62-1,.26-1.61-.71-1.69-1.51a2.28,2.28,0,0,1,.56-1.82A1.08,1.08,0,0,1,136.47,25.43Z"/></svg>