<?xml version="1.0" encoding="utf-8"?>
<!-- Generator: Adobe Illustrator 22.0.1, SVG Export Plug-In . SVG Version: 6.00 Build 0)  -->
<svg version="1.1" id="Layer_1" xmlns="http://www.w3.org/2000/svg" xmlns:xlink="http://www.w3.org/1999/xlink" x="0px" y="0px"
	 viewBox="0 0 150.6 42" style="enable-background:new 0 0 150.6 42;" xml:space="preserve">
<style type="text/css">
	.st0{fill:#0066B2;}
	.st1{fill:#DB1F26;}
</style>
<title>tribun jabar</title>
<path class="st0" d="M88.2,3.4h-1.7v-1h8.4v1h-1.2v15.4c0.1,2-0.2,3.9-0.8,5.8c-0.8,2.4-2.2,3.6-4.1,3.6c-1.2,0-2.3-0.5-3.1-1.3
	c-1.2-1.4-1.8-3.2-1.6-5c0-1,0.1-2,0.5-3c0.3-0.8,0.7-1.2,1.3-1.2c0.7,0,1.4,0.6,1.6,1.3c0.3,0.7,0.4,1.4,0.4,2.1v0.4
	c0,0.8-0.1,1.6-0.5,2.3c-0.2,0.4-0.5,0.7-0.9,1c-0.3,0.2-0.5,0.4-0.5,0.5v0.3c0,0.6,0.2,0.9,0.7,1c0.8-0.1,1.4-0.8,1.8-2.1
	c0.3-1,0.4-2,0.4-3c0-1.2-0.2-2.4-0.6-3.5V3.4z"/>
<path class="st0" d="M105.8,14.8v9.9c0,0.6,0.1,0.9,0.3,1s0.5-0.4,0.7-1v1.3c-0.3,1.3-1.5,2.3-2.9,2.3c-0.5,0-1-0.2-1.3-0.6
	c-0.4-0.5-0.7-1.2-0.9-1.9c-0.8,1.7-1.9,2.5-3.3,2.5s-2.3-0.8-2.7-2.4c-0.2-0.7-0.3-1.4-0.3-2.1c0-2.4,0.7-4.1,2-5
	c1.1-0.6,2.3-0.9,3.5-0.9h0.7v-4.6c0-0.8,0-1.3,0-1.5c-0.1-0.5-0.5-0.9-1-0.9c-0.3,0-0.6,0.2-0.7,0.4c0,0.1,0.2,0.3,0.4,0.8
	c0.1,0.2,0.2,0.5,0.2,0.8l0.1,1c0.1,0.8-0.2,1.7-0.8,2.2c-0.5,0.2-0.9,0.4-1.4,0.6c-0.6,0-1.1-0.2-1.5-0.6c-0.4-0.5-0.6-1-0.5-1.6
	l-0.1-0.7c-0.1-2.5,1.5-3.8,4.8-3.8c0.7,0,1.4,0.1,2.1,0.3c0.5,0.2,0.9,0.4,1.4,0.7C105.4,12,105.9,13.4,105.8,14.8z M101.5,22.9
	v-4.2h-0.7c-0.6,0-0.9,0.9-0.9,2.8v1.9c0,1.6,0.2,2.5,0.6,2.6l0.2-0.1C101.3,26,101.5,25,101.5,22.9z"/>
<path class="st0" d="M112.4,12.6c0.7-1.8,1.6-2.6,2.5-2.6c0.1,0,0.3,0,0.4,0c1.2,0.2,2.2,1.4,2.8,3.8c0.4,1.7,0.6,3.4,0.6,5.1
	c0,4.4-0.8,7.3-2.3,8.6c-0.2,0.2-0.4,0.3-0.6,0.4c-0.3,0.1-0.6,0.2-0.9,0.2c-1.3,0-2.2-1.1-2.6-3.3v3.3c-0.8-0.1-2-0.3-3.6-0.5
	c-0.4,0-0.9,0-1.4,0v-0.9h1V3.3h-1V2.5c1.8-0.1,3.5-0.3,5.2-0.6V12.6z M114.1,14.8c0-1.8-0.2-2.6-0.7-2.6c-0.7,0-1,1.2-1,3.5v6.4
	c0,2.5,0.3,3.8,1,3.8c0.4,0,0.6-0.6,0.7-1.8c0-0.5,0-1.2,0-2.1L114.1,14.8z"/>
<path class="st0" d="M129.8,14.8v9.9c0,0.6,0.1,0.9,0.4,1s0.5-0.4,0.7-1v1.3c-0.3,1.3-1.5,2.3-2.9,2.3c-0.5,0-1-0.2-1.3-0.6
	c-0.4-0.5-0.7-1.2-0.9-1.9c-0.8,1.7-1.9,2.5-3.3,2.5s-2.3-0.8-2.7-2.4c-0.2-0.7-0.3-1.4-0.3-2.1c0-2.4,0.6-4.1,1.9-5
	c1.1-0.6,2.3-0.9,3.5-0.9h0.7v-4.6c0-0.8,0-1.3,0-1.5c-0.1-0.5-0.5-0.9-1.1-0.9c-0.3,0-0.6,0.2-0.7,0.4c0,0.1,0.2,0.3,0.4,0.8
	c0.1,0.2,0.2,0.5,0.2,0.8l0.1,1c0.1,0.8-0.2,1.7-0.8,2.2c-0.5,0.2-1,0.4-1.4,0.6c-0.6,0-1.1-0.2-1.5-0.6c-0.4-0.5-0.6-1-0.5-1.6
	l-0.1-0.7c0-2.5,1.6-3.8,4.9-3.8c0.7,0,1.4,0.2,2.1,0.3c0.5,0.2,0.9,0.4,1.4,0.7C129.3,11.7,129.8,13,129.8,14.8z M125.5,22.9v-4.2
	h-0.7c-0.6,0-0.9,0.9-0.9,2.8v1.9c0,1.6,0.2,2.5,0.6,2.6l0.2-0.1C125.3,26,125.5,25,125.5,22.9z"/>
<path class="st0" d="M132.3,11.3h-0.9v-0.9l5.2-0.4v3.7c0.7-2.4,1.6-3.5,2.8-3.5h0.2c0.8,0,1.4,0.6,1.8,1.8c0.3,0.9,0.4,1.8,0.4,2.7
	c0,0.8-0.1,1.6-0.4,2.3c-0.4,0.9-0.9,1.4-1.7,1.4c-1.4-0.3-2.1-1.6-2.1-4.1l0.1-1.6c0-0.1-0.1-0.1-0.1-0.1l-0.1-0.1
	c-0.3,0-0.5,0.7-0.7,2.2c-0.1,1-0.2,2-0.1,3v9.1h1.3v0.9h-6.6v-0.9h0.9L132.3,11.3z"/>
<path class="st1" d="M140.1,23.9c1.6-0.3,1.7,2.6,0.4,2.9c-0.8,0.2-1.3-0.6-1.4-1.2c-0.1-0.5,0.1-1.1,0.4-1.5
	C139.7,24,139.9,23.9,140.1,23.9z"/>
<path class="st1" d="M143.8,18.4h-1V17h1V18.4z M143.7,27.4h-0.9v-7.7h0.9V27.4z"/>
<path class="st1" d="M149.2,27.3h-0.9v-0.8L148,27c-0.1,0.1-0.2,0.2-0.4,0.3c-0.1,0.1-0.3,0.2-0.4,0.2c-0.2,0.1-0.3,0.1-0.5,0.1
	c-0.3,0-0.6-0.1-0.8-0.3c-0.3-0.2-0.5-0.5-0.6-0.8c-0.2-0.4-0.3-0.8-0.4-1.3c-0.1-0.6-0.2-1.1-0.1-1.7c0-0.6,0.1-1.2,0.2-1.8
	c0.1-0.5,0.3-0.9,0.5-1.3c0.2-0.3,0.4-0.6,0.7-0.8c0.3-0.2,0.6-0.3,0.9-0.3c0.2,0,0.5,0,0.7,0.1c0.2,0.1,0.4,0.2,0.6,0.4v-3.3h0.9
	L149.2,27.3z M148.3,25.5V21c-0.2-0.1-0.4-0.2-0.6-0.3c-0.2-0.1-0.4-0.1-0.6-0.1c-0.5,0-0.9,0.3-1.1,0.8c-0.3,0.7-0.4,1.4-0.4,2.1
	c0,0.7,0.1,1.4,0.3,2.1c0.1,0.4,0.5,0.7,1,0.7c0.3,0,0.5-0.1,0.7-0.2C147.9,25.9,148.1,25.7,148.3,25.5z"/>
<path class="st0" d="M45.5,10.2c0.7,0,1.4-0.5,1.6-1.2c0.3-0.6,0.4-1.3,0.4-2.1c0-2.2-0.7-3.2-2.1-3.2c-1.5,0-2.2,1-2.2,3v0.3
	C43.2,9.1,44,10.2,45.5,10.2z"/>
<path class="st0" d="M56,11.4c-0.1,0-0.2,0-0.3,0c-0.8,0-1.6,0.8-2.3,2.4V4.1c-1.6,0.3-3.1,0.5-4.7,0.5v0.7h0.9v21.2h-0.9v0.8
	c0.5,0,0.9,0,1.3,0c1.5,0.2,2.5,0.3,3.3,0.5v-3c0.4,2,1.2,3,2.4,3c0.3,0,0.6-0.1,0.8-0.2c0.2-0.1,0.4-0.2,0.6-0.4
	c1.4-1.2,2-3.8,2-7.8c0-1.6-0.2-3.1-0.6-4.6C57.9,12.7,57.1,11.5,56,11.4z M54.8,24.2c-0.1,1.1-0.3,1.6-0.6,1.6
	c-0.6,0-0.9-1.1-0.9-3.4v-5.8c0-2.1,0.3-3.2,0.9-3.2c0.4,0,0.6,0.8,0.6,2.4v6.6C54.9,23.1,54.9,23.7,54.8,24.2z"/>
<path class="st0" d="M81.6,26.5v-9.3c0-3.1-0.5-5-1.5-5.5c-0.2-0.1-0.4-0.2-0.6-0.3c-0.2,0-0.4,0-0.6-0.1c-1.2,0-2.1,1.1-2.8,3.1v-3
	c-0.6,0-1.7,0.1-3.1,0.2c-0.6,0.1-1.2,0.1-1.6,0.1v0.8h0.8v13.9h-0.8v0.8h5.4v-0.8h-0.6v-9.9c0-0.7,0.1-1.4,0.3-2.1
	c0.2-0.6,0.4-0.9,0.7-0.9h0.1c0.4,0,0.6,0.6,0.6,1.9v10.9h-0.6v0.8h5.3v-0.8L81.6,26.5z"/>
<path class="st0" d="M69.9,26.5v-15c-0.5,0-1.3,0.1-2.4,0.2c-0.8,0.1-1.6,0.2-2.4,0.2v0.8H66v9.6c0,0.8-0.1,1.6-0.2,2.4
	c-0.2,0.7-0.4,1-0.7,1c-0.2,0-0.4-0.1-0.5-0.3c-0.1-0.5-0.2-1-0.2-1.6V11.4c-1.6,0.2-3.2,0.4-4.8,0.4v0.8h0.8v9.1
	c0,1.4,0.1,2.9,0.5,4.3c0.4,1.1,0.9,1.7,1.8,1.8c0.1,0,0.3,0,0.4,0c1.2,0,2.2-1,3-3.1v3.1l2.2-0.3c0.8-0.1,1.7-0.2,2.5-0.1v-0.8
	L69.9,26.5z"/>
<path class="st0" d="M40,11.5h-0.2c-1.1,0-1.9,1.1-2.5,3.2v-3.3l-4.7,0.4v0.8h0.8v13.9h-0.8v0.8h6v-0.8h-1.1v-8.2
	c0-0.9,0-1.8,0.1-2.8c0.2-1.3,0.4-2,0.7-2l0.1,0.1c0,0,0.1,0.1,0.1,0.1l-0.1,1.5c0,2.2,0.6,3.5,1.9,3.7c0.7,0,1.2-0.4,1.5-1.3
	c0.2-0.7,0.4-1.4,0.4-2.1c0-0.8-0.1-1.7-0.4-2.5C41.3,12,40.7,11.5,40,11.5z"/>
<path class="st0" d="M47.4,26.5V11.4l-2.2,0.2c-0.9,0.1-1.8,0.1-2.7,0.1v0.8h0.8v13.9h-0.8v0.8h5.7v-0.8L47.4,26.5z"/>
<path class="st0" d="M33.7,33c-1.7,1.3-3.8,2.3-5.9,2.8V9.1c0.2,0,0.4,0,0.6,0h1c2.5,0.1,5-0.7,6.9-2.2c1.8-1.6,2.8-3.9,2.8-6.3
	l-0.5-0.1c-0.5,1-1.3,1.8-2.2,2.5c-0.8,0.5-1.8,0.8-2.8,0.7c-2.3-0.1-4.7-0.5-6.9-1.1c-1.6-0.4-2.9-0.6-3.7-0.8
	c-2-0.4-3.5-0.6-4.7-0.8c-1.1-0.1-2.1-0.2-3.2-0.2c-4.3,0-7.8,1-10.4,2.9C2.1,5.8,0.4,8.9,0,12.2h0.6C1.6,10.5,3.1,9,4.8,7.9
	C6.5,7,8.4,6.5,10.3,6.6c0.5,0,1,0,1.5,0.1s1.2,0.1,1.8,0.3c-3.2,2.1-6,4.9-8.1,8.1c-1.8,2.8-2.7,6.1-2.7,9.5c0,2.2,0.4,4.4,1.2,6.5
	c0.8,2,2.1,3.8,3.7,5.3c1.8,1.7,4,3,6.3,3.9c2.5,0.9,5.2,1.4,7.9,1.3c4,0.1,7.9-1.1,11-3.5c3.1-2.6,5.2-6.2,6-10.1l-0.6-0.2
	C37.2,29.7,35.6,31.5,33.7,33z M14.1,32.2c-1.6-1.4-2.8-3-3.7-4.9c-0.8-2-1.3-4.1-1.2-6.2c0-2.6,0.5-5.1,1.5-7.5
	c1.1-2.4,2.7-4.6,4.7-6.4l0.8,0.1v20c0,1-0.1,1.9-0.4,2.9C15.3,31,14.7,31.6,14.1,32.2L14.1,32.2z M26.3,36h-0.6h-1
	c-1.8,0-3.6-0.2-5.3-0.8c-1.5-0.4-2.9-1.2-4.1-2.2c2.2-1.6,4-3.6,5.5-5.8c1-2.1,1.6-4.4,1.5-6.7V8.3l4,0.8V36z"/>
</svg>
