<svg width="35" height="35" viewBox="0 0 35 35" fill="none" xmlns="http://www.w3.org/2000/svg">
<g clip-path="url(#clip0_1192_7314)">
<circle cx="17.5723" cy="17.8459" r="11" fill="white"/>
<path d="M17.5724 1.52588C8.55904 1.52588 1.25244 8.83248 1.25244 17.8459C1.25244 26.8593 8.55904 34.1659 17.5724 34.1659C26.5858 34.1659 33.8924 26.8593 33.8924 17.8459C33.8924 8.83248 26.5858 1.52588 17.5724 1.52588ZM21.4382 12.8037H18.9851C18.6944 12.8037 18.3714 13.1862 18.3714 13.6945V15.4659H21.4399L20.9758 17.9921H18.3714V25.5758H15.4763V17.9921H12.8498V15.4659H15.4763V13.9801C15.4763 11.8483 16.9553 10.116 18.9851 10.116H21.4382V12.8037Z" fill="url(#paint0_linear_1192_7314)"/>
</g>
<defs>
<linearGradient id="paint0_linear_1192_7314" x1="1.25244" y1="1.52588" x2="33.8924" y2="34.1659" gradientUnits="userSpaceOnUse">
<stop offset="0.232858" stop-color="#175CC3"/>
<stop offset="1" stop-color="#20FA55"/>
</linearGradient>
<clipPath id="clip0_1192_7314">
<rect width="34" height="34" fill="white" transform="translate(0.572266 0.845947)"/>
</clipPath>
</defs>
</svg>
