<svg width="35" height="35" viewBox="0 0 35 35" fill="none" xmlns="http://www.w3.org/2000/svg">
<g id="bx:bxl-instagram-alt">
<rect x="0.0478516" y="0.484375" width="34" height="34" rx="17" fill="url(#paint0_linear_1082_4754)"/>
<path id="Vector" d="M26.9007 13.4215C26.8896 12.5888 26.7334 11.7643 26.4392 10.985C26.1841 10.3276 25.7944 9.73062 25.2951 9.23213C24.7958 8.73364 24.1978 8.34461 23.5393 8.0899C22.7687 7.80112 21.9547 7.64497 21.1317 7.6281C20.0722 7.58082 19.7363 7.56763 17.0468 7.56763C14.3573 7.56763 14.0125 7.56763 12.9607 7.6281C12.1382 7.64509 11.3245 7.80124 10.5543 8.0899C9.89571 8.34443 9.29763 8.7334 8.79828 9.23191C8.29894 9.73043 7.90933 10.3275 7.65437 10.985C7.36453 11.7537 7.20846 12.5662 7.1929 13.3874C7.14554 14.4463 7.13123 14.7816 7.13123 17.4667C7.13123 20.1518 7.13123 20.4948 7.1929 21.546C7.20942 22.3684 7.36471 23.1799 7.65437 23.9506C7.90975 24.6079 8.29966 25.2047 8.79917 25.703C9.29868 26.2013 9.89682 26.5901 10.5554 26.8446C11.3235 27.145 12.1373 27.3123 12.9618 27.3394C14.0225 27.3867 14.3584 27.401 17.0479 27.401C19.7374 27.401 20.0821 27.401 21.134 27.3394C21.9568 27.3232 22.771 27.1674 23.5415 26.8787C24.1998 26.6237 24.7976 26.2346 25.2969 25.7361C25.7962 25.2376 26.186 24.6408 26.4414 23.9836C26.7311 23.214 26.8864 22.4025 26.9029 21.5789C26.9502 20.5212 26.9646 20.1858 26.9646 17.4997C26.9624 14.8146 26.9624 14.4738 26.9007 13.4215ZM17.0402 22.5443C14.2273 22.5443 11.9486 20.2694 11.9486 17.4612C11.9486 14.653 14.2273 12.3781 17.0402 12.3781C18.3906 12.3781 19.6856 12.9136 20.6405 13.8669C21.5953 14.8202 22.1318 16.1131 22.1318 17.4612C22.1318 18.8093 21.5953 20.1022 20.6405 21.0555C19.6856 22.0088 18.3906 22.5443 17.0402 22.5443ZM22.3344 13.3753C22.1785 13.3755 22.024 13.3449 21.8799 13.2854C21.7358 13.2259 21.6049 13.1386 21.4946 13.0285C21.3843 12.9184 21.2969 12.7877 21.2372 12.6438C21.1776 12.4999 21.147 12.3458 21.1472 12.1901C21.1472 12.0345 21.1779 11.8804 21.2375 11.7367C21.2971 11.5929 21.3846 11.4623 21.4947 11.3523C21.6049 11.2423 21.7358 11.155 21.8797 11.0955C22.0237 11.036 22.178 11.0053 22.3339 11.0053C22.4897 11.0053 22.644 11.036 22.788 11.0955C22.932 11.155 23.0628 11.2423 23.173 11.3523C23.2832 11.4623 23.3706 11.5929 23.4303 11.7367C23.4899 11.8804 23.5206 12.0345 23.5206 12.1901C23.5206 12.8454 22.9897 13.3753 22.3344 13.3753Z" fill="white"/>
<path id="Vector_2" d="M17.0478 20.3178C18.6126 20.3178 19.8811 19.0493 19.8811 17.4845C19.8811 15.9196 18.6126 14.6511 17.0478 14.6511C15.483 14.6511 14.2145 15.9196 14.2145 17.4845C14.2145 19.0493 15.483 20.3178 17.0478 20.3178Z" fill="white"/>
</g>
<defs>
<linearGradient id="paint0_linear_1082_4754" x1="0.0478516" y1="0.484375" x2="34.0479" y2="34.4844" gradientUnits="userSpaceOnUse">
<stop offset="0.232858" stop-color="#175CC3"/>
<stop offset="1" stop-color="#20FA55"/>
</linearGradient>
</defs>
</svg>
