<svg width="35" height="35" viewBox="0 0 35 35" fill="none" xmlns="http://www.w3.org/2000/svg">
<rect width="35" height="35" fill="#868686"/>
<path d="M-4501 -4639.53C-4501 -4640.63 -4500.1 -4641.53 -4499 -4641.53H404.048C405.152 -4641.53 406.048 -4640.63 406.048 -4639.53V1094C406.048 1095.1 405.152 1096 404.048 1096H-4499C-4500.1 1096 -4501 1095.1 -4501 1094V-4639.53Z" fill="#404040"/>
<g clip-path="url(#clip0_0_1)">
<rect width="1501" height="4306" transform="translate(-1194 -4244)" fill="white"/>
<g clip-path="url(#clip1_0_1)">
<g clip-path="url(#clip2_0_1)">
<rect width="1500" height="572" transform="translate(-1193.95 -510.362)" fill="white"/>
<g clip-path="url(#clip3_0_1)">
<circle cx="17.0479" cy="17.4844" r="11" fill="white"/>
<path d="M17.0479 1.16431C8.03451 1.16431 0.727905 8.47091 0.727905 17.4843C0.727905 26.4977 8.03451 33.8043 17.0479 33.8043C26.0613 33.8043 33.3679 26.4977 33.3679 17.4843C33.3679 8.47091 26.0613 1.16431 17.0479 1.16431ZM20.9137 12.4421H18.4606C18.1699 12.4421 17.8469 12.8246 17.8469 13.3329V15.1043H20.9154L20.4513 17.6305H17.8469V25.2142H14.9518V17.6305H12.3253V15.1043H14.9518V13.6185C14.9518 11.4867 16.4308 9.75441 18.4606 9.75441H20.9137V12.4421Z" fill="url(#paint0_linear_0_1)"/>
</g>
<path d="M-1068.95 -15.5156H181.048V-17.5156H-1068.95V-15.5156Z" fill="#F0F0F0" mask="url(#path-3-inside-1_0_1)"/>
</g>
</g>
</g>
<path d="M-4499 -4640.53H404.048V-4642.53H-4499V-4640.53ZM405.048 -4639.53V1094H407.048V-4639.53H405.048ZM404.048 1095H-4499V1097H404.048V1095ZM-4500 1094V-4639.53H-4502V1094H-4500ZM-4499 1095C-4499.55 1095 -4500 1094.55 -4500 1094H-4502C-4502 1095.66 -4500.66 1097 -4499 1097V1095ZM405.048 1094C405.048 1094.55 404.6 1095 404.048 1095V1097C405.705 1097 407.048 1095.66 407.048 1094H405.048ZM404.048 -4640.53C404.6 -4640.53 405.048 -4640.08 405.048 -4639.53H407.048C407.048 -4641.18 405.705 -4642.53 404.048 -4642.53V-4640.53ZM-4499 -4642.53C-4500.66 -4642.53 -4502 -4641.19 -4502 -4639.53H-4500C-4500 -4640.08 -4499.55 -4640.53 -4499 -4640.53V-4642.53Z" fill="white" fill-opacity="0.1"/>
<defs>
<linearGradient id="paint0_linear_0_1" x1="0.727905" y1="1.16431" x2="33.3679" y2="33.8043" gradientUnits="userSpaceOnUse">
<stop offset="0.232858" stop-color="#175CC3"/>
<stop offset="1" stop-color="#20FA55"/>
</linearGradient>
<clipPath id="clip0_0_1">
<rect width="1501" height="4306" fill="white" transform="translate(-1194 -4244)"/>
</clipPath>
<clipPath id="clip1_0_1">
<rect width="1500" height="4169" fill="white" transform="translate(-1194 -4107)"/>
</clipPath>
<clipPath id="clip2_0_1">
<rect width="1500" height="572" fill="white" transform="translate(-1193.95 -510.362)"/>
</clipPath>
<clipPath id="clip3_0_1">
<rect width="34" height="34" fill="white" transform="translate(0.0478516 0.484375)"/>
</clipPath>
</defs>
</svg>
