<svg width="35" height="35" viewBox="0 0 35 35" fill="none" xmlns="http://www.w3.org/2000/svg">
<g id="grommet-icons:youtube">
<rect x="0.0478516" y="0.484375" width="34" height="34" rx="17" fill="url(#paint0_linear_1082_4757)"/>
<path id="Vector" fill-rule="evenodd" clip-rule="evenodd" d="M14.7075 21.0667V14.8416L20.8313 17.9648L14.7075 21.0667ZM28.1545 13.7624C28.1545 13.7624 27.9325 12.2355 27.2535 11.5634C26.3912 10.6808 25.425 10.6772 24.9821 10.6255C21.8106 10.4011 17.0525 10.4011 17.0525 10.4011H17.0431C17.0431 10.4011 12.285 10.4011 9.11353 10.6255C8.66964 10.6762 7.70442 10.6808 6.8412 11.5634C6.16214 12.2355 5.94114 13.7624 5.94114 13.7624C5.94114 13.7624 5.71448 15.5562 5.71448 17.3481V19.0301C5.71448 20.8229 5.94114 22.6158 5.94114 22.6158C5.94114 22.6158 6.16214 24.1418 6.8412 24.8148C7.70442 25.6973 8.83681 25.6697 9.34114 25.762C11.1545 25.9318 17.0478 25.9845 17.0478 25.9845C17.0478 25.9845 21.8106 25.978 24.9821 25.7537C25.426 25.702 26.3912 25.6973 27.2535 24.8148C27.9335 24.1418 28.1545 22.6158 28.1545 22.6158C28.1545 22.6158 28.3811 20.8229 28.3811 19.0292V17.349C28.3811 15.5562 28.1545 13.7624 28.1545 13.7624Z" fill="white"/>
</g>
<defs>
<linearGradient id="paint0_linear_1082_4757" x1="0.0478516" y1="0.484375" x2="34.0479" y2="34.4844" gradientUnits="userSpaceOnUse">
<stop offset="0.232858" stop-color="#175CC3"/>
<stop offset="1" stop-color="#20FA55"/>
</linearGradient>
</defs>
</svg>
