<svg width="196" height="54" viewBox="0 0 196 54" fill="none" xmlns="http://www.w3.org/2000/svg">
<path fill-rule="evenodd" clip-rule="evenodd" d="M119.516 13.1195L130.528 13.2255L130.53 13.2241C130.53 13.2241 122.036 22.8272 117.853 27.5543L120.695 32.9152L120.717 32.9561C122.217 35.7858 123.728 38.6354 125.281 41.5663C121.823 41.5663 114.73 41.5277 114.73 41.5277L111.222 34.459L105.763 41.5883L93.8969 41.5539L106.883 26.9606C106.883 26.9606 99.2948 12.2255 95.7406 5.2891C95.5903 4.99647 95.4485 4.70019 95.281 4.35028L95.2808 4.34985L95.2806 4.34951L95.279 4.34609C95.1948 4.17016 95.1041 3.98065 95.0025 3.77124C98.5664 3.77124 105.669 3.81256 105.669 3.81256L113.702 20.0586L119.516 13.1195ZM182.602 13.8632C185.905 15.3535 188.307 18.0504 189.374 21.2473L189.376 21.2487C190.078 23.3533 190.529 25.7527 189.173 30.5101C187.089 37.8184 179.355 43.0814 170.884 42.1682C169.412 42.0098 167.924 41.8101 166.5 41.4203C160.375 39.744 156.77 33.8764 157.751 27.3091C159.113 18.1923 165.443 12.6153 174.653 12.4197C177.399 12.3619 180.072 12.7214 182.602 13.8632ZM169.714 33.7593C172.02 34.9439 174.445 35.2992 176.683 33.5596L176.684 33.5582C179.068 31.7043 180.286 29.1989 180.414 26.6356C180.422 22.4236 177.841 19.9898 174.116 20.2887C171.956 20.4622 170.09 21.4126 169.056 23.3065C168.218 24.8381 167.647 26.5874 167.318 28.3105C166.887 30.5652 167.532 32.6382 169.714 33.7593ZM23.3189 24.3892L23.3189 24.3892L23.3189 24.3892L23.3189 24.3892L23.319 24.3892C23.843 24.5072 24.3669 24.6251 24.8767 24.7872V24.7913C30.3953 26.5433 32.2609 31.7387 29.1607 36.6904C27.638 39.1242 25.3952 40.6572 22.7011 41.3886C16.2634 43.1365 10.0027 42.7012 4.04785 39.4782V38.7096C4.75153 37.4694 5.45446 36.2284 6.1572 34.9877L6.1573 34.9875L6.15739 34.9874L6.92169 33.6381L7.73515 32.1974C10.1549 33.6987 12.7791 34.4935 15.5418 34.7235C16.834 34.8309 18.1647 34.729 19.4473 34.5252C19.9095 34.4508 20.5543 33.8323 20.6064 33.3998C20.6517 33.028 20.0536 32.371 19.5995 32.185C18.985 31.9325 18.3351 31.7719 17.6842 31.611L17.6842 31.611C17.2628 31.5068 16.8409 31.4026 16.428 31.2732C16.1696 31.192 15.9107 31.1119 15.6516 31.0317C14.4116 30.648 13.1692 30.2635 11.9766 29.7622C6.23856 27.3477 6.64185 21.5145 8.73791 18.2102C10.7256 15.0767 13.7682 13.5643 17.2566 12.8963C22.3472 11.9211 27.2251 12.8027 31.9248 14.8797C31.9931 14.9105 32.0513 14.9631 32.1297 15.034L32.1298 15.034C32.1743 15.0743 32.2253 15.1204 32.2883 15.1717L32.2205 15.3092C31.1169 17.547 30.0136 19.7842 28.8603 22.1219C26.1113 20.4746 23.1592 19.8768 20.0536 20.0091L19.9735 20.0124C19.4059 20.0357 18.7834 20.0614 18.321 20.3231C17.8656 20.5807 17.3841 21.1454 17.3197 21.6302C17.2703 21.9994 17.7668 22.6674 18.1701 22.8327C19.2808 23.2863 20.4422 23.6184 21.5998 23.9493L21.5998 23.9494C21.7462 23.9912 21.8924 24.033 22.0385 24.0751C22.4603 24.196 22.8896 24.2926 23.3188 24.3892L23.3188 24.3892L23.3188 24.3892L23.3189 24.3892L23.3189 24.3892ZM62.6372 13.1236C62.6372 13.1236 57.5041 19.8011 55.3037 22.6233C54.3104 23.8975 53.3138 25.169 52.2901 26.475L52.2888 26.4767L52.2872 26.4788C51.8346 27.0563 51.3766 27.6405 50.9114 28.2347C50.8435 28.08 50.7829 27.9437 50.7275 27.8192L50.7275 27.8192L50.7273 27.8188C50.6172 27.5711 50.528 27.3707 50.445 27.1672C48.6672 22.834 44.6808 13.1718 44.6808 13.1718L37.0168 13.1263C37.0168 13.1263 33.2156 32.0211 31.3103 41.5002H40.0278C40.8467 37.4658 41.6643 33.437 42.4819 29.4069L42.7713 29.3903C44.0018 32.3324 46.4504 38.2206 46.4504 38.2206H52.4573C52.4573 38.2206 57.0747 31.2401 58.7222 29.0818C58.7517 29.0969 58.7812 29.1124 58.8107 29.1279C58.8401 29.1434 58.8696 29.1589 58.8991 29.1741C58.453 31.2645 58.0072 33.3549 57.5569 35.4669L57.5506 35.4964L57.5484 35.5065C57.1208 37.5117 56.6891 39.5365 56.2489 41.5993C58.9856 41.5993 63.9884 41.631 63.9884 41.631H65.3464C65.3464 41.631 67.7004 29.4385 68.7635 24.0447C69.4699 20.4581 70.8883 13.1442 70.8883 13.1442L62.6386 13.1222L62.6372 13.1236ZM148.547 13.6594C144.673 13.3406 140.781 13.2262 136.862 13.1109C135.228 13.0629 133.588 13.0147 131.943 12.9514C130.794 18.7803 129.662 24.5204 128.533 30.2416L126.31 41.5126H135.785L137.19 34.6037C137.19 34.6037 142.151 34.6698 144.065 34.6422C146.85 34.6023 149.383 33.7469 151.787 32.342C156.814 29.4041 157.372 21.841 155.393 18.2502C153.909 15.5588 151.482 13.9004 148.547 13.658V13.6594ZM143.743 27.1714C142.626 27.2985 141.493 27.2688 140.316 27.238C139.783 27.2241 139.242 27.2099 138.689 27.2099C139.051 25.4104 139.402 23.6625 139.746 21.9464L140.02 20.5834C140.422 20.5834 140.813 20.5756 141.195 20.568C142.014 20.5516 142.793 20.5361 143.566 20.5999C145.612 20.768 146.604 21.6757 146.685 23.2941C146.782 25.2527 145.612 26.9579 143.743 27.1714ZM81.3165 30.517C81.3165 30.517 80.6539 33.2552 80.3892 34.3502L80.3905 34.3475H94.4676C93.9696 36.7882 93.5032 39.076 93.0176 41.4616H69.747C70.3616 38.3569 70.9749 35.2594 71.5881 32.1623C72.8362 25.8583 74.0841 19.5556 75.3425 13.1966H98.2879C97.8086 15.4617 97.3482 17.6398 96.8681 19.9108L96.8037 20.2157H83.4537C83.1711 21.447 82.9091 22.5889 82.6155 23.8712H94.5115L93.1081 30.5969L81.3165 30.517Z" fill="#2866C4"/>
<path fill-rule="evenodd" clip-rule="evenodd" d="M40.0141 7.67617H39.4311V9.58245H37.4941V3H40.0388C41.988 3 43.0265 3.87601 43.0265 5.33877C43.0265 6.80154 41.9757 7.67755 40.0154 7.67755L40.0141 7.67617ZM40.0031 4.50684H39.4311V6.16933H40.0031C40.7507 6.16933 41.0772 5.85942 41.0772 5.33877C41.0772 4.81813 40.7507 4.50822 40.0031 4.50822V4.50684ZM48.5697 4.64045H45.8153V5.471H48.0567V7.06737H45.8153V7.94338H48.7687V9.58383H43.8783V3H48.7097L48.5697 4.64045ZM55.7235 9.58245L53.9964 7.06737H53.9978C54.6974 6.79052 55.1762 6.10321 55.1762 5.30572C55.1762 3.84157 54.1377 3 52.1885 3H49.6438V9.58245H51.5808V7.52053H52.1171L53.482 9.58245H55.7235ZM51.5808 4.50684H52.1528V4.50822C52.8538 4.50822 53.2269 4.77405 53.2269 5.30572C53.2269 5.83738 52.8524 6.10321 52.1528 6.10321H51.5808V4.50684ZM57.7084 9.58245V4.66249H55.8524V3H61.5713L61.4314 4.66249H59.6454V9.58245H57.7084ZM65.1543 8.19682L65.6098 9.58245H67.6866L65.271 3H62.9952L60.5795 9.58245H62.5631L63.0185 8.19682H65.1543ZM64.1159 4.86083C64.1735 5.15007 64.2435 5.41591 64.3491 5.72582L64.6756 6.74507H63.4849L63.8237 5.72582C63.928 5.41453 63.998 5.1487 64.0569 4.86083H64.1159ZM76.0215 9.58245H74.0845V6.16933H74.0255C73.9666 6.50127 73.8623 6.81256 73.6991 7.17756L73.0461 8.64033H71.2258L70.5728 7.17756C70.4329 6.84562 70.3163 6.50127 70.2463 6.16933H70.1873V9.58245H68.3314V3H70.3972L71.7278 5.89248C71.8801 6.22442 72.0667 6.67896 72.1476 6.95581H72.2066C72.2889 6.67896 72.4754 6.22442 72.6263 5.89248L73.9556 3H76.0215V9.58245ZM77.1888 9.58245H79.1258V3H77.1888V9.58245ZM86.536 9.58245H84.8899L82.7541 6.70099C82.5552 6.43516 82.3686 6.14729 82.2054 5.85804H82.1464V9.58245H80.2904V3H82.1697L84.0723 5.58257C84.2712 5.8484 84.4578 6.13627 84.621 6.42414H84.68V3H86.536V9.58245ZM91.7542 8.19682L92.2096 9.58245H94.2865L91.8708 3H89.595L87.1794 9.58245H89.1629L89.6184 8.19682H91.7542ZM90.7158 4.86083C90.7734 5.15007 90.8433 5.41591 90.949 5.72582L91.2754 6.74507H90.0848L90.4236 5.72582C90.5278 5.41453 90.5978 5.1487 90.6568 4.86083H90.7158Z" fill="#2866C4"/>
<path d="M15.0848 46.1818H17.0507L17.8575 49.4773H17.9257L19.8234 46.1818H21.7894L20.8234 52H19.278L19.8348 48.6364H19.7894L17.9484 51.9545H17.0166L16.278 48.6136H16.2325L15.6644 52H14.1189L15.0848 46.1818ZM22.132 52L23.0979 46.1818H27.2911L27.0752 47.4545H24.4616L24.3025 48.4545H26.7002L26.4843 49.7273H24.0866L23.9275 50.7273H26.5298L26.3138 52H22.132ZM27.6686 52L28.6345 46.1818H30.214L29.464 50.7273H31.8163L31.6004 52H27.6686ZM34.3103 52H32.6057L35.4921 46.1818H37.6512L38.6057 52H36.9012L36.333 47.7841H36.2875L34.3103 52ZM34.3784 49.7045H37.583L37.3784 50.8864H34.1739L34.3784 49.7045ZM45.7261 46.1818L44.7602 52H43.442L41.8511 48.9432H41.817L41.3056 52H39.7261L40.692 46.1818H42.0329L43.6011 49.2273H43.6465L44.1465 46.1818H45.7261ZM50.4935 48.1023C50.4859 48.0019 50.4651 47.9138 50.431 47.8381C50.3969 47.7604 50.3486 47.6951 50.2861 47.642C50.2236 47.5871 50.1459 47.5464 50.0531 47.5199C49.9622 47.4915 49.8552 47.4773 49.7321 47.4773C49.467 47.4773 49.2255 47.5407 49.0077 47.6676C48.7899 47.7945 48.6071 47.9773 48.4594 48.2159C48.3135 48.4545 48.2132 48.7424 48.1582 49.0795C48.1014 49.4205 48.0967 49.7121 48.144 49.9545C48.1914 50.197 48.2937 50.3826 48.4509 50.5114C48.61 50.6402 48.8249 50.7045 49.0957 50.7045C49.3382 50.7045 49.5475 50.6695 49.7236 50.5994C49.8997 50.5294 50.0408 50.4299 50.1469 50.3011C50.2529 50.1723 50.3192 50.0208 50.3457 49.8466L50.6185 49.875H49.2889L49.4707 48.75H52.0503L51.9196 49.5568C51.8325 50.0871 51.645 50.5407 51.3571 50.9176C51.0711 51.2926 50.7151 51.5805 50.2889 51.7812C49.8628 51.9801 49.395 52.0795 48.8855 52.0795C48.3211 52.0795 47.8448 51.9593 47.4565 51.7188C47.0683 51.4782 46.7908 51.1354 46.6242 50.6903C46.4594 50.2453 46.4272 49.7159 46.5276 49.1023C46.6071 48.6212 46.751 48.1951 46.9594 47.8239C47.1696 47.4527 47.4262 47.1392 47.7293 46.8835C48.0323 46.6259 48.3666 46.4318 48.7321 46.3011C49.0976 46.1686 49.4764 46.1023 49.8685 46.1023C50.2113 46.1023 50.5228 46.1515 50.8031 46.25C51.0834 46.3466 51.323 46.4848 51.5219 46.6648C51.7207 46.8428 51.8694 47.054 51.9679 47.2983C52.0683 47.5426 52.109 47.8106 52.0901 48.1023H50.4935ZM52.807 52L53.7729 46.1818H55.3525L54.9661 48.5341H55.0457L57.182 46.1818H59.0229L56.6366 48.7727L58.1025 52H56.2161L55.2843 49.8182L54.6366 50.5114L54.3866 52H52.807ZM60.5971 52H58.8926L61.779 46.1818H63.938L64.8926 52H63.188L62.6199 47.7841H62.5744L60.5971 52ZM60.6653 49.7045H63.8699L63.6653 50.8864H60.4608L60.6653 49.7045ZM66.013 52L66.9789 46.1818H68.5584L68.1834 48.4545H70.2743L70.6493 46.1818H72.2289L71.263 52H69.6834L70.0584 49.7273H67.9675L67.5925 52H66.013ZM76.9994 52H74.7267L75.6926 46.1818H77.8744C78.4729 46.1818 78.9729 46.3021 79.3744 46.5426C79.776 46.7831 80.061 47.1269 80.2296 47.5739C80.3981 48.0208 80.4313 48.553 80.329 49.1705C80.2305 49.7652 80.0307 50.2737 79.7296 50.696C79.4303 51.1184 79.0477 51.4413 78.5818 51.6648C78.1178 51.8883 77.5903 52 76.9994 52ZM76.5278 50.6591H77.1017C77.3896 50.6591 77.6462 50.6089 77.8716 50.5085C78.0989 50.4062 78.2883 50.2358 78.4398 49.9972C78.5932 49.7566 78.704 49.428 78.7722 49.0114C78.8366 48.6174 78.8347 48.3134 78.7665 48.0994C78.6983 47.8835 78.5686 47.7339 78.3773 47.6506C78.186 47.5653 77.9388 47.5227 77.6358 47.5227H77.0506L76.5278 50.6591ZM82.2981 52H80.5935L83.4799 46.1818H85.639L86.5935 52H84.889L84.3208 47.7841H84.2754L82.2981 52ZM82.3663 49.7045H85.5708L85.3663 50.8864H82.1617L82.3663 49.7045ZM87.7139 52L88.6798 46.1818H91.1912C91.623 46.1818 91.9876 46.2604 92.2849 46.4176C92.5823 46.5748 92.7963 46.8011 92.927 47.0966C93.0577 47.392 93.0889 47.7462 93.0207 48.1591C92.9525 48.5758 92.802 48.9271 92.569 49.2131C92.338 49.4972 92.0434 49.7131 91.6855 49.8608C91.3294 50.0066 90.9298 50.0795 90.4866 50.0795H88.9866L89.1912 48.8523H90.373C90.5586 48.8523 90.7215 48.8295 90.8616 48.7841C91.0018 48.7367 91.1154 48.6629 91.2025 48.5625C91.2897 48.4602 91.3465 48.3258 91.373 48.1591C91.3995 47.9924 91.3862 47.857 91.3332 47.7528C91.2802 47.6468 91.1921 47.5691 91.069 47.5199C90.9459 47.4687 90.7934 47.4432 90.6116 47.4432H90.0548L89.2934 52H87.7139ZM91.5662 49.3295L92.5775 52H90.8616L89.8844 49.3295H91.5662ZM96.2412 46.1818L95.2753 52H93.6958L94.6617 46.1818H96.2412ZM98.7377 52L99.7036 46.1818H101.283L100.533 50.7273H102.885L102.669 52H98.7377ZM109.744 49.1932C109.638 49.8258 109.427 50.3561 109.113 50.7841C108.799 51.2121 108.417 51.535 107.968 51.7528C107.519 51.9706 107.039 52.0795 106.528 52.0795C105.982 52.0795 105.509 51.9612 105.107 51.7244C104.706 51.4877 104.413 51.1411 104.229 50.6847C104.046 50.2282 104.009 49.6705 104.119 49.0114C104.221 48.3788 104.429 47.8466 104.744 47.4148C105.058 46.983 105.442 46.6562 105.894 46.4347C106.347 46.2131 106.831 46.1023 107.346 46.1023C107.888 46.1023 108.358 46.2216 108.758 46.4602C109.159 46.6989 109.451 47.0483 109.633 47.5085C109.817 47.9687 109.854 48.5303 109.744 49.1932ZM108.153 49.0114C108.206 48.678 108.21 48.3977 108.164 48.1705C108.119 47.9413 108.023 47.7689 107.877 47.6534C107.731 47.536 107.535 47.4773 107.289 47.4773C107.009 47.4773 106.761 47.5455 106.545 47.6818C106.329 47.8182 106.15 48.0142 106.008 48.2699C105.866 48.5256 105.766 48.8333 105.71 49.1932C105.649 49.5303 105.643 49.8106 105.693 50.0341C105.744 50.2576 105.844 50.4252 105.994 50.5369C106.145 50.6487 106.342 50.7045 106.585 50.7045C106.861 50.7045 107.105 50.6383 107.318 50.5057C107.532 50.3731 107.709 50.1809 107.849 49.929C107.991 49.6771 108.092 49.3712 108.153 49.0114ZM110.569 52L111.534 46.1818H113.114L112.728 48.5341H112.807L114.944 46.1818H116.784L114.398 48.7727L115.864 52H113.978L113.046 49.8182L112.398 50.5114L112.148 52H110.569ZM118.359 52H116.654L119.541 46.1818H121.7L122.654 52H120.95L120.381 47.7841H120.336L118.359 52ZM118.427 49.7045H121.631L121.427 50.8864H118.222L118.427 49.7045ZM123.775 52L124.74 46.1818H126.32L125.57 50.7273H127.922L127.706 52H123.775ZM131.059 52L132.024 46.1818H133.604L133.218 48.5341H133.297L135.434 46.1818H137.274L134.888 48.7727L136.354 52H134.468L133.536 49.8182L132.888 50.5114L132.638 52H131.059ZM137.337 52L138.303 46.1818H142.496L142.281 47.4545H139.667L139.508 48.4545H141.906L141.69 49.7273H139.292L139.133 50.7273H141.735L141.519 52H137.337ZM149.454 48.1023C149.446 48.0019 149.425 47.9138 149.391 47.8381C149.357 47.7604 149.309 47.6951 149.246 47.642C149.184 47.5871 149.106 47.5464 149.013 47.5199C148.923 47.4915 148.816 47.4773 148.692 47.4773C148.427 47.4773 148.186 47.5407 147.968 47.6676C147.75 47.7945 147.567 47.9773 147.42 48.2159C147.274 48.4545 147.173 48.7424 147.119 49.0795C147.062 49.4205 147.057 49.7121 147.104 49.9545C147.152 50.197 147.254 50.3826 147.411 50.5114C147.57 50.6402 147.785 50.7045 148.056 50.7045C148.298 50.7045 148.508 50.6695 148.684 50.5994C148.86 50.5294 149.001 50.4299 149.107 50.3011C149.213 50.1723 149.28 50.0208 149.306 49.8466L149.579 49.875H148.249L148.431 48.75H151.011L150.88 49.5568C150.793 50.0871 150.605 50.5407 150.317 50.9176C150.031 51.2926 149.675 51.5805 149.249 51.7812C148.823 51.9801 148.355 52.0795 147.846 52.0795C147.281 52.0795 146.805 51.9593 146.417 51.7188C146.029 51.4782 145.751 51.1354 145.584 50.6903C145.42 50.2453 145.388 49.7159 145.488 49.1023C145.567 48.6212 145.711 48.1951 145.92 47.8239C146.13 47.4527 146.387 47.1392 146.69 46.8835C146.993 46.6259 147.327 46.4318 147.692 46.3011C148.058 46.1686 148.437 46.1023 148.829 46.1023C149.172 46.1023 149.483 46.1515 149.763 46.25C150.044 46.3466 150.283 46.4848 150.482 46.6648C150.681 46.8428 150.83 47.054 150.928 47.2983C151.029 47.5426 151.069 47.8106 151.05 48.1023H149.454ZM151.767 52L152.733 46.1818H154.313L153.563 50.7273H155.915L155.699 52H151.767ZM162.773 49.1932C162.667 49.8258 162.457 50.3561 162.143 50.7841C161.828 51.2121 161.447 51.535 160.998 51.7528C160.549 51.9706 160.069 52.0795 159.557 52.0795C159.012 52.0795 158.539 51.9612 158.137 51.7244C157.735 51.4877 157.443 51.1411 157.259 50.6847C157.075 50.2282 157.039 49.6705 157.148 49.0114C157.251 48.3788 157.459 47.8466 157.773 47.4148C158.088 46.983 158.471 46.6562 158.924 46.4347C159.377 46.2131 159.86 46.1023 160.376 46.1023C160.917 46.1023 161.388 46.2216 161.788 46.4602C162.189 46.6989 162.481 47.0483 162.663 47.5085C162.846 47.9687 162.883 48.5303 162.773 49.1932ZM161.182 49.0114C161.235 48.678 161.239 48.3977 161.194 48.1705C161.148 47.9413 161.053 47.7689 160.907 47.6534C160.761 47.536 160.565 47.4773 160.319 47.4773C160.039 47.4773 159.79 47.5455 159.575 47.6818C159.359 47.8182 159.18 48.0142 159.038 48.2699C158.896 48.5256 158.796 48.8333 158.739 49.1932C158.679 49.5303 158.673 49.8106 158.722 50.0341C158.773 50.2576 158.874 50.4252 159.023 50.5369C159.175 50.6487 159.372 50.7045 159.614 50.7045C159.891 50.7045 160.135 50.6383 160.347 50.5057C160.561 50.3731 160.738 50.1809 160.878 49.929C161.021 49.6771 161.122 49.3712 161.182 49.0114ZM163.598 52L164.564 46.1818H167.087C167.53 46.1818 167.893 46.2415 168.175 46.3608C168.459 46.4801 168.66 46.6487 168.777 46.8665C168.897 47.0843 168.932 47.3409 168.882 47.6364C168.844 47.8485 168.763 48.0426 168.638 48.2188C168.515 48.393 168.359 48.5407 168.169 48.6619C167.982 48.7812 167.773 48.8636 167.541 48.9091L167.53 48.9659C167.78 48.9735 167.998 49.036 168.184 49.1534C168.369 49.2689 168.505 49.4299 168.593 49.6364C168.68 49.8409 168.701 50.0795 168.655 50.3523C168.602 50.6705 168.472 50.9536 168.266 51.2017C168.059 51.4498 167.791 51.6449 167.462 51.7869C167.132 51.929 166.757 52 166.337 52H163.598ZM165.394 50.7386H166.132C166.394 50.7386 166.599 50.6884 166.749 50.5881C166.9 50.4877 166.99 50.3409 167.019 50.1477C167.041 50.0114 167.03 49.8958 166.985 49.8011C166.939 49.7064 166.862 49.6345 166.755 49.5852C166.647 49.536 166.511 49.5114 166.348 49.5114H165.587L165.394 50.7386ZM165.757 48.5341H166.405C166.541 48.5341 166.666 48.5123 166.78 48.4688C166.894 48.4252 166.987 48.3617 167.061 48.2784C167.135 48.1951 167.182 48.0947 167.201 47.9773C167.229 47.7955 167.185 47.6572 167.07 47.5625C166.956 47.4678 166.803 47.4205 166.61 47.4205H165.939L165.757 48.5341ZM171.013 52H169.309L172.195 46.1818H174.354L175.309 52H173.604L173.036 47.7841H172.991L171.013 52ZM171.082 49.7045H174.286L174.082 50.8864H170.877L171.082 49.7045ZM176.429 52L177.395 46.1818H178.975L178.225 50.7273H180.577L180.361 52H176.429Z" fill="#2866C3"/>
</svg>
