<svg width="195" height="46" viewBox="0 0 195 46" fill="none" xmlns="http://www.w3.org/2000/svg">
<path fill-rule="evenodd" clip-rule="evenodd" d="M119.468 13.1195L130.481 13.2255L130.482 13.2241C130.482 13.2241 121.988 22.8272 117.806 27.5543L120.648 32.9152L120.669 32.9561C122.169 35.7858 123.68 38.6354 125.234 41.5663C121.775 41.5663 114.682 41.5277 114.682 41.5277L111.174 34.459L105.715 41.5883L93.8491 41.5539L106.836 26.9606C106.836 26.9606 99.2469 12.2255 95.6927 5.2891C95.5424 4.99647 95.4006 4.70019 95.2332 4.35028L95.2329 4.34985L95.2328 4.34951L95.2311 4.34609C95.1469 4.17016 95.0562 3.98065 94.9547 3.77124C98.5185 3.77124 105.622 3.81256 105.622 3.81256L113.655 20.0586L119.468 13.1195ZM182.554 13.8632C185.857 15.3535 188.259 18.0504 189.326 21.2473L189.328 21.2487C190.03 23.3533 190.481 25.7527 189.125 30.5101C187.041 37.8184 179.307 43.0814 170.836 42.1682C169.365 42.0098 167.876 41.8101 166.452 41.4203C160.327 39.744 156.722 33.8764 157.703 27.3091C159.065 18.1923 165.395 12.6153 174.605 12.4197C177.351 12.3619 180.025 12.7214 182.554 13.8632ZM169.666 33.7593C171.972 34.9439 174.398 35.2992 176.635 33.5596L176.636 33.5582C179.02 31.7043 180.239 29.1989 180.366 26.6356C180.374 22.4236 177.793 19.9898 174.068 20.2887C171.908 20.4622 170.042 21.4126 169.008 23.3065C168.17 24.8381 167.599 26.5874 167.27 28.3105C166.839 30.5652 167.484 32.6382 169.666 33.7593ZM23.271 24.3892L23.2711 24.3892L23.2711 24.3892L23.2711 24.3892L23.2711 24.3892C23.7952 24.5072 24.3191 24.6251 24.8288 24.7872V24.7913C30.3474 26.5433 32.213 31.7387 29.1129 36.6904C27.5902 39.1242 25.3474 40.6572 22.6532 41.3886C16.2155 43.1365 9.95482 42.7012 4 39.4782V38.7096C4.70367 37.4694 5.40661 36.2284 6.10935 34.9877L6.10944 34.9875L6.10954 34.9874L6.87384 33.6381L7.6873 32.1974C10.1071 33.6987 12.7313 34.4935 15.494 34.7235C16.7862 34.8309 18.1168 34.729 19.3994 34.5252C19.8617 34.4508 20.5064 33.8323 20.5585 33.3998C20.6038 33.028 20.0057 32.371 19.5517 32.185C18.9372 31.9325 18.2873 31.7719 17.6364 31.611L17.6363 31.611C17.2149 31.5068 16.7931 31.4026 16.3802 31.2732C16.1218 31.192 15.8628 31.1119 15.6038 31.0317C14.3637 30.648 13.1214 30.2635 11.9288 29.7622C6.1907 27.3477 6.594 21.5145 8.69006 18.2102C10.6777 15.0767 13.7203 13.5643 17.2087 12.8963C22.2993 11.9211 27.1773 12.8027 31.877 14.8797C31.9452 14.9105 32.0034 14.9631 32.0819 15.034L32.0819 15.034C32.1264 15.0743 32.1774 15.1204 32.2405 15.1717L32.1727 15.3092C31.0691 17.547 29.9658 19.7842 28.8124 22.1219C26.0634 20.4746 23.1114 19.8768 20.0057 20.0091L19.9256 20.0124C19.358 20.0357 18.7356 20.0614 18.2732 20.3231C17.8178 20.5807 17.3363 21.1454 17.2718 21.6302C17.2224 21.9994 17.719 22.6674 18.1223 22.8327C19.2329 23.2863 20.3944 23.6184 21.5519 23.9493L21.552 23.9494C21.6983 23.9912 21.8446 24.033 21.9907 24.0751C22.4125 24.196 22.8418 24.2926 23.2709 24.3892L23.271 24.3892L23.271 24.3892L23.271 24.3892L23.271 24.3892ZM62.5893 13.1236C62.5893 13.1236 57.4562 19.8011 55.2559 22.6233C54.2626 23.8975 53.2659 25.169 52.2423 26.475L52.241 26.4767L52.2394 26.4788C51.7867 27.0563 51.3288 27.6405 50.8635 28.2347C50.7957 28.08 50.735 27.9437 50.6797 27.8192L50.6796 27.8192L50.6795 27.8188C50.5693 27.5711 50.4802 27.3707 50.3971 27.1672C48.6193 22.834 44.633 13.1718 44.633 13.1718L36.9689 13.1263C36.9689 13.1263 33.1678 32.0211 31.2624 41.5002H39.9799C40.7989 37.4658 41.6165 33.437 42.434 29.4069L42.7235 29.3903C43.9539 32.3324 46.4025 38.2206 46.4025 38.2206H52.4095C52.4095 38.2206 57.0268 31.2401 58.6743 29.0818C58.7038 29.0969 58.7333 29.1124 58.7628 29.1279C58.7923 29.1434 58.8218 29.1589 58.8513 29.1741C58.4052 31.2645 57.9594 33.3549 57.509 35.4669L57.5027 35.4964L57.5006 35.5065C57.073 37.5117 56.6412 39.5365 56.201 41.5993C58.9377 41.5993 63.9405 41.631 63.9405 41.631H65.2986C65.2986 41.631 67.6525 29.4385 68.7156 24.0447C69.4221 20.4581 70.8405 13.1442 70.8405 13.1442L62.5907 13.1222L62.5893 13.1236ZM148.499 13.6594C144.625 13.3406 140.734 13.2262 136.814 13.1109C135.18 13.0629 133.54 13.0147 131.895 12.9514C130.746 18.7803 129.614 24.5204 128.485 30.2416L126.262 41.5126H135.737L137.142 34.6037C137.142 34.6037 142.104 34.6698 144.017 34.6422C146.802 34.6023 149.335 33.7469 151.739 32.342C156.766 29.4041 157.325 21.841 155.345 18.2502C153.861 15.5588 151.434 13.9004 148.499 13.658V13.6594ZM143.695 27.1714C142.578 27.2985 141.445 27.2688 140.268 27.238C139.735 27.2241 139.194 27.2099 138.641 27.2099C139.003 25.4104 139.354 23.6625 139.698 21.9464L139.972 20.5834C140.374 20.5834 140.765 20.5756 141.147 20.568C141.966 20.5516 142.745 20.5361 143.518 20.5999C145.564 20.768 146.556 21.6757 146.637 23.2941C146.735 25.2527 145.564 26.9579 143.695 27.1714ZM81.2686 30.517C81.2686 30.517 80.6061 33.2552 80.3413 34.3502L80.3427 34.3475H94.4197C93.9218 36.7882 93.4554 39.076 92.9698 41.4616H69.6992C70.3138 38.3569 70.9271 35.2594 71.5403 32.1623C72.7884 25.8583 74.0363 19.5556 75.2946 13.1966H98.2401C97.7608 15.4617 97.3004 17.6398 96.8203 19.9108L96.7558 20.2157H83.4058C83.1233 21.447 82.8612 22.5889 82.5677 23.8712H94.4636L93.0603 30.5969L81.2686 30.517Z" fill="#2866C4"/>
<path fill-rule="evenodd" clip-rule="evenodd" d="M39.9662 7.67617H39.3832V9.58245H37.4463V3H39.9909C41.9402 3 42.9786 3.87601 42.9786 5.33877C42.9786 6.80154 41.9278 7.67755 39.9676 7.67755L39.9662 7.67617ZM39.9552 4.50684H39.3832V6.16933H39.9552C40.7028 6.16933 41.0293 5.85942 41.0293 5.33877C41.0293 4.81813 40.7028 4.50822 39.9552 4.50822V4.50684ZM48.5219 4.64045H45.7674V5.471H48.0089V7.06737H45.7674V7.94338H48.7208V9.58383H43.8305V3H48.6618L48.5219 4.64045ZM55.6756 9.58245L53.9486 7.06737H53.95C54.6496 6.79052 55.1283 6.10321 55.1283 5.30572C55.1283 3.84157 54.0899 3 52.1406 3H49.596V9.58245H51.5329V7.52053H52.0693L53.4342 9.58245H55.6756ZM51.5329 4.50684H52.1049V4.50822C52.8059 4.50822 53.179 4.77405 53.179 5.30572C53.179 5.83738 52.8045 6.10321 52.1049 6.10321H51.5329V4.50684ZM57.6606 9.58245V4.66249H55.8046V3H61.5235L61.3835 4.66249H59.5975V9.58245H57.6606ZM65.1065 8.19682L65.5619 9.58245H67.6388L65.2231 3H62.9473L60.5317 9.58245H62.5152L62.9707 8.19682H65.1065ZM64.0681 4.86083C64.1257 5.15007 64.1956 5.41591 64.3013 5.72582L64.6278 6.74507H63.4371L63.7759 5.72582C63.8801 5.41453 63.9501 5.1487 64.0091 4.86083H64.0681ZM75.9736 9.58245H74.0367V6.16933H73.9777C73.9187 6.50127 73.8144 6.81256 73.6512 7.17756L72.9982 8.64033H71.1779L70.525 7.17756C70.385 6.84562 70.2684 6.50127 70.1985 6.16933H70.1395V9.58245H68.2835V3H70.3494L71.68 5.89248C71.8323 6.22442 72.0188 6.67896 72.0997 6.95581H72.1587C72.241 6.67896 72.4276 6.22442 72.5785 5.89248L73.9077 3H75.9736V9.58245ZM77.141 9.58245H79.0779V3H77.141V9.58245ZM86.4882 9.58245H84.842L82.7062 6.70099C82.5073 6.43516 82.3207 6.14729 82.1575 5.85804H82.0985V9.58245H80.2425V3H82.1218L84.0245 5.58257C84.2234 5.8484 84.4099 6.13627 84.5732 6.42414H84.6322V3H86.4882V9.58245ZM91.7063 8.19682L92.1618 9.58245H94.2386L91.8229 3H89.5472L87.1315 9.58245H89.1151L89.5705 8.19682H91.7063ZM90.6679 4.86083C90.7255 5.15007 90.7955 5.41591 90.9011 5.72582L91.2276 6.74507H90.0369L90.3757 5.72582C90.48 5.41453 90.5499 5.1487 90.6089 4.86083H90.6679Z" fill="#2866C4"/>
</svg>
