<svg width="83" height="48" viewBox="0 0 83 48" fill="none" xmlns="http://www.w3.org/2000/svg">
<g clip-path="url(#clip0_832_11714)">
<path d="M25.3995 43.2804C23.5371 45.5778 20.9967 46.7282 18.217 47.4672C17.5347 47.6482 16.848 47.8128 16.1466 47.9073C16.0326 47.9237 15.8881 48.019 15.8646 47.7998C17.2257 46.6399 18.6112 45.5067 19.8366 44.1995C20.3997 43.5992 20.9454 42.9858 21.3318 42.2512C21.4623 41.6794 21.7408 41.1536 21.8044 40.5567C21.8757 39.8862 21.8131 39.7285 21.1969 39.4643C19.6399 38.7972 18.0099 38.3234 16.4538 37.6511C13.5035 36.3759 10.7142 34.8348 8.23559 32.7799C6.39318 31.2518 4.83622 29.4819 3.78142 27.3188C3.19572 26.1181 2.83193 24.8498 2.71705 23.5114C2.42638 20.138 3.69788 17.3182 5.82836 14.8085C7.93621 12.3257 10.5689 10.5073 13.4313 9.00429C17.5599 6.83594 21.9558 5.42127 26.5127 4.46314C29.1505 3.90871 31.8154 3.5466 34.495 3.27805C35.025 3.2252 35.5576 3.13511 36.0963 3.16543C36.394 3.16283 36.6934 3.18968 36.984 3.09352C39.2007 2.92979 41.4191 2.94625 43.6383 3.00776C44.1004 3.13684 44.573 3.05541 45.0412 3.07533C45.1935 3.06667 45.345 3.08053 45.4946 3.10825C45.7288 3.18795 45.9698 3.16629 46.2109 3.16109C48.3701 3.23386 50.5049 3.53534 52.6372 3.85414C55.9382 4.34793 59.1765 5.10941 62.3435 6.15763C64.159 6.75798 65.9379 7.45188 67.6584 8.28613C68.1858 8.54169 68.2172 8.61273 68.118 9.20094C67.581 12.4115 67.0136 15.6176 66.4696 18.8273C65.9457 21.9234 65.387 25.0135 64.8996 28.1149C64.8195 28.6225 64.6081 28.9907 64.1868 29.2861C63.4001 29.8371 62.83 30.5752 62.4393 31.4493C61.4315 33.7034 62.4027 35.7817 64.6316 36.7051C65.1137 36.9052 65.628 37.0075 66.1502 37.0534C66.2799 37.0646 66.4122 37.0612 66.5271 37.1365C66.6385 37.289 66.487 37.3523 66.4226 37.445C65.5723 37.9154 64.6542 38.2298 63.7465 38.5599C60.4367 39.7649 57.0348 40.6295 53.5631 41.2168C51.5258 41.5616 49.4754 41.8198 47.4119 41.9731C46.519 42.0389 45.6295 42.1472 44.7314 42.1403C44.58 42.1316 44.4285 42.136 44.2771 42.136C43.8376 42.1559 43.3938 42.0805 42.9595 42.2009C42.0613 42.2573 41.1641 42.2599 40.2659 42.2027C39.9126 42.0909 39.5479 42.1481 39.1876 42.136C39.0101 42.136 38.8317 42.1308 38.6541 42.1412C36.8787 42.1117 35.112 41.961 33.3427 41.8241C31.8023 41.7046 30.2636 41.5867 28.7345 41.3632C28.3203 41.3026 27.9095 41.222 27.5004 41.1311C26.9252 41.0029 26.8956 41.028 26.5979 41.5192C26.3221 41.974 26.1167 42.4695 25.8042 42.9035C25.6946 43.056 25.5927 43.2145 25.4004 43.2769L25.3995 43.2804Z" fill="#C32227"/>
<path d="M25.3996 43.2804C25.8669 42.6368 26.2403 41.9377 26.6041 41.2342C26.739 40.9735 26.8869 40.8643 27.2202 40.9423C29.1401 41.3893 31.1009 41.5288 33.0616 41.6847C34.9206 41.8328 36.7795 41.9602 38.6428 42.0321C38.8352 42.0953 39.0327 42.0477 39.2277 42.0624C39.5584 42.078 39.89 42.0286 40.219 42.0927C41.1484 42.0927 42.0788 42.0945 43.0082 42.0945C43.4138 42.0208 43.8228 42.0815 44.2293 42.0615C44.399 42.0486 44.573 42.0919 44.7401 42.0312C49.6469 41.7947 54.49 41.1311 59.2366 39.8525C61.6787 39.195 64.0798 38.4127 66.3826 37.3567C66.4105 37.2718 66.6193 37.3567 66.5497 37.1799C65.0406 37.1678 63.7439 36.674 62.7517 35.5062C61.9424 34.5533 61.7422 33.4419 62.0259 32.2611C62.3445 30.9365 63.119 29.8883 64.226 29.0956C64.5289 28.879 64.6873 28.6417 64.7473 28.2622C65.0319 26.4733 65.3557 24.6905 65.6629 22.905C66.1276 20.2013 66.5906 17.4967 67.0519 14.7921C67.373 12.9097 67.6828 11.0246 68.0196 9.14471C68.0919 8.74015 67.9787 8.5487 67.6002 8.37111C63.77 6.57786 59.7562 5.34945 55.6197 4.50048C53.2534 4.01448 50.8635 3.68009 48.4589 3.44445C47.7104 3.37082 46.9629 3.28419 46.2101 3.27206C45.9899 3.1811 45.7488 3.29545 45.5295 3.20449L45.0856 3.18716C44.6226 3.09274 44.1509 3.20709 43.6871 3.12392C41.4261 3.08494 39.1668 3.08927 36.9075 3.20709C36.6229 3.29545 36.3209 3.17677 36.0372 3.27553C33.9433 3.4072 31.8624 3.65583 29.7902 3.97983C26.3987 4.51087 23.0654 5.28448 19.8175 6.40114C16.077 7.68673 12.514 9.32144 9.33655 11.7055C7.08074 13.3983 5.1426 15.3734 3.88067 17.9299C3.31498 19.076 2.97469 20.2888 2.83196 21.5571C2.61178 23.5132 2.9834 25.3818 3.8093 27.1412C4.7266 29.0956 6.08948 30.7373 7.70648 32.1684C11.0945 35.1667 15.0709 37.1193 19.2988 38.6267C20.0725 38.903 20.8366 39.208 21.6086 39.4886C21.78 39.551 21.861 39.6437 21.8879 39.8248C22.0194 40.7075 21.7887 41.5036 21.3309 42.2504C18.9577 41.5062 16.6227 40.6642 14.3729 39.5987C11.3269 38.1554 8.46451 36.4323 5.9511 34.1721C4.2314 32.6258 2.73014 30.9001 1.65881 28.8435C-0.788462 24.1456 -0.501265 19.5551 2.32545 15.117C4.40198 11.8571 7.33139 9.48604 10.6063 7.50567C14.7324 5.01073 19.1979 3.3457 23.8574 2.14587C27.1845 1.28823 30.5622 0.726003 33.9755 0.376017C37.9579 -0.0311439 41.95 -0.102181 45.9472 0.136918C49.8105 0.369087 53.6345 0.876739 57.4099 1.72831C62.1695 2.80253 66.7481 4.3714 71.0352 6.72167C71.2711 6.85075 71.4973 6.85421 71.7436 6.83342C74.1091 6.63504 76.4746 6.44012 78.8391 6.24174C79.5745 6.18023 79.5702 6.17504 79.3387 6.84988C78.84 8.30614 78.3605 9.76845 77.84 11.216C77.726 11.534 77.8488 11.6838 78.042 11.8744C79.5702 13.3922 80.8617 15.0841 81.7451 17.054C83.7755 21.5822 83.2977 25.9137 80.6285 30.0399C78.3866 33.5051 75.2205 35.9663 71.6897 38.0003C67.3869 40.4788 62.7518 42.1049 57.926 43.2406C55.1193 43.9016 52.2812 44.3659 49.4162 44.6665C47.3293 44.8857 45.2353 45.0087 43.1362 45.0607C40.3103 45.13 37.4923 45.0217 34.6804 44.7713C31.6231 44.5002 28.5909 44.0523 25.5971 43.3653C25.5284 43.3497 25.4648 43.3082 25.3996 43.2787V43.2804Z" fill="#232221"/>
<path d="M15.8655 47.8008C15.9229 47.9316 16.0578 47.8597 16.1474 47.9082C16.0769 47.9931 15.9734 47.9775 15.8811 47.9888C15.8219 47.9966 15.7297 48.0295 15.7271 47.9247C15.7253 47.851 15.7932 47.8138 15.8663 47.8008H15.8655Z" fill="#D26E56"/>
<path d="M21.5224 30.0753C20.5285 30.1576 19.5338 30.2286 18.5417 30.3283C18.1692 30.3655 18.0987 30.278 18.1944 29.9107C19.0856 26.4871 19.9602 23.06 20.8366 19.6329C20.8636 19.5281 20.9698 19.4033 20.8584 19.3141C20.7557 19.2318 20.6356 19.334 20.5381 19.3808C19.9498 19.6676 19.6304 20.1683 19.4711 20.7773C19.1073 22.1686 18.7523 23.5616 18.3963 24.9555C17.9586 26.669 17.5182 28.3817 17.0935 30.0987C17.03 30.3551 16.9151 30.44 16.6557 30.4599C14.6523 30.6159 12.6498 30.7865 10.6481 30.9546C9.78388 31.0274 8.91968 31.0984 8.05722 31.1868C7.76306 31.2171 7.6708 31.172 7.75435 30.8472C8.68383 27.2546 9.59851 23.6586 10.5184 20.0635C11.1067 17.7652 11.7029 15.4677 12.2799 13.166C12.3478 12.8957 12.4444 12.7761 12.7324 12.7744C13.1075 12.7727 13.4818 12.7259 13.8569 12.6982C14.0309 12.6167 14.2276 12.7155 14.4008 12.6315C16.6209 12.4513 18.8402 12.2694 21.0603 12.0918C21.2683 12.0753 21.4502 11.9878 21.6399 11.9185C23.5615 11.2168 25.5005 10.9231 27.49 11.6474C28 11.8327 28.4648 12.0952 28.8712 12.4461C29.0835 12.6297 29.2193 12.6471 29.4604 12.4695C31.4359 11.0184 33.6569 10.2604 36.1146 10.3956C38.5819 10.5307 40.0893 11.9999 40.5601 14.4351C40.8595 15.9823 40.494 17.4637 40.0893 18.9425C39.8056 19.9812 39.5575 21.0294 39.2843 22.1105C42.2372 20.3519 45.0674 19.7473 47.7017 22.6745C47.8575 22.5316 47.8828 22.2621 47.9863 22.0386C49.7974 18.1403 52.8783 15.7649 56.9539 14.5191C59.7257 13.6728 62.3819 14.0176 65.011 15.0537C65.2138 15.1334 65.2591 15.2226 65.2025 15.44C64.7665 17.125 64.3505 18.8143 63.9197 20.501C63.1756 23.4135 62.4245 26.3242 61.6778 29.2367C61.5029 29.9194 61.3236 30.602 61.1609 31.2873C61.1226 31.4484 61.0268 31.5272 60.9006 31.6061C59.2854 32.6049 57.5404 33.1671 55.6345 33.3127C53.8573 33.4487 52.2134 33.1204 50.6808 32.2211C50.1664 31.9188 49.6939 31.5636 49.2874 31.1279C49.0933 30.92 48.9645 30.9321 48.7583 31.1253C48.0908 31.7525 48.0934 31.7351 48.6399 32.4594C49.4023 33.4703 50.1455 34.496 50.9427 35.5763C50.1786 35.6491 49.4832 35.7219 48.787 35.7808C47.029 35.9272 45.2693 36.0666 43.5113 36.2113C43.1901 36.2373 42.8786 36.2789 42.6967 35.9072C42.5687 35.6448 42.3956 35.8016 42.2337 35.8977C41.1389 36.5431 39.9431 36.9061 38.6811 36.8853C36.8022 36.855 35.1747 36.2131 34.3279 34.4198C33.4803 32.6248 33.7353 30.8888 34.9563 29.306C35.0242 29.2177 35.1321 29.1544 35.1451 28.989C34.5847 28.9067 34.0338 29.0375 33.4855 29.0765C31.9425 29.1865 30.4029 29.3407 28.8607 29.4672C28.2715 29.5157 28.2733 29.5027 28.4169 28.9431C29.2907 25.529 30.1627 22.114 31.0339 18.699C31.0513 18.6323 31.0608 18.5648 31.1 18.3673C30.5021 18.7614 30.134 19.1998 29.9573 19.7663C29.7267 20.507 29.5413 21.2624 29.3481 22.0144C28.7354 24.3967 28.1245 26.779 27.5248 29.1648C27.4517 29.4568 27.329 29.5928 27.0096 29.6144C25.7834 29.6993 24.5597 29.812 23.3352 29.9124C22.9027 29.948 22.4702 29.9783 22.0376 30.0112C21.8731 30.09 21.686 29.9921 21.5215 30.0753H21.5224Z" fill="#232221"/>
<path d="M43.6879 3.12477C44.1544 3.1291 44.6261 3.03987 45.0856 3.18801C44.6191 3.18541 44.1483 3.25125 43.6879 3.12477V3.12477Z" fill="#79594A"/>
<path d="M44.2945 42.0945C43.8655 42.0945 43.4373 42.0945 43.0082 42.0945C43.4338 41.9663 43.8698 42.0321 44.3015 42.0295C44.3285 42.0468 44.3363 42.0624 44.325 42.0754C44.3146 42.0876 44.305 42.0936 44.2945 42.0936V42.0945Z" fill="#885F4E"/>
<path d="M40.2189 42.0935L39.1737 42.0979C39.1458 42.0866 39.1354 42.0728 39.1423 42.0572C39.1493 42.0407 39.1571 42.032 39.1658 42.032C39.5183 42.026 39.8743 41.9775 40.2198 42.0935H40.2189Z" fill="#895F4D"/>
<path d="M36.038 3.27635C36.3191 3.13601 36.6168 3.21311 36.9083 3.20792C36.6263 3.33526 36.3296 3.27462 36.038 3.27635Z" fill="#875F4F"/>
<path d="M45.5303 3.20527C45.7584 3.22086 45.9968 3.12297 46.2109 3.27284C45.982 3.27197 45.747 3.32395 45.5303 3.20527Z" fill="#855F4E"/>
<path d="M14.4007 12.6324C14.2328 12.7632 14.0404 12.6983 13.8568 12.6991C14.0256 12.577 14.2162 12.6281 14.4007 12.6324Z" fill="#755A4E"/>
<path d="M21.5224 30.0753C21.6799 29.9376 21.8644 30.0164 22.0385 30.0112C21.8784 30.129 21.6973 30.0796 21.5224 30.0753Z" fill="#8B5E4C"/>
<path d="M39.1659 42.0321C39.1685 42.0538 39.1711 42.0763 39.1737 42.0979C38.9953 42.0875 38.8064 42.1621 38.6428 42.0321C38.8169 42.0321 38.9909 42.0321 39.1659 42.0321V42.0321Z" fill="#61544C"/>
<path d="M66.5506 37.1808C66.6054 37.1747 66.6942 37.186 66.6715 37.2371C66.6219 37.3506 66.4958 37.3532 66.3835 37.3575C66.4392 37.2986 66.4949 37.2397 66.5506 37.1808V37.1808Z" fill="#A42627"/>
<path d="M44.2945 42.0944C44.2971 42.0727 44.2997 42.0519 44.3023 42.0303C44.4485 42.0303 44.5947 42.032 44.741 42.032C44.6061 42.1524 44.4468 42.0926 44.2954 42.0944H44.2945Z" fill="#5D534C"/>
<path d="M76.9793 8.19519C76.6573 9.14812 76.3605 10.0309 76.0612 10.9128C74.2875 16.1426 72.5104 21.3716 70.7463 26.6049C70.6497 26.8926 70.5244 27.0251 70.2163 27.0476C69.1632 27.1221 68.111 27.2148 67.0597 27.311C66.8021 27.3344 66.7116 27.2997 66.7638 26.9982C67.6341 21.9512 68.4905 16.9006 69.3529 11.8518C69.5105 10.9301 69.7011 10.0144 69.8377 9.09008C69.8777 8.81719 70.0057 8.76695 70.2241 8.74962C72.0126 8.60408 73.801 8.45681 75.5895 8.31041C76.0203 8.27489 76.4519 8.23937 76.9793 8.19606V8.19519Z" fill="white"/>
<path d="M76.6173 14.9091C77.773 16.3047 78.6468 17.7479 79.196 19.4043C79.8713 21.4436 79.8939 23.4698 79.3039 25.5091C78.7678 27.363 77.7713 28.9726 76.512 30.4288C75.4119 31.7014 74.1517 32.7982 72.788 33.7823C72.734 33.8213 72.6714 33.8499 72.5182 33.9374C72.7784 33.415 72.9908 32.9844 73.1135 32.5158C73.4738 31.1375 73.2066 29.9151 72.197 28.892C71.9847 28.6772 71.983 28.5031 72.0691 28.2527C72.8672 25.9249 73.6583 23.5955 74.4494 21.2651C75.1204 19.2891 75.7887 17.313 76.4589 15.337C76.4989 15.2175 76.5459 15.1005 76.6173 14.9099V14.9091Z" fill="#C32227"/>
<path d="M66.4574 35.3615C65.6402 35.3814 64.9692 35.1544 64.4061 34.6511C63.676 33.9979 63.4906 33.1498 63.8996 32.2627C64.6046 30.7337 65.8735 29.8995 67.4583 29.4897C68.2354 29.2887 69.0239 29.2099 69.815 29.4611C71.2676 29.9211 71.8559 31.153 71.2084 32.5165C70.4399 34.1339 69.0379 34.9171 67.3443 35.2731C67.0327 35.339 66.7168 35.3814 66.4583 35.3623L66.4574 35.3615Z" fill="white"/>
<path d="M19.1717 15.6419C20.5407 14.2463 22.1881 13.367 24.1324 13.1028C25.4813 12.9191 26.8024 12.9849 27.9016 13.95C28.342 14.3364 28.6449 14.8258 28.9277 15.3699C29.3011 15.1186 29.5439 14.7609 29.8546 14.475C31.5934 12.8697 33.6595 12.0987 36.0197 12.1802C37.6324 12.2356 38.5488 13.2085 38.8238 14.9359C39.0179 16.1582 38.6506 17.3026 38.36 18.4565C37.675 21.1758 36.9744 23.8917 36.2939 26.6127C36.2138 26.9333 36.1007 27.0762 35.7369 27.1005C34.106 27.2096 32.4776 27.3595 30.8484 27.4929C30.7927 27.4972 30.7362 27.4842 30.6474 27.4773C31.1313 25.581 31.6126 23.7028 32.0895 21.8238C32.3514 20.792 32.6299 19.7646 32.8571 18.7251C33.1608 17.3312 32.0616 16.3436 30.684 16.743C29.2497 17.1588 28.5056 18.2269 28.1418 19.561C27.4317 22.1686 26.7824 24.7935 26.1288 27.4158C26.0383 27.777 25.9104 27.9234 25.5118 27.9494C23.9235 28.0525 22.3378 28.2041 20.7513 28.3358C20.6677 28.3427 20.5833 28.3297 20.4563 28.3237C20.8314 26.8657 21.2021 25.4337 21.5694 24.0017C21.941 22.5524 22.3135 21.1031 22.6772 19.652C23.0341 18.2252 22.0202 17.138 20.5877 17.4637C19.0211 17.8198 18.1126 18.8819 17.72 20.3918C17.0256 23.0626 16.3519 25.7386 15.6757 28.4146C15.6113 28.6693 15.513 28.7802 15.2188 28.801C13.6601 28.911 12.104 29.0531 10.5471 29.1848C10.0206 29.229 10.0179 29.229 10.1407 28.7482C11.3086 24.1949 12.487 19.6442 13.6314 15.0849C13.7559 14.5893 13.9465 14.4334 14.4521 14.4039C15.9673 14.3147 17.479 14.1657 18.9907 14.0219C19.3431 13.9881 19.4667 14.0488 19.3344 14.4187C19.223 14.7288 19.1639 15.058 19.0821 15.3785C19.0699 15.4799 18.9463 15.6194 19.1717 15.6393V15.6419Z" fill="white"/>
<path d="M60.6421 25.9994C60.2862 27.3968 59.9407 28.7465 59.6012 30.0979C59.5673 30.2322 59.522 30.3448 59.3958 30.4089C57.0695 31.5775 54.6667 32.0791 52.1846 30.9772C49.6015 29.8302 48.3422 27.1369 49.0759 24.4228C50.1786 20.3442 52.9252 17.812 56.8424 16.4355C58.7692 15.7589 60.73 15.5596 62.7256 16.1738C63.0389 16.27 63.1312 16.3757 63.0415 16.7084C62.7117 17.9298 62.4123 19.16 62.1068 20.3884C62.0407 20.6526 62.0207 20.8406 61.6673 20.5842C60.5673 19.7846 59.3523 19.8331 58.1461 20.2818C56.3681 20.9437 55.1445 22.1574 54.7128 24.0364C54.3577 25.5819 55.4969 27.0572 57.0948 27.1481C58.3045 27.2166 59.415 26.8995 60.381 26.145C60.4376 26.1008 60.4968 26.0618 60.5559 26.0211C60.5673 26.0133 60.5838 26.0142 60.6421 26.0003V25.9994Z" fill="white"/>
<path d="M47.606 34.0733C46.338 34.1816 45.157 34.2812 43.9769 34.3852C43.7088 34.4086 43.647 34.1859 43.533 34.0343C43.0256 33.3586 43.03 33.3586 42.2981 33.784C41.5757 34.2041 40.8847 34.6849 40.0588 34.9032C39.2773 35.1094 38.4923 35.177 37.7003 34.9855C35.8962 34.5498 35.079 32.5989 36.0084 30.946C36.5054 30.0615 37.2782 29.4663 38.1502 28.9838C38.4905 28.7958 38.8369 28.6174 39.1815 28.4372C39.3373 28.3557 39.447 28.2752 39.3225 28.0759C38.7716 27.1888 38.749 26.2706 39.1406 25.3142C39.5714 24.2616 40.3251 23.5131 41.3251 23.0133C42.1614 22.5948 43.05 22.3384 44.0038 22.4545C46.0029 22.6962 46.834 24.168 46.0308 26.0003C45.6148 26.9497 44.8741 27.5553 44.0012 28.0508C43.4025 28.3904 43.4086 28.4051 43.8272 28.9405C44.0491 29.2238 44.2475 29.6907 44.5112 29.7332C44.8237 29.7834 45.0926 29.3338 45.3711 29.0912C45.6757 28.827 45.9664 28.5437 46.2361 28.244C46.4006 28.0612 46.4981 28.0231 46.6635 28.2405C46.9602 28.6304 47.2727 29.0089 47.5973 29.3762C47.7687 29.5703 47.7122 29.6786 47.5416 29.8311C47.0037 30.3118 46.4885 30.8169 45.9498 31.2968C45.7557 31.4692 45.7575 31.5818 45.9159 31.788C46.4772 32.5174 47.0124 33.2659 47.606 34.0742V34.0733Z" fill="white"/>
<path d="M63.1886 23.1823C61.9928 23.6414 60.9293 24.052 59.8632 24.4566C59.6056 24.5545 59.3654 24.6697 59.1417 24.8395C58.6152 25.2406 57.9808 25.3723 57.3428 25.3827C56.6562 25.3939 56.3185 24.8603 56.5195 24.1872C56.8772 22.9891 58.1574 21.9487 59.3976 21.7771C60.0938 21.681 60.6987 21.791 61.2957 22.1713C61.8623 22.5317 62.4811 22.8098 63.1886 23.1823Z" fill="#C32227"/>
<path d="M19.1717 15.6419C19.1465 15.7094 19.0795 15.8013 19.0342 15.7502C18.9254 15.6289 19.0029 15.4972 19.0821 15.3802C19.1256 15.4625 19.0516 15.5847 19.1717 15.641V15.6419Z" fill="#7C7B7A"/>
<path d="M39.9918 32.2264C39.7254 32.21 39.326 32.1571 39.1397 31.7448C38.9665 31.3618 39.1363 31.0205 39.3686 30.7095C39.6332 30.3561 40.0048 30.136 40.3677 29.9013C40.5052 29.812 40.5679 29.8683 40.6445 29.974C41.0048 30.4748 41.3677 30.9729 41.7306 31.471C41.8115 31.5828 41.8298 31.6651 41.6723 31.7361C41.1754 31.9596 40.6984 32.2411 39.9918 32.2264Z" fill="#232322"/>
<path d="M41.8524 25.801C41.8629 25.1626 42.4094 24.5813 43.0413 24.538C43.7358 24.4903 44.1169 24.985 43.9046 25.6494C43.6844 26.3399 43.0674 26.5937 42.5147 26.9212C42.439 26.9662 42.3668 26.9567 42.332 26.8839C42.1623 26.5279 41.8446 26.235 41.8524 25.8019V25.801Z" fill="#232322"/>
</g>
<defs>
<clipPath id="clip0_832_11714">
<rect width="83" height="48" fill="white"/>
</clipPath>
</defs>
</svg>
