<svg width="92" height="56" viewBox="0 0 92 56" fill="none" xmlns="http://www.w3.org/2000/svg">
<g clip-path="url(#clip0_3792_3645)">
<rect width="92" height="56" fill="white"/>
<path fill-rule="evenodd" clip-rule="evenodd" d="M91.9992 0.275588V55.6555C91.9992 55.6744 91.9995 55.6932 91.9997 55.7121L91.9998 55.714C92 55.73 92.0002 55.7461 92.0003 55.7622C92.0003 55.7831 92.0001 55.8041 91.9992 55.8251C91.9971 55.859 91.9934 55.8926 91.9893 55.9298C91.9869 55.9517 91.9844 55.9748 91.982 56H91.678H0.255658C0.213048 56 0.170439 55.9993 0.127829 55.9987C0.0852193 55.998 0.0426097 55.9974 0 55.9974V0H91.9967L91.9977 0.0915774L91.9977 0.0934744C91.9985 0.154179 91.9992 0.214883 91.9992 0.275588ZM70.7009 19.6984C70.3592 19.5076 70.0036 19.3433 69.6447 19.1913L69.6439 19.1905C69.4453 19.1068 69.2406 19.0394 69.0271 18.969C68.9295 18.9369 68.8301 18.9041 68.7286 18.8689C67.1643 26.6331 65.6058 34.3663 64.0472 42.0996C64.207 42.1438 70.1003 42.1535 70.3346 42.1128C70.3385 42.0999 70.3428 42.0865 70.3472 42.0728L70.3479 42.0706L70.3481 42.07L70.3482 42.0699C70.3594 42.0349 70.3714 41.9979 70.3789 41.96C70.4056 41.8275 70.431 41.6943 70.4563 41.561C70.4689 41.4944 70.4816 41.4277 70.4944 41.3612C70.7435 40.0592 70.9934 38.7563 71.2434 37.4543L71.4178 36.5486L71.4182 36.5467L71.4185 36.5449L71.4189 36.5431L71.4192 36.5413C71.5346 35.943 71.6499 35.3446 71.7645 34.7462C71.8227 34.4421 71.8806 34.1379 71.9386 33.8338L71.9387 33.8333C72.049 33.2548 72.1592 32.6763 72.2709 32.098C72.4063 31.3952 72.5427 30.6923 72.6792 29.9893C72.7888 29.4245 72.8984 28.8596 73.0076 28.2946L73.0367 28.1435L73.0369 28.1428L73.037 28.1421L73.0372 28.1414L73.0373 28.1407C73.1806 27.3989 73.3238 26.6578 73.4648 25.9159C73.4767 25.853 73.4897 25.7901 73.5026 25.7273C73.5423 25.535 73.5819 25.3427 73.5918 25.1483C73.6077 24.844 73.6035 24.5387 73.5994 24.2332C73.598 24.129 73.5965 24.0247 73.5959 23.9205C73.5951 23.8437 73.5861 23.7659 73.5697 23.6908L73.5248 23.4848C73.4516 23.149 73.3786 22.8135 73.2976 22.4799C73.2632 22.3385 73.219 22.1901 73.1444 22.0709C73.0991 21.9986 73.0542 21.9258 73.0093 21.853C72.6469 21.265 72.2838 20.6758 71.6736 20.3308C71.6675 20.3275 71.6624 20.3226 71.6572 20.3176C71.655 20.3154 71.6527 20.3132 71.6503 20.3111L71.6459 20.3075L71.6424 20.3052C71.5474 20.2432 71.4531 20.1796 71.3589 20.116C71.1429 19.9702 70.9268 19.8244 70.7009 19.6984ZM44.3747 10.7117H44.1035V10.7099C43.7057 12.6828 43.3092 14.6476 42.9069 16.6412L42.7285 17.5255H42.9915H67.0119L67.0549 17.5253L67.0906 17.525C67.1168 17.5248 67.143 17.5246 67.1692 17.5246C67.2454 17.5254 67.293 17.4901 67.3061 17.4062L67.359 17.0711C67.3941 16.8498 67.4291 16.6285 67.4634 16.4072C67.4683 16.3736 67.4667 16.3365 67.4601 16.3021C67.4269 16.1209 67.3988 15.9385 67.3708 15.7561L67.3708 15.7558C67.2966 15.2731 67.2225 14.7903 67.0512 14.3288C66.8767 13.8589 66.6858 13.4093 66.3006 13.0895C66.2613 13.0574 66.2313 13.012 66.2014 12.9668L66.1897 12.9491L66.1753 12.9279C65.8016 12.3873 65.3452 11.9536 64.7732 11.6701C64.4928 11.531 64.2132 11.3911 63.9335 11.2512L63.9321 11.2505L63.9307 11.2498L63.5097 11.0394C63.0648 10.8168 62.5993 10.7091 62.1052 10.7091C57.5084 10.7125 52.9121 10.7122 48.3155 10.7119H48.3154H48.3153H48.3153H48.3152L44.3747 10.7117ZM42.758 18.8018H42.5384H42.5376C41.9959 21.0312 41.4584 23.2421 40.9127 25.4866H59.7256L57.9272 33.9735L56.2333 41.9671H62.6575C62.6805 41.8638 62.7009 41.7745 62.7198 41.6853L63.5802 37.5656C63.9312 35.8832 64.2814 34.2016 64.6316 32.52L64.6342 32.5073L64.6405 32.477C64.8071 31.6765 64.9738 30.8763 65.1406 30.0761L65.1553 30.0056C65.3257 29.1877 65.4962 28.3698 65.6664 27.5517C65.6903 27.4371 65.7171 27.3229 65.744 27.2086C65.8057 26.9459 65.8674 26.6832 65.8926 26.4167C65.9417 25.8894 66.022 25.3709 66.1261 24.855C66.1892 24.5379 66.2482 24.2217 66.1687 23.8949C66.1541 23.8347 66.1492 23.7718 66.1443 23.7089C66.1398 23.6519 66.1353 23.5948 66.1236 23.5398C66.0655 23.266 66.0048 22.993 65.9327 22.7236C65.904 22.6159 65.869 22.5103 65.834 22.4048C65.799 22.2992 65.7639 22.1937 65.7352 22.0859C65.6246 21.6734 65.4681 21.2927 65.1748 20.9888C65.0791 20.8898 64.9878 20.786 64.8964 20.6821L64.8962 20.6818C64.8304 20.607 64.7646 20.5321 64.697 20.4589C64.4561 20.1983 64.189 19.9695 63.885 19.8035C63.3491 19.5102 62.8083 19.2214 62.2306 19.0324C61.8553 18.9087 61.4735 18.8027 61.0769 18.8027C54.9706 18.8018 48.8643 18.8018 42.758 18.8018ZM58.5178 26.9052H40.8012V26.9043C40.675 27.262 39.1952 33.6562 39.2034 33.8337H39.4705H56.3734H56.4717H56.4718C56.6536 33.8311 56.6545 33.8311 56.7028 33.6518L57.0046 32.5361C57.4505 30.8872 57.8963 29.2388 58.3416 27.5897C58.384 27.4335 58.4238 27.276 58.4653 27.1121C58.4824 27.0443 58.4998 26.9755 58.5178 26.9052ZM39.2165 35.701C39.1255 35.701 39.0755 35.7425 39.0329 35.8256L39.0305 35.8247C38.9313 36.0155 38.8256 36.2018 38.7191 36.3873C38.572 36.6434 38.4252 36.8997 38.2784 37.156L38.2779 37.1569C37.8375 37.9256 37.3972 38.6943 36.95 39.4585C36.5484 40.1443 36.1405 40.8254 35.7325 41.5066C35.552 41.8081 35.3715 42.1095 35.1915 42.4114C35.1546 42.4741 35.1169 42.5377 35.0596 42.634C35.0949 42.6355 35.1262 42.6371 35.1547 42.6385L35.1548 42.6385L35.1556 42.6386C35.2114 42.6414 35.257 42.6437 35.3029 42.6437H37.7399C37.7628 42.6437 37.7858 42.6428 37.8087 42.6418H37.8088C37.8448 42.6404 37.8809 42.6389 37.9169 42.6411C37.9931 42.6455 38.0373 42.6119 38.0693 42.5377C38.1266 42.4034 38.1881 42.2701 38.2536 42.1402C38.3759 41.8986 38.5 41.6578 38.6221 41.421L38.6845 41.3L38.7871 41.1006H41.4248C41.5346 41.6155 41.6428 42.1217 41.7526 42.6331L41.7829 42.6351L41.8134 42.6374C41.8582 42.6407 41.8988 42.6437 41.9394 42.6437C42.7973 42.6402 43.6544 42.6358 44.5123 42.6305C44.5181 42.6305 44.5238 42.6243 44.5279 42.6199C44.5302 42.6174 44.532 42.6145 44.5345 42.6096L44.5383 42.6023L44.5484 42.5828C44.074 40.8581 43.5215 39.1537 42.9672 37.4441C42.7814 36.8711 42.5955 36.2974 42.4122 35.7222C42.4028 35.7191 42.3952 35.7163 42.3887 35.7139C42.3766 35.7093 42.3686 35.7063 42.3606 35.7063C42.0107 35.7057 41.6609 35.7053 41.311 35.7049H41.306C40.6095 35.7041 39.913 35.7034 39.2165 35.701ZM21.6197 38.2166H21.6193H21.6189H21.6185H21.6181C21.1393 38.2171 20.6617 38.2175 20.1822 38.214H20.179C20.179 38.1695 20.1785 38.128 20.178 38.0884C20.177 38.0022 20.1761 37.9255 20.1806 37.8492C20.1852 37.7659 20.1957 37.683 20.2072 37.5914L20.2072 37.5912C20.2119 37.5537 20.2168 37.5148 20.2216 37.4738H23.6623L23.7224 36.9364C23.7704 36.5075 23.8182 36.0811 23.868 35.633H23.6058H20.5395L19.8672 35.6329C19.1938 35.6327 18.5201 35.6326 17.8469 35.6339C17.7977 35.6339 17.7485 35.64 17.6927 35.647C17.6639 35.6506 17.6334 35.6544 17.6003 35.6577C17.5753 35.9577 17.5508 36.2556 17.5264 36.5519L17.5264 36.5528L17.5262 36.5545L17.5261 36.5561L17.526 36.5569C17.4761 37.1645 17.4266 37.7659 17.3749 38.3668C17.3685 38.4425 17.3623 38.5182 17.3562 38.594L17.3561 38.5941C17.331 38.9038 17.3058 39.2138 17.261 39.5204C17.1872 40.025 17.1062 40.5286 17.0251 41.0322L17.0251 41.0326L17.0251 41.0326L17.0251 41.0327L17.0251 41.0327L17.025 41.0327C16.9756 41.34 16.9261 41.6472 16.8783 41.9547C16.8572 42.0924 16.8424 42.2318 16.8273 42.3742C16.8208 42.4355 16.8142 42.4973 16.8071 42.5598H23.0633C23.1698 41.9627 23.2559 41.3762 23.3239 40.7844H21.558C21.3656 40.7844 21.1732 40.789 20.9804 40.7936C20.5934 40.8028 20.2048 40.8121 19.811 40.7844C19.8659 40.5044 19.9151 40.2509 19.9684 39.9762C20.128 39.9762 20.2873 39.9763 20.4464 39.9765L20.4549 39.9765C20.7779 39.9769 21.0999 39.9773 21.422 39.9762C21.7455 39.975 22.0691 39.9722 22.3909 39.9694H22.391H22.3911H22.3912H22.3913C22.5478 39.9681 22.7038 39.9667 22.8593 39.9656C22.9206 39.4455 22.98 38.9439 23.0408 38.43L23.0658 38.2193C22.5805 38.2157 22.0995 38.2162 21.6197 38.2166ZM24.5004 36.7224L24.5003 36.7227L24.5003 36.723L24.5003 36.7236L24.5002 36.724C24.417 37.5471 24.335 38.3584 24.2416 39.1679H24.2408C24.1485 39.9676 24.0451 40.7655 23.9411 41.5683C23.8955 41.92 23.8498 42.2727 23.8049 42.6269L23.8215 42.6292L23.8481 42.6335C23.8827 42.6392 23.918 42.6449 23.9532 42.6437C24.0146 42.6411 24.0761 42.6365 24.1375 42.6319C24.2195 42.6257 24.3014 42.6196 24.3834 42.6181C25.1299 42.6022 25.8755 42.5872 26.6212 42.5757C26.891 42.5719 27.1609 42.5699 27.4308 42.568C27.7308 42.5658 28.0308 42.5636 28.3305 42.5589C28.4928 42.5563 28.6583 42.5492 28.8181 42.5192C30.0324 42.293 30.9018 41.5793 31.3845 40.3542C31.7524 39.4206 31.7737 38.4631 31.4435 37.5109C31.2124 36.8449 30.824 36.3078 30.2365 35.9545C29.8563 35.7266 29.4466 35.6171 29.0139 35.6215C28.6483 35.6249 28.2827 35.6332 27.917 35.6415C27.6091 35.6485 27.3012 35.6555 26.9932 35.6595C26.5221 35.666 26.0505 35.6685 25.5791 35.6711H25.5789H25.5786H25.5784H25.5781C25.3424 35.6723 25.1066 35.6736 24.8709 35.6754H24.6071C24.5707 36.027 24.5354 36.3757 24.5004 36.7224ZM31.7548 41.3459L31.7547 41.3467C31.7344 41.4966 31.7142 41.6466 31.6942 41.7966V41.7957C31.6719 41.9647 31.6452 42.1329 31.6181 42.3042L31.618 42.3046L31.618 42.3047C31.6043 42.3911 31.5905 42.4783 31.577 42.5669H34.4368C34.4418 42.5454 34.4468 42.5255 34.4515 42.5066L34.4516 42.506L34.4517 42.5059L34.4517 42.5058L34.4517 42.5058L34.4517 42.5058C34.4624 42.4628 34.4719 42.4252 34.477 42.3867L34.5065 42.1634L34.5066 42.1628L34.5066 42.1627L34.5066 42.1626L34.5066 42.1625C34.5521 41.82 34.5976 41.4769 34.6359 41.1333C34.7273 40.3134 34.8159 39.4929 34.9045 38.6728L34.9965 37.8227L35.0354 37.4622C35.086 36.9952 35.1365 36.5286 35.1808 36.0614C35.1835 36.0342 35.1871 36.0067 35.1907 35.979C35.2049 35.87 35.2195 35.7583 35.1784 35.6533C34.8981 35.6118 32.5472 35.625 32.3899 35.6719C32.3739 35.7962 32.3568 35.9212 32.3397 36.0467C32.3032 36.3134 32.2664 36.5825 32.2391 36.8528C32.1975 37.2621 32.1593 37.6717 32.121 38.0812C32.0704 38.6235 32.0197 39.1657 31.9613 39.7067C31.9022 40.2546 31.8285 40.8003 31.7548 41.3459ZM29.7883 27.6966C29.9563 27.6427 32.2999 27.6224 32.8791 27.6657C33.0569 28.1347 33.2388 28.6152 33.4347 29.1328C33.6009 28.9284 33.7188 28.7157 33.834 28.5078L33.8341 28.5075C33.8642 28.4532 33.8941 28.3992 33.9247 28.3458C34.0262 28.1679 34.1214 27.9854 34.2152 27.8056C34.257 27.7255 34.2985 27.646 34.3401 27.5676L37.2351 27.6666C37.1045 27.8716 36.96 28.0543 36.8174 28.2344L36.8174 28.2345L36.8173 28.2345L36.8172 28.2347C36.7461 28.3245 36.6756 28.4137 36.6074 28.5048C36.4541 28.7096 36.2964 28.9101 36.1385 29.1109L36.1384 29.1109L36.1384 29.111L36.1384 29.111L36.1383 29.1111C36.081 29.1839 36.0238 29.2567 35.9667 29.3298C35.752 29.6045 35.5373 29.8783 35.3226 30.1521C35.1593 30.3604 34.9965 30.5687 34.8273 30.7851L34.8243 30.7889L34.6654 30.9922C34.941 31.4853 35.2304 31.9694 35.521 32.4554C35.9253 33.1316 36.3319 33.8116 36.7066 34.5253C36.6898 34.5279 36.6741 34.5307 36.6593 34.5334L36.6351 34.538C36.5937 34.5459 36.5581 34.5527 36.5222 34.5527C36.1963 34.5533 35.8704 34.5533 35.5445 34.5533C34.9469 34.5532 34.3494 34.5531 33.7518 34.5571C33.6289 34.5571 33.5805 34.4944 33.533 34.3928C33.3185 33.9356 33.1009 33.4797 32.8835 33.024L32.8834 33.0239L32.8834 33.0237L32.8833 33.0236L32.8825 33.022L32.7734 32.7932C32.7602 32.7658 32.7432 32.741 32.7218 32.7098C32.71 32.6926 32.697 32.6735 32.6824 32.651C32.6224 32.7401 32.563 32.8273 32.5044 32.9133L32.5044 32.9134C32.3847 33.089 32.2683 33.2599 32.1555 33.4336C31.9458 33.7569 31.7401 34.0828 31.5377 34.4114C31.482 34.5006 31.4214 34.551 31.3156 34.551C30.6747 34.5491 30.0337 34.5494 29.3927 34.5498L28.6239 34.5501C28.6083 34.5501 28.5931 34.5469 28.5691 34.5419L28.569 34.5418C28.555 34.5389 28.5381 34.5354 28.5165 34.5315C28.7447 34.2133 28.9859 33.9241 29.2247 33.6378L29.2247 33.6378L29.2248 33.6377L29.2248 33.6376L29.2249 33.6376C29.3247 33.5179 29.4241 33.3987 29.5219 33.2781C29.7544 32.9913 29.9921 32.7097 30.2296 32.4281L30.2297 32.428L30.2297 32.428L30.2297 32.428L30.2298 32.4279C30.3346 32.3037 30.4394 32.1794 30.5438 32.0548C30.7757 31.7783 31.008 31.5022 31.2431 31.2229L31.2456 31.22L31.5762 30.827C30.9571 29.7959 30.3518 28.763 29.7883 27.6966ZM22.3955 27.6666C22.2381 29.9057 21.9423 32.1228 21.6244 34.3372L21.6236 34.3363C21.618 34.3777 21.6196 34.42 21.6213 34.4619V34.4619V34.462V34.462V34.4621V34.4621C21.622 34.4818 21.6228 34.5015 21.6228 34.5209C21.8137 34.5722 27.593 34.5651 27.7602 34.5094L27.8037 34.051C27.8437 33.6288 27.8845 33.1995 27.9265 32.7526H27.6766L26.713 32.7528H26.7129H26.7127H26.7125H26.7123C26.0705 32.753 25.4289 32.7532 24.7874 32.7526C24.7376 32.7526 24.6882 32.7488 24.6377 32.745C24.6109 32.7429 24.5839 32.7409 24.5563 32.7393C24.5301 32.4973 24.5456 32.2862 24.6366 32.0768C25.1994 32.0417 25.7605 32.0514 26.3229 32.0613H26.3229H26.323H26.323H26.323C26.7064 32.068 27.0903 32.0746 27.4759 32.0671C27.5057 31.7803 27.5349 31.4989 27.5639 31.2178L27.5644 31.2132L27.5649 31.2089L27.5652 31.2056C27.5972 30.8969 27.6291 30.5886 27.6619 30.274H24.8144L24.8451 30.0499L24.9176 29.5206H28.3649C28.3928 29.1862 28.4201 28.8578 28.4472 28.5304L28.4473 28.53L28.519 27.6666H22.3955ZM18.6786 27.6657H15.9475L15.6884 29.9228L15.688 29.9269L15.6869 29.9364L15.6791 30.004L15.6786 30.0085C15.5061 31.5115 15.3337 33.0134 15.1617 34.5139C15.3337 34.5624 20.7943 34.5739 21.0393 34.528C21.0742 34.1923 21.1091 33.8541 21.1447 33.5097L21.1451 33.5057L21.2065 32.9107H18.0345C18.1397 32.0548 18.2438 31.2071 18.3475 30.3619L18.3496 30.3447L18.3508 30.335C18.4601 29.4446 18.569 28.557 18.6786 27.6657ZM8.70397 30.6972C8.64402 31.2124 8.58408 31.7274 8.52193 32.242H8.52275C8.48233 32.5786 8.43029 32.9132 8.37807 33.2491L8.37806 33.2492L8.37805 33.2492L8.37805 33.2493L8.37804 33.2494C8.31171 33.6759 8.24509 34.1044 8.20154 34.5412H14.3398C14.421 34.1691 14.4615 33.7956 14.5028 33.4154C14.5265 33.1973 14.5504 32.9769 14.5823 32.7535H11.1875C11.1662 32.4973 11.1703 32.2791 11.294 32.0689H14.0686C14.0882 31.8781 14.1145 31.6904 14.1407 31.5036L14.1407 31.5035C14.1976 31.0979 14.2538 30.6967 14.2398 30.2776H11.4686C11.4309 30.0108 11.4669 29.7741 11.5382 29.5215H14.992C15.0453 28.8961 15.0969 28.2893 15.1494 27.671C15.0925 27.6662 15.0371 27.6609 14.9827 27.6556L14.9826 27.6556L14.9822 27.6556C14.8542 27.6432 14.7318 27.6313 14.6094 27.6295C13.445 27.6118 12.2798 27.595 11.1146 27.5871C10.7483 27.585 10.382 27.5949 10.0157 27.6049C9.90427 27.6079 9.79284 27.6109 9.68141 27.6136C9.55433 27.617 9.42726 27.6235 9.29407 27.6302H9.29403H9.29399H9.29395H9.29389L9.29347 27.6303C9.22244 27.6339 9.14966 27.6376 9.07422 27.6409C8.98704 28.2202 8.92178 28.7989 8.85663 29.3767L8.85662 29.3767L8.85653 29.3776L8.85646 29.3782C8.83533 29.5656 8.8142 29.7529 8.79234 29.9402C8.76271 30.1925 8.73334 30.4449 8.70397 30.6972ZM7.48222 41.3664C7.45145 41.571 7.42067 41.7757 7.39032 41.9803L7.39114 41.9812C7.37594 42.0828 7.36097 42.1844 7.34587 42.2869C7.33247 42.3778 7.31897 42.4694 7.3051 42.5624H9.55194L10.1018 38.1866C10.2442 39.1668 10.3145 40.1518 10.3848 41.137C10.4188 41.614 10.4529 42.0911 10.4951 42.5677H12.8755C13.3712 41.1403 13.8686 39.7094 14.366 38.2793L14.4045 38.2891C14.329 38.9123 14.2533 39.5356 14.1774 40.1601L14.177 40.1632L14.1742 40.1863L14.1722 40.2025C14.077 40.9863 13.9815 41.7721 13.8858 42.5624H16.1835C16.4858 40.9138 16.6324 39.2538 16.7799 37.5829V37.5829C16.8371 36.9351 16.8945 36.2857 16.9611 35.6348H16.7071H14.3685C14.3014 35.6348 14.2343 35.6352 14.1672 35.6356H14.167H14.1669C13.9986 35.6367 13.8299 35.6378 13.6613 35.6321C13.5343 35.6277 13.4556 35.6595 13.4106 35.8026C13.3721 35.9244 13.3251 36.0431 13.278 36.1617C13.2429 36.2503 13.2078 36.3389 13.1762 36.4288C13.005 36.916 12.8343 37.4036 12.6637 37.8911C12.493 38.3787 12.3224 38.8663 12.1511 39.3534C12.1454 39.3697 12.1407 39.3868 12.1361 39.404C12.1219 39.4559 12.1078 39.5075 12.0659 39.5327C12.0555 39.3353 12.0457 39.1382 12.036 38.9415L12.036 38.9414L12.036 38.9414L12.036 38.9413L12.036 38.9412L12.0359 38.9411L12.0359 38.941L12.0359 38.941C12.0136 38.4892 11.9913 38.0392 11.961 37.5895C11.9309 37.1421 11.8924 36.6951 11.8541 36.2506L11.8541 36.2506L11.8541 36.2505L11.8541 36.2504L11.8541 36.2504C11.8373 36.0552 11.8205 35.8606 11.8045 35.6666C11.5988 35.6197 8.29332 35.625 8.12943 35.6719L8.11985 35.7389C8.11162 35.7957 8.10309 35.8546 8.09666 35.9139C8.07186 36.1457 8.04848 36.3781 8.02508 36.6105L8.02505 36.6108L8.00242 36.8352L7.96421 37.2141C7.91698 37.682 7.86978 38.1495 7.82461 38.6176C7.81191 38.7488 7.80156 38.8802 7.7912 39.0117C7.77282 39.245 7.75445 39.4783 7.723 39.7094C7.64827 40.2623 7.56526 40.8143 7.48223 41.3663L7.48222 41.3664ZM6.41276 50.4874C6.56435 50.5342 8.97671 50.5421 9.18812 50.4944V50.4953L9.32188 49.4766C9.47685 48.2968 9.63215 47.1145 9.78547 45.9322C9.85746 45.3772 9.92536 44.8217 9.99323 44.2664L9.99327 44.2661C10.0165 44.0756 10.0398 43.8852 10.0633 43.6948C10.0664 43.6643 10.0655 43.6331 10.0645 43.596L10.0645 43.596C10.0639 43.5751 10.0633 43.5524 10.0633 43.527H7.31084L6.9102 46.6324C6.74426 47.9191 6.57863 49.2034 6.41276 50.4874ZM14.5556 50.5242L14.6782 50.5236L14.6774 50.5227C14.7004 50.5227 14.7234 50.518 14.7547 50.5116L14.7548 50.5116C14.7725 50.508 14.7929 50.5039 14.8175 50.4997C14.0415 49.3152 13.3606 48.1007 12.6969 46.8676C13.613 45.7626 14.525 44.662 15.4624 43.5305C15.4335 43.5263 15.412 43.5227 15.3951 43.5198C15.3694 43.5154 15.3543 43.5129 15.3395 43.5129C15.0124 43.5126 14.6853 43.5126 14.358 43.5126C13.7031 43.5126 13.048 43.5126 12.3929 43.5102C12.2896 43.5102 12.2265 43.5526 12.1642 43.6383C11.9436 43.9436 11.7204 44.246 11.4971 44.5487L11.4966 44.5494C11.3866 44.6984 11.2767 44.8474 11.167 44.9968C11.0225 45.1935 10.8784 45.3906 10.7344 45.5876L10.7336 45.5886C10.4492 45.9777 10.1648 46.3666 9.87725 46.7528C9.79776 46.8588 9.7781 46.9445 9.84037 47.0725C9.92145 47.2376 9.99577 47.4064 10.0701 47.5752C10.1303 47.7118 10.1904 47.8485 10.2542 47.9832C10.4616 48.4213 10.6708 48.8584 10.88 49.2954L10.88 49.2955L10.88 49.2955L10.8801 49.2956L10.8801 49.2957C11.0542 49.6595 11.2283 50.0232 11.4014 50.3875C11.4489 50.4874 11.5112 50.5351 11.6185 50.5262C11.8004 50.5112 11.9831 50.4971 12.1659 50.4988C12.4103 50.5011 12.6547 50.5063 12.8992 50.5115L12.8998 50.5115L12.9004 50.5115L12.901 50.5115L12.9016 50.5115C13.1269 50.5163 13.3522 50.521 13.5777 50.5236C13.9034 50.5275 14.2283 50.5258 14.5538 50.5242H14.5543H14.5547H14.5552H14.5556ZM21.2467 50.0307C21.7211 49.7798 22.1456 49.4583 22.4987 49.0308V49.0317C23.1321 48.2632 23.3821 47.3578 23.3247 46.3456C23.2936 45.7944 23.0928 45.3086 22.7732 44.8811C22.3209 44.2778 21.7195 43.9262 21.041 43.709C20.4346 43.5146 19.8135 43.436 19.1801 43.4387C19.0918 43.4446 19.0034 43.45 18.9151 43.4553C18.7164 43.4672 18.5176 43.4792 18.3197 43.4987C17.5159 43.5782 16.753 43.8123 16.0475 44.2398C15.3296 44.6744 14.7479 45.2583 14.3963 46.0744C14.1276 46.698 14.0415 47.3517 14.18 48.0292C14.3488 48.855 14.7815 49.4857 15.4296 49.9503C16.1441 50.4617 16.9488 50.6517 17.7887 50.6896C18.1529 50.7061 18.5187 50.6861 18.883 50.6662H18.8831H18.8831H18.8832L18.8834 50.6662L18.9064 50.6649C19.725 50.6216 20.5084 50.4211 21.2467 50.0307ZM30.5702 47.8686C30.4505 48.7463 30.3306 49.626 30.2602 50.5236L30.2594 50.5245C30.5348 50.5239 30.8073 50.5246 31.0773 50.5254H31.0778H31.0782H31.0787H31.0796H31.0799H31.0802H31.0805C31.6359 50.5269 32.1807 50.5284 32.7193 50.5183L33.5305 43.5296C33.5054 43.5263 33.486 43.5234 33.4704 43.521C33.4443 43.517 33.4284 43.5146 33.4125 43.5146C33.0705 43.5144 32.7285 43.5143 32.3864 43.5143C31.5886 43.5143 30.7909 43.5142 29.9931 43.5111C29.8718 43.5102 29.8202 43.5641 29.7792 43.6772C29.5858 44.2144 29.3905 44.7514 29.1952 45.2884L29.1949 45.2891L29.1947 45.2898L29.1944 45.2905L29.1942 45.2912L29.1935 45.293C29.0509 45.685 28.9083 46.0771 28.7664 46.4693C28.684 46.6971 28.6043 46.9262 28.5246 47.1551C28.4878 47.2608 28.4511 47.3664 28.4141 47.4718C28.3299 46.6543 28.2965 45.8352 28.2632 45.0156C28.243 44.5191 28.2227 44.0226 28.1912 43.5261H24.2728C24.2332 43.8787 24.1944 44.2303 24.1557 44.5811L24.1555 44.5831L24.1553 44.5844C24.0652 45.4016 23.9755 46.215 23.877 47.0275C23.7788 47.8345 23.672 48.6406 23.5646 49.45L23.5645 49.4507C23.5178 49.8034 23.4709 50.1568 23.4247 50.5112H25.7961L26.3426 46.1327C26.3548 46.1336 26.3679 46.1336 26.381 46.1336H26.3811C26.5098 47.5928 26.6605 49.0494 26.8187 50.5103H29.2351C29.2891 50.3517 29.3422 50.1941 29.3949 50.0372C29.5064 49.706 29.6166 49.3784 29.7317 49.0529C29.8981 48.5794 30.0734 48.1086 30.2488 47.6387C30.3743 47.3014 30.5024 46.9654 30.6306 46.6292L30.6306 46.6291C30.6806 46.4979 30.7307 46.3666 30.7806 46.2352C30.7185 46.7813 30.6444 47.3245 30.5702 47.8684L30.5702 47.8685L30.5702 47.8685L30.5702 47.8686L30.5702 47.8686ZM38.8494 47.8649C39.6532 47.5195 40.235 46.9374 40.4702 46.017L40.4726 46.0161C40.6398 45.3607 40.5578 44.7389 40.1555 44.1992C39.795 43.716 39.2951 43.5182 38.7355 43.5146C37.7072 43.5078 36.679 43.5093 35.6507 43.5107C35.2179 43.5114 34.7852 43.512 34.3524 43.512C34.3055 43.512 34.2586 43.5148 34.2101 43.5176L34.1541 43.5208C34.0091 44.7626 33.8652 45.9972 33.7217 47.2283L33.7101 47.328L33.7083 47.3435C33.5855 48.397 33.4631 49.448 33.3404 50.4988C33.633 50.5474 35.7872 50.5315 35.924 50.4821C36.1256 48.7552 36.3272 47.0275 36.5296 45.2892C36.7959 45.2874 37.0442 45.2883 37.2826 45.3696C37.3916 45.4067 37.5047 45.4641 37.5907 45.5444C37.7931 45.7326 37.8316 45.987 37.6374 46.2096C37.4023 46.4781 37.1212 46.5841 36.7836 46.4781C36.7443 46.4657 36.7047 46.4561 36.6613 46.4456L36.6241 46.4365L36.5927 46.4286L36.5973 46.4553L36.6022 46.4856C36.6066 46.5136 36.61 46.5352 36.6156 46.5558C36.6645 46.7315 36.7138 46.907 36.7631 47.0825C36.8388 47.3519 36.9146 47.6213 36.9885 47.8914C37.0368 48.0698 37.0524 48.0963 37.2294 48.106C37.7833 48.136 38.329 48.0874 38.8494 47.8649ZM49.0733 45.4149C49.1081 45.1384 49.1429 44.8619 49.1765 44.5852H49.1748C49.2034 44.3481 49.2285 44.1105 49.2535 43.8734L49.2677 43.74L49.2887 43.5438C49.0921 43.497 46.5134 43.5023 46.3487 43.5482C46.3463 43.5598 46.3436 43.5717 46.3408 43.5837L46.3366 43.602C46.3273 43.6418 46.3177 43.6834 46.3126 43.7257L46.2477 44.2719L46.2476 44.2727C46.1086 45.4425 45.9696 46.6119 45.8349 47.7827C45.8078 48.0194 45.7226 48.2199 45.5604 48.3736C45.3465 48.5759 45.0892 48.6775 44.8032 48.6625C44.4304 48.643 44.1018 48.3851 44.0248 48.0362C43.992 47.8896 43.9953 47.7288 44.0101 47.5769C44.0639 47.0112 44.1241 46.4461 44.1842 45.8811L44.2288 45.4614C44.2533 45.229 44.2784 44.9963 44.3035 44.7635C44.3296 44.5213 44.3558 44.279 44.3812 44.0367C44.3933 43.9257 44.4028 43.8151 44.4126 43.7001C44.4175 43.6431 44.4225 43.585 44.428 43.5252H41.5526C41.5479 43.5535 41.543 43.5806 41.5381 43.607C41.5286 43.6592 41.5195 43.7086 41.5141 43.7584C41.4835 44.0283 41.4536 44.2982 41.4237 44.5681L41.3789 44.9721L41.3025 45.6628C41.2515 46.1233 41.2005 46.5838 41.1503 47.0443L41.1315 47.2149C41.091 47.5836 41.0505 47.9519 41.0143 48.3215C40.9766 48.7093 41.0249 49.0759 41.2314 49.4115C41.3986 49.6827 41.6247 49.8779 41.8787 50.0422C42.236 50.2736 42.6301 50.4043 43.0341 50.4944C43.7355 50.6508 44.4443 50.6826 45.1597 50.6278C45.8292 50.5766 46.4798 50.4467 47.1132 50.21C47.6007 50.028 48.0531 49.7816 48.4079 49.3647C48.5717 49.1721 48.6766 48.946 48.7053 48.6872C48.7395 48.3799 48.7712 48.0722 48.8028 47.7646C48.841 47.394 48.8791 47.0235 48.9216 46.6539C48.9692 46.2409 49.0212 45.8283 49.0732 45.4155L49.0732 45.4154L49.0732 45.4152L49.0732 45.4151L49.0733 45.4149ZM51.3889 50.5139H54.3404H54.3413C54.3623 50.2923 54.383 50.071 54.4037 49.85C54.5468 48.3208 54.6887 46.8054 54.9157 45.2865H57.21C57.2232 45.0774 57.2436 44.8712 57.2639 44.6659L57.2639 44.6658L57.264 44.6657L57.264 44.6656L57.264 44.6654C57.3015 44.2858 57.3387 43.9095 57.3297 43.5243H49.9647C49.8738 44.1056 49.8279 44.6832 49.7853 45.2848H52.0149C51.831 46.4405 51.7081 47.5935 51.5852 48.7472L51.5852 48.7473L51.5851 48.7477L51.5851 48.7481L51.5851 48.7485L51.585 48.7489C51.5224 49.3369 51.4597 49.9251 51.3889 50.5139ZM57.1273 50.4944C57.3174 50.5368 59.8969 50.5271 60.0141 50.4891H60.0149L60.2556 48.3513C60.436 46.7482 60.6167 45.1429 60.7983 43.5288H57.8705L57.1273 50.4944ZM63.7523 46.7378C64.4119 48.0009 65.0371 49.2366 65.5755 50.5086V50.5068H68.9613C69.2006 48.1767 69.4382 45.8607 69.675 43.5482C69.4759 43.4961 67.2823 43.4996 67.1184 43.5482C67.0705 43.9277 67.0316 44.309 66.9927 44.691L66.9926 44.6919V44.692C66.9045 45.5571 66.816 46.4257 66.621 47.2845L66.534 47.0894C66.4585 46.9206 66.383 46.7517 66.3097 46.5814C65.8868 45.6045 65.423 44.6497 64.9257 43.7134C64.8421 43.557 64.7478 43.5067 64.5848 43.5084C63.9245 43.514 63.2643 43.5135 62.604 43.513C62.3211 43.5128 62.0382 43.5126 61.7553 43.5129C61.7151 43.5129 61.6748 43.5176 61.638 43.522L61.6132 43.5249L61.5931 43.527C61.3779 45.5037 61.1645 47.4678 60.9514 49.4293L60.9502 49.4404L60.8359 50.4918C61.031 50.5457 63.2147 50.5359 63.3786 50.4732C63.5015 49.249 63.6252 48.0124 63.7523 46.7378ZM75.8575 50.0696C76.4803 49.6588 76.9178 49.0759 77.2079 48.3595C77.5799 47.44 77.661 46.4958 77.371 45.5356C77.1382 44.7654 76.7015 44.1745 76.0066 43.8229C75.5871 43.61 75.1397 43.5597 74.6882 43.557C73.6904 43.5519 72.6922 43.5528 71.6939 43.5537C71.3099 43.554 70.9259 43.5544 70.5419 43.5544H70.3182L70.0664 45.8755L70.0545 45.9857L70.0306 46.2059L70.0226 46.2798L70.0065 46.428C69.8566 47.8096 69.7072 49.1863 69.557 50.5686C69.5681 50.5694 69.5789 50.5702 69.5895 50.5711L69.6231 50.5741C69.6626 50.5776 69.7 50.581 69.7373 50.581C70.1088 50.5812 70.4803 50.5817 70.8518 50.5822C71.9672 50.5837 73.0825 50.5852 74.1982 50.5792C74.7914 50.5757 75.3486 50.4052 75.8575 50.0696ZM71.4195 42.127H77.9634H77.9642L77.9775 42.0698L77.9897 42.0178C78.009 41.9357 78.0277 41.856 78.0437 41.7754L78.2599 40.6693C78.3925 39.9909 78.525 39.3125 78.6583 38.6344C78.7521 38.1557 78.8463 37.6772 78.9406 37.1986C79.0348 36.7201 79.129 36.2416 79.2228 35.7628C79.3185 35.2729 79.4138 34.7827 79.509 34.2926C79.6039 33.8045 79.6987 33.3164 79.794 32.8285C79.9692 31.9297 80.1458 31.0314 80.3224 30.1332L80.3247 30.1217L80.4913 29.2742C80.5506 28.9729 80.6092 28.6713 80.6678 28.3698C80.802 27.6793 80.9362 26.9886 81.0788 26.3001C81.2132 25.6518 81.3033 25.0034 81.2853 24.3339C81.2747 23.9364 81.246 23.5495 81.146 23.1671C81.1313 23.1114 81.1197 23.0547 81.1081 22.998L81.1081 22.9979L81.1081 22.9978L81.108 22.9977L81.108 22.9976C81.0957 22.9374 81.0834 22.8772 81.0673 22.8182C81.0555 22.7752 81.0451 22.731 81.0348 22.6867C81.0063 22.5653 80.9776 22.4432 80.9182 22.3429C80.6625 21.9086 80.394 21.4831 80.1255 21.0573L80.1252 21.0569L79.971 20.8122C79.9357 20.7557 79.889 20.7009 79.8366 20.6647C79.6956 20.5675 79.5561 20.4679 79.4165 20.3682C78.9575 20.0405 78.4984 19.7127 77.9888 19.4722C77.9555 19.4565 77.9224 19.4405 77.8894 19.4244C77.8706 19.4153 77.8518 19.4061 77.833 19.3969L77.8328 19.3968L77.8327 19.3967L77.8325 19.3966C77.5825 19.2742 77.3346 19.1528 77.053 19.1163C76.8418 19.0886 76.6325 19.0469 76.4149 19.0036L76.4148 19.0035C76.3134 18.9834 76.2102 18.9628 76.1041 18.9431C75.4778 22.0447 74.8512 25.1433 74.2248 28.2415L74.2244 28.2436L74.2199 28.2656L74.2105 28.3125L74.1951 28.3887C73.2695 32.9664 72.3441 37.5433 71.4195 42.127ZM85.7552 49.6756C86.2428 49.3196 86.6476 48.8745 86.9442 48.3224H86.9458C87.2392 47.7765 87.3515 47.1909 87.3392 46.5593C87.3236 45.7935 87.0474 45.1629 86.5501 44.6426C86.0289 44.0976 85.3816 43.7999 84.6818 43.6268C84.1246 43.489 83.5592 43.4351 83.0446 43.4563C82.2825 43.4413 81.5942 43.5553 80.9248 43.7955C79.9603 44.1418 79.154 44.723 78.5878 45.6504C78.1756 46.3262 78.0167 47.0717 78.1355 47.8693C78.2846 48.87 78.8238 49.5855 79.6227 50.0837C80.2758 50.4909 80.9961 50.6578 81.7417 50.6896C82.1531 50.7064 82.5661 50.6914 82.9774 50.664C83.982 50.5978 84.917 50.2877 85.7552 49.6756ZM82.6652 45.3536C83.1626 45.2909 83.601 45.4402 83.9722 45.7873L83.973 45.7865C84.3483 46.1371 84.5105 46.5779 84.4081 47.1273C84.345 47.4665 84.2582 47.7836 84.05 48.0503C83.7657 48.4151 83.3969 48.6351 82.9717 48.7375C82.7562 48.7897 82.5325 48.8241 82.312 48.8303C81.636 48.8497 81.1698 48.3568 81.11 47.6299C81.1029 47.5418 81.1045 47.4529 81.1063 47.3469V47.3467V47.3466V47.3465V47.3464C81.1073 47.2921 81.1083 47.2334 81.1083 47.1679C81.042 46.7828 81.1886 46.4065 81.4426 46.0726C81.7581 45.6575 82.1654 45.4164 82.6652 45.3536ZM18.9031 45.3377C18.4189 45.3404 17.9887 45.5559 17.6224 45.8995C17.1455 46.3482 16.9718 46.9259 17.0472 47.5892C17.0955 48.0185 17.2733 48.3807 17.6298 48.6147C17.8821 48.7808 18.1583 48.8488 18.4549 48.8479C18.4992 48.8425 18.5436 48.8378 18.588 48.8332C18.6863 48.8229 18.7844 48.8127 18.881 48.7932C19.6021 48.6457 20.2822 48.0547 20.3535 47.2077C20.356 47.1803 20.3601 47.1511 20.3699 47.1255C20.5059 46.7536 20.4346 46.403 20.2527 46.0779C19.9479 45.5338 19.4579 45.3351 18.9039 45.3377H18.9031ZM73.1874 45.5775C73.4144 45.5729 73.6422 45.5682 73.8679 45.5886H73.8671C74.1113 45.6107 74.2686 45.8121 74.3776 46.0364C74.5398 46.3685 74.6062 46.7236 74.5464 47.0981C74.4743 47.5477 74.3383 47.9682 74.0662 48.3277C73.8917 48.5582 73.6778 48.6881 73.3918 48.6828C73.2443 48.6798 73.0963 48.6902 72.9485 48.7006C72.8747 48.7058 72.801 48.711 72.7273 48.7146C72.6896 48.7163 72.6519 48.7157 72.6145 48.7152H72.6143H72.6141C72.5955 48.7149 72.577 48.7146 72.5585 48.7146C72.5421 48.4337 72.8232 45.8324 72.8953 45.5815C72.9922 45.5815 73.0895 45.5795 73.187 45.5775L73.1874 45.5775ZM27.6291 40.84C27.7823 40.8365 27.9208 40.7782 28.0478 40.681C28.3616 40.4425 28.5411 40.1042 28.6591 39.7244C28.8394 39.1441 28.8123 38.5735 28.5395 38.0302C28.4067 37.7652 28.1945 37.6142 27.9028 37.6186C27.8023 37.6198 27.7022 37.6194 27.602 37.619H27.6019C27.5518 37.6188 27.5016 37.6186 27.4513 37.6186H27.094L26.7072 40.8179C26.7243 40.822 26.7383 40.8259 26.7505 40.8293C26.7729 40.8355 26.7888 40.84 26.8048 40.84L26.9419 40.841H26.9424C27.1713 40.8427 27.4005 40.8444 27.6291 40.84ZM41.041 39.127L41.1183 39.3561C40.6894 39.3634 40.2706 39.3616 39.8354 39.3598C39.7443 39.3594 39.6525 39.359 39.5598 39.3587C39.8556 38.7245 40.1629 38.1354 40.5054 37.5391C40.6869 38.0781 40.8608 38.5934 41.041 39.127Z" fill="#ED1C24"/>
</g>
<defs>
<clipPath id="clip0_3792_3645">
<rect width="92" height="56" fill="white"/>
</clipPath>
</defs>
</svg>
