<svg width="73" height="44" viewBox="0 0 73 44" fill="none" xmlns="http://www.w3.org/2000/svg">
<g clip-path="url(#clip0_3792_226)">
<rect width="72.2857" height="44" fill="white"/>
<path fill-rule="evenodd" clip-rule="evenodd" d="M72.2851 0.216533V43.7293L72.2852 43.7498L72.2855 43.7738C72.2859 43.8034 72.2864 43.833 72.2851 43.8626C72.2834 43.8893 72.2805 43.9156 72.2773 43.9449C72.2755 43.9621 72.2735 43.9802 72.2716 44H72.0327H0.200874C0.167395 44 0.133916 43.9995 0.100437 43.999L0.0997093 43.999C0.0664728 43.9984 0.0332364 43.9979 0 43.9979V0H72.2831L72.2839 0.072462C72.2845 0.120486 72.2851 0.16851 72.2851 0.216533ZM55.5507 15.4773C55.2822 15.3274 55.0028 15.1983 54.7208 15.0789L54.7202 15.0782C54.5642 15.0125 54.4033 14.9595 54.2355 14.9042L54.2354 14.9042L54.2348 14.904C54.1584 14.8788 54.0805 14.8531 54.001 14.8256C52.7732 20.92 51.5498 26.9902 50.3264 33.0603L50.3228 33.0783C50.4484 33.1129 55.0788 33.1206 55.2629 33.0887C55.2662 33.0778 55.2698 33.0665 55.2735 33.055C55.2824 33.0275 55.2918 32.9984 55.2977 32.9686C55.3187 32.8645 55.3386 32.7597 55.3585 32.655C55.3684 32.6026 55.3784 32.5503 55.3885 32.4981C55.5842 31.4751 55.7806 30.4514 55.9769 29.4284L56.113 28.7219C56.2043 28.2481 56.2957 27.7743 56.3864 27.3006C56.4321 27.0618 56.4776 26.8231 56.5231 26.5842C56.6098 26.1294 56.6965 25.6745 56.7843 25.2199C56.8906 24.6682 56.9976 24.1165 57.1047 23.5647L57.1048 23.5645L57.1048 23.5644L57.1048 23.5643L57.1048 23.5642L57.1049 23.5639C57.1911 23.1198 57.2773 22.6757 57.3631 22.2315L57.3856 22.1147L57.3864 22.1106L57.3884 22.1005L57.3908 22.0882L57.3926 22.0787C57.5031 21.5065 57.6136 20.9348 57.7223 20.3625C57.7317 20.313 57.7419 20.2637 57.7521 20.2143L57.7521 20.2142C57.7832 20.0632 57.8144 19.9121 57.8221 19.7594C57.8346 19.5203 57.8313 19.2805 57.8281 19.0405V19.0404L57.8281 19.039C57.8269 18.9576 57.8258 18.8761 57.8254 18.7947C57.8247 18.7343 57.8176 18.6732 57.8047 18.6142L57.7695 18.4525C57.712 18.1886 57.6546 17.9249 57.591 17.6627C57.564 17.5517 57.5292 17.4351 57.4706 17.3414C57.435 17.2846 57.3997 17.2274 57.3645 17.1702C57.0797 16.7082 56.7944 16.2453 56.3149 15.9742C56.3119 15.9726 56.3092 15.9704 56.3065 15.968L56.3021 15.9639L56.3021 15.9638L56.3021 15.9638C56.2999 15.9617 56.2978 15.9597 56.2955 15.9578L56.2934 15.9561L56.2905 15.9541C56.2158 15.9054 56.1418 15.8554 56.0677 15.8055L56.0677 15.8054C55.898 15.6909 55.7282 15.5763 55.5507 15.4773ZM34.8658 8.41635H34.6527V8.41496C34.3409 9.96171 34.03 11.5022 33.7146 13.0651L33.5724 13.77H33.779H52.6522L52.6763 13.7699L52.714 13.7696C52.7346 13.7695 52.7552 13.7693 52.7758 13.7693C52.8357 13.77 52.873 13.7422 52.8833 13.6763L52.9246 13.4152C52.9522 13.2406 52.9799 13.066 53.0069 12.8914C53.0108 12.865 53.0095 12.8358 53.0044 12.8088C52.9782 12.6663 52.9562 12.5229 52.9342 12.3795V12.3795L52.9342 12.3794C52.8759 12.0002 52.8176 11.6209 52.6831 11.2583C52.546 10.8891 52.396 10.5359 52.0934 10.2846C52.0624 10.2594 52.0388 10.2237 52.0154 10.1882C52.0086 10.1779 52.0018 10.1676 51.9949 10.1576C51.7013 9.7329 51.3427 9.39214 50.8933 9.16936C50.6727 9.05993 50.4527 8.94989 50.2327 8.83986L50.2313 8.83916L49.9005 8.67383C49.5509 8.49894 49.1852 8.41426 48.797 8.41426C45.186 8.41696 41.5755 8.41672 37.9648 8.41648H37.9647H37.9647H37.9646H37.961L34.8658 8.41635ZM33.5956 14.7729H33.423H33.4224C32.9968 16.5246 32.5744 18.2617 32.1457 20.0252H46.9273L45.5052 26.7363L44.1833 32.9741H49.2309L49.2468 32.903L49.2469 32.9023L49.2472 32.9014C49.2588 32.8494 49.2696 32.8011 49.2798 32.7528L49.9558 29.5159C50.234 28.1827 50.5115 26.8501 50.789 25.5176C50.9232 24.8725 51.0576 24.2276 51.192 23.5827C51.3264 22.9378 51.4608 22.2929 51.595 21.6478C51.6138 21.5577 51.6349 21.4679 51.656 21.3781C51.7045 21.1718 51.753 20.9654 51.7727 20.756C51.8114 20.3416 51.8745 19.9343 51.9562 19.529C52.0058 19.2798 52.0522 19.0313 51.9897 18.7746C51.9782 18.7273 51.9744 18.6779 51.9705 18.6285L51.9705 18.6284C51.967 18.5836 51.9635 18.5388 51.9543 18.4956C51.9086 18.2804 51.8609 18.066 51.8043 17.8543C51.7818 17.7697 51.7543 17.6868 51.7268 17.6039L51.7267 17.6038C51.6992 17.5208 51.6716 17.4379 51.6491 17.3532C51.5622 17.0291 51.4392 16.73 51.2087 16.4912C51.1335 16.4134 51.0618 16.3319 50.9901 16.2502L50.99 16.2502L50.99 16.2501L50.99 16.2501L50.9899 16.25C50.9382 16.1912 50.8865 16.1323 50.8334 16.0748C50.6441 15.8701 50.4342 15.6903 50.1954 15.5599C49.7743 15.3295 49.3494 15.1025 48.8955 14.954C48.6006 14.8568 48.3006 14.7735 47.989 14.7735C43.1912 14.7729 38.3934 14.7729 33.5956 14.7729ZM45.9783 21.1398H32.0581V21.1391C31.9589 21.4201 30.7962 26.4441 30.8026 26.5836H31.0125H44.2934H44.3706H44.3707C44.5136 26.5816 44.5142 26.5815 44.5522 26.4407L44.7854 25.5785L44.7922 25.5532L44.8161 25.4649L44.8322 25.4053C45.1683 24.1627 45.5043 22.9204 45.8399 21.6776C45.8731 21.5549 45.9044 21.4312 45.937 21.3025L45.9783 21.1398ZM30.8129 28.0508C30.7415 28.0508 30.7022 28.0834 30.6687 28.1486L30.6668 28.148C30.5889 28.2979 30.5058 28.4443 30.4221 28.59C30.3065 28.7913 30.1912 28.9928 30.0758 29.1942C29.7297 29.7984 29.3836 30.4025 29.0321 31.0031C28.7167 31.5418 28.3963 32.0767 28.076 32.6117L28.0757 32.6122L28.0746 32.6139L28.0736 32.6157C27.9324 32.8514 27.7912 33.0872 27.6505 33.3232C27.6215 33.3725 27.5919 33.4225 27.5468 33.4981C27.5746 33.4993 27.5991 33.5005 27.6215 33.5017L27.6217 33.5017C27.6658 33.5039 27.7018 33.5058 27.738 33.5058H29.6528C29.6708 33.5058 29.6888 33.505 29.7068 33.5043C29.7352 33.5031 29.7635 33.502 29.7918 33.5037C29.8517 33.5072 29.8865 33.4808 29.9116 33.4225C29.9566 33.317 30.0049 33.2122 30.0564 33.1102C30.1525 32.9202 30.2501 32.731 30.3461 32.5448L30.3462 32.5446L30.3466 32.5438C30.39 32.4596 30.4331 32.376 30.4756 32.2933H32.548C32.6343 32.6979 32.7193 33.0956 32.8056 33.4974C32.8223 33.4985 32.8381 33.4997 32.8534 33.5008L32.8537 33.5008C32.8887 33.5034 32.9206 33.5058 32.9524 33.5058C33.6265 33.503 34.2999 33.4995 34.974 33.4954C34.9785 33.4954 34.983 33.4905 34.9862 33.487C34.9888 33.4843 34.9905 33.4809 34.9944 33.4732L35.0023 33.4579C34.6296 32.1029 34.1955 30.7638 33.76 29.4206L33.7599 29.4203C33.614 28.9701 33.4679 28.5194 33.3239 28.0674C33.3165 28.065 33.3105 28.0628 33.3054 28.0609C33.2959 28.0573 33.2896 28.055 33.2833 28.055C33.0091 28.0545 32.7348 28.0542 32.4606 28.0539C31.9114 28.0533 31.3622 28.0526 30.8129 28.0508ZM16.9871 30.0274C16.6104 30.0277 16.2346 30.028 15.8575 30.0253H15.8549C15.8549 29.9904 15.8545 29.9577 15.8541 29.9266V29.9266C15.8534 29.8588 15.8526 29.7986 15.8562 29.7386C15.8598 29.6732 15.868 29.6081 15.8771 29.5362L15.8771 29.5362L15.8771 29.5361L15.8771 29.5361C15.8808 29.5066 15.8846 29.476 15.8884 29.4437H18.5918L18.6392 29.0199C18.6769 28.6834 18.7143 28.3489 18.7534 27.9974H18.5474H16.1382L15.6094 27.9973C15.0804 27.9971 14.5513 27.997 14.0226 27.998C13.9839 27.998 13.9452 28.0029 13.9014 28.0084C13.8788 28.0112 13.8548 28.0142 13.8288 28.0168C13.8095 28.2489 13.7905 28.4793 13.7717 28.7086L13.7709 28.7183L13.7708 28.7194C13.7314 29.1981 13.6924 29.6719 13.6517 30.1453C13.6467 30.2048 13.6418 30.2643 13.637 30.3238L13.637 30.3238L13.637 30.3239L13.637 30.3239L13.637 30.3239C13.6172 30.5673 13.5974 30.8108 13.5622 31.0517C13.5042 31.4483 13.4406 31.844 13.3769 32.2398L13.3769 32.2398L13.3768 32.2398L13.3768 32.2399L13.3768 32.2399C13.338 32.4813 13.2991 32.7228 13.2616 32.9644C13.2449 33.0726 13.2333 33.1822 13.2214 33.294C13.2163 33.3422 13.2112 33.3907 13.2055 33.4398H18.1212C18.2049 32.9707 18.2725 32.5098 18.3259 32.0449H16.9385C16.7873 32.0449 16.6362 32.0485 16.4847 32.0521H16.4847H16.4846H16.4846H16.4846H16.4845H16.4844H16.4844H16.4843C16.1804 32.0593 15.8751 32.0666 15.5658 32.0449C15.6089 31.8249 15.6476 31.6257 15.6894 31.4098C15.8171 31.4098 15.9445 31.41 16.0717 31.4101C16.3255 31.4104 16.5785 31.4108 16.8316 31.4098C17.0858 31.4089 17.3401 31.4067 17.593 31.4045L17.9609 31.4015C18.0089 30.9939 18.0554 30.6008 18.1031 30.1982L18.1231 30.0294C17.7423 30.0267 17.3649 30.027 16.9885 30.0274H16.9882H16.9878H16.9874H16.9871ZM19.2503 28.8533C19.1849 29.5005 19.1204 30.1383 19.047 30.7748H19.0463C18.9738 31.4029 18.8926 32.0297 18.8109 32.6602L18.8109 32.6603L18.8109 32.6605L18.8109 32.6606L18.8109 32.6608C18.775 32.9372 18.7391 33.2143 18.7038 33.4926C18.715 33.494 18.7264 33.4959 18.7378 33.4977H18.7378H18.7378H18.7379C18.7651 33.5022 18.7927 33.5067 18.8204 33.5058C18.8687 33.5037 18.917 33.5001 18.9653 33.4965C19.0296 33.4916 19.094 33.4868 19.1584 33.4856C19.7449 33.4731 20.3308 33.4613 20.9167 33.4523C21.1287 33.4494 21.3409 33.4478 21.553 33.4463C21.7886 33.4445 22.0243 33.4428 22.2597 33.4391C22.3872 33.4371 22.5172 33.4315 22.6428 33.4079C23.5969 33.2302 24.28 32.6695 24.6592 31.7069C24.9483 30.9733 24.965 30.221 24.7056 29.4728C24.524 28.9495 24.2189 28.5276 23.7572 28.25C23.4585 28.0709 23.1366 27.9849 22.7966 27.9883C22.5094 27.991 22.2221 27.9975 21.9348 28.004C21.6928 28.0095 21.4509 28.015 21.209 28.0182C20.8388 28.0233 20.4683 28.0253 20.098 28.0273H20.0978H20.0976H20.0974H20.0972C19.9119 28.0283 19.7266 28.0293 19.5414 28.0307H19.3341C19.3055 28.3069 19.2778 28.5809 19.2503 28.8533ZM24.9502 32.486C24.9343 32.6041 24.9183 32.7221 24.9026 32.8402V32.8395C24.8851 32.9722 24.8641 33.1043 24.8428 33.2389L24.8428 33.239L24.8428 33.2391L24.8428 33.2392L24.8427 33.2394C24.832 33.3073 24.8211 33.3758 24.8105 33.4454H27.0575C27.0597 33.4357 27.062 33.4265 27.0642 33.4175C27.0658 33.4109 27.0674 33.4044 27.069 33.3981L27.0691 33.3976L27.0692 33.3975C27.0776 33.3637 27.085 33.3341 27.089 33.3038L27.1123 33.1283C27.148 32.859 27.1838 32.5892 27.2139 32.319C27.2855 31.6765 27.355 31.0337 27.4244 30.391L27.4245 30.39L27.4246 30.389L27.4247 30.388L27.4248 30.3871L27.4972 29.7178L27.5278 29.4345L27.5278 29.4342C27.5676 29.0675 27.6073 28.7009 27.6421 28.334C27.6442 28.3126 27.647 28.291 27.6498 28.2693L27.6498 28.2692C27.661 28.1836 27.6725 28.0958 27.6402 28.0133C27.42 27.9807 25.5728 27.9911 25.4492 28.0279C25.4366 28.1256 25.4232 28.2238 25.4097 28.3224L25.4097 28.3225L25.4097 28.3225L25.4097 28.3226L25.4097 28.3226C25.3811 28.5321 25.3522 28.7435 25.3307 28.9558C25.2981 29.2774 25.268 29.5992 25.2379 29.9209C25.1981 30.3471 25.1583 30.7731 25.1125 31.1982C25.066 31.6286 25.0081 32.0573 24.9502 32.486ZM23.4051 21.7616C23.5371 21.7193 25.3785 21.7033 25.8336 21.7373C25.9733 22.1058 26.1162 22.4834 26.2701 22.8901C26.4007 22.7295 26.4933 22.5623 26.5838 22.399L26.5838 22.399L26.5838 22.399L26.5839 22.3989L26.5839 22.3989C26.6075 22.3562 26.6311 22.3137 26.6551 22.2717C26.7348 22.1321 26.8095 21.9888 26.8832 21.8476L26.8832 21.8475L26.8833 21.8474L26.8833 21.8473L26.8834 21.8472C26.9162 21.7843 26.9488 21.7218 26.9815 21.6603L29.2562 21.738C29.1535 21.8991 29.04 22.0426 28.928 22.1842L28.928 22.1842L28.9279 22.1843C28.872 22.2549 28.8166 22.325 28.763 22.3966C28.6425 22.5575 28.5186 22.7151 28.3945 22.8729L28.3945 22.8729L28.3544 22.9238L28.2595 23.0448C28.0908 23.2607 27.9221 23.4758 27.7535 23.691C27.6241 23.8559 27.4952 24.0208 27.3611 24.1923L27.2371 24.351C27.4536 24.7385 27.681 25.1188 27.9094 25.5007C28.227 26.0319 28.5465 26.5662 28.8409 27.1271L28.8275 27.1292L28.8154 27.1313L28.7847 27.137C28.7522 27.1432 28.7242 27.1486 28.696 27.1486C28.44 27.1491 28.184 27.149 27.9281 27.149C27.4585 27.1489 26.9889 27.1489 26.5192 27.152C26.4227 27.152 26.3847 27.1028 26.3473 27.0229C26.1786 26.6634 26.0076 26.3048 25.8365 25.9464L25.8363 25.9459L25.8359 25.945L25.7505 25.7661C25.7401 25.7446 25.7268 25.7251 25.71 25.7006L25.6983 25.6834L25.6867 25.6661L25.6791 25.6543C25.6318 25.7244 25.5852 25.7929 25.5391 25.8605C25.4451 25.9985 25.3537 26.1328 25.2651 26.2692C25.1003 26.5233 24.9387 26.7793 24.7796 27.0375C24.7358 27.1076 24.6882 27.1472 24.6052 27.1472C24.1015 27.1457 23.5979 27.146 23.0943 27.1463L22.4902 27.1465C22.478 27.1465 22.466 27.144 22.4471 27.14C22.4361 27.1377 22.4229 27.135 22.4058 27.1319C22.5852 26.8818 22.7748 26.6545 22.9624 26.4295L22.9625 26.4294C23.0409 26.3354 23.119 26.2418 23.1958 26.1471C23.3785 25.9217 23.5653 25.7004 23.752 25.4791L23.7526 25.4783C23.8348 25.3809 23.9169 25.2836 23.9987 25.1859C24.1817 24.9677 24.3651 24.7498 24.5506 24.5293L24.8099 24.2212C24.3234 23.411 23.8479 22.5995 23.4051 21.7616ZM17.5964 21.738C17.4728 23.4973 17.2404 25.2393 16.9906 26.9792L16.99 26.9785C16.9856 27.0111 16.9869 27.0443 16.9881 27.0772C16.9887 27.0928 16.9893 27.1082 16.9893 27.1236C17.1393 27.1638 21.6802 27.1583 21.8116 27.1146L21.8457 26.755L21.846 26.7521C21.8774 26.4211 21.9093 26.0845 21.9423 25.7342H21.7459L20.9888 25.7343H20.9887H20.9885H20.9884H20.9882C20.484 25.7345 19.9799 25.7346 19.4758 25.7342C19.4367 25.7342 19.3979 25.7312 19.3583 25.7282C19.3372 25.7266 19.3159 25.725 19.2942 25.7237C19.2736 25.5336 19.2858 25.3677 19.3573 25.2032C19.7996 25.1756 20.2404 25.1833 20.6824 25.191C20.9836 25.1962 21.2852 25.2015 21.5882 25.1956L21.6575 24.5273C21.6829 24.2819 21.7082 24.0368 21.7343 23.7867H19.497L19.5781 23.1947H22.2867C22.3087 22.9316 22.3301 22.6731 22.3515 22.4154V22.4154L22.3515 22.4154L22.4078 21.738H17.5964ZM14.676 21.7373H12.5302L12.3267 23.5104L11.9127 27.118C12.0479 27.1562 16.3384 27.1652 16.5309 27.1291C16.5584 26.865 16.5858 26.5989 16.6138 26.3279L16.6623 25.8584H14.17L14.4174 23.8434L14.676 21.7373ZM6.83884 24.1192L6.83879 24.1197L6.83877 24.1198L6.83876 24.1199L6.83875 24.12C6.79167 24.5245 6.74461 24.9289 6.6958 25.333H6.69645C6.66468 25.5975 6.62379 25.8605 6.58275 26.1245L6.58274 26.1245C6.53063 26.4597 6.47828 26.7963 6.44407 27.1395H11.267C11.3308 26.8472 11.3626 26.5537 11.395 26.255L11.395 26.255L11.3951 26.255L11.3951 26.255L11.3951 26.2549L11.3951 26.2549C11.4137 26.0835 11.4324 25.9104 11.4576 25.7349H8.79017C8.77343 25.5336 8.77665 25.3622 8.87387 25.197H11.0539C11.0693 25.0471 11.09 24.8996 11.1106 24.7528C11.1552 24.4341 11.1995 24.1188 11.1884 23.7895H9.01101C8.98139 23.5799 9.00972 23.3939 9.06573 23.1954H11.7795L11.9031 21.7415C11.8584 21.7378 11.8148 21.7335 11.7721 21.7294L11.7719 21.7294L11.7718 21.7294L11.7718 21.7294L11.7717 21.7294C11.6711 21.7196 11.575 21.7103 11.4788 21.7089C10.5639 21.695 9.6484 21.6818 8.73287 21.6755C8.4451 21.674 8.15733 21.6817 7.86956 21.6895C7.78198 21.6919 7.6944 21.6943 7.60682 21.6964C7.50694 21.6991 7.40706 21.7042 7.30237 21.7095L7.3023 21.7095C7.2464 21.7123 7.18912 21.7152 7.12974 21.7179C7.06124 22.173 7.00997 22.6277 6.95877 23.0817L6.95876 23.0819L6.95874 23.082L6.95872 23.0822L6.9587 23.0823C6.94208 23.2298 6.92546 23.3771 6.90827 23.5244C6.88498 23.7227 6.86191 23.921 6.83884 24.1192ZM5.87889 32.5022C5.85471 32.663 5.83053 32.8237 5.80668 32.9846L5.80732 32.9853C5.79538 33.065 5.78363 33.1448 5.77176 33.2253L5.73972 33.4419H7.5051L7.9371 30.0038C8.04902 30.7739 8.10424 31.5478 8.15946 32.3219C8.18621 32.6967 8.21295 33.0716 8.24614 33.4461H10.1165C10.506 32.3246 10.8968 31.2002 11.2876 30.0766L11.3178 30.0843L11.1353 31.5882C11.0605 32.2039 10.9855 32.8211 10.9103 33.4419H12.7156C12.9531 32.1466 13.0683 30.8423 13.1842 29.5295L13.1842 29.5295L13.1842 29.5294L13.1842 29.5294L13.1842 29.5294C13.2292 29.0204 13.2742 28.5102 13.3266 27.9987H13.127H11.2895C11.2369 27.9987 11.1842 27.9991 11.1315 27.9994H11.1314H11.1313H11.1312H11.1311H11.1311H11.131H11.131H11.131C10.9988 28.0003 10.8663 28.0011 10.7339 27.9967C10.6341 27.9932 10.5723 28.0182 10.5369 28.1306C10.5067 28.2263 10.4697 28.3196 10.4327 28.4128L10.4327 28.4129C10.4051 28.4825 10.3775 28.5521 10.3527 28.6227C10.2185 29.0046 10.0847 29.3869 9.95088 29.7692L9.95068 29.7697L9.95049 29.7703L9.9503 29.7708L9.95011 29.7714C9.816 30.1546 9.6819 30.5377 9.54731 30.9206C9.54518 30.9266 9.54323 30.9329 9.54137 30.9392L9.53547 30.9603C9.52434 31.001 9.51326 31.0416 9.48036 31.0614C9.47217 30.9067 9.46453 30.7522 9.45689 30.598L9.45688 30.5978L9.45685 30.5973L9.45683 30.5968C9.43924 30.2418 9.42172 29.888 9.39795 29.5346C9.37423 29.183 9.34399 28.8317 9.31391 28.4824L9.31389 28.4822C9.3007 28.3289 9.28754 28.1761 9.27498 28.0237C9.11338 27.9869 6.51618 27.9911 6.38741 28.0279L6.37988 28.0806C6.37342 28.1252 6.36672 28.1715 6.36166 28.218C6.34218 28.4002 6.3238 28.5828 6.30541 28.7655L6.28762 28.9419L6.2576 29.2396C6.22049 29.6072 6.1834 29.9746 6.14791 30.3424C6.13794 30.4454 6.1298 30.5487 6.12167 30.6519L6.12167 30.6519L6.12167 30.652L6.12166 30.652L6.12166 30.652C6.10722 30.8354 6.09278 31.0187 6.06807 31.2002C6.00935 31.6347 5.94413 32.0684 5.87889 32.5022ZM5.03859 39.6686C5.1577 39.7054 7.05313 39.7117 7.21924 39.6742V39.6749L7.32422 38.8754L7.32434 38.8745L7.3247 38.8717L7.32508 38.8688C7.4466 37.9437 7.56836 37.0166 7.68859 36.0896C7.74515 35.6534 7.79851 35.2169 7.85185 34.7805L7.90684 34.3316C7.90931 34.3077 7.90862 34.2831 7.90781 34.254C7.90734 34.2376 7.90684 34.2198 7.90684 34.1998H5.74423L5.42936 36.6403C5.29901 37.6511 5.1689 38.66 5.03859 39.6686ZM11.4368 39.6976L11.5329 39.6971L11.5322 39.6964C11.5503 39.6964 11.5683 39.6927 11.5928 39.6878L11.5928 39.6878L11.593 39.6877L11.593 39.6877L11.5931 39.6877L11.6183 39.6827L11.6423 39.6784C11.0326 38.7477 10.4976 37.7934 9.9761 36.8246C10.6959 35.9563 11.4125 35.0916 12.149 34.2026C12.1263 34.1993 12.1095 34.1964 12.0962 34.1941L12.0961 34.1941C12.076 34.1907 12.0641 34.1887 12.0524 34.1887C11.7953 34.1884 11.5382 34.1884 11.281 34.1884C10.7665 34.1884 10.2519 34.1884 9.73724 34.1866C9.65612 34.1866 9.60655 34.2199 9.55762 34.2872C9.38454 34.5267 9.20944 34.764 9.03426 35.0014L9.0342 35.0015L9.034 35.0018L9.03366 35.0022L9.03305 35.0031L9.03229 35.0041C8.94616 35.1208 8.86001 35.2376 8.77408 35.3546C8.66049 35.5093 8.54726 35.6641 8.43405 35.819L8.43382 35.8193L8.43357 35.8196L8.43309 35.8203C8.20975 36.1258 7.9865 36.4311 7.76069 36.7343C7.69824 36.8176 7.68279 36.8849 7.73172 36.9856C7.79542 37.1152 7.85382 37.2479 7.91222 37.3805L7.91225 37.3806C7.9595 37.4879 8.00676 37.5953 8.05686 37.7011C8.21986 38.0453 8.38421 38.3887 8.54854 38.7321L8.54909 38.7332L8.54924 38.7336C8.68584 39.019 8.82242 39.3044 8.95821 39.5902C8.99555 39.6686 9.04449 39.7061 9.12883 39.6992C9.27176 39.6874 9.41533 39.6763 9.5589 39.6777C9.7514 39.6795 9.94389 39.6835 10.1365 39.6876L10.137 39.6876L10.1376 39.6876L10.1383 39.6876L10.1389 39.6877L10.1396 39.6877C10.3157 39.6914 10.4919 39.6951 10.6682 39.6971C10.9246 39.7002 11.1805 39.6989 11.4368 39.6976ZM16.6938 39.3098C17.0666 39.1127 17.4001 38.8601 17.6776 38.5242V38.5249C18.1752 37.9211 18.3716 37.2097 18.3265 36.4144C18.3021 35.9813 18.1443 35.5996 17.8932 35.2637C17.5379 34.7897 17.0653 34.5135 16.5322 34.3428C16.0558 34.1901 15.5677 34.1283 15.0701 34.1304C15.0007 34.1351 14.9313 34.1393 14.8619 34.1434C14.7057 34.1528 14.5496 34.1622 14.394 34.1776C13.7625 34.24 13.163 34.424 12.6087 34.7599C12.0447 35.1013 11.5876 35.5601 11.3114 36.2013C11.1002 36.6913 11.0326 37.2049 11.1414 37.7372C11.2741 38.3861 11.614 38.8816 12.1233 39.2467C12.6847 39.6485 13.3169 39.7977 13.9768 39.8276C14.2631 39.8405 14.5507 39.8248 14.837 39.8091L14.855 39.8081C15.4982 39.7741 16.1137 39.6166 16.6938 39.3098ZM24.0195 37.611C23.9254 38.3007 23.8311 38.9919 23.7759 39.6971L23.7753 39.6978C23.9921 39.6973 24.2065 39.6979 24.419 39.6985C24.8559 39.6997 25.2844 39.7009 25.708 39.6929L26.3454 34.2019C26.3256 34.1993 26.3105 34.197 26.2982 34.1951C26.2777 34.192 26.2652 34.1901 26.2527 34.1901C25.984 34.1899 25.7154 34.1898 25.4467 34.1898C24.8198 34.1898 24.1929 34.1897 23.566 34.1873C23.4707 34.1866 23.4302 34.2289 23.398 34.3178C23.2457 34.7406 23.092 35.1633 22.9383 35.586L22.9381 35.5864C22.826 35.8947 22.7138 36.2031 22.6022 36.5116C22.5374 36.6906 22.4748 36.8706 22.4122 37.0505L22.4119 37.0513L22.4116 37.0522C22.3829 37.1346 22.3542 37.217 22.3254 37.2993C22.2592 36.657 22.233 36.0133 22.2068 35.3694C22.1909 34.9793 22.175 34.5892 22.1502 34.1991H19.0715C19.0403 34.4769 19.0097 34.754 18.9792 35.0305C18.9084 35.6726 18.8379 36.3117 18.7605 36.9502C18.6834 37.5842 18.5994 38.2177 18.5151 38.8537L18.515 38.8537L18.515 38.8538L18.515 38.8539L18.5149 38.8546C18.4782 39.1316 18.4414 39.4091 18.4051 39.6874H20.2683L20.6978 36.2471C20.7059 36.2477 20.7144 36.2478 20.723 36.2478L20.728 36.2478C20.8291 37.3943 20.9476 38.5388 21.0718 39.6867H22.9705C23.0127 39.5626 23.0542 39.4393 23.0954 39.3167L23.096 39.315C23.1836 39.0547 23.2702 38.7974 23.3606 38.5416C23.4913 38.1696 23.6291 37.7997 23.7669 37.4304C23.8653 37.1659 23.9658 36.9024 24.0663 36.6387L24.0664 36.6384L24.0665 36.6381L24.0666 36.6378L24.067 36.6369L24.1847 36.3276C24.136 36.7568 24.0778 37.1835 24.0195 37.6109L24.0195 37.611ZM30.5245 37.6081C31.1561 37.3367 31.6132 36.8794 31.798 36.1562L31.7999 36.1555C31.9313 35.6406 31.8669 35.152 31.5508 34.7279C31.2675 34.3483 30.8747 34.1928 30.435 34.1901C29.6272 34.1847 28.8193 34.1859 28.0115 34.187C27.6714 34.1875 27.3313 34.188 26.9912 34.188C26.9543 34.188 26.9174 34.1902 26.8793 34.1924L26.8354 34.1949C26.7179 35.2011 26.6013 36.2012 26.4851 37.1986L26.196 39.6777C26.4259 39.7158 28.1185 39.7033 28.226 39.6645C28.3844 38.3077 28.5428 36.9502 28.7018 35.5843C28.9111 35.583 29.1061 35.5837 29.2935 35.6475C29.3791 35.6767 29.468 35.7218 29.5356 35.7849C29.6946 35.9327 29.7249 36.1326 29.5723 36.3075C29.3875 36.5185 29.1667 36.6018 28.9014 36.5185C28.8706 36.5088 28.8394 36.5012 28.8053 36.493L28.7846 36.4879L28.7514 36.4796C28.7545 36.4969 28.7568 36.5115 28.7588 36.5245L28.7604 36.5342C28.7616 36.5422 28.7629 36.5495 28.7642 36.5564C28.7657 36.5646 28.7674 36.5722 28.7694 36.5796C28.8076 36.717 28.8462 36.8544 28.8849 36.9918L28.8853 36.9933C28.9448 37.205 29.0043 37.4167 29.0624 37.6289C29.1004 37.7691 29.1126 37.7899 29.2516 37.7976C29.6869 37.8212 30.1157 37.783 30.5245 37.6081ZM38.5576 35.6832L38.5577 35.6823C38.585 35.4653 38.6123 35.2483 38.6387 35.0312H38.6374C38.6598 34.8448 38.6795 34.6581 38.6992 34.4717C38.7084 34.3854 38.7175 34.2991 38.7269 34.213C38.5723 34.1762 36.5462 34.1804 36.4168 34.2164L36.4125 34.2363L36.4074 34.2586L36.4073 34.2587C36.4 34.29 36.3924 34.3226 36.3885 34.3559L36.3375 34.7851C36.2282 35.7045 36.119 36.6235 36.0131 37.5436C35.9919 37.7296 35.9249 37.8871 35.7974 38.0079C35.6294 38.1668 35.4272 38.2466 35.2025 38.2348C34.9096 38.2195 34.6514 38.0169 34.5909 37.7427C34.5652 37.6275 34.5677 37.5012 34.5793 37.3819C34.6216 36.938 34.6688 36.4945 34.716 36.0512L34.7161 36.0506L34.7161 36.0501L34.7162 36.0495L34.7162 36.0489L34.7512 35.7197C34.7703 35.5391 34.7897 35.3583 34.8092 35.1775L34.8099 35.1712C34.8304 34.9809 34.851 34.7906 34.871 34.6002C34.8804 34.513 34.8879 34.4261 34.8956 34.3357L34.9024 34.2573L34.9077 34.1984H32.6485C32.6448 34.2206 32.6409 34.2419 32.6371 34.2627C32.6296 34.3036 32.6225 34.3425 32.6182 34.3816C32.5943 34.5925 32.5709 34.8034 32.5476 35.0143L32.5471 35.0185L32.512 35.3352L32.4518 35.8791C32.4118 36.2405 32.3718 36.6019 32.3324 36.9634L32.3176 37.0978L32.3175 37.0987C32.2857 37.388 32.2539 37.6769 32.2255 37.9669C32.1959 38.2716 32.2339 38.5596 32.3961 38.8233C32.5274 39.0364 32.7051 39.1898 32.9047 39.3189C33.1854 39.5007 33.4951 39.6034 33.8125 39.6742C34.3636 39.797 34.9206 39.822 35.4826 39.779C36.0086 39.7387 36.5198 39.6367 37.0175 39.4507C37.4006 39.3078 37.756 39.1141 38.0347 38.7865C38.1635 38.6352 38.2459 38.4576 38.2685 38.2542C38.2953 38.0127 38.3202 37.7709 38.3451 37.5291C38.3751 37.238 38.405 36.947 38.4384 36.6566C38.4758 36.332 38.5167 36.0076 38.5576 35.6832ZM40.377 39.6895H42.6961H42.6967L42.7141 39.5051L42.7457 39.1678L42.7457 39.1677L42.7458 39.1676C42.8582 37.9662 42.9697 36.7755 43.148 35.5823H44.9507C44.9611 35.4179 44.9771 35.2558 44.9931 35.0945L44.9931 35.0943C45.0226 34.796 45.0518 34.5003 45.0447 34.1977H39.258C39.1866 34.6544 39.1505 35.1082 39.117 35.5809H40.8689C40.7244 36.4889 40.6278 37.3948 40.5313 38.3012L40.5313 38.3013L40.5312 38.3013L40.5312 38.3014L40.5312 38.3014C40.482 38.7639 40.4327 39.2264 40.377 39.6895ZM44.8857 39.6742C45.0351 39.7075 47.0618 39.6999 47.1539 39.67H47.1546L47.3454 37.9749C47.4866 36.7204 47.628 35.4643 47.7701 34.2012H45.4697L44.8857 39.6742ZM50.0911 36.7225C50.6093 37.715 51.1006 38.6859 51.5236 39.6853V39.6839H54.1839C54.3719 37.8531 54.5586 36.0334 54.7446 34.2164C54.5882 34.1755 52.8647 34.1783 52.7359 34.2164C52.6982 34.5147 52.6677 34.8144 52.6371 35.1147L52.6371 35.115C52.5678 35.7948 52.4983 36.4773 52.3451 37.1521L52.2766 36.9987C52.2173 36.8661 52.1581 36.7334 52.1004 36.5997C51.7682 35.8321 51.4038 35.0819 51.013 34.3462C50.9473 34.2234 50.8733 34.1838 50.7452 34.1852C50.2264 34.1896 49.7077 34.1892 49.189 34.1888C48.9667 34.1886 48.7444 34.1885 48.522 34.1887C48.4904 34.1887 48.4588 34.1924 48.4298 34.1959L48.4294 34.1959C48.4172 34.1974 48.4056 34.1988 48.3946 34.1998C48.2256 35.7517 48.0581 37.2936 47.8908 38.8336L47.8895 38.845L47.7997 39.6721C47.9529 39.7144 49.6687 39.7068 49.7975 39.6575C49.894 38.6956 49.9913 37.724 50.0911 36.7225ZM59.6023 39.3404C60.0916 39.0177 60.4354 38.5596 60.6633 37.9967C60.9556 37.2743 61.0194 36.5324 60.7915 35.778C60.6086 35.1728 60.2655 34.7085 59.7195 34.4323C59.3899 34.265 59.0383 34.2255 58.6836 34.2234C57.8998 34.2194 57.1156 34.2201 56.3314 34.2208H56.3314H56.3313H56.3313H56.3312C56.0294 34.221 55.7276 34.2213 55.4258 34.2213H55.25L55.0529 36.0385L55.0494 36.071L55.0409 36.1495C54.9111 37.3458 54.7819 38.5365 54.6519 39.7325C54.6699 39.7337 54.6871 39.7353 54.7038 39.7368C54.7349 39.7396 54.7643 39.7422 54.7936 39.7422C55.0856 39.7424 55.3776 39.7428 55.6695 39.7432C56.5459 39.7443 57.422 39.7455 58.2986 39.7408C58.7647 39.738 59.2025 39.6041 59.6023 39.3404ZM56.1153 33.0998H61.257H61.2576C61.2643 33.0706 61.271 33.042 61.2776 33.0138L61.2776 33.0138L61.2776 33.0137L61.2777 33.0136L61.2777 33.0136C61.2928 32.9492 61.3075 32.8867 61.32 32.8235L61.491 31.9488C61.5948 31.4177 61.6986 30.8865 61.8029 30.3556C61.8758 29.9835 61.9491 29.6115 62.0223 29.2395L62.0247 29.2276C62.0987 28.8516 62.1728 28.4756 62.2465 28.0994C62.3215 27.7152 62.3962 27.3309 62.4709 26.9466L62.4711 26.9454C62.5457 26.5615 62.6203 26.1776 62.6953 25.7938C62.8336 25.084 62.9731 24.3745 63.1126 23.6652L63.2432 23.0011C63.2896 22.7653 63.3354 22.5293 63.3813 22.2933L63.3815 22.2926L63.3816 22.2919L63.3817 22.2911L63.3819 22.2904C63.4873 21.748 63.5928 21.2053 63.7048 20.6644C63.8104 20.155 63.8812 19.6455 63.867 19.1195C63.8587 18.8072 63.8361 18.5032 63.7576 18.2027C63.746 18.1588 63.7369 18.1142 63.7277 18.0695C63.718 18.0222 63.7083 17.9749 63.6958 17.9285C63.6865 17.8948 63.6783 17.86 63.6702 17.8252C63.6478 17.7299 63.6253 17.634 63.5786 17.5552C63.3776 17.2138 63.1666 16.8794 62.9555 16.5448L62.9555 16.5446L62.8343 16.3524C62.8066 16.308 62.7699 16.265 62.7287 16.2365C62.618 16.1602 62.5084 16.0819 62.3987 16.0036C62.038 15.7461 61.6773 15.4886 61.2769 15.2996C61.2357 15.2802 61.1949 15.2602 61.1541 15.2402C60.9577 15.144 60.7629 15.0487 60.5417 15.0199C60.3757 14.9981 60.2112 14.9654 60.0402 14.9314L60.0402 14.9314C59.9605 14.9155 59.8794 14.8993 59.7961 14.8839C59.2973 17.3536 58.7984 19.8211 58.2996 22.2882L58.2995 22.2884L58.2995 22.2887L58.2995 22.2889L58.2964 22.3041L58.2945 22.3136L58.2935 22.3183C57.5671 25.9108 56.8409 29.5026 56.1153 33.0998ZM67.3791 39.0308C67.7622 38.7511 68.0802 38.4014 68.3133 37.9676H68.3146C68.5451 37.5387 68.6333 37.0786 68.6236 36.5823C68.6114 35.9806 68.3944 35.4851 68.0036 35.0763C67.5941 34.6481 67.0855 34.4142 66.5357 34.2782C66.0979 34.1699 65.6536 34.1276 65.2493 34.1443C64.6506 34.1325 64.1097 34.222 63.5837 34.4108C62.826 34.6828 62.1924 35.1395 61.7475 35.8682C61.4237 36.3991 61.2988 36.9849 61.3922 37.6116C61.5093 38.3979 61.933 38.96 62.5607 39.3515C63.0738 39.6714 63.6398 39.8026 64.2256 39.8276C64.5488 39.8408 64.8733 39.829 65.1965 39.8074C65.9859 39.7554 66.7205 39.5118 67.3791 39.0308ZM64.9512 35.635C65.342 35.5857 65.6865 35.703 65.9781 35.9758L65.9788 35.9751C66.2737 36.2506 66.4011 36.5969 66.3207 37.0286C66.2711 37.2951 66.2028 37.5442 66.0393 37.7538C65.8159 38.0405 65.5262 38.2133 65.192 38.2938C65.0227 38.3347 64.8469 38.3618 64.6738 38.3667C64.1426 38.3819 63.7763 37.9947 63.7293 37.4235C63.7237 37.3541 63.7249 37.2842 63.7264 37.2008C63.7272 37.1581 63.728 37.1119 63.728 37.0605C63.6758 36.7579 63.7911 36.4623 63.9906 36.1999C64.2385 35.8737 64.5585 35.6843 64.9512 35.635ZM14.8525 35.6225C14.472 35.6246 14.1339 35.7939 13.8462 36.0639C13.4714 36.4165 13.335 36.8703 13.3942 37.3915C13.4322 37.7288 13.5719 38.0134 13.852 38.1973C14.0502 38.3278 14.2672 38.3812 14.5003 38.3805C14.5351 38.3762 14.57 38.3726 14.6048 38.3689L14.605 38.3689H14.605C14.6822 38.3608 14.7593 38.3528 14.8351 38.3375C15.4016 38.2216 15.936 37.7573 15.992 37.0917C15.994 37.0702 15.9972 37.0473 16.0049 37.0272C16.1118 36.735 16.0558 36.4595 15.9128 36.2041C15.6733 35.7766 15.2883 35.6204 14.8531 35.6225H14.8525ZM57.5044 35.8109C57.6828 35.8073 57.8617 35.8036 58.0391 35.8196H58.0384C58.2303 35.837 58.3539 35.9952 58.4395 36.1715C58.567 36.4324 58.6192 36.7114 58.5722 37.0057C58.5155 37.3589 58.4086 37.6893 58.1949 37.9718C58.0578 38.1529 57.8897 38.2549 57.665 38.2507C57.5491 38.2484 57.4329 38.2566 57.3167 38.2648H57.3167H57.3167C57.2587 38.2689 57.2007 38.273 57.1429 38.2757C57.1132 38.2771 57.0835 38.2767 57.0541 38.2762C57.047 38.2761 57.0398 38.276 57.0327 38.2759C57.0252 38.2758 57.0177 38.2757 57.0103 38.2757C56.9974 38.055 57.2182 36.0112 57.2749 35.814C57.3511 35.814 57.4277 35.8125 57.5044 35.8109ZM21.7086 32.0886C21.829 32.0858 21.9378 32.04 22.0376 31.9636C22.2842 31.7763 22.4251 31.5105 22.5179 31.212C22.6595 30.7561 22.6383 30.3077 22.4239 29.8809C22.3196 29.6727 22.1528 29.554 21.9236 29.5575C21.8447 29.5584 21.766 29.5581 21.6872 29.5578C21.6478 29.5576 21.6084 29.5575 21.5689 29.5575H21.2882L20.9843 32.0712C20.9976 32.0744 21.0086 32.0775 21.0182 32.0801L21.0183 32.0802C21.0359 32.0851 21.0484 32.0886 21.0609 32.0886L21.1688 32.0893H21.1694C21.3491 32.0907 21.5291 32.092 21.7086 32.0886ZM32.2498 30.7523L32.3073 30.9226C31.9702 30.9284 31.6411 30.927 31.2992 30.9256C31.2276 30.9253 31.1555 30.925 31.0827 30.9247C31.3151 30.4264 31.5566 29.9635 31.8257 29.495C31.9694 29.9218 32.1071 30.3296 32.2498 30.7523Z" fill="#ED1C24"/>
</g>
<defs>
<clipPath id="clip0_3792_226">
<rect width="72.2857" height="44" fill="white"/>
</clipPath>
</defs>
</svg>
