<svg width="132" height="66" viewBox="0 0 132 66" fill="none" xmlns="http://www.w3.org/2000/svg">
<g clip-path="url(#clip0_3520_45231)">
<path fill-rule="evenodd" clip-rule="evenodd" d="M58.2045 52.0903L57.6365 51.7868H57.6314C56.8453 52.6416 56.0236 53.4409 55.1665 54.1895L55.4962 54.3716L56.2316 54.7763L56.546 54.9483C57.2967 54.1237 58.0067 53.2537 58.6712 52.3432L58.2045 52.0903Z" fill="#ED1C24"/>
<path fill-rule="evenodd" clip-rule="evenodd" d="M59.3054 50.0467L59.8734 50.3553L59.985 50.416C61.3747 48.2156 62.5615 45.7977 63.5252 43.1623C62.2319 45.6914 60.7813 47.9576 59.1685 49.9759L59.3003 50.0467H59.3054Z" fill="#ED1C24"/>
<path fill-rule="evenodd" clip-rule="evenodd" d="M54.3753 56.4L53.6399 55.9903L53.2189 55.7576C49.2679 58.6914 44.6728 60.6187 39.4235 61.5545C33.9002 61.7568 28.5494 60.9879 23.437 58.8685C14.5663 54.2047 8.85036 46.4654 6.93827 36.6268C6.26371 29.8082 7.21722 24.6436 9.78358 19.4689C20.9112 0.93502 41.437 -1.04786 56.2519 11.5576C50.0135 4.31907 41.934 0.505058 32.6424 0.5C20.6982 0.71751 11.3508 6.43852 4.5545 16.3377C0.988986 22.949 -0.48185 29.7525 0.136915 36.7482C1.17157 46.1669 6.02533 53.8202 13.623 59.521C22.6509 65.2623 32.4395 66.7241 42.9839 63.9066C47.6196 62.1868 51.5706 59.7689 54.852 56.6681L54.3753 56.4051V56.4Z" fill="#ED1C24"/>
<path fill-rule="evenodd" clip-rule="evenodd" d="M33.7686 54.6802C37.9579 49.6724 44.2622 49.6825 49.05 52.0751C56.952 56.5517 64.5395 60.9626 73.0095 63.2743C80.5919 65.5658 88.0982 66.2233 95.6857 64.5996C103.217 62.4447 110.171 59.8144 116.095 55.7323C109.177 58.3272 102.431 60.2595 94.9199 61.17C87.1549 61.9541 80.1506 60.5226 72.7102 57.9681C65.5691 55.191 60.7153 51.8879 54.0154 48.6101C45.0027 43.8553 37.7246 45.6257 33.7736 54.6751" fill="#ED1C24"/>
<path d="M46.2959 43.2736V33.2479C45.5859 34.2494 44.7237 35.0133 43.6941 35.5292C42.6594 36.0502 41.5183 36.3082 40.2503 36.3082C37.8767 36.3082 35.8479 35.4533 34.1641 33.7386C32.4904 32.0339 31.6484 29.9852 31.6484 27.6028C31.6484 25.2203 32.4751 23.1817 34.1184 21.4872C35.7719 19.8028 37.7549 18.958 40.0728 18.958C41.3407 18.958 42.5022 19.2312 43.5571 19.7673C44.6121 20.3035 45.525 21.1078 46.301 22.1751V19.474L49.1362 19.5195V43.2736H46.301H46.2959ZM46.3416 27.5977C46.3416 25.9031 45.7735 24.4716 44.6375 23.288C43.4963 22.1043 42.1066 21.5074 40.4633 21.5074C38.82 21.5074 37.4253 22.0942 36.274 23.2728C35.1227 24.4514 34.5495 25.8627 34.5495 27.5168C34.5495 29.1708 35.1176 30.7035 36.2486 31.9024C37.3796 33.1012 38.7592 33.6981 40.3872 33.6981C42.0153 33.6981 43.4659 33.1113 44.6222 31.9327C45.7735 30.7541 46.3467 29.3125 46.3467 27.5977H46.3416Z" fill="#007F3E"/>
<path d="M57.2915 19.1704V28.933C57.2915 30.486 57.5704 31.6544 58.1233 32.4334C58.6761 33.2225 59.518 33.612 60.6389 33.612C61.8917 33.612 62.8908 33.172 63.6414 32.2867C64.387 31.4015 64.7623 30.2027 64.7623 28.6953V19.6004L67.5518 19.1653V35.6404L64.7623 36.0249V33.698C64.1892 34.5023 63.4436 35.1346 62.5358 35.605C61.6279 36.0704 60.6693 36.3031 59.6651 36.3031C57.895 36.3031 56.5764 35.7568 55.7192 34.6642C54.8621 33.5766 54.436 31.8973 54.436 29.626V19.6054L57.2915 19.1704Z" fill="#007F3E"/>
<path d="M84.5277 24.0619V35.6809L81.9613 36.1615V34.0926C81.4541 34.821 80.8252 35.3825 80.0796 35.772C79.329 36.1615 78.5023 36.3537 77.5944 36.3537C75.9765 36.3537 74.6426 35.8023 73.5826 34.7047C72.5277 33.607 71.9951 32.2109 71.9951 30.5113C71.9951 28.8117 72.548 27.5117 73.6485 26.4191C74.7542 25.3214 76.1642 24.7801 77.8988 24.7801C78.7153 24.7801 79.4609 24.942 80.1354 25.2708C80.8049 25.5996 81.373 26.0852 81.8345 26.7226V24.244C81.8345 23.293 81.5758 22.6253 81.0585 22.2206C80.5361 21.8159 79.6435 21.6187 78.3755 21.6187C77.843 21.6187 77.2901 21.649 76.7069 21.7148C76.1338 21.7805 75.5403 21.8766 74.9368 22.0082L75.6063 19.307C76.4228 19.2412 77.1278 19.1805 77.7009 19.1451C78.2741 19.1097 78.7711 19.0945 79.1667 19.0945C81.2157 19.0945 82.6206 19.4385 83.3865 20.1315C84.1473 20.8144 84.5277 22.1346 84.5277 24.0669M78.2791 27.0261C77.3053 27.0261 76.4482 27.365 75.7331 28.0479C75.0078 28.7307 74.6477 29.5401 74.6477 30.4759C74.6477 31.4622 74.9926 32.3019 75.6976 32.9848C76.3975 33.6677 77.2597 34.0066 78.2791 34.0066C79.2986 34.0066 80.1608 33.6677 80.8455 32.9899C81.5302 32.3222 81.87 31.4875 81.87 30.5113C81.87 29.535 81.5251 28.7307 80.8303 28.0479C80.1456 27.365 79.2884 27.0261 78.2791 27.0261Z" fill="#007F3E"/>
<path d="M103.085 25.7463V35.8124L100.25 36.2019V26.1358C100.25 24.6486 99.9611 23.5509 99.3931 22.8276C98.8251 22.0992 97.9527 21.7401 96.7912 21.7401C95.6298 21.7401 94.6509 22.1902 93.9155 23.0856C93.1852 23.9809 92.8149 25.1696 92.8149 26.6315V35.8124L90.0254 36.2019V19.6914L92.8149 19.3019V21.649C93.3779 20.8194 94.1082 20.177 95.0009 19.7218C95.8935 19.2716 96.8622 19.0439 97.902 19.0439C99.6721 19.0439 100.981 19.5902 101.828 20.6829C102.67 21.7704 103.09 23.4548 103.09 25.7463" fill="#007F3E"/>
<path d="M112.012 13.0701V19.388H116.12V22.0386H112.012V29.2417C112.012 30.9463 112.189 32.0743 112.549 32.6105C112.91 33.1467 113.584 33.4199 114.563 33.4199H115.146C115.451 33.4199 115.679 33.4148 115.826 33.3996C115.983 33.3845 116.12 33.3693 116.252 33.3541L116.12 36.0705C115.963 36.1008 115.78 36.121 115.582 36.1362C115.374 36.1514 115.065 36.1564 114.654 36.1564C112.478 36.1564 111.023 35.7568 110.308 34.9728C109.582 34.1786 109.222 32.4133 109.222 29.6666V22.0386H107.62L107.787 19.388H109.217V14.365L112.007 13.0701H112.012Z" fill="#007F3E"/>
<path d="M132 24.0619V35.6809L129.433 36.1615V34.0926C128.926 34.821 128.297 35.3825 127.552 35.772C126.801 36.1615 125.974 36.3537 125.067 36.3537C123.449 36.3537 122.115 35.8023 121.055 34.7047C120 33.607 119.467 32.2109 119.467 30.5113C119.467 28.8117 120.02 27.5117 121.121 26.4191C122.226 25.3214 123.636 24.7801 125.371 24.7801C126.187 24.7801 126.933 24.942 127.608 25.2708C128.277 25.5996 128.845 26.0852 129.307 26.7226V24.244C129.307 23.293 129.048 22.6253 128.531 22.2206C128.008 21.8159 127.116 21.6187 125.848 21.6187C125.315 21.6187 124.762 21.649 124.179 21.7148C123.606 21.7805 123.013 21.8766 122.409 22.0082L123.078 19.307C123.895 19.2412 124.6 19.1805 125.173 19.1451C125.746 19.1097 126.243 19.0945 126.639 19.0945C128.688 19.0945 130.093 19.4385 130.859 20.1315C131.619 20.8144 132 22.1346 132 24.0669M125.751 27.0261C124.778 27.0261 123.92 27.365 123.205 28.0479C122.48 28.7307 122.12 29.5401 122.12 30.4759C122.12 31.4622 122.465 32.3019 123.17 32.9848C123.87 33.6677 124.732 34.0066 125.751 34.0066C126.771 34.0066 127.633 33.6677 128.318 32.9899C129.002 32.3222 129.342 31.4875 129.342 30.5113C129.342 29.535 128.997 28.7307 128.302 28.0479C127.618 27.365 126.761 27.0261 125.751 27.0261Z" fill="#007F3E"/>
</g>
<defs>
<clipPath id="clip0_3520_45231">
<rect width="132" height="65" fill="white" transform="translate(0 0.5)"/>
</clipPath>
</defs>
</svg>
