<svg width="228" height="155" viewBox="0 0 228 155" fill="none" xmlns="http://www.w3.org/2000/svg">
<path fill-rule="evenodd" clip-rule="evenodd" d="M28.695 0H144.323C146.532 0 148.323 1.79086 148.323 4V30.8925H21.4179L28.695 0ZM157.336 42.3181H181.914C185.099 42.3181 187.472 45.2565 186.802 48.3703L163.849 155H133.969L157.336 42.3181ZM222.115 42.3181H197.537L174.17 155H204.05L227.003 48.3703C227.673 45.2565 225.3 42.3181 222.115 42.3181ZM9.985 81.2562H100.318L92.0707 114.001H0L9.985 81.2562ZM143.787 41.7397H19.0939L12.063 71.2737H110.4C110.721 71.2737 110.959 71.5718 110.887 71.8848L91.9479 155H122.105L147.39 46.2779C147.93 43.9578 146.169 41.7397 143.787 41.7397Z" fill="black"/>
</svg>
