<svg width="22" height="23" viewBox="0 0 22 23" fill="none" xmlns="http://www.w3.org/2000/svg">
<path d="M19.9871 9.70487H19.2487V9.66683H10.9987V13.3335H16.1792C15.4235 15.468 13.3926 17.0002 10.9987 17.0002C7.96132 17.0002 5.4987 14.5375 5.4987 11.5002C5.4987 8.46279 7.96132 6.00016 10.9987 6.00016C12.4007 6.00016 13.6763 6.52908 14.6475 7.39304L17.2403 4.80025C15.6031 3.27445 13.4132 2.3335 10.9987 2.3335C5.93641 2.3335 1.83203 6.43787 1.83203 11.5002C1.83203 16.5625 5.93641 20.6668 10.9987 20.6668C16.061 20.6668 20.1654 16.5625 20.1654 11.5002C20.1654 10.8855 20.1021 10.2856 19.9871 9.70487Z" fill="#FFC107"/>
<path d="M2.89062 7.23354L5.90233 9.44225C6.71725 7.42466 8.69083 6.00016 11.0004 6.00016C12.4024 6.00016 13.678 6.52908 14.6492 7.39304L17.242 4.80025C15.6048 3.27445 13.4149 2.3335 11.0004 2.3335C7.47946 2.3335 4.42604 4.32129 2.89062 7.23354Z" fill="#FF3D00"/>
<path d="M11.0005 20.6665C13.3682 20.6665 15.5196 19.7604 17.1463 18.2868L14.3092 15.8861C13.3579 16.6095 12.1956 17.0008 11.0005 16.9998C8.61622 16.9998 6.59176 15.4795 5.82909 13.3579L2.83984 15.661C4.35693 18.6297 7.43784 20.6665 11.0005 20.6665Z" fill="#4CAF50"/>
<path d="M19.9884 9.70455H19.25V9.6665H11V13.3332H16.1805C15.819 14.349 15.1678 15.2367 14.3073 15.8865L14.3087 15.8856L17.1458 18.2864C16.945 18.4688 20.1667 16.0832 20.1667 11.4998C20.1667 10.8852 20.1034 10.2853 19.9884 9.70455Z" fill="#1976D2"/>
</svg>
