<svg fill="none" height="40" viewBox="0 0 40 40" width="40" xmlns="http://www.w3.org/2000/svg"><circle cx="20" cy="20" fill="#e8e8e8" r="20"/><path clip-rule="evenodd" d="m8.26399 23.5975c-.55616-.2229-1.04002-.5986-1.39717-1.085s-.57345-1.0642-.62458-1.6684.06494-1.2109.33515-1.7518c.27021-.541.68386-.9949 1.19445-1.3106-.05748-.3432-.08644-.6908-.08657-1.039 0-3.6751 3.18423-6.6768 7.19263-6.87162.3875-.66682.9436-1.21666 1.6107-1.59276.6671-.37609 1.4211-.5648 2.1842-.54666.6916-.01225 1.3762.14281 1.997.45233.6207.30952 1.1598.7646 1.5726 1.32752.3957-.05624.7947-.08437 1.1942-.08419.2253 0 .4483.00882.6689.02646.5124-.3918 1.1371-.60296 1.7788-.6013.7263.01172 1.425.28385 1.9723.76815.5472.48427.9077 1.14947 1.0174 1.87757 1.2472 1.1194 2.0193 2.6845 2.1549 4.3678.7836.2102 1.4767.6771 1.9716 1.3281.4948.6511.7636 1.4497.7646 2.2717.0009.8219-.266 1.6212-.7594 2.2734-.4933.6521-1.1854 1.1207-1.9685 1.3328.1284.3618.1938.7435.1933 1.128.0162.8332-.2945 1.6387-.8638 2.2397s-1.3506.9481-2.1722.9652c-.0498 0-.0992 0-.1482 0-.2829.5916-.7231 1.0913-1.271 1.4428-.548.3515-1.1819.5407-1.8302.5463-.9455-.0196-1.8447-.4191-2.4998-1.1107-.6552-.6917-1.0127-1.6188-.9939-2.5777-.0038-.9522.3493-1.8704.9879-2.5687-.9381-.1095-1.8504-.3825-2.6968-.8069-.594.3865-1.2361.691-1.9093.9055.345.5882.5262 1.2602.5241 1.9446.0188.9588-.3387 1.886-.9938 2.5776-.6552.6917-1.5543 1.0912-2.4999 1.1108-.5319-.0024-1.056-.1298-1.5311-.3722-.4752-.2425-.8884-.5935-1.2072-1.0253-.2975.1004-.609.1515-.9226.1516-.8216-.0171-1.6029-.3642-2.17219-.9652-.56928-.601-.87997-1.4066-.86376-2.2397-.00008-.2749.03338-.5488.09962-.8154z" fill="#949494" fill-rule="evenodd"/><path clip-rule="evenodd" d="m7.25869 22.9992c-.32723-.3109-.58743-.6871-.76418-1.105-.17676-.4178-.26624-.8683-.26283-1.323-.00666-.5565.12781-1.1053.39051-1.5938.2627-.4886.64482-.9005 1.10968-1.1962-.056-.3435-.08416-.691-.0842-1.0391.07709-1.8372.84666-3.5743 2.14993-4.853 1.3033-1.2786 3.0408-2.00116 4.8541-2.0186.3761-.65376.9152-1.19564 1.5633-1.57118.648-.37554 1.3821-.57152 2.1285-.56824.6914-.02407 1.3784.12144 2.0025.42418.6242.30275 1.167.75377 1.5825 1.31478-.4117-.39856-.8993-.70762-1.433-.90821s-1.1022-.28849-1.6706-.25831c-.7428.01441-1.4702.21787-2.1152.5917-.6451.37382-1.1872.90602-1.5765 1.54768-1.8133.0175-3.5509.7401-4.8541 2.0187-1.30328 1.2786-2.07285 3.0157-2.14995 4.853 0 .3481.02816.6956.0842 1.039-.46486.2957-.84698.7076-1.10968 1.1962s-.39717 1.0374-.39051 1.5938c-.00271.6596.1871 1.3052.54553 1.8556zm14.83821-13.29827c.3771-.05532.5787-.27298.8859-.27298.3071 0 .4364.00962.651.02645.4951-.39029 1.1044-.6019 1.7315-.6013.4804.00494.9521.13081 1.3728.36633.4206.23551.7769.57329 1.037.98297-.4889-.46801-1.1272-.74254-1.7989-.77366-.6716-.03112-1.3319.18325-1.8609.60416-.2142-.0177-.4313-.0265-.6511-.0265-.3888-.0002-.7772.028-1.1622.0842-.0584-.13311-.127-.26138-.2051-.38365zm8.7141 6.30037c.6426.2573 1.1939.7049 1.582 1.2844-.4297-.4176-.9621-.7104-1.5417-.8478-.0103-.1468-.0253-.2923-.045-.4366zm-8.6204 12.4553c-.3646-.3571-.6537-.7855-.8501-1.2593-.1963-.4738-.2956-.9831-.292-1.4971-.0026-.7602.217-1.5043.6309-2.1382.2682.062.5394.1097.8124.1431-.5634.6457-.8988 1.4631-.9533 2.3234-.0545.8604.1749 1.7146.6521 2.4281zm-13.04512-1.6163c-.32723-.3109-.58742-.6871-.76418-1.105-.17675-.4179-.26624-.8683-.26282-1.323-.00018-.1727.01251-.3452.03795-.5159.16984.1104.3507.2023.53959.2741-.0642.2669-.09645.5407-.09606.8154-.00264.6596.18716 1.3052.54552 1.8556z" fill="#dadada" fill-rule="evenodd"/><path d="m8.00196 23.7366c-.56944-.2545-1.05623-.6673-1.40413-1.1905-.36094-.5425-.56674-1.1757-.59458-1.8294-.02784-.6538.12337-1.3026.43686-1.8746.26166-.4754.6322-.88 1.08037-1.1798-.01819-.1282-.03281-.2565-.04388-.3848-.01542-.1792-.02254-.3608-.02254-.5399.00897-.9226.20536-1.8333.57693-2.6755.37156-.8421.91031-1.5975 1.58263-2.2191 1.40568-1.3147 3.21958-2.09093 5.12908-2.19474.3848-.6467.932-1.17829 1.5856-1.54053.6833-.3787 1.4459-.58653 2.2243-.60619.7785-.01966 1.5503.14941 2.2513.49315.604.29603 1.1317.73037 1.5417 1.26874.1582-.02005.3163-.03568.4744-.0469.2064-.01283.4123-.01925.6179-.01925.1031 0 .2182 0 .3451.00722l.2573.01323c.2569-.18569.5395-.33198.8385-.43414.5271-.17991 1.0918-.2156 1.6369-.10348s1.0514.36808 1.4678.74206c.5716.50915.9589 1.19743 1.1005 1.95543.6159.5799 1.1244 1.267 1.5014 2.0288.3529.7119.5736 1.4836.6511 2.2765.7736.2186 1.4564.6858 1.946 1.3312.5302.7033.8175 1.5639.8175 2.4491 0 .8853-.2873 1.7459-.8175 2.4491-.4713.624-1.1231 1.0831-1.8642 1.3132.0331.1188.06.2392.0806.3608.0347.2026.0522.4078.0522.6133.0049.9022-.3352 1.7712-.9487 2.4245-.2975.3179-.6555.5712-1.0524.7447-.3969.1734-.8244.2633-1.2566.2643h-.0119c-.3094.5766-.7583 1.0641-1.3045 1.4166-.5771.3721-1.2468.5698-1.9306.57-.4928-.0011-.9803-.1037-1.4328-.3016-.4526-.1978-.8608-.4867-1.2-.8492-.7014-.7449-1.0911-1.7361-1.0875-2.766-.0002-.5019.0919-.9995.2716-1.4672.1277-.3326.2993-.6461.5099-.932-.3448-.0589-.6858-.1392-1.021-.2405-.4215-.1271-.8323-.288-1.2286-.481-.2703.1701-.5503.3239-.8385.4606-.2467.117-.4989.2216-.7566.3138.1178.2373.212.4858.2811.742.0943.3492.1421.7095.1423 1.0715.0036 1.0299-.3861 2.0212-1.0875 2.766-.3392.3626-.7474.6516-1.1999.8494-.4526.1978-.94.3004-1.4328.3015-.5648.0027-1.1222-.1295-1.6271-.386-.4614-.2367-.8696-.5675-1.199-.9717-.2741.0782-.5573.1187-.842.1202-.4322-.0009-.8597-.0908-1.25656-.2643-.39689-.1734-.75493-.4267-1.05242-.7447-.61357-.6532-.95362-1.5222-.94873-2.4244.00025-.1467.00936-.2933.02728-.4389.00948-.0802.02174-.1604.03676-.2406zm-1.02701-1.4431c.33243.4965.80974.8749 1.365 1.0824l.19093.0709-.04981.1997c-.06168.2485-.09275.5037-.0925.76-.0027.7852.29486 1.5408.83014 2.1081.30576.3276.68564.5748 1.10679.72.4211.1452.8708.1841 1.3101.1134.1415-.022.2811-.0553.4175-.0998l.1529-.0517.0973.1299c.304.4042.6945.7331 1.142.9621.4396.2245.925.341 1.4172.3403.432-.001.8593-.091 1.256-.2644.3966-.1735.7545-.4268 1.0518-.7446.6201-.6601.9639-1.538.9594-2.4497.0024-.321-.0375-.6409-.1186-.9512-.083-.3073-.2066-.6019-.3676-.8755l-.1471-.2489.2716-.0866c.3284-.1048.6497-.2313.9618-.3788.3083-.1464.6066-.3135.893-.5003l.1067-.0698.1186.0578c.4081.2055.833.3745 1.2701.505.442.1322.8943.2259 1.352.2802l.4435.053-.3036.3307c-.2964.3226-.5298.6992-.6878 1.11-.1583.4154-.2387.8571-.2372 1.3024-.0045.9116.3393 1.7896.9594 2.4497.2957.3171.6517.5703 1.0465.7443.3948.1741.8202.2653 1.2506.2682.5989.0004 1.1855-.1723 1.6911-.4978.5177-.3346.9356-.8061 1.2085-1.3638l.0652-.1323h.1459.0735.0664c.3714-.001.7388-.0785 1.0799-.2277.341-.1493.6486-.3672.9041-.6405.5353-.5673.8329-1.323.8302-2.1082.0002-.1797-.0149-.3592-.0451-.5363-.0322-.1725-.0791-.3419-.1399-.5063l-.0866-.2405.2491-.0578c.7346-.1745 1.3865-.6026 1.8441-1.211.4684-.6237.7222-1.386.7222-2.1701 0-.784-.2538-1.5463-.7222-2.17-.4593-.6092-1.1134-1.037-1.8501-1.2098l-.166-.0361-.0119-.1696c-.0561-.7906-.2657-1.5622-.6166-2.2705-.3662-.734-.8627-1.3932-1.4646-1.9446l-.0629-.0553-.013-.0782c-.1116-.6837-.4526-1.3073-.9654-1.76538-.4966-.44416-1.1356-.68994-1.7978-.6915-.2935-.00056-.5851.04737-.8634.14191-.2801.09624-.5432.23754-.7791.4185l-.0688.05292-.0842-.01203c-.1186-.00962-.2241-.01563-.3238-.02044-.0996-.00481-.2051 0-.3273 0-.2008 0-.3957.00681-.5846.02044-.189.01363-.3819.03408-.5788.06133l-.1352.01925-.0794-.12026c-.3744-.52568-.8721-.9485-1.448-1.23026-.636-.31077-1.3357-.46389-2.0414-.44675-.7058.01715-1.3974.20407-2.018.54537-.6174.34094-1.1275.85154-1.4717 1.47317l-.0582.11183-.1268.006c-1.8487.0711-3.6118.8084-4.9726 2.0793-.62833.5798-1.13174 1.285-1.47867 2.0714s-.52988 1.637-.53739 2.4985c0 .1707.00672.3383.02016.5027.01423.1707.03558.3379.06167.499l.02609.1552-.12334.0721c-.43994.264-.80293.6416-1.0519 1.0944-.27203.4979-.40323 1.0622-.37917 1.6309s.20247 1.1196.51555 1.592z" fill="#949494"/><path d="m12.0116 12c.2647-.0005.5269.0525.7712.1557.2444.1032.466.2547.6521.4456.377.3884.5884.9115.5884 1.4565s-.2114 1.0681-.5884 1.4564c-.1858.1916-.4073.3437-.6517.4476-.2443.1039-.5066.1574-.7716.1574-.2649 0-.5272-.0535-.7716-.1574-.2443-.1039-.4658-.256-.6516-.4476-.377-.3883-.5884-.9114-.5884-1.4564s.2114-1.0681.5884-1.4565c.1861-.1908.4078-.3422.6521-.4455.2443-.1032.5064-.1562.7711-.1558zm1.0224 1.0079c-.1337-.1375-.2929-.2467-.4685-.3212s-.3641-.1129-.5544-.1129c-.1904 0-.3789.0384-.5545.1129s-.3349.1837-.4685.3212c-.2724.2821-.4249.6611-.4249 1.0559s.1525.7739.4249 1.056c.1336.1375.2929.2467.4685.3212s.3641.1129.5545.1129c.1903 0 .3788-.0384.5544-.1129s.3348-.1837.4685-.3212c.2726-.282.4254-.6611.4254-1.056s-.1528-.774-.4254-1.0559z" fill="#e8e8e8"/><path clip-rule="evenodd" d="m19.8981 31.1574c1.811-.0054 3.5463-.7373 4.8268-2.0359 1.2806-1.2985 2.0023-3.0583 2.0076-4.8948v-2.8705c-.0025-.9111-.3605-1.7841-.9958-2.4284-.6353-.6442-1.4963-1.0073-2.3947-1.0098h-6.889c-.8984.0025-1.7594.3656-2.3947 1.0098-.6353.6443-.9933 1.5173-.9958 2.4284v2.8705c.0053 1.8365.727 3.5963 2.0076 4.8948 1.2806 1.2986 3.0159 2.0305 4.8268 2.0359z" fill="#fff" fill-rule="evenodd"/><path clip-rule="evenodd" d="m21.9395 26.4265c.0519.2586.049.5256-.0084.7831-.0691.3388-.1976.6622-.3795.9548-.1539.2337-.3599.4273-.6012.5653-.2648.1651-.5591.2758-.8659.3259-.3843.0551-.7718.0819-1.1598.0804-.2882 0-.3713.0001-.4614-.0792-.066-.0627-.1179-.1389-.1525-.2235s-.051-.1756-.0481-.2672c-.0179-.3253.0854-.6456.2894-.8973.2907-.2394.6423-.3904 1.0141-.4354.401-.0733.7948-.1827 1.1766-.3271.2282-.1103.4356-.26.6131-.4425.0599-.0534.1256-.0998.1957-.1383.0522-.0385.1245-.1204.1981-.1204.0735 0 .1471.0529.1898.2261z" fill="#fff" fill-rule="evenodd"/><path clip-rule="evenodd" d="m13.1406 25.2587c.1475.9718.4963 1.901 1.0235 2.7263.5272.8252 1.2209 1.5278 2.0353 2.0615l.0166-.006c.0794-.0373.0569-.1346-.1186-.3246-.3087-.286-.5995-.5913-.8705-.9141-.3735-.487-.6917-1.0152-.9488-1.5744-.1919-.4373-.3544-.8874-.4863-1.347-.0498-.2374-.152-.4603-.2989-.6518-.0914-.0806-.1981-.065-.344.0313z" fill="#fefefe" fill-rule="evenodd"/><path clip-rule="evenodd" d="m19.8973 31.1572c1.64-.006 3.2237-.6078 4.4638-1.6961s2.0547-2.5912 2.296-4.2362c-.0509-.0469-.1118-.081-.1779-.0999-.1115-.0144-.204.1204-.5514.7361-.4617.8665-.9975 1.6902-1.6011 2.4617-.5608.6602-1.2526 1.1929-2.0302 1.5634-.6065.3073-1.2555.5193-1.9248.6289-.6371.0986-1.2866.0781-1.9164-.0602-.6406-.1472-1.2719-.3335-1.8904-.5579-.3973-.1383-.3972-.1383-.2538.2093l.0118.0288c1.0724.6727 2.3086 1.0288 3.5696 1.0282z" fill="#fff" fill-rule="evenodd"/><path clip-rule="evenodd" d="m26.7325 21.5967v-.2405c-.0025-.9111-.3605-1.7841-.9958-2.4284-.6353-.6442-1.4963-1.0073-2.3947-1.0098h-6.889c-.8984.0025-1.7594.3656-2.3947 1.0098-.6353.6443-.9933 1.5173-.9958 2.4284v2.8863c.058.0319.122.051.1878.056.0658.0051.1319-.004.1939-.0267.0621-.0227.1187-.0586.1662-.1051.0474-.0465.0846-.1027.1091-.1649.082-.3412.0864-.6969.013-1.0402-.0696-.5735-.0326-1.1552.1091-1.7149.1622-.3874.4662-.696.848-.861.3119-.1732.5704-.3042.7471-.2405.4085.2953.8933.4624 1.3946.481 1.4783.1524 2.9665.1823 4.4496.0891 1.1717-.095 1.3603-.3224 1.5773-.4811.0913-.0909.212-.1452.3397-.153.1277-.0077.2539.0316.3552.1109.2301.1972.4412.6747.9298.9489.5531.2368 1.1434.3719 1.7433.3991.2158.0205.3759.0445.5063.0566z" fill="#fff" fill-rule="evenodd"/><path d="m19.899 30.9277c1.7509-.0054 3.4285-.7131 4.6666-1.9686s1.9359-2.9568 1.9413-4.7323v-2.8719c-.0002-.421-.0822-.8378-.2416-1.2266-.1593-.3888-.3928-.7418-.687-1.039-.2929-.2983-.6411-.5352-1.0246-.6968-.3834-.1616-.7945-.2448-1.2097-.2449h-6.8889c-.4152.0001-.8264.0834-1.2098.245s-.7316.3984-1.0245.6967c-.2942.2972-.5277.6502-.687 1.039-.1594.3888-.2415.8056-.2416 1.2266v2.8719c.0053 1.7755.7032 3.4768 1.9413 4.7323 1.238 1.2555 2.9157 1.9632 4.6666 1.9686zm4.9808-1.644c-.9871.9985-2.2436 1.6784-3.6111 1.9539-1.3676.2754-2.785.1341-4.0734-.4061-1.2885-.5402-2.3904-1.455-3.1669-2.6293-.7765-1.1744-1.1928-2.5555-1.1964-3.9694v-2.8719c.001-.4815.0958-.9582.279-1.4025s.4511-.8476.7884-1.1866c.3343-.342.732-.6137 1.1702-.7995.4382-.1857.9082-.2818 1.3831-.2828h6.8889c.4749.0009.945.0971 1.3832.2828.4382.1858.8358.4575 1.1701.7995.3373.3391.6052.7423.7883 1.1866.1832.4443.2781.921.2791 1.4025v2.8719c-.0012.9389-.1851 1.8682-.541 2.7349s-.8769 1.6537-1.5332 2.316z" fill="#949494"/><g clip-rule="evenodd" fill-rule="evenodd"><path d="m18.4649 22.5513c.1217.0103.2378.0562.3342.1323.0963.0761.1687.179.2083.2961s.0446.2435.0146.3635-.0938.2286-.1837.3124-.2018.1392-.3223.1596c-.1204.0203-.2442.0047-.356-.0451s-.2069-.1315-.2736-.2352c-.0668-.1037-.1023-.2248-.1022-.3487.0077-.1755.0836-.3409.2112-.4599s.2963-.1819.4695-.175z" fill="#949494"/><path d="m21.2305 22.6616c.1217.0103.2379.0562.3342.1323s.1687.179.2083.2961c.0396.1172.0447.2435.0146.3635-.03.1201-.0938.2286-.1837.3125-.0898.0838-.2018.1392-.3222.1595-.1205.0204-.2442.0048-.3561-.045-.1118-.0498-.2068-.1315-.2736-.2352-.0667-.1037-.1022-.2249-.1022-.3487.0077-.1756.0837-.341.2112-.46.1276-.1189.2964-.1818.4695-.175z" fill="#949494"/><path d="m21.1964 23.3625c.0394.0035.0769.0186.108.0433.0311.0248.0546.0582.0673.0962.0128.038.0143.0789.0045.1177-.0098.0389-.0304.074-.0595.1012-.0291.0271-.0654.0452-.1044.0518s-.0791.0015-.1154-.0145c-.0362-.0161-.0671-.0424-.0888-.0759-.0218-.0335-.0333-.0728-.0335-.1129.0011-.0284.0077-.0563.0194-.0821.0118-.0258.0283-.0489.0489-.0681.0207-.0192.045-.0342.0713-.0439s.0542-.0141.0822-.0128z" fill="#e8e8e8"/><path d="m20.6247 21.6248 2.7955-.3897c.0554-.0072.1115.0082.1559.0426.0444.0345.0735.0854.0812.1415.0071.0563-.008.113-.042.158-.0339.045-.084.0747-.1394.0825l-2.7966.3897c-.0555.0071-.1115-.0082-.156-.0426-.0444-.0345-.0735-.0852-.0812-.1414-.007-.0564.0082-.1135.0424-.1586.0343-.045.0846-.0745.1402-.082z" fill="#949494"/><path d="m18.9824 21.6248-2.7953-.3897c-.0555-.0072-.1115.0082-.1559.0426-.0444.0345-.0736.0854-.0812.1415-.0071.0563.0078.113.0418.158s.0842.0747.1396.0825l2.7953.3897c.0555.0071.1115-.0082.1559-.0426.0444-.0345.0737-.0852.0814-.1414.0071-.0562-.008-.1131-.042-.1581-.034-.0451-.0842-.0747-.1396-.0825z" fill="#949494"/><path d="m23.8478 24.9358c.2553.0113.5018.0984.7087.2505s.3652.3624.4553.6049.108.5066.0514.7593-.1851.483-.3696.6623c-.1845.1792-.4171.2996-.6684.3461-.2514.0466-.5107.0172-.7458-.0844s-.4355-.271-.5765-.4871-.2163-.4695-.2166-.7286c.0078-.3585.1556-.6992.4109-.9473.2553-.248.5971-.3831.9506-.3757z" fill="#dbdbdb"/><path d="m15.8332 24.9358c.2553.0113.5017.0984.7086.2505.207.1521.3653.3624.4554.6049.09.2425.1079.5066.0513.7593s-.1851.483-.3696.6623c-.1845.1792-.4169.2996-.6683.3461-.2514.0466-.5107.0172-.7458-.0844s-.4356-.271-.5766-.4871-.2163-.4695-.2165-.7286c.0078-.3585.1555-.6992.4108-.9473.2553-.248.5972-.3831.9507-.3757z" fill="#dbdbdb"/><path d="m16.2908 15.9678h6.895c.2021.0006.3957.0823.5386.2271.1428.1449.2233.3412.2239.5461v1.7763c-.0006.2049-.0811.4011-.2239.546-.1429.1449-.3365.2266-.5386.2272h-6.895c-.202-.0006-.3955-.0823-.5384-.2272s-.2235-.3411-.2241-.546v-1.7763c.0006-.2049.0812-.4012.2241-.5461.1429-.1448.3364-.2265.5384-.2271z" fill="#fff"/><path d="m16.3264 15.9679h6.8238c.2067-.0039.4066.0752.5561.22.1494.1448.2364.3436.242.5532v.1636c-.0974-.0527-.1844-.1227-.2572-.2068-.0902-.1023-.1882-.1972-.293-.2839-.0902-.0649-.1636-.077-1.3436-.077s-3.4677.0109-4.6536.0241c-1.186.0132-1.2713.0277-1.3365.0987-.0652.0709-.1116.1971-.1329.5723-.0231.4502-.0151.9016.0237 1.3506-.0009.1896.0647.3733.185.5183.0676.0842.1258.1696.0962.2477-.0128.0273-.0316.0513-.0548.0703-.0232.0189-.0503.0323-.0793.0392-.1623-.0435-.3061-.1395-.4097-.2734s-.1613-.2985-.1643-.4686v-1.7763c.0059-.2093.0931-.4079.2425-.5524.1495-.1446.3491-.2235.5556-.2196z" fill="#fefefe"/></g><path d="m16.3272 15.7383h6.8238c.2718-.0009.5335.1047.7305.2946.0941.0908.1692.1998.2208.3207.0515.1209.0785.2511.0793.3828v1.7763c-.0005.1328-.0277.264-.0799.3858-.0522.1217-.1283.2315-.2237.3225-.1974.19-.4596.2955-.7318.2946h-6.8236c-.2718.0007-.5336-.1048-.7307-.2946-.0941-.0907-.1692-.1998-.2207-.3207-.0516-.1209-.0785-.2511-.0792-.3829v-1.7762c.0007-.1328.0281-.2641.0805-.3859s.1287-.2315.2242-.3224c.1971-.1898.4587-.2953.7305-.2946zm6.8238.4582h-6.8238c-.1474-.0004-.2893.0569-.3961.1599-.0517.0493-.0929.1087-.1213.1746-.0283.066-.043.1371-.0434.2091v1.7762c.0002.072.0147.1432.0428.2094.0282.0661.0693.1258.1208.1754.1071.1024.2489.1591.3961.1587h6.8238c.1473.0002.2891-.057.396-.1599.0519-.0494.0933-.109.1216-.1752.0284-.0661.0431-.1375.0433-.2097v-1.7762c-.0003-.0718-.015-.1429-.0431-.2088-.0281-.066-.0692-.1254-.1206-.1748-.1071-.1023-.2489-.1592-.3961-.1587z" fill="#949494"/><path d="m9.66104 18.7676c.26469-.0004.52686.0525.77116.1557.2443.1033.466.2548.6521.4456.377.3884.5884.9114.5884 1.4564s-.2114 1.0682-.5884 1.4565c-.1858.1916-.4073.3437-.6517.4475-.2443.1039-.50661.1574-.77156.1574-.26494 0-.52722-.0535-.77156-.1574-.24435-.1038-.46588-.2559-.65164-.4475-.37708-.3883-.58843-.9115-.58843-1.4565s.21135-1.068.58843-1.4564c.1861-.1908.40775-.3423.65207-.4456.24433-.1032.50645-.1561.77113-.1557zm1.02236 1.0077c-.1336-.1375-.2929-.2466-.4685-.3211s-.36407-.1129-.55444-.1129c-.19036 0-.37884.0384-.55445.1129s-.33485.1836-.46848.3211c-.27265.2819-.42537.6611-.42537 1.056s.15272.7741.42537 1.056c.13363.1375.29287.2466.46848.3211s.36409.1129.55445.1129c.19037 0 .37884-.0384.55444-.1129s.3349-.1836.4685-.3211c.2726-.2819.4254-.6611.4254-1.056s-.1528-.7741-.4254-1.056z" fill="#e8e8e8"/><path d="m30.4054 17.7178c.2646-.0004.5267.0527.771.1559.2444.1032.466.2546.6521.4454.3771.3884.5884.9116.5884 1.4565 0 .545-.2113 1.0681-.5884 1.4564-.1857.1916-.4074.3438-.6518.4477-.2443.1038-.5064.1573-.7713.1573-.265 0-.5273-.0535-.7717-.1573-.2443-.1039-.466-.2561-.6518-.4477-.377-.3883-.5883-.9114-.5883-1.4564 0-.5449.2113-1.0681.5883-1.4565.1862-.1908.4081-.3422.6524-.4454s.5064-.1563.7711-.1559zm1.0221 1.0078c-.1336-.1376-.2926-.2469-.4682-.3215s-.3641-.113-.5545-.113-.3792.0384-.5548.113-.3347.1839-.4682.3215c-.2727.282-.4254.6612-.4254 1.0561 0 .3948.1527.7739.4254 1.0558.1335.1377.2926.2471.4682.3217s.3644.113.5548.113.3789-.0384.5545-.113.3346-.184.4682-.3217c.2726-.2819.4253-.661.4253-1.0558 0-.3949-.1527-.7741-.4253-1.0561z" fill="#e8e8e8"/><path d="m25.7705 10.1914c.2646-.0004.5267.0526.771.1558.2444.1032.466.2547.6521.4456.3771.3883.5885.9114.5885 1.4564s-.2114 1.0681-.5885 1.4564c-.1858.1916-.4073.3437-.6516.4476-.2444.1039-.5066.1573-.7715.1573-.265 0-.5272-.0534-.7716-.1573-.2443-.1039-.4658-.256-.6516-.4476-.3771-.3883-.5885-.9114-.5885-1.4564s.2114-1.0681.5885-1.4564c.1861-.1909.4078-.3424.6521-.4456s.5064-.1562.7711-.1558zm1.0222 1.0079c-.1336-.1375-.2927-.2467-.4683-.3212s-.3642-.1129-.5545-.1129c-.1904 0-.3789.0384-.5545.1129s-.3349.1837-.4685.3212c-.2727.2819-.4254.661-.4254 1.0559s.1527.774.4254 1.056c.1336.1375.2929.2466.4685.3212.1756.0745.3641.1128.5545.1128.1903 0 .3789-.0383.5545-.1128.1756-.0746.3347-.1837.4683-.3212.2727-.282.4255-.6611.4255-1.056s-.1528-.774-.4255-1.0559z" fill="#e8e8e8"/><path clip-rule="evenodd" d="m16.634 14.9561h6.1447v3.6886c-.0009.3037-.1203.5946-.3321.8094-.2118.2147-.4987.3358-.7982.3368h-3.8853c-.2995-.001-.5864-.1221-.7982-.3368-.2117-.2148-.3311-.5057-.3321-.8094z" fill="#949494" fill-rule="evenodd"/><path clip-rule="evenodd" d="m18.0665 19.7921h-.3024c-.2995-.001-.5864-.1221-.7982-.3368-.2118-.2148-.3312-.5057-.3321-.8094v-2.9105h.1506.2087c.038 0 .038 0 .0356.2646-.0023.2646-.0083.7937-.0118 1.2905-.0036.4967 0 .9621 0 1.252-.011.1846.0199.3693.0902.5399.0665.1594.1839.2916.3332.3753.1624.0503.3286.0869.4969.1094.0251.0021.0493.0103.0707.024.0213.0136.0391.0322.0518.0543s.0199.0469.0211.0724c.0012.0256-.0037.0511-.0143.0743z" fill="#dadada" fill-rule="evenodd"/><path d="m22.9485 15.7383v2.908c0 .1731-.0337.3444-.0993.5041-.0655.1598-.1616.3048-.2826.4268-.1203.1226-.2633.22-.4208.2864-.1576.0665-.3264.1008-.4971.1009h-3.8842c-.346 0-.6778-.1394-.9225-.3875-.2446-.2481-.382-.5846-.382-.9354v-2.9033h.339v2.908c.001.2581.1025.5054.2825.6878.1799.1825.4238.2855.6783.2864h3.8842c.126.0001.2507-.025.3671-.0739s.2223-.1207.3113-.2111c.0894-.0902.1603-.1974.2088-.3155.0484-.118.0733-.2445.0734-.3724v-2.9093h.3392z" fill="#949494"/><path clip-rule="evenodd" d="m12.159 22.6905c.4071-.004.8062.1148 1.1467.3412.3404.2264.6068.5503.7654.9305.1586.3803.2022.7998.1252 1.2052s-.271.7785-.5574 1.0719c-.2865.2933-.6525.4937-1.0515.5758-.399.082-.8131.0419-1.1896-.1151-.3765-.1571-.6985-.424-.9251-.767-.2267-.343-.3477-.7465-.3477-1.1594-.0025-.5497.2103-1.0779.5918-1.4685.3814-.3906.9001-.6117 1.4422-.6146z" fill="#949494" fill-rule="evenodd"/><path d="m12.8389 22.6279c.332.1107.6332.2999.8788.552.237.2424.4169.536.5261.8589s.145.6666.1046 1.0055-.1559.664-.3379.9512c-.1819.2872-.4256.5289-.7127.7071-.0261-.0878-.0604-.2045-.0972-.344.0997-.0685.1927-.1466.2775-.2333.3506-.3601.5471-.8458.5471-1.3519 0-.506-.1965-.9917-.5471-1.3518-.1802-.1852-.3963-.3305-.6345-.4269-.0024-.1287-.0035-.2513-.0047-.3668z" fill="#949494"/><path clip-rule="evenodd" d="m27.5065 22.7325c.4071-.004.8062.1147 1.1466.3411.3405.2264.607.5502.7656.9305.1586.3802.2021.7997.1251 1.2051-.077.4055-.2709.7786-.5574 1.0719-.2865.2934-.6524.4938-1.0514.5758-.399.0821-.8132.0421-1.1897-.1149-.3766-.1571-.6985-.4241-.9252-.7671-.2266-.343-.3474-.7465-.3474-1.1594-.0025-.5497.2101-1.0778.5915-1.4684.3815-.3906.9002-.6117 1.4423-.6146z" fill="#949494" fill-rule="evenodd"/><path d="m26.4636 26.8009c-.391-.2151-.7096-.5438-.9147-.944-.2052-.4002-.2873-.8536-.2363-1.3017.051-.448.2329-.8704.5226-1.2127.2897-.3422.6739-.5887 1.1029-.7077.0191.1192.0257.2402.02.3608-.2887.0931-.5528.2509-.7731.4618-.3505.3601-.5472.8458-.5472 1.3518s.1967.9917.5472 1.3519c.1281.1241.2672.2356.4161.3331-.0142.1275-.1103.1876-.1375.3067z" fill="#949494"/><path clip-rule="evenodd" d="m26.4111 16.6085c.4071-.0041.8061.1146 1.1466.341.3405.2265.6071.5505.7656.9308.1585.3804.2019.7999.1248 1.2054-.0771.4054-.2711.7785-.5577 1.0718-.2866.2934-.6526.4936-1.0516.5755-.3991.082-.8133.0417-1.1898-.1155s-.6984-.4244-.9249-.7675c-.2264-.3432-.3473-.7468-.3471-1.1597-.0022-.5495.2107-1.0775.5921-1.4678.3814-.3904.9001-.6111 1.442-.614z" fill="#949494" fill-rule="evenodd"/><path d="m26.9232 20.8829c-.3668.0889-.7499.0804-1.1124-.025-.3626-.1053-.6923-.3039-.957-.5764-.3067-.315-.516-.7139-.602-1.1479s-.0448-.8841.1181-1.2947c.1103.024.223.0505.3333.0817-.1507.3523-.1943.7422-.1248 1.1196.0696.3775.2489.7252.5149.9985.2274.234.5113.4032.8234.4912.3122.088.6417.0917.9556.0103.0142.1131.0331.2177.0521.3403z" fill="#949494"/><path clip-rule="evenodd" d="m13.0656 16.5362c.373-.0036.7387.1053 1.0505.3129.3119.2075.5558.5043.701.8527.1452.3485.1851.7328.1145 1.1042s-.2485.7132-.511.982c-.2625.2687-.5978.4523-.9634.5274s-.7449.0384-1.0899-.1055-.64-.3885-.8476-.7028-.3185-.684-.3185-1.0623c-.0022-.5037.1929-.9878.5425-1.3457s.8251-.5603 1.3219-.5629z" fill="#949494" fill-rule="evenodd"/><path d="m15.0506 17.9727c.0782.3441.0694.7027-.0255 1.0425-.095.3397-.273.6496-.5177.901-.1879.1934-.4119.347-.6589.4517s-.512.1584-.7797.1581h-.1186c.0225-.083.0415-.1587.0557-.2129.0068-.0475.0274-.092.0593-.1275.2231.0002.4439-.0446.6498-.1317.2058-.0872.3925-.2149.5493-.3759.3193-.327.4979-.7689.4969-1.2291.0004-.1212-.0115-.242-.0355-.3607.0854-.0373.1671-.0626.2371-.0854z" fill="#949494"/><path clip-rule="evenodd" d="m18.4006 26.3623h3.3469c-.0019.6152-.2438 1.2047-.6729 1.6396s-1.0106.6799-1.6173.6815h-1.0579v-2.3211z" fill="#fefefe" fill-rule="evenodd"/><path d="m18.4006 26.1318h3.3481c.0601 0 .1176.0242.1601.0673s.0665.1017.0665.1626c0 .3353-.0652.6671-.192.9766-.1268.3096-.3127.5909-.547.8275-.2331.2376-.5103.426-.8156.5546-.3054.1286-.6328.1946-.9634.1944h-1.0579c-.06 0-.1177-.0241-.1602-.0672s-.0663-.1015-.0663-.1624v-2.3211c-.0004-.0305.0053-.0607.0166-.089.0113-.0282.028-.0538.0492-.0754s.0465-.0389.0743-.0505c.0278-.0117.0575-.0175.0876-.0174zm3.1085.4584h-2.8832v1.863h.8303c.2708.0002.5389-.0541.789-.1594s.4774-.2594.6686-.4539c.3335-.3357.5436-.7772.5953-1.2509z" fill="#949494"/><path clip-rule="evenodd" d="m18.4415 23.2483c.0394.0035.077.0185.1082.0433.0311.0247.0544.0582.0671.0961.0128.038.0144.0789.0047.1178-.0098.0389-.0306.074-.0597.1011-.0291.0272-.0653.0452-.1044.0519-.039.0066-.0789.0015-.1152-.0146-.0362-.016-.0672-.0424-.0889-.0759s-.0334-.0726-.0336-.1127c.0011-.0284.0078-.0563.0196-.0821.0117-.0258.0283-.049.0489-.0683.0206-.0192.0448-.0341.0711-.0439.0263-.0097.0542-.014.0822-.0127z" fill="#e8e8e8" fill-rule="evenodd"/></svg>