<svg width="169" height="51" viewBox="0 0 169 51" fill="none" xmlns="http://www.w3.org/2000/svg">
<path fill-rule="evenodd" clip-rule="evenodd" d="M18.3439 9.04058C16.3208 9.34532 14.6518 10.9213 14.1254 13.0242L14 13.5255V26.0041V38.4828L14.1263 38.9876C14.5986 40.8753 15.8892 42.257 17.7289 42.8443L18.2164 43H30.6716H43.1268L43.6227 42.8419C45.4105 42.2719 46.6972 40.9192 47.1946 39.0868L47.3432 38.5393L47.3579 26.174C47.3742 12.5503 47.3946 13.4167 47.0329 12.3993C46.7179 11.5133 46.0506 10.5958 45.3024 10.02C44.8674 9.68512 44.0905 9.30071 43.5151 9.13561L43.0713 9.00828L30.8658 9.0006C24.1528 8.99643 18.5179 9.01438 18.3439 9.04058ZM41.4139 11.7801C42.3523 11.9801 43.1723 12.7838 43.4549 13.7804C43.5344 14.0611 43.5418 15.1667 43.5292 25.001L43.5151 35.9103L38.8271 31.0501C36.2487 28.377 34.1049 26.1417 34.063 26.083C33.993 25.9845 34.1674 25.789 36.2866 23.5904C37.5515 22.2782 38.687 21.0522 38.8101 20.8659C40.3751 18.4964 40.4535 14.5186 38.9841 12.0375C38.8672 11.8402 38.7716 11.6661 38.7716 11.6505C38.7716 11.5892 41.0399 11.7003 41.4139 11.7801ZM23.9199 11.7814C24.7011 11.9596 25.4021 12.3623 25.9924 12.972C27.4646 14.4926 27.704 16.9506 26.5483 18.6812C26.4146 18.8815 25.2533 20.1307 23.8974 21.5327C22.5704 22.9051 21.0415 24.4893 20.5 25.0532L19.5154 26.0784L22.694 29.3729C24.4423 31.1848 25.9632 32.7943 26.074 32.9495C27.9199 35.5357 26.6427 39.0392 23.4847 40.0525C22.8508 40.256 22.3156 40.3179 21.1923 40.3179C20.1226 40.3179 19.7945 40.2633 19.2838 39.9999C18.9255 39.8151 18.3212 39.2008 18.1205 38.8174C17.7798 38.1665 17.8004 38.9915 17.8004 26.0041C17.8004 15.6809 17.8111 14.1002 17.883 13.8192C18.1395 12.8168 18.8774 12.0332 19.8034 11.7797C20.2603 11.6547 23.3698 11.656 23.9199 11.7814ZM33.5288 11.8783C34.1995 12.1161 34.6894 12.4363 35.2209 12.9837C35.9695 13.7548 36.3769 14.6208 36.4965 15.6949C36.623 16.8315 36.3227 17.9566 35.6495 18.8683C35.5206 19.0429 33.9464 20.7145 32.1513 22.583L28.8874 25.9801L29.2357 26.3592C29.4273 26.5676 32.4189 29.6818 35.8838 33.2796C39.3487 36.8773 42.1836 39.85 42.1836 39.8856C42.1836 39.9939 41.5657 40.2075 41.0844 40.2655C40.799 40.3 38.5255 40.3061 34.9647 40.282L29.2992 40.2437L29.5175 39.7021C30.0915 38.2781 30.5106 36.7746 30.5894 35.8572C30.6884 34.7037 30.3369 32.9029 29.7773 31.6975C29.3347 30.7442 29.025 30.3641 26.8754 28.1351C25.7593 26.9779 24.8463 26.0171 24.8463 25.9999C24.8463 25.9827 25.8221 24.9428 27.0149 23.6889C28.2077 22.4351 29.283 21.2742 29.4046 21.1093C30.0541 20.2281 30.5468 18.9151 30.7249 17.5909C30.8245 16.8507 30.8011 15.482 30.6762 14.7383C30.5054 13.7217 30.1384 12.6765 29.7105 11.9879C29.6288 11.8565 29.562 11.7339 29.562 11.7155C29.562 11.6971 30.3547 11.6907 31.3235 11.7014L33.085 11.7208L33.5288 11.8783ZM52.4196 26.0049V34.514L56.4558 34.4849C60.6435 34.4548 60.9591 34.4383 62.0247 34.1945C63.1977 33.9262 64.0187 33.4953 64.7092 32.7853C65.4072 32.0677 65.7265 31.3353 65.8553 30.1562C66.0893 28.0144 65.1065 26.5486 63.0491 25.9708C62.7869 25.8972 62.5724 25.8209 62.5724 25.8013C62.5724 25.7817 62.7159 25.7099 62.8914 25.6417C64.6667 24.9514 65.5484 23.5423 65.4382 21.5717C65.3977 20.8485 65.2923 20.4321 65.0095 19.8777C64.4101 18.7028 63.289 17.9845 61.5183 17.6411C61.1174 17.5634 60.3999 17.5456 56.7332 17.5227L52.4196 17.4958V26.0049ZM71.7247 17.5203C71.7237 17.5281 70.3045 21.3331 68.5708 25.9759C66.8373 30.6187 65.429 34.4364 65.4413 34.4597C65.4538 34.483 66.4589 34.5021 67.6752 34.5021H69.8865L69.9761 34.2621C70.0253 34.1301 70.3231 33.3107 70.6378 32.4411L71.2099 30.8601H74.339H77.4682L78.0862 32.667L78.7042 34.4738L81.124 34.4886C82.4548 34.4967 83.5437 34.4874 83.5437 34.468C83.5437 34.4006 77.1989 17.6469 77.1469 17.5768C77.1062 17.522 76.4927 17.5062 74.4105 17.5062C72.9343 17.5062 71.7257 17.5126 71.7247 17.5203ZM84.2094 26.0041V34.5021H86.2424H88.2753L88.2401 32.8505C88.2207 31.9421 88.1919 29.6235 88.1759 27.6981C88.16 25.7726 88.133 23.9114 88.116 23.562C88.098 23.1936 88.1062 22.9268 88.1356 22.9268C88.1635 22.9268 89.4573 25.4587 91.0107 28.5532C92.5641 31.6478 93.8785 34.2522 93.9314 34.3409L94.0277 34.5021H96.747H99.4663V26.0035V17.5048L97.4628 17.5197L95.4592 17.5344L95.4655 21.6281C95.4689 23.8797 95.488 26.4651 95.5079 27.3734C95.5294 28.3523 95.5236 29.025 95.4938 29.025C95.4661 29.025 94.1786 26.4333 92.6328 23.2656L89.8221 17.5062H87.0157H84.2094V26.0041ZM101.02 26.0041V34.5021H103.211H105.403V30.6658C105.403 28.5558 105.421 26.8184 105.444 26.8049C105.467 26.7913 106.648 28.5113 108.069 30.627L110.652 34.4738L113.464 34.4885C115.011 34.4965 116.277 34.4913 116.277 34.4769C116.277 34.4571 109.97 25.8104 109.719 25.4857C109.683 25.4396 110.604 24.2174 112.708 21.5183C114.381 19.3728 115.758 17.5922 115.768 17.5613C115.781 17.5244 114.876 17.5102 113.135 17.5198L110.483 17.5344L107.993 20.9788C106.623 22.8732 105.48 24.4316 105.452 24.4419C105.423 24.4529 105.403 23.0185 105.403 20.9835V17.5062H103.211H101.02V26.0041ZM121.825 25.9989V34.5021L125.112 34.5016C128.965 34.5009 130.203 34.4489 131.187 34.2463C133.418 33.7865 134.731 32.6633 135.139 30.8656C135.512 29.2175 135.17 27.752 134.208 26.8788C133.816 26.5237 133.04 26.1289 132.407 25.963C132.14 25.893 131.922 25.8226 131.922 25.8065C131.922 25.7904 132.079 25.7198 132.272 25.6496C132.817 25.4507 133.455 25.04 133.844 24.6385C134.55 23.9098 134.91 22.8155 134.845 21.5999C134.728 19.4378 133.43 18.1273 130.923 17.6411C130.522 17.5634 129.805 17.5456 126.138 17.5227L121.825 17.4958V25.9989ZM136.305 26.0041V34.5021H138.496H140.688V31.1365V27.7709L141.561 27.7927C142.382 27.8132 142.456 27.8243 142.784 27.9766C143.28 28.2072 143.67 28.6539 144.012 29.3834C144.331 30.0624 144.514 30.5894 145.204 32.8081L145.722 34.4738L147.987 34.4886C149.232 34.4967 150.268 34.484 150.288 34.4603C150.358 34.3788 148.064 27.9959 147.72 27.3168C147.455 26.7914 147.036 26.3743 146.61 26.2105C146.436 26.1438 146.352 26.0872 146.402 26.07C146.448 26.0541 146.623 25.9979 146.79 25.945C147.767 25.6374 148.685 24.8803 149.08 24.0561C149.398 23.3925 149.527 22.7572 149.529 21.854C149.53 21.2991 149.503 20.9919 149.432 20.7247C149.024 19.1919 147.804 18.127 145.996 17.7251C145.181 17.5438 144.281 17.5103 140.174 17.5082L136.305 17.5062V26.0041ZM151.599 17.5439C151.578 17.5645 151.562 21.3759 151.562 26.0136V34.4456H153.781H156V25.9759V17.5062H153.818C152.618 17.5062 151.619 17.5232 151.599 17.5439ZM59.7023 20.8594C60.684 21.1362 61.0603 21.614 61.0077 22.5165C60.9931 22.7681 60.9427 23.0322 60.8895 23.1359C60.7509 23.4064 60.4157 23.7168 60.1035 23.8638C59.5391 24.1295 59.2217 24.182 58.0092 24.2109L56.858 24.2383V22.4743V20.7103L58.1201 20.7397C59.0299 20.7609 59.4716 20.7944 59.7023 20.8594ZM128.649 20.7831C129.8 20.935 130.351 21.3946 130.411 22.2527C130.447 22.7637 130.353 23.0905 130.078 23.4082C129.8 23.7296 129.508 23.9031 128.981 24.0598C128.63 24.1645 128.383 24.1878 127.386 24.2108L126.207 24.2381V22.4814V20.7247L127.22 20.7264C127.777 20.7274 128.42 20.7529 128.649 20.7831ZM143.567 20.8912C144.708 21.1805 145.186 21.77 145.11 22.7923C145.044 23.677 144.622 24.1528 143.656 24.4287C143.402 24.5012 143.01 24.53 142.005 24.55L140.688 24.576V22.6425V20.709L141.894 20.741C142.856 20.7664 143.196 20.7969 143.567 20.8912ZM75.444 24.3802C75.9733 26.1578 76.3933 27.6255 76.3774 27.6418C76.3615 27.658 75.424 27.6646 74.2942 27.6564L72.2398 27.6416L73.283 24.4231C73.8568 22.653 74.3408 21.1538 74.3587 21.0917C74.3857 20.9982 74.3991 20.9934 74.4364 21.0635C74.4612 21.1101 74.9146 22.6026 75.444 24.3802ZM59.7577 27.4099C60.8639 27.6604 61.3895 28.2081 61.451 29.1746C61.5158 30.194 60.9947 30.8259 59.8486 31.1174C59.4707 31.2135 59.143 31.242 58.1201 31.2675L56.858 31.2989V29.2787V27.2584L58.1201 27.2917C58.9238 27.3129 59.5187 27.3559 59.7577 27.4099ZM129.166 27.4108C129.956 27.5893 130.477 27.95 130.706 28.4749C130.892 28.9028 130.893 29.6651 130.708 30.0833C130.471 30.6179 129.975 30.9535 129.141 31.1432C128.859 31.2072 128.339 31.2458 127.47 31.267L126.207 31.298V29.3239C126.207 28.2382 126.226 27.3299 126.249 27.3055C126.321 27.2288 128.75 27.3165 129.166 27.4108Z" fill="#00529C"/>
</svg>
