<svg width="68" height="54" viewBox="0 0 68 54" fill="none" xmlns="http://www.w3.org/2000/svg">
<path d="M17.1586 28C20.6253 28.3999 23.2253 29.8666 24.9586 32.4C26.6919 34.9333 27.5586 37.7333 27.5586 40.8C27.5586 44 26.4919 46.8666 24.3586 49.3999C22.3586 51.9333 19.3586 53.2 15.3586 53.2C13.7586 53.2 12.0919 52.9333 10.3586 52.3999C8.62526 51.7333 7.02526 50.6666 5.55859 49.2C4.09193 47.7333 2.89193 45.7333 1.95859 43.1999C1.02526 40.6666 0.558594 37.4666 0.558594 33.6C0.558594 26.4 2.62526 19.9333 6.75859 14.2C10.8919 8.33328 16.1586 3.66661 22.5586 0.199951L28.3586 8.19994C24.8919 10.0666 21.7586 12.6 18.9586 15.8C16.2919 18.8666 14.4919 22.7333 13.5586 27.3999L17.1586 28ZM56.1586 28C59.6253 28.3999 62.2253 29.8666 63.9586 32.4C65.6919 34.9333 66.5586 37.7333 66.5586 40.8C66.5586 44 65.4919 46.8666 63.3586 49.3999C61.3586 51.9333 58.3586 53.2 54.3586 53.2C52.7586 53.2 51.0919 52.9333 49.3586 52.3999C47.6253 51.7333 46.0253 50.6666 44.5586 49.2C43.0919 47.7333 41.8919 45.7333 40.9586 43.1999C40.0253 40.6666 39.5586 37.4666 39.5586 33.6C39.5586 26.4 41.6253 19.9333 45.7586 14.2C49.8919 8.33328 55.1586 3.66661 61.5586 0.199951L67.3586 8.19994C63.8919 10.0666 60.7586 12.6 57.9586 15.8C55.2919 18.8666 53.4919 22.7333 52.5586 27.3999L56.1586 28Z" fill="black"/>
</svg>
