<svg width="34" height="34" viewBox="0 0 34 34" fill="none" xmlns="http://www.w3.org/2000/svg">
<circle cx="17" cy="17" r="17" fill="white"/>
<path d="M13.461 24.4533C14.2284 23.5941 14.3779 22.5329 14.3851 21.4536C14.4068 18.1278 14.3967 14.8015 14.3891 11.4752C14.3862 10.2748 14.7556 9.26074 15.6169 8.46022C16.5855 7.56002 17.5515 6.65676 18.5096 5.74468C20.4767 3.87182 23.2011 4.7839 23.8125 7.52015C24.1801 9.16566 23.8421 10.6881 23.1137 12.1415C22.4564 13.4539 21.5117 14.4951 20.3767 15.3509C20.3196 15.3938 20.2647 15.4402 20.1744 15.5127C20.7883 15.602 21.3597 15.6629 21.9219 15.7753C22.3008 15.8512 22.6771 15.9708 23.036 16.1215C24.9544 16.9277 25.9305 18.6683 25.8334 20.8778C25.6839 24.2769 23.9526 26.5044 21.2199 27.959C19.6248 28.8078 17.9191 29.3323 16.1008 29.2265C15.7191 29.2042 15.3085 29.1448 14.9709 28.9711C13.002 27.959 11.0616 28.207 9.11906 29.0359C9.0183 29.0789 8.91646 29.1184 8.81462 29.1575C8.80595 29.1609 8.79259 29.1502 8.74637 29.1325C9.33862 28.2385 10.0168 27.4456 10.807 26.7628C11.9915 25.7396 13.3114 25.0529 14.8618 24.9433C16.068 24.8581 17.1954 25.1675 18.2803 25.6978C18.4103 25.7614 18.5378 25.8308 18.7241 25.9274C18.7241 25.7323 18.7241 25.585 18.7241 25.4378C18.7241 20.887 18.7216 16.3358 18.7274 11.785C18.7281 11.2494 18.7909 10.7061 18.1719 10.4301C18.4601 10.1333 18.6999 9.88604 18.9314 9.64719C19.164 9.89333 19.3933 10.1356 19.6352 10.3917C19.6367 10.3821 19.641 10.4174 19.628 10.427C19.16 10.7774 19.082 11.2651 19.1022 11.8413C19.1391 12.8972 19.1127 13.9553 19.1127 15.0123C19.1127 15.1496 19.1127 15.2868 19.1127 15.4241C19.1539 15.4479 19.1947 15.4716 19.2358 15.4958C19.5092 15.1507 19.8234 14.8329 20.0477 14.4553C20.6768 13.3975 20.8292 12.1948 20.8837 10.9764C20.9259 10.0298 20.8353 9.09435 20.5337 8.1976C20.4294 7.88667 20.2867 7.57459 20.0993 7.31312C19.4991 6.47618 18.4305 6.50877 17.9477 7.4266C17.7104 7.87785 17.5688 8.44718 17.5634 8.96514C17.5288 12.3037 17.5103 15.6438 17.5537 18.9819C17.5833 21.247 16.4363 23.1678 14.3396 24.1086C14.0529 24.2371 13.7542 24.339 13.461 24.4533ZM19.1521 16.2204C19.1351 16.3024 19.1167 16.3507 19.1167 16.3991C19.1149 19.58 19.1123 22.7614 19.1163 25.9424C19.1167 26.3077 19.507 26.537 19.8086 26.3549C20.5229 25.9243 21.0671 25.3094 21.4687 24.556C22.1715 23.2372 22.3896 21.8022 22.3094 20.3104C22.2553 19.3028 21.9895 18.3574 21.4066 17.5423C20.844 16.7564 20.0899 16.3247 19.1521 16.2204Z" fill="black"/>
<path d="M13.8105 10.2C13.5419 11.0696 13.5186 11.9481 13.5197 12.8318C13.5236 15.431 13.4888 18.0309 13.5304 20.6293C13.5696 23.0491 12.4168 24.6062 10.3632 25.5746C10.1553 25.6727 9.93953 25.7522 9.72628 25.8377C9.70761 25.8451 9.6814 25.8333 9.61929 25.8255C10.3994 25.0936 10.4271 24.1385 10.4274 23.1756C10.4282 21.9819 10.4274 20.7877 10.4274 19.594C10.4274 19.4585 10.4274 19.3235 10.4274 19.1947C9.6455 19.047 9.23191 19.457 8.67507 20.948C8.1929 19.4826 7.82419 18.0831 8.42375 16.6292C8.75082 15.8358 9.3091 15.478 10.4274 15.2804C10.4274 14.9873 10.4314 14.682 10.4267 14.3767C10.4163 13.7151 10.6095 13.1156 11.022 12.6194C11.8201 11.6598 12.7844 10.8961 13.8105 10.2Z" fill="black"/>
<path d="M7.47998 7.8683C8.12445 6.11644 8.89543 4.51874 10.7714 4.12713C11.3613 4.0038 11.9114 4.12993 12.4308 4.41824C12.8201 4.63447 13.2184 4.85911 13.5535 5.16103C14.5533 6.06158 15.5935 6.02515 16.684 5.42451C16.7704 5.37686 16.8568 5.32921 16.9584 5.27315C16.9652 5.3236 16.9847 5.36725 16.9725 5.39007C16.4097 6.42557 15.7468 7.36537 14.841 8.06371C13.5018 9.09601 12.3379 9.09681 10.9947 8.07773C10.9347 8.03208 10.8758 7.98443 10.8176 7.93598C9.67219 6.98296 8.87338 6.94092 7.63577 7.7686C7.58444 7.80264 7.53203 7.83507 7.47998 7.8683Z" fill="black"/>
</svg>
