<svg width="252" height="45" viewBox="0 0 252 45" fill="none" xmlns="http://www.w3.org/2000/svg">
<g clip-path="url(#clip0_317_2712)">
<path d="M81.5119 10.7879C81.8305 11.027 82.0515 11.1401 82.2054 11.3131C84.5743 14.0757 86.9367 16.8425 89.2926 19.6158C90.5562 21.106 91.8003 22.6111 93.053 24.1098C93.1289 24.2251 93.2459 24.3084 93.3824 24.3383C93.4063 24.1867 93.4193 24.033 93.428 23.8792C93.428 20.7132 93.4366 17.5471 93.4215 14.381C93.4171 13.8088 93.3608 13.2388 93.2502 12.6773C93.0877 11.834 92.7322 11.5693 91.8761 11.4732C91.7309 11.4561 91.5965 11.3195 91.4578 11.2362C91.6095 11.1722 91.7613 11.0547 91.9151 11.0526C93.4583 11.0398 95.0014 11.0398 96.5424 11.0526C96.6811 11.0526 96.8199 11.1572 96.9586 11.2149C96.8307 11.3045 96.7115 11.454 96.5684 11.4775C95.7709 11.612 95.4306 11.992 95.3569 12.9676C95.294 13.8024 95.242 14.6414 95.242 15.4804C95.2312 19.6969 95.242 23.9113 95.242 28.1256V28.9881C94.9559 28.8152 94.7327 28.7426 94.6027 28.591C91.0092 24.4066 87.4201 20.22 83.8353 16.027C83.7139 15.8839 83.5904 15.7452 83.3649 15.4868C83.3476 15.8178 83.3259 16.012 83.3259 16.2085C83.3259 19.319 83.3259 22.4275 83.3389 25.536C83.3476 25.9928 83.3866 26.4497 83.4603 26.9002C83.6142 27.9313 83.935 28.1705 85.2592 28.2879C85.2592 28.4202 85.27 28.559 85.2787 28.7191H74.7497C74.6262 28.4117 74.6674 28.2708 75.0423 28.243C76.061 28.1705 76.2777 27.8929 75.9873 26.9258C75.6839 25.9053 75.3089 24.904 74.9296 23.9091C74.8863 23.8259 74.8212 23.7512 74.7454 23.6978C74.6674 23.6423 74.5763 23.606 74.4831 23.591C72.6149 23.5697 70.7445 23.5697 68.874 23.591C68.7787 23.606 68.6876 23.6423 68.6096 23.6999C68.5316 23.7554 68.4666 23.8301 68.4211 23.9134C68.0266 24.904 67.6278 25.8968 67.3114 26.913C67.0188 27.8502 67.281 28.1833 68.2672 28.2409C68.6031 28.2623 68.731 28.3562 68.614 28.6743H65.9655C65.196 28.6807 64.4245 28.6978 63.6507 28.7213C63.3451 28.7298 63.1414 28.6786 63.2866 28.2687C64.1601 28.2943 64.6412 27.7178 64.9511 27.0176C65.8636 24.9617 66.7565 22.8908 67.6126 20.8178C68.9174 17.6431 70.1809 14.4535 71.4727 11.2746C71.555 11.0718 71.7523 10.916 71.8953 10.7388C72.0319 10.9224 72.2161 11.0825 72.2963 11.2917C74.1689 16.0441 76.0328 20.7985 77.8924 25.553C78.107 26.0846 78.3475 26.6034 78.6141 27.1115C78.7572 27.3827 78.9327 27.6346 79.1408 27.8588C79.3033 28.053 79.5266 28.1875 79.7736 28.2473C80.0207 28.3071 80.2808 28.2836 80.5149 28.1854C80.8421 28.0402 81.2171 27.6132 81.2496 27.2802C81.3992 25.7281 81.4924 24.1653 81.5075 22.6068C81.54 18.9646 81.5184 15.3203 81.5184 11.676L81.5119 10.7857V10.7879ZM71.7306 15.1495C70.829 17.5001 69.9946 19.6841 69.1406 21.9002H74.1884C73.3713 19.6692 72.5845 17.4915 71.7306 15.1495Z" fill="white"/>
<path d="M251.85 28.6933H246.454C246.324 28.4243 246.339 28.2343 246.727 28.2429C247.667 28.2599 247.99 27.8479 247.683 26.868C247.375 25.8859 247.009 24.8846 246.627 23.909C246.575 23.8193 246.501 23.7424 246.415 23.6869C246.328 23.6293 246.228 23.5951 246.124 23.5823C244.293 23.5588 242.464 23.561 240.632 23.5823C240.463 23.5823 240.197 23.7104 240.142 23.8449C239.733 24.8697 239.319 25.8987 239 26.9512C238.718 27.8821 239.011 28.2023 239.999 28.245L240.331 28.2621C240.34 28.4094 240.348 28.5482 240.359 28.7147H229.232V28.2663C229.451 28.2557 229.642 28.2514 229.83 28.2322C230.409 28.1724 230.818 27.8885 230.931 27.3078C231.055 26.7505 231.131 26.1827 231.152 25.6126C231.172 21.742 231.172 17.8692 231.152 13.9986C231.146 13.561 231.102 13.1233 231.024 12.692C230.883 11.8786 230.552 11.599 229.724 11.4837C229.57 11.4623 229.429 11.3385 229.284 11.2616C229.431 11.1912 229.579 11.0588 229.728 11.0567C231.404 11.0417 233.081 11.0417 234.757 11.0567C234.889 11.0567 235.019 11.1762 235.151 11.2424C235.036 11.3236 234.926 11.4623 234.804 11.4794C233.842 11.6118 233.523 11.8722 233.434 12.8543C233.337 13.9517 233.283 15.0575 233.283 16.1613C233.283 19.4213 233.311 22.6835 233.335 25.9435C233.35 26.2296 233.382 26.5136 233.434 26.7954C233.549 27.6472 233.864 28.0806 234.47 28.2151C235.348 28.4115 235.996 28.2343 236.391 27.4401C237.173 25.8752 237.895 24.2719 238.558 22.6536C240.119 18.8705 241.634 15.0597 243.177 11.2659C243.257 11.0674 243.454 10.9137 243.597 10.7407C243.723 10.9094 243.894 11.061 243.968 11.2488C245.897 16.14 247.823 21.0332 249.752 25.9286C249.969 26.4751 250.216 27.0345 250.574 27.4935C250.83 27.8244 251.291 27.9952 251.655 28.2471C251.777 28.3432 251.894 28.4478 252.002 28.5588L251.853 28.6955L251.85 28.6933ZM245.897 21.9192C245.086 19.6818 244.289 17.4978 243.432 15.1558C242.535 17.4935 241.696 19.6797 240.832 21.9192H245.895H245.897Z" fill="white"/>
<path d="M166.843 19.9381C166.843 14.635 170.776 10.8348 176.279 10.8369C181.527 10.8369 185.322 14.5261 185.322 19.6243C185.322 25.0342 181.334 29.0158 175.894 28.9774C170.373 28.9411 166.691 24.6371 166.841 19.9381H166.843ZM169.097 19.8591C169.186 20.4996 169.222 21.1507 169.374 21.7763C170.001 24.3659 171.539 26.1956 174.166 26.9172C176.761 27.6303 179.119 27.0624 181 25.1217C182.708 23.3604 183.191 21.17 182.953 18.7788C182.543 14.667 178.555 11.8339 174.493 12.7946C171.277 13.5547 169.153 16.3621 169.097 19.8591Z" fill="white"/>
<path d="M149.363 28.2644L149.701 28.2452C150.598 28.1961 151.023 27.878 151.125 26.9835C151.257 25.869 151.327 24.746 151.335 23.6231C151.335 20.2862 151.29 16.9514 151.255 13.6167C151.251 13.369 151.227 13.1235 151.179 12.8801C150.984 11.8554 150.817 11.7038 149.79 11.5052C149.642 11.4775 149.515 11.343 149.376 11.2554L149.465 11.027C151.832 11.027 154.198 11.0035 156.563 11.0398C157.389 11.059 158.214 11.153 159.023 11.3195C162.519 12.0176 164.823 14.5795 165.224 18.0979C165.442 20.0343 165.256 21.913 164.432 23.6829C162.972 26.8255 160.364 28.3626 156.966 28.6359C155.609 28.7448 154.237 28.6636 152.872 28.6765C151.829 28.685 150.789 28.7149 149.749 28.7063C149.58 28.7063 149.413 28.5526 149.246 28.4694L149.363 28.2623V28.2644ZM153.405 12.7905V25.5253C153.405 26.913 153.405 26.9386 154.827 27.0069C157.196 27.1222 159.413 26.7059 161.119 24.8976C162.707 23.2132 163.154 21.1402 163.037 18.9156C162.881 15.9053 161.08 13.7426 158.151 13.0146C157.725 12.8951 157.287 12.8225 156.845 12.7947C155.718 12.7627 154.595 12.784 153.403 12.784V12.7905H153.405Z" fill="white"/>
<path d="M197.238 11.2895C197.353 11.2041 197.48 11.044 197.604 11.044C199.223 11.029 200.844 11.0333 202.463 11.044C202.578 11.044 202.695 11.1657 202.81 11.2297C202.708 11.313 202.619 11.4453 202.506 11.4688C201.594 11.6503 201.373 11.7912 201.275 12.7071C201.15 13.9155 201.085 15.1366 201.076 16.3535C201.052 20.2626 201.067 24.1738 201.067 28.0828V29.0073C200.777 28.813 200.578 28.734 200.452 28.5867C196.826 24.3595 193.202 20.126 189.576 15.8903C189.492 15.7921 189.405 15.6939 189.255 15.5209C189.21 15.6576 189.177 15.7985 189.158 15.9436C189.184 19.4321 189.212 22.9206 189.244 26.4091C189.242 26.4667 189.244 26.5243 189.253 26.582C189.44 27.6003 189.461 28.2237 191.059 28.2793V28.702H185.252C185.462 28.4949 185.592 28.26 185.714 28.2643C186.841 28.3134 187.159 27.4979 187.218 26.6225C187.279 25.7109 187.333 24.7972 187.333 23.8834C187.346 19.8207 187.339 15.7579 187.339 11.6951V10.8027C187.662 11.0312 187.903 11.1465 188.059 11.3215C190.491 14.1546 192.916 16.994 195.335 19.8399C196.525 21.2404 197.695 22.658 198.876 24.067C198.959 24.1652 199.047 24.257 199.223 24.4471C199.251 23.9304 199.294 23.5248 199.294 23.1191C199.286 20.0683 199.271 17.0175 199.251 13.9667C199.251 13.6806 199.232 13.3945 199.186 13.1127C198.954 11.7528 198.753 11.5713 197.381 11.4475L197.233 11.2938L197.238 11.2895Z" fill="white"/>
<path d="M130.041 28.5652C130.193 28.4584 130.334 28.2791 130.496 28.2556C131.48 28.1083 131.836 27.7966 131.924 26.7889C132.005 25.8795 132.05 24.9636 132.054 24.052C132.067 19.9315 132.054 15.8133 132.054 11.695V11.0075L132.189 10.873C132.399 11.0332 132.644 11.1591 132.811 11.3555C135.23 14.1736 137.642 16.9982 140.048 19.8291C141.225 21.2146 142.382 22.6173 143.55 24.0114C143.645 24.1267 143.747 24.2334 143.94 24.4533C143.966 23.9473 144.005 23.5631 144.003 23.1766C143.994 20.1066 143.979 17.0387 143.958 13.9687C143.949 13.5502 143.908 13.1318 143.836 12.7198C143.693 11.8679 143.318 11.5562 142.447 11.4666C142.293 11.4495 142.15 11.3321 142.003 11.2595C142.161 11.1869 142.319 11.0481 142.479 11.0481C143.984 11.031 145.486 11.031 146.992 11.0481C147.172 11.0481 147.349 11.1549 147.529 11.2146C147.375 11.3043 147.23 11.4495 147.066 11.473C146.441 11.569 146.088 11.9405 146.012 12.5233C145.908 13.2962 145.85 14.0754 145.839 14.8547C145.824 19.2035 145.832 23.5502 145.832 27.8991C145.843 28.0699 145.841 28.2428 145.824 28.4136C145.785 28.5652 145.733 28.7146 145.665 28.8577C145.509 28.7765 145.306 28.7317 145.204 28.6079C141.597 24.4128 137.995 20.2134 134.4 16.0075L134.046 15.5976L133.871 15.6425V16.8637C133.901 20.0276 133.934 23.1916 133.968 26.3555C133.968 26.3748 133.968 26.394 133.968 26.411C134.133 27.9247 134.439 28.2151 135.784 28.2791V28.6997H130.18L130.039 28.5695L130.041 28.5652Z" fill="white"/>
<path d="M59.9424 19.4813C60.1136 19.5454 60.2523 19.6073 60.3954 19.6457C62.307 20.1773 63.6009 21.6269 63.7634 23.4288C63.9455 25.4442 62.9203 27.2226 61.0824 28.0765C59.5869 28.7704 57.9896 28.7811 56.3879 28.7576C55.1764 28.7405 53.9648 28.7319 52.7533 28.7149C52.4889 28.7149 52.1746 28.7405 52.3003 28.2751C52.4152 28.2644 52.5322 28.2516 52.6384 28.243C53.4728 28.1918 53.8716 27.9143 53.9757 27.1051C54.1144 26.0868 54.1859 25.0599 54.1924 24.033C54.1924 20.5082 54.1469 16.9813 54.11 13.4565C54.1014 13.1512 54.0624 12.8502 53.9952 12.5513C53.8435 11.8255 53.5964 11.6141 52.8465 11.4775C52.7164 11.454 52.6081 11.3238 52.491 11.2405C52.6124 11.1828 52.7338 11.074 52.8551 11.074C54.7993 11.0633 56.7455 10.9928 58.6853 11.0846C62.2116 11.2512 64.134 14.6948 62.3871 17.6004C61.8995 18.4053 61.3447 18.828 59.9467 19.4792L59.9424 19.4813ZM57.166 20.4314C56.9731 20.4314 56.7585 20.378 56.5938 20.4463C56.4291 20.5146 56.1864 20.7025 56.1842 20.8413C56.156 22.6752 56.1625 24.4984 56.169 26.328C56.169 26.7294 56.3792 26.9365 56.7954 27.0027C57.8465 27.1756 58.9259 27.0197 59.8817 26.5565C60.974 26.0483 61.5375 25.1559 61.6112 23.9839C61.6871 22.7926 61.2233 21.8319 60.2046 21.1572C59.2835 20.5466 58.2237 20.4911 57.166 20.4292V20.4314ZM56.1647 15.7495C56.1647 16.6248 56.1473 17.5001 56.1799 18.3733C56.1864 18.5334 56.3814 18.8131 56.5093 18.8259C57.5605 18.9156 58.5813 18.7875 59.4937 18.2025C60.5557 17.515 61.0477 16.2917 60.7941 14.9574C60.5731 13.7875 59.7408 12.957 58.4707 12.7328C57.8921 12.6303 57.2874 12.6581 56.6957 12.6303C56.3077 12.6111 56.1517 12.7862 56.1603 13.1811C56.182 14.0372 56.1668 14.8933 56.1668 15.7495H56.1647Z" fill="white"/>
<path d="M107.735 11.2915C107.871 11.204 108.003 11.0396 108.14 11.0375C109.681 11.0268 111.222 11.0375 112.767 11.0546C112.902 11.0546 113.029 11.1805 113.162 11.2446C113.047 11.33 112.93 11.4218 112.802 11.4965C112.312 11.7783 111.705 11.9555 111.341 12.3441C109.258 14.5964 107.238 16.8957 105.21 19.195C105.166 19.274 105.142 19.3616 105.142 19.4491C105.142 19.5366 105.166 19.6263 105.21 19.7031C107.392 22.169 109.585 24.6242 111.794 27.0686C112.336 27.6664 112.958 28.1852 113.84 28.2535C113.951 28.2621 114.046 28.482 114.237 28.6997H108.164C108.151 28.593 108.133 28.4499 108.116 28.3197C108.157 28.292 108.198 28.2706 108.244 28.2514C108.58 28.1532 108.92 28.0593 109.256 27.9653C109.124 27.6216 109.068 27.2202 108.846 26.9512C107.022 24.7565 105.168 22.5896 103.318 20.4183C103.216 20.3287 103.105 20.2497 102.988 20.1792C102.988 20.6447 102.982 20.9969 102.988 21.3492C103.021 23.102 103.01 24.8569 103.103 26.6075C103.172 27.8842 103.658 28.245 104.657 28.2535C104.783 28.2535 104.906 28.4521 105.034 28.561L104.932 28.6976H98.9026C98.894 28.5823 98.881 28.4393 98.8701 28.3048C98.9113 28.2813 98.9568 28.2621 99.0067 28.2493C100.311 28.1724 100.597 27.9739 100.756 26.6886C100.875 25.6084 100.927 24.5217 100.912 23.435C100.903 20.175 100.864 16.9149 100.827 13.6549C100.821 13.3496 100.786 13.0464 100.728 12.7476C100.556 11.8295 100.277 11.5883 99.3729 11.4687C99.2364 11.4517 99.1129 11.3364 98.9828 11.2659C99.1215 11.1891 99.2581 11.046 99.399 11.046C101.074 11.0289 102.75 11.0289 104.427 11.046C104.559 11.046 104.687 11.1698 104.819 11.236C104.705 11.3193 104.588 11.4538 104.464 11.473C103.582 11.6075 103.207 11.8466 103.148 12.7177C103.014 14.78 102.984 16.8552 102.908 19.0691C103.14 18.9154 103.222 18.8791 103.276 18.815C104.902 16.9299 106.525 15.0426 108.142 13.1511C108.328 12.9312 108.491 12.6963 108.634 12.4465C108.981 11.8359 108.855 11.5904 108.153 11.4879C108.058 11.4751 107.962 11.4709 107.867 11.4645L107.732 11.2851L107.735 11.2915Z" fill="white"/>
<path d="M214.518 17.5831V21.8658C214.331 21.7014 214.125 21.6096 214.095 21.4793C213.926 20.7727 213.425 20.5293 212.773 20.5208C211.429 20.5037 210.086 20.5208 208.683 20.5208V26.1057C208.683 26.8658 208.798 26.9853 209.537 26.9874C210.79 26.9939 212.043 26.996 213.295 26.9874C214.44 26.9768 214.841 26.6501 215.12 25.5613C215.129 25.5037 215.146 25.4503 215.172 25.3991C215.252 25.2774 215.346 25.16 215.432 25.0404C215.497 25.1728 215.621 25.3073 215.617 25.4375C215.593 26.4089 215.545 27.3867 215.502 28.3517C215.502 28.467 215.489 28.5801 215.48 28.7167H204.823C204.823 28.5908 204.81 28.4477 204.802 28.309C206.176 28.0997 206.457 27.7987 206.514 26.3448C206.574 24.8034 206.616 23.2599 206.611 21.7163C206.605 18.9537 206.559 16.189 206.52 13.4243C206.509 13.1382 206.473 12.8542 206.412 12.5767C206.269 11.8401 206.028 11.6266 205.278 11.4879C205.146 11.4644 205.033 11.3384 204.912 11.2594C205.057 11.1847 205.2 11.0438 205.346 11.0438C208.506 11.0289 211.663 11.031 214.823 11.0225C215.127 11.0225 215.294 11.0865 215.274 11.4366C215.22 12.4678 215.192 13.4926 215.135 14.5195C215.135 14.6262 215.029 14.7308 214.975 14.8354C214.873 14.7479 214.769 14.6625 214.674 14.5686C214.652 14.5472 214.661 14.496 214.652 14.4533C214.355 12.9418 214.219 12.788 212.686 12.7048C211.496 12.6407 210.298 12.6728 209.099 12.6514C208.77 12.645 208.668 12.788 208.668 13.0997C208.677 14.8739 208.675 16.6523 208.668 18.4221C208.668 18.6869 208.718 18.8662 209.043 18.8555C210.372 18.8171 211.705 18.7957 213.027 18.7509C213.261 18.7594 213.493 18.6868 213.681 18.5481C213.87 18.4093 214.006 18.2108 214.067 17.9866C214.115 17.85 214.305 17.7624 214.511 17.5852L214.518 17.5831Z" fill="white"/>
<path d="M226.594 11.3089C226.594 12.4682 226.605 13.5335 226.586 14.5989C226.586 14.8401 226.648 15.2415 226.15 15.1177C226.13 15.0771 226.098 15.0451 226.1 15.0109C226.117 13.9392 225.764 13.1066 224.652 12.7436C223.391 12.3316 221.911 12.6838 221.148 13.5784C220.48 14.3619 220.357 15.613 220.935 16.5801C221.208 17.037 221.562 17.4447 221.976 17.7799C222.801 18.4311 223.686 19.0118 224.553 19.6138C225.71 20.4165 226.729 21.326 227.16 22.7137C228.085 25.709 226.094 28.5698 222.851 28.8645C221.429 28.999 219.995 28.8431 218.636 28.4054C218.23 28.2752 218.057 28.0831 218.092 27.6326C218.174 26.6463 218.187 25.6557 218.259 24.6693C218.269 24.5071 218.438 24.3576 218.534 24.2018C218.605 24.3534 218.722 24.4985 218.744 24.6608C219.03 26.7914 220.439 27.4319 222.563 27.1586C223.759 27.0049 224.739 26.4264 225.068 25.1838C225.404 23.9114 225.036 22.7927 224 21.9601C223.211 21.326 222.335 20.7944 221.529 20.1774C220.833 19.6437 220.097 19.1249 219.527 18.4716C218.332 17.1074 218.092 15.4913 218.738 13.8153C219.394 12.1138 220.786 11.2406 222.556 10.9695C223.95 10.7539 225.32 10.9268 226.594 11.3089Z" fill="white"/>
<path d="M128.266 28.258V28.6999H122.232C122.117 28.401 122.174 28.2644 122.538 28.2345C123.53 28.1533 123.83 27.9121 123.973 26.9343C124.094 26.0867 124.157 25.2306 124.159 24.3745C124.181 21.3045 124.181 18.2345 124.159 15.1644C124.15 14.3276 124.083 13.4907 123.962 12.6623C123.847 11.8318 123.504 11.5863 122.655 11.4774C122.505 11.4582 122.373 11.3301 122.232 11.249C122.377 11.1807 122.523 11.0526 122.668 11.0526C124.306 11.0398 125.943 11.0398 127.581 11.0526C127.748 11.0526 127.913 11.1849 128.078 11.2554C127.932 11.3323 127.794 11.4539 127.642 11.4774C126.781 11.6077 126.43 11.9962 126.35 13.0188C126.292 13.7597 126.235 14.5026 126.244 15.2456C126.263 18.9433 126.296 22.641 126.341 26.3387C126.35 26.6247 126.393 26.9065 126.467 27.1841C126.636 27.8715 127.016 28.1811 127.722 28.2323C127.893 28.2516 128.065 28.2537 128.266 28.2622V28.258Z" fill="white"/>
<path d="M200.404 39.9976V35.0275H201.691V41.9233C201.215 41.9233 200.734 41.9596 200.268 41.9041C200.096 41.8828 199.899 41.6757 199.804 41.4963C199.088 40.1492 198.397 38.7893 197.695 37.4357C197.602 37.2393 197.456 37.0728 197.272 36.9532V41.8742H196.037V34.9976C196.509 34.9784 196.984 34.9848 197.454 35.0168C197.606 35.0339 197.779 35.2453 197.864 35.4118C198.575 36.7611 199.266 38.121 199.964 39.4767C200.059 39.6603 200.157 39.8396 200.255 40.0232L200.404 39.9976Z" fill="white"/>
<path d="M224.902 35.0213H226.222V41.9193C225.712 41.9193 225.199 41.9534 224.694 41.8979C224.546 41.883 224.388 41.6417 224.297 41.4709C223.577 40.1046 222.873 38.7276 222.16 37.3548C222.078 37.1733 221.943 37.0196 221.776 36.9107V41.8232C221.709 41.8616 221.638 41.8937 221.562 41.9129C220.826 41.9641 220.459 41.6232 220.459 40.8902C220.459 39.1161 220.469 37.342 220.452 35.57C220.452 35.1366 220.582 35.0192 221.037 34.9722C221.885 34.8826 222.344 35.1601 222.689 35.9521C223.235 37.2139 223.924 38.403 224.557 39.62C224.633 39.7801 224.754 39.9167 224.904 40.0149V35.0213H224.902Z" fill="white"/>
<path d="M100.099 36.9234V41.9212C99.7415 41.9212 99.4185 41.9575 99.1086 41.9042C99.0327 41.8721 98.9656 41.8209 98.9157 41.7568C98.8659 41.6928 98.8312 41.6159 98.816 41.5348C98.7987 39.4725 98.803 37.4144 98.8073 35.3563C98.8008 35.2603 98.8247 35.1663 98.8745 35.0852C99.0848 34.8247 100.526 35.0297 100.686 35.3393C101.415 36.7462 102.143 38.1531 102.869 39.56C102.953 39.7393 103.079 39.8952 103.233 40.019V35.0446H104.557V41.9212C104.068 41.9212 103.554 41.9469 103.053 41.9042C102.919 41.8913 102.765 41.6821 102.685 41.5284C101.954 40.145 101.237 38.753 100.515 37.3653C100.431 37.203 100.333 37.0451 100.244 36.8849L100.099 36.9234Z" fill="white"/>
<path d="M66.6287 34.9955C67.125 34.9955 67.5888 34.9592 68.0374 35.0148C68.2108 35.0361 68.4124 35.2432 68.5012 35.4119C69.2338 36.7867 69.9425 38.1851 70.6621 39.5728C70.7466 39.7607 70.8897 39.9165 71.0696 40.019V35.0276H72.2941V41.9234C71.8108 41.9234 71.3166 41.9511 70.8312 41.9063C70.6968 41.8935 70.5451 41.6885 70.4649 41.5391C69.7085 40.1044 68.9694 38.6655 68.2217 37.2287C68.161 37.0899 68.0548 36.9768 67.9204 36.9063C67.9096 37.1006 67.8901 37.297 67.8901 37.4913V41.0908C67.8901 41.6658 67.5917 41.9447 66.9949 41.9277C66.8801 41.9277 66.7739 41.9084 66.6287 41.8956V34.9955Z" fill="white"/>
<path d="M204.346 41.8446V35.0149C205.79 35.0149 207.229 34.8164 208.599 35.4313C209.91 36.0205 210.4 37.3036 210.268 38.8386C210.109 40.6725 209.292 41.5649 207.439 41.819C206.447 41.9577 205.417 41.8446 204.346 41.8446ZM205.677 36.123V39.7331C205.677 41.0184 205.864 41.1657 207.131 40.7985C207.444 40.7045 207.734 40.5508 207.988 40.3501C208.846 39.6734 209.093 38.4415 208.618 37.3911C208.15 36.36 207.086 35.8796 205.677 36.123Z" fill="white"/>
<path d="M215.266 42.056C213.1 42.0496 211.839 40.7046 211.848 38.4117C211.856 36.1914 213.163 34.8592 215.32 34.8741C217.431 34.8848 218.749 36.2811 218.736 38.4907C218.725 40.7004 217.39 42.0624 215.266 42.056ZM213.183 38.5099C213.332 39.0244 213.428 39.5283 213.625 39.9937C213.922 40.6982 214.537 41.0185 215.279 41.0249C215.996 41.0249 216.594 40.7196 216.921 40.0599C217.433 39.0287 217.452 37.9698 216.937 36.9344C216.601 36.2597 216.02 35.9331 215.259 35.9395C214.498 35.9459 213.913 36.3003 213.616 36.9813C213.41 37.4531 213.332 37.9847 213.191 38.5099H213.187H213.183Z" fill="white"/>
<path d="M55.7053 38.3369C56.8063 38.7702 57.2355 39.3146 57.1574 40.1024C57.0556 41.1336 56.4466 41.7954 55.3195 41.8915C54.3291 41.9748 53.3256 41.9086 52.2917 41.9086V34.9316C53.4665 35.0064 54.6542 35.0106 55.8137 35.1836C56.5202 35.2882 56.8887 35.886 56.9385 36.6054C56.9841 37.2929 56.7066 37.8266 56.0651 38.1468C55.9654 38.1981 55.8657 38.2536 55.7032 38.339L55.7053 38.3369ZM53.5987 38.7852V39.7801C53.5987 41.0183 53.746 41.1293 54.9771 40.8112C55.0139 40.8027 55.053 40.7942 55.092 40.7813C55.5103 40.634 55.779 40.3544 55.7855 39.9039C55.7942 39.4556 55.61 39.0521 55.1396 38.9453C54.6672 38.8386 54.1643 38.8407 53.5965 38.7831L53.5987 38.7852ZM53.5987 36.0354V36.9449C53.5987 37.8714 53.7374 37.976 54.665 37.7924C54.7582 37.7754 54.8514 37.7519 54.9424 37.7241C55.3564 37.5939 55.5926 37.3164 55.5731 36.8851C55.5731 36.6908 55.5016 36.5051 55.3694 36.362C55.2372 36.219 55.0573 36.1293 54.8644 36.1123C54.4764 36.0525 54.0755 36.0632 53.5987 36.0397V36.0354Z" fill="white"/>
<path d="M164.898 41.9046V34.9233C166.099 35.0045 167.282 35.0151 168.442 35.1881C169.12 35.2905 169.482 35.8563 169.532 36.563C169.578 37.2504 169.354 37.797 168.709 38.1279C168.594 38.1876 168.483 38.2581 168.353 38.335C169.517 38.8409 169.823 39.2594 169.734 40.1923C169.643 41.1509 169.055 41.7829 167.948 41.8832C166.96 41.9729 165.956 41.9024 164.896 41.9024L164.898 41.9046ZM166.231 38.8473V39.8785C166.231 41.0399 166.255 41.0613 167.432 40.835C167.449 40.835 167.471 40.8285 167.488 40.8264C168.117 40.6962 168.399 40.3845 168.384 39.8294C168.37 39.2978 168.037 38.9242 167.449 38.8537C167.077 38.811 166.691 38.8495 166.233 38.8495L166.231 38.8473ZM166.264 37.814C166.944 37.814 167.61 37.9485 168.019 37.3721C168.167 37.165 168.173 36.6847 168.03 36.4818C167.603 35.8627 166.914 36.0741 166.264 36.0591V37.814Z" fill="white"/>
<path d="M114.61 39.1095C114.61 39.8332 114.575 40.5399 114.62 41.2401C114.657 41.7974 114.46 42.0087 113.905 41.9276C113.684 41.9127 113.465 41.9127 113.244 41.9276V35.0168C114.49 35.0296 115.756 34.8375 116.991 35.2261C117.596 35.4161 117.936 35.8559 118.014 36.4878C118.103 37.1987 117.954 37.8179 117.301 38.232C117.182 38.3004 117.061 38.3623 116.933 38.4156C117.438 39.5621 117.939 40.6979 118.465 41.8998H116.92C116.664 41.2487 116.411 40.5911 116.148 39.9378C115.808 39.0839 115.654 38.9963 114.607 39.1116L114.61 39.1095ZM114.679 36.0672V37.9609C115.39 37.9524 116.12 38.1274 116.491 37.4165C116.621 37.171 116.591 36.6949 116.428 36.4729C115.99 35.8793 115.303 36.0715 114.677 36.0651L114.679 36.0672Z" fill="white"/>
<path d="M138.975 39.118V41.8678H137.646V34.9336C138.821 35.0019 139.989 35.0126 141.142 35.162C141.92 35.2624 142.339 35.8495 142.414 36.5903C142.49 37.4251 142.161 38.0164 141.43 38.3537C141.387 38.3751 141.344 38.3922 141.298 38.4071L142.861 41.9255C142.382 41.9255 142.033 41.9682 141.704 41.9084C141.595 41.8871 141.493 41.8444 141.402 41.7824C141.311 41.7205 141.235 41.6415 141.177 41.5476C140.919 41.0181 140.728 40.4566 140.514 39.908C140.18 39.0711 140.002 38.9729 138.977 39.1159L138.975 39.118ZM138.944 36.9938C139.092 37.3525 138.622 38.0164 139.534 37.9801C140.514 37.9396 140.984 37.6471 140.973 36.9639C140.962 36.332 140.518 36.0758 139.519 36.0331C138.658 35.9968 139.079 36.6309 138.949 36.9917H138.947L138.944 36.9938Z" fill="white"/>
<path d="M80.5844 34.9959L77.7126 38.2666L80.6906 41.9237C80.0837 41.9237 79.609 41.9536 79.1409 41.9088C78.9458 41.8661 78.7724 41.7529 78.6532 41.5928C77.9228 40.6897 77.212 39.7696 76.4946 38.8558L76.332 38.8857C76.332 39.5368 76.3429 40.188 76.332 40.8413C76.3082 42.0497 76.5639 41.9258 75.166 41.9173C75.0988 41.9087 75.0338 41.8938 74.9688 41.8725V34.9959C75.3155 34.9959 75.6775 34.951 76.0199 35.0193C76.15 35.045 76.3103 35.3246 76.319 35.4933C76.3515 36.2491 76.332 37.0091 76.4707 37.8353C76.6354 37.6496 76.8023 37.466 76.9649 37.2781C77.4612 36.6974 77.9835 36.1316 78.4452 35.5232C78.7508 35.1175 79.0889 34.919 79.6025 34.9852C79.8756 35.0257 80.1617 34.9937 80.5844 34.9937V34.9959Z" fill="white"/>
<path d="M58.1174 41.8401C58.3797 41.1633 58.6376 40.493 58.8998 39.8247C59.4504 38.4242 60.0355 37.0365 60.5427 35.6211C60.7248 35.1194 60.961 34.9123 61.492 34.987C61.7868 35.0105 62.0815 35.0126 62.3763 34.9955C63.2866 37.2884 64.186 39.5664 65.1115 41.8999H63.6073C63.4556 41.5092 63.2822 41.127 63.1565 40.73C63.0612 40.4268 62.8986 40.3072 62.5778 40.3179C61.9038 40.3393 61.2297 40.3393 60.5557 40.3179C60.2393 40.3072 60.0377 40.3948 59.9618 40.7129C59.9337 40.8047 59.899 40.8922 59.8578 40.9797C59.4438 42.0493 59.3702 42.092 58.1174 41.8401ZM62.6212 39.2782L61.6264 36.4772L61.479 36.5028L60.5015 39.2782H62.6212Z" fill="white"/>
<path d="M244.887 41.9259C245.791 39.633 246.651 37.4361 247.527 35.2478C247.568 35.1816 247.622 35.1261 247.687 35.0834C247.752 35.0407 247.826 35.013 247.902 35.0023C248.737 34.9254 249.304 35.2663 249.603 36.0249C250.283 37.7436 250.962 39.46 251.64 41.1765C251.729 41.405 251.807 41.6355 251.913 41.9237C251.465 41.9237 251.077 41.9664 250.706 41.9045C250.539 41.8768 250.338 41.6761 250.266 41.4989C249.768 40.3268 249.776 40.3225 248.485 40.3225H248.313C246.983 40.3225 246.996 40.3225 246.441 41.5437C246.363 41.7145 246.107 41.8661 245.91 41.9088C245.615 41.9686 245.296 41.9259 244.887 41.9259ZM249.425 39.2743C249.078 38.2986 248.762 37.3956 248.443 36.4903L248.289 36.5096L247.318 39.2743H249.425Z" fill="white"/>
<path d="M126.53 41.9044H125.132C124.991 41.4881 124.826 41.0782 124.64 40.6789C124.588 40.5914 124.516 40.5145 124.43 40.4569C124.345 40.3993 124.248 40.3587 124.146 40.3416C123.45 40.3032 122.756 40.3416 122.063 40.3181C121.74 40.3075 121.549 40.4121 121.476 40.7216C121.458 40.775 121.437 40.8284 121.411 40.8796C121.116 41.6368 120.53 41.9699 119.653 41.8788C119.718 41.6781 119.768 41.4881 119.839 41.3066C120.596 39.3745 121.367 37.4467 122.106 35.506C122.26 35.1025 122.47 34.9253 122.906 34.9894C123.138 35.0214 123.368 34.9659 123.6 35.0064C123.74 35.0299 123.946 35.1217 123.985 35.2349C124.854 37.4125 125.704 39.5901 126.558 41.7677C126.565 41.7891 126.552 41.8104 126.53 41.9044ZM124.148 39.2806C123.788 38.2707 123.467 37.3719 123.144 36.4731L123.012 36.4817L122.028 39.2806H124.148Z" fill="white"/>
<path d="M156.808 35.0275H158.13C158.141 35.2773 158.158 35.5164 158.162 35.7555C158.193 37.0685 158.175 38.3858 158.264 39.6945C158.323 40.5463 158.878 41.0075 159.643 41.0352C160.408 41.063 160.95 40.6317 161.093 39.7735C161.192 39.1778 161.182 38.5608 161.192 37.9524C161.205 37.0002 161.192 36.048 161.192 35.0489H162.493C162.514 35.1898 162.53 35.3307 162.536 35.4737C162.536 36.8486 162.547 38.2256 162.536 39.592C162.523 41.0907 161.658 41.9724 160.154 42.045C160.039 42.0514 159.922 42.0578 159.807 42.06C157.696 42.1091 156.808 41.2487 156.808 39.1522V35.0254V35.0275Z" fill="white"/>
<path d="M182.539 37.8458C183.156 37.1221 183.811 36.4261 184.377 35.6682C184.775 35.1323 185.224 34.8868 185.881 34.9914C186.08 35.0234 186.29 34.9978 186.648 34.9978C186.097 35.6234 185.638 36.1443 185.178 36.6716L183.772 38.2707L186.756 41.9278C186.126 41.9278 185.636 41.9513 185.15 41.9129C184.996 41.9 184.825 41.7399 184.717 41.6054C183.989 40.6981 183.276 39.7779 182.454 38.7275C182.419 39.0414 182.387 39.2122 182.383 39.383C182.376 40.0491 182.35 40.7194 182.389 41.3834C182.422 41.9342 182.118 41.9449 181.709 41.9363C181.318 41.9299 180.995 41.9641 181.015 41.3983C181.05 40.2156 181.026 39.0328 181.026 37.8522C181.026 37.1093 181.054 36.362 181.017 35.6212C180.991 35.1131 181.175 35.0021 181.674 34.9765C182.307 34.9445 182.424 35.19 182.393 35.7322C182.357 36.4197 182.385 37.1199 182.385 37.8117L182.545 37.848L182.539 37.8458Z" fill="white"/>
<path d="M151.912 39.3896V41.8854H150.587V35.0088C151.712 35.0088 152.844 34.8508 153.942 35.2244C154.822 35.5233 155.247 36.1573 155.243 37.101C155.243 38.0724 154.809 38.7876 153.94 39.0416C153.307 39.2316 152.631 39.2743 151.912 39.3896ZM151.922 38.1514C152.733 38.3179 153.468 38.1919 153.622 37.7457C153.75 37.3486 153.737 36.9195 153.587 36.5288C153.39 36.057 152.649 35.9417 151.92 36.1445V38.1492L151.922 38.1514Z" fill="white"/>
<path d="M232.702 37.8264V38.8448H230.233V40.9071H232.938V41.8785H228.874V35.0254H232.955C232.947 35.2197 232.947 35.4139 232.955 35.6061C232.992 35.9498 232.819 36.0373 232.513 36.0331C231.766 36.0245 231.018 36.0331 230.181 36.0331C230.181 36.5753 230.153 37.0642 230.203 37.5446C230.214 37.6514 230.489 37.8051 230.647 37.8115C231.323 37.8414 231.997 37.8243 232.702 37.8243V37.8264Z" fill="white"/>
<path d="M92.6477 35.0278H96.6963C96.705 35.2178 96.7028 35.3865 96.7245 35.5488C96.7765 35.9245 96.6096 36.0547 96.2368 36.0483C95.4912 36.0312 94.7457 36.0483 94.0391 36.0483C94.0153 36.091 93.9979 36.1359 93.9828 36.1807C93.8542 37.2866 94.3425 37.8395 95.4479 37.8395H96.4557V38.8707H93.9524C93.9524 39.5069 93.9242 40.0577 93.9741 40.6021C93.9849 40.7238 94.2645 40.9117 94.4271 40.9181C95.1705 40.9523 95.9182 40.933 96.6941 40.933V41.8916H92.6455V35.0278H92.6477Z" fill="white"/>
<path d="M145.85 36.0374C145.828 36.0801 145.808 36.1228 145.793 36.1676C145.665 37.2735 146.152 37.8264 147.254 37.8264C147.427 37.835 147.601 37.835 147.774 37.8264C148.167 37.788 148.271 37.9823 148.266 38.3345C148.262 38.6868 148.195 38.8768 147.787 38.8597C147.269 38.8363 146.747 38.8683 146.229 38.8512C145.893 38.8405 145.737 38.943 145.754 39.3102C145.778 39.8183 145.754 40.3286 145.754 40.905H148.487V41.8913H144.439V34.9955C145.696 34.9955 146.923 34.9827 148.147 35.0169C148.262 35.0169 148.431 35.2987 148.466 35.4759C148.518 35.7363 148.505 36.0331 148.097 36.0374L146.539 36.0459L145.847 36.0395L145.85 36.0374Z" fill="white"/>
<path d="M89.8865 36.0993C89.349 36.0438 88.8548 35.9563 88.3607 35.952C87.8405 35.952 87.4829 36.2381 87.3897 36.7547C87.3009 37.2372 87.6216 37.487 88.0182 37.6621C88.365 37.8179 88.7291 37.9482 89.0824 38.0997C90.1444 38.5588 90.6082 39.2846 90.4695 40.2774C90.3438 41.2167 89.6893 41.87 88.5991 41.996C87.9987 42.0664 87.3767 41.9704 86.7655 41.9576C86.1717 41.9469 86.0005 41.6416 86.1348 41.1057C86.1652 40.9819 86.1717 40.8538 86.1977 40.6873C86.5965 40.7876 86.9584 40.9157 87.329 40.9605C87.6455 40.999 88.0226 41.0374 88.2805 40.905C88.5818 40.7492 88.9394 40.4311 88.9849 40.1386C89.0239 39.8931 88.7053 39.5152 88.4496 39.3188C88.157 39.0904 87.756 38.9986 87.4071 38.8491C86.2324 38.3517 85.8357 37.7261 85.9874 36.6096C86.1197 35.6382 86.7699 35.0404 87.9229 34.9016C88.3434 34.8568 88.7682 34.8653 89.1865 34.9294C90.1488 35.066 90.1878 35.1514 89.8865 36.1015V36.0993Z" fill="white"/>
<path d="M235.337 40.788C236.009 40.8477 236.647 40.9523 237.284 40.9459C237.501 40.9502 237.711 40.8755 237.875 40.7346C238.038 40.5937 238.144 40.3973 238.17 40.1838C238.246 39.6842 237.882 39.428 237.485 39.2401C237.156 39.0864 236.811 38.9669 236.475 38.8238C235.389 38.3584 234.984 37.7137 235.101 36.6526C235.203 35.7367 235.81 35.0813 236.904 34.9468C237.646 34.8571 238.409 34.9746 239.211 35.0002C239.146 35.4933 239.102 35.8221 239.063 36.121C238.539 36.057 238.051 35.963 237.559 35.9523C237.069 35.9417 236.664 36.1616 236.549 36.7038C236.434 37.244 236.781 37.5066 237.208 37.6987C237.542 37.846 237.886 37.9592 238.22 38.1065C239.358 38.6039 239.742 39.2807 239.564 40.4549C239.44 41.2769 238.723 41.9152 237.676 42.0134C237.071 42.0689 236.454 41.9728 235.842 41.9472C235.285 41.9237 235.099 41.6547 235.275 41.1295C235.305 41.0185 235.327 40.9054 235.337 40.7901V40.788Z" fill="white"/>
<path d="M109.585 41.8956H108.244V36.0352C107.687 36.0352 107.195 36.0203 106.705 36.0352C106.282 36.0523 106.191 35.8388 106.189 35.4716C106.187 35.1065 106.313 34.9763 106.694 34.9806C108.289 34.9998 109.882 34.9891 111.46 34.9891C111.772 35.8324 111.644 36.0267 110.825 36.031H109.585V41.8956Z" fill="white"/>
<path d="M175.467 40.9182V41.8832H171.418V35.0386H172.708C172.718 35.2393 172.738 35.4399 172.738 35.6428C172.738 37.2055 172.753 38.7704 172.731 40.3332C172.731 40.7815 172.868 40.9459 173.327 40.9267C174.014 40.8968 174.706 40.9182 175.467 40.9182Z" fill="white"/>
<path d="M128.272 35.019H129.56V40.9178C130.329 40.9178 131.034 40.9371 131.738 40.9114C132.159 40.8944 132.317 41.0267 132.317 41.4601C132.317 41.8935 132.076 41.9341 131.729 41.9298C130.596 41.917 129.462 41.9298 128.275 41.9298V35.019H128.272Z" fill="white"/>
<path d="M243.112 41.8935H241.848V35.0361H243.112V41.8935Z" fill="white"/>
<path d="M177.172 35.0215H178.451V41.8895H177.172V35.0215Z" fill="white"/>
<path d="M193.482 38.4651C193.482 39.4557 193.46 40.4485 193.49 41.4369C193.508 41.9877 193.167 41.9365 192.814 41.928C192.461 41.9194 192.114 42.0198 192.12 41.454C192.14 39.4536 192.14 37.4532 192.12 35.4506C192.12 34.8187 192.558 35.0321 192.881 34.9916C193.258 34.9467 193.503 35.0087 193.49 35.4869C193.464 36.4775 193.484 37.4681 193.484 38.463L193.482 38.4651Z" fill="white"/>
<path d="M23.1582 0.00402451C10.7198 -0.213738 0.0520664 9.65176 5.00212e-05 22.4507C-0.0259582 34.9037 10.0934 44.9528 22.703 44.9998C35.1827 45.0446 45.2868 35.1044 45.4754 22.8776C45.6683 10.083 35.2498 0.213247 23.1582 0.00402451ZM28.828 41.6949H18.0931V40.5698C18.5396 40.5335 18.96 40.5314 19.3653 40.4545C20.5097 40.2559 21.0624 39.6966 21.1729 38.5608C21.2184 38.1018 21.3658 37.9481 21.8361 37.9588C23.104 37.9887 24.3697 37.9694 25.6745 37.9694C25.798 38.7572 25.798 39.6368 26.5631 40.004C27.2306 40.3221 28.0217 40.3926 28.8236 40.589L28.828 41.697V41.6949ZM33.8606 35.083C31.8189 36.4088 29.5367 36.9852 27.1266 36.998C21.7104 37.0322 16.2942 37.0087 10.878 37.0087C10.3289 37.0087 10.0566 36.744 10.0609 36.2145C10.0609 36.0288 10.0782 35.8409 10.0891 35.6424C10.6938 35.5933 11.2659 35.5698 11.8338 35.4972C13.1775 35.3264 13.7779 34.7137 13.8971 33.3858C13.9535 32.7602 13.9881 32.124 13.9881 31.5027C13.9946 25.4545 13.9946 19.4084 13.9881 13.3623C13.9838 12.6193 13.9123 11.8806 13.7757 11.1505C13.5872 10.1599 12.937 9.59198 11.9248 9.44894C11.3375 9.36568 10.7436 9.33366 10.0891 9.27601V8.02708H21.2097C21.2097 7.14963 21.084 6.3533 20.3211 5.97969C19.6731 5.66158 18.9037 5.58472 18.1126 5.38191V4.38276H28.828V5.59326C28.3121 5.64664 27.7942 5.65731 27.2957 5.75979C26.2077 5.98823 25.6463 6.83366 25.7915 7.92247C26.9489 8.02922 28.1062 8.06124 29.2311 8.26619C30.1761 8.43699 31.0972 8.72093 31.9728 9.11162C35.1306 10.5271 35.7267 13.3836 34.6863 16.1355C34.0079 17.9331 32.5927 19.0625 30.9346 19.9336C30.5489 20.1364 30.1501 20.3115 29.7101 20.5207C30.4903 20.8729 31.2337 21.1697 31.9403 21.5348C33.8519 22.5211 35.5273 23.7807 36.5372 25.7278C38.256 29.0454 37.1311 32.9566 33.8519 35.0852H33.8584L33.8606 35.083Z" fill="white"/>
<path d="M32.5774 30.2413C32.2047 32.7456 30.486 34.0457 28.2276 34.7759C27.4603 35.0235 26.6324 35.0919 25.7438 35.2584V22.8779L21.2205 23.3946V35.0726C19.7467 35.3011 18.6197 34.3532 18.4658 32.8331C18.4463 32.6047 18.4398 32.3741 18.4442 32.1457V9.58801C18.5525 9.56452 18.6609 9.54958 18.7714 9.5389C21.201 9.5389 23.6306 9.51115 26.0602 9.55812C28.3294 9.60295 30.1652 10.9117 30.6268 12.8352C31.1297 14.9275 30.6268 16.7656 28.9471 18.2131C28.0217 19.0094 26.5739 19.7033 25.7351 19.7609V19.0842C25.7351 16.4326 25.7221 13.781 25.746 11.1316C25.746 10.6299 25.6137 10.4697 25.1001 10.4868C24.0207 10.5252 22.9392 10.5252 21.8599 10.4868C21.3462 10.4697 21.201 10.6299 21.2054 11.1316C21.227 14.0884 21.2119 17.0453 21.2205 20C21.2205 20.3438 21.1794 20.6491 20.7415 20.5722C19.9526 20.4356 19.634 20.8647 19.4606 21.5201C19.4065 21.7165 19.3306 21.9065 19.2244 22.2182C20.1802 22.1777 21.058 22.1862 21.9249 22.088C23.3575 21.9258 24.7815 21.693 26.2054 21.4988C26.3528 21.4689 26.5045 21.4817 26.6454 21.5329C29.0468 22.7264 31.0755 24.3041 32.092 26.8767C32.5189 27.9548 32.7487 29.0863 32.5774 30.2392V30.2413Z" fill="white"/>
</g>
<defs>
<clipPath id="clip0_317_2712">
<rect width="252" height="45" fill="white"/>
</clipPath>
</defs>
</svg>
