<svg width="170" height="38" viewBox="0 0 170 38" fill="none" xmlns="http://www.w3.org/2000/svg">
<path d="M145.72 18.3868L150.019 14.8413C151.362 15.8341 151.696 17.2735 151.849 18.8973L156.728 14.8413C157.904 16.217 159.48 17.2097 160.264 19.0108L165.296 14.8271C166.175 15.7702 167.083 16.6353 167.867 17.6068C168.762 18.7421 169.224 20.146 169.174 21.5777C169.174 24.7686 169.138 27.9595 169.174 31.1646C169.207 32.0231 169.038 32.8777 168.679 33.6622C168.32 34.4467 167.782 35.14 167.105 35.6886C166.168 36.5045 165.085 37.1441 163.91 37.5748V36.8657C163.91 31.7933 163.91 26.7257 163.91 21.6628C163.91 20.9537 163.815 20.3013 163.104 19.9539C162.737 19.783 162.331 19.707 161.925 19.733C161.52 19.7591 161.128 19.8864 160.787 20.1028C160.727 20.154 160.679 20.2172 160.647 20.2882C160.614 20.3592 160.598 20.4363 160.598 20.5141C160.598 24.329 160.598 28.1439 160.598 31.9588C160.601 32.3156 160.689 32.6668 160.856 32.9844C161.022 33.302 161.262 33.5773 161.557 33.7882L157.672 37.0571C157.471 36.8907 157.279 36.7132 157.098 36.5253C155.987 35.3223 155.378 33.7561 155.392 32.1361C155.392 28.697 155.392 25.2579 155.392 21.8117C155.392 21.0317 155.341 20.2942 154.506 19.9255C154.095 19.7576 153.646 19.6992 153.205 19.7566C152.763 19.8139 152.345 19.9848 151.994 20.2517C151.937 20.3062 151.891 20.3713 151.86 20.4431C151.829 20.5149 151.813 20.592 151.812 20.6701C151.812 24.5275 151.812 28.3779 151.812 32.2282C151.941 32.8097 152.17 33.3658 152.488 33.8733L148.552 37.0997C148.154 36.6763 147.78 36.2312 147.434 35.7666C146.72 34.6726 146.351 33.3977 146.374 32.1006C146.374 28.262 146.374 24.4282 146.374 20.5992C146.441 19.8084 146.208 19.021 145.72 18.3868Z" fill="white"/>
<path d="M60.8787 14.8343C61.9534 15.6001 62.331 16.4865 62.694 19.0108L65.1193 16.9403L67.5663 14.813C69.0549 16.3588 70.7758 17.7061 71.197 20.0035C71.2972 20.5323 71.3507 21.0684 71.3568 21.6061C71.3568 24.7474 71.3568 27.8886 71.3568 31.0299C71.3974 31.9035 71.2356 32.7749 70.8836 33.5791C70.5316 34.3832 69.9983 35.0995 69.3236 35.6745C68.4215 36.4715 67.3815 37.1053 66.252 37.5464V21.7125C66.252 20.0674 65.2427 19.3228 63.7106 19.8334C63.5436 19.8901 63.3766 19.9752 63.2095 20.0461C62.994 20.1224 62.8124 20.2695 62.6958 20.4623C62.5792 20.6551 62.5349 20.8815 62.5705 21.1026C62.5996 24.5441 62.5996 27.9832 62.5705 31.4199C62.5705 32.3134 62.6287 33.1359 63.4637 33.6961L59.5063 37.0288C58.8658 36.4918 58.3465 35.8306 57.9815 35.0872C57.6165 34.3438 57.4137 33.5345 57.386 32.7105C57.2916 31.0796 57.3279 29.4415 57.3206 27.8106C57.3206 25.3926 57.3206 22.9747 57.3206 20.5567C57.3804 19.7754 57.1539 18.9988 56.6816 18.3655L60.8787 14.8343Z" fill="white"/>
<path d="M142.779 25.7256C142.779 27.0871 142.779 28.4556 142.779 29.8242C142.807 30.7422 142.62 31.6544 142.233 32.4912C141.845 33.3281 141.267 34.0675 140.543 34.6531C138.943 35.9302 136.935 36.6171 134.87 36.5938C132.804 36.5705 130.813 35.8383 129.244 34.5255C128.565 33.9473 128.024 33.2302 127.66 32.4251C127.296 31.62 127.118 30.7466 127.138 29.8667C127.138 27.2431 127.138 24.6265 127.138 22.0029C127.138 18.8262 128.656 16.5571 131.698 15.4793C135.133 14.2596 138.306 14.7702 141.015 17.2662C141.592 17.8056 142.048 18.4573 142.351 19.179C142.655 19.9008 142.801 20.6768 142.779 21.4569V25.7256ZM132.461 25.9171H132.366C132.366 27.3353 132.366 28.7535 132.366 30.1291C132.326 31.3864 132.574 32.6365 133.093 33.788C133.24 34.154 133.497 34.4682 133.83 34.6895C134.163 34.9108 134.556 35.0291 134.959 35.0289C135.356 35.0409 135.747 34.9274 136.072 34.705C136.398 34.4827 136.642 34.1635 136.767 33.7951C137.131 32.9755 137.356 32.1039 137.435 31.214C137.536 28.0018 137.536 24.7754 137.522 21.5562C137.574 20.3346 137.325 19.1186 136.796 18.0107C136.661 17.6391 136.414 17.3162 136.087 17.0846C135.76 16.8529 135.37 16.7234 134.966 16.7131C134.569 16.7154 134.184 16.841 133.865 17.0718C133.547 17.3026 133.312 17.6265 133.194 17.9966C132.835 18.7786 132.607 19.6117 132.519 20.4642C132.395 22.2865 132.461 24.1018 132.461 25.9171Z" fill="white"/>
<path d="M125.127 31.4695C125.234 31.7639 125.239 32.0849 125.141 32.3824C125.042 32.6799 124.846 32.9373 124.582 33.1145C123.76 33.6704 122.979 34.2818 122.244 34.944C119.572 37.3052 114.126 37.2982 111.207 33.852C109.431 31.6874 108.493 28.981 108.557 26.208C108.44 23.8985 108.941 21.5991 110.009 19.5354C110.968 17.6929 112.575 16.2491 114.535 15.4679C116.495 14.6867 118.677 14.6204 120.683 15.2809C122.018 15.6453 123.175 16.4639 123.946 17.5887C124.717 18.7135 125.051 20.0704 124.887 21.4145C124.841 22.0564 124.562 22.6612 124.1 23.1201C123.638 23.5789 123.024 23.8618 122.368 23.9176C121.889 23.9925 121.399 23.9275 120.958 23.7306C120.517 23.5338 120.146 23.2139 119.891 22.8114C119.612 22.3706 119.463 21.8622 119.463 21.3436C119.463 20.825 119.612 20.3166 119.891 19.8758C120.189 19.4189 120.535 18.9935 120.923 18.6065C121.431 18.0109 121.373 17.6138 120.697 17.1884C119.901 16.7029 118.94 16.5459 118.025 16.752C117.11 16.9581 116.316 17.5103 115.818 18.2874C115.249 19.2871 114.907 20.3948 114.816 21.5351C114.417 24.367 114.515 27.2445 115.106 30.0442C115.265 30.7005 115.509 31.3343 115.832 31.9303C116.653 33.4832 118.069 34.1002 119.935 33.8307C121.667 33.5452 123.295 32.8352 124.669 31.7673L125.091 31.4695H125.127Z" fill="white"/>
<path d="M47.8739 14.834C49.377 17.0605 51.3884 17.0534 53.683 16.4507C52.572 17.4931 51.5046 18.578 50.3283 19.5565C49.9786 19.8361 49.5637 20.027 49.1204 20.1123C48.677 20.1977 48.2189 20.1748 47.7868 20.0458C47.3894 19.9462 47.0229 19.7533 46.7192 19.4839C46.4155 19.2145 46.1837 18.8767 46.0441 18.5C45.795 18.6918 45.5977 18.9401 45.4694 19.2233C45.341 19.5066 45.2855 19.8162 45.3077 20.1252C45.3299 20.4342 45.4291 20.7332 45.5967 20.9962C45.7643 21.2592 45.9951 21.4782 46.2692 21.6341C47.3874 22.3929 48.6001 22.9885 49.7619 23.6763C50.5778 24.12 51.357 24.625 52.0927 25.1867C52.6159 25.5992 53.0408 26.1179 53.3379 26.7069C53.6351 27.2959 53.7975 27.941 53.8137 28.5974C53.832 29.3354 53.7038 30.0698 53.4361 30.7602C52.9378 32.1378 52.1014 33.3751 51.0001 34.3641C49.8988 35.353 48.5662 36.0633 47.1188 36.4329C44.8387 37.0285 42.9508 36.2131 41.7018 34.1638C40.845 32.7456 40.845 32.7456 42.0576 31.7245L45.5576 28.7534C45.6665 29.3704 45.7246 29.9305 45.8625 30.4765C46.2692 32.0365 47.3874 32.9442 48.7671 32.8733C49.0532 32.8654 49.332 32.7829 49.5745 32.6344C49.817 32.4859 50.0145 32.2767 50.1463 32.0286C50.2782 31.7805 50.3396 31.5025 50.3244 31.2233C50.3091 30.9442 50.2177 30.6741 50.0596 30.4411C49.8528 30.0754 49.5558 29.7658 49.1955 29.5405C48.0119 28.8314 46.8065 28.1224 45.5648 27.4771C44.2212 26.8353 43.1076 25.812 42.3698 24.5414C41.7972 23.6065 41.5899 22.501 41.786 21.4286C41.9822 20.3562 42.5686 19.3891 43.4373 18.7056L47.8739 14.834Z" fill="white"/>
<path d="M97.512 16.3444C96.6116 17.3017 95.7475 18.2731 94.8108 19.1807C94.5114 19.4854 94.1516 19.7273 93.7534 19.8919C93.3552 20.0565 92.9268 20.1402 92.4944 20.138C91.9575 20.1604 91.4272 20.0151 90.9806 19.723C90.534 19.431 90.1944 19.0076 90.0111 18.5142C89.6549 18.7512 89.4038 19.111 89.3081 19.5214C89.2125 19.9318 89.2795 20.3624 89.4955 20.7266C89.6982 21.1343 90.0028 21.4854 90.3814 21.7476C91.4706 22.4567 92.5598 23.0878 93.7361 23.6764C94.827 24.1609 95.7979 24.8696 96.5826 25.754C97.1718 26.3996 97.5653 27.1925 97.7192 28.0441C97.8731 28.8957 97.7813 29.7723 97.4539 30.5758C96.234 33.6462 94.0774 35.6813 90.9187 36.4471C88.646 37.0002 86.7362 36.0429 85.5526 33.8802C84.8991 32.6747 84.8991 32.6747 85.9012 31.8167L89.1615 29.0442C89.2825 28.9458 89.4085 28.8536 89.5391 28.7677C89.6331 29.4143 89.7616 30.0557 89.9239 30.6893C90.0577 31.3118 90.4138 31.8676 90.9286 32.2573C91.4434 32.647 92.0834 32.8452 92.7341 32.8165C93.0069 32.8085 93.2729 32.7313 93.506 32.5926C93.7391 32.4539 93.9314 32.2585 94.0639 32.0254C94.1964 31.7924 94.2646 31.5297 94.2619 31.2632C94.2592 30.9966 94.1856 30.7353 94.0484 30.5049C93.8443 30.0977 93.5337 29.7504 93.148 29.498C91.9426 28.7535 90.7082 28.0798 89.4592 27.3707C88.6167 26.9808 87.8665 26.4238 87.2564 25.7353C86.6463 25.0468 86.1897 24.2417 85.9157 23.3715C85.6518 22.5774 85.6329 21.7251 85.8614 20.9207C86.09 20.1162 86.5558 19.3952 87.201 18.8474C88.7331 17.486 90.2943 16.16 91.8627 14.8057C93.3077 17.0322 95.3263 17.0747 97.512 16.3444Z" fill="white"/>
<path d="M81.1524 14.834V15.6424C81.1524 20.7714 81.1524 25.9005 81.1524 31.0296C81.1012 31.4711 81.1655 31.9181 81.3395 32.3286C81.5135 32.7391 81.7914 33.0998 82.1472 33.3767L78.2406 36.596C77.5253 36.0089 76.9513 35.2748 76.5597 34.4463C76.1681 33.6177 75.9685 32.715 75.9751 31.8025C75.9751 28.4367 75.9751 25.0709 75.9751 21.7051C76.0111 20.9691 75.771 20.2455 75.2998 19.67L81.1524 14.834Z" fill="white"/>
<path d="M78.7272 6.94189L82.1473 10.4023L78.7199 13.8626L75.3071 10.4023C76.4108 9.26063 77.5944 8.06935 78.7272 6.94189Z" fill="white"/>
<path d="M37.1779 14.834V15.5431C37.1779 20.8423 37.1779 26.1345 37.1779 31.4196C37.1612 31.7981 37.2414 32.1746 37.4113 32.5151C37.5812 32.8556 37.8354 33.1493 38.1509 33.3696L34.2371 36.5889C33.5303 36.0163 32.961 35.2991 32.5696 34.4879C32.1781 33.6768 31.9739 32.7915 31.9716 31.8947C31.9716 28.4769 31.9716 25.0591 31.9716 21.6412C32.0063 20.9273 31.7711 20.2257 31.3108 19.67L37.1779 14.834Z" fill="white"/>
<path d="M38.1218 10.381L34.7017 13.8485L31.2744 10.381L34.7017 6.92773L38.1218 10.381Z" fill="white"/>
<path d="M101.651 34.2493C101.671 33.7805 101.832 33.3278 102.113 32.9477C102.395 32.5675 102.785 32.2768 103.235 32.1118C103.685 31.9467 104.174 31.9146 104.643 32.0194C105.111 32.1242 105.537 32.3614 105.869 32.7014C106.2 33.0413 106.421 33.4689 106.505 33.9308C106.589 34.3928 106.532 34.8688 106.341 35.2992C106.15 35.7297 105.833 36.0957 105.43 36.3516C105.028 36.6075 104.557 36.742 104.076 36.7382C103.418 36.7196 102.793 36.4476 102.339 35.9814C101.884 35.5152 101.637 34.8927 101.651 34.2493Z" fill="white"/>
<path d="M9.2363 29.6331C10.4272 28.3851 10.6523 26.8393 10.6886 25.2722C10.6886 20.4362 10.6886 15.5931 10.6886 10.7571C10.6523 9.93517 10.8035 9.11564 11.1313 8.35777C11.459 7.59989 11.9552 6.92261 12.5838 6.37492C14.0796 5.0631 15.5754 3.75128 17.0495 2.42528C20.092 -0.297634 24.3108 1.0071 25.2403 5.00638C25.7454 7.29979 25.3625 9.69461 24.1656 11.7285C23.1515 13.5862 21.7037 15.1846 19.9395 16.3944L19.6273 16.6283C20.5712 16.7631 21.4571 16.8482 22.3212 17.0113C22.91 17.125 23.4863 17.2936 24.0421 17.5147C27.0047 18.6918 28.5151 21.2233 28.3626 24.4354C28.1375 29.3991 25.4581 32.6184 21.2393 34.7315C18.8216 36.0305 16.0895 36.6675 13.3317 36.5751C12.7316 36.5657 12.1393 36.4404 11.589 36.2064C8.54652 34.7315 5.54759 35.0931 2.54867 36.2986L2.07667 36.4758C2.07667 36.4758 2.04039 36.4758 1.96777 36.4758C2.86176 35.1885 3.93456 34.0286 5.15545 33.0296C6.88449 31.4977 9.07572 30.5547 11.4002 30.3422C13.2293 30.2539 15.0506 30.6301 16.6864 31.4342C16.8825 31.5264 17.0785 31.6327 17.369 31.7675V31.0584C17.369 24.4402 17.369 17.822 17.369 11.2038C17.369 10.4238 17.4634 9.62962 16.5121 9.23253L17.6812 8.09091L18.7704 9.17584C18.7704 9.17584 18.7704 9.21125 18.7704 9.22543C18.4597 9.46648 18.2205 9.78419 18.0776 10.1457C17.9346 10.5072 17.893 10.8994 17.9571 11.2818C18.0152 12.8205 17.9571 14.3593 17.9571 15.898V16.4936L18.1459 16.6C18.5986 16.1219 19.0182 15.6149 19.4021 15.0825C20.2688 13.5333 20.7115 11.7919 20.6874 10.0267C20.7753 8.65826 20.5929 7.2861 20.1501 5.98493C19.9923 5.52552 19.7673 5.09082 19.482 4.69438C19.3022 4.41258 19.0484 4.18298 18.7469 4.02947C18.4454 3.87597 18.1073 3.80418 17.7678 3.82156C17.4283 3.83893 17.0997 3.94485 16.8163 4.12828C16.5329 4.31171 16.305 4.56594 16.1564 4.86455C15.7783 5.55207 15.5741 6.3179 15.5609 7.09816C15.5101 11.9554 15.481 16.8127 15.5609 21.67C15.6152 23.2596 15.1679 24.8271 14.2795 26.1601C13.3911 27.4932 12.1046 28.5274 10.5942 29.1226C10.1513 29.3211 9.69377 29.47 9.2363 29.6331ZM18.0298 17.6565C18.0033 17.742 17.9862 17.8299 17.9789 17.9189C17.9789 22.5469 17.9789 27.1749 17.9789 31.8029C17.9835 31.9237 18.0197 32.0415 18.0839 32.1448C18.1482 32.2482 18.2384 32.3337 18.3461 32.3934C18.4538 32.4531 18.5754 32.4849 18.6992 32.4858C18.823 32.4867 18.945 32.4567 19.0536 32.3986C20.1384 31.7735 21.0255 30.868 21.6169 29.782C22.6451 27.8867 23.0961 25.7435 22.9166 23.6058C22.8702 22.1603 22.3849 20.7609 21.5225 19.5853C21.118 19.0361 20.5962 18.5791 19.9931 18.2461C19.3901 17.9131 18.7202 17.712 18.0298 17.6565Z" fill="white"/>
<path d="M9.8028 8.90625C9.44818 10.1493 9.29625 11.439 9.3526 12.7282C9.3526 16.5148 9.30177 20.2942 9.3526 24.0737C9.41069 27.6191 7.63168 29.8528 4.45849 31.2639C4.13899 31.4057 3.80495 31.5263 3.47819 31.6468C3.47819 31.6468 3.40559 31.6468 3.31119 31.6468C4.51657 30.5761 4.56016 29.1933 4.56016 27.7893V21.996C3.35478 21.7833 2.71576 22.379 1.85166 24.5488C1.12553 22.4215 0.537388 20.3793 1.46684 18.2662C1.96787 17.1175 2.83197 16.5928 4.56016 16.3092C4.56016 15.8837 4.56016 15.4369 4.56016 14.9902C4.52864 14.0565 4.85779 13.1453 5.48231 12.4375C6.74086 11.0634 8.19605 9.87407 9.8028 8.90625Z" fill="white"/>
<path d="M0 5.52378C0.994799 2.97815 2.17839 0.652342 5.08291 0.0850693C5.96194 -0.0764293 6.87116 0.0744637 7.64618 0.510507C8.26492 0.80387 8.84717 1.16552 9.3816 1.58834C10.9283 2.90016 12.533 2.84341 14.2177 1.97123L14.6388 1.75142C14.6388 1.82232 14.6823 1.88614 14.6388 1.92159C13.8375 3.43035 12.7161 4.75507 11.3494 5.80744C9.27995 7.31071 7.47915 7.31071 5.40968 5.80744L5.13375 5.60177C3.36199 4.18359 2.12755 4.18362 0.21783 5.36071L0 5.52378Z" fill="white"/>
<path d="M101.651 34.2493C101.671 33.7805 101.832 33.3278 102.113 32.9477C102.395 32.5675 102.785 32.2768 103.235 32.1118C103.685 31.9467 104.174 31.9146 104.643 32.0194C105.111 32.1242 105.537 32.3614 105.869 32.7014C106.2 33.0413 106.421 33.4689 106.505 33.9308C106.589 34.3928 106.532 34.8688 106.341 35.2992C106.15 35.7297 105.833 36.0957 105.43 36.3516C105.028 36.6075 104.557 36.742 104.076 36.7382C103.418 36.7196 102.793 36.4476 102.339 35.9814C101.884 35.5152 101.637 34.8927 101.651 34.2493Z" fill="white"/>
</svg>
