<svg width="260" height="226" viewBox="0 0 260 226" fill="none" xmlns="http://www.w3.org/2000/svg">
<path d="M64.0776 223.103L192.676 223.415L202.506 206.641L258.458 113.496L239.553 78.3926L259.277 113.506L204.734 207.956L193.947 225.669L64.0776 223.103Z" fill="#EFA5A5"/>
<path d="M65.446 221.587L2.26553 111.314L66.236 1.50308L193.407 1.95674L256.597 112.221L192.617 222.041L65.446 221.587Z" fill="url(#paint0_radial_165_290)" stroke="white" stroke-width="3"/>
<g clip-path="url(#clip0_165_290)">
<path d="M134.427 51.7211V53.8583C147.535 54.5717 159.974 59.8674 169.57 68.8191L171.067 67.323C171.414 66.9791 171.872 66.7695 172.359 66.7317C172.846 66.6938 173.331 66.8302 173.726 67.1164C162.713 56.1874 147.893 49.9425 132.373 49.6907C132.914 49.6906 133.433 49.9039 133.818 50.284C134.202 50.6642 134.421 51.1806 134.427 51.7211Z" fill="url(#paint1_linear_165_290)"/>
<path d="M88.7172 149.593L90.2216 148.097C81.0392 138.241 75.7229 125.406 75.2489 111.949H73.1528C72.8835 111.95 72.6166 111.897 72.3675 111.795C72.1184 111.693 71.892 111.542 71.7012 111.352C71.5105 111.162 71.3591 110.937 71.2558 110.688C71.1525 110.44 71.0994 110.173 71.0994 109.904C71.0984 109.634 71.1509 109.366 71.2536 109.117C71.3564 108.867 71.5075 108.64 71.6983 108.449C71.889 108.257 72.1157 108.106 72.3653 108.002C72.6149 107.898 72.8825 107.845 73.1528 107.845H75.2489C75.7231 94.3922 81.0396 81.5619 90.2216 71.7114L88.7172 70.2082C88.3747 69.862 88.1665 69.4053 88.1299 68.9198C88.0934 68.4343 88.2308 67.9516 88.5176 67.558C77.3298 78.8154 71.0549 94.0392 71.0637 109.904C71.0565 125.769 77.3311 140.992 88.5176 152.25C88.2302 151.855 88.0926 151.372 88.1291 150.885C88.1657 150.398 88.3741 149.94 88.7172 149.593Z" fill="url(#paint2_linear_165_290)"/>
<path d="M91.6262 67.3087L93.1235 68.8048C103.24 59.3791 116.49 54.0272 130.32 53.7799V51.721C130.32 51.1781 130.535 50.6573 130.919 50.2727C131.302 49.8881 131.823 49.6711 132.366 49.6693H131.354C115.474 49.6609 100.236 55.9305 88.9668 67.1092C89.3618 66.8221 89.8461 66.6845 90.3332 66.7211C90.8203 66.7576 91.2785 66.9659 91.6262 67.3087Z" fill="url(#paint3_linear_165_290)"/>
<path d="M189.583 111.949H187.487C187 125.41 181.671 138.244 172.479 148.097L173.976 149.593C174.322 149.939 174.532 150.396 174.57 150.883C174.608 151.37 174.471 151.855 174.183 152.25C185.367 140.99 191.641 125.768 191.637 109.904C191.635 110.447 191.418 110.967 191.033 111.35C190.648 111.733 190.127 111.949 189.583 111.949Z" fill="url(#paint4_linear_165_290)"/>
<path d="M171.067 152.492L169.57 150.996C159.707 160.169 146.865 165.481 133.4 165.957V168.052C133.401 168.321 133.349 168.587 133.246 168.836C133.144 169.085 132.993 169.311 132.803 169.502C132.613 169.693 132.387 169.844 132.138 169.947C131.89 170.05 131.623 170.103 131.354 170.103C147.231 170.111 162.465 163.839 173.726 152.656C173.379 152.917 172.956 153.06 172.521 153.062C171.98 153.071 171.458 152.866 171.067 152.492Z" fill="url(#paint5_linear_165_290)"/>
<path d="M173.976 70.2439L172.479 71.7471C181.671 81.5941 187 94.4239 187.487 107.881H189.583C190.127 107.883 190.648 108.099 191.033 108.484C191.418 108.868 191.635 109.389 191.637 109.933C191.642 94.0704 185.368 78.8502 174.183 67.5937C174.472 67.987 174.609 68.4708 174.572 68.9571C174.534 69.4434 174.322 69.9 173.976 70.2439Z" fill="url(#paint6_linear_165_290)"/>
<path d="M129.293 168.087V165.993C115.828 165.514 102.987 160.203 93.1235 151.032L91.6263 152.528C91.2496 152.91 90.737 153.128 90.2003 153.133C89.7657 153.129 89.3437 152.987 88.9954 152.727C100.264 163.895 115.497 170.154 131.368 170.139C131.097 170.142 130.827 170.091 130.576 169.989C130.324 169.887 130.095 169.736 129.902 169.546C129.709 169.355 129.556 169.128 129.452 168.877C129.347 168.627 129.293 168.358 129.293 168.087Z" fill="url(#paint7_linear_165_290)"/>
<path d="M131.368 67.323C120.069 67.3343 109.237 71.8242 101.247 79.8072C93.2577 87.7903 88.7643 98.6144 88.7529 109.904C88.7661 121.193 93.2604 132.015 101.25 139.996C109.239 147.978 120.071 152.467 131.368 152.478C142.664 152.465 153.494 147.975 161.482 139.994C169.469 132.013 173.963 121.191 173.976 109.904C173.965 98.6156 169.472 87.7926 161.484 79.8097C153.496 71.8269 142.666 67.3362 131.368 67.323ZM131.368 148.375C121.16 148.363 111.374 144.307 104.156 137.094C96.9382 129.882 92.8782 120.104 92.8669 109.904C92.8782 99.7046 96.9382 89.926 104.156 82.7139C111.374 75.5017 121.16 71.445 131.368 71.4336C141.576 71.445 151.362 75.5017 158.58 82.7139C165.798 89.926 169.858 99.7046 169.869 109.904C169.858 120.104 165.798 129.882 158.58 137.094C151.362 144.307 141.576 148.363 131.368 148.375Z" fill="url(#paint8_linear_165_290)"/>
<path d="M131.368 89.8638C136.865 89.8638 141.35 93.8747 141.35 98.8046C141.35 99.3494 141.566 99.872 141.951 100.258C142.336 100.644 142.858 100.862 143.403 100.863C143.948 100.862 144.471 100.644 144.856 100.258C145.241 99.872 145.457 99.3494 145.457 98.8046C145.457 92.2575 140.223 86.8218 133.421 85.8956V87.3205C133.422 87.5896 133.37 87.8562 133.268 88.1051C133.165 88.354 133.015 88.5802 132.825 88.7708C132.635 88.9615 132.409 89.1127 132.16 89.2159C131.911 89.3191 131.645 89.3722 131.375 89.3722C131.105 89.3732 130.837 89.3208 130.587 89.2181C130.337 89.1154 130.11 88.9644 129.919 88.7738C129.727 88.5832 129.575 88.3567 129.472 88.1073C129.368 87.8579 129.315 87.5905 129.315 87.3205V85.8956C122.52 86.8218 117.287 92.2575 117.287 98.8046C117.287 106 123.604 111.856 131.375 111.856C136.872 111.856 141.357 115.867 141.357 120.797C141.357 125.727 136.879 129.738 131.375 129.738C125.871 129.738 121.393 125.727 121.393 120.797C121.393 120.253 121.177 119.731 120.792 119.346C120.407 118.961 119.885 118.745 119.34 118.745C118.795 118.745 118.273 118.961 117.888 119.346C117.503 119.731 117.287 120.253 117.287 120.797C117.287 127.344 122.52 132.773 129.315 133.699V132.224C129.315 131.954 129.368 131.687 129.472 131.437C129.575 131.188 129.727 130.961 129.919 130.771C130.11 130.58 130.337 130.429 130.587 130.326C130.837 130.224 131.105 130.171 131.375 130.172C131.645 130.172 131.911 130.225 132.16 130.329C132.409 130.432 132.635 130.583 132.825 130.774C133.015 130.964 133.165 131.191 133.268 131.439C133.37 131.688 133.422 131.955 133.421 132.224V133.72C140.223 132.794 145.457 127.365 145.457 120.818C145.457 113.623 139.14 107.767 131.375 107.767C125.871 107.767 121.393 103.756 121.393 98.826C121.393 93.8961 125.85 89.8638 131.368 89.8638Z" fill="url(#paint9_linear_165_290)"/>
<path d="M131.368 130.151C131.098 130.15 130.83 130.202 130.58 130.305C130.33 130.408 130.103 130.559 129.911 130.749C129.72 130.94 129.568 131.166 129.464 131.416C129.361 131.665 129.307 131.933 129.307 132.203V139.804C129.307 140.074 129.361 140.342 129.464 140.591C129.568 140.84 129.72 141.067 129.911 141.257C130.103 141.448 130.33 141.599 130.58 141.702C130.83 141.804 131.098 141.857 131.368 141.856C131.637 141.856 131.904 141.803 132.153 141.7C132.401 141.596 132.627 141.445 132.817 141.255C133.007 141.064 133.158 140.838 133.26 140.589C133.363 140.34 133.415 140.073 133.414 139.804V132.224C133.418 131.953 133.368 131.684 133.267 131.433C133.166 131.181 133.015 130.953 132.825 130.76C132.635 130.567 132.408 130.414 132.158 130.309C131.907 130.205 131.639 130.151 131.368 130.151Z" fill="url(#paint10_linear_165_290)"/>
<path d="M131.368 89.4007C131.637 89.4007 131.904 89.3476 132.153 89.2444C132.401 89.1412 132.627 88.99 132.817 88.7994C133.007 88.6087 133.158 88.3825 133.26 88.1336C133.363 87.8847 133.415 87.6181 133.414 87.349V79.9968C133.415 79.7277 133.363 79.4611 133.26 79.2122C133.158 78.9633 133.007 78.7371 132.817 78.5465C132.627 78.3558 132.401 78.2046 132.153 78.1014C131.904 77.9982 131.637 77.9451 131.368 77.9451C131.098 77.9441 130.83 77.9965 130.58 78.0992C130.33 78.2019 130.103 78.3529 129.911 78.5435C129.72 78.7341 129.568 78.9606 129.464 79.21C129.361 79.4594 129.307 79.7268 129.307 79.9968V87.3419C129.306 87.6125 129.359 87.8806 129.462 88.1309C129.566 88.3811 129.717 88.6084 129.909 88.7998C130.1 88.9912 130.328 89.1428 130.578 89.2459C130.829 89.3491 131.097 89.4017 131.368 89.4007Z" fill="url(#paint11_linear_165_290)"/>
<path d="M130.32 51.721V60.5835C130.319 60.8535 130.371 61.1211 130.474 61.3708C130.577 61.6206 130.728 61.8476 130.919 62.0389C131.11 62.2302 131.336 62.382 131.586 62.4855C131.835 62.5891 132.103 62.6424 132.373 62.6424C132.643 62.6424 132.911 62.5891 133.161 62.4855C133.41 62.382 133.637 62.2302 133.828 62.0389C134.018 61.8476 134.17 61.6206 134.272 61.3708C134.375 61.1211 134.428 60.8535 134.427 60.5835V51.721C134.427 51.1781 134.211 50.6573 133.828 50.2727C133.444 49.8881 132.924 49.6711 132.38 49.6693C132.11 49.6683 131.842 49.7207 131.592 49.8234C131.342 49.9261 131.115 50.0771 130.924 50.2677C130.732 50.4583 130.58 50.6848 130.477 50.9342C130.373 51.1836 130.32 51.451 130.32 51.721Z" fill="url(#paint12_linear_165_290)"/>
<path d="M133.4 168.087V160.251C133.401 159.981 133.349 159.715 133.246 159.466C133.144 159.217 132.993 158.991 132.803 158.8C132.613 158.61 132.387 158.458 132.138 158.355C131.89 158.252 131.623 158.199 131.354 158.199C131.083 158.198 130.816 158.25 130.566 158.353C130.316 158.456 130.089 158.607 129.897 158.797C129.706 158.988 129.554 159.214 129.45 159.464C129.347 159.713 129.293 159.98 129.293 160.251V168.087C129.293 168.357 129.347 168.625 129.45 168.874C129.554 169.123 129.706 169.35 129.897 169.54C130.089 169.731 130.316 169.882 130.566 169.985C130.816 170.087 131.083 170.14 131.354 170.139C131.623 170.139 131.89 170.086 132.138 169.983C132.387 169.879 132.613 169.728 132.803 169.537C132.993 169.347 133.144 169.121 133.246 168.872C133.349 168.623 133.401 168.356 133.4 168.087Z" fill="url(#paint13_linear_165_290)"/>
<path d="M81.8512 109.904C81.8521 109.634 81.7997 109.366 81.6969 109.117C81.5942 108.867 81.4431 108.64 81.2523 108.449C81.0615 108.257 80.8348 108.106 80.5852 108.002C80.3357 107.899 80.0681 107.845 79.7978 107.845H73.1171C72.8469 107.845 72.5793 107.899 72.3297 108.002C72.0801 108.106 71.8534 108.257 71.6626 108.449C71.4719 108.64 71.3208 108.867 71.218 109.117C71.1152 109.366 71.0628 109.634 71.0637 109.904C71.0637 110.173 71.1169 110.44 71.2202 110.688C71.3235 110.937 71.4748 111.162 71.6656 111.352C71.8564 111.542 72.0828 111.693 72.3319 111.795C72.581 111.897 72.8478 111.95 73.1171 111.949H79.7978C80.0671 111.95 80.334 111.897 80.5831 111.795C80.8321 111.693 81.0586 111.542 81.2493 111.352C81.4401 111.162 81.5915 110.937 81.6948 110.688C81.798 110.44 81.8512 110.173 81.8512 109.904Z" fill="url(#paint14_linear_165_290)"/>
<path d="M189.583 107.845H182.204C181.934 107.845 181.666 107.899 181.416 108.002C181.167 108.106 180.94 108.257 180.749 108.449C180.559 108.64 180.407 108.867 180.305 109.117C180.202 109.366 180.149 109.634 180.15 109.904C180.15 110.173 180.204 110.44 180.307 110.688C180.41 110.937 180.561 111.162 180.752 111.352C180.943 111.542 181.169 111.693 181.419 111.795C181.668 111.897 181.934 111.95 182.204 111.949H189.583C190.127 111.949 190.648 111.734 191.033 111.35C191.418 110.967 191.635 110.447 191.637 109.904C191.637 109.359 191.42 108.837 191.036 108.451C190.651 108.065 190.128 107.847 189.583 107.845Z" fill="url(#paint15_linear_165_290)"/>
<path d="M91.6261 152.492L93.1234 150.996L96.3532 147.776C96.7364 147.389 96.9513 146.867 96.9513 146.323C96.9513 145.779 96.7364 145.256 96.3532 144.869C95.9661 144.487 95.4434 144.272 94.8988 144.272C94.3541 144.272 93.8314 144.487 93.4443 144.869L90.2216 148.097L88.7172 149.593C88.3741 149.94 88.1656 150.398 88.1291 150.885C88.0925 151.372 88.2302 151.855 88.5175 152.25C88.5817 152.328 88.6459 152.414 88.7172 152.492C88.7935 152.567 88.8771 152.634 88.9667 152.692C89.315 152.952 89.737 153.094 90.1717 153.098C90.4422 153.099 90.7103 153.046 90.96 152.942C91.2098 152.838 91.4363 152.685 91.6261 152.492Z" fill="url(#paint16_linear_165_290)"/>
<path d="M171.067 67.3087L169.57 68.8048L165.855 72.5165C165.472 72.9021 165.258 73.4232 165.258 73.9663C165.258 74.5093 165.472 75.0304 165.855 75.416C166.232 75.7975 166.744 76.0151 167.281 76.0216C167.818 76.0151 168.33 75.7975 168.707 75.416L172.422 71.7115L173.919 70.2083C174.265 69.8644 174.476 69.4078 174.514 68.9215C174.552 68.4352 174.414 67.9514 174.126 67.5581C174.063 67.4701 173.994 67.3868 173.919 67.3087C173.841 67.234 173.757 67.1649 173.669 67.1021C173.278 66.831 172.806 66.7034 172.331 66.7411C171.857 66.7788 171.41 66.9793 171.067 67.3087Z" fill="url(#paint17_linear_165_290)"/>
<path d="M88.7171 70.2439L90.2215 71.7471L93.4442 74.9672C93.8233 75.3447 94.335 75.5595 94.8702 75.5656C95.4049 75.5572 95.9158 75.3429 96.2961 74.9672C96.6793 74.5804 96.8942 74.0581 96.8942 73.5139C96.8942 72.9696 96.6793 72.4474 96.2961 72.0605L93.0663 68.8404L91.5691 67.3443C91.2223 67.0004 90.7644 66.7909 90.2773 66.753C89.7902 66.7152 89.3055 66.8515 88.9096 67.1377C88.8216 67.2005 88.7382 67.2696 88.6601 67.3443C88.5888 67.4227 88.5246 67.5082 88.4604 67.5937C88.1808 67.9938 88.0531 68.4803 88.1001 68.966C88.1472 69.4517 88.3659 69.9048 88.7171 70.2439Z" fill="url(#paint18_linear_165_290)"/>
<path d="M173.976 149.593L172.479 148.097L168.764 144.378C168.377 143.995 167.854 143.78 167.309 143.78C166.765 143.78 166.242 143.995 165.855 144.378C165.472 144.765 165.257 145.287 165.257 145.831C165.257 146.375 165.472 146.898 165.855 147.285L169.57 150.996L171.067 152.492C171.445 152.872 171.957 153.09 172.493 153.098C172.928 153.095 173.35 152.953 173.698 152.692C173.787 152.634 173.871 152.567 173.947 152.492C174.02 152.415 174.089 152.334 174.154 152.25C174.446 151.858 174.588 151.376 174.555 150.889C174.522 150.402 174.317 149.942 173.976 149.593Z" fill="url(#paint19_linear_165_290)"/>
</g>
<defs>
<radialGradient id="paint0_radial_165_290" cx="0" cy="0" r="1" gradientUnits="userSpaceOnUse" gradientTransform="translate(129.487 126.527) rotate(-59.8066) scale(119.873 119.92)">
<stop stop-color="#CF5251" stop-opacity="0"/>
<stop offset="0.35" stop-color="#CF5251" stop-opacity="0.01"/>
<stop offset="0.49" stop-color="#CF5251" stop-opacity="0.04"/>
<stop offset="0.59" stop-color="#CF5251" stop-opacity="0.1"/>
<stop offset="0.68" stop-color="#CF5251" stop-opacity="0.19"/>
<stop offset="0.76" stop-color="#CF5251" stop-opacity="0.3"/>
<stop offset="0.83" stop-color="#CF5251" stop-opacity="0.44"/>
<stop offset="0.89" stop-color="#CF5251" stop-opacity="0.6"/>
<stop offset="0.94" stop-color="#CF5251" stop-opacity="0.78"/>
<stop offset="1" stop-color="#CF5251"/>
</radialGradient>
<linearGradient id="paint1_linear_165_290" x1="153.05" y1="49.6907" x2="153.05" y2="68.8191" gradientUnits="userSpaceOnUse">
<stop stop-color="white"/>
<stop offset="1" stop-color="white" stop-opacity="0"/>
</linearGradient>
<linearGradient id="paint2_linear_165_290" x1="80.6427" y1="67.558" x2="80.6427" y2="152.25" gradientUnits="userSpaceOnUse">
<stop stop-color="white"/>
<stop offset="1" stop-color="white" stop-opacity="0"/>
</linearGradient>
<linearGradient id="paint3_linear_165_290" x1="110.666" y1="49.6693" x2="110.666" y2="68.8048" gradientUnits="userSpaceOnUse">
<stop stop-color="white"/>
<stop offset="1" stop-color="white" stop-opacity="0"/>
</linearGradient>
<linearGradient id="paint4_linear_165_290" x1="182.058" y1="109.904" x2="182.058" y2="152.25" gradientUnits="userSpaceOnUse">
<stop stop-color="white"/>
<stop offset="1" stop-color="white" stop-opacity="0"/>
</linearGradient>
<linearGradient id="paint5_linear_165_290" x1="152.54" y1="150.996" x2="152.54" y2="170.103" gradientUnits="userSpaceOnUse">
<stop stop-color="white"/>
<stop offset="1" stop-color="white" stop-opacity="0"/>
</linearGradient>
<linearGradient id="paint6_linear_165_290" x1="182.058" y1="67.5937" x2="182.058" y2="109.933" gradientUnits="userSpaceOnUse">
<stop stop-color="white"/>
<stop offset="1" stop-color="white" stop-opacity="0"/>
</linearGradient>
<linearGradient id="paint7_linear_165_290" x1="110.182" y1="151.032" x2="110.182" y2="170.139" gradientUnits="userSpaceOnUse">
<stop stop-color="white"/>
<stop offset="1" stop-color="white" stop-opacity="0"/>
</linearGradient>
<linearGradient id="paint8_linear_165_290" x1="131.364" y1="67.323" x2="131.364" y2="152.478" gradientUnits="userSpaceOnUse">
<stop stop-color="white"/>
<stop offset="1" stop-color="white" stop-opacity="0"/>
</linearGradient>
<linearGradient id="paint9_linear_165_290" x1="131.372" y1="85.8956" x2="131.372" y2="133.72" gradientUnits="userSpaceOnUse">
<stop stop-color="white"/>
<stop offset="1" stop-color="white" stop-opacity="0"/>
</linearGradient>
<linearGradient id="paint10_linear_165_290" x1="131.361" y1="130.151" x2="131.361" y2="141.856" gradientUnits="userSpaceOnUse">
<stop stop-color="white"/>
<stop offset="1" stop-color="white" stop-opacity="0"/>
</linearGradient>
<linearGradient id="paint11_linear_165_290" x1="131.361" y1="77.9451" x2="131.361" y2="89.4007" gradientUnits="userSpaceOnUse">
<stop stop-color="white"/>
<stop offset="1" stop-color="white" stop-opacity="0"/>
</linearGradient>
<linearGradient id="paint12_linear_165_290" x1="132.373" y1="49.6693" x2="132.373" y2="62.6424" gradientUnits="userSpaceOnUse">
<stop stop-color="white"/>
<stop offset="1" stop-color="white" stop-opacity="0"/>
</linearGradient>
<linearGradient id="paint13_linear_165_290" x1="131.347" y1="158.199" x2="131.347" y2="170.139" gradientUnits="userSpaceOnUse">
<stop stop-color="white"/>
<stop offset="1" stop-color="white" stop-opacity="0"/>
</linearGradient>
<linearGradient id="paint14_linear_165_290" x1="76.4575" y1="107.845" x2="76.4575" y2="111.949" gradientUnits="userSpaceOnUse">
<stop stop-color="white"/>
<stop offset="1" stop-color="white" stop-opacity="0"/>
</linearGradient>
<linearGradient id="paint15_linear_165_290" x1="185.893" y1="107.845" x2="185.893" y2="111.949" gradientUnits="userSpaceOnUse">
<stop stop-color="white"/>
<stop offset="1" stop-color="white" stop-opacity="0"/>
</linearGradient>
<linearGradient id="paint16_linear_165_290" x1="92.5373" y1="144.272" x2="92.5373" y2="153.098" gradientUnits="userSpaceOnUse">
<stop stop-color="white"/>
<stop offset="1" stop-color="white" stop-opacity="0"/>
</linearGradient>
<linearGradient id="paint17_linear_165_290" x1="169.889" y1="66.7346" x2="169.889" y2="76.0216" gradientUnits="userSpaceOnUse">
<stop stop-color="white"/>
<stop offset="1" stop-color="white" stop-opacity="0"/>
</linearGradient>
<linearGradient id="paint18_linear_165_290" x1="92.4924" y1="66.7468" x2="92.4924" y2="75.5656" gradientUnits="userSpaceOnUse">
<stop stop-color="white"/>
<stop offset="1" stop-color="white" stop-opacity="0"/>
</linearGradient>
<linearGradient id="paint19_linear_165_290" x1="169.908" y1="143.78" x2="169.908" y2="153.098" gradientUnits="userSpaceOnUse">
<stop stop-color="white"/>
<stop offset="1" stop-color="white" stop-opacity="0"/>
</linearGradient>
<clipPath id="clip0_165_290">
<rect width="120.573" height="120.477" fill="white" transform="translate(71.0637 49.6622)"/>
</clipPath>
</defs>
</svg>
