<svg width="259" height="226" viewBox="0 0 259 226" fill="none" xmlns="http://www.w3.org/2000/svg">
<path d="M258.107 112.503L194.995 224.813L64.8135 225.494L0.311646 112.503L66.0928 1.729L2.87956 112.503L67.3722 221.061L193.707 222.588L258.107 112.503Z" fill="#EFA5A5"/>
<path d="M65.7674 221.587L2.57785 111.314L66.5574 1.50308L193.719 1.95674L256.909 112.221L192.938 222.041L65.7674 221.587Z" fill="url(#paint0_radial_165_288)" stroke="white" stroke-width="3"/>
<g clip-path="url(#clip0_165_288)">
<path d="M166.618 75.7575C166.4 75.9791 166.233 76.2458 166.131 76.5386C165.999 76.9094 165.975 77.3094 166.061 77.6931C166.147 78.0767 166.34 78.4286 166.618 78.7085C176.35 88.4036 181.816 101.54 181.816 115.235C181.816 128.93 176.35 142.066 166.618 151.761C161.802 156.572 156.075 160.386 149.767 162.983C143.459 165.58 136.695 166.909 129.868 166.892C123.04 166.909 116.277 165.58 109.969 162.983C103.661 160.386 97.9331 156.572 93.1171 151.761C83.3849 142.066 77.9193 128.93 77.9193 115.235C77.9193 101.54 83.3849 88.4036 93.1171 78.7085C100.913 70.8937 111.042 65.7939 121.994 64.1703L122.263 59.9318C110.104 61.5388 98.8237 67.1039 90.1843 75.7575C79.6633 86.2331 73.7543 100.43 73.7543 115.231C73.7543 130.033 79.6633 144.229 90.1843 154.705C95.388 159.906 101.578 164.029 108.396 166.836C115.214 169.643 122.524 171.078 129.904 171.059C137.283 171.079 144.592 169.644 151.409 166.837C158.226 164.03 164.414 159.906 169.616 154.705C180.137 144.229 186.046 130.033 186.046 115.231C186.046 100.43 180.137 86.2331 169.616 75.7575C169.422 75.558 169.189 75.3994 168.931 75.2911C168.674 75.1828 168.397 75.127 168.117 75.127C167.838 75.127 167.561 75.1828 167.303 75.2911C167.046 75.3994 166.813 75.558 166.618 75.7575Z" fill="url(#paint1_linear_165_288)"/>
<path d="M121.994 64.1703L121.419 73.0162C121.399 73.3825 121.475 73.7477 121.639 74.0761C121.804 74.4045 122.051 74.6847 122.357 74.8895C122.702 75.1178 123.108 75.2387 123.522 75.2367C123.845 75.2362 124.164 75.162 124.453 75.0197L139.823 67.3962L143.746 65.4506C144.069 65.2908 144.345 65.0501 144.547 64.7521C144.749 64.454 144.869 64.109 144.895 63.7508C144.924 63.3932 144.859 63.0343 144.707 62.7087C144.555 62.3832 144.322 62.1019 144.029 61.892L126.134 49.1331C125.684 48.8141 125.124 48.686 124.578 48.7768C124.032 48.8677 123.545 49.1701 123.223 49.6177C122.92 50.0359 122.788 50.5528 122.852 51.0643C122.816 51.1917 122.794 51.3227 122.787 51.4548L122.241 59.9101L121.994 64.1703ZM126.804 54.7169L138.731 63.2662L125.778 69.6746L126.804 54.7169Z" fill="url(#paint2_linear_165_288)"/>
<path d="M160.935 106.794C159.859 108.304 158.611 109.685 157.216 110.91C157.325 110.91 157.434 110.996 157.536 111.04C157.792 111.142 158.025 111.293 158.222 111.484C158.418 111.676 158.575 111.904 158.683 112.157C158.79 112.409 158.846 112.679 158.848 112.953C158.85 113.227 158.797 113.499 158.693 113.752C158.536 114.136 158.267 114.465 157.921 114.697C157.575 114.929 157.167 115.053 156.75 115.054C156.478 115.053 156.209 115.001 155.957 114.902L153.286 113.817C148.425 116.775 141.206 119.068 131.236 117.303C123.012 111.445 119.592 104.783 118.34 99.3007C116.455 98.4617 115.116 97.8541 114.6 97.5214C114.363 97.3765 114.158 97.1865 113.996 96.9623C113.833 96.738 113.717 96.4841 113.654 96.2151C113.591 95.9461 113.583 95.6673 113.629 95.3949C113.675 95.1226 113.775 94.862 113.923 94.6282C114.068 94.3925 114.259 94.1877 114.484 94.0257C114.71 93.8637 114.965 93.7478 115.236 93.6845C115.506 93.6213 115.787 93.6121 116.061 93.6573C116.336 93.7026 116.598 93.8015 116.834 93.9483C117.001 94.0496 117.3 94.2087 117.714 94.404C117.629 92.5282 117.769 90.6489 118.129 88.8057L114.207 87.1566C113.37 90.9309 113.298 94.8331 113.996 98.6353C115.267 105.444 118.679 111.676 123.74 116.436C126.119 116.485 128.489 116.727 130.828 117.159C131.117 117.218 131.392 117.334 131.636 117.499C133.59 118.855 135.43 120.367 137.138 122.019H138.055C144.704 122.119 151.226 120.202 156.75 116.522C159.987 114.378 162.754 111.605 164.886 108.371L160.935 106.794Z" fill="url(#paint3_linear_165_288)"/>
<path d="M131.607 117.557C131.363 117.392 131.088 117.276 130.799 117.217C128.46 116.785 126.09 116.543 123.711 116.493C118.355 116.297 113.028 117.366 108.167 119.611C108.679 119.411 109.248 119.411 109.76 119.611L114.629 121.658C119.517 120.396 124.629 120.245 129.584 121.216C133.766 124.076 137.248 127.833 139.772 132.211L144.051 134.004C144.564 134.22 144.97 134.629 145.18 135.141C145.39 135.654 145.387 136.228 145.172 136.738C145.009 137.115 144.739 137.435 144.395 137.66C144.051 137.885 143.648 138.005 143.236 138.004C142.957 138.003 142.68 137.949 142.421 137.845L142.086 137.708C143.089 141.076 143.396 144.612 142.989 148.101L146.969 149.765C147.483 146.481 147.446 143.135 146.86 139.863C145.589 133.057 142.183 126.826 137.13 122.063C135.415 120.414 133.568 118.907 131.607 117.557Z" fill="url(#paint4_linear_165_288)"/>
<path d="M100.889 130.446C103.153 127.736 105.933 125.496 109.069 123.856L108.138 123.473C107.884 123.366 107.655 123.21 107.462 123.015C107.269 122.819 107.117 122.588 107.014 122.334C106.912 122.08 106.86 121.808 106.863 121.535C106.866 121.261 106.923 120.991 107.031 120.739C107.237 120.245 107.629 119.85 108.123 119.64C106.731 120.306 105.39 121.075 104.113 121.94C101.34 123.799 98.8996 126.107 96.894 128.768L100.889 130.446Z" fill="url(#paint5_linear_165_288)"/>
<path d="M115.597 75.1789C115.085 75.3893 114.677 75.7922 114.462 76.3L111.31 83.7137C111.095 84.2241 111.092 84.7985 111.302 85.311C111.512 85.8236 111.918 86.2324 112.431 86.4478L114.178 87.1711L118.1 88.8202L160.935 106.787L164.857 108.436L166.611 109.159C166.869 109.266 167.146 109.323 167.426 109.326C167.698 109.327 167.968 109.272 168.219 109.166C168.733 108.959 169.143 108.559 169.362 108.053L172.513 100.668C172.724 100.158 172.724 99.5862 172.513 99.0765C172.304 98.566 171.902 98.1579 171.392 97.9409L117.198 75.2006C116.945 75.0925 116.674 75.0349 116.399 75.0312C116.125 75.0275 115.852 75.0777 115.597 75.1789ZM115.983 83.4172L117.503 79.8441L167.841 100.957L166.32 104.53L115.983 83.4172Z" fill="url(#paint6_linear_165_288)"/>
<path d="M142.967 148.116L100.889 130.446L96.8941 128.768L94.8346 127.907C94.3218 127.697 93.7464 127.697 93.2336 127.907C92.7194 128.117 92.309 128.52 92.091 129.028L88.9472 136.442C88.8412 136.694 88.7865 136.964 88.7865 137.237C88.7865 137.51 88.8412 137.781 88.9472 138.033C89.0506 138.287 89.2035 138.518 89.3971 138.713C89.5907 138.908 89.8211 139.063 90.0752 139.169L144.262 161.909C144.523 162.014 144.803 162.068 145.085 162.068C145.496 162.07 145.898 161.95 146.241 161.723C146.583 161.496 146.849 161.173 147.006 160.795L150.157 153.388C150.263 153.135 150.318 152.864 150.318 152.589C150.318 152.315 150.263 152.043 150.157 151.79C149.943 151.28 149.539 150.873 149.029 150.654L146.977 149.794L142.967 148.116ZM93.612 136.109L95.1257 132.536L145.448 153.656L143.935 157.229L93.612 136.109Z" fill="url(#paint7_linear_165_288)"/>
<path d="M116.805 93.97C116.569 93.8232 116.307 93.7243 116.032 93.679C115.758 93.6337 115.477 93.643 115.207 93.7062C114.936 93.7694 114.68 93.8854 114.455 94.0474C114.23 94.2094 114.039 94.4141 113.894 94.6499C113.746 94.8836 113.646 95.1442 113.6 95.4166C113.554 95.689 113.562 95.9677 113.625 96.2367C113.688 96.5058 113.804 96.7597 113.966 96.9839C114.129 97.2082 114.334 97.3982 114.571 97.5431C115.087 97.8541 116.426 98.4833 118.311 99.3224C126.651 103.026 145.812 110.823 153.242 113.839L155.913 114.924C156.166 115.023 156.435 115.075 156.706 115.076C157.124 115.075 157.531 114.95 157.877 114.719C158.223 114.487 158.492 114.158 158.649 113.774C158.754 113.52 158.806 113.249 158.805 112.975C158.803 112.701 158.747 112.43 158.639 112.178C158.531 111.926 158.375 111.698 158.178 111.506C157.981 111.314 157.748 111.163 157.492 111.061C157.391 111.018 157.281 110.967 157.172 110.931C143.171 105.275 122.488 96.7764 117.642 94.4474C117.271 94.2304 116.972 94.0713 116.805 93.97Z" fill="url(#paint8_linear_165_288)"/>
<path d="M107.002 120.739C106.894 120.991 106.837 121.261 106.834 121.535C106.831 121.808 106.883 122.08 106.985 122.334C107.088 122.588 107.24 122.819 107.433 123.015C107.625 123.21 107.855 123.366 108.108 123.473L109.04 123.856L142.064 137.722L142.399 137.859C142.658 137.964 142.935 138.018 143.214 138.019C143.626 138.019 144.029 137.9 144.373 137.674C144.717 137.449 144.987 137.129 145.15 136.753C145.365 136.242 145.368 135.668 145.158 135.155C144.948 134.643 144.542 134.234 144.029 134.019L139.75 132.225L114.614 121.643L109.746 119.596C109.233 119.397 108.664 119.397 108.152 119.596C108.133 119.601 108.113 119.601 108.094 119.596C107.845 119.706 107.62 119.863 107.433 120.059C107.246 120.255 107.099 120.486 107.002 120.739Z" fill="url(#paint9_linear_165_288)"/>
</g>
<defs>
<radialGradient id="paint0_radial_165_288" cx="0" cy="0" r="1" gradientUnits="userSpaceOnUse" gradientTransform="translate(131.966 126.746) rotate(-59.8066) scale(119.873 119.92)">
<stop stop-color="#CF5251" stop-opacity="0"/>
<stop offset="0.35" stop-color="#CF5251" stop-opacity="0.01"/>
<stop offset="0.49" stop-color="#CF5251" stop-opacity="0.04"/>
<stop offset="0.59" stop-color="#CF5251" stop-opacity="0.1"/>
<stop offset="0.68" stop-color="#CF5251" stop-opacity="0.19"/>
<stop offset="0.76" stop-color="#CF5251" stop-opacity="0.3"/>
<stop offset="0.83" stop-color="#CF5251" stop-opacity="0.44"/>
<stop offset="0.89" stop-color="#CF5251" stop-opacity="0.6"/>
<stop offset="0.94" stop-color="#CF5251" stop-opacity="0.78"/>
<stop offset="1" stop-color="#CF5251"/>
</radialGradient>
<linearGradient id="paint1_linear_165_288" x1="129.9" y1="59.9318" x2="129.9" y2="171.059" gradientUnits="userSpaceOnUse">
<stop stop-color="white"/>
<stop offset="1" stop-color="white" stop-opacity="0"/>
</linearGradient>
<linearGradient id="paint2_linear_165_288" x1="133.159" y1="48.7483" x2="133.159" y2="75.2367" gradientUnits="userSpaceOnUse">
<stop stop-color="white"/>
<stop offset="1" stop-color="white" stop-opacity="0"/>
</linearGradient>
<linearGradient id="paint3_linear_165_288" x1="139.204" y1="87.1566" x2="139.204" y2="122.023" gradientUnits="userSpaceOnUse">
<stop stop-color="white"/>
<stop offset="1" stop-color="white" stop-opacity="0"/>
</linearGradient>
<linearGradient id="paint4_linear_165_288" x1="127.748" y1="116.471" x2="127.748" y2="149.765" gradientUnits="userSpaceOnUse">
<stop stop-color="white"/>
<stop offset="1" stop-color="white" stop-opacity="0"/>
</linearGradient>
<linearGradient id="paint5_linear_165_288" x1="102.982" y1="119.64" x2="102.982" y2="130.446" gradientUnits="userSpaceOnUse">
<stop stop-color="white"/>
<stop offset="1" stop-color="white" stop-opacity="0"/>
</linearGradient>
<linearGradient id="paint6_linear_165_288" x1="141.909" y1="75.031" x2="141.909" y2="109.326" gradientUnits="userSpaceOnUse">
<stop stop-color="white"/>
<stop offset="1" stop-color="white" stop-opacity="0"/>
</linearGradient>
<linearGradient id="paint7_linear_165_288" x1="119.552" y1="127.75" x2="119.552" y2="162.068" gradientUnits="userSpaceOnUse">
<stop stop-color="white"/>
<stop offset="1" stop-color="white" stop-opacity="0"/>
</linearGradient>
<linearGradient id="paint8_linear_165_288" x1="136.188" y1="93.6508" x2="136.188" y2="115.076" gradientUnits="userSpaceOnUse">
<stop stop-color="white"/>
<stop offset="1" stop-color="white" stop-opacity="0"/>
</linearGradient>
<linearGradient id="paint9_linear_165_288" x1="126.074" y1="119.447" x2="126.074" y2="138.019" gradientUnits="userSpaceOnUse">
<stop stop-color="white"/>
<stop offset="1" stop-color="white" stop-opacity="0"/>
</linearGradient>
<clipPath id="clip0_165_288">
<rect width="112.289" height="122.316" fill="white" transform="translate(73.723 48.7425)"/>
</clipPath>
</defs>
</svg>
