<svg width="258" height="225" viewBox="0 0 258 225" fill="none" xmlns="http://www.w3.org/2000/svg">
<path d="M174.849 1.95927L70.7146 2.20757L65.6524 2.13399L3.38708 105.753L64.4558 0.0187565L70.733 0.000366211L174.849 1.95927Z" fill="#EFA5A5"/>
<path d="M64.9219 222.765L1.73241 112.501L65.7119 2.68985L192.874 3.1435L256.063 113.408L192.084 223.228L64.9219 222.765Z" fill="url(#paint0_radial_165_287)" stroke="white" stroke-width="3"/>
<g clip-path="url(#clip0_165_287)">
<path d="M173.325 162.631V120.139H151.364V162.631C151.364 162.926 151.306 163.217 151.192 163.49C151.078 163.762 150.912 164.009 150.702 164.217C150.492 164.425 150.243 164.59 149.969 164.702C149.695 164.814 149.401 164.872 149.105 164.871C148.508 164.868 147.937 164.632 147.515 164.212C147.093 163.793 146.855 163.224 146.853 162.631V117.899C146.855 117.306 147.093 116.737 147.515 116.317C147.937 115.898 148.508 115.661 149.105 115.659H175.584C176.181 115.659 176.754 115.895 177.176 116.315C177.598 116.735 177.836 117.305 177.836 117.899V162.631C177.836 163.225 177.598 163.794 177.176 164.215C176.754 164.635 176.181 164.871 175.584 164.871C175.288 164.872 174.994 164.814 174.72 164.702C174.446 164.59 174.197 164.425 173.987 164.217C173.777 164.009 173.61 163.762 173.497 163.49C173.383 163.217 173.325 162.926 173.325 162.631Z" fill="url(#paint1_linear_165_287)"/>
<path d="M139.997 162.631V100.152H118.052V162.631C118.052 162.926 117.994 163.218 117.88 163.49C117.766 163.762 117.6 164.009 117.39 164.217C117.18 164.425 116.931 164.59 116.657 164.702C116.383 164.814 116.089 164.872 115.793 164.871C115.196 164.871 114.623 164.635 114.201 164.215C113.778 163.795 113.541 163.225 113.541 162.631V97.9049C113.541 97.6112 113.6 97.3203 113.713 97.049C113.826 96.7777 113.992 96.5313 114.201 96.3239C114.41 96.1166 114.659 95.9523 114.932 95.8406C115.205 95.7289 115.497 95.672 115.793 95.673H142.288C142.583 95.672 142.876 95.7289 143.15 95.8405C143.423 95.9521 143.672 96.1162 143.882 96.3235C144.092 96.5307 144.259 96.7771 144.373 97.0484C144.487 97.3197 144.546 97.6108 144.547 97.9049V162.631C144.545 163.226 144.306 163.795 143.883 164.215C143.459 164.635 142.886 164.871 142.288 164.871C141.989 164.876 141.692 164.822 141.414 164.711C141.136 164.601 140.883 164.437 140.67 164.228C140.457 164.02 140.288 163.771 140.172 163.497C140.057 163.223 139.997 162.928 139.997 162.631Z" fill="url(#paint2_linear_165_287)"/>
<path d="M110.054 79.3496V162.631C110.055 162.925 109.998 163.216 109.886 163.487C109.774 163.759 109.608 164.006 109.4 164.214C109.192 164.422 108.944 164.587 108.671 164.7C108.398 164.813 108.106 164.871 107.811 164.871C107.514 164.873 107.219 164.816 106.944 164.705C106.669 164.593 106.419 164.428 106.208 164.22C105.998 164.012 105.83 163.764 105.716 163.492C105.602 163.219 105.543 162.926 105.543 162.631V81.6204H83.5908V162.631C83.5908 162.928 83.5316 163.221 83.4165 163.495C83.3014 163.769 83.1327 164.017 82.9203 164.226C82.7079 164.434 82.456 164.598 82.1792 164.709C81.9024 164.82 81.6063 164.875 81.308 164.871C80.7108 164.871 80.1381 164.635 79.7159 164.215C79.2936 163.795 79.0564 163.225 79.0564 162.631V79.3496C79.0564 79.0555 79.1146 78.7642 79.2278 78.4925C79.3409 78.2207 79.5068 77.9738 79.7159 77.7659C79.9249 77.5579 80.1731 77.3929 80.4463 77.2803C80.7195 77.1678 81.0123 77.1099 81.308 77.1099H107.811C108.106 77.1099 108.398 77.1679 108.671 77.2805C108.944 77.3932 109.192 77.5582 109.4 77.7663C109.608 77.9744 109.774 78.2214 109.886 78.4931C109.998 78.7647 110.055 79.0558 110.054 79.3496Z" fill="url(#paint3_linear_165_287)"/>
<path d="M184.45 169.498C184.45 170.092 184.213 170.663 183.791 171.084C183.369 171.505 182.796 171.743 182.198 171.745H73.1227C72.5248 171.743 71.9521 171.505 71.5301 171.084C71.1081 170.663 70.8711 170.092 70.8711 169.498C70.8711 168.904 71.1083 168.334 71.5306 167.914C71.9528 167.494 72.5255 167.258 73.1227 167.258H182.198C182.795 167.258 183.368 167.494 183.79 167.914C184.212 168.334 184.45 168.904 184.45 169.498Z" fill="url(#paint4_linear_165_287)"/>
<path d="M89.9077 40.2635C90.4877 40.2593 91.0473 40.4764 91.4713 40.8701L124.807 71.9772L144.633 60.4987C145.071 60.2434 145.584 60.1437 146.087 60.2157C146.589 60.2877 147.053 60.5273 147.401 60.8953L175.303 90.3459L171.816 93.1922L145.321 65.2891L125.557 76.6665C125.139 76.9072 124.654 77.0077 124.174 76.9531C123.694 76.8985 123.244 76.6917 122.891 76.3632L88.3441 44.1441C87.9083 43.7364 87.6529 43.1734 87.6338 42.5786C87.6148 41.9838 87.8337 41.4057 88.2425 40.9712C88.4542 40.7431 88.712 40.5621 88.999 40.4401C89.286 40.3182 89.5957 40.258 89.9077 40.2635Z" fill="url(#paint5_linear_165_287)"/>
<path d="M180.353 86.2008C180.756 85.8721 181.262 85.6933 181.784 85.6953C182.05 85.6974 182.315 85.7448 182.566 85.8353C182.936 85.9734 183.262 86.2067 183.512 86.5114C183.762 86.816 183.927 87.1811 183.988 87.5695L186.795 104.678C186.856 105.06 186.816 105.45 186.679 105.812C186.542 106.173 186.312 106.493 186.013 106.739C185.718 106.99 185.363 107.161 184.982 107.234C184.601 107.308 184.208 107.282 183.84 107.159L166.984 101.513C166.704 101.419 166.445 101.271 166.222 101.078C165.999 100.885 165.817 100.649 165.686 100.386C165.554 100.122 165.476 99.8353 165.456 99.5417C165.436 99.2481 165.475 98.9535 165.569 98.6747C165.733 98.1728 166.075 97.7472 166.531 97.4771C166.603 97.3962 166.682 97.3208 166.766 97.2516L171.761 93.1766L175.248 90.3303L180.353 86.2008ZM181.76 101.754L180.197 92.1423L172.308 98.5892L181.76 101.754Z" fill="url(#paint6_linear_165_287)"/>
</g>
<defs>
<radialGradient id="paint0_radial_165_287" cx="0" cy="0" r="1" gradientUnits="userSpaceOnUse" gradientTransform="translate(132.267 127.428) rotate(-59.8066) scale(119.873 119.92)">
<stop stop-color="#CF5251" stop-opacity="0"/>
<stop offset="0.35" stop-color="#CF5251" stop-opacity="0.01"/>
<stop offset="0.49" stop-color="#CF5251" stop-opacity="0.04"/>
<stop offset="0.59" stop-color="#CF5251" stop-opacity="0.1"/>
<stop offset="0.68" stop-color="#CF5251" stop-opacity="0.19"/>
<stop offset="0.76" stop-color="#CF5251" stop-opacity="0.3"/>
<stop offset="0.83" stop-color="#CF5251" stop-opacity="0.44"/>
<stop offset="0.89" stop-color="#CF5251" stop-opacity="0.6"/>
<stop offset="0.94" stop-color="#CF5251" stop-opacity="0.78"/>
<stop offset="1" stop-color="#CF5251"/>
</radialGradient>
<linearGradient id="paint1_linear_165_287" x1="162.344" y1="115.659" x2="162.344" y2="164.871" gradientUnits="userSpaceOnUse">
<stop stop-color="#F4F4F4"/>
<stop offset="1" stop-color="#845555" stop-opacity="0"/>
</linearGradient>
<linearGradient id="paint2_linear_165_287" x1="129.044" y1="95.673" x2="129.044" y2="164.871" gradientUnits="userSpaceOnUse">
<stop stop-color="#F4F4F4"/>
<stop offset="1" stop-color="#845555" stop-opacity="0"/>
</linearGradient>
<linearGradient id="paint3_linear_165_287" x1="94.5554" y1="77.1099" x2="94.5554" y2="164.871" gradientUnits="userSpaceOnUse">
<stop stop-color="#F4F4F4"/>
<stop offset="1" stop-color="#845555" stop-opacity="0"/>
</linearGradient>
<linearGradient id="paint4_linear_165_287" x1="127.66" y1="167.258" x2="127.66" y2="171.745" gradientUnits="userSpaceOnUse">
<stop stop-color="#F4F4F4"/>
<stop offset="1" stop-color="#845555" stop-opacity="0"/>
</linearGradient>
<linearGradient id="paint5_linear_165_287" x1="131.468" y1="40.2632" x2="131.468" y2="93.1922" gradientUnits="userSpaceOnUse">
<stop stop-color="#F4F4F4"/>
<stop offset="1" stop-color="#845555" stop-opacity="0"/>
</linearGradient>
<linearGradient id="paint6_linear_165_287" x1="176.137" y1="85.6953" x2="176.137" y2="107.275" gradientUnits="userSpaceOnUse">
<stop stop-color="#F4F4F4"/>
<stop offset="1" stop-color="#845555" stop-opacity="0"/>
</linearGradient>
<clipPath id="clip0_165_287">
<rect width="115.971" height="131.513" fill="white" transform="translate(70.8711 40.2635)"/>
</clipPath>
</defs>
</svg>
