<svg width="259" height="226" viewBox="0 0 259 226" fill="none" xmlns="http://www.w3.org/2000/svg">
<path d="M258.796 112.448L194.423 225.365L64.0391 226L54.5498 209.464L0.10791 112.338L66.92 0.717773L2.67581 112.338L58.1485 207.386L66.2849 222.156L193.512 223.756L258.796 112.448Z" fill="#EFA5A5"/>
<path d="M65.4714 222.93L2.28194 112.666L66.2523 2.85537L193.423 3.30903L256.613 113.573L192.633 223.384L65.4714 222.93Z" fill="url(#paint0_radial_165_289)" stroke="white" stroke-width="3"/>
<g clip-path="url(#clip0_165_289)">
<path d="M196.961 118.031C196.79 118.435 196.503 118.779 196.138 119.021C195.772 119.262 195.344 119.391 194.906 119.389H163.144V180.572C163.144 181.168 162.908 181.74 162.488 182.162C162.067 182.583 161.497 182.82 160.903 182.82C160.308 182.82 159.738 182.583 159.318 182.162C158.897 181.74 158.661 181.168 158.661 180.572V117.141C158.661 116.545 158.897 115.973 159.318 115.551C159.738 115.13 160.308 114.893 160.903 114.893H189.7L131.327 53.1403L72.9551 114.893H101.752C102.05 114.886 102.347 114.94 102.624 115.05C102.902 115.16 103.154 115.325 103.367 115.534C103.58 115.744 103.75 115.994 103.865 116.27C103.981 116.546 104.04 116.842 104.04 117.141V180.572C104.04 181.168 103.804 181.74 103.384 182.162C102.963 182.583 102.393 182.82 101.799 182.82C101.204 182.82 100.634 182.583 100.214 182.162C99.7934 181.74 99.5572 181.168 99.5572 180.572V119.405H67.7716C67.3339 119.406 66.9056 119.278 66.5401 119.036C66.1747 118.795 65.8883 118.451 65.7169 118.047C65.5421 117.643 65.4894 117.197 65.5655 116.764C65.6417 116.331 65.8432 115.93 66.145 115.611L129.724 48.3625C129.932 48.1417 130.183 47.9655 130.462 47.8448C130.74 47.724 131.04 47.6611 131.343 47.6599C131.648 47.6604 131.951 47.7228 132.232 47.8436C132.513 47.9644 132.766 48.1409 132.977 48.3625L196.541 115.634C196.834 115.951 197.029 116.345 197.104 116.77C197.178 117.196 197.129 117.633 196.961 118.031Z" fill="url(#paint1_linear_165_289)"/>
<path d="M113.528 161.281C113.653 161.41 113.803 161.513 113.969 161.583C114.135 161.652 114.313 161.688 114.493 161.687C114.674 161.687 114.853 161.651 115.02 161.582C115.187 161.512 115.338 161.41 115.466 161.281L150.077 126.564C150.205 126.437 150.306 126.287 150.376 126.121C150.445 125.954 150.481 125.776 150.481 125.596C150.481 125.416 150.445 125.237 150.376 125.071C150.306 124.905 150.205 124.754 150.077 124.628C149.949 124.5 149.798 124.399 149.632 124.33C149.466 124.261 149.288 124.225 149.108 124.225C148.928 124.225 148.749 124.261 148.583 124.33C148.417 124.399 148.266 124.5 148.139 124.628L113.528 159.345C113.4 159.471 113.298 159.622 113.229 159.788C113.159 159.954 113.124 160.133 113.124 160.313C113.124 160.493 113.159 160.672 113.229 160.838C113.298 161.004 113.4 161.155 113.528 161.281Z" fill="url(#paint2_linear_165_289)"/>
<path d="M141.951 142.997C137.367 142.997 133.779 148.025 133.779 154.442C133.779 160.859 137.367 165.879 141.951 165.879C146.535 165.879 150.131 160.852 150.131 154.442C150.131 148.033 146.535 142.997 141.951 142.997ZM141.951 163.131C139.001 163.131 136.503 159.15 136.503 154.442C136.503 149.735 138.986 145.745 141.951 145.745C144.916 145.745 147.399 149.727 147.399 154.442C147.399 159.158 144.901 163.123 141.951 163.123V163.131Z" fill="url(#paint3_linear_165_289)"/>
<path d="M120.385 121.45C115.8 121.45 112.212 126.478 112.212 132.887C112.212 139.297 115.793 144.324 120.385 144.324C124.976 144.324 128.564 139.305 128.564 132.887C128.564 126.47 124.961 121.45 120.385 121.45ZM120.385 141.584C117.443 141.584 114.936 137.603 114.936 132.887C114.936 128.172 117.427 124.198 120.385 124.198C123.342 124.198 125.833 128.18 125.833 132.887C125.833 137.595 123.326 141.584 120.385 141.584Z" fill="url(#paint4_linear_165_289)"/>
</g>
<defs>
<radialGradient id="paint0_radial_165_289" cx="0" cy="0" r="1" gradientUnits="userSpaceOnUse" gradientTransform="translate(130.652 127.373) rotate(-59.8066) scale(119.873 119.92)">
<stop stop-color="#CF5251" stop-opacity="0"/>
<stop offset="0.35" stop-color="#CF5251" stop-opacity="0.01"/>
<stop offset="0.49" stop-color="#CF5251" stop-opacity="0.04"/>
<stop offset="0.59" stop-color="#CF5251" stop-opacity="0.1"/>
<stop offset="0.68" stop-color="#CF5251" stop-opacity="0.19"/>
<stop offset="0.76" stop-color="#CF5251" stop-opacity="0.3"/>
<stop offset="0.83" stop-color="#CF5251" stop-opacity="0.44"/>
<stop offset="0.89" stop-color="#CF5251" stop-opacity="0.6"/>
<stop offset="0.94" stop-color="#CF5251" stop-opacity="0.78"/>
<stop offset="1" stop-color="#CF5251"/>
</radialGradient>
<linearGradient id="paint1_linear_165_289" x1="131.334" y1="47.6599" x2="131.334" y2="182.82" gradientUnits="userSpaceOnUse">
<stop stop-color="white"/>
<stop offset="1" stop-color="white" stop-opacity="0"/>
</linearGradient>
<linearGradient id="paint2_linear_165_289" x1="131.802" y1="124.225" x2="131.802" y2="161.687" gradientUnits="userSpaceOnUse">
<stop stop-color="white"/>
<stop offset="1" stop-color="white" stop-opacity="0"/>
</linearGradient>
<linearGradient id="paint3_linear_165_289" x1="141.955" y1="142.997" x2="141.955" y2="165.879" gradientUnits="userSpaceOnUse">
<stop stop-color="white"/>
<stop offset="1" stop-color="white" stop-opacity="0"/>
</linearGradient>
<linearGradient id="paint4_linear_165_289" x1="120.388" y1="121.45" x2="120.388" y2="144.324" gradientUnits="userSpaceOnUse">
<stop stop-color="white"/>
<stop offset="1" stop-color="white" stop-opacity="0"/>
</linearGradient>
<clipPath id="clip0_165_289">
<rect width="131.618" height="135.191" fill="white" transform="translate(65.5302 47.6208)"/>
</clipPath>
</defs>
</svg>
