<svg width="260" height="226" viewBox="0 0 260 226" fill="none" xmlns="http://www.w3.org/2000/svg">
<path d="M193.851 224.952L257.414 113.57L225.227 58.5558L193.639 3.20086L65.3257 2.5111L194.937 0.966064L228.136 56.882L260 113.57L193.851 224.952Z" fill="#EFA5A5"/>
<path d="M65.2854 224.034L2.09592 113.761L66.0754 3.94973L193.247 4.40339L256.436 114.677L192.457 224.488L65.2854 224.034Z" fill="url(#paint0_radial_165_291)" stroke="white" stroke-width="3"/>
<g clip-path="url(#clip0_165_291)">
<path d="M89.8252 146.032H169.056C172.098 146.028 175.013 144.81 177.163 142.643C179.313 140.476 180.522 137.538 180.523 134.474V94.1195C180.52 91.0569 179.311 88.1208 177.161 85.9552C175.011 83.7897 172.097 82.5716 169.056 82.5684H89.8252C86.785 82.5716 83.8703 83.7897 81.7205 85.9552C79.5708 88.1208 78.3616 91.0569 78.3584 94.1195V134.474C78.3616 137.538 79.5706 140.474 81.7202 142.641C83.8697 144.807 86.7844 146.027 89.8252 146.032ZM81.8904 94.1442C81.9001 92.0273 82.7392 89.9999 84.2251 88.503C85.7111 87.0061 87.7237 86.1608 89.8252 86.1511H169.056C171.158 86.1608 173.17 87.0061 174.656 88.503C176.142 89.9999 176.981 92.0273 176.991 94.1442V134.499C176.981 136.616 176.142 138.643 174.656 140.14C173.17 141.637 171.158 142.483 169.056 142.492H89.8252C87.7237 142.483 85.7111 141.637 84.2251 140.14C82.7392 138.643 81.9001 136.616 81.8904 134.499V94.1442Z" fill="url(#paint1_linear_165_291)"/>
<path d="M87.2804 126.246C89.1963 126.248 91.0333 127.015 92.3886 128.379C93.7438 129.743 94.5068 131.593 94.51 133.523C94.5122 134.348 94.3732 135.167 94.0992 135.945C94.005 136.212 93.9758 136.499 94.0142 136.781C94.0526 137.062 94.1575 137.331 94.3199 137.563C94.4824 137.796 94.6982 137.986 94.949 138.117C95.1998 138.248 95.4783 138.317 95.7609 138.317H163.133C163.601 138.317 164.05 138.129 164.382 137.795C164.713 137.462 164.899 137.009 164.899 136.538C164.896 136.284 164.842 136.034 164.739 135.802C164.498 135.067 164.373 134.298 164.372 133.523C164.375 131.593 165.138 129.743 166.493 128.379C167.848 127.015 169.685 126.248 171.601 126.246C172.07 126.245 172.519 126.056 172.85 125.721C173.181 125.387 173.367 124.934 173.367 124.461V105.016C173.367 104.544 173.181 104.092 172.85 103.758C172.519 103.424 172.07 103.237 171.601 103.237C169.685 103.235 167.848 102.468 166.493 101.104C165.138 99.74 164.375 97.8902 164.372 95.9602C164.371 95.135 164.513 94.3158 164.789 93.5388C164.883 93.2699 164.912 92.9822 164.874 92.6996C164.835 92.417 164.73 92.1478 164.568 91.9142C164.404 91.6816 164.187 91.4918 163.935 91.3607C163.683 91.2296 163.404 91.161 163.121 91.1606H95.7609C95.4786 91.162 95.2006 91.2311 94.9501 91.3621C94.6995 91.4932 94.4835 91.6824 94.3199 91.9142C94.1574 92.1478 94.0526 92.417 94.0142 92.6996C93.9758 92.9822 94.0049 93.2699 94.0992 93.5388C94.3732 94.3162 94.5122 95.1353 94.51 95.9602C94.5068 97.8902 93.7438 99.74 92.3886 101.104C91.0333 102.468 89.1963 103.235 87.2804 103.237C87.0483 103.236 86.8183 103.281 86.6036 103.371C86.389 103.46 86.194 103.591 86.0299 103.756C85.8657 103.921 85.7356 104.118 85.6472 104.334C85.5587 104.55 85.5136 104.782 85.5144 105.016V124.492C85.5209 124.96 85.7098 125.406 86.0403 125.734C86.3708 126.062 86.8163 126.247 87.2804 126.246ZM89.0587 106.622C91.572 106.2 93.8554 104.894 95.5034 102.936C97.1515 100.979 98.0574 98.4961 98.0604 95.9294C98.0601 95.5164 98.0355 95.1039 97.9868 94.6939H160.925C160.879 95.104 160.856 95.5166 160.858 95.9294C160.86 98.4943 161.765 100.975 163.41 102.933C165.056 104.89 167.336 106.197 169.847 106.622V122.824C167.336 123.251 165.055 124.559 163.41 126.517C161.764 128.475 160.86 130.957 160.858 133.523C160.856 133.936 160.878 134.348 160.925 134.759H97.9746C98.0237 134.349 98.0483 133.936 98.0482 133.523C98.0447 130.958 97.1402 128.476 95.4949 126.518C93.8497 124.56 91.5697 123.252 89.0587 122.824V106.622Z" fill="url(#paint2_linear_165_291)"/>
<path d="M131.063 124.69C128.457 124.69 126.335 122.794 126.335 120.471C126.335 120.052 126.169 119.649 125.875 119.353C125.581 119.056 125.181 118.89 124.765 118.89C124.349 118.89 123.949 119.056 123.655 119.353C123.361 119.649 123.195 120.052 123.195 120.471C123.195 124.035 125.906 127.019 129.487 127.71V126.475C129.487 126.054 129.653 125.65 129.948 125.353C130.244 125.055 130.645 124.888 131.063 124.888C131.48 124.889 131.879 125.057 132.173 125.355C132.467 125.652 132.632 126.055 132.632 126.475V127.71C136.22 127.019 138.924 124.004 138.924 120.471C138.924 116.4 135.398 113.089 131.063 113.089C128.457 113.089 126.335 111.193 126.335 108.87C126.335 106.548 128.457 104.651 131.063 104.651C133.669 104.651 135.784 106.548 135.784 108.87C135.784 109.29 135.949 109.693 136.244 109.991C136.538 110.288 136.937 110.456 137.354 110.458C137.561 110.458 137.765 110.417 137.956 110.337C138.147 110.257 138.32 110.14 138.466 109.993C138.612 109.845 138.728 109.67 138.806 109.477C138.885 109.285 138.925 109.079 138.924 108.87C138.924 105.306 136.22 102.323 132.632 101.637V102.829C132.629 103.246 132.462 103.645 132.168 103.939C131.874 104.233 131.477 104.398 131.063 104.398C130.646 104.398 130.246 104.232 129.95 103.935C129.655 103.639 129.488 103.237 129.487 102.817V101.625C125.906 102.31 123.195 105.294 123.195 108.858C123.195 112.929 126.721 116.27 131.063 116.27C133.669 116.27 135.784 118.161 135.784 120.483C135.784 122.806 133.669 124.69 131.063 124.69Z" fill="url(#paint3_linear_165_291)"/>
<path d="M131.063 124.906C130.645 124.906 130.244 125.073 129.948 125.371C129.653 125.669 129.487 126.073 129.487 126.494V130.503C129.487 130.711 129.528 130.917 129.607 131.109C129.686 131.301 129.802 131.476 129.949 131.623C130.095 131.77 130.269 131.886 130.46 131.965C130.651 132.044 130.856 132.085 131.063 132.084C131.479 132.084 131.878 131.917 132.173 131.621C132.467 131.324 132.633 130.922 132.633 130.503V126.494C132.633 126.074 132.467 125.671 132.173 125.373C131.879 125.076 131.48 124.908 131.063 124.906Z" fill="url(#paint4_linear_165_291)"/>
<path d="M131.063 104.398C131.479 104.398 131.878 104.232 132.173 103.935C132.467 103.638 132.633 103.236 132.633 102.817V98.9377C132.633 98.5183 132.467 98.116 132.173 97.8195C131.878 97.5229 131.479 97.3563 131.063 97.3563C130.856 97.3555 130.651 97.3958 130.46 97.4749C130.269 97.554 130.095 97.6704 129.949 97.8173C129.802 97.9642 129.686 98.1388 129.607 98.3311C129.528 98.5233 129.487 98.7295 129.487 98.9377V102.817C129.488 103.237 129.655 103.639 129.951 103.935C130.246 104.232 130.646 104.398 131.063 104.398Z" fill="url(#paint5_linear_165_291)"/>
</g>
<defs>
<radialGradient id="paint0_radial_165_291" cx="0" cy="0" r="1" gradientUnits="userSpaceOnUse" gradientTransform="translate(128.296 128.239) rotate(-59.8066) scale(119.873 119.92)">
<stop stop-color="#CF5251" stop-opacity="0"/>
<stop offset="0.35" stop-color="#CF5251" stop-opacity="0.01"/>
<stop offset="0.49" stop-color="#CF5251" stop-opacity="0.04"/>
<stop offset="0.59" stop-color="#CF5251" stop-opacity="0.1"/>
<stop offset="0.68" stop-color="#CF5251" stop-opacity="0.19"/>
<stop offset="0.76" stop-color="#CF5251" stop-opacity="0.3"/>
<stop offset="0.83" stop-color="#CF5251" stop-opacity="0.44"/>
<stop offset="0.89" stop-color="#CF5251" stop-opacity="0.6"/>
<stop offset="0.94" stop-color="#CF5251" stop-opacity="0.78"/>
<stop offset="1" stop-color="#CF5251"/>
</radialGradient>
<linearGradient id="paint1_linear_165_291" x1="129.441" y1="82.5684" x2="129.441" y2="146.032" gradientUnits="userSpaceOnUse">
<stop stop-color="white"/>
<stop offset="1" stop-color="white" stop-opacity="0"/>
</linearGradient>
<linearGradient id="paint2_linear_165_291" x1="129.441" y1="91.1606" x2="129.441" y2="138.317" gradientUnits="userSpaceOnUse">
<stop stop-color="white"/>
<stop offset="1" stop-color="white" stop-opacity="0"/>
</linearGradient>
<linearGradient id="paint3_linear_165_291" x1="131.06" y1="101.625" x2="131.06" y2="127.71" gradientUnits="userSpaceOnUse">
<stop stop-color="white"/>
<stop offset="1" stop-color="white" stop-opacity="0"/>
</linearGradient>
<linearGradient id="paint4_linear_165_291" x1="131.06" y1="124.906" x2="131.06" y2="132.084" gradientUnits="userSpaceOnUse">
<stop stop-color="white"/>
<stop offset="1" stop-color="white" stop-opacity="0"/>
</linearGradient>
<linearGradient id="paint5_linear_165_291" x1="131.06" y1="97.3563" x2="131.06" y2="104.398" gradientUnits="userSpaceOnUse">
<stop stop-color="white"/>
<stop offset="1" stop-color="white" stop-opacity="0"/>
</linearGradient>
<clipPath id="clip0_165_291">
<rect width="102.165" height="63.4572" fill="white" transform="translate(78.3584 82.5684)"/>
</clipPath>
</defs>
</svg>
