<svg width="160" height="38" viewBox="0 0 160 38" fill="none" xmlns="http://www.w3.org/2000/svg">
<rect x="0.5" y="0.5" width="159" height="37" rx="4.25" fill="black"/>
<path d="M24.1929 6.75977C23.8999 7.05282 23.8022 7.54178 23.8022 8.12843V29.7387C23.8022 30.3254 23.9975 30.8143 24.2906 31.1079L24.3888 31.2056L36.5141 19.0793V18.884L24.1929 6.75977Z" fill="url(#paint0_linear_2164_3449)"/>
<path d="M40.4251 23.1873L36.4158 19.1779V18.8848L40.4251 14.8755L40.5228 14.9732L45.3142 17.7116C46.6834 18.4936 46.6834 19.7646 45.3142 20.5471L40.4251 23.1873Z" fill="url(#paint1_linear_2164_3449)"/>
<path d="M40.5229 23.0924L36.4158 18.9854L24.1929 31.2056C24.6818 31.6946 25.3662 31.6946 26.2464 31.3033L40.5229 23.0924Z" fill="url(#paint2_linear_2164_3449)"/>
<path d="M40.5229 14.8754L26.2464 6.7595C25.3667 6.27054 24.6818 6.36823 24.1929 6.85719L36.4158 18.9824L40.5229 14.8754Z" fill="url(#paint3_linear_2164_3449)"/>
<path opacity="0.2" d="M40.4252 22.9922L26.2464 31.013C25.4644 31.502 24.7795 31.4038 24.2927 31.013L24.195 31.1107L24.2927 31.2084C24.7817 31.5997 25.4665 31.6974 26.2464 31.2084L40.4252 22.9922Z" fill="black"/>
<path opacity="0.12" d="M24.1929 31.0126C23.8999 30.719 23.8022 30.2301 23.8022 29.6434V29.7411C23.8022 30.3278 23.9975 30.8167 24.2906 31.1103V31.0126H24.1929ZM45.3143 20.256L40.4252 22.9918L40.5229 23.0895L45.3143 20.3516C46.0007 19.9603 46.2922 19.4714 46.2922 18.9824C46.2922 19.4714 45.9009 19.8627 45.3143 20.2534V20.256Z" fill="black"/>
<path opacity="0.25" d="M26.2465 6.85742L45.3143 17.7117C45.901 18.1024 46.2922 18.4937 46.2922 18.9827C46.2922 18.4937 45.9992 18.0047 45.3143 17.6135L26.2465 6.75973C24.8778 5.97719 23.8022 6.56383 23.8022 8.1284V8.22661C23.8022 6.75973 24.8778 6.07487 26.2465 6.85742Z" fill="white"/>
<path d="M79.8714 15.3329C77.5248 15.3329 75.6666 17.0928 75.6666 19.5376C75.6623 20.091 75.768 20.6397 75.9778 21.1518C76.1876 21.6639 76.4972 22.1291 76.8885 22.5204C77.2798 22.9116 77.7451 23.2211 78.2572 23.4309C78.7693 23.6406 79.318 23.7463 79.8714 23.7418C82.2185 23.7418 84.0761 21.9819 84.0761 19.5376C84.0761 16.9952 82.2185 15.3329 79.8714 15.3329ZM79.8714 21.9819C78.6004 21.9819 77.5248 20.9063 77.5248 19.4394C77.5248 17.9725 78.6004 16.8975 79.8714 16.8975C81.1423 16.8975 82.2185 17.8749 82.2185 19.4394C82.2185 20.9063 81.1429 21.983 79.8714 21.983V21.9819ZM70.7776 15.3329C68.431 15.3329 66.5728 17.0928 66.5728 19.5376C66.5685 20.091 66.6743 20.6397 66.884 21.1518C67.0938 21.6639 67.4034 22.1291 67.7947 22.5204C68.186 22.9116 68.6513 23.2211 69.1634 23.4309C69.6755 23.6406 70.2242 23.7463 70.7776 23.7418C73.1241 23.7418 74.9823 21.9819 74.9823 19.5376C74.9823 16.9952 73.1268 15.3329 70.7776 15.3329ZM70.7776 21.9819C69.5066 21.9819 68.431 20.9063 68.431 19.4394C68.431 17.9725 69.5066 16.8975 70.7776 16.8975C72.0485 16.8975 73.1268 17.8749 73.1268 19.4394C73.1268 20.9063 72.0485 21.983 70.7776 21.983V21.9819ZM59.9259 16.6039V18.3638H64.1307C64.033 19.3417 63.6417 20.1243 63.1533 20.6132C62.5661 21.1999 61.5861 21.8842 59.9259 21.8842C57.2858 21.8842 55.332 19.8307 55.332 17.1905C55.332 14.5504 57.3856 12.4968 59.9259 12.4968C61.2951 12.4968 62.3707 13.0835 63.1533 13.7683L64.4243 12.4968C63.346 11.5189 61.9768 10.7358 60.0215 10.7358C56.5011 10.7358 53.4697 13.6691 53.4697 17.1895C53.4697 20.7099 56.5011 23.6431 60.0215 23.6431C61.9752 23.6431 63.3481 23.0565 64.5193 21.7855C65.6926 20.6122 66.0839 18.9494 66.0839 17.6784C66.0839 17.2872 66.0839 16.8964 65.9862 16.6028L59.9259 16.6039ZM104.32 17.9731C103.929 16.9952 102.951 15.3329 100.8 15.3329C98.6488 15.3329 96.8883 16.9952 96.8883 19.5376C96.8883 21.8842 98.6488 23.7418 100.995 23.7418C102.854 23.7418 104.027 22.5686 104.418 21.8842L103.049 20.9063C102.56 21.5927 101.973 22.0796 100.995 22.0796C100.017 22.0796 99.4308 21.6888 98.9418 20.8086L104.516 18.4615L104.32 17.9731ZM98.6461 19.3428C98.6461 17.7782 99.9171 16.8985 100.797 16.8985C101.484 16.8985 102.166 17.2893 102.362 17.7782L98.6461 19.3428ZM94.0522 23.3522H95.9104V11.1282H94.0522V23.3522ZM91.1169 16.2126C90.6279 15.7236 89.8454 15.2347 88.8675 15.2347C86.8139 15.2347 84.8586 17.0928 84.8586 19.4394C84.8586 21.786 86.7163 23.5465 88.8675 23.5465C89.8454 23.5465 90.6279 23.0575 91.0187 22.5686H91.1164V23.1552C91.1164 24.7198 90.2367 25.6 88.8675 25.6C87.7919 25.6 87.0098 24.818 86.8139 24.1331L85.2494 24.8196C85.7383 25.8952 86.9122 27.2638 88.9652 27.2638C91.1164 27.2638 92.8768 25.9929 92.8768 22.9614V15.5283H91.1164V16.2147L91.1169 16.2126ZM88.9678 21.983C87.6968 21.983 86.6212 20.9074 86.6212 19.4405C86.6212 17.9736 87.6968 16.8985 88.9678 16.8985C90.2388 16.8985 91.2172 17.9741 91.2172 19.4405C91.2172 20.9068 90.2351 21.983 88.9678 21.983ZM112.828 11.1292H108.427V23.3511H110.285V18.7572H112.828C114.881 18.7572 116.836 17.2903 116.836 14.9437C116.836 12.5972 114.878 11.1282 112.825 11.1282L112.828 11.1292ZM112.925 16.9962H110.285V12.7904H112.925C114.294 12.7904 115.076 13.9637 115.076 14.8439C114.979 15.9195 114.196 16.9952 112.925 16.9952V16.9962ZM124.172 15.2357C122.804 15.2357 121.434 15.8224 120.946 17.0939L122.608 17.7803C122.999 17.0939 123.586 16.9006 124.27 16.9006C125.248 16.9006 126.128 17.4873 126.224 18.4647V18.5629C125.93 18.367 125.148 18.0739 124.366 18.0739C122.606 18.0739 120.846 19.0518 120.846 20.8118C120.846 22.474 122.313 23.5496 123.877 23.5496C125.148 23.5496 125.735 22.963 126.224 22.3763H126.321V23.3543H128.081V18.6563C127.886 16.5051 126.224 15.2336 124.17 15.2336L124.172 15.2357ZM123.972 21.983C123.386 21.983 122.505 21.6899 122.505 20.9074C122.505 19.9294 123.581 19.6364 124.459 19.6364C125.241 19.6364 125.632 19.8318 126.121 20.0271C125.93 21.1999 124.95 21.983 123.972 21.983ZM134.239 15.5293L132.186 20.8097H132.088L129.937 15.5293H127.983L131.211 22.9598L129.353 27.0669H131.211L136.198 15.5283L134.239 15.5293ZM117.812 23.3511H119.67V11.1282H117.812V23.3511Z" fill="white"/>
<rect x="0.5" y="0.5" width="159" height="37" rx="4.25" stroke="#737373"/>
<defs>
<linearGradient id="paint0_linear_2164_3449" x1="35.0568" y1="8.00107" x2="18.6474" y2="24.4203" gradientUnits="userSpaceOnUse">
<stop stop-color="#00A0FF"/>
<stop offset="0.01" stop-color="#00A1FF"/>
<stop offset="0.26" stop-color="#00BEFF"/>
<stop offset="0.51" stop-color="#00D2FF"/>
<stop offset="0.76" stop-color="#00DFFF"/>
<stop offset="1" stop-color="#00E3FF"/>
</linearGradient>
<linearGradient id="paint1_linear_2164_3449" x1="46.8309" y1="19.1003" x2="23.1751" y2="19.1003" gradientUnits="userSpaceOnUse">
<stop stop-color="#FFE000"/>
<stop offset="0.41" stop-color="#FFBD00"/>
<stop offset="0.78" stop-color="#FFA500"/>
<stop offset="1" stop-color="#FF9C00"/>
</linearGradient>
<linearGradient id="paint2_linear_2164_3449" x1="38.0101" y1="21.2812" x2="15.7625" y2="43.5387" gradientUnits="userSpaceOnUse">
<stop stop-color="#FF3A44"/>
<stop offset="1" stop-color="#C31162"/>
</linearGradient>
<linearGradient id="paint3_linear_2164_3449" x1="20.8476" y1="-0.301728" x2="30.7833" y2="9.63393" gradientUnits="userSpaceOnUse">
<stop stop-color="#32A071"/>
<stop offset="0.07" stop-color="#2DA771"/>
<stop offset="0.48" stop-color="#15CF74"/>
<stop offset="0.8" stop-color="#06E775"/>
<stop offset="1" stop-color="#00F076"/>
</linearGradient>
</defs>
</svg>
