<svg width="160" height="38" viewBox="0 0 160 38" fill="none" xmlns="http://www.w3.org/2000/svg">
<rect x="0.5" y="0.5" width="159" height="37" rx="4.25" fill="black"/>
<path d="M48.1022 19.7909C48.0811 16.6427 50.6806 15.1003 50.8073 15.0386C49.3288 12.8836 47.0456 12.5879 46.2218 12.5668C44.2987 12.3556 42.439 13.7285 41.4458 13.7285C40.4526 13.7285 38.9308 12.5874 37.3034 12.6297C35.2113 12.6719 33.2459 13.8763 32.1682 15.7567C29.9505 19.6018 31.598 25.2428 33.7323 28.3271C34.7883 29.8483 36.0355 31.5386 37.6629 31.4752C39.247 31.4118 39.8395 30.4608 41.7626 30.4608C43.6635 30.4608 44.2137 31.4752 45.8813 31.4329C47.5932 31.4118 48.6709 29.9117 49.6831 28.3704C50.9087 26.6379 51.395 24.9054 51.4161 24.8209C51.4161 24.8209 48.1423 23.5747 48.098 19.793L48.1022 19.7909ZM44.9746 10.5159C45.8195 9.43822 46.4119 8.00197 46.2419 6.52295C44.9947 6.58631 43.4523 7.38893 42.5647 8.42387C41.7827 9.35321 41.064 10.8528 41.2541 12.269C42.6486 12.3751 44.087 11.572 44.9746 10.5159Z" fill="white"/>
<path d="M68.4521 23.2373H66.4514L65.3462 19.7897H61.5359L60.4883 23.2373H58.5446L62.3174 11.5043H64.6608L68.4521 23.2373ZM65.0199 18.3419L64.0293 15.2756C63.9147 14.9709 63.7246 14.2279 63.4384 13.0663H63.4004C63.2863 13.5616 63.0957 14.304 62.8481 15.2756L61.8765 18.3419H65.0199ZM78.1468 18.8947C78.1468 20.342 77.7465 21.4657 76.9656 22.3037C76.2606 23.0466 75.4031 23.4279 74.3555 23.4279C73.2313 23.4279 72.4313 23.0276 71.936 22.2277V26.6631H70.0689V17.5419C70.0689 16.6469 70.0499 15.7138 69.9924 14.7613H71.6498L71.7644 16.0945H71.8024C72.4313 15.0849 73.3865 14.5706 74.6602 14.5706C75.6508 14.5706 76.4893 14.9709 77.1562 15.7518C77.8231 16.5708 78.1468 17.6184 78.1468 18.8947ZM76.2416 18.9707C76.2416 18.1518 76.051 17.4658 75.6893 16.9325C75.2891 16.3802 74.7388 16.0945 74.0524 16.0945C73.5926 16.0955 73.1477 16.2573 72.7946 16.5518C72.411 16.8578 72.1479 17.2894 72.0517 17.7705C72.0016 17.9574 71.9698 18.1488 71.9566 18.3419V19.7517C71.9566 20.3611 72.1467 20.8944 72.528 21.3136C72.9092 21.7329 73.4045 21.942 73.9948 21.942C74.6998 21.942 75.2526 21.6753 75.6523 21.123C76.0526 20.5897 76.2432 19.8658 76.2432 18.9707H76.2416ZM87.9017 18.8947C87.9017 20.342 87.5014 21.4657 86.7205 22.3037C86.0155 23.0466 85.158 23.4279 84.1099 23.4279C82.9862 23.4279 82.1857 23.0276 81.6904 22.2277V26.6631H79.8043V17.5419C79.8043 16.6469 79.7853 15.7138 79.7282 14.7613H81.3857L81.4998 16.0945H81.5378C82.1667 15.0849 83.1219 14.5706 84.3961 14.5706C85.3866 14.5706 86.2246 14.9709 86.8915 15.7518C87.5611 16.5708 87.9043 17.6211 87.9043 18.8947H87.9017ZM85.977 18.9707C85.977 18.1518 85.7869 17.4658 85.4247 16.9325C85.0244 16.3802 84.4742 16.0945 83.7878 16.0945C83.3281 16.0954 82.8833 16.2572 82.5305 16.5518C82.1466 16.8575 81.8834 17.2892 81.7876 17.7705C81.7338 17.9566 81.7017 18.1484 81.692 18.3419V19.7517C81.692 20.3611 81.8826 20.8944 82.2639 21.3136C82.6451 21.7329 83.1399 21.942 83.7307 21.942C84.4357 21.942 84.988 21.6753 85.3882 21.123C85.7885 20.5897 85.9786 19.8658 85.9786 18.9707H85.977ZM98.7829 19.9444C98.7829 20.935 98.4396 21.754 97.7347 22.3829C96.9729 23.0683 95.9061 23.4112 94.5343 23.4115C93.2765 23.4115 92.2669 23.1639 91.486 22.6876L91.9242 21.1256C92.7432 21.6209 93.6578 21.8496 94.6484 21.8496C95.3533 21.8496 95.9061 21.697 96.3059 21.3743C96.7056 21.0517 96.8967 20.6314 96.8967 20.0981C96.9003 19.8749 96.8582 19.6534 96.7731 19.4471C96.6879 19.2407 96.5614 19.054 96.4014 18.8984C96.0772 18.5742 95.5439 18.2695 94.782 17.9838C92.724 17.2217 91.6952 16.0979 91.6956 14.6123C91.6956 13.6413 92.0573 12.8603 92.7812 12.251C93.5052 11.6416 94.4773 11.3364 95.6585 11.3364C96.7251 11.3364 97.6207 11.527 98.3256 11.8887L97.8504 13.4127C97.1834 13.051 96.4405 12.8793 95.602 12.8793C94.9356 12.8793 94.4208 13.051 94.0401 13.3746C93.89 13.5088 93.7702 13.6732 93.6882 13.8571C93.6063 14.0409 93.5643 14.24 93.5648 14.4413C93.5648 14.8985 93.7359 15.2983 94.0981 15.5839C94.4028 15.8696 94.9747 16.1553 95.8127 16.4985C96.823 16.898 97.5661 17.3741 98.042 17.9268C98.5542 18.4564 98.7829 19.1228 98.7829 19.9444ZM105.014 16.1922H102.937V20.3067C102.937 21.3543 103.299 21.8686 104.042 21.8686C104.385 21.8686 104.652 21.8496 104.881 21.773L104.938 23.2019C104.576 23.3349 104.08 23.4131 103.471 23.4131C102.728 23.4131 102.156 23.1845 101.737 22.7266C101.317 22.2688 101.108 21.5074 101.108 20.4408V16.1743H99.8701V14.7613H101.108V13.2183L102.956 12.666V14.7782H105.032L105.012 16.1875L105.014 16.1922ZM114.349 18.9354C114.349 20.2306 113.969 21.2973 113.225 22.1352C112.444 22.9922 111.416 23.4305 110.12 23.4305C108.882 23.4305 107.891 23.0113 107.148 22.1923C106.405 21.3733 106.043 20.3257 106.043 19.0684C106.043 17.7541 106.424 16.6875 107.186 15.8474C107.948 15.0073 108.977 14.5902 110.253 14.5902C111.492 14.5902 112.501 15.0094 113.245 15.8284C113.988 16.6284 114.349 17.6765 114.349 18.9332V18.9354ZM112.406 18.9734C112.406 18.1924 112.235 17.5255 111.911 16.9732C111.511 16.3068 110.96 15.9641 110.215 15.9641C109.453 15.9641 108.882 16.3068 108.481 16.9732C108.139 17.5255 107.986 18.2114 107.986 19.0114C107.986 19.7924 108.158 20.4587 108.481 21.0116C108.882 21.678 109.453 22.0207 110.196 22.0207C110.92 22.0207 111.473 21.678 111.892 20.9921C112.235 20.4207 112.406 19.7543 112.406 18.9734ZM120.465 16.4209C120.27 16.3831 120.073 16.364 119.875 16.3638C119.208 16.3638 118.693 16.6115 118.35 17.1068C118.046 17.5445 117.875 18.0974 117.875 18.7828V23.2182H115.989V17.4278C115.989 16.5328 115.97 15.6563 115.932 14.7613H117.569L117.645 16.3802H117.702C117.876 15.8541 118.201 15.3905 118.635 15.0469C119.028 14.7584 119.501 14.5987 119.988 14.5896C120.147 14.592 120.306 14.6049 120.463 14.6282V16.4182L120.465 16.4209ZM128.886 18.6111C128.889 18.8988 128.864 19.186 128.81 19.4687H123.17C123.189 20.3067 123.455 20.954 123.989 21.3923C124.464 21.792 125.075 21.9826 125.837 21.9826C126.675 21.9826 127.437 21.8494 128.123 21.5829L128.409 22.8782C127.609 23.2209 126.656 23.392 125.57 23.392C124.255 23.392 123.227 23.0113 122.484 22.2303C121.741 21.4493 121.359 20.4207 121.359 19.1255C121.359 17.8497 121.703 16.7831 122.408 15.9446C123.132 15.0306 124.122 14.5923 125.36 14.5923C126.58 14.5923 127.513 15.0496 128.123 15.9446C128.637 16.6685 128.885 17.5445 128.885 18.6111H128.886ZM127.096 18.1164C127.121 17.6085 126.995 17.1045 126.733 16.6685C126.41 16.1352 125.914 15.8875 125.228 15.8875C124.619 15.8875 124.104 16.1352 123.723 16.6495C123.418 17.0498 123.228 17.5445 123.171 18.1164H127.096Z" fill="white"/>
<rect x="0.5" y="0.5" width="159" height="37" rx="4.25" stroke="#737373"/>
</svg>
