<svg width="18" height="18" viewBox="0 0 18 18" fill="none" xmlns="http://www.w3.org/2000/svg">
<path d="M8.4158 13.6897L6.57507 15.5695C6.01491 16.1388 5.25951 16.458 4.47243 16.458C3.68536 16.458 2.92996 16.1388 2.36981 15.5695C2.09673 15.289 1.88007 14.9557 1.73225 14.5889C1.58443 14.222 1.50834 13.8288 1.50834 13.4316C1.50834 13.0344 1.58443 12.6412 1.73225 12.2743C1.88007 11.9075 2.09673 11.5742 2.36981 11.2937L5.87918 7.71133C6.43933 7.14205 7.19473 6.82284 7.98181 6.82284C8.76888 6.82284 9.52429 7.14205 10.0844 7.71133C10.4409 8.07597 10.6988 8.53005 10.8327 9.02873C10.9063 8.96618 10.974 8.89653 11.0347 8.82072L12 7.83459C11.7839 7.37141 11.4929 6.94939 11.1395 6.58653C10.2989 5.73028 9.16425 5.25 7.98181 5.25C6.79937 5.25 5.66467 5.73028 4.82412 6.58653L1.30727 10.1997C0.893024 10.623 0.564243 11.1265 0.339878 11.6811C0.115512 12.2358 0 12.8307 0 13.4316C0 14.0325 0.115512 14.6274 0.339878 15.1821C0.564243 15.7368 0.893024 16.2402 1.30727 16.6635C2.14782 17.5197 3.28251 18 4.46495 18C5.64739 18 6.78209 17.5197 7.62264 16.6635L10.3538 13.8746H9.97968C9.45275 13.8841 8.92692 13.8219 8.4158 13.6897Z" fill="#444444"/>
<path d="M16.7097 1.33653C15.8684 0.480277 14.7327 0 13.5492 0C12.3657 0 11.23 0.480277 10.3887 1.33653L7.65513 4.12541H8.02211C8.55334 4.12527 9.08223 4.19781 9.59486 4.34112L11.4372 2.46133C11.9979 1.89205 12.7539 1.57284 13.5417 1.57284C14.3295 1.57284 15.0856 1.89205 15.6462 2.46133C15.9195 2.74185 16.1364 3.07508 16.2843 3.44193C16.4323 3.80877 16.5084 4.20204 16.5084 4.59921C16.5084 4.99638 16.4323 5.38965 16.2843 5.75649C16.1364 6.12334 15.9195 6.45657 15.6462 6.73709L12.1337 10.3195C11.5731 10.8888 10.817 11.208 10.0292 11.208C9.24147 11.208 8.48539 10.8888 7.92475 10.3195C7.56795 9.95485 7.30981 9.50076 7.17582 9.00209C7.10085 9.05451 7.03066 9.11381 6.96612 9.17929L6 10.1654C6.21632 10.6286 6.50755 11.0506 6.86127 11.4135C7.70256 12.2697 8.83827 12.75 10.0218 12.75C11.2052 12.75 12.3409 12.2697 13.1822 11.4135L16.6947 7.83107C17.1084 7.40731 17.4367 6.90367 17.6607 6.34906C17.8847 5.79444 18 5.19978 18 4.59921C18 3.99864 17.8847 3.40398 17.6607 2.84937C17.4367 2.29475 17.1084 1.79111 16.6947 1.36735L16.7097 1.33653Z" fill="#444444"/>
</svg>
