<svg width="110" height="20" viewBox="0 0 110 20" fill="none" xmlns="http://www.w3.org/2000/svg">
<path d="M0.434 1.83806C0.700848 1.09957 1.51817 0.716387 2.25955 0.982192L2.26134 0.982834L2.26318 0.983493L2.26701 0.984881L2.27527 0.987917C2.28103 0.990051 2.28731 0.992427 2.2941 0.995012C2.29967 0.997146 2.30557 0.999436 2.31181 1.00188C2.3208 1.00542 2.3305 1.00931 2.34087 1.01354C2.376 1.02787 2.4189 1.04628 2.46883 1.06935C2.56868 1.11551 2.69664 1.18031 2.84654 1.26834C3.14676 1.44465 3.53336 1.71322 3.95692 2.10942C4.81002 2.90743 5.77983 4.19214 6.50738 6.20874C6.9544 7.44778 7.35085 8.52146 7.71064 9.49584L7.71081 9.4963L7.71089 9.49654C8.19528 10.8084 8.61322 11.9403 8.99866 13.0535L16.224 10.8043C16.9761 10.5702 17.7763 10.9877 18.0113 11.7369C18.2463 12.486 17.8272 13.2831 17.0751 13.5172L8.51501 16.1818C7.76819 16.4143 6.97275 16.0043 6.73199 15.2627C6.23819 13.7416 5.72079 12.3407 5.0586 10.5478L5.05822 10.5468L5.05795 10.5461L5.05731 10.5444L5.05713 10.5438C4.69528 9.56414 4.29021 8.46737 3.82214 7.16998C3.24226 5.56267 2.51788 4.66238 2.00365 4.18136C1.74355 3.93805 1.52819 3.79359 1.39737 3.71677C1.33176 3.67823 1.28693 3.65642 1.26787 3.64762L1.26157 3.64476C0.540947 3.36739 0.170975 2.56598 0.434 1.83806Z" fill="url(#paint0_linear_2048_2394)"/>
<path d="M20.2602 6.98204C20.4919 7.73221 20.0692 8.52744 19.3161 8.75824L10.97 11.316C10.2169 11.5468 9.41859 11.1257 9.18689 10.3755C8.9552 9.62537 9.37788 8.83014 10.131 8.59935L18.4771 6.04162C19.2302 5.81082 20.0285 6.23186 20.2602 6.98204Z" fill="url(#paint1_linear_2048_2394)"/>
<path d="M20.0213 4.35517C20.7758 4.12886 21.2032 3.33615 20.976 2.58461C20.7489 1.83307 19.9531 1.40729 19.1986 1.63361L9.92512 4.41532C9.17065 4.64163 8.74321 5.43433 8.97041 6.18588C9.1976 6.93742 9.9934 7.3632 10.7479 7.13688L20.0213 4.35517Z" fill="url(#paint2_linear_2048_2394)"/>
<path d="M11.0498 18.1651C11.0498 18.9303 10.4111 19.5507 9.62315 19.5507C8.83522 19.5507 8.19647 18.9303 8.19647 18.1651C8.19647 17.3998 8.83522 16.7795 9.62315 16.7795C10.4111 16.7795 11.0498 17.3998 11.0498 18.1651Z" fill="url(#paint3_linear_2048_2394)"/>
<path d="M15.6484 17.5675C16.4364 17.5675 17.0751 16.9471 17.0751 16.1818C17.0751 15.4166 16.4364 14.7962 15.6484 14.7962C14.8605 14.7962 14.2218 15.4166 14.2218 16.1818C14.2218 16.9471 14.8605 17.5675 15.6484 17.5675Z" fill="url(#paint4_linear_2048_2394)"/>
<path d="M27.1552 4.35187H37.1159V7.41541H33.746V16.4984H30.5334V7.41541H27.1552V4.35187Z" fill="#353434"/>
<path d="M40.2374 16.6806C38.9071 16.6806 37.8031 16.2252 36.9254 15.3144C36.0478 14.4036 35.6089 13.3024 35.6089 12.0107C35.6089 10.7246 36.0478 9.62613 36.9254 8.71535C37.8031 7.80457 38.9071 7.34917 40.2374 7.34917C41.5677 7.34917 42.6717 7.80457 43.5493 8.71535C44.427 9.62613 44.8658 10.7246 44.8658 12.0107C44.8658 13.3024 44.427 14.4036 43.5493 15.3144C42.6717 16.2252 41.5677 16.6806 40.2374 16.6806ZM40.2374 13.7495C40.6845 13.7495 41.0461 13.5811 41.322 13.2444C41.598 12.9022 41.736 12.491 41.736 12.0107C41.736 11.536 41.598 11.1303 41.322 10.7936C41.0461 10.4514 40.6845 10.2802 40.2374 10.2802C39.7903 10.2802 39.426 10.4486 39.1444 10.7853C38.8684 11.122 38.7305 11.5305 38.7305 12.0107C38.7305 12.491 38.8684 12.9022 39.1444 13.2444C39.426 13.5811 39.7903 13.7495 40.2374 13.7495Z" fill="#353434"/>
<path d="M49.2459 10.5286L51.4731 7.53961H55.1908L52.2846 11.5802L55.8201 16.4984H52.0279L49.2459 12.6897V16.4984H46.1161V3.35828H49.2459V10.5286Z" fill="#353434"/>
<path d="M59.7778 16.6806C58.4475 16.6806 57.3436 16.2252 56.4659 15.3144C55.5882 14.4036 55.1494 13.3024 55.1494 12.0107C55.1494 10.7246 55.5882 9.62613 56.4659 8.71535C57.3436 7.80457 58.4475 7.34917 59.7778 7.34917C61.1081 7.34917 62.2121 7.80457 63.0898 8.71535C63.9674 9.62613 64.4063 10.7246 64.4063 12.0107C64.4063 13.3024 63.9674 14.4036 63.0898 15.3144C62.2121 16.2252 61.1081 16.6806 59.7778 16.6806ZM59.7778 13.7495C60.225 13.7495 60.5865 13.5811 60.8625 13.2444C61.1385 12.9022 61.2765 12.491 61.2765 12.0107C61.2765 11.536 61.1385 11.1303 60.8625 10.7936C60.5865 10.4514 60.225 10.2802 59.7778 10.2802C59.3307 10.2802 58.9664 10.4486 58.6849 10.7853C58.4089 11.122 58.2709 11.5305 58.2709 12.0107C58.2709 12.491 58.4089 12.9022 58.6849 13.2444C58.9664 13.5811 59.3307 13.7495 59.7778 13.7495Z" fill="#353434"/>
<path d="M70.9722 16.6806C70.5472 16.6806 70.1083 16.5757 69.6557 16.3659C69.2031 16.1562 68.8443 15.825 68.5793 15.3724V16.4901H65.6317V3.35828H68.7532V8.54975C68.9961 8.12472 69.33 7.81837 69.7551 7.63069C70.1801 7.44301 70.5858 7.34917 70.9722 7.34917C72.0983 7.34917 73.0201 7.80457 73.7377 8.71535C74.4608 9.62613 74.8223 10.7274 74.8223 12.019C74.8223 13.3052 74.4608 14.4036 73.7377 15.3144C73.0201 16.2252 72.0983 16.6806 70.9722 16.6806ZM70.1442 13.7495C70.5913 13.7495 70.9612 13.5811 71.2537 13.2444C71.5518 12.9022 71.7008 12.4937 71.7008 12.019C71.7008 11.5388 71.5518 11.1303 71.2537 10.7936C70.9612 10.4514 70.5913 10.2802 70.1442 10.2802C69.6916 10.2802 69.3162 10.4514 69.0182 10.7936C68.7256 11.1303 68.5793 11.5388 68.5793 12.019C68.5793 12.4937 68.7256 12.9022 69.0182 13.2444C69.3162 13.5811 69.6916 13.7495 70.1442 13.7495Z" fill="#353434"/>
<path d="M77.6872 6.71163C77.2014 6.71163 76.7847 6.54051 76.4369 6.19827C76.0947 5.85052 75.9236 5.43101 75.9236 4.93974C75.9236 4.44846 76.0947 4.03171 76.4369 3.68948C76.7847 3.34172 77.2014 3.16785 77.6872 3.16785C78.1784 3.16785 78.5952 3.34172 78.9374 3.68948C79.2852 4.03171 79.4591 4.44846 79.4591 4.93974C79.4591 5.43101 79.2852 5.85052 78.9374 6.19827C78.5952 6.54051 78.1784 6.71163 77.6872 6.71163ZM79.2603 16.4984H76.1306V7.53961H79.2603V16.4984Z" fill="#353434"/>
<path d="M83.5576 16.6806C82.7075 16.6806 82.0313 16.5591 81.529 16.3163C81.0322 16.0679 80.5768 15.7063 80.1628 15.2316L81.7774 13.112C82.2135 13.5149 82.5612 13.8019 82.8207 13.9731C83.0856 14.1387 83.2899 14.2215 83.4334 14.2215C83.5769 14.2215 83.6928 14.1883 83.7811 14.1221C83.8695 14.0559 83.9136 13.962 83.9136 13.8406C83.9136 13.7412 83.8805 13.6584 83.8143 13.5922C83.748 13.5204 83.6514 13.4376 83.5245 13.3438L82.2163 12.3336C81.8409 12.0521 81.5345 11.7237 81.2972 11.3483C81.0654 10.973 80.9494 10.5038 80.9494 9.94077C80.9494 9.23974 81.2475 8.63255 81.8437 8.1192C82.4398 7.60585 83.2292 7.34917 84.2117 7.34917C85.4592 7.34917 86.439 7.72177 87.151 8.46695L85.6276 10.4293C85.1418 9.91593 84.7747 9.65925 84.5263 9.65925C84.3939 9.65925 84.2862 9.69513 84.2034 9.76689C84.1261 9.83313 84.0875 9.92421 84.0875 10.0401C84.0875 10.145 84.1261 10.2416 84.2034 10.3299C84.2807 10.4127 84.3718 10.4928 84.4767 10.57L85.5944 11.4311C86.0195 11.7403 86.3865 12.077 86.6957 12.4413C87.0048 12.8001 87.1593 13.2914 87.1593 13.9151C87.1593 14.6824 86.8254 15.3365 86.1575 15.8774C85.4951 16.4129 84.6285 16.6806 83.5576 16.6806Z" fill="#353434"/>
<path d="M91.3407 8.71535C91.6056 8.29032 91.9396 7.95912 92.3425 7.72177C92.7455 7.47889 93.2064 7.35745 93.7253 7.35745C94.6581 7.35745 95.4061 7.68865 95.9691 8.35104C96.5376 9.01343 96.8219 9.93801 96.8219 11.1248V16.4984H93.7004V11.3318C93.7004 11.0282 93.6176 10.777 93.452 10.5783C93.2864 10.3796 93.0463 10.2802 92.7317 10.2802C92.3342 10.2802 92.0334 10.3962 91.8292 10.628C91.6249 10.8598 91.5228 11.1745 91.5228 11.5719V16.4984H88.393V7.53961H91.3407V8.71535Z" fill="#353434"/>
<path d="M99.8772 6.71163C99.3914 6.71163 98.9747 6.54051 98.6269 6.19827C98.2847 5.85052 98.1136 5.43101 98.1136 4.93974C98.1136 4.44846 98.2847 4.03171 98.6269 3.68948C98.9747 3.34172 99.3914 3.16785 99.8772 3.16785C100.368 3.16785 100.785 3.34172 101.127 3.68948C101.475 4.03171 101.649 4.44846 101.649 4.93974C101.649 5.43101 101.475 5.85052 101.127 6.19827C100.785 6.54051 100.368 6.71163 99.8772 6.71163ZM101.45 16.4984H98.3206V7.53961H101.45V16.4984Z" fill="#353434"/>
<path d="M105.748 16.6806C104.898 16.6806 104.221 16.5591 103.719 16.3163C103.222 16.0679 102.767 15.7063 102.353 15.2316L103.967 13.112C104.404 13.5149 104.751 13.8019 105.011 13.9731C105.276 14.1387 105.48 14.2215 105.623 14.2215C105.767 14.2215 105.883 14.1883 105.971 14.1221C106.059 14.0559 106.104 13.962 106.104 13.8406C106.104 13.7412 106.071 13.6584 106.004 13.5922C105.938 13.5204 105.841 13.4376 105.714 13.3438L104.406 12.3336C104.031 12.0521 103.725 11.7237 103.487 11.3483C103.255 10.973 103.139 10.5038 103.139 9.94077C103.139 9.23974 103.438 8.63255 104.034 8.1192C104.63 7.60585 105.419 7.34917 106.402 7.34917C107.649 7.34917 108.629 7.72177 109.341 8.46695L107.818 10.4293C107.332 9.91593 106.965 9.65925 106.716 9.65925C106.584 9.65925 106.476 9.69513 106.393 9.76689C106.316 9.83313 106.278 9.92421 106.278 10.0401C106.278 10.145 106.316 10.2416 106.393 10.3299C106.471 10.4127 106.562 10.4928 106.667 10.57L107.784 11.4311C108.209 11.7403 108.577 12.077 108.886 12.4413C109.195 12.8001 109.349 13.2914 109.349 13.9151C109.349 14.6824 109.015 15.3365 108.347 15.8774C107.685 16.4129 106.818 16.6806 105.748 16.6806Z" fill="#353434"/>
<defs>
<linearGradient id="paint0_linear_2048_2394" x1="0.349304" y1="0.897827" x2="5.34673" y2="21.5052" gradientUnits="userSpaceOnUse">
<stop stop-color="#C2570F"/>
<stop offset="0.515625" stop-color="#FFB546"/>
<stop offset="1" stop-color="#DE611A"/>
</linearGradient>
<linearGradient id="paint1_linear_2048_2394" x1="0.349304" y1="0.897827" x2="5.34673" y2="21.5052" gradientUnits="userSpaceOnUse">
<stop stop-color="#C2570F"/>
<stop offset="0.515625" stop-color="#FFB546"/>
<stop offset="1" stop-color="#DE611A"/>
</linearGradient>
<linearGradient id="paint2_linear_2048_2394" x1="0.349304" y1="0.897827" x2="5.34673" y2="21.5052" gradientUnits="userSpaceOnUse">
<stop stop-color="#C2570F"/>
<stop offset="0.515625" stop-color="#FFB546"/>
<stop offset="1" stop-color="#DE611A"/>
</linearGradient>
<linearGradient id="paint3_linear_2048_2394" x1="0.349304" y1="0.897827" x2="5.34673" y2="21.5052" gradientUnits="userSpaceOnUse">
<stop stop-color="#C2570F"/>
<stop offset="0.515625" stop-color="#FFB546"/>
<stop offset="1" stop-color="#DE611A"/>
</linearGradient>
<linearGradient id="paint4_linear_2048_2394" x1="0.349304" y1="0.897827" x2="5.34673" y2="21.5052" gradientUnits="userSpaceOnUse">
<stop stop-color="#C2570F"/>
<stop offset="0.515625" stop-color="#FFB546"/>
<stop offset="1" stop-color="#DE611A"/>
</linearGradient>
</defs>
</svg>
