<svg width="39" height="38" fill="none" xmlns="http://www.w3.org/2000/svg"><path fill-rule="evenodd" clip-rule="evenodd" d="M5.5872 1.3842c-.3048.2926-.6685.7187-.808.9468-.2932.4794-.5142 1.3916-.4364 1.8018l.0517.273-.276-.0511c-.3825-.071-1.3162.1352-1.752.3871-.1981.1145-.6308.4709-.9616.792-.8278.8035-.8258.8945.0388 1.7344.3883.3771.8082.7025 1.067.827.51.2452 1.242.3916 1.6132.3227l.2686-.0498-.0507.2678c-.0708.3731.1396 1.3008.3922 1.7287.1156.1961.4757.6243.8002.9517.812.8192.9039.8172 1.7525-.0384.3861-.3894.7074-.7965.8335-1.0561.229-.4714.384-1.2749.3132-1.6248-.0457-.2261-.0424-.2286.2235-.1793.3722.069 1.1037-.077 1.6143-.3225.2589-.1245.6787-.4499 1.067-.827.846-.8218.8518-.9175.1025-1.682-.2958-.3016-.7263-.6615-.9567-.7995-.4853-.2907-1.4062-.509-1.8219-.4318-.2755.0511-.2769.05-.2298-.1832.0718-.3547-.0817-1.156-.312-1.6301-.1262-.2596-.4475-.6667-.8336-1.056-.8303-.8373-.927-.843-1.6995-.1014Zm10.4744-.3708c-1.4739.213-3.11 1.0081-4.3935 2.1356l-.3493.3068.4392.4374.4392.4376.4533-.3839c.824-.6977 1.5759-1.1293 2.5235-1.4483.9499-.3198 1.4668-.356 4.6425-.3253l2.9878.029.6596.2172c1.3718.4515 2.3854 1.0836 3.2916 2.0522 2.1327 2.2797 3.1856 5.939 3.7317 12.9696.0639.8237.1163 1.5754.1163 1.6704 0 .1649.0287.1728.6209.1728.5921 0 .6208-.0079.6208-.1728 0-.095-.0524-.8467-.1164-1.6704-.6017-7.7418-1.7966-11.5975-4.3753-14.1181-1.2435-1.2154-2.995-2.0934-4.613-2.3123-.7158-.097-6.0047-.0949-6.6789.0025ZM6.6775 2.6376c.3864.403.518.73.5178 1.2864-.0003.5657-.17.9684-.5644 1.3392l-.24.2256-.2399-.2256c-.3943-.3708-.564-.7735-.5643-1.3392-.0002-.3296.047-.5905.1391-.768.1372-.2648.5731-.768.6652-.768.0259 0 .1549.1122.2865.2496Zm-1.955 3.1217c.1707.0782.413.2503.5383.3823l.228.2401-.228.24c-.3413.3597-.767.5247-1.3532.5247-.5862 0-1.0118-.165-1.3532-.5246l-.2279-.2401.228-.24c.3413-.3597.767-.5247 1.3531-.5247.3275 0 .6133.0499.8149.1423Zm4.9666 0c.1708.0782.4131.2503.5384.3823l.2279.2401-.2279.24c-.3413.3597-.767.5247-1.3532.5247-.5862 0-1.0119-.165-1.3532-.5246l-.2279-.2401.228-.24c.3412-.3597.7669-.5247 1.3531-.5247.3275 0 .6133.0499.8148.1423ZM6.6776 7.5529c.3864.403.518.73.5178 1.2865-.0003.5657-.17.9684-.5644 1.3392l-.24.2256-.2399-.2256c-.3943-.3708-.564-.7735-.5643-1.3392-.0002-.3296.047-.5906.1391-.768.1372-.2648.5731-.768.6652-.768.0259 0 .1549.1123.2865.2495Zm13.4205.5544c-.449.1585-.8133.486-1.3128 1.1805-.2471.3436-.6999.8383-1.0063 1.0993-1.484 1.264-4.1196 2.6697-7.1197 3.7974-.8803.3308-1.164.5266-1.164.8032 0 .2128 1.1077 4.2044 1.4639 5.2756.4147 1.2464.9335 2.4502 1.4181 3.29.4174.7233 1.0359 1.5928 1.3038 1.8327.1567.1404.16.2089.16 3.3534 0 2.0307-.0313 3.3596-.0851 3.617-.3017 1.4421-1.5599 2.729-2.9803 3.0483-.3439.0774-3.6412.3129-4.4068.3148-.2618.0007-.2854-.0146-.2168-.1413.1947-.3603.4286-1.4673.781-3.698.6827-4.3212.9027-6.3265 1.2043-10.9828.2448-3.7779.3943-5.5615.5862-6.989.0824-.6125.15-1.153.1503-1.2012.0005-.0857-.1494-.1246-.8588-.2225l-.3549-.049-.1685 1.3316c-.2173 1.7164-.2948 2.5507-.4378 4.7108-.0643.9716-.1707 2.5787-.2366 3.5713-.2202 3.3234-.5345 6.0304-1.1635 10.0228-.4814 3.0548-.7146 3.6562-1.464 3.7765-.4294.069-1.2184-.3388-1.5622-.8073-.2963-.4039-.5824-1.1858-.5824-1.5918 0-.5696.652-.8544 1.0512-.4593.1564.1548.1905.2646.1905.6145v.4258h1.2417v-.4327c0-.6666-.1396-1.0162-.5794-1.4515-.5485-.5428-1.1286-.6928-1.8562-.4801-.4263.1247-1.0691.7609-1.195 1.1828-.3782 1.2666.5243 3.1664 1.832 3.8562.7937.4187.861.4218 4.5216.2051 3.6803-.218 4.0899-.2814 5.0607-.7836.7194-.3722 1.7086-1.327 2.0922-2.0194.1521-.2745.3568-.7411.455-1.0368.1712-.5158.1796-.6563.2058-3.4612l.0273-2.9235.8101.4019c1.2193.6049 1.9333.7551 3.5647.7499 1.101-.0035 1.4219-.0317 1.9401-.1705.6312-.1691 1.7364-.6525 2.1365-.9345l.2206-.1554.0272 2.9778c.0263 2.8621.0342 2.9988.2058 3.5155.2893.871.6739 1.4795 1.3601 2.1516.7228.708 1.4265 1.1127 2.3337 1.3424.8171.2068 7.0562.5835 7.6143.4598.8633-.1915 1.9111-.9563 2.3141-1.689.4134-.7516.5527-1.772.3395-2.4863-.126-.4219-.7689-1.0581-1.1951-1.1828-.7277-.2127-1.3077-.0627-1.8562.4801-.4398.4353-.5794.7849-.5794 1.4515v.4327h1.2417v-.4258c0-.3499.0341-.4597.1905-.6145.2561-.2535.6086-.2495.8705.0097.1866.1847.1978.236.1645.7489-.0603.9306-.4357 1.4588-1.3551 1.9068-1.1412.556-1.6475-.0235-2.0363-2.3311-.0892-.5294-.1622-1.0345-.1622-1.1222 0-.0878-.0271-.1762-.0602-.1964-.0724-.0443-1.0848.1369-1.1554.2067-.0883.0873.2939 2.2481.5106 2.8873l.2103.6203-.2765-.0008c-.7532-.002-4.05-.2384-4.3895-.3148-1.0026-.2253-2.0903-1.0541-2.5821-1.9674-.4552-.8452-.4809-1.0964-.4821-4.7206l-.0012-3.2786.4359-.5999c.6032-.8301 1.4227-2.5299 1.8815-3.9024.2117-.6336.6501-2.1092.9741-3.2789.3241-1.1698.624-2.2176.6666-2.3283.1497-.3899.0841-.5498-.5717-1.3926-2.3222-2.9843-4.7688-5.1607-6.4692-5.7546-.6032-.2107-1.3613-.2413-1.8352-.0741Zm1.8567 1.406c.8147.407 1.744 1.15 2.9861 2.3877 1.3523 1.3474 2.8261 3.1072 2.7665 3.3035-.0208.0686-.3221 1.1443-.6696 2.3904-.7614 2.7302-1.1334 3.8353-1.669 4.9579-.546 1.1444-1.0666 1.885-1.814 2.5809-.6923.6446-1.5372 1.1086-2.4189 1.3285-.7917.1975-2.0821.2357-2.9409.0872-2.81-.4859-4.6451-2.4563-5.9789-6.42-.4746-1.4102-1.345-4.6189-1.2712-4.686.035-.0319.57-.2657 1.1889-.5198 3.887-1.5957 6.4562-3.2424 7.6569-4.9076.5234-.7259.6675-.8164 1.2298-.7727.3089.024.6247.1153.9343.27Zm10.3284 10.3035c-.3048.2927-.6685.7188-.8079.9468-.2933.4794-.5143 1.3917-.4365 1.8018l.0517.2731-.2759-.0512c-.3826-.0711-1.3163.1352-1.7521.3871-.1981.1145-.6309.4709-.9616.792-.8278.8035-.8258.8945.0388 1.7344.3883.3772.8082.7026 1.067.827.5101.2452 1.242.3916 1.6132.3227l.2686-.0498-.0508.2679c-.0707.3731.1397 1.3008.3923 1.7286.1156.1961.4757.6244.8002.9517.8119.8192.9039.8173 1.7525-.0384.3861-.3894.7074-.7964.8335-1.056.229-.4715.3839-1.275.3132-1.6249-.0457-.2261-.0424-.2286.2235-.1793.3722.0691 1.1036-.077 1.6143-.3225.2589-.1244.6787-.4498 1.067-.827.846-.8217.8518-.9174.1025-1.6819-.2958-.3017-.7263-.6616-.9567-.7996-.4853-.2907-1.4062-.509-1.8219-.4318-.2755.0512-.2769.0501-.2298-.1832.0718-.3546-.0817-1.1559-.3121-1.6301-.1261-.2596-.4474-.6666-.8335-1.056-.8303-.8373-.927-.843-1.6995-.1014Zm1.0903 1.2534c.3864.403.518.73.5178 1.2864-.0004.5658-.1701.9685-.5644 1.3393l-.2399.2255-.24-.2255c-.3943-.3708-.564-.7735-.5643-1.3393-.0002-.3296.0471-.5905.1391-.768.1372-.2647.5731-.768.6652-.768.0259 0 .1549.1123.2865.2496Zm-1.955 3.1217c.1707.0782.413.2503.5383.3823l.2279.2401-.2279.2401c-.3413.3596-.767.5246-1.3532.5246-.5862 0-1.0119-.165-1.3532-.5246l-.2279-.2401.2279-.2401c.3413-.3595.767-.5245 1.3532-.5245.3275 0 .6133.0498.8149.1422Zm4.9666 0c.1708.0782.4131.2503.5384.3823l.2279.2401-.2279.2401c-.3413.3596-.767.5246-1.3532.5246-.5862 0-1.0119-.165-1.3532-.5246l-.2279-.2401.2279-.2401c.3413-.3595.767-.5245 1.3532-.5245.3275 0 .6133.0498.8148.1422Zm-3.0116 1.7937c.3864.403.518.73.5178 1.2864-.0004.5657-.1701.9684-.5644 1.3392l-.2399.2256-.24-.2256c-.3943-.3708-.564-.7735-.5643-1.3392-.0002-.3296.0471-.5905.1391-.768.1372-.2648.5731-.768.6652-.768.0259 0 .1549.1122.2865.2496Z" fill="url(#a)"/><defs><linearGradient id="a" x1=".7896" y1=".8421" x2="43.5486" y2="8.0018" gradientUnits="userSpaceOnUse"><stop stop-color="#8DC53F"/><stop offset="1" stop-color="#A1E146"/></linearGradient></defs></svg>