<svg width="37" height="38" fill="none" xmlns="http://www.w3.org/2000/svg"><path fill-rule="evenodd" clip-rule="evenodd" d="M1.334.0537C.8335.2217.4102.5895.157 1.0765c-.1236.2379-.133.525-.1525 4.6705-.014 2.9604.0047 4.5723.0566 4.8877.045.2737.209.7491.3917 1.1358.3587.7592.9343 1.4085 1.6203 1.8277.474.2897 1.4082.5847 1.8512.5847h.3095l.0186 10.5539.0186 10.5539.243.4586c.4447.8393 1.1606 1.2763 2.0936 1.2781.4989.001.6243-.0275 1.0361-.2349.5454-.2747.9196-.6673 1.1819-1.2397l.1864-.407.0354-3.7817.0354-3.7818.5066.7768c.7865 1.2058 1.6537 2.2658 2.8886 3.5309 1.6069 1.6459 3.2544 3.0243 5.2285 4.374 1.548 1.0584 1.6638 1.0571 3.2716-.0385 3.319-2.2618 6.2282-5.1 8.0418-7.8454l.5484-.8302v3.6636c0 3.473.0074 3.6883.1432 4.1379.1818.6022.6775 1.1829 1.2586 1.4744.3443.1727.4898.202 1.0041.2024.5157.0003.6589-.0286 1.0041-.202.5184-.2604 1.0614-.8634 1.2553-1.3937.1441-.3942.1465-.505.1465-6.8292v-6.4286l.39-.1654c.4993-.2118.9836-.6945 1.2247-1.2211l.1897-.4142.0211-7.2773c.0146-5.0137-.003-7.4513-.0567-7.8367-.3212-2.31-1.898-4.2364-4.0685-4.9709-.7514-.2542-1.2137-.3332-1.5606-.2666-.3339.064-.788.4906-.879.8258-.0464.1712-.0718 3.0182-.0721 8.075l-.0004 7.8108-.2929-.2709c-.4516-.4173-1.3135-.9564-1.9025-1.1897-1.2595-.499-2.9352-.5761-4.1927-.1931-1.1533.3512-2.509 1.1704-3.3791 2.0416-.2151.2155-.4168.3918-.4481.3918-.0313 0-.3329-.2399-.6702-.5332-1.8437-1.6029-3.4046-2.2206-5.372-2.1258-1.5069.0725-2.7122.5468-3.848 1.514l-.4154.3537v-2.5396l.2654-.0011c.8386-.0033 1.8579-.461 2.5896-1.1629.5732-.5497.8915-1.0464 1.1641-1.8168l.1879-.5312.0233-4.475c.026-4.9996.0286-4.9686-.4496-5.5402-.8144-.9738-2.2786-.8428-2.9123.2603l-.1961.3415-.0354 2.8726-.0354 2.8727-.1715.1867c-.2088.2272-.5523.2482-.7936.0484l-.167-.1383L8.48 4.251l-.0365-2.8487-.191-.3728C7.614-.2171 6.0175-.3535 5.1822.7672c-.1265.1696-.26.4655-.3032.6718-.0478.2279-.0773 1.3644-.0773 2.9753v2.6065l-.1737.1777c-.2383.2439-.5936.24-.8223-.009l-.1715-.1867L3.5987 4.13c-.0315-2.557-.049-2.898-.1594-3.1045C3.2728.7138 2.8667.319 2.559.1695 2.271.0297 1.596-.0342 1.334.0537Zm.841 1.3524.2147.1849.0208 2.8383c.02 2.7523.0254 2.8471.1739 3.128.1998.3777.6285.7969.959.9378.3116.1328.8853.1455 1.2684.028.3882-.1189.83-.5336 1.0249-.9618.1656-.3638.1666-.3829.1675-3.0815.001-2.571.0084-2.7278.14-2.9488.0766-.1284.223-.255.3257-.2813.2504-.0643.6525.1366.7.3497.0202.0908.0449 1.387.055 2.8804.02 3.0158.014 2.9728.5086 3.5332.358.4055.7827.5946 1.3308.5926.5372-.002.9082-.1627 1.2711-.551.5172-.5533.5139-.5308.5379-3.6558.0205-2.6678.0279-2.8035.1612-2.9499.2968-.326.7695-.259.9652.1366.1377.2786.1255 8.2527-.0136 8.9247-.1984.9578-.8129 1.7377-1.7064 2.1656-.4073.195-.5716.2294-1.2805.268-.779.0424-.8204.0528-.984.2475l-.1707.2032v5.0743l-.2436.7354c-.4926 1.4869-.4704 3.1125.069 5.08l.1787.6517-.0197 5.0017-.0198 5.0017-.1993.3081c-.215.3323-.6415.582-.999.5848-.3272.0025-.795-.2685-.975-.5648l-.1618-.2664-.0354-10.8415-.0354-10.8416-.158-.1617c-.1376-.1407-.2613-.168-.9553-.2108-.4385-.027-.929-.0991-1.09-.1601-.9654-.3656-1.7137-1.2511-1.9274-2.2808-.0538-.2594-.0796-1.7575-.0796-4.6218v-4.238l.2068-.2117c.2558-.2617.493-.27.7753-.0269Zm29.6653.1055c1.3942.5152 2.4456 1.6382 2.9485 3.1492l.1928.5793.0199 7.3765c.0199 7.369.0198 7.3767-.1288 7.6909-.1778.3757-.4806.5835-.9958.6835-.2091.0407-.4441.1392-.5223.2191-.1397.1431-.1426.2579-.1774 6.9714-.0395 7.6202.007 6.9843-.5417 7.4121-.2173.1695-.3296.2035-.6645.2016-.3321-.002-.4497-.0388-.6676-.2089-.1455-.1135-.324-.3405-.3968-.5045-.125-.2817-.1323-.5691-.1329-5.2582l-.0006-4.9601.1686-.5431c.4334-1.3949.5503-3.3308.2714-4.4895-.0815-.3385-.2143-.773-.295-.9654-.1458-.3477-.1468-.4064-.1468-9.0003V1.2147l.2653.049c.146.027.5076.1386.8037.248ZM14.8916 16.2115c1.1872.3097 2.2047.9421 3.3972 2.1118 1.0474 1.0273.9959 1.0265 2.0005.0355 1.1094-1.0943 2.0816-1.7292 3.196-2.0873.4549-.1462.6707-.1694 1.5543-.167.9338.0025 1.0769.0207 1.5921.2033 2.0115.7127 3.3194 2.4094 3.535 4.5859.0966.9744-.2064 2.7777-.6651 3.9593-.8738 2.2509-2.3269 4.3358-4.5593 6.5417-1.4488 1.4314-3.4568 3.0554-5.0275 4.0658l-.6016.387-.4368-.2715c-.2401-.1493-.8384-.5655-1.3294-.9249-5.1504-3.7699-8.3001-7.8983-8.959-11.7427-.148-.8634-.1511-2.1777-.0068-2.8109.4434-1.9443 1.9872-3.4991 3.8982-3.9256.6667-.1488 1.7583-.1309 2.4122.0396Zm1.6602 6.1362c-.0922.0765-.3751.6899-.7095 1.5388l-.556 1.4115-1.1445.0362-1.1444.0362-.1706.2032c-.2282.2718-.2166.5211.0363.7799l.2068.2116 1.3677-.001c.9572-.0008 1.4206-.0285 1.5445-.0924.1328-.0685.2588-.2972.5058-.9183l.3289-.8273.1467.5032c1.0106 3.467 1.2198 4.1274 1.3488 4.2594.1881.1926.5977.1954.7816.0055.0751-.0777.5533-1.101 1.0624-2.2739.5091-1.173.9351-2.1424.9467-2.1541.0114-.0118.3022.6511.6461 1.473.633 1.5126.8057 1.8132 1.0615 1.8469.3797.0501.5211-.0726 1.0976-.9533l.568-.8677h2.2725l.2069-.2116c.2834-.29.2545-.6715-.0701-.9265-.138-.1085-2.8499-.1294-3.0433-.0235-.0696.0381-.2623.2825-.4282.5431-.1659.2606-.3246.4737-.3526.4737-.0281 0-.365-.752-.7486-1.6712-.4141-.9923-.7557-1.713-.8409-1.7741-.1774-.1271-.5394-.1334-.7015-.0121-.0668.05-.5318 1.0322-1.0334 2.1827l-.9122 2.0919-.2131-.7164a1154.511 1154.511 0 0 1-.5764-1.9473c-.6248-2.1166-.629-2.1276-.853-2.2461-.2663-.1409-.443-.1354-.6305.02Z" fill="url(#a)"/><defs><linearGradient id="a" x1="0" y1="0" x2="41.0017" y2="6.4112" gradientUnits="userSpaceOnUse"><stop stop-color="#8DC53F"/><stop offset="1" stop-color="#A1E146"/></linearGradient></defs></svg>