<svg width="43" height="42" fill="none" xmlns="http://www.w3.org/2000/svg"><path fill-rule="evenodd" clip-rule="evenodd" d="M14.4151.1663c-3.7463.3571-6.81 1.7682-9.345 4.3042C2.86 6.6815 1.5127 9.2908.9059 12.5354c-.1179.6304-.137 1.8141-.1629 10.0519-.0332 10.5461-.0743 9.8248.599 10.4984.6263.6265.4594.6109 6.5661.6152l5.3693.0038-.4064.2119c-.9649.5033-2.4358 1.0439-3.7383 1.3742-.447.1132-.9632.2935-1.147.4006-.9998.5822-1.4456 1.8082-1.064 2.9264.2826.8279 1.4366 1.925 2.6173 2.4884 1.3102.6253.8858.5923 7.9802.6203 7.0176.0276 6.8802.036 7.9676-.4851.7867-.3769 1.6257-1.2407 2.3133-2.3817.7346-1.2189 1.4187-2.6158 1.9709-4.0244.8019-2.0459 1.1759-2.8996 1.7008-3.8823.7889-1.4773 1.6033-2.8874 1.7842-3.0892.2343-.2615.6425-.2467.861.0313.1674.2128.1685.2577.1685 7.0325v6.8183h3.959l.0471-3.8415c.0579-4.7131.1769-5.9695.8256-8.7195.4333-1.8366.9592-3.3053 2.1836-6.0976.6147-1.402.8235-2.1349.9563-3.3574.2288-2.107-.1246-4.1025-1.0446-5.898-.6863-1.3393-1.4322-2.1261-2.4463-2.5808-.4689-.2102-1.3135-.3963-1.8073-.3982l-.3742-.0014-3.161 5.2643-3.161 5.2642-.0473-4.1463c-.0503-4.4282-.0678-4.6417-.5126-6.2602C28.174 5.4113 23.5414 1.2678 17.7877.3167 17.0909.2015 15.0165.109 14.4151.1663Zm3.7383 1.5752c2.6447.5705 4.9308 1.8037 6.7876 3.6613 2.4024 2.4032 3.6655 5.2386 3.9409 8.8465l.0515.674-.6764-.0236-.6763-.0238-.0181-.4065c-.0558-1.2613-.4079-2.8981-.8702-4.0453-.3857-.9571-.5514-1.2717-1.1449-2.1742-1.6747-2.5463-4.2514-4.3605-7.2201-5.0835-4.6823-1.1402-9.576.621-12.4816 4.4925-1.4025 1.8687-2.1553 3.8426-2.3725 6.2211l-.0946 1.0366H2.0788l.0494-.9553c.1647-3.1864 1.5862-6.2735 3.967-8.615 2.0435-2.0095 4.2631-3.1498 7.1821-3.6898 1.151-.213 3.7012-.1685 4.8761.085Zm-.4469 2.6443c4.0701.9122 7.2706 4.0342 8.2013 8.0001.1399.5958.3193 1.9171.3298 2.4291.0017.0808-2.1964.1016-10.7254.1016H4.7847v-.5488c.0004-1.4319.5443-3.2996 1.3918-4.7785 1.61-2.8095 4.2404-4.662 7.5071-5.2868.7863-.1504 3.2033-.1003 4.0229.0833Zm20.6017 8.1736c.7582.3633 1.2012.8623 1.7676 1.9913.2728.5437.6378 1.5946.7343 2.1139.0404.2174-.0385.3411-.7252 1.1382-1.8773 2.1792-3.9944 5.0343-5.4391 7.3354-.6249.9952-.7552 1.1568-.9348 1.1585-.4382.0042-1.0343.2487-1.3463.5521-.3219.3128-1.5114 2.3357-2.341 3.9807-.2531.5022-.7738 1.6912-1.1568 2.6423-.383.9512-.751 1.8631-.8178 2.0266-.1013.2482-.244.3651-.8638.7077-2.2141 1.224-4.5178 1.9233-6.9916 2.1222-.5764.0464-2.4689.0843-4.2057.0843h-3.1577v1.3008l3.6368-.0025c3.9418-.0028 4.7626-.0591 6.4717-.4436 1.0217-.2299 2.2448-.6281 3.1661-1.0307.3057-.1336.5711-.2278.5895-.2092.0473.0473-.5897 1.0287-.8491 1.3079-.3341.3599-.8647.6978-1.3669.8708-.4382.1508-.7343.1577-6.7269.1577-6.7826 0-6.7285.0032-7.5849-.4429l-.3839-.2.833-.0037.833-.0038v-1.3008H8.3053l-.0943-.2071c-.195-.4281-.0348-1.0355.3373-1.2794.1155-.0757.4954-.2139.8442-.307 2.9094-.7769 5.2027-1.8746 7.4562-3.5691l.7644-.5747.6104.1993c1.6893.5517 3.6885.3828 5.2287-.4418.8778-.4698 1.3835-.8759 2.2445-1.8022 1.0621-1.1427 1.8841-2.1829 2.7228-3.4456.3879-.5839 2.5521-4.1426 4.8094-7.9082l4.1041-6.8465.2438.0478c.1341.0262.4632.1528.7314.2813Zm-9.3866 6.0869v2.4288l-4.5912 1.1484c-2.5251.6316-4.6462 1.1484-4.7136 1.1484-.1048 0-.1224-.2229-.1224-1.5447v-1.5447h-8.0457v3.1509l-4.3682-1.0915c-2.4025-.6003-4.5053-1.1278-4.673-1.1721l-.3047-.0806v-4.8718h26.8188v2.4289Zm11.9468 1.4329c-.156.9198-.3959 1.6258-1.027 3.0218-1.484 3.2833-2.2245 5.8676-2.6863 9.3766-.0858.6516-.1355 1.9881-.1639 4.4106l-.0409 3.4756h-1.3646V27.7786l-.2342-.4455-.2343-.4454.759-1.1891c1.2477-1.9544 2.7011-3.9559 4.2152-5.8044l.8174-.9978.0281.3068c.0154.1688-.0154.563-.0685.876Zm-22.6743 2.1951v.6911h-5.3638V21.5833h5.3638v.691ZM6.9789 23.6961l4.4292 1.1082.0445 1.0114c.0357.8106.0785 1.0763.2154 1.3377.2157.4122.5409.7389.9581.9625.3085.1653.453.1761 2.6666.1997 2.6128.0278 2.9371-.0166 3.4929-.4772.5398-.4474.66-.7841.7076-1.982l.0418-1.0521 4.6324-1.1609c2.5478-.6386 4.6597-1.1621 4.6933-1.1635.0335-.0013.0609.2577.0609.5754 0 .5685-.0088.5923-.5444 1.4837-1.3265 2.2074-2.1091 3.2747-3.6339 4.9557-1.4322 1.5787-2.8868 2.2393-4.7207 2.1435-.8358-.0437-1.5265-.2235-2.2273-.5797l-.3598-.183-.9207.7216-.9207.7216-6.5586-.0027-6.5585-.0029-.1871-.1758-.1871-.1759v-9.4869l.2235.0567c.1229.0312 2.2166.5554 4.6526 1.1649Zm11.2152 1.5811c0 1.04-.0667 1.3777-.3079 1.5611-.1063.0807-.6756.1063-2.4094.1082-2.8703.0033-2.6465.1315-2.6465-1.5156v-1.1647h5.3638v1.011Z" fill="url(#a)"/><defs><linearGradient id="a" x1=".7275" y1=".1489" x2="47.7757" y2="7.6766" gradientUnits="userSpaceOnUse"><stop stop-color="#8DC53F"/><stop offset="1" stop-color="#A1E146"/></linearGradient></defs></svg>