<?xml version="1.0" encoding="utf-8"?>
<!-- Generator: Adobe Illustrator 26.1.0, SVG Export Plug-In . SVG Version: 6.00 Build 0)  -->
<svg version="1.1" id="Layer_1" xmlns="http://www.w3.org/2000/svg" xmlns:xlink="http://www.w3.org/1999/xlink" x="0px" y="0px"
	 viewBox="0 0 40 41" style="enable-background:new 0 0 40 41;" xml:space="preserve">
<style type="text/css">
	.st0{fill-rule:evenodd;clip-rule:evenodd;fill:url(#SVGID_1_);}
</style>
<linearGradient id="SVGID_1_" gradientUnits="userSpaceOnUse" x1="-2.1603" y1="23.6016" x2="42.3672" y2="16.4773" gradientTransform="matrix(1 0 0 -1 0 42)">
	<stop  offset="0" style="stop-color:#8DC53F"/>
	<stop  offset="1" style="stop-color:#A1E146"/>
</linearGradient>
<path class="st0" d="M22,1c-0.1,0-0.7,0.6-1.4,1.3c-1.2,1.2-1.4,1.4-3.9,4.9c-1.4,2-2.7,3.8-2.8,4c-0.2,0.4-0.4,1.2-0.6,2.2
	l-0.1,0.7l-1.4,1.4c-1.3,1.3-1.4,1.5-1.7,2.1c-0.7,1.5-0.6,3.1,0.5,4.3l0.3,0.4l-0.9,0c-0.7,0-0.9,0.1-1.3,0.2
	c-0.8,0.4-1.1,1-1.2,2.1l0,0.8l-0.6,0c-0.3,0-1.7-0.1-3.1-0.1c-2.3-0.1-2.5-0.1-2.8,0c-0.4,0.2-0.5,0.5-0.4,0.8
	c0,0.2,0.2,0.4,0.3,0.4c0.2,0.1,0.7,0.2,8.8,0.6c4.7,0.2,9,0.5,9.5,0.5c1,0,1.8-0.2,2.5-0.7c0.5-0.4,0.7-0.6,3-3.2
	c1.4-1.6,1.6-1.9,2-2.1l0.5-0.2l5.6,0l5.6,0l-0.1,0.3c-0.1,0.7-0.7,1.5-1.4,1.8c-0.3,0.2-0.5,0.2-2.8,0.2c-2.5,0-2.5,0-2.9,0.2
	c-0.6,0.3-0.9,0.6-1.4,1.3c-0.5,0.8-1.2,1.5-1.8,1.9c-0.6,0.4-1,0.5-1.8,0.6c-0.6,0.1-0.7,0.1-0.9,0.5c-0.2,0.3-0.1,0.6,0.2,0.9
	c0.2,0.2,0.3,0.2,0.8,0.2c1.1-0.1,2.2-0.6,3.2-1.4l0.4-0.4l0.2,0.3l0.2,0.3l-0.2,0.3c-0.4,0.5-0.5,0.9-0.5,1.5
	c0,0.6,0.2,1.2,0.5,1.6l0.2,0.2l-0.2,0.2c-0.6,0.8-0.6,2.2,0,3.1l0.2,0.3l-0.2,0.2c-0.1,0.1-0.2,0.4-0.4,0.6
	c-0.2,0.4-0.2,0.5-0.2,1.1c0,0.4,0.1,0.7,0.1,0.8c0.1,0.1,0,0.1-1.5,0.1c-0.9,0-1.8,0-2.1-0.1c-0.3-0.1-1-0.4-2.4-1
	c-2-1-2.6-1.2-3.4-1.2c-0.5,0-5.1,0.7-5.5,0.9c-0.3,0.1-0.5,0.5-0.4,0.8c0.1,0.2,0.3,0.5,0.5,0.6c0.1,0,1.3-0.1,2.6-0.3
	c1.3-0.2,2.6-0.4,2.7-0.4c0.5,0,0.9,0.1,2.8,1c1,0.5,2,0.9,2.3,1c0.4,0.1,0.8,0.1,5.1,0.1h4.6l0.5-0.3c0.9-0.5,1.4-1.3,1.4-2.3
	c0-0.3,0-0.6-0.1-0.8L37,35.9l0.4-0.2c1.2-0.6,1.8-2,1.3-3.3l-0.1-0.3l0.3-0.2c0.7-0.5,1.3-1.5,1.2-2.4c-0.1-0.8-0.5-1.5-1.2-1.9
	l-0.3-0.2l0.1-0.4c0.2-0.7,0.1-1.6-0.3-2.2c-0.1-0.2-0.1-0.2,0.4-0.7c0.6-0.6,1-1.2,1.1-2c0.2-0.9,0.1-1.4-0.3-1.8
	c-0.4-0.5-0.1-0.4-6.5-0.4c-6.4,0-6.2,0-7.1,0.4c-0.6,0.3-1,0.7-2.9,3c-1.9,2.2-2.2,2.5-2.9,2.7c-0.4,0.1-1.5,0.1-2.5,0.1L17,26
	l0-1.6c0-1.5,0-1.7-0.2-2.2c-0.3-0.8-0.5-1.2-1-1.8l-0.4-0.5l0.9-0.9l0.9-0.9l1.2-0.2c0.9-0.2,1.3-0.3,1.7-0.5
	c0.3-0.2,2.1-1.4,4.1-2.9c3.4-2.5,3.6-2.6,4.9-3.9c1.3-1.3,1.3-1.3,1.3-1.7V8.6l-3.7-3.7c-2.1-2.1-3.8-3.8-4-3.8
	C22.4,0.9,22.3,0.9,22,1z M25.4,5.9L28.5,9l-0.6,0.6l-0.6,0.6L24.3,7l-3.1-3.1l0.5-0.5c0.3-0.3,0.6-0.5,0.6-0.5
	C22.3,2.9,23.7,4.2,25.4,5.9z M23.2,8.1c1.6,1.6,2.9,3,2.9,3c-0.4,0.4-6.5,4.7-6.7,4.8c-0.2,0.1-0.7,0.3-1.4,0.4l-1,0.2l-1.1-1.1
	l-1.1-1.1l0.2-0.9c0.1-0.5,0.2-1.1,0.3-1.3c0.1-0.3,4.9-7,5-7C20.3,5.2,21.6,6.5,23.2,8.1z M14.8,16.6l0.8,0.8L15,18.1
	c-0.4,0.4-0.7,0.7-0.8,0.7c0,0-0.4-0.4-0.9-0.8l-0.8-0.8l0.7-0.7c0.4-0.4,0.7-0.7,0.8-0.7C14,15.7,14.4,16.1,14.8,16.6z M13.2,20
	c0.9,0.9,1.7,1.8,1.9,2c0.3,0.6,0.4,1.1,0.4,2.6V26l-0.7,0c-1-0.1-4.9-0.3-5.3-0.3l-0.4,0V25c0-0.6,0-0.7,0.2-0.8
	C9.5,24,9.5,24,10.6,24c1,0,1.1,0,1.4-0.2c0.4-0.2,0.7-0.7,0.7-1.2c0-0.5-0.1-0.7-0.7-1.3c-0.6-0.6-0.8-1.1-0.9-1.7
	c0-0.4,0.1-1.3,0.3-1.3C11.5,18.3,12.3,19.1,13.2,20z M36.6,25.3c0.8,0.3,0.8,1.5,0,1.8c-0.4,0.2-4.4,0.2-4.8,0
	c-0.8-0.3-0.8-1.5,0-1.8c0.3-0.1,0.5-0.1,2.4-0.1C36,25.2,36.4,25.2,36.6,25.3z M37.9,29c0.3,0.2,0.5,0.6,0.5,0.8
	c0,0.3-0.2,0.7-0.5,0.9c-0.2,0.1-0.4,0.2-3.1,0.2c-2.5,0-2.9,0-3.1-0.1c-0.3-0.2-0.5-0.5-0.5-0.9c0-0.4,0.2-0.6,0.5-0.8
	c0.2-0.1,0.4-0.2,3.1-0.2C37.4,28.8,37.7,28.8,37.9,29z M36.5,32.4c0.4,0.1,0.8,0.5,0.8,0.8c0.1,0.3-0.1,0.7-0.4,1l-0.2,0.2l-2.4,0
	c-2.2,0-2.4,0-2.6-0.1c-0.3-0.2-0.5-0.5-0.5-0.8c0-0.5,0.2-0.9,0.8-1C32.3,32.4,36.1,32.3,36.5,32.4z M35.1,36.1
	c0.5,0.2,0.7,1,0.4,1.5c-0.3,0.4-0.6,0.5-2.2,0.5c-1.2,0-1.4,0-1.6-0.2c-0.3-0.2-0.5-0.5-0.5-0.9c0-0.4,0.2-0.6,0.5-0.8
	C32,36,32.2,36,33.4,36C34.5,36,34.9,36,35.1,36.1z M11.6,37.4c-0.5,0.5-0.1,1.4,0.7,1.3c0.2,0,0.5-0.4,0.6-0.6
	C13,37.3,12.1,36.8,11.6,37.4z M4.8,38.3c-1.9,0.3-3.6,0.6-3.7,0.6c-0.2,0.1-0.5,0.5-0.5,0.8c0,0.1,0.1,0.3,0.2,0.5
	c0.2,0.2,0.3,0.3,0.6,0.2c0.7,0,7.6-1.2,7.7-1.3c0.2-0.2,0.4-0.5,0.3-0.8c0-0.1-0.1-0.3-0.2-0.4c-0.2-0.2-0.3-0.2-0.6-0.2
	C8.5,37.7,6.7,37.9,4.8,38.3z"/>
</svg>
