<svg width="38" height="38" fill="none" xmlns="http://www.w3.org/2000/svg"><path fill-rule="evenodd" clip-rule="evenodd" d="M12.5133.8747C6.699 1.2333 2.3141 2.6993 1.283 4.6295c-.8629 1.6153.3408 3.2258 3.203 4.2854 1.3326.4932 3.1991.946 4.8865 1.1851l.593.0841-.5218.2278c-1.6912.7383-2.9089 1.5491-4.2103 2.8034-2.2747 2.1925-3.6976 4.9893-4.1386 8.1345-.1752 1.2495-.1098 3.4372.1377 4.6049.4746 2.239 1.4649 4.3334 2.8686 6.0671.5061.6251 1.654 1.7472 2.2604 2.2097 1.707 1.3018 3.6939 2.2095 5.8318 2.6642.8727.1856 1.0262.1966 2.7381.1966 1.7132 0 1.8646-.0109 2.738-.197 2.1092-.4495 3.9924-1.2902 5.654-2.5239.6588-.489 1.8713-1.6502 2.4165-2.3141 1.2397-1.5095 2.257-3.5196 2.7296-5.393.524-2.0775.557-4.7085.0822-6.5524-.0897-.3485-.0856-.4117.0519-.7929.1432-.397.1629-.4176.4749-.4959.2817-.0707.467-.2217 1.3725-1.1178.5758-.5699 1.0959-1.1391 1.1557-1.2649.0599-.1258.1088-.3667.1088-.5353v-.3064l2.5857-2.5922c2.8175-2.8246 2.8899-2.9162 3.0525-3.8634.3357-1.9554-1.4334-3.765-3.3861-3.4633-1.0254.1583-1.16.2623-4.0418 3.1213-1.5666 1.5542-2.6398 2.5672-2.6882 2.5373-.0442-.0273-.247-.0099-.4505.0387-.334.0797-.457.1736-1.2644.9642l-.8944.8758-.1724-.1846c-.641-.6867-2.1766-1.7268-3.4943-2.3667l-.9751-.4736 1.1867-.1952c5.1736-.8507 8.0766-2.6299 7.6869-4.711-.1775-.9481-.9422-1.7264-2.4225-2.4658C23.4844 1.3452 17.789.5494 12.5133.8747Zm4.7144 1.2037c4.2718.2548 7.8373 1.1309 9.5971 2.358.552.385.7805.6986.8219 1.1278.0274.2855.0018.3925-.149.6199-.231.3482-.6672.7034-1.2638 1.0293l-.4677.2554.0677-.3368c.0461-.229.0424-.429-.0114-.6248-.4396-1.599-3.2231-2.7086-7.9397-3.1654-1.3502-.1307-4.8561-.1103-6.2348.0364-3.3577.3572-5.7818 1.0912-6.8914 2.0865-.5191.4657-.7292.9158-.6928 1.4849.0158.2469.0008.4488-.0332.4488-.1049 0-.709-.3667-1.0765-.6534-.8812-.6875-.9658-1.3228-.2653-1.9933 1.9274-1.8454 8.4161-3.0384 14.5389-2.6733Zm-.305 2.4128c2.7259.1683 4.9785.6143 6.4496 1.277.8784.3955 1.3744.8662 1.2675 1.2025-.0233.073-.168.2461-.3216.3847-.7984.7196-2.8124 1.3386-5.4594 1.6777l-1.1078.142-.183-.1743c-.3209-.3054-.4816-.325-2.6448-.325-2.1862 0-2.2776.0123-2.6588.3587-.1343.122-.1901.1236-.9957.0293-1.534-.1795-2.8942-.461-3.9561-.8187-1.1886-.4003-2.0534-.9754-2.0534-1.3654 0-.5694 1.2785-1.2709 3.179-1.7443 2.3872-.5945 5.4826-.8296 8.4845-.6442Zm18.2471 2.5795c.895.4158 1.2618 1.4987.8167 2.4115-.093.1908-1.0018 1.1496-2.598 2.741l-2.455 2.4476-1.2805-1.2762-1.2805-1.2761 2.4716-2.4675c1.5203-1.5178 2.581-2.5217 2.756-2.6083.4104-.2032 1.0986-.191 1.5697.028Zm-18.3893 3.4145v.6032h-3.6271V9.8821h3.6271v.6031Zm-4.8361.6777c0 .3696.1475.6487.4742.8975l.2612.1988 2.176.0206c2.1641.0205 2.1777.0197 2.4911-.1457.3605-.1902.6426-.6385.6426-1.0214 0-.1305.0301-.2372.067-.2372s.4125.1129.8347.2509c1.4133.4619 2.9031 1.2677 4.0411 2.1858.6088.4912 1.0771.9474 1.0253.999-.0174.0173-.7342.284-1.593.5925l-1.5613.561-.5712-.3701c-.737-.4773-1.2748-.744-2.0514-1.0173-3.5851-1.2616-7.5277-.3389-10.1965 2.3864-1.2207 1.2465-2.0379 2.7318-2.4859 4.5187-.2418.9644-.3075 2.7274-.1396 3.7473.3358 2.0398 1.2616 3.8332 2.7411 5.3094 1.3466 1.3435 2.8951 2.1979 4.7691 2.6312.8815.2037 2.6582.2537 3.5907.1009 1.5035-.2464 3.1752-.9574 4.3354-1.8441 1.1664-.8915 2.3168-2.3006 2.884-3.5329l.2489-.5408.678.0395c1.2133.0704 1.2612.013 2.2322-2.6723.4154-1.1488.7744-2.1068.7977-2.1288.0233-.022.0254.6147.0048 1.4147-.0408 1.5823-.1467 2.2521-.5598 3.5386-1.458 4.5411-5.2901 7.862-10.0051 8.6703-.444.0761-.964.1383-1.1557.1383h-.3486v-.3602c0-.3036-.0327-.393-.2078-.5677-.2653-.2647-.5819-.2774-.8266-.0332-.1445.1441-.1746.2438-.1746.5782v.4041l-.6389-.0452c-1.4611-.1034-2.9811-.5429-4.5125-1.3046-3.4736-1.7278-5.968-4.9896-6.7522-8.8296-1.1473-5.6165 1.694-11.3471 6.8897-13.8964.6425-.3152 2.2858-.92 2.507-.9225.0566-.0007.0889.1032.0889.2863Zm16.8738 3.1018 1.6888 1.6861-.8542.8502-.8541.85-1.7235-1.7197-1.7235-1.7196.816-.8166c.4488-.4491.8488-.8165.8889-.8165.0401 0 .8327.7588 1.7616 1.6861Zm-12.2643.6214c.3251.0618.8692.2095 1.209.3282.6964.2433 1.6042.7049 1.524.7749-.0291.0254-.6261.2494-1.3267.4977-1.414.5011-1.6678.6668-1.8254 1.1914-.194.646.1347 2.2386.7136 3.4588 1.0952 2.3079 3.2222 4.3426 5.4438 5.2075.2347.0914.4376.1743.4509.1843.0134.0099-.1138.2829-.2825.6064-.8602 1.6497-2.4224 3.1032-4.1138 3.8279-2.7242 1.167-5.6948.886-8.216-.7773-.6393-.4217-1.7556-1.5355-2.1782-2.1733-.9988-1.5073-1.4844-3.0858-1.4844-4.8254 0-3.6788 2.3504-6.896 5.878-8.0459.5466-.1782.9301-.2571 1.9095-.3929.3918-.0543 1.6999.0241 2.2982.1377Zm9.667 1.8963c.7924.7899 1.4408 1.4711 1.4408 1.5135 0 .063-2.1241 6.0142-2.5405 7.1178l-.1171.3106-.467-.0437c-.4068-.0381-1.4831-.2905-1.5583-.3655-.0147-.0146.2649-.5507.6213-1.1913.3563-.6405.6479-1.2448.6479-1.3426 0-.2322-.2353-.5261-.4547-.5679-.4126-.0786-.5592.0789-1.2614 1.3556-.4677.8505-.6964 1.2011-.7668 1.1758-.1464-.0527-.9966-.6337-1.2864-.8792l-.249-.2108 1.2904-1.2982c.7097-.714 1.3279-1.3718 1.3738-1.462.1932-.3794-.1256-.8221-.5827-.8091-.1905.0054-.417.2004-1.5839 1.3636l-1.3617 1.3573-.2489-.3063c-.213-.262-.7112-.9753-.8659-1.2396-.0307-.0526.3534-.3023 1.0722-.6973 1.2741-.7 1.5483-.9341 1.482-1.2654-.0565-.2816-.2188-.4553-.4785-.5123-.174-.0381-.4034.0612-1.3849.5992-.647.3547-1.2017.6449-1.2327.6449-.1174 0-.5257-1.935-.424-2.0095.0159-.0116.9091-.3365 1.9847-.7218a892.0331 892.0331 0 0 0 3.6627-1.3222c.9387-.3418 1.7385-.6234 1.7773-.6257.0388-.0023.7189.6421 1.5113 1.4321ZM23.881 18.315c-.3336.3329-.4153.4592-.4153.6419 0 .321.2709.5758.6121.5758.223 0 .3207-.0576.6433-.3795.3129-.3122.3799-.4223.378-.6209-.0025-.2676-.0973-.425-.3308-.5491-.2943-.1564-.4602-.0943-.8873.3318ZM7.885 22.7915c-.241.2406-.2517.3668-.0951 1.1234.1736.8386.3462 1.0818.7676 1.0818.2362 0 .5415-.2745.5525-.4967.0049-.0976-.0583-.4967-.1403-.887-.1194-.5685-.1858-.7413-.3336-.8693-.2519-.2179-.5005-.2022-.751.0478Zm1.5005 3.5027c-.2249.1135-.3699.3923-.318.6116.1186.5016 1.2145 1.6612 2.1669 2.2928 1.0578.7015 2.2869 1.1468 3.416 1.2377l.5369.0432.1984-.2352c.1575-.1868.1894-.28.1547-.4527-.0737-.368-.2486-.4739-.9556-.5788-1.6676-.2473-3.2021-1.1229-4.1554-2.3711-.48-.6285-.6779-.7323-1.044-.5475Z" fill="url(#a)"/><defs><linearGradient id="a" x1=".9961" y1=".8025" x2="42.1586" y2="7.4083" gradientUnits="userSpaceOnUse"><stop stop-color="#8DC53F"/><stop offset="1" stop-color="#A1E146"/></linearGradient></defs></svg>