<?xml version="1.0" standalone="no"?>
<!DOCTYPE svg PUBLIC "-//W3C//DTD SVG 20010904//EN"
 "http://www.w3.org/TR/2001/REC-SVG-20010904/DTD/svg10.dtd">
<svg version="1.0" xmlns="http://www.w3.org/2000/svg"
 width="1024.000000pt" height="1024.000000pt" viewBox="0 0 1024.000000 1024.000000"
 preserveAspectRatio="xMidYMid meet">

<g transform="translate(0.000000,1024.000000) scale(0.100000,-0.100000)"
fill="#000000" stroke="none">
<path d="M4515 9749 c-711 -33 -1290 -338 -1683 -888 -273 -382 -447 -867
-511 -1426 -28 -245 -51 -1089 -51 -1895 0 -802 -31 -1216 -144 -1935 -35
-219 -91 -653 -113 -865 -25 -249 -24 -735 1 -915 47 -340 137 -529 355 -745
207 -206 459 -340 796 -425 174 -44 321 -64 550 -75 104 -6 255 -17 335 -25
883 -90 1890 11 2691 271 295 96 474 176 672 301 275 174 336 290 293 551
l-17 100 52 54 c110 113 191 268 232 441 18 78 21 123 21 297 1 331 -43 558
-244 1270 -271 958 -375 1529 -555 3038 -36 305 -75 604 -86 665 -181 1010
-758 1762 -1585 2065 -210 77 -464 129 -669 138 -66 2 -136 6 -155 7 -19 2
-102 0 -185 -4z m430 -170 c244 -26 497 -99 720 -208 671 -329 1117 -969 1284
-1841 11 -58 50 -355 86 -660 182 -1528 284 -2090 547 -3020 186 -661 243
-935 255 -1231 7 -182 -11 -317 -58 -440 -28 -74 -113 -209 -135 -216 -6 -2
-18 13 -27 35 -24 59 -110 205 -174 295 -132 183 -369 398 -518 468 -257 122
-559 78 -822 -120 -144 -109 -406 -426 -658 -796 -408 -600 -650 -840 -996
-985 -215 -89 -387 -122 -639 -121 -738 2 -1305 271 -1531 726 -96 194 -123
370 -123 790 0 372 19 578 110 1200 19 132 46 314 59 405 79 537 105 956 105
1685 0 911 24 1676 60 1962 137 1069 693 1786 1558 2009 286 74 593 95 897 63z"/>
<path d="M5314 8159 c-23 -12 -44 -49 -44 -78 0 -10 30 -54 66 -97 342 -410
498 -947 464 -1601 -9 -169 -33 -395 -49 -458 -7 -27 -8 -24 -20 35 -21 104
-77 292 -125 413 -75 193 -161 351 -450 825 -306 504 -626 766 -1051 863 -132
29 -349 32 -475 5 -314 -67 -553 -233 -741 -514 -170 -254 -255 -495 -299
-842 -20 -160 -22 -205 -17 -520 6 -421 25 -631 93 -1017 35 -200 65 -298 138
-448 78 -159 158 -269 286 -396 198 -196 451 -329 736 -386 137 -27 425 -24
563 5 404 88 810 322 1050 607 165 194 256 376 310 615 10 47 37 157 60 245
281 1093 182 1984 -288 2592 -97 126 -123 153 -156 158 -16 2 -40 0 -51 -6z
m-1349 -239 c391 -44 693 -256 978 -687 74 -112 287 -465 287 -476 0 -2 -48 8
-107 24 -289 74 -620 61 -794 -32 -88 -47 -102 -110 -34 -155 28 -18 37 -17
141 20 154 55 379 71 545 40 46 -8 130 -31 186 -50 97 -33 105 -35 133 -20
l30 15 45 -94 c100 -208 179 -452 220 -680 26 -142 31 -430 10 -556 -73 -441
-354 -787 -820 -1014 -270 -131 -498 -183 -750 -172 -328 16 -608 139 -843
370 -193 192 -306 410 -361 702 -61 324 -91 609 -98 940 l-5 260 58 18 c66 20
154 37 191 37 l24 0 -23 -31 c-21 -28 -23 -41 -23 -167 0 -154 10 -182 72
-208 49 -21 142 -18 180 6 56 34 65 65 61 216 -2 74 0 134 3 134 3 0 14 -10
25 -21 30 -34 73 -48 106 -37 56 20 65 88 18 141 -34 39 -122 88 -195 108 -77
21 -331 19 -418 -5 -38 -10 -71 -16 -73 -13 -3 3 -2 25 1 50 7 44 8 45 63 62
35 10 108 19 188 22 150 6 248 -9 369 -57 63 -25 79 -28 105 -19 17 6 35 19
40 29 16 30 12 78 -9 99 -22 22 -104 54 -211 83 -102 28 -335 35 -440 15 -41
-8 -76 -14 -77 -13 -6 6 49 223 77 301 77 217 246 481 381 595 167 140 388
223 609 229 25 0 86 -4 135 -9z"/>
<path d="M4644 6555 c-94 -20 -222 -83 -240 -117 -18 -35 -9 -72 23 -98 34
-27 53 -25 121 9 52 26 84 37 164 55 l28 6 -20 -32 c-17 -28 -20 -51 -20 -161
0 -144 9 -175 63 -207 40 -25 135 -27 182 -4 61 29 70 54 70 194 0 69 -3 138
-8 153 l-8 28 50 -26 c63 -31 101 -32 129 -2 27 29 29 87 4 110 -29 27 -142
73 -219 91 -86 19 -234 20 -319 1z"/>
<path d="M3645 5735 c-20 -20 -25 -34 -25 -77 1 -127 98 -226 231 -236 66 -5
117 10 159 45 77 64 -9 172 -99 124 -30 -16 -76 -13 -101 7 -15 12 -25 35 -31
73 -6 36 -16 60 -30 72 -31 25 -75 22 -104 -8z"/>
<path d="M3602 5127 c-49 -52 -13 -125 94 -193 79 -50 149 -67 268 -62 91 3
108 7 177 40 101 48 169 112 169 160 0 44 -34 78 -77 78 -23 0 -46 -13 -84
-45 -70 -60 -129 -79 -233 -73 -92 5 -123 18 -184 77 -50 49 -95 55 -130 18z"/>
<path d="M6460 7223 c-25 -31 -26 -12 14 -268 39 -246 56 -447 63 -715 20
-864 -178 -1544 -585 -2005 -188 -213 -454 -393 -737 -500 -127 -48 -141 -61
-136 -127 2 -28 38 -58 70 -58 78 0 358 129 533 246 365 244 634 589 806 1032
232 596 279 1330 141 2182 -34 212 -44 233 -106 238 -35 3 -44 -1 -63 -25z"/>
<path d="M5063 3074 c-442 -388 -1006 -556 -1573 -469 -189 28 -297 82 -425
210 -65 64 -101 111 -128 162 -21 40 -46 77 -57 83 -51 27 -120 -11 -120 -67
0 -44 88 -189 164 -270 191 -204 405 -286 786 -300 537 -19 1103 191 1472 547
99 95 106 114 59 161 -47 46 -67 39 -178 -57z"/>
</g>
</svg>
