<?xml version="1.0" standalone="no"?>
<!DOCTYPE svg PUBLIC "-//W3C//DTD SVG 20010904//EN"
 "http://www.w3.org/TR/2001/REC-SVG-20010904/DTD/svg10.dtd">
<svg version="1.0" xmlns="http://www.w3.org/2000/svg"
 width="1024.000000pt" height="1024.000000pt" viewBox="0 0 1024.000000 1024.000000"
 preserveAspectRatio="xMidYMid meet">

<g transform="translate(0.000000,1024.000000) scale(0.100000,-0.100000)"
fill="#000000" stroke="none">
<path d="M4590 9744 c-827 -73 -1458 -394 -1933 -984 -389 -483 -629 -1056
-701 -1670 -54 -459 -7 -775 137 -922 64 -66 106 -83 207 -83 101 0 170 27
243 94 24 23 46 41 49 41 3 0 8 -68 12 -152 20 -439 118 -1076 197 -1277 77
-195 201 -374 383 -556 223 -222 472 -368 739 -433 58 -14 115 -17 287 -16
118 0 242 5 275 11 56 10 75 6 75 -17 -1 -3 -49 -33 -108 -68 -131 -76 -218
-141 -322 -239 -173 -163 -332 -389 -411 -587 -22 -54 -30 -63 -109 -116 -280
-189 -568 -487 -796 -825 -162 -240 -271 -447 -300 -570 -22 -97 -15 -211 19
-288 116 -260 645 -476 1347 -551 488 -52 1008 -52 1455 0 757 88 1647 333
2016 554 271 162 377 284 387 445 3 60 -2 88 -33 190 -123 403 -329 753 -624
1057 -140 145 -263 248 -425 358 l-111 76 -7 60 c-10 94 -36 182 -82 279 -93
196 -247 345 -446 432 -41 18 -80 33 -86 33 -11 0 -18 32 -39 165 l-6 41 76
53 c307 214 587 510 795 841 37 58 93 132 124 165 102 105 174 227 221 371 14
42 37 92 53 112 103 134 246 412 306 597 85 261 110 442 103 750 -5 244 -22
368 -81 596 -152 587 -428 1051 -842 1408 -378 328 -820 530 -1329 607 -96 15
-605 27 -715 18z m144 -1866 c14 -14 44 -73 71 -143 203 -518 559 -996 999
-1339 121 -95 274 -196 296 -196 35 0 65 21 93 64 82 129 242 216 398 216 185
0 328 -138 375 -360 20 -93 14 -284 -11 -380 -53 -200 -189 -379 -345 -454
-57 -27 -75 -31 -150 -30 -72 0 -94 4 -141 27 -31 15 -74 41 -95 57 -48 39
-81 47 -113 29 -28 -16 -31 -25 -74 -202 -52 -214 -152 -392 -318 -562 -88
-91 -99 -106 -99 -138 0 -27 7 -41 26 -56 15 -12 34 -21 44 -21 15 0 18 -15
24 -102 10 -144 41 -313 71 -394 50 -133 76 -260 82 -409 7 -164 -4 -222 -67
-353 -88 -184 -235 -379 -543 -719 -109 -120 -111 -122 -176 -139 -38 -10
-119 -19 -191 -21 -146 -6 -238 10 -338 57 l-65 30 7 83 c17 204 87 385 207
537 82 104 105 202 96 405 -7 130 -43 344 -72 418 -21 54 -19 61 23 76 143 51
392 154 406 169 37 42 1 132 -53 132 -11 0 -96 -30 -188 -66 -345 -136 -376
-143 -649 -151 -165 -5 -215 -3 -283 11 -387 79 -792 407 -990 804 -48 96 -64
146 -96 296 -63 291 -117 712 -131 1016 l-7 145 81 24 c44 13 116 38 159 57
43 19 78 34 78 34 0 0 -1 -42 -3 -92 -5 -134 3 -175 43 -215 32 -32 36 -33
110 -33 145 0 168 34 164 239 -3 129 -1 140 19 166 29 36 28 57 -4 95 -15 17
-25 32 -23 34 2 1 38 26 79 56 422 301 784 690 1097 1180 92 143 125 165 177
118z m1991 -4987 c39 -30 121 -105 184 -166 295 -287 512 -637 635 -1025 39
-124 43 -163 22 -215 -37 -88 -235 -239 -439 -335 -370 -174 -1153 -373 -1767
-449 -175 -22 -459 -46 -464 -40 -2 2 7 76 20 164 60 407 149 780 281 1178 46
139 58 167 75 167 53 0 186 -37 303 -85 182 -74 288 -106 376 -112 113 -8 148
10 239 128 182 236 305 526 341 804 6 50 13 96 15 103 4 13 56 -21 179 -117z
m-3147 -411 c-17 -60 -21 -107 -22 -235 -1 -152 0 -162 22 -193 64 -89 153
-86 462 19 145 49 248 65 271 42 6 -6 -5 -68 -31 -169 -82 -328 -157 -752
-196 -1104 -9 -85 -18 -157 -20 -159 -7 -7 -296 26 -429 49 -286 49 -506 115
-691 206 -250 124 -318 230 -268 419 35 138 247 492 430 720 97 121 297 327
413 424 40 34 74 61 76 59 2 -2 -6 -37 -17 -78z"/>
<path d="M4634 7070 c-168 -18 -263 -79 -235 -152 11 -30 47 -58 74 -58 10 0
35 9 57 20 91 47 304 46 478 0 90 -25 114 -25 143 -1 28 23 31 81 6 109 -48
53 -352 101 -523 82z"/>
<path d="M4705 6573 c-59 -22 -136 -65 -155 -88 -8 -9 -14 -33 -14 -52 0 -69
76 -95 144 -50 42 29 94 47 129 47 l26 -1 -26 -14 c-46 -25 -59 -69 -59 -205
0 -136 10 -168 63 -200 41 -25 135 -27 183 -4 58 28 69 60 70 213 2 125 3 135
22 142 26 10 52 47 52 75 0 36 -37 72 -115 110 -68 34 -84 37 -173 41 -75 3
-108 0 -147 -14z"/>
<path d="M6530 6094 c-78 -21 -152 -75 -200 -146 -64 -97 -63 -169 3 -192 46
-17 79 3 109 64 45 89 111 130 212 130 58 0 98 75 63 121 -32 41 -91 49 -187
23z"/>
<path d="M3683 5614 c-23 -23 -25 -31 -21 -84 7 -103 85 -174 189 -175 77 0
113 25 117 82 3 35 -1 44 -25 63 -22 17 -36 20 -64 16 -42 -7 -53 3 -64 51 -8
38 -47 73 -82 73 -13 0 -35 -12 -50 -26z"/>
<path d="M4245 5109 c-131 -110 -282 -118 -396 -23 -47 39 -75 43 -113 13 -20
-16 -26 -29 -26 -58 0 -33 7 -45 46 -81 154 -142 425 -129 593 28 60 57 68 96
26 137 -36 37 -72 32 -130 -16z"/>
</g>
</svg>
