<?xml version="1.0" encoding="utf-8"?>
<!-- Generator: Adobe Illustrator 26.5.0, SVG Export Plug-In . SVG Version: 6.00 Build 0)  -->
<svg version="1.1" id="Layer_1" xmlns="http://www.w3.org/2000/svg" xmlns:xlink="http://www.w3.org/1999/xlink" x="0px" y="0px"
	 viewBox="0 0 200.8 309" style="enable-background:new 0 0 200.8 309;" xml:space="preserve">
<g transform="translate(0.000000,1024.000000) scale(0.100000,-0.100000)">
	<path d="M843.7,10238.4c-238-11-431.8-113.1-563.4-297.3c-91.4-127.9-149.6-290.2-171.1-477.4c-9.4-82-17.1-364.5-17.1-634.4
		c0-268.5-10.4-407.1-48.2-647.7c-11.7-73.3-30.5-218.6-37.8-289.6c-8.4-83.4-8-246,0.3-306.3c15.7-113.8,45.9-177.1,118.8-249.4
		c69.3-69,153.7-113.8,266.5-142.3c58.2-14.7,107.5-21.4,184.1-25.1c34.8-2,85.4-5.7,112.1-8.4c295.6-30.1,632.7,3.7,900.8,90.7
		c98.8,32.1,158.7,58.9,225,100.8c92.1,58.2,112.5,97.1,98.1,184.4l-5.7,33.5l17.4,18.1c36.8,37.8,63.9,89.7,77.7,147.6
		c6,26.1,7,41.2,7,99.4c0.3,110.8-14.4,186.8-81.7,425.1c-90.7,320.7-125.5,511.8-185.8,1017c-12.1,102.1-25.1,202.2-28.8,222.6
		c-60.6,338.1-253.7,589.8-530.6,691.3c-70.3,25.8-155.3,43.2-223.9,46.2c-22.1,0.7-45.5,2-51.9,2.3
		C899.2,10240.4,871.4,10239.7,843.7,10238.4z M987.6,10181.5c81.7-8.7,166.4-33.1,241-69.6c224.6-110.1,373.9-324.4,429.8-616.3
		c3.7-19.4,16.7-118.8,28.8-220.9c60.9-511.5,95.1-699.6,183.1-1010.9c62.3-221.3,81.3-313,85.4-412.1
		c2.3-60.9-3.7-106.1-19.4-147.3c-9.4-24.8-37.8-70-45.2-72.3c-2-0.7-6,4.4-9,11.7c-8,19.8-36.8,68.6-58.2,98.8
		c-44.2,61.3-123.5,133.2-173.4,156.7c-86,40.8-187.1,26.1-275.2-40.2c-48.2-36.5-135.9-142.6-220.3-266.5
		c-136.6-200.9-217.6-281.2-333.4-329.7c-72-29.8-129.5-40.8-213.9-40.5c-247,0.7-436.9,90.7-512.5,243
		C63,7530.3,54,7589.2,54,7729.8c0,124.5,6.4,193.5,36.8,401.7c6.4,44.2,15.4,105.1,19.8,135.6c26.4,179.8,35.1,320,35.1,564.1
		c0,305,8,561,20.1,656.8c45.9,357.8,232,597.9,521.5,672.5C783.1,10185.2,885.8,10192.2,987.6,10181.5z"/>
	<path d="M1111.1,9706.1c-7.7-4-14.7-16.4-14.7-26.1c0-3.3,10-18.1,22.1-32.5c114.5-137.2,166.7-317,155.3-535.9
		c-3-56.6-11-132.2-16.4-153.3c-2.3-9-2.7-8-6.7,11.7c-7,34.8-25.8,97.7-41.8,138.3c-25.1,64.6-53.9,117.5-150.6,276.2
		c-102.4,168.7-209.6,256.4-351.8,288.9c-44.2,9.7-116.8,10.7-159,1.7c-105.1-22.4-185.1-78-248.1-172.1
		c-56.9-85-85.4-165.7-100.1-281.9c-6.7-53.6-7.4-68.6-5.7-174.1c2-140.9,8.4-211.2,31.1-340.4c11.7-67,21.8-99.8,46.2-150
		c26.1-53.2,52.9-90,95.7-132.6c66.3-65.6,151-110.1,246.4-129.2c45.9-9,142.3-8,188.5,1.7c135.2,29.5,271.1,107.8,351.5,203.2
		c55.2,64.9,85.7,125.9,103.8,205.9c3.3,15.7,12.4,52.6,20.1,82c94.1,365.9,60.9,664.1-96.4,867.7c-32.5,42.2-41.2,51.2-52.2,52.9
		C1122.8,9708.8,1114.8,9708.2,1111.1,9706.1z M659.5,9626.1c130.9-14.7,232-85.7,327.4-230c24.8-37.5,96.1-155.7,96.1-159.3
		c0-0.7-16.1,2.7-35.8,8c-96.7,24.8-207.5,20.4-265.8-10.7c-29.5-15.7-34.1-36.8-11.4-51.9c9.4-6,12.4-5.7,47.2,6.7
		c51.6,18.4,126.9,23.8,182.4,13.4c15.4-2.7,43.5-10.4,62.3-16.7c32.5-11,35.1-11.7,44.5-6.7l10,5l15.1-31.5
		c33.5-69.6,59.9-151.3,73.6-227.6c8.7-47.5,10.4-143.9,3.3-186.1c-24.4-147.6-118.5-263.4-274.5-339.4
		c-90.4-43.9-166.7-61.3-251.1-57.6c-109.8,5.4-203.5,46.5-282.2,123.9c-64.6,64.3-102.4,137.2-120.8,235
		c-20.4,108.5-30.5,203.9-32.8,314.7l-1.7,87l19.4,6c22.1,6.7,51.6,12.4,63.9,12.4h8l-7.7-10.4c-7-9.4-7.7-13.7-7.7-55.9
		c0-51.6,3.3-60.9,24.1-69.6c16.4-7,47.5-6,60.3,2c18.7,11.4,21.8,21.8,20.4,72.3c-0.7,24.8,0,44.9,1,44.9c1,0,4.7-3.3,8.4-7
		c10-11.4,24.4-16.1,35.5-12.4c18.7,6.7,21.8,29.5,6,47.2c-11.4,13.1-40.8,29.5-65.3,36.2c-25.8,7-110.8,6.4-139.9-1.7
		c-12.7-3.3-23.8-5.4-24.4-4.4c-1,1-0.7,8.4,0.3,16.7c2.3,14.7,2.7,15.1,21.1,20.8c11.7,3.3,36.2,6.4,62.9,7.4
		c50.2,2,83-3,123.5-19.1c21.1-8.4,26.4-9.4,35.1-6.4c5.7,2,11.7,6.4,13.4,9.7c5.4,10,4,26.1-3,33.1c-7.4,7.4-34.8,18.1-70.6,27.8
		c-34.1,9.4-112.1,11.7-147.3,5c-13.7-2.7-25.4-4.7-25.8-4.4c-2,2,16.4,74.6,25.8,100.8c25.8,72.6,82.3,161,127.5,199.2
		c55.9,46.9,129.9,74.6,203.9,76.7C622.7,9629.2,643.1,9627.8,659.5,9626.1z"/>
	<path d="M886.8,9169.2c-31.5-6.7-74.3-27.8-80.3-39.2c-6-11.7-3-24.1,7.7-32.8c11.4-9,17.7-8.4,40.5,3
		c17.4,8.7,28.1,12.4,54.9,18.4l9.4,2l-6.7-10.7c-5.7-9.4-6.7-17.1-6.7-53.9c0-48.2,3-58.6,21.1-69.3c13.4-8.4,45.2-9,60.9-1.3
		c20.4,9.7,23.4,18.1,23.4,64.9c0,23.1-1,46.2-2.7,51.2l-2.7,9.4l16.7-8.7c21.1-10.4,33.8-10.7,43.2-0.7c9,9.7,9.7,29.1,1.3,36.8
		c-9.7,9-47.5,24.4-73.3,30.5C964.8,9175.2,915.3,9175.6,886.8,9169.2z"/>
	<path d="M552.4,8894.7c-6.7-6.7-8.4-11.4-8.4-25.8c0.3-42.5,32.8-75.7,77.3-79c22.1-1.7,39.2,3.3,53.2,15.1
		c25.8,21.4-3,57.6-33.1,41.5c-10-5.4-25.4-4.4-33.8,2.3c-5,4-8.4,11.7-10.4,24.4c-2,12.1-5.4,20.1-10,24.1
		C576.9,8905.8,562.1,8904.8,552.4,8894.7z"/>
	<path d="M538,8691.2c-16.4-17.4-4.4-41.8,31.5-64.6c26.4-16.7,49.9-22.4,89.7-20.8c30.5,1,36.2,2.3,59.3,13.4
		c33.8,16.1,56.6,37.5,56.6,53.6c0,14.7-11.4,26.1-25.8,26.1c-7.7,0-15.4-4.4-28.1-15.1c-23.4-20.1-43.2-26.4-78-24.4
		c-30.8,1.7-41.2,6-61.6,25.8C564.8,8701.6,549.7,8703.6,538,8691.2z"/>
	<path d="M1494.7,9392.8c-8.4-10.4-8.7-4,4.7-89.7c13.1-82.3,18.7-149.6,21.1-239.3c6.7-289.2-59.6-516.9-195.8-671.2
		c-62.9-71.3-152-131.6-246.7-167.4c-42.5-16.1-47.2-20.4-45.5-42.5c0.7-9.4,12.7-19.4,23.4-19.4c26.1,0,119.8,43.2,178.4,82.3
		c122.2,81.7,212.2,197.2,269.8,345.5c77.7,199.5,93.4,445.2,47.2,730.4c-11.4,71-14.7,78-35.5,79.7
		C1504.1,9402.2,1501.1,9400.9,1494.7,9392.8z"/>
	<path d="M1027.1,8003.9c-148-129.9-336.8-186.1-526.6-157c-63.3,9.4-99.4,27.4-142.3,70.3c-21.8,21.4-33.8,37.2-42.8,54.2
		c-7,13.4-15.4,25.8-19.1,27.8c-17.1,9-40.2-3.7-40.2-22.4c0-14.7,29.5-63.3,54.9-90.4c63.9-68.3,135.6-95.7,263.1-100.4
		c179.8-6.4,369.2,63.9,492.8,183.1c33.1,31.8,35.5,38.2,19.8,53.9C1071,8038.4,1064.3,8036.1,1027.1,8003.9z"/>
</g>
</svg>
