<?xml version="1.0" encoding="utf-8"?>
<!-- Generator: Adobe Illustrator 26.5.0, SVG Export Plug-In . SVG Version: 6.00 Build 0)  -->
<svg version="1.1" id="Layer_1" xmlns="http://www.w3.org/2000/svg" xmlns:xlink="http://www.w3.org/1999/xlink" x="0px" y="0px"
	 viewBox="0 0 200.7 319.9" style="enable-background:new 0 0 200.7 319.9;" xml:space="preserve">
<g transform="translate(0.000000,1024.000000) scale(0.100000,-0.100000)">
	<path d="M918.4,10238.9c-286-25.2-504.2-136.3-668.5-340.3c-134.5-167-217.5-365.2-242.4-577.5c-18.7-158.7-2.4-268,47.4-318.8
		c22.1-22.8,36.7-28.7,71.6-28.7s58.8,9.3,84,32.5c8.3,8,15.9,14.2,16.9,14.2s2.8-23.5,4.1-52.6c6.9-151.8,40.8-372.1,68.1-441.6
		c26.6-67.4,69.5-129.3,132.4-192.3c77.1-76.8,163.2-127.3,255.6-149.7c20.1-4.8,39.8-5.9,99.3-5.5c40.8,0,83.7,1.7,95.1,3.8
		c19.4,3.5,25.9,2.1,25.9-5.9c-0.3-1-16.9-11.4-37.3-23.5c-45.3-26.3-75.4-48.8-111.4-82.7c-59.8-56.4-114.8-134.5-142.1-203
		c-7.6-18.7-10.4-21.8-37.7-40.1c-96.8-65.4-196.4-168.4-275.3-285.3c-56-83-93.7-154.6-103.7-197.1c-7.6-33.5-5.2-73,6.6-99.6
		c40.1-89.9,223.1-164.6,465.8-190.5c168.8-18,348.6-18,503.2,0c261.8,30.4,569.6,115.2,697.2,191.6c93.7,56,130.4,98.2,133.8,153.9
		c1,20.7-0.7,30.4-11.4,65.7c-42.5,139.4-113.8,260.4-215.8,365.5c-48.4,50.1-91,85.8-147,123.8l-38.4,26.3l-2.4,20.7
		c-3.5,32.5-12.4,62.9-28.4,96.5c-32.2,67.8-85.4,119.3-154.2,149.4c-14.2,6.2-27.7,11.4-29.7,11.4c-3.8,0-6.2,11.1-13.5,57.1
		l-2.1,14.2l26.3,18.3c106.2,74,203,176.4,274.9,290.8c12.8,20.1,32.2,45.6,42.9,57.1c35.3,36.3,60.2,78.5,76.4,128.3
		c4.8,14.5,12.8,31.8,18.3,38.7c35.6,46.3,85.1,142.5,105.8,206.5c29.4,90.3,38,152.9,35.6,259.4c-1.7,84.4-7.6,127.3-28,206.1
		c-52.6,203-148,363.5-291.2,486.9c-130.7,113.4-283.6,183.3-459.6,209.9C1132.5,10237.9,956.4,10242,918.4,10238.9z M968.2,9593.6
		c4.8-4.8,15.2-25.2,24.6-49.5c70.2-179.1,193.3-344.4,345.5-463.1c41.8-32.9,94.8-67.8,102.4-67.8c12.1,0,22.5,7.3,32.2,22.1
		c28.4,44.6,83.7,74.7,137.6,74.7c64,0,113.4-47.7,129.7-124.5c6.9-32.2,4.8-98.2-3.8-131.4c-18.3-69.2-65.4-131.1-119.3-157
		c-19.7-9.3-25.9-10.7-51.9-10.4c-24.9,0-32.5,1.4-48.8,9.3c-10.7,5.2-25.6,14.2-32.9,19.7c-16.6,13.5-28,16.3-39.1,10
		c-9.7-5.5-10.7-8.6-25.6-69.9c-18-74-52.6-135.6-110-194.4c-30.4-31.5-34.2-36.7-34.2-47.7c0-9.3,2.4-14.2,9-19.4
		c5.2-4.1,11.8-7.3,15.2-7.3c5.2,0,6.2-5.2,8.3-35.3c3.5-49.8,14.2-108.2,24.6-136.3c17.3-46,26.3-89.9,28.4-141.4
		c2.4-56.7-1.4-76.8-23.2-122.1c-30.4-63.6-81.3-131.1-187.8-248.6c-37.7-41.5-38.4-42.2-60.9-48.1c-13.1-3.5-41.2-6.6-66.1-7.3
		c-50.5-2.1-82.3,3.5-116.9,19.7l-22.5,10.4l2.4,28.7c5.9,70.5,30.1,133.1,71.6,185.7c28.4,36,36.3,69.9,33.2,140.1
		c-2.4,45-14.9,119-24.9,144.6c-7.3,18.7-6.6,21.1,8,26.3c49.5,17.6,135.6,53.3,140.4,58.4c12.8,14.5,0.3,45.6-18.3,45.6
		c-3.8,0-33.2-10.4-65-22.8c-119.3-47-130-49.5-224.4-52.2c-57.1-1.7-74.4-1-97.9,3.8c-133.8,27.3-273.9,140.7-342.4,278
		c-16.6,33.2-22.1,50.5-33.2,102.4c-21.8,100.6-40.5,246.2-45.3,351.4l-2.4,50.1l28,8.3c15.2,4.5,40.1,13.1,55,19.7
		c14.9,6.6,27,11.8,27,11.8s-0.3-14.5-1-31.8c-1.7-46.3,1-60.5,14.9-74.4c11.1-11.1,12.4-11.4,38-11.4c50.1,0,58.1,11.8,56.7,82.7
		c-1,44.6-0.3,48.4,6.6,57.4c10,12.4,9.7,19.7-1.4,32.9c-5.2,5.9-8.6,11.1-8,11.8c0.7,0.3,13.1,9,27.3,19.4
		c145.9,104.1,271.1,238.6,379.4,408.1C938.8,9602.3,950.2,9609.9,968.2,9593.6z M1656.7,7869c13.5-10.4,41.8-36.3,63.6-57.4
		c102-99.3,177.1-220.3,219.6-354.5c13.5-42.9,14.9-56.4,7.6-74.4c-12.8-30.4-81.3-82.7-151.8-115.8
		c-128-60.2-398.7-129-611.1-155.3c-60.5-7.6-158.7-15.9-160.5-13.8c-0.7,0.7,2.4,26.3,6.9,56.7c20.7,140.7,51.5,269.7,97.2,407.4
		c15.9,48.1,20.1,57.8,25.9,57.8c18.3,0,64.3-12.8,104.8-29.4c62.9-25.6,99.6-36.7,130-38.7c39.1-2.8,51.2,3.5,82.7,44.3
		c62.9,81.6,105.5,181.9,117.9,278c2.1,17.3,4.5,33.2,5.2,35.6C1596.2,7914,1614.2,7902.2,1656.7,7869z M568.4,7726.9
		c-5.9-20.7-7.3-37-7.6-81.3c-0.3-52.6,0-56,7.6-66.7c22.1-30.8,52.9-29.7,159.8,6.6c50.1,16.9,85.8,22.5,93.7,14.5
		c2.1-2.1-1.7-23.5-10.7-58.4c-28.4-113.4-54.3-260.1-67.8-381.8c-3.1-29.4-6.2-54.3-6.9-55c-2.4-2.4-102.4,9-148.4,16.9
		c-98.9,16.9-175,39.8-239,71.2c-86.5,42.9-110,79.5-92.7,144.9c12.1,47.7,85.4,170.1,148.7,249c33.5,41.8,102.7,113.1,142.8,146.6
		c13.8,11.8,25.6,21.1,26.3,20.4C575,7753.2,572.2,7741.1,568.4,7726.9z"/>
	<path d="M933.6,9314.2c-58.1-6.2-91-27.3-81.3-52.6c3.8-10.4,16.3-20.1,25.6-20.1c3.5,0,12.1,3.1,19.7,6.9
		c31.5,16.3,105.1,15.9,165.3,0c31.1-8.6,39.4-8.6,49.5-0.3c9.7,8,10.7,28,2.1,37.7C1097.9,9304.2,992.8,9320.8,933.6,9314.2z"/>
	<path d="M958.2,9142.3c-20.4-7.6-47-22.5-53.6-30.4c-2.8-3.1-4.8-11.4-4.8-18c0-23.9,26.3-32.9,49.8-17.3
		c14.5,10,32.5,16.3,44.6,16.3l9-0.3l-9-4.8c-15.9-8.6-20.4-23.9-20.4-70.9c0-47,3.5-58.1,21.8-69.2c14.2-8.6,46.7-9.3,63.3-1.4
		c20.1,9.7,23.9,20.7,24.2,73.7c0.7,43.2,1,46.7,7.6,49.1c9,3.5,18,16.3,18,25.9c0,12.4-12.8,24.9-39.8,38
		c-23.5,11.8-29,12.8-59.8,14.2C983.1,9148.2,971.7,9147.2,958.2,9142.3z"/>
	<path d="M1589.3,8976.7c-27-7.3-52.6-25.9-69.2-50.5c-22.1-33.5-21.8-58.4,1-66.4c15.9-5.9,27.3,1,37.7,22.1
		c15.6,30.8,38.4,45,73.3,45c20.1,0,33.9,25.9,21.8,41.8C1642.9,8982.9,1622.5,8985.7,1589.3,8976.7z"/>
	<path d="M604.7,8810.7c-8-8-8.6-10.7-7.3-29c2.4-35.6,29.4-60.2,65.4-60.5c26.6,0,39.1,8.6,40.5,28.4c1,12.1-0.3,15.2-8.6,21.8
		c-7.6,5.9-12.4,6.9-22.1,5.5c-14.5-2.4-18.3,1-22.1,17.6c-2.8,13.1-16.3,25.2-28.4,25.2C617.5,8819.7,609.9,8815.5,604.7,8810.7z"
		/>
	<path d="M799.1,8636c-45.3-38-97.5-40.8-136.9-8c-16.3,13.5-25.9,14.9-39.1,4.5c-6.9-5.5-9-10-9-20.1c0-11.4,2.4-15.6,15.9-28
		c53.3-49.1,147-44.6,205.1,9.7c20.7,19.7,23.5,33.2,9,47.4C831.6,8654.4,819.2,8652.6,799.1,8636z"/>
</g>
</svg>
