<svg width="35" height="34" viewBox="0 0 35 34" fill="none" xmlns="http://www.w3.org/2000/svg">
<rect x="0.5" width="34" height="34" rx="17" fill="white"/>
<path fill-rule="evenodd" clip-rule="evenodd" d="M17.5 7.93335C18.469 7.93335 19.4629 7.95828 20.4262 7.99908L21.5641 8.05348L22.6532 8.11808L23.6732 8.18722L24.6048 8.25975C25.616 8.33669 26.5675 8.76798 27.2919 9.47763C28.0163 10.1873 28.467 11.1298 28.5647 12.1392L28.61 12.6208L28.695 13.6522C28.7744 14.7209 28.8333 15.886 28.8333 17C28.8333 18.1141 28.7744 19.2792 28.695 20.3479L28.61 21.3792L28.5647 21.8609C28.467 22.8704 28.0161 23.8131 27.2915 24.5227C26.5669 25.2324 25.615 25.6636 24.6037 25.7403L23.6744 25.8117L22.6544 25.882L21.5641 25.9466L20.4262 26.001C19.4514 26.0432 18.4757 26.0651 17.5 26.0667C16.5242 26.0651 15.5486 26.0432 14.5737 26.001L13.4358 25.9466L12.3467 25.882L11.3267 25.8117L10.3951 25.7403C9.38395 25.6633 8.43239 25.2321 7.70801 24.5224C6.98363 23.8127 6.53291 22.8702 6.43523 21.8609L6.38989 21.3792L6.30489 20.3479C6.21857 19.234 6.17245 18.1173 6.16663 17C6.16663 15.886 6.22556 14.7209 6.30489 13.6522L6.38989 12.6208L6.43523 12.1392C6.53287 11.13 6.98343 10.1876 7.70758 9.47798C8.43172 8.76834 9.38302 8.33695 10.394 8.25975L11.3244 8.18722L12.3444 8.11808L13.4347 8.05348L14.5726 7.99908C15.5478 7.95684 16.5238 7.93492 17.5 7.93335ZM15.2333 14.2517V19.7484C15.2333 20.272 15.8 20.5984 16.2533 20.3377L21.0133 17.5894C21.1169 17.5297 21.2029 17.4439 21.2627 17.3404C21.3226 17.2369 21.3541 17.1195 21.3541 17C21.3541 16.8805 21.3226 16.7631 21.2627 16.6596C21.2029 16.5562 21.1169 16.4703 21.0133 16.4107L16.2533 13.6635C16.1499 13.6038 16.0326 13.5724 15.9132 13.5724C15.7938 13.5724 15.6765 13.6039 15.5731 13.6636C15.4697 13.7233 15.3839 13.8092 15.3242 13.9127C15.2646 14.0161 15.2332 14.1334 15.2333 14.2528V14.2517Z" fill="black"/>
</svg>
