<svg width="25" height="24" viewBox="0 0 25 24" fill="none" xmlns="http://www.w3.org/2000/svg">
<path d="M13.146 6.64599C13.1924 6.59943 13.2476 6.56249 13.3084 6.53728C13.3691 6.51207 13.4342 6.4991 13.5 6.4991C13.5658 6.4991 13.6309 6.51207 13.6916 6.53728C13.7524 6.56249 13.8076 6.59943 13.854 6.64599L18.854 11.646C18.9006 11.6924 18.9375 11.7476 18.9627 11.8084C18.9879 11.8691 19.0009 11.9342 19.0009 12C19.0009 12.0658 18.9879 12.1309 18.9627 12.1916C18.9375 12.2524 18.9006 12.3075 18.854 12.354L13.854 17.354C13.7601 17.4479 13.6328 17.5006 13.5 17.5006C13.3672 17.5006 13.2399 17.4479 13.146 17.354C13.0521 17.2601 12.9994 17.1328 12.9994 17C12.9994 16.8672 13.0521 16.7399 13.146 16.646L17.293 12.5H6.5C6.36739 12.5 6.24021 12.4473 6.14645 12.3535C6.05268 12.2598 6 12.1326 6 12C6 11.8674 6.05268 11.7402 6.14645 11.6464C6.24021 11.5527 6.36739 11.5 6.5 11.5H17.293L13.146 7.35399C13.0994 7.30755 13.0625 7.25237 13.0373 7.19163C13.0121 7.13088 12.9991 7.06576 12.9991 6.99999C12.9991 6.93423 13.0121 6.8691 13.0373 6.80836C13.0625 6.74761 13.0994 6.69244 13.146 6.64599Z" fill="black"/>
</svg>
