<svg width="33" height="32" viewBox="0 0 33 32" fill="none" xmlns="http://www.w3.org/2000/svg">
<g clip-path="url(#clip0_2336_5850)">
<path d="M1.18283 15.8086C1.18208 18.4972 1.89008 21.1224 3.23633 23.4363L1.05408 31.3423L9.20808 29.2209C11.4634 30.4391 13.9903 31.0775 16.5581 31.0776H16.5648C25.0417 31.0776 31.9421 24.2332 31.9457 15.8206C31.9473 11.7441 30.3488 7.91076 27.4446 5.02679C24.5408 2.14307 20.6789 0.554107 16.5642 0.552246C8.08633 0.552246 1.18645 7.39628 1.18295 15.8086" fill="url(#paint0_linear_2336_5850)"/>
<path d="M0.63375 15.8035C0.632875 18.5889 1.36625 21.308 2.7605 23.7048L0.5 31.8942L8.94637 29.6968C11.2736 30.9558 13.8939 31.6196 16.5601 31.6206H16.567C25.348 31.6206 32.4963 24.53 32.5 15.8162C32.5015 11.5932 30.8455 7.62208 27.8375 4.63479C24.8291 1.64788 20.8291 0.00173643 16.567 0C7.7845 0 0.63725 7.08961 0.63375 15.8035ZM5.66388 23.292L5.3485 22.7953C4.02275 20.7036 3.323 18.2865 3.324 15.8045C3.32675 8.56174 9.26725 2.66915 16.572 2.66915C20.1095 2.67064 23.434 4.03895 25.9345 6.52155C28.4349 9.00441 29.8108 12.3049 29.8099 15.8152C29.8066 23.058 23.866 28.9513 16.567 28.9513H16.5618C14.1851 28.9501 11.8542 28.3168 9.8215 27.12L9.33775 26.8354L4.3255 28.1393L5.66388 23.292Z" fill="url(#paint1_linear_2336_5850)"/>
<path d="M12.5847 9.19662C12.2864 8.53888 11.9726 8.52561 11.6889 8.51407C11.4567 8.50415 11.1912 8.5049 10.9259 8.5049C10.6604 8.5049 10.2291 8.604 9.86445 8.99904C9.49945 9.39445 8.47095 10.35 8.47095 12.2934C8.47095 14.2369 9.89757 16.1152 10.0964 16.379C10.2956 16.6423 12.8506 20.7582 16.8971 22.3415C20.2601 23.6574 20.9444 23.3957 21.6743 23.3297C22.4043 23.264 24.0298 22.3744 24.3614 21.452C24.6933 20.5297 24.6933 19.7391 24.5938 19.5739C24.4943 19.4093 24.2288 19.3105 23.8307 19.113C23.4326 18.9156 21.4752 17.9598 21.1103 17.8279C20.7453 17.6962 20.4799 17.6305 20.2144 18.026C19.9489 18.4209 19.1866 19.3105 18.9542 19.5739C18.7221 19.838 18.4897 19.8709 18.0917 19.6733C17.6933 19.4751 16.4112 19.0584 14.8901 17.7128C13.7066 16.6658 12.9076 15.3727 12.6753 14.9772C12.4431 14.5823 12.6504 14.3682 12.8501 14.1714C13.0289 13.9944 13.2483 13.7101 13.4476 13.4795C13.6461 13.2488 13.7123 13.0842 13.8451 12.8208C13.9779 12.5571 13.9114 12.3264 13.8121 12.1288C13.7123 11.9313 12.9387 9.97764 12.5847 9.19662Z" fill="white"/>
</g>
<defs>
<linearGradient id="paint0_linear_2336_5850" x1="1545.64" y1="3079.56" x2="1545.64" y2="0.552246" gradientUnits="userSpaceOnUse">
<stop stop-color="#1FAF38"/>
<stop offset="1" stop-color="#60D669"/>
</linearGradient>
<linearGradient id="paint1_linear_2336_5850" x1="1600.5" y1="3189.42" x2="1600.5" y2="0" gradientUnits="userSpaceOnUse">
<stop stop-color="#F9F9F9"/>
<stop offset="1" stop-color="white"/>
</linearGradient>
<clipPath id="clip0_2336_5850">
<rect width="32" height="32" fill="white" transform="translate(0.5)"/>
</clipPath>
</defs>
</svg>
