<svg width="20" height="21" viewBox="0 0 20 21" fill="none" xmlns="http://www.w3.org/2000/svg">
<g clip-path="url(#clip0_1536_3843)">
<path d="M10.8503 15.2575V14.6884C10.8584 14.2796 10.8664 13.9108 10.8503 13.5341C10.8022 11.506 10.3928 9.56612 9.64629 7.77053C9.07638 6.40781 8.32185 5.14128 7.40678 3.99498C7.28637 3.84268 7.16597 3.69839 7.03754 3.5541C5.95391 3.07314 4.83014 2.66432 3.69031 2.32765C3.45753 2.26352 3.23278 2.18336 3 2.14328C3.40937 2.504 3.77861 2.91282 4.13982 3.32164C4.8783 4.18737 5.53651 5.13326 6.07431 6.13526C6.97332 7.79458 7.55929 9.63827 7.66364 11.522C7.73588 12.8046 7.5914 14.0952 7.24624 15.3297C6.7887 16.981 5.98601 18.52 4.99068 19.9148C4.85422 20.1152 4.70171 20.2996 4.57328 20.5C8.20144 18.7445 11.8216 16.989 15.4497 15.2335C15.9153 15.009 16.3728 14.7765 16.8384 14.5681C16.8384 14.4078 16.7902 14.2555 16.7662 14.1032C16.5334 13.029 16.124 11.995 15.6103 11.025C14.7434 11.7946 13.8765 12.5641 13.0096 13.3337L10.8423 15.2575H10.8503Z" fill="url(#paint0_linear_1536_3843)"/>
<path d="M4.36447 0.5C4.79793 0.572144 5.22335 0.692385 5.64878 0.804609C7.64748 1.3497 9.56591 2.1994 11.2917 3.34569C13.1379 4.57214 14.7754 6.12725 16.0517 7.94689C16.3487 8.37976 16.6296 8.82064 16.8624 9.29359C16.8865 9.32565 16.8463 9.3497 16.8303 9.36573C16.3968 9.7505 15.9553 10.1433 15.5219 10.5281C14.0851 11.8026 12.6482 13.0852 11.2034 14.3597C11.2034 13.9749 11.2034 13.5902 11.2034 13.2134C11.1552 11.2335 10.7539 9.2535 9.99134 7.42585C9.42143 6.06313 8.6669 4.78056 7.73578 3.63427C7.06152 2.78457 6.29896 2.00701 5.45613 1.30962C5.10295 1.02104 4.74174 0.740481 4.35645 0.508016L4.36447 0.5Z" fill="url(#paint1_linear_1536_3843)"/>
</g>
<defs>
<linearGradient id="paint0_linear_1536_3843" x1="69.7518" y1="11.3297" x2="2.72709" y2="11.3297" gradientUnits="userSpaceOnUse">
<stop offset="0.1" stop-color="#956A28"/>
<stop offset="0.34" stop-color="#F5D359"/>
<stop offset="0.6" stop-color="#DBA02D"/>
<stop offset="0.84" stop-color="#F5D458"/>
<stop offset="0.99" stop-color="#A6772B"/>
</linearGradient>
<linearGradient id="paint1_linear_1536_3843" x1="69.7517" y1="7.42585" x2="2.72698" y2="7.42585" gradientUnits="userSpaceOnUse">
<stop offset="0.1" stop-color="#956A28"/>
<stop offset="0.34" stop-color="#F5D359"/>
<stop offset="0.6" stop-color="#DBA02D"/>
<stop offset="0.84" stop-color="#F5D458"/>
<stop offset="0.99" stop-color="#A6772B"/>
</linearGradient>
<clipPath id="clip0_1536_3843">
<rect width="20" height="20" fill="white" transform="translate(0 0.5)"/>
</clipPath>
</defs>
</svg>
