<svg width="35" height="34" viewBox="0 0 35 34" fill="none" xmlns="http://www.w3.org/2000/svg">
<rect x="0.5" width="34" height="34" rx="17" fill="white"/>
<path d="M17.4973 13.5986C15.6244 13.5986 14.0959 15.1271 14.0959 17C14.0959 18.873 15.6244 20.4015 17.4973 20.4015C19.3702 20.4015 20.8987 18.873 20.8987 17C20.8987 15.1271 19.3702 13.5986 17.4973 13.5986ZM27.6989 17C27.6989 15.5915 27.7117 14.1957 27.6326 12.7897C27.5535 11.1566 27.1809 9.70722 25.9867 8.51301C24.79 7.31626 23.3432 6.94626 21.7101 6.86715C20.3016 6.78805 18.9058 6.80081 17.4999 6.80081C16.0913 6.80081 14.6956 6.78805 13.2896 6.86715C11.6565 6.94626 10.2072 7.31881 9.01298 8.51301C7.81625 9.70977 7.44625 11.1566 7.36715 12.7897C7.28805 14.1983 7.30081 15.594 7.30081 17C7.30081 18.406 7.28805 19.8044 7.36715 21.2104C7.44625 22.8435 7.8188 24.2929 9.01298 25.4871C10.2097 26.6838 11.6565 27.0538 13.2896 27.1329C14.6981 27.212 16.0939 27.1993 17.4999 27.1993C18.9084 27.1993 20.3042 27.212 21.7101 27.1329C23.3432 27.0538 24.7925 26.6813 25.9867 25.4871C27.1835 24.2903 27.5535 22.8435 27.6326 21.2104C27.7142 19.8044 27.6989 18.4086 27.6989 17ZM17.4973 22.2336C14.6012 22.2336 12.2638 19.8963 12.2638 17C12.2638 14.1038 14.6012 11.7665 17.4973 11.7665C20.3935 11.7665 22.7308 14.1038 22.7308 17C22.7308 19.8963 20.3935 22.2336 17.4973 22.2336ZM22.9451 12.7744C22.2689 12.7744 21.7229 12.2283 21.7229 11.5521C21.7229 10.8759 22.2689 10.3298 22.9451 10.3298C23.6213 10.3298 24.1674 10.8759 24.1674 11.5521C24.1676 11.7127 24.1361 11.8717 24.0748 12.0201C24.0134 12.1685 23.9234 12.3033 23.8098 12.4168C23.6963 12.5304 23.5615 12.6204 23.4131 12.6818C23.2647 12.7431 23.1057 12.7746 22.9451 12.7744Z" fill="black"/>
</svg>
