<?xml version="1.0" encoding="UTF-8"?><svg id="Layer_1" xmlns="http://www.w3.org/2000/svg" viewBox="0 0 34 34"><defs><style>.cls-1{fill:none;}</style></defs><circle class="cls-1" cx="17" cy="17" r="17"/><path d="m23.62,10.67c-.84-.85-1.85-1.53-2.95-1.99-1.11-.46-2.29-.69-3.49-.69-5.02,0-9.11,4.09-9.11,9.11,0,1.61.42,3.17,1.21,4.55l-1.29,4.72,4.83-1.27c1.33.73,2.83,1.11,4.36,1.11,5.02,0,9.11-4.09,9.11-9.11,0-2.44-.95-4.72-2.67-6.44Zm-6.44,14.01c-1.36,0-2.69-.37-3.86-1.06l-.28-.17-2.87.75.76-2.79-.18-.28c-.76-1.21-1.16-2.6-1.16-4.03,0-4.17,3.4-7.57,7.57-7.57,2.02,0,3.92.79,5.35,2.22.71.7,1.26,1.54,1.64,2.46s.57,1.91.57,2.9c.02,4.17-3.38,7.56-7.56,7.56Zm4.15-5.66c-.23-.11-1.35-.66-1.55-.74-.21-.07-.36-.11-.51.11-.16.23-.59.74-.72.89-.13.16-.27.17-.5.06-.23-.11-.97-.36-1.83-1.13-.68-.61-1.13-1.35-1.27-1.58-.13-.23-.02-.35.1-.47.1-.1.23-.27.34-.4s.16-.23.23-.38c.07-.16.04-.28-.02-.4-.06-.11-.51-1.23-.7-1.69-.18-.44-.38-.39-.51-.4h-.44c-.16,0-.4.06-.61.28-.2.23-.79.78-.79,1.9s.82,2.21.93,2.35c.11.16,1.61,2.45,3.89,3.44.54.24.96.38,1.3.48.54.17,1.04.15,1.43.09.44-.06,1.35-.55,1.53-1.08.19-.53.19-.98.13-1.08-.06-.1-.2-.15-.43-.26Z"/></svg>