<?xml version="1.0" encoding="UTF-8"?><svg id="Layer_1" xmlns="http://www.w3.org/2000/svg" viewBox="0 0 34 34"><defs><style>.cls-1{fill:none;}</style></defs><circle class="cls-1" cx="17" cy="17" r="17"/><path d="m12.27,10.37c0,1-.84,1.81-1.87,1.81s-1.87-.81-1.87-1.81.84-1.81,1.87-1.81,1.87.81,1.87,1.81Z"/><path d="m8.59,25.44h3.62v-12.06h-3.62v12.06Z"/><path d="m21.86,25.44h3.62v-6.81c0-1.63-.38-2.79-1.15-3.66-.76-.86-1.76-1.21-3-1.21-1.63,0-2.81.82-3.55,2.02h-.07l-.22-2.41h-2.86c.05,1.21,0,12.06,0,12.06h3.62v-7.55c.3-.94.9-1.41,1.83-1.41,1.19,0,1.78.84,1.78,2.52v6.44Z"/></svg>