<?xml version="1.0" encoding="UTF-8"?><svg id="Layer_1" xmlns="http://www.w3.org/2000/svg" viewBox="0 0 34 34"><defs><style>.cls-1{fill:none;}.cls-2{fill-rule:evenodd;}</style></defs><circle class="cls-1" cx="17" cy="17" r="17"/><path class="cls-2" d="m23.34,9.09c.23-.1.48-.13.73-.1.25.03.48.13.68.29.2.16.35.36.44.59.09.23.12.49.08.73l-2.12,12.86c-.21,1.24-1.57,1.95-2.7,1.33-.95-.52-2.36-1.31-3.64-2.14-.64-.42-2.58-1.75-2.34-2.7.21-.81,3.48-3.86,5.35-5.67.73-.71.4-1.12-.47-.47-2.15,1.62-5.61,4.1-6.75,4.79-1.01.61-1.53.72-2.16.61-1.15-.19-2.21-.49-3.08-.85-1.17-.49-1.12-2.1,0-2.57l15.98-6.73Z"/></svg>