<svg width="25" height="25" viewBox="0 0 25 25" fill="none" xmlns="http://www.w3.org/2000/svg">
<path fill-rule="evenodd" clip-rule="evenodd" d="M5.5 20.6777H19.5C19.7652 20.6777 20.0196 20.7831 20.2071 20.9706C20.3946 21.1582 20.5 21.4125 20.5 21.6777C20.5 21.943 20.3946 22.1973 20.2071 22.3848C20.0196 22.5724 19.7652 22.6777 19.5 22.6777H5.5C5.23478 22.6777 4.98043 22.5724 4.79289 22.3848C4.60536 22.1973 4.5 21.943 4.5 21.6777C4.5 21.4125 4.60536 21.1582 4.79289 20.9706C4.98043 20.7831 5.23478 20.6777 5.5 20.6777ZM4.5 15.6777L14.5 5.67773L17.5 8.67773L7.5 18.6777H4.5V15.6777ZM15.5 4.67773L17.5 2.67773L20.5 5.67773L18.499 7.67873L15.5 4.67773Z" fill="#222222"/>
</svg>
