<svg width="25" height="25" viewBox="0 0 25 25" fill="none" xmlns="http://www.w3.org/2000/svg">
<g id="Frame 1889">
<g id="Group 919">
<g id="Group 23">
<path id="Subtract" fill-rule="evenodd" clip-rule="evenodd" d="M20.5481 11.19C20.865 10.5849 21.0687 9.91742 21.1593 9.18762C21.1898 8.82368 21.2051 8.56589 21.2051 8.41425C21.2051 7.09498 20.7923 6.04865 19.9667 5.27529C19.1564 4.50192 18.0557 4.11523 16.6644 4.11523H14.6179L14.1995 7.34518H15.6783C16.2287 7.34518 16.6644 7.49682 16.9855 7.80011C17.3218 8.08822 17.49 8.47491 17.49 8.96016C17.49 9.49396 17.3465 9.94646 17.0597 10.3177C17.973 10.3504 19.4026 10.5198 20.5481 11.19Z" fill="#454545"/>
<path id="Plus" d="M20.644 12.0729C19.8978 11.4046 18.8802 11.0704 17.5913 11.0704L13.1683 11.0703L12.7916 14.0595H16.6503C17.3036 14.0595 18.1572 14.5153 18.1572 15.3674C18.1572 16.4883 17.3719 17.256 16.2791 17.256H12.9271L12.5607 20.0934H16.3401C18.805 20.0934 21.5787 18.2267 21.7739 15.6558C21.8011 15.5045 21.8146 15.2838 21.8146 14.9937C21.8146 13.8588 21.3902 12.7287 20.644 12.0729Z" fill="#FFAB2E"/>
<path id="Plus_2" d="M3.1853 14.0595H17.1239L17.5006 11.0703H3.56202L3.1853 14.0595Z" fill="#FFAB2E"/>
<g id="Plus_3">
<path d="M3.1853 14.0752H10.0137L10.343 11.0703H3.56202L3.1853 14.0752Z" fill="url(#paint0_linear_4504_21384)" style="mix-blend-mode:multiply"/>
</g>
<g id="Plus_4">
<path d="M10.4319 14.0752H17.0994L17.5006 11.0703H10.7197L10.4319 14.0752Z" fill="url(#paint1_linear_4504_21384)" style="mix-blend-mode:multiply"/>
</g>
<path id="Plus_5" d="M7.75149 20.0127C7.80548 20.0662 7.87971 20.093 7.9742 20.093L11.5586 20.093L13.625 4.07617C12.5236 4.08822 11.3703 4.07708 10.2689 4.07708C10.1744 4.07708 10.1001 4.10385 10.0461 4.15739C9.99216 4.21093 9.95841 4.28455 9.94491 4.37824L7.71099 19.7918C7.6975 19.8855 7.71099 19.9592 7.75149 20.0127Z" fill="#FFAB2E"/>
</g>
</g>
</g>
<defs>
<linearGradient id="paint0_linear_4504_21384" x1="10.2726" y1="12.6092" x2="3.3428" y2="12.6092" gradientUnits="userSpaceOnUse">
<stop offset="0.0968749" stop-color="#7C5F12"/>
<stop offset="0.654167" stop-color="#F3B71B" stop-opacity="0"/>
</linearGradient>
<linearGradient id="paint1_linear_4504_21384" x1="10.9091" y1="12.2905" x2="17.4295" y2="12.2905" gradientUnits="userSpaceOnUse">
<stop offset="0.154167" stop-color="#84620B"/>
<stop offset="0.755208" stop-color="#FFC328" stop-opacity="0"/>
</linearGradient>
</defs>
</svg>
