<svg width="16" height="15" viewBox="0 0 16 15" fill="none" xmlns="http://www.w3.org/2000/svg">
<path d="M6.942 9.49782C6.8649 9.49703 6.73136 9.43821 6.72182 9.38733C6.57635 8.65126 6.00641 8.20373 5.58194 7.65208C4.68132 6.48358 4.87846 4.831 6.00085 3.85805C7.11052 2.89622 8.77742 2.96379 9.81873 4.01226C10.8569 5.05754 10.926 6.74192 9.93081 7.82537C9.47692 8.31979 9.03814 8.8015 8.90619 9.50339C8.23609 9.50339 7.58905 9.50736 6.942 9.49862V9.49782ZM9.22733 5.92318C9.25753 6.16721 9.35689 6.3723 9.61047 6.31109C9.76467 6.27373 9.87834 6.06785 9.93717 6.00983C9.89345 4.85087 9.00794 3.95343 7.98491 3.88507C7.73451 3.86838 7.51274 3.92164 7.49287 4.21257C7.47379 4.47886 7.66297 4.55914 7.90462 4.58776C8.69713 4.68235 9.12796 5.11795 9.22892 5.92318H9.22733Z" fill="white"/>
<path d="M6.79415 10.2299H8.85452V10.8722H6.79415V10.2299Z" fill="white"/>
<path d="M7.84262 1.75873C7.38874 1.76827 7.49287 1.36605 7.47458 1.05525C7.504 0.797702 7.37522 0.383562 7.83308 0.390716C8.27584 0.397076 8.17807 0.800882 8.18363 1.08863C8.1884 1.37003 8.25279 1.74919 7.84262 1.75794V1.75873Z" fill="white"/>
<path d="M12.0564 5.97724C12.0603 5.56707 12.4379 5.6243 12.7209 5.62987C13.0078 5.63623 13.4117 5.53527 13.4236 5.97644C13.4355 6.43509 13.0253 6.31507 12.7503 6.33891C12.4554 6.32063 12.0524 6.42953 12.0564 5.97724Z" fill="white"/>
<path d="M9.94512 2.34059C9.89901 2.18082 9.78455 2.00197 9.8227 1.86445C9.88311 1.64506 10.0333 1.44475 10.1677 1.25238C10.2281 1.16574 10.3434 1.11725 10.3895 1.08386C10.7162 1.08148 10.8823 1.32631 10.7686 1.57749C10.6716 1.79132 10.5691 2.01787 10.4117 2.1832C10.3116 2.28813 10.1049 2.29131 9.94591 2.34059H9.94512Z" fill="white"/>
<path d="M5.3856 2.33741C5.20278 2.02899 5.01756 1.72058 4.86574 1.39626C4.8411 1.343 4.95795 1.16574 5.0438 1.13235C5.14634 1.09181 5.34983 1.09817 5.39752 1.16494C5.58512 1.42646 5.76397 1.70786 5.87049 2.00912C5.90626 2.10928 5.71548 2.29051 5.64156 2.41213C5.48178 2.36841 5.40468 2.37 5.3856 2.33741Z" fill="white"/>
<path d="M12.36 2.94312C12.4951 3.04169 12.6287 3.09097 12.6668 3.1808C12.7113 3.28493 12.7209 3.49557 12.6605 3.5377C12.3846 3.73007 12.0937 3.928 11.7781 4.02895C11.5357 4.10685 11.306 3.73245 11.4856 3.55281C11.7297 3.30957 12.0556 3.14821 12.3592 2.94312H12.36Z" fill="white"/>
<path d="M3.5947 5.98757C3.59311 6.43112 3.20759 6.31506 2.9262 6.33971C2.65514 6.30394 2.23623 6.45497 2.23941 5.98359C2.24259 5.52415 2.65275 5.63623 2.93812 5.63146C3.21713 5.62669 3.59629 5.55197 3.5947 5.98757Z" fill="white"/>
<path d="M11.9268 7.95652C12.1525 8.05747 12.3846 8.17353 12.5651 8.33807C12.6613 8.42551 12.732 8.69339 12.6732 8.76334C12.5858 8.86986 12.356 8.94378 12.2209 8.90722C12.0007 8.8476 11.8004 8.69816 11.6072 8.56382C11.5206 8.50341 11.4721 8.38735 11.4379 8.34046C11.43 8.01375 11.6732 7.84206 11.9268 7.95652Z" fill="white"/>
<path d="M3.40631 8.93265C3.16387 9.03917 2.93733 8.87463 2.93176 8.59244C2.9413 8.55826 2.93892 8.46367 2.97946 8.43823C3.26721 8.25858 3.55496 8.07417 3.86338 7.93903C3.93253 7.90883 4.14477 8.04873 4.18372 8.15048C4.22347 8.25381 4.171 8.4589 4.08436 8.52964C3.88246 8.69498 3.64558 8.82693 3.40472 8.93265H3.40631Z" fill="white"/>
<path d="M3.85622 4.11559C3.5486 3.9113 3.24734 3.73325 2.97866 3.51545C2.92143 3.46934 2.93653 3.23723 3.00171 3.16251C3.07802 3.07428 3.27277 2.99559 3.36657 3.03374C3.62968 3.14105 3.88484 3.29049 4.10741 3.46775C4.1877 3.53134 4.21234 3.73484 4.17816 3.8493C4.14954 3.94548 3.99851 4.0051 3.85702 4.11639L3.85622 4.11559Z" fill="white"/>
<path d="M7.1765 11.6138H8.49364C8.45628 12.0574 8.21384 12.299 7.82752 12.2982C7.43722 12.2974 7.19319 12.0486 7.1765 11.6138Z" fill="white"/>
<path d="M6.24586 12.4443C5.0762 14.6857 1.99413 13.1614 0.809034 10.8434C2.55081 11.7524 3.99285 8.4312 6.0665 11.5203C6.0665 11.5203 4.13087 10.836 3.4061 11.539C5.34126 11.6735 6.24586 12.4443 6.24586 12.4443Z" fill="white"/>
<path d="M9.31518 12.7529C10.4848 14.9943 13.5669 13.47 14.752 11.152C13.0102 12.061 11.5682 8.7398 9.49453 11.8288C9.49453 11.8288 11.4302 11.1446 12.1549 11.8476C10.2198 11.9821 9.31518 12.7529 9.31518 12.7529Z" fill="white"/>
</svg>
