<?xml version="1.0" encoding="utf-8"?>
<!-- Generator: Adobe Illustrator 27.4.0, SVG Export Plug-In . SVG Version: 6.00 Build 0)  -->
<svg version="1.1" id="Layer_1" xmlns="http://www.w3.org/2000/svg" xmlns:xlink="http://www.w3.org/1999/xlink" x="0px" y="0px"
	 viewBox="0 0 37 37" style="enable-background:new 0 0 37 37;" xml:space="preserve">
<style type="text/css">
	.st0{fill-rule:evenodd;clip-rule:evenodd;}
</style>
<path class="st0" d="M18.5,3.5c-8.3,0-15,6.7-15,15s6.7,15,15,15s15-6.7,15-15S26.8,3.5,18.5,3.5z M13.2,13.2c0-0.7,0.1-1.4,0.4-2
	c0.3-0.6,0.7-1.2,1.1-1.7c0.5-0.5,1.1-0.9,1.7-1.1c0.6-0.3,1.3-0.4,2-0.4s1.4,0.1,2,0.4c0.6,0.3,1.2,0.7,1.7,1.1
	c0.5,0.5,0.9,1.1,1.1,1.7c0.3,0.6,0.4,1.3,0.4,2c0,1.4-0.6,2.7-1.5,3.7s-2.3,1.5-3.7,1.5s-2.7-0.6-3.7-1.5S13.2,14.6,13.2,13.2z
	 M8.4,25c2.5-2,6.1-3.5,10.1-3.5S26.1,23,28.6,25c-1.1,1.7-2.6,3.1-4.3,4c-1.8,1-3.7,1.5-5.7,1.5c-2,0-4-0.5-5.7-1.5
	C11,28.1,9.5,26.7,8.4,25z"/>
</svg>
