<svg width="24" height="24" viewBox="0 0 24 24" fill="none" xmlns="http://www.w3.org/2000/svg">
<path d="M6.34304 4.93806C6.43601 5.03094 6.50977 5.14122 6.56009 5.26262C6.61042 5.38402 6.63632 5.51415 6.63632 5.64556C6.63632 5.77698 6.61042 5.9071 6.56009 6.0285C6.50977 6.1499 6.43601 6.26019 6.34304 6.35306C4.84247 7.85388 3.99949 9.88927 3.99949 12.0116C3.99949 14.1339 4.84247 16.1692 6.34304 17.6701C6.43588 17.763 6.50952 17.8733 6.55974 17.9946C6.60996 18.116 6.63578 18.2461 6.63574 18.3774C6.63569 18.5088 6.60977 18.6388 6.55947 18.7601C6.50916 18.8815 6.43545 18.9917 6.34254 19.0846C6.24963 19.1774 6.13934 19.251 6.01797 19.3013C5.8966 19.3515 5.76653 19.3773 5.63518 19.3773C5.50383 19.3772 5.37378 19.3513 5.25245 19.301C5.13111 19.2507 5.02088 19.177 4.92804 19.0841C1.02204 15.1781 1.02204 8.84406 4.92804 4.93806C5.02091 4.84509 5.1312 4.77133 5.25259 4.721C5.37399 4.67068 5.50412 4.64478 5.63554 4.64478C5.76695 4.64478 5.89708 4.67068 6.01848 4.721C6.13987 4.77133 6.25016 4.84509 6.34304 4.93806ZM19.074 4.93806C22.98 8.84506 22.98 15.1781 19.074 19.0841C18.8854 19.2662 18.6328 19.367 18.3706 19.3647C18.1084 19.3625 17.8576 19.2573 17.6722 19.0719C17.4868 18.8865 17.3816 18.6357 17.3794 18.3735C17.3771 18.1113 17.4779 17.8587 17.66 17.6701C19.1606 16.1692 20.0036 14.1339 20.0036 12.0116C20.0036 9.88927 19.1606 7.85388 17.66 6.35306C17.4724 6.16555 17.3669 5.91119 17.3668 5.64592C17.3667 5.38065 17.472 5.1262 17.6595 4.93856C17.847 4.75092 18.1014 4.64545 18.3667 4.64536C18.632 4.64527 18.8864 4.75055 19.074 4.93806ZM9.31004 7.81206C9.49751 7.99959 9.60282 8.2539 9.60282 8.51906C9.60282 8.78423 9.49751 9.03853 9.31004 9.22606C8.94599 9.59007 8.65721 10.0222 8.46018 10.4979C8.26316 10.9735 8.16175 11.4832 8.16175 11.9981C8.16175 12.5129 8.26316 13.0227 8.46018 13.4983C8.65721 13.9739 8.94599 14.4061 9.31004 14.7701C9.40555 14.8623 9.48173 14.9727 9.53414 15.0947C9.58655 15.2167 9.61413 15.3479 9.61529 15.4807C9.61644 15.6134 9.59114 15.7451 9.54086 15.868C9.49058 15.9909 9.41632 16.1026 9.32243 16.1965C9.22854 16.2904 9.11689 16.3646 8.99399 16.4149C8.87109 16.4652 8.73941 16.4905 8.60663 16.4893C8.47386 16.4882 8.34263 16.4606 8.22063 16.4082C8.09863 16.3558 7.98828 16.2796 7.89604 16.1841C6.78586 15.0739 6.16218 13.5681 6.16218 11.9981C6.16218 10.428 6.78586 8.92227 7.89604 7.81206C8.08356 7.62459 8.33787 7.51928 8.60303 7.51928C8.8682 7.51928 9.12251 7.62459 9.31004 7.81206ZM16.269 7.81206C17.3792 8.92227 18.0029 10.428 18.0029 11.9981C18.0029 13.5681 17.3792 15.0739 16.269 16.1841C16.1762 16.277 16.066 16.3507 15.9446 16.401C15.8233 16.4513 15.6932 16.4772 15.5619 16.4773C15.4305 16.4773 15.3005 16.4515 15.1791 16.4013C15.0577 16.351 14.9474 16.2774 14.8545 16.1846C14.7616 16.0917 14.6879 15.9815 14.6376 15.8601C14.5873 15.7388 14.5614 15.6088 14.5613 15.4774C14.5613 15.3461 14.5871 15.216 14.6373 15.0946C14.6876 14.9733 14.7612 14.863 14.854 14.7701C15.2181 14.4061 15.5069 13.9739 15.7039 13.4983C15.9009 13.0227 16.0023 12.5129 16.0023 11.9981C16.0023 11.4832 15.9009 10.9735 15.7039 10.4979C15.5069 10.0222 15.2181 9.59007 14.854 9.22606C14.6665 9.03842 14.5612 8.78398 14.5613 8.51871C14.5614 8.25344 14.6669 7.99907 14.8545 7.81156C15.0422 7.62405 15.2966 7.51877 15.5619 7.51886C15.8272 7.51895 16.0815 7.62442 16.269 7.81206ZM12.082 10.5821C12.279 10.5821 12.4741 10.6209 12.6561 10.6962C12.838 10.7716 13.0034 10.8821 13.1427 11.0214C13.282 11.1607 13.3925 11.326 13.4679 11.508C13.5432 11.69 13.582 11.8851 13.582 12.0821C13.582 12.279 13.5432 12.4741 13.4679 12.6561C13.3925 12.8381 13.282 13.0034 13.1427 13.1427C13.0034 13.282 12.838 13.3925 12.6561 13.4679C12.4741 13.5433 12.279 13.5821 12.082 13.5821C11.6842 13.5821 11.3027 13.424 11.0214 13.1427C10.7401 12.8614 10.582 12.4799 10.582 12.0821C10.582 11.6842 10.7401 11.3027 11.0214 11.0214C11.3027 10.7401 11.6842 10.5821 12.082 10.5821Z" fill="#FF3838"/>
</svg>
