<?xml version="1.0" encoding="utf-8"?>
<!-- Generator: Adobe Illustrator 27.4.1, SVG Export Plug-In . SVG Version: 6.00 Build 0)  -->
<svg version="1.1" id="Layer_1" xmlns="http://www.w3.org/2000/svg" xmlns:xlink="http://www.w3.org/1999/xlink" x="0px" y="0px"
	 viewBox="0 0 15 16" style="enable-background:new 0 0 15 16;" xml:space="preserve">
<style type="text/css">
	.st0{fill-rule:evenodd;clip-rule:evenodd;}
</style>
<path class="st0" d="M15,8.1c0,2-0.8,3.9-2.2,5.3s-3.3,2.2-5.3,2.2s-3.9-0.8-5.3-2.2C0.8,12,0,10.1,0,8.1c0-2,0.8-3.9,2.2-5.3
	c1.4-1.4,3.3-2.2,5.3-2.2s3.9,0.8,5.3,2.2S15,6.1,15,8.1z M11.3,5.3c-0.1-0.1-0.1-0.1-0.2-0.2c-0.1,0-0.2-0.1-0.3-0.1
	c-0.1,0-0.2,0-0.3,0.1c-0.1,0-0.2,0.1-0.2,0.2L7,9.5l-2-2C4.9,7.4,4.7,7.3,4.6,7.3S4.2,7.4,4.1,7.5C3.9,7.6,3.9,7.8,3.9,8
	c0,0.2,0.1,0.4,0.2,0.5L6.5,11c0.1,0.1,0.1,0.1,0.2,0.2c0.1,0,0.2,0.1,0.3,0.1c0.1,0,0.2,0,0.3-0.1c0.1,0,0.2-0.1,0.2-0.2l3.7-4.7
	c0.1-0.1,0.2-0.3,0.2-0.5C11.5,5.6,11.4,5.4,11.3,5.3L11.3,5.3z"/>
</svg>
