<?xml version="1.0" encoding="utf-8"?>
<!-- Generator: Adobe Illustrator 27.4.1, SVG Export Plug-In . SVG Version: 6.00 Build 0)  -->
<svg version="1.1" id="Layer_1" xmlns="http://www.w3.org/2000/svg" xmlns:xlink="http://www.w3.org/1999/xlink" x="0px" y="0px"
	 viewBox="0 0 60 42" style="enable-background:new 0 0 60 42;" xml:space="preserve">
<path d="M3.9,0C2,0,0.5,1.5,0.5,3.3v19.9c0,1.8,1.5,3.3,3.4,3.3h14.7c0.6,0,1,0.5,0.9,1.1c-0.1,0.5-0.3,1.1-0.5,1.6
	c-0.4,1-1,1.9-1.8,2.7c-0.8,0.8-1.7,1.4-2.7,1.8c-0.4,0.2-0.8,0.3-1.2,0.4c-1.1,0.3-2,1.1-2,2.2V40c0,1.1,0.9,2,2,1.9
	c1.5-0.2,2.9-0.5,4.2-1.1c2-0.8,3.8-2,5.3-3.5c1.5-1.5,2.7-3.3,3.5-5.2c0.7-1.8,1.2-3.7,1.2-5.6h0V3.3C27.5,1.5,26,0,24.1,0H3.9z"/>
<path d="M35.9,0c-1.9,0-3.4,1.5-3.4,3.3v19.9c0,1.8,1.5,3.3,3.4,3.3h14.7c0.6,0,1,0.5,0.9,1.1c-0.1,0.5-0.3,1.1-0.5,1.6
	c-0.4,1-1,1.9-1.8,2.7c-0.8,0.8-1.7,1.4-2.7,1.8c-0.4,0.2-0.8,0.3-1.2,0.4c-1.1,0.3-2,1.1-2,2.2V40c0,1.1,0.9,2,2,1.9
	c1.5-0.2,2.9-0.5,4.2-1.1c2-0.8,3.8-2,5.3-3.5c1.5-1.5,2.7-3.3,3.5-5.2c0.7-1.8,1.2-3.7,1.2-5.6h0V3.3C59.5,1.5,58,0,56.1,0H35.9z"
	/>
</svg>
