<svg width="25" height="25" viewBox="0 0 25 25" fill="none" xmlns="http://www.w3.org/2000/svg">
<g id="Frame 1976">
<g id="Group 921">
<path id="image 27 (Traced)" fill-rule="evenodd" clip-rule="evenodd" d="M2.97774 6.9493L2.02551 7.00881L2.09435 8.47257C2.13221 9.27766 2.23804 11.5819 2.32954 13.5932L2.49589 17.2501L5.36404 17.2382C8.18157 17.2266 8.24553 17.2196 8.98436 16.8418C10.0228 16.3109 10.4967 15.5705 10.5739 14.359C10.6466 13.2186 10.343 12.3423 9.67085 11.7522C9.40756 11.521 9.11601 11.3064 9.02308 11.2755C8.91667 11.24 9.04459 10.9359 9.36769 10.4558C9.76909 9.85918 9.88138 9.55042 9.88138 9.04262C9.88138 7.70161 8.44386 7.0048 5.52437 6.93037C4.64743 6.90814 3.50146 6.9166 2.97774 6.9493ZM6.07161 9.3128C6.76255 9.62758 6.71652 10.4311 5.98585 10.809C5.74751 10.9322 5.53484 11.0122 5.51318 10.9866C5.49153 10.9611 5.42972 10.5369 5.37594 10.0439C5.26867 9.06183 5.34497 8.98167 6.07161 9.3128ZM6.86982 13.7166C7.067 13.8615 7.24798 14.1438 7.27208 14.3437C7.33116 14.8347 6.69099 15.3441 6.08868 15.2853C5.65186 15.2426 5.65071 15.2403 5.60798 14.255L5.5651 13.2677L6.0382 13.3605C6.29848 13.4114 6.67263 13.5717 6.86982 13.7166Z" fill="#FCAF4E"/>
<path id="image 27 (Traced)_2" fill-rule="evenodd" clip-rule="evenodd" d="M12.3622 11.1535C11.7194 13.4837 11.1667 15.549 11.1339 15.7434C11.0865 16.0256 11.3622 16.2057 12.5026 16.6368C13.288 16.9336 14.026 17.1815 14.1427 17.1878C14.2596 17.1939 14.5108 16.4302 14.7027 15.4852C14.894 14.5427 15.1014 13.7716 15.1635 13.7716C15.2257 13.7716 15.4207 14.0071 15.5968 14.2952C15.7731 14.5833 16.2076 15.1574 16.5628 15.5709L17.2082 16.3232L17.9333 15.231C18.332 14.6305 18.7193 14.2063 18.7937 14.2885C18.8682 14.3708 19.1226 15.0378 19.359 15.7708C19.5955 16.5039 19.8213 17.1614 19.8608 17.2318C19.9695 17.4255 22.9748 16.0239 22.9748 15.7798C22.9748 15.6631 22.3813 13.8569 21.6559 11.7659C20.9304 9.67503 20.2787 7.72871 20.2073 7.44063C20.1359 7.15255 20.0224 6.9193 19.9554 6.92235C19.8882 6.9252 19.2334 7.82182 18.5003 8.91455C17.7673 10.0075 17.1246 10.9043 17.0723 10.9075C17.0199 10.9108 16.2488 10.0147 15.3586 8.91627C14.4685 7.81782 13.6932 6.91854 13.6357 6.91797C13.5782 6.9174 13.005 8.82335 12.3622 11.1535Z" fill="#8CC44B"/>
</g>
</g>
</svg>
