<svg width="25" height="24" viewBox="0 0 25 24" fill="none" xmlns="http://www.w3.org/2000/svg">
<path fill-rule="evenodd" clip-rule="evenodd" d="M19.5 9.6357C19.5 9.40471 19.4082 9.18319 19.2449 9.01986C19.0816 8.85652 18.8601 8.76476 18.6291 8.76476H15.7352V5.87094C15.7352 5.63995 15.6435 5.41842 15.4801 5.25509C15.3168 5.09176 15.0953 5 14.8643 5C14.6333 5 14.4118 5.09176 14.2485 5.25509C14.0851 5.41842 13.9934 5.63995 13.9934 5.87094V9.6357C13.9934 10.1176 14.3824 10.5066 14.8643 10.5066H18.6291C18.8601 10.5066 19.0816 10.4149 19.2449 10.2515C19.4082 10.0882 19.5 9.86669 19.5 9.6357ZM14.8643 19C15.0953 19 15.3168 18.9082 15.4801 18.7449C15.6435 18.5816 15.7352 18.3601 15.7352 18.1291V15.2341H18.6291C18.8601 15.2341 19.0816 15.1423 19.2449 14.979C19.4082 14.8157 19.5 14.5941 19.5 14.3631C19.5 14.1322 19.4082 13.9106 19.2449 13.7473C19.0816 13.584 18.8601 13.4922 18.6291 13.4922H14.8643C14.6333 13.4922 14.4118 13.584 14.2485 13.7473C14.0851 13.9106 13.9934 14.1322 13.9934 14.3631V18.1291C13.9934 18.6098 14.3824 19 14.8643 19ZM10.1357 19C9.90471 19 9.68319 18.9082 9.51986 18.7449C9.35652 18.5816 9.26476 18.3601 9.26476 18.1291V15.2341H6.37094C6.13995 15.2341 5.91842 15.1423 5.75509 14.979C5.59176 14.8157 5.5 14.5941 5.5 14.3631C5.5 14.1322 5.59176 13.9106 5.75509 13.7473C5.91842 13.584 6.13995 13.4922 6.37094 13.4922H10.1357C10.3667 13.4922 10.5882 13.584 10.7515 13.7473C10.9149 13.9106 11.0066 14.1322 11.0066 14.3631V18.1291C11.0066 18.3601 10.9149 18.5816 10.7515 18.7449C10.5882 18.9082 10.3667 19 10.1357 19ZM5.5 9.6357C5.5 9.40471 5.59176 9.18319 5.75509 9.01986C5.91842 8.85652 6.13995 8.76476 6.37094 8.76476H9.26476V5.87094C9.26476 5.63995 9.35652 5.41842 9.51986 5.25509C9.68319 5.09176 9.90471 5 10.1357 5C10.3667 5 10.5882 5.09176 10.7515 5.25509C10.9149 5.41842 11.0066 5.63995 11.0066 5.87094V9.6357C11.0066 9.86669 10.9149 10.0882 10.7515 10.2515C10.5882 10.4149 10.3667 10.5066 10.1357 10.5066H6.37094C6.13995 10.5066 5.91842 10.4149 5.75509 10.2515C5.59176 10.0882 5.5 9.86669 5.5 9.6357Z" fill="black"/>
</svg>
