<svg width="121" height="185" viewBox="0 0 121 185" fill="none" xmlns="http://www.w3.org/2000/svg">
<path d="M109.667 179C109.667 181.946 112.054 184.333 115 184.333C117.946 184.333 120.333 181.946 120.333 179C120.333 176.054 117.946 173.667 115 173.667C112.054 173.667 109.667 176.054 109.667 179ZM0 5L9.23025 11.938L10.6236 0.475363L0 5ZM2.37167 6.29556C2.91899 6.3695 3.42261 5.98576 3.49655 5.43845C3.57049 4.89113 3.18675 4.38751 2.63944 4.31357L2.37167 6.29556ZM12.5568 6.2018C12.0207 6.06906 11.4785 6.39605 11.3458 6.93214C11.213 7.46824 11.54 8.01043 12.0761 8.14317L12.5568 6.2018ZM16.8346 9.46205C17.3625 9.62427 17.922 9.3278 18.0842 8.79988C18.2464 8.27195 17.9499 7.71248 17.422 7.55027L16.8346 9.46205ZM26.8945 11.0473C26.3877 10.8277 25.7989 11.0604 25.5792 11.5671C25.3596 12.0739 25.5923 12.6627 26.099 12.8823L26.8945 11.0473ZM30.5771 14.9708C31.0711 15.2177 31.6717 15.0175 31.9187 14.5235C32.1656 14.0295 31.9654 13.4288 31.4714 13.1819L30.5771 14.9708ZM40.2466 18.1684C39.7813 17.8709 39.1629 18.0069 38.8654 18.4722C38.5679 18.9375 38.7039 19.5558 39.1692 19.8534L40.2466 18.1684ZM43.2675 22.6219C43.7173 22.9423 44.3417 22.8375 44.6621 22.3876C44.9826 21.9378 44.8777 21.3134 44.4279 20.993L43.2675 22.6219ZM52.3548 27.2313C51.9371 26.87 51.3056 26.9158 50.9443 27.3335C50.583 27.7512 50.6288 28.3827 51.0465 28.744L52.3548 27.2313ZM54.7182 32.064C55.1198 32.4432 55.7527 32.4251 56.1319 32.0236C56.5111 31.622 56.493 30.9891 56.0914 30.6099L54.7182 32.064ZM63.128 37.8256C62.7584 37.4152 62.1261 37.3822 61.7157 37.7517C61.3053 38.1213 61.2722 38.7536 61.6418 39.164L63.128 37.8256ZM64.8885 42.9081C65.2426 43.3319 65.8732 43.3884 66.2971 43.0344C66.7209 42.6803 66.7774 42.0496 66.4233 41.6258L64.8885 42.9081ZM72.6041 49.5705C72.2798 49.1235 71.6545 49.024 71.2075 49.3483C70.7605 49.6727 70.661 50.298 70.9853 50.745L72.6041 49.5705ZM73.8363 54.8084C74.1465 55.2654 74.7684 55.3844 75.2253 55.0743C75.6823 54.7641 75.8013 54.1422 75.4912 53.6853L73.8363 54.8084ZM80.8908 62.1669C80.6075 61.6928 79.9936 61.5381 79.5195 61.8214C79.0454 62.1047 78.8907 62.7187 79.174 63.1928L80.8908 62.1669ZM81.6658 67.4931C81.9364 67.9746 82.546 68.1455 83.0275 67.8749C83.509 67.6044 83.6799 66.9947 83.4093 66.5133L81.6658 67.4931ZM88.1104 75.3912C87.8639 74.897 87.2634 74.6963 86.7692 74.9429C86.275 75.1894 86.0742 75.7899 86.3208 76.2841L88.1104 75.3912ZM88.4904 80.7609C88.7256 81.2605 89.3214 81.4749 89.8211 81.2397C90.3208 81.0045 90.5352 80.4087 90.2999 79.9091L88.4904 80.7609ZM94.3781 89.0825C94.1644 88.5732 93.5783 88.3336 93.069 88.5473C92.5598 88.761 92.3202 89.3471 92.5339 89.8563L94.3781 89.0825ZM94.4139 94.4661C94.6174 94.9795 95.1986 95.2308 95.712 95.0273C96.2255 94.8238 96.4767 94.2426 96.2732 93.7292L94.4139 94.4661ZM99.7915 103.126C99.6075 102.606 99.0362 102.333 98.5154 102.516C97.9947 102.7 97.7217 103.272 97.9057 103.792L99.7915 103.126ZM99.5225 108.503C99.6971 109.027 100.263 109.31 100.787 109.136C101.311 108.961 101.595 108.395 101.42 107.871L99.5225 108.503ZM104.427 117.442C104.271 116.912 103.714 116.61 103.185 116.766C102.655 116.923 102.353 117.479 102.509 118.009L104.427 117.442ZM103.881 122.794C104.029 123.327 104.58 123.638 105.113 123.49C105.645 123.342 105.956 122.791 105.808 122.259L103.881 122.794ZM108.339 131.972C108.208 131.435 107.667 131.106 107.131 131.237C106.594 131.368 106.265 131.909 106.396 132.445L108.339 131.972ZM107.533 137.281C107.656 137.82 108.191 138.157 108.73 138.035C109.269 137.913 109.606 137.377 109.484 136.838L107.533 137.281ZM111.554 146.672C111.448 146.13 110.924 145.776 110.381 145.881C109.839 145.986 109.485 146.511 109.59 147.053L111.554 146.672ZM110.5 151.948C110.597 152.492 111.116 152.855 111.659 152.758C112.203 152.661 112.566 152.142 112.469 151.599L110.5 151.948ZM114.06 161.49C113.982 160.944 113.475 160.564 112.928 160.643C112.381 160.721 112.002 161.228 112.08 161.775L114.06 161.49ZM112.748 166.724C112.817 167.272 113.317 167.66 113.865 167.591C114.413 167.522 114.802 167.022 114.733 166.474L112.748 166.724ZM115.798 176.464C115.751 175.914 115.266 175.506 114.716 175.554C114.165 175.601 113.758 176.086 113.805 176.636L115.798 176.464ZM12.0761 8.14317C13.6854 8.54162 15.2714 8.98175 16.8346 9.46205L17.422 7.55027C15.8236 7.05915 14.202 6.60915 12.5568 6.2018L12.0761 8.14317ZM26.099 12.8823C27.6151 13.5395 29.1077 14.2362 30.5771 14.9708L31.4714 13.1819C29.9699 12.4312 28.4443 11.7191 26.8945 11.0473L26.099 12.8823ZM39.1692 19.8534C40.5581 20.7415 41.9241 21.6648 43.2675 22.6219L44.4279 20.993C43.0578 20.0169 41.6642 19.0748 40.2466 18.1684L39.1692 19.8534ZM51.0465 28.744C52.292 29.8213 53.5158 30.9285 54.7182 32.064L56.0914 30.6099C54.8683 29.4549 53.6229 28.3281 52.3548 27.2313L51.0465 28.744ZM61.6418 39.164C62.7442 40.3882 63.8263 41.6367 64.8885 42.9081L66.4233 41.6258C65.3457 40.3359 64.2474 39.0686 63.128 37.8256L61.6418 39.164ZM70.9853 50.745C71.9545 52.0808 72.9047 53.4358 73.8363 54.8084L75.4912 53.6853C74.5481 52.2958 73.5859 50.9237 72.6041 49.5705L70.9853 50.745ZM79.174 63.1928C80.0222 64.6125 80.8528 66.0464 81.6658 67.4931L83.4093 66.5133C82.5878 65.0515 81.7484 63.6022 80.8908 62.1669L79.174 63.1928ZM86.3208 76.2841C87.0607 77.7671 87.7838 79.2598 88.4904 80.7609L90.2999 79.9091C89.587 78.3946 88.8573 76.8882 88.1104 75.3912L86.3208 76.2841ZM92.5339 89.8563C93.1766 91.388 93.8032 92.925 94.4139 94.4661L96.2732 93.7292C95.6577 92.176 95.0261 90.6266 94.3781 89.0825L92.5339 89.8563ZM97.9057 103.792C98.4603 105.362 98.9991 106.933 99.5225 108.503L101.42 107.871C100.893 106.289 100.35 104.707 99.7915 103.126L97.9057 103.792ZM102.509 118.009C102.982 119.608 103.439 121.204 103.881 122.794L105.808 122.259C105.364 120.658 104.903 119.052 104.427 117.442L102.509 118.009ZM106.396 132.445C106.791 134.067 107.17 135.68 107.533 137.281L109.484 136.838C109.118 135.227 108.737 133.604 108.339 131.972L106.396 132.445ZM109.59 147.053C109.91 148.703 110.213 150.335 110.5 151.948L112.469 151.599C112.181 149.975 111.876 148.332 111.554 146.672L109.59 147.053ZM112.08 161.775C112.322 163.454 112.544 165.105 112.748 166.724L114.733 166.474C114.527 164.844 114.303 163.181 114.06 161.49L112.08 161.775ZM113.805 176.636C113.877 177.461 113.942 178.274 114.003 179.075L115.997 178.925C115.936 178.117 115.87 177.296 115.798 176.464L113.805 176.636Z" fill="#010101"/>
</svg>
