<svg width="203" height="522" viewBox="0 0 203 522" fill="none" xmlns="http://www.w3.org/2000/svg">
<g filter="url(#filter0_d_726_1223)">
<path d="M182.7 325.8H107.5V521.8H182.7V325.8Z" fill="#FFC000"/>
</g>
<g filter="url(#filter1_d_726_1223)">
<path d="M80.2 39.4004H5V521.8H80.2V39.4004Z" fill="#125EFA"/>
</g>
<mask id="path-3-outside-1_726_1223" maskUnits="userSpaceOnUse" x="-1" y="3" width="95" height="26" fill="black">
<rect fill="white" x="-1" y="3" width="95" height="26"/>
<path d="M4.13916 24L1.59516 21.648V18.552H6.08316V19.872L6.80316 20.592H10.3072L11.0272 19.872V17.232L10.3072 16.536H5.24316V13.176H10.3072L11.0272 12.456V10.44L10.3072 9.72H6.80316L6.08316 10.44V11.76H1.59516V8.664L4.11516 6.312H12.8512L15.5152 8.976V13.104L13.7392 14.856L15.5152 16.608V21.336L12.8512 24H4.13916ZM17.9227 24V20.448H20.3467V9.888H18.1627V6.312H24.8347V20.448H27.2347V24H17.9227ZM28.6396 26.64L29.7436 20.232H33.8956L31.1596 26.64H28.6396ZM39.6938 24L37.1498 21.648V18.288H41.8298V19.872L42.5258 20.592H45.8378L46.5578 19.872V16.608L45.8378 15.888H37.2938V6.312H50.5418V9.864H42.0938V12.744H48.8618L51.3818 15.096V21.648L48.8618 24H39.6938ZM56.446 24L53.782 21.336V8.976L56.446 6.312H65.326L67.99 8.976V21.336L65.326 24H56.446ZM59.11 20.592H62.662L63.502 19.752V10.56L62.662 9.72H59.11L58.27 10.56V19.752L59.11 20.592ZM73.9512 24.456L71.7672 22.296L88.1832 5.856L90.3672 8.04L73.9512 24.456ZM73.2072 15.216L70.5192 12.672V8.88L73.2072 6.312H77.2152L79.9272 8.88V12.672L77.2152 15.216H73.2072ZM74.6712 12.264H75.7752L76.6152 11.4V10.152L75.7752 9.288H74.6712L73.8312 10.152V11.4L74.6712 12.264ZM84.9432 24L82.2312 21.432V17.64L84.9432 15.096H88.9272L91.6392 17.64V21.432L88.9272 24H84.9432ZM86.3592 21.024H87.4872L88.3272 20.184V18.912L87.4872 18.072H86.3592L85.5192 18.912V20.184L86.3592 21.024Z"/>
</mask>
<path d="M4.13916 24L1.59516 21.648V18.552H6.08316V19.872L6.80316 20.592H10.3072L11.0272 19.872V17.232L10.3072 16.536H5.24316V13.176H10.3072L11.0272 12.456V10.44L10.3072 9.72H6.80316L6.08316 10.44V11.76H1.59516V8.664L4.11516 6.312H12.8512L15.5152 8.976V13.104L13.7392 14.856L15.5152 16.608V21.336L12.8512 24H4.13916ZM17.9227 24V20.448H20.3467V9.888H18.1627V6.312H24.8347V20.448H27.2347V24H17.9227ZM28.6396 26.64L29.7436 20.232H33.8956L31.1596 26.64H28.6396ZM39.6938 24L37.1498 21.648V18.288H41.8298V19.872L42.5258 20.592H45.8378L46.5578 19.872V16.608L45.8378 15.888H37.2938V6.312H50.5418V9.864H42.0938V12.744H48.8618L51.3818 15.096V21.648L48.8618 24H39.6938ZM56.446 24L53.782 21.336V8.976L56.446 6.312H65.326L67.99 8.976V21.336L65.326 24H56.446ZM59.11 20.592H62.662L63.502 19.752V10.56L62.662 9.72H59.11L58.27 10.56V19.752L59.11 20.592ZM73.9512 24.456L71.7672 22.296L88.1832 5.856L90.3672 8.04L73.9512 24.456ZM73.2072 15.216L70.5192 12.672V8.88L73.2072 6.312H77.2152L79.9272 8.88V12.672L77.2152 15.216H73.2072ZM74.6712 12.264H75.7752L76.6152 11.4V10.152L75.7752 9.288H74.6712L73.8312 10.152V11.4L74.6712 12.264ZM84.9432 24L82.2312 21.432V17.64L84.9432 15.096H88.9272L91.6392 17.64V21.432L88.9272 24H84.9432ZM86.3592 21.024H87.4872L88.3272 20.184V18.912L87.4872 18.072H86.3592L85.5192 18.912V20.184L86.3592 21.024Z" fill="black"/>
<path d="M4.13916 24L2.78145 25.4685L3.35629 26H4.13916V24ZM1.59516 21.648H-0.404844V22.5227L0.237446 23.1165L1.59516 21.648ZM1.59516 18.552V16.552H-0.404844V18.552H1.59516ZM6.08316 18.552H8.08316V16.552H6.08316V18.552ZM6.08316 19.872H4.08316V20.7004L4.66894 21.2862L6.08316 19.872ZM6.80316 20.592L5.38894 22.0062L5.97473 22.592H6.80316V20.592ZM10.3072 20.592V22.592H11.1356L11.7214 22.0062L10.3072 20.592ZM11.0272 19.872L12.4414 21.2862L13.0272 20.7004V19.872H11.0272ZM11.0272 17.232H13.0272V16.3836L12.4172 15.794L11.0272 17.232ZM10.3072 16.536L11.6972 15.098L11.1158 14.536H10.3072V16.536ZM5.24316 16.536H3.24316V18.536H5.24316V16.536ZM5.24316 13.176V11.176H3.24316V13.176H5.24316ZM10.3072 13.176V15.176H11.1356L11.7214 14.5902L10.3072 13.176ZM11.0272 12.456L12.4414 13.8702L13.0272 13.2844V12.456H11.0272ZM11.0272 10.44H13.0272V9.61157L12.4414 9.02579L11.0272 10.44ZM10.3072 9.72L11.7214 8.30579L11.1356 7.72H10.3072V9.72ZM6.80316 9.72V7.72H5.97473L5.38894 8.30579L6.80316 9.72ZM6.08316 10.44L4.66894 9.02579L4.08316 9.61157V10.44H6.08316ZM6.08316 11.76V13.76H8.08316V11.76H6.08316ZM1.59516 11.76H-0.404844V13.76H1.59516V11.76ZM1.59516 8.664L0.23052 7.20189L-0.404844 7.79489V8.664H1.59516ZM4.11516 6.312V4.312H3.32683L2.75052 4.84989L4.11516 6.312ZM12.8512 6.312L14.2654 4.89779L13.6796 4.312H12.8512V6.312ZM15.5152 8.976H17.5152V8.14757L16.9294 7.56179L15.5152 8.976ZM15.5152 13.104L16.9197 14.5278L17.5152 13.9404V13.104H15.5152ZM13.7392 14.856L12.3346 13.4322L10.8913 14.856L12.3346 16.2798L13.7392 14.856ZM15.5152 16.608H17.5152V15.7716L16.9197 15.1842L15.5152 16.608ZM15.5152 21.336L16.9294 22.7502L17.5152 22.1644V21.336H15.5152ZM12.8512 24V26H13.6796L14.2654 25.4142L12.8512 24ZM5.49687 22.5315L2.95287 20.1795L0.237446 23.1165L2.78145 25.4685L5.49687 22.5315ZM3.59516 21.648V18.552H-0.404844V21.648H3.59516ZM1.59516 20.552H6.08316V16.552H1.59516V20.552ZM4.08316 18.552V19.872H8.08316V18.552H4.08316ZM4.66894 21.2862L5.38894 22.0062L8.21737 19.1778L7.49737 18.4578L4.66894 21.2862ZM6.80316 22.592H10.3072V18.592H6.80316V22.592ZM11.7214 22.0062L12.4414 21.2862L9.61294 18.4578L8.89294 19.1778L11.7214 22.0062ZM13.0272 19.872V17.232H9.02716V19.872H13.0272ZM12.4172 15.794L11.6972 15.098L8.91711 17.974L9.63711 18.67L12.4172 15.794ZM10.3072 14.536H5.24316V18.536H10.3072V14.536ZM7.24316 16.536V13.176H3.24316V16.536H7.24316ZM5.24316 15.176H10.3072V11.176H5.24316V15.176ZM11.7214 14.5902L12.4414 13.8702L9.61294 11.0418L8.89294 11.7618L11.7214 14.5902ZM13.0272 12.456V10.44H9.02716V12.456H13.0272ZM12.4414 9.02579L11.7214 8.30579L8.89294 11.1342L9.61294 11.8542L12.4414 9.02579ZM10.3072 7.72H6.80316V11.72H10.3072V7.72ZM5.38894 8.30579L4.66894 9.02579L7.49737 11.8542L8.21737 11.1342L5.38894 8.30579ZM4.08316 10.44V11.76H8.08316V10.44H4.08316ZM6.08316 9.76H1.59516V13.76H6.08316V9.76ZM3.59516 11.76V8.664H-0.404844V11.76H3.59516ZM2.95979 10.1261L5.47979 7.77411L2.75052 4.84989L0.23052 7.20189L2.95979 10.1261ZM4.11516 8.312H12.8512V4.312H4.11516V8.312ZM11.4369 7.72621L14.1009 10.3902L16.9294 7.56179L14.2654 4.89779L11.4369 7.72621ZM13.5152 8.976V13.104H17.5152V8.976H13.5152ZM14.1106 11.6802L12.3346 13.4322L15.1437 16.2798L16.9197 14.5278L14.1106 11.6802ZM12.3346 16.2798L14.1106 18.0318L16.9197 15.1842L15.1437 13.4322L12.3346 16.2798ZM13.5152 16.608V21.336H17.5152V16.608H13.5152ZM14.1009 19.9218L11.4369 22.5858L14.2654 25.4142L16.9294 22.7502L14.1009 19.9218ZM12.8512 22H4.13916V26H12.8512V22ZM17.9227 24H15.9227V26H17.9227V24ZM17.9227 20.448V18.448H15.9227V20.448H17.9227ZM20.3467 20.448V22.448H22.3467V20.448H20.3467ZM20.3467 9.888H22.3467V7.888H20.3467V9.888ZM18.1627 9.888H16.1627V11.888H18.1627V9.888ZM18.1627 6.312V4.312H16.1627V6.312H18.1627ZM24.8347 6.312H26.8347V4.312H24.8347V6.312ZM24.8347 20.448H22.8347V22.448H24.8347V20.448ZM27.2347 20.448H29.2347V18.448H27.2347V20.448ZM27.2347 24V26H29.2347V24H27.2347ZM19.9227 24V20.448H15.9227V24H19.9227ZM17.9227 22.448H20.3467V18.448H17.9227V22.448ZM22.3467 20.448V9.888H18.3467V20.448H22.3467ZM20.3467 7.888H18.1627V11.888H20.3467V7.888ZM20.1627 9.888V6.312H16.1627V9.888H20.1627ZM18.1627 8.312H24.8347V4.312H18.1627V8.312ZM22.8347 6.312V20.448H26.8347V6.312H22.8347ZM24.8347 22.448H27.2347V18.448H24.8347V22.448ZM25.2347 20.448V24H29.2347V20.448H25.2347ZM27.2347 22H17.9227V26H27.2347V22ZM28.6396 26.64L26.6686 26.3004L26.2656 28.64H28.6396V26.64ZM29.7436 20.232V18.232H28.0587L27.7726 19.8924L29.7436 20.232ZM33.8956 20.232L35.735 21.0173L36.9242 18.232H33.8956V20.232ZM31.1596 26.64V28.64H32.4803L32.999 27.4253L31.1596 26.64ZM30.6106 26.9796L31.7146 20.5716L27.7726 19.8924L26.6686 26.3004L30.6106 26.9796ZM29.7436 22.232H33.8956V18.232H29.7436V22.232ZM32.0562 19.4467L29.3202 25.8547L32.999 27.4253L35.735 21.0173L32.0562 19.4467ZM31.1596 24.64H28.6396V28.64H31.1596V24.64ZM39.6938 24L38.3361 25.4685L38.911 26H39.6938V24ZM37.1498 21.648H35.1498V22.5227L35.7921 23.1165L37.1498 21.648ZM37.1498 18.288V16.288H35.1498V18.288H37.1498ZM41.8298 18.288H43.8298V16.288H41.8298V18.288ZM41.8298 19.872H39.8298V20.6806L40.3919 21.262L41.8298 19.872ZM42.5258 20.592L41.0879 21.982L41.6775 22.592H42.5258V20.592ZM45.8378 20.592V22.592H46.6663L47.2521 22.0062L45.8378 20.592ZM46.5578 19.872L47.9721 21.2862L48.5578 20.7004V19.872H46.5578ZM46.5578 16.608H48.5578V15.7796L47.9721 15.1938L46.5578 16.608ZM45.8378 15.888L47.2521 14.4738L46.6663 13.888H45.8378V15.888ZM37.2938 15.888H35.2938V17.888H37.2938V15.888ZM37.2938 6.312V4.312H35.2938V6.312H37.2938ZM50.5418 6.312H52.5418V4.312H50.5418V6.312ZM50.5418 9.864V11.864H52.5418V9.864H50.5418ZM42.0938 9.864V7.864H40.0938V9.864H42.0938ZM42.0938 12.744H40.0938V14.744H42.0938V12.744ZM48.8618 12.744L50.2265 11.2819L49.6502 10.744H48.8618V12.744ZM51.3818 15.096H53.3818V14.2269L52.7465 13.6339L51.3818 15.096ZM51.3818 21.648L52.7465 23.1101L53.3818 22.5171V21.648H51.3818ZM48.8618 24V26H49.6502L50.2265 25.4621L48.8618 24ZM41.0516 22.5315L38.5076 20.1795L35.7921 23.1165L38.3361 25.4685L41.0516 22.5315ZM39.1498 21.648V18.288H35.1498V21.648H39.1498ZM37.1498 20.288H41.8298V16.288H37.1498V20.288ZM39.8298 18.288V19.872H43.8298V18.288H39.8298ZM40.3919 21.262L41.0879 21.982L43.9638 19.202L43.2678 18.482L40.3919 21.262ZM42.5258 22.592H45.8378V18.592H42.5258V22.592ZM47.2521 22.0062L47.9721 21.2862L45.1436 18.4578L44.4236 19.1778L47.2521 22.0062ZM48.5578 19.872V16.608H44.5578V19.872H48.5578ZM47.9721 15.1938L47.2521 14.4738L44.4236 17.3022L45.1436 18.0222L47.9721 15.1938ZM45.8378 13.888H37.2938V17.888H45.8378V13.888ZM39.2938 15.888V6.312H35.2938V15.888H39.2938ZM37.2938 8.312H50.5418V4.312H37.2938V8.312ZM48.5418 6.312V9.864H52.5418V6.312H48.5418ZM50.5418 7.864H42.0938V11.864H50.5418V7.864ZM40.0938 9.864V12.744H44.0938V9.864H40.0938ZM42.0938 14.744H48.8618V10.744H42.0938V14.744ZM47.4972 14.2061L50.0172 16.5581L52.7465 13.6339L50.2265 11.2819L47.4972 14.2061ZM49.3818 15.096V21.648H53.3818V15.096H49.3818ZM50.0172 20.1859L47.4972 22.5379L50.2265 25.4621L52.7465 23.1101L50.0172 20.1859ZM48.8618 22H39.6938V26H48.8618V22ZM56.446 24L55.0318 25.4142L55.6176 26H56.446V24ZM53.782 21.336H51.782V22.1644L52.3678 22.7502L53.782 21.336ZM53.782 8.976L52.3678 7.56179L51.782 8.14757V8.976H53.782ZM56.446 6.312V4.312H55.6176L55.0318 4.89779L56.446 6.312ZM65.326 6.312L66.7402 4.89779L66.1545 4.312H65.326V6.312ZM67.99 8.976H69.99V8.14757L69.4042 7.56179L67.99 8.976ZM67.99 21.336L69.4042 22.7502L69.99 22.1644V21.336H67.99ZM65.326 24V26H66.1545L66.7402 25.4142L65.326 24ZM59.11 20.592L57.6958 22.0062L58.2816 22.592H59.11V20.592ZM62.662 20.592V22.592H63.4905L64.0762 22.0062L62.662 20.592ZM63.502 19.752L64.9162 21.1662L65.502 20.5804V19.752H63.502ZM63.502 10.56H65.502V9.73157L64.9162 9.14579L63.502 10.56ZM62.662 9.72L64.0762 8.30579L63.4905 7.72H62.662V9.72ZM59.11 9.72V7.72H58.2816L57.6958 8.30579L59.11 9.72ZM58.27 10.56L56.8558 9.14579L56.27 9.73157V10.56H58.27ZM58.27 19.752H56.27V20.5804L56.8558 21.1662L58.27 19.752ZM57.8602 22.5858L55.1962 19.9218L52.3678 22.7502L55.0318 25.4142L57.8602 22.5858ZM55.782 21.336V8.976H51.782V21.336H55.782ZM55.1962 10.3902L57.8602 7.72621L55.0318 4.89779L52.3678 7.56179L55.1962 10.3902ZM56.446 8.312H65.326V4.312H56.446V8.312ZM63.9118 7.72621L66.5758 10.3902L69.4042 7.56179L66.7402 4.89779L63.9118 7.72621ZM65.99 8.976V21.336H69.99V8.976H65.99ZM66.5758 19.9218L63.9118 22.5858L66.7402 25.4142L69.4042 22.7502L66.5758 19.9218ZM65.326 22H56.446V26H65.326V22ZM59.11 22.592H62.662V18.592H59.11V22.592ZM64.0762 22.0062L64.9162 21.1662L62.0878 18.3378L61.2478 19.1778L64.0762 22.0062ZM65.502 19.752V10.56H61.502V19.752H65.502ZM64.9162 9.14579L64.0762 8.30579L61.2478 11.1342L62.0878 11.9742L64.9162 9.14579ZM62.662 7.72H59.11V11.72H62.662V7.72ZM57.6958 8.30579L56.8558 9.14579L59.6842 11.9742L60.5242 11.1342L57.6958 8.30579ZM56.27 10.56V19.752H60.27V10.56H56.27ZM56.8558 21.1662L57.6958 22.0062L60.5242 19.1778L59.6842 18.3378L56.8558 21.1662ZM73.9512 24.456L72.5448 25.878L73.959 27.2766L75.3654 25.8702L73.9512 24.456ZM71.7672 22.296L70.352 20.8828L68.932 22.3049L70.3608 23.718L71.7672 22.296ZM88.1832 5.856L89.5974 4.44179L88.1822 3.02654L86.768 4.44282L88.1832 5.856ZM90.3672 8.04L91.7814 9.45421L93.1956 8.04L91.7814 6.62579L90.3672 8.04ZM73.2072 15.216L71.8324 16.6686L72.4108 17.216H73.2072V15.216ZM70.5192 12.672H68.5192V13.5329L69.1444 14.1246L70.5192 12.672ZM70.5192 8.88L69.1377 7.43387L68.5192 8.0247V8.88H70.5192ZM73.2072 6.312V4.312H72.4054L71.8257 4.86587L73.2072 6.312ZM77.2152 6.312L78.5904 4.85976L78.0119 4.312H77.2152V6.312ZM79.9272 8.88H81.9272V8.01944L81.3024 7.42776L79.9272 8.88ZM79.9272 12.672L81.2955 14.1307L81.9272 13.5381V12.672H79.9272ZM77.2152 15.216V17.216H78.0065L78.5835 16.6747L77.2152 15.216ZM74.6712 12.264L73.2372 13.6582L73.8262 14.264H74.6712V12.264ZM75.7752 12.264V14.264H76.6202L77.2092 13.6582L75.7752 12.264ZM76.6152 11.4L78.0492 12.7942L78.6152 12.212V11.4H76.6152ZM76.6152 10.152H78.6152V9.34002L78.0492 8.75784L76.6152 10.152ZM75.7752 9.288L77.2092 7.89384L76.6202 7.288H75.7752V9.288ZM74.6712 9.288V7.288H73.8262L73.2372 7.89384L74.6712 9.288ZM73.8312 10.152L72.3972 8.75784L71.8312 9.34002V10.152H73.8312ZM73.8312 11.4H71.8312V12.212L72.3972 12.7942L73.8312 11.4ZM84.9432 24L83.5681 25.4522L84.1466 26H84.9432V24ZM82.2312 21.432H80.2312V22.2926L80.8561 22.8842L82.2312 21.432ZM82.2312 17.64L80.8629 16.1813L80.2312 16.7739V17.64H82.2312ZM84.9432 15.096V13.096H84.152L83.5749 13.6373L84.9432 15.096ZM88.9272 15.096L90.2955 13.6373L89.7185 13.096H88.9272V15.096ZM91.6392 17.64H93.6392V16.7739L93.0075 16.1813L91.6392 17.64ZM91.6392 21.432L93.0144 22.8842L93.6392 22.2926V21.432H91.6392ZM88.9272 24V26H89.7239L90.3024 25.4522L88.9272 24ZM86.3592 21.024L84.945 22.4382L85.5308 23.024H86.3592V21.024ZM87.4872 21.024V23.024H88.3156L88.9014 22.4382L87.4872 21.024ZM88.3272 20.184L89.7414 21.5982L90.3272 21.0124V20.184H88.3272ZM88.3272 18.912H90.3272V18.0836L89.7414 17.4978L88.3272 18.912ZM87.4872 18.072L88.9014 16.6578L88.3156 16.072H87.4872V18.072ZM86.3592 18.072V16.072H85.5308L84.945 16.6578L86.3592 18.072ZM85.5192 18.912L84.105 17.4978L83.5192 18.0836V18.912H85.5192ZM85.5192 20.184H83.5192V21.0124L84.105 21.5982L85.5192 20.184ZM75.3576 23.034L73.1736 20.874L70.3608 23.718L72.5448 25.878L75.3576 23.034ZM73.1825 23.7092L89.5985 7.26918L86.768 4.44282L70.352 20.8828L73.1825 23.7092ZM86.769 7.27021L88.953 9.45421L91.7814 6.62579L89.5974 4.44179L86.769 7.27021ZM88.953 6.62579L72.537 23.0418L75.3654 25.8702L91.7814 9.45421L88.953 6.62579ZM74.582 13.7634L71.894 11.2194L69.1444 14.1246L71.8324 16.6686L74.582 13.7634ZM72.5192 12.672V8.88H68.5192V12.672H72.5192ZM71.9008 10.3261L74.5888 7.75812L71.8257 4.86587L69.1377 7.43387L71.9008 10.3261ZM73.2072 8.312H77.2152V4.312H73.2072V8.312ZM75.8401 7.76424L78.5521 10.3322L81.3024 7.42776L78.5904 4.85976L75.8401 7.76424ZM77.9272 8.88V12.672H81.9272V8.88H77.9272ZM78.5589 11.2133L75.8469 13.7573L78.5835 16.6747L81.2955 14.1307L78.5589 11.2133ZM77.2152 13.216H73.2072V17.216H77.2152V13.216ZM74.6712 14.264H75.7752V10.264H74.6712V14.264ZM77.2092 13.6582L78.0492 12.7942L75.1812 10.0058L74.3412 10.8698L77.2092 13.6582ZM78.6152 11.4V10.152H74.6152V11.4H78.6152ZM78.0492 8.75784L77.2092 7.89384L74.3412 10.6822L75.1812 11.5462L78.0492 8.75784ZM75.7752 7.288H74.6712V11.288H75.7752V7.288ZM73.2372 7.89384L72.3972 8.75784L75.2652 11.5462L76.1052 10.6822L73.2372 7.89384ZM71.8312 10.152V11.4H75.8312V10.152H71.8312ZM72.3972 12.7942L73.2372 13.6582L76.1052 10.8698L75.2652 10.0058L72.3972 12.7942ZM86.3184 22.5478L83.6064 19.9798L80.8561 22.8842L83.5681 25.4522L86.3184 22.5478ZM84.2312 21.432V17.64H80.2312V21.432H84.2312ZM83.5995 19.0987L86.3115 16.5547L83.5749 13.6373L80.8629 16.1813L83.5995 19.0987ZM84.9432 17.096H88.9272V13.096H84.9432V17.096ZM87.5589 16.5547L90.2709 19.0987L93.0075 16.1813L90.2955 13.6373L87.5589 16.5547ZM89.6392 17.64V21.432H93.6392V17.64H89.6392ZM90.2641 19.9798L87.5521 22.5478L90.3024 25.4522L93.0144 22.8842L90.2641 19.9798ZM88.9272 22H84.9432V26H88.9272V22ZM86.3592 23.024H87.4872V19.024H86.3592V23.024ZM88.9014 22.4382L89.7414 21.5982L86.913 18.7698L86.073 19.6098L88.9014 22.4382ZM90.3272 20.184V18.912H86.3272V20.184H90.3272ZM89.7414 17.4978L88.9014 16.6578L86.073 19.4862L86.913 20.3262L89.7414 17.4978ZM87.4872 16.072H86.3592V20.072H87.4872V16.072ZM84.945 16.6578L84.105 17.4978L86.9334 20.3262L87.7734 19.4862L84.945 16.6578ZM83.5192 18.912V20.184H87.5192V18.912H83.5192ZM84.105 21.5982L84.945 22.4382L87.7734 19.6098L86.9334 18.7698L84.105 21.5982Z" fill="#EDE5DA" mask="url(#path-3-outside-1_726_1223)"/>
<mask id="path-5-outside-2_726_1223" maskUnits="userSpaceOnUse" x="109" y="284" width="95" height="26" fill="black">
<rect fill="white" x="109" y="284" width="95" height="26"/>
<path d="M111.528 305V301.448H113.952V290.888H111.768V287.312H118.44V301.448H120.84V305H111.528ZM122.989 305V300.872L132.373 292.928V291.44L131.653 290.72H128.485L127.765 291.44V293.288H123.277V289.664L125.797 287.312H134.317L136.861 289.664V294.416L128.413 301.424H136.981V305H122.989ZM138.628 307.64L139.732 301.232H143.884L141.148 307.64H138.628ZM149.274 305L146.778 302.648V297.656L148.794 295.808L147.21 294.392V289.664L149.73 287.312H158.13L160.65 289.664V294.392L159.066 295.808L161.082 297.656V302.648L158.538 305H149.274ZM152.37 294.104H155.466L156.306 293.264V291.56L155.466 290.72H152.37L151.53 291.56V293.264L152.37 294.104ZM152.106 301.592H155.754L156.594 300.752V298.352L155.754 297.512H152.106L151.266 298.352V300.752L152.106 301.592ZM166.153 305L163.489 302.336V289.976L166.153 287.312H175.033L177.697 289.976V302.336L175.033 305H166.153ZM168.817 301.592H172.369L173.209 300.752V291.56L172.369 290.72H168.817L167.977 291.56V300.752L168.817 301.592ZM183.658 305.456L181.474 303.296L197.89 286.856L200.074 289.04L183.658 305.456ZM182.914 296.216L180.226 293.672V289.88L182.914 287.312H186.922L189.634 289.88V293.672L186.922 296.216H182.914ZM184.378 293.264H185.482L186.322 292.4V291.152L185.482 290.288H184.378L183.538 291.152V292.4L184.378 293.264ZM194.65 305L191.938 302.432V298.64L194.65 296.096H198.634L201.346 298.64V302.432L198.634 305H194.65ZM196.066 302.024H197.194L198.034 301.184V299.912L197.194 299.072H196.066L195.226 299.912V301.184L196.066 302.024Z"/>
</mask>
<path d="M111.528 305V301.448H113.952V290.888H111.768V287.312H118.44V301.448H120.84V305H111.528ZM122.989 305V300.872L132.373 292.928V291.44L131.653 290.72H128.485L127.765 291.44V293.288H123.277V289.664L125.797 287.312H134.317L136.861 289.664V294.416L128.413 301.424H136.981V305H122.989ZM138.628 307.64L139.732 301.232H143.884L141.148 307.64H138.628ZM149.274 305L146.778 302.648V297.656L148.794 295.808L147.21 294.392V289.664L149.73 287.312H158.13L160.65 289.664V294.392L159.066 295.808L161.082 297.656V302.648L158.538 305H149.274ZM152.37 294.104H155.466L156.306 293.264V291.56L155.466 290.72H152.37L151.53 291.56V293.264L152.37 294.104ZM152.106 301.592H155.754L156.594 300.752V298.352L155.754 297.512H152.106L151.266 298.352V300.752L152.106 301.592ZM166.153 305L163.489 302.336V289.976L166.153 287.312H175.033L177.697 289.976V302.336L175.033 305H166.153ZM168.817 301.592H172.369L173.209 300.752V291.56L172.369 290.72H168.817L167.977 291.56V300.752L168.817 301.592ZM183.658 305.456L181.474 303.296L197.89 286.856L200.074 289.04L183.658 305.456ZM182.914 296.216L180.226 293.672V289.88L182.914 287.312H186.922L189.634 289.88V293.672L186.922 296.216H182.914ZM184.378 293.264H185.482L186.322 292.4V291.152L185.482 290.288H184.378L183.538 291.152V292.4L184.378 293.264ZM194.65 305L191.938 302.432V298.64L194.65 296.096H198.634L201.346 298.64V302.432L198.634 305H194.65ZM196.066 302.024H197.194L198.034 301.184V299.912L197.194 299.072H196.066L195.226 299.912V301.184L196.066 302.024Z" fill="black"/>
<path d="M111.528 305H109.528V307H111.528V305ZM111.528 301.448V299.448H109.528V301.448H111.528ZM113.952 301.448V303.448H115.952V301.448H113.952ZM113.952 290.888H115.952V288.888H113.952V290.888ZM111.768 290.888H109.768V292.888H111.768V290.888ZM111.768 287.312V285.312H109.768V287.312H111.768ZM118.44 287.312H120.44V285.312H118.44V287.312ZM118.44 301.448H116.44V303.448H118.44V301.448ZM120.84 301.448H122.84V299.448H120.84V301.448ZM120.84 305V307H122.84V305H120.84ZM113.528 305V301.448H109.528V305H113.528ZM111.528 303.448H113.952V299.448H111.528V303.448ZM115.952 301.448V290.888H111.952V301.448H115.952ZM113.952 288.888H111.768V292.888H113.952V288.888ZM113.768 290.888V287.312H109.768V290.888H113.768ZM111.768 289.312H118.44V285.312H111.768V289.312ZM116.44 287.312V301.448H120.44V287.312H116.44ZM118.44 303.448H120.84V299.448H118.44V303.448ZM118.84 301.448V305H122.84V301.448H118.84ZM120.84 303H111.528V307H120.84V303ZM122.989 305H120.989V307H122.989V305ZM122.989 300.872L121.697 299.346L120.989 299.945V300.872H122.989ZM132.373 292.928L133.665 294.454L134.373 293.855V292.928H132.373ZM132.373 291.44H134.373V290.612L133.787 290.026L132.373 291.44ZM131.653 290.72L133.067 289.306L132.481 288.72H131.653V290.72ZM128.485 290.72V288.72H127.657L127.071 289.306L128.485 290.72ZM127.765 291.44L126.351 290.026L125.765 290.612V291.44H127.765ZM127.765 293.288V295.288H129.765V293.288H127.765ZM123.277 293.288H121.277V295.288H123.277V293.288ZM123.277 289.664L121.912 288.202L121.277 288.795V289.664H123.277ZM125.797 287.312V285.312H125.009L124.432 285.85L125.797 287.312ZM134.317 287.312L135.675 285.843L135.1 285.312H134.317V287.312ZM136.861 289.664H138.861V288.789L138.219 288.195L136.861 289.664ZM136.861 294.416L138.138 295.955L138.861 295.355V294.416H136.861ZM128.413 301.424L127.136 299.885L122.87 303.424H128.413V301.424ZM136.981 301.424H138.981V299.424H136.981V301.424ZM136.981 305V307H138.981V305H136.981ZM124.989 305V300.872H120.989V305H124.989ZM124.281 302.398L133.665 294.454L131.081 291.402L121.697 299.346L124.281 302.398ZM134.373 292.928V291.44H130.373V292.928H134.373ZM133.787 290.026L133.067 289.306L130.239 292.134L130.959 292.854L133.787 290.026ZM131.653 288.72H128.485V292.72H131.653V288.72ZM127.071 289.306L126.351 290.026L129.179 292.854L129.899 292.134L127.071 289.306ZM125.765 291.44V293.288H129.765V291.44H125.765ZM127.765 291.288H123.277V295.288H127.765V291.288ZM125.277 293.288V289.664H121.277V293.288H125.277ZM124.642 291.126L127.162 288.774L124.432 285.85L121.912 288.202L124.642 291.126ZM125.797 289.312H134.317V285.312H125.797V289.312ZM132.959 288.781L135.503 291.133L138.219 288.195L135.675 285.843L132.959 288.781ZM134.861 289.664V294.416H138.861V289.664H134.861ZM135.584 292.877L127.136 299.885L129.69 302.963L138.138 295.955L135.584 292.877ZM128.413 303.424H136.981V299.424H128.413V303.424ZM134.981 301.424V305H138.981V301.424H134.981ZM136.981 303H122.989V307H136.981V303ZM138.628 307.64L136.657 307.3L136.254 309.64H138.628V307.64ZM139.732 301.232V299.232H138.047L137.761 300.892L139.732 301.232ZM143.884 301.232L145.723 302.017L146.912 299.232H143.884V301.232ZM141.148 307.64V309.64H142.469L142.987 308.425L141.148 307.64ZM140.599 307.98L141.703 301.572L137.761 300.892L136.657 307.3L140.599 307.98ZM139.732 303.232H143.884V299.232H139.732V303.232ZM142.045 300.447L139.309 306.855L142.987 308.425L145.723 302.017L142.045 300.447ZM141.148 305.64H138.628V309.64H141.148V305.64ZM149.274 305L147.903 306.456L148.48 307H149.274V305ZM146.778 302.648H144.778V303.511L145.407 304.104L146.778 302.648ZM146.778 297.656L145.427 296.182L144.778 296.776V297.656H146.778ZM148.794 295.808L150.146 297.282L151.774 295.789L150.127 294.317L148.794 295.808ZM147.21 294.392H145.21V295.287L145.877 295.883L147.21 294.392ZM147.21 289.664L145.845 288.202L145.21 288.795V289.664H147.21ZM149.73 287.312V285.312H148.942L148.365 285.85L149.73 287.312ZM158.13 287.312L159.495 285.85L158.918 285.312H158.13V287.312ZM160.65 289.664H162.65V288.795L162.015 288.202L160.65 289.664ZM160.65 294.392L161.983 295.883L162.65 295.287V294.392H160.65ZM159.066 295.808L157.733 294.317L156.086 295.789L157.715 297.282L159.066 295.808ZM161.082 297.656H163.082V296.776L162.434 296.182L161.082 297.656ZM161.082 302.648L162.44 304.117L163.082 303.523V302.648H161.082ZM158.538 305V307H159.321L159.896 306.469L158.538 305ZM152.37 294.104L150.956 295.518L151.542 296.104H152.37V294.104ZM155.466 294.104V296.104H156.295L156.88 295.518L155.466 294.104ZM156.306 293.264L157.72 294.678L158.306 294.092V293.264H156.306ZM156.306 291.56H158.306V290.732L157.72 290.146L156.306 291.56ZM155.466 290.72L156.88 289.306L156.295 288.72H155.466V290.72ZM152.37 290.72V288.72H151.542L150.956 289.306L152.37 290.72ZM151.53 291.56L150.116 290.146L149.53 290.732V291.56H151.53ZM151.53 293.264H149.53V294.092L150.116 294.678L151.53 293.264ZM152.106 301.592L150.692 303.006L151.278 303.592H152.106V301.592ZM155.754 301.592V303.592H156.583L157.168 303.006L155.754 301.592ZM156.594 300.752L158.008 302.166L158.594 301.58V300.752H156.594ZM156.594 298.352H158.594V297.524L158.008 296.938L156.594 298.352ZM155.754 297.512L157.168 296.098L156.583 295.512H155.754V297.512ZM152.106 297.512V295.512H151.278L150.692 296.098L152.106 297.512ZM151.266 298.352L149.852 296.938L149.266 297.524V298.352H151.266ZM151.266 300.752H149.266V301.58L149.852 302.166L151.266 300.752ZM150.646 303.544L148.15 301.192L145.407 304.104L147.903 306.456L150.646 303.544ZM148.778 302.648V297.656H144.778V302.648H148.778ZM148.13 299.13L150.146 297.282L147.443 294.334L145.427 296.182L148.13 299.13ZM150.127 294.317L148.543 292.901L145.877 295.883L147.461 297.299L150.127 294.317ZM149.21 294.392V289.664H145.21V294.392H149.21ZM148.575 291.126L151.095 288.774L148.365 285.85L145.845 288.202L148.575 291.126ZM149.73 289.312H158.13V285.312H149.73V289.312ZM156.765 288.774L159.285 291.126L162.015 288.202L159.495 285.85L156.765 288.774ZM158.65 289.664V294.392H162.65V289.664H158.65ZM159.317 292.901L157.733 294.317L160.399 297.299L161.983 295.883L159.317 292.901ZM157.715 297.282L159.731 299.13L162.434 296.182L160.418 294.334L157.715 297.282ZM159.082 297.656V302.648H163.082V297.656H159.082ZM159.724 301.179L157.18 303.531L159.896 306.469L162.44 304.117L159.724 301.179ZM158.538 303H149.274V307H158.538V303ZM152.37 296.104H155.466V292.104H152.37V296.104ZM156.88 295.518L157.72 294.678L154.892 291.85L154.052 292.69L156.88 295.518ZM158.306 293.264V291.56H154.306V293.264H158.306ZM157.72 290.146L156.88 289.306L154.052 292.134L154.892 292.974L157.72 290.146ZM155.466 288.72H152.37V292.72H155.466V288.72ZM150.956 289.306L150.116 290.146L152.944 292.974L153.784 292.134L150.956 289.306ZM149.53 291.56V293.264H153.53V291.56H149.53ZM150.116 294.678L150.956 295.518L153.784 292.69L152.944 291.85L150.116 294.678ZM152.106 303.592H155.754V299.592H152.106V303.592ZM157.168 303.006L158.008 302.166L155.18 299.338L154.34 300.178L157.168 303.006ZM158.594 300.752V298.352H154.594V300.752H158.594ZM158.008 296.938L157.168 296.098L154.34 298.926L155.18 299.766L158.008 296.938ZM155.754 295.512H152.106V299.512H155.754V295.512ZM150.692 296.098L149.852 296.938L152.68 299.766L153.52 298.926L150.692 296.098ZM149.266 298.352V300.752H153.266V298.352H149.266ZM149.852 302.166L150.692 303.006L153.52 300.178L152.68 299.338L149.852 302.166ZM166.153 305L164.739 306.414L165.325 307H166.153V305ZM163.489 302.336H161.489V303.164L162.075 303.75L163.489 302.336ZM163.489 289.976L162.075 288.562L161.489 289.148V289.976H163.489ZM166.153 287.312V285.312H165.325L164.739 285.898L166.153 287.312ZM175.033 287.312L176.447 285.898L175.861 285.312H175.033V287.312ZM177.697 289.976H179.697V289.148L179.111 288.562L177.697 289.976ZM177.697 302.336L179.111 303.75L179.697 303.164V302.336H177.697ZM175.033 305V307H175.861L176.447 306.414L175.033 305ZM168.817 301.592L167.403 303.006L167.989 303.592H168.817V301.592ZM172.369 301.592V303.592H173.197L173.783 303.006L172.369 301.592ZM173.209 300.752L174.623 302.166L175.209 301.58V300.752H173.209ZM173.209 291.56H175.209V290.732L174.623 290.146L173.209 291.56ZM172.369 290.72L173.783 289.306L173.197 288.72H172.369V290.72ZM168.817 290.72V288.72H167.989L167.403 289.306L168.817 290.72ZM167.977 291.56L166.563 290.146L165.977 290.732V291.56H167.977ZM167.977 300.752H165.977V301.58L166.563 302.166L167.977 300.752ZM167.567 303.586L164.903 300.922L162.075 303.75L164.739 306.414L167.567 303.586ZM165.489 302.336V289.976H161.489V302.336H165.489ZM164.903 291.39L167.567 288.726L164.739 285.898L162.075 288.562L164.903 291.39ZM166.153 289.312H175.033V285.312H166.153V289.312ZM173.619 288.726L176.283 291.39L179.111 288.562L176.447 285.898L173.619 288.726ZM175.697 289.976V302.336H179.697V289.976H175.697ZM176.283 300.922L173.619 303.586L176.447 306.414L179.111 303.75L176.283 300.922ZM175.033 303H166.153V307H175.033V303ZM168.817 303.592H172.369V299.592H168.817V303.592ZM173.783 303.006L174.623 302.166L171.795 299.338L170.955 300.178L173.783 303.006ZM175.209 300.752V291.56H171.209V300.752H175.209ZM174.623 290.146L173.783 289.306L170.955 292.134L171.795 292.974L174.623 290.146ZM172.369 288.72H168.817V292.72H172.369V288.72ZM167.403 289.306L166.563 290.146L169.391 292.974L170.231 292.134L167.403 289.306ZM165.977 291.56V300.752H169.977V291.56H165.977ZM166.563 302.166L167.403 303.006L170.231 300.178L169.391 299.338L166.563 302.166ZM183.658 305.456L182.252 306.878L183.666 308.277L185.072 306.87L183.658 305.456ZM181.474 303.296L180.059 301.883L178.639 303.305L180.068 304.718L181.474 303.296ZM197.89 286.856L199.304 285.442L197.889 284.027L196.475 285.443L197.89 286.856ZM200.074 289.04L201.488 290.454L202.903 289.04L201.488 287.626L200.074 289.04ZM182.914 296.216L181.539 297.669L182.118 298.216H182.914V296.216ZM180.226 293.672H178.226V294.533L178.851 295.125L180.226 293.672ZM180.226 289.88L178.845 288.434L178.226 289.025V289.88H180.226ZM182.914 287.312V285.312H182.112L181.533 285.866L182.914 287.312ZM186.922 287.312L188.297 285.86L187.719 285.312H186.922V287.312ZM189.634 289.88H191.634V289.019L191.009 288.428L189.634 289.88ZM189.634 293.672L191.003 295.131L191.634 294.538V293.672H189.634ZM186.922 296.216V298.216H187.713L188.291 297.675L186.922 296.216ZM184.378 293.264L182.944 294.658L183.533 295.264H184.378V293.264ZM185.482 293.264V295.264H186.327L186.916 294.658L185.482 293.264ZM186.322 292.4L187.756 293.794L188.322 293.212V292.4H186.322ZM186.322 291.152H188.322V290.34L187.756 289.758L186.322 291.152ZM185.482 290.288L186.916 288.894L186.327 288.288H185.482V290.288ZM184.378 290.288V288.288H183.533L182.944 288.894L184.378 290.288ZM183.538 291.152L182.104 289.758L181.538 290.34V291.152H183.538ZM183.538 292.4H181.538V293.212L182.104 293.794L183.538 292.4ZM194.65 305L193.275 306.452L193.854 307H194.65V305ZM191.938 302.432H189.938V303.293L190.563 303.884L191.938 302.432ZM191.938 298.64L190.57 297.181L189.938 297.774V298.64H191.938ZM194.65 296.096V294.096H193.859L193.282 294.637L194.65 296.096ZM198.634 296.096L200.003 294.637L199.425 294.096H198.634V296.096ZM201.346 298.64H203.346V297.774L202.715 297.181L201.346 298.64ZM201.346 302.432L202.721 303.884L203.346 303.293V302.432H201.346ZM198.634 305V307H199.431L200.009 306.452L198.634 305ZM196.066 302.024L194.652 303.438L195.238 304.024H196.066V302.024ZM197.194 302.024V304.024H198.023L198.608 303.438L197.194 302.024ZM198.034 301.184L199.448 302.598L200.034 302.012V301.184H198.034ZM198.034 299.912H200.034V299.084L199.448 298.498L198.034 299.912ZM197.194 299.072L198.608 297.658L198.023 297.072H197.194V299.072ZM196.066 299.072V297.072H195.238L194.652 297.658L196.066 299.072ZM195.226 299.912L193.812 298.498L193.226 299.084V299.912H195.226ZM195.226 301.184H193.226V302.012L193.812 302.598L195.226 301.184ZM185.065 304.034L182.881 301.874L180.068 304.718L182.252 306.878L185.065 304.034ZM182.889 304.709L199.305 288.269L196.475 285.443L180.059 301.883L182.889 304.709ZM196.476 288.27L198.66 290.454L201.488 287.626L199.304 285.442L196.476 288.27ZM198.66 287.626L182.244 304.042L185.072 306.87L201.488 290.454L198.66 287.626ZM184.289 294.763L181.601 292.219L178.851 295.125L181.539 297.669L184.289 294.763ZM182.226 293.672V289.88H178.226V293.672H182.226ZM181.608 291.326L184.296 288.758L181.533 285.866L178.845 288.434L181.608 291.326ZM182.914 289.312H186.922V285.312H182.914V289.312ZM185.547 288.764L188.259 291.332L191.009 288.428L188.297 285.86L185.547 288.764ZM187.634 289.88V293.672H191.634V289.88H187.634ZM188.266 292.213L185.554 294.757L188.291 297.675L191.003 295.131L188.266 292.213ZM186.922 294.216H182.914V298.216H186.922V294.216ZM184.378 295.264H185.482V291.264H184.378V295.264ZM186.916 294.658L187.756 293.794L184.888 291.006L184.048 291.87L186.916 294.658ZM188.322 292.4V291.152H184.322V292.4H188.322ZM187.756 289.758L186.916 288.894L184.048 291.682L184.888 292.546L187.756 289.758ZM185.482 288.288H184.378V292.288H185.482V288.288ZM182.944 288.894L182.104 289.758L184.972 292.546L185.812 291.682L182.944 288.894ZM181.538 291.152V292.4H185.538V291.152H181.538ZM182.104 293.794L182.944 294.658L185.812 291.87L184.972 291.006L182.104 293.794ZM196.025 303.548L193.313 300.98L190.563 303.884L193.275 306.452L196.025 303.548ZM193.938 302.432V298.64H189.938V302.432H193.938ZM193.307 300.099L196.019 297.555L193.282 294.637L190.57 297.181L193.307 300.099ZM194.65 298.096H198.634V294.096H194.65V298.096ZM197.266 297.555L199.978 300.099L202.715 297.181L200.003 294.637L197.266 297.555ZM199.346 298.64V302.432H203.346V298.64H199.346ZM199.971 300.98L197.259 303.548L200.009 306.452L202.721 303.884L199.971 300.98ZM198.634 303H194.65V307H198.634V303ZM196.066 304.024H197.194V300.024H196.066V304.024ZM198.608 303.438L199.448 302.598L196.62 299.77L195.78 300.61L198.608 303.438ZM200.034 301.184V299.912H196.034V301.184H200.034ZM199.448 298.498L198.608 297.658L195.78 300.486L196.62 301.326L199.448 298.498ZM197.194 297.072H196.066V301.072H197.194V297.072ZM194.652 297.658L193.812 298.498L196.64 301.326L197.48 300.486L194.652 297.658ZM193.226 299.912V301.184H197.226V299.912H193.226ZM193.812 302.598L194.652 303.438L197.48 300.61L196.64 299.77L193.812 302.598Z" fill="#EDE5DA" mask="url(#path-5-outside-2_726_1223)"/>
<defs>
<filter id="filter0_d_726_1223" x="107.5" y="325.8" width="87.2002" height="196" filterUnits="userSpaceOnUse" color-interpolation-filters="sRGB">
<feFlood flood-opacity="0" result="BackgroundImageFix"/>
<feColorMatrix in="SourceAlpha" type="matrix" values="0 0 0 0 0 0 0 0 0 0 0 0 0 0 0 0 0 0 127 0" result="hardAlpha"/>
<feOffset dx="12"/>
<feComposite in2="hardAlpha" operator="out"/>
<feColorMatrix type="matrix" values="0 0 0 0 0.694118 0 0 0 0 0.52549 0 0 0 0 0.0117647 0 0 0 1 0"/>
<feBlend mode="normal" in2="BackgroundImageFix" result="effect1_dropShadow_726_1223"/>
<feBlend mode="normal" in="SourceGraphic" in2="effect1_dropShadow_726_1223" result="shape"/>
</filter>
<filter id="filter1_d_726_1223" x="5" y="39.4004" width="87.2002" height="482.4" filterUnits="userSpaceOnUse" color-interpolation-filters="sRGB">
<feFlood flood-opacity="0" result="BackgroundImageFix"/>
<feColorMatrix in="SourceAlpha" type="matrix" values="0 0 0 0 0 0 0 0 0 0 0 0 0 0 0 0 0 0 127 0" result="hardAlpha"/>
<feOffset dx="12"/>
<feComposite in2="hardAlpha" operator="out"/>
<feColorMatrix type="matrix" values="0 0 0 0 0.0117647 0 0 0 0 0.333333 0 0 0 0 0.560784 0 0 0 1 0"/>
<feBlend mode="normal" in2="BackgroundImageFix" result="effect1_dropShadow_726_1223"/>
<feBlend mode="normal" in="SourceGraphic" in2="effect1_dropShadow_726_1223" result="shape"/>
</filter>
</defs>
</svg>
