<svg width="203" height="551" viewBox="0 0 203 551" fill="none" xmlns="http://www.w3.org/2000/svg">
<g filter="url(#filter0_d_726_1224)">
<path d="M190.4 443.9H115.2V550.8H190.4V443.9Z" fill="#FFC000"/>
</g>
<g filter="url(#filter1_d_726_1224)">
<path d="M87.9998 36.2002H12.7998V550.8H87.9998V36.2002Z" fill="#125EFA"/>
</g>
<mask id="path-3-outside-1_726_1224" maskUnits="userSpaceOnUse" x="-1" y="3" width="101" height="26" fill="black">
<rect fill="white" x="-1" y="3" width="101" height="26"/>
<path d="M4.44384 24L1.89984 21.648V18.552H6.38784V19.872L7.10784 20.592H10.6118L11.3318 19.872V17.232L10.6118 16.536H5.54784V13.176H10.6118L11.3318 12.456V10.44L10.6118 9.72H7.10784L6.38784 10.44V11.76H1.89984V8.664L4.41984 6.312H13.1558L15.8198 8.976V13.104L14.0438 14.856L15.8198 16.608V21.336L13.1558 24H4.44384ZM21.1313 24L18.5873 21.648V18.552H23.0753V19.872L23.7953 20.592H27.2993L28.0193 19.872V17.232L27.2993 16.536H22.2353V13.176H27.2993L28.0193 12.456V10.44L27.2993 9.72H23.7953L23.0753 10.44V11.76H18.5873V8.664L21.1073 6.312H29.8433L32.5073 8.976V13.104L30.7313 14.856L32.5073 16.608V21.336L29.8433 24H21.1313ZM34.1708 26.64L35.2748 20.232H39.4268L36.6908 26.64H34.1708ZM44.8411 24L42.3211 21.648V8.664L44.8411 6.312H54.4891L57.0091 8.664V11.64H52.3291V10.56L51.4891 9.72H47.7691L46.9051 10.56V12.96H54.5611L57.0811 15.312V21.648L54.5611 24H44.8411ZM47.7691 20.592H51.7291L52.5691 19.752V16.92L51.7291 16.08H47.7691L46.9051 16.92V19.752L47.7691 20.592ZM62.1413 24L59.4773 21.336V8.976L62.1413 6.312H71.0213L73.6853 8.976V21.336L71.0213 24H62.1413ZM64.8053 20.592H68.3573L69.1973 19.752V10.56L68.3573 9.72H64.8053L63.9653 10.56V19.752L64.8053 20.592ZM79.6465 24.456L77.4625 22.296L93.8785 5.856L96.0625 8.04L79.6465 24.456ZM78.9025 15.216L76.2145 12.672V8.88L78.9025 6.312H82.9105L85.6225 8.88V12.672L82.9105 15.216H78.9025ZM80.3665 12.264H81.4705L82.3105 11.4V10.152L81.4705 9.288H80.3665L79.5265 10.152V11.4L80.3665 12.264ZM90.6385 24L87.9265 21.432V17.64L90.6385 15.096H94.6225L97.3345 17.64V21.432L94.6225 24H90.6385ZM92.0545 21.024H93.1825L94.0225 20.184V18.912L93.1825 18.072H92.0545L91.2145 18.912V20.184L92.0545 21.024Z"/>
</mask>
<path d="M4.44384 24L1.89984 21.648V18.552H6.38784V19.872L7.10784 20.592H10.6118L11.3318 19.872V17.232L10.6118 16.536H5.54784V13.176H10.6118L11.3318 12.456V10.44L10.6118 9.72H7.10784L6.38784 10.44V11.76H1.89984V8.664L4.41984 6.312H13.1558L15.8198 8.976V13.104L14.0438 14.856L15.8198 16.608V21.336L13.1558 24H4.44384ZM21.1313 24L18.5873 21.648V18.552H23.0753V19.872L23.7953 20.592H27.2993L28.0193 19.872V17.232L27.2993 16.536H22.2353V13.176H27.2993L28.0193 12.456V10.44L27.2993 9.72H23.7953L23.0753 10.44V11.76H18.5873V8.664L21.1073 6.312H29.8433L32.5073 8.976V13.104L30.7313 14.856L32.5073 16.608V21.336L29.8433 24H21.1313ZM34.1708 26.64L35.2748 20.232H39.4268L36.6908 26.64H34.1708ZM44.8411 24L42.3211 21.648V8.664L44.8411 6.312H54.4891L57.0091 8.664V11.64H52.3291V10.56L51.4891 9.72H47.7691L46.9051 10.56V12.96H54.5611L57.0811 15.312V21.648L54.5611 24H44.8411ZM47.7691 20.592H51.7291L52.5691 19.752V16.92L51.7291 16.08H47.7691L46.9051 16.92V19.752L47.7691 20.592ZM62.1413 24L59.4773 21.336V8.976L62.1413 6.312H71.0213L73.6853 8.976V21.336L71.0213 24H62.1413ZM64.8053 20.592H68.3573L69.1973 19.752V10.56L68.3573 9.72H64.8053L63.9653 10.56V19.752L64.8053 20.592ZM79.6465 24.456L77.4625 22.296L93.8785 5.856L96.0625 8.04L79.6465 24.456ZM78.9025 15.216L76.2145 12.672V8.88L78.9025 6.312H82.9105L85.6225 8.88V12.672L82.9105 15.216H78.9025ZM80.3665 12.264H81.4705L82.3105 11.4V10.152L81.4705 9.288H80.3665L79.5265 10.152V11.4L80.3665 12.264ZM90.6385 24L87.9265 21.432V17.64L90.6385 15.096H94.6225L97.3345 17.64V21.432L94.6225 24H90.6385ZM92.0545 21.024H93.1825L94.0225 20.184V18.912L93.1825 18.072H92.0545L91.2145 18.912V20.184L92.0545 21.024Z" fill="black"/>
<path d="M4.44384 24L3.08613 25.4685L3.66097 26H4.44384V24ZM1.89984 21.648H-0.100156V22.5227L0.542133 23.1165L1.89984 21.648ZM1.89984 18.552V16.552H-0.100156V18.552H1.89984ZM6.38784 18.552H8.38784V16.552H6.38784V18.552ZM6.38784 19.872H4.38784V20.7004L4.97363 21.2862L6.38784 19.872ZM7.10784 20.592L5.69363 22.0062L6.27942 22.592H7.10784V20.592ZM10.6118 20.592V22.592H11.4403L12.0261 22.0062L10.6118 20.592ZM11.3318 19.872L12.7461 21.2862L13.3318 20.7004V19.872H11.3318ZM11.3318 17.232H13.3318V16.3836L12.7219 15.794L11.3318 17.232ZM10.6118 16.536L12.0019 15.098L11.4205 14.536H10.6118V16.536ZM5.54784 16.536H3.54784V18.536H5.54784V16.536ZM5.54784 13.176V11.176H3.54784V13.176H5.54784ZM10.6118 13.176V15.176H11.4403L12.0261 14.5902L10.6118 13.176ZM11.3318 12.456L12.7461 13.8702L13.3318 13.2844V12.456H11.3318ZM11.3318 10.44H13.3318V9.61157L12.7461 9.02579L11.3318 10.44ZM10.6118 9.72L12.0261 8.30579L11.4403 7.72H10.6118V9.72ZM7.10784 9.72V7.72H6.27942L5.69363 8.30579L7.10784 9.72ZM6.38784 10.44L4.97363 9.02579L4.38784 9.61157V10.44H6.38784ZM6.38784 11.76V13.76H8.38784V11.76H6.38784ZM1.89984 11.76H-0.100156V13.76H1.89984V11.76ZM1.89984 8.664L0.535207 7.20189L-0.100156 7.79489V8.664H1.89984ZM4.41984 6.312V4.312H3.63152L3.05521 4.84989L4.41984 6.312ZM13.1558 6.312L14.5701 4.89779L13.9843 4.312H13.1558V6.312ZM15.8198 8.976H17.8198V8.14757L17.2341 7.56179L15.8198 8.976ZM15.8198 13.104L17.2244 14.5278L17.8198 13.9404V13.104H15.8198ZM14.0438 14.856L12.6393 13.4322L11.196 14.856L12.6393 16.2798L14.0438 14.856ZM15.8198 16.608H17.8198V15.7716L17.2244 15.1842L15.8198 16.608ZM15.8198 21.336L17.2341 22.7502L17.8198 22.1644V21.336H15.8198ZM13.1558 24V26H13.9843L14.5701 25.4142L13.1558 24ZM5.80155 22.5315L3.25755 20.1795L0.542133 23.1165L3.08613 25.4685L5.80155 22.5315ZM3.89984 21.648V18.552H-0.100156V21.648H3.89984ZM1.89984 20.552H6.38784V16.552H1.89984V20.552ZM4.38784 18.552V19.872H8.38784V18.552H4.38784ZM4.97363 21.2862L5.69363 22.0062L8.52206 19.1778L7.80206 18.4578L4.97363 21.2862ZM7.10784 22.592H10.6118V18.592H7.10784V22.592ZM12.0261 22.0062L12.7461 21.2862L9.91763 18.4578L9.19763 19.1778L12.0261 22.0062ZM13.3318 19.872V17.232H9.33184V19.872H13.3318ZM12.7219 15.794L12.0019 15.098L9.2218 17.974L9.9418 18.67L12.7219 15.794ZM10.6118 14.536H5.54784V18.536H10.6118V14.536ZM7.54784 16.536V13.176H3.54784V16.536H7.54784ZM5.54784 15.176H10.6118V11.176H5.54784V15.176ZM12.0261 14.5902L12.7461 13.8702L9.91763 11.0418L9.19763 11.7618L12.0261 14.5902ZM13.3318 12.456V10.44H9.33184V12.456H13.3318ZM12.7461 9.02579L12.0261 8.30579L9.19763 11.1342L9.91763 11.8542L12.7461 9.02579ZM10.6118 7.72H7.10784V11.72H10.6118V7.72ZM5.69363 8.30579L4.97363 9.02579L7.80206 11.8542L8.52206 11.1342L5.69363 8.30579ZM4.38784 10.44V11.76H8.38784V10.44H4.38784ZM6.38784 9.76H1.89984V13.76H6.38784V9.76ZM3.89984 11.76V8.664H-0.100156V11.76H3.89984ZM3.26448 10.1261L5.78448 7.77411L3.05521 4.84989L0.535207 7.20189L3.26448 10.1261ZM4.41984 8.312H13.1558V4.312H4.41984V8.312ZM11.7416 7.72621L14.4056 10.3902L17.2341 7.56179L14.5701 4.89779L11.7416 7.72621ZM13.8198 8.976V13.104H17.8198V8.976H13.8198ZM14.4153 11.6802L12.6393 13.4322L15.4484 16.2798L17.2244 14.5278L14.4153 11.6802ZM12.6393 16.2798L14.4153 18.0318L17.2244 15.1842L15.4484 13.4322L12.6393 16.2798ZM13.8198 16.608V21.336H17.8198V16.608H13.8198ZM14.4056 19.9218L11.7416 22.5858L14.5701 25.4142L17.2341 22.7502L14.4056 19.9218ZM13.1558 22H4.44384V26H13.1558V22ZM21.1313 24L19.7736 25.4685L20.3485 26H21.1313V24ZM18.5873 21.648H16.5873V22.5227L17.2296 23.1165L18.5873 21.648ZM18.5873 18.552V16.552H16.5873V18.552H18.5873ZM23.0753 18.552H25.0753V16.552H23.0753V18.552ZM23.0753 19.872H21.0753V20.7004L21.6611 21.2862L23.0753 19.872ZM23.7953 20.592L22.3811 22.0062L22.9669 22.592H23.7953V20.592ZM27.2993 20.592V22.592H28.1278L28.7136 22.0062L27.2993 20.592ZM28.0193 19.872L29.4336 21.2862L30.0193 20.7004V19.872H28.0193ZM28.0193 17.232H30.0193V16.3836L29.4094 15.794L28.0193 17.232ZM27.2993 16.536L28.6894 15.098L28.108 14.536H27.2993V16.536ZM22.2353 16.536H20.2353V18.536H22.2353V16.536ZM22.2353 13.176V11.176H20.2353V13.176H22.2353ZM27.2993 13.176V15.176H28.1278L28.7136 14.5902L27.2993 13.176ZM28.0193 12.456L29.4336 13.8702L30.0193 13.2844V12.456H28.0193ZM28.0193 10.44H30.0193V9.61157L29.4336 9.02579L28.0193 10.44ZM27.2993 9.72L28.7136 8.30579L28.1278 7.72H27.2993V9.72ZM23.7953 9.72V7.72H22.9669L22.3811 8.30579L23.7953 9.72ZM23.0753 10.44L21.6611 9.02579L21.0753 9.61157V10.44H23.0753ZM23.0753 11.76V13.76H25.0753V11.76H23.0753ZM18.5873 11.76H16.5873V13.76H18.5873V11.76ZM18.5873 8.664L17.2227 7.20189L16.5873 7.79489V8.664H18.5873ZM21.1073 6.312V4.312H20.319L19.7427 4.84989L21.1073 6.312ZM29.8433 6.312L31.2576 4.89779L30.6718 4.312H29.8433V6.312ZM32.5073 8.976H34.5073V8.14757L33.9216 7.56179L32.5073 8.976ZM32.5073 13.104L33.9119 14.5278L34.5073 13.9404V13.104H32.5073ZM30.7313 14.856L29.3268 13.4322L27.8835 14.856L29.3268 16.2798L30.7313 14.856ZM32.5073 16.608H34.5073V15.7716L33.9119 15.1842L32.5073 16.608ZM32.5073 21.336L33.9216 22.7502L34.5073 22.1644V21.336H32.5073ZM29.8433 24V26H30.6718L31.2576 25.4142L29.8433 24ZM22.4891 22.5315L19.9451 20.1795L17.2296 23.1165L19.7736 25.4685L22.4891 22.5315ZM20.5873 21.648V18.552H16.5873V21.648H20.5873ZM18.5873 20.552H23.0753V16.552H18.5873V20.552ZM21.0753 18.552V19.872H25.0753V18.552H21.0753ZM21.6611 21.2862L22.3811 22.0062L25.2096 19.1778L24.4896 18.4578L21.6611 21.2862ZM23.7953 22.592H27.2993V18.592H23.7953V22.592ZM28.7136 22.0062L29.4336 21.2862L26.6051 18.4578L25.8851 19.1778L28.7136 22.0062ZM30.0193 19.872V17.232H26.0193V19.872H30.0193ZM29.4094 15.794L28.6894 15.098L25.9093 17.974L26.6293 18.67L29.4094 15.794ZM27.2993 14.536H22.2353V18.536H27.2993V14.536ZM24.2353 16.536V13.176H20.2353V16.536H24.2353ZM22.2353 15.176H27.2993V11.176H22.2353V15.176ZM28.7136 14.5902L29.4336 13.8702L26.6051 11.0418L25.8851 11.7618L28.7136 14.5902ZM30.0193 12.456V10.44H26.0193V12.456H30.0193ZM29.4336 9.02579L28.7136 8.30579L25.8851 11.1342L26.6051 11.8542L29.4336 9.02579ZM27.2993 7.72H23.7953V11.72H27.2993V7.72ZM22.3811 8.30579L21.6611 9.02579L24.4896 11.8542L25.2096 11.1342L22.3811 8.30579ZM21.0753 10.44V11.76H25.0753V10.44H21.0753ZM23.0753 9.76H18.5873V13.76H23.0753V9.76ZM20.5873 11.76V8.664H16.5873V11.76H20.5873ZM19.952 10.1261L22.472 7.77411L19.7427 4.84989L17.2227 7.20189L19.952 10.1261ZM21.1073 8.312H29.8433V4.312H21.1073V8.312ZM28.4291 7.72621L31.0931 10.3902L33.9216 7.56179L31.2576 4.89779L28.4291 7.72621ZM30.5073 8.976V13.104H34.5073V8.976H30.5073ZM31.1028 11.6802L29.3268 13.4322L32.1359 16.2798L33.9119 14.5278L31.1028 11.6802ZM29.3268 16.2798L31.1028 18.0318L33.9119 15.1842L32.1359 13.4322L29.3268 16.2798ZM30.5073 16.608V21.336H34.5073V16.608H30.5073ZM31.0931 19.9218L28.4291 22.5858L31.2576 25.4142L33.9216 22.7502L31.0931 19.9218ZM29.8433 22H21.1313V26H29.8433V22ZM34.1708 26.64L32.1999 26.3004L31.7968 28.64H34.1708V26.64ZM35.2748 20.232V18.232H33.5899L33.3039 19.8924L35.2748 20.232ZM39.4268 20.232L41.2662 21.0173L42.4554 18.232H39.4268V20.232ZM36.6908 26.64V28.64H38.0116L38.5302 27.4253L36.6908 26.64ZM36.1418 26.9796L37.2458 20.5716L33.3039 19.8924L32.1999 26.3004L36.1418 26.9796ZM35.2748 22.232H39.4268V18.232H35.2748V22.232ZM37.5875 19.4467L34.8515 25.8547L38.5302 27.4253L41.2662 21.0173L37.5875 19.4467ZM36.6908 24.64H34.1708V28.64H36.6908V24.64ZM44.8411 24L43.4765 25.4621L44.0528 26H44.8411V24ZM42.3211 21.648H40.3211V22.5171L40.9565 23.1101L42.3211 21.648ZM42.3211 8.664L40.9565 7.20189L40.3211 7.79489V8.664H42.3211ZM44.8411 6.312V4.312H44.0528L43.4765 4.84989L44.8411 6.312ZM54.4891 6.312L55.8537 4.84989L55.2774 4.312H54.4891V6.312ZM57.0091 8.664H59.0091V7.79489L58.3737 7.20189L57.0091 8.664ZM57.0091 11.64V13.64H59.0091V11.64H57.0091ZM52.3291 11.64H50.3291V13.64H52.3291V11.64ZM52.3291 10.56H54.3291V9.73157L53.7433 9.14579L52.3291 10.56ZM51.4891 9.72L52.9033 8.30579L52.3175 7.72H51.4891V9.72ZM47.7691 9.72V7.72H46.9571L46.3749 8.28601L47.7691 9.72ZM46.9051 10.56L45.5109 9.12601L44.9051 9.71502V10.56H46.9051ZM46.9051 12.96H44.9051V14.96H46.9051V12.96ZM54.5611 12.96L55.9257 11.4979L55.3494 10.96H54.5611V12.96ZM57.0811 15.312H59.0811V14.4429L58.4457 13.8499L57.0811 15.312ZM57.0811 21.648L58.4457 23.1101L59.0811 22.5171V21.648H57.0811ZM54.5611 24V26H55.3494L55.9257 25.4621L54.5611 24ZM47.7691 20.592L46.3749 22.026L46.9571 22.592H47.7691V20.592ZM51.7291 20.592V22.592H52.5575L53.1433 22.0062L51.7291 20.592ZM52.5691 19.752L53.9833 21.1662L54.5691 20.5804V19.752H52.5691ZM52.5691 16.92H54.5691V16.0916L53.9833 15.5058L52.5691 16.92ZM51.7291 16.08L53.1433 14.6658L52.5575 14.08H51.7291V16.08ZM47.7691 16.08V14.08H46.9571L46.3749 14.646L47.7691 16.08ZM46.9051 16.92L45.5109 15.486L44.9051 16.075V16.92H46.9051ZM46.9051 19.752H44.9051V20.597L45.5109 21.186L46.9051 19.752ZM46.2057 22.5379L43.6857 20.1859L40.9565 23.1101L43.4765 25.4621L46.2057 22.5379ZM44.3211 21.648V8.664H40.3211V21.648H44.3211ZM43.6857 10.1261L46.2057 7.77411L43.4765 4.84989L40.9565 7.20189L43.6857 10.1261ZM44.8411 8.312H54.4891V4.312H44.8411V8.312ZM53.1245 7.77411L55.6445 10.1261L58.3737 7.20189L55.8537 4.84989L53.1245 7.77411ZM55.0091 8.664V11.64H59.0091V8.664H55.0091ZM57.0091 9.64H52.3291V13.64H57.0091V9.64ZM54.3291 11.64V10.56H50.3291V11.64H54.3291ZM53.7433 9.14579L52.9033 8.30579L50.0749 11.1342L50.9149 11.9742L53.7433 9.14579ZM51.4891 7.72H47.7691V11.72H51.4891V7.72ZM46.3749 8.28601L45.5109 9.12601L48.2993 11.994L49.1633 11.154L46.3749 8.28601ZM44.9051 10.56V12.96H48.9051V10.56H44.9051ZM46.9051 14.96H54.5611V10.96H46.9051V14.96ZM53.1965 14.4221L55.7165 16.7741L58.4457 13.8499L55.9257 11.4979L53.1965 14.4221ZM55.0811 15.312V21.648H59.0811V15.312H55.0811ZM55.7165 20.1859L53.1965 22.5379L55.9257 25.4621L58.4457 23.1101L55.7165 20.1859ZM54.5611 22H44.8411V26H54.5611V22ZM47.7691 22.592H51.7291V18.592H47.7691V22.592ZM53.1433 22.0062L53.9833 21.1662L51.1549 18.3378L50.3149 19.1778L53.1433 22.0062ZM54.5691 19.752V16.92H50.5691V19.752H54.5691ZM53.9833 15.5058L53.1433 14.6658L50.3149 17.4942L51.1549 18.3342L53.9833 15.5058ZM51.7291 14.08H47.7691V18.08H51.7291V14.08ZM46.3749 14.646L45.5109 15.486L48.2993 18.354L49.1633 17.514L46.3749 14.646ZM44.9051 16.92V19.752H48.9051V16.92H44.9051ZM45.5109 21.186L46.3749 22.026L49.1633 19.158L48.2993 18.318L45.5109 21.186ZM62.1413 24L60.7271 25.4142L61.3129 26H62.1413V24ZM59.4773 21.336H57.4773V22.1644L58.0631 22.7502L59.4773 21.336ZM59.4773 8.976L58.0631 7.56179L57.4773 8.14757V8.976H59.4773ZM62.1413 6.312V4.312H61.3129L60.7271 4.89779L62.1413 6.312ZM71.0213 6.312L72.4356 4.89779L71.8498 4.312H71.0213V6.312ZM73.6853 8.976H75.6853V8.14757L75.0996 7.56179L73.6853 8.976ZM73.6853 21.336L75.0996 22.7502L75.6853 22.1644V21.336H73.6853ZM71.0213 24V26H71.8498L72.4356 25.4142L71.0213 24ZM64.8053 20.592L63.3911 22.0062L63.9769 22.592H64.8053V20.592ZM68.3573 20.592V22.592H69.1858L69.7716 22.0062L68.3573 20.592ZM69.1973 19.752L70.6116 21.1662L71.1973 20.5804V19.752H69.1973ZM69.1973 10.56H71.1973V9.73157L70.6116 9.14579L69.1973 10.56ZM68.3573 9.72L69.7716 8.30579L69.1858 7.72H68.3573V9.72ZM64.8053 9.72V7.72H63.9769L63.3911 8.30579L64.8053 9.72ZM63.9653 10.56L62.5511 9.14579L61.9653 9.73157V10.56H63.9653ZM63.9653 19.752H61.9653V20.5804L62.5511 21.1662L63.9653 19.752ZM63.5556 22.5858L60.8916 19.9218L58.0631 22.7502L60.7271 25.4142L63.5556 22.5858ZM61.4773 21.336V8.976H57.4773V21.336H61.4773ZM60.8916 10.3902L63.5556 7.72621L60.7271 4.89779L58.0631 7.56179L60.8916 10.3902ZM62.1413 8.312H71.0213V4.312H62.1413V8.312ZM69.6071 7.72621L72.2711 10.3902L75.0996 7.56179L72.4356 4.89779L69.6071 7.72621ZM71.6853 8.976V21.336H75.6853V8.976H71.6853ZM72.2711 19.9218L69.6071 22.5858L72.4356 25.4142L75.0996 22.7502L72.2711 19.9218ZM71.0213 22H62.1413V26H71.0213V22ZM64.8053 22.592H68.3573V18.592H64.8053V22.592ZM69.7716 22.0062L70.6116 21.1662L67.7831 18.3378L66.9431 19.1778L69.7716 22.0062ZM71.1973 19.752V10.56H67.1973V19.752H71.1973ZM70.6116 9.14579L69.7716 8.30579L66.9431 11.1342L67.7831 11.9742L70.6116 9.14579ZM68.3573 7.72H64.8053V11.72H68.3573V7.72ZM63.3911 8.30579L62.5511 9.14579L65.3796 11.9742L66.2196 11.1342L63.3911 8.30579ZM61.9653 10.56V19.752H65.9653V10.56H61.9653ZM62.5511 21.1662L63.3911 22.0062L66.2196 19.1778L65.3796 18.3378L62.5511 21.1662ZM79.6465 24.456L78.2402 25.878L79.6543 27.2766L81.0607 25.8702L79.6465 24.456ZM77.4625 22.296L76.0473 20.8828L74.6273 22.3049L76.0562 23.718L77.4625 22.296ZM93.8785 5.856L95.2927 4.44179L93.8775 3.02654L92.4633 4.44282L93.8785 5.856ZM96.0625 8.04L97.4767 9.45421L98.891 8.04L97.4767 6.62579L96.0625 8.04ZM78.9025 15.216L77.5278 16.6686L78.1062 17.216H78.9025V15.216ZM76.2145 12.672H74.2145V13.5329L74.8398 14.1246L76.2145 12.672ZM76.2145 8.88L74.833 7.43387L74.2145 8.0247V8.88H76.2145ZM78.9025 6.312V4.312H78.1007L77.521 4.86587L78.9025 6.312ZM82.9105 6.312L84.2857 4.85976L83.7072 4.312H82.9105V6.312ZM85.6225 8.88H87.6225V8.01944L86.9977 7.42776L85.6225 8.88ZM85.6225 12.672L86.9908 14.1307L87.6225 13.5381V12.672H85.6225ZM82.9105 15.216V17.216H83.7018L84.2788 16.6747L82.9105 15.216ZM80.3665 12.264L78.9325 13.6582L79.5216 14.264H80.3665V12.264ZM81.4705 12.264V14.264H82.3155L82.9045 13.6582L81.4705 12.264ZM82.3105 11.4L83.7445 12.7942L84.3105 12.212V11.4H82.3105ZM82.3105 10.152H84.3105V9.34002L83.7445 8.75784L82.3105 10.152ZM81.4705 9.288L82.9045 7.89384L82.3155 7.288H81.4705V9.288ZM80.3665 9.288V7.288H79.5216L78.9325 7.89384L80.3665 9.288ZM79.5265 10.152L78.0925 8.75784L77.5265 9.34002V10.152H79.5265ZM79.5265 11.4H77.5265V12.212L78.0925 12.7942L79.5265 11.4ZM90.6385 24L89.2634 25.4522L89.8419 26H90.6385V24ZM87.9265 21.432H85.9265V22.2926L86.5514 22.8842L87.9265 21.432ZM87.9265 17.64L86.5582 16.1813L85.9265 16.7739V17.64H87.9265ZM90.6385 15.096V13.096H89.8473L89.2702 13.6373L90.6385 15.096ZM94.6225 15.096L95.9908 13.6373L95.4138 13.096H94.6225V15.096ZM97.3345 17.64H99.3345V16.7739L98.7028 16.1813L97.3345 17.64ZM97.3345 21.432L98.7097 22.8842L99.3345 22.2926V21.432H97.3345ZM94.6225 24V26H95.4192L95.9977 25.4522L94.6225 24ZM92.0545 21.024L90.6403 22.4382L91.2261 23.024H92.0545V21.024ZM93.1825 21.024V23.024H94.011L94.5967 22.4382L93.1825 21.024ZM94.0225 20.184L95.4367 21.5982L96.0225 21.0124V20.184H94.0225ZM94.0225 18.912H96.0225V18.0836L95.4367 17.4978L94.0225 18.912ZM93.1825 18.072L94.5967 16.6578L94.011 16.072H93.1825V18.072ZM92.0545 18.072V16.072H91.2261L90.6403 16.6578L92.0545 18.072ZM91.2145 18.912L89.8003 17.4978L89.2145 18.0836V18.912H91.2145ZM91.2145 20.184H89.2145V21.0124L89.8003 21.5982L91.2145 20.184ZM81.0529 23.034L78.8689 20.874L76.0562 23.718L78.2402 25.878L81.0529 23.034ZM78.8778 23.7092L95.2938 7.26918L92.4633 4.44282L76.0473 20.8828L78.8778 23.7092ZM92.4643 7.27021L94.6483 9.45421L97.4767 6.62579L95.2927 4.44179L92.4643 7.27021ZM94.6483 6.62579L78.2323 23.0418L81.0607 25.8702L97.4767 9.45421L94.6483 6.62579ZM80.2773 13.7634L77.5893 11.2194L74.8398 14.1246L77.5278 16.6686L80.2773 13.7634ZM78.2145 12.672V8.88H74.2145V12.672H78.2145ZM77.5961 10.3261L80.2841 7.75812L77.521 4.86587L74.833 7.43387L77.5961 10.3261ZM78.9025 8.312H82.9105V4.312H78.9025V8.312ZM81.5354 7.76424L84.2474 10.3322L86.9977 7.42776L84.2857 4.85976L81.5354 7.76424ZM83.6225 8.88V12.672H87.6225V8.88H83.6225ZM84.2542 11.2133L81.5422 13.7573L84.2788 16.6747L86.9908 14.1307L84.2542 11.2133ZM82.9105 13.216H78.9025V17.216H82.9105V13.216ZM80.3665 14.264H81.4705V10.264H80.3665V14.264ZM82.9045 13.6582L83.7445 12.7942L80.8765 10.0058L80.0365 10.8698L82.9045 13.6582ZM84.3105 11.4V10.152H80.3105V11.4H84.3105ZM83.7445 8.75784L82.9045 7.89384L80.0365 10.6822L80.8765 11.5462L83.7445 8.75784ZM81.4705 7.288H80.3665V11.288H81.4705V7.288ZM78.9325 7.89384L78.0925 8.75784L80.9605 11.5462L81.8005 10.6822L78.9325 7.89384ZM77.5265 10.152V11.4H81.5265V10.152H77.5265ZM78.0925 12.7942L78.9325 13.6582L81.8005 10.8698L80.9605 10.0058L78.0925 12.7942ZM92.0137 22.5478L89.3017 19.9798L86.5514 22.8842L89.2634 25.4522L92.0137 22.5478ZM89.9265 21.432V17.64H85.9265V21.432H89.9265ZM89.2948 19.0987L92.0068 16.5547L89.2702 13.6373L86.5582 16.1813L89.2948 19.0987ZM90.6385 17.096H94.6225V13.096H90.6385V17.096ZM93.2542 16.5547L95.9662 19.0987L98.7028 16.1813L95.9908 13.6373L93.2542 16.5547ZM95.3345 17.64V21.432H99.3345V17.64H95.3345ZM95.9594 19.9798L93.2474 22.5478L95.9977 25.4522L98.7097 22.8842L95.9594 19.9798ZM94.6225 22H90.6385V26H94.6225V22ZM92.0545 23.024H93.1825V19.024H92.0545V23.024ZM94.5967 22.4382L95.4367 21.5982L92.6083 18.7698L91.7683 19.6098L94.5967 22.4382ZM96.0225 20.184V18.912H92.0225V20.184H96.0225ZM95.4367 17.4978L94.5967 16.6578L91.7683 19.4862L92.6083 20.3262L95.4367 17.4978ZM93.1825 16.072H92.0545V20.072H93.1825V16.072ZM90.6403 16.6578L89.8003 17.4978L92.6287 20.3262L93.4687 19.4862L90.6403 16.6578ZM89.2145 18.912V20.184H93.2145V18.912H89.2145ZM89.8003 21.5982L90.6403 22.4382L93.4687 19.6098L92.6287 18.7698L89.8003 21.5982Z" fill="#EDE5DA" mask="url(#path-3-outside-1_726_1224)"/>
<mask id="path-5-outside-2_726_1224" maskUnits="userSpaceOnUse" x="115" y="406" width="85" height="26" fill="black">
<rect fill="white" x="115" y="406" width="85" height="26"/>
<path d="M119.935 427L117.415 424.648V411.664L119.935 409.312H129.583L132.103 411.664V414.64H127.423V413.56L126.583 412.72H122.863L121.999 413.56V415.96H129.655L132.175 418.312V424.648L129.655 427H119.935ZM122.863 423.592H126.823L127.663 422.752V419.92L126.823 419.08H122.863L121.999 419.92V422.752L122.863 423.592ZM133.827 429.64L134.931 423.232H139.083L136.347 429.64H133.827ZM144.929 427L142.409 424.648V421.672H147.089V422.752L147.929 423.592H151.649L152.513 422.752V420.352H144.857L142.337 418V411.664L144.857 409.312H154.577L157.097 411.664V424.648L154.577 427H144.929ZM147.689 417.232H151.649L152.513 416.392V413.56L151.649 412.72H147.689L146.849 413.56V416.392L147.689 417.232ZM162.005 427L159.509 424.648V419.656L161.525 417.808L159.941 416.392V411.664L162.461 409.312H170.861L173.381 411.664V416.392L171.797 417.808L173.813 419.656V424.648L171.269 427H162.005ZM165.101 416.104H168.197L169.037 415.264V413.56L168.197 412.72H165.101L164.261 413.56V415.264L165.101 416.104ZM164.837 423.592H168.485L169.325 422.752V420.352L168.485 419.512H164.837L163.997 420.352V422.752L164.837 423.592ZM179.772 427.456L177.588 425.296L194.004 408.856L196.188 411.04L179.772 427.456ZM179.028 418.216L176.34 415.672V411.88L179.028 409.312H183.036L185.748 411.88V415.672L183.036 418.216H179.028ZM180.492 415.264H181.596L182.436 414.4V413.152L181.596 412.288H180.492L179.652 413.152V414.4L180.492 415.264ZM190.764 427L188.052 424.432V420.64L190.764 418.096H194.748L197.46 420.64V424.432L194.748 427H190.764ZM192.18 424.024H193.308L194.148 423.184V421.912L193.308 421.072H192.18L191.34 421.912V423.184L192.18 424.024Z"/>
</mask>
<path d="M119.935 427L117.415 424.648V411.664L119.935 409.312H129.583L132.103 411.664V414.64H127.423V413.56L126.583 412.72H122.863L121.999 413.56V415.96H129.655L132.175 418.312V424.648L129.655 427H119.935ZM122.863 423.592H126.823L127.663 422.752V419.92L126.823 419.08H122.863L121.999 419.92V422.752L122.863 423.592ZM133.827 429.64L134.931 423.232H139.083L136.347 429.64H133.827ZM144.929 427L142.409 424.648V421.672H147.089V422.752L147.929 423.592H151.649L152.513 422.752V420.352H144.857L142.337 418V411.664L144.857 409.312H154.577L157.097 411.664V424.648L154.577 427H144.929ZM147.689 417.232H151.649L152.513 416.392V413.56L151.649 412.72H147.689L146.849 413.56V416.392L147.689 417.232ZM162.005 427L159.509 424.648V419.656L161.525 417.808L159.941 416.392V411.664L162.461 409.312H170.861L173.381 411.664V416.392L171.797 417.808L173.813 419.656V424.648L171.269 427H162.005ZM165.101 416.104H168.197L169.037 415.264V413.56L168.197 412.72H165.101L164.261 413.56V415.264L165.101 416.104ZM164.837 423.592H168.485L169.325 422.752V420.352L168.485 419.512H164.837L163.997 420.352V422.752L164.837 423.592ZM179.772 427.456L177.588 425.296L194.004 408.856L196.188 411.04L179.772 427.456ZM179.028 418.216L176.34 415.672V411.88L179.028 409.312H183.036L185.748 411.88V415.672L183.036 418.216H179.028ZM180.492 415.264H181.596L182.436 414.4V413.152L181.596 412.288H180.492L179.652 413.152V414.4L180.492 415.264ZM190.764 427L188.052 424.432V420.64L190.764 418.096H194.748L197.46 420.64V424.432L194.748 427H190.764ZM192.18 424.024H193.308L194.148 423.184V421.912L193.308 421.072H192.18L191.34 421.912V423.184L192.18 424.024Z" fill="black"/>
<path d="M119.935 427L118.57 428.462L119.147 429H119.935V427ZM117.415 424.648H115.415V425.517L116.05 426.11L117.415 424.648ZM117.415 411.664L116.05 410.202L115.415 410.795V411.664H117.415ZM119.935 409.312V407.312H119.147L118.57 407.85L119.935 409.312ZM129.583 409.312L130.947 407.85L130.371 407.312H129.583V409.312ZM132.103 411.664H134.103V410.795L133.467 410.202L132.103 411.664ZM132.103 414.64V416.64H134.103V414.64H132.103ZM127.423 414.64H125.423V416.64H127.423V414.64ZM127.423 413.56H129.423V412.732L128.837 412.146L127.423 413.56ZM126.583 412.72L127.997 411.306L127.411 410.72H126.583V412.72ZM122.863 412.72V410.72H122.051L121.469 411.286L122.863 412.72ZM121.999 413.56L120.605 412.126L119.999 412.715V413.56H121.999ZM121.999 415.96H119.999V417.96H121.999V415.96ZM129.655 415.96L131.019 414.498L130.443 413.96H129.655V415.96ZM132.175 418.312H134.175V417.443L133.539 416.85L132.175 418.312ZM132.175 424.648L133.539 426.11L134.175 425.517V424.648H132.175ZM129.655 427V429H130.443L131.019 428.462L129.655 427ZM122.863 423.592L121.469 425.026L122.051 425.592H122.863V423.592ZM126.823 423.592V425.592H127.651L128.237 425.006L126.823 423.592ZM127.663 422.752L129.077 424.166L129.663 423.58V422.752H127.663ZM127.663 419.92H129.663V419.092L129.077 418.506L127.663 419.92ZM126.823 419.08L128.237 417.666L127.651 417.08H126.823V419.08ZM122.863 419.08V417.08H122.051L121.469 417.646L122.863 419.08ZM121.999 419.92L120.605 418.486L119.999 419.075V419.92H121.999ZM121.999 422.752H119.999V423.597L120.605 424.186L121.999 422.752ZM121.299 425.538L118.779 423.186L116.05 426.11L118.57 428.462L121.299 425.538ZM119.415 424.648V411.664H115.415V424.648H119.415ZM118.779 413.126L121.299 410.774L118.57 407.85L116.05 410.202L118.779 413.126ZM119.935 411.312H129.583V407.312H119.935V411.312ZM128.218 410.774L130.738 413.126L133.467 410.202L130.947 407.85L128.218 410.774ZM130.103 411.664V414.64H134.103V411.664H130.103ZM132.103 412.64H127.423V416.64H132.103V412.64ZM129.423 414.64V413.56H125.423V414.64H129.423ZM128.837 412.146L127.997 411.306L125.169 414.134L126.009 414.974L128.837 412.146ZM126.583 410.72H122.863V414.72H126.583V410.72ZM121.469 411.286L120.605 412.126L123.393 414.994L124.257 414.154L121.469 411.286ZM119.999 413.56V415.96H123.999V413.56H119.999ZM121.999 417.96H129.655V413.96H121.999V417.96ZM128.29 417.422L130.81 419.774L133.539 416.85L131.019 414.498L128.29 417.422ZM130.175 418.312V424.648H134.175V418.312H130.175ZM130.81 423.186L128.29 425.538L131.019 428.462L133.539 426.11L130.81 423.186ZM129.655 425H119.935V429H129.655V425ZM122.863 425.592H126.823V421.592H122.863V425.592ZM128.237 425.006L129.077 424.166L126.249 421.338L125.409 422.178L128.237 425.006ZM129.663 422.752V419.92H125.663V422.752H129.663ZM129.077 418.506L128.237 417.666L125.409 420.494L126.249 421.334L129.077 418.506ZM126.823 417.08H122.863V421.08H126.823V417.08ZM121.469 417.646L120.605 418.486L123.393 421.354L124.257 420.514L121.469 417.646ZM119.999 419.92V422.752H123.999V419.92H119.999ZM120.605 424.186L121.469 425.026L124.257 422.158L123.393 421.318L120.605 424.186ZM133.827 429.64L131.856 429.3L131.453 431.64H133.827V429.64ZM134.931 423.232V421.232H133.246L132.96 422.892L134.931 423.232ZM139.083 423.232L140.922 424.017L142.112 421.232H139.083V423.232ZM136.347 429.64V431.64H137.668L138.186 430.425L136.347 429.64ZM135.798 429.98L136.902 423.572L132.96 422.892L131.856 429.3L135.798 429.98ZM134.931 425.232H139.083V421.232H134.931V425.232ZM137.244 422.447L134.508 428.855L138.186 430.425L140.922 424.017L137.244 422.447ZM136.347 427.64H133.827V431.64H136.347V427.64ZM144.929 427L143.565 428.462L144.141 429H144.929V427ZM142.409 424.648H140.409V425.517L141.045 426.11L142.409 424.648ZM142.409 421.672V419.672H140.409V421.672H142.409ZM147.089 421.672H149.089V419.672H147.089V421.672ZM147.089 422.752H145.089V423.58L145.675 424.166L147.089 422.752ZM147.929 423.592L146.515 425.006L147.101 425.592H147.929V423.592ZM151.649 423.592V425.592H152.461L153.044 425.026L151.649 423.592ZM152.513 422.752L153.908 424.186L154.513 423.597V422.752H152.513ZM152.513 420.352H154.513V418.352H152.513V420.352ZM144.857 420.352L143.493 421.814L144.069 422.352H144.857V420.352ZM142.337 418H140.337V418.869L140.973 419.462L142.337 418ZM142.337 411.664L140.973 410.202L140.337 410.795V411.664H142.337ZM144.857 409.312V407.312H144.069L143.493 407.85L144.857 409.312ZM154.577 409.312L155.942 407.85L155.366 407.312H154.577V409.312ZM157.097 411.664H159.097V410.795L158.462 410.202L157.097 411.664ZM157.097 424.648L158.462 426.11L159.097 425.517V424.648H157.097ZM154.577 427V429H155.366L155.942 428.462L154.577 427ZM147.689 417.232L146.275 418.646L146.861 419.232H147.689V417.232ZM151.649 417.232V419.232H152.461L153.044 418.666L151.649 417.232ZM152.513 416.392L153.908 417.826L154.513 417.237V416.392H152.513ZM152.513 413.56H154.513V412.715L153.908 412.126L152.513 413.56ZM151.649 412.72L153.044 411.286L152.461 410.72H151.649V412.72ZM147.689 412.72V410.72H146.861L146.275 411.306L147.689 412.72ZM146.849 413.56L145.435 412.146L144.849 412.732V413.56H146.849ZM146.849 416.392H144.849V417.22L145.435 417.806L146.849 416.392ZM146.294 425.538L143.774 423.186L141.045 426.11L143.565 428.462L146.294 425.538ZM144.409 424.648V421.672H140.409V424.648H144.409ZM142.409 423.672H147.089V419.672H142.409V423.672ZM145.089 421.672V422.752H149.089V421.672H145.089ZM145.675 424.166L146.515 425.006L149.344 422.178L148.504 421.338L145.675 424.166ZM147.929 425.592H151.649V421.592H147.929V425.592ZM153.044 425.026L153.908 424.186L151.119 421.318L150.255 422.158L153.044 425.026ZM154.513 422.752V420.352H150.513V422.752H154.513ZM152.513 418.352H144.857V422.352H152.513V418.352ZM146.222 418.89L143.702 416.538L140.973 419.462L143.493 421.814L146.222 418.89ZM144.337 418V411.664H140.337V418H144.337ZM143.702 413.126L146.222 410.774L143.493 407.85L140.973 410.202L143.702 413.126ZM144.857 411.312H154.577V407.312H144.857V411.312ZM153.213 410.774L155.733 413.126L158.462 410.202L155.942 407.85L153.213 410.774ZM155.097 411.664V424.648H159.097V411.664H155.097ZM155.733 423.186L153.213 425.538L155.942 428.462L158.462 426.11L155.733 423.186ZM154.577 425H144.929V429H154.577V425ZM147.689 419.232H151.649V415.232H147.689V419.232ZM153.044 418.666L153.908 417.826L151.119 414.958L150.255 415.798L153.044 418.666ZM154.513 416.392V413.56H150.513V416.392H154.513ZM153.908 412.126L153.044 411.286L150.255 414.154L151.119 414.994L153.908 412.126ZM151.649 410.72H147.689V414.72H151.649V410.72ZM146.275 411.306L145.435 412.146L148.264 414.974L149.104 414.134L146.275 411.306ZM144.849 413.56V416.392H148.849V413.56H144.849ZM145.435 417.806L146.275 418.646L149.104 415.818L148.264 414.978L145.435 417.806ZM162.005 427L160.633 428.456L161.211 429H162.005V427ZM159.509 424.648H157.509V425.511L158.137 426.104L159.509 424.648ZM159.509 419.656L158.157 418.182L157.509 418.776V419.656H159.509ZM161.525 417.808L162.876 419.282L164.505 417.789L162.858 416.317L161.525 417.808ZM159.941 416.392H157.941V417.287L158.608 417.883L159.941 416.392ZM159.941 411.664L158.576 410.202L157.941 410.795V411.664H159.941ZM162.461 409.312V407.312H161.672L161.096 407.85L162.461 409.312ZM170.861 409.312L172.225 407.85L171.649 407.312H170.861V409.312ZM173.381 411.664H175.381V410.795L174.745 410.202L173.381 411.664ZM173.381 416.392L174.714 417.883L175.381 417.287V416.392H173.381ZM171.797 417.808L170.464 416.317L168.817 417.789L170.445 419.282L171.797 417.808ZM173.813 419.656H175.813V418.776L175.164 418.182L173.813 419.656ZM173.813 424.648L175.17 426.117L175.813 425.523V424.648H173.813ZM171.269 427V429H172.051L172.626 428.469L171.269 427ZM165.101 416.104L163.686 417.518L164.272 418.104H165.101V416.104ZM168.197 416.104V418.104H169.025L169.611 417.518L168.197 416.104ZM169.037 415.264L170.451 416.678L171.037 416.092V415.264H169.037ZM169.037 413.56H171.037V412.732L170.451 412.146L169.037 413.56ZM168.197 412.72L169.611 411.306L169.025 410.72H168.197V412.72ZM165.101 412.72V410.72H164.272L163.686 411.306L165.101 412.72ZM164.261 413.56L162.846 412.146L162.261 412.732V413.56H164.261ZM164.261 415.264H162.261V416.092L162.846 416.678L164.261 415.264ZM164.837 423.592L163.422 425.006L164.008 425.592H164.837V423.592ZM168.485 423.592V425.592H169.313L169.899 425.006L168.485 423.592ZM169.325 422.752L170.739 424.166L171.325 423.58V422.752H169.325ZM169.325 420.352H171.325V419.524L170.739 418.938L169.325 420.352ZM168.485 419.512L169.899 418.098L169.313 417.512H168.485V419.512ZM164.837 419.512V417.512H164.008L163.422 418.098L164.837 419.512ZM163.997 420.352L162.582 418.938L161.997 419.524V420.352H163.997ZM163.997 422.752H161.997V423.58L162.582 424.166L163.997 422.752ZM163.376 425.544L160.88 423.192L158.137 426.104L160.633 428.456L163.376 425.544ZM161.509 424.648V419.656H157.509V424.648H161.509ZM160.86 421.13L162.876 419.282L160.173 416.334L158.157 418.182L160.86 421.13ZM162.858 416.317L161.274 414.901L158.608 417.883L160.192 419.299L162.858 416.317ZM161.941 416.392V411.664H157.941V416.392H161.941ZM161.305 413.126L163.825 410.774L161.096 407.85L158.576 410.202L161.305 413.126ZM162.461 411.312H170.861V407.312H162.461V411.312ZM169.496 410.774L172.016 413.126L174.745 410.202L172.225 407.85L169.496 410.774ZM171.381 411.664V416.392H175.381V411.664H171.381ZM172.048 414.901L170.464 416.317L173.13 419.299L174.714 417.883L172.048 414.901ZM170.445 419.282L172.461 421.13L175.164 418.182L173.148 416.334L170.445 419.282ZM171.813 419.656V424.648H175.813V419.656H171.813ZM172.455 423.179L169.911 425.531L172.626 428.469L175.17 426.117L172.455 423.179ZM171.269 425H162.005V429H171.269V425ZM165.101 418.104H168.197V414.104H165.101V418.104ZM169.611 417.518L170.451 416.678L167.622 413.85L166.782 414.69L169.611 417.518ZM171.037 415.264V413.56H167.037V415.264H171.037ZM170.451 412.146L169.611 411.306L166.782 414.134L167.622 414.974L170.451 412.146ZM168.197 410.72H165.101V414.72H168.197V410.72ZM163.686 411.306L162.846 412.146L165.675 414.974L166.515 414.134L163.686 411.306ZM162.261 413.56V415.264H166.261V413.56H162.261ZM162.846 416.678L163.686 417.518L166.515 414.69L165.675 413.85L162.846 416.678ZM164.837 425.592H168.485V421.592H164.837V425.592ZM169.899 425.006L170.739 424.166L167.91 421.338L167.07 422.178L169.899 425.006ZM171.325 422.752V420.352H167.325V422.752H171.325ZM170.739 418.938L169.899 418.098L167.07 420.926L167.91 421.766L170.739 418.938ZM168.485 417.512H164.837V421.512H168.485V417.512ZM163.422 418.098L162.582 418.938L165.411 421.766L166.251 420.926L163.422 418.098ZM161.997 420.352V422.752H165.997V420.352H161.997ZM162.582 424.166L163.422 425.006L166.251 422.178L165.411 421.338L162.582 424.166ZM179.772 427.456L178.365 428.878L179.779 430.277L181.186 428.87L179.772 427.456ZM177.588 425.296L176.172 423.883L174.752 425.305L176.181 426.718L177.588 425.296ZM194.004 408.856L195.418 407.442L194.002 406.027L192.588 407.443L194.004 408.856ZM196.188 411.04L197.602 412.454L199.016 411.04L197.602 409.626L196.188 411.04ZM179.028 418.216L177.653 419.669L178.231 420.216H179.028V418.216ZM176.34 415.672H174.34V416.533L174.965 417.125L176.34 415.672ZM176.34 411.88L174.958 410.434L174.34 411.025V411.88H176.34ZM179.028 409.312V407.312H178.226L177.646 407.866L179.028 409.312ZM183.036 409.312L184.411 407.86L183.832 407.312H183.036V409.312ZM185.748 411.88H187.748V411.019L187.123 410.428L185.748 411.88ZM185.748 415.672L187.116 417.131L187.748 416.538V415.672H185.748ZM183.036 418.216V420.216H183.827L184.404 419.675L183.036 418.216ZM180.492 415.264L179.058 416.658L179.647 417.264H180.492V415.264ZM181.596 415.264V417.264H182.441L183.03 416.658L181.596 415.264ZM182.436 414.4L183.87 415.794L184.436 415.212V414.4H182.436ZM182.436 413.152H184.436V412.34L183.87 411.758L182.436 413.152ZM181.596 412.288L183.03 410.894L182.441 410.288H181.596V412.288ZM180.492 412.288V410.288H179.647L179.058 410.894L180.492 412.288ZM179.652 413.152L178.218 411.758L177.652 412.34V413.152H179.652ZM179.652 414.4H177.652V415.212L178.218 415.794L179.652 414.4ZM190.764 427L189.388 428.452L189.967 429H190.764V427ZM188.052 424.432H186.052V425.293L186.676 425.884L188.052 424.432ZM188.052 420.64L186.683 419.181L186.052 419.774V420.64H188.052ZM190.764 418.096V416.096H189.972L189.395 416.637L190.764 418.096ZM194.748 418.096L196.116 416.637L195.539 416.096H194.748V418.096ZM197.46 420.64H199.46V419.774L198.828 419.181L197.46 420.64ZM197.46 424.432L198.835 425.884L199.46 425.293V424.432H197.46ZM194.748 427V429H195.544L196.123 428.452L194.748 427ZM192.18 424.024L190.765 425.438L191.351 426.024H192.18V424.024ZM193.308 424.024V426.024H194.136L194.722 425.438L193.308 424.024ZM194.148 423.184L195.562 424.598L196.148 424.012V423.184H194.148ZM194.148 421.912H196.148V421.084L195.562 420.498L194.148 421.912ZM193.308 421.072L194.722 419.658L194.136 419.072H193.308V421.072ZM192.18 421.072V419.072H191.351L190.765 419.658L192.18 421.072ZM191.34 421.912L189.925 420.498L189.34 421.084V421.912H191.34ZM191.34 423.184H189.34V424.012L189.925 424.598L191.34 423.184ZM181.178 426.034L178.994 423.874L176.181 426.718L178.365 428.878L181.178 426.034ZM179.003 426.709L195.419 410.269L192.588 407.443L176.172 423.883L179.003 426.709ZM192.589 410.27L194.773 412.454L197.602 409.626L195.418 407.442L192.589 410.27ZM194.773 409.626L178.357 426.042L181.186 428.87L197.602 412.454L194.773 409.626ZM180.402 416.763L177.714 414.219L174.965 417.125L177.653 419.669L180.402 416.763ZM178.34 415.672V411.88H174.34V415.672H178.34ZM177.721 413.326L180.409 410.758L177.646 407.866L174.958 410.434L177.721 413.326ZM179.028 411.312H183.036V407.312H179.028V411.312ZM181.66 410.764L184.372 413.332L187.123 410.428L184.411 407.86L181.66 410.764ZM183.748 411.88V415.672H187.748V411.88H183.748ZM184.379 414.213L181.667 416.757L184.404 419.675L187.116 417.131L184.379 414.213ZM183.036 416.216H179.028V420.216H183.036V416.216ZM180.492 417.264H181.596V413.264H180.492V417.264ZM183.03 416.658L183.87 415.794L181.002 413.006L180.162 413.87L183.03 416.658ZM184.436 414.4V413.152H180.436V414.4H184.436ZM183.87 411.758L183.03 410.894L180.162 413.682L181.002 414.546L183.87 411.758ZM181.596 410.288H180.492V414.288H181.596V410.288ZM179.058 410.894L178.218 411.758L181.086 414.546L181.926 413.682L179.058 410.894ZM177.652 413.152V414.4H181.652V413.152H177.652ZM178.218 415.794L179.058 416.658L181.926 413.87L181.086 413.006L178.218 415.794ZM192.139 425.548L189.427 422.98L186.676 425.884L189.388 428.452L192.139 425.548ZM190.052 424.432V420.64H186.052V424.432H190.052ZM189.42 422.099L192.132 419.555L189.395 416.637L186.683 419.181L189.42 422.099ZM190.764 420.096H194.748V416.096H190.764V420.096ZM193.379 419.555L196.091 422.099L198.828 419.181L196.116 416.637L193.379 419.555ZM195.46 420.64V424.432H199.46V420.64H195.46ZM196.084 422.98L193.372 425.548L196.123 428.452L198.835 425.884L196.084 422.98ZM194.748 425H190.764V429H194.748V425ZM192.18 426.024H193.308V422.024H192.18V426.024ZM194.722 425.438L195.562 424.598L192.733 421.77L191.893 422.61L194.722 425.438ZM196.148 423.184V421.912H192.148V423.184H196.148ZM195.562 420.498L194.722 419.658L191.893 422.486L192.733 423.326L195.562 420.498ZM193.308 419.072H192.18V423.072H193.308V419.072ZM190.765 419.658L189.925 420.498L192.754 423.326L193.594 422.486L190.765 419.658ZM189.34 421.912V423.184H193.34V421.912H189.34ZM189.925 424.598L190.765 425.438L193.594 422.61L192.754 421.77L189.925 424.598Z" fill="#EDE5DA" mask="url(#path-5-outside-2_726_1224)"/>
<defs>
<filter id="filter0_d_726_1224" x="115.2" y="443.9" width="87.2002" height="106.9" filterUnits="userSpaceOnUse" color-interpolation-filters="sRGB">
<feFlood flood-opacity="0" result="BackgroundImageFix"/>
<feColorMatrix in="SourceAlpha" type="matrix" values="0 0 0 0 0 0 0 0 0 0 0 0 0 0 0 0 0 0 127 0" result="hardAlpha"/>
<feOffset dx="12"/>
<feComposite in2="hardAlpha" operator="out"/>
<feColorMatrix type="matrix" values="0 0 0 0 0.694118 0 0 0 0 0.52549 0 0 0 0 0.0117647 0 0 0 1 0"/>
<feBlend mode="normal" in2="BackgroundImageFix" result="effect1_dropShadow_726_1224"/>
<feBlend mode="normal" in="SourceGraphic" in2="effect1_dropShadow_726_1224" result="shape"/>
</filter>
<filter id="filter1_d_726_1224" x="12.7998" y="36.2002" width="87.2002" height="514.6" filterUnits="userSpaceOnUse" color-interpolation-filters="sRGB">
<feFlood flood-opacity="0" result="BackgroundImageFix"/>
<feColorMatrix in="SourceAlpha" type="matrix" values="0 0 0 0 0 0 0 0 0 0 0 0 0 0 0 0 0 0 127 0" result="hardAlpha"/>
<feOffset dx="12"/>
<feComposite in2="hardAlpha" operator="out"/>
<feColorMatrix type="matrix" values="0 0 0 0 0.0117647 0 0 0 0 0.333333 0 0 0 0 0.560784 0 0 0 1 0"/>
<feBlend mode="normal" in2="BackgroundImageFix" result="effect1_dropShadow_726_1224"/>
<feBlend mode="normal" in="SourceGraphic" in2="effect1_dropShadow_726_1224" result="shape"/>
</filter>
</defs>
</svg>
