<svg width="191" height="333" viewBox="0 0 191 333" fill="none" xmlns="http://www.w3.org/2000/svg">
<g filter="url(#filter0_d_726_1225)">
<path d="M178.2 215.2H103V332.8H178.2V215.2Z" fill="#FFC000"/>
</g>
<g filter="url(#filter1_d_726_1225)">
<path d="M75.7 37.2002H0.5V332.8H75.7V37.2002Z" fill="#125EFA"/>
</g>
<mask id="path-3-outside-1_726_1225" maskUnits="userSpaceOnUse" x="4" y="3" width="96" height="26" fill="black">
<rect fill="white" x="4" y="3" width="96" height="26"/>
<path d="M6.46563 24V20.448H8.88963V9.888H6.70563V6.312H13.3776V20.448H15.7776V24H6.46563ZM20.8786 24L18.3586 21.648V18.672H23.0386V19.752L23.8786 20.592H27.5986L28.4626 19.752V17.352H20.8066L18.2866 15V8.664L20.8066 6.312H30.5266L33.0466 8.664V21.648L30.5266 24H20.8786ZM23.6386 14.232H27.5986L28.4626 13.392V10.56L27.5986 9.72H23.6386L22.7986 10.56V13.392L23.6386 14.232ZM34.7138 26.64L35.8178 20.232H39.9698L37.2338 26.64H34.7138ZM45.7681 24L43.2241 21.648V18.552H47.7121V19.872L48.4321 20.592H51.9361L52.6561 19.872V17.232L51.9361 16.536H46.8721V13.176H51.9361L52.6561 12.456V10.44L51.9361 9.72H48.4321L47.7121 10.44V11.76H43.2241V8.664L45.7441 6.312H54.4801L57.1441 8.976V13.104L55.3681 14.856L57.1441 16.608V21.336L54.4801 24H45.7681ZM62.2156 24L59.5516 21.336V8.976L62.2156 6.312H71.0956L73.7596 8.976V21.336L71.0956 24H62.2156ZM64.8796 20.592H68.4316L69.2716 19.752V10.56L68.4316 9.72H64.8796L64.0396 10.56V19.752L64.8796 20.592ZM79.7208 24.456L77.5368 22.296L93.9528 5.856L96.1368 8.04L79.7208 24.456ZM78.9768 15.216L76.2888 12.672V8.88L78.9768 6.312H82.9848L85.6968 8.88V12.672L82.9848 15.216H78.9768ZM80.4408 12.264H81.5448L82.3848 11.4V10.152L81.5448 9.288H80.4408L79.6008 10.152V11.4L80.4408 12.264ZM90.7128 24L88.0008 21.432V17.64L90.7128 15.096H94.6968L97.4088 17.64V21.432L94.6968 24H90.7128ZM92.1288 21.024H93.2568L94.0968 20.184V18.912L93.2568 18.072H92.1288L91.2888 18.912V20.184L92.1288 21.024Z"/>
</mask>
<path d="M6.46563 24V20.448H8.88963V9.888H6.70563V6.312H13.3776V20.448H15.7776V24H6.46563ZM20.8786 24L18.3586 21.648V18.672H23.0386V19.752L23.8786 20.592H27.5986L28.4626 19.752V17.352H20.8066L18.2866 15V8.664L20.8066 6.312H30.5266L33.0466 8.664V21.648L30.5266 24H20.8786ZM23.6386 14.232H27.5986L28.4626 13.392V10.56L27.5986 9.72H23.6386L22.7986 10.56V13.392L23.6386 14.232ZM34.7138 26.64L35.8178 20.232H39.9698L37.2338 26.64H34.7138ZM45.7681 24L43.2241 21.648V18.552H47.7121V19.872L48.4321 20.592H51.9361L52.6561 19.872V17.232L51.9361 16.536H46.8721V13.176H51.9361L52.6561 12.456V10.44L51.9361 9.72H48.4321L47.7121 10.44V11.76H43.2241V8.664L45.7441 6.312H54.4801L57.1441 8.976V13.104L55.3681 14.856L57.1441 16.608V21.336L54.4801 24H45.7681ZM62.2156 24L59.5516 21.336V8.976L62.2156 6.312H71.0956L73.7596 8.976V21.336L71.0956 24H62.2156ZM64.8796 20.592H68.4316L69.2716 19.752V10.56L68.4316 9.72H64.8796L64.0396 10.56V19.752L64.8796 20.592ZM79.7208 24.456L77.5368 22.296L93.9528 5.856L96.1368 8.04L79.7208 24.456ZM78.9768 15.216L76.2888 12.672V8.88L78.9768 6.312H82.9848L85.6968 8.88V12.672L82.9848 15.216H78.9768ZM80.4408 12.264H81.5448L82.3848 11.4V10.152L81.5448 9.288H80.4408L79.6008 10.152V11.4L80.4408 12.264ZM90.7128 24L88.0008 21.432V17.64L90.7128 15.096H94.6968L97.4088 17.64V21.432L94.6968 24H90.7128ZM92.1288 21.024H93.2568L94.0968 20.184V18.912L93.2568 18.072H92.1288L91.2888 18.912V20.184L92.1288 21.024Z" fill="black"/>
<path d="M6.46563 24H4.46563V26H6.46563V24ZM6.46563 20.448V18.448H4.46563V20.448H6.46563ZM8.88963 20.448V22.448H10.8896V20.448H8.88963ZM8.88963 9.888H10.8896V7.888H8.88963V9.888ZM6.70563 9.888H4.70563V11.888H6.70563V9.888ZM6.70563 6.312V4.312H4.70563V6.312H6.70563ZM13.3776 6.312H15.3776V4.312H13.3776V6.312ZM13.3776 20.448H11.3776V22.448H13.3776V20.448ZM15.7776 20.448H17.7776V18.448H15.7776V20.448ZM15.7776 24V26H17.7776V24H15.7776ZM8.46563 24V20.448H4.46563V24H8.46563ZM6.46563 22.448H8.88963V18.448H6.46563V22.448ZM10.8896 20.448V9.888H6.88963V20.448H10.8896ZM8.88963 7.888H6.70563V11.888H8.88963V7.888ZM8.70563 9.888V6.312H4.70563V9.888H8.70563ZM6.70563 8.312H13.3776V4.312H6.70563V8.312ZM11.3776 6.312V20.448H15.3776V6.312H11.3776ZM13.3776 22.448H15.7776V18.448H13.3776V22.448ZM13.7776 20.448V24H17.7776V20.448H13.7776ZM15.7776 22H6.46563V26H15.7776V22ZM20.8786 24L19.5139 25.4621L20.0902 26H20.8786V24ZM18.3586 21.648H16.3586V22.5171L16.9939 23.1101L18.3586 21.648ZM18.3586 18.672V16.672H16.3586V18.672H18.3586ZM23.0386 18.672H25.0386V16.672H23.0386V18.672ZM23.0386 19.752H21.0386V20.5804L21.6243 21.1662L23.0386 19.752ZM23.8786 20.592L22.4643 22.0062L23.0501 22.592H23.8786V20.592ZM27.5986 20.592V22.592H28.4105L28.9927 22.026L27.5986 20.592ZM28.4626 19.752L29.8567 21.186L30.4626 20.597V19.752H28.4626ZM28.4626 17.352H30.4626V15.352H28.4626V17.352ZM20.8066 17.352L19.4419 18.8141L20.0182 19.352H20.8066V17.352ZM18.2866 15H16.2866V15.8691L16.9219 16.4621L18.2866 15ZM18.2866 8.664L16.9219 7.20189L16.2866 7.79489V8.664H18.2866ZM20.8066 6.312V4.312H20.0182L19.4419 4.84989L20.8066 6.312ZM30.5266 6.312L31.8912 4.84989L31.3149 4.312H30.5266V6.312ZM33.0466 8.664H35.0466V7.79489L34.4112 7.20189L33.0466 8.664ZM33.0466 21.648L34.4112 23.1101L35.0466 22.5171V21.648H33.0466ZM30.5266 24V26H31.3149L31.8912 25.4621L30.5266 24ZM23.6386 14.232L22.2243 15.6462L22.8101 16.232H23.6386V14.232ZM27.5986 14.232V16.232H28.4105L28.9927 15.666L27.5986 14.232ZM28.4626 13.392L29.8567 14.826L30.4626 14.237V13.392H28.4626ZM28.4626 10.56H30.4626V9.71502L29.8567 9.12601L28.4626 10.56ZM27.5986 9.72L28.9927 8.28601L28.4105 7.72H27.5986V9.72ZM23.6386 9.72V7.72H22.8101L22.2243 8.30579L23.6386 9.72ZM22.7986 10.56L21.3843 9.14579L20.7986 9.73157V10.56H22.7986ZM22.7986 13.392H20.7986V14.2204L21.3843 14.8062L22.7986 13.392ZM22.2432 22.5379L19.7232 20.1859L16.9939 23.1101L19.5139 25.4621L22.2432 22.5379ZM20.3586 21.648V18.672H16.3586V21.648H20.3586ZM18.3586 20.672H23.0386V16.672H18.3586V20.672ZM21.0386 18.672V19.752H25.0386V18.672H21.0386ZM21.6243 21.1662L22.4643 22.0062L25.2928 19.1778L24.4528 18.3378L21.6243 21.1662ZM23.8786 22.592H27.5986V18.592H23.8786V22.592ZM28.9927 22.026L29.8567 21.186L27.0684 18.318L26.2044 19.158L28.9927 22.026ZM30.4626 19.752V17.352H26.4626V19.752H30.4626ZM28.4626 15.352H20.8066V19.352H28.4626V15.352ZM22.1712 15.8899L19.6512 13.5379L16.9219 16.4621L19.4419 18.8141L22.1712 15.8899ZM20.2866 15V8.664H16.2866V15H20.2866ZM19.6512 10.1261L22.1712 7.77411L19.4419 4.84989L16.9219 7.20189L19.6512 10.1261ZM20.8066 8.312H30.5266V4.312H20.8066V8.312ZM29.1619 7.77411L31.6819 10.1261L34.4112 7.20189L31.8912 4.84989L29.1619 7.77411ZM31.0466 8.664V21.648H35.0466V8.664H31.0466ZM31.6819 20.1859L29.1619 22.5379L31.8912 25.4621L34.4112 23.1101L31.6819 20.1859ZM30.5266 22H20.8786V26H30.5266V22ZM23.6386 16.232H27.5986V12.232H23.6386V16.232ZM28.9927 15.666L29.8567 14.826L27.0684 11.958L26.2044 12.798L28.9927 15.666ZM30.4626 13.392V10.56H26.4626V13.392H30.4626ZM29.8567 9.12601L28.9927 8.28601L26.2044 11.154L27.0684 11.994L29.8567 9.12601ZM27.5986 7.72H23.6386V11.72H27.5986V7.72ZM22.2243 8.30579L21.3843 9.14579L24.2128 11.9742L25.0528 11.1342L22.2243 8.30579ZM20.7986 10.56V13.392H24.7986V10.56H20.7986ZM21.3843 14.8062L22.2243 15.6462L25.0528 12.8178L24.2128 11.9778L21.3843 14.8062ZM34.7138 26.64L32.7428 26.3004L32.3398 28.64H34.7138V26.64ZM35.8178 20.232V18.232H34.1329L33.8468 19.8924L35.8178 20.232ZM39.9698 20.232L41.8092 21.0173L42.9984 18.232H39.9698V20.232ZM37.2338 26.64V28.64H38.5546L39.0732 27.4253L37.2338 26.64ZM36.6848 26.9796L37.7888 20.5716L33.8468 19.8924L32.7428 26.3004L36.6848 26.9796ZM35.8178 22.232H39.9698V18.232H35.8178V22.232ZM38.1305 19.4467L35.3945 25.8547L39.0732 27.4253L41.8092 21.0173L38.1305 19.4467ZM37.2338 24.64H34.7138V28.64H37.2338V24.64ZM45.7681 24L44.4104 25.4685L44.9852 26H45.7681V24ZM43.2241 21.648H41.2241V22.5227L41.8664 23.1165L43.2241 21.648ZM43.2241 18.552V16.552H41.2241V18.552H43.2241ZM47.7121 18.552H49.7121V16.552H47.7121V18.552ZM47.7121 19.872H45.7121V20.7004L46.2978 21.2862L47.7121 19.872ZM48.4321 20.592L47.0178 22.0062L47.6036 22.592H48.4321V20.592ZM51.9361 20.592V22.592H52.7645L53.3503 22.0062L51.9361 20.592ZM52.6561 19.872L54.0703 21.2862L54.6561 20.7004V19.872H52.6561ZM52.6561 17.232H54.6561V16.3836L54.0461 15.794L52.6561 17.232ZM51.9361 16.536L53.3261 15.098L52.7447 14.536H51.9361V16.536ZM46.8721 16.536H44.8721V18.536H46.8721V16.536ZM46.8721 13.176V11.176H44.8721V13.176H46.8721ZM51.9361 13.176V15.176H52.7645L53.3503 14.5902L51.9361 13.176ZM52.6561 12.456L54.0703 13.8702L54.6561 13.2844V12.456H52.6561ZM52.6561 10.44H54.6561V9.61157L54.0703 9.02579L52.6561 10.44ZM51.9361 9.72L53.3503 8.30579L52.7645 7.72H51.9361V9.72ZM48.4321 9.72V7.72H47.6036L47.0178 8.30579L48.4321 9.72ZM47.7121 10.44L46.2978 9.02579L45.7121 9.61157V10.44H47.7121ZM47.7121 11.76V13.76H49.7121V11.76H47.7121ZM43.2241 11.76H41.2241V13.76H43.2241V11.76ZM43.2241 8.664L41.8594 7.20189L41.2241 7.79489V8.664H43.2241ZM45.7441 6.312V4.312H44.9557L44.3794 4.84989L45.7441 6.312ZM54.4801 6.312L55.8943 4.89779L55.3085 4.312H54.4801V6.312ZM57.1441 8.976H59.1441V8.14757L58.5583 7.56179L57.1441 8.976ZM57.1441 13.104L58.5486 14.5278L59.1441 13.9404V13.104H57.1441ZM55.3681 14.856L53.9635 13.4322L52.5202 14.856L53.9635 16.2798L55.3681 14.856ZM57.1441 16.608H59.1441V15.7716L58.5486 15.1842L57.1441 16.608ZM57.1441 21.336L58.5583 22.7502L59.1441 22.1644V21.336H57.1441ZM54.4801 24V26H55.3085L55.8943 25.4142L54.4801 24ZM47.1258 22.5315L44.5818 20.1795L41.8664 23.1165L44.4104 25.4685L47.1258 22.5315ZM45.2241 21.648V18.552H41.2241V21.648H45.2241ZM43.2241 20.552H47.7121V16.552H43.2241V20.552ZM45.7121 18.552V19.872H49.7121V18.552H45.7121ZM46.2978 21.2862L47.0178 22.0062L49.8463 19.1778L49.1263 18.4578L46.2978 21.2862ZM48.4321 22.592H51.9361V18.592H48.4321V22.592ZM53.3503 22.0062L54.0703 21.2862L51.2418 18.4578L50.5218 19.1778L53.3503 22.0062ZM54.6561 19.872V17.232H50.6561V19.872H54.6561ZM54.0461 15.794L53.3261 15.098L50.546 17.974L51.266 18.67L54.0461 15.794ZM51.9361 14.536H46.8721V18.536H51.9361V14.536ZM48.8721 16.536V13.176H44.8721V16.536H48.8721ZM46.8721 15.176H51.9361V11.176H46.8721V15.176ZM53.3503 14.5902L54.0703 13.8702L51.2418 11.0418L50.5218 11.7618L53.3503 14.5902ZM54.6561 12.456V10.44H50.6561V12.456H54.6561ZM54.0703 9.02579L53.3503 8.30579L50.5218 11.1342L51.2418 11.8542L54.0703 9.02579ZM51.9361 7.72H48.4321V11.72H51.9361V7.72ZM47.0178 8.30579L46.2978 9.02579L49.1263 11.8542L49.8463 11.1342L47.0178 8.30579ZM45.7121 10.44V11.76H49.7121V10.44H45.7121ZM47.7121 9.76H43.2241V13.76H47.7121V9.76ZM45.2241 11.76V8.664H41.2241V11.76H45.2241ZM44.5887 10.1261L47.1087 7.77411L44.3794 4.84989L41.8594 7.20189L44.5887 10.1261ZM45.7441 8.312H54.4801V4.312H45.7441V8.312ZM53.0658 7.72621L55.7298 10.3902L58.5583 7.56179L55.8943 4.89779L53.0658 7.72621ZM55.1441 8.976V13.104H59.1441V8.976H55.1441ZM55.7395 11.6802L53.9635 13.4322L56.7726 16.2798L58.5486 14.5278L55.7395 11.6802ZM53.9635 16.2798L55.7395 18.0318L58.5486 15.1842L56.7726 13.4322L53.9635 16.2798ZM55.1441 16.608V21.336H59.1441V16.608H55.1441ZM55.7298 19.9218L53.0658 22.5858L55.8943 25.4142L58.5583 22.7502L55.7298 19.9218ZM54.4801 22H45.7681V26H54.4801V22ZM62.2156 24L60.8013 25.4142L61.3871 26H62.2156V24ZM59.5516 21.336H57.5516V22.1644L58.1373 22.7502L59.5516 21.336ZM59.5516 8.976L58.1373 7.56179L57.5516 8.14757V8.976H59.5516ZM62.2156 6.312V4.312H61.3871L60.8013 4.89779L62.2156 6.312ZM71.0956 6.312L72.5098 4.89779L71.924 4.312H71.0956V6.312ZM73.7596 8.976H75.7596V8.14757L75.1738 7.56179L73.7596 8.976ZM73.7596 21.336L75.1738 22.7502L75.7596 22.1644V21.336H73.7596ZM71.0956 24V26H71.924L72.5098 25.4142L71.0956 24ZM64.8796 20.592L63.4653 22.0062L64.0511 22.592H64.8796V20.592ZM68.4316 20.592V22.592H69.26L69.8458 22.0062L68.4316 20.592ZM69.2716 19.752L70.6858 21.1662L71.2716 20.5804V19.752H69.2716ZM69.2716 10.56H71.2716V9.73157L70.6858 9.14579L69.2716 10.56ZM68.4316 9.72L69.8458 8.30579L69.26 7.72H68.4316V9.72ZM64.8796 9.72V7.72H64.0511L63.4653 8.30579L64.8796 9.72ZM64.0396 10.56L62.6253 9.14579L62.0396 9.73157V10.56H64.0396ZM64.0396 19.752H62.0396V20.5804L62.6253 21.1662L64.0396 19.752ZM63.6298 22.5858L60.9658 19.9218L58.1373 22.7502L60.8013 25.4142L63.6298 22.5858ZM61.5516 21.336V8.976H57.5516V21.336H61.5516ZM60.9658 10.3902L63.6298 7.72621L60.8013 4.89779L58.1373 7.56179L60.9658 10.3902ZM62.2156 8.312H71.0956V4.312H62.2156V8.312ZM69.6813 7.72621L72.3453 10.3902L75.1738 7.56179L72.5098 4.89779L69.6813 7.72621ZM71.7596 8.976V21.336H75.7596V8.976H71.7596ZM72.3453 19.9218L69.6813 22.5858L72.5098 25.4142L75.1738 22.7502L72.3453 19.9218ZM71.0956 22H62.2156V26H71.0956V22ZM64.8796 22.592H68.4316V18.592H64.8796V22.592ZM69.8458 22.0062L70.6858 21.1662L67.8573 18.3378L67.0173 19.1778L69.8458 22.0062ZM71.2716 19.752V10.56H67.2716V19.752H71.2716ZM70.6858 9.14579L69.8458 8.30579L67.0173 11.1342L67.8573 11.9742L70.6858 9.14579ZM68.4316 7.72H64.8796V11.72H68.4316V7.72ZM63.4653 8.30579L62.6253 9.14579L65.4538 11.9742L66.2938 11.1342L63.4653 8.30579ZM62.0396 10.56V19.752H66.0396V10.56H62.0396ZM62.6253 21.1662L63.4653 22.0062L66.2938 19.1778L65.4538 18.3378L62.6253 21.1662ZM79.7208 24.456L78.3144 25.878L79.7285 27.2766L81.135 25.8702L79.7208 24.456ZM77.5368 22.296L76.1215 20.8828L74.7015 22.3049L76.1304 23.718L77.5368 22.296ZM93.9528 5.856L95.367 4.44179L93.9517 3.02654L92.5375 4.44282L93.9528 5.856ZM96.1368 8.04L97.551 9.45421L98.9652 8.04L97.551 6.62579L96.1368 8.04ZM78.9768 15.216L77.602 16.6686L78.1804 17.216H78.9768V15.216ZM76.2888 12.672H74.2888V13.5329L74.914 14.1246L76.2888 12.672ZM76.2888 8.88L74.9072 7.43387L74.2888 8.0247V8.88H76.2888ZM78.9768 6.312V4.312H78.1749L77.5952 4.86587L78.9768 6.312ZM82.9848 6.312L84.3599 4.85976L83.7814 4.312H82.9848V6.312ZM85.6968 8.88H87.6968V8.01944L87.0719 7.42776L85.6968 8.88ZM85.6968 12.672L87.0651 14.1307L87.6968 13.5381V12.672H85.6968ZM82.9848 15.216V17.216H83.776L84.3531 16.6747L82.9848 15.216ZM80.4408 12.264L79.0068 13.6582L79.5958 14.264H80.4408V12.264ZM81.5448 12.264V14.264H82.3897L82.9787 13.6582L81.5448 12.264ZM82.3848 11.4L83.8187 12.7942L84.3848 12.212V11.4H82.3848ZM82.3848 10.152H84.3848V9.34002L83.8187 8.75784L82.3848 10.152ZM81.5448 9.288L82.9787 7.89384L82.3897 7.288H81.5448V9.288ZM80.4408 9.288V7.288H79.5958L79.0068 7.89384L80.4408 9.288ZM79.6008 10.152L78.1668 8.75784L77.6008 9.34002V10.152H79.6008ZM79.6008 11.4H77.6008V12.212L78.1668 12.7942L79.6008 11.4ZM90.7128 24L89.3376 25.4522L89.9161 26H90.7128V24ZM88.0008 21.432H86.0008V22.2926L86.6256 22.8842L88.0008 21.432ZM88.0008 17.64L86.6324 16.1813L86.0008 16.7739V17.64H88.0008ZM90.7128 15.096V13.096H89.9215L89.3444 13.6373L90.7128 15.096ZM94.6968 15.096L96.0651 13.6373L95.488 13.096H94.6968V15.096ZM97.4088 17.64H99.4088V16.7739L98.7771 16.1813L97.4088 17.64ZM97.4088 21.432L98.7839 22.8842L99.4088 22.2926V21.432H97.4088ZM94.6968 24V26H95.4934L96.0719 25.4522L94.6968 24ZM92.1288 21.024L90.7145 22.4382L91.3003 23.024H92.1288V21.024ZM93.2568 21.024V23.024H94.0852L94.671 22.4382L93.2568 21.024ZM94.0968 20.184L95.511 21.5982L96.0968 21.0124V20.184H94.0968ZM94.0968 18.912H96.0968V18.0836L95.511 17.4978L94.0968 18.912ZM93.2568 18.072L94.671 16.6578L94.0852 16.072H93.2568V18.072ZM92.1288 18.072V16.072H91.3003L90.7145 16.6578L92.1288 18.072ZM91.2888 18.912L89.8745 17.4978L89.2888 18.0836V18.912H91.2888ZM91.2888 20.184H89.2888V21.0124L89.8745 21.5982L91.2888 20.184ZM81.1271 23.034L78.9431 20.874L76.1304 23.718L78.3144 25.878L81.1271 23.034ZM78.952 23.7092L95.368 7.26918L92.5375 4.44282L76.1215 20.8828L78.952 23.7092ZM92.5385 7.27021L94.7225 9.45421L97.551 6.62579L95.367 4.44179L92.5385 7.27021ZM94.7225 6.62579L78.3065 23.0418L81.135 25.8702L97.551 9.45421L94.7225 6.62579ZM80.3515 13.7634L77.6635 11.2194L74.914 14.1246L77.602 16.6686L80.3515 13.7634ZM78.2888 12.672V8.88H74.2888V12.672H78.2888ZM77.6703 10.3261L80.3583 7.75812L77.5952 4.86587L74.9072 7.43387L77.6703 10.3261ZM78.9768 8.312H82.9848V4.312H78.9768V8.312ZM81.6096 7.76424L84.3216 10.3322L87.0719 7.42776L84.3599 4.85976L81.6096 7.76424ZM83.6968 8.88V12.672H87.6968V8.88H83.6968ZM84.3284 11.2133L81.6164 13.7573L84.3531 16.6747L87.0651 14.1307L84.3284 11.2133ZM82.9848 13.216H78.9768V17.216H82.9848V13.216ZM80.4408 14.264H81.5448V10.264H80.4408V14.264ZM82.9787 13.6582L83.8187 12.7942L80.9508 10.0058L80.1108 10.8698L82.9787 13.6582ZM84.3848 11.4V10.152H80.3848V11.4H84.3848ZM83.8187 8.75784L82.9787 7.89384L80.1108 10.6822L80.9508 11.5462L83.8187 8.75784ZM81.5448 7.288H80.4408V11.288H81.5448V7.288ZM79.0068 7.89384L78.1668 8.75784L81.0347 11.5462L81.8747 10.6822L79.0068 7.89384ZM77.6008 10.152V11.4H81.6008V10.152H77.6008ZM78.1668 12.7942L79.0068 13.6582L81.8747 10.8698L81.0347 10.0058L78.1668 12.7942ZM92.0879 22.5478L89.3759 19.9798L86.6256 22.8842L89.3376 25.4522L92.0879 22.5478ZM90.0008 21.432V17.64H86.0008V21.432H90.0008ZM89.3691 19.0987L92.0811 16.5547L89.3444 13.6373L86.6324 16.1813L89.3691 19.0987ZM90.7128 17.096H94.6968V13.096H90.7128V17.096ZM93.3284 16.5547L96.0404 19.0987L98.7771 16.1813L96.0651 13.6373L93.3284 16.5547ZM95.4088 17.64V21.432H99.4088V17.64H95.4088ZM96.0336 19.9798L93.3216 22.5478L96.0719 25.4522L98.7839 22.8842L96.0336 19.9798ZM94.6968 22H90.7128V26H94.6968V22ZM92.1288 23.024H93.2568V19.024H92.1288V23.024ZM94.671 22.4382L95.511 21.5982L92.6825 18.7698L91.8425 19.6098L94.671 22.4382ZM96.0968 20.184V18.912H92.0968V20.184H96.0968ZM95.511 17.4978L94.671 16.6578L91.8425 19.4862L92.6825 20.3262L95.511 17.4978ZM93.2568 16.072H92.1288V20.072H93.2568V16.072ZM90.7145 16.6578L89.8745 17.4978L92.703 20.3262L93.543 19.4862L90.7145 16.6578ZM89.2888 18.912V20.184H93.2888V18.912H89.2888ZM89.8745 21.5982L90.7145 22.4382L93.543 19.6098L92.703 18.7698L89.8745 21.5982Z" fill="#EDE5DA" mask="url(#path-3-outside-1_726_1225)"/>
<mask id="path-5-outside-2_726_1225" maskUnits="userSpaceOnUse" x="103" y="182" width="84" height="26" fill="black">
<rect fill="white" x="103" y="182" width="84" height="26"/>
<path d="M107.354 203L114.482 189.944V189.08H106.61V185.312H120.122V189.32L112.802 203H107.354ZM121.167 205.64L122.271 199.232H126.423L123.687 205.64H121.167ZM131.837 203L129.317 200.648V187.664L131.837 185.312H141.485L144.005 187.664V190.64H139.325V189.56L138.485 188.72H134.765L133.901 189.56V191.96H141.557L144.077 194.312V200.648L141.557 203H131.837ZM134.765 199.592H138.725L139.565 198.752V195.92L138.725 195.08H134.765L133.901 195.92V198.752L134.765 199.592ZM148.969 203L146.473 200.648V195.656L148.489 193.808L146.905 192.392V187.664L149.425 185.312H157.825L160.345 187.664V192.392L158.761 193.808L160.777 195.656V200.648L158.233 203H148.969ZM152.065 192.104H155.161L156.001 191.264V189.56L155.161 188.72H152.065L151.225 189.56V191.264L152.065 192.104ZM151.801 199.592H155.449L156.289 198.752V196.352L155.449 195.512H151.801L150.961 196.352V198.752L151.801 199.592ZM166.736 203.456L164.552 201.296L180.968 184.856L183.152 187.04L166.736 203.456ZM165.992 194.216L163.304 191.672V187.88L165.992 185.312H170L172.712 187.88V191.672L170 194.216H165.992ZM167.456 191.264H168.56L169.4 190.4V189.152L168.56 188.288H167.456L166.616 189.152V190.4L167.456 191.264ZM177.728 203L175.016 200.432V196.64L177.728 194.096H181.712L184.424 196.64V200.432L181.712 203H177.728ZM179.144 200.024H180.272L181.112 199.184V197.912L180.272 197.072H179.144L178.304 197.912V199.184L179.144 200.024Z"/>
</mask>
<path d="M107.354 203L114.482 189.944V189.08H106.61V185.312H120.122V189.32L112.802 203H107.354ZM121.167 205.64L122.271 199.232H126.423L123.687 205.64H121.167ZM131.837 203L129.317 200.648V187.664L131.837 185.312H141.485L144.005 187.664V190.64H139.325V189.56L138.485 188.72H134.765L133.901 189.56V191.96H141.557L144.077 194.312V200.648L141.557 203H131.837ZM134.765 199.592H138.725L139.565 198.752V195.92L138.725 195.08H134.765L133.901 195.92V198.752L134.765 199.592ZM148.969 203L146.473 200.648V195.656L148.489 193.808L146.905 192.392V187.664L149.425 185.312H157.825L160.345 187.664V192.392L158.761 193.808L160.777 195.656V200.648L158.233 203H148.969ZM152.065 192.104H155.161L156.001 191.264V189.56L155.161 188.72H152.065L151.225 189.56V191.264L152.065 192.104ZM151.801 199.592H155.449L156.289 198.752V196.352L155.449 195.512H151.801L150.961 196.352V198.752L151.801 199.592ZM166.736 203.456L164.552 201.296L180.968 184.856L183.152 187.04L166.736 203.456ZM165.992 194.216L163.304 191.672V187.88L165.992 185.312H170L172.712 187.88V191.672L170 194.216H165.992ZM167.456 191.264H168.56L169.4 190.4V189.152L168.56 188.288H167.456L166.616 189.152V190.4L167.456 191.264ZM177.728 203L175.016 200.432V196.64L177.728 194.096H181.712L184.424 196.64V200.432L181.712 203H177.728ZM179.144 200.024H180.272L181.112 199.184V197.912L180.272 197.072H179.144L178.304 197.912V199.184L179.144 200.024Z" fill="black"/>
<path d="M107.354 203L105.599 202.042L103.983 205H107.354V203ZM114.482 189.944L116.237 190.902L116.482 190.454V189.944H114.482ZM114.482 189.08H116.482V187.08H114.482V189.08ZM106.61 189.08H104.61V191.08H106.61V189.08ZM106.61 185.312V183.312H104.61V185.312H106.61ZM120.122 185.312H122.122V183.312H120.122V185.312ZM120.122 189.32L121.885 190.264L122.122 189.821V189.32H120.122ZM112.802 203V205H114L114.565 203.944L112.802 203ZM109.109 203.958L116.237 190.902L112.727 188.986L105.599 202.042L109.109 203.958ZM116.482 189.944V189.08H112.482V189.944H116.482ZM114.482 187.08H106.61V191.08H114.482V187.08ZM108.61 189.08V185.312H104.61V189.08H108.61ZM106.61 187.312H120.122V183.312H106.61V187.312ZM118.122 185.312V189.32H122.122V185.312H118.122ZM118.359 188.376L111.039 202.056L114.565 203.944L121.885 190.264L118.359 188.376ZM112.802 201H107.354V205H112.802V201ZM121.167 205.64L119.196 205.3L118.793 207.64H121.167V205.64ZM122.271 199.232V197.232H120.586L120.3 198.892L122.271 199.232ZM126.423 199.232L128.262 200.017L129.452 197.232H126.423V199.232ZM123.687 205.64V207.64H125.008L125.526 206.425L123.687 205.64ZM123.138 205.98L124.242 199.572L120.3 198.892L119.196 205.3L123.138 205.98ZM122.271 201.232H126.423V197.232H122.271V201.232ZM124.584 198.447L121.848 204.855L125.526 206.425L128.262 200.017L124.584 198.447ZM123.687 203.64H121.167V207.64H123.687V203.64ZM131.837 203L130.473 204.462L131.049 205H131.837V203ZM129.317 200.648H127.317V201.517L127.953 202.11L129.317 200.648ZM129.317 187.664L127.953 186.202L127.317 186.795V187.664H129.317ZM131.837 185.312V183.312H131.049L130.473 183.85L131.837 185.312ZM141.485 185.312L142.85 183.85L142.274 183.312H141.485V185.312ZM144.005 187.664H146.005V186.795L145.37 186.202L144.005 187.664ZM144.005 190.64V192.64H146.005V190.64H144.005ZM139.325 190.64H137.325V192.64H139.325V190.64ZM139.325 189.56H141.325V188.732L140.739 188.146L139.325 189.56ZM138.485 188.72L139.899 187.306L139.314 186.72H138.485V188.72ZM134.765 188.72V186.72H133.953L133.371 187.286L134.765 188.72ZM133.901 189.56L132.507 188.126L131.901 188.715V189.56H133.901ZM133.901 191.96H131.901V193.96H133.901V191.96ZM141.557 191.96L142.922 190.498L142.346 189.96H141.557V191.96ZM144.077 194.312H146.077V193.443L145.442 192.85L144.077 194.312ZM144.077 200.648L145.442 202.11L146.077 201.517V200.648H144.077ZM141.557 203V205H142.346L142.922 204.462L141.557 203ZM134.765 199.592L133.371 201.026L133.953 201.592H134.765V199.592ZM138.725 199.592V201.592H139.554L140.139 201.006L138.725 199.592ZM139.565 198.752L140.979 200.166L141.565 199.58V198.752H139.565ZM139.565 195.92H141.565V195.092L140.979 194.506L139.565 195.92ZM138.725 195.08L140.139 193.666L139.554 193.08H138.725V195.08ZM134.765 195.08V193.08H133.953L133.371 193.646L134.765 195.08ZM133.901 195.92L132.507 194.486L131.901 195.075V195.92H133.901ZM133.901 198.752H131.901V199.597L132.507 200.186L133.901 198.752ZM133.202 201.538L130.682 199.186L127.953 202.11L130.473 204.462L133.202 201.538ZM131.317 200.648V187.664H127.317V200.648H131.317ZM130.682 189.126L133.202 186.774L130.473 183.85L127.953 186.202L130.682 189.126ZM131.837 187.312H141.485V183.312H131.837V187.312ZM140.121 186.774L142.641 189.126L145.37 186.202L142.85 183.85L140.121 186.774ZM142.005 187.664V190.64H146.005V187.664H142.005ZM144.005 188.64H139.325V192.64H144.005V188.64ZM141.325 190.64V189.56H137.325V190.64H141.325ZM140.739 188.146L139.899 187.306L137.071 190.134L137.911 190.974L140.739 188.146ZM138.485 186.72H134.765V190.72H138.485V186.72ZM133.371 187.286L132.507 188.126L135.295 190.994L136.159 190.154L133.371 187.286ZM131.901 189.56V191.96H135.901V189.56H131.901ZM133.901 193.96H141.557V189.96H133.901V193.96ZM140.193 193.422L142.713 195.774L145.442 192.85L142.922 190.498L140.193 193.422ZM142.077 194.312V200.648H146.077V194.312H142.077ZM142.713 199.186L140.193 201.538L142.922 204.462L145.442 202.11L142.713 199.186ZM141.557 201H131.837V205H141.557V201ZM134.765 201.592H138.725V197.592H134.765V201.592ZM140.139 201.006L140.979 200.166L138.151 197.338L137.311 198.178L140.139 201.006ZM141.565 198.752V195.92H137.565V198.752H141.565ZM140.979 194.506L140.139 193.666L137.311 196.494L138.151 197.334L140.979 194.506ZM138.725 193.08H134.765V197.08H138.725V193.08ZM133.371 193.646L132.507 194.486L135.295 197.354L136.159 196.514L133.371 193.646ZM131.901 195.92V198.752H135.901V195.92H131.901ZM132.507 200.186L133.371 201.026L136.159 198.158L135.295 197.318L132.507 200.186ZM148.969 203L147.598 204.456L148.176 205H148.969V203ZM146.473 200.648H144.473V201.511L145.102 202.104L146.473 200.648ZM146.473 195.656L145.122 194.182L144.473 194.776V195.656H146.473ZM148.489 193.808L149.841 195.282L151.47 193.789L149.822 192.317L148.489 193.808ZM146.905 192.392H144.905V193.287L145.573 193.883L146.905 192.392ZM146.905 187.664L145.541 186.202L144.905 186.795V187.664H146.905ZM149.425 185.312V183.312H148.637L148.061 183.85L149.425 185.312ZM157.825 185.312L159.19 183.85L158.614 183.312H157.825V185.312ZM160.345 187.664H162.345V186.795L161.71 186.202L160.345 187.664ZM160.345 192.392L161.678 193.883L162.345 193.287V192.392H160.345ZM158.761 193.808L157.429 192.317L155.781 193.789L157.41 195.282L158.761 193.808ZM160.777 195.656H162.777V194.776L162.129 194.182L160.777 195.656ZM160.777 200.648L162.135 202.117L162.777 201.523V200.648H160.777ZM158.233 203V205H159.016L159.591 204.469L158.233 203ZM152.065 192.104L150.651 193.518L151.237 194.104H152.065V192.104ZM155.161 192.104V194.104H155.99L156.576 193.518L155.161 192.104ZM156.001 191.264L157.416 192.678L158.001 192.092V191.264H156.001ZM156.001 189.56H158.001V188.732L157.416 188.146L156.001 189.56ZM155.161 188.72L156.576 187.306L155.99 186.72H155.161V188.72ZM152.065 188.72V186.72H151.237L150.651 187.306L152.065 188.72ZM151.225 189.56L149.811 188.146L149.225 188.732V189.56H151.225ZM151.225 191.264H149.225V192.092L149.811 192.678L151.225 191.264ZM151.801 199.592L150.387 201.006L150.973 201.592H151.801V199.592ZM155.449 199.592V201.592H156.278L156.864 201.006L155.449 199.592ZM156.289 198.752L157.704 200.166L158.289 199.58V198.752H156.289ZM156.289 196.352H158.289V195.524L157.704 194.938L156.289 196.352ZM155.449 195.512L156.864 194.098L156.278 193.512H155.449V195.512ZM151.801 195.512V193.512H150.973L150.387 194.098L151.801 195.512ZM150.961 196.352L149.547 194.938L148.961 195.524V196.352H150.961ZM150.961 198.752H148.961V199.58L149.547 200.166L150.961 198.752ZM150.341 201.544L147.845 199.192L145.102 202.104L147.598 204.456L150.341 201.544ZM148.473 200.648V195.656H144.473V200.648H148.473ZM147.825 197.13L149.841 195.282L147.138 192.334L145.122 194.182L147.825 197.13ZM149.822 192.317L148.238 190.901L145.573 193.883L147.157 195.299L149.822 192.317ZM148.905 192.392V187.664H144.905V192.392H148.905ZM148.27 189.126L150.79 186.774L148.061 183.85L145.541 186.202L148.27 189.126ZM149.425 187.312H157.825V183.312H149.425V187.312ZM156.461 186.774L158.981 189.126L161.71 186.202L159.19 183.85L156.461 186.774ZM158.345 187.664V192.392H162.345V187.664H158.345ZM159.013 190.901L157.429 192.317L160.094 195.299L161.678 193.883L159.013 190.901ZM157.41 195.282L159.426 197.13L162.129 194.182L160.113 192.334L157.41 195.282ZM158.777 195.656V200.648H162.777V195.656H158.777ZM159.42 199.179L156.876 201.531L159.591 204.469L162.135 202.117L159.42 199.179ZM158.233 201H148.969V205H158.233V201ZM152.065 194.104H155.161V190.104H152.065V194.104ZM156.576 193.518L157.416 192.678L154.587 189.85L153.747 190.69L156.576 193.518ZM158.001 191.264V189.56H154.001V191.264H158.001ZM157.416 188.146L156.576 187.306L153.747 190.134L154.587 190.974L157.416 188.146ZM155.161 186.72H152.065V190.72H155.161V186.72ZM150.651 187.306L149.811 188.146L152.64 190.974L153.48 190.134L150.651 187.306ZM149.225 189.56V191.264H153.225V189.56H149.225ZM149.811 192.678L150.651 193.518L153.48 190.69L152.64 189.85L149.811 192.678ZM151.801 201.592H155.449V197.592H151.801V201.592ZM156.864 201.006L157.704 200.166L154.875 197.338L154.035 198.178L156.864 201.006ZM158.289 198.752V196.352H154.289V198.752H158.289ZM157.704 194.938L156.864 194.098L154.035 196.926L154.875 197.766L157.704 194.938ZM155.449 193.512H151.801V197.512H155.449V193.512ZM150.387 194.098L149.547 194.938L152.376 197.766L153.216 196.926L150.387 194.098ZM148.961 196.352V198.752H152.961V196.352H148.961ZM149.547 200.166L150.387 201.006L153.216 198.178L152.376 197.338L149.547 200.166ZM166.736 203.456L165.33 204.878L166.744 206.277L168.151 204.87L166.736 203.456ZM164.552 201.296L163.137 199.883L161.717 201.305L163.146 202.718L164.552 201.296ZM180.968 184.856L182.383 183.442L180.967 182.027L179.553 183.443L180.968 184.856ZM183.152 187.04L184.567 188.454L185.981 187.04L184.567 185.626L183.152 187.04ZM165.992 194.216L164.618 195.669L165.196 196.216H165.992V194.216ZM163.304 191.672H161.304V192.533L161.93 193.125L163.304 191.672ZM163.304 187.88L161.923 186.434L161.304 187.025V187.88H163.304ZM165.992 185.312V183.312H165.191L164.611 183.866L165.992 185.312ZM170 185.312L171.376 183.86L170.797 183.312H170V185.312ZM172.712 187.88H174.712V187.019L174.088 186.428L172.712 187.88ZM172.712 191.672L174.081 193.131L174.712 192.538V191.672H172.712ZM170 194.216V196.216H170.792L171.369 195.675L170 194.216ZM167.456 191.264L166.022 192.658L166.611 193.264H167.456V191.264ZM168.56 191.264V193.264H169.405L169.994 192.658L168.56 191.264ZM169.4 190.4L170.834 191.794L171.4 191.212V190.4H169.4ZM169.4 189.152H171.4V188.34L170.834 187.758L169.4 189.152ZM168.56 188.288L169.994 186.894L169.405 186.288H168.56V188.288ZM167.456 188.288V186.288H166.611L166.022 186.894L167.456 188.288ZM166.616 189.152L165.182 187.758L164.616 188.34V189.152H166.616ZM166.616 190.4H164.616V191.212L165.182 191.794L166.616 190.4ZM177.728 203L176.353 204.452L176.932 205H177.728V203ZM175.016 200.432H173.016V201.293L173.641 201.884L175.016 200.432ZM175.016 196.64L173.648 195.181L173.016 195.774V196.64H175.016ZM177.728 194.096V192.096H176.937L176.36 192.637L177.728 194.096ZM181.712 194.096L183.081 192.637L182.504 192.096H181.712V194.096ZM184.424 196.64H186.424V195.774L185.793 195.181L184.424 196.64ZM184.424 200.432L185.8 201.884L186.424 201.293V200.432H184.424ZM181.712 203V205H182.509L183.088 204.452L181.712 203ZM179.144 200.024L177.73 201.438L178.316 202.024H179.144V200.024ZM180.272 200.024V202.024H181.101L181.687 201.438L180.272 200.024ZM181.112 199.184L182.527 200.598L183.112 200.012V199.184H181.112ZM181.112 197.912H183.112V197.084L182.527 196.498L181.112 197.912ZM180.272 197.072L181.687 195.658L181.101 195.072H180.272V197.072ZM179.144 197.072V195.072H178.316L177.73 195.658L179.144 197.072ZM178.304 197.912L176.89 196.498L176.304 197.084V197.912H178.304ZM178.304 199.184H176.304V200.012L176.89 200.598L178.304 199.184ZM168.143 202.034L165.959 199.874L163.146 202.718L165.33 204.878L168.143 202.034ZM165.968 202.709L182.384 186.269L179.553 183.443L163.137 199.883L165.968 202.709ZM179.554 186.27L181.738 188.454L184.567 185.626L182.383 183.442L179.554 186.27ZM181.738 185.626L165.322 202.042L168.151 204.87L184.567 188.454L181.738 185.626ZM167.367 192.763L164.679 190.219L161.93 193.125L164.618 195.669L167.367 192.763ZM165.304 191.672V187.88H161.304V191.672H165.304ZM164.686 189.326L167.374 186.758L164.611 183.866L161.923 186.434L164.686 189.326ZM165.992 187.312H170V183.312H165.992V187.312ZM168.625 186.764L171.337 189.332L174.088 186.428L171.376 183.86L168.625 186.764ZM170.712 187.88V191.672H174.712V187.88H170.712ZM171.344 190.213L168.632 192.757L171.369 195.675L174.081 193.131L171.344 190.213ZM170 192.216H165.992V196.216H170V192.216ZM167.456 193.264H168.56V189.264H167.456V193.264ZM169.994 192.658L170.834 191.794L167.966 189.006L167.126 189.87L169.994 192.658ZM171.4 190.4V189.152H167.4V190.4H171.4ZM170.834 187.758L169.994 186.894L167.126 189.682L167.966 190.546L170.834 187.758ZM168.56 186.288H167.456V190.288H168.56V186.288ZM166.022 186.894L165.182 187.758L168.05 190.546L168.89 189.682L166.022 186.894ZM164.616 189.152V190.4H168.616V189.152H164.616ZM165.182 191.794L166.022 192.658L168.89 189.87L168.05 189.006L165.182 191.794ZM179.104 201.548L176.392 198.98L173.641 201.884L176.353 204.452L179.104 201.548ZM177.016 200.432V196.64H173.016V200.432H177.016ZM176.385 198.099L179.097 195.555L176.36 192.637L173.648 195.181L176.385 198.099ZM177.728 196.096H181.712V192.096H177.728V196.096ZM180.344 195.555L183.056 198.099L185.793 195.181L183.081 192.637L180.344 195.555ZM182.424 196.64V200.432H186.424V196.64H182.424ZM183.049 198.98L180.337 201.548L183.088 204.452L185.8 201.884L183.049 198.98ZM181.712 201H177.728V205H181.712V201ZM179.144 202.024H180.272V198.024H179.144V202.024ZM181.687 201.438L182.527 200.598L179.698 197.77L178.858 198.61L181.687 201.438ZM183.112 199.184V197.912H179.112V199.184H183.112ZM182.527 196.498L181.687 195.658L178.858 198.486L179.698 199.326L182.527 196.498ZM180.272 195.072H179.144V199.072H180.272V195.072ZM177.73 195.658L176.89 196.498L179.719 199.326L180.559 198.486L177.73 195.658ZM176.304 197.912V199.184H180.304V197.912H176.304ZM176.89 200.598L177.73 201.438L180.559 198.61L179.719 197.77L176.89 200.598Z" fill="#EDE5DA" mask="url(#path-5-outside-2_726_1225)"/>
<defs>
<filter id="filter0_d_726_1225" x="103" y="215.2" width="87.2002" height="117.6" filterUnits="userSpaceOnUse" color-interpolation-filters="sRGB">
<feFlood flood-opacity="0" result="BackgroundImageFix"/>
<feColorMatrix in="SourceAlpha" type="matrix" values="0 0 0 0 0 0 0 0 0 0 0 0 0 0 0 0 0 0 127 0" result="hardAlpha"/>
<feOffset dx="12"/>
<feComposite in2="hardAlpha" operator="out"/>
<feColorMatrix type="matrix" values="0 0 0 0 0.694118 0 0 0 0 0.52549 0 0 0 0 0.0117647 0 0 0 1 0"/>
<feBlend mode="normal" in2="BackgroundImageFix" result="effect1_dropShadow_726_1225"/>
<feBlend mode="normal" in="SourceGraphic" in2="effect1_dropShadow_726_1225" result="shape"/>
</filter>
<filter id="filter1_d_726_1225" x="0.5" y="37.2002" width="87.2002" height="295.6" filterUnits="userSpaceOnUse" color-interpolation-filters="sRGB">
<feFlood flood-opacity="0" result="BackgroundImageFix"/>
<feColorMatrix in="SourceAlpha" type="matrix" values="0 0 0 0 0 0 0 0 0 0 0 0 0 0 0 0 0 0 127 0" result="hardAlpha"/>
<feOffset dx="12"/>
<feComposite in2="hardAlpha" operator="out"/>
<feColorMatrix type="matrix" values="0 0 0 0 0.0117647 0 0 0 0 0.333333 0 0 0 0 0.560784 0 0 0 1 0"/>
<feBlend mode="normal" in2="BackgroundImageFix" result="effect1_dropShadow_726_1225"/>
<feBlend mode="normal" in="SourceGraphic" in2="effect1_dropShadow_726_1225" result="shape"/>
</filter>
</defs>
</svg>
