<svg width="170" height="38" viewBox="0 0 170 38" fill="none" xmlns="http://www.w3.org/2000/svg">
<path d="M145.72 18.3648L150.018 14.8194C151.362 15.8121 151.696 17.2515 151.848 18.8754L156.728 14.8194C157.904 16.195 159.48 17.1877 160.264 18.9888L165.296 14.8052C166.175 15.7483 167.082 16.6133 167.867 17.5848C168.761 18.7201 169.223 20.1241 169.174 21.5557C169.174 24.7466 169.137 27.9375 169.174 31.1426C169.207 32.0012 169.038 32.8558 168.679 33.6402C168.32 34.4247 167.781 35.118 167.104 35.6666C166.168 36.4826 165.084 37.1221 163.909 37.5528V36.8437C163.909 31.7714 163.909 26.7037 163.909 21.6408C163.909 20.9317 163.815 20.2793 163.103 19.9319C162.736 19.761 162.331 19.685 161.925 19.7111C161.52 19.7371 161.128 19.8645 160.787 20.0808C160.727 20.132 160.679 20.1953 160.646 20.2663C160.614 20.3373 160.597 20.4143 160.598 20.4921C160.598 24.307 160.598 28.1219 160.598 31.9368C160.601 32.2936 160.689 32.6448 160.856 32.9624C161.022 33.2801 161.262 33.5553 161.557 33.7663L157.672 37.0352C157.47 36.8688 157.279 36.6912 157.098 36.5033C155.987 35.3003 155.378 33.7342 155.392 32.1141C155.392 28.675 155.392 25.2359 155.392 21.7897C155.392 21.0097 155.341 20.2723 154.506 19.9035C154.095 19.7356 153.646 19.6773 153.204 19.7346C152.763 19.7919 152.345 19.9628 151.994 20.2297C151.936 20.2842 151.891 20.3493 151.86 20.4211C151.829 20.4929 151.812 20.5701 151.812 20.6481C151.812 24.5055 151.812 28.3559 151.812 32.2063C151.941 32.7877 152.169 33.3439 152.487 33.8513L148.552 37.0777C148.154 36.6543 147.78 36.2092 147.433 35.7447C146.72 34.6506 146.351 33.3757 146.373 32.0786C146.373 28.2401 146.373 24.4063 146.373 20.5772C146.441 19.7864 146.208 18.999 145.72 18.3648Z" fill="white"/>
<path d="M60.8787 14.8123C61.9534 15.5781 62.331 16.4645 62.694 18.9889L65.1193 16.9183L67.5663 14.791C69.0549 16.3368 70.7758 17.6841 71.197 19.9816C71.2972 20.5103 71.3507 21.0464 71.3568 21.5841C71.3568 24.7254 71.3568 27.8666 71.3568 31.0079C71.3974 31.8816 71.2356 32.7529 70.8836 33.5571C70.5316 34.3612 69.9983 35.0775 69.3236 35.6525C68.4215 36.4495 67.3815 37.0833 66.252 37.5245V21.6905C66.252 20.0454 65.2427 19.3008 63.7106 19.8114C63.5436 19.8681 63.3766 19.9532 63.2095 20.0241C62.994 20.1004 62.8124 20.2476 62.6958 20.4403C62.5792 20.6331 62.5349 20.8595 62.5705 21.0806C62.5996 24.5221 62.5996 27.9612 62.5705 31.398C62.5705 32.2914 62.6287 33.1139 63.4637 33.6741L59.5063 37.0068C58.8658 36.4698 58.3465 35.8086 57.9815 35.0652C57.6165 34.3218 57.4137 33.5125 57.386 32.6885C57.2916 31.0576 57.3279 29.4196 57.3206 27.7887C57.3206 25.3707 57.3206 22.9527 57.3206 20.5347C57.3804 19.7534 57.1539 18.9769 56.6816 18.3436L60.8787 14.8123Z" fill="white"/>
<path d="M142.779 25.7037C142.779 27.0651 142.779 28.4337 142.779 29.8022C142.807 30.7203 142.62 31.6324 142.233 32.4693C141.845 33.3061 141.267 34.0455 140.543 34.6311C138.943 35.9082 136.935 36.5952 134.87 36.5718C132.804 36.5485 130.813 35.8163 129.244 34.5035C128.565 33.9253 128.024 33.2083 127.66 32.4031C127.296 31.598 127.118 30.7246 127.138 29.8448C127.138 27.2211 127.138 24.6046 127.138 21.9809C127.138 18.8042 128.656 16.5351 131.698 15.4573C135.133 14.2376 138.306 14.7482 141.015 17.2442C141.592 17.7837 142.048 18.4353 142.351 19.1571C142.655 19.8789 142.801 20.6548 142.779 21.4349V25.7037ZM132.461 25.8951H132.366C132.366 27.3133 132.366 28.7315 132.366 30.1071C132.326 31.3644 132.574 32.6145 133.093 33.766C133.24 34.132 133.497 34.4462 133.83 34.6675C134.163 34.8889 134.556 35.0071 134.959 35.0069C135.356 35.019 135.747 34.9054 136.072 34.6831C136.398 34.4607 136.642 34.1416 136.767 33.7731C137.131 32.9536 137.356 32.0819 137.435 31.192C137.536 27.9798 137.536 24.7535 137.522 21.5342C137.574 20.3126 137.325 19.0967 136.796 17.9887C136.661 17.6172 136.414 17.2943 136.087 17.0626C135.76 16.8309 135.37 16.7014 134.966 16.6911C134.569 16.6934 134.184 16.8191 133.865 17.0498C133.547 17.2806 133.312 17.6045 133.194 17.9746C132.835 18.7566 132.607 19.5897 132.519 20.4422C132.395 22.2646 132.461 24.0799 132.461 25.8951Z" fill="white"/>
<path d="M125.127 31.4475C125.234 31.742 125.239 32.0629 125.141 32.3604C125.042 32.6579 124.846 32.9153 124.582 33.0925C123.76 33.6485 122.979 34.2598 122.244 34.922C119.572 37.2833 114.126 37.2762 111.207 33.83C109.431 31.6654 108.493 28.959 108.557 26.186C108.44 23.8765 108.941 21.5771 110.009 19.5135C110.968 17.6709 112.575 16.2271 114.535 15.4459C116.495 14.6648 118.677 14.5984 120.683 15.2589C122.018 15.6234 123.175 16.4419 123.946 17.5667C124.717 18.6915 125.051 20.0485 124.887 21.3925C124.841 22.0344 124.562 22.6392 124.1 23.0981C123.638 23.557 123.024 23.8398 122.368 23.8956C121.889 23.9706 121.399 23.9055 120.958 23.7086C120.517 23.5118 120.146 23.192 119.891 22.7895C119.612 22.3486 119.463 21.8403 119.463 21.3216C119.463 20.803 119.612 20.2947 119.891 19.8538C120.189 19.3969 120.535 18.9716 120.923 18.5846C121.431 17.9889 121.373 17.5918 120.697 17.1664C119.901 16.6809 118.94 16.524 118.025 16.73C117.11 16.9361 116.316 17.4883 115.818 18.2655C115.249 19.2652 114.907 20.3729 114.816 21.5131C114.417 24.345 114.515 27.2226 115.106 30.0222C115.265 30.6785 115.509 31.3124 115.832 31.9084C116.653 33.4613 118.069 34.0782 119.935 33.8087C121.667 33.5232 123.295 32.8132 124.669 31.7453L125.091 31.4475H125.127Z" fill="white"/>
<path d="M47.8737 14.812C49.3768 17.0386 51.3882 17.0314 53.6827 16.4287C52.5717 17.4711 51.5043 18.556 50.328 19.5345C49.9784 19.8141 49.5635 20.005 49.1201 20.0904C48.6768 20.1757 48.2187 20.1529 47.7866 20.0238C47.3891 19.9242 47.0227 19.7313 46.7189 19.4619C46.4152 19.1925 46.1835 18.8547 46.0438 18.478C45.7947 18.6698 45.5975 18.9181 45.4691 19.2014C45.3408 19.4846 45.2853 19.7942 45.3075 20.1032C45.3297 20.4122 45.4289 20.7112 45.5965 20.9742C45.764 21.2372 45.9949 21.4562 46.2689 21.6122C47.3872 22.3709 48.5998 22.9665 49.7617 23.6544C50.5775 24.0981 51.3568 24.603 52.0925 25.1647C52.6156 25.5772 53.0405 26.096 53.3377 26.685C53.6349 27.2739 53.7972 27.919 53.8134 28.5754C53.8318 29.3134 53.7036 30.0479 53.4359 30.7382C52.9376 32.1158 52.1012 33.3532 50.9999 34.3421C49.8986 35.331 48.566 36.0413 47.1185 36.4109C44.8385 37.0066 42.9505 36.1911 41.7016 34.1418C40.8447 32.7237 40.8447 32.7237 42.0574 31.7026L45.5573 28.7315C45.6662 29.3484 45.7243 29.9086 45.8623 30.4546C46.2689 32.0146 47.3872 32.9222 48.7668 32.8513C49.053 32.8434 49.3318 32.7609 49.5743 32.6124C49.8168 32.4639 50.0142 32.2548 50.1461 32.0066C50.2779 31.7585 50.3394 31.4805 50.3242 31.2013C50.3089 30.9222 50.2175 30.6521 50.0593 30.4191C49.8525 30.0534 49.5555 29.7438 49.1952 29.5185C48.0117 28.8095 46.8063 28.1004 45.5646 27.4551C44.221 26.8133 43.1073 25.7901 42.3696 24.5195C41.797 23.5846 41.5896 22.479 41.7858 21.4066C41.9819 20.3342 42.5684 19.3672 43.437 18.6837L47.8737 14.812Z" fill="white"/>
<path d="M97.5125 16.3224C96.6121 17.2797 95.748 18.2511 94.8113 19.1588C94.5119 19.4634 94.1521 19.7054 93.7539 19.8699C93.3556 20.0345 92.9273 20.1182 92.4949 20.116C91.958 20.1384 91.4276 19.9931 90.9811 19.7011C90.5345 19.409 90.1949 18.9856 90.0116 18.4922C89.6554 18.7292 89.4043 19.0891 89.3086 19.4995C89.213 19.9099 89.2799 20.3404 89.496 20.7046C89.6987 21.1123 90.0033 21.4635 90.3819 21.7257C91.4711 22.4348 92.5603 23.0658 93.7366 23.6544C94.8274 24.1389 95.7983 24.8476 96.583 25.7321C97.1722 26.3776 97.5658 27.1706 97.7197 28.0221C97.8736 28.8737 97.7817 29.7504 97.4544 30.5539C96.2345 33.6242 94.0779 35.6593 90.9192 36.4251C88.6464 36.9782 86.7367 36.0209 85.5531 33.8582C84.8996 32.6528 84.8996 32.6528 85.9016 31.7948L89.162 29.0222C89.283 28.9238 89.409 28.8316 89.5396 28.7457C89.6336 29.3923 89.7621 30.0337 89.9244 30.6673C90.0582 31.2898 90.4143 31.8457 90.9291 32.2354C91.4439 32.6251 92.0838 32.8233 92.7346 32.7946C93.0074 32.7865 93.2734 32.7093 93.5065 32.5706C93.7396 32.432 93.9319 32.2365 94.0644 32.0035C94.1969 31.7704 94.2651 31.5077 94.2624 31.2412C94.2597 30.9746 94.1861 30.7134 94.0489 30.4829C93.8448 30.0757 93.5342 29.7284 93.1485 29.476C91.9431 28.7315 90.7086 28.0579 89.4597 27.3488C88.6172 26.9588 87.867 26.4019 87.2569 25.7133C86.6468 25.0248 86.1902 24.2198 85.9162 23.3495C85.6523 22.5554 85.6334 21.7031 85.8619 20.8987C86.0905 20.0943 86.5563 19.3732 87.2014 18.8255C88.7336 17.464 90.2948 16.1381 91.8632 14.7837C93.3082 17.0102 95.3268 17.0528 97.5125 16.3224Z" fill="white"/>
<path d="M81.1524 14.812V15.6204C81.1524 20.7495 81.1524 25.8785 81.1524 31.0076C81.1012 31.4491 81.1655 31.8961 81.3395 32.3066C81.5135 32.7171 81.7914 33.0778 82.1472 33.3548L78.2406 36.574C77.5253 35.9869 76.9513 35.2529 76.5597 34.4243C76.1681 33.5958 75.9685 32.6931 75.9751 31.7806C75.9751 28.4147 75.9751 25.0489 75.9751 21.6831C76.0111 20.9471 75.771 20.2235 75.2998 19.648L81.1524 14.812Z" fill="white"/>
<path d="M78.7267 6.91992L82.1468 10.3803L78.7194 13.8407L75.3066 10.3803C76.4104 9.23865 77.5939 8.04738 78.7267 6.91992Z" fill="white"/>
<path d="M37.1777 14.812V15.5211C37.1777 20.8204 37.1777 26.1126 37.1777 31.3977C37.1609 31.7761 37.2411 32.1526 37.411 32.4931C37.5809 32.8336 37.8352 33.1274 38.1507 33.3477L34.2369 36.5669C33.5301 35.9944 32.9608 35.2771 32.5693 34.466C32.1778 33.6548 31.9737 32.7695 31.9714 31.8727C31.9714 28.4549 31.9714 25.0371 31.9714 21.6193C32.0061 20.9053 31.7709 20.2037 31.3105 19.648L37.1777 14.812Z" fill="white"/>
<path d="M38.1218 10.359L34.7017 13.8265L31.2744 10.359L34.7017 6.90576L38.1218 10.359Z" fill="white"/>
<path d="M101.651 34.2273C101.671 33.7585 101.832 33.3058 102.113 32.9257C102.395 32.5456 102.785 32.2549 103.235 32.0898C103.685 31.9247 104.174 31.8926 104.643 31.9974C105.111 32.1023 105.537 32.3395 105.869 32.6794C106.2 33.0193 106.421 33.4469 106.505 33.9089C106.589 34.3709 106.532 34.8468 106.341 35.2773C106.15 35.7078 105.833 36.0738 105.43 36.3297C105.028 36.5855 104.557 36.72 104.076 36.7162C103.418 36.6977 102.793 36.4256 102.339 35.9594C101.884 35.4933 101.637 34.8707 101.651 34.2273Z" fill="white"/>
<path d="M9.2363 29.6111C10.4272 28.3631 10.6523 26.8173 10.6886 25.2502C10.6886 20.4142 10.6886 15.5711 10.6886 10.7351C10.6523 9.91319 10.8035 9.09367 11.1313 8.33579C11.459 7.57792 11.9552 6.90064 12.5838 6.35294C14.0796 5.04113 15.5754 3.7293 17.0495 2.4033C20.092 -0.319606 24.3108 0.985131 25.2403 4.9844C25.7454 7.27782 25.3625 9.67264 24.1656 11.7066C23.1515 13.5642 21.7037 15.1626 19.9395 16.3724L19.6273 16.6064C20.5712 16.7411 21.4571 16.8262 22.3212 16.9893C22.91 17.1031 23.4863 17.2716 24.0421 17.4927C27.0047 18.6698 28.5151 21.2013 28.3626 24.4135C28.1375 29.3771 25.4581 32.5964 21.2393 34.7095C18.8216 36.0085 16.0895 36.6455 13.3317 36.5531C12.7316 36.5438 12.1393 36.4185 11.589 36.1844C8.54652 34.7095 5.54759 35.0711 2.54867 36.2766L2.07667 36.4539C2.07667 36.4539 2.04039 36.4539 1.96777 36.4539C2.86176 35.1665 3.93456 34.0067 5.15545 33.0076C6.88449 31.4757 9.07572 30.5327 11.4002 30.3202C13.2293 30.2319 15.0506 30.6081 16.6864 31.4122C16.8825 31.5044 17.0785 31.6108 17.369 31.7455V31.0364C17.369 24.4182 17.369 17.8 17.369 11.1819C17.369 10.4019 17.4634 9.60765 16.5121 9.21056L17.6812 8.06893L18.7704 9.15386C18.7704 9.15386 18.7704 9.18928 18.7704 9.20346C18.4597 9.44451 18.2205 9.76221 18.0776 10.1237C17.9346 10.4852 17.893 10.8774 17.9571 11.2598C18.0152 12.7986 17.9571 14.3373 17.9571 15.876V16.4716L18.1459 16.578C18.5986 16.0999 19.0182 15.593 19.4021 15.0606C20.2688 13.5113 20.7115 11.7699 20.6874 10.0047C20.7753 8.63628 20.5929 7.26412 20.1501 5.96295C19.9923 5.50354 19.7673 5.06885 19.482 4.6724C19.3022 4.3906 19.0484 4.161 18.7469 4.0075C18.4454 3.854 18.1073 3.78221 17.7678 3.79959C17.4283 3.81696 17.0997 3.92287 16.8163 4.10631C16.5329 4.28974 16.305 4.54397 16.1564 4.84258C15.7783 5.5301 15.5741 6.29593 15.5609 7.07619C15.5101 11.9335 15.481 16.7908 15.5609 21.648C15.6152 23.2376 15.1679 24.8051 14.2795 26.1382C13.3911 27.4712 12.1046 28.5054 10.5942 29.1006C10.1513 29.2991 9.69377 29.448 9.2363 29.6111ZM18.0298 17.6346C18.0033 17.72 17.9862 17.8079 17.9789 17.8969C17.9789 22.5249 17.9789 27.1529 17.9789 31.7809C17.9835 31.9018 18.0197 32.0195 18.0839 32.1228C18.1482 32.2262 18.2384 32.3118 18.3461 32.3714C18.4538 32.4311 18.5754 32.4629 18.6992 32.4638C18.823 32.4647 18.945 32.4347 19.0536 32.3766C20.1384 31.7515 21.0255 30.8461 21.6169 29.76C22.6451 27.8647 23.0961 25.7215 22.9166 23.5838C22.8702 22.1384 22.3849 20.739 21.5225 19.5633C21.118 19.0141 20.5962 18.5572 19.9931 18.2242C19.3901 17.8912 18.7202 17.69 18.0298 17.6346Z" fill="white"/>
<path d="M9.80256 8.88428C9.44793 10.1273 9.29601 11.4171 9.35236 12.7062C9.35236 16.4928 9.30153 20.2722 9.35236 24.0517C9.41045 27.5972 7.63144 29.8308 4.45825 31.2419C4.13875 31.3837 3.8047 31.5043 3.47794 31.6248C3.47794 31.6248 3.40534 31.6248 3.31095 31.6248C4.51632 30.5541 4.55991 29.1714 4.55991 27.7674V21.9741C3.35454 21.7613 2.71551 22.357 1.85142 24.5268C1.12529 22.3995 0.537144 20.3573 1.46659 18.2442C1.96762 17.0955 2.83172 16.5708 4.55991 16.2872C4.55991 15.8617 4.55991 15.415 4.55991 14.9682C4.5284 14.0345 4.85755 13.1233 5.48207 12.4155C6.74062 11.0415 8.19581 9.8521 9.80256 8.88428Z" fill="white"/>
<path d="M0 5.50181C0.994799 2.95618 2.17839 0.630369 5.08291 0.0630967C5.96194 -0.098402 6.87116 0.0524911 7.64618 0.488534C8.26492 0.781897 8.84717 1.14354 9.3816 1.56637C10.9283 2.87818 12.533 2.82144 14.2177 1.94926L14.6388 1.72944C14.6388 1.80035 14.6823 1.86416 14.6388 1.89962C13.8375 3.40838 12.7161 4.73309 11.3494 5.78547C9.27995 7.28874 7.47915 7.28874 5.40968 5.78547L5.13375 5.5798C3.36199 4.16162 2.12755 4.16164 0.21783 5.33873L0 5.50181Z" fill="white"/>
<path d="M101.651 34.2273C101.671 33.7585 101.832 33.3058 102.113 32.9257C102.395 32.5456 102.785 32.2549 103.235 32.0898C103.685 31.9247 104.174 31.8926 104.643 31.9974C105.111 32.1023 105.537 32.3395 105.869 32.6794C106.2 33.0193 106.421 33.4469 106.505 33.9089C106.589 34.3709 106.532 34.8468 106.341 35.2773C106.15 35.7078 105.833 36.0738 105.43 36.3297C105.028 36.5855 104.557 36.72 104.076 36.7162C103.418 36.6977 102.793 36.4256 102.339 35.9594C101.884 35.4933 101.637 34.8707 101.651 34.2273Z" fill="white"/>
</svg>
