<svg width="48" height="48" viewBox="0 0 48 48" fill="none" xmlns="http://www.w3.org/2000/svg">
<path d="M24.0002 16.0667C19.7004 16.0667 16.0669 19.7001 16.0669 24C16.0669 28.2998 19.7004 31.9333 24.0002 31.9333C28.3001 31.9333 31.9336 28.2998 31.9336 24C31.9336 19.7001 28.3001 16.0667 24.0002 16.0667ZM24.0002 27.9666C21.888 27.9666 20.0336 26.1122 20.0336 24C20.0336 21.8877 21.888 20.0333 24.0002 20.0333C26.1125 20.0333 27.9669 21.8877 27.9669 24C27.9669 26.1122 26.1125 27.9666 24.0002 27.9666Z" fill="white"/>
<path d="M39.867 10.1165H34.7381L29.3692 4.74762C29.1853 4.56309 28.9668 4.41674 28.7261 4.31701C28.4855 4.21728 28.2275 4.16613 27.967 4.16651H20.0337C19.7732 4.16613 19.5152 4.21728 19.2745 4.31701C19.0339 4.41674 18.8153 4.56309 18.6314 4.74762L13.2626 10.1165H8.13366C5.94604 10.1165 4.16699 11.8956 4.16699 14.0832V35.8998C4.16699 38.0875 5.94604 39.8665 8.13366 39.8665H39.867C42.0546 39.8665 43.8337 38.0875 43.8337 35.8998V14.0832C43.8337 11.8956 42.0546 10.1165 39.867 10.1165ZM8.13366 35.8998V14.0832H14.0837C14.6112 14.0832 15.115 13.8749 15.4859 13.5021L20.8548 8.13317H27.1459L32.5148 13.5021C32.6986 13.6866 32.9172 13.8329 33.1578 13.9327C33.3985 14.0324 33.6565 14.0835 33.917 14.0832H39.867L39.871 35.8998H8.13366Z" fill="white"/>
</svg>
