<svg width="24" height="24" viewBox="0 0 24 24" fill="none" xmlns="http://www.w3.org/2000/svg">
<path d="M14 8.00003V6.00003C14 5.4696 13.7893 4.96089 13.4142 4.58582C13.0391 4.21074 12.5304 4.00003 12 4.00003H5C4.46957 4.00003 3.96086 4.21074 3.58579 4.58582C3.21071 4.96089 3 5.4696 3 6.00003V18C3 18.5305 3.21071 19.0392 3.58579 19.4142C3.96086 19.7893 4.46957 20 5 20H12C12.5304 20 13.0391 19.7893 13.4142 19.4142C13.7893 19.0392 14 18.5305 14 18V16" stroke="#C93D3D" stroke-width="1.5" stroke-linecap="round" stroke-linejoin="round"/>
<path d="M7 12H21M21 12L18 9M21 12L18 15" stroke="#C93D3D" stroke-width="1.5" stroke-linecap="round" stroke-linejoin="round"/>
</svg>
