<svg width="24" height="24" viewBox="0 0 24 24" fill="none" xmlns="http://www.w3.org/2000/svg">
<path d="M20 22H4C3.46957 22 2.96086 21.7893 2.58579 21.4142C2.21071 21.0391 2 20.5304 2 20V9.049C2.01662 8.71844 2.11378 8.39696 2.28301 8.11252C2.45224 7.82808 2.68842 7.58932 2.971 7.417L10.971 2.61699C11.2817 2.43069 11.6372 2.33228 11.9995 2.33228C12.3618 2.33228 12.7173 2.43069 13.028 2.61699L21.028 7.417C21.629 7.78 21.998 8.43 22 9.132V20C22 20.5304 21.7893 21.0391 21.4142 21.4142C21.0391 21.7893 20.5304 22 20 22ZM4 9.868V20H20V9.868L12 15.201L4 9.868ZM12 4.332L5.316 8.342L12 12.798L18.683 8.342L12 4.332Z" fill="#6F6F6F"/>
</svg>
