<svg width="15" height="15" viewBox="0 0 15 15" fill="none" xmlns="http://www.w3.org/2000/svg">
<path d="M7.5 0.9375C6.20206 0.9375 4.93327 1.32238 3.85407 2.04348C2.77488 2.76458 1.93374 3.7895 1.43704 4.98864C0.940343 6.18778 0.810384 7.50728 1.0636 8.78028C1.31682 10.0533 1.94183 11.2226 2.85961 12.1404C3.7774 13.0582 4.94672 13.6832 6.21972 13.9364C7.49272 14.1896 8.81222 14.0597 10.0114 13.563C11.2105 13.0663 12.2354 12.2251 12.9565 11.1459C13.6776 10.0667 14.0625 8.79794 14.0625 7.5C14.0625 5.75952 13.3711 4.09032 12.1404 2.85961C10.9097 1.6289 9.24049 0.9375 7.5 0.9375ZM7.5 13.125C6.38748 13.125 5.29995 12.7951 4.37492 12.177C3.44989 11.5589 2.72892 10.6804 2.30318 9.65259C1.87744 8.62476 1.76604 7.49376 1.98309 6.40262C2.20013 5.31147 2.73586 4.30919 3.52253 3.52252C4.3092 2.73585 5.31148 2.20012 6.40262 1.98308C7.49376 1.76604 8.62476 1.87743 9.6526 2.30318C10.6804 2.72892 11.5589 3.44989 12.177 4.37492C12.7951 5.29994 13.125 6.38748 13.125 7.5C13.125 8.99184 12.5324 10.4226 11.4775 11.4775C10.4226 12.5324 8.99185 13.125 7.5 13.125Z" fill="#EA5B70"/>
<path d="M7.03125 3.75H7.96875V8.90625H7.03125V3.75Z" fill="#EA5B70"/>
<path d="M7.5 10.3125C7.36094 10.3125 7.22499 10.3537 7.10937 10.431C6.99374 10.5083 6.90362 10.6181 6.8504 10.7466C6.79718 10.875 6.78326 11.0164 6.81039 11.1528C6.83752 11.2892 6.90448 11.4145 7.00282 11.5128C7.10115 11.6111 7.22643 11.6781 7.36283 11.7052C7.49922 11.7324 7.6406 11.7184 7.76907 11.6652C7.89755 11.612 8.00737 11.5219 8.08463 11.4063C8.16189 11.2906 8.20313 11.1547 8.20313 11.0156C8.20313 10.8291 8.12905 10.6503 7.99718 10.5184C7.86532 10.3866 7.68648 10.3125 7.5 10.3125Z" fill="#EA5B70"/>
</svg>
