<svg width="76" height="22" viewBox="0 0 76 22" fill="none" xmlns="http://www.w3.org/2000/svg">
<g clip-path="url(#clip0_5176_11969)">
<path fill-rule="evenodd" clip-rule="evenodd" d="M41.8162 14.1737V9.91393H43.8213V7.22585H41.8157V4H38.0113V7.22585H36.5018V9.91393H38.0113V14.6287C38.0113 15.4284 38.1528 16.0732 38.4354 16.5622C38.7175 17.0516 39.1657 17.4134 39.7792 17.6476C40.3926 17.8822 41.2027 17.9991 42.2089 17.9991C42.705 17.9991 43.2428 17.9646 43.8213 17.8957V15.1248H43.0359C42.7328 15.1248 42.4986 15.1038 42.3329 15.0626C42.1677 15.0214 42.04 14.9354 41.9505 14.8042C41.861 14.6734 41.8162 14.4634 41.8162 14.1737ZM23.4623 12.4045C23.4623 15.4943 20.9575 17.9991 17.8677 17.9991C14.7778 17.9991 12.2731 15.4943 12.2731 12.4045C12.2731 9.31465 14.7778 6.80985 17.8677 6.80985C20.9575 6.80985 23.4623 9.31465 23.4623 12.4045ZM35.5011 12.1457V17.6951H31.1289V12.7322C31.1289 12.1972 30.6923 11.7601 30.1567 11.7601C29.6216 11.7601 29.1805 12.1967 29.1805 12.7322V16.9159V17.6951H24.8299V12.1457C24.8299 9.19969 27.2193 6.81031 30.1652 6.81031C33.1116 6.81031 35.5011 9.19969 35.5011 12.1457ZM10.9015 13.3466H6.71606C6.18095 13.3466 5.74299 12.9087 5.74299 12.3736C5.74299 11.8385 6.18095 11.4005 6.71606 11.4005H10.9015V7.02793H6.12853C3.18256 7.02793 0.794067 9.41639 0.794067 12.3624C0.794067 15.3088 3.18256 17.6973 6.12853 17.6973H10.9015V13.3466ZM56.1725 13.5119L48.3569 13.5123C48.481 14.1052 48.7295 14.5534 49.1016 14.8565C49.4737 15.1602 49.9354 15.3115 50.4871 15.3115C51.3692 15.3115 51.9961 15.0012 52.3682 14.381H55.9243C55.7309 15.1396 55.3695 15.7907 54.8389 16.3351C54.3083 16.8801 53.6676 17.2939 52.9163 17.576C52.1649 17.8585 51.3553 18 50.4871 18C49.3425 18 48.3368 17.769 47.4681 17.3073C46.5998 16.8456 45.9277 16.1941 45.4522 15.3536C44.9766 14.5126 44.7384 13.5338 44.7384 12.4175C44.7384 11.3007 44.9726 10.3223 45.4414 9.48088C45.9098 8.6404 46.5752 7.98888 47.4368 7.52676C48.2979 7.06509 49.3009 6.83404 50.445 6.83359C51.5747 6.83359 52.5711 7.07136 53.4326 7.54691C54.2941 8.02246 54.9659 8.71205 55.4485 9.61434C55.9306 10.5175 56.1719 11.5891 56.1719 12.8299L56.1725 13.5119ZM49.0703 9.94523C48.7188 10.2278 48.481 10.6657 48.3569 11.2582L52.5129 11.2577C52.3888 10.6926 52.1439 10.2618 51.779 9.96541C51.4136 9.66898 50.955 9.52077 50.4038 9.52077C49.8665 9.52119 49.4218 9.66271 49.0703 9.94523ZM68.0859 17.6973L63.7854 17.6978L63.6411 17.4703L62.1315 15.0719L60.6015 17.4501L60.436 17.6982L56.2388 17.6987L60.0846 12.2392L56.4454 7.02882L60.7458 7.02837L60.9734 7.37989C61.3454 7.94499 61.759 8.6001 62.2137 9.34431C62.6684 8.59965 63.0826 7.94499 63.4545 7.37989L63.6822 7.02837L67.8793 7.02793L64.2612 12.1976L68.0859 17.6973ZM73.6061 14.1737V9.91393H75.6114V7.22585H73.6061V4H69.8014V7.22585H68.2924V9.91393H69.8014V14.6287C69.8014 15.4284 69.9431 16.0732 70.2256 16.5622C70.508 17.0516 70.9564 17.4134 71.5696 17.6476C72.1829 17.8822 72.9928 17.9991 73.9991 17.9991C74.4954 17.9991 75.0329 17.9646 75.6119 17.8957V15.1248H74.8258C74.5223 15.1248 74.2889 15.1038 74.1229 15.0626C73.958 15.0214 73.83 14.9354 73.7404 14.8042C73.6508 14.6734 73.6061 14.4634 73.6061 14.1737Z" fill="black"/>
</g>
<defs>
<clipPath id="clip0_5176_11969">
<rect width="75" height="22" fill="white" transform="translate(0.667114)"/>
</clipPath>
</defs>
</svg>
