<svg width="109" height="22" viewBox="0 0 109 22" fill="none" xmlns="http://www.w3.org/2000/svg">
<path d="M14.1152 19.5354C13.9023 19.3183 13.7785 19.044 13.7438 18.7597L12.9085 17.9083H12.864C11.9792 18.4215 10.9706 18.6991 9.94221 18.6991C8.36577 18.6991 6.88508 18.0732 5.77085 16.9374C4.65662 15.8016 4.04255 14.2923 4.04255 12.6854C4.04255 11.0801 4.65662 9.56913 5.77085 8.43336C6.88508 7.29758 8.36577 6.67164 9.94221 6.67164C11.5186 6.67164 12.9993 7.29758 14.1136 8.43336C15.8633 10.2169 16.309 12.9394 15.3054 15.1858L16.2777 16.1768C16.5649 16.2122 16.8306 16.3451 17.0386 16.5554L18.9485 18.5022V0H15.0677V5.1354C13.5738 4.07702 11.8026 3.50829 9.94386 3.50829C7.53877 3.50829 5.27729 4.46234 3.57705 6.19714C1.87681 7.93193 0.939209 10.2355 0.939209 12.6871C0.939209 15.1386 1.87516 17.4439 3.57705 19.177C5.27729 20.9101 7.53877 21.8658 9.94386 21.8658H16.4031L14.1152 19.5354Z" fill="#EB2127"/>
<path d="M6.49887 16.1953C8.28164 18.0125 11.1044 18.1252 13.0159 16.5335L14.8449 18.3978C14.7376 18.5072 14.7376 18.6839 14.8449 18.7932L17.6874 21.6907C18.0918 22.103 18.7472 22.103 19.15 21.6907C19.5544 21.2785 19.5544 20.6105 19.15 20.1999L16.3074 17.3024C16.2001 17.1931 16.0268 17.1931 15.9195 17.3024L14.0311 15.3775C15.2493 13.4559 15.0347 10.8647 13.384 9.18036C11.4824 7.24196 8.40049 7.24196 6.50052 9.18036C4.60055 11.1187 4.59725 14.2569 6.49887 16.1953ZM7.33248 10.0284C8.77191 8.56115 11.1077 8.56115 12.5487 10.0284C13.9882 11.4957 13.9882 13.8766 12.5487 15.3455C11.1093 16.8128 8.77356 16.8128 7.33248 15.3455C5.89306 13.8766 5.89306 11.4957 7.33248 10.0284Z" fill="#231F20"/>
<path d="M11.1687 11.2842V15.7364C11.5533 15.5732 11.9066 15.3326 12.2103 15.023C12.2549 14.9776 12.2928 14.9304 12.3341 14.8833V11.2842H11.1687Z" fill="#1D76BB"/>
<path d="M9.58569 12.3301V15.9747C9.69464 15.9864 9.80524 15.9915 9.91749 15.9915C10.2031 15.9915 10.482 15.9511 10.7511 15.8771V12.3301H9.58569Z" fill="#5D9B42"/>
<path d="M8.00427 13.377V15.3507C8.35422 15.6132 8.74874 15.7999 9.16968 15.9009V13.377H8.00427Z" fill="#F69320"/>
<path d="M27.3688 15.2982V7.37305H29.665C30.3517 7.37305 30.9624 7.52953 31.494 7.84082C32.0255 8.15379 32.4382 8.59632 32.7304 9.16842C33.0225 9.74219 33.1678 10.3984 33.1678 11.1388V11.5359C33.1678 12.2863 33.0209 12.9476 32.7271 13.5163C32.4332 14.0868 32.0156 14.5259 31.4725 14.8338C30.9294 15.1418 30.3071 15.2966 29.6056 15.2966H27.3688V15.2982ZM28.7191 8.4819V14.1978H29.6006C30.3088 14.1978 30.8535 13.9723 31.2315 13.5197C31.6112 13.0671 31.8043 12.4193 31.8109 11.5729V11.132C31.8109 10.2722 31.6277 9.61431 31.2612 9.16169C30.8948 8.70906 30.3616 8.4819 29.665 8.4819H28.7191Z" fill="#231F20"/>
<path d="M37.841 15.2984C37.7832 15.1857 37.7337 15.0022 37.6924 14.7482C37.2797 15.1873 36.773 15.4078 36.1754 15.4078C35.596 15.4078 35.1223 15.2395 34.7542 14.9013C34.3877 14.5631 34.2045 14.1458 34.2045 13.6494C34.2045 13.0218 34.4323 12.5389 34.8912 12.204C35.3484 11.8675 36.0021 11.7009 36.8539 11.7009H37.6495V11.3139C37.6495 11.0094 37.5653 10.7654 37.3986 10.582C37.2319 10.3986 36.976 10.3077 36.6343 10.3077C36.3388 10.3077 36.0962 10.3834 35.908 10.5332C35.7198 10.6846 35.6257 10.8748 35.6257 11.107H34.3283C34.3283 10.7839 34.4339 10.4827 34.6436 10.2C34.8532 9.91901 35.1388 9.69859 35.5003 9.53874C35.8618 9.37889 36.2646 9.2998 36.7103 9.2998C37.387 9.2998 37.9268 9.47312 38.328 9.81974C38.7307 10.1664 38.9371 10.6543 38.947 11.2819V13.9388C38.947 14.4689 39.0196 14.8912 39.1665 15.2075V15.3001H37.841V15.2984ZM36.4148 14.346C36.6706 14.346 36.9116 14.2821 37.1378 14.1559C37.3639 14.0297 37.534 13.8581 37.6479 13.6444V12.5338H36.948C36.4676 12.5338 36.1061 12.6196 35.8634 12.7896C35.6208 12.9595 35.5003 13.2018 35.5003 13.5131C35.5003 13.7672 35.5828 13.9691 35.7495 14.1205C35.9163 14.2703 36.1375 14.346 36.4148 14.346Z" fill="#231F20"/>
<path d="M41.9314 7.97602V9.40794H42.9516V10.3872H41.9314V13.6751C41.9314 13.9006 41.9744 14.0621 42.0619 14.1614C42.1493 14.2607 42.3045 14.3111 42.529 14.3111C42.6792 14.3111 42.8294 14.2926 42.9829 14.2556V15.2786C42.6875 15.3628 42.4019 15.4032 42.1279 15.4032C41.1308 15.4032 40.6323 14.8428 40.6323 13.7205V10.3839H39.6815V9.40458H40.6323V7.97266H41.9314V7.97602Z" fill="#231F20"/>
<path d="M47.3953 15.2984C47.3375 15.1857 47.288 15.0022 47.2468 14.7482C46.8341 15.1873 46.3273 15.4078 45.7297 15.4078C45.1503 15.4078 44.6766 15.2395 44.3085 14.9013C43.942 14.5631 43.7588 14.1458 43.7588 13.6494C43.7588 13.0218 43.9866 12.5389 44.4455 12.204C44.9027 11.8675 45.5564 11.7009 46.4082 11.7009H47.2038V11.3139C47.2038 11.0094 47.1196 10.7654 46.9529 10.582C46.7862 10.3986 46.5303 10.3077 46.1886 10.3077C45.8932 10.3077 45.6505 10.3834 45.4623 10.5332C45.2741 10.6846 45.1801 10.8748 45.1801 11.107H43.8826C43.8826 10.7839 43.9882 10.4827 44.1979 10.2C44.4075 9.91901 44.6931 9.69859 45.0546 9.53874C45.4161 9.37889 45.8189 9.2998 46.2646 9.2998C46.9414 9.2998 47.4812 9.47312 47.8823 9.81974C48.2834 10.1664 48.4914 10.6543 48.5013 11.2819V13.9388C48.5013 14.4689 48.5739 14.8912 48.7208 15.2075V15.3001H47.3953V15.2984ZM45.9691 14.346C46.225 14.346 46.466 14.2821 46.6921 14.1559C46.9183 14.0297 47.0883 13.8581 47.2022 13.6444V12.5338H46.5023C46.0219 12.5338 45.6604 12.6196 45.4178 12.7896C45.1751 12.9595 45.0546 13.2018 45.0546 13.5131C45.0546 13.7672 45.1371 13.9691 45.3039 14.1205C45.4689 14.2703 45.6918 14.346 45.9691 14.346Z" fill="#231F20"/>
<path d="M51.4115 15.2982H50.0662V7.37305H51.4115V15.2982Z" fill="#231F20"/>
<path d="M54.1501 9.40722L54.188 10.087C54.6156 9.56034 55.1752 9.29785 55.8701 9.29785C57.0735 9.29785 57.6859 9.99951 57.7074 11.4045V15.2964H56.4099V11.4802C56.4099 11.1067 56.3307 10.8307 56.1722 10.6507C56.0137 10.4706 55.7546 10.3815 55.3947 10.3815C54.8714 10.3815 54.4819 10.6221 54.226 11.105V15.2964H52.9285V9.40722H54.1501Z" fill="#231F20"/>
<path d="M58.7852 12.3101C58.7852 11.4032 58.9916 10.6746 59.4042 10.1244C59.8169 9.57419 60.3699 9.29992 61.0649 9.29992C61.6773 9.29992 62.1725 9.51698 62.5488 9.95278V6.9375H63.8463V15.2985H62.671L62.6066 14.6894C62.2187 15.1689 61.7004 15.4079 61.0533 15.4079C60.3765 15.4079 59.8301 15.1302 59.4108 14.575C58.9949 14.018 58.7852 13.2642 58.7852 12.3101ZM60.0827 12.4246C60.0827 13.0236 60.1949 13.4914 60.4227 13.8262C60.6489 14.1627 60.9691 14.3293 61.3867 14.3293C61.9166 14.3293 62.3045 14.0887 62.5505 13.6058V11.0902C62.3111 10.6191 61.9282 10.3818 61.3966 10.3818C60.9774 10.3818 60.6522 10.5518 60.4244 10.89C60.1966 11.2299 60.0827 11.7414 60.0827 12.4246Z" fill="#231F20"/>
<path d="M64.9589 12.298C64.9589 11.7208 65.0712 11.2009 65.2957 10.7382C65.5202 10.2755 65.8355 9.92043 66.2399 9.6714C66.646 9.42237 67.1115 9.29785 67.6397 9.29785C68.4188 9.29785 69.0527 9.55361 69.538 10.0651C70.0233 10.5767 70.2858 11.2548 70.3254 12.1011L70.3304 12.4124C70.3304 12.9929 70.2214 13.5112 70.0019 13.9688C69.7823 14.4265 69.4703 14.7799 69.0626 15.0306C68.6549 15.2813 68.1844 15.4058 67.6496 15.4058C66.8341 15.4058 66.1821 15.1299 65.6918 14.5763C65.2016 14.0227 64.9573 13.2857 64.9573 12.3636V12.298H64.9589ZM66.2564 12.4124C66.2564 13.0182 66.3785 13.4927 66.6245 13.8359C66.8705 14.1792 67.2122 14.3508 67.6496 14.3508C68.087 14.3508 68.4287 14.1775 68.673 13.8275C68.9173 13.4792 69.0395 12.9694 69.0395 12.298C69.0395 11.7023 68.914 11.2312 68.6631 10.8829C68.4122 10.5346 68.0705 10.3596 67.6397 10.3596C67.2155 10.3596 66.8804 10.5312 66.6311 10.8745C66.3818 11.2177 66.2564 11.7309 66.2564 12.4124Z" fill="#231F20"/>
<path d="M72.6331 9.40722L72.6711 10.087C73.0986 9.56034 73.6582 9.29785 74.3531 9.29785C75.5565 9.29785 76.1689 9.99951 76.1904 11.4045V15.2964H74.8929V11.4802C74.8929 11.1067 74.8137 10.8307 74.6552 10.6507C74.4968 10.4706 74.2376 10.3815 73.8777 10.3815C73.3545 10.3815 72.9649 10.6221 72.709 11.105V15.2964H71.4116V9.40722H72.6331Z" fill="#231F20"/>
<path d="M80.0563 15.4065C79.2343 15.4065 78.5674 15.1423 78.0557 14.614C77.5456 14.0856 77.2897 13.3823 77.2897 12.504V12.3408C77.2897 11.7535 77.4003 11.2269 77.6232 10.7641C77.846 10.3014 78.158 9.94132 78.5608 9.68388C78.9636 9.42644 79.4109 9.29688 79.9061 9.29688C80.6935 9.29688 81.301 9.55264 81.7302 10.0642C82.1593 10.5757 82.3739 11.2992 82.3739 12.2364V12.7698H78.5988C78.6384 13.2561 78.7968 13.6397 79.0775 13.9241C79.3564 14.2068 79.708 14.3481 80.1323 14.3481C80.7265 14.3481 81.2118 14.1025 81.5849 13.6128L82.2848 14.2926C82.0537 14.6443 81.745 14.9169 81.3587 15.1121C80.9708 15.3106 80.5367 15.4065 80.0563 15.4065ZM79.9012 10.3603C79.5446 10.3603 79.2574 10.4865 79.0395 10.7406C78.8199 10.9947 78.6813 11.348 78.6202 11.8023H81.093V11.7047C81.0649 11.2622 80.9477 10.9273 80.7463 10.7002C80.5416 10.4747 80.261 10.3603 79.9012 10.3603Z" fill="#231F20"/>
<path d="M86.6196 13.6985C86.6196 13.4629 86.5238 13.2829 86.334 13.16C86.1442 13.0372 85.8272 12.9278 85.3865 12.8336C84.9441 12.7394 84.576 12.6199 84.2805 12.4752C83.6334 12.1555 83.3082 11.6928 83.3082 11.087C83.3082 10.5789 83.5179 10.1549 83.9388 9.81328C84.3581 9.4717 84.8929 9.30176 85.54 9.30176C86.2317 9.30176 86.7896 9.47675 87.2138 9.82506C87.6397 10.1734 87.8527 10.626 87.8527 11.1813H86.5552C86.5552 10.9272 86.4628 10.7169 86.2779 10.5469C86.093 10.377 85.847 10.2928 85.54 10.2928C85.2544 10.2928 85.0233 10.3601 84.8434 10.4947C84.6635 10.6294 84.5743 10.8094 84.5743 11.0332C84.5743 11.2368 84.6585 11.395 84.8253 11.506C84.992 11.6187 85.3304 11.7315 85.8404 11.8459C86.3505 11.9603 86.75 12.0966 87.0389 12.2548C87.3294 12.4129 87.544 12.6014 87.6859 12.8235C87.8263 13.0456 87.8972 13.3132 87.8972 13.6295C87.8972 14.1595 87.6826 14.5886 87.2502 14.9167C86.8193 15.2448 86.2548 15.4097 85.5565 15.4097C85.0828 15.4097 84.6618 15.3222 84.2904 15.1489C83.9207 14.9739 83.6318 14.735 83.4254 14.4304C83.2191 14.1259 83.1151 13.7978 83.1151 13.4444H84.3746C84.3928 13.7574 84.5083 13.9963 84.7213 14.1662C84.9358 14.3345 85.2181 14.4203 85.5714 14.4203C85.9131 14.4203 86.1722 14.3547 86.3505 14.2218C86.5304 14.0855 86.6196 13.9122 86.6196 13.6985Z" fill="#231F20"/>
<path d="M89.028 7.87831C89.028 7.67471 89.0907 7.50645 89.2178 7.37184C89.3433 7.23723 89.5249 7.16992 89.7593 7.16992C89.9937 7.16992 90.1753 7.23723 90.304 7.37184C90.4328 7.50645 90.4955 7.67471 90.4955 7.87831C90.4955 8.07854 90.4311 8.24344 90.304 8.37637C90.1753 8.5093 89.9937 8.57492 89.7593 8.57492C89.5249 8.57492 89.3433 8.5093 89.2178 8.37637C89.0907 8.24344 89.028 8.07854 89.028 7.87831ZM90.4064 15.2987H89.1089V9.40951H90.4064V15.2987Z" fill="#231F20"/>
<path d="M95.271 15.2984C95.2132 15.1857 95.1637 15.0022 95.1224 14.7482C94.7097 15.1873 94.203 15.4078 93.6054 15.4078C93.026 15.4078 92.5523 15.2395 92.1842 14.9013C91.8177 14.5631 91.6345 14.1458 91.6345 13.6494C91.6345 13.0218 91.8623 12.5389 92.3212 12.204C92.7784 11.8675 93.4321 11.7009 94.2839 11.7009H95.0795V11.3139C95.0795 11.0094 94.9953 10.7654 94.8286 10.582C94.6619 10.3986 94.406 10.3077 94.0643 10.3077C93.7688 10.3077 93.5262 10.3834 93.338 10.5332C93.1498 10.6846 93.0557 10.8748 93.0557 11.107H91.7583C91.7583 10.7839 91.8639 10.4827 92.0735 10.2C92.2832 9.91901 92.5688 9.69859 92.9303 9.53874C93.2918 9.37889 93.6945 9.2998 94.1402 9.2998C94.817 9.2998 95.3568 9.47312 95.7579 9.81974C96.1607 10.1664 96.3671 10.6543 96.377 11.2819V13.9388C96.377 14.4689 96.4496 14.8912 96.5965 15.2075V15.3001H95.271V15.2984ZM93.8448 14.346C94.1006 14.346 94.3416 14.2821 94.5678 14.1559C94.7939 14.0297 94.9639 13.8581 95.0778 13.6444V12.5338H94.3779C93.8976 12.5338 93.5361 12.6196 93.2934 12.7896C93.0508 12.9595 92.9303 13.2018 92.9303 13.5131C92.9303 13.7672 93.0128 13.9691 93.1795 14.1205C93.3462 14.2703 93.5674 14.346 93.8448 14.346Z" fill="#231F20"/>
<path d="M98.5444 13.9033C98.787 13.9033 98.9735 13.974 99.1056 14.1136C99.2377 14.2533 99.3037 14.4283 99.3037 14.6386C99.3037 14.8456 99.2377 15.0172 99.1056 15.1535C98.9735 15.2898 98.787 15.3571 98.5444 15.3571C98.3133 15.3571 98.13 15.2898 97.9947 15.1552C97.8593 15.0206 97.7916 14.849 97.7916 14.6386C97.7916 14.4283 97.8577 14.2533 97.9897 14.1136C98.1201 13.974 98.305 13.9033 98.5444 13.9033Z" fill="#231F20"/>
<path d="M100.793 7.87831C100.793 7.67471 100.855 7.50645 100.982 7.37184C101.108 7.23723 101.289 7.16992 101.524 7.16992C101.758 7.16992 101.94 7.23723 102.069 7.37184C102.197 7.50645 102.26 7.67471 102.26 7.87831C102.26 8.07854 102.196 8.24344 102.069 8.37637C101.94 8.5093 101.758 8.57492 101.524 8.57492C101.289 8.57492 101.108 8.5093 100.982 8.37637C100.855 8.24344 100.793 8.07854 100.793 7.87831ZM102.171 15.2987H100.873V9.40951H102.171V15.2987Z" fill="#231F20"/>
<path d="M103.34 12.3101C103.34 11.4032 103.546 10.6746 103.959 10.1244C104.371 9.57419 104.924 9.29992 105.619 9.29992C106.232 9.29992 106.727 9.51698 107.103 9.95278V6.9375H108.401V15.2985H107.226L107.161 14.6894C106.773 15.1689 106.255 15.4079 105.608 15.4079C104.931 15.4079 104.385 15.1302 103.965 14.575C103.549 14.018 103.34 13.2642 103.34 12.3101ZM104.637 12.4246C104.637 13.0236 104.749 13.4914 104.977 13.8262C105.203 14.1627 105.524 14.3293 105.941 14.3293C106.471 14.3293 106.859 14.0887 107.105 13.6058V11.0902C106.866 10.6191 106.483 10.3818 105.951 10.3818C105.532 10.3818 105.207 10.5518 104.979 10.89C104.751 11.2299 104.637 11.7414 104.637 12.4246Z" fill="#231F20"/>
</svg>
