<svg width="113" height="20" viewBox="0 0 113 20" fill="none" xmlns="http://www.w3.org/2000/svg">
<path d="M14.5573 2.09571C13.1754 0.75385 11.3012 -2.48289e-07 9.347 0C7.39277 2.4829e-07 5.51858 0.753851 4.13674 2.09571C2.75489 3.43758 1.97857 5.25753 1.97857 7.15521C1.97857 9.05289 2.75489 10.8728 4.13674 12.2147L14.5573 2.09571Z" fill="#333333"/>
<path d="M0.873047 17.9043C2.25489 19.2462 4.12908 20 6.08331 20C8.03754 20 9.91172 19.2462 11.2936 17.9043C12.6754 16.5624 13.4517 14.7425 13.4517 12.8448C13.4517 10.9471 12.6754 9.12716 11.2936 7.78529L0.873047 17.9043Z" fill="#333333"/>
<path d="M24.9693 13.5L22.1013 9.228H22.0653L21.3213 13.5H19.8573L21.3573 5.004H22.8213L22.1493 8.772H22.1853L26.0133 5.004H28.0053L23.6013 9.012L26.9013 13.5H24.9693ZM30.0598 13.656C29.6598 13.656 29.2878 13.596 28.9438 13.476C28.6078 13.356 28.3158 13.184 28.0678 12.96C27.8198 12.736 27.6238 12.472 27.4798 12.168C27.3438 11.864 27.2758 11.524 27.2758 11.148C27.2758 10.676 27.3558 10.228 27.5158 9.804C27.6838 9.372 27.9198 8.992 28.2238 8.664C28.5278 8.336 28.8918 8.076 29.3158 7.884C29.7478 7.684 30.2278 7.584 30.7558 7.584C31.1638 7.584 31.5358 7.644 31.8718 7.764C32.2158 7.884 32.5118 8.056 32.7598 8.28C33.0078 8.496 33.1998 8.76 33.3358 9.072C33.4798 9.376 33.5518 9.712 33.5518 10.08C33.5518 10.56 33.4678 11.016 33.2998 11.448C33.1398 11.88 32.9078 12.26 32.6038 12.588C32.2998 12.916 31.9318 13.176 31.4998 13.368C31.0678 13.56 30.5878 13.656 30.0598 13.656ZM32.1358 10.224C32.1358 9.792 32.0038 9.436 31.7398 9.156C31.4758 8.876 31.1158 8.736 30.6598 8.736C30.3558 8.736 30.0798 8.8 29.8318 8.928C29.5918 9.048 29.3838 9.212 29.2078 9.42C29.0398 9.628 28.9078 9.868 28.8118 10.14C28.7158 10.412 28.6678 10.7 28.6678 11.004C28.6678 11.436 28.7958 11.792 29.0518 12.072C29.3078 12.352 29.6678 12.492 30.1318 12.492C30.4358 12.492 30.7118 12.432 30.9598 12.312C31.2078 12.192 31.4158 12.028 31.5838 11.82C31.7598 11.612 31.8958 11.372 31.9918 11.1C32.0878 10.82 32.1358 10.528 32.1358 10.224ZM36.654 8.64C36.854 8.328 37.106 8.076 37.41 7.884C37.722 7.684 38.094 7.584 38.526 7.584C38.846 7.584 39.122 7.632 39.354 7.728C39.594 7.824 39.79 7.952 39.942 8.112C40.102 8.272 40.218 8.464 40.29 8.688C40.37 8.904 40.41 9.132 40.41 9.372C40.41 9.572 40.394 9.752 40.362 9.912L39.726 13.5H38.322L38.874 10.332C38.89 10.236 38.902 10.14 38.91 10.044C38.926 9.948 38.934 9.852 38.934 9.756C38.934 9.5 38.866 9.276 38.73 9.084C38.594 8.884 38.346 8.784 37.986 8.784C37.754 8.784 37.55 8.828 37.374 8.916C37.198 9.004 37.042 9.124 36.906 9.276C36.778 9.42 36.67 9.584 36.582 9.768C36.502 9.952 36.446 10.14 36.414 10.332L35.85 13.5H34.446L35.238 8.976C35.27 8.824 35.302 8.628 35.334 8.388C35.374 8.148 35.402 7.932 35.418 7.74H36.738C36.73 7.828 36.714 7.968 36.69 8.16C36.666 8.344 36.646 8.504 36.63 8.64H36.654ZM41.4298 8.88L41.6338 7.74H42.6298L42.9178 6.06H44.3098L44.0218 7.74H45.3178L45.1138 8.88H43.8418L43.3378 11.592C43.3138 11.712 43.3018 11.824 43.3018 11.928C43.3018 12.136 43.3618 12.28 43.4818 12.36C43.6098 12.44 43.7778 12.48 43.9858 12.48C44.0818 12.48 44.1738 12.472 44.2618 12.456C44.3578 12.44 44.4458 12.42 44.5258 12.396L44.4418 13.464C44.3218 13.512 44.1778 13.548 44.0098 13.572C43.8498 13.604 43.7018 13.62 43.5658 13.62C42.9578 13.62 42.5258 13.5 42.2698 13.26C42.0138 13.012 41.8858 12.688 41.8858 12.288C41.8858 12.176 41.8898 12.056 41.8978 11.928C41.9138 11.792 41.9338 11.668 41.9578 11.556L42.4498 8.88H41.4298ZM46.9599 11.064C46.9519 11.104 46.9479 11.148 46.9479 11.196C46.9479 11.388 46.9839 11.564 47.0559 11.724C47.1359 11.884 47.2439 12.024 47.3799 12.144C47.5159 12.256 47.6759 12.348 47.8599 12.42C48.0439 12.484 48.2439 12.516 48.4599 12.516C48.8279 12.516 49.1399 12.448 49.3959 12.312C49.6599 12.176 49.8959 11.992 50.1039 11.76L50.9079 12.516C50.1959 13.284 49.3279 13.668 48.3039 13.668C47.9119 13.668 47.5519 13.612 47.2239 13.5C46.8959 13.38 46.6119 13.212 46.3719 12.996C46.1319 12.78 45.9439 12.516 45.8079 12.204C45.6719 11.884 45.6039 11.52 45.6039 11.112C45.6039 10.616 45.6879 10.156 45.8559 9.732C46.0239 9.3 46.2559 8.924 46.5519 8.604C46.8559 8.284 47.2119 8.036 47.6199 7.86C48.0359 7.676 48.4879 7.584 48.9759 7.584C49.3199 7.584 49.6359 7.632 49.9239 7.728C50.2199 7.824 50.4759 7.968 50.6919 8.16C50.9079 8.352 51.0759 8.592 51.1959 8.88C51.3159 9.168 51.3759 9.504 51.3759 9.888C51.3759 10.016 51.3639 10.196 51.3399 10.428C51.3159 10.652 51.2799 10.864 51.2319 11.064H46.9599ZM50.0799 10.056C50.0879 10 50.0919 9.948 50.0919 9.9C50.0999 9.852 50.1039 9.804 50.1039 9.756C50.1039 9.444 49.9919 9.18 49.7679 8.964C49.5519 8.748 49.2439 8.64 48.8439 8.64C48.5959 8.64 48.3719 8.684 48.1719 8.772C47.9719 8.86 47.7959 8.976 47.6439 9.12C47.4999 9.256 47.3799 9.408 47.2839 9.576C47.1879 9.744 47.1239 9.904 47.0919 10.056H50.0799ZM54.5133 8.64C54.7133 8.328 54.9653 8.076 55.2693 7.884C55.5813 7.684 55.9533 7.584 56.3853 7.584C56.7053 7.584 56.9813 7.632 57.2133 7.728C57.4533 7.824 57.6493 7.952 57.8013 8.112C57.9613 8.272 58.0773 8.464 58.1493 8.688C58.2293 8.904 58.2693 9.132 58.2693 9.372C58.2693 9.572 58.2533 9.752 58.2213 9.912L57.5853 13.5H56.1813L56.7333 10.332C56.7493 10.236 56.7613 10.14 56.7693 10.044C56.7853 9.948 56.7933 9.852 56.7933 9.756C56.7933 9.5 56.7253 9.276 56.5893 9.084C56.4533 8.884 56.2053 8.784 55.8453 8.784C55.6133 8.784 55.4093 8.828 55.2333 8.916C55.0573 9.004 54.9013 9.124 54.7653 9.276C54.6373 9.42 54.5293 9.584 54.4413 9.768C54.3613 9.952 54.3053 10.14 54.2733 10.332L53.7093 13.5H52.3053L53.0973 8.976C53.1293 8.824 53.1613 8.628 53.1933 8.388C53.2333 8.148 53.2613 7.932 53.2773 7.74H54.5973C54.5893 7.828 54.5733 7.968 54.5493 8.16C54.5253 8.344 54.5053 8.504 54.4893 8.64H54.5133ZM62.3612 13.5L63.8612 5.004H65.3372L63.8372 13.5H62.3612ZM68.0133 8.64C68.2133 8.328 68.4653 8.076 68.7693 7.884C69.0813 7.684 69.4533 7.584 69.8853 7.584C70.2053 7.584 70.4813 7.632 70.7133 7.728C70.9533 7.824 71.1493 7.952 71.3013 8.112C71.4613 8.272 71.5773 8.464 71.6493 8.688C71.7293 8.904 71.7693 9.132 71.7693 9.372C71.7693 9.572 71.7533 9.752 71.7213 9.912L71.0853 13.5H69.6813L70.2333 10.332C70.2493 10.236 70.2613 10.14 70.2693 10.044C70.2853 9.948 70.2933 9.852 70.2933 9.756C70.2933 9.5 70.2253 9.276 70.0893 9.084C69.9533 8.884 69.7053 8.784 69.3453 8.784C69.1133 8.784 68.9093 8.828 68.7333 8.916C68.5573 9.004 68.4013 9.124 68.2653 9.276C68.1373 9.42 68.0293 9.584 67.9413 9.768C67.8613 9.952 67.8053 10.14 67.7733 10.332L67.2093 13.5H65.8053L66.5973 8.976C66.6293 8.824 66.6613 8.628 66.6933 8.388C66.7333 8.148 66.7613 7.932 66.7773 7.74H68.0973C68.0893 7.828 68.0733 7.968 68.0493 8.16C68.0253 8.344 68.0053 8.504 67.9893 8.64H68.0133ZM72.7892 8.88L72.9932 7.74H73.9892L74.2772 6.06H75.6692L75.3812 7.74H76.6772L76.4732 8.88H75.2012L74.6972 11.592C74.6732 11.712 74.6612 11.824 74.6612 11.928C74.6612 12.136 74.7212 12.28 74.8412 12.36C74.9692 12.44 75.1372 12.48 75.3452 12.48C75.4412 12.48 75.5332 12.472 75.6212 12.456C75.7172 12.44 75.8052 12.42 75.8852 12.396L75.8012 13.464C75.6812 13.512 75.5372 13.548 75.3692 13.572C75.2092 13.604 75.0612 13.62 74.9252 13.62C74.3172 13.62 73.8852 13.5 73.6292 13.26C73.3732 13.012 73.2452 12.688 73.2452 12.288C73.2452 12.176 73.2492 12.056 73.2572 11.928C73.2732 11.792 73.2932 11.668 73.3172 11.556L73.8092 8.88H72.7892ZM78.3193 11.064C78.3113 11.104 78.3073 11.148 78.3073 11.196C78.3073 11.388 78.3433 11.564 78.4153 11.724C78.4953 11.884 78.6033 12.024 78.7393 12.144C78.8753 12.256 79.0353 12.348 79.2193 12.42C79.4033 12.484 79.6033 12.516 79.8193 12.516C80.1873 12.516 80.4993 12.448 80.7553 12.312C81.0193 12.176 81.2553 11.992 81.4633 11.76L82.2673 12.516C81.5553 13.284 80.6873 13.668 79.6633 13.668C79.2713 13.668 78.9113 13.612 78.5833 13.5C78.2553 13.38 77.9713 13.212 77.7313 12.996C77.4913 12.78 77.3033 12.516 77.1673 12.204C77.0313 11.884 76.9633 11.52 76.9633 11.112C76.9633 10.616 77.0473 10.156 77.2153 9.732C77.3833 9.3 77.6153 8.924 77.9113 8.604C78.2153 8.284 78.5713 8.036 78.9793 7.86C79.3953 7.676 79.8473 7.584 80.3353 7.584C80.6793 7.584 80.9953 7.632 81.2833 7.728C81.5793 7.824 81.8353 7.968 82.0513 8.16C82.2673 8.352 82.4353 8.592 82.5553 8.88C82.6753 9.168 82.7353 9.504 82.7353 9.888C82.7353 10.016 82.7233 10.196 82.6993 10.428C82.6753 10.652 82.6393 10.864 82.5913 11.064H78.3193ZM81.4393 10.056C81.4473 10 81.4513 9.948 81.4513 9.9C81.4593 9.852 81.4633 9.804 81.4633 9.756C81.4633 9.444 81.3513 9.18 81.1273 8.964C80.9113 8.748 80.6033 8.64 80.2033 8.64C79.9553 8.64 79.7313 8.684 79.5313 8.772C79.3313 8.86 79.1553 8.976 79.0033 9.12C78.8593 9.256 78.7393 9.408 78.6433 9.576C78.5473 9.744 78.4833 9.904 78.4513 10.056H81.4393ZM85.8487 8.7C86.0487 8.364 86.2847 8.096 86.5567 7.896C86.8287 7.688 87.1567 7.584 87.5407 7.584C87.5967 7.584 87.6567 7.588 87.7207 7.596C87.7847 7.596 87.8407 7.604 87.8887 7.62L87.6967 8.928C87.6087 8.904 87.5287 8.888 87.4567 8.88C87.3927 8.872 87.3287 8.868 87.2647 8.868C86.9367 8.868 86.6687 8.928 86.4607 9.048C86.2527 9.168 86.0847 9.312 85.9567 9.48C85.8287 9.648 85.7367 9.82 85.6807 9.996C85.6247 10.172 85.5887 10.312 85.5727 10.416L85.0327 13.5H83.6287L84.4327 8.976C84.4647 8.824 84.4967 8.628 84.5287 8.388C84.5687 8.148 84.5967 7.932 84.6127 7.74H85.9327C85.9327 7.78 85.9287 7.84 85.9207 7.92C85.9127 8 85.9007 8.088 85.8847 8.184C85.8767 8.28 85.8647 8.376 85.8487 8.472C85.8407 8.56 85.8327 8.636 85.8247 8.7H85.8487ZM91.6225 9.852C91.6385 9.756 91.6465 9.684 91.6465 9.636C91.6545 9.58 91.6585 9.528 91.6585 9.48C91.6585 9.2 91.5665 9 91.3825 8.88C91.2065 8.76 90.9425 8.7 90.5905 8.7C90.3105 8.7 90.0185 8.756 89.7145 8.868C89.4185 8.972 89.1545 9.108 88.9225 9.276L88.3825 8.328C88.7105 8.096 89.0825 7.916 89.4985 7.788C89.9225 7.652 90.3545 7.584 90.7945 7.584C91.0665 7.584 91.3345 7.616 91.5985 7.68C91.8705 7.736 92.1105 7.832 92.3185 7.968C92.5345 8.104 92.7065 8.284 92.8345 8.508C92.9625 8.724 93.0265 8.996 93.0265 9.324C93.0265 9.396 93.0225 9.484 93.0145 9.588C93.0065 9.692 92.9945 9.784 92.9785 9.864L92.5585 12.204C92.5185 12.428 92.4825 12.66 92.4505 12.9C92.4265 13.14 92.4145 13.34 92.4145 13.5H91.1185C91.1185 13.284 91.1425 13.056 91.1905 12.816H91.1665C90.7185 13.352 90.0945 13.62 89.2945 13.62C89.0945 13.62 88.8865 13.596 88.6705 13.548C88.4545 13.5 88.2585 13.42 88.0825 13.308C87.9065 13.188 87.7625 13.032 87.6505 12.84C87.5385 12.64 87.4825 12.392 87.4825 12.096C87.4825 11.624 87.6065 11.244 87.8545 10.956C88.1105 10.66 88.4385 10.432 88.8385 10.272C89.2385 10.104 89.6825 9.992 90.1705 9.936C90.6665 9.88 91.1505 9.852 91.6225 9.852ZM91.3225 10.86C91.0505 10.86 90.7665 10.872 90.4705 10.896C90.1825 10.912 89.9145 10.956 89.6665 11.028C89.4265 11.1 89.2265 11.204 89.0665 11.34C88.9145 11.468 88.8385 11.644 88.8385 11.868C88.8385 12.004 88.8625 12.12 88.9105 12.216C88.9665 12.304 89.0385 12.376 89.1265 12.432C89.2145 12.488 89.3145 12.528 89.4265 12.552C89.5385 12.576 89.6545 12.588 89.7745 12.588C89.9905 12.588 90.1905 12.552 90.3745 12.48C90.5665 12.408 90.7305 12.312 90.8665 12.192C91.0105 12.064 91.1265 11.92 91.2145 11.76C91.3105 11.592 91.3785 11.412 91.4185 11.22L91.4905 10.86H91.3225ZM97.8393 13.5L96.0273 10.548H95.9913L95.4633 13.5H94.0593L95.6553 4.428H97.0713L96.0513 10.176H96.0873L98.6913 7.74H100.539L97.4793 10.416L99.5793 13.5H97.8393ZM100.293 8.88L100.497 7.74H101.493L101.781 6.06H103.173L102.885 7.74H104.181L103.977 8.88H102.705L102.201 11.592C102.177 11.712 102.165 11.824 102.165 11.928C102.165 12.136 102.225 12.28 102.345 12.36C102.473 12.44 102.641 12.48 102.849 12.48C102.945 12.48 103.037 12.472 103.125 12.456C103.221 12.44 103.309 12.42 103.389 12.396L103.305 13.464C103.185 13.512 103.041 13.548 102.873 13.572C102.713 13.604 102.565 13.62 102.429 13.62C101.821 13.62 101.389 13.5 101.133 13.26C100.877 13.012 100.749 12.688 100.749 12.288C100.749 12.176 100.753 12.056 100.761 11.928C100.777 11.792 100.797 11.668 100.821 11.556L101.313 8.88H100.293ZM104.395 13.5L105.403 7.74H106.819L105.799 13.5H104.395ZM107.287 5.76C107.287 5.992 107.203 6.196 107.035 6.372C106.875 6.548 106.675 6.636 106.435 6.636C106.203 6.636 106.003 6.564 105.835 6.42C105.675 6.276 105.595 6.072 105.595 5.808C105.595 5.552 105.683 5.344 105.859 5.184C106.035 5.016 106.239 4.932 106.471 4.932C106.703 4.932 106.895 5.008 107.047 5.16C107.207 5.304 107.287 5.504 107.287 5.76ZM111.962 5.568C111.89 5.544 111.814 5.524 111.734 5.508C111.662 5.492 111.574 5.484 111.47 5.484C111.278 5.484 111.114 5.524 110.978 5.604C110.842 5.684 110.73 5.788 110.642 5.916C110.562 6.044 110.494 6.188 110.438 6.348C110.39 6.5 110.354 6.648 110.33 6.792L110.162 7.74H111.518L111.314 8.868H109.982L109.166 13.5H107.798L108.614 8.868H107.522L107.714 7.74H108.782L108.95 6.864C109.006 6.544 109.09 6.232 109.202 5.928C109.322 5.616 109.482 5.34 109.682 5.1C109.89 4.852 110.146 4.656 110.45 4.512C110.754 4.36 111.122 4.284 111.554 4.284C111.834 4.284 112.07 4.312 112.262 4.368L111.962 5.568Z" fill="#333333"/>
</svg>
