<svg width="22" height="22" viewBox="0 0 22 22" fill="none" xmlns="http://www.w3.org/2000/svg">
<path d="M19.2014 7.61294C19.1921 6.91868 19.0621 6.23132 18.8173 5.58161C18.6049 5.03358 18.2806 4.53587 17.865 4.12028C17.4494 3.7047 16.9517 3.38037 16.4037 3.16802C15.7623 2.92727 15.0848 2.79708 14.3999 2.78302C13.518 2.74361 13.2384 2.7326 10.9999 2.7326C8.76144 2.7326 8.47453 2.73261 7.59911 2.78302C6.91451 2.79719 6.23726 2.92737 5.59619 3.16802C5.04808 3.38022 4.5503 3.7045 4.13469 4.1201C3.71908 4.53571 3.39481 5.03349 3.18261 5.58161C2.94137 6.22248 2.81147 6.89987 2.79853 7.58452C2.75911 8.46727 2.74719 8.74686 2.74719 10.9854C2.74719 13.2239 2.74719 13.5099 2.79853 14.3862C2.81228 15.0719 2.94153 15.7484 3.18261 16.3909C3.39516 16.9389 3.71968 17.4365 4.13543 17.8519C4.55117 18.2673 5.049 18.5915 5.59711 18.8036C6.23642 19.054 6.91378 19.1935 7.60003 19.2161C8.48278 19.2555 8.76236 19.2674 11.0009 19.2674C13.2394 19.2674 13.5263 19.2674 14.4017 19.2161C15.0866 19.2026 15.7642 19.0727 16.4055 18.832C16.9534 18.6194 17.451 18.295 17.8665 17.8795C18.2821 17.4639 18.6065 16.9663 18.8191 16.4184C19.0602 15.7768 19.1894 15.1003 19.2032 14.4137C19.2426 13.5319 19.2545 13.2523 19.2545 11.0129C19.2527 8.77436 19.2527 8.49019 19.2014 7.61294ZM10.9944 15.2185C8.65328 15.2185 6.75669 13.3219 6.75669 10.9808C6.75669 8.63961 8.65328 6.74302 10.9944 6.74302C12.1184 6.74302 13.1963 7.1895 13.991 7.98423C14.7857 8.77896 15.2322 9.85685 15.2322 10.9808C15.2322 12.1047 14.7857 13.1826 13.991 13.9773C13.1963 14.772 12.1184 15.2185 10.9944 15.2185ZM15.4009 7.57444C15.2711 7.57456 15.1425 7.54908 15.0226 7.49946C14.9026 7.44985 14.7936 7.37706 14.7019 7.28528C14.6101 7.1935 14.5373 7.08451 14.4877 6.96457C14.4381 6.84462 14.4126 6.71607 14.4127 6.58627C14.4127 6.45656 14.4382 6.32813 14.4879 6.20829C14.5375 6.08846 14.6103 5.97957 14.702 5.88786C14.7937 5.79614 14.9026 5.72339 15.0224 5.67375C15.1423 5.62411 15.2707 5.59856 15.4004 5.59856C15.5301 5.59856 15.6585 5.62411 15.7784 5.67375C15.8982 5.72339 16.0071 5.79614 16.0988 5.88786C16.1905 5.97957 16.2633 6.08846 16.3129 6.20829C16.3626 6.32813 16.3881 6.45656 16.3881 6.58627C16.3881 7.13261 15.9463 7.57444 15.4009 7.57444Z" fill="black"/>
<path d="M10.9945 13.7335C12.5148 13.7335 13.7472 12.5011 13.7472 10.9808C13.7472 9.46048 12.5148 8.22803 10.9945 8.22803C9.47415 8.22803 8.2417 9.46048 8.2417 10.9808C8.2417 12.5011 9.47415 13.7335 10.9945 13.7335Z" fill="black"/>
</svg>
