<svg width="22" height="22" viewBox="0 0 22 22" fill="none" xmlns="http://www.w3.org/2000/svg">
<path d="M17.997 7.33058C18.0089 7.491 18.0089 7.6505 18.0089 7.81C18.0089 12.6912 14.2936 18.3159 7.50388 18.3159C5.41204 18.3159 3.46871 17.71 1.83337 16.6577C2.13037 16.6916 2.41637 16.7035 2.72529 16.7035C4.3872 16.7075 6.00205 16.1518 7.30954 15.1259C6.53901 15.112 5.79207 14.8577 5.17301 14.3988C4.55395 13.9398 4.09368 13.2989 3.85646 12.5657C4.08471 12.5996 4.31387 12.6225 4.55404 12.6225C4.88496 12.6225 5.21771 12.5767 5.52662 12.4969C4.6904 12.3281 3.93848 11.8748 3.39869 11.2142C2.85891 10.5536 2.56459 9.72642 2.56579 8.87333V8.8275C3.05804 9.10158 3.62912 9.273 4.23412 9.29591C3.72729 8.95912 3.3117 8.5021 3.02444 7.96564C2.73717 7.42918 2.58716 6.82995 2.58779 6.22142C2.58779 5.53575 2.77021 4.90692 3.09012 4.35875C4.01792 5.50002 5.17509 6.43368 6.48668 7.09927C7.79828 7.76486 9.23506 8.14753 10.704 8.2225C10.6471 7.9475 10.6123 7.66241 10.6123 7.37641C10.6121 6.89146 10.7074 6.41122 10.8929 5.96314C11.0783 5.51505 11.3503 5.10792 11.6932 4.765C12.0361 4.42209 12.4433 4.15013 12.8913 3.96465C13.3394 3.77918 13.8197 3.68384 14.3046 3.68408C15.368 3.68408 16.3277 4.12958 17.0024 4.85008C17.829 4.69023 18.6217 4.38847 19.3454 3.95817C19.0698 4.81141 18.4927 5.53493 17.722 5.99317C18.4551 5.90955 19.1716 5.71675 19.8477 5.42117C19.3427 6.15734 18.717 6.8029 17.997 7.33058Z" fill="black"/>
</svg>
