<svg width="19" height="20" viewBox="0 0 19 20" fill="none" xmlns="http://www.w3.org/2000/svg">
<path d="M2.375 10C2.375 11.3094 3.44058 12.375 4.75 12.375C5.37858 12.375 5.947 12.1256 6.37212 11.7258L11.115 14.4365C11.1007 14.5394 11.0833 14.6423 11.0833 14.75C11.0833 16.0594 12.1489 17.125 13.4583 17.125C14.7677 17.125 15.8333 16.0594 15.8333 14.75C15.8333 13.4406 14.7677 12.375 13.4583 12.375C12.8297 12.375 12.2613 12.6244 11.8362 13.0242L7.09333 10.3143C7.10758 10.2106 7.125 10.1077 7.125 10C7.125 9.89233 7.10758 9.78942 7.09333 9.68571L11.8362 6.97583C12.2613 7.37563 12.8297 7.625 13.4583 7.625C14.7677 7.625 15.8333 6.55942 15.8333 5.25C15.8333 3.94058 14.7677 2.875 13.4583 2.875C12.1489 2.875 11.0833 3.94058 11.0833 5.25C11.0833 5.35767 11.1007 5.46058 11.115 5.56429L6.37212 8.27417C5.93434 7.85829 5.35383 7.62597 4.75 7.625C3.44058 7.625 2.375 8.69058 2.375 10Z" fill="black"/>
</svg>
