<svg width="16" height="17" viewBox="0 0 16 17" fill="none" xmlns="http://www.w3.org/2000/svg">
<g clip-path="url(#clip0_338_1726)">
<path d="M15.8932 15.1644L9.06651 1.51109C8.63984 0.65776 7.46651 0.65776 7.03984 1.51109L0.106511 15.1644C-0.320156 15.9111 0.319844 16.8711 1.17318 16.8711H14.8265C15.6798 16.8711 16.2132 15.9111 15.8932 15.1644ZM7.99984 14.7378C7.14651 14.7378 6.39984 13.9911 6.39984 13.1378C6.39984 12.2844 7.03984 11.5378 7.99984 11.5378C8.95984 11.5378 9.59984 12.2844 9.59984 13.1378C9.59984 14.0978 8.85318 14.7378 7.99984 14.7378ZM9.06651 10.4711H6.93318L6.39984 6.73776C6.39984 6.41776 6.61318 6.20443 6.93318 6.20443H9.06651C9.38651 6.20443 9.59984 6.41776 9.59984 6.73776L9.06651 10.4711Z" fill="black"/>
</g>
<defs>
<clipPath id="clip0_338_1726">
<rect width="16" height="16" fill="white" transform="translate(0 0.871094)"/>
</clipPath>
</defs>
</svg>
