<svg width="32" height="33" viewBox="0 0 32 33" fill="none" xmlns="http://www.w3.org/2000/svg">
<path d="M16 8.5C15.0111 8.5 14.0444 8.79325 13.2222 9.34265C12.3999 9.89206 11.759 10.673 11.3806 11.5866C11.0022 12.5002 10.9031 13.5055 11.0961 14.4755C11.289 15.4454 11.7652 16.3363 12.4645 17.0355C13.1637 17.7348 14.0546 18.211 15.0246 18.4039C15.9945 18.5969 16.9998 18.4978 17.9134 18.1194C18.8271 17.741 19.6079 17.1001 20.1574 16.2779C20.7068 15.4556 21 14.4889 21 13.5C21 12.1739 20.4732 10.9021 19.5355 9.96447C18.5979 9.02678 17.3261 8.5 16 8.5Z" fill="white"/>
<path d="M16 2.5C13.2311 2.5 10.5243 3.32109 8.22202 4.85943C5.91973 6.39777 4.12532 8.58427 3.06569 11.1424C2.00607 13.7006 1.72882 16.5155 2.26901 19.2313C2.80921 21.947 4.14258 24.4416 6.10051 26.3995C8.05845 28.3574 10.553 29.6908 13.2687 30.231C15.9845 30.7712 18.7994 30.4939 21.3576 29.4343C23.9157 28.3747 26.1022 26.5803 27.6406 24.278C29.1789 21.9757 30 19.2689 30 16.5C29.9958 12.7883 28.5194 9.22977 25.8948 6.60518C23.2702 3.98059 19.7117 2.50423 16 2.5ZM23.992 25.426C23.9721 24.1143 23.4377 22.863 22.5039 21.9416C21.5702 21.0202 20.3118 20.5025 19 20.5H13C11.6882 20.5025 10.4298 21.0202 9.4961 21.9416C8.56235 22.863 8.02794 24.1143 8.00801 25.426C6.19457 23.8067 4.91574 21.6749 4.34084 19.3127C3.76594 16.9505 3.92211 14.4693 4.78864 12.1979C5.65518 9.92637 7.19123 7.97167 9.19338 6.59257C11.1955 5.21347 13.5693 4.47503 16.0005 4.47503C18.4317 4.47503 20.8055 5.21347 22.8076 6.59257C24.8098 7.97167 26.3458 9.92637 27.2124 12.1979C28.0789 14.4693 28.2351 16.9505 27.6602 19.3127C27.0853 21.6749 25.8064 23.8067 23.993 25.426H23.992Z" fill="white"/>
</svg>
