<svg width="24" height="24" viewBox="0 0 24 24" fill="none" xmlns="http://www.w3.org/2000/svg">
<path d="M12.815 12.1969L5.28296 13.4519C5.19636 13.4664 5.1151 13.5034 5.04734 13.5592C4.97958 13.615 4.92772 13.6877 4.89696 13.7699L2.29996 20.7279C2.05196 21.3679 2.72096 21.9779 3.33496 21.6699L21.335 12.6699C21.4594 12.6076 21.564 12.5118 21.6371 12.3934C21.7102 12.275 21.7489 12.1386 21.7489 11.9994C21.7489 11.8603 21.7102 11.7238 21.6371 11.6054C21.564 11.487 21.4594 11.3913 21.335 11.3289L3.33496 2.32893C2.72096 2.02193 2.05196 2.63193 2.29996 3.27093L4.89796 10.2289C4.92872 10.3112 4.98058 10.3838 5.04834 10.4397C5.1161 10.4955 5.19736 10.5325 5.28396 10.5469L12.816 11.8019C12.8629 11.8094 12.9057 11.8334 12.9366 11.8696C12.9675 11.9058 12.9844 11.9518 12.9844 11.9994C12.9844 12.047 12.9675 12.093 12.9366 12.1292C12.9057 12.1654 12.8629 12.1894 12.816 12.1969H12.815Z" fill="black"/>
</svg>
