<svg width="22" height="22" fill="none" xmlns="http://www.w3.org/2000/svg"><path d="M13.902 12.357c.386.12.756.287 1.101.496l-.022-.013c.378.167.704.361 1.002.59l-.011-.008a.46.46 0 0 1 .023.144l-.001.023c-.01.303-.079.588-.194.848l.006-.014c-.165.328-.44.58-.776.715l-.01.004c-.348.18-.732.28-1.125.29h-.004a5.987 5.987 0 0 1-2.133-.695l.03.016a6.355 6.355 0 0 1-1.88-1.296h-.002a14.518 14.518 0 0 1-1.604-1.98l-.034-.052a3.793 3.793 0 0 1-.785-2.122V9.206a2.409 2.409 0 0 1 .816-1.733l.002-.002a.838.838 0 0 1 .575-.242c.072.003.142.008.209.018l-.01-.001c.063.009.135.015.209.016h.002a.461.461 0 0 1 .296.072H9.58a.791.791 0 0 1 .17.296l.001.005c.06.147.181.469.366.967.096.222.19.496.266.778l.01.045a1.113 1.113 0 0 1-.38.63h-.002c-.255.268-.382.438-.382.51.002.06.022.118.058.167l-.001-.001a4.983 4.983 0 0 0 1.125 1.5l.003.004a7.061 7.061 0 0 0 1.63 1.091l.041.018a.488.488 0 0 0 .242.078h.002c.11 0 .31-.178.598-.533.288-.355.48-.533.574-.533v.001Zm-2.247 5.82h.016a6.782 6.782 0 0 0 2.723-.566l-.044.017a6.86 6.86 0 0 0 3.685-3.63l.018-.044c.35-.789.553-1.708.553-2.674s-.204-1.886-.57-2.718l.017.044a6.86 6.86 0 0 0-3.658-3.657l-.045-.017a6.772 6.772 0 0 0-2.695-.55c-.973 0-1.9.203-2.739.567l.045-.017a6.86 6.86 0 0 0-3.686 3.63l-.017.044a6.673 6.673 0 0 0-.553 2.682 6.765 6.765 0 0 0 1.34 4.052l-.013-.018-.874 2.559 2.678-.846a6.783 6.783 0 0 0 3.787 1.142h.034-.002Zm0-15.177h.024c1.162 0 2.267.242 3.266.68l-.053-.021c2.017.848 3.59 2.408 4.423 4.355l.021.054c.42.947.664 2.052.664 3.212a8.074 8.074 0 0 1-.685 3.265l.021-.052a8.262 8.262 0 0 1-4.39 4.388l-.053.021a8.033 8.033 0 0 1-3.215.659h-.024.001-.038c-1.47 0-2.85-.383-4.043-1.054l.041.021L3 20l1.505-4.448a8.102 8.102 0 0 1-1.194-4.257c0-1.166.244-2.275.684-3.28l-.02.053A8.263 8.263 0 0 1 8.363 3.68l.054-.02A8.032 8.032 0 0 1 11.632 3h.024-.002.001Z" fill="#000"/></svg>