<svg width="22" height="22" viewBox="0 0 22 22" fill="none" xmlns="http://www.w3.org/2000/svg">
<g clip-path="url(#clip0_759_2599)">
<path d="M7.04786 17.5653L7.3324 17.7072C8.51815 18.4164 9.84608 18.7474 11.1741 18.7474C15.3477 18.7474 18.7624 15.3432 18.7624 11.1825C18.7624 9.19669 17.9561 7.25817 16.5334 5.83973C15.1105 4.42129 13.2134 3.61755 11.1741 3.61755C7.00047 3.61755 3.58564 7.02175 3.6331 11.2298C3.6331 12.6481 4.05994 14.0193 4.77133 15.2013L4.96102 15.485L4.20225 18.2746L7.04786 17.5653Z" fill="#00E676"/>
<path d="M17.0168 5.42496C15.5007 3.85325 13.4049 3 11.2645 3C6.71622 3 3.05968 6.72724 3.10424 11.2628C3.10424 12.6998 3.50556 14.092 4.17448 15.3493L3.01506 19.6155L7.34045 18.4928C8.54442 19.1664 9.88212 19.4808 11.22 19.4808C15.7237 19.4808 19.3802 15.7535 19.3802 11.218C19.3802 9.01752 18.533 6.95179 17.0169 5.42496H17.0168ZM11.2645 18.0887C10.0605 18.0887 8.85657 17.7744 7.83095 17.1457L7.56342 17.011L4.97713 17.6845L5.64598 15.1249L5.46763 14.8554C3.50556 11.6671 4.44201 7.44575 7.6526 5.46983C10.8632 3.49397 15.0102 4.43703 16.9723 7.6703C18.9343 10.9036 17.9978 15.0799 14.7873 17.0558C13.7616 17.7294 12.5131 18.0886 11.2645 18.0886V18.0887ZM15.1886 13.1041L14.6981 12.8796C14.6981 12.8796 13.9847 12.5652 13.5387 12.3407C13.4941 12.3407 13.4495 12.2957 13.4049 12.2957C13.2711 12.2957 13.182 12.3407 13.0928 12.3856C13.0928 12.3856 13.0482 12.4305 12.4239 13.149C12.3793 13.2388 12.2901 13.2837 12.201 13.2837H12.1563C12.1118 13.2837 12.0226 13.2388 11.978 13.1939L11.755 13.1041C11.2645 12.8796 10.8186 12.6101 10.4619 12.2509C10.3727 12.1611 10.2389 12.0712 10.1497 11.9814C9.83757 11.6671 9.52542 11.3078 9.30251 10.9036L9.25789 10.8138C9.21333 10.7689 9.21333 10.724 9.16871 10.6342C9.16871 10.5444 9.16871 10.4546 9.21333 10.4097C9.21333 10.4097 9.39169 10.1851 9.52542 10.0505C9.61466 9.96058 9.65921 9.8259 9.74839 9.7361C9.83757 9.60136 9.88219 9.42174 9.83757 9.287C9.79301 9.06246 9.25789 7.84998 9.12416 7.58056C9.03492 7.44582 8.94581 7.40095 8.81201 7.35601H8.32151C8.23227 7.35601 8.14316 7.40095 8.05392 7.40095L8.0093 7.44582C7.92012 7.49075 7.83095 7.58056 7.74177 7.62543C7.6526 7.7153 7.60798 7.80504 7.5188 7.89491C7.20665 8.29907 7.0283 8.79304 7.0283 9.287C7.0283 9.64623 7.11748 10.0055 7.25127 10.3199L7.29589 10.4546C7.69722 11.3078 8.23227 12.0712 8.94581 12.7448L9.12416 12.9244C9.25789 13.0592 9.39169 13.149 9.48086 13.2837C10.4173 14.092 11.4875 14.6758 12.6915 14.9902C12.8252 15.035 13.0036 15.035 13.1374 15.08H13.5833C13.8062 15.08 14.0738 14.9902 14.2522 14.9004C14.3859 14.8106 14.4751 14.8106 14.5643 14.7208L14.6535 14.6309C14.7427 14.5411 14.8319 14.4962 14.921 14.4064C15.0102 14.3166 15.0994 14.2268 15.144 14.1369C15.2332 13.9573 15.2777 13.7328 15.3224 13.5083V13.1939C15.3224 13.1939 15.2777 13.149 15.1886 13.1041Z" fill="white"/>
<g filter="url(#filter0_f_759_2599)">
<path d="M8.23335 17.9271L8.43659 18.0256C9.28356 18.5177 10.2321 18.7473 11.1806 18.7473C14.1618 18.7473 16.6009 16.3852 16.6009 13.4982C16.6009 12.1203 16.025 10.7752 15.0087 9.791C13.9924 8.80677 12.6373 8.24908 11.1806 8.24908C8.1995 8.24908 5.76034 10.6112 5.79423 13.531C5.79423 14.5152 6.09912 15.4666 6.60725 16.2868L6.74275 16.4837L6.20077 18.4193L8.23335 17.9271Z" fill="#DBFFD8" fill-opacity="0.4" style="mix-blend-mode:color-burn"/>
</g>
</g>
<defs>
<filter id="filter0_f_759_2599" x="-1.20612" y="1.24908" width="24.807" height="24.4982" filterUnits="userSpaceOnUse" color-interpolation-filters="sRGB">
<feFlood flood-opacity="0" result="BackgroundImageFix"/>
<feBlend mode="normal" in="SourceGraphic" in2="BackgroundImageFix" result="shape"/>
<feGaussianBlur stdDeviation="3.5" result="effect1_foregroundBlur_759_2599"/>
</filter>
<clipPath id="clip0_759_2599">
<rect width="22" height="22" fill="white"/>
</clipPath>
</defs>
</svg>
