<svg width="26" height="26" viewBox="0 0 26 26" fill="none" xmlns="http://www.w3.org/2000/svg">
<path d="M13 0C9.55219 0 6.24558 1.36964 3.80761 3.80761C1.36964 6.24558 0 9.55219 0 13C0 16.4478 1.36964 19.7544 3.80761 22.1924C6.24558 24.6304 9.55219 26 13 26C16.4478 26 19.7544 24.6304 22.1924 22.1924C24.6304 19.7544 26 16.4478 26 13C26 9.55219 24.6304 6.24558 22.1924 3.80761C19.7544 1.36964 16.4478 0 13 0V0ZM18.6875 12.1875C18.903 12.1875 19.1097 12.2731 19.262 12.4255C19.4144 12.5778 19.5 12.7845 19.5 13C19.5 13.2155 19.4144 13.4222 19.262 13.5745C19.1097 13.7269 18.903 13.8125 18.6875 13.8125H9.27387L12.7628 17.2997C12.8383 17.3753 12.8982 17.465 12.9391 17.5637C12.98 17.6624 13.001 17.7682 13.001 17.875C13.001 17.9818 12.98 18.0876 12.9391 18.1863C12.8982 18.285 12.8383 18.3747 12.7628 18.4503C12.6872 18.5258 12.5975 18.5857 12.4988 18.6266C12.4001 18.6675 12.2943 18.6885 12.1875 18.6885C12.0807 18.6885 11.9749 18.6675 11.8762 18.6266C11.7775 18.5857 11.6878 18.5258 11.6122 18.4503L6.73725 13.5753C6.66158 13.4998 6.60155 13.4101 6.56059 13.3114C6.51963 13.2127 6.49855 13.1069 6.49855 13C6.49855 12.8931 6.51963 12.7873 6.56059 12.6886C6.60155 12.5899 6.66158 12.5002 6.73725 12.4247L11.6122 7.54975C11.7648 7.39718 11.9717 7.31147 12.1875 7.31147C12.4033 7.31147 12.6102 7.39718 12.7628 7.54975C12.9153 7.70232 13.001 7.90924 13.001 8.125C13.001 8.34076 12.9153 8.54768 12.7628 8.70025L9.27387 12.1875H18.6875Z" fill="white"/>
</svg>
