<svg width="29" height="27" viewBox="0 0 29 27" fill="none" xmlns="http://www.w3.org/2000/svg">
<path fill-rule="evenodd" clip-rule="evenodd" d="M28.2482 7.02726C28.1179 6.83894 27.9438 6.68502 27.741 6.57868C27.5382 6.47234 27.3127 6.41675 27.0837 6.41667H7.72208L6.08724 2.49251C5.87289 1.97574 5.50991 1.53426 5.04433 1.22404C4.57875 0.91382 4.03154 0.748837 3.47208 0.750006H0.166992V3.58334H3.47208L10.1927 19.7121C10.3004 19.9701 10.482 20.1906 10.7147 20.3456C10.9474 20.5006 11.2207 20.5834 11.5003 20.5833H22.8337C23.4244 20.5833 23.9528 20.2164 24.1611 19.6653L28.4111 8.33201C28.4914 8.11755 28.5185 7.88682 28.4902 7.65958C28.4618 7.43235 28.3787 7.21537 28.2482 7.02726ZM12.2087 26.25C13.3823 26.25 14.3337 25.2986 14.3337 24.125C14.3337 22.9514 13.3823 22 12.2087 22C11.0351 22 10.0837 22.9514 10.0837 24.125C10.0837 25.2986 11.0351 26.25 12.2087 26.25ZM24.2503 24.125C24.2503 25.2986 23.2989 26.25 22.1253 26.25C20.9517 26.25 20.0003 25.2986 20.0003 24.125C20.0003 22.9514 20.9517 22 22.1253 22C23.2989 22 24.2503 22.9514 24.2503 24.125Z" fill="black"/>
</svg>
