<svg width="24" height="25" viewBox="0 0 24 25" fill="none" xmlns="http://www.w3.org/2000/svg">
<path d="M9.99981 19.7208C9.76615 19.7213 9.53972 19.6399 9.35981 19.4908C9.25855 19.4069 9.17485 19.3038 9.11349 19.1874C9.05214 19.0711 9.01435 18.9438 9.00227 18.8128C8.99019 18.6818 9.00408 18.5498 9.04312 18.4241C9.08217 18.2985 9.1456 18.1819 9.22981 18.0808L13.7098 12.7208L9.38981 7.35083C9.30674 7.24854 9.24471 7.13084 9.20728 7.0045C9.16985 6.87816 9.15775 6.74567 9.17169 6.61464C9.18563 6.48362 9.22533 6.35663 9.2885 6.241C9.35168 6.12536 9.43708 6.02335 9.53981 5.94083C9.64327 5.84979 9.76444 5.78112 9.8957 5.73913C10.027 5.69714 10.1655 5.68274 10.3026 5.69683C10.4397 5.71091 10.5724 5.75318 10.6924 5.82098C10.8123 5.88878 10.917 5.98065 10.9998 6.09083L15.8298 12.0908C15.9769 12.2698 16.0573 12.4942 16.0573 12.7258C16.0573 12.9575 15.9769 13.1819 15.8298 13.3608L10.8298 19.3608C10.7295 19.4818 10.6021 19.5775 10.4578 19.6401C10.3136 19.7026 10.1567 19.7303 9.99981 19.7208Z" fill="white"/>
</svg>
