<svg width="18" height="19" viewBox="0 0 18 19" fill="none" xmlns="http://www.w3.org/2000/svg">
<path d="M6.66136 13.7238L1.52236 10.0338C1.40132 9.96231 1.30101 9.86047 1.23133 9.73835C1.16165 9.61624 1.125 9.47807 1.125 9.33747C1.125 9.19687 1.16165 9.0587 1.23133 8.93658C1.30101 8.81447 1.40132 8.71262 1.52236 8.64109L6.66136 4.94884C6.78387 4.87679 6.92325 4.83843 7.06538 4.83766C7.2075 4.83689 7.34729 4.87373 7.47057 4.94445C7.59384 5.01518 7.69622 5.11726 7.76729 5.24033C7.83836 5.36341 7.87561 5.5031 7.87524 5.64522V7.08634C9.56274 7.08634 14.6252 7.08634 15.7502 16.0863C12.9377 11.0238 7.87524 11.5863 7.87524 11.5863V13.0275C7.87524 13.6575 7.19349 14.0377 6.66136 13.725V13.7238Z" fill="black"/>
</svg>
