<svg width="24" height="25" viewBox="0 0 24 25" fill="none" xmlns="http://www.w3.org/2000/svg">
<path d="M13.8297 19.7208C13.6803 19.7213 13.5327 19.6883 13.3977 19.6243C13.2627 19.5603 13.1438 19.4668 13.0497 19.3508L8.21968 13.3508C8.07259 13.1719 7.99219 12.9474 7.99219 12.7158C7.99219 12.4842 8.07259 12.2597 8.21968 12.0808L13.2197 6.0808C13.3894 5.87658 13.6333 5.74815 13.8978 5.72377C14.1622 5.6994 14.4255 5.78106 14.6297 5.9508C14.8339 6.12053 14.9623 6.36445 14.9867 6.62887C15.0111 6.8933 14.9294 7.15658 14.7597 7.3608L10.2897 12.7208L14.6097 18.0808C14.732 18.2276 14.8096 18.4063 14.8335 18.5959C14.8574 18.7854 14.8265 18.9778 14.7444 19.1504C14.6624 19.3229 14.5326 19.4683 14.3705 19.5694C14.2084 19.6705 14.0207 19.723 13.8297 19.7208Z" fill="white"/>
</svg>
