<svg width="87" height="77" viewBox="0 0 87 77" fill="none" xmlns="http://www.w3.org/2000/svg">
<g filter="url(#filter0_f_102_987)">
<ellipse cx="43.5" cy="53.5" rx="23.5" ry="3.5" fill="#14261D" fill-opacity="0.47" style="mix-blend-mode:multiply"/>
</g>
<circle cx="43.5" cy="29.5" r="23.5" fill="#00E676"/>
<g filter="url(#filter1_f_102_987)">
<ellipse cx="43.5" cy="38.5" rx="23.5" ry="18.5" fill="#148A51" fill-opacity="0.62" style="mix-blend-mode:overlay"/>
</g>
<path d="M42.4757 18.1796C36.7232 18.4504 32.1851 23.2063 32.2024 28.923C32.2053 30.6058 32.6082 32.2637 33.3779 33.7601L32.2317 39.2862C32.2177 39.3553 32.2214 39.4268 32.2423 39.4941C32.2633 39.5614 32.3009 39.6223 32.3517 39.6712C32.4024 39.7202 32.4647 39.7555 32.5327 39.774C32.6007 39.7924 32.6723 39.7935 32.7409 39.7769L38.1944 38.4943C39.6387 39.2081 41.2244 39.59 42.8354 39.6123C48.7146 39.7022 53.6156 35.0677 53.7987 29.2339C53.9959 22.9777 48.7969 17.8795 42.4757 18.1785V18.1796ZM48.9833 34.8272C48.1973 35.6104 47.2645 36.2307 46.2383 36.6527C45.2122 37.0747 44.1128 37.29 43.0033 37.2864C41.6979 37.2904 40.4094 36.9907 39.2398 36.411L38.4804 36.0351L35.1361 36.8216L35.8403 33.4297L35.4654 32.7017C34.8578 31.5238 34.5427 30.217 34.5468 28.8916C34.5468 26.6491 35.4264 24.5399 37.0233 22.9549C38.6149 21.3795 40.7638 20.4954 43.0033 20.4947C45.2631 20.4947 47.3864 21.3679 48.9833 22.9539C49.77 23.7291 50.3943 24.6534 50.8197 25.6728C51.2451 26.6921 51.4631 27.786 51.4609 28.8905C51.4609 31.1135 50.5671 33.2564 48.9833 34.8283V34.8272Z" fill="white"/>
<path d="M48.2455 31.2153L46.1536 30.6194C46.0186 30.5807 45.8757 30.5789 45.7398 30.6144C45.6039 30.6498 45.48 30.7212 45.3812 30.8209L44.8698 31.3388C44.764 31.4459 44.629 31.5195 44.4816 31.5503C44.3342 31.5812 44.181 31.5679 44.0411 31.5121C43.052 31.1145 40.9698 29.2772 40.4379 28.3574C40.3634 28.2275 40.3293 28.0783 40.3401 27.9289C40.3509 27.7795 40.4061 27.6367 40.4986 27.5189L40.9449 26.9448C41.0308 26.8347 41.0852 26.7034 41.1022 26.5649C41.1192 26.4263 41.0982 26.2858 41.0413 26.1583L40.1617 24.1823C40.1119 24.0718 40.0372 23.9744 39.9435 23.8977C39.8497 23.821 39.7394 23.7671 39.6213 23.7402C39.5032 23.7133 39.3805 23.7142 39.2628 23.7428C39.145 23.7714 39.0356 23.8269 38.9429 23.9049C38.359 24.3957 37.6657 25.1399 37.5823 25.9665C37.4338 27.4214 38.0622 29.2555 40.439 31.459C43.1853 34.0038 45.3855 34.3407 46.8166 33.9951C47.6291 33.8001 48.2791 33.0168 48.6875 32.3766C48.7528 32.2749 48.7934 32.1593 48.8059 32.0391C48.8184 31.9188 48.8025 31.7974 48.7595 31.6844C48.7165 31.5714 48.6476 31.4701 48.5583 31.3887C48.4691 31.3072 48.3619 31.2478 48.2455 31.2153V31.2153Z" fill="white"/>
<defs>
<filter id="filter0_f_102_987" x="8" y="38" width="71" height="31" filterUnits="userSpaceOnUse" color-interpolation-filters="sRGB">
<feFlood flood-opacity="0" result="BackgroundImageFix"/>
<feBlend mode="normal" in="SourceGraphic" in2="BackgroundImageFix" result="shape"/>
<feGaussianBlur stdDeviation="6" result="effect1_foregroundBlur_102_987"/>
</filter>
<filter id="filter1_f_102_987" x="0" y="0" width="87" height="77" filterUnits="userSpaceOnUse" color-interpolation-filters="sRGB">
<feFlood flood-opacity="0" result="BackgroundImageFix"/>
<feBlend mode="normal" in="SourceGraphic" in2="BackgroundImageFix" result="shape"/>
<feGaussianBlur stdDeviation="10" result="effect1_foregroundBlur_102_987"/>
</filter>
</defs>
</svg>
