<svg width="33" height="33" viewBox="0 0 33 33" fill="none" xmlns="http://www.w3.org/2000/svg">
<path d="M15.6336 7.69941L16.5 9.20235L17.3664 7.69941C18.6828 5.41579 20.9736 4 23.5455 4C27.5524 4 31 7.65695 31 12.3333C31 14.3942 30.1405 16.5337 28.7452 18.6342C27.3548 20.7272 25.4824 22.706 23.5797 24.4246C21.681 26.1395 19.7778 27.5724 18.347 28.5776C17.6326 29.0795 17.0381 29.4732 16.6239 29.7404C16.5813 29.7679 16.5407 29.794 16.502 29.8188C16.463 29.7936 16.4219 29.767 16.3789 29.739C15.9645 29.4698 15.3699 29.0733 14.6552 28.5682C13.2241 27.5569 11.3205 26.1165 9.42131 24.3963C7.51807 22.6725 5.64519 20.6909 4.25441 18.6007C2.85825 16.5025 2 14.3732 2 12.3333C2 7.65694 5.44758 4 9.45455 4C12.0264 4 14.3172 5.41579 15.6336 7.69941Z" stroke="white" stroke-width="2"/>
</svg>
