<svg width="13" height="13" viewBox="0 0 13 13" fill="none" xmlns="http://www.w3.org/2000/svg">
<path d="M11.9699 11.3565L9.70392 9.09723C10.435 8.16583 10.8317 7.01567 10.8302 5.83162C10.8302 4.77712 10.5175 3.74631 9.93168 2.86953C9.34584 1.99275 8.51315 1.30938 7.53893 0.905847C6.5647 0.50231 5.49269 0.396726 4.45846 0.602448C3.42423 0.808169 2.47423 1.31596 1.72859 2.0616C0.982949 2.80724 0.475162 3.75724 0.26944 4.79147C0.0637185 5.8257 0.169302 6.89771 0.57284 7.87194C0.976377 8.84616 1.65974 9.67885 2.53652 10.2647C3.4133 10.8505 4.44412 11.1632 5.49861 11.1632C6.68266 11.1647 7.83283 10.768 8.76422 10.0369L11.0235 12.3029C11.0855 12.3653 11.1592 12.4149 11.2404 12.4487C11.3216 12.4826 11.4087 12.5 11.4967 12.5C11.5847 12.5 11.6718 12.4826 11.753 12.4487C11.8342 12.4149 11.9079 12.3653 11.9699 12.3029C12.0323 12.2409 12.0819 12.1672 12.1157 12.086C12.1496 12.0048 12.167 11.9177 12.167 11.8297C12.167 11.7417 12.1496 11.6546 12.1157 11.5734C12.0819 11.4922 12.0323 11.4185 11.9699 11.3565V11.3565ZM1.4999 5.83162C1.4999 5.04075 1.73442 4.26764 2.1738 3.61005C2.61319 2.95247 3.2377 2.43994 3.96837 2.13729C4.69904 1.83464 5.50304 1.75545 6.27872 1.90974C7.05439 2.06403 7.76689 2.44487 8.32612 3.0041C8.88535 3.56333 9.2662 4.27583 9.42049 5.05151C9.57478 5.82718 9.49559 6.63119 9.19294 7.36186C8.89028 8.09253 8.37776 8.71704 7.72017 9.15642C7.06259 9.59581 6.28948 9.83033 5.49861 9.83033C4.43809 9.83033 3.421 9.40904 2.67109 8.65913C1.92119 7.90923 1.4999 6.89214 1.4999 5.83162Z" fill="black"/>
</svg>
