<svg width="118" height="119" viewBox="0 0 118 119" fill="none" xmlns="http://www.w3.org/2000/svg">
<g clip-path="url(#clip0)">
<path d="M42.61 99.6087C18.32 99.6087 0 91.0787 0 79.7487C0 68.4287 18.32 59.8887 42.61 59.8887C66.9 59.8887 85.22 68.4287 85.22 79.7487C85.23 91.0787 66.91 99.6087 42.61 99.6087ZM42.61 65.5487C20.83 65.5487 5.66 73.0287 5.66 79.7487C5.66 86.4687 20.84 93.9487 42.61 93.9487C64.39 93.9487 79.56 86.4687 79.56 79.7487C79.57 73.0387 64.39 65.5487 42.61 65.5487Z" fill="white"/>
<path d="M42.61 118.019C18.32 118.019 0 109.479 0 98.1588V79.7588H5.66V98.1588C5.66 104.879 20.84 112.359 42.61 112.359C64.39 112.359 79.56 104.879 79.56 98.1588V79.7588H85.22V98.1588C85.23 109.479 66.91 118.019 42.61 118.019Z" fill="white"/>
<path d="M23.6215 62.8846L20.3574 67.5088L61.6159 96.6321L64.88 92.0079L23.6215 62.8846Z" fill="white"/>
<path d="M92.41 78.5389C91.76 77.1889 92.2899 75.5989 93.5799 74.8489C104.99 68.3189 112.23 55.9889 112.23 42.7389C112.23 22.3589 95.6499 5.78891 75.2799 5.78891C54.8999 5.78891 38.3299 22.3689 38.3299 42.7389C38.3299 45.1189 38.5599 47.4789 38.9999 49.7889C39.2799 51.2489 38.4099 52.6889 36.9699 53.0789C35.3999 53.4989 33.7699 52.5189 33.4599 50.9289C32.9399 48.2489 32.6799 45.5089 32.6799 42.7389C32.6599 19.2489 51.7799 0.128906 75.2699 0.128906C98.7699 0.128906 117.88 19.2489 117.88 42.7389C117.88 58.0389 109.51 72.2689 96.3299 79.7889C94.9199 80.5989 93.11 80.0089 92.41 78.5389Z" fill="white"/>
<path d="M61.15 55.3384C60.11 54.1684 60.21 52.3784 61.38 51.3384L103.09 14.1484L106.86 18.3684L65.14 55.5684C63.98 56.6084 62.19 56.5084 61.15 55.3384Z" fill="white"/>
</g>
<defs>
<clipPath id="clip0">
<rect width="117.89" height="117.89" fill="white" transform="translate(0 0.128906)"/>
</clipPath>
</defs>
</svg>
