<svg width="87" height="115" viewBox="0 0 87 115" fill="none" xmlns="http://www.w3.org/2000/svg">
<g clip-path="url(#clip0)">
<path d="M31.9171 112.4C20.3337 96.8642 32.8616 88.9348 29.9285 75.1143C36.8388 79.3648 38.1065 84.7588 39.5482 90.4511C40.9899 96.1185 45.8122 101.239 50.8831 101.314C55.9788 101.363 59.6576 97.4608 61.3231 91.8183C64.0076 102.606 59.4836 108.199 55.3574 112.4" stroke="white" stroke-width="4" stroke-miterlimit="10" stroke-linecap="round" stroke-linejoin="round"/>
<path d="M69.6006 109.914C79.0711 101.214 84.5149 92.2157 84.5149 82.5712C84.5149 68.3777 77.1571 56.844 67.612 51.9969C70.7689 58.1117 69.0289 63.5057 65.3003 67.1349C61.5469 70.7889 48.1737 71.6092 47.5274 61.7409C46.9557 52.842 54.2886 53.538 56.9731 38.1017C59.6577 22.6903 46.0111 8.04946 33.3589 3.02832C43.426 11.8277 40.1449 27.3883 22.3471 45.2855C10.3909 57.3163 2.46143 65.6435 2.46143 80.0855C2.46143 90.6497 11.7829 105.564 19.8614 109.839" stroke="white" stroke-width="4" stroke-miterlimit="10" stroke-linecap="round" stroke-linejoin="round"/>
</g>
<defs>
<clipPath id="clip0">
<rect width="87" height="114.343" fill="white" transform="translate(0 0.542969)"/>
</clipPath>
</defs>
</svg>
