<svg width="124" height="118" viewBox="0 0 124 118" fill="none" xmlns="http://www.w3.org/2000/svg">
<g clip-path="url(#clip0)">
<path d="M34.5498 38.4688V115.489" stroke="white" stroke-width="4.2608" stroke-miterlimit="10" stroke-linecap="round" stroke-linejoin="round"/>
<path d="M34.5498 2.58887V27.2889" stroke="white" stroke-width="4.2608" stroke-miterlimit="10" stroke-linecap="round" stroke-linejoin="round"/>
<path d="M97.39 115.528H16.75" stroke="white" stroke-width="4.2608" stroke-miterlimit="10" stroke-linecap="round" stroke-linejoin="round"/>
<path d="M20.9299 24.6787H2.12988V41.1087H20.9299V24.6787Z" stroke="white" stroke-width="4.2608" stroke-miterlimit="10" stroke-linecap="round" stroke-linejoin="round"/>
<path d="M21.3098 38.3591H121.8L111.85 27.5391H21.3098" stroke="white" stroke-width="4.2608" stroke-miterlimit="10" stroke-linecap="round" stroke-linejoin="round"/>
<path d="M49.81 27.2388L34.7 2.54883" stroke="white" stroke-width="4.2608" stroke-miterlimit="10" stroke-linecap="round" stroke-linejoin="round"/>
<path d="M99.32 27.2388L34.55 2.25879L5.75 24.1888" stroke="white" stroke-width="4.2608" stroke-miterlimit="10" stroke-linecap="round" stroke-linejoin="round"/>
<path d="M35.1199 43.0586L49.3199 55.3186" stroke="white" stroke-width="4.2608" stroke-miterlimit="10" stroke-linecap="round" stroke-linejoin="round"/>
<path d="M35.1199 68.6789L49.3199 56.4189" stroke="white" stroke-width="4.2608" stroke-miterlimit="10" stroke-linecap="round" stroke-linejoin="round"/>
<path d="M87.3398 45.6484L91.0198 68.5484" stroke="white" stroke-width="4.2608" stroke-miterlimit="10" stroke-linecap="round" stroke-linejoin="round"/>
<path d="M103 45.6484L99.3198 68.5484" stroke="white" stroke-width="4.2608" stroke-miterlimit="10" stroke-linecap="round" stroke-linejoin="round"/>
<path d="M94.9899 79.6387V85.3387C98.0599 85.3387 100.55 87.8287 100.55 90.8987C100.55 93.9687 98.0599 96.4587 94.9899 96.4587C91.9199 96.4587 89.4299 93.9687 89.4299 90.8987" stroke="white" stroke-width="4.2608" stroke-miterlimit="10" stroke-linecap="round" stroke-linejoin="round"/>
<path d="M99.84 79.4186H90.35L88.74 68.5986H101.6L99.84 79.4186Z" stroke="white" stroke-width="4.2608" stroke-miterlimit="10" stroke-linecap="round" stroke-linejoin="round"/>
<path d="M49.8499 38.4688V115.489" stroke="white" stroke-width="4.2608" stroke-miterlimit="10" stroke-linecap="round" stroke-linejoin="round"/>
<path d="M35.1199 70.5684L49.3199 82.8284" stroke="white" stroke-width="4.2608" stroke-miterlimit="10" stroke-linecap="round" stroke-linejoin="round"/>
<path d="M35.1199 96.1887L49.3199 83.9287" stroke="white" stroke-width="4.2608" stroke-miterlimit="10" stroke-linecap="round" stroke-linejoin="round"/>
<path d="M35.1199 98.2393L49.3199 110.499" stroke="white" stroke-width="4.2608" stroke-miterlimit="10" stroke-linecap="round" stroke-linejoin="round"/>
</g>
<defs>
<clipPath id="clip0">
<rect width="123.93" height="117.53" fill="white" transform="translate(0 0.128906)"/>
</clipPath>
</defs>
</svg>
