<svg width="136" height="91" viewBox="0 0 136 91" fill="none" xmlns="http://www.w3.org/2000/svg">
<path d="M62.1407 29.2202H17.1322C13.6591 29.2202 10.8274 32.0587 10.8274 35.5401V51.2856C10.8274 54.767 13.6591 57.6055 17.1322 57.6055H62.1407C65.6221 57.6055 68.4456 54.767 68.4456 51.2856V35.5401C68.4456 32.0587 65.6138 29.2202 62.1407 29.2202ZM64.2812 51.2856C64.2812 52.4711 63.3234 53.4312 62.1407 53.4312H17.1322C15.9495 53.4312 14.9917 52.4711 14.9917 51.2856V35.5401C14.9917 34.3546 15.9495 33.3945 17.1322 33.3945H62.1407C63.3234 33.3945 64.2812 34.3546 64.2812 35.5401V51.2856ZM132.444 21.4142C130.212 20.1452 127.563 20.1786 125.364 21.5061L99.9449 36.8007V31.7415C99.9449 23.9105 93.59 17.5321 85.7693 17.5321H67.3795L55.4111 0.868257C55.0196 0.325596 54.3867 0 53.7204 0H6.24655C5.09719 0 4.16437 0.935046 4.16437 2.08716C4.16437 3.23927 5.09719 4.17431 6.24655 4.17431H52.6543L62.249 17.5321H14.1755C6.35483 17.5321 0 23.9021 0 31.7415V76.7906C0 84.63 6.35483 91 14.1755 91H85.7693C93.5817 91 99.9449 84.63 99.9449 76.7906V72.1822L125.356 87.4769C126.48 88.1531 127.73 88.4954 128.971 88.4954C130.153 88.4954 131.344 88.1865 132.435 87.5687C134.667 86.2997 136 84.0122 136 81.4325V27.5505C136.008 24.9791 134.676 22.6832 132.444 21.4142ZM95.7805 76.7906C95.7805 82.3258 91.2913 86.8257 85.7693 86.8257H14.1755C8.65356 86.8257 4.16437 82.3258 4.16437 76.7906V31.7415C4.16437 26.2063 8.65356 21.7064 14.1755 21.7064H65.8137C65.9969 21.7565 66.1802 21.7899 66.3717 21.7899C66.5633 21.7899 66.7548 21.7565 66.9464 21.7064H85.7777C91.2996 21.7064 95.7888 26.2063 95.7888 31.7415V40.4908V68.5005V76.7906H95.7805ZM131.844 81.4408C131.844 82.4928 131.303 83.4278 130.386 83.9454C129.479 84.463 128.396 84.4463 127.496 83.912L99.9449 67.315V41.6763L127.505 25.0876C128.404 24.545 129.487 24.5366 130.395 25.0542C131.303 25.5718 131.852 26.5069 131.852 27.5588V81.4408H131.844ZM75.3751 39.656C73.5344 39.656 72.0436 38.1616 72.0436 36.3165C72.0436 34.4715 73.5344 32.9771 75.3751 32.9771C77.2157 32.9771 78.7066 34.4715 78.7066 36.3165C78.7066 38.1616 77.2157 39.656 75.3751 39.656ZM85.786 40.0734C83.9454 40.0734 82.4545 38.579 82.4545 36.7339C82.4545 34.8889 83.9454 33.3945 85.786 33.3945C87.6267 33.3945 89.1175 34.8889 89.1175 36.7339C89.1175 38.579 87.6267 40.0734 85.786 40.0734Z" fill="white"/>
</svg>
