<svg width="101" height="85" viewBox="0 0 101 85" fill="none" xmlns="http://www.w3.org/2000/svg">
<g clip-path="url(#clip0)">
<path d="M100.877 30.5254L92.3857 5.04353C91.4042 2.10639 88.6634 0.128906 85.5663 0.128906H72.6109H72.6036H43.9156C43.901 0.128906 43.8937 0.128906 43.8792 0.128906H15.7873C12.6902 0.128906 9.94939 2.10639 8.95338 5.07988L0.919854 30.5618C0.919854 30.569 0.919854 30.569 0.919854 30.5763C0.905314 30.6345 0.890773 30.6926 0.876233 30.7508C0.868963 30.7726 0.861693 30.7944 0.861693 30.8162C0.854423 30.8671 0.847153 30.9107 0.839882 30.9616C0.832612 30.9907 0.832612 31.0198 0.825342 31.0561C0.825342 31.0852 0.825342 31.1216 0.818072 31.1507C0.803532 31.3542 0.818072 31.5578 0.854423 31.7468C0.905314 32.0158 1.0071 32.2775 1.1525 32.5174C1.16704 32.5465 1.18158 32.5756 1.20339 32.5974C1.21793 32.6192 1.23974 32.641 1.25428 32.6701C1.28336 32.7137 1.31244 32.7574 1.34879 32.7937C1.36333 32.8083 1.3706 32.8228 1.38514 32.8373C1.42876 32.8882 1.46512 32.9318 1.50874 32.9755L1.51601 32.9827C2.97731 34.444 5.26014 36.058 8.00099 37.0395V76.8218C8.00099 80.784 11.2289 84.0119 15.1912 84.0119H87.0857C91.048 84.0119 94.2759 80.784 94.2759 76.8218V37.4393C96.6896 36.6687 98.7834 35.1202 100.528 32.801C100.87 32.3502 101.023 31.8122 101.008 31.2815C101.001 31.0343 100.964 30.7726 100.877 30.5254ZM41.3419 4.91994L39.219 30.3582C37.8741 31.9431 36.3037 32.8373 34.4425 33.0845C30.8293 33.5643 27.0052 31.5069 25.1004 30.271L31.44 4.92721H41.3419V4.91994ZM46.1475 4.91994H55.9258C55.9258 4.99264 55.9258 5.06534 55.9331 5.13804L58.245 30.5327C56.9364 32.0158 55.4097 32.8519 53.6139 33.0845C49.848 33.5716 45.864 31.3251 44.0464 30.1256L46.1475 4.91994ZM63.007 29.9802L60.7314 4.91994H70.8297L77.271 30.6854C75.9915 32.0667 74.5156 32.8591 72.7853 33.0772C68.874 33.5862 64.7082 31.1288 63.007 29.9802ZM13.5118 6.56299C13.8389 5.58152 14.7477 4.92721 15.7873 4.92721H26.4963L20.2221 30.0311C14.1733 35.6291 8.35722 32.3502 5.96534 30.5036L13.5118 6.56299ZM87.0857 79.2136H15.1839C13.8607 79.2136 12.7847 78.1377 12.7847 76.8145V37.9482C12.8938 37.9482 12.9956 37.9555 13.1046 37.9555C16.1145 37.9555 19.3715 36.974 22.5631 34.335C24.7878 35.7527 28.9318 37.9337 33.3884 37.9337C33.9264 37.9337 34.4789 37.9046 35.0242 37.8319C37.6705 37.4975 39.9824 36.3634 41.9308 34.4586C44.4826 36.058 49.2664 38.4717 54.1956 37.8319C56.8419 37.4975 59.1538 36.3634 61.1022 34.4586C63.654 36.058 68.4451 38.4644 73.367 37.8319C75.9987 37.4975 78.3034 36.3779 80.2445 34.4877C82.2656 35.8036 85.6826 37.6138 89.4703 37.9337V76.8072C89.4776 78.1377 88.4016 79.2136 87.0857 79.2136ZM91.5133 33.1499C87.5874 33.6225 83.4943 30.9689 82.0112 29.8929L75.7661 4.92721H85.559C86.5914 4.92721 87.5074 5.58152 87.8346 6.56299L95.9262 30.8308C94.654 32.1903 93.1999 32.9537 91.5133 33.1499Z" fill="white"/>
<path d="M48.7351 43.2627H22.3735C21.0503 43.2627 19.9744 44.3387 19.9744 45.6618V60.0422C19.9744 61.3654 21.0503 62.4414 22.3735 62.4414H48.7351C50.0583 62.4414 51.1342 61.3654 51.1342 60.0422V45.6618C51.1342 44.3387 50.0583 43.2627 48.7351 43.2627ZM46.3432 57.6431H24.7727V48.061H46.3432V57.6431Z" fill="white"/>
<path d="M79.8948 43.2627H65.5144C64.1912 43.2627 63.1152 44.3387 63.1152 45.6618V72.0234C63.1152 73.3466 64.1839 74.4226 65.5144 74.4226H79.8948C81.2179 74.4226 82.2939 73.3466 82.2939 72.0234V45.6618C82.2866 44.3387 81.2179 43.2627 79.8948 43.2627ZM77.4956 69.6243H67.9135V48.061H77.5029V69.6243H77.4956Z" fill="white"/>
</g>
<defs>
<clipPath id="clip0">
<rect width="100.19" height="83.8758" fill="white" transform="translate(0.810059 0.128906)"/>
</clipPath>
</defs>
</svg>
