<svg width="115" height="122" viewBox="0 0 115 122" fill="none" xmlns="http://www.w3.org/2000/svg">
<g clip-path="url(#clip0)">
<path d="M67.6999 12.5085C68.1799 12.8685 68.7499 13.0485 69.3299 13.0485C69.4699 13.0485 69.5999 13.0385 69.7399 13.0185C71.2399 12.7985 72.2799 11.3985 72.0499 9.89851C71.8299 8.39851 70.4299 7.35851 68.9299 7.58851C68.1999 7.69851 67.5599 8.07851 67.1299 8.66851C66.6899 9.25851 66.5099 9.97851 66.6199 10.7085C66.7299 11.4285 67.1099 12.0685 67.6999 12.5085Z" fill="white"/>
<path d="M61.32 19.0589C61.45 19.0589 61.59 19.0489 61.72 19.0289C63.22 18.8089 64.26 17.4089 64.03 15.9089C63.92 15.1789 63.54 14.5389 62.95 14.1089C62.36 13.6689 61.64 13.4889 60.91 13.5989C59.41 13.8189 58.37 15.2189 58.6 16.7189C58.81 18.0689 59.98 19.0589 61.32 19.0589Z" fill="white"/>
<path d="M62.3 12.1791C62.43 12.1791 62.57 12.1691 62.7 12.1491C63.43 12.0391 64.07 11.6591 64.5 11.0691C64.94 10.4791 65.12 9.75905 65.01 9.02905C64.8 7.52905 63.4 6.48905 61.9 6.70905C60.4 6.92905 59.36 8.32905 59.59 9.82905C59.79 11.1891 60.97 12.1791 62.3 12.1791Z" fill="white"/>
<path d="M66.8899 18.9291C67.3399 19.2591 67.8699 19.4391 68.4099 19.4391C68.5399 19.4391 68.6599 19.4291 68.7899 19.4091C69.4699 19.3091 70.0599 18.9491 70.4699 18.3991C70.8799 17.8491 71.0499 17.1691 70.9499 16.4991C70.7399 15.0991 69.4399 14.1291 68.0399 14.3391C66.6399 14.5491 65.6699 15.8491 65.8799 17.2491C65.9799 17.9191 66.3399 18.5191 66.8899 18.9291Z" fill="white"/>
<path d="M73.72 16.2488C74.17 16.5788 74.7 16.7588 75.24 16.7588C75.37 16.7588 75.49 16.7488 75.62 16.7288C76.3 16.6288 76.9 16.2688 77.3 15.7188C77.71 15.1688 77.88 14.4888 77.78 13.8188C77.68 13.1388 77.32 12.5488 76.77 12.1388C76.22 11.7288 75.54 11.5588 74.87 11.6588C73.47 11.8688 72.5 13.1688 72.71 14.5688C72.82 15.2388 73.17 15.8388 73.72 16.2488Z" fill="white"/>
<path d="M76.6999 17.6891C76.0199 17.7891 75.4299 18.1491 75.0199 18.6991C74.6099 19.2491 74.4399 19.9291 74.5399 20.5991C74.6399 21.2791 74.9999 21.8691 75.5499 22.2791C75.9999 22.6091 76.5299 22.7891 77.0699 22.7891C77.1999 22.7891 77.3199 22.7791 77.4499 22.7591C78.1299 22.6591 78.7199 22.2991 79.1299 21.7491C79.5399 21.1991 79.7099 20.5191 79.6099 19.8491C79.5099 19.1691 79.1499 18.5791 78.5999 18.1691C78.0499 17.7591 77.3799 17.5891 76.6999 17.6891Z" fill="white"/>
<path d="M83.4099 24.2686C83.5299 24.2686 83.6599 24.2586 83.7899 24.2386C84.4699 24.1386 85.0599 23.7786 85.4699 23.2286C85.8799 22.6786 86.0499 21.9986 85.9499 21.3286C85.8499 20.6486 85.4899 20.0486 84.9399 19.6486C84.3899 19.2386 83.7199 19.0686 83.0399 19.1686C81.6399 19.3686 80.6699 20.6786 80.8799 22.0786C81.0699 23.3486 82.1599 24.2686 83.4099 24.2686Z" fill="white"/>
<path d="M114.7 40.8389V30.7089C114.7 26.6989 111.44 23.4489 107.44 23.4489H103.98C101.67 23.4489 99.44 23.4889 97.28 23.5789L87.4 11.7889C81.19 4.37891 72.09 0.128906 62.42 0.128906C52.75 0.128906 43.65 4.37891 37.43 11.7889L13.05 40.8689H7.26C3.26 40.8689 0 44.1289 0 48.1389V58.2789C0 62.2889 3.26 65.5389 7.26 65.5389H7.44C7.34 79.6889 7.51 93.1289 10.42 105.509C8.41 105.649 6.15 105.819 4.44 107.619C2.46 109.699 1.48 112.329 1.75 114.819C1.98 116.959 3.09 118.809 4.88 120.029C8.71 122.639 14.56 121.689 18.2 117.859C18.56 117.479 18.91 117.169 19.25 116.869C19.89 116.299 20.58 115.679 21.1 114.769C32.7 117.389 44.88 118.719 57.35 118.719C69.82 118.719 82 117.389 93.6 114.769C94.12 115.689 94.81 116.299 95.45 116.869C95.79 117.169 96.14 117.479 96.5 117.859C98.75 120.229 101.86 121.499 104.8 121.499C106.61 121.499 108.36 121.019 109.81 120.029C111.6 118.809 112.71 116.959 112.94 114.819C113.21 112.319 112.22 109.699 110.25 107.619C108.55 105.829 106.3 105.649 104.29 105.509C108.59 88.5789 110.86 69.6889 110.86 50.6889C110.86 49.5389 110.85 48.3989 110.83 47.2489C113.13 46.0289 114.7 43.6189 114.7 40.8389ZM110.31 34.3389V40.8489C110.31 41.8289 109.82 42.6989 109.07 43.2089C108.91 43.3189 108.74 43.4089 108.57 43.4889C108.22 43.6389 107.84 43.7189 107.45 43.7189H106.61H106.38H104.13H103.99C97.03 43.7189 91.02 43.7189 84.64 45.7189C82.85 46.2789 81.04 46.9989 79.17 47.9189C77.88 48.5489 76.57 49.2789 75.21 50.1189C74.7 50.4289 74.19 50.7589 73.67 51.1089C60.43 59.9389 45.42 61.1589 31.17 61.1589H19.45H11.87H11.86H9.68H9.67H7.48H7.26C5.68 61.1589 4.39 59.8689 4.39 58.2889V48.1389C4.39 46.5589 5.68 45.2689 7.26 45.2689H9.36H12.23H15.1H31.17C37.65 45.2689 44.27 45.2689 50.85 43.8089C55.56 42.7589 60.25 40.9689 64.86 37.8889C70.57 34.0789 75.91 31.6689 81.48 30.1589C85.85 28.9789 90.37 28.3489 95.32 28.0589C96.22 28.0089 97.14 27.9589 98.08 27.9289C99 27.8989 99.93 27.8689 100.89 27.8589C101.9 27.8389 102.93 27.8389 103.99 27.8389H107.45C107.49 27.8389 107.54 27.8389 107.58 27.8489C108.58 27.8989 109.44 28.4489 109.92 29.2589C110.17 29.6889 110.32 30.1789 110.32 30.7089V34.3389H110.31ZM104.17 81.3689C104.17 87.6089 97.58 92.6889 89.47 92.6889H79V97.0789H89.48C94.57 97.0789 99.2 95.4289 102.62 92.7489C101.71 97.5789 100.64 102.289 99.42 106.839C99.26 107.419 99.35 108.049 99.67 108.559C99.99 109.079 100.51 109.439 101.1 109.559C102.08 109.759 103.06 109.829 103.92 109.889C105.54 109.999 106.57 110.109 107.08 110.649C108.17 111.799 108.72 113.149 108.59 114.359C108.5 115.209 108.07 115.919 107.35 116.409C105.32 117.789 101.82 117.079 99.69 114.839C99.2 114.319 98.74 113.919 98.37 113.589C97.47 112.789 97.31 112.629 97.22 111.899C97.14 111.279 96.8 110.719 96.29 110.369C95.92 110.109 95.48 109.979 95.04 109.979C94.87 109.979 94.7 109.999 94.53 110.039C82.68 112.879 70.17 114.319 57.35 114.319C44.53 114.319 32.02 112.879 20.17 110.039C19.56 109.889 18.92 110.009 18.41 110.369C17.9 110.729 17.56 111.279 17.48 111.899C17.39 112.629 17.24 112.779 16.33 113.579C15.96 113.909 15.5 114.319 15.01 114.829C12.89 117.059 9.38 117.779 7.35 116.399C6.63 115.909 6.2 115.199 6.11 114.349C5.98 113.139 6.53 111.779 7.62 110.639C8.13 110.099 9.15 109.999 10.78 109.879C11.64 109.819 12.62 109.749 13.6 109.549C14.19 109.429 14.71 109.069 15.03 108.549C15.35 108.029 15.44 107.409 15.28 106.829C13.38 99.7689 12.49 92.2489 12.1 84.3789C14.94 87.2089 18.86 88.9689 23.18 88.9689H37.04V86.7689V84.5689H35.53H23.19C16.95 84.5689 11.87 79.4889 11.87 73.2489V65.5289H22.47H31.17C46.11 65.5289 61.89 64.2189 76.11 54.7389C79.4 52.5489 82.37 51.0789 85.27 50.0989C91.17 48.0989 96.75 48.0989 103.98 48.0989H106H106.46C106.47 48.9589 106.48 49.8189 106.48 50.6889C106.48 61.0589 105.79 71.3789 104.45 81.3589H104.17V81.3689ZM84.04 14.6089L91.86 23.9289C81.4 24.9089 72.33 27.6189 62.43 34.2289C52.47 40.8689 41.64 40.8689 31.18 40.8689H18.78L40.8 14.6089C46.17 8.19891 54.05 4.51891 62.42 4.51891C70.78 4.51891 78.66 8.19891 84.04 14.6089Z" fill="white"/>
</g>
<defs>
<clipPath id="clip0">
<rect width="114.7" height="121.38" fill="white" transform="translate(0 0.128906)"/>
</clipPath>
</defs>
</svg>
