<svg width="73" height="127" viewBox="0 0 73 127" fill="none" xmlns="http://www.w3.org/2000/svg">
<g clip-path="url(#clip0)">
<path d="M62.93 30.5H57.5V10.22C57.5 4.59 52.91 0 47.28 0H25.72C20.09 0 15.5 4.59 15.5 10.22V30.5H10.07C4.52 30.5 0 35.02 0 40.57V105.44C0 110.99 4.52 115.51 10.07 115.51H62.94C68.49 115.51 73.01 110.99 73.01 105.44V40.57C73 35.02 68.48 30.5 62.93 30.5ZM20.5 10.22C20.5 7.34 22.84 5 25.72 5H47.27C50.15 5 52.49 7.34 52.49 10.22V30H20.49V10.22H20.5ZM68 105.43C68 108.22 65.73 110.5 62.93 110.5H10.07C7.28 110.5 5 108.23 5 105.43V40.57C5 37.78 7.27 35.5 10.07 35.5H62.94C65.73 35.5 68.01 37.77 68.01 40.57V105.43H68Z" fill="white"/>
<path d="M14.5 44C13.12 44 12 45.12 12 46.5V101.5C12 102.88 13.12 104 14.5 104C15.88 104 17 102.88 17 101.5V46.5C17 45.12 15.88 44 14.5 44Z" fill="white"/>
<path d="M36.5 44C35.12 44 34 45.12 34 46.5V101.5C34 102.88 35.12 104 36.5 104C37.88 104 39 102.88 39 101.5V46.5C39 45.12 37.88 44 36.5 44Z" fill="white"/>
<path d="M58.5 44C57.12 44 56 45.12 56 46.5V101.5C56 102.88 57.12 104 58.5 104C59.88 104 61 102.88 61 101.5V46.5C61 45.12 59.88 44 58.5 44Z" fill="white"/>
<path d="M17.9 118H17.1C15.66 118 14.5 119.17 14.5 120.6V124.4C14.5 125.84 15.67 127 17.1 127H17.9C19.34 127 20.5 125.83 20.5 124.4V120.6C20.5 119.17 19.33 118 17.9 118Z" fill="white"/>
<path d="M55.9 118H55.1C53.66 118 52.5 119.17 52.5 120.6V124.4C52.5 125.84 53.67 127 55.1 127H55.9C57.34 127 58.5 125.83 58.5 124.4V120.6C58.5 119.17 57.33 118 55.9 118Z" fill="white"/>
</g>
<defs>
<clipPath id="clip0">
<rect width="73" height="127" fill="white"/>
</clipPath>
</defs>
</svg>
