<svg width="129" height="154" viewBox="0 0 129 154" fill="none" xmlns="http://www.w3.org/2000/svg">
<g clip-path="url(#clip0)">
<path d="M52.96 136.43C52.9 136.47 46.58 140.29 29.25 134.22C9.39005 127.27 1.84005 132.06 1.04005 132.62C-0.0799546 133.42 -0.339955 134.98 0.460045 136.11C1.26005 137.23 2.82005 137.49 3.95005 136.69C4.01005 136.65 10.39 132.91 27.6 138.94C35.76 141.8 41.84 142.67 46.23 142.67C52.52 142.67 55.34 140.87 55.81 140.54C56.93 139.74 57.22 138.16 56.42 137.03C55.62 135.91 54.09 135.63 52.96 136.43Z" fill="white"/>
<path d="M52.96 145.07C52.9 145.11 46.58 148.93 29.25 142.86C9.39005 135.91 1.84005 140.7 1.04005 141.26C-0.0799546 142.06 -0.339955 143.62 0.460045 144.75C1.26005 145.87 2.82005 146.13 3.95005 145.33C4.01005 145.29 10.39 141.55 27.6 147.58C35.76 150.44 41.84 151.31 46.23 151.31C52.52 151.31 55.34 149.51 55.81 149.18C56.93 148.38 57.22 146.8 56.42 145.67C55.62 144.55 54.09 144.27 52.96 145.07Z" fill="white"/>
<path d="M101.55 27.04V37C101.55 38.1 102.45 39 103.55 39H126.2C127.3 39 128.2 38.1 128.2 37V27.04C128.2 26.35 127.84 25.71 127.26 25.34L92.4301 3.57V2C92.4301 0.9 91.5301 0 90.4301 0H80.8901C79.7901 0 78.8901 0.9 78.8901 2V3.17L36.9201 30.32C36.1701 30.8 35.8401 31.72 36.0901 32.57C36.3401 33.42 37.1201 34 38.0101 34H49.7101C50.0701 34 50.4201 33.9 50.7301 33.72L78.8901 16.95V35.77H12.3301C11.2301 35.77 10.3301 36.67 10.3301 37.77V52.36C10.3301 53.46 11.2301 54.36 12.3301 54.36H14.5001V70.35H11.7301C10.6301 70.35 9.73009 71.25 9.73009 72.35V89.04C9.73009 89.49 9.88009 89.9 10.1301 90.23C9.88009 90.56 9.73009 90.97 9.73009 91.42V101.28C9.73009 101.94 10.0601 102.56 10.6001 102.93C10.8701 103.11 11.1701 103.2 11.4801 103.24C10.0101 103.52 8.65009 103.66 7.55009 103.73C6.15009 103.81 4.91009 104.5 4.14009 105.63C3.39009 106.72 3.20009 108.06 3.62009 109.32L8.09009 122.74C8.63009 124.36 10.1201 125.48 11.8101 125.54C15.3501 125.66 22.4101 126.42 29.9101 130.17C34.6401 132.53 40.0501 133.76 45.9901 133.82C46.0101 133.82 46.0301 133.82 46.0501 133.82C48.4501 133.82 50.5701 132.3 51.3301 130.01L58.2101 109.31C58.6301 108.06 58.4401 106.72 57.7001 105.63C56.9301 104.49 55.6801 103.8 54.2901 103.72C52.8601 103.64 51.0001 103.43 49.0301 102.94C49.1001 102.9 49.1701 102.88 49.2301 102.84C49.7601 102.46 50.0801 101.86 50.0801 101.21V91.41C50.0801 90.96 49.9301 90.55 49.6801 90.22C49.9301 89.89 50.0801 89.48 50.0801 89.03V72.35C50.0801 71.25 49.1801 70.35 48.0801 70.35H31.0601C30.6401 70.35 30.2501 70.48 29.9201 70.71C29.6001 70.49 29.2101 70.35 28.7801 70.35H25.6601V54.36H51.4701V64.64C51.4701 70.65 56.3601 75.55 62.3801 75.55H67.2201C68.3201 75.55 69.2201 74.65 69.2201 73.55V54.36H71.7401V98.97H64.2001C63.1001 98.97 62.2001 99.87 62.2001 100.97V115.28C62.2001 116.38 63.1001 117.28 64.2001 117.28H72.5501C73.6501 117.28 74.5501 116.38 74.5501 115.28V112.51H92.0101V115.28C92.0101 116.38 92.9101 117.28 94.0101 117.28H102.36C103.46 117.28 104.36 116.38 104.36 115.28V100.97C104.36 99.87 103.46 98.97 102.36 98.97H94.8201V54.36H126.08C127.18 54.36 128.08 53.46 128.08 52.36V43.14C128.08 42.04 127.18 41.14 126.08 41.14H92.4301V16.6L106.05 25.03H103.54C102.44 25.04 101.55 25.93 101.55 27.04ZM13.7401 93.42H26.7901V95.5C22.1301 95.89 17.4801 97.14 13.7401 98.42V93.42ZM46.1001 93.42V98.43C42.3001 97.21 37.6101 95.99 33.0501 95.55V93.41H46.1001V93.42ZM54.4101 107.89C54.4601 107.96 54.4501 108.01 54.4301 108.05C54.4301 108.05 54.4301 108.05 54.4301 108.06L47.5501 128.76C47.3401 129.4 46.7401 129.83 46.0601 129.83C46.0501 129.83 46.0501 129.83 46.0401 129.83C40.7101 129.78 35.8901 128.69 31.7001 126.6C23.9301 122.72 16.6701 121.71 11.8801 121.48L7.42009 108.06C7.41009 108.03 7.39009 107.97 7.45009 107.88C7.49009 107.83 7.58009 107.73 7.78009 107.72C10.3801 107.57 14.2501 107.05 17.9401 105.43C23.0901 103.19 29.9901 102.48 30.8001 102.4H30.9201C30.9801 102.41 31.0401 102.41 31.1101 102.41C35.2001 102.47 39.3901 103.46 43.9101 105.43C47.6101 107.05 51.4801 107.57 54.0801 107.72C54.2901 107.74 54.3801 107.84 54.4101 107.89ZM33.0601 74.35H46.1001V87.04H33.0601V74.35ZM105.55 29.04H113.09C113.98 29.04 114.77 28.45 115.01 27.59C115.25 26.73 114.9 25.81 114.14 25.34L91.4801 11.31C90.8601 10.93 90.0901 10.91 89.4501 11.26C88.8201 11.61 88.4201 12.28 88.4201 13.01V43.13C88.4201 44.23 89.3201 45.13 90.4201 45.13H124.06V50.35H92.8101C91.7101 50.35 90.8101 51.25 90.8101 52.35V100.96C90.8101 102.06 91.7101 102.96 92.8101 102.96H100.35V113.27H96.0001V110.5C96.0001 109.4 95.1001 108.5 94.0001 108.5H72.5501C71.4501 108.5 70.5501 109.4 70.5501 110.5V113.27H66.2001V102.96H73.7401C74.8401 102.96 75.7401 102.06 75.7401 100.96V52.36C75.7401 51.26 74.8401 50.36 73.7401 50.36H67.2201C66.1201 50.36 65.2201 51.26 65.2201 52.36V71.54H62.3801C58.5701 71.54 55.4701 68.44 55.4701 64.63V52.36C55.4701 51.26 54.5701 50.36 53.4701 50.36H23.6601C22.5601 50.36 21.6601 51.26 21.6601 52.36V72.35C21.6601 73.45 22.5601 74.35 23.6601 74.35H26.7801V87.04H13.7401V74.35H16.5101C17.6101 74.35 18.5101 73.45 18.5101 72.35V52.36C18.5101 51.26 17.6101 50.36 16.5101 50.36H14.3401V39.77H80.9001C82.0001 39.77 82.9001 38.87 82.9001 37.77V13.43C82.9001 12.71 82.5101 12.05 81.8901 11.69C81.2701 11.33 80.5001 11.34 79.8801 11.71L49.1501 30H44.7701L81.9701 5.94C82.5401 5.57 82.8801 4.94 82.8801 4.26V4H88.4201V4.68C88.4201 5.37 88.7801 6.01 89.3601 6.38L124.19 28.15V35H105.54V29.04H105.55Z" fill="white"/>
<path d="M102.35 119H64.1999C63.0999 119 62.2 119.9 62.2 121V152C62.2 153.1 63.0999 154 64.1999 154H102.35C103.45 154 104.35 153.1 104.35 152V121C104.35 119.9 103.46 119 102.35 119ZM100.35 150H66.1999V123H100.35V150Z" fill="white"/>
</g>
<defs>
<clipPath id="clip0">
<rect width="128.2" height="154" fill="white"/>
</clipPath>
</defs>
</svg>
