<svg width="93" height="125" viewBox="0 0 93 125" fill="none" xmlns="http://www.w3.org/2000/svg">
<path d="M89.67 119.358H85.14C84.33 115.398 82.2001 111.828 79.0601 109.319C75.7001 106.654 71.5 105.389 67.33 105.739C64.38 101.265 60.02 98.0656 54.9 96.6769C52.38 95.9877 49.83 95.782 47.35 96.0392C47.91 69.3568 55.98 48.9387 72.04 33.7049C73.03 32.7689 73.0901 31.1848 72.1801 30.1665C71.2701 29.1481 69.73 29.0864 68.74 30.0225C60.31 38.0251 53.96 47.3547 49.6 58.114C45.97 53.7629 44.18 47.8587 44.75 41.7281C45.44 34.3735 49.3401 28.0681 55.1801 24.8485C58.7201 22.8839 62.2 21.1969 65.53 19.5614C72.49 16.167 79.12 12.9165 84.76 8.03061C86.56 33.7152 82.92 50.2348 73.65 58.4432C69.41 62.2799 64.5001 64.224 60.0601 63.8434C58.6001 63.7611 57.5499 64.7794 57.4399 66.1475C57.3399 67.5258 58.3401 68.7294 59.6801 68.8425C60.1601 68.8837 60.65 68.8939 61.14 68.8939C66.53 68.8939 72.07 66.5487 76.86 62.2182C88 52.3435 92.0399 32.7586 89.1899 2.35268C89.0999 1.36521 88.45 0.532009 87.54 0.213137C86.63 -0.0954478 85.62 0.161742 84.97 0.89206C79.28 7.29006 71.95 10.8696 63.45 15.015C60.04 16.6813 56.49 18.4094 52.88 20.4152C45.6 24.4165 40.76 32.2031 39.91 41.2241C39.12 49.6691 42.0099 57.7746 47.6899 63.2777C45.3499 70.3134 43.82 77.9355 43.04 86.1541C41.84 83.49 40.48 81.011 38.97 78.6863C41.2 74.3764 41.44 69.0893 39.55 64.224C37.45 58.834 33.1501 54.9562 28.0601 53.8453C25.5901 53.2692 23.2199 52.8372 20.9399 52.4258C15.4299 51.428 10.67 50.564 6.59998 47.9513C5.77998 47.4267 4.72994 47.4473 3.93994 48.0027C3.13994 48.5582 2.74003 49.5559 2.91003 50.5331C6.24003 69.0071 11.74 79.643 20.2 83.994C22.5 85.177 25.03 85.8661 27.13 85.8661C28.47 85.8661 29.5699 84.7449 29.5699 83.3563C29.5699 81.9677 28.48 80.8465 27.13 80.8465C25.78 80.8465 24.01 80.3528 22.38 79.5093C16.2 76.3411 11.7099 68.1533 8.68994 54.555C12.2799 55.9437 16.11 56.6431 20.09 57.3631C22.3 57.7643 24.59 58.1758 27.01 58.7415C30.53 59.513 33.53 62.2593 35.02 66.0961C36.05 68.7396 36.19 71.5169 35.54 74.0267C32.92 70.8689 29.94 68.0916 26.59 65.6744C25.5 64.8823 23.97 65.1498 23.2 66.2915C22.43 67.423 22.7 68.9865 23.8 69.7785C32.51 76.0531 38.45 85.105 41.92 97.3764C41.26 97.6438 40.6 97.9421 39.97 98.2816C35.1 96.7283 29.78 97.2118 25.23 99.6599C20.69 102.098 17.28 106.315 15.74 111.335C12.61 113.197 9.98003 116.035 8.28003 119.348H3.18994C1.84994 119.348 0.75 120.469 0.75 121.857C0.75 123.246 1.83994 124.367 3.18994 124.367H51.91C53.25 124.367 54.35 123.246 54.35 121.857C54.35 120.469 53.26 119.348 51.91 119.348H14.0699C15.3799 117.64 17.04 116.231 18.9 115.274C19.53 114.945 19.99 114.359 20.17 113.649C21.2 109.473 23.8 106.089 27.49 104.104C31.15 102.129 35.48 101.861 39.36 103.353C40.04 103.62 40.81 103.548 41.45 103.167C45.12 100.946 49.4499 100.349 53.6899 101.501C58.0799 102.694 61.75 105.595 64.02 109.668C64.54 110.594 65.56 111.088 66.58 110.882C69.9 110.244 73.41 111.098 76.11 113.258C78.1 114.842 79.4901 116.951 80.1801 119.337H73.9301C72.5901 119.337 71.49 120.459 71.49 121.847C71.49 123.236 72.5801 124.357 73.9301 124.357H89.71C91.05 124.357 92.15 123.236 92.15 121.847C92.11 120.479 91.01 119.358 89.67 119.358Z" fill="white"/>
<path d="M63.17 119.358H62.59C61.25 119.358 60.45 120.48 60.45 121.868C60.45 123.257 61.8301 124.378 63.1801 124.378C64.5301 124.378 65.62 123.257 65.62 121.868C65.6 120.48 64.51 119.358 63.17 119.358Z" fill="white"/>
</svg>
