<svg width="115" height="115" viewBox="0 0 115 115" fill="none" xmlns="http://www.w3.org/2000/svg">
<g clip-path="url(#clip0)">
<path d="M98.8599 114.18H68.7799C67.0699 114.18 65.6799 112.79 65.6799 111.08V87.0495H48.8799V111.08C48.8799 112.79 47.4899 114.18 45.7799 114.18H15.6999C13.9899 114.18 12.5999 112.79 12.5999 111.08V59.1195C12.5999 57.4095 13.9899 56.0195 15.6999 56.0195C17.4099 56.0195 18.7999 57.4095 18.7999 59.1195V107.99H42.6899V83.9495C42.6899 82.2395 44.0799 80.8495 45.7899 80.8495H68.7899C70.4999 80.8495 71.8899 82.2395 71.8899 83.9495V107.98H95.7799V59.1195C95.7799 57.4095 97.1699 56.0195 98.8799 56.0195C100.59 56.0195 101.98 57.4095 101.98 59.1195V111.08C101.96 112.79 100.57 114.18 98.8599 114.18Z" fill="white"/>
<path d="M113.66 54.7793L59.9099 1.03934C58.6999 -0.170664 56.7399 -0.170664 55.5299 1.03934L26.2799 30.2893V25.1193C26.2799 23.4093 24.8899 23.3593 23.1799 23.3593C21.4699 23.3593 20.0799 23.4093 20.0799 25.1193V36.4793L0.909941 55.6593C-0.300059 56.8693 -0.300059 58.8293 0.909941 60.0393C1.50994 60.6393 2.30994 60.9493 3.09994 60.9493C3.88994 60.9493 4.67994 60.6493 5.28994 60.0393L57.7199 7.59934L109.27 59.1493C110.48 60.3593 112.44 60.3593 113.65 59.1493C114.87 57.9493 114.87 55.9893 113.66 54.7793Z" fill="white"/>
</g>
<defs>
<clipPath id="clip0">
<rect width="114.56" height="114.05" fill="white" transform="translate(0 0.128906)"/>
</clipPath>
</defs>
</svg>
