<svg width="91" height="123" viewBox="0 0 91 123" fill="none" xmlns="http://www.w3.org/2000/svg">
<path d="M80.28 14.7264H74.78H69.28C68.56 12.6485 67.24 10.8691 65.53 9.60385C63.82 8.33866 61.73 7.59804 59.47 7.59804H57.44H55.41C54.69 5.52023 53.37 3.74074 51.66 2.47554C49.95 1.21034 47.86 0.469727 45.6 0.469727C43.34 0.469727 41.24 1.21034 39.54 2.47554C37.83 3.74074 36.51 5.52023 35.79 7.59804H33.76H31.73C29.47 7.59804 27.37 8.33866 25.67 9.60385C23.97 10.8691 22.64 12.6485 21.92 14.7264H16.42H10.92C8.04998 14.7264 5.45001 15.9298 3.57001 17.8636C1.69001 19.7974 0.52002 22.4822 0.52002 25.424V68.4716V111.519C0.52002 114.471 1.69001 117.146 3.57001 119.08C5.45001 121.013 8.05998 122.217 10.92 122.217H45.61H80.3C83.17 122.217 85.77 121.013 87.65 119.08C89.53 117.146 90.7 114.461 90.7 111.519V68.4716V25.424C90.7 22.4719 89.53 19.7974 87.65 17.8636C85.77 15.9298 83.15 14.7264 80.28 14.7264ZM28.26 18.2957C28.26 17.3082 28.65 16.4236 29.28 15.7756C29.91 15.1275 30.78 14.7264 31.73 14.7264H35.2H38.67C39.63 14.7264 40.49 14.3252 41.12 13.6772C41.75 13.0292 42.14 12.1446 42.14 11.1571C42.14 10.1696 42.53 9.28498 43.16 8.63695C43.79 7.98892 44.66 7.58774 45.61 7.58774C46.56 7.58774 47.43 7.98892 48.06 8.63695C48.69 9.28498 49.08 10.1799 49.08 11.1571C49.08 12.1446 49.47 13.0292 50.1 13.6772C50.73 14.3252 51.59 14.7264 52.55 14.7264H56H59.47C60.43 14.7264 61.29 15.1275 61.92 15.7756C62.55 16.4236 62.94 17.3185 62.94 18.2957V20.0752V21.8547H45.6H28.26V20.0752V18.2957ZM83.75 111.53C83.75 112.517 83.36 113.402 82.73 114.05C82.1 114.698 81.23 115.099 80.28 115.099H45.6H10.91C9.94997 115.099 9.09002 114.698 8.46002 114.05C7.83002 113.402 7.44 112.507 7.44 111.53V68.4819V25.424C7.44 24.4365 7.83002 23.5519 8.46002 22.9039C9.09002 22.2558 9.95997 21.8547 10.91 21.8547H16.11H21.31V23.6342V25.4137C21.31 26.4012 21.7 27.2858 22.33 27.9338C22.96 28.5819 23.82 28.983 24.78 28.983H45.59H66.4C67.36 28.983 68.22 28.5819 68.85 27.9338C69.48 27.2858 69.87 26.4012 69.87 25.4137V23.6342V21.8547H75.07H80.27C81.23 21.8547 82.09 22.2558 82.72 22.9039C83.35 23.5519 83.74 24.4468 83.74 25.424V68.4716V111.53H83.75Z" fill="white"/>
<path d="M80.28 122.484H10.91C8.06997 122.484 5.40001 121.342 3.39001 119.275C1.38001 117.207 0.27002 114.451 0.27002 111.54V25.4239C0.27002 22.5026 1.38001 19.7562 3.39001 17.6886C5.40001 15.6211 8.07997 14.4794 10.91 14.4794H21.74C22.48 12.4324 23.78 10.6838 25.51 9.39799C27.33 8.0505 29.47 7.34076 31.71 7.34076H35.6C36.34 5.29381 37.64 3.54515 39.37 2.25938C41.19 0.911894 43.33 0.202148 45.58 0.202148C47.83 0.202148 49.97 0.911894 51.79 2.25938C53.52 3.54515 54.82 5.29381 55.56 7.34076H59.45C61.69 7.34076 63.84 8.0505 65.65 9.39799C67.38 10.6838 68.68 12.4324 69.42 14.4794H80.25C83.09 14.4794 85.76 15.6211 87.77 17.6886C89.78 19.7562 90.89 22.5129 90.89 25.4239V111.529C90.89 114.451 89.78 117.197 87.77 119.265C85.8 121.342 83.12 122.484 80.28 122.484ZM10.91 14.9731C8.19997 14.9731 5.64998 16.0635 3.72998 18.0384C1.80998 20.0133 0.75 22.6363 0.75 25.4239V111.529C0.75 114.317 1.80998 116.94 3.72998 118.915C5.64998 120.89 8.19997 121.98 10.91 121.98H80.28C82.99 121.98 85.54 120.89 87.46 118.915C89.38 116.94 90.44 114.317 90.44 111.529V25.4239C90.44 22.6363 89.38 20.0133 87.46 18.0384C85.54 16.0635 82.99 14.9731 80.28 14.9731H69.11L69.05 14.8085C68.35 12.7924 67.09 11.0644 65.39 9.79917C63.66 8.51339 61.61 7.83447 59.47 7.83447H55.24L55.18 7.66992C54.48 5.65383 53.22 3.91547 51.52 2.66056C49.78 1.37479 47.74 0.695865 45.6 0.695865C43.46 0.695865 41.41 1.37479 39.68 2.66056C37.98 3.91547 36.72 5.65383 36.02 7.66992L35.96 7.83447H31.73C29.59 7.83447 27.54 8.51339 25.81 9.79917C24.11 11.0541 22.85 12.7924 22.15 14.8085L22.09 14.9731H10.91V14.9731ZM80.28 115.346H10.91C9.91997 115.346 8.98998 114.944 8.28998 114.224C7.58998 113.504 7.20001 112.548 7.20001 111.529V25.4239C7.20001 24.4055 7.58998 23.4489 8.28998 22.7289C8.98998 22.0089 9.91997 21.6077 10.91 21.6077H21.56V25.4239C21.56 26.3085 21.9 27.1416 22.51 27.7691C23.12 28.3965 23.93 28.7463 24.79 28.7463H66.41C67.27 28.7463 68.08 28.3965 68.69 27.7691C69.3 27.1416 69.64 26.3085 69.64 25.4239V21.6077H80.29C81.28 21.6077 82.21 22.0089 82.91 22.7289C83.61 23.4489 84 24.4055 84 25.4239V111.529C84 112.548 83.61 113.504 82.91 114.224C82.21 114.944 81.27 115.346 80.28 115.346ZM10.91 22.1117C10.05 22.1117 9.24 22.4614 8.63 23.0889C8.02 23.7163 7.67999 24.5496 7.67999 25.4342V111.54C7.67999 112.424 8.02 113.258 8.63 113.885C9.24 114.512 10.05 114.862 10.91 114.862H80.28C81.14 114.862 81.95 114.512 82.56 113.885C83.17 113.258 83.51 112.424 83.51 111.54V25.4239C83.51 24.5393 83.17 23.706 82.56 23.0786C81.95 22.4511 81.14 22.1014 80.28 22.1014H70.12V25.4239C70.12 26.4422 69.73 27.3988 69.03 28.1188C68.33 28.8389 67.4 29.24 66.41 29.24H24.79C23.8 29.24 22.87 28.8389 22.17 28.1188C21.47 27.3988 21.08 26.4422 21.08 25.4239V22.1014H10.91V22.1117ZM63.18 22.1117H28.01V18.2956C28.01 17.2772 28.4 16.3206 29.1 15.6006C29.8 14.8806 30.73 14.4794 31.72 14.4794H38.66C39.52 14.4794 40.33 14.1296 40.94 13.5022C41.55 12.8747 41.89 12.0416 41.89 11.1569C41.89 10.1386 42.28 9.18201 42.98 8.46198C43.68 7.74194 44.61 7.34076 45.6 7.34076C46.59 7.34076 47.52 7.74194 48.22 8.46198C48.92 9.18201 49.31 10.1386 49.31 11.1569C49.31 12.0416 49.65 12.8747 50.26 13.5022C50.87 14.1296 51.68 14.4794 52.54 14.4794H59.48C60.47 14.4794 61.4 14.8806 62.1 15.6006C62.8 16.3206 63.19 17.2772 63.19 18.2956V22.1117H63.18ZM28.5 21.6077H62.7V18.2853C62.7 17.4006 62.36 16.5674 61.75 15.94C61.14 15.3125 60.33 14.9628 59.47 14.9628H52.53C51.54 14.9628 50.61 14.5617 49.91 13.8416C49.21 13.1216 48.82 12.165 48.82 11.1467C48.82 10.262 48.48 9.42883 47.87 8.80137C47.26 8.17392 46.45 7.82424 45.59 7.82424C44.73 7.82424 43.92 8.17392 43.31 8.80137C42.7 9.42883 42.36 10.262 42.36 11.1467C42.36 12.165 41.97 13.1216 41.27 13.8416C40.57 14.5617 39.64 14.9628 38.65 14.9628H31.71C30.85 14.9628 30.04 15.3125 29.43 15.94C28.82 16.5674 28.48 17.4006 28.48 18.2853V21.6077H28.5Z" fill="white"/>
<path d="M36.2099 62.6293L30.4999 68.5027L24.7899 74.3761L22.5499 72.072L20.3099 69.7679C19.6299 69.0684 18.7499 68.7187 17.8599 68.7187C16.9699 68.7187 16.0799 69.0684 15.4099 69.7679C14.7399 70.4674 14.3899 71.3725 14.3899 72.288C14.3899 73.2035 14.7299 74.119 15.4099 74.8081L18.8799 78.3774L22.3499 81.9467C22.6899 82.2965 23.0799 82.5536 23.4999 82.7284C23.9199 82.9033 24.3599 82.9856 24.8099 82.9856C25.2599 82.9856 25.6999 82.9033 26.1199 82.7284C26.5399 82.5536 26.9299 82.2965 27.2699 81.9467L34.2099 74.8081L41.1499 67.6695C41.8299 66.9701 42.1699 66.0649 42.1699 65.1494C42.1699 64.2339 41.8299 63.3185 41.1499 62.6293C40.4699 61.9298 39.5899 61.5801 38.6999 61.5801C37.8099 61.5801 36.8899 61.9298 36.2099 62.6293Z" fill="white"/>
<path d="M24.7899 83.2323C24.3099 83.2323 23.8399 83.1397 23.3899 82.9546C22.9299 82.7591 22.5199 82.4814 22.1599 82.1214L15.2198 74.9828C14.5198 74.2627 14.1299 73.3061 14.1299 72.2878C14.1299 71.2695 14.5198 70.3129 15.2198 69.5928C15.9198 68.8728 16.8499 68.4716 17.8399 68.4716C18.8299 68.4716 19.7599 68.8728 20.4599 69.5928L24.7699 74.0262L36.0199 62.4542C36.7199 61.7342 37.6499 61.333 38.6399 61.333C39.6299 61.333 40.5599 61.7342 41.2599 62.4542C41.9599 63.1743 42.3499 64.1309 42.3499 65.1492C42.3499 66.1675 41.9599 67.1241 41.2599 67.8442L27.3899 82.1111C27.0399 82.4711 26.6199 82.7591 26.1599 82.9443C25.7399 83.1397 25.2699 83.2323 24.7899 83.2323ZM17.8499 68.9654C16.9899 68.9654 16.1799 69.3151 15.5699 69.9425C14.9599 70.57 14.6199 71.4032 14.6199 72.2878C14.6199 73.1724 14.9599 74.0056 15.5699 74.633L22.5099 81.7716C22.8199 82.0905 23.1799 82.3374 23.5799 82.502C24.3499 82.8208 25.2399 82.8208 26.0099 82.502C26.4099 82.3374 26.7699 82.0905 27.0799 81.7716L40.9499 67.5047C41.5599 66.8773 41.8999 66.0441 41.8999 65.1595C41.8999 64.2749 41.5599 63.4417 40.9499 62.8142C40.3399 62.1868 39.5299 61.837 38.6699 61.837C37.8099 61.837 36.9999 62.1868 36.3899 62.8142L24.7999 74.7359L20.1499 69.9528C19.5199 69.3151 18.7099 68.9654 17.8499 68.9654Z" fill="white"/>
<path d="M36.2099 37.6547L30.4999 43.528L24.7899 49.4015L22.5499 47.0974L20.3099 44.7933C19.6299 44.0938 18.7499 43.7441 17.8599 43.7441C16.9699 43.7441 16.0799 44.0938 15.4099 44.7933C14.7399 45.4927 14.3899 46.3979 14.3899 47.3134C14.3899 48.2288 14.7299 49.1443 15.4099 49.8335L18.8799 53.4028L22.3499 56.9721C22.6899 57.3218 23.0799 57.579 23.4999 57.7538C23.9199 57.9287 24.3599 58.011 24.8099 58.011C25.2599 58.011 25.6999 57.9287 26.1199 57.7538C26.5399 57.579 26.9299 57.3218 27.2699 56.9721L34.2099 49.8335L41.1499 42.6949C41.8299 41.9954 42.1699 41.0902 42.1699 40.1747C42.1699 39.2593 41.8299 38.3439 41.1499 37.6547C40.4699 36.9552 39.5899 36.6055 38.6999 36.6055C37.8099 36.6055 36.8899 36.9552 36.2099 37.6547Z" fill="white"/>
<path d="M24.7899 58.2576C24.3099 58.2576 23.8399 58.165 23.3899 57.9799C22.9299 57.7845 22.5199 57.5067 22.1599 57.1467L15.2198 50.0081C14.5198 49.2881 14.1299 48.3315 14.1299 47.3131C14.1299 46.2948 14.5198 45.3382 15.2198 44.6182C15.9198 43.8981 16.8499 43.497 17.8399 43.497C18.8299 43.497 19.7599 43.8981 20.4599 44.6182L24.7699 49.0515L36.0199 37.4796C36.7199 36.7595 37.6499 36.3584 38.6399 36.3584C39.6299 36.3584 40.5599 36.7595 41.2599 37.4796C41.9599 38.1996 42.3499 39.1562 42.3499 40.1745C42.3499 41.1929 41.9599 42.1495 41.2599 42.8695L27.3899 57.1365C27.0399 57.4965 26.6199 57.7845 26.1599 57.9697C25.7399 58.1651 25.2699 58.2576 24.7899 58.2576ZM17.8499 43.9907C16.9899 43.9907 16.1799 44.3405 15.5699 44.9679C14.9599 45.5954 14.6199 46.4285 14.6199 47.3131C14.6199 48.1977 14.9599 49.031 15.5699 49.6584L22.5099 56.797C22.8199 57.1159 23.1799 57.3627 23.5799 57.5273C24.3499 57.8462 25.2399 57.8462 26.0099 57.5273C26.4099 57.3627 26.7699 57.1159 27.0799 56.797L40.9499 42.5301C41.5599 41.9026 41.8999 41.0694 41.8999 40.1848C41.8999 39.3002 41.5599 38.4671 40.9499 37.8396C40.3399 37.2122 39.5299 36.8624 38.6699 36.8624C37.8099 36.8624 36.9999 37.2122 36.3899 37.8396L24.7999 49.7612L20.1499 44.9782C19.5199 44.3405 18.7099 43.9907 17.8499 43.9907Z" fill="white"/>
<path d="M36.2099 87.6039L30.4999 93.4773L24.7899 99.3507L22.5499 97.0466L20.3099 94.7425C19.6299 94.043 18.7499 93.6933 17.8599 93.6933C16.9699 93.6933 16.0799 94.043 15.4099 94.7425C14.7299 95.442 14.3899 96.3574 14.3899 97.2626C14.3899 98.178 14.7299 99.0935 15.4099 99.7827L18.8799 103.352L22.3499 106.921C22.6899 107.271 23.0799 107.528 23.4999 107.703C23.9199 107.878 24.3599 107.96 24.8099 107.96C25.2599 107.96 25.6999 107.878 26.1199 107.703C26.5399 107.528 26.9299 107.271 27.2699 106.921L34.2099 99.7827L41.1499 92.6441C41.8299 91.9446 42.1699 91.0394 42.1699 90.124C42.1699 89.2085 41.8299 88.2931 41.1499 87.6039C40.4699 86.9044 39.5899 86.5547 38.6999 86.5547C37.8099 86.5547 36.8899 86.9044 36.2099 87.6039Z" fill="white"/>
<path d="M24.7899 108.207C24.3099 108.207 23.8399 108.114 23.3899 107.929C22.9299 107.734 22.5199 107.456 22.1599 107.096L15.2198 99.9573C14.5198 99.2373 14.1299 98.2807 14.1299 97.2623C14.1299 96.244 14.5198 95.2874 15.2198 94.5674C15.9198 93.8473 16.8499 93.4462 17.8399 93.4462C18.8299 93.4462 19.7599 93.8473 20.4599 94.5674L24.7699 99.0007L36.0199 87.4288C36.7199 86.7087 37.6499 86.3076 38.6399 86.3076C39.6299 86.3076 40.5599 86.7087 41.2599 87.4288C41.9599 88.1488 42.3499 89.1054 42.3499 90.1237C42.3499 91.1421 41.9599 92.0987 41.2599 92.8187L27.3899 107.086C27.0399 107.446 26.6199 107.734 26.1599 107.919C25.7399 108.114 25.2699 108.207 24.7899 108.207ZM17.8499 93.9399C16.9899 93.9399 16.1799 94.2897 15.5699 94.9171C14.9599 95.5446 14.6199 96.3777 14.6199 97.2623C14.6199 98.147 14.9599 98.9802 15.5699 99.6076L22.5099 106.746C22.8199 107.065 23.1799 107.312 23.5799 107.477C24.3499 107.795 25.2399 107.795 26.0099 107.477C26.4099 107.312 26.7699 107.065 27.0799 106.746L40.9499 92.4793C41.5599 91.8519 41.8999 91.0187 41.8999 90.134C41.8999 89.2494 41.5599 88.4163 40.9499 87.7888C40.3399 87.1614 39.5299 86.8116 38.6699 86.8116C37.8099 86.8116 36.9999 87.1614 36.3899 87.7888L24.7999 99.7105L20.1499 94.9274C19.5199 94.2897 18.7099 93.9399 17.8499 93.9399Z" fill="white"/>
<path d="M73.35 43.7441H62.9401H52.5301C51.5701 43.7441 50.7101 44.1453 50.0801 44.7933C49.4501 45.4414 49.0601 46.3259 49.0601 47.3134C49.0601 48.3009 49.4501 49.1855 50.0801 49.8335C50.7101 50.4816 51.5701 50.8827 52.5301 50.8827H62.9401H73.35C74.31 50.8827 75.17 50.4816 75.8 49.8335C76.43 49.1855 76.8201 48.3009 76.8201 47.3134C76.8201 46.3259 76.43 45.4414 75.8 44.7933C75.17 44.1453 74.31 43.7441 73.35 43.7441Z" fill="white"/>
<path d="M73.35 51.1294H52.54C51.55 51.1294 50.62 50.7282 49.92 50.0082C49.22 49.2881 48.8301 48.3315 48.8301 47.3132C48.8301 46.2949 49.22 45.3383 49.92 44.6182C50.62 43.8982 51.55 43.4971 52.54 43.4971H73.35C74.34 43.4971 75.27 43.8982 75.97 44.6182C76.67 45.3383 77.0601 46.2949 77.0601 47.3132C77.0601 48.3315 76.67 49.2881 75.97 50.0082C75.27 50.7282 74.34 51.1294 73.35 51.1294ZM52.54 43.9908C51.68 43.9908 50.8701 44.3405 50.2601 44.968C49.6501 45.5954 49.3101 46.4286 49.3101 47.3132C49.3101 48.1978 49.6501 49.031 50.2601 49.6585C50.8701 50.2859 51.68 50.6357 52.54 50.6357H73.35C74.21 50.6357 75.0201 50.2859 75.6301 49.6585C76.2401 49.031 76.5801 48.1978 76.5801 47.3132C76.5801 46.4286 76.2401 45.5954 75.6301 44.968C75.0201 44.3405 74.21 43.9908 73.35 43.9908H52.54Z" fill="white"/>
<path d="M73.35 93.6934H62.9401H52.5301C51.5701 93.6934 50.7101 94.0945 50.0801 94.7426C49.4501 95.3906 49.0601 96.2752 49.0601 97.2626C49.0601 98.2501 49.4501 99.1347 50.0801 99.7828C50.7101 100.431 51.5701 100.832 52.5301 100.832H62.9401H73.35C74.31 100.832 75.17 100.431 75.8 99.7828C76.43 99.1347 76.8201 98.2501 76.8201 97.2626C76.8201 96.2752 76.43 95.3906 75.8 94.7426C75.17 94.0945 74.31 93.6934 73.35 93.6934Z" fill="white"/>
<path d="M73.35 101.079H52.54C51.55 101.079 50.62 100.677 49.92 99.9574C49.22 99.2374 48.8301 98.2808 48.8301 97.2624C48.8301 96.2441 49.22 95.2875 49.92 94.5674C50.62 93.8474 51.55 93.4463 52.54 93.4463H73.35C74.34 93.4463 75.27 93.8474 75.97 94.5674C76.67 95.2875 77.0601 96.2441 77.0601 97.2624C77.0601 98.2808 76.67 99.2374 75.97 99.9574C75.27 100.677 74.34 101.079 73.35 101.079ZM52.54 93.94C51.68 93.94 50.8701 94.2897 50.2601 94.9172C49.6501 95.5447 49.3101 96.3778 49.3101 97.2624C49.3101 98.147 49.6501 98.9803 50.2601 99.6077C50.8701 100.235 51.68 100.585 52.54 100.585H73.35C74.21 100.585 75.0201 100.235 75.6301 99.6077C76.2401 98.9803 76.5801 98.147 76.5801 97.2624C76.5801 96.3778 76.2401 95.5447 75.6301 94.9172C75.0201 94.2897 74.21 93.94 73.35 93.94H52.54Z" fill="white"/>
<path d="M73.35 68.7188H62.9401H52.5301C51.5701 68.7188 50.7101 69.1199 50.0801 69.768C49.4501 70.416 49.0601 71.3006 49.0601 72.2881C49.0601 73.2756 49.4501 74.1602 50.0801 74.8082C50.7101 75.4562 51.5701 75.8574 52.5301 75.8574H62.9401H73.35C74.31 75.8574 75.17 75.4562 75.8 74.8082C76.43 74.1602 76.8201 73.2756 76.8201 72.2881C76.8201 71.3006 76.43 70.416 75.8 69.768C75.17 69.1199 74.31 68.7188 73.35 68.7188Z" fill="white"/>
<path d="M73.35 76.104H52.54C51.55 76.104 50.62 75.7029 49.92 74.9828C49.22 74.2628 48.8301 73.3062 48.8301 72.2879C48.8301 71.2695 49.22 70.3129 49.92 69.5929C50.62 68.8729 51.55 68.4717 52.54 68.4717H73.35C74.34 68.4717 75.27 68.8729 75.97 69.5929C76.67 70.3129 77.0601 71.2695 77.0601 72.2879C77.0601 73.3062 76.67 74.2628 75.97 74.9828C75.27 75.7029 74.34 76.104 73.35 76.104ZM52.54 68.9655C51.68 68.9655 50.8701 69.3151 50.2601 69.9426C49.6501 70.5701 49.3101 71.4033 49.3101 72.2879C49.3101 73.1725 49.6501 74.0056 50.2601 74.6331C50.8701 75.2605 51.68 75.6103 52.54 75.6103H73.35C74.21 75.6103 75.0201 75.2605 75.6301 74.6331C76.2401 74.0056 76.5801 73.1725 76.5801 72.2879C76.5801 71.4033 76.2401 70.5701 75.6301 69.9426C75.0201 69.3151 74.21 68.9655 73.35 68.9655H52.54Z" fill="white"/>
</svg>
