<svg width="107" height="101" viewBox="0 0 107 101" fill="none" xmlns="http://www.w3.org/2000/svg">
<path fill-rule="evenodd" clip-rule="evenodd" d="M87.76 85.1225H93.5C94.64 85.1225 95.64 84.3525 95.92 83.2425L106.92 40.2425C107.11 39.4925 106.95 38.7025 106.47 38.0925C105.99 37.4825 105.27 37.1225 104.5 37.1225H103.73C105.59 32.5625 104.43 29.3725 103.38 27.7125C101.22 24.2825 96.58 22.4125 92.09 23.1625C90.51 23.4225 86.29 24.1325 84.97 16.2125C84.66 14.3225 83.57 12.7225 81.84 11.5825C79.1 9.78249 74.81 9.23249 70.91 10.1925C70.82 10.2125 70.76 10.2225 70.75 10.2225C70.3 9.92249 69.63 8.23249 69.22 7.21249C68.17 4.55249 66.72 0.912492 62.99 0.162492C59.03 -0.627508 56.39 1.63249 54.47 3.29249C53.33 4.27249 52.35 5.11249 51.5 5.11249C49.86 5.11249 48.73 4.48249 47.53 3.81249C44.61 2.18249 41.66 1.11249 37.58 6.01249C36.11 7.77249 35.45 9.36249 34.97 10.5225C34.37 11.9725 34.27 12.0525 33.78 12.2225C33.24 12.3125 31.51 11.8125 30.36 11.4925C27.22 10.6125 23.66 9.61249 20.87 11.1925C19.92 11.7325 18.67 12.8225 18.08 14.9525C16.48 20.8025 14.76 21.2425 11.9 21.9825C10.19 22.4225 8.05 22.9625 5.93 24.6625C1.78 27.9825 2.38 33.4625 3.41 37.1125H2.5C1.73 37.1125 1 37.4725 0.53 38.0825C0.06 38.6925 -0.11 39.4825 0.08 40.2325L11.08 83.2325C11.36 84.3425 12.36 85.1125 13.5 85.1125H18.24C19.1 89.6625 22.23 93.4025 26.42 95.1125H2.5C1.12 95.1125 0 96.2325 0 97.6125C0 98.9925 1.12 100.112 2.5 100.112H103.5C104.88 100.112 106 98.9925 106 97.6125C106 96.2325 104.88 95.1125 103.5 95.1125H79.58C83.77 93.4225 86.9 89.6725 87.76 85.1225ZM9.06 28.5825C10.34 27.5625 11.64 27.2225 13.14 26.8425C17.34 25.7725 20.72 24.3125 22.91 16.2925C23.07 15.7125 23.26 15.6025 23.34 15.5625C24.32 15.0125 27.14 15.8025 29.01 16.3225C31.43 17.0025 33.52 17.5925 35.29 17.0025C38.09 16.0725 38.92 14.0725 39.59 12.4625C40.01 11.4525 40.44 10.4125 41.42 9.23249C43.18 7.12249 43.25 7.16249 45.09 8.19249C46.55 9.01249 48.56 10.1325 51.5 10.1325C54.21 10.1325 56.17 8.45249 57.74 7.09249C59.47 5.60249 60.51 4.77249 62.01 5.08249C63.07 5.29249 63.87 7.30249 64.57 9.07249C65.63 11.7425 67.39 16.2225 72.1 15.0625C74.59 14.4525 77.53 14.7425 79.09 15.7725C79.83 16.2625 79.99 16.7325 80.04 17.0425C81.4 25.2025 86.09 29.2425 92.92 28.0925C95.39 27.6825 98.07 28.6625 99.16 30.3825C100.18 32.0025 99.82 34.3725 98.16 37.1325H8.68C7.84 34.8325 6.68 30.4925 9.06 28.5825ZM5.72 42.1225H6.34C6.57 42.1925 6.81 42.2325 7.05 42.2325C7.28 42.2325 7.51 42.1925 7.73 42.1225H99.45H101.27L91.55 80.1225H87.75C86.57 73.8725 81.08 69.1225 74.49 69.1225C67.9 69.1225 62.41 73.8725 61.23 80.1225H44.76C43.58 73.8725 38.09 69.1225 31.5 69.1225C24.91 69.1225 19.42 73.8725 18.24 80.1225H15.44L5.72 42.1225ZM23 82.6225C23 77.9325 26.81 74.1225 31.5 74.1225C36.19 74.1225 40 77.9325 40 82.6225C40 87.3125 36.19 91.1225 31.5 91.1225C26.81 91.1225 23 87.3125 23 82.6225ZM36.58 95.1225C40.77 93.4125 43.9 89.6725 44.76 85.1225H61.24C62.1 89.6725 65.23 93.4125 69.42 95.1225H36.58ZM74.5 91.1225C69.81 91.1225 66 87.3125 66 82.6225C66 77.9325 69.81 74.1225 74.5 74.1225C79.19 74.1225 83 77.9325 83 82.6225C83 87.3125 79.19 91.1225 74.5 91.1225Z" fill="white"/>
<path d="M23 33.623C24.933 33.623 26.5 32.056 26.5 30.123C26.5 28.1901 24.933 26.623 23 26.623C21.067 26.623 19.5 28.1901 19.5 30.123C19.5 32.056 21.067 33.623 23 33.623Z" fill="white"/>
<path d="M37.5 30.123C39.433 30.123 41 28.556 41 26.623C41 24.6901 39.433 23.123 37.5 23.123C35.567 23.123 34 24.6901 34 26.623C34 28.556 35.567 30.123 37.5 30.123Z" fill="white"/>
<path d="M47.5 21.123C49.433 21.123 51 19.556 51 17.623C51 15.6901 49.433 14.123 47.5 14.123C45.567 14.123 44 15.6901 44 17.623C44 19.556 45.567 21.123 47.5 21.123Z" fill="white"/>
<path d="M64.5 23.123C66.433 23.123 68 21.556 68 19.623C68 17.6901 66.433 16.123 64.5 16.123C62.567 16.123 61 17.6901 61 19.623C61 21.556 62.567 23.123 64.5 23.123Z" fill="white"/>
<path d="M75.5 32.123C77.433 32.123 79 30.556 79 28.623C79 26.6901 77.433 25.123 75.5 25.123C73.567 25.123 72 26.6901 72 28.623C72 30.556 73.567 32.123 75.5 32.123Z" fill="white"/>
<path d="M53.5 32.123C55.433 32.123 57 30.556 57 28.623C57 26.6901 55.433 25.123 53.5 25.123C51.567 25.123 50 26.6901 50 28.623C50 30.556 51.567 32.123 53.5 32.123Z" fill="white"/>
</svg>
