<svg width="164" height="118" viewBox="0 0 164 118" fill="none" xmlns="http://www.w3.org/2000/svg">
<g clip-path="url(#clip0)">
<path d="M111.046 42.3771C110.712 48.0973 109.268 53.401 106.88 57.7328C106.186 58.9823 105.242 60.1486 104.354 61.2315C103.16 62.6755 101.938 64.1749 101.244 65.9521C100.994 66.5907 101.382 67.5626 102.021 67.8681C104.465 69.0066 107.769 69.5619 112.378 69.5619C114.767 69.5619 117.182 69.4231 119.515 69.2842C121.597 69.1732 123.569 69.0621 125.568 69.0621H125.596C126.873 69.0621 128.401 69.2009 130.039 69.312C132.01 69.4786 134.26 69.6452 136.398 69.6452C139.536 69.6452 141.868 69.2565 143.534 68.4512C144.117 68.1735 144.367 67.5071 144.367 67.0073C144.423 60.2319 147.283 55.8168 153.17 53.4565C153.919 53.1511 154.364 52.5679 154.364 51.846C154.364 49.93 154.308 48.014 154.28 46.1258C154.225 43.4323 154.169 40.7666 154.197 38.0731C154.197 37.4344 154.28 36.6847 154.336 35.8794C154.53 33.6024 154.752 30.9922 153.892 29.2984L153.78 29.0207L153.503 28.6597C152.864 27.9933 152.253 27.3546 151.615 26.7437C149.615 24.7444 147.727 22.884 146.394 20.1627C145.922 19.1909 145.644 18.0524 145.367 16.9417C145.034 15.6366 144.728 14.3037 144.089 13.2207C142.784 10.9438 141.34 10.8327 138.98 10.6939L138.564 10.6661C134.898 10.4162 130.9 10.2773 126.346 10.2773C123.763 10.2773 121.181 10.3051 118.599 10.3884C117.599 10.4162 116.599 10.4162 115.572 10.4162H113.267C109.102 10.4162 104.715 10.4995 100.855 11.4991C100.272 11.638 99.7996 12.1933 99.6608 12.832C99.5497 13.4151 99.7163 13.9705 100.161 14.3037C110.018 22.1065 111.518 33.8801 111.046 42.3771ZM124.013 13.6095C128.151 13.6095 132.427 13.6928 136.675 13.8872L137.731 13.9149C140.202 13.9982 140.813 13.9982 141.618 16.6917L141.84 17.4415C142.229 18.7743 142.618 20.0239 143.173 21.2735C144.673 24.5223 146.783 26.6327 149.032 28.8541C149.643 29.465 150.282 30.1037 150.865 30.6868C151.67 32.1585 151.309 35.6017 151.031 38.3785C150.893 39.6281 150.782 40.7388 150.809 41.4608C150.809 42.0161 150.92 42.9047 151.031 43.9043C151.309 46.3757 151.726 49.7356 151.004 50.8463C150.837 51.124 149.726 51.5405 148.921 51.846C148.033 52.1792 147.199 52.5124 146.755 52.8456C145.034 54.1507 144.117 55.2892 143.007 57.5384C142.451 58.6491 142.173 59.8154 141.924 60.9539C141.701 61.8702 141.507 62.7588 141.146 63.6196C140.313 65.6744 140.313 65.6744 137.981 65.7299H137.536C135.87 65.7855 134.232 65.7855 132.566 65.7855C129.872 65.7855 127.179 65.7299 124.485 65.7022C122.597 65.6744 120.709 65.6466 118.821 65.6189C115.877 65.5911 112.934 65.5356 109.99 65.4523C108.324 65.3967 106.742 65.3134 106.519 64.8691C106.325 64.4804 107.019 63.4807 108.047 61.9813C111.046 57.6495 113.017 52.4569 113.878 46.5701C115.822 33.4914 112.545 21.6344 104.853 13.9705C107.63 13.5817 110.601 13.554 113.156 13.554L118.015 13.5817H119.737C121.181 13.6373 122.597 13.6095 124.013 13.6095Z" fill="white"/>
<path d="M10.8316 38.0729C10.8594 40.7664 10.8038 43.4599 10.7483 46.1256C10.7205 48.0416 10.665 49.9298 10.665 51.8458C10.665 52.5678 11.1093 53.1509 11.859 53.4564C17.7458 55.8167 20.6337 60.2595 20.6615 67.0071C20.6615 67.507 20.9391 68.1734 21.4945 68.4511C23.1606 69.2563 25.4931 69.6451 28.6309 69.6451C30.769 69.6451 33.0182 69.4785 34.9897 69.3119C36.628 69.173 38.1553 69.062 39.6825 69.062C41.4596 69.062 43.4589 69.173 45.5693 69.3119C47.9018 69.4507 50.2899 69.5896 52.6779 69.5896C57.2318 69.5896 60.5085 69.062 62.9798 67.8957C63.6185 67.5903 64.0072 66.6184 63.7573 65.9797C63.0353 64.1748 61.8135 62.7031 60.6473 61.2592C59.731 60.1484 58.8146 59.01 58.0926 57.7326C55.7046 53.4286 54.2884 48.2638 53.9275 42.377C53.1499 30.4367 57.0375 20.4681 64.868 14.248C65.2845 13.9148 65.4789 13.3595 65.3678 12.7763C65.229 12.1377 64.757 11.5823 64.1738 11.4435C60.2308 10.4438 55.8434 10.4161 51.5949 10.4161C50.2343 10.4161 48.9015 10.4161 47.5964 10.3605C44.6807 10.2772 41.7373 10.2217 38.7939 10.2217C34.2677 10.2217 30.2136 10.3605 26.465 10.6104L25.9929 10.666C23.827 10.8048 22.272 10.9159 21.0224 13.0262C20.4671 13.9704 20.2172 15.1921 19.9673 16.3584C19.8006 17.1359 19.634 17.9134 19.3841 18.5798C18.079 22.0508 15.8021 24.3278 13.3863 26.7436C12.7754 27.3823 12.1367 27.9932 11.387 28.8262L11.137 29.215C10.2762 30.9921 10.4984 33.5745 10.6928 35.8793C10.7483 36.6845 10.8316 37.4343 10.8316 38.0729ZM23.3827 16.7194C24.188 14.0259 24.7989 13.9981 27.2702 13.9426L28.3254 13.9148C32.6017 13.7204 36.8502 13.6371 40.9598 13.6371C42.4038 13.6371 43.8199 13.6371 45.2639 13.6649C45.847 13.6649 46.4579 13.6649 47.041 13.6649L51.8726 13.6371C54.4273 13.6371 57.3707 13.6927 60.1475 14.0537C52.7057 21.4677 49.3735 32.9359 50.984 45.598C51.7338 51.5682 53.5387 56.8163 56.371 61.2036C56.7598 61.8145 57.1763 62.3421 57.5095 62.8142C58.1204 63.6194 58.5925 64.2581 58.4536 64.5913C58.3148 64.9523 57.5373 65.23 56.0656 65.5354C54.9549 65.7298 53.7053 65.8409 52.0948 65.8409C51.1507 65.8409 50.1788 65.8131 49.2069 65.7853C48.2628 65.7576 47.3464 65.7298 46.4856 65.7298C46.4856 65.7298 42.4871 65.7853 40.6544 65.8131C37.8776 65.8687 35.1286 65.8964 32.3518 65.8964C30.9634 65.8964 29.575 65.8964 28.1866 65.8686H27.1314C25.021 65.8686 24.7989 65.8686 23.8548 63.8971C23.4938 63.1474 23.3272 62.231 23.1328 61.2869C22.9662 60.3706 22.7996 59.4265 22.4108 58.5934C21.6611 56.8718 20.6615 54.9281 18.8843 53.4286C18.4122 52.9288 17.4404 52.5678 16.413 52.1513C15.4133 51.7625 14.1915 51.2905 13.9694 50.9295C13.2752 49.7077 13.6084 46.9864 13.8861 44.7928C13.9971 43.8487 14.1082 42.9879 14.136 42.3492C14.1638 41.5439 14.0527 40.3777 13.9138 38.9893C13.6362 35.9903 13.3029 32.2417 14.0804 30.8255C14.7191 30.1591 15.3578 29.5204 15.9687 28.9095C18.2179 26.6881 20.3282 24.5777 21.7999 21.3289C22.3831 20.0515 22.744 18.802 23.1606 17.4691L23.3827 16.7194Z" fill="white"/>
<path d="M25.4368 26.3826C26.1865 26.3826 26.8252 25.9661 27.0751 25.2719C27.8804 23.1338 28.8523 20.9956 29.9352 18.8853C30.2129 18.3299 30.2129 17.7746 29.8797 17.247C29.5465 16.7194 28.9633 16.3584 28.3524 16.3584C27.7971 16.3584 27.2972 16.6638 27.0196 17.2192C25.8533 19.4684 24.7981 21.8842 23.854 24.3278C23.6874 24.8276 23.743 25.2997 23.9929 25.6884C24.2983 26.1327 24.8537 26.3826 25.4368 26.3826Z" fill="white"/>
<path d="M28.8799 26.2992C29.1576 26.8546 29.824 27.2433 30.5182 27.2433C31.0736 27.2433 31.5734 26.9934 31.9066 26.5491C32.7952 25.3829 33.8226 24.2722 35.0722 23.1337C35.572 22.6616 35.7386 22.0785 35.4887 21.4676C35.2388 20.8012 34.5446 20.3291 33.8226 20.3291C33.4061 20.3291 33.0451 20.4957 32.7119 20.7734C31.4346 21.9396 30.2128 23.2725 29.0465 24.8275C28.6855 25.2718 28.63 25.7994 28.8799 26.2992Z" fill="white"/>
<path d="M163.638 73.4214C163.721 72.7828 163.749 72.0608 163.777 71.2833C164.027 65.1188 163.999 58.8433 163.999 52.7621V47.7916C163.999 39.9611 163.944 32.1305 163.833 24.3277C163.777 20.6346 163.694 16.9692 163.61 13.2761C163.583 12.5819 163.638 11.7766 163.666 10.888C163.777 8.58327 163.888 5.97309 163.166 4.22371C162.139 1.75236 160.75 1.44691 158.39 1.08593C155.585 0.669409 152.448 0.475034 148.477 0.475034C146.2 0.475034 143.923 0.530569 141.646 0.586105C139.425 0.641641 137.203 0.697177 135.065 0.697177H133.815C118.932 0.530569 103.798 0.447266 88.8035 0.447266H87.4707C70.7266 0.447266 53.7604 0.586105 37.0441 0.808249H35.9334C34.1285 0.808249 32.2958 0.752713 30.4631 0.697177C28.6026 0.641641 26.7699 0.586105 24.9373 0.586105C22.7158 0.586105 20.8554 0.669409 19.1338 0.836017C17.6343 1.00262 16.0237 1.03039 14.4687 1.03039H12.3306C10.1647 1.03039 7.6656 1.05816 5.4997 1.50245C4.77773 1.64129 4.05576 1.8912 3.52817 2.22441C3.22272 2.27995 2.94504 2.44656 2.61183 2.83531L2.77844 3.05745H2.44522C2.30638 3.25183 2.25085 3.41844 2.22308 3.52951C0.307089 7.86131 0.779144 13.3871 1.22343 18.3021C1.3345 19.6905 1.47334 21.0511 1.52888 22.3284C1.80656 28.5207 1.75102 34.824 1.66772 40.9607C1.63995 42.9878 1.61218 44.9871 1.61218 47.0141C1.58441 51.2071 1.39004 55.4556 1.19566 59.5652C0.945752 64.7856 0.69584 70.2004 0.806912 75.6151C1.02906 80.2246 1.11236 84.9451 1.19566 89.4991C1.2512 92.6369 1.30673 95.7469 1.39004 98.8846C1.41781 100.079 1.36227 101.523 1.27897 103.078C1.08459 107.076 0.890215 111.575 2.25085 114.324C3.66701 117.184 7.27684 117.434 10.5535 117.434H12.2751C17.0789 117.489 21.8828 117.517 26.6866 117.517C30.8518 117.545 35.017 117.545 39.1544 117.6C57.1481 117.767 71.6985 117.822 84.9716 117.822C114.322 117.822 138.841 117.461 162.111 116.684C163.027 116.656 163.749 115.934 163.777 115.018C164.11 103.022 164.055 89.7768 163.638 73.4214ZM12.7194 4.55692C13.6079 4.58469 14.441 4.61246 15.0796 4.61246C15.4129 4.61246 15.6905 4.61246 15.9127 4.58469L16.9956 4.47362C18.9116 4.27924 20.7165 4.11264 22.577 4.11264C23.1879 4.11264 23.7988 4.1404 24.4374 4.16817C26.3812 4.30701 28.4916 4.36255 30.8518 4.36255C33.7397 4.36255 36.6831 4.27924 39.571 4.16817C41.9035 4.08487 44.236 4.00156 46.5685 4.00156C60.6468 3.86272 74.8918 3.77942 88.8868 3.77942H95.6345C111.906 3.80719 128.428 3.94603 144.7 4.19594H145.034C146.033 4.19594 147.2 4.1404 148.421 4.0571C149.754 3.9738 151.143 3.91826 152.503 3.91826C154.364 3.91826 155.808 4.0571 156.891 4.39031C160.528 5.4455 160.417 8.80542 160.306 12.3597C160.278 13.1372 160.25 13.9147 160.278 14.6922C160.473 22.9671 160.584 31.3252 160.611 39.5445C160.667 47.7361 160.639 56.0942 160.528 64.3969C160.528 65.1466 160.556 65.9519 160.611 66.7294C160.806 70.1726 160.972 73.4214 157.196 74.4766C156.252 74.7543 155.086 74.8931 153.642 74.8931C152.281 74.8931 150.837 74.7821 149.504 74.671C148.532 74.5877 147.588 74.5044 146.727 74.4766C144.062 74.3933 141.396 74.3655 138.73 74.3655C132.76 74.3655 126.707 74.5599 120.848 74.7265C115.044 74.8931 109.019 75.0875 103.021 75.0875C98.1058 75.0875 93.1353 74.8654 88.3315 74.6432C85.7213 74.5322 83.1111 74.3933 80.4732 74.31C79.4457 74.2822 78.4183 74.2545 77.3909 74.2545C75.1695 74.2545 72.948 74.31 70.7266 74.3933C68.5052 74.4488 66.2837 74.5322 64.0901 74.5322C62.896 74.5322 61.6743 74.5044 60.4802 74.4766C57.7034 74.3655 54.9266 74.31 52.1499 74.31C46.9572 74.31 41.7091 74.4766 36.6276 74.6155C31.546 74.7821 26.2979 74.9209 21.1053 74.9209C20.0223 74.9209 17.0234 74.8931 17.0234 74.8931C16.3014 74.8931 13.1914 74.9487 12.3861 74.9487C10.1369 74.9487 7.49899 74.8654 5.16648 74.2545C4.72219 74.1434 4.33344 74.0601 3.97246 74.0323C3.88915 73.6436 3.94469 72.9494 3.97246 72.4218C4.00023 72.1163 4.02799 71.8387 4.00023 71.6443V71.0612C3.91692 66.6183 3.86139 62.4253 4.25014 58.0658C4.99987 49.7631 4.94434 41.3495 4.91657 33.1857V31.4085C4.8888 26.5491 4.77773 22.7727 4.58335 19.1906C4.58335 18.5242 4.52782 17.8022 4.47228 17.0525C4.16683 13.0261 3.80585 8.02792 5.13871 5.02898C5.6663 4.66799 7.0547 4.47362 9.27614 4.47362C10.4146 4.47362 11.6364 4.50139 12.7194 4.55692ZM4.72219 98.5792L4.69442 97.885C7.0547 97.7739 9.44274 97.7184 11.8308 97.7184C17.4399 97.7184 23.1601 97.9683 28.7137 98.2182C33.1566 98.4126 37.5717 98.607 41.9868 98.6903C49.8729 98.8291 58.3976 98.8846 68.0887 98.8846C72.837 98.8846 77.5575 98.8569 82.3058 98.8569C100.466 98.7736 118.626 98.6347 136.787 98.4959L160.611 98.3293V99.7732C160.611 100.301 160.695 101.3 160.778 102.522C160.834 103.244 160.889 104.049 160.945 104.883C153.531 105.521 145.617 105.827 136.092 105.827C129.622 105.827 123.041 105.688 116.655 105.549C110.24 105.41 103.604 105.271 97.0506 105.271C95.6344 105.271 94.2183 105.271 92.8021 105.299C79.3069 105.438 65.8117 105.438 52.2887 105.466C36.7109 105.493 20.5777 105.521 4.72219 105.716L4.74996 104.883C4.77773 103.772 4.8055 102.689 4.74996 101.689C4.77773 100.634 4.74996 99.6066 4.72219 98.5792ZM26.048 78.3086C33.2676 78.3086 40.6262 78.0864 47.7625 77.8643C54.8711 77.6422 62.2296 77.42 69.4493 77.42C74.1976 77.42 78.4461 77.5033 82.5002 77.7255C89.9698 78.0865 97.5504 78.2808 105.659 78.2808C111.684 78.2808 117.877 78.1698 124.541 77.9754L126.207 77.9198C130.428 77.781 134.759 77.6699 139.036 77.6699C140.952 77.6699 142.868 77.6977 144.784 77.7532C145.95 77.781 147.227 77.8921 148.588 78.0031C150.559 78.1698 152.614 78.3364 154.614 78.3364C157.002 78.3364 158.89 78.0865 160.362 77.5589C160.417 79.5859 160.445 81.6407 160.473 83.6678C143.617 84.6397 125.79 85.0562 102.688 85.0562C95.2457 85.0562 87.7761 85.0007 80.3343 84.9451C75.6693 84.9174 71.0321 84.8896 66.367 84.8618C46.0409 84.7508 25.0206 84.6397 4.33344 83.5845C4.27791 81.5297 4.22237 79.4471 4.13907 77.3923C10.7201 78.0031 17.8564 78.3086 26.048 78.3086ZM66.4503 88.194C71.0876 88.2218 75.7248 88.2495 80.3899 88.2773C87.8594 88.3328 95.3012 88.3884 102.771 88.3884C125.874 88.3884 143.729 87.9441 160.584 87C160.611 89.2769 160.611 91.5261 160.611 93.8031V94.9971L136.787 95.1637C118.626 95.3026 100.466 95.4414 82.3058 95.5247C77.5575 95.5525 72.8092 95.5525 68.0887 95.5525C58.3976 95.5525 49.8729 95.497 41.9868 95.3581C37.5717 95.2748 33.1566 95.0804 28.7415 94.8861C23.1879 94.6361 17.4677 94.3862 11.8308 94.3862C9.41498 94.3862 7.02693 94.4418 4.61112 94.5528L4.47228 86.9444C25.1316 87.9718 46.152 88.0829 66.4503 88.194ZM5.13871 111.019C4.99987 110.381 4.91657 109.742 4.86103 109.048C20.7165 108.853 36.7942 108.826 52.372 108.798C65.8672 108.77 79.3624 108.77 92.8577 108.631C94.2738 108.631 95.69 108.603 97.1062 108.603C103.659 108.603 110.296 108.742 116.71 108.881C123.097 109.02 129.678 109.159 136.148 109.159C145.728 109.159 153.669 108.853 161.139 108.215C161.195 110.853 161 112.463 160.528 113.019C159.945 113.741 157.751 114.101 154.058 114.101C152.142 114.101 150.171 114.018 148.56 113.935C147.477 113.879 146.589 113.852 145.756 113.852C145.728 113.852 145.7 113.852 145.672 113.852C127.595 114.296 107.991 114.518 85.7491 114.518H78.7515C69.2271 114.49 59.7305 114.407 50.2061 114.296C39.5987 114.185 29.0191 114.074 18.4118 114.074H14.0522C13.4136 114.074 12.7471 114.101 12.0807 114.129C11.4143 114.157 10.7756 114.185 10.1369 114.185C7.55452 114.213 5.69407 113.657 5.13871 111.019Z" fill="white"/>
<path d="M72.3768 39.0897H69.4348V46.7778H64V25H72.8723C75.5458 25 77.6361 25.5734 79.1432 26.7201C80.6503 27.8668 81.4039 29.4872 81.4039 31.5812C81.4039 33.0969 81.0839 34.3533 80.4439 35.3504C79.8142 36.3476 78.8232 37.1553 77.471 37.7735L82.1781 46.5534V46.7778H76.3561L72.3768 39.0897ZM69.4348 35.0363H72.8723C73.9045 35.0363 74.6787 34.7771 75.1948 34.2585C75.7213 33.7301 75.9845 32.9972 75.9845 32.0598C75.9845 31.1225 75.7213 30.3896 75.1948 29.8611C74.6684 29.3226 73.8942 29.0534 72.8723 29.0534H69.4348V35.0363Z" fill="white"/>
<path d="M100 38.8056C100 41.3184 99.4116 43.3276 98.2348 44.8333C97.0684 46.3291 95.489 47.0769 93.4968 47.0769C91.9587 47.0769 90.6942 46.5335 89.7032 45.4466V53H84.4852V30.594H89.3626L89.5174 32.0897C90.5187 30.8932 91.8348 30.2949 93.4658 30.2949C95.5303 30.2949 97.1355 31.0328 98.2813 32.5085C99.4271 33.9744 100 35.9936 100 38.5662V38.8056ZM94.7819 38.4915C94.7819 35.6197 93.9148 34.1838 92.1806 34.1838C90.9419 34.1838 90.1161 34.6125 89.7032 35.4701V41.8419C90.1574 42.7393 90.9935 43.188 92.2116 43.188C93.8735 43.188 94.7303 41.802 94.7819 39.0299V38.4915Z" fill="white"/>
</g>
<defs>
<clipPath id="clip0">
<rect width="163.22" height="117.375" fill="white" transform="translate(0.779785 0.447266)"/>
</clipPath>
</defs>
</svg>
