<svg width="20" height="21" viewBox="0 0 20 21" fill="none" xmlns="http://www.w3.org/2000/svg">
<path d="M16.3607 7.4483C16.3715 7.59413 16.3715 7.73913 16.3715 7.88413C16.3715 12.3216 12.994 17.435 6.82151 17.435C4.91984 17.435 3.15317 16.8841 1.6665 15.9275C1.9365 15.9583 2.1965 15.9691 2.47734 15.9691C3.98817 15.9728 5.45621 15.4676 6.64484 14.535C5.94436 14.5223 5.26532 14.2912 4.70254 13.8739C4.13976 13.4566 3.72132 12.874 3.50567 12.2075C3.71317 12.2383 3.9215 12.2591 4.13984 12.2591C4.44067 12.2591 4.74317 12.2175 5.024 12.145C4.2638 11.9915 3.58023 11.5794 3.08952 10.9789C2.59881 10.3783 2.33125 9.62634 2.33234 8.8508V8.80913C2.77984 9.0583 3.299 9.21413 3.849 9.23497C3.38825 8.92879 3.01044 8.51332 2.74929 8.02563C2.48814 7.53793 2.35177 6.99318 2.35234 6.43997C2.35234 5.81663 2.51817 5.24497 2.809 4.74663C3.65245 5.78415 4.70442 6.63293 5.89679 7.23802C7.08915 7.8431 8.39531 8.19098 9.73067 8.25913C9.67901 8.00913 9.64734 7.74997 9.64734 7.48997C9.64712 7.0491 9.73379 6.61252 9.9024 6.20517C10.071 5.79782 10.3183 5.4277 10.63 5.11596C10.9417 4.80422 11.3119 4.55698 11.7192 4.38837C12.1266 4.21976 12.5631 4.13308 13.004 4.1333C13.9707 4.1333 14.8432 4.5383 15.4565 5.1933C16.208 5.04798 16.9286 4.77365 17.5865 4.38247C17.336 5.15815 16.8113 5.81589 16.1107 6.23247C16.7772 6.15645 17.4285 5.98118 18.0432 5.71247C17.5841 6.38172 17.0153 6.96859 16.3607 7.4483Z" fill="black"/>
</svg>
