<svg width="24" height="25" viewBox="0 0 24 25" fill="none" xmlns="http://www.w3.org/2000/svg">
<path d="M15.55 13.5917C16.3 13.5917 16.96 13.1817 17.3 12.5617L20.88 6.07167C20.9643 5.9201 21.0075 5.74915 21.0054 5.57573C21.0034 5.40231 20.956 5.23245 20.8681 5.08294C20.7803 4.93343 20.6548 4.80946 20.5043 4.72329C20.3538 4.63713 20.1834 4.59176 20.01 4.59167H5.21L4.27 2.59167H1V4.59167H3L6.6 12.1817L5.25 14.6217C4.52 15.9617 5.48 17.5917 7 17.5917H19V15.5917H7L8.1 13.5917H15.55ZM6.16 6.59167H18.31L15.55 11.5917H8.53L6.16 6.59167ZM7 18.5917C5.9 18.5917 5.01 19.4917 5.01 20.5917C5.01 21.6917 5.9 22.5917 7 22.5917C8.1 22.5917 9 21.6917 9 20.5917C9 19.4917 8.1 18.5917 7 18.5917ZM17 18.5917C15.9 18.5917 15.01 19.4917 15.01 20.5917C15.01 21.6917 15.9 22.5917 17 22.5917C18.1 22.5917 19 21.6917 19 20.5917C19 19.4917 18.1 18.5917 17 18.5917Z" fill="white"/>
</svg>
