<?xml version="1.0" encoding="utf-8"?>
<!-- Generator: Adobe Illustrator 27.0.0, SVG Export Plug-In . SVG Version: 6.00 Build 0)  -->
<svg version="1.1" id="Layer_1" xmlns="http://www.w3.org/2000/svg" xmlns:xlink="http://www.w3.org/1999/xlink" x="0px" y="0px"
	 viewBox="0 0 14 16" style="enable-background:new 0 0 14 16;" xml:space="preserve">
<style type="text/css">
	.st0{fill-rule:evenodd;clip-rule:evenodd;}
</style>
<path class="st0" d="M7.3,5.6c0,6,0,5.5-0.2,6c-0.2,0.4-0.5,0.8-1,1c-0.4,0.2-0.6,0.2-1,0.2c-0.4,0-0.6,0-1-0.2
	c-0.4-0.2-0.8-0.6-1-1C3,11.3,3,11.1,3,10.7c0-0.4,0-0.6,0.2-1c0.1-0.2,0.2-0.3,0.4-0.5c0.3-0.3,0.5-0.4,0.9-0.6
	c0.3-0.1,0.7-0.1,1,0c0.1,0,0.2,0,0.3,0c0,0,0-0.3,0-1.2V6.1L5.7,6C5.6,6,5.4,6,5.1,6c-0.7,0-1.3,0.1-2,0.5
	c-2.5,1.2-3.4,4.4-1.9,6.7c0.3,0.4,0.8,1,1.2,1.3c1.2,0.8,2.7,1,4,0.6c1.2-0.4,2.3-1.4,2.8-2.6c0.1-0.3,0.2-0.7,0.3-1
	c0-0.3,0.1-0.5,0-3.2c0-1.6,0-2.9,0-2.9c0,0,0.1,0,0.1,0.1c0.3,0.3,1,0.6,1.5,0.8c0.6,0.2,1.4,0.4,1.9,0.4h0.3l0-1.2l0-1.2l-0.3,0
	c-0.9-0.1-1.7-0.4-2.4-1.1c-0.6-0.6-1-1.5-1.1-2.4l0-0.3H8.5H7.3L7.3,5.6z"/>
</svg>
