<svg width="20" height="21" viewBox="0 0 20 21" fill="none" xmlns="http://www.w3.org/2000/svg">
<path d="M13.6327 12.6538C13.6994 12.1038 13.7493 11.5538 13.7493 10.9871C13.7493 10.4205 13.6994 9.87048 13.6327 9.32048H16.4493C16.5827 9.85381 16.666 10.4121 16.666 10.9871C16.666 11.5621 16.5827 12.1205 16.4493 12.6538M12.1577 17.2871C12.6577 16.3621 13.041 15.3621 13.3077 14.3205H15.766C14.9587 15.7107 13.6778 16.7638 12.1577 17.2871ZM11.9493 12.6538H8.04935C7.96602 12.1038 7.91602 11.5538 7.91602 10.9871C7.91602 10.4205 7.96602 9.86214 8.04935 9.32048H11.9493C12.0243 9.86214 12.0827 10.4205 12.0827 10.9871C12.0827 11.5538 12.0243 12.1038 11.9493 12.6538ZM9.99935 17.6205C9.30768 16.6205 8.74935 15.5121 8.40768 14.3205H11.591C11.2493 15.5121 10.691 16.6205 9.99935 17.6205ZM6.66602 7.65381H4.23268C5.03173 6.25982 6.31168 5.20505 7.83268 4.68714C7.33268 5.61214 6.95768 6.61214 6.66602 7.65381ZM4.23268 14.3205H6.66602C6.95768 15.3621 7.33268 16.3621 7.83268 17.2871C6.31487 16.7635 5.03672 15.7102 4.23268 14.3205ZM3.54935 12.6538C3.41602 12.1205 3.33268 11.5621 3.33268 10.9871C3.33268 10.4121 3.41602 9.85381 3.54935 9.32048H6.36602C6.29935 9.87048 6.24935 10.4205 6.24935 10.9871C6.24935 11.5538 6.29935 12.1038 6.36602 12.6538M9.99935 4.34548C10.691 5.34548 11.2493 6.46214 11.591 7.65381H8.40768C8.74935 6.46214 9.30768 5.34548 9.99935 4.34548ZM15.766 7.65381H13.3077C13.0469 6.62169 12.6607 5.62539 12.1577 4.68714C13.691 5.21214 14.966 6.27048 15.766 7.65381ZM9.99935 2.65381C5.39102 2.65381 1.66602 6.40381 1.66602 10.9871C1.66602 13.1973 2.54399 15.3169 4.10679 16.8797C4.88061 17.6535 5.79927 18.2674 6.81032 18.6861C7.82137 19.1049 8.905 19.3205 9.99935 19.3205C12.2095 19.3205 14.3291 18.4425 15.8919 16.8797C17.4547 15.3169 18.3327 13.1973 18.3327 10.9871C18.3327 9.89279 18.1171 8.80916 17.6983 7.79811C17.2796 6.78707 16.6657 5.86841 15.8919 5.09459C15.1181 4.32076 14.1994 3.70694 13.1884 3.28815C12.1773 2.86936 11.0937 2.65381 9.99935 2.65381Z" fill="black"/>
</svg>
