<svg width="20" height="21" viewBox="0 0 20 21" fill="none" xmlns="http://www.w3.org/2000/svg">
<path d="M17.994 6.78677C17.899 6.4346 17.7135 6.11344 17.4559 5.85524C17.1983 5.59704 16.8776 5.41082 16.5256 5.3151C15.2206 4.95677 9.99979 4.95093 9.99979 4.95093C9.99979 4.95093 4.77979 4.9451 3.47395 5.2876C3.12222 5.38772 2.80214 5.57658 2.54442 5.83605C2.28671 6.09551 2.10002 6.41687 2.00229 6.76927C1.65812 8.07427 1.65479 10.7809 1.65479 10.7809C1.65479 10.7809 1.65145 13.5009 1.99312 14.7926C2.18479 15.5068 2.74729 16.0709 3.46229 16.2634C4.78062 16.6218 9.98729 16.6276 9.98729 16.6276C9.98729 16.6276 15.2081 16.6334 16.5131 16.2918C16.8652 16.1962 17.1862 16.0104 17.4445 15.7527C17.7028 15.4951 17.8893 15.1745 17.9856 14.8226C18.3306 13.5184 18.3331 10.8126 18.3331 10.8126C18.3331 10.8126 18.3498 8.09177 17.994 6.78677ZM8.32979 13.2884L8.33395 8.28843L12.6731 10.7926L8.32979 13.2884Z" fill="black"/>
</svg>
