<svg width="34" height="34" viewBox="0 0 34 34" fill="none" xmlns="http://www.w3.org/2000/svg">
<path fill-rule="evenodd" clip-rule="evenodd" d="M25.8533 8.11071C24.7004 6.95068 23.3288 6.03093 21.818 5.40471C20.3071 4.77849 18.687 4.45826 17.0516 4.46257C10.1957 4.46257 4.60997 10.0431 4.60997 16.8989C4.60478 19.082 5.17735 21.2275 6.26955 23.1177L4.50586 29.5633L11.1025 27.8309C12.9266 28.8245 14.9703 29.346 17.0474 29.3478H17.0526C23.9095 29.3478 29.489 23.7684 29.4931 16.9073C29.4931 13.585 28.2001 10.4616 25.8533 8.10967V8.11071ZM17.0516 27.2458H17.0474C15.1958 27.2458 13.3782 26.7485 11.7844 25.8059L11.4065 25.582L7.48976 26.6076L8.53506 22.7918L8.29143 22.4014C7.25509 20.7534 6.70642 18.8457 6.70891 16.8989C6.70891 11.2018 11.3493 6.56566 17.0557 6.56566C18.4138 6.56227 19.7591 6.8283 21.0136 7.34835C22.2682 7.86841 23.4071 8.63215 24.3645 9.59537C25.3266 10.554 26.0892 11.6937 26.6084 12.9487C27.1275 14.2037 27.3928 15.5491 27.389 16.9073C27.389 22.6096 22.7487 27.2458 17.0505 27.2458H17.0516ZM22.7206 19.5018C22.4113 19.3477 20.8819 18.596 20.5977 18.494C20.3134 18.3878 20.1052 18.3388 19.898 18.6481C19.6898 18.9604 19.0964 19.6611 18.9142 19.8683C18.7351 20.0713 18.5518 20.1004 18.2426 19.9453C17.9303 19.7912 16.9297 19.4612 15.7418 18.4003C14.8183 17.5778 14.1926 16.5575 14.0135 16.2482C13.8303 15.9359 13.9927 15.7693 14.1478 15.6131C14.2894 15.4757 14.4602 15.2519 14.6153 15.0686C14.7694 14.8906 14.8235 14.7605 14.9276 14.5522C15.0297 14.345 14.9776 14.1618 14.8995 14.0077C14.8225 13.8536 14.2009 12.32 13.9406 11.6974C13.6876 11.0915 13.4315 11.1769 13.241 11.1654C13.0619 11.1571 12.8547 11.1571 12.6476 11.1571C12.4393 11.1571 12.102 11.2341 11.8167 11.5475C11.5325 11.8567 10.7308 12.6095 10.7308 14.1379C10.7308 15.6673 11.8448 17.1467 12.001 17.355C12.1551 17.558 14.1926 20.697 17.3108 22.0442C17.8886 22.2941 18.4794 22.5127 19.0807 22.6991C19.8252 22.9344 20.504 22.9021 21.0412 22.8241C21.6388 22.7356 22.8788 22.0724 23.1391 21.3446C23.3962 20.621 23.3963 19.9984 23.3182 19.8683C23.2411 19.7381 23.0339 19.66 22.7206 19.5018Z" fill="white"/>
</svg>
