<svg width="23" height="23" viewBox="0 0 23 23" fill="none" xmlns="http://www.w3.org/2000/svg">
<path d="M8.2339 9.8291C8.06775 9.8291 7.9084 9.89511 7.79091 10.0126C7.67343 10.1301 7.60742 10.2894 7.60742 10.4556C7.60742 10.6217 7.67343 10.7811 7.79091 10.8986C7.9084 11.0161 8.06775 11.0821 8.2339 11.0821H14.4987C14.6648 11.0821 14.8242 11.0161 14.9417 10.8986C15.0591 10.7811 15.1251 10.6217 15.1251 10.4556C15.1251 10.2894 15.0591 10.1301 14.9417 10.0126C14.8242 9.89511 14.6648 9.8291 14.4987 9.8291H8.2339ZM7.60742 12.9615C7.60742 12.7953 7.67343 12.636 7.79091 12.5185C7.9084 12.401 8.06775 12.335 8.2339 12.335H14.4987C14.6648 12.335 14.8242 12.401 14.9417 12.5185C15.0591 12.636 15.1251 12.7953 15.1251 12.9615C15.1251 13.1276 15.0591 13.287 14.9417 13.4045C14.8242 13.522 14.6648 13.588 14.4987 13.588H8.2339C8.06775 13.588 7.9084 13.522 7.79091 13.4045C7.67343 13.287 7.60742 13.1276 7.60742 12.9615ZM7.60742 15.4674C7.60742 15.3012 7.67343 15.1419 7.79091 15.0244C7.9084 14.9069 8.06775 14.8409 8.2339 14.8409H10.7398C10.906 14.8409 11.0653 14.9069 11.1828 15.0244C11.3003 15.1419 11.3663 15.3012 11.3663 15.4674C11.3663 15.6335 11.3003 15.7929 11.1828 15.9104C11.0653 16.0279 10.906 16.0939 10.7398 16.0939H8.2339C8.06775 16.0939 7.9084 16.0279 7.79091 15.9104C7.67343 15.7929 7.60742 15.6335 7.60742 15.4674Z" fill="black"/>
<path d="M13.2458 1.05859H6.35454C5.68993 1.05859 5.05254 1.32261 4.5826 1.79256C4.11265 2.26251 3.84863 2.89989 3.84863 3.5645V18.5999C3.84863 19.2646 4.11265 19.9019 4.5826 20.3719C5.05254 20.8418 5.68993 21.1059 6.35454 21.1059H16.3782C17.0428 21.1059 17.6802 20.8418 18.1501 20.3719C18.6201 19.9019 18.8841 19.2646 18.8841 18.5999V6.69688L13.2458 1.05859ZM13.2458 2.31155V4.81745C13.2458 5.31591 13.4438 5.79395 13.7963 6.14641C14.1487 6.49887 14.6268 6.69688 15.1252 6.69688H17.6311V18.5999C17.6311 18.9322 17.4991 19.2509 17.2641 19.4859C17.0292 19.7209 16.7105 19.8529 16.3782 19.8529H6.35454C6.02224 19.8529 5.70354 19.7209 5.46857 19.4859C5.23359 19.2509 5.10159 18.9322 5.10159 18.5999V3.5645C5.10159 3.2322 5.23359 2.9135 5.46857 2.67853C5.70354 2.44355 6.02224 2.31155 6.35454 2.31155H13.2458Z" fill="black"/>
</svg>
