<svg width="26" height="26" viewBox="0 0 26 26" fill="none" xmlns="http://www.w3.org/2000/svg">
<path d="M4.66658 22.3749C4.74962 22.385 4.83355 22.385 4.91658 22.3749L9.08325 21.3333C9.26809 21.2893 9.43739 21.1957 9.57283 21.0624L22.3749 8.21868C22.7629 7.82834 22.9807 7.30032 22.9807 6.74993C22.9807 6.19954 22.7629 5.67152 22.3749 5.28118L20.7291 3.62493C20.5356 3.43123 20.3058 3.27756 20.0529 3.17272C19.8 3.06788 19.5289 3.01392 19.2551 3.01392C18.9813 3.01392 18.7102 3.06788 18.4573 3.17272C18.2044 3.27756 17.9747 3.43123 17.7812 3.62493L4.97908 16.427C4.84449 16.5631 4.74757 16.7318 4.69783 16.9166L3.65617 21.0833C3.61873 21.218 3.60882 21.359 3.62703 21.4977C3.64524 21.6364 3.6912 21.77 3.76217 21.8905C3.83314 22.0111 3.92766 22.1161 4.04009 22.1993C4.15252 22.2825 4.28057 22.3423 4.41658 22.3749C4.49962 22.385 4.58355 22.385 4.66658 22.3749ZM19.2499 5.09368L20.9062 6.74993L19.2499 8.40618L17.6041 6.74993L19.2499 5.09368ZM6.65617 17.6978L16.1249 8.21868L17.7812 9.87493L8.302 19.3541L6.10408 19.8958L6.65617 17.6978Z" fill="black"/>
</svg>
