<svg width="26" height="26" viewBox="0 0 26 26" fill="none" xmlns="http://www.w3.org/2000/svg">
<path d="M21.521 11.1145C20.7717 10.9789 20.0116 10.9127 19.2501 10.9166C18.8126 10.9166 18.3856 10.9166 17.9585 10.9999C17.4268 10.2904 16.7481 9.70413 15.9689 9.28117C16.6382 8.55018 17.0098 7.59521 17.0106 6.60409C17.0106 5.53769 16.5869 4.51498 15.8329 3.76093C15.0788 3.00687 14.0561 2.58325 12.9897 2.58325C11.9233 2.58325 10.9006 3.00687 10.1466 3.76093C9.39251 4.51498 8.96889 5.53769 8.96889 6.60409C8.96965 7.59521 9.34124 8.55018 10.0106 9.28117C9.23597 9.70633 8.55839 10.2881 8.02097 10.9895C7.61472 10.9166 7.18764 10.9166 6.75014 10.9166C5.98808 10.9195 5.22792 10.9928 4.47931 11.1353C4.23664 11.1797 4.0176 11.3088 3.86118 11.4995C3.70476 11.6903 3.62112 11.9303 3.62514 12.177V20.7708C3.62489 20.9238 3.65836 21.075 3.72318 21.2136C3.78799 21.3522 3.88255 21.4749 4.00014 21.5728C4.11698 21.6714 4.25408 21.743 4.40169 21.7826C4.54931 21.8222 4.70384 21.8288 4.85431 21.802C5.47765 21.6662 6.1124 21.5895 6.75014 21.5728C8.76794 21.5706 10.742 22.161 12.4272 23.2708L12.5626 23.3228C12.7008 23.3828 12.8495 23.4147 13.0001 23.4166C13.0996 23.4153 13.1981 23.3977 13.2918 23.3645H13.3647L13.5001 23.3124C15.2014 22.1742 17.2032 21.5686 19.2501 21.5728C19.8866 21.5758 20.5213 21.6386 21.146 21.7603C21.2964 21.7871 21.451 21.7805 21.5986 21.7409C21.7462 21.7013 21.8833 21.6297 22.0001 21.5312C22.1177 21.4332 22.2123 21.3106 22.2771 21.172C22.3419 21.0333 22.3754 20.8821 22.3751 20.7291V12.1353C22.3742 11.8922 22.2884 11.6571 22.1324 11.4707C21.9764 11.2843 21.7601 11.1583 21.521 11.1145ZM13.0001 4.66659C13.4881 4.70244 13.9444 4.92158 14.2775 5.28001C14.6106 5.63843 14.7957 6.1096 14.7957 6.59888C14.7957 7.08816 14.6106 7.55932 14.2775 7.91775C13.9444 8.27617 13.4881 8.49532 13.0001 8.53117C12.5122 8.49532 12.0558 8.27617 11.7228 7.91775C11.3897 7.55932 11.2046 7.08816 11.2046 6.59888C11.2046 6.1096 11.3897 5.63843 11.7228 5.28001C12.0558 4.92158 12.5122 4.70244 13.0001 4.66659ZM11.9585 20.6353C10.3258 19.8807 8.54875 19.4897 6.75014 19.4895C6.40639 19.4895 6.06264 19.4895 5.70847 19.5416V12.9999C6.58197 12.9022 7.46453 12.9197 8.33347 13.052H8.44806C9.6893 13.2801 10.8788 13.7319 11.9585 14.3853V20.6353ZM13.0001 12.5833C12.5369 12.316 12.0567 12.0794 11.5626 11.8749H11.5001C11.1564 11.7395 10.8126 11.6041 10.4585 11.4999C11.1817 10.9243 12.0758 10.6055 13.0001 10.5937C13.922 10.5995 14.8159 10.9109 15.5418 11.4791C14.6575 11.7552 13.8054 12.1253 13.0001 12.5833ZM20.2918 19.5416C18.1529 19.3267 15.9954 19.6863 14.0418 20.5833V14.3333C15.1235 13.6966 16.3137 13.2657 17.5522 13.0624H17.7606C18.598 12.932 19.4489 12.911 20.2918 12.9999V19.5416Z" fill="black"/>
</svg>
