<svg width="24" height="25" viewBox="0 0 24 25" fill="none" xmlns="http://www.w3.org/2000/svg">
<path d="M19 4.21875H18V3.21875C18 2.66875 17.55 2.21875 17 2.21875C16.45 2.21875 16 2.66875 16 3.21875V4.21875H8V3.21875C8 2.66875 7.55 2.21875 7 2.21875C6.45 2.21875 6 2.66875 6 3.21875V4.21875H5C3.89 4.21875 3.01 5.11875 3.01 6.21875L3 20.2188C3 20.7492 3.21071 21.2579 3.58579 21.633C3.96086 22.008 4.46957 22.2188 5 22.2188H19C20.1 22.2188 21 21.3188 21 20.2188V6.21875C21 5.11875 20.1 4.21875 19 4.21875ZM19 19.2188C19 19.7687 18.55 20.2188 18 20.2188H6C5.45 20.2188 5 19.7687 5 19.2188V9.21875H19V19.2188Z" fill="black"/>
</svg>
