<svg width="23" height="23" viewBox="0 0 23 23" fill="none" xmlns="http://www.w3.org/2000/svg">
<path d="M18.7292 18.4452V6.78698L13.2068 1.26465H6.4573C5.80636 1.26465 5.18208 1.52323 4.7218 1.98352C4.26151 2.4438 4.00293 3.06808 4.00293 3.71902V18.4452C4.00293 19.0962 4.26151 19.7205 4.7218 20.1807C5.18208 20.641 5.80636 20.8996 6.4573 20.8996H16.2748C16.9257 20.8996 17.55 20.641 18.0103 20.1807C18.4706 19.7205 18.7292 19.0962 18.7292 18.4452ZM13.2068 4.9462C13.2068 5.43441 13.4008 5.90262 13.746 6.24783C14.0912 6.59304 14.5594 6.78698 15.0476 6.78698H17.502V18.4452C17.502 18.7707 17.3727 19.0828 17.1425 19.313C16.9124 19.5431 16.6003 19.6724 16.2748 19.6724H6.4573C6.13183 19.6724 5.81969 19.5431 5.58955 19.313C5.35941 19.0828 5.23012 18.7707 5.23012 18.4452V3.71902C5.23012 3.39355 5.35941 3.08141 5.58955 2.85127C5.81969 2.62113 6.13183 2.49183 6.4573 2.49183H13.2068V4.9462Z" fill="black"/>
<path d="M8.71631 8.79883V14.8558V8.79883ZM14.0162 11.8273L8.71631 14.8558L14.0162 11.8273ZM14.0162 11.8273L8.71631 8.79883Z" fill="black"/>
<path d="M14.0162 11.8273L8.71631 8.79883M8.71631 8.79883V14.8558V8.79883ZM14.0162 11.8273L8.71631 14.8558L14.0162 11.8273Z" stroke="black" stroke-linecap="round" stroke-linejoin="round"/>
</svg>
