<svg width="24" height="25" viewBox="0 0 24 25" fill="none" xmlns="http://www.w3.org/2000/svg">
<path d="M20.5875 12.1166L4.08754 3.86656C3.95821 3.80189 3.81295 3.77597 3.66924 3.79194C3.52554 3.80791 3.38951 3.86508 3.27754 3.95656C3.1706 4.04618 3.09079 4.16385 3.04707 4.29635C3.00334 4.42884 2.99745 4.5709 3.03004 4.70656L5.25004 12.7841L3.00004 20.8391C2.96946 20.9524 2.96589 21.0712 2.98961 21.1862C3.01334 21.3011 3.06371 21.4088 3.13665 21.5008C3.2096 21.5927 3.3031 21.6662 3.40964 21.7154C3.51617 21.7646 3.63276 21.7881 3.75004 21.7841C3.86744 21.7834 3.98304 21.7551 4.08754 21.7016L20.5875 13.4516C20.7104 13.3886 20.8135 13.293 20.8855 13.1752C20.9575 13.0575 20.9956 12.9221 20.9956 12.7841C20.9956 12.646 20.9575 12.5107 20.8855 12.3929C20.8135 12.2751 20.7104 12.1795 20.5875 12.1166V12.1166ZM4.91254 19.6166L6.57004 13.5341H13.5V12.0341H6.57004L4.91254 5.95156L18.57 12.7841L4.91254 19.6166Z" fill="black"/>
</svg>
