<svg width="20" height="21" viewBox="0 0 20 21" fill="none" xmlns="http://www.w3.org/2000/svg">
<path d="M9.99933 6.93164C8.97736 6.93164 7.99725 7.33762 7.27461 8.06026C6.55197 8.7829 6.146 9.76301 6.146 10.785C6.146 11.8069 6.55197 12.7871 7.27461 13.5097C7.99725 14.2323 8.97736 14.6383 9.99933 14.6383C11.0213 14.6383 12.0014 14.2323 12.724 13.5097C13.4467 12.7871 13.8527 11.8069 13.8527 10.785C13.8527 9.76301 13.4467 8.7829 12.724 8.06026C12.0014 7.33762 11.0213 6.93164 9.99933 6.93164ZM9.99933 13.2875C9.3354 13.2875 8.69867 13.0237 8.2292 12.5543C7.75974 12.0848 7.496 11.4481 7.496 10.7841C7.496 10.1202 7.75974 9.48348 8.2292 9.01402C8.69867 8.54455 9.3354 8.28081 9.99933 8.28081C10.6633 8.28081 11.3 8.54455 11.7695 9.01402C12.2389 9.48348 12.5027 10.1202 12.5027 10.7841C12.5027 11.4481 12.2389 12.0848 11.7695 12.5543C11.3 13.0237 10.6633 13.2875 9.99933 13.2875Z" fill="black"/>
<path d="M14.0048 7.68827C14.5009 7.68827 14.9031 7.28607 14.9031 6.78993C14.9031 6.2938 14.5009 5.8916 14.0048 5.8916C13.5086 5.8916 13.1064 6.2938 13.1064 6.78993C13.1064 7.28607 13.5086 7.68827 14.0048 7.68827Z" fill="black"/>
<path d="M17.1106 5.87666C16.9177 5.37848 16.6229 4.92607 16.2451 4.54838C15.8672 4.17069 15.4147 3.87606 14.9165 3.68333C14.3334 3.46446 13.7174 3.34611 13.0948 3.33333C12.2923 3.29833 12.0381 3.28833 10.0031 3.28833C7.96813 3.28833 7.7073 3.28833 6.91147 3.33333C6.28929 3.34546 5.67376 3.46383 5.09147 3.68333C4.59308 3.87583 4.14044 4.17039 3.76258 4.5481C3.38472 4.92582 3.08999 5.37835 2.8973 5.87666C2.67839 6.45967 2.56031 7.07569 2.54813 7.69833C2.5123 8.5 2.50146 8.75416 2.50146 10.79C2.50146 12.825 2.50146 13.0842 2.54813 13.8817C2.56063 14.505 2.67813 15.12 2.8973 15.7042C3.09053 16.2023 3.38555 16.6546 3.76349 17.0323C4.14144 17.41 4.59402 17.7046 5.0923 17.8975C5.67349 18.1252 6.28927 18.252 6.91313 18.2725C7.71563 18.3075 7.9698 18.3183 10.0048 18.3183C12.0398 18.3183 12.3006 18.3183 13.0965 18.2725C13.7191 18.2598 14.335 18.1418 14.9181 17.9233C15.4163 17.7302 15.8687 17.4353 16.2464 17.0575C16.6242 16.6797 16.9191 16.2273 17.1123 15.7292C17.3315 15.1458 17.449 14.5308 17.4615 13.9075C17.4973 13.1058 17.5081 12.8517 17.5081 10.8158C17.5081 8.78 17.5081 8.52166 17.4615 7.72416C17.4518 7.09272 17.3331 6.4677 17.1106 5.87666ZM16.0956 13.82C16.0903 14.3002 16.0026 14.776 15.8365 15.2267C15.7113 15.5507 15.5197 15.845 15.274 16.0906C15.0283 16.3361 14.7339 16.5275 14.4098 16.6525C13.9642 16.8179 13.4934 16.9055 13.0181 16.9117C12.2265 16.9483 12.0031 16.9575 9.97313 16.9575C7.94147 16.9575 7.73397 16.9575 6.9273 16.9117C6.45224 16.9058 5.98174 16.8182 5.53647 16.6525C5.2112 16.5283 4.91563 16.3372 4.66887 16.0916C4.42211 15.846 4.22966 15.5513 4.10397 15.2267C3.94017 14.7809 3.85256 14.3107 3.8448 13.8358C3.80896 13.0442 3.80063 12.8208 3.80063 10.7908C3.80063 8.76 3.80063 8.5525 3.8448 7.745C3.85018 7.26501 3.93784 6.78951 4.10397 6.33916C4.35813 5.68166 4.87897 5.16416 5.53647 4.9125C5.98196 4.74761 6.45232 4.65997 6.9273 4.65333C7.7198 4.6175 7.9423 4.6075 9.97313 4.6075C12.004 4.6075 12.2123 4.6075 13.0181 4.65333C13.4935 4.65905 13.9643 4.74672 14.4098 4.9125C14.7339 5.03772 15.0283 5.22933 15.2739 5.47502C15.5196 5.72071 15.7112 6.01506 15.8365 6.33916C16.0003 6.78495 16.0879 7.25513 16.0956 7.73C16.1315 8.5225 16.1406 8.745 16.1406 10.7758C16.1406 12.8058 16.1406 13.0242 16.1048 13.8208H16.0956V13.82Z" fill="black"/>
</svg>
