<svg width="24" height="24" viewBox="0 0 24 24" fill="none" xmlns="http://www.w3.org/2000/svg">
<path d="M9.7483 2.3999C9.41475 2.39991 9.08776 2.4926 8.80383 2.66762C8.51989 2.84265 8.29017 3.09312 8.1403 3.3911L7.4323 4.7999H5.4043C4.60865 4.7999 3.84559 5.11597 3.28298 5.67858C2.72037 6.24119 2.4043 7.00425 2.4043 7.7999V17.3999C2.4043 18.1956 2.72037 18.9586 3.28298 19.5212C3.84559 20.0838 4.60865 20.3999 5.4043 20.3999H9.6043C9.6139 20.2631 9.6355 20.1239 9.6703 19.9835L10.1203 18.1859C10.2595 17.6291 10.5223 17.1107 10.8871 16.6703C9.74599 16.3945 8.74541 15.7103 8.07445 14.747C7.40349 13.7837 7.10862 12.608 7.24558 11.442C7.38253 10.2761 7.94181 9.2007 8.81773 8.41907C9.69366 7.63745 10.8255 7.20374 11.9995 7.1999C13.0756 7.20006 14.1205 7.56163 14.9665 8.22663C15.8125 8.89162 16.4107 9.8215 16.6651 10.8671L16.9243 10.6091C17.5384 9.99505 18.3619 9.63569 19.2297 9.60298C20.0975 9.57027 20.9457 9.86663 21.6043 10.4327V7.7987C21.6043 7.00305 21.2882 6.23999 20.7256 5.67738C20.163 5.11477 19.3999 4.7987 18.6043 4.7987H16.5775L15.8755 3.3947C15.7259 3.09569 15.4961 2.84423 15.2116 2.66853C14.9272 2.49282 14.5994 2.3998 14.2651 2.3999H9.7483ZM15.6007 11.9339C15.5879 11.2276 15.3675 10.5407 14.9671 9.95878C14.5667 9.37682 14.004 8.92552 13.3489 8.66108C12.6939 8.39665 11.9756 8.33076 11.2834 8.47163C10.5912 8.6125 9.9557 8.95391 9.45612 9.45332C8.95655 9.95273 8.61494 10.5881 8.47384 11.2802C8.33274 11.9724 8.39839 12.6908 8.66261 13.3459C8.92684 14.001 9.37795 14.5639 9.95978 14.9645C10.5416 15.3651 11.2284 15.5856 11.9347 15.5987L15.6007 11.9339ZM17.7727 11.4575L11.9767 17.2535C11.6393 17.5913 11.4 18.0143 11.2843 18.4775L10.8343 20.2751C10.7899 20.4539 10.7925 20.6411 10.8419 20.8186C10.8913 20.9961 10.9857 21.1577 11.116 21.2879C11.2463 21.4181 11.4081 21.5124 11.5856 21.5616C11.7631 21.6108 11.9504 21.6133 12.1291 21.5687L13.9267 21.1199C14.3901 21.004 14.8132 20.7643 15.1507 20.4263L20.9467 14.6303C21.3621 14.2083 21.5938 13.6392 21.5914 13.0471C21.589 12.455 21.3526 11.8878 20.9339 11.4691C20.5151 11.0505 19.9478 10.8144 19.3557 10.8122C18.7635 10.81 18.1946 11.042 17.7727 11.4575Z" fill="white"/>
</svg>
