<svg width="22" height="17" viewBox="0 0 22 17" fill="none" xmlns="http://www.w3.org/2000/svg">
<path d="M20.6452 7.94589C21.1192 8.56589 21.1192 9.40289 20.6452 10.0219C19.1522 11.9709 15.5702 15.9839 11.3882 15.9839C7.20619 15.9839 3.62419 11.9709 2.13119 10.0219C1.90058 9.72502 1.77539 9.3598 1.77539 8.98389C1.77539 8.60797 1.90058 8.24275 2.13119 7.94589C3.62419 5.99689 7.20619 1.98389 11.3882 1.98389C15.5702 1.98389 19.1522 5.99689 20.6452 7.94589V7.94589Z" stroke="black" stroke-width="2" stroke-linecap="round" stroke-linejoin="round"/>
<path d="M11.3887 11.9839C13.0455 11.9839 14.3887 10.6407 14.3887 8.98389C14.3887 7.32703 13.0455 5.98389 11.3887 5.98389C9.73182 5.98389 8.38867 7.32703 8.38867 8.98389C8.38867 10.6407 9.73182 11.9839 11.3887 11.9839Z" stroke="black" stroke-width="2" stroke-linecap="round" stroke-linejoin="round"/>
</svg>
