<svg width="23" height="23" viewBox="0 0 23 23" fill="none" xmlns="http://www.w3.org/2000/svg">
<path d="M18.7292 18.4452V6.78698L13.2068 1.26465H6.4573C5.80636 1.26465 5.18208 1.52323 4.7218 1.98352C4.26151 2.4438 4.00293 3.06808 4.00293 3.71902V18.4452C4.00293 19.0962 4.26151 19.7205 4.7218 20.1807C5.18208 20.641 5.80636 20.8996 6.4573 20.8996H16.2748C16.9257 20.8996 17.55 20.641 18.0103 20.1807C18.4706 19.7205 18.7292 19.0962 18.7292 18.4452ZM13.2068 4.9462C13.2068 5.43441 13.4008 5.90262 13.746 6.24783C14.0912 6.59304 14.5594 6.78698 15.0476 6.78698H17.502V18.4452C17.502 18.7707 17.3727 19.0828 17.1425 19.313C16.9124 19.5431 16.6003 19.6724 16.2748 19.6724H6.4573C6.13183 19.6724 5.81969 19.5431 5.58955 19.313C5.35941 19.0828 5.23012 18.7707 5.23012 18.4452V3.71902C5.23012 3.39355 5.35941 3.08141 5.58955 2.85127C5.81969 2.62113 6.13183 2.49183 6.4573 2.49183H13.2068V4.9462Z" fill="black"/>
<path d="M7.19728 18.5522C6.95809 18.4565 6.76538 18.2717 6.65977 18.0368C6.42047 17.5606 6.50023 17.0845 6.75794 16.6844C7.00093 16.3076 7.40344 15.9874 7.85873 15.7186C8.43543 15.3915 9.04503 15.1262 9.67742 14.9271C10.1685 14.0442 10.6038 13.1314 10.9807 12.1941C10.7553 11.6821 10.5787 11.15 10.453 10.6049C10.3475 10.114 10.307 9.62808 10.3965 9.21084C10.4886 8.77641 10.7328 8.38617 11.1942 8.20086C11.4298 8.10637 11.6851 8.0536 11.933 8.10637C12.0577 8.13291 12.1749 8.18688 12.2761 8.26436C12.3774 8.34183 12.4601 8.44087 12.5184 8.55429C12.6263 8.75555 12.6656 8.99117 12.6742 9.21452C12.6828 9.44523 12.6595 9.70048 12.6165 9.96801C12.5134 10.5939 12.2852 11.3596 11.9784 12.1696C12.317 12.8936 12.7194 13.5861 13.181 14.2386C13.7273 14.1955 14.2766 14.2161 14.8181 14.3C15.2648 14.381 15.7188 14.5393 15.9962 14.8706C16.1435 15.0473 16.233 15.2633 16.2416 15.5063C16.2502 15.7419 16.184 15.9751 16.0723 16.1972C15.9755 16.403 15.8256 16.5793 15.6379 16.7077C15.4523 16.8287 15.2332 16.888 15.012 16.8771C14.6058 16.8599 14.2094 16.6365 13.867 16.3653C13.4507 16.0211 13.0755 15.6299 12.7491 15.1995C11.9192 15.2937 11.0991 15.4604 10.2984 15.6977C9.93166 16.3481 9.51306 16.9678 9.04664 17.5508C8.68831 17.9803 8.29929 18.3558 7.90904 18.5166C7.68482 18.618 7.4305 18.6307 7.19728 18.5522ZM8.88956 16.2193C8.68585 16.3126 8.49686 16.4107 8.32629 16.5114C7.92377 16.7494 7.66238 16.9814 7.5323 17.1826C7.41694 17.3606 7.41449 17.4894 7.48321 17.6256C7.49548 17.6526 7.50775 17.6698 7.51512 17.6796C7.52976 17.6757 7.54411 17.6708 7.55807 17.6649C7.72619 17.5962 7.99372 17.3765 8.33733 16.963C8.53275 16.7237 8.71703 16.4755 8.88956 16.2193ZM10.9021 14.5871C11.3119 14.4915 11.7254 14.4125 12.1416 14.3503C11.9182 14.0083 11.7093 13.6571 11.5157 13.2974C11.3233 13.7325 11.1186 14.1622 10.9021 14.5859V14.5871ZM13.9038 15.1394C14.0879 15.3394 14.2671 15.5075 14.4377 15.6425C14.7322 15.8757 14.9371 15.953 15.0488 15.9567C15.0787 15.9606 15.109 15.9541 15.1347 15.9383C15.1858 15.898 15.2255 15.8451 15.2501 15.7849C15.2937 15.7101 15.3185 15.6259 15.3225 15.5394C15.3218 15.5106 15.3104 15.4831 15.2906 15.4621C15.2267 15.386 15.0451 15.2756 14.6549 15.2056C14.4066 15.1641 14.1555 15.1424 13.9038 15.1406V15.1394ZM11.4617 10.8369C11.565 10.5037 11.647 10.1643 11.7072 9.82075C11.7452 9.59004 11.7599 9.39982 11.7538 9.25011C11.7542 9.1675 11.7409 9.08541 11.7145 9.00712C11.6532 9.01472 11.5932 9.03126 11.5366 9.05621C11.4298 9.09916 11.3427 9.18629 11.2961 9.4035C11.247 9.63912 11.2593 9.97905 11.3525 10.4123C11.382 10.5485 11.4188 10.6908 11.463 10.8369H11.4617Z" fill="black"/>
</svg>
