<svg width="15" height="16" viewBox="0 0 15 16" fill="none" xmlns="http://www.w3.org/2000/svg">
<path d="M1.87484 8.79221H3.12484V13.1672C3.12484 13.333 3.19068 13.4919 3.30789 13.6092C3.42511 13.7264 3.58408 13.7922 3.74984 13.7922H11.2498C11.4156 13.7922 11.5746 13.7264 11.6918 13.6092C11.809 13.4919 11.8748 13.333 11.8748 13.1672V8.79221H13.1248C13.2456 8.79232 13.3638 8.75735 13.4651 8.69156C13.5664 8.62577 13.6464 8.53198 13.6955 8.42158C13.7448 8.31125 13.761 8.18895 13.7422 8.06956C13.7233 7.95017 13.6702 7.83883 13.5892 7.74908L7.96421 1.49908C7.72734 1.23533 7.27234 1.23533 7.03546 1.49908L1.41046 7.74908C1.32964 7.83887 1.27658 7.95016 1.25769 8.06948C1.2388 8.1888 1.25489 8.31103 1.30402 8.4214C1.35315 8.53176 1.43322 8.62552 1.53452 8.69133C1.63583 8.75714 1.75403 8.79218 1.87484 8.79221ZM5.59296 8.59471C5.61234 8.65409 6.10109 10.0422 7.49984 10.0422C8.91796 10.0422 9.40109 8.61283 9.40609 8.59784L10.5936 8.98596C10.563 9.08034 9.81421 11.2922 7.49984 11.2922C5.18546 11.2922 4.43671 9.08034 4.40609 8.98659L5.59296 8.59471Z" fill="black"/>
</svg>
