<svg width="25" height="26" viewBox="0 0 25 26" fill="none" xmlns="http://www.w3.org/2000/svg">
<path fill-rule="evenodd" clip-rule="evenodd" d="M17.0052 16.0783L22.6093 21.6824C22.8063 21.8796 22.9169 22.1469 22.9168 22.4255C22.9167 22.7042 22.8059 22.9714 22.6088 23.1684C22.4117 23.3654 22.1444 23.476 21.8657 23.4759C21.5871 23.4758 21.3199 23.365 21.1229 23.1679L15.5187 17.5637C13.8434 18.8613 11.7367 19.4719 9.62718 19.2714C7.51764 19.0708 5.56374 18.0741 4.16296 16.4841C2.76218 14.8941 2.01974 12.8302 2.08668 10.7122C2.15362 8.5942 3.02491 6.58126 4.5233 5.08287C6.02169 3.58448 8.03463 2.71319 10.1526 2.64625C12.2706 2.57931 14.3345 3.32175 15.9246 4.72253C17.5146 6.12331 18.5112 8.07721 18.7118 10.1867C18.9123 12.2963 18.3017 14.403 17.0041 16.0783H17.0052ZM10.4166 17.2252C12.0742 17.2252 13.6639 16.5667 14.836 15.3946C16.0081 14.2225 16.6666 12.6328 16.6666 10.9752C16.6666 9.31755 16.0081 7.72784 14.836 6.55574C13.6639 5.38364 12.0742 4.72516 10.4166 4.72516C8.75902 4.72516 7.16931 5.38364 5.99721 6.55574C4.82511 7.72784 4.16663 9.31755 4.16663 10.9752C4.16663 12.6328 4.82511 14.2225 5.99721 15.3946C7.16931 16.5667 8.75902 17.2252 10.4166 17.2252ZM13.5416 12.0168H11.4583V14.1002C11.4583 14.3764 11.3485 14.6414 11.1532 14.8367C10.9578 15.0321 10.6929 15.1418 10.4166 15.1418C10.1404 15.1418 9.87541 15.0321 9.68006 14.8367C9.48471 14.6414 9.37496 14.3764 9.37496 14.1002V12.0168H7.29163C7.01536 12.0168 6.75041 11.9071 6.55506 11.7117C6.35971 11.5164 6.24996 11.2514 6.24996 10.9752C6.24996 10.6989 6.35971 10.4339 6.55506 10.2386C6.75041 10.0432 7.01536 9.93349 7.29163 9.93349H9.37496V7.85016C9.37496 7.57389 9.48471 7.30894 9.68006 7.11359C9.87541 6.91824 10.1404 6.80849 10.4166 6.80849C10.6929 6.80849 10.9578 6.91824 11.1532 7.11359C11.3485 7.30894 11.4583 7.57389 11.4583 7.85016V9.93349H13.5416C13.8179 9.93349 14.0828 10.0432 14.2782 10.2386C14.4735 10.4339 14.5833 10.6989 14.5833 10.9752C14.5833 11.2514 14.4735 11.5164 14.2782 11.7117C14.0828 11.9071 13.8179 12.0168 13.5416 12.0168Z" fill="white"/>
</svg>
