<svg width="20" height="21" viewBox="0 0 20 21" fill="none" xmlns="http://www.w3.org/2000/svg">
<path d="M16.666 16.7133H3.33268C2.89065 16.7133 2.46673 16.5377 2.15417 16.2251C1.84161 15.9126 1.66602 15.4886 1.66602 15.0466V4.97411C1.68471 4.54477 1.86852 4.13924 2.17908 3.84219C2.48964 3.54515 2.90293 3.37954 3.33268 3.37994H16.666C17.108 3.37994 17.532 3.55554 17.8445 3.8681C18.1571 4.18066 18.3327 4.60458 18.3327 5.04661V15.0466C18.3327 15.4886 18.1571 15.9126 17.8445 16.2251C17.532 16.5377 17.108 16.7133 16.666 16.7133ZM3.33268 6.60328V15.0466H16.666V6.60328L9.99935 11.0466L3.33268 6.60328ZM3.99935 5.04661L9.99935 9.04661L15.9994 5.04661H3.99935Z" fill="black"/>
</svg>
