<svg width="23" height="23" viewBox="0 0 23 23" fill="none" xmlns="http://www.w3.org/2000/svg">
<path d="M13.2458 1.05859H6.35454C5.68993 1.05859 5.05254 1.32261 4.5826 1.79256C4.11265 2.26251 3.84863 2.89989 3.84863 3.5645V18.5999C3.84863 19.2646 4.11265 19.9019 4.5826 20.3719C5.05254 20.8418 5.68993 21.1059 6.35454 21.1059H16.3782C17.0428 21.1059 17.6802 20.8418 18.1501 20.3719C18.6201 19.9019 18.8841 19.2646 18.8841 18.5999V6.69688L13.2458 1.05859ZM13.2458 2.31155V4.81745C13.2458 5.31591 13.4438 5.79395 13.7963 6.14641C14.1487 6.49887 14.6268 6.69688 15.1252 6.69688H17.6311V18.5999C17.6311 18.9322 17.4991 19.2509 17.2641 19.4859C17.0292 19.7209 16.7105 19.8529 16.3782 19.8529H6.35454C6.02224 19.8529 5.70354 19.7209 5.46857 19.4859C5.23359 19.2509 5.10159 18.9322 5.10159 18.5999V3.5645C5.10159 3.2322 5.23359 2.9135 5.46857 2.67853C5.70354 2.44355 6.02224 2.31155 6.35454 2.31155H13.2458Z" fill="black"/>
<path fill-rule="evenodd" clip-rule="evenodd" d="M14.3598 8.14958C13.9072 8.27895 10.026 9.34635 9.95072 9.36213C9.91975 9.36862 9.86136 9.40696 9.82101 9.4473L9.74766 9.52067V12.0208V14.5209L9.65637 14.5069C9.60616 14.4991 9.46132 14.4931 9.33449 14.4933C9.07976 14.4939 8.93702 14.5271 8.68058 14.6452C8.3695 14.7884 8.0223 15.0768 7.85156 15.3336C7.66442 15.6151 7.6119 15.9314 7.71037 16.1839C7.76612 16.327 7.94151 16.5092 8.09544 16.5841C8.61013 16.8346 9.43061 16.6077 9.92616 16.078C10.1613 15.8266 10.2575 15.6245 10.2871 15.3192C10.2964 15.224 10.3041 14.0733 10.3044 12.762L10.305 10.3779L11.6165 10.0155C14.1324 9.3206 14.5039 9.21813 14.5087 9.21792C14.5113 9.21781 14.5135 10.118 14.5135 11.2184C14.5135 13.116 14.5118 13.2183 14.4799 13.2057C14.4032 13.1753 14.0046 13.1725 13.8694 13.2014C13.2715 13.3291 12.6605 13.819 12.4924 14.3056C12.4264 14.4966 12.4295 14.7401 12.4999 14.8916C12.6079 15.1241 12.8403 15.2986 13.1203 15.3575C13.2911 15.3934 13.4106 15.3936 13.6126 15.3582C14.2656 15.2439 14.8597 14.7839 15.0234 14.266L15.0708 14.1161L15.0708 11.1913C15.0708 8.4447 15.0687 8.26244 15.0371 8.20057C14.9461 8.0221 14.835 8.01374 14.3598 8.14958Z" fill="black"/>
</svg>
