<svg width="225" height="69" viewBox="0 0 225 69" fill="none" xmlns="http://www.w3.org/2000/svg">
<path d="M27.5149 50.893V48.9302C27.5426 47.5204 27.5702 46.2487 27.5149 44.9494C27.349 37.9555 25.9388 31.2655 23.3673 25.0732C21.4041 20.3737 18.8049 16.0059 15.6527 12.0528C15.2379 11.5276 14.8231 11.03 14.3807 10.5324C10.6479 8.87372 6.77673 7.46387 2.8503 6.30281C2.04842 6.08166 1.2742 5.80521 0.472321 5.66699C1.88252 6.91098 3.15446 8.32084 4.39875 9.73069C6.94263 12.7163 9.21001 15.9783 11.0626 19.4338C14.1595 25.1562 16.178 31.5143 16.5375 38.0107C16.7864 42.4338 16.2886 46.8845 15.0997 51.1418C13.5236 56.8365 10.7585 62.1442 7.32975 66.9543C6.85968 67.6454 6.33431 68.2812 5.8919 68.9723C18.3901 62.9182 30.8607 56.8641 43.3589 50.81C44.9626 50.036 46.5387 49.2343 48.1425 48.5155C48.1425 47.9627 47.9766 47.4374 47.8936 46.9122C47.0917 43.2079 45.6816 39.6418 43.9119 36.2968C40.9256 38.9506 37.9393 41.6045 34.953 44.2583L27.4873 50.893H27.5149Z" fill="url(#paint0_linear_2192_6560)"/>
<path d="M5.17307 0C6.66622 0.248798 8.13171 0.663462 9.59721 1.05048C16.4823 2.93029 23.0909 5.86058 29.0358 9.8137C35.3955 14.0433 41.0363 19.4062 45.4328 25.6815C46.4559 27.1743 47.4236 28.6947 48.2255 30.3257C48.3085 30.4363 48.1702 30.5192 48.1149 30.5745C46.6218 31.9014 45.101 33.256 43.6078 34.5829C38.6583 38.9784 33.7088 43.4014 28.7316 47.7969C28.7316 46.47 28.7316 45.143 28.7316 43.8437C28.5657 37.0156 27.1832 30.1875 24.5564 23.8846C22.5931 19.1851 19.994 14.762 16.7864 10.8089C14.4638 7.87861 11.8369 5.19711 8.93359 2.79207C7.71695 1.79687 6.47266 0.829327 5.14542 0.0276442L5.17307 0Z" fill="url(#paint1_linear_2192_6560)"/>
<path d="M109.555 20.3461H109.638C110.882 20.2908 112.154 20.3185 113.399 20.2908C113.095 22.1706 112.68 24.0228 112.376 25.875C111.988 27.8101 111.657 29.7728 111.242 31.7079C111.27 31.7079 111.325 31.6526 111.353 31.625C112.099 30.6021 112.929 29.6899 113.73 28.7223C114.449 27.893 115.113 27.036 115.832 26.2343C117.436 26.2343 119.039 26.2343 120.643 26.2343C119.703 27.2019 118.708 28.1141 117.74 29.0541C116.827 29.911 115.97 30.8233 115.03 31.6526C116.274 34.2235 117.491 36.7944 118.708 39.393C117.27 39.393 115.804 39.393 114.366 39.393C113.675 37.7896 113.012 36.131 112.348 34.5276C112.237 34.2788 112.154 34.03 112.071 33.7812C111.601 34.1682 111.187 34.5829 110.772 34.9976C110.634 35.1081 110.578 35.274 110.578 35.4399C110.329 36.7391 110.053 38.0384 109.859 39.3377C108.56 39.3377 107.26 39.3377 105.961 39.3377C107.011 33.7536 108.09 28.1418 109.14 22.5577C109.334 21.8113 109.362 21.0096 109.61 20.2632L109.555 20.3461Z" fill="url(#paint2_linear_2192_6560)"/>
<path d="M69.1295 21.2307C70.4567 21.1201 71.784 21.1477 73.0836 21.3136C74.3555 21.5624 75.6551 22.0876 76.5399 23.1105C77.5907 24.3268 77.646 26.179 76.8441 27.5335C76.1805 28.6946 74.9638 29.3857 73.7195 29.7727C74.6044 30.0768 75.4616 30.602 75.9593 31.4314C76.7888 32.7307 76.7888 34.4722 76.1528 35.8545C75.5169 37.1814 74.3002 38.1489 72.9453 38.7295C71.701 39.227 70.3738 39.4206 69.0189 39.5311C66.9174 39.5311 64.7606 39.6417 62.6868 39.2547C63.2951 35.7715 64.0141 32.2883 64.65 28.7775C65.1201 26.4001 65.5349 23.9951 66.0326 21.59C67.0557 21.3689 68.1064 21.2583 69.1571 21.2307H69.1295ZM69.3783 24.3268C69.0742 25.709 68.853 27.0912 68.5765 28.4734C69.5443 28.4734 70.5397 28.5564 71.4522 28.2523C72.0881 28.0864 72.6965 27.7547 73.0559 27.2018C73.6089 26.4001 73.4983 25.0732 72.5582 24.5756C71.5904 24.078 70.4291 24.1886 69.3783 24.3268ZM67.9682 31.3208C67.6087 33.0071 67.3598 34.721 66.9727 36.435C67.8299 36.435 68.6594 36.4903 69.5166 36.435C70.512 36.2691 71.5628 35.8544 72.0881 34.9698C72.6688 33.9746 72.5306 32.4542 71.4522 31.846C70.4014 31.2379 69.1295 31.3484 67.9682 31.3484V31.3208Z" fill="url(#paint3_linear_2192_6560)"/>
<path d="M80.4387 27.036C82.3466 26.1514 84.5034 25.7091 86.6049 25.9579C87.6279 26.0684 88.651 26.4278 89.37 27.1742C90.1165 28.0035 90.4483 29.1646 90.4207 30.2704C90.5036 31.7908 89.8953 33.2283 89.6465 34.7211C89.287 36.3244 89.0105 37.9278 88.7063 39.5588C87.6279 39.5588 86.5219 39.5588 85.4435 39.5588C85.3882 39.1165 85.3329 38.6466 85.3053 38.2043C84.3375 39.1994 82.9273 39.7247 81.5724 39.6694C80.577 39.6694 79.5262 39.3377 78.8073 38.6189C78.3649 38.2043 78.116 37.6237 77.9778 37.0432C77.7842 35.4675 78.4202 33.8365 79.6092 32.786C80.5217 31.9567 81.7107 31.4591 82.872 31.1273C84.0886 30.8509 85.3053 30.685 86.5496 30.7127C86.5496 30.0769 86.3284 29.4134 85.7477 29.0817C85.3606 28.8052 84.8352 28.7776 84.3651 28.7776C83.2038 28.7499 82.0978 29.1369 81.0194 29.524C80.7705 28.7223 80.6323 27.8653 80.4111 27.0636L80.4387 27.036ZM83.6739 33.56C82.9826 33.8641 82.236 34.2788 81.9595 35.0252C81.7383 35.5504 81.8489 36.2139 82.2084 36.6562C82.4849 36.905 82.872 37.0432 83.2591 37.0432C84.1716 36.9879 84.9458 36.4074 85.4435 35.661C85.9689 34.8869 86.1901 33.947 86.1624 33.0071C85.3053 33.0624 84.4757 33.2836 83.6739 33.5877V33.56Z" fill="url(#paint4_linear_2192_6560)"/>
<path d="M96.8911 28.4459C97.7759 27.2019 99.1308 26.2343 100.652 26.0132C101.536 25.9026 102.477 25.9026 103.251 26.3173C104.219 26.7872 104.799 27.8653 104.882 28.9158C105.048 31.0444 104.384 33.1177 104.053 35.1911C103.776 36.6009 103.527 38.0108 103.251 39.4206C101.951 39.4206 100.652 39.4206 99.3244 39.4206C99.7391 37.2367 100.154 35.0528 100.569 32.8413C100.707 31.8185 101.066 30.768 100.679 29.7728C100.458 29.1646 99.6838 28.9711 99.1308 29.137C98.3013 29.3858 97.693 30.0769 97.2782 30.7956C96.5869 31.9567 96.2828 33.3112 96.0892 34.6658C95.785 36.1862 95.5362 37.7067 95.232 39.2271C95.232 39.4483 95.0108 39.393 94.8726 39.393C93.6836 39.393 92.4669 39.393 91.278 39.393C91.4992 38.5084 91.5821 37.6237 91.8033 36.7391C92.4116 33.2283 93.1859 29.7451 93.6836 26.2343C94.8173 26.2343 95.9786 26.2343 97.1123 26.2343C97.0846 26.9531 96.9464 27.6995 96.8911 28.4182V28.4459Z" fill="url(#paint5_linear_2192_6560)"/>
<path d="M152.027 20.3739C152.608 20.2633 153.188 20.3462 153.797 20.3186C154.516 20.3186 155.262 20.2633 155.981 20.3462C154.764 26.7044 153.548 33.0626 152.331 39.4208C151.032 39.4208 149.732 39.4208 148.432 39.4208C148.847 36.9604 149.373 34.5277 149.815 32.0674C150.285 29.69 150.727 27.3402 151.197 24.9628C151.446 23.4147 151.833 21.8943 152.055 20.3462L152.027 20.3739Z" fill="url(#paint6_linear_2192_6560)"/>
<path d="M181.641 20.4568C181.641 20.4568 181.669 20.3738 181.696 20.3462C182.968 20.3462 184.268 20.3462 185.54 20.3462C185.18 22.5854 184.683 24.8246 184.296 27.0637C183.577 30.7404 182.885 34.4171 182.166 38.0938C182.083 38.5637 182.001 39.0337 181.89 39.476C180.59 39.476 179.291 39.476 177.964 39.476C178.102 38.9508 178.212 38.4255 178.295 37.8726C179.401 32.0673 180.507 26.2897 181.613 20.4844L181.641 20.4568Z" fill="url(#paint7_linear_2192_6560)"/>
<path d="M187.697 20.3461C188.996 20.2908 190.296 20.3461 191.595 20.3461C191.098 22.8617 190.545 25.3497 190.047 27.8653C191.07 26.6766 192.619 25.9579 194.167 25.9855C195.218 25.9855 196.268 26.4002 196.96 27.1742C197.54 27.8377 197.872 28.667 198.038 29.524C198.398 32.4543 197.374 35.5781 195.218 37.5961C193.973 38.7572 192.342 39.4759 190.655 39.6971H188.167C187.005 39.5588 185.761 39.0613 185.153 37.9831C184.489 36.8774 184.683 35.5228 184.849 34.3341C185.678 30.1875 186.508 26.0408 187.337 21.8942C187.448 21.3966 187.475 20.8437 187.697 20.3737V20.3461ZM191.955 29.1646C191.236 29.3028 190.628 29.7451 190.185 30.3257C189.466 31.2379 189.162 32.3713 188.969 33.5048C188.803 34.1959 188.664 34.9146 188.747 35.6057C188.803 36.0204 189.052 36.435 189.439 36.6009C190.075 36.905 190.849 36.7391 191.43 36.435C192.093 36.048 192.646 35.4675 193.033 34.7764C193.669 33.7259 194.029 32.4819 194.001 31.2656C194.001 30.7403 193.89 30.1598 193.559 29.7451C193.199 29.2476 192.536 29.054 191.955 29.1646Z" fill="url(#paint8_linear_2192_6560)"/>
<path d="M124.68 22.5853C125.897 21.5901 127.473 21.1478 128.994 21.0096C130.708 20.899 132.478 21.1202 134.026 21.8942C133.611 22.9723 133.197 24.0781 132.782 25.1839C131.759 24.631 130.57 24.3822 129.381 24.3822C128.579 24.3822 127.749 24.5757 127.169 25.1286C126.643 25.6262 126.533 26.5385 126.975 27.119C127.501 27.8101 128.275 28.1971 129.021 28.6394C130.155 29.2476 131.316 29.9663 132.091 31.0445C132.837 32.0949 133.058 33.4772 132.809 34.7211C132.644 35.8822 132.091 36.988 131.233 37.7897C130.072 38.9231 128.468 39.476 126.892 39.6971H124.21C122.883 39.5312 121.5 39.2272 120.367 38.4808C120.754 37.4026 121.251 36.3245 121.639 35.2464C123.049 36.0204 124.625 36.4627 126.256 36.3798C127.03 36.3245 127.86 36.0757 128.385 35.4399C128.883 34.8317 128.911 33.8918 128.441 33.256C127.971 32.6478 127.307 32.2885 126.643 31.9014C125.676 31.4038 124.708 30.8233 123.961 30.0216C123.132 29.2199 122.579 28.0865 122.606 26.9255C122.523 25.2668 123.325 23.6082 124.652 22.5853H124.68Z" fill="url(#paint9_linear_2192_6560)"/>
<path d="M204.066 26.0962C205.338 25.875 206.638 25.8198 207.909 26.0686C208.628 26.2344 209.375 26.5385 209.9 27.0637C210.647 27.7549 210.979 28.7777 211.062 29.7729C211.117 30.6851 211.062 31.5974 210.813 32.482C210.232 34.8318 209.817 37.2092 209.347 39.5589C208.269 39.5589 207.191 39.5589 206.112 39.5589C206.002 39.1166 206.002 38.6467 206.002 38.2044C204.674 39.5037 202.628 40.0013 200.859 39.4484C199.946 39.1719 199.116 38.5085 198.785 37.5686C198.37 36.5457 198.619 35.4123 199.034 34.4171C199.642 33.0625 200.858 32.095 202.213 31.5421C203.789 30.9063 205.504 30.6851 207.191 30.7128C207.191 30.1046 206.997 29.4135 206.444 29.0818C205.78 28.6395 204.923 28.75 204.177 28.8053C203.319 28.9436 202.49 29.1924 201.716 29.5241C201.467 28.7224 201.356 27.8654 201.08 27.0637C202.02 26.5662 203.043 26.3174 204.066 26.0962ZM204.094 33.6984C203.485 33.9748 202.849 34.4171 202.628 35.0806C202.407 35.6611 202.518 36.3799 203.015 36.7669C203.402 37.0433 203.928 37.1262 204.398 36.9604C205.255 36.7392 205.919 36.1034 206.333 35.3294C206.693 34.6106 206.886 33.8089 206.859 32.9796C205.919 33.0625 204.978 33.2837 204.094 33.6984Z" fill="url(#paint10_linear_2192_6560)"/>
<path d="M158.331 26.8149C159.354 26.2344 160.516 25.9856 161.677 25.9579C162.921 25.9303 164.193 26.0685 165.327 26.6214C165.051 27.5613 164.691 28.4735 164.415 29.4134C163.613 29.0541 162.756 28.8606 161.898 28.8329C161.345 28.8329 160.709 28.9435 160.295 29.3582C159.99 29.7175 160.018 30.2981 160.378 30.6298C161.014 31.238 161.926 31.4868 162.645 32.012C163.53 32.5925 164.359 33.4219 164.553 34.5C164.719 35.6334 164.47 36.8221 163.779 37.7344C162.838 38.9231 161.345 39.4759 159.907 39.6695H157.419C156.396 39.5036 155.373 39.2824 154.516 38.7019C154.875 37.7896 155.152 36.8774 155.483 35.9651C156.645 36.4627 157.861 36.9327 159.161 36.8774C159.714 36.8774 160.35 36.5733 160.543 35.9928C160.709 35.5228 160.433 35.0252 160.073 34.7211C159.493 34.2235 158.746 34.0024 158.11 33.5601C157.391 33.0901 156.728 32.4543 156.396 31.6526C156.119 30.9062 156.147 30.0769 156.341 29.3305C156.645 28.2524 157.419 27.3678 158.387 26.8425L158.331 26.8149Z" fill="url(#paint11_linear_2192_6560)"/>
<path d="M169.447 27.2848C170.996 26.1514 173.014 25.7091 174.922 26.0408C175.862 26.2343 176.775 26.649 177.383 27.3677C177.881 27.9206 178.212 28.667 178.268 29.4134C178.323 30.1874 178.295 30.9891 177.908 31.6802C177.411 32.7031 176.36 33.3389 175.309 33.7259C174.673 33.9194 174.009 34.1129 173.346 34.1682C172.185 34.3064 170.996 34.3894 169.807 34.3341C169.862 34.8593 169.972 35.4398 170.36 35.8269C170.94 36.435 171.825 36.6285 172.627 36.6562C173.927 36.6562 175.254 36.3798 176.415 35.7992C176.47 36.7668 176.664 37.7067 176.664 38.6742C175.558 39.1718 174.369 39.5035 173.18 39.6141H170.664C169.392 39.4759 168.092 38.923 167.263 37.9002C166.599 37.0985 166.24 36.0757 166.129 35.0528C166.074 34.0853 166.046 33.0901 166.323 32.1502C166.765 30.2151 167.871 28.3906 169.502 27.2295L169.447 27.2848ZM170.996 29.8557C170.608 30.3257 170.304 30.8785 170.166 31.4867C171.051 31.5144 171.936 31.4591 172.793 31.3485C173.346 31.2103 173.982 31.0997 174.369 30.6298C174.673 30.298 174.701 29.7451 174.452 29.3858C174.286 29.1093 173.982 28.9711 173.678 28.8605C172.682 28.667 171.632 29.0817 170.968 29.8557H170.996Z" fill="url(#paint12_linear_2192_6560)"/>
<path d="M136.321 26.262C137.621 26.262 138.92 26.262 140.22 26.262C139.833 28.3629 139.418 30.4639 139.031 32.5648C138.865 33.3389 138.755 34.1129 138.699 34.887C138.699 35.3846 138.755 35.9927 139.225 36.3245C139.722 36.6562 140.414 36.5733 140.939 36.2968C141.686 35.8545 142.183 35.1358 142.543 34.3617C143.123 33.1454 143.234 31.7908 143.51 30.4915C143.787 29.0817 144.036 27.6718 144.312 26.262C145.612 26.262 146.912 26.262 148.211 26.262C147.548 29.8281 146.856 33.3665 146.22 36.9326C146.054 37.762 145.999 38.6189 145.806 39.4483C144.644 39.4483 143.51 39.4483 142.349 39.4483C142.46 38.7295 142.515 38.0108 142.598 37.292C141.658 38.4531 140.386 39.4483 138.865 39.6694H137.178C136.321 39.5312 135.519 39.006 135.105 38.2043C134.496 36.9879 134.579 35.5781 134.8 34.3064C135.298 31.6249 135.824 28.9435 136.321 26.2896V26.262Z" fill="url(#paint13_linear_2192_6560)"/>
<path d="M219.993 26.8427C220.795 26.4833 221.707 26.5939 222.537 26.7874C223.477 27.0362 224.334 27.7826 224.5 28.7778V29.8282C223.919 29.6624 223.283 29.6347 222.675 29.8282C222.011 30.0494 221.458 30.4917 220.988 31.0169C220.905 30.6576 220.822 30.2706 220.601 29.9388C220.463 29.69 220.214 29.4412 219.91 29.4412C219.136 29.3583 218.472 29.8559 218.002 30.4364C217.366 31.2657 217.007 32.2333 216.73 33.2285C216.454 34.2513 216.398 35.3294 216.177 36.3799C216.039 37.3751 215.845 38.3703 215.707 39.3931C214.407 39.3931 213.108 39.3931 211.808 39.3931C211.891 38.6191 212.085 37.8727 212.223 37.0987C212.665 34.5831 213.274 32.0674 213.578 29.5242C213.688 28.6119 213.716 27.7273 213.827 26.815C214.96 26.815 216.066 26.815 217.2 26.815C217.2 27.6443 217.145 28.5013 216.896 29.303C217.808 28.3355 218.749 27.3403 219.993 26.7874V26.8427Z" fill="url(#paint14_linear_2192_6560)"/>
<path d="M64.2353 55.565C63.4888 55.3162 62.9358 54.9844 62.5763 54.6251L63.4888 53.4917C63.8482 53.851 64.3459 54.1275 64.9819 54.3486C65.6179 54.5698 66.2815 54.6804 67.0281 54.6804C67.9959 54.6804 68.7701 54.5145 69.3231 54.2104C69.8761 53.9063 70.2079 53.464 70.3185 52.9111C70.4015 52.5241 70.3462 52.1924 70.1526 51.9712C69.9314 51.7501 69.6549 51.5842 69.2955 51.4736C68.936 51.3631 68.4383 51.2525 67.8023 51.1419C66.9728 50.976 66.3092 50.8102 65.8114 50.6443C65.3137 50.4784 64.9266 50.1744 64.6501 49.7597C64.3736 49.345 64.3183 48.7921 64.4842 48.0734C64.7054 47.1611 65.2308 46.4424 66.1156 45.8619C67.0004 45.2813 68.1065 45.0049 69.4337 45.0049C70.125 45.0049 70.8163 45.0878 71.4522 45.2813C72.1159 45.4748 72.6136 45.696 73.0007 46.0001L72.0882 47.1611C71.3416 46.553 70.3462 46.2489 69.1296 46.2489C68.1894 46.2489 67.4705 46.4147 66.9175 46.7465C66.3645 47.0782 66.0327 47.4929 65.9221 48.0457C65.8391 48.4604 65.8944 48.7921 66.088 49.0409C66.3092 49.2897 66.5857 49.4556 66.9451 49.5938C67.3046 49.7044 67.83 49.8426 68.4936 49.9532C69.3231 50.1191 69.9591 50.2849 70.4568 50.4508C70.9269 50.6167 71.314 50.8931 71.5905 51.2801C71.867 51.6671 71.9223 52.22 71.7564 52.9111C71.5352 53.851 70.9822 54.5974 70.0697 55.1503C69.1572 55.7032 67.9959 55.9796 66.6133 55.9796C65.7285 55.9796 64.9266 55.8414 64.18 55.5926L64.2353 55.565Z" fill="url(#paint15_linear_2192_6560)"/>
<path d="M82.5402 46.0554C83.1208 46.7465 83.2591 47.797 82.9549 49.1792L81.4065 55.8415H80.0239L80.411 54.1552C79.9686 54.7081 79.3603 55.1504 78.669 55.4545C77.9501 55.7585 77.1759 55.9244 76.2911 55.9244C75.1021 55.9244 74.1896 55.648 73.6366 55.0674C73.0836 54.4869 72.89 53.7405 73.0835 52.8006C73.2771 51.8607 73.8025 51.142 74.5767 50.5891C75.3786 50.0362 76.4846 49.7597 77.9225 49.7597H81.3512L81.4894 49.0963C81.7106 48.1564 81.6 47.4653 81.2129 46.9677C80.7982 46.4977 80.1069 46.2489 79.1114 46.2489C78.4202 46.2489 77.7566 46.3595 77.0653 46.5807C76.374 46.8018 75.7657 47.1059 75.2403 47.5206L74.8256 46.4424C75.4892 45.9725 76.2081 45.6131 77.0376 45.3643C77.8672 45.1155 78.6967 44.9773 79.5539 44.9773C80.9641 44.9773 81.9595 45.3367 82.5402 46.0278V46.0554ZM79.0008 54.2381C79.6645 53.8511 80.2451 53.3259 80.6875 52.6071L81.1023 50.8379H77.7289C75.8763 50.8379 74.8256 51.4737 74.5214 52.773C74.3831 53.4088 74.5214 53.9064 74.9085 54.2658C75.2956 54.6251 75.9316 54.8186 76.7888 54.8186C77.6459 54.8186 78.3649 54.6251 79.0285 54.2658L79.0008 54.2381Z" fill="url(#paint16_linear_2192_6560)"/>
<path d="M86.6326 55.2608C85.9137 54.7909 85.416 54.1274 85.1118 53.2981C84.8077 52.4688 84.8077 51.5289 85.0565 50.4784C85.3054 49.4279 85.7478 48.488 86.4114 47.6587C87.075 46.8293 87.8769 46.1659 88.8171 45.7236C89.7572 45.2536 90.7526 45.0325 91.7757 45.0325C92.7988 45.0325 93.6836 45.2536 94.4302 45.7236C95.1491 46.1935 95.6468 46.8293 95.9233 47.6587C96.1998 48.488 96.2275 49.4279 95.9786 50.4784C95.7298 51.5289 95.2874 52.4688 94.6237 53.2981C93.9601 54.1274 93.1582 54.7909 92.2181 55.2608C91.278 55.7308 90.2825 55.9519 89.2595 55.9519C88.2364 55.9519 87.3516 55.7308 86.605 55.2608H86.6326ZM91.7481 54.1551C92.4393 53.7957 93.02 53.3257 93.5177 52.6623C94.0154 52.0265 94.3472 51.2801 94.5408 50.4784C94.7343 49.6767 94.7343 48.9303 94.5408 48.2945C94.3472 47.6587 93.9878 47.1611 93.4624 46.8017C92.937 46.4423 92.3011 46.2765 91.5268 46.2765C90.7526 46.2765 90.0337 46.4423 89.3424 46.8017C88.6512 47.1611 88.0705 47.631 87.5728 48.2945C87.075 48.9303 86.7432 49.6767 86.5497 50.4784C86.3561 51.2801 86.3561 52.0265 86.5497 52.6623C86.7432 53.2981 87.1027 53.7957 87.6281 54.1551C88.1534 54.5144 88.7894 54.6803 89.5636 54.6803C90.3379 54.6803 91.0568 54.5144 91.7481 54.1551Z" fill="url(#paint17_linear_2192_6560)"/>
<path d="M102.504 45.5578C103.251 45.1984 104.136 45.0049 105.131 45.0049L104.799 46.4147H104.467C103.334 46.4147 102.366 46.7465 101.564 47.4376C100.762 48.1287 100.209 49.0962 99.9326 50.3679L98.6606 55.8414H97.1951L99.6837 45.0878H101.066L100.569 47.1888C101.066 46.47 101.702 45.9171 102.476 45.5578H102.504Z" fill="url(#paint18_linear_2192_6560)"/>
<path d="M113.979 46.0554C114.56 46.7465 114.698 47.797 114.394 49.1792L112.846 55.8415H111.463L111.85 54.1552C111.408 54.7081 110.799 55.1504 110.108 55.4545C109.389 55.7585 108.615 55.9244 107.73 55.9244C106.541 55.9244 105.629 55.648 105.076 55.0674C104.523 54.4869 104.329 53.7405 104.523 52.8006C104.716 51.8607 105.242 51.142 106.016 50.5891C106.818 50.0362 107.924 49.7597 109.362 49.7597H112.79L112.928 49.0963C113.15 48.1564 113.039 47.4653 112.652 46.9677C112.237 46.4977 111.546 46.2489 110.551 46.2489C109.859 46.2489 109.196 46.3595 108.504 46.5807C107.813 46.8018 107.205 47.1059 106.679 47.5206L106.265 46.4424C106.928 45.9725 107.647 45.6131 108.477 45.3643C109.306 45.1155 110.136 44.9773 110.993 44.9773C112.403 44.9773 113.399 45.3367 113.979 46.0278V46.0554ZM110.44 54.2381C111.104 53.8511 111.684 53.3259 112.127 52.6071L112.541 50.8379H109.168C107.315 50.8379 106.265 51.4737 105.96 52.773C105.822 53.4088 105.96 53.9064 106.348 54.2658C106.735 54.6251 107.371 54.8186 108.228 54.8186C109.085 54.8186 109.804 54.6251 110.468 54.2658L110.44 54.2381Z" fill="url(#paint19_linear_2192_6560)"/>
<path d="M130.653 46.0554C131.233 46.7465 131.372 47.797 131.068 49.1792L129.519 55.8415H128.137L128.524 54.1552C128.081 54.7081 127.473 55.1504 126.782 55.4545C126.063 55.7585 125.289 55.9244 124.404 55.9244C123.215 55.9244 122.302 55.648 121.749 55.0674C121.196 54.4869 121.003 53.7405 121.196 52.8006C121.39 51.8607 121.915 51.142 122.689 50.5891C123.491 50.0362 124.597 49.7597 126.035 49.7597H129.464L129.602 49.0963C129.823 48.1564 129.713 47.4653 129.326 46.9677C128.911 46.4977 128.22 46.2489 127.224 46.2489C126.533 46.2489 125.869 46.3595 125.178 46.5807C124.487 46.8018 123.878 47.1059 123.353 47.5206L122.938 46.4424C123.602 45.9725 124.321 45.6131 125.15 45.3643C125.98 45.1155 126.809 44.9773 127.667 44.9773C129.077 44.9773 130.072 45.3367 130.653 46.0278V46.0554ZM127.113 54.2381C127.777 53.8511 128.358 53.3259 128.8 52.6071L129.215 50.8379H125.842C123.989 50.8379 122.938 51.4737 122.634 52.773C122.496 53.4088 122.634 53.9064 123.021 54.2658C123.408 54.6251 124.044 54.8186 124.901 54.8186C125.759 54.8186 126.478 54.6251 127.141 54.2658L127.113 54.2381Z" fill="url(#paint20_linear_2192_6560)"/>
<path d="M148.432 45.6959C149.151 46.1659 149.649 46.8017 149.898 47.631C150.174 48.4604 150.174 49.4003 149.925 50.4784C149.677 51.5565 149.234 52.5241 148.571 53.3534C147.907 54.1827 147.133 54.8185 146.22 55.2885C145.308 55.7584 144.34 55.9796 143.317 55.9796C142.432 55.9796 141.686 55.7861 141.077 55.4267C140.469 55.0673 139.999 54.5421 139.722 53.851L138.34 59.8498H136.874L140.275 45.1154H141.658L141.16 47.244C141.768 46.5253 142.46 46 143.262 45.613C144.064 45.226 144.921 45.0325 145.833 45.0325C146.856 45.0325 147.713 45.2536 148.405 45.7236L148.432 45.6959ZM145.695 54.1551C146.386 53.7957 146.994 53.3257 147.492 52.6623C147.99 51.9988 148.322 51.2801 148.515 50.4784C148.709 49.6767 148.709 48.9303 148.515 48.2945C148.322 47.6587 147.935 47.1611 147.409 46.8017C146.884 46.4423 146.248 46.2765 145.474 46.2765C144.699 46.2765 143.981 46.4423 143.289 46.8017C142.598 47.1611 142.017 47.6587 141.52 48.2945C141.022 48.9303 140.69 49.6491 140.497 50.4784C140.303 51.3077 140.303 52.0265 140.497 52.6623C140.69 53.2981 141.05 53.7957 141.575 54.1551C142.1 54.5144 142.736 54.6803 143.51 54.6803C144.285 54.6803 144.976 54.5144 145.667 54.1551H145.695Z" fill="url(#paint21_linear_2192_6560)"/>
<path d="M156.451 45.5578C157.198 45.1984 158.082 45.0049 159.078 45.0049L158.746 46.4147H158.414C157.281 46.4147 156.313 46.7465 155.511 47.4376C154.709 48.1287 154.156 49.0962 153.88 50.3679L152.608 55.8414H151.142L153.631 45.0878H155.013L154.516 47.1888C155.013 46.47 155.649 45.9171 156.423 45.5578H156.451Z" fill="url(#paint22_linear_2192_6560)"/>
<path d="M165.438 55.2608C164.719 54.7909 164.221 54.1274 163.917 53.2981C163.613 52.4688 163.613 51.5289 163.862 50.4784C164.11 49.4279 164.553 48.488 165.216 47.6587C165.88 46.8293 166.682 46.1659 167.622 45.7236C168.562 45.2536 169.558 45.0325 170.581 45.0325C171.604 45.0325 172.489 45.2536 173.235 45.7236C173.954 46.1935 174.452 46.8293 174.728 47.6587C175.005 48.488 175.033 49.4279 174.784 50.4784C174.535 51.5289 174.092 52.4688 173.429 53.2981C172.765 54.1274 171.963 54.7909 171.023 55.2608C170.083 55.7308 169.088 55.9519 168.065 55.9519C167.041 55.9519 166.157 55.7308 165.41 55.2608H165.438ZM170.553 54.1551C171.244 53.7957 171.825 53.3257 172.323 52.6623C172.82 52.0265 173.152 51.2801 173.346 50.4784C173.539 49.6767 173.539 48.9303 173.346 48.2945C173.152 47.6587 172.793 47.1611 172.267 46.8017C171.742 46.4423 171.106 46.2765 170.332 46.2765C169.558 46.2765 168.839 46.4423 168.147 46.8017C167.456 47.1611 166.876 47.631 166.378 48.2945C165.88 48.9303 165.548 49.6767 165.355 50.4784C165.161 51.2801 165.161 52.0265 165.355 52.6623C165.548 53.2981 165.908 53.7957 166.433 54.1551C166.958 54.5144 167.594 54.6803 168.369 54.6803C169.143 54.6803 169.862 54.5144 170.553 54.1551Z" fill="url(#paint23_linear_2192_6560)"/>
<path d="M181.309 45.5578C182.056 45.1984 182.941 45.0049 183.936 45.0049L183.604 46.4147H183.272C182.139 46.4147 181.171 46.7465 180.369 47.4376C179.567 48.1287 179.014 49.0962 178.738 50.3679L177.466 55.8414H176L178.489 45.0878H179.871L179.374 47.1888C179.871 46.47 180.507 45.9171 181.282 45.5578H181.309Z" fill="url(#paint24_linear_2192_6560)"/>
<path d="M194.36 55.2056C194.029 55.4544 193.642 55.6479 193.227 55.7585C192.784 55.8967 192.37 55.952 191.927 55.952C190.904 55.952 190.213 55.6755 189.77 55.1227C189.356 54.5698 189.245 53.7957 189.494 52.8005L190.987 46.3041H189.052L189.328 45.0878H191.264L191.817 42.738H193.282L192.729 45.0878H195.992L195.715 46.3041H192.453L190.959 52.7176C190.821 53.3534 190.849 53.851 191.098 54.1827C191.347 54.5145 191.761 54.6803 192.37 54.6803C192.674 54.6803 192.978 54.6251 193.282 54.5421C193.586 54.4592 193.863 54.321 194.112 54.1275L194.388 55.1779L194.36 55.2056Z" fill="url(#paint25_linear_2192_6560)"/>
<path d="M207.661 45.0876L199.504 57.1405C198.84 58.1634 198.176 58.8545 197.485 59.2968C196.794 59.7391 196.075 59.9326 195.273 59.9326C194.748 59.9326 194.278 59.8497 193.863 59.6838C193.448 59.5179 193.116 59.2691 192.867 58.9374L193.78 57.8593C194.195 58.4122 194.803 58.6886 195.55 58.6886C196.047 58.6886 196.49 58.5504 196.904 58.2739C197.319 57.9975 197.734 57.5276 198.204 56.8917L198.923 55.8413L196.6 45.0876H198.121L200.057 54.2379L206.223 45.0876H207.661Z" fill="url(#paint26_linear_2192_6560)"/>
<path d="M120.339 41.7981L118.569 43.2356L119.675 44.6731L121.445 43.2356L120.339 41.7981Z" fill="url(#paint27_linear_2192_6560)"/>
<path d="M162.534 41.7981L160.765 43.2356L161.871 44.6731L163.64 43.2356L162.534 41.7981Z" fill="url(#paint28_linear_2192_6560)"/>
<path d="M187.475 41.7981L185.706 43.2356L186.812 44.6731L188.581 43.2356L187.475 41.7981Z" fill="url(#paint29_linear_2192_6560)"/>
<path d="M119.427 45.8065L118.874 45.0877L116.191 56.643C116.026 57.3065 115.777 57.8041 115.39 58.1634C115.002 58.4952 114.532 58.661 113.952 58.661C113.26 58.661 112.735 58.4675 112.403 58.1081L111.629 59.2139C111.823 59.4351 112.127 59.6286 112.514 59.7391C112.901 59.8497 113.316 59.905 113.758 59.905C114.781 59.905 115.611 59.6009 116.302 59.0204C116.993 58.4399 117.436 57.6382 117.685 56.6153L120.367 45.0601L119.482 45.7788L119.427 45.8065Z" fill="url(#paint30_linear_2192_6560)"/>
<path d="M161.733 45.8064L161.18 45.0876L158.691 55.8413H160.156L162.645 45.0876L161.733 45.8064Z" fill="url(#paint31_linear_2192_6560)"/>
<path d="M186.591 45.8064L186.038 45.0876L183.549 55.8413H185.015L187.503 45.0876L186.591 45.8064Z" fill="url(#paint32_linear_2192_6560)"/>
<defs>
<linearGradient id="paint0_linear_2192_6560" x1="230.417" y1="37.3473" x2="-0.467805" y2="37.3473" gradientUnits="userSpaceOnUse">
<stop offset="0.1" stop-color="#956A28"/>
<stop offset="0.34" stop-color="#F5D359"/>
<stop offset="0.6" stop-color="#DBA02D"/>
<stop offset="0.84" stop-color="#F5D458"/>
<stop offset="0.99" stop-color="#A6772B"/>
</linearGradient>
<linearGradient id="paint1_linear_2192_6560" x1="230.417" y1="23.8846" x2="-0.467714" y2="23.8846" gradientUnits="userSpaceOnUse">
<stop offset="0.1" stop-color="#956A28"/>
<stop offset="0.34" stop-color="#F5D359"/>
<stop offset="0.6" stop-color="#DBA02D"/>
<stop offset="0.84" stop-color="#F5D458"/>
<stop offset="0.99" stop-color="#A6772B"/>
</linearGradient>
<linearGradient id="paint2_linear_2192_6560" x1="230.417" y1="29.8834" x2="-0.467827" y2="29.8834" gradientUnits="userSpaceOnUse">
<stop offset="0.1" stop-color="#956A28"/>
<stop offset="0.34" stop-color="#F5D359"/>
<stop offset="0.6" stop-color="#DBA02D"/>
<stop offset="0.84" stop-color="#F5D458"/>
<stop offset="0.99" stop-color="#A6772B"/>
</linearGradient>
<linearGradient id="paint3_linear_2192_6560" x1="230.417" y1="30.3533" x2="-0.467849" y2="30.3533" gradientUnits="userSpaceOnUse">
<stop offset="0.1" stop-color="#956A28"/>
<stop offset="0.34" stop-color="#F5D359"/>
<stop offset="0.6" stop-color="#DBA02D"/>
<stop offset="0.84" stop-color="#F5D458"/>
<stop offset="0.99" stop-color="#A6772B"/>
</linearGradient>
<linearGradient id="paint4_linear_2192_6560" x1="230.417" y1="32.7583" x2="-0.467881" y2="32.7583" gradientUnits="userSpaceOnUse">
<stop offset="0.1" stop-color="#956A28"/>
<stop offset="0.34" stop-color="#F5D359"/>
<stop offset="0.6" stop-color="#DBA02D"/>
<stop offset="0.84" stop-color="#F5D458"/>
<stop offset="0.99" stop-color="#A6772B"/>
</linearGradient>
<linearGradient id="paint5_linear_2192_6560" x1="230.417" y1="32.7031" x2="-0.467729" y2="32.7031" gradientUnits="userSpaceOnUse">
<stop offset="0.1" stop-color="#956A28"/>
<stop offset="0.34" stop-color="#F5D359"/>
<stop offset="0.6" stop-color="#DBA02D"/>
<stop offset="0.84" stop-color="#F5D458"/>
<stop offset="0.99" stop-color="#A6772B"/>
</linearGradient>
<linearGradient id="paint6_linear_2192_6560" x1="0.500151" y1="29.8835" x2="37.8264" y2="15.1983" gradientUnits="userSpaceOnUse">
<stop stop-color="#A6772B"/>
<stop offset="0.07" stop-color="#956A28"/>
<stop offset="0.305" stop-color="#F5D359"/>
<stop offset="0.6" stop-color="#DBA02D"/>
<stop offset="0.84" stop-color="#F5D458"/>
</linearGradient>
<linearGradient id="paint7_linear_2192_6560" x1="230.417" y1="29.8834" x2="-0.46759" y2="29.8834" gradientUnits="userSpaceOnUse">
<stop offset="0.1" stop-color="#956A28"/>
<stop offset="0.34" stop-color="#F5D359"/>
<stop offset="0.6" stop-color="#DBA02D"/>
<stop offset="0.84" stop-color="#F5D458"/>
<stop offset="0.99" stop-color="#A6772B"/>
</linearGradient>
<linearGradient id="paint8_linear_2192_6560" x1="230.417" y1="29.9939" x2="-0.46778" y2="29.9939" gradientUnits="userSpaceOnUse">
<stop offset="0.1" stop-color="#956A28"/>
<stop offset="0.34" stop-color="#F5D359"/>
<stop offset="0.6" stop-color="#DBA02D"/>
<stop offset="0.84" stop-color="#F5D458"/>
<stop offset="0.99" stop-color="#A6772B"/>
</linearGradient>
<linearGradient id="paint9_linear_2192_6560" x1="230.417" y1="30.3257" x2="-0.467861" y2="30.3257" gradientUnits="userSpaceOnUse">
<stop offset="0.1" stop-color="#956A28"/>
<stop offset="0.34" stop-color="#F5D359"/>
<stop offset="0.6" stop-color="#DBA02D"/>
<stop offset="0.84" stop-color="#F5D458"/>
<stop offset="0.99" stop-color="#A6772B"/>
</linearGradient>
<linearGradient id="paint10_linear_2192_6560" x1="230.417" y1="32.7585" x2="-0.467961" y2="32.7585" gradientUnits="userSpaceOnUse">
<stop offset="0.1" stop-color="#956A28"/>
<stop offset="0.34" stop-color="#F5D359"/>
<stop offset="0.6" stop-color="#DBA02D"/>
<stop offset="0.84" stop-color="#F5D458"/>
<stop offset="0.99" stop-color="#A6772B"/>
</linearGradient>
<linearGradient id="paint11_linear_2192_6560" x1="230.417" y1="32.8137" x2="-0.467822" y2="32.8137" gradientUnits="userSpaceOnUse">
<stop offset="0.1" stop-color="#956A28"/>
<stop offset="0.34" stop-color="#F5D359"/>
<stop offset="0.6" stop-color="#DBA02D"/>
<stop offset="0.84" stop-color="#F5D458"/>
<stop offset="0.99" stop-color="#A6772B"/>
</linearGradient>
<linearGradient id="paint12_linear_2192_6560" x1="230.417" y1="32.8136" x2="-0.467778" y2="32.8136" gradientUnits="userSpaceOnUse">
<stop offset="0.1" stop-color="#956A28"/>
<stop offset="0.34" stop-color="#F5D359"/>
<stop offset="0.6" stop-color="#DBA02D"/>
<stop offset="0.84" stop-color="#F5D458"/>
<stop offset="0.99" stop-color="#A6772B"/>
</linearGradient>
<linearGradient id="paint13_linear_2192_6560" x1="230.417" y1="32.9519" x2="-0.467843" y2="32.9519" gradientUnits="userSpaceOnUse">
<stop offset="0.1" stop-color="#956A28"/>
<stop offset="0.34" stop-color="#F5D359"/>
<stop offset="0.6" stop-color="#DBA02D"/>
<stop offset="0.84" stop-color="#F5D458"/>
<stop offset="0.99" stop-color="#A6772B"/>
</linearGradient>
<linearGradient id="paint14_linear_2192_6560" x1="230.417" y1="33.035" x2="-0.468206" y2="33.035" gradientUnits="userSpaceOnUse">
<stop offset="0.1" stop-color="#956A28"/>
<stop offset="0.34" stop-color="#F5D359"/>
<stop offset="0.6" stop-color="#DBA02D"/>
<stop offset="0.84" stop-color="#F5D458"/>
<stop offset="0.99" stop-color="#A6772B"/>
</linearGradient>
<linearGradient id="paint15_linear_2192_6560" x1="243.275" y1="15.8402" x2="10.0162" y2="61.9722" gradientUnits="userSpaceOnUse">
<stop offset="0.1" stop-color="#956A28"/>
<stop offset="0.34" stop-color="#F5D359"/>
<stop offset="0.6" stop-color="#DBA02D"/>
<stop offset="0.84" stop-color="#F5D458"/>
<stop offset="0.99" stop-color="#A6772B"/>
</linearGradient>
<linearGradient id="paint16_linear_2192_6560" x1="243.717" y1="18.0795" x2="10.4585" y2="64.2115" gradientUnits="userSpaceOnUse">
<stop offset="0.1" stop-color="#956A28"/>
<stop offset="0.34" stop-color="#F5D359"/>
<stop offset="0.6" stop-color="#DBA02D"/>
<stop offset="0.84" stop-color="#F5D458"/>
<stop offset="0.99" stop-color="#A6772B"/>
</linearGradient>
<linearGradient id="paint17_linear_2192_6560" x1="244.132" y1="20.125" x2="10.8458" y2="66.257" gradientUnits="userSpaceOnUse">
<stop offset="0.1" stop-color="#956A28"/>
<stop offset="0.34" stop-color="#F5D359"/>
<stop offset="0.6" stop-color="#DBA02D"/>
<stop offset="0.84" stop-color="#F5D458"/>
<stop offset="0.99" stop-color="#A6772B"/>
</linearGradient>
<linearGradient id="paint18_linear_2192_6560" x1="244.436" y1="21.7561" x2="11.1774" y2="67.8881" gradientUnits="userSpaceOnUse">
<stop offset="0.1" stop-color="#956A28"/>
<stop offset="0.34" stop-color="#F5D359"/>
<stop offset="0.6" stop-color="#DBA02D"/>
<stop offset="0.84" stop-color="#F5D458"/>
<stop offset="0.99" stop-color="#A6772B"/>
</linearGradient>
<linearGradient id="paint19_linear_2192_6560" x1="244.906" y1="24.0506" x2="11.6198" y2="70.1826" gradientUnits="userSpaceOnUse">
<stop offset="0.1" stop-color="#956A28"/>
<stop offset="0.34" stop-color="#F5D359"/>
<stop offset="0.6" stop-color="#DBA02D"/>
<stop offset="0.84" stop-color="#F5D458"/>
<stop offset="0.99" stop-color="#A6772B"/>
</linearGradient>
<linearGradient id="paint20_linear_2192_6560" x1="245.542" y1="27.2297" x2="12.2559" y2="73.3617" gradientUnits="userSpaceOnUse">
<stop offset="0.1" stop-color="#956A28"/>
<stop offset="0.34" stop-color="#F5D359"/>
<stop offset="0.6" stop-color="#DBA02D"/>
<stop offset="0.84" stop-color="#F5D458"/>
<stop offset="0.99" stop-color="#A6772B"/>
</linearGradient>
<linearGradient id="paint21_linear_2192_6560" x1="246.344" y1="31.2933" x2="13.0578" y2="77.4253" gradientUnits="userSpaceOnUse">
<stop offset="0.1" stop-color="#956A28"/>
<stop offset="0.34" stop-color="#F5D359"/>
<stop offset="0.6" stop-color="#DBA02D"/>
<stop offset="0.84" stop-color="#F5D458"/>
<stop offset="0.99" stop-color="#A6772B"/>
</linearGradient>
<linearGradient id="paint22_linear_2192_6560" x1="246.482" y1="32.0121" x2="13.196" y2="78.1441" gradientUnits="userSpaceOnUse">
<stop offset="0.1" stop-color="#956A28"/>
<stop offset="0.34" stop-color="#F5D359"/>
<stop offset="0.6" stop-color="#DBA02D"/>
<stop offset="0.84" stop-color="#F5D458"/>
<stop offset="0.99" stop-color="#A6772B"/>
</linearGradient>
<linearGradient id="paint23_linear_2192_6560" x1="247.091" y1="35.1082" x2="13.8045" y2="81.2401" gradientUnits="userSpaceOnUse">
<stop offset="0.1" stop-color="#956A28"/>
<stop offset="0.34" stop-color="#F5D359"/>
<stop offset="0.6" stop-color="#DBA02D"/>
<stop offset="0.84" stop-color="#F5D458"/>
<stop offset="0.99" stop-color="#A6772B"/>
</linearGradient>
<linearGradient id="paint24_linear_2192_6560" x1="247.422" y1="36.7393" x2="14.1361" y2="82.8712" gradientUnits="userSpaceOnUse">
<stop offset="0.1" stop-color="#956A28"/>
<stop offset="0.34" stop-color="#F5D359"/>
<stop offset="0.6" stop-color="#DBA02D"/>
<stop offset="0.84" stop-color="#F5D458"/>
<stop offset="0.99" stop-color="#A6772B"/>
</linearGradient>
<linearGradient id="paint25_linear_2192_6560" x1="247.727" y1="38.3426" x2="14.4685" y2="84.4743" gradientUnits="userSpaceOnUse">
<stop offset="0.1" stop-color="#956A28"/>
<stop offset="0.34" stop-color="#F5D359"/>
<stop offset="0.6" stop-color="#DBA02D"/>
<stop offset="0.84" stop-color="#F5D458"/>
<stop offset="0.99" stop-color="#A6772B"/>
</linearGradient>
<linearGradient id="paint26_linear_2192_6560" x1="248.473" y1="42.1574" x2="15.2146" y2="88.2893" gradientUnits="userSpaceOnUse">
<stop offset="0.1" stop-color="#956A28"/>
<stop offset="0.34" stop-color="#F5D359"/>
<stop offset="0.6" stop-color="#DBA02D"/>
<stop offset="0.84" stop-color="#F5D458"/>
<stop offset="0.99" stop-color="#A6772B"/>
</linearGradient>
<linearGradient id="paint27_linear_2192_6560" x1="243.856" y1="18.7428" x2="10.5692" y2="64.8748" gradientUnits="userSpaceOnUse">
<stop offset="0.1" stop-color="#956A28"/>
<stop offset="0.34" stop-color="#F5D359"/>
<stop offset="0.6" stop-color="#DBA02D"/>
<stop offset="0.84" stop-color="#F5D458"/>
<stop offset="0.99" stop-color="#A6772B"/>
</linearGradient>
<linearGradient id="paint28_linear_2192_6560" x1="245.432" y1="26.7873" x2="12.1726" y2="72.9195" gradientUnits="userSpaceOnUse">
<stop offset="0.1" stop-color="#956A28"/>
<stop offset="0.34" stop-color="#F5D359"/>
<stop offset="0.6" stop-color="#DBA02D"/>
<stop offset="0.84" stop-color="#F5D458"/>
<stop offset="0.99" stop-color="#A6772B"/>
</linearGradient>
<linearGradient id="paint29_linear_2192_6560" x1="246.371" y1="31.5144" x2="13.1142" y2="77.6457" gradientUnits="userSpaceOnUse">
<stop offset="0.1" stop-color="#956A28"/>
<stop offset="0.34" stop-color="#F5D359"/>
<stop offset="0.6" stop-color="#DBA02D"/>
<stop offset="0.84" stop-color="#F5D458"/>
<stop offset="0.99" stop-color="#A6772B"/>
</linearGradient>
<linearGradient id="paint30_linear_2192_6560" x1="245.487" y1="27.0084" x2="12.2283" y2="73.1404" gradientUnits="userSpaceOnUse">
<stop offset="0.1" stop-color="#956A28"/>
<stop offset="0.34" stop-color="#F5D359"/>
<stop offset="0.6" stop-color="#DBA02D"/>
<stop offset="0.84" stop-color="#F5D458"/>
<stop offset="0.99" stop-color="#A6772B"/>
</linearGradient>
<linearGradient id="paint31_linear_2192_6560" x1="246.759" y1="33.4494" x2="13.5" y2="79.5816" gradientUnits="userSpaceOnUse">
<stop offset="0.1" stop-color="#956A28"/>
<stop offset="0.34" stop-color="#F5D359"/>
<stop offset="0.6" stop-color="#DBA02D"/>
<stop offset="0.84" stop-color="#F5D458"/>
<stop offset="0.99" stop-color="#A6772B"/>
</linearGradient>
<linearGradient id="paint32_linear_2192_6560" x1="247.699" y1="38.1766" x2="14.413" y2="84.3084" gradientUnits="userSpaceOnUse">
<stop offset="0.1" stop-color="#956A28"/>
<stop offset="0.34" stop-color="#F5D359"/>
<stop offset="0.6" stop-color="#DBA02D"/>
<stop offset="0.84" stop-color="#F5D458"/>
<stop offset="0.99" stop-color="#A6772B"/>
</linearGradient>
</defs>
</svg>
