<svg width="34" height="35" viewBox="0 0 34 35" fill="none" xmlns="http://www.w3.org/2000/svg">
<g id="ri:twitter-x-fill">
<g clip-path="url(#clip0_1887_46762)">
<circle id="Ellipse 343" cx="17.32" cy="17.7241" r="15.82" fill="white" stroke="#BDBDBD"/>
<path id="Vector" d="M17 8.26184C22.4906 8.26184 26.958 11.8866 26.958 16.3428C26.958 18.1265 26.2672 19.7322 24.8233 21.3143C22.7346 23.7192 18.063 26.6481 17 27.0962C15.9669 27.5318 16.0864 26.851 16.1337 26.5821L16.1374 26.5597L16.2793 25.707C16.3129 25.4531 16.3478 25.0585 16.2469 24.8071C16.1349 24.5295 15.6943 24.3851 15.3706 24.3154C10.5846 23.6843 7.04199 20.3372 7.04199 16.3428C7.04199 11.8866 11.5106 8.26184 17 8.26184ZM13.2931 17.829H11.3949V14.3835C11.3949 14.3322 11.3746 14.283 11.3385 14.2467C11.3023 14.2103 11.2532 14.1897 11.202 14.1893H10.5024C10.4769 14.1893 10.4516 14.1944 10.4281 14.2041C10.4045 14.2139 10.3831 14.2282 10.3651 14.2462C10.3471 14.2643 10.3328 14.2857 10.323 14.3092C10.3132 14.3328 10.3082 14.358 10.3082 14.3835V18.7227C10.3082 18.7738 10.3294 18.8223 10.363 18.8559V18.8572L10.3655 18.8597L10.368 18.8621C10.4041 18.8969 10.4523 18.9161 10.5024 18.9157H13.2931C13.4002 18.9157 13.4861 18.8285 13.4861 18.7215V18.0244C13.4862 17.9989 13.4814 17.9736 13.4718 17.95C13.4622 17.9264 13.448 17.9049 13.4301 17.8868C13.4122 17.8686 13.3908 17.8542 13.3673 17.8443C13.3439 17.8343 13.3186 17.8292 13.2931 17.829ZM14.2777 14.1893C14.2262 14.1893 14.1768 14.2098 14.1404 14.2462C14.104 14.2826 14.0835 14.332 14.0835 14.3835V18.7227C14.0835 18.8298 14.1707 18.9157 14.2777 18.9157H14.9773C15.0843 18.9157 15.1702 18.8285 15.1702 18.7227V14.3835C15.1702 14.3322 15.1499 14.283 15.1138 14.2467C15.0776 14.2103 15.0286 14.1897 14.9773 14.1893H14.2777ZM19.0862 14.1893C19.0347 14.1893 18.9853 14.2098 18.9489 14.2462C18.9125 14.2826 18.892 14.332 18.892 14.3835V16.9602L16.9042 14.2765C16.8991 14.2699 16.8937 14.2637 16.888 14.2578C16.884 14.2534 16.8799 14.248 16.8755 14.2441L16.8718 14.2404C16.8675 14.2363 16.8629 14.2326 16.8581 14.2292L16.8506 14.2242L16.8469 14.2217C16.845 14.2203 16.8429 14.219 16.8407 14.218L16.8307 14.2118H16.8282L16.8245 14.2093L16.812 14.2043L16.8071 14.2018C16.803 14.2003 16.7988 14.1991 16.7946 14.1981H16.7921L16.7884 14.1968L16.7772 14.1943H16.7697L16.766 14.1931H16.761L16.7585 14.1918H16.044C15.9927 14.1918 15.9435 14.2121 15.9072 14.2483C15.8708 14.2844 15.8502 14.3335 15.8499 14.3848V18.724C15.8499 18.831 15.937 18.9169 16.044 18.9169H16.7411C16.8494 18.9169 16.9365 18.8298 16.9365 18.724V16.1473L18.9281 18.836C18.9414 18.8545 18.9578 18.8705 18.9767 18.8833L18.9779 18.8845L18.9904 18.892L18.9953 18.8945C18.9985 18.8964 19.0019 18.898 19.0053 18.8995L19.014 18.9032L19.0202 18.9057C19.0243 18.9071 19.0285 18.9083 19.0327 18.9094H19.0364C19.0526 18.9141 19.0694 18.9166 19.0862 18.9169H19.7833C19.8916 18.9169 19.9787 18.8298 19.9787 18.724V14.3835C19.9787 14.332 19.9582 14.2826 19.9218 14.2462C19.8854 14.2098 19.836 14.1893 19.7845 14.1893H19.0862ZM23.8349 15.0818V14.3848C23.8351 14.3593 23.8302 14.334 23.8206 14.3104C23.811 14.2867 23.7969 14.2652 23.7789 14.2471C23.761 14.229 23.7397 14.2145 23.7162 14.2046C23.6927 14.1947 23.6675 14.1895 23.642 14.1893H20.8513C20.801 14.1894 20.7528 14.2091 20.7168 14.2441H20.7156L20.7143 14.2466L20.7118 14.2503C20.6771 14.286 20.6575 14.3337 20.6571 14.3835V18.7227C20.6571 18.7738 20.6782 18.8223 20.7118 18.8559L20.7143 18.8597L20.7168 18.8621C20.753 18.8967 20.8012 18.9159 20.8513 18.9157H23.642C23.749 18.9157 23.8349 18.8285 23.8349 18.7215V18.0244C23.8351 17.9989 23.8302 17.9736 23.8206 17.95C23.811 17.9264 23.7969 17.9049 23.7789 17.8868C23.761 17.8686 23.7397 17.8542 23.7162 17.8443C23.6927 17.8343 23.6675 17.8292 23.642 17.829H21.7425V17.0958H23.6407C23.7478 17.0958 23.8337 17.0087 23.8337 16.9017V16.2046C23.8338 16.1791 23.829 16.1538 23.8194 16.1302C23.8098 16.1066 23.7956 16.0851 23.7777 16.0669C23.7598 16.0488 23.7385 16.0343 23.715 16.0244C23.6915 16.0145 23.6662 16.0093 23.6407 16.0092H21.7425V15.276H23.6407C23.7478 15.276 23.8337 15.1889 23.8337 15.0818H23.8349Z" fill="#00B900"/>
</g>
</g>
<defs>
<clipPath id="clip0_1887_46762">
<rect y="0.75" width="34" height="34" rx="17" fill="white"/>
</clipPath>
</defs>
</svg>
