<svg width="34" height="35" viewBox="0 0 34 35" fill="none" xmlns="http://www.w3.org/2000/svg">
<g id="ri:twitter-x-fill">
<g clip-path="url(#clip0_1887_46345)">
<circle id="Ellipse 343" cx="17.32" cy="17.7241" r="15.82" fill="white" stroke="#BDBDBD"/>
<path id="Vector" fill-rule="evenodd" clip-rule="evenodd" d="M24.9676 9.2825C25.2147 9.1785 25.4852 9.14262 25.7509 9.17862C26.0165 9.21462 26.2677 9.32117 26.4783 9.48719C26.6888 9.65321 26.851 9.87262 26.9479 10.1226C27.0449 10.3726 27.0731 10.6439 27.0296 10.9085L24.7616 24.6655C24.5416 25.9925 23.0856 26.7535 21.8686 26.0925C20.8506 25.5395 19.3386 24.6875 17.9786 23.7985C17.2986 23.3535 15.2156 21.9285 15.4716 20.9145C15.6916 20.0475 19.1916 16.7895 21.1916 14.8525C21.9766 14.0915 21.6186 13.6525 20.6916 14.3525C18.3886 16.0905 14.6936 18.7335 13.4716 19.4775C12.3936 20.1335 11.8316 20.2455 11.1596 20.1335C9.93357 19.9295 8.79657 19.6135 7.86857 19.2285C6.61457 18.7085 6.67557 16.9845 7.86757 16.4825L24.9676 9.2825Z" fill="#2AABEE"/>
</g>
</g>
<defs>
<clipPath id="clip0_1887_46345">
<rect y="0.75" width="34" height="34" rx="17" fill="white"/>
</clipPath>
</defs>
</svg>
