<svg width="34" height="35" viewBox="0 0 34 35" fill="none" xmlns="http://www.w3.org/2000/svg">
<g id="ic:round-whatsapp" clip-path="url(#clip0_1887_46072)">
<circle id="Ellipse 343" cx="17.32" cy="17.7241" r="15.82" fill="white" stroke="#BDBDBD"/>
<path id="Vector" d="M23.642 11.0701C22.7783 10.1976 21.7494 9.5058 20.6155 9.03508C19.4816 8.56437 18.2653 8.32415 17.0376 8.32843C11.8934 8.32843 7.70086 12.521 7.70086 17.6651C7.70086 19.3139 8.13425 20.9155 8.9445 22.3288L7.62549 27.1714L12.5718 25.8712C13.9379 26.6155 15.4736 27.0112 17.0376 27.0112C22.1817 27.0112 26.3742 22.8187 26.3742 17.6745C26.3742 15.1778 25.4038 12.8319 23.642 11.0701ZM17.0376 25.4284C15.6432 25.4284 14.2771 25.0516 13.0805 24.345L12.7979 24.1754L9.85838 24.9479L10.6404 22.0838L10.4519 21.7917C9.67725 20.5547 9.2659 19.1247 9.26483 17.6651C9.26483 13.3878 12.7508 9.90181 17.0281 9.90181C19.1009 9.90181 21.0511 10.7121 22.5114 12.1818C23.2345 12.9016 23.8076 13.7577 24.1973 14.7006C24.5871 15.6434 24.7858 16.6543 24.782 17.6745C24.8009 21.9519 21.3149 25.4284 17.0376 25.4284ZM21.2961 19.6248C21.0605 19.5117 19.9111 18.9464 19.7038 18.8616C19.4871 18.7863 19.3364 18.7486 19.1762 18.9747C19.0161 19.2102 18.5733 19.7378 18.4414 19.8886C18.3095 20.0488 18.1681 20.0676 17.9326 19.9451C17.6971 19.8321 16.9433 19.5777 16.0577 18.7863C15.3605 18.1645 14.8989 17.4013 14.7576 17.1658C14.6257 16.9302 14.7387 16.8078 14.8612 16.6853C14.9648 16.5816 15.0967 16.4121 15.2098 16.2802C15.3228 16.1483 15.37 16.0446 15.4453 15.8939C15.5207 15.7337 15.483 15.6018 15.4265 15.4888C15.37 15.3757 14.8989 14.2263 14.7104 13.7552C14.522 13.303 14.3242 13.3595 14.1828 13.3501H13.7306C13.5704 13.3501 13.3255 13.4066 13.1088 13.6421C12.9015 13.8777 12.2985 14.443 12.2985 15.5924C12.2985 16.7418 13.1371 17.8535 13.2501 18.0043C13.3632 18.1645 14.8989 20.5198 17.2354 21.5279C17.7913 21.7729 18.2247 21.9142 18.5638 22.0178C19.1197 22.1969 19.6285 22.1686 20.0336 22.1121C20.4858 22.0461 21.4185 21.5468 21.607 21.0003C21.8048 20.4539 21.8048 19.9922 21.7389 19.8886C21.6729 19.785 21.5316 19.7378 21.2961 19.6248Z" fill="#5FD568"/>
</g>
<defs>
<clipPath id="clip0_1887_46072">
<rect width="34" height="34" fill="white" transform="translate(0 0.75)"/>
</clipPath>
</defs>
</svg>
