<svg width="134" height="134" viewBox="0 0 134 134" fill="none" xmlns="http://www.w3.org/2000/svg">
<path d="M94.4067 106.86C89.8772 107.231 84.8064 107.477 79.1794 107.433C73.5525 107.388 68.4812 107.053 63.9956 106.606C61.3884 106.344 58.8452 105.639 56.4751 104.522L56.7603 71.5086C56.7949 67.881 53.3331 65.1808 48.4501 63.4621C52.9294 52.3969 59.3794 41.9649 68.4036 37.0738L59.9599 28.6843C59.273 28.0007 58.8053 27.1278 58.6164 26.1769C58.4275 25.2259 58.526 24.2401 58.8993 23.3452C59.2726 22.4502 59.9038 21.6866 60.7124 21.1519C61.521 20.6172 62.4703 20.3355 63.4393 20.3428L96.4032 20.6041C97.3727 20.612 98.3177 20.9088 99.1176 21.4567C99.9175 22.0046 100.536 22.7786 100.894 23.68C101.252 24.5814 101.333 25.5693 101.128 26.5174C100.922 27.4656 100.439 28.3311 99.7397 29.0034L91.1315 37.2667C103.731 44.328 111.005 62.4073 115.013 77.662C115.865 80.9545 115.99 84.3937 115.379 87.7401C114.768 91.0865 113.435 94.2599 111.473 97.0391C109.512 99.8183 106.969 102.137 104.022 103.833C101.074 105.529 97.7932 106.562 94.4067 106.86Z" fill="black"/>
<path d="M34.8337 65.3583C23.8996 65.2656 16.8787 68.7433 16.8709 71.1791C16.863 73.6149 23.7957 77.1988 34.7298 77.2915C45.6639 77.3842 52.6828 73.9122 52.6925 71.4707C52.7022 69.0292 45.7639 65.4436 34.8337 65.3583Z" fill="black"/>
<path d="M16.6272 99.2599L16.5818 104.341C16.5626 106.773 23.5065 110.36 34.4406 110.453C45.3747 110.546 52.3937 107.074 52.4034 104.632L52.447 99.5571C48.1823 102.176 41.1818 103.509 34.5013 103.458C27.8209 103.406 20.8471 101.954 16.6272 99.2599Z" fill="black"/>
<path d="M16.7236 88.2061L16.6782 93.2868C16.6591 95.719 23.6029 99.3065 34.537 99.3992C45.4711 99.4919 52.4902 96.0199 52.4998 93.5784L52.5435 88.5032C48.2787 91.1219 41.2782 92.4556 34.5959 92.4096C27.9137 92.3636 20.9435 90.8997 16.7236 88.2061Z" fill="black"/>
<path d="M16.8185 77.1584L16.7749 82.2336C16.7557 84.6657 23.6996 88.2532 34.6337 88.3459C45.5678 88.4387 52.5869 84.9666 52.5965 82.5252L52.6402 77.4499C48.368 80.0725 41.3749 81.4022 34.6927 81.3562C28.0104 81.3102 21.0402 79.8464 16.8185 77.1584Z" fill="black"/>
<path d="M24.2616 29.5639L32.9867 20.9757C33.587 20.4126 34.3806 20.1025 35.2031 20.1094C36.0257 20.1164 36.8138 20.4399 37.404 21.013L46.0205 29.7394C46.5998 30.3387 46.9203 31.1418 46.913 31.9757C46.9057 32.8096 46.5712 33.6074 45.9816 34.197C45.3864 34.7723 44.5932 35.0972 43.7659 35.1046C42.9392 35.0903 42.1508 34.754 41.5681 34.1672L38.2778 30.7969L38.0583 56.2161C37.986 56.9967 37.6235 57.7219 37.0427 58.2483C36.4619 58.7746 35.705 59.064 34.9216 59.059C34.1382 59.054 33.3852 58.7551 32.8116 58.2214C32.238 57.6876 31.8856 56.958 31.8238 56.1765L32.0451 30.7516L28.7095 34.0565C28.1171 34.6349 27.3203 34.9556 26.4928 34.9486C25.6653 34.9416 24.8742 34.6075 24.2922 34.0191C23.703 33.4298 23.3696 32.6319 23.3638 31.7982C23.3581 30.9645 23.6806 30.1619 24.2616 29.5639Z" fill="black"/>
</svg>
