<svg width="110" height="96" viewBox="0 0 110 96" fill="none" xmlns="http://www.w3.org/2000/svg">
<path d="M51.6109 10.5L51.5645 5.94013C51.541 3.60876 51.2404 1.39629 54.0141 0.553557C57.999 0.215771 57.9203 3.1019 57.9467 5.81188L57.9853 10.4551C59.8747 11.074 61.3248 12.6958 62.1741 14.4423L96.0303 14.2291C97.2601 14.1615 98.4929 14.1611 99.723 14.2283C100.469 14.2728 101.174 14.587 101.708 15.1121C102.241 15.6373 102.566 16.3377 102.623 17.0835C102.68 17.8293 102.465 18.5696 102.017 19.1668C101.569 19.7641 100.919 20.1777 100.188 20.3308C98.9844 20.5944 96.8218 20.44 95.5204 20.4548C97.1193 24.1649 99.1083 27.7611 100.947 31.3546C101.938 33.2715 109.547 47.8536 109.538 48.9833C109.147 70.3762 79.5289 74.6937 72.9626 53.7995C71.8696 50.3076 71.7165 49.5003 73.2404 46.381L81.4732 29.7472C83.0004 26.6577 84.434 23.555 86.0138 20.5097L62.5237 20.6641C61.0924 23.3779 60.5344 23.6444 58.1163 25.3157L58.6234 78.756C64.5943 79.4547 69.8482 84.1282 72.7693 89.163L80.5202 89.1175L80.5779 95.3791L56.4371 95.5409L30.6248 95.7131L30.5638 89.4475L38.1574 89.3982C39.5401 86.6708 41.5294 84.298 43.9725 82.4619C46.4155 80.6257 49.2477 79.3748 52.2521 78.8051L51.745 25.3648C49.7987 24.6534 47.7986 22.8144 47.3386 20.774L23.8471 20.8843C25.5101 24.4492 27.4378 27.9303 29.2823 31.4034C32.1672 36.8334 35.1983 42.5338 37.8894 48.0651C38.8072 49.9534 37.7341 53.3969 37.0728 55.2645C35.8946 58.8209 33.6675 61.9343 30.6845 64.1952C27.7016 66.4561 24.1024 67.7586 20.3599 67.9318C16.6174 68.1049 12.9068 67.1405 9.71588 65.1653C6.525 63.1901 4.00329 60.2964 2.48199 56.8649C-0.528769 50.2714 1.08752 48.6119 3.90402 42.7739L10.5622 29.0137C11.852 26.3681 13.3288 23.6974 14.3848 20.9638C13.0136 20.9798 10.5215 21.1645 9.27103 20.8634C6.92765 20.3163 6.28451 17.3945 7.93346 15.6845C9.24382 14.3271 12.3433 14.7677 14.0662 14.7572L47.5379 14.5378C48.3767 12.7524 49.819 11.3225 51.6109 10.5ZM19.0892 25.5489C18.3661 27.3857 17.402 29.1077 16.5665 30.881L11.4329 41.6764C10.5472 43.494 9.54545 45.3025 8.79886 47.1765L19.9915 47.1131L30.1786 47.0477C29.8037 46.0019 29.3294 44.9943 28.762 44.0389L21.2341 29.4792C20.597 28.1282 19.8807 26.8158 19.0892 25.5489ZM90.841 25.4022C90.0085 26.7279 89.3444 28.1911 88.6336 29.5927L83.0838 40.6378C82.0623 42.6419 81.0781 44.6695 80.1256 46.7054C81.3734 46.6537 82.6462 46.6863 83.9024 46.6798L91.0436 46.6365L101.547 46.5641C99.116 41.3596 96.2772 36.1012 93.6824 30.9361C93.4103 30.3543 90.9423 25.5193 90.841 25.4022Z" fill="black"/>
</svg>
