<svg width="120" height="108" viewBox="0 0 120 108" fill="none" xmlns="http://www.w3.org/2000/svg">
<path d="M79.5508 60.2396C79.7124 60.4416 79.9131 60.6086 80.1408 60.7311C80.3685 60.8537 80.6186 60.929 80.876 60.9525C81.1334 60.9761 81.393 60.9475 81.639 60.8682C81.8851 60.789 82.1126 60.6608 82.308 60.4915L104.873 40.0477C105.137 39.801 105.325 39.4832 105.415 39.1324C105.504 38.7816 105.49 38.4126 105.375 38.0693C105.261 37.726 105.05 37.4228 104.768 37.1961C104.486 36.9694 104.144 36.8286 103.785 36.7905L96.3378 36.0946L98.7648 10.0082C98.8085 9.51419 98.6555 9.02293 98.3389 8.64119C98.0224 8.25944 97.5681 8.01834 97.0748 7.97014L74.7335 5.88196C74.2398 5.83811 73.7489 5.99126 73.3675 6.30792C72.9861 6.62459 72.7451 7.07911 72.6971 7.57275L70.269 33.6531L62.8218 32.957C62.4613 32.9277 62.1 33.0029 61.781 33.1735C61.462 33.344 61.1988 33.6029 61.0228 33.919C60.8467 34.2352 60.7652 34.5953 60.7881 34.9566C60.8109 35.3178 60.9371 35.6647 61.1516 35.9563L79.5508 60.2396Z" fill="black"/>
<path d="M26.0044 50.3851L18.0732 49.6441C17.0858 49.5564 16.1039 49.8627 15.3411 50.4961C14.5783 51.1294 14.0965 52.0384 14.0004 53.0257L11.3993 81.0432C11.31 82.0308 11.6146 83.0138 12.2468 83.7777C12.8789 84.5416 13.7873 85.0246 14.7736 85.1209L22.7049 85.8616C24.1849 85.9884 25.6553 85.5277 26.7984 84.5786C27.9414 83.6295 28.6654 82.2683 28.814 80.7893L31.0994 56.2181C31.1484 54.7804 30.6493 53.3779 29.7032 52.2947C28.757 51.2115 27.4347 50.5288 26.0044 50.3851ZM21.8826 61.6774C19.4246 61.4111 19.7652 57.7553 22.2289 57.9482C24.6926 58.1412 24.3336 61.8664 21.8943 61.6754L21.8826 61.6774Z" fill="black"/>
<path d="M116.713 74.6958C116.255 72.8749 115.118 71.2979 113.537 70.2874C111.955 69.2768 110.048 68.9089 108.205 69.259L91.395 72.4836C91.8403 74.3529 91.8332 76.3014 91.3744 78.1672C90.9156 80.033 90.0182 81.762 88.757 83.2106C87.4959 84.6593 85.9072 85.7855 84.1232 86.4958C82.3392 87.2062 80.4116 87.4802 78.5003 87.2948L64.8091 85.989C62.3511 85.7227 62.7054 82.0765 65.1564 82.2656L78.8426 83.5421C89.8744 84.2112 91.3451 68.3023 80.3945 66.9011L66.9107 65.6445C65.7986 65.5407 64.7387 65.1236 63.8539 64.4414L57.6026 59.5825C54.9865 57.5558 51.8474 56.3175 48.5533 56.0125L34.7214 54.7305C34.789 55.2442 34.8162 55.7623 34.8026 56.2803L32.51 81.094C32.446 81.7829 32.3061 82.4627 32.0928 83.1208L33.7165 83.3047C34.4137 83.379 35.0799 83.6321 35.6506 84.0399L49.2463 93.7657C52.833 96.3403 56.9937 97.9987 61.3666 98.5972C65.7395 99.1957 70.192 98.716 74.3367 97.1996L112.133 83.4214C113.848 82.8025 115.268 81.5637 116.116 79.9489C116.964 78.3341 117.177 76.4602 116.713 74.6958Z" fill="black"/>
</svg>
