<svg width="25" height="24" viewBox="0 0 25 24" fill="none" xmlns="http://www.w3.org/2000/svg">
<path d="M13.0696 11.5443L13.0601 11.5308L10.2203 7.59999H8.92349L15.2788 16.4H16.5766L13.0696 11.5443Z" fill="#838383"/>
<path fill-rule="evenodd" clip-rule="evenodd" d="M12.75 22C18.273 22 22.75 17.523 22.75 12C22.75 6.477 18.273 2 12.75 2C7.227 2 2.75 6.477 2.75 12C2.75 17.523 7.227 22 12.75 22ZM7.75003 6.39999C7.52471 6.39999 7.31838 6.52623 7.21581 6.72684C7.11323 6.92746 7.1317 7.16863 7.26362 7.35129L11.1584 12.744L7.32581 16.5757C7.09147 16.81 7.09143 17.1899 7.32571 17.4242C7.56 17.6586 7.9399 17.6586 8.17424 17.4243L11.87 13.7294L14.4856 17.3513C14.5984 17.5075 14.7794 17.6 14.972 17.6H17.75C17.9753 17.6 18.1817 17.4738 18.2842 17.2731C18.3868 17.0725 18.3684 16.8314 18.2364 16.6487L14.3424 11.257L18.1743 7.42421C18.4086 7.18987 18.4086 6.80997 18.1742 6.57568C17.9399 6.34139 17.56 6.34144 17.3257 6.57578L13.6308 10.2716L11.0134 6.64862C10.9006 6.49248 10.7197 6.39999 10.527 6.39999H7.75003Z" fill="#838383"/>
</svg>
