<svg width="32" height="32" viewBox="0 0 32 32" fill="none" xmlns="http://www.w3.org/2000/svg">
<g clip-path="url(#clip0_3792_39796)">
<rect width="32" height="32" rx="16" fill="white"/>
<path d="M12.7946 8.27026C12.9122 8.27031 13.0285 8.2945 13.1363 8.34134C13.2442 8.38817 13.3413 8.45664 13.4216 8.54252L13.4868 8.62154L17.1576 13.627L22.2645 8.52191C22.419 8.36788 22.6264 8.27845 22.8445 8.27179C23.0626 8.26513 23.2751 8.34173 23.4388 8.48605C23.6025 8.63037 23.7051 8.83158 23.7258 9.04881C23.7464 9.26603 23.6837 9.48299 23.5502 9.65562L23.4789 9.73635L18.1857 15.0287L23.5639 22.3634C23.653 22.485 23.7085 22.6278 23.7249 22.7776C23.7413 22.9274 23.718 23.0789 23.6573 23.2168C23.5967 23.3547 23.5008 23.4743 23.3793 23.5634C23.2579 23.6526 23.1151 23.7082 22.9653 23.7247L22.8717 23.7299H19.2069C19.0893 23.7299 18.973 23.7057 18.8652 23.6588C18.7573 23.612 18.6602 23.5435 18.5799 23.4576L18.5147 23.3786L14.8421 18.3723L9.73702 23.4783C9.58246 23.6323 9.37506 23.7217 9.15695 23.7284C8.93884 23.735 8.72637 23.6584 8.5627 23.5141C8.39903 23.3698 8.29643 23.1686 8.27574 22.9514C8.25504 22.7341 8.31781 22.5172 8.45129 22.3445L8.52258 22.2638L13.8141 16.9706L8.43755 9.63672C8.34849 9.51518 8.29298 9.37234 8.27658 9.22256C8.26019 9.07277 8.28349 8.92131 8.34414 8.78337C8.4048 8.64544 8.50068 8.52589 8.62215 8.43673C8.74362 8.34757 8.88641 8.29194 9.03618 8.27542L9.1298 8.27026H12.7946Z" fill="#454545"/>
</g>
<rect x="0.5" y="0.5" width="31" height="31" rx="15.5" stroke="#E7E7E7"/>
<defs>
<clipPath id="clip0_3792_39796">
<rect width="32" height="32" rx="16" fill="white"/>
</clipPath>
</defs>
</svg>
