<svg width="32" height="32" viewBox="0 0 32 32" fill="none" xmlns="http://www.w3.org/2000/svg">
<g clip-path="url(#clip0_647_3271)">
<path d="M12.7936 8.27026C12.9112 8.27031 13.0275 8.2945 13.1354 8.34134C13.2432 8.38817 13.3403 8.45664 13.4206 8.54252L13.4859 8.62154L17.1567 13.627L22.2635 8.52191C22.4181 8.36788 22.6255 8.27845 22.8436 8.27179C23.0617 8.26513 23.2741 8.34173 23.4378 8.48605C23.6015 8.63037 23.7041 8.83158 23.7248 9.04881C23.7455 9.26603 23.6827 9.48299 23.5492 9.65562L23.4779 9.73635L18.1847 15.0287L23.563 22.3634C23.652 22.485 23.7075 22.6278 23.7239 22.7776C23.7403 22.9274 23.717 23.0789 23.6564 23.2168C23.5957 23.3547 23.4998 23.4743 23.3784 23.5634C23.2569 23.6526 23.1141 23.7082 22.9643 23.7247L22.8707 23.7299H19.2059C19.0883 23.7299 18.972 23.7057 18.8642 23.6588C18.7563 23.612 18.6593 23.5435 18.579 23.4576L18.5137 23.3786L14.8412 18.3723L9.73604 23.4783C9.58148 23.6323 9.37408 23.7217 9.15597 23.7284C8.93786 23.735 8.7254 23.6584 8.56173 23.5141C8.39806 23.3698 8.29545 23.1686 8.27476 22.9514C8.25407 22.7341 8.31683 22.5172 8.45031 22.3445L8.5216 22.2638L13.8131 16.9706L8.43657 9.63672C8.34751 9.51518 8.292 9.37234 8.27561 9.22256C8.25921 9.07277 8.28251 8.92131 8.34317 8.78337C8.40382 8.64544 8.4997 8.52589 8.62117 8.43673C8.74264 8.34757 8.88543 8.29194 9.0352 8.27542L9.12882 8.27026H12.7936Z" fill="black"/>
</g>
<defs>
<clipPath id="clip0_647_3271">
<rect width="32" height="32" rx="16" fill="white"/>
</clipPath>
</defs>
</svg>
