<svg width="32" height="32" viewBox="0 0 32 32" fill="none" xmlns="http://www.w3.org/2000/svg">
<path d="M14.1425 18.7867L18.9637 15.9999L14.1425 13.2131V18.7867ZM24.8811 11.5131C25.0018 11.9497 25.0854 12.535 25.1412 13.2781C25.2062 14.0213 25.2341 14.6622 25.2341 15.2196L25.2898 15.9999C25.2898 18.0343 25.1412 19.5299 24.8811 20.4867C24.6488 21.3228 24.11 21.8616 23.274 22.0938C22.8374 22.2145 22.0385 22.2982 20.8123 22.3539C19.6047 22.4189 18.4992 22.4468 17.4774 22.4468L16.0004 22.5025C12.1081 22.5025 9.68356 22.3539 8.72674 22.0938C7.8907 21.8616 7.35191 21.3228 7.11967 20.4867C6.99891 20.0501 6.91531 19.4649 6.85957 18.7217C6.79454 17.9786 6.76667 17.3376 6.76667 16.7802L6.71094 15.9999C6.71094 13.9655 6.85957 12.4699 7.11967 11.5131C7.35191 10.6771 7.8907 10.1383 8.72674 9.90605C9.16335 9.78529 9.96224 9.70168 11.1884 9.64595C12.3961 9.58092 13.5015 9.55305 14.5234 9.55305L16.0004 9.49731C19.8926 9.49731 22.3172 9.64595 23.274 9.90605C24.11 10.1383 24.6488 10.6771 24.8811 11.5131Z" fill="black"/>
</svg>
