<svg width="32" height="32" viewBox="0 0 32 32" fill="none" xmlns="http://www.w3.org/2000/svg">
<path d="M23.8465 6.73621H8.15376C7.97736 6.73376 7.8022 6.76609 7.63829 6.83134C7.47439 6.89659 7.32494 6.99349 7.19848 7.1165C7.07203 7.23951 6.97104 7.38623 6.9013 7.54828C6.83155 7.71033 6.79441 7.88452 6.79199 8.06093V23.939C6.79441 24.1154 6.83155 24.2896 6.9013 24.4516C6.97104 24.6136 7.07203 24.7604 7.19848 24.8834C7.32494 25.0064 7.47439 25.1033 7.63829 25.1685C7.8022 25.2338 7.97736 25.2661 8.15376 25.2637H23.8465C24.0229 25.2661 24.1981 25.2338 24.362 25.1685C24.5259 25.1033 24.6753 25.0064 24.8018 24.8834C24.9282 24.7604 25.0292 24.6136 25.099 24.4516C25.1687 24.2896 25.2059 24.1154 25.2083 23.939V8.06093C25.2059 7.88452 25.1687 7.71033 25.099 7.54828C25.0292 7.38623 24.9282 7.23951 24.8018 7.1165C24.6753 6.99349 24.5259 6.89659 24.362 6.83134C24.1981 6.76609 24.0229 6.73376 23.8465 6.73621ZM12.378 22.2437H9.5989V13.9063H12.378V22.2437ZM10.9885 12.7391C10.6052 12.7391 10.2376 12.5869 9.96659 12.3158C9.69558 12.0448 9.54332 11.6772 9.54332 11.294C9.54332 10.9107 9.69558 10.5431 9.96659 10.2721C10.2376 10.0011 10.6052 9.84883 10.9885 9.84883C11.192 9.82575 11.3981 9.84591 11.5933 9.90801C11.7885 9.9701 11.9683 10.0727 12.1211 10.2092C12.2739 10.3456 12.3961 10.5127 12.4798 10.6997C12.5635 10.8866 12.6068 11.0891 12.6068 11.294C12.6068 11.4988 12.5635 11.7013 12.4798 11.8883C12.3961 12.0752 12.2739 12.2424 12.1211 12.3788C11.9683 12.5152 11.7885 12.6178 11.5933 12.6799C11.3981 12.742 11.192 12.7622 10.9885 12.7391ZM22.4014 22.2437H19.6223V17.7693C19.6223 16.6484 19.2239 15.9166 18.2142 15.9166C17.9017 15.9189 17.5974 16.0169 17.3423 16.1974C17.0872 16.378 16.8936 16.6324 16.7876 16.9263C16.7151 17.1441 16.6837 17.3734 16.6949 17.6026V22.2344H13.9158V13.8971H16.6949V15.0736C16.9474 14.6355 17.3146 14.2746 17.757 14.0297C18.1993 13.7849 18.7001 13.6653 19.2054 13.684C21.0581 13.684 22.4014 14.879 22.4014 17.4451V22.2437Z" fill="black"/>
</svg>
