<svg width="32" height="32" viewBox="0 0 32 32" fill="none" xmlns="http://www.w3.org/2000/svg">
<rect x="0.5" y="0.5" width="31" height="31" rx="15.5" fill="white"/>
<rect x="0.5" y="0.5" width="31" height="31" rx="15.5" stroke="#E7E7E7"/>
<path d="M23.8455 6.73621H8.15278C7.97638 6.73376 7.80123 6.76609 7.63732 6.83134C7.47341 6.89659 7.32396 6.99349 7.19751 7.1165C7.07105 7.23952 6.97007 7.38623 6.90032 7.54828C6.83057 7.71033 6.79343 7.88452 6.79102 8.06093V23.939C6.79343 24.1154 6.83057 24.2896 6.90032 24.4516C6.97007 24.6136 7.07105 24.7604 7.19751 24.8834C7.32396 25.0064 7.47341 25.1033 7.63732 25.1685C7.80123 25.2338 7.97638 25.2661 8.15278 25.2637H23.8455C24.0219 25.2661 24.1971 25.2338 24.361 25.1685C24.5249 25.1033 24.6744 25.0064 24.8008 24.8834C24.9273 24.7604 25.0283 24.6136 25.098 24.4516C25.1678 24.2896 25.2049 24.1154 25.2073 23.939V8.06093C25.2049 7.88452 25.1678 7.71033 25.098 7.54828C25.0283 7.38623 24.9273 7.23952 24.8008 7.1165C24.6744 6.99349 24.5249 6.89659 24.361 6.83134C24.1971 6.76609 24.0219 6.73376 23.8455 6.73621ZM12.377 22.2437H9.59793V13.9063H12.377V22.2437ZM10.9875 12.7391C10.6042 12.7391 10.2366 12.5869 9.96562 12.3158C9.6946 12.0448 9.54234 11.6772 9.54234 11.294C9.54234 10.9107 9.6946 10.5431 9.96562 10.2721C10.2366 10.0011 10.6042 9.84883 10.9875 9.84883C11.191 9.82575 11.3971 9.84591 11.5923 9.90801C11.7875 9.9701 11.9673 10.0727 12.1201 10.2092C12.2729 10.3456 12.3951 10.5127 12.4788 10.6997C12.5625 10.8866 12.6058 11.0891 12.6058 11.294C12.6058 11.4988 12.5625 11.7013 12.4788 11.8883C12.3951 12.0752 12.2729 12.2424 12.1201 12.3788C11.9673 12.5152 11.7875 12.6178 11.5923 12.6799C11.3971 12.742 11.191 12.7622 10.9875 12.7391ZM22.4004 22.2437H19.6213V17.7693C19.6213 16.6484 19.2229 15.9166 18.2132 15.9166C17.9007 15.9189 17.5964 16.0169 17.3413 16.1974C17.0862 16.378 16.8926 16.6324 16.7866 16.9263C16.7141 17.1441 16.6827 17.3734 16.6939 17.6026V22.2344H13.9148V13.8971H16.6939V15.0736C16.9464 14.6355 17.3136 14.2746 17.756 14.0297C18.1983 13.7849 18.6991 13.6653 19.2044 13.684C21.0572 13.684 22.4004 14.879 22.4004 17.4451V22.2437Z" fill="#454545"/>
</svg>
