<svg width="32" height="32" viewBox="0 0 32 32" fill="none" xmlns="http://www.w3.org/2000/svg">
<rect x="0.5" y="0.5" width="31" height="31" rx="15.5" fill="white"/>
<rect x="0.5" y="0.5" width="31" height="31" rx="15.5" stroke="#E7E7E7"/>
<path d="M16.9335 6.92836C17.5956 6.92582 18.2576 6.93248 18.9195 6.94832L19.0955 6.95467C19.2987 6.96193 19.4993 6.971 19.7415 6.98189C20.7068 7.02725 21.3655 7.17967 21.9434 7.40377C22.5422 7.63421 23.0466 7.94631 23.5511 8.45074C24.0123 8.90402 24.3693 9.45231 24.5972 10.0575C24.8212 10.6354 24.9737 11.295 25.019 12.2603C25.0299 12.5017 25.039 12.7031 25.0462 12.9063L25.0517 13.0823C25.0678 13.7439 25.0748 14.4056 25.0726 15.0674L25.0735 15.7442V16.9327C25.0757 17.5948 25.0687 18.2568 25.0526 18.9187L25.0472 19.0947C25.0399 19.2979 25.0308 19.4985 25.0199 19.7407C24.9746 20.706 24.8203 21.3647 24.5972 21.9426C24.37 22.5484 24.013 23.0972 23.5511 23.5503C23.0974 24.0115 22.5488 24.3684 21.9434 24.5963C21.3655 24.8204 20.7068 24.9729 19.7415 25.0182C19.4993 25.0291 19.2987 25.0382 19.0955 25.0454L18.9195 25.0509C18.2576 25.067 17.5956 25.074 16.9335 25.0718L16.2567 25.0727H15.0691C14.407 25.0749 13.745 25.0679 13.0831 25.0518L12.9071 25.0463C12.6917 25.0385 12.4764 25.0295 12.2611 25.0191C11.2958 24.9738 10.6371 24.8195 10.0583 24.5963C9.45288 24.3689 8.90449 24.0119 8.45155 23.5503C7.98979 23.0969 7.6325 22.5483 7.40457 21.9426C7.18048 21.3647 7.02806 20.706 6.98269 19.7407C6.97259 19.5254 6.96352 19.3101 6.95548 19.0947L6.95094 18.9187C6.93421 18.2569 6.92665 17.5948 6.92826 16.9327V15.0674C6.92573 14.4056 6.93238 13.7439 6.94822 13.0823L6.95457 12.9063C6.96183 12.7031 6.9709 12.5017 6.98179 12.2603C7.02715 11.2941 7.17957 10.6363 7.40366 10.0575C7.63172 9.45202 7.98972 8.90387 8.45245 8.45165C8.90508 7.98963 9.45313 7.63201 10.0583 7.40377C10.6371 7.17967 11.2949 7.02725 12.2611 6.98189L12.9071 6.95467L13.0831 6.95014C13.7447 6.93342 14.4064 6.92586 15.0682 6.92746L16.9335 6.92836ZM16.0009 11.4647C15.3998 11.4562 14.8031 11.5672 14.2453 11.7913C13.6875 12.0155 13.1799 12.3482 12.7518 12.7703C12.3238 13.1923 11.9839 13.6952 11.7519 14.2497C11.5199 14.8043 11.4004 15.3994 11.4004 16.0005C11.4004 16.6016 11.5199 17.1967 11.7519 17.7513C11.9839 18.3058 12.3238 18.8087 12.7518 19.2308C13.1799 19.6528 13.6875 19.9855 14.2453 20.2097C14.8031 20.4338 15.3998 20.5449 16.0009 20.5364C17.204 20.5364 18.3578 20.0584 19.2085 19.2077C20.0592 18.357 20.5372 17.2032 20.5372 16.0001C20.5372 14.797 20.0592 13.6431 19.2085 12.7924C18.3578 11.9417 17.204 11.4647 16.0009 11.4647ZM16.0009 13.2792C16.3624 13.2725 16.7217 13.338 17.0576 13.4717C17.3936 13.6054 17.6996 13.8048 17.9576 14.0581C18.2157 14.3114 18.4207 14.6136 18.5606 14.947C18.7006 15.2805 18.7727 15.6384 18.7728 16C18.7728 16.3617 18.7008 16.7197 18.561 17.0531C18.4211 17.3866 18.2162 17.6889 17.9583 17.9423C17.7003 18.1957 17.3944 18.3951 17.0585 18.529C16.7225 18.6628 16.3633 18.7284 16.0018 18.7218C15.2799 18.7218 14.5876 18.4351 14.0772 17.9246C13.5667 17.4142 13.28 16.7219 13.28 16.0001C13.28 15.2782 13.5667 14.5859 14.0772 14.0755C14.5876 13.565 15.2799 13.2783 16.0018 13.2783L16.0009 13.2792ZM20.764 10.1038C20.4713 10.1155 20.1945 10.24 19.9915 10.4512C19.7886 10.6625 19.6753 10.944 19.6753 11.2369C19.6753 11.5299 19.7886 11.8114 19.9915 12.0227C20.1945 12.2339 20.4713 12.3584 20.764 12.3701C21.0647 12.3701 21.3532 12.2506 21.5659 12.0379C21.7786 11.8253 21.8981 11.5368 21.8981 11.236C21.8981 10.9353 21.7786 10.6468 21.5659 10.4341C21.3532 10.2214 21.0647 10.102 20.764 10.102V10.1038Z" fill="#454545"/>
</svg>
