<svg width="32" height="32" viewBox="0 0 32 32" fill="none" xmlns="http://www.w3.org/2000/svg">
<path d="M16.9325 6.92836C17.5946 6.92582 18.2567 6.93248 18.9185 6.94832L19.0945 6.95467C19.2978 6.96193 19.4983 6.971 19.7405 6.98189C20.7058 7.02725 21.3645 7.17967 21.9424 7.40377C22.5412 7.63421 23.0457 7.94631 23.5501 8.45074C24.0113 8.90402 24.3683 9.45231 24.5962 10.0575C24.8203 10.6354 24.9727 11.295 25.018 12.2603C25.0289 12.5017 25.038 12.7031 25.0453 12.9063L25.0507 13.0823C25.0668 13.7439 25.0738 14.4056 25.0716 15.0674L25.0725 15.7442V16.9327C25.0747 17.5948 25.0678 18.2568 25.0516 18.9187L25.0462 19.0947C25.0389 19.2979 25.0298 19.4985 25.019 19.7407C24.9736 20.706 24.8194 21.3647 24.5962 21.9426C24.369 22.5484 24.012 23.0972 23.5501 23.5503C23.0964 24.0115 22.5479 24.3684 21.9424 24.5963C21.3645 24.8204 20.7058 24.9729 19.7405 25.0182C19.4983 25.0291 19.2978 25.0382 19.0945 25.0454L18.9185 25.0509C18.2567 25.067 17.5946 25.074 16.9325 25.0718L16.2557 25.0727H15.0681C14.4061 25.0749 13.744 25.0679 13.0821 25.0518L12.9061 25.0463C12.6908 25.0385 12.4754 25.0295 12.2602 25.0191C11.2948 24.9738 10.6362 24.8195 10.0573 24.5963C9.4519 24.3689 8.90351 24.0119 8.45057 23.5503C7.98882 23.0969 7.63152 22.5483 7.40359 21.9426C7.1795 21.3647 7.02708 20.706 6.98172 19.7407C6.97161 19.5254 6.96254 19.3101 6.9545 19.0947L6.94996 18.9187C6.93324 18.2569 6.92567 17.5948 6.92728 16.9327V15.0674C6.92475 14.4056 6.9314 13.7439 6.94724 13.0823L6.95359 12.9063C6.96085 12.7031 6.96992 12.5017 6.98081 12.2603C7.02617 11.2941 7.17859 10.6363 7.40269 10.0575C7.63075 9.45202 7.98874 8.90387 8.45148 8.45165C8.90411 7.98963 9.45215 7.63201 10.0573 7.40377C10.6362 7.17967 11.2939 7.02725 12.2602 6.98189L12.9061 6.95467L13.0821 6.95014C13.7437 6.93342 14.4055 6.92586 15.0672 6.92746L16.9325 6.92836ZM15.9999 11.4647C15.3988 11.4562 14.8021 11.5672 14.2443 11.7913C13.6865 12.0155 13.1789 12.3482 12.7508 12.7703C12.3228 13.1923 11.9829 13.6952 11.7509 14.2497C11.5189 14.8043 11.3994 15.3994 11.3994 16.0005C11.3994 16.6016 11.5189 17.1967 11.7509 17.7513C11.9829 18.3058 12.3228 18.8087 12.7508 19.2308C13.1789 19.6528 13.6865 19.9855 14.2443 20.2097C14.8021 20.4338 15.3988 20.5449 15.9999 20.5364C17.203 20.5364 18.3568 20.0584 19.2075 19.2077C20.0583 18.357 20.5362 17.2032 20.5362 16.0001C20.5362 14.797 20.0583 13.6431 19.2075 12.7924C18.3568 11.9417 17.203 11.4647 15.9999 11.4647ZM15.9999 13.2792C16.3614 13.2725 16.7207 13.338 17.0567 13.4717C17.3926 13.6054 17.6986 13.8048 17.9566 14.0581C18.2147 14.3114 18.4197 14.6136 18.5597 14.947C18.6996 15.2805 18.7717 15.6384 18.7718 16C18.7719 16.3617 18.6999 16.7197 18.56 17.0531C18.4202 17.3866 18.2153 17.6889 17.9573 17.9423C17.6993 18.1957 17.3934 18.3951 17.0575 18.529C16.7216 18.6628 16.3623 18.7284 16.0008 18.7218C15.2789 18.7218 14.5866 18.4351 14.0762 17.9246C13.5658 17.4142 13.279 16.7219 13.279 16.0001C13.279 15.2782 13.5658 14.5859 14.0762 14.0755C14.5866 13.565 15.2789 13.2783 16.0008 13.2783L15.9999 13.2792ZM20.763 10.1038C20.4703 10.1155 20.1935 10.24 19.9906 10.4512C19.7876 10.6625 19.6743 10.944 19.6743 11.2369C19.6743 11.5299 19.7876 11.8114 19.9906 12.0227C20.1935 12.2339 20.4703 12.3584 20.763 12.3701C21.0638 12.3701 21.3522 12.2506 21.5649 12.0379C21.7776 11.8253 21.8971 11.5368 21.8971 11.236C21.8971 10.9353 21.7776 10.6468 21.5649 10.4341C21.3522 10.2214 21.0638 10.102 20.763 10.102V10.1038Z" fill="black"/>
</svg>
