<svg width="18" height="18" viewBox="0 0 18 18" fill="none" xmlns="http://www.w3.org/2000/svg">
<path d="M1.5 9C1.5 6.17175 1.5 4.75725 2.379 3.879C3.25725 3 4.67175 3 7.5 3H10.5C13.3282 3 14.7427 3 15.621 3.879C16.5 4.75725 16.5 6.17175 16.5 9V10.5C16.5 13.3282 16.5 14.7427 15.621 15.621C14.7427 16.5 13.3282 16.5 10.5 16.5H7.5C4.67175 16.5 3.25725 16.5 2.379 15.621C1.5 14.7427 1.5 13.3282 1.5 10.5V9Z" stroke="black" stroke-width="1.5"/>
<path d="M5.25 3V1.875M12.75 3V1.875M1.875 6.75H16.125" stroke="black" stroke-width="1.5" stroke-linecap="round"/>
</svg>
