<svg width="18" height="18" viewBox="0 0 18 18" fill="none" xmlns="http://www.w3.org/2000/svg">
<path d="M9.49779 16.8401C9.35251 16.9438 9.17849 16.9995 9.00001 16.9995C8.82153 16.9995 8.6475 16.9438 8.50223 16.8401C4.20976 13.7805 -0.345826 7.48715 4.25953 2.93957C5.52342 1.69522 7.22637 0.998458 9.00001 1C10.7778 1 12.4836 1.69778 13.7405 2.93868C18.3458 7.48626 13.7903 13.7787 9.49779 16.8401Z" stroke="black" stroke-width="1.5" stroke-linecap="round" stroke-linejoin="round"/>
<path d="M9.00008 9.00003C9.47158 9.00003 9.92376 8.81273 10.2572 8.47933C10.5906 8.14593 10.7779 7.69374 10.7779 7.22225C10.7779 6.75075 10.5906 6.29856 10.2572 5.96516C9.92376 5.63176 9.47158 5.44446 9.00008 5.44446C8.52858 5.44446 8.07639 5.63176 7.74299 5.96516C7.40959 6.29856 7.22229 6.75075 7.22229 7.22225C7.22229 7.69374 7.40959 8.14593 7.74299 8.47933C8.07639 8.81273 8.52858 9.00003 9.00008 9.00003Z" stroke="black" stroke-width="1.5" stroke-linecap="round" stroke-linejoin="round"/>
</svg>
