<svg width="34" height="34" viewBox="0 0 34 34" fill="none" xmlns="http://www.w3.org/2000/svg">
<path d="M29.6472 14.1525C20.2831 12.8662 12.2081 19.8192 12.7507 29.0417M9.20898 11.3333C9.20898 12.0848 9.5075 12.8054 10.0388 13.3368C10.5702 13.8682 11.2909 14.1667 12.0423 14.1667C12.7938 14.1667 13.5144 13.8682 14.0458 13.3368C14.5771 12.8054 14.8757 12.0848 14.8757 11.3333C14.8757 10.5819 14.5771 9.86122 14.0458 9.32986C13.5144 8.79851 12.7938 8.5 12.0423 8.5C11.2909 8.5 10.5702 8.79851 10.0388 9.32986C9.5075 9.86122 9.20898 10.5819 9.20898 11.3333Z" stroke="black" stroke-width="1.67143" stroke-linecap="round" stroke-linejoin="round"/>
<path d="M4.25098 18.5103C8.18931 17.9649 11.7239 19.8674 13.635 22.9019" stroke="black" stroke-width="1.67143" stroke-linecap="round" stroke-linejoin="round"/>
<path d="M4.25098 13.3167C4.25098 10.1433 4.25098 8.55667 4.86864 7.344C5.41192 6.2778 6.27877 5.41094 7.34498 4.86767C8.55764 4.25 10.1443 4.25 13.3176 4.25H20.6843C23.8576 4.25 25.4443 4.25 26.657 4.86767C27.7232 5.41094 28.59 6.2778 29.1333 7.344C29.751 8.55667 29.751 10.1433 29.751 13.3167V20.6833C29.751 23.8567 29.751 25.4433 29.1333 26.656C28.59 27.7222 27.7232 28.5891 26.657 29.1323C25.4443 29.75 23.8576 29.75 20.6843 29.75H13.3176C10.1443 29.75 8.55764 29.75 7.34498 29.1323C6.27877 28.5891 5.41192 27.7222 4.86864 26.656C4.25098 25.4433 4.25098 23.8567 4.25098 20.6833V13.3167Z" stroke="black" stroke-width="1.67143" stroke-linecap="round" stroke-linejoin="round"/>
</svg>
