<svg width="14" height="14" viewBox="0 0 14 14" fill="none" xmlns="http://www.w3.org/2000/svg">
<path d="M13.2222 13.2222V14H14V13.2222H13.2222ZM9.88322 8.78344C9.73653 8.64177 9.54006 8.56337 9.33613 8.56514C9.1322 8.56691 8.93713 8.64871 8.79292 8.79292C8.64871 8.93713 8.56691 9.1322 8.56514 9.33613C8.56337 9.54006 8.64177 9.73653 8.78344 9.88322L9.88322 8.78344ZM12.4444 8.55556V13.2222H14V8.55556H12.4444ZM13.2222 12.4444H8.55556V14H13.2222V12.4444ZM13.7721 12.6723L9.88322 8.78344L8.78344 9.88322L12.6723 13.7721L13.7721 12.6723ZM0.777778 13.2222H0V14H0.777778V13.2222ZM5.21656 9.88322C5.35823 9.73653 5.43663 9.54006 5.43486 9.33613C5.43309 9.1322 5.35129 8.93713 5.20708 8.79292C5.06287 8.64871 4.8678 8.56691 4.66387 8.56514C4.45994 8.56337 4.26347 8.64177 4.11678 8.78344L5.21656 9.88322ZM0 8.55556V13.2222H1.55556V8.55556H0ZM0.777778 14H5.44444V12.4444H0.777778V14ZM1.32767 13.7721L5.21656 9.88322L4.11678 8.78344L0.227889 12.6723L1.32767 13.7721ZM13.2222 0.777778H14V0H13.2222V0.777778ZM8.78344 4.11678C8.64177 4.26347 8.56337 4.45994 8.56514 4.66387C8.56691 4.8678 8.64871 5.06287 8.79292 5.20708C8.93713 5.35129 9.1322 5.43309 9.33613 5.43486C9.54006 5.43663 9.73653 5.35823 9.88322 5.21656L8.78344 4.11678ZM14 5.44444V0.777778H12.4444V5.44444H14ZM13.2222 0H8.55556V1.55556H13.2222V0ZM12.6723 0.227889L8.78344 4.11678L9.88322 5.21656L13.7721 1.32767L12.6723 0.227889ZM0.777778 0.777778V0H0V0.777778H0.777778ZM4.11678 5.21656C4.26347 5.35823 4.45994 5.43663 4.66387 5.43486C4.8678 5.43309 5.06287 5.35129 5.20708 5.20708C5.35129 5.06287 5.43309 4.8678 5.43486 4.66387C5.43663 4.45994 5.35823 4.26347 5.21656 4.11678L4.11678 5.21656ZM1.55556 5.44444V0.777778H0V5.44444H1.55556ZM0.777778 1.55556H5.44444V0H0.777778V1.55556ZM0.227889 1.32767L4.11678 5.21656L5.21656 4.11678L1.32767 0.227889L0.227889 1.32767Z" fill="black"/>
</svg>
