<svg width="34" height="34" viewBox="0 0 34 34" fill="none" xmlns="http://www.w3.org/2000/svg">
<path d="M17.0007 2.83333C9.18065 2.83333 2.83398 9.18 2.83398 17C2.83398 24.82 9.18065 31.1667 17.0007 31.1667C24.8207 31.1667 31.1673 24.82 31.1673 17C31.1673 9.18 24.8207 2.83333 17.0007 2.83333ZM13.459 20.7825V13.2175C13.459 12.0983 14.7057 11.4183 15.6407 12.0275L21.5198 15.81C21.7186 15.9384 21.8821 16.1146 21.9953 16.3225C22.1085 16.5304 22.1678 16.7633 22.1678 17C22.1678 17.2367 22.1085 17.4696 21.9953 17.6775C21.8821 17.8854 21.7186 18.0616 21.5198 18.19L15.6407 21.9725C14.7057 22.5817 13.459 21.9017 13.459 20.7825Z" fill="#000"/>
</svg>
