<svg width="70" height="70" viewBox="0 0 70 70" fill="none" xmlns="http://www.w3.org/2000/svg">
<g clip-path="url(#clip0_337_1889)">
<path d="M31.8227 4.15443C33.4237 2.06107 36.5763 2.06107 38.1773 4.15443L38.7394 4.88943C39.9376 6.45615 42.0991 6.91558 43.8309 5.97167L44.6434 5.52885C46.9574 4.26765 49.8375 5.54993 50.4486 8.11349L50.6632 9.01358C51.1206 10.9322 52.9083 12.2311 54.8744 12.0732L55.7967 11.9991C58.4236 11.7881 60.5331 14.131 60.0487 16.7215L59.8787 17.631C59.5161 19.5698 60.621 21.4835 62.4813 22.1389L63.354 22.4464C65.8397 23.3222 66.8139 26.3205 65.3177 28.49L64.7924 29.2517C63.6726 30.8754 63.9036 33.0731 65.3365 34.4285L66.0087 35.0644C67.9233 36.8754 67.5937 40.0107 65.3445 41.3841L64.5547 41.8663C62.8714 42.8942 62.1885 44.9958 62.9462 46.8169L63.3017 47.6712C64.3141 50.1043 62.7378 52.8346 60.1244 53.1744L59.2068 53.2937C57.2509 53.548 55.7723 55.1902 55.7238 57.162L55.7011 58.087C55.6363 60.7216 53.0858 62.5747 50.5601 61.8222L49.6733 61.5579C47.783 60.9947 45.7643 61.8935 44.918 63.6751L44.521 64.5109C43.3902 66.8914 40.3065 67.5469 38.3053 65.8321L37.6026 65.2301C36.1049 63.9467 33.8951 63.9467 32.3974 65.2301L31.6947 65.8321C29.6935 67.5469 26.6098 66.8914 25.479 64.5109L25.082 63.6751C24.2357 61.8935 22.217 60.9947 20.3267 61.5579L19.4399 61.8222C16.9142 62.5747 14.3637 60.7216 14.2989 58.087L14.2762 57.162C14.2277 55.1902 12.7491 53.548 10.7932 53.2937L9.8756 53.1744C7.2622 52.8346 5.6859 50.1043 6.69831 47.6712L7.05377 46.8169C7.81148 44.9958 7.12864 42.8942 5.44525 41.8663L4.65553 41.3841C2.40628 40.0107 2.07675 36.8754 3.99129 35.0644L4.6635 34.4285C6.0964 33.0731 6.32737 30.8754 5.2076 29.2517L4.68228 28.49C3.18611 26.3205 4.16032 23.3222 6.64596 22.4464L7.51869 22.1389C9.379 21.4835 10.4839 19.5698 10.1213 17.631L9.95125 16.7215C9.46686 14.131 11.5764 11.7881 14.2033 11.9991L15.1256 12.0732C17.0917 12.2311 18.8794 10.9322 19.3368 9.01358L19.5514 8.11349C20.1625 5.54993 23.0426 4.26765 25.3566 5.52885L26.1691 5.97167C27.9009 6.91558 30.0624 6.45615 31.2606 4.88943L31.8227 4.15443Z" fill="#F8861E"/>
</g>
<defs>
<clipPath id="clip0_337_1889">
<rect width="70" height="70" fill="white"/>
</clipPath>
</defs>
</svg>
