<svg width="36" height="36" viewBox="0 0 36 36" fill="none" xmlns="http://www.w3.org/2000/svg">
<g clip-path="url(#clip0_609_1955)">
<path fill-rule="evenodd" clip-rule="evenodd" d="M25.1355 10.1034C25.3568 10.0118 25.5991 9.98026 25.837 10.012C26.0749 10.0437 26.2999 10.1375 26.4884 10.2837C26.677 10.4299 26.8222 10.6231 26.9091 10.8432C26.9959 11.0633 27.0212 11.3023 26.9822 11.5353L24.951 23.6498C24.754 24.8184 23.45 25.4885 22.3601 24.9064C21.4484 24.4195 20.0943 23.6692 18.8763 22.8863C18.2673 22.4945 16.4018 21.2396 16.6311 20.3467C16.8281 19.5832 19.9627 16.7142 21.7538 15.0084C22.4568 14.3383 22.1362 13.9517 21.306 14.5681C19.2435 16.0986 15.9344 18.4261 14.84 19.0812C13.8745 19.6589 13.3712 19.7575 12.7694 19.6589C11.6714 19.4793 10.6531 19.201 9.82204 18.862C8.69899 18.404 8.75362 16.8859 9.82114 16.4438L25.1355 10.1034Z" fill="black"/>
</g>
<defs>
<clipPath id="clip0_609_1955">
<rect width="36" height="36" rx="18" fill="white"/>
</clipPath>
</defs>
</svg>
