<svg width="36" height="37" viewBox="0 0 36 37" fill="none" xmlns="http://www.w3.org/2000/svg">
<path d="M24.3769 12.318C23.5476 11.4846 22.5599 10.8237 21.4712 10.3741C20.3826 9.92442 19.2149 9.69494 18.0362 9.69903C13.0975 9.69903 9.07236 13.704 9.07236 18.618C9.07236 20.193 9.48844 21.723 10.2663 23.073L9 27.699L13.7487 26.457C15.0603 27.168 16.5347 27.546 18.0362 27.546C22.9749 27.546 27 23.541 27 18.627C27 16.242 26.0683 14.001 24.3769 12.318ZM18.0362 26.034C16.6975 26.034 15.3859 25.674 14.2372 24.999L13.9658 24.837L11.1437 25.575L11.8945 22.839L11.7136 22.56C10.9698 21.3783 10.5749 20.0123 10.5739 18.618C10.5739 14.532 13.9206 11.202 18.0271 11.202C20.0171 11.202 21.8894 11.976 23.2915 13.38C23.9857 14.0676 24.5358 14.8854 24.91 15.7861C25.2842 16.6868 25.475 17.6524 25.4714 18.627C25.4894 22.713 22.1427 26.034 18.0362 26.034ZM22.1246 20.49C21.8985 20.382 20.795 19.842 20.596 19.761C20.3879 19.689 20.2432 19.653 20.0894 19.869C19.9357 20.094 19.5106 20.598 19.3839 20.742C19.2573 20.895 19.1216 20.913 18.8955 20.796C18.6693 20.688 17.9457 20.445 17.0955 19.689C16.4261 19.095 15.9829 18.366 15.8472 18.141C15.7206 17.916 15.8291 17.799 15.9467 17.682C16.0462 17.583 16.1729 17.421 16.2814 17.295C16.3899 17.169 16.4352 17.07 16.5075 16.926C16.5799 16.773 16.5437 16.647 16.4894 16.539C16.4352 16.431 15.9829 15.333 15.802 14.883C15.6211 14.451 15.4312 14.505 15.2955 14.496H14.8613C14.7075 14.496 14.4724 14.55 14.2643 14.775C14.0653 15 13.4864 15.54 13.4864 16.638C13.4864 17.736 14.2915 18.798 14.4 18.942C14.5085 19.095 15.9829 21.345 18.2261 22.308C18.7598 22.542 19.1759 22.677 19.5015 22.776C20.0352 22.947 20.5236 22.92 20.9126 22.866C21.3467 22.803 22.2422 22.326 22.4231 21.804C22.6131 21.282 22.6131 20.841 22.5497 20.742C22.4864 20.643 22.3508 20.598 22.1246 20.49Z" fill="black"/>
</svg>
