<svg width="36" height="36" viewBox="0 0 36 36" fill="none" xmlns="http://www.w3.org/2000/svg">
<path d="M12.7775 10.9056C12.7773 11.4108 12.5781 11.8951 12.2237 12.2521C11.8693 12.6091 11.3888 12.8096 10.8878 12.8093C10.3869 12.8091 9.90658 12.6081 9.55254 12.2508C9.1985 11.8934 8.99975 11.4089 9 10.9037C9.00025 10.3986 9.19949 9.9142 9.55388 9.55719C9.90827 9.20017 10.3888 8.99975 10.8897 9C11.3907 9.00025 11.871 9.20116 12.225 9.55853C12.579 9.91591 12.7778 10.4005 12.7775 10.9056ZM12.8342 14.2197H9.05666V26.1429H12.8342V14.2197ZM18.8027 14.2197H15.0441V26.1429H18.765V19.8861C18.765 16.4005 23.2697 16.0768 23.2697 19.8861V26.1429H27V18.5909C27 12.715 20.3326 12.9341 18.765 15.8196L18.8027 14.2197Z" fill="black"/>
</svg>
