<svg width="36" height="36" viewBox="0 0 36 36" fill="none" xmlns="http://www.w3.org/2000/svg">
<path d="M21.7486 24.8196L11.5854 11.7529C11.5318 11.6839 11.4987 11.6013 11.4898 11.5144C11.4808 11.4275 11.4964 11.3399 11.5349 11.2614C11.5733 11.183 11.6329 11.1169 11.707 11.0707C11.7811 11.0245 11.8667 11 11.9541 11H13.8829C13.954 11.0001 14.024 11.0164 14.0878 11.0477C14.1515 11.079 14.2073 11.1244 14.2508 11.1804L24.4141 24.2471C24.4676 24.3161 24.5008 24.3987 24.5097 24.4856C24.5186 24.5725 24.503 24.6601 24.4646 24.7386C24.4262 24.817 24.3666 24.8831 24.2924 24.9293C24.2183 24.9755 24.1327 25 24.0454 25H22.1165C22.0455 24.9999 21.9755 24.9836 21.9117 24.9523C21.848 24.9211 21.7922 24.8757 21.7486 24.8196Z" stroke="black" stroke-width="1.2"/>
<path d="M24.2218 11L11.7773 25" stroke="black" stroke-width="1.2" stroke-linecap="round"/>
</svg>
