<svg width="36" height="36" viewBox="0 0 36 36" fill="none" xmlns="http://www.w3.org/2000/svg">
<path d="M15.6857 20.3156L21.3163 14.6854M13.5736 16.7963L12.1661 18.2037C11.7964 18.5733 11.5032 19.0122 11.3031 19.4953C11.103 19.9783 11 20.496 11 21.0188C11 21.5416 11.103 22.0593 11.3031 22.5423C11.5032 23.0254 11.7964 23.4642 12.1661 23.8339C12.5359 24.2036 12.9748 24.4969 13.4578 24.6969C13.9409 24.897 14.4586 25 14.9815 25C15.5043 25 16.0221 24.897 16.5051 24.6969C16.9882 24.4969 17.4271 24.2036 17.7968 23.8339L19.2022 22.4266M17.7958 12.5734L19.2032 11.1661C19.5729 10.7964 20.0118 10.5031 20.4949 10.3031C20.9779 10.103 21.4957 10 22.0185 10C22.5414 10 23.0591 10.103 23.5422 10.3031C24.0252 10.5031 24.4641 10.7964 24.8339 11.1661C25.2036 11.5358 25.4968 11.9746 25.6969 12.4577C25.897 12.9407 26 13.4584 26 13.9812C26 14.504 25.897 15.0217 25.6969 15.5047C25.4968 15.9878 25.2036 16.4267 24.8339 16.7963L23.4264 18.2037" stroke="black" stroke-width="2.5" stroke-linecap="round" stroke-linejoin="round"/>
</svg>
