<svg width="32" height="32" viewBox="0 0 32 32" fill="none" xmlns="http://www.w3.org/2000/svg">
<path d="M23.8464 6.73609H8.15364C7.97724 6.73364 7.80208 6.76596 7.63817 6.83121C7.47426 6.89647 7.32482 6.99336 7.19836 7.11638C7.0719 7.23939 6.97092 7.38611 6.90117 7.54816C6.83143 7.7102 6.79429 7.8844 6.79187 8.0608V23.9388C6.79429 24.1152 6.83143 24.2894 6.90117 24.4515C6.97092 24.6135 7.0719 24.7602 7.19836 24.8833C7.32482 25.0063 7.47426 25.1032 7.63817 25.1684C7.80208 25.2337 7.97724 25.266 8.15364 25.2635H23.8464C24.0228 25.266 24.198 25.2337 24.3619 25.1684C24.5258 25.1032 24.6752 25.0063 24.8017 24.8833C24.9281 24.7602 25.0291 24.6135 25.0989 24.4515C25.1686 24.2894 25.2057 24.1152 25.2082 23.9388V8.0608C25.2057 7.8844 25.1686 7.7102 25.0989 7.54816C25.0291 7.38611 24.9281 7.23939 24.8017 7.11638C24.6752 6.99336 24.5258 6.89647 24.3619 6.83121C24.198 6.76596 24.0228 6.73364 23.8464 6.73609ZM12.3779 22.2436H9.59878V13.9062H12.3779V22.2436ZM10.9883 12.739C10.6051 12.739 10.2375 12.5867 9.96647 12.3157C9.69545 12.0447 9.5432 11.6771 9.5432 11.2938C9.5432 10.9106 9.69545 10.543 9.96647 10.272C10.2375 10.001 10.6051 9.8487 10.9883 9.8487C11.1919 9.82562 11.398 9.84579 11.5931 9.90788C11.7883 9.96998 11.9682 10.0726 12.121 10.209C12.2738 10.3455 12.396 10.5126 12.4797 10.6996C12.5634 10.8865 12.6066 11.089 12.6066 11.2938C12.6066 11.4987 12.5634 11.7012 12.4797 11.8881C12.396 12.0751 12.2738 12.2422 12.121 12.3787C11.9682 12.5151 11.7883 12.6177 11.5931 12.6798C11.398 12.7419 11.1919 12.7621 10.9883 12.739ZM22.4013 22.2436H19.6221V17.7692C19.6221 16.6483 19.2238 15.9164 18.214 15.9164C17.9015 15.9187 17.5973 16.0168 17.3422 16.1973C17.0871 16.3778 16.8935 16.6322 16.7874 16.9262C16.7149 17.1439 16.6835 17.3732 16.6948 17.6024V22.2343H13.9157V13.897H16.6948V15.0734C16.9473 14.6354 17.3145 14.2745 17.7568 14.0296C18.1992 13.7848 18.7 13.6652 19.2053 13.6839C21.058 13.6839 22.4013 14.8789 22.4013 17.445V22.2436Z" fill="black"/>
</svg>
