<svg width="32" height="32" viewBox="0 0 32 32" fill="none" xmlns="http://www.w3.org/2000/svg">
<path d="M16.9327 6.92836C17.5947 6.92582 18.2568 6.93248 18.9187 6.94832L19.0947 6.95467C19.2979 6.96193 19.4984 6.971 19.7406 6.98189C20.706 7.02725 21.3646 7.17967 21.9426 7.40377C22.5414 7.63421 23.0458 7.94631 23.5502 8.45074C24.0115 8.90402 24.3684 9.45231 24.5963 10.0575C24.8204 10.6354 24.9728 11.295 25.0182 12.2603C25.0291 12.5017 25.0381 12.7031 25.0454 12.9063L25.0508 13.0823C25.067 13.7439 25.0739 14.4056 25.0717 15.0674L25.0726 15.7442V16.9327C25.0748 17.5948 25.0679 18.2568 25.0517 18.9187L25.0463 19.0947C25.039 19.2979 25.03 19.4985 25.0191 19.7407C24.9737 20.706 24.8195 21.3647 24.5963 21.9426C24.3692 22.5484 24.0121 23.0972 23.5502 23.5503C23.0966 24.0115 22.548 24.3684 21.9426 24.5963C21.3646 24.8204 20.706 24.9729 19.7406 25.0182C19.4984 25.0291 19.2979 25.0382 19.0947 25.0454L18.9187 25.0509C18.2568 25.067 17.5947 25.074 16.9327 25.0718L16.2559 25.0727H15.0682C14.4062 25.0749 13.7441 25.0679 13.0823 25.0518L12.9062 25.0463C12.6909 25.0385 12.4755 25.0295 12.2603 25.0191C11.295 24.9738 10.6363 24.8195 10.0575 24.5963C9.45202 24.3689 8.90363 24.0119 8.45069 23.5503C7.98894 23.0969 7.63164 22.5483 7.40371 21.9426C7.17962 21.3647 7.0272 20.706 6.98184 19.7407C6.97173 19.5254 6.96266 19.3101 6.95462 19.0947L6.95008 18.9187C6.93336 18.2569 6.9258 17.5948 6.9274 16.9327V15.0674C6.92487 14.4056 6.93153 13.7439 6.94736 13.0823L6.95371 12.9063C6.96097 12.7031 6.97004 12.5017 6.98093 12.2603C7.02629 11.2941 7.17871 10.6363 7.40281 10.0575C7.63087 9.45202 7.98887 8.90387 8.4516 8.45165C8.90423 7.98963 9.45227 7.63201 10.0575 7.40377C10.6363 7.17967 11.294 7.02725 12.2603 6.98189L12.9062 6.95467L13.0823 6.95014C13.7438 6.93342 14.4056 6.92586 15.0673 6.92746L16.9327 6.92836ZM16 11.4647C15.399 11.4562 14.8022 11.5672 14.2444 11.7913C13.6867 12.0155 13.179 12.3482 12.751 12.7703C12.3229 13.1923 11.983 13.6952 11.751 14.2497C11.519 14.8043 11.3996 15.3994 11.3996 16.0005C11.3996 16.6016 11.519 17.1967 11.751 17.7513C11.983 18.3058 12.3229 18.8087 12.751 19.2308C13.179 19.6528 13.6867 19.9855 14.2444 20.2097C14.8022 20.4338 15.399 20.5449 16 20.5364C17.2031 20.5364 18.3569 20.0584 19.2077 19.2077C20.0584 18.357 20.5363 17.2032 20.5363 16.0001C20.5363 14.797 20.0584 13.6431 19.2077 12.7924C18.3569 11.9417 17.2031 11.4647 16 11.4647ZM16 13.2792C16.3616 13.2725 16.7208 13.338 17.0568 13.4717C17.3927 13.6054 17.6987 13.8048 17.9568 14.0581C18.2148 14.3114 18.4198 14.6136 18.5598 14.947C18.6997 15.2805 18.7719 15.6384 18.7719 16C18.772 16.3617 18.7 16.7197 18.5601 17.0531C18.4203 17.3866 18.2154 17.6889 17.9574 17.9423C17.6994 18.1957 17.3935 18.3951 17.0576 18.529C16.7217 18.6628 16.3625 18.7284 16.0009 18.7218C15.2791 18.7218 14.5868 18.4351 14.0763 17.9246C13.5659 17.4142 13.2791 16.7219 13.2791 16.0001C13.2791 15.2782 13.5659 14.5859 14.0763 14.0755C14.5868 13.565 15.2791 13.2783 16.0009 13.2783L16 13.2792ZM20.7631 10.1038C20.4704 10.1155 20.1936 10.24 19.9907 10.4512C19.7877 10.6625 19.6744 10.944 19.6744 11.2369C19.6744 11.5299 19.7877 11.8114 19.9907 12.0227C20.1936 12.2339 20.4704 12.3584 20.7631 12.3701C21.0639 12.3701 21.3524 12.2506 21.565 12.0379C21.7777 11.8253 21.8972 11.5368 21.8972 11.236C21.8972 10.9353 21.7777 10.6468 21.565 10.4341C21.3524 10.2214 21.0639 10.102 20.7631 10.102V10.1038Z" fill="black"/>
</svg>
