<svg width="32" height="32" viewBox="0 0 32 32" fill="none" xmlns="http://www.w3.org/2000/svg">
<g clip-path="url(#clip0_312_279)">
<path d="M12.7939 8.27014C12.9114 8.27019 13.0277 8.29438 13.1356 8.34121C13.2434 8.38805 13.3405 8.45652 13.4208 8.5424L13.4861 8.62142L17.1569 13.6269L22.2637 8.52179C22.4183 8.36775 22.6257 8.27832 22.8438 8.27166C23.0619 8.265 23.2744 8.34161 23.4381 8.48593C23.6017 8.63025 23.7043 8.83146 23.725 9.04868C23.7457 9.26591 23.6829 9.48287 23.5495 9.6555L23.4782 9.73623L18.185 15.0286L23.5632 22.3633C23.6523 22.4849 23.7078 22.6277 23.7242 22.7775C23.7406 22.9273 23.7173 23.0787 23.6566 23.2167C23.596 23.3546 23.5001 23.4741 23.3786 23.5633C23.2571 23.6525 23.1143 23.7081 22.9646 23.7246L22.871 23.7298H19.2062C19.0886 23.7297 18.9723 23.7055 18.8644 23.6587C18.7566 23.6119 18.6595 23.5434 18.5792 23.4575L18.5139 23.3785L14.8414 18.3722L9.73628 23.4781C9.58172 23.6322 9.37433 23.7216 9.15622 23.7283C8.93811 23.7349 8.72564 23.6583 8.56197 23.514C8.3983 23.3697 8.2957 23.1685 8.275 22.9512C8.25431 22.734 8.31708 22.517 8.45056 22.3444L8.52184 22.2637L13.8133 16.9705L8.43681 9.6366C8.34776 9.51506 8.29225 9.37222 8.27585 9.22243C8.25946 9.07265 8.28276 8.92118 8.34341 8.78325C8.40407 8.64532 8.49994 8.52577 8.62141 8.43661C8.74289 8.34745 8.88567 8.29182 9.03545 8.27529L9.12906 8.27014H12.7939Z" fill="black"/>
</g>
<defs>
<clipPath id="clip0_312_279">
<rect width="32" height="32" rx="16" fill="white"/>
</clipPath>
</defs>
</svg>
