<svg width="32" height="32" viewBox="0 0 32 32" fill="none" xmlns="http://www.w3.org/2000/svg">
<path d="M14.1421 18.7869L18.9633 16L14.1421 13.2132V18.7869ZM24.8807 11.5132C25.0015 11.9498 25.0851 12.5351 25.1408 13.2782C25.2058 14.0214 25.2337 14.6624 25.2337 15.2197L25.2894 16C25.2894 18.0344 25.1408 19.53 24.8807 20.4868C24.6485 21.3229 24.1097 21.8617 23.2736 22.0939C22.837 22.2147 22.0381 22.2983 20.8119 22.354C19.6043 22.419 18.4989 22.4469 17.477 22.4469L16 22.5026C12.1077 22.5026 9.68319 22.354 8.72638 22.0939C7.89033 21.8617 7.35154 21.3229 7.11931 20.4868C6.99854 20.0502 6.91494 19.465 6.8592 18.7218C6.79418 17.9787 6.76631 17.3377 6.76631 16.7804L6.71057 16C6.71057 13.9657 6.8592 12.4701 7.11931 11.5132C7.35154 10.6772 7.89033 10.1384 8.72638 9.90617C9.16298 9.78541 9.96187 9.7018 11.1881 9.64607C12.3957 9.58104 13.5011 9.55317 14.523 9.55317L16 9.49744C19.8923 9.49744 22.3168 9.64607 23.2736 9.90617C24.1097 10.1384 24.6485 10.6772 24.8807 11.5132Z" fill="black"/>
</svg>
